<?xml version="1.0" encoding="utf-8"?>
<!-- Generator: Adobe Illustrator 16.0.0, SVG Export Plug-In . SVG Version: 6.00 Build 0)  -->
<!DOCTYPE svg PUBLIC "-//W3C//DTD SVG 1.1//EN" "http://www.w3.org/Graphics/SVG/1.1/DTD/svg11.dtd">
<svg version="1.1" id="レイヤー_1" xmlns="http://www.w3.org/2000/svg" xmlns:xlink="http://www.w3.org/1999/xlink" x="0px"
	 y="0px" width="199.739px" height="45.178px" viewBox="0 0 199.739 45.178" enable-background="new 0 0 199.739 45.178"
	 xml:space="preserve">
<g>
	<g>
		<linearGradient id="SVGID_1_" gradientUnits="userSpaceOnUse" x1="99.8696" y1="45.1777" x2="99.8696" y2="4.882813e-004">
			<stop  offset="0" style="stop-color:#FFBDC9"/>
			<stop  offset="1" style="stop-color:#E36F82"/>
		</linearGradient>
		<rect fill="url(#SVGID_1_)" width="199.739" height="45.178"/>
		<linearGradient id="SVGID_2_" gradientUnits="userSpaceOnUse" x1="99.8696" y1="45.1777" x2="99.8696" y2="4.882813e-004">
			<stop  offset="0" style="stop-color:#E36F82"/>
			<stop  offset="1" style="stop-color:#FFFFFF"/>
		</linearGradient>
		<path fill="url(#SVGID_2_)" d="M198.328,1.411v42.357H1.411V1.411H198.328 M199.739,0H0v45.178h199.739V0L199.739,0z"/>
	</g>
	<defs>
		<filter id="Adobe_OpacityMaskFilter" filterUnits="userSpaceOnUse" x="-87.113" y="-45.036" width="373.964" height="188.612">
			<feColorMatrix  type="matrix" values="1 0 0 0 0  0 1 0 0 0  0 0 1 0 0  0 0 0 1 0"/>
		</filter>
	</defs>
	<mask maskUnits="userSpaceOnUse" x="-87.113" y="-45.036" width="373.964" height="188.612" id="SVGID_3_">
		<g filter="url(#Adobe_OpacityMaskFilter)">
			<g>
				<rect fill="#FFFFFF" width="199.739" height="45.178"/>
			</g>
		</g>
	</mask>
	<g opacity="0.78" mask="url(#SVGID_3_)">
		<defs>
			
				<filter id="Adobe_OpacityMaskFilter_1_" filterUnits="userSpaceOnUse" x="-87.113" y="-45.036" width="373.964" height="188.612">
				<feFlood  style="flood-color:white;flood-opacity:1" result="back"/>
				<feBlend  in="SourceGraphic" in2="back" mode="normal"/>
			</filter>
		</defs>
		<mask maskUnits="userSpaceOnUse" x="-87.113" y="-45.036" width="373.964" height="188.612" id="SVGID_3_">
			<g filter="url(#Adobe_OpacityMaskFilter_1_)">
				
					<image overflow="visible" width="1575" height="803" xlink:href="C0CBD0A7.jpg"  transform="matrix(0.24 0 0 0.24 -89.1128 -47.0361)">
				</image>
			</g>
		</mask>
		<g>
			
				<radialGradient id="SVGID_4_" cx="-103.1563" cy="694.9629" r="182.1111" gradientTransform="matrix(0.7716 0 0 0.1456 179.4648 -51.9188)" gradientUnits="userSpaceOnUse">
				<stop  offset="0" style="stop-color:#FFBDC9"/>
				<stop  offset="1" style="stop-color:#000000"/>
			</radialGradient>
			<ellipse fill="url(#SVGID_4_)" cx="99.869" cy="49.268" rx="186.982" ry="94.309"/>
		</g>
	</g>
	<defs>
		
			<filter id="Adobe_OpacityMaskFilter_2_" filterUnits="userSpaceOnUse" x="-116.147" y="-95.707" width="432.034" height="108.956">
			<feColorMatrix  type="matrix" values="1 0 0 0 0  0 1 0 0 0  0 0 1 0 0  0 0 0 1 0"/>
		</filter>
	</defs>
	<mask maskUnits="userSpaceOnUse" x="-116.147" y="-95.707" width="432.034" height="108.956" id="SVGID_5_">
		<g filter="url(#Adobe_OpacityMaskFilter_2_)">
			<g>
				<rect fill="#FFFFFF" width="199.739" height="45.178"/>
			</g>
		</g>
	</mask>
	
		<radialGradient id="SVGID_6_" cx="99.8701" cy="350.5371" r="158.504" gradientTransform="matrix(1 0 0 0.3822 0 -175.2034)" gradientUnits="userSpaceOnUse">
		<stop  offset="0" style="stop-color:#FFFFFF"/>
		<stop  offset="1" style="stop-color:#FFFFFF;stop-opacity:0.35"/>
	</radialGradient>
	<ellipse opacity="0.66" mask="url(#SVGID_5_)" fill="url(#SVGID_6_)" cx="99.87" cy="-41.229" rx="216.017" ry="54.478"/>
</g>
<g>
	<g>
		<path fill="#FFFFFF" d="M16.511,20.627v2.11c0,1.416-0.076,2.677-0.228,3.787c-0.179,1.374-0.591,2.637-1.236,3.787
			c-0.037,0.072-0.064,0.109-0.083,0.109s-0.062-0.032-0.131-0.096c-0.096-0.078-0.189-0.125-0.281-0.139
			c0.678-1.086,1.113-2.361,1.306-3.827c0.133-0.976,0.199-2.183,0.199-3.622l-0.027-2.474c0-0.055,0.027-0.083,0.082-0.083
			l2.041,0.027h2.873v-1.1c0-0.504-0.032-0.889-0.097-1.154c0.188,0.014,0.369,0.039,0.543,0.076
			c0.097,0.014,0.145,0.045,0.145,0.096c0,0.037-0.027,0.121-0.082,0.254c-0.046,0.115-0.069,0.357-0.069,0.729v1.1h3.189
			l2.014-0.027c0.059,0,0.089,0.027,0.089,0.083v0.309c0,0.055-0.03,0.083-0.089,0.083l-2.014-0.027H16.511z M17.308,28.854
			c-0.019,0.036-0.037,0.055-0.055,0.055c-0.019,0-0.081-0.027-0.186-0.083c-0.115-0.073-0.172-0.121-0.172-0.144
			c0-0.014,0.007-0.033,0.021-0.056c0.664-1.122,1.104-2.332,1.319-3.628c0.009-0.047,0.029-0.069,0.062-0.069
			c0.019,0,0.078,0.014,0.179,0.042c0.146,0.036,0.22,0.07,0.22,0.103c0,0.005-0.002,0.017-0.007,0.034
			C18.404,26.496,17.944,27.744,17.308,28.854z M20.455,25.898v2.57l-0.007,0.604c0,0.344,0.075,0.58,0.227,0.709
			c0.174,0.15,0.701,0.227,1.581,0.227c0.806,0,1.34-0.104,1.601-0.31c0.192-0.146,0.328-0.396,0.406-0.749
			c0.068-0.298,0.111-0.738,0.13-1.319c0.083,0.091,0.172,0.165,0.269,0.22c0.101,0.055,0.151,0.112,0.151,0.172
			c0,0.01-0.003,0.041-0.008,0.096c-0.041,0.67-0.126,1.148-0.254,1.437c-0.082,0.184-0.218,0.353-0.405,0.509
			c-0.289,0.233-0.914,0.351-1.876,0.351c-1.036,0-1.688-0.112-1.959-0.337c-0.206-0.179-0.31-0.545-0.31-1.1V25.87
			c0-0.824-0.029-1.454-0.089-1.89c0.169,0.01,0.354,0.032,0.557,0.068c0.096,0.019,0.145,0.053,0.145,0.104
			c0,0.037-0.03,0.121-0.09,0.254C20.478,24.521,20.455,25.018,20.455,25.898z M20.394,21.953c-0.028-0.014-0.042-0.03-0.042-0.048
			c0-0.014,0.032-0.064,0.097-0.151c0.082-0.096,0.135-0.145,0.158-0.145c0.014,0,0.031,0.007,0.055,0.021
			c0.926,0.499,1.821,1.12,2.688,1.862c0.027,0.023,0.041,0.041,0.041,0.055c0,0.023-0.044,0.089-0.131,0.199
			c-0.073,0.111-0.121,0.166-0.145,0.166c-0.018,0-0.039-0.014-0.062-0.041C22.287,23.156,21.401,22.517,20.394,21.953z
			 M25.066,25.107c-0.014-0.023-0.021-0.039-0.021-0.048c0-0.019,0.053-0.056,0.158-0.11c0.091-0.051,0.148-0.075,0.172-0.075
			c0.018,0,0.036,0.017,0.055,0.048c0.688,1.187,1.185,2.381,1.491,3.58c0.009,0.023,0.014,0.037,0.014,0.041
			c0,0.028-0.075,0.074-0.227,0.139c-0.105,0.05-0.17,0.075-0.192,0.075c-0.027,0-0.049-0.025-0.063-0.075
			C26.115,27.334,25.652,26.143,25.066,25.107z"/>
		<path fill="#FFFFFF" d="M39.147,25.918h-1.896c1.149,0.98,2.574,1.634,4.274,1.959c-0.124,0.078-0.218,0.165-0.282,0.262
			c-0.046,0.082-0.087,0.123-0.123,0.123c-0.019,0-0.06-0.009-0.124-0.027c-1.067-0.312-1.927-0.652-2.577-1.023
			c-0.577-0.33-1.132-0.761-1.663-1.293h-3.532c-1.021,0.972-2.405,1.78-4.151,2.426c-0.073,0.028-0.119,0.042-0.137,0.042
			c-0.032,0-0.081-0.048-0.145-0.145c-0.046-0.063-0.136-0.135-0.269-0.213c1.782-0.531,3.161-1.235,4.138-2.11h-1.945l-1.883,0.027
			c-0.055,0-0.082-0.027-0.082-0.082v-0.281c0-0.055,0.027-0.083,0.082-0.083l1.883,0.028h2.371
			c0.431-0.445,0.705-0.834,0.825-1.169h-0.742l-1.959,0.027c-0.055,0-0.083-0.027-0.083-0.083l0.028-1.126V22.07l-0.028-1.127
			c0-0.055,0.028-0.083,0.083-0.083l1.959,0.027h3.573L38.7,20.86c0.056,0,0.083,0.027,0.083,0.083l-0.027,1.127v1.106l0.027,1.126
			c0,0.056-0.027,0.083-0.083,0.083l-1.958-0.027h-2.783l0.302,0.158c0.105,0.055,0.158,0.11,0.158,0.165
			c0,0.051-0.057,0.107-0.172,0.172c-0.032,0.018-0.109,0.098-0.233,0.24c-0.155,0.174-0.288,0.318-0.398,0.434h5.532l1.89-0.028
			c0.055,0,0.083,0.028,0.083,0.083v0.281c0,0.055-0.028,0.082-0.083,0.082L39.147,25.918z M39.064,19.727h-2.013l0.027,0.729
			c0,0.06-0.027,0.089-0.083,0.089h-0.295c-0.056,0-0.083-0.03-0.083-0.089c0-0.004,0.003-0.078,0.007-0.22
			c0.01-0.155,0.017-0.325,0.021-0.508h-3.56l0.027,0.715c0,0.06-0.029,0.089-0.089,0.089h-0.296c-0.055,0-0.082-0.03-0.082-0.089
			c0-0.005,0.004-0.078,0.014-0.22c0.004-0.151,0.009-0.316,0.014-0.495h-1.855l-1.904,0.027c-0.055,0-0.082-0.027-0.082-0.083
			v-0.295c0-0.055,0.027-0.083,0.082-0.083l1.904,0.028h1.855c0-0.573-0.032-0.972-0.097-1.196c0.179,0.014,0.354,0.039,0.522,0.075
			c0.083,0.014,0.124,0.051,0.124,0.11c0,0.05-0.019,0.107-0.055,0.171c-0.056,0.11-0.083,0.39-0.083,0.839h3.56
			c0-0.522-0.034-0.917-0.103-1.182c0.192,0.014,0.368,0.039,0.529,0.076c0.082,0.014,0.123,0.05,0.123,0.11
			c0,0.05-0.018,0.107-0.055,0.172c-0.06,0.11-0.089,0.385-0.089,0.825h2.013l1.897-0.028c0.06,0,0.089,0.028,0.089,0.083v0.295
			c0,0.055-0.029,0.083-0.089,0.083L39.064,19.727z M33.292,27.547h1.045l0.055-0.186c0.11-0.385,0.165-0.703,0.165-0.955
			c0-0.055-0.002-0.117-0.007-0.186c0.179,0.032,0.318,0.063,0.419,0.09c0.133,0.031,0.199,0.072,0.199,0.123
			c0,0.041-0.036,0.113-0.109,0.213c-0.041,0.061-0.112,0.266-0.213,0.619l-0.09,0.281h1.704l1.904-0.027
			c0.063,0,0.096,0.032,0.096,0.096c-0.009,0.047-0.039,0.25-0.089,0.612c-0.032,0.233-0.064,0.429-0.097,0.584
			c-0.101,0.519-0.213,0.912-0.337,1.183c-0.169,0.385-0.497,0.576-0.982,0.576c-0.362,0-0.737-0.018-1.127-0.055
			c-0.087-0.009-0.14-0.022-0.158-0.041c-0.019-0.018-0.041-0.075-0.068-0.172c-0.032-0.109-0.083-0.213-0.151-0.309
			c0.49,0.096,0.948,0.145,1.374,0.145c0.381,0,0.63-0.147,0.749-0.44c0.202-0.518,0.323-1.104,0.364-1.759h-3.333
			c-0.288,0.654-0.7,1.182-1.236,1.58c-0.692,0.518-1.748,0.916-3.169,1.195c-0.06,0.01-0.101,0.014-0.123,0.014
			c-0.046,0-0.094-0.047-0.145-0.144c-0.055-0.097-0.14-0.181-0.254-0.255c1.58-0.211,2.758-0.618,3.532-1.223
			c0.421-0.32,0.739-0.711,0.955-1.168h-0.873l-1.883,0.027c-0.055,0-0.082-0.027-0.082-0.083v-0.282
			c0-0.055,0.027-0.082,0.082-0.082L33.292,27.547z M38.315,21.28h-6.728v1.113h6.728V21.28z M38.315,23.967v-1.196h-6.728v1.196
			H38.315z"/>
		<path fill="#FFFFFF" d="M44.542,20.538c0.894,0.046,1.808,0.068,2.742,0.068h5.058c0.316,0,0.541-0.039,0.674-0.117
			c0.041-0.023,0.087-0.034,0.138-0.034c0.059,0,0.107,0.016,0.144,0.048c0.17,0.142,0.294,0.261,0.371,0.357
			c0.037,0.051,0.056,0.108,0.056,0.172c0,0.06-0.019,0.105-0.056,0.138c-0.133,0.105-0.231,0.25-0.295,0.433
			c-0.655,1.778-1.604,3.354-2.846,4.728c-1.287,1.43-2.758,2.599-4.412,3.506c-0.046,0.022-0.091,0.034-0.137,0.034
			c-0.06,0-0.108-0.021-0.145-0.062c-0.101-0.124-0.213-0.213-0.337-0.269c1.104-0.55,2.06-1.157,2.866-1.821
			c0.563-0.463,1.143-1.028,1.738-1.697c0.609-0.683,1.173-1.469,1.69-2.357c0.514-0.879,0.907-1.743,1.183-2.591h-5.704
			c-0.857,0-1.682,0.021-2.475,0.062c-0.022,0-0.043,0-0.062,0c-0.11,0-0.17-0.062-0.179-0.186
			C44.547,20.844,44.542,20.707,44.542,20.538z"/>
		<path fill="#FFFFFF" d="M63.387,24.736c-0.577,0.82-1.239,1.561-1.986,2.22c-0.807,0.715-1.604,1.283-2.392,1.704
			c-0.051,0.027-0.092,0.041-0.124,0.041s-0.062-0.014-0.089-0.041c-0.078-0.092-0.186-0.169-0.323-0.233
			c1.013-0.513,1.886-1.095,2.618-1.745c0.733-0.642,1.382-1.379,1.945-2.213h-2.522c-0.48,0-1.01,0.014-1.587,0.041
			c-0.097,0-0.149-0.037-0.158-0.109c-0.01-0.069-0.014-0.195-0.014-0.379c0.439,0.019,1.025,0.027,1.759,0.027h2.832l-0.063-1.305
			c-0.014-0.458-0.06-0.82-0.138-1.086c0.257,0.018,0.463,0.05,0.619,0.096c0.06,0.018,0.089,0.06,0.089,0.124
			c0,0.046-0.016,0.085-0.048,0.117c-0.055,0.055-0.082,0.209-0.082,0.46c0,0.115,0.004,0.275,0.014,0.481l0.055,1.113h1.546
			c0.55,0,1.189-0.014,1.918-0.041c0.073,0,0.109,0.037,0.109,0.109v0.255c0,0.073-0.036,0.11-0.109,0.11
			c-0.477-0.01-1.116-0.014-1.918-0.014h-1.532l0.199,4.15c0.005,0.102,0.007,0.204,0.007,0.31c0,0.315-0.039,0.54-0.117,0.673
			c-0.063,0.105-0.174,0.19-0.329,0.255c-0.408,0.169-0.844,0.254-1.306,0.254c-0.102,0-0.158-0.027-0.172-0.082
			c-0.032-0.134-0.097-0.255-0.192-0.364c0.554,0,0.984-0.049,1.292-0.145c0.155-0.051,0.259-0.121,0.309-0.213
			c0.042-0.082,0.063-0.221,0.063-0.412c0-0.064-0.003-0.151-0.007-0.262L63.387,24.736z"/>
		<path fill="#FFFFFF" d="M71.832,24.234c0.692,0.047,1.602,0.068,2.729,0.068h4.763c1.273,0,2.276-0.014,3.01-0.041
			c0.119,0,0.179,0.047,0.179,0.139v0.281c0,0.105-0.06,0.158-0.179,0.158c-0.526-0.019-1.157-0.027-1.89-0.027h-1.12H73.42
			l-1.347,0.082c-0.088,0-0.145-0.041-0.172-0.123C71.855,24.615,71.832,24.437,71.832,24.234z"/>
		<path fill="#FFFFFF" d="M90.759,19.211c0.302,0.078,0.542,0.186,0.721,0.323c0.042,0.037,0.063,0.078,0.063,0.124
			c0,0.055-0.037,0.117-0.11,0.186c-0.133,0.138-0.286,0.481-0.46,1.031c-0.857,2.699-1.801,5.144-2.832,7.333
			c3.042-0.238,5.343-0.483,6.9-0.735c-0.601-1.044-1.215-1.931-1.842-2.659l0.281-0.193c0.041-0.027,0.076-0.041,0.104-0.041
			c0.046,0,0.089,0.032,0.131,0.097c0.998,1.219,1.894,2.639,2.687,4.261c0.014,0.023,0.021,0.046,0.021,0.068
			c0,0.037-0.016,0.071-0.048,0.104c-0.092,0.068-0.19,0.128-0.296,0.178c-0.018,0.01-0.034,0.015-0.048,0.015
			c-0.041,0-0.08-0.036-0.117-0.11c-0.192-0.439-0.402-0.861-0.632-1.264c-1.91,0.288-4.346,0.565-7.306,0.831
			c-0.906,0.077-1.422,0.16-1.546,0.247c-0.046,0.032-0.089,0.049-0.131,0.049c-0.06,0-0.101-0.025-0.123-0.076
			c-0.06-0.119-0.131-0.348-0.213-0.688c0.123,0.01,0.261,0.014,0.412,0.014c0.298,0,0.71-0.018,1.236-0.055
			c1.063-2.295,2.01-4.801,2.839-7.518C90.614,20.171,90.717,19.665,90.759,19.211z"/>
		<path fill="#FFFFFF" d="M101.15,19.252c0.229,0.064,0.421,0.149,0.577,0.254c0.068,0.045,0.103,0.096,0.103,0.151
			c0,0.032-0.012,0.066-0.034,0.103c-0.064,0.087-0.135,0.312-0.213,0.674c-0.449,2.336-0.674,4.109-0.674,5.319
			c0,1.1,0.06,2.062,0.179,2.886c0.143-0.343,0.323-0.778,0.543-1.306c0.238-0.577,0.405-0.982,0.502-1.217
			c0.022,0.078,0.099,0.207,0.227,0.385c0.023,0.037,0.034,0.076,0.034,0.117c0,0.032-0.009,0.068-0.027,0.11
			c-0.568,1.241-0.877,2.021-0.928,2.337c-0.022,0.128-0.034,0.24-0.034,0.336c0,0.078,0.007,0.146,0.021,0.207
			c0.014,0.05,0.021,0.089,0.021,0.116c0,0.032-0.012,0.056-0.034,0.069c-0.082,0.055-0.194,0.105-0.337,0.15
			c-0.009,0.005-0.019,0.008-0.027,0.008c-0.032,0-0.06-0.03-0.082-0.09c-0.248-0.609-0.403-1.372-0.468-2.289
			c-0.027-0.389-0.041-0.978-0.041-1.766c0-1.067,0.211-2.845,0.632-5.333c0.051-0.325,0.076-0.623,0.076-0.894
			C101.164,19.454,101.159,19.344,101.15,19.252z M107.747,27.053c-0.082-1.902-0.123-3.391-0.123-4.467
			c-0.733,0.05-1.391,0.076-1.973,0.076c-0.472,0-0.938-0.016-1.396-0.048c-0.055,0-0.087-0.023-0.096-0.069
			c-0.019-0.169-0.027-0.304-0.027-0.405c0.48,0.041,0.964,0.062,1.45,0.062c0.618,0,1.299-0.035,2.041-0.103
			c0-0.77,0.004-1.361,0.014-1.773c0-0.481-0.034-0.875-0.104-1.182c0.252,0.05,0.461,0.105,0.626,0.165
			c0.055,0.032,0.082,0.071,0.082,0.117s-0.014,0.096-0.041,0.151c-0.037,0.078-0.066,0.351-0.09,0.818
			c-0.009,0.367-0.014,0.921-0.014,1.663c0.77-0.073,1.578-0.199,2.426-0.378c0.014-0.004,0.025-0.007,0.035-0.007
			c0.022,0,0.038,0.021,0.048,0.062c0.018,0.091,0.027,0.19,0.027,0.295c0,0.073-0.023,0.114-0.068,0.124
			c-0.706,0.169-1.528,0.295-2.468,0.378c0.014,1.544,0.063,3.097,0.145,4.659c1.018,0.408,1.895,0.922,2.632,1.539
			c0.014,0.015,0.021,0.028,0.021,0.042c0,0.009-0.002,0.027-0.007,0.055c-0.036,0.12-0.103,0.228-0.199,0.323
			c-0.019,0.019-0.034,0.027-0.048,0.027s-0.034-0.009-0.062-0.027c-0.812-0.65-1.59-1.125-2.337-1.422
			c-0.023,0.714-0.231,1.227-0.625,1.539c-0.362,0.288-0.905,0.433-1.629,0.433c-0.633,0-1.127-0.128-1.484-0.385
			c-0.335-0.243-0.502-0.57-0.502-0.983c0-0.494,0.227-0.879,0.681-1.154c0.357-0.225,0.792-0.336,1.306-0.336
			C106.552,26.84,107.138,26.91,107.747,27.053z M107.733,27.541c-0.696-0.18-1.282-0.269-1.759-0.269
			c-0.5,0-0.892,0.107-1.176,0.323c-0.252,0.188-0.378,0.438-0.378,0.748c0,0.299,0.167,0.532,0.502,0.701
			c0.279,0.146,0.625,0.221,1.038,0.221c1.182,0,1.772-0.486,1.772-1.457V27.541z"/>
		<path fill="#FFFFFF" d="M115.76,25.361c0.056,0.027,0.154,0.083,0.296,0.166c0.037,0.022,0.055,0.045,0.055,0.068
			c0,0.018-0.009,0.043-0.027,0.075c-0.233,0.371-0.351,0.761-0.351,1.169c0,0.691,0.396,1.211,1.189,1.56
			c0.655,0.288,1.525,0.433,2.611,0.433c1.535,0,2.955-0.135,4.261-0.405c0.032-0.009,0.06-0.014,0.082-0.014
			c0.046,0,0.073,0.032,0.083,0.097c0.014,0.072,0.027,0.158,0.041,0.254c0.005,0.014,0.007,0.029,0.007,0.048
			c0,0.06-0.048,0.101-0.145,0.124c-1.182,0.252-2.646,0.378-4.391,0.378c-2.795,0-4.192-0.834-4.192-2.501
			C115.279,26.289,115.439,25.807,115.76,25.361z M116.234,20.07c0.912,0.192,1.995,0.289,3.251,0.289
			c1.296,0,2.38-0.046,3.25-0.138c0.019,0,0.037,0,0.056,0c0.073,0,0.116,0.039,0.13,0.117c0.019,0.11,0.027,0.194,0.027,0.254
			c0,0.087-0.062,0.138-0.186,0.151c-0.989,0.119-2.259,0.706-3.807,1.759c-0.06,0.037-0.105,0.055-0.138,0.055
			s-0.062-0.014-0.089-0.042c-0.069-0.064-0.168-0.114-0.296-0.151c1.017-0.724,1.959-1.26,2.824-1.608
			c-0.582,0.055-1.168,0.083-1.759,0.083c-1.187,0-2.252-0.094-3.196-0.282c-0.055-0.014-0.082-0.055-0.082-0.124
			C116.221,20.265,116.226,20.144,116.234,20.07z"/>
		<path fill="#FFFFFF" d="M131.436,21.452c0.046-0.371,0.101-0.884,0.165-1.54c0.019-0.197,0.027-0.375,0.027-0.536
			c0-0.225-0.019-0.444-0.055-0.66c0.288,0.037,0.538,0.103,0.749,0.199c0.055,0.027,0.082,0.073,0.082,0.138
			c0,0.041-0.027,0.098-0.082,0.171c-0.064,0.092-0.112,0.241-0.145,0.447c-0.092,0.632-0.176,1.205-0.254,1.718
			c1.365-0.179,2.487-0.385,3.367-0.619c0.022-0.009,0.041-0.014,0.055-0.014c0.027,0,0.046,0.027,0.056,0.083
			c0.018,0.115,0.027,0.218,0.027,0.309c0,0.074-0.037,0.117-0.11,0.131c-0.788,0.183-1.942,0.385-3.464,0.604
			c-0.293,1.769-0.598,3.313-0.914,4.631c1.242-1.521,2.752-2.281,4.529-2.281c1.045,0,1.823,0.275,2.337,0.825
			c0.385,0.417,0.577,0.935,0.577,1.554c0,1.172-0.591,2.063-1.773,2.672c-0.811,0.413-2.007,0.713-3.587,0.9
			c-0.225,0.028-0.364,0.042-0.42,0.042c-0.077,0-0.13-0.028-0.157-0.083c-0.078-0.174-0.172-0.291-0.282-0.35
			c1.805-0.119,3.239-0.459,4.302-1.018c0.921-0.472,1.382-1.176,1.382-2.109c0-0.701-0.245-1.224-0.735-1.567
			c-0.412-0.288-0.969-0.433-1.67-0.433c-0.848,0-1.7,0.252-2.557,0.756c-0.664,0.389-1.232,0.87-1.704,1.443
			c-0.143,0.174-0.241,0.311-0.296,0.412c-0.055,0.092-0.101,0.137-0.138,0.137c-0.06,0-0.188-0.041-0.385-0.123
			c-0.063-0.037-0.096-0.08-0.096-0.131c0-0.055,0.014-0.125,0.041-0.213c0.019-0.046,0.071-0.195,0.158-0.447
			c0.303-1.24,0.6-2.767,0.894-4.576c-0.674,0.083-1.723,0.144-3.147,0.186c-0.073,0-0.122-0.037-0.145-0.11
			c-0.019-0.073-0.037-0.207-0.055-0.399c0.109,0.005,0.233,0.007,0.371,0.007C129.543,21.609,130.561,21.557,131.436,21.452z"/>
		<path fill="#FFFFFF" d="M144.259,21.788c0.192,0.096,0.376,0.208,0.55,0.337c0.06,0.046,0.09,0.096,0.09,0.151
			c0,0.045-0.017,0.084-0.048,0.117c-0.046,0.046-0.108,0.261-0.186,0.646c-0.284,1.452-0.434,2.71-0.447,3.773
			c1.539-1.889,3.251-2.832,5.134-2.832c0.972,0,1.721,0.264,2.247,0.791c0.444,0.443,0.667,1.012,0.667,1.703
			c0,0.711-0.204,1.315-0.612,1.814c-0.339,0.422-0.843,0.797-1.512,1.127c-0.948,0.463-2.07,0.768-3.367,0.914
			c-0.068,0.005-0.107,0.008-0.117,0.008c-0.05,0-0.094-0.033-0.13-0.097c-0.102-0.138-0.234-0.255-0.399-0.351
			c1.535-0.143,2.815-0.461,3.842-0.955c1.173-0.563,1.76-1.395,1.76-2.494c0-0.67-0.229-1.183-0.688-1.54
			c-0.426-0.335-1.026-0.501-1.801-0.501c-0.742,0-1.525,0.235-2.35,0.707c-0.697,0.398-1.354,0.928-1.973,1.588
			c-0.298,0.32-0.518,0.613-0.66,0.879c-0.022,0.041-0.048,0.063-0.075,0.063c-0.019,0-0.046-0.007-0.082-0.021
			c-0.129-0.055-0.236-0.111-0.323-0.171c-0.027-0.015-0.041-0.056-0.041-0.124c0-1.054,0.14-2.521,0.419-4.405
			C144.225,22.453,144.259,22.077,144.259,21.788z M145.469,19.081c0.073-0.128,0.153-0.236,0.24-0.323
			c0.027-0.027,0.056-0.041,0.083-0.041c0.018,0,0.041,0.004,0.068,0.014c0.751,0.312,1.576,0.843,2.474,1.594
			c0.028,0.019,0.042,0.039,0.042,0.062c0,0.019-0.01,0.039-0.027,0.062c-0.074,0.114-0.161,0.222-0.262,0.323
			c-0.019,0.019-0.036,0.028-0.055,0.028c-0.023,0-0.048-0.014-0.076-0.042C147.273,20.07,146.444,19.511,145.469,19.081z"/>
		<path fill="#FFFFFF" d="M159.446,22.317c0.271-0.894,0.454-1.558,0.55-1.993c0.115-0.518,0.172-0.962,0.172-1.333
			c0-0.027-0.002-0.066-0.007-0.117c0.284,0.11,0.516,0.217,0.694,0.323c0.064,0.042,0.097,0.089,0.097,0.145
			c0,0.055-0.028,0.101-0.083,0.137c-0.087,0.069-0.158,0.208-0.213,0.419c-0.151,0.591-0.381,1.375-0.688,2.35
			c0.619-0.101,1.144-0.151,1.574-0.151c0.655,0,1.106,0.165,1.354,0.495c0.243,0.316,0.364,0.845,0.364,1.587
			c0,2.012-0.259,3.539-0.776,4.584c-0.344,0.696-0.779,1.045-1.306,1.045c-0.555,0-1.104-0.121-1.649-0.365
			c-0.064-0.027-0.097-0.07-0.097-0.13v-0.062c0-0.138-0.034-0.285-0.103-0.44c0.632,0.325,1.214,0.488,1.745,0.488
			c0.408,0,0.733-0.247,0.977-0.742c0.476-0.989,0.714-2.444,0.714-4.364c0-0.65-0.099-1.09-0.295-1.319
			c-0.184-0.215-0.507-0.323-0.969-0.323c-0.532,0-1.086,0.055-1.663,0.165c-0.82,2.552-1.806,4.827-2.955,6.824
			c-0.015,0.032-0.037,0.048-0.069,0.048c-0.022,0-0.041-0.006-0.055-0.02c-0.069-0.033-0.167-0.098-0.296-0.193
			c-0.022-0.022-0.034-0.045-0.034-0.068s0.012-0.049,0.034-0.076c1.045-1.772,1.991-3.922,2.839-6.446
			c-0.609,0.087-1.224,0.186-1.842,0.295c-0.454,0.078-0.772,0.149-0.956,0.213c-0.077,0.023-0.137,0.034-0.179,0.034
			c-0.073,0-0.126-0.03-0.157-0.089c-0.069-0.151-0.126-0.334-0.172-0.55c0.114,0.014,0.247,0.021,0.398,0.021
			c0.303,0,0.652-0.032,1.052-0.096c0.133-0.018,0.476-0.069,1.03-0.151C158.849,22.407,159.172,22.358,159.446,22.317z
			 M164.621,21.658c0.119-0.101,0.214-0.172,0.282-0.213c0.019-0.009,0.039-0.014,0.062-0.014c0.037,0,0.073,0.014,0.11,0.042
			c1.045,0.871,1.796,2.021,2.254,3.45c0.014,0.055,0.021,0.099,0.021,0.131c0,0.037-0.014,0.068-0.041,0.096
			c-0.092,0.074-0.165,0.124-0.22,0.151c-0.046,0.022-0.08,0.034-0.104,0.034c-0.046,0-0.078-0.034-0.096-0.103
			C166.468,23.815,165.712,22.625,164.621,21.658z"/>
		<path fill="#FFFFFF" d="M172.408,21.788c0.192,0.096,0.376,0.208,0.55,0.337c0.06,0.046,0.09,0.096,0.09,0.151
			c0,0.045-0.017,0.084-0.048,0.117c-0.046,0.046-0.108,0.261-0.186,0.646c-0.284,1.452-0.434,2.71-0.447,3.773
			c1.539-1.889,3.251-2.832,5.134-2.832c0.972,0,1.721,0.264,2.247,0.791c0.444,0.443,0.667,1.012,0.667,1.703
			c0,0.711-0.204,1.315-0.612,1.814c-0.339,0.422-0.843,0.797-1.512,1.127c-0.948,0.463-2.07,0.768-3.367,0.914
			c-0.068,0.005-0.107,0.008-0.117,0.008c-0.05,0-0.094-0.033-0.13-0.097c-0.102-0.138-0.234-0.255-0.399-0.351
			c1.535-0.143,2.815-0.461,3.842-0.955c1.173-0.563,1.76-1.395,1.76-2.494c0-0.67-0.229-1.183-0.688-1.54
			c-0.426-0.335-1.026-0.501-1.801-0.501c-0.742,0-1.525,0.235-2.35,0.707c-0.697,0.398-1.354,0.928-1.973,1.588
			c-0.298,0.32-0.518,0.613-0.66,0.879c-0.022,0.041-0.048,0.063-0.075,0.063c-0.019,0-0.046-0.007-0.082-0.021
			c-0.129-0.055-0.236-0.111-0.323-0.171c-0.027-0.015-0.041-0.056-0.041-0.124c0-1.054,0.14-2.521,0.419-4.405
			C172.374,22.453,172.408,22.077,172.408,21.788z M173.618,19.081c0.073-0.128,0.153-0.236,0.24-0.323
			c0.027-0.027,0.056-0.041,0.083-0.041c0.018,0,0.041,0.004,0.068,0.014c0.751,0.312,1.576,0.843,2.474,1.594
			c0.028,0.019,0.042,0.039,0.042,0.062c0,0.019-0.01,0.039-0.027,0.062c-0.074,0.114-0.161,0.222-0.262,0.323
			c-0.019,0.019-0.036,0.028-0.055,0.028c-0.023,0-0.048-0.014-0.076-0.042C175.423,20.07,174.594,19.511,173.618,19.081z"/>
	</g>
</g>
<g>
	
		<image overflow="visible" opacity="0.25" width="93" height="93" xlink:href="C0CBD0A5.png"  transform="matrix(0.24 0 0 0.24 172.2871 11.5073)">
	</image>
	<g>
		<circle fill="#F2F2F2" cx="183.349" cy="22.568" r="9.15"/>
	</g>
</g>
<polygon fill="#FAA3A3" points="183.258,28.555 179.32,28.555 185.331,22.568 179.32,16.582 183.258,16.582 189.269,22.568 "/>
</svg>
