<?xml version="1.0" encoding="utf-8"?>
<!-- Generator: Adobe Illustrator 16.0.0, SVG Export Plug-In . SVG Version: 6.00 Build 0)  -->
<!DOCTYPE svg PUBLIC "-//W3C//DTD SVG 1.1//EN" "http://www.w3.org/Graphics/SVG/1.1/DTD/svg11.dtd">
<svg version="1.1" id="レイヤー_1" xmlns="http://www.w3.org/2000/svg" xmlns:xlink="http://www.w3.org/1999/xlink" x="0px"
	 y="0px" width="391.193px" height="80.834px" viewBox="0 0 391.193 80.834" enable-background="new 0 0 391.193 80.834"
	 xml:space="preserve">
<g>
	<defs>
		<path id="SVGID_1_" d="M142.124,65.36c0,4.58,3.631,5.963,12.019,5.963c6.311,0,7.521-0.604,7.521-3.197
			c0-1.643-0.95-2.509-2.508-2.509c-0.345,0-1.124,0.174-1.556,0.174c-2.334,0.26-4.236,0.349-5.188,0.349
			c-0.778,0-1.986,0-2.938-0.175c-1.211-0.261-1.644-0.692-1.644-1.297c0-0.347,0.085-0.434,0.261-1.037
			c0.085-0.173,0.172-0.434,0.172-0.776c0-1.299-1.383-1.818-2.682-1.818C142.124,61.036,142.124,64.925,142.124,65.36
			 M95.354,57.146c-0.432,1.728-1.47,5.36-2.681,7.608c-0.779,1.296-0.951,1.729-0.951,2.507c0,1.644,1.901,2.679,3.2,2.679
			c1.728,0,2.507-1.642,3.282-3.717c0.951-2.507,2.941-9.077,2.941-10.635c0-1.467-1.211-1.987-1.99-2.246
			c-0.344-0.088-0.688-0.088-0.951-0.088C96.219,53.255,95.873,54.813,95.354,57.146 M146.273,52.823
			c-1.642,0.432-2.074,1.383-2.074,2.509c0,0.344,0,2.678,2.334,2.678c0.52,0,1.123-0.085,1.298-0.085
			c3.285-0.259,4.236-0.347,6.483-0.347c0.519,0,3.198,0.173,3.805,0.173c0.776,0,1.295-0.085,1.728-0.433
			c0.606-0.518,0.866-1.47,0.866-2.074c0-2.162-0.348-3.025-5.706-3.025C152.584,52.219,148.522,52.304,146.273,52.823
			 M113.337,54.122c0,0.171-0.089,0.432-0.089,0.69c0,0.776,0.348,1.212,0.521,1.383c0.172,0.172,1.383,0.951,1.642,1.123
			c1.815,1.556,2.162,6.313,2.422,9.25c0.085,0.865,0.26,2.769,2.852,2.769c0.779,0,1.816-0.26,2.421-0.952
			c0.347-0.432,0.607-1.037,0.607-2.161c0-0.173-0.52-6.57-1.99-9.597c-1.123-2.421-3.198-4.496-5.879-4.496
			C114.027,52.131,113.509,53.43,113.337,54.122 M182.411,64.408c0-2.505,2.595-2.681,3.458-2.681c1.21,0,1.902,0.26,2.594,0.604
			c0,2.423,0,2.682-0.173,3.201c-0.432,1.21-1.901,1.383-2.681,1.383C185.093,66.916,182.411,66.828,182.411,64.408 M188.03,43.487
			l0.088,3.197c-1.558,0-8.128,0.174-8.56,0.174c-0.777,0.086-2.075,0.434-2.075,2.507c0,2.682,1.987,2.682,2.854,2.682
			c2.419,0,5.446,0,7.865-0.088l0.174,5.273c-0.605,0-1.385-0.173-2.508-0.173c-5.013,0-8.299,2.853-8.299,7.089
			c0,3.545,2.247,7.175,8.559,7.175c7.09,0,7.349-4.407,7.434-6.31c0.175,0.171,1.383,1.21,1.558,1.383
			c1.125,1.297,1.556,1.729,2.508,1.729c1.555,0,2.853-1.558,2.853-3.112c0-0.865-0.432-1.731-1.124-2.423
			c-1.038-0.951-2.593-2.159-5.447-3.717l-0.087-7.088c3.978-0.173,4.149-0.173,4.757-0.346c0.519-0.086,1.47-0.692,1.47-2.421
			c0-2.68-1.99-2.68-2.682-2.68c-0.172,0-3.025,0.172-3.63,0.172v-3.024c0-1.04,0-2.939-2.853-2.939
			C188.03,40.548,188.03,42.535,188.03,43.487 M170.913,42.447c-0.26,0.867-1.211,6.918-1.211,14.612
			c0,5.015,0.348,10.807,0.866,12.622c0.517,1.73,1.987,1.73,2.679,1.73c1.643,0,2.682-0.692,2.682-2.423
			c0-0.432-0.087-1.471-0.175-2.246c-0.433-3.112-0.604-6.312-0.604-9.425c0-2.853,0.172-5.705,0.432-8.557
			c0.087-0.952,0.779-5.363,0.779-5.795c0-1.211-0.432-2.074-2.162-2.419c-0.226-0.023-0.437-0.036-0.632-0.036
			C171.667,40.514,171.148,41.589,170.913,42.447 M96.91,42.622c-0.26,2.162,1.21,2.595,2.682,2.938
			c1.468,0.347,3.629,0.779,5.879,1.124c-1.818,1.039-3.028,2.768-2.854,5.274c0.173,3.285,2.247,5.966,3.198,7.004
			c1.902,2.248,2.681,3.111,2.681,4.668c0,0.344-0.087,2.42-2.509,2.42c-0.863,0-1.555-0.175-1.987-0.347
			c-1.298-0.432-1.47-0.52-1.988-0.52c-2.507,0-2.507,2.682-2.507,2.854c0,0.951,0.345,1.73,1.471,2.334
			c2.074,1.124,4.581,1.384,5.879,1.384c5.876,0,7.605-4.496,7.605-7.26c0-2.682-1.122-5.103-3.804-7.956
			c-4.581-4.841-3.63-7.694,4.064-8.73c1.555-0.175,2.939-0.518,2.939-2.768c0-2.334-1.901-2.507-3.804-2.679
			c-4.149-0.259-8.041-0.863-9.943-1.211c-0.691-0.085-3.889-0.864-4.668-0.864C97.517,40.288,97.082,41.844,96.91,42.622
			 M138.494,40.98c-0.434,0.432-0.434,0.775-0.951,3.717h-3.804c-1.729,0-2.854,0.52-2.854,2.679c0,0.693,0.088,1.73,1.037,2.25
			c0.692,0.431,2.768,0.431,4.755,0.344c-0.26,0.867-0.691,2.681-1.036,4.236c-0.951,3.633-2.682,8.907-4.064,12.104
			c-0.345,0.691-0.951,1.988-0.951,2.767c0,1.987,2.334,2.506,3.285,2.506s1.471-0.431,1.73-0.691
			c1.468-1.555,5.704-16.599,6.656-21.095c3.976-0.084,8.472-0.261,12.104-0.432c1.124-0.086,2.851-0.172,2.851-2.593
			c0-2.682-2.073-2.682-2.766-2.682c-0.344,0-2.246,0.174-2.678,0.174c-2.249,0.085-5.62,0.174-8.474,0.26
			c0.173-1.037,0.261-1.558,0.261-2.077c0-1.899-1.644-2.334-3.026-2.334C139.877,40.113,139.012,40.288,138.494,40.98
			 M194.255,40.461c0,0.087,0,0.345,0.087,0.606c0.088,0.345,0.52,1.38,0.604,1.641c0.088,0.175,0.521,1.47,0.607,1.73
			c0.26,0.69,0.604,0.862,1.123,0.862c0.173,0,1.296-0.084,1.296-1.21c0-0.776-0.432-2.071-1.036-3.63
			c-0.26-0.692-0.69-1.124-1.298-1.124C195.205,39.337,194.255,39.511,194.255,40.461 M198.318,39.856c0,0.085,0,0.345,0.087,0.604
			c0,0.259,0.518,1.383,0.518,1.729c0.088,0.257,0.434,1.471,0.519,1.728c0.348,0.779,0.779,0.866,1.124,0.866
			c0.175,0,1.385-0.087,1.385-1.211c0-0.778-0.519-2.334-0.865-3.285c-0.345-0.951-0.604-1.555-1.384-1.555
			C199.356,38.733,198.318,38.905,198.318,39.856"/>
	</defs>
	<clipPath id="SVGID_2_">
		<use xlink:href="#SVGID_1_"  overflow="visible"/>
	</clipPath>
	
		<linearGradient id="SVGID_3_" gradientUnits="userSpaceOnUse" x1="-297.8887" y1="4782.8574" x2="-296.8887" y2="4782.8574" gradientTransform="matrix(110.2266 0 0 110.2266 32926.9531 -527142.9375)">
		<stop  offset="0" style="stop-color:#8BC33F"/>
		<stop  offset="1" style="stop-color:#29AD4B"/>
	</linearGradient>
	<rect x="91.723" y="38.734" clip-path="url(#SVGID_2_)" fill="url(#SVGID_3_)" width="110.228" height="33.021"/>
</g>
<g>
	<defs>
		<path id="SVGID_4_" d="M300.419,26.801c0,0.087,0.172,1.299,0.172,1.558c0.175,1.124,0.175,1.295,0.778,1.383
			c-0.087,0.085-0.087,0.173-0.087,0.345c0,0.606,0.348,1.125,0.866,1.125c0.433,0,1.644-0.865,2.162-1.209
			c1.123-0.78,1.296-0.952,1.296-1.385c0-0.518-0.347-1.039-0.867-1.039c-0.172,0-0.344,0-0.947,0.433
			c-0.261,0.173-1.039,0.691-1.559,1.039c0-0.433-0.172-1.472-0.172-1.558c-0.173-1.036-0.26-1.295-0.864-1.295
			C301.025,26.197,300.419,26.283,300.419,26.801 M296.01,26.801c-0.087,0.95-0.087,1.558-0.259,2.509
			c0,0.173-0.261,1.208-0.261,1.468c0,0.778,0.864,0.778,0.951,0.778c0.521,0,0.604-0.345,0.692-0.604
			c0.347-1.211,0.519-3.631,0.519-3.978c0-0.346,0-0.95-0.863-0.95C296.098,26.024,296.01,26.368,296.01,26.801 M316.933,24.207
			c-0.26,0-1.126,0-1.126,1.039c0,0.778,0.347,1.122,1.126,1.122h3.198c-0.433,1.298-1.124,2.422-1.73,3.634
			c-0.26,0-1.468,0.084-1.643,0.084c-0.776,0.087-0.776,0.866-0.776,1.038c0,1.124,0.863,1.124,1.123,1.124
			c0.776,0,5.36-0.259,6.224-0.345c1.817-0.175,3.805-0.348,5.619-0.519c0.088,0.087,0.435,0.69,0.52,0.776
			c0.087,0.174,0.26,0.434,0.691,0.434c0.606,0,1.384-0.605,1.384-1.21c0-0.433-0.173-0.78-1.039-1.816
			c-0.776-1.125-1.643-1.99-2.332-2.681c-0.259-0.347-0.606-0.432-0.866-0.432c-0.517,0-1.208,0.519-1.208,1.036
			c0,0.259,0,0.435,0.432,0.866c0.689,0.776,0.776,0.863,1.036,1.21c-3.717,0.258-4.148,0.258-6.656,0.346
			c0.952-1.644,1.297-2.507,1.729-3.546h8.128c0.26,0,1.124,0,1.124-1.036c0-0.866-0.435-1.125-1.124-1.125H316.933z
			 M280.535,19.972c-0.345,0.346-0.864,0.778-1.038,0.865c-0.433-0.26-0.949-0.606-1.296-0.779c-0.348-0.173-0.52-0.259-0.779-0.259
			c-0.433,0-0.863,0.346-0.863,0.862c0,0.348,0.172,0.522,1.295,1.211c-0.257,0.175-0.344,0.175-1.383,0.606
			c-0.259,0.086-0.604,0.261-0.604,0.692c0,0.345,0.173,0.951,0.779,0.951c0.344,0,1.643-0.606,2.679-1.21
			c0.173,0.172,0.951,0.865,1.123,0.951c0.172,0.084,0.348,0.084,0.52,0.084c-0.348,0.087-0.432,0.26-0.604,0.347
			c-0.519,0.432-0.778,0.691-1.038,0.863c-1.471-1.123-1.643-1.123-1.902-1.123c-0.518,0-0.951,0.432-0.951,0.864
			c0,0.259,0.175,0.434,0.26,0.52c0.087,0.087,0.779,0.606,0.951,0.69c-0.345,0.175-0.432,0.175-1.296,0.521
			c-0.347,0.087-0.691,0.259-0.691,0.778c0,0.344,0.172,1.036,0.864,1.036c0.431,0,1.643-0.517,2.506-1.036
			c0.348,0.259,0.433,0.432,0.52,0.52c0.172,0.257,0.432,0.432,0.691,0.432c0.433,0,1.036-0.432,1.036-1.037
			c0-0.347-0.173-0.521-0.692-1.038c0.866-0.692,1.299-1.126,1.299-1.558c0-0.418-0.405-0.916-0.744-0.869
			c0.499-0.098,0.832-0.522,0.832-0.944c0-0.348-0.088-0.521-1.039-1.212c0.779-0.517,1.039-0.779,1.039-1.211
			c0-0.345-0.348-0.776-0.864-0.776C280.882,19.713,280.708,19.799,280.535,19.972 M289.959,19.972
			c-0.691,0.518-0.691,0.605-0.951,0.778c-0.52-0.345-1.644-1.037-2.162-1.037c-0.604,0-0.951,0.432-0.951,0.776
			c0,0.261,0.26,0.432,0.347,0.52c0.173,0.087,1.036,0.604,1.208,0.691c-0.516,0.26-0.604,0.26-1.383,0.605
			c-0.257,0.086-0.69,0.259-0.69,0.778c0,0.259,0.172,0.95,0.865,0.95c0.433,0,1.815-0.691,2.767-1.295
			c0.26,0.173,0.345,0.173,0.864,0.69c0.172,0.175,0.347,0.261,0.604,0.261c0.522,0,0.951-0.434,0.951-0.951
			c0-0.348-0.172-0.52-0.951-0.953c0.694-0.603,0.951-0.777,0.951-1.209c0-0.433-0.344-0.864-0.864-0.864
			C290.391,19.713,290.131,19.799,289.959,19.972 M303.531,16.6c-0.691,0-0.863,0.26-0.863,0.951c0,0.864,0.604,0.864,0.863,0.864
			h4.929c0.344,0,0.432,0.26,0.432,0.433v0.52h-5.015c-0.433,0-0.864,0.086-0.864,0.777c0,0.776,0.606,0.776,0.864,0.776h5.015
			v0.951h-5.879c-0.604,0-0.864,0.26-0.864,0.951c0,0.867,0.604,0.867,0.864,0.867h2.94v6.312c0,0.344-0.175,0.516-0.435,0.516
			h-0.779c-0.775,0-0.947,0.606-0.947,1.038c0,0.434,0.259,0.951,0.775,1.039h1.298c1.73,0,2.075-0.26,2.075-1.99h0.085v-2.421
			c0.951,1.73,2.508,3.372,3.2,3.372c0.606,0,1.123-0.604,1.123-1.123c0-0.431-0.259-0.691-1.21-1.47
			c-0.432-0.346-0.777-0.692-1.211-1.212c0.434-0.344,1.038-0.95,1.729-1.727c0.348-0.348,0.433-0.606,0.433-0.951
			c0-0.433-0.433-0.951-1.036-0.951c-0.347,0-0.521,0.172-0.951,0.692c-0.52,0.604-1.039,1.122-1.299,1.383
			c-0.172-0.261-0.604-0.951-0.778-1.472v-0.948h3.372c0.26,0,0.864,0,0.864-0.865c0-0.521-0.257-0.865-0.776-0.865h-0.52v-3.545
			c0-1.469-0.691-1.902-1.902-1.902H303.531z M282.869,16.685v0.693h-6.311c-0.52,0-1.039,0.258-1.039,1.037
			c0,0.952,0.692,1.038,1.039,1.038h6.311v3.459c0,5.099-2.679,6.57-6.311,7.521c-0.432,0.085-0.864,0.26-0.864,0.952
			c0,0.259,0.085,1.295,1.123,1.295c0.779,0,2.854-0.776,4.668-2.162c1.729-1.383,2.162-2.507,2.419-3.11
			c1.472,3.458,5.968,5.188,7.179,5.188c0.95,0,1.123-0.951,1.123-1.298c0-0.604-0.261-0.779-0.864-0.951
			c-1.211-0.26-2.682-0.692-3.804-1.556c-0.271-0.208-0.518-0.423-0.74-0.644c0.068,0.023,0.143,0.037,0.22,0.037
			c0.432,0,1.559-0.691,1.99-0.951c0.519,0.346,0.519,0.346,1.036,0.867c0.26,0.259,0.432,0.344,0.691,0.344
			c0.435,0,1.038-0.344,1.038-0.951c0-0.433-0.172-0.604-1.123-1.384c0.776-0.776,1.123-1.035,1.123-1.468
			c0-0.434-0.432-0.863-0.951-0.863c-0.172,0-0.432,0.086-0.604,0.257c-0.607,0.606-0.692,0.691-1.039,0.951
			c-0.52-0.345-1.642-1.122-2.074-1.122c-0.519,0-0.951,0.431-0.951,0.862c0,0.348,0.26,0.606,0.433,0.692
			c0.604,0.432,0.69,0.519,0.862,0.606c-0.085,0.084-0.688,0.344-0.862,0.432c-0.173,0.085-0.433,0.26-0.433,0.692
			c0,0.106,0.021,0.226,0.062,0.342c-0.913-1.183-1.272-2.552-1.272-4.233v-3.89h6.227c0.863,0,1.123-0.348,1.123-1.039
			c0-0.95-0.866-0.95-1.123-0.95h-6.051v-0.693c0-0.691-0.521-0.863-1.215-0.863C283.129,15.821,282.869,16.082,282.869,16.685
			 M297.824,16.685c-0.259,0.693-0.69,1.3-0.95,1.817c-0.173,0-0.26-0.087-0.433-0.087c-0.519,0-0.862,0.604-0.862,1.038
			c0,0.519,0.084,0.604,0.775,1.297c0.691,0.778,1.038,1.036,1.298,1.47l-1.038,0.951c-0.863,0.086-1.383,0.086-1.383,0.951
			c0,0.776,0.432,1.035,0.951,1.035c0.432,0,0.779-0.084,1.815-0.172v6.486c0,0.257,0,0.949,0.865,0.949
			c0.864,0,0.864-0.692,0.864-0.949v-6.657c0.778-0.089,0.863-0.089,1.038-0.089c0.085,0.521,0.172,0.865,0.691,0.865
			c0.345,0,0.604-0.086,0.776-0.345c0.175,0.259,0.951,1.037,1.126,1.21c0.518,0.519,0.604,0.604,0.864,0.604
			c0.604,0,0.951-0.519,0.951-0.862c0-0.521-0.607-1.124-0.864-1.383c-0.866-0.78-1.039-0.867-1.298-0.867
			c-0.088,0-0.432,0-0.779,0.519c-0.085-0.259-0.432-1.554-0.691-2.16c-0.173-0.434-0.345-0.777-0.776-0.777
			c-0.26,0-0.691,0.172-0.691,0.604c0,0.174,0,0.26,0.258,1.039c-1.124,0.086-1.297,0.086-1.644,0.086
			c0.779-1.037,1.386-1.729,2.337-3.199c0.257-0.432,0.863-1.296,0.863-1.643c0-0.517-0.606-0.95-1.123-0.95
			c-0.26,0-0.519,0.259-0.691,0.52c-0.778,1.469-0.866,1.469-1.386,2.333c-0.172-0.26-0.257-0.346-0.517-0.604
			c0.604-0.865,1.643-2.509,1.643-3.113c0-0.518-0.691-0.866-1.126-0.866C298.257,15.733,298.085,16.082,297.824,16.685
			 M323.328,18.328c0.26-0.257,0.347-0.344,0.52-0.344c0.172,0,0.259,0.087,0.519,0.344c1.036,1.125,2.074,1.902,2.595,2.333h-6.227
			C321.686,19.972,322.552,19.193,323.328,18.328 M321.944,16.685c-1.295,1.3-2.853,2.769-5.531,3.805
			c-0.52,0.261-0.951,0.432-0.951,1.124s0.52,1.299,1.124,1.299c0.604,0,1.901-0.692,2.593-1.126c0,0.605,0.345,0.865,1.039,0.865
			v-0.087h7.262c0.518,0,1.036-0.086,1.123-0.864c0.692,0.432,1.9,1.123,2.507,1.123s1.123-0.604,1.123-1.295
			c0-0.607-0.344-0.867-0.863-1.039c-2.938-1.21-4.408-2.591-5.359-3.542c-1.039-0.954-1.211-1.214-2.162-1.214
			C322.983,15.733,322.637,15.993,321.944,16.685"/>
	</defs>
	<clipPath id="SVGID_5_">
		<use xlink:href="#SVGID_4_"  overflow="visible"/>
	</clipPath>
	
		<linearGradient id="SVGID_6_" gradientUnits="userSpaceOnUse" x1="-297.8516" y1="4820.7568" x2="-296.8516" y2="4820.7568" gradientTransform="matrix(56.9032 0 0 56.9032 17224.1211 -274292.1875)">
		<stop  offset="0" style="stop-color:#8BC33F"/>
		<stop  offset="1" style="stop-color:#29AD4B"/>
	</linearGradient>
	<rect x="275.52" y="15.733" clip-path="url(#SVGID_5_)" fill="url(#SVGID_6_)" width="56.713" height="16.948"/>
</g>
<g>
	<defs>
		<path id="SVGID_7_" d="M64.835,31.816c-1.469-4.238-3.717-1.383-3.63,1.469c-1.469-2.249-2.593-0.086-2.593,2.682
			c-2.509-2.854-1.818,4.323-1.818,6.311c4.845-5.1,9.08-4.237,10.031-2.163c1.729,3.632-4.844,10.807-7.694,13.401
			c-1.815,1.73-4.494,1.902-0.776-1.642c0.518-0.52,1.9-1.816,3.802-4.064c7.349-8.732,0.52-9.163-3.284-5.446
			c-3.198,3.113-4.927,5.792-12.276,9.165c-3.199,1.47-5.018,3.804-4.842,8.125c0.173,2.939,4.238,9.77,12.883,4.236
			c8.297-5.272,11.929-8.644,15.216-14.522c3.37-5.969-0.088-14.352-0.693-16.082c-0.866-2.679-1.9-3.716-2.767-3.716
			c-0.034-0.005-0.069-0.005-0.102-0.005C65.48,29.564,64.921,30.569,64.835,31.816"/>
	</defs>
	<clipPath id="SVGID_8_">
		<use xlink:href="#SVGID_7_"  overflow="visible"/>
	</clipPath>
	
		<linearGradient id="SVGID_9_" gradientUnits="userSpaceOnUse" x1="-319.2993" y1="4864.3301" x2="-318.2993" y2="4864.3301" gradientTransform="matrix(35.4697 -6.2543 6.2543 35.4697 -19061.4258 -174481.0625)">
		<stop  offset="0" style="stop-color:#FFF4E1"/>
		<stop  offset="0.13" style="stop-color:#FEF1D9"/>
		<stop  offset="0.3421" style="stop-color:#FEE9C3"/>
		<stop  offset="0.6098" style="stop-color:#FCDB9E"/>
		<stop  offset="0.9198" style="stop-color:#FAC868"/>
		<stop  offset="1" style="stop-color:#FAC359"/>
	</linearGradient>
	<polygon clip-path="url(#SVGID_8_)" fill="url(#SVGID_9_)" points="42.532,74.834 80.378,68.16 72.269,22.167 34.423,28.841 	"/>
</g>
<g>
	<defs>
		<path id="SVGID_10_" d="M5.877,29.569c-0.863,0-1.902,1.037-2.767,3.716c-0.608,1.73-4.064,10.113-0.691,16.082
			c3.283,5.879,6.915,9.25,15.215,14.522c8.646,5.533,12.707-1.297,12.883-4.236c0.172-4.321-1.644-6.655-4.844-8.125
			c-7.347-3.373-9.076-6.052-12.275-9.165c-3.805-3.717-10.634-3.286-3.284,5.446c1.902,2.248,3.284,3.545,3.805,4.064
			c3.716,3.544,1.034,3.372-0.778,1.642c-2.854-2.595-9.425-9.77-7.695-13.401c0.951-2.074,5.188-2.937,10.028,2.163
			c0-1.987,0.69-9.164-1.815-6.311c0-2.768-1.126-4.931-2.593-2.682c0.085-2.852-2.163-5.707-3.633-1.469
			c-0.082-1.247-0.645-2.252-1.453-2.252C5.944,29.564,5.909,29.564,5.877,29.569"/>
	</defs>
	<clipPath id="SVGID_11_">
		<use xlink:href="#SVGID_10_"  overflow="visible"/>
	</clipPath>
	
		<linearGradient id="SVGID_12_" gradientUnits="userSpaceOnUse" x1="-274.5952" y1="4610.8291" x2="-273.5952" y2="4610.8291" gradientTransform="matrix(32.8408 5.7908 5.7908 -32.8408 -17682.2539 153059.2969)">
		<stop  offset="0" style="stop-color:#F19CA8"/>
		<stop  offset="0.2211" style="stop-color:#F5B6BC"/>
		<stop  offset="0.5619" style="stop-color:#FAD5D8"/>
		<stop  offset="0.8335" style="stop-color:#FCE8E9"/>
		<stop  offset="1" style="stop-color:#FDEEEF"/>
	</linearGradient>
	<polygon clip-path="url(#SVGID_11_)" fill="url(#SVGID_12_)" points="0,22.167 37.844,28.841 29.734,74.834 -8.11,68.16 	"/>
</g>
<path fill="#F19CA8" d="M231.949,49.97h-11.152c0.519-1.383,0.519-1.556,0.519-1.729c0-1.037-1.211-1.296-1.902-1.296
	c-1.383,0-1.643,0.604-2.248,3.024h-6.483c-1.037,0-1.643,0.605-1.643,1.644c0,0.951,0.519,1.557,1.643,1.557h5.188
	c-0.691,1.556-2.248,4.235-4.582,6.227c-2.335,1.986-2.421,1.986-2.421,2.764c0,1.123,0.778,1.989,1.729,1.989
	c0.519,0,0.777-0.174,2.074-1.297v7.347c0,0.953,0.346,1.557,1.729,1.557c1.556,0,1.556-1.209,1.556-1.557V59.222
	c1.902-2.509,3.112-5.102,3.458-5.967h12.362c1.038,0,1.643-0.604,1.643-1.642C233.592,50.489,232.899,49.97,231.949,49.97"/>
<path fill="#F19CA8" d="M231.949,67.606h-5.015V61.21h4.322c1.038,0,1.643-0.52,1.643-1.557s-0.604-1.556-1.643-1.556h-4.322v-2.766
	c0-1.125-0.605-1.558-1.815-1.558s-1.557,0.777-1.557,1.558v2.678h-4.322c-1.037,0-1.643,0.52-1.643,1.559
	c0,1.122,0.691,1.556,1.643,1.556h4.322v6.396h-5.187c-1.038,0-1.643,0.521-1.643,1.645c0,1.036,0.605,1.555,1.643,1.555h13.486
	c1.037,0,1.643-0.604,1.643-1.642C233.592,68.04,232.813,67.606,231.949,67.606"/>
<path fill="#F19CA8" d="M260.91,62.246c0.691-0.086,1.21-0.346,1.21-1.47c0-1.642-1.123-1.555-1.556-1.469l-10.72,0.951v-2.854
	c2.767-0.346,4.149-0.604,6.483-1.124c0.691-0.173,1.384-0.432,1.384-1.297c0-0.519-0.26-1.728-1.384-1.728
	c-0.346,0-0.778,0.086-1.037,0.173c-5.188,1.21-8.991,1.469-12.968,1.728c-0.173,0-0.605,0.086-0.951,0.261
	c0.087-0.175,0.087-0.347,0.087-0.864v-1.47c0-0.607,0.346-0.865,0.864-0.865h15.043c0.604,0,0.864,0.346,0.864,0.865v1.382
	c0,1.039,0.346,1.557,1.729,1.557c1.47,0,1.557-0.865,1.557-1.557v-2.16c0-2.334-0.951-3.026-3.026-3.026h-6.916v-0.864
	c0-1.037-0.778-1.298-1.901-1.298c-0.951,0-1.557,0.348-1.557,1.298v0.95h-6.83c-1.988,0-3.025,0.692-3.025,3.026v2.162
	c0,0.951,0.346,1.555,1.643,1.555c0.605,0,0.863-0.086,1.037-0.259c-0.174,0.259-0.174,0.518-0.174,0.691
	c0,0.433,0.088,1.643,1.471,1.643c1.038,0,1.988-0.086,4.235-0.345v2.765l-7.521,0.693c-0.778,0.086-1.297,0.345-1.297,1.383
	c0,1.728,1.211,1.642,1.557,1.555l7.261-0.689v4.754c0,0.863,0,2.852,2.422,2.938c0.691,0.086,1.297,0.086,8.386,0.086
	c2.421,0,3.891,0,3.891-5.186c0-0.434,0-1.644-1.729-1.644c-1.47,0-1.556,1.037-1.556,1.557c-0.087,1.814-0.173,2.162-0.778,2.334
	c-0.26,0.087-3.891,0.087-4.669,0.087c-1.901,0-1.988,0-2.161-0.087c-0.173-0.086-0.432-0.259-0.432-0.951V63.37L260.91,62.246z"/>
<path fill="#FAC359" d="M287.019,51.44h-7.867c0.692-1.298,0.865-1.729,0.865-2.248c0-0.95-1.038-1.384-1.815-1.384
	c-1.124,0-1.297,0.434-2.248,2.334c-0.433,0.778-2.421,4.064-5.446,6.313c-1.211,0.865-1.385,1.036-1.385,1.727
	c0,0.864,0.779,1.731,1.73,1.731c1.728,0,5.014-3.632,6.311-5.449h7.694c0.691,0,0.951,0,0.951,0.521c0,0.69-0.778,2.852-1.47,4.149
	c-2.68,5.273-7.176,7.003-11.412,8.04c-1.901,0.434-2.42,0.606-2.42,1.73c0,0.432,0.173,1.813,1.729,1.813
	c0.864,0,6.397-1.037,10.547-4.322c5.965-4.669,7.003-11.845,7.003-12.881C289.612,52.392,288.921,51.44,287.019,51.44"/>
<path fill="#FAC359" d="M300.332,61.468V50.144c0-1.21-0.691-1.644-1.815-1.644c-1.556,0-1.815,0.865-1.815,1.644v11.324
	c0,1.212,0.691,1.646,1.815,1.646C300.073,63.113,300.332,62.246,300.332,61.468"/>
<path fill="#FAC359" d="M311.831,48.155c-1.557,0-1.816,0.864-1.816,1.729v9.857c0,1.642-0.173,3.11-1.469,4.667
	c-1.384,1.557-3.372,2.422-7.521,2.767c-1.729,0.173-2.594,0.259-2.594,1.642c0,1.816,1.643,1.816,1.988,1.816
	c0.605,0,2.507-0.086,4.928-0.692c7.867-2.161,8.386-7.348,8.386-10.374v-9.768C313.646,48.589,312.954,48.155,311.831,48.155"/>
<path fill="#FAC359" d="M323.502,53.601h15.734c0.95,0,1.729-0.346,1.729-1.729c0-1.729-1.297-1.729-1.729-1.729h-15.734
	c-0.778,0-1.729,0.26-1.729,1.729C321.687,53.601,323.069,53.601,323.502,53.601"/>
<path fill="#FAC359" d="M341.138,65.272H321.6c-1.037,0-1.729,0.434-1.729,1.729c0,1.73,1.296,1.73,1.729,1.73h19.538
	c1.038,0,1.729-0.434,1.729-1.73C342.866,65.272,341.57,65.272,341.138,65.272"/>
<path fill="#FAC359" d="M355.402,59.48c0.173,0.777,0.433,1.729,1.297,1.729c0.518,0,1.988-0.086,1.988-1.557
	c0-0.606-1.037-4.15-1.643-5.446c-0.346-0.691-0.605-1.209-1.556-1.209c-0.865,0-1.729,0.518-1.729,1.381
	c0,0.346,0.087,0.606,0.173,0.865C354.624,56.368,354.971,57.405,355.402,59.48"/>
<path fill="#FAC359" d="M364.653,53.688c-0.173-0.088-0.347-0.088-0.52-0.088c-1.209,0-1.47,0.951-1.556,1.644
	c-0.519,2.593-0.605,2.854-0.951,3.891c-2.075,6.138-6.828,7.695-8.904,8.299c-1.815,0.52-2.334,0.692-2.334,1.644
	c0,0.518,0.346,1.729,1.556,1.729c0.433,0,6.657-0.951,10.547-6.482c2.854-4.152,3.372-9.079,3.372-9.164
	C365.863,54.64,365.69,53.947,364.653,53.688"/>
<path fill="#FAC359" d="M353.068,60.863c0-0.432-0.087-0.69-0.26-1.297c-1.469-4.148-1.988-5.359-3.198-5.359
	c-0.778,0-1.729,0.518-1.729,1.384c0,0.345,0.173,0.691,0.26,0.95c0.519,1.125,0.951,2.075,1.556,4.149
	c0.26,0.95,0.519,1.643,1.47,1.643C351.686,62.333,353.068,62.161,353.068,60.863"/>
<path fill="#FAC359" d="M388.428,51.44h-7.867c0.691-1.298,0.864-1.729,0.864-2.248c0-0.95-1.038-1.384-1.815-1.384
	c-1.124,0-1.297,0.434-2.248,2.334c-0.346,0.778-2.421,4.064-5.446,6.313c-1.211,0.865-1.384,1.036-1.384,1.727
	c0,0.864,0.778,1.731,1.729,1.731c1.729,0,5.015-3.632,6.311-5.449h7.694c0.692,0,0.951,0,0.951,0.521
	c0,0.69-0.778,2.852-1.47,4.149c-2.68,5.273-7.176,7.003-11.411,8.04c-1.902,0.434-2.421,0.606-2.421,1.73
	c0,0.432,0.173,1.813,1.729,1.813c0.865,0,6.397-1.037,10.548-4.322c5.965-4.669,7.002-11.845,7.002-12.881
	C391.021,52.392,390.329,51.44,388.428,51.44"/>
<path fill="#A9987F" d="M165.035,16.6c0.259,0,1.124,0,1.124,1.038c0,1.037-0.865,1.037-1.124,1.037h-11.672
	c-0.432,0-0.691,0.173-0.691,0.692v10.201c0,0.518,0.26,0.69,0.691,0.69h12.017c0.26,0,1.124,0,1.124,1.038
	s-0.864,1.038-1.124,1.038h-12.535c-1.556,0-2.421-0.519-2.421-2.421v-10.98c0-1.813,0.779-2.42,2.421-2.42h12.19V16.6z
	 M164.688,23.688c0.259,0,0.951,0,0.951,0.951s-0.692,0.951-0.951,0.951h-3.717c1.037,1.124,1.729,1.73,3.89,2.334
	c0.347,0.086,0.778,0.259,0.778,0.865c0,0.432-0.173,1.124-1.037,1.124c-0.604,0-3.718-1.038-5.187-3.545
	c-1.729,2.938-4.41,3.545-4.843,3.545c-0.777,0-1.036-0.779-1.036-1.124c0-0.606,0.432-0.779,0.776-0.865
	c1.125-0.345,2.508-0.778,3.459-2.334h-3.545c-0.259,0-0.951,0-0.951-0.865c0-0.862,0.605-0.949,0.951-0.949h4.15
	c0,0,0.086-0.434,0.086-0.606v-1.123h-1.901c-0.952,1.383-1.384,1.555-1.729,1.555c-0.521,0-1.124-0.432-1.124-1.036
	c0-0.347,0.086-0.434,0.863-1.298c0.52-0.518,0.865-1.124,1.298-1.9c0.173-0.434,0.519-0.692,0.95-0.692
	c0.433,0,1.037,0.259,1.037,0.951c0,0.259-0.086,0.432-0.172,0.691h6.483c0.26,0,0.951,0,0.951,0.864c0,0.95-0.691,0.95-0.951,0.95
	h-3.631v1.125c0,0.259,0,0.52-0.086,0.606h4.235V23.688z"/>
<path fill="#A9987F" d="M184.659,26.975c0,0.347,0,0.864-0.433,1.298c-0.433,0.432-1.037,0.432-1.383,0.432h-1.815v1.814
	c0,1.815-0.519,1.989-2.334,1.989c-1.124,0-1.816,0-1.816-0.951c0-0.605,0.261-0.865,0.865-0.865h0.691
	c0.346,0,0.433-0.085,0.433-0.519v-1.557h-1.902c-1.643,0-1.729-1.124-1.729-1.729V25.68c-0.087,0.085-0.346,0.172-0.519,0.172
	c-0.52,0-0.865-0.434-0.865-0.952c-0.086,1.729-0.345,4.15-1.296,6.052c-0.692,1.297-0.952,1.47-1.471,1.47
	c-0.604,0-1.124-0.432-1.124-0.949c0-0.348,0.174-0.606,0.26-0.952c0.95-1.815,1.211-2.335,1.47-4.063
	c-0.346,0.259-1.037,0.692-1.47,0.692c-0.778,0-0.864-0.953-0.864-1.297c0-0.692,0.432-0.866,0.778-0.952
	c0.432-0.173,1.036-0.432,1.729-0.865V22.48c-0.087,0.085-0.346,0.171-0.692,0.171c-0.518,0-0.604-0.259-0.863-1.038
	c-0.261-0.604-0.347-0.863-0.692-1.469c0-0.085-0.086-0.258-0.086-0.519c0-0.519,0.605-0.951,1.037-0.951
	c0.519,0,0.692,0.433,1.297,1.729v-1.124c0-1.556,0.692-2.075,2.075-2.075h3.804v-0.518c0-0.778,0.691-0.865,1.037-0.865
	c0.52,0,1.124,0.173,1.124,0.865v0.605h5.274c0.432,0,1.036,0.086,1.036,0.863c0,0.692-0.432,0.865-1.036,0.865h-5.534
	c0.347,0.173,0.605,0.347,0.519,0.866h5.102c0.346,0,0.863,0,0.863,0.863c0,0.778-0.518,0.863-0.863,0.863h-2.939
	c0.777,0.867,0.864,0.952,1.21,1.211c0.086-0.173,0.605-0.777,0.778-0.95c0.173-0.174,0.259-0.174,0.432-0.174
	c0.434,0,0.951,0.347,0.951,0.692c0,0.345-0.604,0.951-0.864,1.298c0.173,0.086,0.951,0.517,1.123,0.604
	c0.347,0.174,0.347,0.433,0.347,0.605c0,0.519-0.347,1.125-0.951,1.125c-0.259,0-0.519-0.086-0.778-0.26v1.21H184.659z
	 M176.015,31.385c-0.52,0.346-1.558,0.949-1.989,0.949c-0.692,0-0.864-0.604-0.864-0.949c0-0.52,0.172-0.52,1.21-1.125
	c0.691-0.346,0.951-0.519,1.644-1.036c0.259-0.174,0.432-0.261,0.69-0.261c0.52,0,0.951,0.434,0.951,0.951
	C177.57,30.26,177.225,30.606,176.015,31.385 M173.853,24.814c0.087-0.261,0.26-0.521,0.346-0.521
	c0.259-0.172,0.692-0.518,1.038-0.689c-0.174-0.261-0.433-0.521-0.692-0.694c-0.173-0.173-0.259-0.345-0.259-0.518
	c0-0.434,0.519-0.779,0.951-0.779c0.259,0,0.432,0.087,1.21,1.038c0.346-0.346,0.692-0.692,0.951-1.123h-2.421
	c-0.52,0-0.864-0.172-0.864-0.866c0-0.69,0.518-0.775,0.864-0.775h3.372c0.259-0.693,0.259-0.693,0.432-0.866h-4.236
	c-0.432,0-0.604,0.173-0.604,0.605v5.188H173.853z M177.397,25.332h5.272v-0.347c0-0.259-0.086-0.432-0.432-0.432h-4.409
	c-0.346,0-0.432,0.173-0.432,0.432V25.332z M177.397,26.629v0.346c0,0.26,0.086,0.433,0.432,0.433h4.409
	c0.346,0,0.432-0.259,0.432-0.433v-0.346H177.397z M181.634,23.17c-0.778-0.777-0.951-1.211-1.124-1.557h-1.037
	c-0.261,0.434-0.52,0.867-1.124,1.557H181.634z M183.017,28.963c0.26,0,0.346,0,0.864,0.434c0.691,0.518,1.298,0.776,1.988,1.21
	c0.173,0.085,0.434,0.259,0.434,0.69c0,0.434-0.348,1.037-1.038,1.037c-0.433,0-1.384-0.604-1.902-0.949
	c-0.519-0.347-1.383-0.952-1.383-1.471C182.065,29.309,182.584,28.963,183.017,28.963"/>
<path fill="#A9987F" d="M193.045,29.48c-1.556,3.027-1.814,3.027-2.248,3.027c-0.604,0-1.21-0.434-1.21-1.036
	c0-0.434,0.173-0.606,0.864-1.818c0.692-1.124,1.211-2.246,1.816-3.544c0.086-0.26,0.259-0.604,0.863-0.604
	c0.434,0,1.038,0.345,1.038,0.951C194.255,27.061,193.392,28.79,193.045,29.48 M190.711,20.664c0.52,0,1.469,0.604,2.075,1.037
	c1.037,0.69,1.21,0.95,1.21,1.297c0,0.518-0.519,1.21-1.124,1.21c-0.26,0-0.432-0.086-1.47-0.864
	c-0.172-0.173-1.037-0.692-1.21-0.865c-0.347-0.173-0.433-0.346-0.433-0.865C189.673,21.268,190.192,20.664,190.711,20.664
	 M191.23,16.082c0.518,0,1.469,0.604,2.073,0.949c1.038,0.606,1.298,0.865,1.298,1.299c0,0.604-0.52,1.21-1.037,1.21
	c-0.261,0-0.347-0.087-1.471-0.778c-0.259-0.173-1.297-0.779-1.47-0.865c-0.173-0.087-0.432-0.259-0.432-0.776
	C190.192,16.687,190.624,16.082,191.23,16.082 M195.379,25.159c-0.346,0-1.124,0-1.124-1.037c0-0.865,0.52-1.038,1.124-1.038h3.891
	v-2.681h-3.112c-0.259,0-1.124,0-1.124-1.036c0-0.778,0.346-1.124,1.124-1.124h3.112v-1.298c0-0.432,0.087-1.124,1.038-1.124
	c0.777,0,1.21,0.261,1.21,1.124v1.298h3.285c0.26,0,1.124,0,1.124,1.036c0,0.864-0.433,1.124-1.124,1.124h-3.285v2.681h3.891
	c0.259,0,1.124,0,1.124,0.951c0,0.777-0.347,1.124-1.124,1.124h-5.361c-0.69,1.901-1.642,3.891-1.987,4.755
	c1.987-0.086,2.507-0.173,4.841-0.346c-0.346-0.605-0.432-0.778-1.123-1.729c-0.26-0.346-0.26-0.518-0.26-0.692
	c0-0.604,0.691-0.951,1.124-0.951s0.691,0.174,1.47,1.298c0.432,0.69,1.124,1.557,1.729,2.767c0.433,0.691,0.52,1.037,0.52,1.382
	c0,0.606-0.605,1.038-1.211,1.038s-0.778-0.432-0.864-0.605c-0.087-0.085-0.26-0.519-0.26-0.603
	c-3.804,0.518-8.56,0.776-8.731,0.776c-0.173,0-1.038,0-1.038-1.124c0-0.433,0.173-0.692,0.52-0.951
	c0.173-0.086,0.259-0.086,1.037-0.086c0.778-1.558,1.47-3.199,1.988-4.842h-2.421V25.159z"/>
<path fill="#A9987F" d="M216.733,17.119c0-0.347,0-1.123,1.21-1.123c1.211,0,1.211,0.776,1.211,1.123v1.729
	c0,1.383,0.173,5.1,2.334,7.954c1.037,1.382,2.421,2.506,3.89,3.371c0.433,0.259,0.865,0.519,0.865,1.124
	c0,0.518-0.433,1.385-1.297,1.385s-3.026-1.816-4.236-3.113c-1.383-1.557-2.334-3.546-2.853-5.534
	c-0.865,3.198-2.075,4.756-3.199,5.966c-1.037,1.038-2.939,2.682-3.804,2.682c-0.778,0-1.297-0.692-1.297-1.385
	c0-0.605,0.346-0.779,0.691-0.949c2.335-1.298,4.928-3.115,6.052-7.869c0.173-0.778,0.346-3.199,0.346-3.459v-1.9H216.733z"/>
<path fill="#A9987F" d="M233.505,18.589c0.864,0,1.643,0.345,1.643,1.469c0,0.779-0.261,1.556-1.556,3.458
	c0.432,0.432,0.777,0.779,1.383,1.383c0.691,0.692,0.864,0.781,0.864,1.124c0,0.52-0.432,1.124-1.037,1.124s-1.21-0.777-1.643-1.467
	v6.049c0,0.865-0.433,1.124-1.21,1.124c-0.951,0-1.038-0.604-1.038-1.124v-5.272c-0.691,0.604-1.124,0.865-1.556,0.865
	c-0.605,0-1.124-0.606-1.124-1.299c0-0.604,0.259-0.777,1.556-1.728c1.988-1.383,2.939-3.199,2.939-3.372
	c0-0.259-0.259-0.259-0.432-0.259h-2.854c-0.519,0-1.124-0.175-1.124-1.038c0-1.037,0.777-1.037,1.124-1.037h1.47v-1.558
	c0-0.776,0.346-1.123,1.211-1.123c1.037,0,1.037,0.778,1.037,1.123v1.558H233.505z M243.533,20.576c0.26,0,1.124,0,1.124,1.037
	c0,0.865-0.346,1.211-1.124,1.211h-2.507V30h2.853c0.259,0,1.124,0,1.124,1.038c0,0.776-0.346,1.21-1.124,1.21h-8.213
	c-0.346,0-1.297,0-1.297-1.037c0-0.863,0.433-1.124,1.297-1.124h3.026v-7.175h-2.421c-0.26,0-1.124,0-1.124-1.038
	c0-0.864,0.346-1.21,1.124-1.21h2.421v-3.633c0-0.432,0.086-1.123,1.037-1.123c0.864,0,1.21,0.26,1.21,1.123v3.633h2.594V20.576z"/>
<path fill="#A9987F" d="M263.85,29.914c0,1.814-0.778,2.421-2.421,2.421h-10.547c-1.556,0-2.421-0.521-2.421-2.421v-10.98
	c0-1.813,0.778-2.42,2.421-2.42h10.547c1.557,0,2.421,0.52,2.421,2.42V29.914z M261.688,19.367c0-0.52-0.26-0.692-0.691-0.692h-9.51
	c-0.519,0-0.692,0.259-0.692,0.692V29.48c0,0.52,0.26,0.692,0.692,0.692h9.51c0.432,0,0.691-0.259,0.691-0.692V19.367z
	 M259.7,27.925c0,1.989-0.605,1.989-3.112,1.989c-0.778,0-1.384,0-1.384-0.951c0-0.952,0.692-0.952,0.865-0.952h0.864
	c0.605,0,0.605-0.256,0.605-0.604v-4.755h-5.706c-0.346,0-1.038,0-1.038-0.864c0-0.865,0.347-1.038,1.038-1.038h5.706v-1.124
	c0-0.692,0.259-1.037,0.95-1.037c0.692,0,1.124,0.173,1.124,1.037v1.124h0.951c0.346,0,1.037,0,1.037,0.951
	c0,0.863-0.346,1.038-1.037,1.038h-0.951v5.186H259.7z M254.772,24.898c0.346,0.521,0.864,1.299,0.864,1.816
	c0,0.692-0.778,1.04-1.21,1.04c-0.433,0-0.605-0.262-1.124-1.126c-0.26-0.432-0.433-0.692-1.038-1.47
	c-0.173-0.172-0.347-0.52-0.347-0.864c0-0.519,0.606-0.865,1.039-0.865C253.389,23.343,253.648,23.343,254.772,24.898"/>
<path fill="#8BC33F" d="M8.988,10.288c0.52,12.969,10.807,23.431,23.774,24.035C32.243,21.354,21.956,10.894,8.988,10.288"/>
<path fill="#29AD4B" d="M70.11,0C50.831,1.385,28.786,17.724,36.134,59.48c0-13.4,1.989-21.527,3.631-25.502
	C56.45,31.472,69.418,17.292,70.11,0"/>
<path fill="#A9987F" d="M17.547,74.522c0.433,0,0.605,0,0.864,0.088c0.26,0.173,0.433,0.432,0.433,0.776
	c0,0.347-0.173,0.693-0.433,0.779c-0.173,0.086-0.345,0.086-0.864,0.086h-3.025v3.027c0,0.518,0,0.69-0.174,0.949
	c-0.173,0.261-0.518,0.52-0.95,0.52s-0.778-0.173-0.951-0.52c-0.086-0.259-0.172-0.432-0.172-0.949v-8.127
	c0-0.347,0-0.692,0.259-0.952c0.259-0.259,0.69-0.259,0.951-0.259h4.582c0.432,0,0.604,0,0.863,0.086
	c0.261,0.173,0.433,0.433,0.433,0.778c0,0.347-0.172,0.692-0.433,0.778c-0.173,0.085-0.345,0.085-0.863,0.085h-3.805v2.681h3.285
	V74.522z"/>
<path fill="#A9987F" d="M24.031,80.834c-0.778,0-1.383-0.259-1.902-0.691c-0.604-0.606-0.778-1.382-0.778-2.248v-3.717
	c0-0.52,0-0.693,0.086-0.865c0.174-0.259,0.434-0.432,0.865-0.432c0.433,0,0.691,0.173,0.864,0.432
	c0.087,0.172,0.087,0.432,0.087,0.865v3.458c0,1.037,0.692,1.384,1.297,1.384c0.605,0,1.296-0.347,1.296-1.384v-3.458
	c0-0.52,0-0.693,0.087-0.865c0.174-0.259,0.433-0.432,0.865-0.432s0.691,0.173,0.864,0.432c0.086,0.172,0.086,0.432,0.086,0.865
	v5.358c0,0.52,0,0.694-0.173,0.866c-0.172,0.258-0.519,0.432-0.864,0.432c-0.26,0-0.519-0.086-0.604-0.259
	c-0.174-0.173-0.261-0.345-0.261-0.605C25.501,80.575,24.722,80.834,24.031,80.834"/>
<path fill="#A9987F" d="M31.206,74.608h-0.173c-0.346,0-0.518,0-0.69-0.086c-0.261-0.087-0.347-0.346-0.347-0.69
	c0-0.259,0.086-0.52,0.347-0.692c0.173-0.086,0.259-0.086,0.69-0.086h0.173v-1.038c0-0.518,0-0.691,0.087-0.863
	c0.173-0.261,0.433-0.434,0.864-0.434s0.692,0.173,0.865,0.434c0.086,0.172,0.086,0.432,0.086,0.863v1.038h0.604
	c0.347,0,0.52,0,0.692,0.086c0.259,0.086,0.346,0.346,0.346,0.692c0,0.259-0.087,0.518-0.346,0.69
	c-0.173,0.086-0.26,0.086-0.692,0.086h-0.604v3.806c0,0.345,0.173,0.69,0.604,0.69c0.261,0,0.433,0,0.605,0.086
	c0.26,0.089,0.433,0.348,0.433,0.692c0,0.346-0.173,0.606-0.433,0.692c-0.173,0.086-0.432,0.173-0.778,0.173h-0.086
	c-1.643,0-2.248-1.124-2.248-2.248V74.608z"/>
<path fill="#A9987F" d="M38.382,74.868c-0.259,0.174-0.519,0.174-0.691,0.174s-0.433-0.086-0.52-0.261
	c-0.172-0.173-0.259-0.345-0.259-0.604c0-0.434,0.346-0.777,0.692-0.95c0.604-0.347,1.21-0.434,1.987-0.434
	c2.161,0,3.285,0.95,3.285,2.767v3.976c0,0.52,0,0.694-0.172,0.866c-0.173,0.258-0.519,0.432-0.865,0.432
	c-0.259,0-0.519-0.086-0.604-0.259c-0.173-0.173-0.259-0.259-0.259-0.52c-0.606,0.52-1.038,0.778-1.989,0.778
	c-0.864,0-1.556-0.259-1.988-0.691c-0.433-0.434-0.691-1.036-0.691-1.73c0-1.296,0.863-2.246,2.68-2.246h1.814v-0.433
	c0-0.865-0.432-1.209-1.383-1.209C39.16,74.437,38.814,74.608,38.382,74.868 M41.063,77.463h-1.471
	c-0.777,0-1.124,0.346-1.124,0.864s0.347,0.865,1.212,0.865c0.518,0,0.863-0.086,1.122-0.347c0.261-0.26,0.347-0.519,0.347-1.037
	v-0.346H41.063z"/>
<path fill="#A9987F" d="M45.903,71.324c0-0.433,0-0.691,0.086-0.864c0.174-0.26,0.433-0.433,0.865-0.433s0.691,0.173,0.864,0.433
	c0.087,0.173,0.087,0.432,0.087,0.864v2.335c0.518-0.605,1.124-0.778,1.902-0.778c0.777,0,1.469,0.259,1.9,0.692
	c0.779,0.776,0.779,1.986,0.779,3.283c0,1.299-0.087,2.595-0.779,3.285c-0.432,0.434-1.123,0.692-1.9,0.692
	c-0.865,0-1.385-0.259-1.989-0.778c-0.086,0.259-0.173,0.434-0.259,0.52c-0.173,0.173-0.347,0.259-0.605,0.259
	c-0.346,0-0.691-0.173-0.865-0.431c-0.086-0.262-0.173-0.348-0.173-0.865v-8.214H45.903z M49.188,74.608
	c-1.21,0-1.297,0.951-1.297,2.248c0,1.299,0.173,2.248,1.383,2.248c1.124,0,1.297-0.949,1.297-2.248
	C50.485,75.56,50.313,74.608,49.188,74.608"/>
<path fill="#A9987F" d="M56.45,74.868c-0.259,0.174-0.518,0.174-0.691,0.174c-0.173,0-0.432-0.086-0.519-0.261
	c-0.173-0.173-0.259-0.345-0.259-0.604c0-0.434,0.346-0.777,0.69-0.95c0.605-0.347,1.211-0.434,1.989-0.434
	c2.161,0,3.285,0.95,3.285,2.767v3.976c0,0.52,0,0.694-0.173,0.866c-0.173,0.258-0.52,0.432-0.865,0.432
	c-0.259,0-0.518-0.086-0.605-0.259c-0.173-0.173-0.259-0.259-0.259-0.52c-0.604,0.52-1.038,0.778-1.987,0.778
	c-0.865,0-1.557-0.259-1.989-0.691c-0.433-0.434-0.691-1.036-0.691-1.73c0-1.296,0.864-2.246,2.681-2.246h1.814v-0.433
	c0-0.865-0.432-1.209-1.383-1.209C57.229,74.437,56.883,74.608,56.45,74.868 M59.044,77.463h-1.47c-0.778,0-1.124,0.346-1.124,0.864
	s0.346,0.865,1.211,0.865c0.519,0,0.864-0.086,1.124-0.347c0.259-0.26,0.259-0.519,0.259-1.037V77.463z"/>
</svg>
