<?xml version="1.0" encoding="utf-8"?>
<!-- Generator: Adobe Illustrator 25.4.1, SVG Export Plug-In . SVG Version: 6.00 Build 0)  -->
<svg version="1.1" id="レイヤー_1" xmlns="http://www.w3.org/2000/svg" xmlns:xlink="http://www.w3.org/1999/xlink" x="0px"
	 y="0px" viewBox="0 0 251.3 125.6" style="enable-background:new 0 0 251.3 125.6;" xml:space="preserve">
<style type="text/css">
	.st0{fill:#FFFFFF;}
	.st1{fill:none;stroke:#92D050;stroke-width:2.6937;stroke-miterlimit:10;}
	.st2{fill:#92D050;}
	.st3{enable-background:new    ;}
	.st4{fill:#4D4D4D;}
</style>
<path class="st0" d="M10.6,124.7c-5.5,0-9.9-5-9.9-11.2V11.9c0-6.2,4.4-11.2,9.9-11.2h230.1c5.5,0,9.9,5,9.9,11.2v101.6
	c0,6.2-4.4,11.2-9.9,11.2C240.7,124.7,10.6,124.7,10.6,124.7z"/>
<line class="st1" x1="26" y1="36.3" x2="215.2" y2="36.3"/>
<circle class="st2" cx="215.2" cy="36.3" r="7"/>
<circle class="st2" cx="48.2" cy="36.3" r="7"/>
<circle class="st2" cx="161.7" cy="36.3" r="7"/>
<circle class="st2" cx="101.6" cy="36.7" r="7"/>
<g class="st3">
	<path class="st4" d="M36.3,18.2c0.4,0.3,1.4,1.1,1.7,1.3L37.6,20c-0.2-0.3-0.8-0.8-1.3-1.2v2.7h-0.7v-2.8c-0.5,0.8-1.1,1.5-1.7,2
		c-0.1-0.2-0.3-0.4-0.4-0.5c0.7-0.5,1.5-1.4,2-2.3h-1.8v-0.6h1.9v-1.1h-2v-0.6h1.2c-0.1-0.4-0.2-1.1-0.4-1.5l0.5-0.2
		c0.2,0.5,0.4,1.1,0.5,1.6L35,15.7h1.7c-0.1,0-0.3-0.1-0.3-0.1c0.2-0.4,0.4-1.1,0.6-1.6l0.8,0.2c0,0.1-0.1,0.1-0.2,0.1
		c-0.1,0.4-0.4,1-0.6,1.4h1.5v0.6h-2h-0.1v1h2v0.6h-2v0.3C36.4,18.2,36.3,18.2,36.3,18.2z M38.2,13.4V14h-4.4v-0.6h1.8v-1.1h0.8
		c0,0.1-0.1,0.1-0.2,0.1v0.9h2C38.2,13.3,38.2,13.4,38.2,13.4z M42.9,15.7v0.6h-1.2v5.2H41v-5.2h-1.6v0.4c0,1.5-0.2,3.5-1.6,4.9
		c-0.1-0.1-0.3-0.4-0.5-0.5c1.3-1.3,1.5-3,1.5-4.4v-3.5l0.5,0.2c1-0.3,2.2-0.7,2.8-1.1l0.7,0.5c0,0-0.1,0-0.2,0
		c-0.7,0.4-2,0.8-3.1,1.1v1.8C39.5,15.7,42.9,15.7,42.9,15.7z"/>
	<path class="st4" d="M46.2,15c0,0.1-0.1,0.1-0.2,0.1c-0.3,1.3-0.9,3.1-1.8,4.3c-0.2-0.1-0.4-0.3-0.6-0.4c0.9-1.1,1.5-2.8,1.7-4.2
		L46.2,15z M47.9,12.4h0.9c0,0.1-0.1,0.1-0.2,0.1v8c0,0.5-0.1,0.7-0.5,0.8c-0.4,0.1-1,0.1-1.9,0.1c-0.1-0.2-0.2-0.5-0.3-0.7
		c0.4,0,0.9,0,1.2,0c0.7,0,0.8,0,0.8-0.3V12.4z M52.3,19.5c-0.2-1.2-1.1-3.1-2-4.5l0.6-0.2c0.9,1.4,1.8,3.3,2,4.5L52.3,19.5z"/>
	<path class="st4" d="M62.8,16.6h-5.4c-0.2,0.5-0.5,0.9-0.9,1.4h5.7v3.6h-0.7v-0.4h-5v0.4h-0.7v-2.8c-0.5,0.6-1.2,1.1-1.8,1.4
		c-0.1-0.2-0.3-0.4-0.4-0.5c1.3-0.7,2.4-1.9,3.1-3.1h-2.8V16h9L62.8,16.6L62.8,16.6z M62.3,12.8c0,0.1-0.1,0.1-0.2,0.1v2h-7.5v-2.2
		l0.9,0.1c0,0.1-0.1,0.1-0.2,0.1v1.4H58v-2.1h0.9c0,0.1-0.1,0.1-0.2,0.1v1.9h2.8v-1.6L62.3,12.8z M61.4,20.5v-1.9h-5v1.9H61.4z"/>
</g>
<g class="st3">
	<path class="st4" d="M96.9,16.5c0.7-1,1.1-2.6,1.2-4.2l0.8,0.2c0,0.1-0.1,0.1-0.2,0.1c-0.2,1.5-0.6,3.2-1.4,4.3
		C97.3,16.8,97.1,16.7,96.9,16.5V17l-0.4,0.1v3.7c0,0.7-0.3,0.8-1.5,0.8c0-0.2-0.1-0.4-0.2-0.6c0.2,0,0.4,0,0.6,0
		c0.5,0,0.5,0,0.5-0.2v-3.6c-0.7,0.1-1.4,0.2-2.1,0.2c0,1.3-0.1,3-0.8,4.2c-0.1-0.1-0.4-0.3-0.5-0.3c0.7-1.1,0.8-2.6,0.8-3.8h-0.4
		c0,0.1-0.1,0.1-0.2,0.1l-0.2-0.7l0.7-0.1v-3.2h0.9c0.2-0.4,0.3-1,0.4-1.4l0.8,0.2c0,0.1-0.1,0.1-0.2,0.1c-0.1,0.3-0.2,0.7-0.4,1.1
		h1.7v2.9H96.9L96.9,16.5z M93.8,14.2v2.5c0.6,0,1.3-0.1,2.1-0.2v-2.4L93.8,14.2L93.8,14.2z M94.9,16.3c-0.1-0.4-0.3-1-0.6-1.4
		l0.4-0.2c0.3,0.4,0.5,1,0.6,1.4L94.9,16.3z M95.2,17.7c0,0.1,0,0.1-0.2,0.1V20h-0.5v-2.3H95.2z M97.5,21.5v-4.4h3.9v4.4h-0.6v-0.4
		h-2.6v0.5h-0.7C97.5,21.6,97.5,21.5,97.5,21.5z M100.7,17.7h-2.6v2.7h2.6V17.7z M100.3,12.3c0.3,1.6,0.8,3.3,1.6,4.1
		c-0.2,0.1-0.4,0.3-0.5,0.5c-0.8-0.9-1.3-2.7-1.7-4.5L100.3,12.3z"/>
	<path class="st4" d="M104.7,15.1v0.8c0.3,0.4,1,1.5,1.2,1.8l-0.4,0.5c-0.1-0.3-0.5-1-0.8-1.5v4.8h-0.6v-4.8
		c-0.3,1.1-0.8,2.2-1.2,2.9c-0.1-0.2-0.2-0.4-0.3-0.6c0.6-0.9,1.2-2.5,1.5-3.9h-1.3v-0.6h1.4v-2.2l0.8,0.1c0,0.1-0.1,0.1-0.2,0.1v2
		h1.1v0.6C105.9,15.1,104.7,15.1,104.7,15.1z M111.7,14.5H110c0.5,0.6,1.2,1.3,1.9,1.6c-0.1,0.1-0.3,0.3-0.4,0.5
		c-0.4-0.2-0.8-0.5-1.1-0.8V17h-3.2v-1.2c-0.3,0.3-0.7,0.6-1.1,0.8c-0.1-0.2-0.3-0.4-0.4-0.4c0.8-0.5,1.4-1,1.9-1.7H106V14h1.9
		c0.1-0.2,0.2-0.5,0.3-0.7c-0.6,0-1.2,0.1-1.8,0.1c0-0.1-0.1-0.3-0.1-0.5c1.6,0,3.6-0.2,4.6-0.4l0.5,0.5h-0.1c0,0,0,0-0.1,0
		c-0.5,0.1-1.3,0.2-2.1,0.3c0,0.1-0.1,0.1-0.2,0.1c-0.1,0.2-0.1,0.4-0.2,0.6h3.2v0.5C111.9,14.5,111.7,14.5,111.7,14.5z M111.5,17.5
		v3.3c0,0.6-0.2,0.7-1.6,0.7c0-0.2-0.1-0.4-0.2-0.6c0.3,0,0.6,0,0.7,0c0.4,0,0.5,0,0.5-0.2V18h-4.2v3.5h-0.6v-4
		C106.1,17.5,111.5,17.5,111.5,17.5z M110.1,20.5H108V21h-0.5v-2.3h2.6V20.5z M109.8,15.2c-0.2-0.2-0.3-0.4-0.5-0.6h-1.2
		c-0.1,0.2-0.3,0.4-0.4,0.6H109.8z M109.8,16.6v-0.9h-2v0.9H109.8z M109.6,19.1H108v1h1.6V19.1z"/>
</g>
<g class="st3">
	<path class="st4" d="M156.6,16.4h-1.2c0.4,0.6,0.9,1.2,1.4,1.5c-0.2,0.1-0.4,0.4-0.5,0.5c-0.7-0.5-1.2-1.2-1.6-2h-2.1
		c-0.4,0.8-1,1.5-1.8,2.1c-0.1-0.1-0.2-0.4-0.4-0.5v2.8c0,0.7-0.3,0.8-1.6,0.8c0-0.2-0.1-0.5-0.2-0.6c0.2,0,0.5,0,0.6,0
		c0.5,0,0.5,0,0.5-0.2v-2.6h-1.3c-0.1,1.2-0.3,2.5-0.7,3.4c-0.1-0.1-0.4-0.3-0.5-0.3c0.6-1.4,0.7-3.5,0.7-5v-3.6h2.5V18
		c0.6-0.4,1.1-0.9,1.5-1.6h-1.2v-0.6h1.5c0.2-0.4,0.3-0.7,0.4-1.1h-1.7v-0.6h1.8c0.1-0.6,0.2-1.2,0.3-1.9l0.8,0.1
		c0,0.1-0.1,0.1-0.2,0.1c-0.1,0.6-0.2,1.1-0.3,1.6h1.3l-0.2-0.1c0.3-0.4,0.6-1.2,0.8-1.6l0.8,0.3c0,0.1-0.1,0.1-0.2,0.1
		c-0.2,0.4-0.5,0.9-0.7,1.3h1.3v0.6h-1.8c0.1,0.4,0.3,0.8,0.4,1.1h1.5L156.6,16.4L156.6,16.4z M148.5,16.3c0,0.4,0,0.8,0,1.2h1.3
		v-1.8h-1.3V16.3z M149.8,13.3h-1.3V15h1.3V13.3z M155.2,18.1h0.1h0.3c0,0.1,0,0.1,0,0.2c-0.1,2-0.2,2.7-0.5,2.9
		c-0.2,0.3-0.4,0.3-1,0.3c-0.2,0-0.4,0-0.6,0c0-0.2-0.1-0.4-0.2-0.6c0.4,0,0.8,0,1,0c0.1,0,0.2,0,0.3-0.1c0.2-0.2,0.3-0.7,0.3-2.2
		h-1.6c-0.3,1.3-0.9,2.3-2.4,3c-0.1-0.2-0.3-0.4-0.4-0.5c1.3-0.5,1.9-1.3,2.2-2.4h-1.4v-0.6h1.5c0.1-0.3,0.1-0.7,0.1-1.1l0.8,0.1
		c0,0.1-0.1,0.1-0.2,0.1c0,0.3-0.1,0.6-0.1,0.9C153.4,18.1,155.2,18.1,155.2,18.1z M151.6,12.4c0.3,0.4,0.5,1,0.6,1.3l-0.5,0.2
		c-0.1-0.4-0.3-0.9-0.6-1.3L151.6,12.4z M153.2,14.7c-0.1,0.4-0.2,0.8-0.4,1.1h1.6c-0.1-0.4-0.3-0.7-0.4-1.1H153.2z"/>
	<path class="st4" d="M157.8,13h8.3v8.5h-0.7v-0.6h-6.9v0.6h-0.7L157.8,13L157.8,13z M161.6,13.6h-3.1v2.9h3.1V13.6z M158.5,17.2v3
		h3.1v-3H158.5z M165.4,16.5v-2.9h-3.2v2.9H165.4z M162.3,20.2h3.2v-3h-3.2V20.2z"/>
	<path class="st4" d="M173.8,13.6c1.1,0.8,2.3,2,2.9,2.8l-0.6,0.5c-0.2-0.3-0.4-0.6-0.7-0.9c-2.8,0.1-5.8,0.2-7.6,0.3
		c0,0.1-0.1,0.1-0.2,0.1l-0.2-0.8h1.7c0.6-0.9,1.4-2.3,1.8-3.3l0.8,0.3c0,0.1-0.1,0.1-0.2,0.1c-0.4,0.8-1.1,1.9-1.7,2.8l5-0.1
		c-0.5-0.5-1-1-1.5-1.4L173.8,13.6z M168.8,21.5v-4.2h6.3v4.2h-0.7v-0.4h-5v0.4H168.8z M174.4,18h-5v2.5h5V18z"/>
</g>
<g class="st3">
	<path class="st4" d="M210.6,13.4h3.7v8.1h-0.7v-0.8h-6.7v0.8h-0.7v-7.9l0.5,0.1c1-0.4,2.1-1,2.7-1.5l0.6,0.6c0,0-0.1,0-0.2,0
		c-0.7,0.5-1.9,1-3,1.4v2.2h2.7v0.7h-2.7V20h6.7v-2.8h-2.9v-0.7h2.9V14h-3L210.6,13.4L210.6,13.4z"/>
	<path class="st4" d="M224.7,17.7v0.7h-2.3v3.2h-0.7v-3.2h-3.1c-0.2,1.3-0.8,2.4-2.2,3.3c-0.1-0.1-0.3-0.4-0.5-0.5
		c1.2-0.8,1.8-1.7,2-2.8h-2.2v-0.7h2.3c0-0.4,0.1-0.9,0.1-1.3v-1.3h-2v-0.7h2v-2.1l0.9,0.1c0,0.1-0.1,0.1-0.2,0.1v1.9h3v-2.1
		l0.9,0.1c0,0.1-0.1,0.1-0.2,0.1v1.9h2.1v0.7h-2.1v2.6H224.7z M218.7,16.4c0,0.5,0,0.9,0,1.3h3v-2.6h-3V16.4z"/>
</g>
<g class="st3">
	<path class="st4" d="M41.9,58.3h-0.8v-2.1h-3.3v-0.5l3.2-4.9h0.9v4.7h1v0.6h-1C41.9,56.1,41.9,58.3,41.9,58.3z M38.7,55.6h2.4v-2.7
		c0-0.4,0-0.8,0-1.2l0,0c-0.2,0.5-0.4,0.8-0.6,1.1L38.7,55.6L38.7,55.6z"/>
	<path class="st4" d="M43.6,54.6c0-2.6,1-3.9,2.4-3.9s2.3,1.3,2.3,3.8c0,2.6-0.9,3.9-2.4,3.9C44.5,58.4,43.6,57.1,43.6,54.6z
		 M47.5,54.5c0-1.9-0.4-3.2-1.5-3.2c-0.9,0-1.5,1.2-1.5,3.2s0.5,3.2,1.5,3.2S47.5,56.3,47.5,54.5z"/>
	<path class="st4" d="M52.8,50.4c0,0.1-0.1,0.1-0.2,0.1c-0.7,1.6-1.9,3.1-3.1,4c-0.1-0.1-0.4-0.4-0.5-0.5c1.2-0.8,2.4-2.3,3-3.9
		L52.8,50.4z M56.3,53.7h0.2h0.4c0,0.1,0,0.2,0,0.2c-0.2,3.2-0.3,4.4-0.7,4.8C55.9,59,55.6,59,55,59c-0.3,0-0.8,0-1.2,0
		c0-0.2-0.1-0.5-0.2-0.7c0.7,0.1,1.3,0.1,1.6,0.1c0.2,0,0.3,0,0.4-0.1c0.3-0.3,0.4-1.3,0.5-4h-2.7c-0.3,1.9-0.8,3.9-3.5,4.8
		c-0.1-0.2-0.3-0.4-0.4-0.6c2.4-0.8,3-2.5,3.2-4.2h-2.1v-0.7h5.7V53.7z M55.4,50.1c0.7,1.4,2,2.9,3.1,3.7c-0.2,0.1-0.4,0.4-0.6,0.6
		c-1.1-0.9-2.4-2.5-3.2-4L55.4,50.1z"/>
</g>
<g class="st3">
	<path class="st4" d="M95.7,58.4h-4.4v-0.5l0.7-0.8c1.8-1.8,2.7-2.9,2.7-4.1c0-0.8-0.4-1.5-1.4-1.5c-0.6,0-1.1,0.3-1.5,0.6l-0.3-0.6
		c0.5-0.4,1.1-0.7,1.9-0.7c1.5,0,2.1,1.1,2.1,2.1c0,1.4-1,2.6-2.5,4.2l-0.6,0.6l0,0h3.3C95.7,57.7,95.7,58.4,95.7,58.4z"/>
	<path class="st4" d="M100.9,50.9v0.7h-2.7l-0.3,2.1c0.2,0,0.3,0,0.6,0c1.3,0,2.5,0.8,2.5,2.3s-1.1,2.5-2.6,2.5
		c-0.7,0-1.4-0.2-1.7-0.4l0.2-0.6c0.3,0.2,0.8,0.4,1.5,0.4c0.9,0,1.7-0.7,1.7-1.8c0-1-0.7-1.7-2.1-1.7c-0.4,0-0.7,0-1,0.1l0.5-3.5
		L100.9,50.9L100.9,50.9z"/>
	<path class="st4" d="M105.9,50.5c0,0.1-0.1,0.1-0.2,0.1c-0.7,1.6-1.9,3.1-3.1,4c-0.1-0.1-0.4-0.4-0.5-0.5c1.2-0.8,2.4-2.3,3-3.9
		L105.9,50.5z M109.4,53.8h0.2h0.4c0,0.1,0,0.2,0,0.2c-0.2,3.2-0.3,4.4-0.7,4.8c-0.3,0.3-0.6,0.3-1.2,0.3c-0.3,0-0.8,0-1.2,0
		c0-0.2-0.1-0.5-0.2-0.7c0.7,0.1,1.3,0.1,1.6,0.1c0.2,0,0.3,0,0.4-0.1c0.3-0.3,0.4-1.3,0.5-4h-2.7c-0.3,1.9-0.8,3.9-3.5,4.8
		c-0.1-0.2-0.3-0.4-0.4-0.6c2.4-0.8,3-2.5,3.2-4.2h-2.1v-0.7h5.7C109.4,53.7,109.4,53.8,109.4,53.8z M108.5,50.2
		c0.7,1.4,2,2.9,3.1,3.7c-0.2,0.1-0.4,0.4-0.6,0.6c-1.1-0.9-2.4-2.5-3.2-4L108.5,50.2z"/>
</g>
<g class="st3">
	<path class="st4" d="M153.3,58.3v-6.7l0,0l-1.2,0.7l-0.2-0.6l1.5-0.9h0.7v7.5H153.3z"/>
	<path class="st4" d="M156.6,54.6c0-2.6,1-3.9,2.4-3.9s2.3,1.3,2.3,3.8c0,2.6-0.9,3.9-2.4,3.9C157.5,58.4,156.6,57.1,156.6,54.6z
		 M160.5,54.5c0-1.9-0.5-3.2-1.5-3.2c-0.9,0-1.5,1.2-1.5,3.2s0.5,3.2,1.5,3.2S160.5,56.3,160.5,54.5z"/>
	<path class="st4" d="M165.8,50.4c0,0.1-0.1,0.1-0.2,0.1c-0.7,1.6-1.9,3.1-3.1,4c-0.1-0.1-0.4-0.4-0.5-0.5c1.2-0.8,2.4-2.3,3-3.9
		L165.8,50.4z M169.3,53.7h0.2h0.4c0,0.1,0,0.2,0,0.2c-0.2,3.2-0.3,4.4-0.7,4.8c-0.3,0.3-0.6,0.3-1.2,0.3c-0.3,0-0.8,0-1.2,0
		c0-0.2-0.1-0.5-0.2-0.7c0.7,0.1,1.3,0.1,1.6,0.1c0.2,0,0.3,0,0.4-0.1c0.3-0.3,0.4-1.3,0.5-4h-2.7c-0.3,1.9-0.8,3.9-3.5,4.8
		c-0.1-0.2-0.3-0.4-0.4-0.6c2.4-0.8,3-2.5,3.2-4.2h-2.1v-0.7h5.7V53.7z M168.4,50.1c0.7,1.4,2,2.9,3.1,3.7c-0.2,0.1-0.4,0.4-0.6,0.6
		c-1.1-0.9-2.4-2.5-3.2-4L168.4,50.1z"/>
</g>
<g class="st3">
	<path class="st4" d="M21.8,77.1c0,0.6-0.5,1-1,1c-0.6,0-1-0.5-1-1s0.5-1,1-1C21.4,76.1,21.8,76.6,21.8,77.1z"/>
	<path class="st4" d="M30.3,76.7c0.7-1,1.1-2.6,1.2-4.2l0.8,0.2c0,0.1-0.1,0.1-0.2,0.1c-0.2,1.5-0.6,3.2-1.4,4.3
		C30.7,77,30.5,76.9,30.3,76.7v0.5l-0.4,0.1V81c0,0.7-0.3,0.8-1.5,0.8c0-0.2-0.1-0.4-0.2-0.6c0.2,0,0.4,0,0.6,0c0.5,0,0.5,0,0.5-0.2
		v-3.6c-0.7,0.1-1.4,0.2-2.1,0.2c0,1.3-0.1,3-0.8,4.2c-0.1-0.1-0.4-0.3-0.5-0.3c0.7-1.1,0.8-2.6,0.8-3.8h-0.4c0,0.1-0.1,0.1-0.2,0.1
		l-0.2-0.7l0.7-0.1v-3.2h0.9c0.2-0.4,0.3-1,0.4-1.4l0.8,0.2c0,0.1-0.1,0.1-0.2,0.1c-0.1,0.3-0.2,0.7-0.4,1.1h1.7v2.9H30.3L30.3,76.7
		z M27.2,74.4V77c0.6,0,1.3-0.1,2.1-0.2v-2.4H27.2z M28.3,76.5c-0.1-0.4-0.3-1-0.6-1.4l0.4-0.2c0.3,0.4,0.5,1,0.6,1.4L28.3,76.5z
		 M28.6,77.9c0,0.1,0,0.1-0.2,0.1v2.1H28v-2.3L28.6,77.9z M30.9,81.7v-4.4h3.9v4.4h-0.6v-0.4h-2.6v0.5L30.9,81.7L30.9,81.7z
		 M34.1,77.9h-2.6v2.7h2.6V77.9z M33.8,72.5c0.3,1.6,0.8,3.3,1.6,4.1c-0.2,0.1-0.4,0.3-0.5,0.5c-0.8-0.9-1.3-2.7-1.7-4.5L33.8,72.5z
		"/>
	<path class="st4" d="M38.1,75.3v0.8c0.3,0.4,1,1.5,1.2,1.8l-0.4,0.5c-0.1-0.3-0.5-1-0.8-1.5v4.8h-0.6v-4.8
		c-0.3,1.1-0.8,2.2-1.2,2.9c-0.1-0.2-0.2-0.4-0.3-0.6c0.6-0.9,1.2-2.5,1.5-3.9h-1.3v-0.6h1.4v-2.2l0.8,0.1c0,0.1-0.1,0.1-0.2,0.1v2
		h1.1v0.6C39.3,75.3,38.1,75.3,38.1,75.3z M45.1,74.7h-1.7c0.5,0.6,1.2,1.3,1.9,1.6c-0.1,0.1-0.3,0.3-0.4,0.5
		c-0.4-0.2-0.8-0.5-1.1-0.8v1.3h-3.2V76c-0.3,0.3-0.7,0.6-1.1,0.8c-0.1-0.2-0.3-0.4-0.4-0.4c0.8-0.5,1.4-1,1.9-1.7h-1.6v-0.5h1.9
		c0.1-0.2,0.2-0.5,0.3-0.7c-0.6,0-1.2,0.1-1.8,0.1c0-0.1-0.1-0.3-0.1-0.5c1.6,0,3.6-0.2,4.6-0.4l0.5,0.5h-0.1c0,0,0,0-0.1,0
		c-0.5,0.1-1.3,0.2-2.1,0.3c0,0.1-0.1,0.1-0.2,0.1c-0.1,0.2-0.1,0.4-0.2,0.6h3.2v0.5C45.3,74.7,45.1,74.7,45.1,74.7z M45,77.7V81
		c0,0.6-0.2,0.7-1.6,0.7c0-0.2-0.1-0.4-0.2-0.6c0.3,0,0.6,0,0.7,0c0.4,0,0.5,0,0.5-0.2v-2.7h-4.2v3.5h-0.6v-4
		C39.6,77.7,45,77.7,45,77.7z M43.5,80.7h-2.1v0.5h-0.5v-2.3h2.6V80.7z M43.3,75.4c-0.2-0.2-0.3-0.4-0.5-0.6h-1.2
		c-0.1,0.2-0.3,0.4-0.4,0.6H43.3z M43.2,76.8v-0.9h-2v0.9H43.2z M43,79.3h-1.6v1H43V79.3z"/>
	<path class="st4" d="M60.5,80.9h-4.4v-0.5l0.7-0.8c1.8-1.8,2.7-2.9,2.7-4.1c0-0.8-0.4-1.5-1.4-1.5c-0.6,0-1.1,0.3-1.5,0.6L56.3,74
		c0.5-0.4,1.1-0.7,1.9-0.7c1.5,0,2.1,1.1,2.1,2.1c0,1.4-1,2.6-2.5,4.2l-0.6,0.6l0,0h3.3V80.9z"/>
	<path class="st4" d="M65.8,73.4v0.7h-2.7l-0.3,2.1c0.2,0,0.3,0,0.6,0c1.3,0,2.5,0.8,2.5,2.3S64.8,81,63.3,81
		c-0.7,0-1.4-0.2-1.7-0.4l0.2-0.6c0.3,0.2,0.8,0.4,1.5,0.4c0.9,0,1.7-0.7,1.7-1.8c0-1-0.7-1.7-2.1-1.7c-0.4,0-0.7,0-1,0.1l0.5-3.5
		L65.8,73.4L65.8,73.4z"/>
	<path class="st4" d="M70.7,73c0,0.1-0.1,0.1-0.2,0.1c-0.7,1.6-1.9,3.1-3.1,4c-0.1-0.1-0.4-0.4-0.5-0.5c1.2-0.8,2.4-2.3,3-3.9
		L70.7,73z M74.2,76.3h0.2h0.4c0,0.1,0,0.2,0,0.2c-0.2,3.2-0.3,4.4-0.7,4.8c-0.3,0.3-0.6,0.3-1.2,0.3c-0.3,0-0.8,0-1.2,0
		c0-0.2-0.1-0.5-0.2-0.7c0.7,0.1,1.3,0.1,1.6,0.1c0.2,0,0.3,0,0.4-0.1c0.3-0.3,0.4-1.3,0.5-4h-2.7c-0.3,1.9-0.8,3.9-3.5,4.8
		c-0.1-0.2-0.3-0.4-0.4-0.6c2.4-0.8,3-2.5,3.2-4.2h-2.1v-0.7L74.2,76.3L74.2,76.3z M73.4,72.7c0.7,1.4,2,2.9,3.1,3.7
		c-0.2,0.1-0.4,0.4-0.6,0.6c-1.1-0.9-2.4-2.5-3.2-4L73.4,72.7z"/>
</g>
<g class="st3">
	<path class="st4" d="M21.8,93.8c0,0.6-0.5,1-1,1c-0.6,0-1-0.5-1-1s0.5-1,1-1C21.4,92.7,21.8,93.2,21.8,93.8z"/>
	<path class="st4" d="M28.7,95.1c0.4,0.3,1.4,1.1,1.7,1.3L30,96.9c-0.2-0.3-0.8-0.8-1.3-1.2v2.7H28v-2.8c-0.5,0.8-1.1,1.5-1.7,2
		c-0.1-0.2-0.3-0.4-0.4-0.5c0.7-0.5,1.5-1.4,2-2.3h-1.8v-0.6H28v-1.1h-2v-0.6h1.2c-0.1-0.4-0.2-1.1-0.4-1.5l0.5-0.2
		c0.2,0.5,0.4,1.1,0.5,1.6l-0.4,0.1h1.7c-0.1,0-0.3-0.1-0.3-0.1c0.2-0.4,0.4-1.1,0.6-1.6l0.8,0.2c0,0.1-0.1,0.1-0.2,0.1
		c-0.1,0.4-0.4,1-0.6,1.4h1.5v0.6h-2h-0.1v1h2v0.6h-2v0.4H28.7z M30.6,90.3v0.6h-4.4v-0.6H28v-1.1h0.8c0,0.1-0.1,0.1-0.2,0.1v0.9
		L30.6,90.3L30.6,90.3z M35.2,92.6v0.6H34v5.2h-0.7v-5.2h-1.6v0.4c0,1.5-0.2,3.5-1.6,4.9c-0.1-0.1-0.3-0.4-0.5-0.5
		c1.3-1.3,1.5-3,1.5-4.4v-3.5l0.5,0.2c1-0.3,2.2-0.7,2.8-1.1l0.7,0.5c0,0-0.1,0-0.2,0c-0.7,0.4-2,0.8-3.1,1.1v1.8H35.2z"/>
	<path class="st4" d="M38.5,91.8c0,0.1-0.1,0.1-0.2,0.1c-0.3,1.3-0.9,3.1-1.8,4.3c-0.2-0.1-0.4-0.3-0.6-0.4c0.9-1.1,1.5-2.8,1.7-4.2
		L38.5,91.8z M40.3,89.3h0.9c0,0.1-0.1,0.1-0.2,0.1v8c0,0.5-0.1,0.7-0.5,0.8c-0.4,0.1-1,0.1-1.9,0.1c-0.1-0.2-0.2-0.5-0.3-0.7
		c0.4,0,0.9,0,1.2,0c0.7,0,0.8,0,0.8-0.3V89.3z M44.7,96.4c-0.2-1.2-1.1-3.1-2-4.5l0.6-0.2c0.9,1.4,1.8,3.3,2,4.5L44.7,96.4z"/>
	<path class="st4" d="M55.1,93.4h-5.4c-0.2,0.5-0.5,0.9-0.9,1.4h5.7v3.6h-0.7V98h-5v0.4h-0.7v-2.8c-0.5,0.6-1.2,1.1-1.8,1.4
		c-0.1-0.2-0.3-0.4-0.4-0.5c1.3-0.7,2.4-1.9,3.1-3.1h-2.8v-0.6h9L55.1,93.4L55.1,93.4z M54.6,89.7c0,0.1-0.1,0.1-0.2,0.1v2h-7.5
		v-2.2l0.9,0.1c0,0.1-0.1,0.1-0.2,0.1v1.4h2.7v-2.1h0.9c0,0.1-0.1,0.1-0.2,0.1v1.9h2.8v-1.6L54.6,89.7z M53.8,97.4v-1.9h-5v1.9H53.8
		z"/>
	<path class="st4" d="M69.9,97.6h-0.8v-2.1h-3.3V95l3.2-4.9h0.9v4.7h1v0.6h-1C69.9,95.4,69.9,97.6,69.9,97.6z M66.6,94.8H69v-2.7
		c0-0.4,0-0.8,0-1.2l0,0c-0.2,0.5-0.4,0.8-0.6,1.1L66.6,94.8L66.6,94.8z"/>
	<path class="st4" d="M71.5,93.9c0-2.6,1-3.9,2.4-3.9s2.3,1.3,2.3,3.8c0,2.6-0.9,3.9-2.4,3.9C72.5,97.7,71.5,96.3,71.5,93.9z
		 M75.4,93.8c0-1.9-0.4-3.2-1.5-3.2c-0.9,0-1.5,1.2-1.5,3.2s0.5,3.2,1.5,3.2C75,97,75.4,95.6,75.4,93.8z"/>
	<path class="st4" d="M80.7,89.6c0,0.1-0.1,0.1-0.2,0.1c-0.7,1.6-1.9,3.1-3.1,4c-0.1-0.1-0.4-0.4-0.5-0.5c1.2-0.8,2.4-2.3,3-3.9
		L80.7,89.6z M84.2,93h0.2h0.4c0,0.1,0,0.2,0,0.2c-0.2,3.2-0.3,4.4-0.7,4.8c-0.3,0.3-0.6,0.3-1.2,0.3c-0.3,0-0.8,0-1.2,0
		c0-0.2-0.1-0.5-0.2-0.7c0.7,0.1,1.3,0.1,1.6,0.1c0.2,0,0.3,0,0.4-0.1c0.3-0.3,0.4-1.3,0.5-4h-2.7c-0.3,1.9-0.8,3.9-3.5,4.8
		c-0.1-0.2-0.3-0.4-0.4-0.6c2.4-0.8,3-2.5,3.2-4.2h-2.1V93H84.2z M83.4,89.3c0.7,1.4,2,2.9,3.1,3.7c-0.2,0.1-0.4,0.4-0.6,0.6
		c-1.1-0.9-2.4-2.5-3.2-4L83.4,89.3z"/>
</g>
<g class="st3">
	<path class="st4" d="M21.9,110.3c0,0.6-0.5,1-1,1c-0.6,0-1-0.5-1-1s0.5-1,1-1C21.4,109.2,21.9,109.7,21.9,110.3z"/>
	<path class="st4" d="M34.3,111.8h-2.7c0.9,1,2.4,1.9,3.7,2.3c-0.2,0.1-0.4,0.4-0.5,0.6c-1.3-0.5-2.9-1.6-3.9-2.7v2.8h-0.7V112
		c-1,1.1-2.5,2.1-3.8,2.6c-0.1-0.2-0.3-0.4-0.5-0.6c1.3-0.5,2.7-1.4,3.7-2.3h-2.5V108h3.1v-0.9h-4v-0.6h4v-1l0.9,0.1
		c0,0.1-0.1,0.1-0.2,0.1v0.8H35v0.6h-4v0.9h3.3V111.8z M27.8,108.7v1h2.5v-1H27.8z M27.8,110.2v1h2.5v-1H27.8z M33.6,108.7H31v1h2.6
		V108.7z M33.6,111.3v-1H31v1H33.6z"/>
	<path class="st4" d="M38.8,112.3c0,0.1-0.1,0.1-0.2,0.1c-0.4,0.7-1.2,1.6-1.9,2.1c-0.1-0.1-0.4-0.3-0.5-0.4
		c0.7-0.5,1.5-1.4,1.9-2.1L38.8,112.3z M45.1,106.8v0.6h-8.9v-0.6h4.1v-1.2h0.9c0,0.1-0.1,0.1-0.2,0.1v1L45.1,106.8L45.1,106.8z
		 M43.9,111.4H41v2.7c0,0.8-0.4,0.8-2.2,0.8c0-0.2-0.1-0.5-0.2-0.6c0.4,0,0.8,0,1.1,0c0.6,0,0.7,0,0.7-0.2v-2.7h-2.8v-3H44
		L43.9,111.4L43.9,111.4z M38.2,109.1v1.8h5v-1.8H38.2z M44.5,114.6c-0.4-0.6-1.2-1.5-1.9-2.2l0.6-0.3c0.7,0.7,1.5,1.6,1.9,2.2
		L44.5,114.6z"/>
	<path class="st4" d="M60.3,106.6v0.7h-2.7l-0.3,2.1c0.2,0,0.3,0,0.6,0c1.3,0,2.5,0.8,2.5,2.3s-1.1,2.5-2.6,2.5
		c-0.7,0-1.4-0.2-1.7-0.4l0.2-0.6c0.3,0.2,0.8,0.4,1.5,0.4c0.9,0,1.7-0.7,1.7-1.8c0-1-0.7-1.7-2.1-1.7c-0.4,0-0.7,0-1,0.1l0.5-3.5
		L60.3,106.6L60.3,106.6z"/>
	<path class="st4" d="M65.8,106.6v0.7h-2.7l-0.3,2.1c0.2,0,0.3,0,0.6,0c1.3,0,2.5,0.8,2.5,2.3s-1.1,2.5-2.6,2.5
		c-0.7,0-1.4-0.2-1.7-0.4l0.2-0.6c0.3,0.2,0.8,0.4,1.5,0.4c0.9,0,1.7-0.7,1.7-1.8c0-1-0.7-1.7-2.1-1.7c-0.4,0-0.7,0-1,0.1l0.5-3.5
		L65.8,106.6L65.8,106.6z"/>
	<path class="st4" d="M70.8,106.1c0,0.1-0.1,0.1-0.2,0.1c-0.7,1.6-1.9,3.1-3.1,4c-0.1-0.1-0.4-0.4-0.5-0.5c1.2-0.8,2.4-2.3,3-3.9
		L70.8,106.1z M74.3,109.5h0.2h0.4c0,0.1,0,0.2,0,0.2c-0.2,3.2-0.3,4.4-0.7,4.8c-0.3,0.3-0.6,0.3-1.2,0.3c-0.3,0-0.8,0-1.2,0
		c0-0.2-0.1-0.5-0.2-0.7c0.7,0.1,1.3,0.1,1.6,0.1c0.2,0,0.3,0,0.4-0.1c0.3-0.3,0.4-1.3,0.5-4h-2.7c-0.3,1.9-0.8,3.9-3.5,4.8
		c-0.1-0.2-0.3-0.4-0.4-0.6c2.4-0.8,3-2.5,3.2-4.2h-2.1v-0.7L74.3,109.5L74.3,109.5z M73.4,105.8c0.7,1.4,2,2.9,3.1,3.7
		c-0.2,0.1-0.4,0.4-0.6,0.6c-1.1-0.9-2.4-2.5-3.2-4L73.4,105.8z"/>
</g>
</svg>
