<?xml version="1.0" encoding="utf-8"?>
<!-- Generator: Adobe Illustrator 16.0.0, SVG Export Plug-In . SVG Version: 6.00 Build 0)  -->
<!DOCTYPE svg PUBLIC "-//W3C//DTD SVG 1.1//EN" "http://www.w3.org/Graphics/SVG/1.1/DTD/svg11.dtd">
<svg version="1.1" id="レイヤー_1" xmlns="http://www.w3.org/2000/svg" xmlns:xlink="http://www.w3.org/1999/xlink" x="0px"
	 y="0px" width="118.547px" height="49.935px" viewBox="0 0 118.547 49.935" enable-background="new 0 0 118.547 49.935"
	 xml:space="preserve">
<g>
	<ellipse fill="#89C13F" cx="57.273" cy="26.468" rx="57.273" ry="23.467"/>
	<path fill="#89C13F" d="M7.595,49.137c4.703-4.122,7.125-10.078,4.325-11.208l19.055,6.724c-3.271-1.033-9.751,6.03-23.112,5.217
		C7.529,49.854,7.351,49.367,7.595,49.137z"/>
</g>
<g>
	<ellipse fill="#F0FFE5" cx="61.273" cy="23.468" rx="57.273" ry="23.467"/>
	<path fill="#F0FFE5" d="M11.595,46.137c4.703-4.122,7.125-10.078,4.325-11.208l19.055,6.724c-3.271-1.033-9.751,6.03-23.112,5.217
		C11.529,46.854,11.351,46.367,11.595,46.137z"/>
</g>
<g>
	<g>
		<path fill="#4D4D4D" d="M22.166,19.566l0.616,0.364c-0.042,0.056-0.098,0.112-0.182,0.126c-0.435,1.135-1.079,2.241-1.808,3.236
			c0.574,0.434,1.709,1.373,2.031,1.625l-0.546,0.84c-0.322-0.378-1.051-1.05-1.625-1.569v5.771h-0.925v-5.379
			c-0.546,0.588-1.12,1.121-1.694,1.541c-0.099-0.252-0.351-0.658-0.505-0.826c1.513-1.051,3.11-2.9,3.979-4.819h-3.754v-0.869
			h1.975v-2.661l1.191,0.07c-0.015,0.098-0.085,0.168-0.267,0.196v2.395h1.345L22.166,19.566z M22.642,17.437h7.928v0.826h-7.928
			V17.437z M22.95,29.959V23.74h7.2v6.164h-0.925v-0.617h-5.379v0.672H22.95z M23.777,19.286h5.574v3.432h-5.574V19.286z
			 M26.06,24.567h-2.214v1.541h2.214V24.567z M23.846,28.475h2.214v-1.569h-2.214V28.475z M28.469,21.947v-1.891h-3.838v1.891
			H28.469z M29.225,26.107v-1.541h-2.283v1.541H29.225z M26.942,28.475h2.283v-1.569h-2.283V28.475z"/>
		<path fill="#4D4D4D" d="M38.168,17.647c-0.042,0.056-0.14,0.084-0.266,0.056c-0.589,0.308-1.387,0.588-2.283,0.826v2.704h2.773
			v0.896H35.62v1.064c0.644,0.49,2.269,1.877,2.689,2.255l-0.547,0.771c-0.42-0.462-1.4-1.401-2.143-2.059v5.799h-0.925V23.6
			c-0.729,1.667-1.709,3.348-2.661,4.342c-0.112-0.28-0.351-0.658-0.532-0.882c1.092-1.093,2.311-3.109,2.983-4.931h-2.76v-0.896
			h2.97v-2.465c-0.91,0.21-1.863,0.392-2.76,0.546c-0.056-0.21-0.196-0.519-0.308-0.714c2.045-0.364,4.454-0.953,5.659-1.667
			L38.168,17.647z M39.486,18.656l1.19,0.07c-0.015,0.098-0.084,0.168-0.267,0.196v7.564h-0.924V18.656z M43.001,17.213l1.204,0.07
			c-0.014,0.112-0.084,0.168-0.266,0.196v11.192c0,0.672-0.196,0.967-0.616,1.121c-0.448,0.168-1.219,0.182-2.521,0.182
			c-0.057-0.252-0.21-0.687-0.364-0.953c0.519,0.014,0.994,0.014,1.387,0.014c1.12,0,1.177,0,1.177-0.364V17.213z"/>
		<path fill="#4D4D4D" d="M58.388,18.6H47.854v3.278c0,2.339-0.182,5.729-1.513,8.054c-0.168-0.154-0.574-0.406-0.813-0.49
			c1.289-2.227,1.401-5.337,1.401-7.578v-4.132h11.458V18.6z M58.556,26.64v0.784h-4.931v1.541c0,0.504-0.112,0.742-0.519,0.882
			c-0.406,0.112-1.106,0.126-2.241,0.126c-0.042-0.238-0.196-0.56-0.322-0.798c0.519,0.014,1.009,0.028,1.359,0.028
			c0.756,0,0.798,0,0.798-0.252v-1.527h-4.776V26.64h4.776v-0.869l0.631,0.042c0.603-0.238,1.219-0.546,1.736-0.854h-5.883v-0.7
			h6.92l0.154-0.056l0.686,0.462c-0.042,0.056-0.14,0.098-0.224,0.112c-0.771,0.546-2.003,1.177-3.096,1.597v0.267H58.556z
			 M56.833,23.39h-7.326v-3.894h7.326V23.39z M50.404,20.168v0.938h5.505v-0.938H50.404z M50.404,21.751v0.966h5.505v-0.966H50.404z
			"/>
		<path fill="#4D4D4D" d="M66.589,28.573h5.883v0.925H59.809v-0.925h5.813v-3.754H61.35v-0.911h4.272v-3.235h-3.432
			c-0.49,1.008-1.064,1.919-1.682,2.591c-0.182-0.168-0.546-0.435-0.784-0.574c1.148-1.219,2.144-3.348,2.718-5.491l1.219,0.336
			c-0.042,0.098-0.141,0.154-0.322,0.154c-0.21,0.687-0.448,1.387-0.729,2.059h3.012v-2.801l1.261,0.07
			c-0.015,0.098-0.099,0.168-0.294,0.196v2.535h5.225v0.925h-5.225v3.235h4.706v0.911h-4.706V28.573z"/>
		<path fill="#4D4D4D" d="M79.006,23.908c-0.015,0.098-0.112,0.168-0.28,0.196c-0.294,2.899-0.925,4.875-4.511,5.869
			c-0.098-0.224-0.35-0.588-0.546-0.784c3.348-0.854,3.908-2.578,4.118-5.393L79.006,23.908z M85.351,24.272
			c-0.224-0.322-0.532-0.7-0.896-1.092c-3.487,0.168-7.199,0.322-9.497,0.392c-0.027,0.112-0.111,0.182-0.224,0.196l-0.351-1.149
			c0.616-0.014,1.359-0.014,2.186-0.042c0.519-0.84,1.106-2.017,1.499-2.983h-4.133v-0.896h5.674v-1.765l1.232,0.084
			c-0.015,0.098-0.084,0.168-0.28,0.196v1.485h5.771v0.896h-6.976l0.042,0.014c-0.042,0.084-0.153,0.126-0.322,0.126
			c-0.363,0.826-0.952,1.933-1.513,2.829c1.863-0.042,4.007-0.112,6.107-0.182c-0.672-0.658-1.442-1.316-2.157-1.863l0.757-0.476
			c1.429,1.064,3.109,2.591,3.908,3.684L85.351,24.272z M82.382,28.447c0,0.435,0.111,0.519,0.686,0.519h1.934
			c0.588,0,0.672-0.351,0.742-2.507c0.21,0.182,0.616,0.336,0.868,0.406c-0.111,2.396-0.364,2.998-1.54,2.998H82.97
			c-1.205,0-1.526-0.309-1.526-1.429v-4.735l1.218,0.07c-0.014,0.112-0.084,0.168-0.279,0.196V28.447z"/>
		<path fill="#4D4D4D" d="M100.388,26.206h-5.225c1.008,1.597,2.885,2.563,5.393,2.928c-0.196,0.21-0.448,0.588-0.574,0.84
			c-2.773-0.518-4.749-1.709-5.813-3.768h-0.21c-0.714,1.429-2.283,2.76-5.617,3.768c-0.111-0.21-0.378-0.574-0.574-0.771
			c2.928-0.826,4.385-1.877,5.113-2.998h-5.001v-0.826H93.3c0.154-0.435,0.224-0.869,0.266-1.289h-3.964v-0.813h3.992v-1.205h-4.37
			v-0.798h4.37v-1.401l1.219,0.084c-0.014,0.098-0.084,0.168-0.266,0.196v1.121h4.468v-1.779h-9.833v1.849h-0.925v-2.689h5.337
			v-1.723l1.247,0.084c-0.015,0.098-0.099,0.168-0.28,0.182v1.457h5.421v2.689h-0.896v0.728h-4.538v1.205h4.216v0.813h-4.244
			c-0.042,0.435-0.099,0.854-0.238,1.289h6.107V26.206z"/>
		<path fill="#4D4D4D" d="M107.23,28.027c0-0.504,0.393-0.911,0.869-0.911c0.476,0,0.868,0.406,0.868,0.911
			c0,0.504-0.393,0.91-0.868,0.91C107.594,28.937,107.23,28.503,107.23,28.027z M107.651,25.771l-0.211-7.676h1.345l-0.21,7.676
			H107.651z"/>
	</g>
</g>
</svg>
