<?xml version="1.0" encoding="utf-8"?>
<!-- Generator: Adobe Illustrator 16.0.0, SVG Export Plug-In . SVG Version: 6.00 Build 0)  -->
<!DOCTYPE svg PUBLIC "-//W3C//DTD SVG 1.1//EN" "http://www.w3.org/Graphics/SVG/1.1/DTD/svg11.dtd">
<svg version="1.1" id="レイヤー_1" xmlns="http://www.w3.org/2000/svg" xmlns:xlink="http://www.w3.org/1999/xlink" x="0px"
	 y="0px" width="118.547px" height="49.935px" viewBox="0 0 118.547 49.935" enable-background="new 0 0 118.547 49.935"
	 xml:space="preserve">
<g>
	<ellipse fill="#89C13F" cx="57.273" cy="26.468" rx="57.273" ry="23.467"/>
	<path fill="#89C13F" d="M7.595,49.137c4.703-4.122,7.125-10.078,4.325-11.208l19.055,6.724c-3.271-1.033-9.751,6.03-23.112,5.217
		C7.529,49.854,7.351,49.367,7.595,49.137z"/>
</g>
<ellipse fill="#F0FFE5" cx="61.273" cy="23.468" rx="57.273" ry="23.467"/>
<path fill="#F0FFE5" d="M11.595,46.137c4.703-4.122,7.125-10.078,4.325-11.208l19.055,6.724c-3.271-1.033-9.751,6.03-23.112,5.217
	C11.529,46.854,11.351,46.367,11.595,46.137z"/>
<g>
	<g>
		<path fill="#4D4D4D" d="M23.481,28.237v0.911H12.317v0.714h-0.938V17.633h11.794v0.911H12.317v9.693H23.481z M22.893,22.984v0.84
			h-4.328c0.715,1.541,2.199,2.507,4.301,2.885c-0.211,0.182-0.463,0.546-0.575,0.799c-1.988-0.448-3.417-1.401-4.271-2.9
			c-0.49,1.121-1.653,2.199-4.272,2.998c-0.112-0.21-0.364-0.546-0.561-0.714c2.913-0.812,3.852-1.961,4.146-3.067h-4.175v-0.84
			h4.286v-1.975h-2.269c-0.351,0.574-0.742,1.079-1.148,1.471c-0.183-0.154-0.505-0.336-0.729-0.462
			c0.798-0.714,1.513-1.919,1.904-3.166l1.079,0.308c-0.028,0.084-0.112,0.126-0.28,0.126c-0.112,0.294-0.238,0.603-0.378,0.896
			h6.472v0.827h-3.727v1.975H22.893z"/>
		<path fill="#4D4D4D" d="M25.995,22.844v1.415h3.516v4.23h-3.516v0.938h-0.869V18.964h1.177c0.252-0.644,0.519-1.513,0.658-2.143
			l1.191,0.238c-0.028,0.112-0.126,0.154-0.295,0.168c-0.168,0.49-0.42,1.163-0.686,1.737h2.213v3.88H25.995z M28.53,19.791h-2.535
			v2.227h2.535V19.791z M28.643,25.099h-2.647v2.563h2.647V25.099z M37.607,18.474h-3.418v2.213h2.886v6.107
			c0,0.98-0.463,1.008-1.976,1.008c-0.042-0.238-0.168-0.588-0.28-0.826c0.28,0,0.532,0.014,0.743,0.014c0.56,0,0.63,0,0.63-0.21
			v-5.225h-2.003v8.292h-0.896v-8.292h-1.892v6.346h-0.868v-7.214h2.76v-2.213h-3.376v-0.868h7.69V18.474z"/>
		<path fill="#4D4D4D" d="M45.906,19.384c-0.057,0.126-0.168,0.224-0.351,0.224c-0.504,4.356-1.961,8.152-4.286,8.152
			c-1.177,0-2.241-1.177-2.241-3.39c0-3.362,2.619-6.178,6.304-6.178c4.048,0,5.799,2.563,5.799,5.295
			c0,3.334-1.933,4.945-5.323,5.729c-0.126-0.225-0.364-0.603-0.588-0.854c3.222-0.617,4.875-2.186,4.875-4.833
			c0-2.311-1.485-4.412-4.763-4.412c-0.141,0-0.295,0.014-0.421,0.028L45.906,19.384z M44.562,19.202
			c-2.83,0.35-4.581,2.689-4.581,5.141c0,1.499,0.645,2.438,1.317,2.438C42.992,26.78,44.211,23.04,44.562,19.202z"/>
		<path fill="#4D4D4D" d="M58.842,28.447c1.05,0.28,2.185,0.546,3.067,0.714l-0.351,0.98c-1.33-0.35-2.731-0.785-3.838-1.163
			c-0.224-0.084-0.406-0.154-0.603-0.154c-2.437-0.07-4.454-1.933-4.454-5.407c0-3.516,1.961-5.603,4.665-5.603
			c2.689,0,4.482,2.157,4.482,5.407c0,2.83-1.219,4.566-2.97,5.169V28.447z M53.883,23.391c0,2.283,1.232,4.468,3.334,4.468
			c2.199,0,3.376-2.143,3.376-4.581c0-2.157-1.037-4.497-3.306-4.497C54.919,18.782,53.883,21.135,53.883,23.391z"/>
		<path fill="#4D4D4D" d="M72.102,23.222c0,3.754-2.102,5.603-4.623,5.603c-2.647,0-4.524-2.087-4.524-5.421
			c0-3.474,1.976-5.589,4.65-5.589C70.336,17.815,72.102,20,72.102,23.222z M64.173,23.376c0,2.269,1.177,4.482,3.348,4.482
			c2.199,0,3.362-2.143,3.362-4.581c0-2.143-1.051-4.497-3.334-4.497C65.195,18.782,64.173,21.107,64.173,23.376z"/>
		<path fill="#4D4D4D" d="M79.436,28.657H73.86V17.983h1.163v9.679h4.412V28.657z"/>
		<path fill="#4D4D4D" d="M92.5,19.3v9.231c0,0.658-0.154,0.98-0.631,1.148c-0.49,0.154-1.372,0.168-2.675,0.168
			c-0.057-0.28-0.196-0.714-0.351-0.98c0.547,0.014,1.051,0.028,1.471,0.028s0.742-0.014,0.883-0.014c0.28,0,0.364-0.084,0.364-0.35
			v-8.307h-9.539v9.623h-0.938V19.3h3.88c0.378-0.756,0.756-1.779,0.98-2.507l1.316,0.294c-0.042,0.098-0.14,0.154-0.308,0.154
			c-0.238,0.602-0.589,1.387-0.938,2.059H92.5z M89.544,26.864h-4.692v1.037h-0.868V22.2h5.561V26.864z M88.662,23.054h-3.811v2.956
			h3.811V23.054z"/>
		<path fill="#4D4D4D" d="M100.771,28.223h6.359v0.952H94.397v-0.952h5.393V17.059l1.274,0.084
			c-0.014,0.098-0.098,0.168-0.294,0.196v4.146h5.379v0.953h-5.379V28.223z"/>
		<path fill="#4D4D4D" d="M113.874,27.915c0-0.504,0.393-0.911,0.869-0.911c0.476,0,0.868,0.406,0.868,0.911
			c0,0.504-0.393,0.91-0.868,0.91C114.238,28.825,113.874,28.391,113.874,27.915z M114.295,25.66l-0.211-7.676h1.345l-0.21,7.676
			H114.295z"/>
	</g>
</g>
</svg>
