<?xml version="1.0" encoding="utf-8"?>
<!-- Generator: Adobe Illustrator 16.0.0, SVG Export Plug-In . SVG Version: 6.00 Build 0)  -->
<!DOCTYPE svg PUBLIC "-//W3C//DTD SVG 1.1//EN" "http://www.w3.org/Graphics/SVG/1.1/DTD/svg11.dtd">
<svg version="1.1" id="レイヤー_1" xmlns="http://www.w3.org/2000/svg" xmlns:xlink="http://www.w3.org/1999/xlink" x="0px"
	 y="0px" width="122.617px" height="49.937px" viewBox="0 0 122.617 49.937" enable-background="new 0 0 122.617 49.937"
	 xml:space="preserve">
<ellipse fill="#89C13F" cx="59.769" cy="26.47" rx="59.769" ry="23.467"/>
<path fill="#89C13F" d="M5.867,49.14c4.703-4.121,7.125-10.08,4.325-11.21l19.055,6.724c-3.271-1.031-9.751,6.03-23.112,5.217
	C5.802,49.856,5.623,49.367,5.867,49.14z"/>
<ellipse fill="#F0FFE5" cx="62.849" cy="23.469" rx="59.769" ry="23.467"/>
<path fill="#F0FFE5" d="M9.867,46.14c4.703-4.121,7.125-10.08,4.325-11.21l19.055,6.724c-3.271-1.031-9.751,6.03-23.112,5.217
	C9.802,46.856,9.623,46.367,9.867,46.14z"/>
<g>
	<g>
		<path fill="#4D4D4D" d="M23.825,21.92c-0.532,0.883-1.121,1.667-1.709,2.339c-0.099-0.224-0.336-0.658-0.49-0.882
			c1.345-1.457,2.689-3.88,3.502-6.303l1.12,0.378c-0.056,0.098-0.154,0.14-0.322,0.126c-0.364,0.98-0.798,1.961-1.288,2.9
			l0.378,0.098c-0.028,0.084-0.098,0.154-0.28,0.168v9.287h-0.91V21.92z M34.821,21.542h-3.601c0.925,2.311,2.451,4.65,3.95,5.855
			c-0.224,0.168-0.546,0.504-0.714,0.756c-1.429-1.303-2.872-3.6-3.838-5.925v7.774H29.68v-7.579
			c-0.98,2.339-2.409,4.51-3.865,5.786c-0.169-0.225-0.477-0.561-0.687-0.729c1.555-1.205,3.096-3.572,4.006-5.939H25.59v-0.911
			h4.09v-3.474l1.205,0.084c-0.014,0.098-0.084,0.168-0.266,0.196v3.194h4.202V21.542z"/>
		<path fill="#4D4D4D" d="M39.758,17.97v9.315h-2.549v1.134h-0.785V17.97H39.758z M38.96,18.824h-1.751v3.306h1.751V18.824z
			 M37.209,26.431h1.751v-3.46h-1.751V26.431z M44.324,27.173h-2.731v2.76h-0.882V17.606h3.628v4.132h-2.746v1.821h2.493v0.813
			h-2.493v1.989h2.731V27.173z M43.47,18.418h-1.877v2.507h1.877V18.418z M48.148,23.153l0.561,0.196
			c-0.014,0.07-0.057,0.112-0.084,0.168c-0.309,1.597-0.854,2.9-1.597,3.936c0.574,0.798,1.274,1.429,2.087,1.821
			c-0.196,0.168-0.463,0.49-0.589,0.714c-0.798-0.42-1.471-1.064-2.045-1.849c-0.714,0.813-1.555,1.414-2.479,1.863
			c-0.111-0.225-0.35-0.547-0.546-0.729c0.952-0.393,1.821-1.037,2.535-1.905c-0.532-0.938-0.938-2.031-1.219-3.194l0.743-0.168
			c0.224,0.938,0.56,1.835,0.994,2.633c0.477-0.756,0.854-1.653,1.106-2.661h-3.138v-0.799h3.516L48.148,23.153z M48.484,17.606
			v4.132h-3.586v-0.813h2.704v-2.507h-2.704v-0.813H48.484z"/>
		<path fill="#4D4D4D" d="M58.576,20.043c-1.19,0.42-2.773,0.687-4.3,0.799c-0.589,3.208-1.442,6.401-2.563,8.755l-1.009-0.379
			c1.148-2.255,1.989-5.154,2.536-8.334c-0.28,0.014-2.157,0.028-2.578,0.014l-0.014-0.952c0.224,0.014,0.519,0.014,0.841,0.014
			c0.126,0,1.526,0,1.891-0.014c0.14-0.896,0.28-1.877,0.364-2.732l1.442,0.14c-0.014,0.154-0.21,0.266-0.406,0.28
			c-0.084,0.616-0.224,1.373-0.35,2.227c1.372-0.126,2.759-0.364,3.922-0.784L58.576,20.043z M62.303,29.372
			c-0.42,0.014-0.854,0.028-1.289,0.028c-1.316,0-2.563-0.099-3.319-0.309c-0.995-0.28-1.569-1.009-1.555-1.933
			c0.014-0.617,0.28-1.317,0.868-2.031l0.841,0.364c-0.49,0.574-0.729,1.12-0.729,1.555c0,1.106,1.064,1.387,3.613,1.387
			c0.519,0,1.051-0.015,1.569-0.056V29.372z M56.84,22.621c1.442-0.462,3.432-0.756,5.085-0.714v0.952
			c-1.583-0.042-3.418,0.182-4.847,0.63L56.84,22.621z"/>
		<path fill="#4D4D4D" d="M65.404,22.508c0.253-0.056,0.771-0.196,1.247-0.336c1.737-0.519,3.769-0.995,5.071-0.995
			c1.891,0,3.586,1.009,3.586,3.292c0,3.082-3.054,4.216-6.794,4.51c-0.057-0.209-0.196-0.686-0.28-0.854
			c3.292-0.238,6.079-1.191,6.079-3.601c0-1.751-1.247-2.507-2.731-2.493c-1.12,0.014-2.928,0.42-4.692,1.022
			c-0.322,0.112-0.673,0.238-0.896,0.308c-0.028,0.112-0.126,0.21-0.225,0.238L65.404,22.508z"/>
		<path fill="#4D4D4D" d="M78.06,27.411c0.827-0.532,2.284-1.639,3.418-2.675l0.49,0.756c-0.924,0.854-2.255,1.946-2.997,2.521
			c0.014,0.153-0.042,0.294-0.154,0.378L78.06,27.411z M81.968,17.382c1.359,0.868,3.475,1.555,5.268,1.695l-0.196,0.911
			c-0.21-0.028-0.406-0.042-0.589-0.042c-0.7,0-1.246,0.252-2.115,1.05l-0.826-0.35c0.378-0.392,0.967-0.854,1.415-1.037
			c-0.994-0.224-2.283-0.7-3.46-1.457L81.968,17.382z M83.803,21.878c-0.237,0.406-0.378,0.743-0.378,1.065
			c0,0.574,0.406,1.064,1.345,1.708c1.135,0.771,1.681,1.723,1.681,2.732c0,1.288-0.994,2.143-2.283,2.143
			c-0.7,0-1.484-0.295-2.703-0.938c0.112-0.224,0.196-0.519,0.267-0.813c1.176,0.616,1.877,0.826,2.339,0.826
			c0.883,0,1.358-0.519,1.358-1.247c0-0.63-0.462-1.47-1.471-2.17c-1.022-0.701-1.513-1.373-1.513-2.157
			c0-0.448,0.154-0.925,0.477-1.471L83.803,21.878z M86.969,23.545c1.611,0.63,3.138,1.975,3.782,3.866l-0.91,0.504
			c-0.589-1.709-1.962-3.095-3.391-3.642L86.969,23.545z M89.406,16.905c0.868,0,1.568,0.701,1.568,1.569
			c0,0.869-0.7,1.569-1.568,1.569s-1.569-0.7-1.569-1.569C87.837,17.578,88.565,16.905,89.406,16.905z M90.471,18.474
			c0-0.588-0.477-1.064-1.064-1.064c-0.589,0-1.064,0.476-1.064,1.064s0.476,1.079,1.064,1.079
			C90.022,19.553,90.471,19.035,90.471,18.474z"/>
		<path fill="#4D4D4D" d="M94.876,25.24c-0.267-0.756-0.393-1.849-0.406-2.633c0-1.316,0.14-2.843,0.476-4.623l1.401,0.238
			c-0.057,0.182-0.225,0.224-0.406,0.238c-0.28,1.163-0.477,2.941-0.477,4.076c0,0.308,0.014,0.56,0.042,0.756
			c0.28-0.687,0.799-1.639,1.093-2.171c0.126,0.182,0.406,0.477,0.546,0.617c-1.036,1.863-1.345,2.395-1.345,2.983
			c0,0.112,0.015,0.224,0.042,0.35L94.876,25.24z M102.384,17.62c-0.015,0.168-0.126,0.238-0.364,0.308
			c0.098,1.219,0.238,3.25,0.238,4.861c-0.015,2.704-0.995,5.14-5.211,6.892c-0.154-0.225-0.49-0.603-0.7-0.813
			c3.823-1.457,4.847-3.769,4.847-6.065c0-1.723-0.169-3.754-0.322-5.253L102.384,17.62z"/>
		<path fill="#4D4D4D" d="M111.551,28.056c0-0.504,0.393-0.91,0.869-0.91c0.476,0,0.868,0.406,0.868,0.91s-0.393,0.91-0.868,0.91
			C111.915,28.966,111.551,28.532,111.551,28.056z M111.972,25.8l-0.211-7.676h1.345l-0.21,7.676H111.972z"/>
	</g>
</g>
</svg>
