<?xml version="1.0" encoding="utf-8"?>
<!-- Generator: Adobe Illustrator 16.0.0, SVG Export Plug-In . SVG Version: 6.00 Build 0)  -->
<!DOCTYPE svg PUBLIC "-//W3C//DTD SVG 1.1//EN" "http://www.w3.org/Graphics/SVG/1.1/DTD/svg11.dtd">
<svg version="1.1" id="レイヤー_1" xmlns="http://www.w3.org/2000/svg" xmlns:xlink="http://www.w3.org/1999/xlink" x="0px"
	 y="0px" width="122.617px" height="49.937px" viewBox="0 0 122.617 49.937" enable-background="new 0 0 122.617 49.937"
	 xml:space="preserve">
<ellipse fill="#89C13F" cx="59.769" cy="26.47" rx="59.769" ry="23.467"/>
<path fill="#89C13F" d="M4.54,49.14c4.703-4.121,7.125-10.08,4.325-11.21l19.055,6.724c-3.271-1.031-9.751,6.03-23.112,5.217
	C4.475,49.856,4.296,49.367,4.54,49.14z"/>
<ellipse fill="#F0FFE5" cx="62.849" cy="23.469" rx="59.769" ry="23.467"/>
<path fill="#F0FFE5" d="M8.54,46.14c4.703-4.121,7.125-10.08,4.325-11.21l19.055,6.724c-3.271-1.031-9.751,6.03-23.112,5.217
	C8.475,46.856,8.296,46.367,8.54,46.14z"/>
<g>
	<g>
		<path fill="#4D4D4D" d="M22.133,28.749V19.35h-0.027l-1.724,0.995l-0.279-0.869l2.171-1.219h0.994v10.492H22.133z"/>
		<path fill="#4D4D4D" d="M27.088,18.257h6.149V19l-4.385,9.749h-1.19l4.384-9.497v-0.028h-4.958V18.257z"/>
		<path fill="#4D4D4D" d="M38.906,17.851v9.273h-3.081v1.135h-0.896V17.851H38.906z M38.024,18.72h-2.199v3.292h2.199V18.72z
			 M35.825,26.256h2.199v-3.39h-2.199V26.256z M43.739,21.437h3.684v0.854h-8.264v-0.854h3.655v-1.919H39.76v-0.84h3.054V16.94
			l1.205,0.07c-0.014,0.098-0.099,0.168-0.28,0.196v1.471h3.124v0.84h-3.124V21.437z M45.966,22.684
			c-0.015,0.098-0.084,0.168-0.267,0.182v1.205h1.695v0.841H45.7v3.922c0,0.574-0.126,0.84-0.561,0.98
			c-0.42,0.141-1.134,0.154-2.297,0.154c-0.042-0.252-0.183-0.631-0.322-0.883c0.532,0.014,1.036,0.028,1.4,0.028
			c0.785,0,0.854,0,0.854-0.294v-3.908h-5.561V24.07h5.561v-1.457L45.966,22.684z M41.974,28.497
			c-0.322-0.701-1.107-1.766-1.835-2.521l0.756-0.448c0.742,0.729,1.555,1.765,1.892,2.466L41.974,28.497z"/>
		<path fill="#4D4D4D" d="M52.318,23.076c1.232,0.21,2.283,1.205,2.283,2.717c0,1.667-1.205,3.124-3.558,3.124
			c-1.051,0-2.003-0.336-2.479-0.672l0.35-0.896c0.379,0.252,1.219,0.63,2.144,0.63c1.765,0,2.339-1.232,2.339-2.199
			c0-1.541-1.303-2.241-2.675-2.241h-0.687V22.67h0.687c1.009,0,2.311-0.63,2.311-1.947c0-0.911-0.546-1.695-1.807-1.695
			c-0.771,0-1.499,0.378-1.919,0.687l-0.351-0.854c0.505-0.393,1.485-0.785,2.494-0.785c1.919,0,2.773,1.219,2.773,2.479
			c0,1.079-0.687,2.045-1.905,2.479V23.076z"/>
		<path fill="#4D4D4D" d="M56.194,23.538c0-3.67,1.429-5.449,3.39-5.449c1.989,0,3.208,1.877,3.208,5.309
			c0,3.642-1.275,5.519-3.362,5.519C57.524,28.917,56.194,27.04,56.194,23.538z M61.615,23.454c0-2.619-0.631-4.426-2.102-4.426
			c-1.246,0-2.129,1.667-2.129,4.426c0,2.76,0.771,4.511,2.087,4.511C61.026,27.965,61.615,25.947,61.615,23.454z"/>
		<path fill="#4D4D4D" d="M69.104,17.641c-0.055,0.098-0.152,0.14-0.336,0.126c-0.98,2.213-2.605,4.286-4.385,5.547
			c-0.168-0.182-0.504-0.504-0.742-0.672c1.738-1.177,3.348-3.208,4.26-5.407L69.104,17.641z M74.008,22.319l0.223-0.014
			l0.533,0.056c0,0.098-0.014,0.225-0.014,0.336c-0.225,4.524-0.436,6.149-0.926,6.682c-0.391,0.447-0.813,0.49-1.666,0.49
			c-0.477,0-1.078-0.015-1.682-0.057c-0.014-0.28-0.139-0.672-0.309-0.938c0.953,0.084,1.863,0.099,2.199,0.099
			c0.295,0,0.463-0.028,0.604-0.183c0.363-0.364,0.588-1.821,0.77-5.547h-3.852c-0.379,2.689-1.162,5.407-4.916,6.751
			c-0.127-0.237-0.379-0.602-0.604-0.798c3.391-1.135,4.189-3.488,4.525-5.953h-3.012v-0.925H74.008z M72.773,17.207
			c0.926,1.933,2.76,4.104,4.314,5.168c-0.252,0.196-0.602,0.574-0.783,0.84c-1.57-1.247-3.377-3.544-4.428-5.645L72.773,17.207z"/>
		<path fill="#4D4D4D" d="M78.973,19.098c0.867,0.056,2.031,0.056,2.982,0.056c0.631,0,1.346-0.014,1.934-0.028
			c-0.014-0.672-0.027-1.457-0.027-1.947l1.414,0.07c-0.014,0.168-0.141,0.252-0.379,0.294c-0.014,0.224,0,1.303,0,1.541
			c1.641-0.084,3.264-0.224,4.65-0.546l0.127,0.924c-1.373,0.308-2.998,0.448-4.777,0.532c0.016,0.841,0.029,1.709,0.057,2.578
			c1.359-0.084,2.816-0.266,3.951-0.546l0.111,0.911c-1.178,0.252-2.648,0.42-4.049,0.49l0.113,2.339
			c1.287,0.42,2.66,1.148,4.117,2.185l-0.615,0.855c-1.262-0.995-2.451-1.668-3.475-2.06c0,0.224,0.014,0.476,0.014,0.658
			c-0.014,1.331-0.813,2.101-2.508,2.101c-1.777,0-3.08-0.729-3.08-2.045c0-1.344,1.525-2.087,3.096-2.087
			c0.461,0,0.951,0.042,1.471,0.168c-0.016-0.603-0.043-1.331-0.057-2.087c-0.449,0.014-0.953,0.028-1.359,0.028
			c-2.395,0-3.066-0.378-3.066-1.191c0-0.532,0.406-0.966,1.303-1.541l0.672,0.435c-0.631,0.35-0.967,0.658-0.967,0.938
			c0,0.42,0.658,0.504,2.438,0.504c0.309,0,0.631,0,0.938-0.014l-0.084-2.591c-0.602,0.028-1.303,0.028-1.932,0.028
			c-0.896,0-2.172,0-3.012-0.028V19.098z M84.154,26.396c-0.561-0.154-1.078-0.224-1.568-0.224c-1.064,0-2.143,0.435-2.143,1.274
			c0,0.826,0.98,1.232,2.199,1.232c1.105,0,1.525-0.49,1.525-1.471L84.154,26.396z"/>
		<path fill="#4D4D4D" d="M92.496,18.818c1.051-0.042,9.68-0.659,11.5-0.672l0.014,1.05c-0.182-0.014-0.35-0.014-0.518-0.014
			c-0.813,0-1.5,0.14-2.396,0.715c-2.1,1.26-4.131,3.516-4.131,5.323c0,1.961,1.373,3.124,4.846,3.572l-0.463,0.98
			c-3.977-0.574-5.463-2.06-5.463-4.552c0-1.975,1.947-4.371,4.512-5.981c-1.541,0.112-5.674,0.42-7.48,0.588
			c-0.043,0.112-0.195,0.21-0.309,0.224L92.496,18.818z M101.572,21.577c0.672,0.504,1.471,1.331,1.906,1.933l-0.533,0.434
			c-0.393-0.616-1.246-1.485-1.85-1.947L101.572,21.577z M103.086,20.345c0.686,0.504,1.498,1.316,1.904,1.933l-0.531,0.42
			c-0.379-0.56-1.191-1.429-1.85-1.933L103.086,20.345z"/>
		<path fill="#4D4D4D" d="M111.469,28.007c0-0.504,0.393-0.91,0.869-0.91c0.475,0,0.867,0.406,0.867,0.91s-0.393,0.91-0.867,0.91
			C111.832,28.917,111.469,28.483,111.469,28.007z M111.889,25.751l-0.211-7.676h1.346l-0.211,7.676H111.889z"/>
	</g>
</g>
</svg>
