<?xml version="1.0" encoding="utf-8"?>
<!-- Generator: Adobe Illustrator 16.0.0, SVG Export Plug-In . SVG Version: 6.00 Build 0)  -->
<!DOCTYPE svg PUBLIC "-//W3C//DTD SVG 1.1//EN" "http://www.w3.org/Graphics/SVG/1.1/DTD/svg11.dtd">
<svg version="1.1" id="レイヤー_1" xmlns="http://www.w3.org/2000/svg" xmlns:xlink="http://www.w3.org/1999/xlink" x="0px"
	 y="0px" width="83.029px" height="49.937px" viewBox="0 0 83.029 49.937" enable-background="new 0 0 83.029 49.937"
	 xml:space="preserve">
<g>
	<ellipse fill="#89C13F" cx="39.515" cy="26.469" rx="39.515" ry="23.466"/>
	<path fill="#89C13F" d="M3.038,49.138c4.703-4.123,7.125-10.078,4.325-11.209l19.055,6.725c-3.271-1.033-9.751,6.029-23.112,5.217
		C2.973,49.854,2.794,49.367,3.038,49.138z"/>
</g>
<ellipse fill="#F0FFE5" cx="43.515" cy="23.469" rx="39.515" ry="23.466"/>
<path fill="#F0FFE5" d="M7.038,46.138c4.703-4.123,7.125-10.078,4.325-11.209l19.055,6.725c-3.271-1.033-9.751,6.029-23.112,5.217
	C6.973,46.854,6.794,46.367,7.038,46.138z"/>
<g>
	<g>
		<path fill="#4D4D4D" d="M27.168,18.341h5.785v0.84H20.571v-0.84h5.645v-1.387l1.233,0.084c-0.015,0.098-0.084,0.168-0.28,0.195
			V18.341z M32.365,23.859v4.944c0,0.547-0.126,0.841-0.56,0.995c-0.435,0.153-1.205,0.153-2.424,0.153
			c-0.042-0.266-0.182-0.63-0.308-0.896c0.574,0.015,1.092,0.028,1.471,0.028c0.798,0,0.882,0,0.882-0.294v-4.104h-9.259v5.294
			h-0.925v-6.121H32.365z M22.966,20.021h7.62v2.899h-7.62V20.021z M29.633,22.206v-1.471h-5.757v1.471H29.633z M29.48,28.636
			h-4.567v0.742h-0.854v-3.726h5.421V28.636z M28.625,26.366h-3.713v1.555h3.713V26.366z"/>
		<path fill="#4D4D4D" d="M38.17,16.968l1.205,0.084c-0.014,0.098-0.099,0.168-0.28,0.182v12.733H38.17v-3.908
			c-1.274,0.392-2.549,0.784-3.376,1.022c-0.014,0.112-0.098,0.168-0.182,0.21l-0.42-1.078l1.05-0.253v-7.354l1.163,0.07
			c-0.014,0.098-0.084,0.168-0.28,0.195v6.864c0.645-0.168,1.345-0.364,2.045-0.546V16.968z M46.225,18.032l0.588,0.225
			c-0.027,0.069-0.069,0.125-0.126,0.168c-0.476,3.151-1.442,5.729-2.745,7.718c0.91,1.303,2.045,2.354,3.432,3.026
			c-0.224,0.182-0.532,0.531-0.687,0.798c-1.345-0.714-2.438-1.737-3.334-2.997c-0.98,1.288-2.129,2.283-3.375,2.997
			c-0.141-0.253-0.421-0.616-0.645-0.813c1.261-0.658,2.438-1.694,3.445-3.067c-1.106-1.877-1.862-4.217-2.381-6.85l0.868-0.154
			c0.435,2.311,1.121,4.412,2.102,6.135c1.036-1.681,1.849-3.781,2.283-6.205h-6.023v-0.924h6.43L46.225,18.032z"/>
		<path fill="#4D4D4D" d="M54.426,17.836h0.952c0,2.507,0.322,7.942,5.981,11.304c-0.21,0.168-0.589,0.561-0.757,0.799
			c-3.642-2.213-5.154-5.421-5.771-8.152c-1.009,3.74-2.83,6.541-5.771,8.166c-0.182-0.195-0.546-0.546-0.784-0.714
			c3.096-1.61,4.902-4.595,5.785-8.671l0.574,0.141c-0.112-0.701-0.168-1.346-0.183-1.905h-3.571v-0.952h3.544V17.836z"/>
		<path fill="#4D4D4D" d="M67.879,28.048c0-0.504,0.393-0.91,0.869-0.91c0.476,0,0.868,0.406,0.868,0.91s-0.393,0.91-0.868,0.91
			C68.244,28.958,67.879,28.524,67.879,28.048z M68.3,25.792l-0.211-7.676h1.345l-0.21,7.676H68.3z"/>
	</g>
</g>
</svg>
