<?xml version="1.0" encoding="utf-8"?>
<!-- Generator: Adobe Illustrator 26.3.1, SVG Export Plug-In . SVG Version: 6.00 Build 0)  -->
<svg version="1.1" id="レイヤー_1" xmlns="http://www.w3.org/2000/svg" xmlns:xlink="http://www.w3.org/1999/xlink" x="0px"
	 y="0px" width="595.3px" height="595.3px" viewBox="0 0 595.3 595.3" style="enable-background:new 0 0 595.3 595.3;"
	 xml:space="preserve">
<style type="text/css">
	.st0{clip-path:url(#SVGID_00000084501465999952698290000016488269055008429224_);}
	.st1{opacity:0.7;clip-path:url(#SVGID_00000093169248532286671890000006844280858113510325_);}
	.st2{fill:#C0BCB5;}
	.st3{fill:#F0BD58;}
	.st4{fill:#E798A2;}
	.st5{fill:#665737;}
	.st6{fill:#FFFFFF;}
	.st7{fill:none;stroke:#E798A2;stroke-width:3;stroke-miterlimit:10;}
	.st8{opacity:0.7;fill:#E798A2;}
	.st9{opacity:0.7;fill:#F0BD58;}
	.st10{fill:none;stroke:#F0BD58;stroke-width:3;stroke-miterlimit:10;}
	.st11{fill:#675938;}
	.st12{fill:none;stroke:#675938;stroke-width:3;stroke-miterlimit:10;}
	.st13{fill:#5E9543;stroke:#B9C656;stroke-width:0.5;stroke-miterlimit:10;}
	.st14{fill:#5E9543;stroke:#C8D751;stroke-width:0.5;stroke-miterlimit:10;}
</style>
<g>
	<defs>
		<rect id="SVGID_1_" x="4.2" y="4.3" width="587.8" height="587.8"/>
	</defs>
	<clipPath id="SVGID_00000027568440094085140710000015851558125977436546_">
		<use xlink:href="#SVGID_1_"  style="overflow:visible;"/>
	</clipPath>
	<g style="clip-path:url(#SVGID_00000027568440094085140710000015851558125977436546_);">
		<defs>
			<rect id="SVGID_00000052084833041113554080000018157714808304481458_" x="-118.1" y="207.7" width="929.3" height="383.7"/>
		</defs>
		<clipPath id="SVGID_00000016042287368025943310000012570857781694373283_">
			<use xlink:href="#SVGID_00000052084833041113554080000018157714808304481458_"  style="overflow:visible;"/>
		</clipPath>
		<g style="opacity:0.7;clip-path:url(#SVGID_00000016042287368025943310000012570857781694373283_);">
			<path class="st2" d="M-128.4,674.7c0.3-0.5,0.9-0.8,1.5-0.9l18.8-2.4c0.1,0,0.2,0,0.3,0c0.3,0,0.6,0.1,0.8,0.2l18.8,7.9l6.2-18.7
				l-26.5-2.6c-1-0.1-1.8-0.8-1.9-1.8l-7-47.6c-0.1-0.7,0.1-1.4,0.7-1.9c0.4-0.4,0.9-0.6,1.4-0.6c0.2,0,0.3,0,0.5,0.1l30,7.1
				l10.5-35.9l-23.9-54.3l-57.6,8.3c-0.1,0-0.2,0-0.3,0c-0.2,0-0.3,0-0.5-0.1l-35.7-8.5c-0.3-0.1-0.5-0.2-0.7-0.3l-35.8-24.2
				l-11.8,17.9l8.1,113.5l43.7,8.7c0.3,0.1,0.6,0.2,0.9,0.4l61.5,48.2l-2.2-10.8C-128.9,675.8-128.8,675.2-128.4,674.7z"/>
			<path class="st2" d="M-227.2,448.4l-11.3,25.4l10.6,20.3l36.8,24.9l34.9,8.3l38.8-5.6l-1.1-30.7c0-0.6,0.2-1.1,0.6-1.6l10.1-10.4
				l-17-34.7l-34.6-13c-0.5-0.2-0.8-0.5-1.1-0.9l-17.8-30.7l-64.6,25.6v10.3l15,9.8C-227.1,446.3-226.8,447.4-227.2,448.4z"/>
			<path class="st2" d="M-97.4,518.9c0.1,0,0.2,0,0.3,0c0.8,0,1.6,0.5,1.9,1.3l7.3,16.5l19.7,2.8c0.6,0.1,1.1,0.4,1.4,0.8l27.1,35.7
				l23.3,7.9v-29.1l-19.3-14.4c-0.9-0.7-1.1-2-0.5-2.9l12.2-17.7V507c-14.5-12.3-20.1-17.3-22.4-19.5c-3.1,2-12,8.6-19.9,14.8
				c-0.4,0.3-0.8,0.4-1.3,0.4c-0.1,0-0.3,0-0.4,0c-0.6-0.1-1.1-0.5-1.4-1.1l-8.5-15.9l-35.8,26l0.3,9.5L-97.4,518.9z"/>
			<path class="st2" d="M-81.4,616.8c-0.3,0.9-1.1,1.5-2,1.5c-0.2,0-0.3,0-0.5-0.1l-28.9-6.8l6.3,42.8l26.1,2.6l6.2-10.2
				c0.4-0.7,1.1-1,1.8-1c0.2,0,0.5,0,0.7,0.1l14.3,4.8l8.6-17.7l-7.5-12c-0.3-0.5-0.4-1.2-0.2-1.8c0.2-0.6,0.7-1.1,1.3-1.3l19.6-7.6
				l17.9-22.2l-23.9-8.1c-0.4-0.1-0.8-0.4-1-0.7l-27-35.5l-16.2-2.3l15.6,35.4c0.2,0.5,0.2,1,0.1,1.5L-81.4,616.8z"/>
			<path class="st2" d="M16.8,620c-0.5,0-0.9-0.2-1.3-0.4l-32.8-25.4l-15.3,19c-0.2,0.3-0.5,0.5-0.9,0.6l-17.7,6.9l6.7,10.8
				c0.4,0.6,0.4,1.4,0.1,2.1l-9.5,19.7l4.5,12.2l50,26.5l27.4,1.7l-1.1-2.9c-0.1-0.3-0.2-0.7-0.1-1.1L37.4,620H16.8z"/>
			<path class="st2" d="M53.2,559.5l2.6-2.4l-4.4-30.3H30.7c-0.6,0-1.1-0.2-1.5-0.6L2.5,498.6L-20,521.7l-11.3,16.4l18.5,13.8
				c0.5,0.4,0.9,1,0.9,1.7v33.2c0,0.5-0.2,1-0.5,1.3l-2.1,2.7l32.2,24.9H38l4.2-27.7c0.2-1,1.1-1.8,2.1-1.8h6l2.2-25.4
				C52.6,560.3,52.9,559.8,53.2,559.5z"/>
			<path class="st3" d="M288,414.9c-0.3-0.4-0.5-1-0.5-1.5l3.2-45.3l-19.8-11.4l-13.1,7.4l-20.1,69.7c-0.2,0.8-0.9,1.4-1.7,1.5
				l-25,4.2c-0.1,0-0.2,0-0.4,0c-0.7,0-1.3-0.3-1.7-0.8l-11.5-15.2l-16.3,9.4l2.9,22.4l15.6,9c0.7,0.4,1.1,1.1,1.1,1.9v98.4h5.2
				c1.2,0,2.1,1,2.1,2.1v12.6l23.6,8.6l29.5-12.8l6-68.5c0.1-0.9,0.7-1.6,1.5-1.9l29.8-8.7l25-37L288,414.9z"/>
			<path class="st3" d="M177.8,429.8l17-9.9l-37.7-49.6l-11.7,10.7v25.8c0,0.4-0.1,0.8-0.3,1.1l-39.5,65.2l33.2,11.7l30-36.4
				c0.4-0.5,1-0.8,1.6-0.8c0.4,0,0.7,0.1,1.1,0.3l7.8,4.5l-2.7-20.5C176.7,431.1,177.1,430.3,177.8,429.8z"/>
			<path class="st3" d="M223,317.5c0.4,0.8,0.2,1.7-0.4,2.4l-6.3,6.7c-0.4,0.4-1,0.7-1.6,0.7c-0.1,0-0.1,0-0.2,0
				c-0.7-0.1-1.2-0.4-1.6-1l-6.9-10.9l-39.7,27.4c-0.4,0.2-0.8,0.4-1.2,0.4c-0.4,0-0.7-0.1-1.1-0.3l-10.6-6.1l-4.7,5.5l10.6,23.9
				l52.3,68.9l22.4-3.7l20-69.2c0.2-0.5,0.5-1,1-1.3l13.3-7.5l-14-37.9c-0.3-0.8-0.1-1.8,0.6-2.4l23.1-20l-4.3-7.3l-19,6.5
				c-0.2,0.1-0.5,0.1-0.7,0.1c-0.5,0-1-0.2-1.4-0.6l-12.7-11.8c-0.9-0.8-0.9-2.1-0.1-3l10.5-11.8l-4.5-5.5l-29.2,8.1
				c-0.2,0.1-0.4,0.1-0.6,0.1c-0.4,0-0.7-0.1-1.1-0.3l-11.8-6.8l-4.3,6.1L223,317.5z"/>
			<path class="st4" d="M48.7,275l-30.4,17.6l-4.2,13.6l11.6,11l21.4-3.9c0.1,0,0.3,0,0.4,0c0.7,0,1.3,0.3,1.7,0.8l3.8,5
				c0.6,0.8,0.6,2-0.1,2.7l-13.4,14.5l4.1,5.7l54.5,5.2c0.7,0.1,1.4,0.5,1.7,1.1l14.2,27.4l29,1.6l11.8-10.8l-10.6-24
				c-0.3-0.8-0.2-1.6,0.3-2.3l6.8-7.8c0.4-0.5,1-0.7,1.6-0.7c0.4,0,0.7,0.1,1.1,0.3l11,6.3l40.4-27.9c0.4-0.2,0.8-0.4,1.2-0.4
				c0.1,0,0.3,0,0.4,0c0.6,0.1,1.1,0.5,1.4,0.9l6.6,10.4l3.4-3.7l-24.2-50.5c-0.3-0.7-0.3-1.5,0.2-2.2l4.8-6.8l-10.3-6l-12.5,12.3
				c-0.4,0.4-0.9,0.6-1.5,0.6h-16c-1.2,0-2.1-1-2.1-2.1v-36.2l-44.7,14.2c-0.2,0.1-0.4,0.1-0.6,0.1c-0.4,0-0.7-0.1-1.1-0.3
				l-42.6-24.7l-26.6,14.2l11.1,18.8c0.2,0.4,0.3,0.9,0.3,1.4l-2.8,22.6C49.7,274.1,49.3,274.7,48.7,275z"/>
			<path class="st4" d="M56.6,393.6l24,13.9l31.4-13.4c0.3-0.1,0.5-0.2,0.8-0.2c0.2,0,0.5,0,0.7,0.1l27.6,9.8v-22.2l-28.6-1.6
				c-0.8,0-1.4-0.5-1.8-1.1l-14.2-27.4l-41.5-4l-13.7,7.1L69.8,378c0.5,0.4,0.8,1,0.8,1.6c0,0.6-0.2,1.2-0.7,1.6L56.6,393.6z"/>
			<path class="st4" d="M112.9,398.4l-31.6,13.5c-0.3,0.1-0.6,0.2-0.8,0.2c-0.4,0-0.7-0.1-1.1-0.3l-19.1-11.1l11.7,48l20.3,20.1
				l9.3,3.1l38.6-63.8L112.9,398.4z"/>
			<path class="st2" d="M-43.8,285.2c0.9,0,1.7,0.6,2,1.5l12.3,38.1l21.6,28.1c0.5,0.6,0.6,1.4,0.3,2.1l-5.9,14.5l6.7,7.2l9.5-8.4
				c0.4-0.4,0.9-0.5,1.4-0.5c0.3,0,0.6,0.1,0.9,0.2l47.6,23.5l12.6-11.7l-29-23.9c-0.6-0.5-0.8-1.2-0.8-1.9c0.1-0.7,0.5-1.3,1.1-1.7
				l10.7-5.5l-4.9-0.5c-0.6-0.1-1.2-0.4-1.5-0.9l-5.7-7.9c-0.6-0.8-0.5-2,0.2-2.7l13.3-14.5l-1.9-2.6l-21.2,3.8c-0.1,0-0.3,0-0.4,0
				c-0.5,0-1.1-0.2-1.5-0.6l-13.4-12.7c-0.6-0.6-0.8-1.4-0.6-2.2l4.6-15.1l-3.2-12.2l-38-4.5c-0.4,0-0.7-0.2-1-0.4l-24-18l-10,29.3
				H-43.8z"/>
			<path class="st2" d="M-105,318.4c0.8,0.1,1.5,0.6,1.7,1.4l22.8,59.7l29.4-10c0.2-0.1,0.5-0.1,0.7-0.1c0.7,0,1.3,0.3,1.7,0.9
				l4.6,6.3l10.4-9.2c0.4-0.3,0.9-0.5,1.4-0.5c0,0,14.9,1,14.9,1l5.4-13.2l-21.1-27.4c-0.1-0.2-0.3-0.4-0.3-0.6l-11.9-37h-19.4
				c-0.7,0-1.3-0.3-1.7-0.9c-0.4-0.6-0.5-1.3-0.3-1.9l10.9-31.9l-89.8,3.8l-27.9,37.5l16.8,16.5L-105,318.4z"/>
			<path class="st2" d="M52.1,395.9l-12-5.9L5.2,414c-0.4,0.2-0.8,0.4-1.2,0.4c-0.4,0-0.7-0.1-1.1-0.3l-9.2-5.3l-8.4,26.2l75,24.1
				l7.4-9.8l-12.5-51.5L52.1,395.9z"/>
			<path class="st2" d="M-5.5,381.2c-0.4,0.4-0.9,0.5-1.4,0.5c-0.6,0-1.1-0.2-1.6-0.7l-8.5-9.1l-14.5-1L-43,381.2
				c-0.4,0.3-0.9,0.5-1.4,0.5c-0.1,0-0.2,0-0.2,0c-0.6-0.1-1.1-0.4-1.5-0.9l-5-6.9l-28.8,9.8l-2.8,11.7l16.6,16.7h26.7
				c1.2,0,2.1,1,2.1,2.1v13.4l18.6,6l9.2-28.7c0.2-0.6,0.7-1.1,1.3-1.3c0.2-0.1,0.5-0.1,0.8-0.1c0.4,0,0.7,0.1,1.1,0.3l10.4,6
				l31.8-21.8L4.4,372.4L-5.5,381.2z"/>
			<path class="st2" d="M-165.9,383.1c0.4-0.4,0.9-0.6,1.5-0.6c0.1,0,0.1,0,0.2,0c0.6,0.1,1.2,0.4,1.5,0.9l15.7,22.8h31.5l6.2-11.2
				c0.4-0.7,1.1-1.1,1.9-1.1h20.5l2.8-11.7l-22.8-59.7l-51.3-5.9c-0.5-0.1-0.9-0.3-1.3-0.6l-15.7-15.5l-4,21.5
				c-0.2,1-1.1,1.7-2.1,1.7c-0.1,0-0.2,0-0.3,0l-42.8-6.6c-0.7-0.1-1.3-0.5-1.6-1.1c-0.3-0.6-0.3-1.3,0-2l5.5-10.6l-18.1-7.1
				l-37.6,36.8l8.7,39.8c0.1,0.3,0.1,0.5,0,0.8l-6.8,41.5l27,17.7v-9c0-0.9,0.5-1.7,1.3-2l67.3-26.7L-165.9,383.1z"/>
			<path class="st2" d="M70.2,453l-7.5,9.9c-0.4,0.5-1,0.8-1.7,0.8c-0.2,0-0.4,0-0.7-0.1l-27.1-8.7L5.2,495.3l26.4,27.2h20.6
				l36.1-51.7L70.2,453z"/>
			<path class="st2" d="M100,527.7l5.6-38.7l-4.8-13l-8.9-3l-36.4,52.1l4.1,28.4l7.2-6.7c0.4-0.4,0.9-0.6,1.5-0.6
				c0.3,0,0.6,0.1,0.9,0.2c0.8,0.4,1.3,1.2,1.2,2.1l-1.2,14.6l5.7,7.8l23.4-20.9L100,527.7z"/>
			<path class="st2" d="M-114.2,491.8l0.5,14.7l34.8-25.2l6-24.7c0.1-0.3,0.2-0.6,0.4-0.8l10.1-13.5h-14.8c-0.7,0-1.3-0.3-1.7-0.9
				l-13.7-18.2c-0.4-0.5-0.5-1.1-0.4-1.8l5.2-23.3H-106l-6.2,11.2c-0.4,0.7-1.1,1.1-1.9,1.1h-33.9c-0.7,0-1.4-0.3-1.8-0.9
				l-14.9-21.7l-10,9.6l17.5,30.1l34.6,13c0.5,0.2,0.9,0.6,1.2,1.1l18,36.8c0.4,0.8,0.2,1.8-0.4,2.4L-114.2,491.8z"/>
			<path class="st2" d="M-88.6,421.5l12.5,16.5h18c0.8,0,1.5,0.5,1.9,1.2c0.4,0.7,0.3,1.6-0.2,2.2L-68.9,458l-5.8,24.2l8.1,15.1
				c18.9-14.6,20.1-14.6,20.9-14.6c0.7,0,1.4,0.4,1.8,1c1.4,1.5,15.2,13.5,23.7,20.7c0.5,0.4,0.8,1,0.8,1.6v9.1l20.4-20.9l28.3-40.7
				l-69.2-22.2c-0.9-0.3-1.5-1.1-1.5-2v-12.8H-67c-0.6,0-1.1-0.2-1.5-0.6l-15.3-15.5L-88.6,421.5z"/>
			<polygon class="st2" points="51.1,600 46.8,600 44.8,615.7 51.1,615.7 			"/>
			<polygon class="st2" points="42.9,631.3 51.1,631.3 51.1,620 44.3,620 			"/>
			<polygon class="st2" points="92.5,719.3 100,712 85.2,701.3 73.7,710.3 69.2,707.7 81.1,691.3 77.2,683.8 52,706.7 38.5,698.9 
				45.7,719.3 			"/>
			<polygon class="st2" points="36.6,692.9 51.5,701.5 75.1,679.9 51.1,634.2 42.9,634.2 35.1,689.3 36.5,693.2 			"/>
			<polygon class="st2" points="165.5,563.3 165.5,557.3 158.9,557.3 158.9,569.3 150.7,569.3 150.7,559.3 133.8,560.4 136.9,585.5 
				179.6,578.3 179.6,598 157.7,600.6 157.7,604.8 191.2,600.8 191.2,571.9 180.4,563.3 			"/>
			<polygon class="st2" points="169.6,628.9 181.9,646.1 189.1,640.7 189.1,605.5 167.8,608 			"/>
			<polygon class="st2" points="158.7,584 158.7,597.7 164.9,597.7 164.9,591.3 176.2,591.3 176.2,587.2 164.9,587.2 164.9,584 			
				"/>
			<polygon class="st2" points="132.2,592.3 129.9,563.1 118.1,571.3 118.1,579.5 94.2,595.8 89.5,590.2 84.6,593.1 101.2,612.4 
				107.2,608.9 119.6,624.6 125.1,614 115.9,598.8 119.3,592.1 			"/>
			<polygon class="st2" points="117.1,636 104.1,614.1 96.5,619.4 112.6,641.2 			"/>
			<polygon class="st2" points="108.4,649.6 85.8,616.9 76.4,622.7 100.3,666.8 			"/>
			<polygon class="st2" points="70.9,633.2 75.6,630.3 70.7,621.2 90.8,608.8 81.7,595.5 73.6,598.8 78.4,607.1 66.6,615.7 			"/>
			<polygon class="st2" points="151.5,651.2 140.6,642.4 117.9,659 108.4,676.4 114.1,679.7 			"/>
			<polygon class="st2" points="131.8,673.4 145.5,692.8 167.5,678.2 154.8,655.8 			"/>
			<polygon class="st2" points="111.2,689.2 132.2,701.6 141,695.8 127.6,676.7 			"/>
			<polygon class="st2" points="206.3,597.7 210.4,591.5 218.3,594.9 219.7,598.9 222.5,592.2 206.3,585.6 			"/>
			<polygon class="st2" points="224.2,598.9 230.5,598.9 233.8,606 237.8,597.7 226.5,593.4 			"/>
			<path class="st2" d="M119.1,800.6c-0.3,0.2-0.7,0.3-1.1,0.3c-0.2,0-0.4,0-0.6-0.1c-0.6-0.2-1-0.6-1.3-1.1l-23.9-46.4
				c-0.5-1-0.2-2.3,0.8-2.8l8.3-4.8l-3.5-8.6L73,737.9l-14.8,14.5c-0.4,0.4-0.9,0.6-1.5,0.6c-0.3,0-0.6-0.1-0.9-0.2l-21.6-10.5
				c-0.8-0.4-1.3-1.2-1.2-2.1c0.1-0.9,0.7-1.6,1.6-1.9l9-2.4l-14-37.8l-29.7-1.9c-0.3,0-0.6-0.1-0.9-0.2l-51.1-27.1
				c-0.5-0.2-0.8-0.7-1-1.1l-4.8-12.9l-13.5-4.6l-5.9,9.7l-7.6,23.2c-0.2,0.6-0.6,1-1.1,1.3c-0.3,0.1-0.6,0.2-0.9,0.2
				c-0.3,0-0.6-0.1-0.8-0.2l-20.4-8.6l-16,2l2.6,12.9l18,4.8c0.6,0.2,1.2,0.6,1.4,1.3l21.8,54.3l39.2,17.6c1,0.5,1.5,1.6,1.1,2.7
				l-8.9,23.7l7.6,8l84.8-20c0.2,0,0.3-0.1,0.5-0.1c0.4,0,0.8,0.1,1.2,0.4l59.3,40.5l28.8-24l-1.5-6.7L119.1,800.6z"/>
			<path class="st3" d="M141.2,488.7c-0.4,0.5-1,0.8-1.6,0.8c-0.2,0-0.5,0-0.7-0.1l-32.8-11.5l3.8,10.2c0.1,0.3,0.2,0.7,0.1,1.1
				l-5.5,37.8l9.3,5.4c0.8,0.4,1.2,1.3,1,2.2l-4,24.5c-0.1,0.5-0.3,0.9-0.7,1.3l-24.9,21.4l2,3.1l43.8-31.7c0.4-0.3,0.8-0.4,1.2-0.4
				h55.9c1.2,0,2.1,1,2.1,2.1v9.6h6.2v-97.2L171,452.6L141.2,488.7z"/>
		</g>
	</g>
</g>
<path class="st5" d="M439.6,90.1H158.5c-17.9,0-32.5-14.6-32.5-32.5v0c0-17.9,14.6-32.5,32.5-32.5h281.1c17.9,0,32.5,14.6,32.5,32.5
	v0C472.1,75.5,457.5,90.1,439.6,90.1z"/>
<g>
	<path class="st6" d="M204.9,50.2c-1.2,0-1.7-0.8-1.7-1.7c0-0.8,0.6-1.7,1.7-1.7h11.5c1.2,0,1.7,0.8,1.7,1.7c0,0.8-0.6,1.7-1.7,1.7
		H204.9z M237.6,50.2l-8.8-0.1c-0.1,1.5-0.2,2.9-0.4,4.3c1.6,0,3.1-0.1,4.8-0.1c2.5,0,4,1.2,4,3.8c0,8.2-0.9,17.2-8,17.2
		c-1.3,0-2.7-0.3-4.4-1c-0.8-0.3-1.2-1-1.2-1.7c0-1.1,0.8-2.2,1.8-2.2c0.2,0,0.4,0,0.6,0.2c1.2,0.6,2.1,0.9,3,0.9
		c4.2,0,4.3-9.4,4.3-12.3c0-1.1-0.6-1.5-1.5-1.5c-1.3,0-2.6,0-4,0c-1,7.1-3.3,13.2-8.9,17.6c-0.4,0.3-0.9,0.5-1.4,0.5
		c-1.1,0-2.1-0.8-2.2-1.9c-1,1.1-2.1,1.1-5.4,1.1c-1,0-2,0-2.8-0.1c-1.8-0.1-2.9-1.4-3-3.2c0-1,0-2.1,0-3s0-1.9,0-2.8
		c0-1.5,1-2.9,2.9-3.1c0.8,0,1.7-0.1,2.6-0.1c1.1,0,2.3,0,3.2,0.1c1.5,0.1,3.2,1.1,3.2,2.9c0,0.9,0,2,0,3s0,2.1,0,2.9
		c0,0.2,0,0.5-0.1,0.7c0.1,0,0.1-0.1,0.2-0.2c6.9-5,8.1-13.6,8.4-22l-4.6,0.1h0c-1.2,0-1.8-0.9-1.8-1.9s0.6-1.9,1.9-1.9h5.7v-4.2
		c0-1.2,1-1.8,2-1.8c1,0,2,0.6,2,1.8v4.2h7.5c1.2,0,1.8,0.9,1.8,1.9S238.8,50.2,237.6,50.2L237.6,50.2z M206.5,44.7
		c-1.1,0-1.6-0.8-1.6-1.6c0-0.8,0.5-1.6,1.6-1.6h8.6c1.1,0,1.7,0.8,1.7,1.6c0,0.8-0.6,1.6-1.7,1.6H206.5z M206.6,55.5
		c-1.1,0-1.6-0.8-1.6-1.6s0.5-1.6,1.6-1.6h8.6c1.1,0,1.7,0.8,1.7,1.6s-0.6,1.6-1.7,1.6H206.6z M206.6,60.7c-1.1,0-1.6-0.8-1.6-1.6
		s0.5-1.6,1.6-1.6h8.6c1.1,0,1.7,0.8,1.7,1.6s-0.6,1.6-1.7,1.6H206.6z M213.2,68.7c0-0.7,0-1.5,0-2c-0.1-1-0.8-1.1-2.6-1.1
		c-2.7,0-2.7,0-2.7,3.1c0,0.7,0,1.5,0,2.1c0,0.6,0.2,1,2.5,1c1.5,0,2.7,0,2.7-1C213.2,70.1,213.2,69.4,213.2,68.7z"/>
	<path class="st6" d="M247.2,76c-1,0-1.9-0.6-1.9-1.7c0,0,0,0,0-0.1c0.3-7.4,0.2-20.1,0.3-28.9c0-4,2.7-4,6.9-4c1.5,0,3.2,0,4,0
		c2.1,0.1,3.5,1.4,3.6,3.2c0,1.4,0.1,2.9,0.1,4.4c0,5.2,0,6.2-8,6.2c-1,0-2.1,0-2.8-0.1c0,1,0,2.3,0,3.6c0,4.3,0,9.8-0.2,15.5
		C249.1,75.5,248.1,76,247.2,76z M256.5,47.1c0-0.5,0-1,0-1.4c-0.1-1.1-0.3-1.3-3.5-1.3c-3.3,0-3.6,0.1-3.7,1.6c0,0.3,0,0.7,0,1
		H256.5z M249.3,49.7v2.6c0.6,0,1.8,0,3,0c3.9,0,4.2-0.2,4.2-1.3c0-0.4,0-0.8,0-1.3H249.3z M265.1,70.5c-0.9,0.1-2.2,0.1-3.6,0.1
		c-6.7,0-7.9-0.1-7.9-5.9c0-1.2,0-2.3,0.1-3.4c0.1-2.1,1.5-3.6,3.7-3.6c1,0,2.5-0.1,3.9-0.1c1.5,0,2.9,0,3.8,0.1
		c2,0.1,3.7,1.6,3.8,3.6c0,1,0.1,2.2,0.1,3.3c0,0.7,0,1.4,0,2.1C268.9,68.7,267.6,70.3,265.1,70.5z M265.4,63.2c0-2.5-0.2-2.6-4-2.6
		c-3.9,0-4,0.1-4,3.1c0,0.8,0,1.7,0,2.3c0.1,1.3,1.1,1.3,4,1.3c0.9,0,1.9,0,2.4,0C265.4,67.1,265.4,66.5,265.4,63.2z M271.1,55.3
		c-4.8,0-8.1,0-8.2-3.6c0-0.8,0-1.7,0-2.6c0-1.5,0-3,0.1-4.4c0.1-1.8,1.5-3.1,3.5-3.2c0.8,0,2.5,0,4.1,0c1.2,0,2.3,0,3,0
		c3,0.2,4.2,1.8,4.2,3.6c0,1,0,2,0,3c0,6.1,0.1,12.3,0.1,17.4c0,1.9,0,3.6,0,5c0,2.9-1.4,5.4-6,5.4c-2.8,0-4.3-0.4-4.3-2.1
		c0-0.9,0.6-1.8,1.6-1.8c0.1,0,0.2,0,0.3,0c0.8,0.1,1.5,0.2,2.1,0.2c1.3,0,2.3-0.5,2.4-2.5c0-1.6,0.1-3.4,0.1-5.1c0-2.7,0-5.4,0-7.9
		c0-0.6,0-1.1,0-1.7C273.4,55.3,272.3,55.3,271.1,55.3z M274,47.1c0-2.6-0.1-2.6-3.8-2.6c-3.2,0-3.7,0-3.8,1.3c0,0.4,0,0.8,0,1.3
		H274z M274.1,49.7h-7.7c0,0.5,0,0.9,0,1.3c0,1.1,0.2,1.3,4.4,1.3c1.3,0,2.6,0,3.2,0V49.7z"/>
	<path class="st6" d="M292.5,55c-2.7-0.1-2.5-3.9,0.1-3.8c5.3,0.1,12.3,0,18.4-0.2c1.4,0,2.1,0.9,2.1,1.9c0,1-0.8,1.9-2.1,2
		c-2,0-4.5,0.1-7.1,0.1c0,3.4,0,8,0,10.7c4.5,0,8.9-0.1,12.5-0.1c1.3,0,2,1,2,2.1c0,1-0.8,2.1-2.4,2c-8.6-0.2-20.2-0.1-27.9,0.1
		c-3.2,0.1-3-3.9,0-4c3.1-0.1,7.3-0.1,11.7-0.2c0.1-3.1,0-8.3,0-10.7C296.8,55.1,294.2,55.1,292.5,55z"/>
	<path class="st6" d="M336.9,62.3c-1,0-2.2-0.7-2.1-2.1c0.2-4,0.1-10.3-0.1-14.2c-0.1-2.5,4-2.7,4.2-0.2c0.2,3.6,0.2,10.5,0.1,14.3
		C339,61.5,338,62.3,336.9,62.3z M337.2,72c7.1-4,8.8-9.4,8.8-15.4c0-3.1-0.2-8.2-0.2-11.3c0-2.6,4.4-2.5,4.3,0
		c-0.1,3.4,0.1,8,0.1,11.3c0,6.9-2.1,13.9-10.5,18.7C336.5,77.2,334.7,73.5,337.2,72z"/>
	<path class="st6" d="M372.2,74.2c-1.6,1-3.1,0.6-3.8-0.4c-0.7-0.9-0.5-2.3,1.1-3.1c6.8-3.3,9.1-10,8.5-15.9
		c-0.2-1.7,0.9-2.5,2.2-2.5c1.3,0,2.5,0.6,2.4,2.3c0,0.5,0,1,0,1.5c0.1,0,0.2-0.1,0.3-0.2c2.7-1.1,5.8-2.9,7.3-5.1
		c0.6-0.8,0.6-1.5-0.4-1.5c-4.5,0-13.3,0.1-19,0.4c-3.6,0.2-3.3-3.7-0.3-3.9c5.9-0.3,14.7-0.2,20.7-0.2c4.2,0,6.1,3.5,3.3,6.7
		c-2.7,3-5.6,5.6-10,7.2c-0.9,0.3-1.7,0.2-2.3-0.1C381.2,65.7,378.2,70.5,372.2,74.2z"/>
</g>
<rect x="284" y="114.4" class="st7" width="215.4" height="164.4"/>
<polygon class="st8" points="212.6,221.4 283.7,155 283.7,190.6 "/>
<polygon class="st9" points="308.5,362.7 378.7,383.1 378.7,347.4 "/>
<rect x="378.9" y="317.6" class="st10" width="181.4" height="256.2"/>
<g>
	<path class="st11" d="M313,159.7c-5.2,2.6-7.8,3.5-8.5,3.5c-1.1,0-1.7-0.9-1.7-1.7c0-0.7,0.4-1.4,1.3-1.7c3.4-1.1,6.1-2.1,8.9-3.6
		v-8.4h-7.5c-1.2,0-1.8-0.9-1.8-1.7c0-0.9,0.6-1.7,1.8-1.7h7.5v-7.8c0-1.1,0.9-1.7,1.8-1.7c0.9,0,1.8,0.6,1.8,1.7v28.8
		c0,1.1-0.9,1.6-1.8,1.6c-0.9,0-1.8-0.5-1.8-1.6V159.7z M331.7,158.6c0-1.2,0.9-1.7,1.7-1.7c0.9,0,2,0.5,2,2c0,7.4-3.9,7.5-8,7.5
		c-3.7,0-6.8-0.5-6.8-4.7c0-1.6,0-23.9,0.1-25.1c0.1-1,1-1.5,1.8-1.5c0.9,0,1.8,0.5,1.8,1.6c0,0.7,0,5.2-0.1,10.1
		c2.4-1.2,5.2-2.9,7.2-4.4c0.3-0.2,0.6-0.3,1-0.3c1,0,1.9,1,1.9,2c0,0.6-0.3,1.2-1,1.7c-2.4,1.6-6.5,3.5-9.1,4.5
		c0,5.2-0.1,10.1-0.1,10.8c0.1,1.4,0.9,1.8,3.4,1.8c3.3,0,4.1-0.4,4.1-4C331.7,158.7,331.7,158.7,331.7,158.6L331.7,158.6z"/>
	<path class="st11" d="M357.6,151.5l0,14.1c0,1.2-1,1.8-2,1.8c-1,0-2-0.6-2-1.8l0-14.1l-12,0c-1.2,0-1.7-0.9-1.7-1.7
		c0-0.9,0.6-1.7,1.7-1.7l12,0v-6.8c-2.3,0.3-6.9,0.7-9.6,0.7c-1.3,0-2-0.9-2-1.8c0-0.9,0.6-1.7,1.8-1.7c6.4-0.1,13.7-0.9,20.7-2.8
		c0.2-0.1,0.4-0.1,0.6-0.1c1.2,0,1.8,1,1.8,1.9c0,0.7-0.3,1.4-1.1,1.6c-2.2,0.6-5.2,1.2-8.4,1.6v7.3l12.3,0c1,0,1.6,0.9,1.6,1.8
		c0,0.9-0.5,1.7-1.6,1.7L357.6,151.5z"/>
	<path class="st11" d="M380,148.7c-2.5,3-3.3,3.3-4.2,3.3c-1,0-1.7-0.8-1.7-1.7c0-0.4,0.2-0.9,0.6-1.3c3.6-3.2,6.9-7.7,8.9-12.7
		c0.3-0.8,1-1.2,1.7-1.2c1,0,2,0.8,2,1.9c0,1-2.5,5.1-3.7,6.9l-0.4,21.9c0,1.1-1,1.7-1.9,1.7c-0.9,0-1.8-0.5-1.8-1.6c0,0,0,0,0-0.1
		L380,148.7z M386,165.9c-1.3,0-1.9-0.8-1.9-1.6s0.6-1.6,1.9-1.6l8.2,0v-7.8l-5.5,0c-1.2,0-1.8-0.8-1.8-1.6c0-0.8,0.6-1.6,1.8-1.6
		l5.5,0v-6.2l-6.2,0c-1.2,0-1.8-0.8-1.8-1.6c0-0.8,0.6-1.6,1.8-1.6h16.9c1.2,0,1.8,0.8,1.8,1.6c0,0.8-0.6,1.6-1.8,1.6l-7,0v6.2
		l5.6,0c1.2,0,1.8,0.8,1.8,1.6c0,0.8-0.6,1.6-1.8,1.6l-5.6,0v7.8l8.7,0c1.1,0,1.7,0.9,1.7,1.7c0,0.8-0.6,1.6-1.7,1.6H386z
		 M396.5,140.5c-1.3-1.4-3.2-2.3-4.4-2.8c-0.7-0.3-1-0.7-1-1.2c0-0.9,0.9-1.8,2-1.8c0.7,0,6.6,1.9,6.6,4.3c0,1.1-0.9,2.1-2,2.1
		C397.4,141,396.9,140.9,396.5,140.5z"/>
	<path class="st11" d="M415.3,167.5c-0.9,0-1.8-0.6-1.8-1.6c0-6.8,0-19,0.2-26.8c0.1-3.5,2-3.5,5.4-3.5c0.7,0,1.4,0,2,0
		c2.1,0.1,3.2,1.2,3.2,2.8c0,0.7-0.2,1.8-2.2,6.1c-0.2,0.4-0.3,0.7-0.3,1c0,0.5,0.2,1,0.6,1.5c1.3,1.6,2,3.2,2,5.8
		c0,3.2-2,5.6-4.7,5.6c-0.6,0-2.6-0.1-2.6-1.8c0-0.8,0.6-1.6,1.3-1.6c0.1,0,0.3,0,0.4,0.1c0.2,0,0.3,0.1,0.5,0.1
		c0.8,0,1.7-0.7,1.7-2.7c0-1.7-0.5-3-1.5-4.3c-0.7-1-1-1.8-1-2.6c0-0.7,0.2-1.3,0.5-2.1c0.8-1.8,1.5-4,1.5-4.3
		c0-0.4-0.2-0.7-1.5-0.7c-1.4,0-2.1,0-2.1,1.3c0,3.5-0.1,7.8-0.1,12.5c0,11.6,0,13.2,0,13.8C417,166.9,416.1,167.5,415.3,167.5z
		 M420.8,165.5c0-0.7,0.4-1.4,1.4-1.8c5-1.8,6.4-4.7,7-8.6c0.1-1,0.9-1.4,1.6-1.4c0.9,0,1.9,0.7,1.9,1.7c0,0.1,0,0.2,0,0.3
		c-1.7,10-9.6,11.6-10.1,11.6C421.5,167.3,420.8,166.4,420.8,165.5z M440.9,145v-1.5c0-1.3-0.5-1.6-1.7-1.6c-1.5,0-3.3-0.1-5-0.1
		c-1.7,0-3.5,0-4.8,0.1c-1.4,0-1.8,0.4-1.8,1.5v1.6c0,1-0.9,1.6-1.7,1.6c-0.9,0-1.7-0.5-1.7-1.6c0-0.5,0-1.2,0-1.9
		c0-1.7,0.1-4.1,3.8-4.2c1.3,0,2.7-0.1,4.2-0.1l0-2.6v0c0-1.2,0.9-1.7,1.9-1.7c0.9,0,1.9,0.6,1.9,1.7v0l0,2.6c1.6,0,3.3,0,4.7,0.1
		c2.4,0.1,3.8,1.2,3.8,3.4c0,2.6,0,2.6,0,2.6c-0.1,1-1,1.6-1.9,1.6C441.7,146.6,440.9,146.1,440.9,145L440.9,145z M441.8,160.1
		c0-1,0.8-1.5,1.6-1.5c0.6,0,1.9,0.3,1.9,1.8c0,5.3-2,6.3-6,6.3c-3.9,0-4.9-1.6-4.9-4.3c0-1.3,0-7,0.1-9.4l-8.4,0.1
		c-1,0-1.5-0.8-1.5-1.6c0-0.7,0.5-1.5,1.5-1.5H443c1,0,1.4,0.8,1.4,1.6c0,0.8-0.5,1.5-1.4,1.5h0l-5.1-0.1c0,2.2-0.1,6.6-0.1,8.4
		c0,1,0.1,1.9,1.5,1.9c2.1,0,2.5-0.6,2.5-2.8C441.8,160.4,441.8,160.3,441.8,160.1L441.8,160.1z M429.8,147.4c-1,0-1.6-0.7-1.6-1.5
		c0-0.7,0.5-1.5,1.6-1.5h9c1,0,1.4,0.7,1.4,1.5c0,0.7-0.5,1.5-1.4,1.5H429.8z"/>
	<path class="st11" d="M316.1,198.7v5c1.1,0.2,2.3,0.3,3.5,0.3c1.9,0,3.9-0.2,5.7-0.3c0,0,0.1,0,0.1,0c0.8,0,1.3,0.6,1.3,1.3
		c0,0.6-0.4,1.3-1.4,1.4c-1.7,0.2-3.3,0.3-5,0.3c-4.7,0-9.2-1.1-11.5-5.4c-1.3,3.1-4.1,5.8-5.4,5.8c-0.8,0-1.4-0.7-1.4-1.4
		c0-0.4,0.2-0.8,0.6-1c3.4-2.1,4.5-5.3,4.8-8.6c0.1-0.9,0.7-1.3,1.3-1.3c0.7,0,1.3,0.5,1.3,1.3c0,0.1-0.1,1-0.3,1.8
		c0.6,2.4,1.8,3.9,3.4,4.8v-9.6c-1.4,0-2.8,0-4-0.1c-2-0.1-3.1-1.3-3.2-2.9c0-0.5,0-1.1,0-1.7c0-0.8,0-1.6,0-2.1
		c0-1.3,0.9-2.7,3.1-2.8c1.6-0.1,3.4-0.1,5.3-0.1s3.8,0,5.6,0.1c1.7,0,2.9,1.3,3,2.5c0,0.5,0.1,1.1,0.1,1.7c0,0.8,0,1.6-0.1,2.2
		c-0.1,1.5-1.2,2.9-3.1,2.9c-1.3,0.1-2.6,0.1-3.9,0.1v3.2l6.4,0c0.9,0,1.3,0.6,1.3,1.3c0,0.6-0.4,1.2-1.3,1.2H316.1z M320.5,188.2
		c0-1.5-0.1-2.3-1.4-2.3c-1.3,0-2.7-0.1-4.1-0.1c-1.7,0-3.4,0-4.9,0.1c-1.2,0-1.3,0.8-1.3,2.4c0,2,0.3,2.4,1.3,2.4
		c1.3,0,2.9,0.1,4.4,0.1c1.6,0,3.2,0,4.6-0.1C320.4,190.6,320.5,189.8,320.5,188.2z"/>
	<path class="st11" d="M330.1,205.5c-0.9,0-1.4-0.6-1.4-1.3c0-0.6,0.4-1.3,1.4-1.3h11.2c1.4-3.3,2.9-8.4,3.4-10.9
		c0.1-0.7,0.7-1.1,1.3-1.1c0.8,0,1.6,0.5,1.6,1.4c0,1.1-2.5,8.3-3.6,10.6h7.9c0.8,0,1.3,0.7,1.3,1.3c0,0.6-0.4,1.3-1.3,1.3H330.1z
		 M331.8,190.2c-0.9,0-1.3-0.6-1.3-1.3c0-0.6,0.4-1.3,1.3-1.3l7.8,0.1l0-3.8c0-0.9,0.7-1.3,1.5-1.3c0.7,0,1.5,0.4,1.5,1.3l0,3.8
		l7.6-0.1c0.9,0,1.3,0.6,1.3,1.3c0,0.6-0.4,1.3-1.3,1.3H331.8z M336.8,200.5c-0.4-2.3-1.3-5.1-2.4-7.3c-0.1-0.2-0.1-0.4-0.1-0.6
		c0-0.8,0.7-1.3,1.5-1.3c0.5,0,1,0.2,1.3,0.8c1.3,2.8,2.7,7.2,2.7,8c0,1-0.8,1.6-1.5,1.6C337.5,201.8,336.9,201.4,336.8,200.5z"/>
	<path class="st11" d="M377.3,203.2c0.8,0,1.2,0.6,1.2,1.3c0,0.6-0.4,1.3-1.2,1.3c-3.3,0.1-6.4,0.1-9.5,0.1c-2.5,0-5,0-7.6-0.1
		c-2.4-0.1-3.6-1.3-3.7-3.4s-0.1-4.4-0.1-6.9c0-2.9,0.1-5.9,0.1-8.7c0-1.8,1.4-3,3.5-3c2.4-0.1,5.3-0.1,8.1-0.1c2.9,0,5.9,0,8.5,0.1
		c0.8,0,1.2,0.6,1.2,1.2c0,0.6-0.4,1.2-1.2,1.2c-3.6,0-7.8-0.1-11.3-0.1c-1.6,0-3,0-4.2,0c-1.6,0-2,0.5-2,1.9
		c-0.1,2.2-0.1,4.5-0.1,6.8c0,2.2,0,4.5,0.1,6.5c0.1,1.6,0.6,1.8,2.3,1.9c1.7,0,3.5,0.1,5.3,0.1
		C370.1,203.3,373.6,203.3,377.3,203.2L377.3,203.2z M361.9,201.8c-0.8,0-1.4-0.7-1.4-1.4c0-0.4,0.2-0.8,0.8-1
		c2.5-1.1,4.5-2.8,6.1-4.7c-1.5-1-3.1-2-4.7-2.9c-0.5-0.3-0.7-0.6-0.7-1c0-0.6,0.6-1.3,1.3-1.3c0.2,0,0.5,0.1,0.7,0.2
		c1.3,0.8,3.1,1.8,4.8,3c1-1.5,1.8-3.2,2.4-4.9c0.2-0.6,0.7-0.8,1.1-0.8c0.8,0,1.5,0.6,1.5,1.4c0,0.6-1.4,3.4-3,5.7
		c3.5,2.6,4.2,3.4,4.2,4.3c0,0.8-0.7,1.6-1.5,1.6c-0.4,0-0.8-0.2-1.1-0.6c-0.9-1.1-2-2.2-3.2-3.2C366,200.3,362.8,201.8,361.9,201.8
		z"/>
	<path class="st11" d="M385.3,206.5c-0.7-1-2.2-2.3-3.4-2.9c-0.5-0.3-0.8-0.7-0.8-1.1c0-0.6,0.5-1.2,1.3-1.2c1,0,5.5,2.5,5.5,4.4
		c0,0.9-0.8,1.5-1.5,1.5C386,207.1,385.6,206.9,385.3,206.5z"/>
	<path class="st11" d="M302.3,253.9c0-0.5,0.3-1,0.9-1.1c3.4-0.6,4.9-2.6,4.9-6.1c0-0.1,0-0.3,0-0.4c0,0,0,0,0-0.1
		c0-0.8,0.6-1.2,1.2-1.2c1.3,0,1.4,1.1,1.4,1.7c0,7.5-6.2,8.5-7,8.5C302.8,255.3,302.3,254.6,302.3,253.9z M319.5,234.6v0.9
		c0,0.8-0.7,1.1-1.3,1.1c-0.6,0-1.3-0.4-1.3-1.1v-1h-4.7v0.9c0,0.8-0.7,1.1-1.3,1.1c-0.6,0-1.3-0.4-1.3-1.1v-1h-5.8
		c-0.8,0-1.1-0.6-1.1-1.1c0-0.6,0.4-1.1,1.1-1.1h5.8v-1c0-0.7,0.6-1.1,1.3-1.1c0.6,0,1.3,0.4,1.3,1.1v1h4.7v-1
		c0-0.7,0.6-1.1,1.3-1.1c0.6,0,1.3,0.4,1.3,1.1v1h5.9c0.8,0,1.1,0.6,1.1,1.1c0,0.6-0.4,1.1-1.1,1.1H319.5z M310.3,239.7
		c0,2.5,0,2.5,4.6,2.5c2.2,0,4.8-0.1,7.2-0.4c0.1,0,0.1,0,0.2,0c0.8,0,1.2,0.5,1.2,1.1c0,0.6-0.4,1.1-1.2,1.2
		c-1.8,0.2-4,0.3-6.2,0.3c-6.4,0-8.5-0.2-8.6-2.9c0-0.4,0-1.2,0-1.9h-2.9c-0.8,0-1.1-0.6-1.1-1.1c0-0.5,0.4-1.1,1.1-1.1l8.7,0v-0.9
		c0-0.8,0.7-1.2,1.4-1.2c0.7,0,1.3,0.4,1.3,1.1c0,0,0,0,0,0.1l0,0.9l8.7,0c0.8,0,1.1,0.6,1.1,1.1c0,0.6-0.4,1.1-1.1,1.1H310.3z
		 M313.3,246.4c0-0.7,0.6-1.1,1.3-1.1c0.6,0,1.3,0.4,1.3,1.1l0.1,6.9c0,0.8-0.6,1.1-1.3,1.1c-0.6,0-1.3-0.4-1.3-1.1L313.3,246.4z
		 M324.1,250.6c0-0.7,0.6-1.1,1.2-1.1c0.2,0,1.3,0,1.3,1.2c0,3.6-1.8,4-4.7,4c-2.7,0-3.5-1-3.5-2.8c0-0.9,0.1-5,0.1-5.6
		c0-0.7,0.6-1.1,1.3-1.1c1.3,0,1.3,1.1,1.3,1.5c0,1.1-0.1,3.6-0.1,4.6c0,0.5,0,1,1.3,1c1.3,0,1.8,0,1.8-1.6
		C324.1,250.7,324.1,250.6,324.1,250.6L324.1,250.6z"/>
	<path class="st11" d="M329.3,255c-0.8,0-1.6-0.7-1.6-1.4c0-0.3,0.1-0.6,0.4-0.8c4.3-4.3,4.3-9.6,4.3-14.6c0-1.8-0.1-4-0.1-5.5
		c0,0,0-0.1,0-0.1c0-0.8,0.7-1.1,1.4-1.1c0.7,0,1.5,0.4,1.5,1.2c0,0.6,0.1,1.3,0.1,2.1c0,1.9-0.1,4-0.1,5.6c0,4.1-0.5,9.9-4.7,14.2
		C330.1,254.9,329.7,255,329.3,255z M339.8,233.2c0-0.8,0.7-1.2,1.4-1.2s1.4,0.4,1.4,1.2v18.5c0,0.8-0.7,1.1-1.4,1.1
		c-0.7,0-1.4-0.4-1.4-1.1V233.2z M347.6,232.4c0-0.8,0.7-1.2,1.4-1.2c0.7,0,1.4,0.4,1.4,1.2v21.4c0,0.8-0.7,1.1-1.4,1.1
		c-0.7,0-1.4-0.4-1.4-1.1V232.4z"/>
	<path class="st11" d="M377.3,251.5c0.8,0,1.2,0.6,1.2,1.3c0,0.6-0.4,1.3-1.2,1.3c-3.3,0.1-6.4,0.1-9.5,0.1c-2.5,0-5,0-7.6-0.1
		c-2.4-0.1-3.6-1.3-3.7-3.4s-0.1-4.4-0.1-6.9c0-2.9,0.1-5.9,0.1-8.7c0-1.8,1.4-3,3.5-3c2.4-0.1,5.3-0.1,8.1-0.1c2.9,0,5.9,0,8.5,0.1
		c0.8,0,1.2,0.6,1.2,1.2c0,0.6-0.4,1.2-1.2,1.2c-3.6,0-7.8-0.1-11.3-0.1c-1.6,0-3,0-4.2,0c-1.6,0-2,0.5-2,1.9
		c-0.1,2.2-0.1,4.5-0.1,6.8s0,4.5,0.1,6.5c0.1,1.6,0.6,1.8,2.3,1.9c1.7,0,3.5,0.1,5.3,0.1C370.1,251.7,373.6,251.6,377.3,251.5
		L377.3,251.5z M361.9,250.1c-0.8,0-1.4-0.7-1.4-1.4c0-0.4,0.2-0.8,0.8-1c2.5-1.1,4.5-2.8,6.1-4.7c-1.5-1-3.1-2-4.7-2.9
		c-0.5-0.3-0.7-0.6-0.7-1c0-0.6,0.6-1.3,1.3-1.3c0.2,0,0.5,0.1,0.7,0.2c1.3,0.8,3.1,1.8,4.8,3c1-1.5,1.8-3.2,2.4-4.9
		c0.2-0.6,0.7-0.8,1.1-0.8c0.8,0,1.5,0.6,1.5,1.4c0,0.6-1.4,3.4-3,5.7c3.5,2.6,4.2,3.4,4.2,4.3c0,0.8-0.7,1.6-1.5,1.6
		c-0.4,0-0.8-0.2-1.1-0.6c-0.9-1.1-2-2.2-3.2-3.2C366,248.6,362.8,250.1,361.9,250.1z"/>
	<path class="st11" d="M385.3,254.8c-0.7-1-2.2-2.3-3.4-2.9c-0.5-0.3-0.8-0.7-0.8-1.1c0-0.6,0.5-1.2,1.3-1.2c1,0,5.5,2.5,5.5,4.4
		c0,0.9-0.8,1.5-1.5,1.5C386,255.4,385.6,255.2,385.3,254.8z"/>
	<path class="st11" d="M401.7,242c-0.9,0-1.4-0.7-1.4-1.4c0-0.6,0.4-1.3,1.2-1.3c1.3,0,2.6-0.1,4-0.1c1.1-2,2.9-5.9,3.4-8.1
		c0.2-0.6,0.7-0.9,1.3-0.9c0.8,0,1.7,0.6,1.7,1.5c0,1.4-3.3,7.2-3.4,7.4c3-0.2,6-0.4,8.7-0.8c-0.6-0.5-1.2-1-1.8-1.5
		c-0.4-0.3-0.6-0.6-0.6-1c0-0.6,0.6-1.3,1.4-1.3c0.3,0,0.6,0.1,0.9,0.3c0.8,0.5,6,4.3,6,6.2c0,0.9-0.8,1.6-1.5,1.6
		c-0.4,0-0.9-0.2-1.2-0.8c-0.4-0.6-0.8-1.1-1.2-1.7C412.7,241.5,402.8,242,401.7,242z M411.5,244.1c1.7,0,3.6,0,5.3,0.1
		c1.7,0.1,2.9,1.3,3,2.5c0.1,0.7,0.1,1.6,0.1,2.4c0,0.8,0,1.6-0.1,2.4c-0.1,1.5-1.2,2.9-3.1,2.9c-1.6,0.1-3.4,0.1-5.1,0.1
		c-1.7,0-3.4,0-5-0.1c-2-0.1-3.1-1.3-3.2-2.9c0-0.7-0.1-1.5-0.1-2.2s0-1.6,0.1-2.3c0.1-1.3,0.9-2.7,3.1-2.8
		C408.1,244.1,409.7,244.1,411.5,244.1z M417.2,249.4c0-0.6,0-1.2-0.1-1.8c-0.1-1.2-0.6-1.2-5.5-1.2c-1.5,0-3,0-4.2,0.1
		c-1.3,0.1-1.3,1-1.3,2.9c0,0.5,0,1,0.1,1.4c0.1,1.3,0.5,1.3,5.4,1.3c1.5,0,2.9,0,4.3-0.1C417.2,251.9,417.2,250.9,417.2,249.4z"/>
	<path class="st11" d="M436.5,254.2l0.1-5.1c-3.6,3-8.9,5.3-9.8,5.3c-0.8,0-1.5-0.6-1.5-1.3c0-0.4,0.3-0.9,1-1.1
		c3.6-1.3,6.3-2.6,9.2-4.9c-0.9,0-1.7,0.1-2.4,0.1c-3.1,0-3.5-1.6-3.6-2.5c-0.1-0.7-0.1-1.5-0.1-2.3c0-1,0-1.9,0.1-2.7
		c0.1-1.2,0.8-2.4,3-2.5c1,0,2.5-0.1,4-0.1v-1.7H428c-0.8,0-1.2-0.5-1.2-1.1c0-0.6,0.4-1.2,1.2-1.2h8.5v-1.8c0-0.8,0.6-1.2,1.3-1.2
		c0.7,0,1.4,0.4,1.4,1.2v1.8h8.5c0.8,0,1.1,0.6,1.1,1.1c0,0.6-0.4,1.1-1.1,1.1h-8.6v1.7c1.6,0,3.1,0,4.4,0.1c1.7,0,2.8,1.2,2.9,2.3
		c0.1,0.7,0.1,1.5,0.1,2.4c0,1,0,2-0.1,2.8c-0.1,1.4-1.2,2.5-3.1,2.6c-0.2,0-0.4,0-0.6,0c-0.8,0-1.8,0-2.7-0.1c3,2.3,6,3.4,9.4,4.6
		c0.6,0.2,0.9,0.6,0.9,1.1c0,0.6-0.6,1.5-1.7,1.5c-0.7,0-5.2-1.7-9.6-5.3c0,1.5,0.1,2.6,0.1,5.2c0,0.8-0.7,1.1-1.4,1.1
		C437.2,255.3,436.5,254.9,436.5,254.2L436.5,254.2z M436.5,239c-1.2,0-2.4,0-3.3,0.1c-1.4,0.1-1.4,1-1.4,2h4.7V239z M436.5,243
		h-4.7c0,1.3,0.1,2,1.4,2.1c1,0,2.1,0,3.3,0L436.5,243z M439.1,243v2.1c1.2,0,2.4,0,3.5,0c1.4,0,1.4-0.9,1.4-2.1H439.1z M444,241.1
		c0-0.3,0-0.6,0-0.9c-0.1-1.2-0.7-1.2-4.8-1.2v2.1H444z"/>
	<path class="st11" d="M474.2,251.5c0.8,0,1.2,0.6,1.2,1.3c0,0.6-0.4,1.3-1.2,1.3c-3.3,0.1-6.4,0.1-9.5,0.1c-2.5,0-5,0-7.6-0.1
		c-2.4-0.1-3.6-1.3-3.7-3.4s-0.1-4.4-0.1-6.9c0-2.9,0.1-5.9,0.1-8.7c0-1.8,1.4-3,3.5-3c2.4-0.1,5.3-0.1,8.1-0.1c2.9,0,5.9,0,8.5,0.1
		c0.8,0,1.2,0.6,1.2,1.2c0,0.6-0.4,1.2-1.2,1.2c-3.6,0-7.8-0.1-11.3-0.1c-1.6,0-3,0-4.2,0c-1.6,0-2,0.5-2,1.9
		c-0.1,2.2-0.1,4.5-0.1,6.8s0,4.5,0.1,6.5c0.1,1.6,0.6,1.8,2.3,1.9c1.7,0,3.5,0.1,5.3,0.1C466.9,251.7,470.5,251.6,474.2,251.5
		L474.2,251.5z M458.8,250.1c-0.8,0-1.4-0.7-1.4-1.4c0-0.4,0.2-0.8,0.8-1c2.5-1.1,4.5-2.8,6.1-4.7c-1.5-1-3.1-2-4.7-2.9
		c-0.5-0.3-0.7-0.6-0.7-1c0-0.6,0.6-1.3,1.3-1.3c0.2,0,0.5,0.1,0.7,0.2c1.3,0.8,3.1,1.8,4.8,3c1-1.5,1.8-3.2,2.4-4.9
		c0.2-0.6,0.7-0.8,1.1-0.8c0.8,0,1.5,0.6,1.5,1.4c0,0.6-1.4,3.4-3,5.7c3.5,2.6,4.2,3.4,4.2,4.3c0,0.8-0.7,1.6-1.5,1.6
		c-0.4,0-0.8-0.2-1.1-0.6c-0.9-1.1-2-2.2-3.2-3.2C462.9,248.6,459.6,250.1,458.8,250.1z"/>
</g>
<g>
	<path class="st11" d="M400.6,361.7c-1.8,2.2-4.6,5-5.9,5c-0.9,0-1.7-0.7-1.7-1.6c0-0.5,0.3-1,0.9-1.3c2-1.1,4.6-3.4,6.5-5.9
		l-4.8,0.1h0c-1,0-1.5-0.7-1.5-1.4c0-0.7,0.5-1.5,1.5-1.5h0l5.1,0l0-1.6v0c0-1,0.7-1.5,1.5-1.5c0.8,0,1.5,0.5,1.5,1.5v0l0,1.6l4.6,0
		h0c0.9,0,1.4,0.7,1.4,1.5c0,0.7-0.4,1.4-1.4,1.4h0l-4.6-0.1l0,1.4c0.2-0.1,0.5-0.3,0.7-0.3c0.6,0,3.1,1.2,4.1,2
		c0.4,0.3,0.6,0.8,0.6,1.2c0,0.9-0.7,1.8-1.6,1.8c-0.3,0-0.6-0.1-1-0.4c-0.9-0.8-1.9-1.6-2.8-2l0.1,7c0,0.9-0.8,1.4-1.6,1.4
		c-0.8,0-1.6-0.4-1.6-1.4L400.6,361.7z M395,351.9c-1,0-1.5-0.7-1.5-1.5c0-0.7,0.5-1.4,1.5-1.4h3.8c-0.2-0.2-0.3-0.4-0.4-0.7
		c-0.4-1.1-0.8-1.8-1.2-2.3c-0.2-0.3-0.3-0.6-0.3-0.8c0-0.7,0.8-1.3,1.6-1.3c1.6,0,2.9,3.2,2.9,3.8c0,0.6-0.3,1-0.7,1.3h1.7
		c0.6-1.1,1.2-2.9,1.6-4.1c0.2-0.8,0.8-1.2,1.4-1.2c0.9,0,1.8,0.7,1.8,1.6c0,0.5-0.6,1.7-1.6,3.6h3.4c1,0,1.5,0.7,1.5,1.4
		c0,0.7-0.5,1.5-1.5,1.5H395z M396,343.4c-1.1,0-1.6-0.7-1.6-1.4c0-0.7,0.5-1.4,1.6-1.4h4.5l0-2.1c0-1,0.9-1.6,1.7-1.6
		c0.9,0,1.7,0.5,1.7,1.6v2.1h4.2c1,0,1.5,0.7,1.5,1.4c0,0.7-0.5,1.5-1.5,1.5H396z M418.2,351.4h-3.8c-0.1,6-0.9,12.5-4.2,17
		c-0.5,0.7-1.2,1-1.8,1c-1,0-1.9-0.7-1.9-1.6c0-0.3,0.1-0.7,0.4-1c3.5-4.2,4.2-10.1,4.2-15.8c0-1.9-0.1-3.7-0.1-5.4
		c0-0.1,0-0.3,0-0.4c0-2.5,0.9-3.6,3.4-4.3c1.5-0.4,5.1-1.9,6.4-2.6c0.3-0.1,0.6-0.2,0.9-0.2c1.1,0,1.9,0.9,1.9,1.9
		c0,0.6-0.3,1.3-1.2,1.6c-1.2,0.6-5.4,1.9-6.4,2.2c-1.2,0.4-1.6,1-1.6,2.1v2.5l10.6-0.1c1.2,0,1.8,0.8,1.8,1.6
		c0,0.8-0.6,1.6-1.8,1.6h-3.5l0,17c0,1-0.9,1.6-1.7,1.6c-0.9,0-1.7-0.5-1.7-1.6L418.2,351.4z"/>
	<path class="st11" d="M432.4,360.8c-1.1,0-2-0.9-2-1.9c0-0.5,0.2-1,0.7-1.5c2.3-2.2,4.6-6,5.8-9c0.3-0.8,1-1.2,1.7-1.2
		c1,0,2,0.7,2,1.9c0,1.6-3.7,8.1-6.5,11C433.5,360.6,432.9,360.8,432.4,360.8z M449.1,363.9C449.1,364,449.1,364,449.1,363.9
		c0,2.4-1.7,5.6-6.9,5.6c-3,0-5-0.6-5-2.4c0-1,0.7-1.9,1.8-1.9c0.1,0,0.3,0,0.5,0c0.9,0.2,1.7,0.3,2.6,0.3c1.7,0,3-0.6,3-2.5v-22.9
		c0-1.3,1-1.9,2-1.9c1,0,1.9,0.6,1.9,1.9v19.3L449.1,363.9z M459.4,358.1c-1.4-2.8-3.8-6-6.1-8.1c-0.4-0.4-0.6-0.9-0.6-1.3
		c0-0.9,0.9-1.6,1.8-1.6c0.4,0,1,0.2,1.4,0.6c2.7,2.2,7.5,7.5,7.5,9.6c0,1.2-1,2.2-2.1,2.2C460.5,359.4,459.8,359,459.4,358.1z"/>
	<path class="st11" d="M482.6,353c-1,1.5-2.1,2.9-3.3,4.3c0.2,0,0.4,0,0.6,0c1.5,0,3.3-0.1,5.1-0.1c2.3,0,4.7,0,7,0.1
		c2.2,0,3.8,1.6,3.9,3.2c0,0.7,0.1,1.6,0.1,2.5c0,0.9,0,1.7-0.1,2.6c-0.1,1.9-1.6,3.6-4,3.6c-2.1,0.1-4.1,0.1-6.1,0.1
		c-1.9,0-3.9,0-5.9-0.1c-2.6-0.1-4-1.6-4.1-3.6c0-0.6,0-1.1,0-1.6c0-1.2,0-2.2,0.1-3.2v0c-1.5,1.3-3,2.5-4.9,3.8
		c-0.4,0.3-0.9,0.4-1.3,0.4c-1,0-1.9-0.9-1.9-1.8c0-0.6,0.3-1.2,1-1.6c4.2-2.4,7.3-4.9,10-8.5l-9,0.1c-1.1,0-1.7-0.8-1.7-1.6
		c0-0.8,0.6-1.6,1.7-1.6H498c1.1,0,1.7,0.8,1.7,1.6c0,0.8-0.6,1.6-1.7,1.6L482.6,353z M492.7,340.4
		C492.7,340.4,492.7,340.4,492.7,340.4c0-1.2,0.9-1.7,1.7-1.7c0.9,0,1.9,0.6,1.9,1.7c0,0.3,0,1,0,1.7c0,0.7,0,1.4,0,1.9
		c0,2.1-1.7,3.1-4.4,3.2c-2.6,0-5.5,0-8.3,0c-2.8,0-5.5,0-8,0c-3.8,0-4-1.7-4-4.9c0-0.7,0-1.4,0-1.8c0-1.2,1-1.7,1.9-1.7
		c0.9,0,1.8,0.6,1.8,1.6c0,0,0,0,0,0.1v2.6c0,0.8,0.1,1.2,1.3,1.2c1.5,0,3.4,0,5.4,0v-5.1c0-1.2,0.9-1.8,1.9-1.8
		c0.9,0,1.9,0.6,1.9,1.8v5.1c1.9,0,3.8,0,5.4-0.1c1.2,0,1.3-0.4,1.4-1.2V340.4z M479.2,363.4c0,0.4,0,0.8,0,1.2
		c0.1,1.5,0.6,1.5,6.5,1.5c1.7,0,3.4,0,5-0.1c1.3,0,1.6-0.5,1.6-2.8c0-0.6,0-1.1,0-1.7c-0.1-1.4-0.7-1.4-6-1.4c-1.9,0-3.7,0-5.4,0.1
		C479.2,360.2,479.2,361.4,479.2,363.4z"/>
	<path class="st11" d="M507.8,370.2c-0.9,0-1.8-0.6-1.8-1.6c0-6.8,0-19,0.2-26.8c0.1-3.5,2-3.5,5.4-3.5c0.7,0,1.4,0,2,0
		c2.1,0.1,3.2,1.2,3.2,2.8c0,0.7-0.2,1.8-2.2,6.1c-0.2,0.4-0.3,0.7-0.3,1c0,0.5,0.2,1,0.6,1.5c1.3,1.6,2,3.2,2,5.8
		c0,3.2-2,5.6-4.7,5.6c-0.6,0-2.6-0.1-2.6-1.8c0-0.8,0.6-1.6,1.3-1.6c0.1,0,0.3,0,0.4,0.1c0.2,0,0.3,0.1,0.5,0.1
		c0.8,0,1.7-0.7,1.7-2.7c0-1.7-0.5-3-1.5-4.3c-0.7-1-1-1.8-1-2.6c0-0.7,0.2-1.3,0.5-2.1c0.8-1.8,1.5-4,1.5-4.3
		c0-0.4-0.2-0.7-1.5-0.7c-1.4,0-2.1,0-2.1,1.3c0,3.5-0.1,7.8-0.1,12.5c0,11.6,0,13.2,0,13.8C509.6,369.6,508.7,370.2,507.8,370.2z
		 M513.4,368.2c0-0.7,0.4-1.4,1.4-1.8c5-1.8,6.4-4.7,7-8.6c0.1-1,0.9-1.5,1.6-1.5c0.9,0,1.9,0.7,1.9,1.7c0,0.1,0,0.2,0,0.3
		c-1.7,10-9.6,11.6-10.1,11.6C514.1,369.9,513.4,369.1,513.4,368.2z M533.5,347.7v-1.5c0-1.3-0.5-1.6-1.7-1.6c-1.5,0-3.3-0.1-5-0.1
		c-1.7,0-3.5,0-4.8,0.1c-1.4,0-1.8,0.4-1.8,1.5v1.6c0,1-0.9,1.6-1.7,1.6c-0.9,0-1.7-0.5-1.7-1.6c0-0.5,0-1.2,0-1.9
		c0-1.7,0.1-4.1,3.8-4.2c1.3,0,2.7-0.1,4.2-0.1l0-2.6v0c0-1.2,0.9-1.7,1.9-1.7c0.9,0,1.9,0.6,1.9,1.7v0l0,2.6c1.6,0,3.3,0,4.7,0.1
		c2.4,0.1,3.8,1.2,3.8,3.4c0,2.6,0,2.6,0,2.6c-0.1,1-1,1.6-1.9,1.6C534.3,349.3,533.5,348.8,533.5,347.7L533.5,347.7z M534.3,362.8
		c0-1,0.8-1.5,1.6-1.5c0.6,0,1.9,0.3,1.9,1.8c0,5.3-2,6.3-6,6.3c-3.9,0-4.9-1.6-4.9-4.3c0-1.3,0-7,0.1-9.4l-8.4,0.1
		c-1,0-1.5-0.8-1.5-1.6c0-0.7,0.5-1.5,1.5-1.5h16.9c1,0,1.4,0.8,1.4,1.6c0,0.8-0.5,1.5-1.4,1.5h0l-5.1-0.1c0,2.2-0.1,6.6-0.1,8.4
		c0,1,0.1,1.9,1.5,1.9c2.1,0,2.5-0.6,2.5-2.8C534.3,363.1,534.3,363,534.3,362.8L534.3,362.8z M522.4,350.1c-1,0-1.6-0.7-1.6-1.5
		c0-0.7,0.5-1.5,1.6-1.5h9c1,0,1.4,0.7,1.4,1.5c0,0.7-0.5,1.5-1.4,1.5H522.4z"/>
	<path class="st11" d="M399.7,397.5c-2.9-0.1-2.9-1.4-2.9-3.8c0-2.2,0-3.6,2.8-3.8c1.4-0.1,3.2-0.1,5.1-0.1c1.9,0,3.9,0,5.5,0.1
		c2.7,0.1,2.7,2,2.7,3.5c0,2.2,0,4-2.8,4.1c-1.7,0.1-3.6,0.1-5.4,0.1c-0.6,0-1.2,0-1.8,0c-0.4,0.5-0.9,1-1.4,1.5c2.8,0,6.6,0,9.4,0
		c0.7,0,1.3,0,1.9,0c2,0,3,1.1,3,2.7c0,0.2,0,0.5-0.1,0.7c-0.4,2.4-1.2,7.3-7.2,7.3c-0.9,0-1.8-0.1-2.9-0.3
		c-0.6-0.1-0.9-0.6-0.9-1.1c0-0.3,0.1-0.6,0.3-0.8c-0.6,0.1-1.3,0.1-2,0.1c-3.5,0-5.3-0.3-5.3-2.4c0,0,0.1-2.2,0.1-2.7
		c0-0.2,0.1-0.3,0.1-0.5c-0.8,0.6-3.1,2-4,2c-0.8,0-1.2-0.6-1.2-1.2c0-0.4,0.3-0.9,0.8-1.1c2.2-1,4.3-2,6.5-4.2L399.7,397.5z
		 M409.4,388.4v0.3c0,0.7-0.6,1-1.3,1c-0.6,0-1.3-0.3-1.3-1v-0.3h-3.8v0.3c0,0.7-0.6,1-1.3,1c-0.6,0-1.3-0.3-1.3-1v-0.3l-5.8,0
		c-0.8,0-1.2-0.6-1.2-1.1c0-0.6,0.4-1.1,1.2-1.1l5.8,0v-0.8c0-0.6,0.6-1,1.3-1c0.6,0,1.3,0.3,1.3,1v0.8h3.8v-0.8c0-0.6,0.6-1,1.3-1
		c0.6,0,1.3,0.3,1.3,1v0.8l6.1,0c0.8,0,1.1,0.6,1.1,1.1c0,0.6-0.4,1.1-1.1,1.1L409.4,388.4z M400.2,404.7v0.3c0,0.6,0.4,0.8,2.8,0.8
		c3.6,0,3.9-0.4,3.9-1.1c0-0.6,0.6-0.9,1.1-0.9c0.6,0,1.3,0.3,1.3,0.9c0,0,0,0.1,0,0.1c0,1.7-0.9,2.4-2.9,2.7
		c0.8,0.2,1.5,0.3,2.1,0.3c3.9,0,4.3-5,4.3-5.4c0-0.8-0.4-1.1-1-1.1c-2,0-5.6,0.1-8.8,0.1c-1.4,0-2.8,0-3.8,0
		c-0.2,0.1-0.4,0.3-0.5,0.4c0.1,0,0.3-0.1,0.4-0.1c0.6,0,1.2,0.3,1.2,1v0v0.5c1.7-0.3,4.8-0.9,6.2-1.3c0.1-0.1,0.3-0.1,0.4-0.1
		c0.6,0,1.1,0.5,1.1,1c0,0.4-0.3,0.8-0.9,0.9C405.6,404,401.7,404.6,400.2,404.7L400.2,404.7z M410.3,392.6
		c-0.1-0.9-0.4-0.9-5.3-0.9c-5.1,0-5.6,0-5.7,1l0,0.3h11V392.6z M410.3,394.5h-11c0,0.2,0,0.3,0,0.5c0.1,0.7,0.4,0.8,1.2,0.8
		c1.3,0,3.1,0,4.8,0c1.3,0,2.6,0,3.8,0c0.6,0,1.2-0.2,1.2-0.8V394.5z"/>
	<path class="st11" d="M426.5,392.1c0.3,0,0.5,0,0.6,0c1.3,0.1,2.5,0.8,2.5,2.3c0,1.1,0.1,2.3,0.1,3.5c0,3.4-0.1,4.3-4.6,4.3
		c-0.7,0-1.4,0-1.8-0.1c0,0.3,0,2.1,0,3.6c1.2-0.3,2.4-0.7,3.2-0.9c-0.6-0.8-0.6-1-0.6-1.2c0-0.6,0.6-1,1.2-1c0.3,0,0.6,0.1,0.9,0.3
		c0.7,0.6,2.7,2.9,2.7,4c0,0.8-0.6,1.4-1.3,1.4c-0.4,0-0.8-0.2-1.1-0.8c-0.1-0.3-0.3-0.6-0.5-0.9c-3,1.1-7.6,2.6-8.1,2.6
		c-0.7,0-1.2-0.7-1.2-1.3c0-0.9,0.4-1,2.4-1.5c0-0.6,0-1.4,0-2.2c0-3.7,0-8.8,0.1-9.9c0-1.1,0.6-2.3,3-2.3v-1.4c0-0.7,0.6-1,1.3-1
		c0.6,0,1.3,0.3,1.3,1V392.1z M428.9,391.7c-0.3,0-0.7-0.1-1-0.4c-0.9-1-1.6-2.2-2.4-3.3c-0.1-0.1-0.2-0.1-0.3-0.1
		c-0.1,0-0.2,0.1-0.3,0.2c-1,1.5-2.4,3.3-3.7,4.6c-0.3,0.3-0.7,0.4-1,0.4c-0.8,0-1.5-0.6-1.5-1.3c0-0.3,0.1-0.6,0.4-0.9
		c1.4-1.3,3-3.3,3.6-4.3c0.6-0.9,1.4-1.4,2.3-1.4s1.8,0.4,2.5,1.4c0.6,0.8,1.6,2,2.5,3c0.2,0.2,0.3,0.5,0.3,0.8
		C430.4,391,429.7,391.7,428.9,391.7z M423.3,398.1c0,0.9,0,1.7,0,2.1c0.3,0,1,0,1.7,0c0.6,0,1.3,0,1.6,0c0.8-0.1,0.8-0.7,0.8-2.1
		H423.3z M427.4,396.1c0-0.4,0-0.9,0-1.2c0-0.6-0.1-0.8-2-0.8c-1.8,0-2,0.2-2,0.9v1.2H427.4z M435.5,396.1l-1.1,0
		c-0.6,0-0.8,0.3-0.8,1c0,0.9,0,2.6,0,4.3s0,3.4,0,4.5v0c0,0.8-0.6,1.1-1.2,1.1c-0.6,0-1.2-0.4-1.2-1.2c0-1,0-2.7,0-4.5
		c0-1.8,0-3.6,0-4.8c0-2.7,1.9-2.7,4.3-2.7v-2.9h-1.9c-1.1,2-1.7,2.8-2.5,2.8c-0.6,0-1.3-0.5-1.3-1.1c0-0.2,0.1-0.5,0.3-0.8
		c1.4-1.8,2.4-3.9,3.1-6c0.2-0.6,0.6-0.8,1.1-0.8c0.7,0,1.3,0.4,1.3,1.1c0,0.3-0.1,0.8-0.9,2.4l7.4-0.1h0c0.8,0,1.2,0.6,1.2,1.2
		c0,0.6-0.4,1.2-1.2,1.2h-4.2v2.9c0.7,0,1.3,0,1.9,0c1.6,0.1,2.6,1,2.7,2.8v5.3c0,0.4,0.1,0.9,0.1,1.8c0,0.1,0,0.1,0,0.1
		c0,1.7-0.9,2.8-2.6,2.8c-1.8,0-1.9-0.8-1.9-1.3c0-0.6,0.3-1.1,0.8-1.1c0.1,0,0.1,0,0.2,0c0.2,0,0.3,0.1,0.5,0.1
		c0.4,0,0.6-0.3,0.6-1c0,0,0-1.2,0-2.6s0-2.9,0-3.7c-0.1-1-0.6-1-2.1-1l0,12.5c0,0.9-0.6,1.3-1.3,1.3c-0.6,0-1.3-0.4-1.3-1.3V396.1z
		"/>
	<path class="st11" d="M467.7,405.9c0.8,0,1.2,0.6,1.2,1.3c0,0.6-0.4,1.3-1.2,1.3c-3.3,0.1-6.4,0.1-9.5,0.1c-2.5,0-5,0-7.6-0.1
		c-2.4-0.1-3.6-1.3-3.7-3.4s-0.1-4.4-0.1-6.9c0-2.9,0.1-5.9,0.1-8.7c0-1.8,1.4-3,3.5-3c2.4-0.1,5.3-0.1,8.1-0.1c2.9,0,5.9,0,8.5,0.1
		c0.8,0,1.2,0.6,1.2,1.2c0,0.6-0.4,1.2-1.2,1.2c-3.6,0-7.8-0.1-11.3-0.1c-1.6,0-3,0-4.2,0c-1.6,0-2,0.5-2,1.9
		c-0.1,2.2-0.1,4.5-0.1,6.8s0,4.5,0.1,6.5c0.1,1.6,0.6,1.8,2.3,1.9c1.7,0,3.5,0.1,5.3,0.1C460.4,406,463.9,406,467.7,405.9
		L467.7,405.9z M452.2,404.5c-0.8,0-1.4-0.7-1.4-1.4c0-0.4,0.2-0.8,0.8-1c2.5-1.1,4.5-2.8,6.1-4.7c-1.5-1-3.1-2-4.7-2.9
		c-0.5-0.3-0.7-0.6-0.7-1c0-0.6,0.6-1.3,1.3-1.3c0.2,0,0.5,0.1,0.7,0.2c1.3,0.8,3.1,1.8,4.8,3c1-1.5,1.8-3.2,2.4-4.9
		c0.2-0.6,0.7-0.8,1.1-0.8c0.8,0,1.5,0.6,1.5,1.4c0,0.6-1.4,3.4-3,5.7c3.5,2.6,4.2,3.4,4.2,4.3c0,0.8-0.7,1.6-1.5,1.6
		c-0.4,0-0.8-0.2-1.1-0.6c-0.9-1.1-2-2.2-3.2-3.2C456.3,403,453.1,404.5,452.2,404.5z"/>
	<path class="st11" d="M475.6,409.2c-0.7-1-2.2-2.3-3.4-2.9c-0.5-0.3-0.8-0.7-0.8-1.1c0-0.6,0.5-1.2,1.3-1.2c1,0,5.5,2.5,5.5,4.4
		c0,0.9-0.8,1.5-1.5,1.5C476.3,409.8,475.9,409.6,475.6,409.2z"/>
	<path class="st11" d="M397,445c-1.2-1-2.5-1.5-3.6-1.9c-0.5-0.2-0.7-0.6-0.7-1c0-0.6,0.6-1.4,1.4-1.4c0.9,0,3,0.6,4.5,1.7
		c0.4,0.3,0.6,0.8,0.6,1.2c0,0.8-0.6,1.6-1.4,1.6C397.5,445.3,397.2,445.2,397,445z M394.7,457.3c-0.8,0-1.5-0.7-1.5-1.4
		c0-0.3,0.1-0.6,0.4-1c1.7-1.8,3.2-4.5,4.2-6.8c0.2-0.5,0.7-0.8,1.1-0.8c0.7,0,1.4,0.5,1.4,1.3c0,0.9-2.2,5.5-4.3,8
		C395.6,457.1,395.2,457.3,394.7,457.3z M398.1,439.1c-1.1-1.3-2.4-2-3.4-2.6c-0.4-0.2-0.6-0.5-0.6-0.8c0-0.7,0.7-1.3,1.5-1.3
		c0.7,0,4.9,2.1,4.9,3.7c0,0.8-0.7,1.6-1.5,1.6C398.7,439.6,398.4,439.5,398.1,439.1z M401,456.3c-0.8,0-1.3-0.6-1.3-1.2
		s0.4-1.2,1.3-1.2l6,0v-15.2l-4.5,0c-0.8,0-1.3-0.6-1.3-1.2s0.4-1.2,1.3-1.2h12.5c0.9,0,1.3,0.6,1.3,1.2s-0.4,1.2-1.3,1.2l-5.2,0
		v15.2l6.3,0c0.9,0,1.3,0.6,1.3,1.2s-0.4,1.2-1.3,1.2H401z"/>
	<path class="st11" d="M421.6,456.9c-0.4,0.5-0.9,0.7-1.3,0.7c-0.8,0-1.5-0.6-1.5-1.3c0-0.3,0.1-0.6,0.4-0.9
		c2.8-3.2,3.2-6.6,3.2-11.4c0-0.6,0-1.2,0-1.8c0,0,0-0.1,0-0.1c0-1.5,0.9-2.6,3.1-2.7c2-0.1,3.9-0.1,5.9-0.1c2,0,4,0,6.1,0.1
		c3.4,0.1,3.4,1.8,3.4,4.3c0,2.2-0.1,4.3-3.5,4.3c-2.3,0.1-4.4,0.1-6.8,0.1c-1.7,0-3.5,0-5.6,0C424.5,451.5,423.5,454.5,421.6,456.9
		z M421.3,436.8c-0.8,0-1.2-0.6-1.2-1.2c0-0.6,0.4-1.2,1.2-1.2h20.2c0.8,0,1.1,0.6,1.1,1.2c0,0.6-0.4,1.2-1.1,1.2H421.3z
		 M429.5,445.6c2.7,0,5,0,7.4-0.1c0.9,0,1.1-0.6,1.1-1.8c0-1.2-0.1-1.9-1.2-1.9c-1.6-0.1-3.1-0.1-4.5-0.1c-2,0-3.8,0-5.9,0.1
		c-0.8,0-1.3,0.4-1.3,1.2c0,0.9,0,1.8-0.1,2.6C426.7,445.6,428.2,445.6,429.5,445.6z"/>
	<path class="st11" d="M446,457.7c-0.8,0-1.6-0.7-1.6-1.4c0-0.3,0.1-0.6,0.4-0.8c4.3-4.3,4.3-9.6,4.3-14.6c0-1.8-0.1-4-0.1-5.5
		c0,0,0-0.1,0-0.1c0-0.8,0.7-1.1,1.4-1.1c0.7,0,1.5,0.4,1.5,1.2c0,0.6,0.1,1.3,0.1,2.1c0,1.9-0.1,4-0.1,5.6c0,4.1-0.5,9.9-4.7,14.2
		C446.7,457.6,446.4,457.7,446,457.7z M456.4,435.9c0-0.8,0.7-1.2,1.4-1.2s1.4,0.4,1.4,1.2v18.5c0,0.8-0.7,1.1-1.4,1.1
		c-0.7,0-1.4-0.4-1.4-1.1V435.9z M464.2,435.1c0-0.8,0.7-1.2,1.4-1.2c0.7,0,1.4,0.4,1.4,1.2v21.4c0,0.8-0.7,1.1-1.4,1.1
		c-0.7,0-1.4-0.4-1.4-1.1V435.1z"/>
	<path class="st11" d="M494,454.2c0.8,0,1.2,0.6,1.2,1.3c0,0.6-0.4,1.3-1.2,1.3c-3.3,0.1-6.4,0.1-9.5,0.1c-2.5,0-5,0-7.6-0.1
		c-2.4-0.1-3.6-1.3-3.7-3.4s-0.1-4.4-0.1-6.9c0-2.9,0.1-5.9,0.1-8.7c0-1.8,1.4-3,3.5-3c2.4-0.1,5.3-0.1,8.1-0.1c2.9,0,5.9,0,8.5,0.1
		c0.8,0,1.2,0.6,1.2,1.2c0,0.6-0.4,1.2-1.2,1.2c-3.6,0-7.8-0.1-11.3-0.1c-1.6,0-3,0-4.2,0c-1.6,0-2,0.5-2,1.9
		c-0.1,2.2-0.1,4.5-0.1,6.8s0,4.5,0.1,6.5c0.1,1.6,0.6,1.8,2.3,1.9c1.7,0,3.5,0.1,5.3,0.1C486.7,454.3,490.2,454.3,494,454.2
		L494,454.2z M478.5,452.8c-0.8,0-1.4-0.7-1.4-1.4c0-0.4,0.2-0.8,0.8-1c2.5-1.1,4.5-2.8,6.1-4.7c-1.5-1-3.1-2-4.7-2.9
		c-0.5-0.3-0.7-0.6-0.7-1c0-0.6,0.6-1.3,1.3-1.3c0.2,0,0.5,0.1,0.7,0.2c1.3,0.8,3.1,1.8,4.8,3c1-1.5,1.8-3.2,2.4-4.9
		c0.2-0.6,0.7-0.8,1.1-0.8c0.8,0,1.5,0.6,1.5,1.4c0,0.6-1.4,3.4-3,5.7c3.5,2.6,4.2,3.4,4.2,4.3c0,0.8-0.7,1.6-1.5,1.6
		c-0.4,0-0.8-0.2-1.1-0.6c-0.9-1.1-2-2.2-3.2-3.2C482.7,451.3,479.4,452.8,478.5,452.8z"/>
	<path class="st11" d="M502,457.5c-0.7-1-2.2-2.3-3.4-2.9c-0.5-0.3-0.8-0.7-0.8-1.1c0-0.6,0.5-1.2,1.3-1.2c1,0,5.5,2.5,5.5,4.4
		c0,0.9-0.8,1.5-1.5,1.5C502.6,458.1,502.2,457.9,502,457.5z"/>
	<path class="st11" d="M397,493.3c-1.2-1-2.5-1.5-3.6-1.9c-0.5-0.2-0.7-0.6-0.7-1c0-0.6,0.6-1.4,1.4-1.4c0.9,0,3,0.6,4.5,1.7
		c0.4,0.3,0.6,0.8,0.6,1.2c0,0.8-0.6,1.6-1.4,1.6C397.5,493.7,397.2,493.6,397,493.3z M394.7,505.7c-0.8,0-1.5-0.7-1.5-1.4
		c0-0.3,0.1-0.6,0.4-1c1.7-1.8,3.2-4.5,4.2-6.8c0.2-0.5,0.7-0.8,1.1-0.8c0.7,0,1.4,0.5,1.4,1.3c0,0.9-2.2,5.5-4.3,8
		C395.6,505.5,395.2,505.7,394.7,505.7z M398.1,487.5c-1.1-1.3-2.4-2-3.4-2.6c-0.4-0.2-0.6-0.5-0.6-0.8c0-0.7,0.7-1.3,1.5-1.3
		c0.7,0,4.9,2.1,4.9,3.7c0,0.8-0.7,1.6-1.5,1.6C398.7,487.9,398.4,487.8,398.1,487.5z M401,504.6c-0.8,0-1.3-0.6-1.3-1.2
		s0.4-1.2,1.3-1.2l6,0V487l-4.5,0c-0.8,0-1.3-0.6-1.3-1.2s0.4-1.2,1.3-1.2h12.5c0.9,0,1.3,0.6,1.3,1.2s-0.4,1.2-1.3,1.2l-5.2,0v15.2
		l6.3,0c0.9,0,1.3,0.6,1.3,1.2s-0.4,1.2-1.3,1.2H401z"/>
	<path class="st11" d="M429.9,505.2l0.1-5.1c-3.6,3-8.9,5.3-9.8,5.3c-0.8,0-1.5-0.6-1.5-1.3c0-0.4,0.3-0.9,1-1.1
		c3.6-1.3,6.3-2.6,9.2-4.9c-0.9,0-1.7,0.1-2.4,0.1c-3.1,0-3.5-1.6-3.6-2.5c-0.1-0.7-0.1-1.5-0.1-2.3c0-1,0-1.9,0.1-2.7
		c0.1-1.2,0.8-2.4,3-2.5c1,0,2.5-0.1,4-0.1v-1.7h-8.5c-0.8,0-1.2-0.5-1.2-1.1c0-0.6,0.4-1.2,1.2-1.2h8.5v-1.8c0-0.8,0.6-1.2,1.3-1.2
		c0.7,0,1.4,0.4,1.4,1.2v1.8h8.5c0.8,0,1.1,0.6,1.1,1.1c0,0.6-0.4,1.1-1.1,1.1h-8.6v1.7c1.6,0,3.1,0,4.4,0.1c1.7,0,2.8,1.2,2.9,2.3
		c0.1,0.7,0.1,1.5,0.1,2.4c0,1,0,2-0.1,2.8c-0.1,1.4-1.2,2.5-3.1,2.6c-0.2,0-0.4,0-0.6,0c-0.8,0-1.8,0-2.7-0.1c3,2.3,6,3.4,9.4,4.6
		c0.6,0.2,0.9,0.6,0.9,1.1c0,0.6-0.6,1.5-1.7,1.5c-0.7,0-5.2-1.7-9.6-5.3c0,1.5,0.1,2.6,0.1,5.2c0,0.8-0.7,1.1-1.4,1.1
		C430.6,506.3,429.9,505.9,429.9,505.2L429.9,505.2z M430,490c-1.2,0-2.4,0-3.3,0.1c-1.4,0.1-1.4,1-1.4,2h4.7V490z M430,494h-4.7
		c0,1.3,0.1,2,1.4,2.1c1,0,2.1,0,3.3,0L430,494z M432.5,494v2.1c1.2,0,2.4,0,3.5,0c1.4,0,1.4-0.9,1.4-2.1H432.5z M437.4,492.1
		c0-0.3,0-0.6,0-0.9c-0.1-1.2-0.7-1.2-4.8-1.2v2.1H437.4z"/>
	<path class="st11" d="M467.7,502.5c0.8,0,1.2,0.6,1.2,1.3c0,0.6-0.4,1.3-1.2,1.3c-3.3,0.1-6.4,0.1-9.5,0.1c-2.5,0-5,0-7.6-0.1
		c-2.4-0.1-3.6-1.3-3.7-3.4s-0.1-4.4-0.1-6.9c0-2.9,0.1-5.9,0.1-8.7c0-1.8,1.4-3,3.5-3c2.4-0.1,5.3-0.1,8.1-0.1c2.9,0,5.9,0,8.5,0.1
		c0.8,0,1.2,0.6,1.2,1.2c0,0.6-0.4,1.2-1.2,1.2c-3.6,0-7.8-0.1-11.3-0.1c-1.6,0-3,0-4.2,0c-1.6,0-2,0.5-2,1.9
		c-0.1,2.2-0.1,4.5-0.1,6.8s0,4.5,0.1,6.5c0.1,1.6,0.6,1.8,2.3,1.9c1.7,0,3.5,0.1,5.3,0.1C460.4,502.7,463.9,502.6,467.7,502.5
		L467.7,502.5z M452.2,501.2c-0.8,0-1.4-0.7-1.4-1.4c0-0.4,0.2-0.8,0.8-1c2.5-1.1,4.5-2.8,6.1-4.7c-1.5-1-3.1-2-4.7-2.9
		c-0.5-0.3-0.7-0.6-0.7-1c0-0.6,0.6-1.3,1.3-1.3c0.2,0,0.5,0.1,0.7,0.2c1.3,0.8,3.1,1.8,4.8,3c1-1.5,1.8-3.2,2.4-4.9
		c0.2-0.6,0.7-0.8,1.1-0.8c0.8,0,1.5,0.6,1.5,1.4c0,0.6-1.4,3.4-3,5.7c3.5,2.6,4.2,3.4,4.2,4.3c0,0.8-0.7,1.6-1.5,1.6
		c-0.4,0-0.8-0.2-1.1-0.6c-0.9-1.1-2-2.2-3.2-3.2C456.3,499.6,453.1,501.2,452.2,501.2z"/>
	<path class="st11" d="M475.6,505.8c-0.7-1-2.2-2.3-3.4-2.9c-0.5-0.3-0.8-0.7-0.8-1.1c0-0.6,0.5-1.2,1.3-1.2c1,0,5.5,2.5,5.5,4.4
		c0,0.9-0.8,1.5-1.5,1.5C476.3,506.4,475.9,506.2,475.6,505.8z"/>
	<path class="st11" d="M394.2,553.9c-0.7,0-1.1-0.5-1.1-1s0.4-1,1.1-1h9.4v-1.5h-6.4c-0.7,0-1.1-0.5-1.1-0.9c0-0.5,0.4-1,1.1-1h6.4
		V548c0-0.7,0.6-1.1,1.3-1.1c0.6,0,1.3,0.4,1.3,1.1v0.6h6.6c0.7,0,1.1,0.5,1.1,0.9c0,0.5-0.3,1-1.1,1h-6.6v1.5h9.7
		c0.7,0,1.1,0.5,1.1,1s-0.3,1-1.1,1H394.2z M394.5,544c-0.7,0-1-0.5-1-1c0-0.5,0.3-1,1-1h9.1V541h-7c-0.7,0-1-0.4-1-0.9
		c0-0.4,0.3-0.9,1-0.9h7v-1c-1.6,0-3.1,0-4.3-0.1c-2-0.1-3-0.9-3.1-2.1c0-0.5,0-1.1,0-1.6c0-0.6,0-1.1,0-1.5c0.1-1,0.8-2.1,3-2.1
		c1.5,0,3.5-0.1,5.6-0.1c2.1,0,4.3,0,6,0.1c1.7,0,2.8,1,2.9,1.9c0.1,0.4,0.1,1,0.1,1.6s0,1.2-0.1,1.7c-0.1,1.1-1.2,2.1-3,2.2
		c-1.3,0.1-3,0.1-4.6,0.1v1h7.1c0.7,0,1.1,0.5,1.1,1c0,0.4-0.3,0.8-1,0.8h-7.2v1.1h9.4c0.7,0,1,0.5,1,1c0,0.5-0.3,1-1,1H394.5z
		 M393.7,547.6c0-0.3,0.2-0.7,0.7-1c0.5-0.3,1.3-1.1,1.5-1.6c0.2-0.5,0.6-0.8,1.1-0.8c0.6,0,1.2,0.4,1.2,1c0,1.2-1.8,3.4-3.2,3.4
		C394.3,548.6,393.7,548.1,393.7,547.6z M403.7,535.1h-5c0,0.1,0,0.2,0,0.3c0.1,0.8,0.5,0.9,1.4,1c1,0,2.2,0,3.6,0V535.1z
		 M403.7,532.4c-1.4,0-2.7,0-3.6,0c-0.9,0-1.3,0.4-1.4,1v0.2h5V532.4z M402.4,548.1c-0.5,0-1.1-0.3-1.1-0.9c0,0,0,0,0-0.1
		c0-0.1,0-0.1,0-0.2c0-0.6-0.1-1.2-0.3-1.7c-0.1-0.1-0.1-0.2-0.1-0.3c0-0.4,0.5-0.7,1.1-0.7c1.5,0,1.7,2.1,1.7,2.8
		S403,548.1,402.4,548.1z M411.4,533.4c0-0.6-0.4-0.9-1.4-0.9c-0.9,0-2.4,0-3.9,0v1.1h5.3V533.4z M411.4,535.1h-5.3v1.3
		c1.4,0,2.8,0,3.9,0c0.9,0,1.3-0.3,1.3-1V535.1z M408.5,548.1c-0.5,0-1-0.3-1.1-0.8c-0.2-0.8-0.5-1.3-0.8-1.8
		c-0.1-0.2-0.2-0.3-0.2-0.4c0-0.4,0.5-0.8,1.1-0.8c1.2,0,2.3,2,2.3,2.8C409.8,547.7,409.2,548.1,408.5,548.1z M415,548.4
		c-0.4,0-0.8-0.2-1-0.6c-0.4-0.8-1-1.4-1.7-1.9c-0.3-0.2-0.4-0.4-0.4-0.6c0-0.5,0.6-1,1.2-1c1.1,0,3.2,2.1,3.2,3
		C416.3,547.9,415.7,548.4,415,548.4z"/>
	<path class="st11" d="M438,553c-2.5,0.1-4.9,0.1-7.3,0.1c-2,0-3.9-0.1-5.7-0.1c-2.4-0.1-3.7-1.3-3.8-3.3c-0.1-1.7-0.1-4.4-0.1-7.1
		c0-2.4,0-4.6,0.1-6.1c0.1-2.4,1.1-3.8,3.8-3.8c2.3-0.1,4.8-0.1,7.3-0.1c2,0,4,0,5.8,0.1c1.7,0.1,3.4,1.3,3.4,3.2
		c0.1,1.7,0.1,4.2,0.1,6.7c0,2.8,0,5.5-0.1,7C441.4,551.5,440,553,438,553z M429.9,534.9c-5.5,0-5.9,0.1-6,1.9
		c0,1.1-0.1,2.6-0.1,4.2h6.1V534.9z M429.9,543.4h-6.1c0,2,0,4,0.1,5.3c0.1,1.8,0.6,1.9,6,1.9V543.4z M438.9,541.1
		c0-1.6-0.1-3.1-0.1-4.2c-0.1-1.9-0.5-1.9-6.4-1.9v6.2H438.9z M432.5,543.4v7.2c1.5,0,2.9-0.1,4.2-0.1c1.6,0,2.1-0.7,2.2-1.9
		c0.1-1.3,0.1-3.2,0.1-5.2H432.5z"/>
	<path class="st11" d="M467.7,550.9c0.8,0,1.2,0.6,1.2,1.3c0,0.6-0.4,1.3-1.2,1.3c-3.3,0.1-6.4,0.1-9.5,0.1c-2.5,0-5,0-7.6-0.1
		c-2.4-0.1-3.6-1.3-3.7-3.4s-0.1-4.4-0.1-6.9c0-2.9,0.1-5.9,0.1-8.7c0-1.8,1.4-3,3.5-3c2.4-0.1,5.3-0.1,8.1-0.1c2.9,0,5.9,0,8.5,0.1
		c0.8,0,1.2,0.6,1.2,1.2c0,0.6-0.4,1.2-1.2,1.2c-3.6,0-7.8-0.1-11.3-0.1c-1.6,0-3,0-4.2,0c-1.6,0-2,0.5-2,1.9
		c-0.1,2.2-0.1,4.5-0.1,6.8s0,4.5,0.1,6.5c0.1,1.6,0.6,1.8,2.3,1.9c1.7,0,3.5,0.1,5.3,0.1C460.4,551,463.9,550.9,467.7,550.9
		L467.7,550.9z M452.2,549.5c-0.8,0-1.4-0.7-1.4-1.4c0-0.4,0.2-0.8,0.8-1c2.5-1.1,4.5-2.8,6.1-4.7c-1.5-1-3.1-2-4.7-2.9
		c-0.5-0.3-0.7-0.6-0.7-1c0-0.6,0.6-1.3,1.3-1.3c0.2,0,0.5,0.1,0.7,0.2c1.3,0.8,3.1,1.8,4.8,3c1-1.5,1.8-3.2,2.4-4.9
		c0.2-0.6,0.7-0.8,1.1-0.8c0.8,0,1.5,0.6,1.5,1.4c0,0.6-1.4,3.4-3,5.7c3.5,2.6,4.2,3.4,4.2,4.3c0,0.8-0.7,1.6-1.5,1.6
		c-0.4,0-0.8-0.2-1.1-0.6c-0.9-1.1-2-2.2-3.2-3.2C456.3,548,453.1,549.5,452.2,549.5z"/>
</g>
<rect x="2.4" y="2.6" class="st12" width="589.6" height="589.6"/>
<circle class="st13" cx="113.7" cy="336.2" r="9.1"/>
<circle class="st14" cx="218.7" cy="430.1" r="9.1"/>
</svg>
