<?xml version="1.0" encoding="utf-8"?>
<!-- Generator: Adobe Illustrator 28.1.0, SVG Export Plug-In . SVG Version: 6.00 Build 0)  -->
<svg version="1.1" id="レイヤー_1" xmlns="http://www.w3.org/2000/svg" xmlns:xlink="http://www.w3.org/1999/xlink" x="0px"
	 y="0px" viewBox="0 0 330 165" style="enable-background:new 0 0 330 165;" xml:space="preserve">
<style type="text/css">
	.st0{fill:#FFFFFF;}
	.st1{fill:none;stroke:#92D050;stroke-width:2.7;stroke-miterlimit:10;}
	.st2{fill:#92D050;}
	.st3{fill:#4D4D4D;}
	.st4{fill:none;stroke:#92D050;stroke-width:2.7;stroke-linejoin:round;}
</style>
<g>
	<g id="_レイヤー_2">
		<g id="_レイヤー_1-2">
			<path class="st0" d="M13.1,165C5.8,165,0,158.4,0,150.1V14.9C0,6.7,5.8,0,13.1,0H317c7.3,0,13.1,6.7,13.1,14.9v135.2
				c0,8.2-5.8,14.9-13.1,14.9L13.1,165L13.1,165z"/>
			<line class="st1" x1="34" y1="73.5" x2="283.4" y2="73.5"/>
			<circle class="st2" cx="283.4" cy="73.5" r="9.2"/>
			<circle class="st2" cx="63.3" cy="73.5" r="9.2"/>
			<circle class="st2" cx="173.3" cy="73.5" r="9.2"/>
			<circle class="st2" cx="228.3" cy="73.5" r="9.2"/>
			<circle class="st2" cx="118.3" cy="74" r="9.2"/>
			<g>
				<path class="st3" d="M49.6,86.7c0.7,0.6,1.5,1.3,1.9,1.8L51,89.1c-0.4-0.5-1.1-1.2-1.7-1.8c-0.3,0.6-0.7,1.2-1.2,1.9h2.8v0.6
					h-1.3v1.3h1.6v0.7h-1.6v3.1c0.6,0,1.2-0.2,1.8-0.3v0.6c-1.5,0.3-3,0.5-4,0.7c0,0,0,0-0.2,0.2l-0.3-0.8l1.9-0.3v-3.2H47v-0.7h1.8
					v-1.3h-1.2v-0.2c0,0-0.2,0.3-0.3,0.4c0-0.2-0.4-0.4-0.5-0.5c1-0.9,1.7-2.2,2.1-3.1h0.9C49.8,86.6,49.8,86.7,49.6,86.7
					C49.6,86.7,49.6,86.7,49.6,86.7z M47.8,94.6c0-0.6-0.2-1.4-0.5-2.1h0.5c0.3,0.6,0.5,1.4,0.5,2L47.8,94.6L47.8,94.6z M51.2,92.5
					c0,0,0,0-0.2,0c0,0.5-0.4,1.3-0.6,1.9l-0.5-0.2c0.2-0.5,0.4-1.4,0.6-2L51.2,92.5L51.2,92.5z M56.8,92.2V95
					c0,0.7-0.3,0.8-1.4,0.8c0-0.2,0-0.5-0.2-0.6h0.5c0.3,0,0.4,0,0.4,0v-2.1h-1.7v3.8h-0.7v-3.8h-1.6V96h-0.7v-3.6h2.2v-0.9h-2v-3.7
					h1.7c0-0.4,0.3-0.8,0.3-1.1l0.9,0.2c0,0,0,0-0.2,0c0,0.2-0.2,0.5-0.3,0.8h2.4v3.7h-2c0,0,0,0-0.2,0v0.8L56.8,92.2L56.8,92.2z
					 M52.5,88.1v1H56v-1H52.5z M52.5,89.7v1H56v-1H52.5z"/>
				<path class="st3" d="M65.4,89.9c1,0.9,2.2,2.2,2.8,3l-0.7,0.4c-0.2-0.3-0.4-0.6-0.7-0.9c-1.1,0-2.3,0-3.4,0v4.2h-0.8v-4.2
					c-1.6,0-3.1,0-4.1,0c0,0,0,0-0.2,0.2L58,91.7h2.4c0.4-0.3,0.8-0.6,1.2-1c-0.7-0.6-1.9-1.5-2.8-2l0.5-0.5
					c0.3,0.2,0.5,0.3,0.8,0.5c0.7-0.7,1.5-1.7,2-2.4l0.9,0.5c0,0-0.1,0-0.3,0c-0.5,0.7-1.4,1.6-2.1,2.3c0.6,0.4,1.1,0.8,1.6,1.1
					c1.1-0.9,2.1-2,2.8-2.8l0.9,0.5c0,0,0,0-0.3,0c-1.1,1.2-2.7,2.6-4.1,3.7h4.7l-1.5-1.5l0.7-0.6L65.4,89.9z M61.4,93.7
					c0,0-0.2,0-0.3,0c-0.7,0.9-1.6,1.9-2.5,2.5c-0.2,0-0.4-0.3-0.6-0.5c0.8-0.6,1.8-1.6,2.5-2.5L61.4,93.7L61.4,93.7z M67.4,96.2
					c-0.5-0.7-1.7-1.8-2.7-2.6l0.6-0.4c0.9,0.7,2.1,1.8,2.7,2.6L67.4,96.2z"/>
				<path class="st3" d="M74.1,87v7.5h-4.2v0.8h-0.6V87C69.3,87,74.1,87,74.1,87z M71.4,87.7H70v2.7h1.4V87.7z M69.9,91v2.8h1.4V91
					H69.9z M73.4,90.4v-2.7H72v2.7H73.4z M72,93.9h1.5V91H72V93.9z M79.2,87.8v0.7h-1.6v7.1c0,1-0.5,1-2.6,1c0-0.2-0.2-0.5-0.3-0.7
					h1.2c0.7,0,1-0.1,1-0.3v-7.1h-2.6v-0.7H79.2z"/>
			</g>
			<g>
				<path class="st3" d="M57.6,101.6v0.8h-3l-0.3,2.3h0.6c1.5,0,2.8,0.9,2.8,2.5s-1.2,2.8-2.8,2.8s-1.5-0.2-1.9-0.5l0.3-0.7
					c0.3,0.2,0.9,0.5,1.6,0.5c1,0,1.9-0.8,1.9-1.9s-0.7-1.9-2.3-1.9s-0.8,0-1.1,0l0.5-3.8h3.7V101.6L57.6,101.6z"/>
				<path class="st3" d="M59,105.7c0-2.9,1.1-4.3,2.7-4.3s2.5,1.5,2.5,4.2s-1,4.3-2.6,4.3C60,110,59,108.5,59,105.7z M63.2,105.7
					c0-2.1-0.5-3.5-1.7-3.5s-1.7,1.3-1.7,3.5s0.6,3.5,1.6,3.5S63.2,107.6,63.2,105.7z"/>
				<path class="st3" d="M69.1,101.1c0,0,0,0-0.3,0c-0.8,1.7-2,3.4-3.4,4.4c0,0-0.4-0.4-0.6-0.5c1.4-0.9,2.6-2.5,3.3-4.2L69.1,101.1
					L69.1,101.1z M72.9,104.8h0.6v0.3c-0.2,3.6-0.3,4.8-0.7,5.2c-0.3,0.4-0.6,0.4-1.3,0.4h-1.3c0-0.2,0-0.5-0.2-0.7
					c0.7,0,1.5,0,1.7,0s0.4,0,0.5,0c0.3-0.3,0.5-1.4,0.6-4.4h-3c-0.3,2.1-0.9,4.2-3.9,5.3c0-0.2-0.3-0.5-0.5-0.6
					c2.7-0.9,3.3-2.7,3.6-4.7h-2.4v-0.7h6.3L72.9,104.8z M72,100.8c0.7,1.5,2.2,3.2,3.4,4.1c-0.2,0.2-0.5,0.5-0.6,0.7
					c-1.2-1-2.7-2.8-3.5-4.4C71.3,101.2,72,100.8,72,100.8z"/>
			</g>
			<g>
				<path class="st3" d="M104.9,93c0.4,0.3,1.6,1.2,1.8,1.5l-0.4,0.6c-0.3-0.3-0.9-0.9-1.4-1.3v3h-0.7v-3c-0.5,0.9-1.2,1.7-1.8,2.2
					c0-0.2-0.3-0.4-0.5-0.5c0.8-0.5,1.6-1.6,2.2-2.6h-2V92h2.1v-1.2h-2.3v-0.6h1.4c0-0.5-0.2-1.2-0.5-1.7l0.6-0.2
					c0.3,0.6,0.5,1.3,0.5,1.7h-0.4h1.8H105c0.2-0.5,0.5-1.3,0.6-1.8l0.8,0.3c0,0,0,0-0.2,0c-0.2,0.4-0.4,1.1-0.6,1.5h1.6v0.6h-2.3
					v1.1h2.2v0.6h-2.2v0.6L104.9,93z M107,87.7v0.6h-4.9v-0.6h2v-1.2h0.9c0,0.2,0,0.2-0.2,0.3v1h2.2V87.7z M112.2,90.2v0.7h-1.3v5.7
					h-0.7v-5.7h-1.7v0.4c0,1.7-0.2,3.8-1.8,5.4c0-0.2-0.3-0.4-0.5-0.5c1.4-1.4,1.6-3.3,1.6-4.9v-3.8l0.5,0.2
					c1.1-0.3,2.4-0.8,3.1-1.2l0.7,0.6c0,0,0,0-0.2,0c-0.8,0.4-2.2,0.9-3.4,1.2v2L112.2,90.2L112.2,90.2z"/>
				<path class="st3" d="M115.8,89.4c0,0,0,0-0.2,0c-0.3,1.4-1,3.4-2,4.7c-0.2,0-0.5-0.3-0.7-0.4c1-1.2,1.6-3.1,1.9-4.6l1,0.2
					L115.8,89.4z M117.7,86.6h1c0,0.2,0,0.2-0.2,0.3v8.8c0,0.6-0.2,0.8-0.5,0.9c-0.4,0-1.1,0-2.1,0c0-0.2-0.2-0.6-0.3-0.8h1.3
					c0.8,0,0.9,0,0.9-0.3v-9L117.7,86.6L117.7,86.6z M122.5,94.4c-0.3-1.3-1.2-3.4-2.2-5l0.7-0.3c1,1.6,1.9,3.6,2.2,5L122.5,94.4z"
					/>
				<path class="st3" d="M134,91.2h-6c-0.3,0.5-0.6,1-1,1.5h6.2v3.9h-0.8v-0.4H127v0.5h-0.7v-3.1c-0.6,0.6-1.3,1.2-2,1.6
					c0-0.2-0.3-0.5-0.5-0.6c1.5-0.8,2.7-2.1,3.4-3.4h-3.1v-0.7h9.9V91.2z M133.5,87c0,0-0.1,0-0.2,0.2v2.2H125v-2.5h1
					c0,0.2,0,0.2-0.2,0.3v1.6h2.9v-2.3h1c0,0.2-0.1,0.2-0.2,0.3v2.1h3v-1.8L133.5,87L133.5,87z M132.5,95.5v-2.1H127v2.1H132.5z"/>
			</g>
			<g>
				<path class="st3" d="M112.1,109.8h-0.9v-2.3h-3.6v-0.6l3.5-5.3h0.9v5.2h1.1v0.7H112L112.1,109.8L112.1,109.8L112.1,109.8z
					 M108.6,106.8h2.7v-4.2l0,0c-0.3,0.5-0.5,0.9-0.7,1.2L108.6,106.8L108.6,106.8z"/>
				<path class="st3" d="M114,105.7c0-2.9,1.1-4.3,2.7-4.3s2.5,1.5,2.5,4.2s-1,4.3-2.6,4.3C115,110,114,108.5,114,105.7z
					 M118.2,105.7c0-2.1-0.5-3.5-1.7-3.5s-1.7,1.3-1.7,3.5s0.6,3.5,1.6,3.5S118.2,107.6,118.2,105.7z"/>
				<path class="st3" d="M124.1,101.1c0,0,0,0-0.3,0c-0.8,1.7-2,3.4-3.4,4.4c0,0-0.4-0.4-0.6-0.5c1.4-0.9,2.6-2.5,3.3-4.2
					L124.1,101.1L124.1,101.1z M128,104.8h0.6v0.3c-0.2,3.6-0.3,4.8-0.7,5.2c-0.3,0.4-0.6,0.4-1.3,0.4h-1.3c0-0.2,0-0.5-0.2-0.7
					c0.7,0,1.5,0,1.7,0s0.4,0,0.5,0c0.3-0.3,0.5-1.4,0.6-4.4h-3c-0.3,2.1-0.9,4.2-3.9,5.3c0-0.2-0.3-0.5-0.5-0.6
					c2.7-0.9,3.3-2.7,3.6-4.7h-2.4v-0.7h6.3V104.8z M127,100.8c0.7,1.5,2.2,3.2,3.4,4.1c-0.2,0.2-0.5,0.5-0.6,0.7
					c-1.2-1-2.7-2.8-3.5-4.4L127,100.8L127,100.8z"/>
			</g>
			<g>
				<path class="st3" d="M165.9,105.4c1,0.2,1.8,0.9,1.8,2.1s-0.9,2.5-2.8,2.5s-1.6-0.3-1.9-0.5l0.3-0.7c0.3,0.2,1,0.5,1.7,0.5
					c1.4,0,1.8-1,1.8-1.7c0-1.2-1-1.8-2.1-1.8h-0.5v-0.7h0.5c0.8,0,1.8-0.5,1.8-1.5s-0.4-1.3-1.4-1.3s-1.2,0.3-1.5,0.5l-0.3-0.7
					c0.4-0.3,1.2-0.6,2-0.6c1.5,0,2.2,1,2.2,1.9C167.4,104.3,166.9,105,165.9,105.4C165.9,105.4,165.9,105.4,165.9,105.4z"/>
				<path class="st3" d="M169,105.7c0-2.9,1.1-4.3,2.7-4.3s2.5,1.5,2.5,4.2s-1,4.3-2.6,4.3C170,110,169,108.5,169,105.7L169,105.7z
					 M173.2,105.7c0-2.1-0.5-3.5-1.7-3.5s-1.7,1.3-1.7,3.5s0.6,3.5,1.6,3.5S173.2,107.6,173.2,105.7L173.2,105.7z"/>
				<path class="st3" d="M179.1,101.1c0,0-0.1,0-0.3,0c-0.8,1.7-2,3.4-3.4,4.4c-0.1,0-0.4-0.4-0.6-0.5c1.4-0.9,2.6-2.5,3.3-4.2
					L179.1,101.1L179.1,101.1z M183,104.8h0.6v0.3c-0.2,3.6-0.3,4.8-0.7,5.2c-0.3,0.4-0.6,0.4-1.3,0.4h-1.3c0-0.2-0.1-0.5-0.2-0.7
					c0.7,0,1.5,0,1.7,0s0.4,0,0.5,0c0.3-0.3,0.5-1.4,0.6-4.4h-3c-0.3,2.1-0.9,4.2-3.9,5.3c-0.1-0.2-0.3-0.5-0.5-0.6
					c2.7-0.9,3.3-2.7,3.6-4.7h-2.4v-0.7h6.3L183,104.8z M182,100.8c0.7,1.5,2.2,3.2,3.4,4.1c-0.2,0.2-0.5,0.5-0.6,0.7
					c-1.2-1-2.7-2.8-3.5-4.4L182,100.8L182,100.8z"/>
			</g>
			<circle class="st2" cx="173.3" cy="17.2" r="9.2"/>
			<g>
				<path class="st3" d="M153.5,33v-2.7h1c0,0.2-0.1,0.2-0.2,0.3v9.7h-0.8v-2.6c-1,0.4-2,0.9-2.7,1.1l-0.1,0.2l-0.4-0.8
					c0.8-0.3,2-0.7,3.2-1.2v-3.2h-2.9V33H153.5z M157,38.7c0,0.6,0.1,0.7,0.6,0.7h1.7c0.5,0,0.6-0.5,0.7-2.3
					c0.2,0.2,0.5,0.3,0.7,0.3c-0.1,2-0.3,2.7-1.4,2.7h-1.8c-1,0-1.3-0.3-1.3-1.4v-8.3h1c0,0.2-0.1,0.2-0.2,0.3v3.6
					c1.1-0.6,2.2-1.4,2.9-2.1l0.6,0.7h-0.2c-0.8,0.7-2.1,1.4-3.3,2.1V38.7L157,38.7z"/>
				<path class="st3" d="M161.5,34.2c0.8-0.3,1.9-0.7,3-1.1v0.5c-0.9,0.4-1.9,0.8-2.6,1.1c0,0,0,0.1-0.1,0.2L161.5,34.2L161.5,34.2z
					 M165.9,34.4c0,0.7-0.4,0.7-1.8,0.7c0-0.2-0.1-0.4-0.2-0.6h0.7c0.4,0,0.6-0.1,0.6-0.2v-3.1h-3.5v-0.6h4.2V34.4z M163.7,33
					c-0.3-0.3-0.9-0.8-1.5-1.1l0.4-0.4c0.5,0.3,1.2,0.7,1.5,1.1L163.7,33z M165.6,35.8c0.2-0.4,0.4-0.8,0.5-1.1l0.9,0.2
					c0,0-0.1,0-0.2,0c-0.1,0.2-0.3,0.5-0.4,0.8h3.7v4.6h-0.7v-0.5h-5.6v0.5H163v-4.6L165.6,35.8L165.6,35.8z M169.3,37.5v-1.2h-5.6
					v1.2H169.3z M163.7,39.3h5.6v-1.2h-5.6V39.3z M169.7,33.5c-1,0.4-2.1,0.8-2.8,1.1c0,0-0.1,0-0.1,0.2l-0.4-0.7
					c0.8-0.3,2-0.7,3.2-1.1v0.5H169.7z M170.9,30.7v3.7c0,0.7-0.4,0.7-1.8,0.7c0-0.2-0.1-0.4-0.2-0.6h0.8c0.3,0,0.5-0.1,0.5-0.2
					v-3.1h-3.6v-0.6L170.9,30.7L170.9,30.7z M167.4,31.5c0.5,0.3,1.2,0.7,1.5,1l-0.4,0.5c-0.3-0.4-0.9-0.8-1.5-1.1L167.4,31.5z"/>
				<path class="st3" d="M174.6,37.2c-0.2,1.1-0.6,2.1-1.6,2.7l-0.6-0.4c0.9-0.5,1.3-1.4,1.5-2.4h0.7L174.6,37.2z M177.1,34.7v-2
					h-4.5V32h4.5v-1.8h1c0,0.2-0.1,0.2-0.2,0.3V32h4.6v0.7h-4.6v2h4v0.7h-8.5v-0.7H177.1z M176,39.1c0,0.3,0.1,0.4,0.7,0.4h2.1
					c0.5,0,0.6-0.2,0.6-1.4c0.2,0,0.5,0.2,0.7,0.3c-0.1,1.4-0.3,1.7-1.3,1.7h-2.2c-1.1,0-1.4-0.2-1.4-1v-2.3h1
					c0,0.2-0.1,0.2-0.2,0.3L176,39.1L176,39.1L176,39.1z M178.1,37.6c-0.4-0.5-1.3-1.2-2.1-1.6l0.5-0.5c0.8,0.4,1.7,1.1,2.1,1.6
					L178.1,37.6z M181.9,39.8c-0.3-0.8-1.2-1.8-2-2.6l0.6-0.3c0.9,0.7,1.7,1.8,2.1,2.6L181.9,39.8L181.9,39.8z"/>
				<path class="st3" d="M193.3,34.3h0.4c-0.1,0.6-0.7,2-1.1,2.7c-0.5,0-0.5-0.2-0.6-0.2c0.2-0.5,0.5-1.2,0.7-1.8h-1.5v4.4
					c0,0.9-0.4,0.9-2.2,0.9c0-0.2-0.1-0.5-0.3-0.7h1.1c0.5,0,0.6,0,0.6-0.2V35h-2v0.2h-2.1v1.2h2.1v0.7h-2.1v1.6l2.3-0.3V39
					c-1.9,0.3-3.9,0.6-5.1,0.8c0,0-0.1,0-0.2,0.2l-0.2-0.9c0.6,0,1.5-0.2,2.4-0.3v-1.7h-2v-0.7h2v-1.2h-2v-4.5h4.9v3.6h3.2
					c-0.6-0.6-1.6-1.3-2.4-1.8l0.5-0.5c0.4,0.2,0.8,0.5,1.2,0.7c0.5-0.4,0.9-0.9,1.3-1.4h-3.5v-0.7h4.1l0.6,0.4c0,0-0.1,0.1-0.2,0.1
					c-0.5,0.7-1.2,1.5-1.9,2.1c0.4,0.3,0.7,0.6,0.9,0.8l-0.3,0.3L193.3,34.3L193.3,34.3z M184.4,31.3v1.3h1.4v-1.3H184.4z
					 M184.4,33.3v1.4h1.4v-1.4H184.4z M187.9,32.7v-1.3h-1.5v1.3H187.9z M187.9,34.6v-1.4h-1.5v1.4H187.9z"/>
			</g>
			<g>
				<path class="st3" d="M167.9,53.6H163V53l0.8-0.8c2-2,2.9-3.2,2.9-4.5s-0.4-1.7-1.6-1.7s-1.3,0.4-1.6,0.7l-0.3-0.6
					c0.5-0.5,1.3-0.8,2.1-0.8c1.7,0,2.3,1.2,2.3,2.3c0,1.6-1.1,2.9-2.8,4.6l-0.6,0.7h3.6v0.7C167.8,53.6,167.9,53.6,167.9,53.6z"/>
				<path class="st3" d="M169,49.5c0-2.9,1.1-4.3,2.7-4.3s2.5,1.5,2.5,4.2s-1,4.3-2.6,4.3S169,52.2,169,49.5L169,49.5z M173.2,49.4
					c0-2.1-0.5-3.5-1.7-3.5s-1.7,1.3-1.7,3.5s0.6,3.5,1.6,3.5S173.2,51.4,173.2,49.4L173.2,49.4z"/>
				<path class="st3" d="M179.1,44.8c0,0-0.1,0-0.3,0c-0.8,1.7-2,3.4-3.4,4.4c-0.1,0-0.4-0.4-0.6-0.5c1.4-0.9,2.6-2.5,3.3-4.2
					L179.1,44.8L179.1,44.8z M183,48.5h0.6v0.3c-0.2,3.6-0.3,4.8-0.7,5.2c-0.3,0.4-0.6,0.4-1.3,0.4h-1.3c0-0.2-0.1-0.5-0.2-0.7
					c0.7,0,1.5,0,1.7,0s0.4,0,0.5,0c0.3-0.3,0.5-1.4,0.6-4.4h-3c-0.3,2.1-0.9,4.2-3.9,5.3c-0.1-0.2-0.3-0.5-0.5-0.6
					c2.7-0.9,3.3-2.7,3.6-4.7h-2.4v-0.7L183,48.5L183,48.5z M182,44.5c0.7,1.5,2.2,3.2,3.4,4.1c-0.2,0.2-0.5,0.5-0.6,0.7
					c-1.2-1-2.7-2.8-3.5-4.4L182,44.5L182,44.5z"/>
			</g>
			<g>
				<path class="st3" d="M220.4,109.8v-7.4l0,0l-1.4,0.8l-0.2-0.7l1.7-1h0.8v8.2L220.4,109.8L220.4,109.8z"/>
				<path class="st3" d="M224,105.7c0-2.9,1.1-4.3,2.7-4.3s2.5,1.5,2.5,4.2s-1,4.3-2.6,4.3C225,110,224,108.5,224,105.7L224,105.7z
					 M228.2,105.7c0-2.1-0.5-3.5-1.7-3.5s-1.7,1.3-1.7,3.5s0.6,3.5,1.6,3.5S228.2,107.6,228.2,105.7L228.2,105.7z"/>
				<path class="st3" d="M234.1,101.1c0,0-0.1,0-0.3,0c-0.8,1.7-2,3.4-3.4,4.4c-0.1,0-0.4-0.4-0.6-0.5c1.4-0.9,2.6-2.5,3.3-4.2
					L234.1,101.1L234.1,101.1z M238,104.8h0.6v0.3c-0.2,3.6-0.3,4.8-0.7,5.2c-0.3,0.4-0.6,0.4-1.3,0.4h-1.3c0-0.2-0.1-0.5-0.2-0.7
					c0.7,0,1.5,0,1.7,0s0.4,0,0.5,0c0.3-0.3,0.5-1.4,0.6-4.4h-3c-0.3,2.1-0.9,4.2-3.9,5.3c-0.1-0.2-0.3-0.5-0.5-0.6
					c2.7-0.9,3.3-2.7,3.6-4.7h-2.4v-0.7h6.3L238,104.8z M237,100.8c0.7,1.5,2.2,3.2,3.4,4.1c-0.2,0.2-0.5,0.5-0.6,0.7
					c-1.2-1-2.7-2.8-3.5-4.4L237,100.8L237,100.8z"/>
			</g>
			<g>
				<path class="st3" d="M279.1,87.7h4v8.9h-0.8v-0.8H275v0.9h-0.7V88l0.6,0.2c1.1-0.5,2.3-1.1,3-1.6l0.7,0.7c0,0-0.1,0-0.2,0
					c-0.8,0.5-2.1,1.1-3.3,1.6v2.5h3v0.7h-3v3h7.4v-3h-3.2v-0.7h3.2v-2.8h-3.3v-0.9L279.1,87.7L279.1,87.7z"/>
				<path class="st3" d="M294.7,92.4v0.7h-2.6v3.5h-0.8v-3.5h-3.4c-0.2,1.4-0.9,2.7-2.4,3.7c-0.1-0.2-0.4-0.4-0.6-0.6
					c1.4-0.8,2-1.9,2.2-3.1h-2.4v-0.7h2.5c0.1-0.5,0.1-1,0.1-1.5v-1.4h-2.2v-0.7h2.2v-2.3h1c0,0.2-0.1,0.2-0.2,0.3v2.1h3.3v-2.3h1
					c0,0.2-0.1,0.2-0.2,0.3V89h2.3v0.7h-2.3v2.9h2.5V92.4z M288.1,90.9c0,0.5,0,1-0.1,1.4h3.3v-2.9H288v1.5H288.1z"/>
			</g>
			<polyline class="st4" points="173.3,17.2 228.3,17.2 228.3,73.5 			"/>
			<g>
				<path class="st3" d="M167.2,89.7h-4c0.9,2,2.6,3.8,4.4,4.6c-0.2,0.2-0.4,0.4-0.6,0.6c-1.7-0.9-3.3-2.7-4.3-4.7v3.6h2.2v0.7h-2.2
					v2.1h-0.8v-2.1h-2.2v-0.7h2.2v-3.6c-1,2-2.6,3.7-4.3,4.7c-0.1-0.2-0.4-0.5-0.5-0.6c1.7-0.9,3.4-2.7,4.3-4.7h-4v-0.7h4.4v-2.4h1
					c0,0.1,0,0.2-0.2,0.2v2.2h4.5v0.7L167.2,89.7z"/>
				<path class="st3" d="M172,89.7c0,0,0,0.1-0.2,0.2c-0.4,2.4-1.1,5.3-3,7c-0.1-0.2-0.4-0.4-0.6-0.5c1.7-1.6,2.5-4.4,2.8-6.8
					L172,89.7L172,89.7z M170.6,87.4h4.6c0.4,3.9,1.1,7.2,3.2,8.8c-0.2,0.1-0.5,0.4-0.7,0.6c-2-1.7-2.8-4.9-3.1-8.6h-3.9v-0.8H170.6
					z"/>
				<path class="st3" d="M189.4,90h-2.1c0.6,0.7,1.5,1.5,2.3,1.8c-0.2,0.1-0.4,0.4-0.5,0.6c-0.8-0.5-1.8-1.4-2.4-2.3v2.1H186v-2.1
					c-0.6,0.9-1.6,1.8-2.4,2.3c0-0.2-0.3-0.3-0.4-0.5v1.7c0,0.7-0.3,0.7-1.1,0.7c0-0.2-0.1-0.5-0.2-0.6c0.3,0,0.5,0,0.6,0
					c0,0,0,0,0-0.1v-4.3h-0.9v7.4H181v-7.4h-0.9v5.1h-0.6v-5.8h1.5v-2.1h0.8c0,0.1,0,0.2-0.2,0.2v1.9h1.5v3.2
					c0.7-0.4,1.6-1.1,2.2-1.9h-2v-0.7h2.6v-1.8c-0.8,0-1.6,0.1-2.4,0.2c0-0.2-0.1-0.4-0.2-0.5c1.7-0.1,3.8-0.3,4.9-0.6l0.5,0.6l0,0
					c0,0,0,0-0.1,0c-0.5,0.1-1.2,0.2-2,0.3v1.9h2.8L189.4,90L189.4,90z M183.8,96.7v-4.2h5v4.1h-0.7v-0.3h-3.7v0.4H183.8z
					 M184.6,89.3c-0.1-0.4-0.4-1-0.7-1.4l0.6-0.2c0.3,0.4,0.6,1,0.7,1.4L184.6,89.3z M185.9,93.2h-1.5v1h1.5V93.2z M184.4,95.8h1.5
					v-1h-1.5V95.8z M188.1,94.2v-1h-1.6v1H188.1z M186.6,95.8h1.6v-1h-1.6V95.8z M188.8,88c0,0-0.1,0-0.2,0
					c-0.2,0.3-0.6,0.9-0.9,1.2l-0.5-0.3c0.3-0.4,0.7-1,0.9-1.4l0.7,0.4V88z"/>
			</g>
			<g>
				<path class="st3" d="M222.4,91.1h-1.3c0.4,0.7,1,1.3,1.6,1.6c-0.2,0.1-0.4,0.4-0.5,0.6c-0.7-0.5-1.3-1.3-1.8-2.2h-2.3
					c-0.5,0.9-1.1,1.7-2,2.3c0-0.1-0.3-0.4-0.4-0.5v3c0,0.8-0.4,0.9-1.7,0.9c0-0.2-0.1-0.5-0.2-0.7c0.3,0,0.5,0,0.7,0
					c0.6,0,0.6,0,0.6-0.2V93h-1.5c0,1.3-0.3,2.7-0.8,3.8c-0.1-0.1-0.4-0.3-0.6-0.4c0.7-1.6,0.8-3.8,0.8-5.5v-4h2.7v5.9
					c0.7-0.4,1.2-1,1.6-1.7h-1.4v-0.6h1.7c0.2-0.4,0.3-0.8,0.5-1.2h-1.8v-0.6h2c0.2-0.6,0.3-1.3,0.4-2.1h0.9c0,0.2,0,0.3-0.2,0.3
					c0,0.6-0.2,1.2-0.3,1.8h1.4h-0.2c0.3-0.6,0.6-1.4,0.8-1.9l0.9,0.3c0,0-0.1,0-0.2,0c-0.2,0.4-0.5,1-0.8,1.5h1.4v0.6h-2
					c0.1,0.4,0.3,0.8,0.5,1.2h1.7V91L222.4,91.1z M213.6,90.9c0,0.4,0,0.8,0,1.3h1.4v-2h-1.4V90.9z M215,87.6h-1.4v1.9h1.4V87.6z
					 M220.9,92.9h0.2h0.4c0,0,0,0.1,0,0.2c-0.1,2.2-0.3,2.9-0.5,3.2c-0.2,0.3-0.5,0.3-1.1,0.3s-0.4,0-0.7,0c0-0.2,0-0.5-0.2-0.6
					c0.5,0,0.9,0,1.1,0s0.3,0,0.3-0.1c0.2-0.2,0.3-0.8,0.4-2.4h-1.7c-0.3,1.4-1,2.6-2.6,3.3c0-0.2-0.3-0.4-0.4-0.6
					c1.5-0.5,2.1-1.5,2.4-2.7h-1.6v-0.6h1.7c0-0.4,0-0.8,0.1-1.2h0.9c0,0.2,0,0.2-0.2,0.2c0,0.4,0,0.7-0.1,1h1.8L220.9,92.9z
					 M217,86.7c0.3,0.5,0.6,1.1,0.7,1.5l-0.6,0.2c0-0.4-0.4-1-0.6-1.5L217,86.7L217,86.7z M218.8,89.2c-0.1,0.4-0.3,0.9-0.4,1.2h1.7
					c-0.2-0.4-0.3-0.8-0.4-1.2H218.8L218.8,89.2z"/>
				<path class="st3" d="M223.8,87.3h9.1v9.4h-0.8V96h-7.6v0.7h-0.7V87.3z M227.9,88h-3.4v3.2h3.4V88z M224.6,92v3.3h3.4V92H224.6z
					 M232.2,91.2V88h-3.5v3.2H232.2z M228.7,95.2h3.5v-3.3h-3.5V95.2z"/>
				<path class="st3" d="M241.3,88c1.2,0.9,2.5,2.2,3.2,3.1l-0.6,0.5c-0.2-0.3-0.5-0.7-0.8-1c-3.1,0.1-6.4,0.2-8.4,0.3
					c0,0,0,0.1-0.2,0.1l-0.3-0.9h1.9c0.7-1,1.5-2.5,2-3.6l0.9,0.4c0,0-0.1,0-0.2,0c-0.5,0.9-1.2,2.1-1.8,3.1l5.5-0.2
					c-0.5-0.5-1.1-1.1-1.7-1.5l0.6-0.5L241.3,88z M235.8,96.8v-4.7h7v4.6H242v-0.4h-5.5v0.5H235.8z M242,92.8h-5.5v2.8h5.5V92.8z"/>
			</g>
		</g>
		<g>
			<path class="st3" d="M51,149.6c0,0.7-0.6,1.1-1.1,1.1s-1.1-0.6-1.1-1.1s0.6-1.1,1.1-1.1S51,149,51,149.6z"/>
			<path class="st3" d="M60.4,149.2c0.8-1.1,1.2-2.9,1.3-4.6l0.9,0.2c0,0.1,0,0.1-0.2,0.1c-0.2,1.7-0.7,3.5-1.5,4.8
				C60.9,149.5,60.6,149.4,60.4,149.2l0,0.6H60v4.2c0,0.8-0.3,0.9-1.7,0.9c0-0.2,0-0.4-0.2-0.7h0.7c0.4,0,0.6-0.1,0.6-0.2v-4
				c-0.8,0.1-1.5,0.2-2.3,0.2c0,1.4,0,3.3-0.9,4.6c0-0.1-0.4-0.3-0.6-0.3c0.8-1.2,0.9-2.9,0.9-4.2H56c0,0.1,0,0.1-0.2,0.1l-0.2-0.8
				h0.8V146h1c0.2-0.4,0.3-1.1,0.4-1.5l0.9,0.2c0,0.1,0,0.1-0.2,0.1c0,0.3-0.2,0.8-0.4,1.2H60v3.2C60,149.2,60.4,149.2,60.4,149.2z
				 M57,146.6v2.9c0.7,0,1.4-0.1,2.3-0.2v-2.7H57z M58.2,148.9c0-0.4-0.3-1.1-0.7-1.5l0.4-0.2c0.3,0.4,0.6,1.1,0.7,1.5L58.2,148.9z
				 M58.5,150.5c0,0.1-0.1,0.1-0.2,0.1v2.3h-0.4v-2.5L58.5,150.5L58.5,150.5z M61.1,154.7v-4.9h4.3v4.9h-0.7v-0.4h-2.9v0.6
				L61.1,154.7L61.1,154.7L61.1,154.7z M64.6,150.5h-2.9v3h2.9V150.5z M64.3,144.5c0.3,1.8,0.9,3.6,1.8,4.5
				c-0.2,0.1-0.4,0.3-0.6,0.6c-0.9-1-1.4-3-1.9-5h0.7V144.5z"/>
			<path class="st3" d="M69,147.6v0.9c0.3,0.4,1.1,1.7,1.3,2l-0.4,0.6c0-0.3-0.6-1.1-0.9-1.7v5.3h-0.7v-5.3
				c-0.3,1.2-0.9,2.4-1.3,3.2c0-0.2-0.2-0.4-0.3-0.7c0.7-1,1.3-2.8,1.7-4.3H67v-0.7h1.5v-2.4h0.9c0,0.2,0,0.2-0.2,0.2v2.2h1.2v0.7
				C70.4,147.6,69,147.6,69,147.6z M76.8,146.9h-1.9c0.6,0.7,1.3,1.4,2.1,1.8c0,0.1-0.3,0.3-0.4,0.6c-0.4-0.2-0.9-0.6-1.2-0.9v1.4
				h-3.5v-1.4c-0.3,0.3-0.8,0.7-1.2,0.9c0-0.2-0.3-0.4-0.4-0.4c0.9-0.6,1.5-1.1,2.1-1.9h-1.8v-0.6h2.1c0-0.2,0.2-0.6,0.3-0.8
				c-0.7,0-1.3,0.1-2,0.1c0-0.1,0-0.3,0-0.6c1.8,0,4-0.2,5.1-0.4l0.6,0.6h-0.2c-0.6,0.1-1.4,0.2-2.3,0.3c0,0.1,0,0.1-0.2,0.1
				c0,0.2,0,0.4-0.2,0.7h3.3v0.6c0-0.1-0.2-0.1-0.2-0.1L76.8,146.9z M76.7,150.3v3.6c0,0.7-0.2,0.8-1.8,0.8c0-0.2,0-0.4-0.2-0.7h0.8
				c0.4,0,0.6,0,0.6-0.2v-3h-4.6v3.9h-0.7v-4.4C70.7,150.3,76.7,150.3,76.7,150.3L76.7,150.3z M75,153.6h-2.3v0.6h-0.6v-2.5H75
				V153.6z M74.8,147.7c-0.2-0.2-0.3-0.4-0.6-0.7h-1.3c0,0.2-0.3,0.4-0.4,0.7H74.8z M74.7,149.3v-1h-2.2v1H74.7z M74.5,152h-1.8v1.1
				h1.8V152z"/>
			<path class="st3" d="M93.8,153.8h-4.9v-0.6l0.8-0.9c2-2,3-3.2,3-4.5s-0.4-1.7-1.5-1.7s-1.2,0.3-1.7,0.7l-0.3-0.7
				c0.6-0.4,1.2-0.8,2.1-0.8c1.7,0,2.3,1.2,2.3,2.3s-1.1,2.9-2.8,4.6l-0.7,0.7h3.6L93.8,153.8L93.8,153.8L93.8,153.8z"/>
			<path class="st3" d="M99.7,145.5v0.8h-3l-0.3,2.3h0.7c1.4,0,2.8,0.9,2.8,2.5s-1.2,2.8-2.9,2.8s-1.5-0.2-1.9-0.4l0.2-0.7
				c0.3,0.2,0.9,0.4,1.7,0.4s1.9-0.8,1.9-2s-0.8-1.9-2.3-1.9s-0.8,0-1.1,0.1l0.6-3.9L99.7,145.5L99.7,145.5z"/>
			<path class="st3" d="M105.1,145.1c0,0.1,0,0.1-0.2,0.1c-0.8,1.8-2.1,3.4-3.4,4.4c0-0.1-0.4-0.4-0.6-0.6c1.3-0.9,2.7-2.5,3.3-4.3
				L105.1,145.1L105.1,145.1z M109,148.7h0.6v0.2c-0.2,3.5-0.3,4.9-0.8,5.3c-0.3,0.3-0.7,0.3-1.3,0.3h-1.3c0-0.2,0-0.6-0.2-0.8
				c0.8,0.1,1.4,0.1,1.8,0.1s0.3,0,0.4-0.1c0.3-0.3,0.4-1.4,0.6-4.4h-3c-0.3,2.1-0.9,4.3-3.9,5.3c0-0.2-0.3-0.4-0.4-0.7
				c2.7-0.9,3.3-2.8,3.5-4.6h-2.3v-0.8L109,148.7C109,148.7,109,148.7,109,148.7z M108.1,144.7c0.8,1.5,2.2,3.2,3.4,4.1
				c-0.2,0.1-0.4,0.4-0.7,0.7c-1.2-1-2.7-2.8-3.5-4.4L108.1,144.7L108.1,144.7z"/>
		</g>
		<g>
			<path class="st3" d="M128.4,149.6c0,0.7-0.6,1.1-1.1,1.1s-1.1-0.6-1.1-1.1s0.6-1.1,1.1-1.1C128,148.4,128.4,148.9,128.4,149.6z"
				/>
			<path class="st3" d="M136.1,151c0.4,0.3,1.5,1.2,1.9,1.4l-0.4,0.6c-0.2-0.3-0.9-0.9-1.4-1.3v3h-0.8v-3.1
				c-0.6,0.9-1.2,1.7-1.9,2.2c-0.1-0.2-0.3-0.4-0.4-0.6c0.8-0.6,1.7-1.5,2.2-2.5h-2V150h2.1v-1.2h-2.2v-0.7h1.3
				c-0.1-0.4-0.2-1.2-0.4-1.7l0.6-0.2c0.2,0.6,0.4,1.2,0.6,1.8h-0.4c0,0.1,1.9,0.1,1.9,0.1c-0.1,0-0.3-0.1-0.3-0.1
				c0.2-0.4,0.4-1.2,0.7-1.8l0.9,0.2c0,0.1-0.1,0.1-0.2,0.1c-0.1,0.4-0.4,1.1-0.7,1.5h1.7v0.7h-2.3v1.1h2.2v0.7h-2.2v0.4h-0.5
				L136.1,151z M138.2,145.7v0.7h-4.9v-0.7h2v-1.2h0.9c0,0.1-0.1,0.1-0.2,0.1v1L138.2,145.7L138.2,145.7z M143.2,148.3v0.7h-1.3v5.8
				h-0.8V149h-1.8v0.4c0,1.7-0.2,3.9-1.8,5.4c-0.1-0.1-0.3-0.4-0.6-0.6c1.4-1.4,1.7-3.3,1.7-4.9v-3.9l0.6,0.2
				c1.1-0.3,2.4-0.8,3.1-1.2l0.8,0.6h-0.2c-0.8,0.4-2.2,0.9-3.4,1.2v2h3.7V148.3z"/>
			<path class="st3" d="M146.9,147.4c0,0.1-0.1,0.1-0.2,0.1c-0.3,1.4-1,3.4-2,4.8c-0.2-0.1-0.4-0.3-0.7-0.4c1-1.2,1.7-3.1,1.9-4.6
				L146.9,147.4L146.9,147.4z M148.9,144.6h1c0,0.1-0.1,0.1-0.2,0.1v8.8c0,0.6-0.1,0.8-0.6,0.9c-0.4,0.1-1.1,0.1-2.1,0.1
				c-0.1-0.2-0.2-0.6-0.3-0.8h1.3c0.8,0,0.9,0,0.9-0.3L148.9,144.6L148.9,144.6L148.9,144.6z M153.8,152.5c-0.2-1.3-1.2-3.4-2.2-5
				l0.7-0.2c1,1.5,2,3.6,2.2,5L153.8,152.5z"/>
			<path class="st3" d="M165.3,149.2h-6c-0.2,0.6-0.6,1-1,1.5h6.3v4h-0.8v-0.4h-5.5v0.4h-0.8v-3.1c-0.6,0.7-1.3,1.2-2,1.5
				c-0.1-0.2-0.3-0.4-0.4-0.6c1.4-0.8,2.7-2.1,3.4-3.4h-3.1v-0.7h10L165.3,149.2L165.3,149.2L165.3,149.2z M164.7,145.1
				c0,0.1-0.1,0.1-0.2,0.1v2.2h-8.3V145h1c0,0.2-0.1,0.2-0.2,0.2v1.5h3v-2.3h1c0,0.1-0.1,0.1-0.2,0.1v2.1h3.1v-1.8L164.7,145.1
				L164.7,145.1z M163.8,153.6v-2.1h-5.5v2.1H163.8z"/>
			<path class="st3" d="M181.6,153.8h-0.9v-2.3h-3.6v-0.6l3.5-5.4h1v5.2h1.1v0.7h-1.1V153.8L181.6,153.8z M178,150.7h2.7v-4.3l0,0
				c-0.2,0.6-0.4,0.9-0.7,1.2L178,150.7L178,150.7z"/>
			<path class="st3" d="M183.4,149.7c0-2.9,1.1-4.3,2.7-4.3s2.5,1.4,2.5,4.2s-1,4.3-2.7,4.3S183.4,152.4,183.4,149.7z M187.7,149.6
				c0-2.1-0.4-3.5-1.7-3.5s-1.7,1.3-1.7,3.5s0.6,3.5,1.7,3.5S187.7,151.6,187.7,149.6z"/>
			<path class="st3" d="M193.6,145c0,0.1-0.1,0.1-0.2,0.1c-0.8,1.8-2.1,3.4-3.4,4.4l-0.6-0.6c1.3-0.9,2.7-2.5,3.3-4.3L193.6,145
				L193.6,145z M197.4,148.7h0.6v0.2c-0.2,3.5-0.3,4.9-0.8,5.3c-0.3,0.3-0.7,0.3-1.3,0.3h-1.3c0-0.2-0.1-0.6-0.2-0.8
				c0.8,0.1,1.4,0.1,1.8,0.1s0.3,0,0.4-0.1c0.3-0.3,0.4-1.4,0.6-4.4h-3c-0.3,2.1-0.9,4.3-3.9,5.3c-0.1-0.2-0.3-0.4-0.4-0.7
				c2.7-0.9,3.3-2.8,3.5-4.6h-2.3v-0.7L197.4,148.7L197.4,148.7z M196.6,144.6c0.8,1.5,2.2,3.2,3.4,4.1c-0.2,0.1-0.4,0.4-0.7,0.7
				c-1.2-1-2.7-2.8-3.5-4.4L196.6,144.6L196.6,144.6z"/>
		</g>
		<g>
			<path class="st3" d="M217,149.7c0,0.7-0.6,1.1-1.1,1.1s-1.1-0.6-1.1-1.1s0.6-1.1,1.1-1.1C216.5,148.6,217,149,217,149.7z"/>
			<path class="st3" d="M230.7,151.4h-3c1,1.1,2.7,2.1,4.1,2.5c-0.2,0.1-0.4,0.4-0.6,0.7c-1.4-0.6-3.2-1.8-4.3-3v3.1h-0.8v-3.1
				c-1.1,1.2-2.8,2.3-4.2,2.9c-0.1-0.2-0.3-0.4-0.6-0.7c1.4-0.6,3-1.5,4.1-2.5h-2.8v-4.1h3.4v-1h-4.4v-0.7h4.4v-1.1h1
				c0,0.2-0.1,0.2-0.2,0.2v0.9h4.5v0.7h-4.4v1h3.6v4.2L230.7,151.4L230.7,151.4z M223.5,147.9v1.1h2.8v-1.1H223.5z M223.5,149.6v1.1
				h2.8v-1.1H223.5z M230,147.9h-2.9v1.1h2.9V147.9z M230,150.8v-1.1h-2.9v1.1H230z"/>
			<path class="st3" d="M235.7,151.9c0,0.1-0.1,0.1-0.2,0.1c-0.4,0.8-1.3,1.8-2.1,2.3c-0.1-0.1-0.4-0.3-0.6-0.4
				c0.8-0.6,1.7-1.5,2.1-2.3L235.7,151.9L235.7,151.9z M242.7,145.8v0.7h-9.8v-0.7h4.5v-1.3h1c0,0.1-0.1,0.1-0.2,0.1v1.1
				L242.7,145.8L242.7,145.8z M241.3,150.9h-3.2v3c0,0.9-0.4,0.9-2.4,0.9c0-0.2-0.1-0.6-0.2-0.7h1.2c0.7,0,0.8,0,0.8-0.2v-3h-3.1
				v-3.3h7.1L241.3,150.9L241.3,150.9L241.3,150.9z M235,148.4v2h5.5v-2H235z M242,154.5c-0.4-0.7-1.3-1.7-2.1-2.4l0.7-0.3
				c0.8,0.8,1.7,1.8,2.1,2.4L242,154.5z"/>
			<path class="st3" d="M259.5,145.6v0.8h-3l-0.3,2.3h0.7c1.4,0,2.8,0.9,2.8,2.5s-1.2,2.8-2.9,2.8s-1.5-0.2-1.9-0.4l0.2-0.7
				c0.3,0.2,0.9,0.4,1.7,0.4s1.9-0.8,1.9-2s-0.8-1.9-2.3-1.9s-0.8,0-1.1,0.1l0.6-3.9L259.5,145.6L259.5,145.6z"/>
			<path class="st3" d="M265.6,145.6v0.8h-3l-0.3,2.3h0.7c1.4,0,2.8,0.9,2.8,2.5s-1.2,2.8-2.9,2.8s-1.5-0.2-1.9-0.4l0.2-0.7
				c0.3,0.2,0.9,0.4,1.7,0.4s1.9-0.8,1.9-2s-0.8-1.9-2.3-1.9s-0.8,0-1.1,0.1l0.6-3.9L265.6,145.6L265.6,145.6z"/>
			<path class="st3" d="M271.1,145.1c0,0.1-0.1,0.1-0.2,0.1c-0.8,1.8-2.1,3.4-3.4,4.4l-0.6-0.6c1.3-0.9,2.7-2.5,3.3-4.3L271.1,145.1
				L271.1,145.1z M275,148.8h0.6v0.2c-0.2,3.5-0.3,4.9-0.8,5.3c-0.3,0.3-0.7,0.3-1.3,0.3h-1.3c0-0.2-0.1-0.6-0.2-0.8
				c0.8,0.1,1.4,0.1,1.8,0.1s0.3,0,0.4-0.1c0.3-0.3,0.4-1.4,0.6-4.4h-3c-0.3,2.1-0.9,4.3-3.9,5.3c-0.1-0.2-0.3-0.4-0.4-0.7
				c2.7-0.9,3.3-2.8,3.5-4.6h-2.3v-0.8L275,148.8L275,148.8L275,148.8z M274,144.7c0.8,1.5,2.2,3.2,3.4,4.1
				c-0.2,0.1-0.4,0.4-0.7,0.7c-1.2-1-2.7-2.8-3.5-4.4L274,144.7L274,144.7z"/>
		</g>
	</g>
</g>
</svg>
