<?xml version="1.0" encoding="utf-8"?>
<!-- Generator: Adobe Illustrator 28.1.0, SVG Export Plug-In . SVG Version: 6.00 Build 0)  -->
<svg version="1.1" id="レイヤー_1" xmlns="http://www.w3.org/2000/svg" xmlns:xlink="http://www.w3.org/1999/xlink" x="0px"
	 y="0px" viewBox="0 0 329.5 194" style="enable-background:new 0 0 329.5 194;" xml:space="preserve">
<style type="text/css">
	.st0{display:none;}
	.st1{display:inline;fill:#FFFFFF;}
	.st2{display:inline;fill:#808080;}
	.st3{fill:none;stroke:#92D050;stroke-width:2.6937;stroke-miterlimit:10;}
	.st4{fill:#92D050;}
	.st5{enable-background:new    ;}
	.st6{font-family:'KozGoPr6N-Light-83pv-RKSJ-H';}
	.st7{font-size:10px;}
	.st8{fill:none;stroke:#92D050;stroke-width:2.6938;stroke-linejoin:round;stroke-miterlimit:10;}
</style>
<g class="st0">
	<path class="st1" d="M49.7,159c-5.5,0-9.9-5-9.9-11.2V46.2c0-6.2,4.4-11.2,9.9-11.2h230.1c5.5,0,9.9,5,9.9,11.2v101.6
		c0,6.2-4.4,11.2-9.9,11.2C279.8,159,49.7,159,49.7,159z"/>
	<path class="st2" d="M279.8,35.8c5.1,0,9.2,4.7,9.2,10.4v101.6c0,5.7-4.1,10.4-9.2,10.4H49.7c-5.1,0-9.2-4.7-9.2-10.4V46.2
		c0-5.7,4.1-10.4,9.2-10.4H279.8 M279.8,34.2H49.7c-5.8,0-10.6,5.4-10.6,12v101.6c0,6.6,4.8,12,10.6,12h230.1
		c5.8,0,10.6-5.4,10.6-12V46.2C290.4,39.6,285.6,34.2,279.8,34.2L279.8,34.2z"/>
</g>
<line class="st3" x1="65.1" y1="109.9" x2="254.3" y2="109.9"/>
<circle class="st4" cx="254.3" cy="109.9" r="7"/>
<circle class="st4" cx="87.3" cy="109.9" r="7"/>
<circle class="st4" cx="170.8" cy="109.9" r="7"/>
<circle class="st4" cx="212.5" cy="109.9" r="7"/>
<circle class="st4" cx="129" cy="110.3" r="7"/>
<text transform="matrix(1 0 0 1 72.2814 130.5322)" class="st5"><tspan x="0" y="0" class="st6 st7">錦糸町</tspan><tspan x="4.5" y="13" class="st6 st7">50分</tspan></text>
<text transform="matrix(1 0 0 1 114.0318 130.5322)" class="st5"><tspan x="0" y="0" class="st6 st7">新小岩</tspan><tspan x="4.5" y="13" class="st6 st7">40分</tspan></text>
<text transform="matrix(1 0 0 1 155.7817 130.5322)" class="st5"><tspan x="0" y="0" class="st6 st7">新小岩</tspan><tspan x="4.5" y="13" class="st6 st7">30分</tspan></text>
<circle class="st4" cx="170.8" cy="55" r="7"/>
<text transform="matrix(1 0 0 1 150.7817 75.6813)" class="st5"><tspan x="0" y="0" class="st6 st7">北習志野</tspan><tspan x="9.5" y="13" class="st6 st7">20分</tspan></text>
<text transform="matrix(1 0 0 1 197.5312 130.5322)" class="st5"><tspan x="0" y="0" class="st6 st7">新小岩</tspan><tspan x="4.5" y="13" class="st6 st7">10分</tspan></text>
<text transform="matrix(1 0 0 1 244.282 130.5321)" class="st6 st7">臼井</text>
<polyline class="st8" points="170.8,55 212.5,55 212.5,111.3 "/>
</svg>
