<?xml version="1.0" encoding="utf-8"?>
<!-- Generator: Adobe Illustrator 28.1.0, SVG Export Plug-In . SVG Version: 6.00 Build 0)  -->
<svg version="1.1" id="レイヤー_1" xmlns="http://www.w3.org/2000/svg" xmlns:xlink="http://www.w3.org/1999/xlink" x="0px"
	 y="0px" viewBox="0 0 251.3 125.6" style="enable-background:new 0 0 251.3 125.6;" xml:space="preserve">
<style type="text/css">
	.st0{fill:#FFFFFF;}
	.st1{fill:#4D4D4D;}
	.st2{fill:none;stroke:#92D050;stroke-width:2.6937;stroke-miterlimit:10;}
	.st3{fill:#92D050;}
</style>
<g>
	<path class="st0" d="M10.6,124.8c-5.5,0-9.9-5-9.9-11.2V12c0-6.2,4.4-11.2,9.9-11.2h230.1c5.5,0,9.9,5,9.9,11.2v101.6
		c0,6.2-4.4,11.2-9.9,11.2C240.7,124.8,10.6,124.8,10.6,124.8z"/>
</g>
<g>
	<g>
		<path class="st1" d="M43.2,75.5h-0.7v-1.8h-2.8v-0.4l2.8-4.2h0.8v4.1H44v0.5h-0.9C43.2,73.6,43.2,75.5,43.2,75.5z M40.3,73.1h2.2
			v-2.3c0-0.3,0-0.7,0-1l0,0c-0.2,0.4-0.3,0.7-0.5,0.9L40.3,73.1L40.3,73.1z"/>
		<path class="st1" d="M48.3,68.9v0.6H46l-0.3,1.8c0.2,0,0.3,0,0.5,0c1.1,0,2.2,0.7,2.2,2c0,1.3-0.9,2.2-2.2,2.2
			c-0.7,0-1.2-0.2-1.5-0.3l0.2-0.6c0.3,0.2,0.7,0.3,1.3,0.3c0.9,0,1.6-0.6,1.6-1.6c0-0.9-0.6-1.6-1.8-1.6c-0.3,0-0.6,0-0.9,0.1
			l0.4-3L48.3,68.9L48.3,68.9z"/>
		<path class="st1" d="M52.6,68.6c0,0.1-0.1,0.1-0.2,0.1c-0.6,1.4-1.6,2.7-2.8,3.5c-0.1-0.1-0.3-0.3-0.4-0.4c1.1-0.7,2.1-2,2.7-3.4
			L52.6,68.6z M55.7,71.5h0.2h0.3c0,0.1,0,0.2,0,0.2c-0.2,2.8-0.3,3.8-0.6,4.1s-0.5,0.3-1,0.3c-0.3,0-0.7,0-1,0
			c0-0.2-0.1-0.4-0.2-0.6c0.5,0.1,1.1,0.1,1.3,0.1s0.3,0,0.3-0.1c0.3-0.3,0.3-1.1,0.5-3.5h-2.4c-0.3,1.6-0.7,3.4-3.1,4.2
			c-0.1-0.2-0.3-0.3-0.3-0.5c2.1-0.7,2.6-2.2,2.8-3.7h-1.9v-0.6C50.6,71.5,55.7,71.5,55.7,71.5z M54.9,68.3c0.6,1.2,1.7,2.6,2.7,3.2
			c-0.2,0.1-0.3,0.3-0.5,0.5c-0.9-0.8-2.1-2.2-2.8-3.5L54.9,68.3z"/>
	</g>
</g>
<g>
	<g>
		<path class="st1" d="M154.1,75.5v-5.9l0,0l-1,0.6l-0.2-0.5l1.4-0.8h0.6v6.6H154.1z"/>
		<path class="st1" d="M160.7,68.9v0.6h-2.3l-0.3,1.8c0.2,0,0.3,0,0.5,0c1.1,0,2.2,0.7,2.2,2c0,1.3-0.9,2.2-2.2,2.2
			c-0.7,0-1.2-0.2-1.5-0.3l0.2-0.6c0.3,0.2,0.7,0.3,1.3,0.3c0.9,0,1.6-0.6,1.6-1.6c0-0.9-0.6-1.6-1.8-1.6c-0.3,0-0.6,0-0.9,0.1
			l0.4-3L160.7,68.9L160.7,68.9z"/>
		<path class="st1" d="M165.1,68.6c0,0.1-0.1,0.1-0.2,0.1c-0.6,1.4-1.6,2.7-2.8,3.5c-0.1-0.1-0.3-0.3-0.4-0.4c1.1-0.7,2.1-2,2.7-3.4
			L165.1,68.6z M168.1,71.5h0.2h0.3c0,0.1,0,0.2,0,0.2c-0.2,2.8-0.3,3.8-0.6,4.1s-0.5,0.3-1,0.3c-0.3,0-0.7,0-1,0
			c0-0.2-0.1-0.4-0.2-0.6c0.6,0.1,1.1,0.1,1.4,0.1c0.2,0,0.3,0,0.3-0.1c0.3-0.3,0.3-1.1,0.5-3.5h-2.4c-0.3,1.6-0.7,3.4-3.1,4.2
			c-0.1-0.2-0.3-0.3-0.3-0.5c2.1-0.7,2.6-2.2,2.8-3.7h-2v-0.6C163,71.5,168.1,71.5,168.1,71.5z M167.3,68.3c0.6,1.2,1.7,2.6,2.7,3.2
			c-0.2,0.1-0.3,0.3-0.5,0.5c-0.9-0.8-2.1-2.2-2.8-3.5L167.3,68.3z"/>
	</g>
</g>
<g>
	<g>
		<path class="st1" d="M29.1,36.8c0.6,0.3,1.3,0.6,1.6,0.9l-0.3,0.5c-0.3-0.3-1-0.7-1.6-0.9L29.1,36.8z M29,41.9
			c0.4-0.7,1.1-1.9,1.6-2.8l0.4,0.3c-0.4,0.9-1,2.1-1.5,2.8l0.1,0.1v0.1L29,41.9z M29.6,34.4c0.5,0.3,1.2,0.6,1.6,0.9l-0.3,0.5
			c-0.3-0.3-1-0.8-1.6-1L29.6,34.4z M32.6,41c0,0.5,0.1,0.6,0.8,0.6h2.3c0.5,0,0.6-0.3,0.7-1.2c0.2,0.1,0.3,0.2,0.5,0.3
			c-0.1,1.2-0.3,1.6-1.2,1.6h-2.3c-1,0-1.3-0.3-1.3-1.1v-2.8l-0.9,0.3l-0.3-0.5l1.1-0.4v-2.3l0.8,0.1c0,0.1-0.1,0.1-0.2,0.1v1.9
			l1.3-0.5v-2.4l0.7,0.1c0,0.1-0.1,0.1-0.2,0.1v1.9l1.5-0.6c0,0,0.2-0.1,0.2-0.2l0.5,0.2L36.5,36c0,1.6,0,3-0.1,3.4
			c-0.1,0.5-0.3,0.7-1.4,0.7c0-0.2-0.1-0.4-0.2-0.5c0.2,0,0.3,0,0.4,0c0.5,0,0.5,0,0.6-0.3C36,39.1,36,38,36,36.6l-1.5,0.6v3.4H34
			v-3.1L32.7,38L32.6,41L32.6,41z"/>
		<path class="st1" d="M38.9,38.5v-2.1c-0.3,0.3-0.6,0.7-0.9,0.9c-0.1-0.1-0.3-0.3-0.4-0.4c0.8-0.6,1.6-1.6,2.2-2.6l0.7,0.3
			c0,0.1-0.1,0.1-0.2,0.1c-0.2,0.3-0.4,0.8-0.8,1.1l0.2,0.1c0,0.1-0.1,0.1-0.2,0.1v2.6L38.9,38.5L38.9,38.5z M42.2,39.4
			c0.2,0.4,0.5,0.9,0.8,1.2c0.5-0.3,1.2-0.7,1.6-1L45,40c0,0.1-0.1,0.1-0.2,0.1c-0.4,0.3-1,0.6-1.6,0.9c0.6,0.5,1.4,0.9,2.3,1
			c-0.2,0.1-0.3,0.3-0.3,0.5c-1.8-0.4-3-1.5-3.7-3.1l0,0c-0.3,0.3-0.9,0.6-1.4,0.9h0.2c0,0.1-0.1,0.1-0.2,0.1v1.4
			c0.7-0.1,1.5-0.1,2.2-0.2V42c-1.2,0.2-2.6,0.3-3.4,0.3c0,0.1-0.1,0.1-0.1,0.1l-0.3-0.6l0.9-0.1v-1.2c-0.6,0.3-1.2,0.4-1.7,0.6
			c-0.1-0.2-0.3-0.3-0.3-0.4c1.1-0.3,2.4-0.8,3.3-1.3h-3.2v-0.5h3.6V38l0.8,0.1c0,0.1-0.1,0.1-0.2,0.1V39h3.7v0.5L42.2,39.4
			L42.2,39.4z M40,35.9l1.8-0.2c-0.2-0.4-0.2-0.9-0.3-1.5h0.8c0,0.1-0.1,0.1-0.2,0.2c0,0.4,0.1,0.9,0.3,1.3l3-0.3l0.1,0.5l-2.8,0.3
			c0.4,1,1.2,1.7,2.1,1.7c0.3,0,0.3-0.3,0.4-0.9c0.2,0.1,0.3,0.3,0.4,0.3c-0.1,0.9-0.3,1.2-0.9,1.2c-1.1,0-2.1-0.9-2.6-2.2l-1.9,0.2
			L40,35.9z M43.4,34.4c0.5,0.2,1.2,0.4,1.6,0.6l-0.3,0.4c-0.3-0.3-1-0.5-1.6-0.7L43.4,34.4z"/>
		<path class="st1" d="M48.5,42.1h-0.6l2.8-7.2h0.6L48.5,42.1z"/>
		<path class="st1" d="M55.6,41.5h4v0.6h-7.9v-0.6H55v-7l0.8,0.1c0,0.1-0.1,0.1-0.2,0.1v2.6H59v0.6h-3.4
			C55.6,37.8,55.6,41.5,55.6,41.5z"/>
		<path class="st1" d="M68.2,37.6h0.3c-0.1,0.4-0.5,1.6-0.9,2.2c-0.3-0.1-0.4-0.1-0.5-0.2c0.2-0.3,0.4-0.9,0.6-1.5h-1.2v3.6
			c0,0.7-0.3,0.7-1.7,0.7c0-0.2-0.1-0.4-0.2-0.6c0.3,0,0.7,0,0.9,0c0.4,0,0.4,0,0.4-0.2v-3.5h-1.6v0.2h-1.6v0.9h1.6v0.5h-1.6V41
			l1.8-0.3v0.5c-1.5,0.3-3.1,0.5-4.1,0.7c0,0.1-0.1,0.1-0.2,0.1L60,41.3c0.5-0.1,1.2-0.2,1.9-0.3v-1.4h-1.6v-0.5h1.8v-0.9h-1.6v-3.6
			h3.9v2.8H67c-0.5-0.4-1.2-1-1.9-1.4l0.3-0.3c0.3,0.2,0.7,0.3,0.9,0.6c0.3-0.3,0.8-0.7,1-1.1h-2.8v-0.5h3.2h0.1l0.4,0.3l-0.1,0.1
			c-0.3,0.5-0.9,1.2-1.6,1.6c0.3,0.3,0.5,0.4,0.7,0.6l-0.3,0.3h0.8H68.2z M61.1,35.3v1h1.1v-1H61.1z M61.1,36.8v1.1h1.1v-1.1H61.1z
			 M63.9,36.4v-1h-1.1v1H63.9z M63.9,37.9v-1.1h-1.1v1.1H63.9z"/>
	</g>
</g>
<g>
	<g>
		<path class="st1" d="M212.5,35.8l0.4,0.3c0,0.1-0.1,0.1-0.1,0.1c-0.2,0.8-0.4,1.5-0.8,2.2c0.6,1.6,1.8,3.1,3.4,3.8
			c-0.2,0.1-0.3,0.3-0.4,0.5c-1.5-0.7-2.6-2-3.3-3.6c-1,1.7-2.4,2.9-4,3.6c-0.1-0.2-0.3-0.4-0.4-0.5c2.2-0.9,4.1-2.8,4.8-5.6h-2.4
			c-0.5,1-1.2,2-2,2.7c-0.1-0.1-0.3-0.3-0.4-0.4c1.1-0.9,2.1-2.6,2.7-4.3l0.8,0.3c0,0.1-0.1,0.1-0.2,0.1c-0.2,0.3-0.3,0.8-0.4,1.1
			L212.5,35.8L212.5,35.8z"/>
		<path class="st1" d="M222.2,38.7c0,0.1-0.1,0.1-0.2,0.1c-0.1,0.2-0.2,0.3-0.3,0.5h2.4v0.5h-8v-0.5h2.3c-0.1-0.2-0.2-0.4-0.3-0.6
			l0.3-0.1h-0.9V37h5.3v1.6h-0.9L222.2,38.7z M219.7,36.1v-0.6h-3.4v-0.4h3.4v-0.7l0.8,0.1c0,0.1-0.1,0.1-0.2,0.1v0.5h3.5v0.4h-3.5
			v0.6h2.8v0.4H217v-0.4H219.7z M217.2,42.4v-2.2h5.6v2.2h-0.6v-0.3h-4.4v0.3H217.2z M222.2,40.8h-4.4v0.9h4.4V40.8z M217.9,37.4
			v0.8h4.1v-0.8H217.9z M221,39.3c0.1-0.2,0.3-0.4,0.3-0.7h-2.8c0.2,0.2,0.3,0.5,0.3,0.7H221z"/>
	</g>
</g>
<g>
	<path class="st1" d="M95,72c0.8,0.2,1.4,0.8,1.4,1.6c0,1-0.8,1.9-2.2,1.9c-0.7,0-1.2-0.2-1.6-0.4l0.2-0.5c0.3,0.2,0.8,0.3,1.3,0.3
		c1.1,0,1.5-0.8,1.5-1.4c0-0.9-0.8-1.4-1.6-1.4h-0.4v-0.5H94c0.6,0,1.4-0.4,1.4-1.2c0-0.5-0.3-1-1.1-1c-0.4,0-0.9,0.3-1.2,0.4
		l-0.2-0.5c0.3-0.3,0.9-0.5,1.6-0.5c1.2,0,1.7,0.8,1.7,1.6C96.2,71.1,95.7,71.7,95,72L95,72z"/>
	<path class="st1" d="M97.4,72.3c0-2.2,0.9-3.4,2.1-3.4s2,1.1,2,3.3s-0.8,3.4-2.1,3.4C98.2,75.6,97.4,74.4,97.4,72.3z M100.7,72.2
		c0-1.6-0.3-2.8-1.3-2.8c-0.8,0-1.3,1-1.3,2.8c0,1.7,0.4,2.8,1.3,2.8C100.4,75,100.7,73.7,100.7,72.2z"/>
	<path class="st1" d="M105.3,68.7c0,0.1-0.1,0.1-0.2,0.1c-0.6,1.4-1.6,2.7-2.7,3.5c-0.1-0.1-0.3-0.3-0.4-0.4c1-0.7,2.1-2,2.6-3.4
		L105.3,68.7z M108.3,71.5h0.2h0.3c0,0.1,0,0.2,0,0.2c-0.2,2.8-0.3,3.8-0.6,4.1c-0.3,0.3-0.5,0.3-1,0.3c-0.3,0-0.7,0-1,0
		c0-0.2-0.1-0.4-0.2-0.6c0.6,0.1,1.1,0.1,1.4,0.1c0.2,0,0.3,0,0.3-0.1c0.3-0.3,0.3-1.1,0.4-3.5h-2.3c-0.3,1.6-0.7,3.4-3,4.1
		c-0.1-0.2-0.3-0.3-0.3-0.5c2.1-0.7,2.6-2.2,2.8-3.6h-1.8v-0.6L108.3,71.5C108.3,71.4,108.3,71.5,108.3,71.5z M107.6,68.4
		c0.6,1.2,1.7,2.5,2.7,3.2c-0.2,0.1-0.3,0.3-0.5,0.5c-0.9-0.8-2.1-2.2-2.8-3.5L107.6,68.4z"/>
</g>
<g>
	<path class="st1" d="M161.8,37.1h-3.4c0.6,2.1,1.6,3.6,3.5,4.3c-0.2,0.1-0.3,0.3-0.4,0.5c-1.8-0.8-2.9-2.2-3.5-4.3
		c-0.4,1.7-1.3,3.4-3.5,4.3c-0.1-0.2-0.3-0.3-0.4-0.5c2.2-0.9,3.1-2.7,3.5-4.4h-3.4v-0.6h3.5c0.1-0.9,0.1-1.8,0.1-2.5l0.8,0.1
		c0,0.1-0.1,0.1-0.2,0.2c0,0.7,0,1.5-0.1,2.3h3.6v0.6C161.9,37.1,161.8,37.1,161.8,37.1z"/>
	<path class="st1" d="M166.8,34.9h3.4v2h-0.6v-1.5h-6.1v1.5h-0.6v-2h3.3v-1L167,34c0,0.1-0.1,0.1-0.2,0.1V34.9
		C166.7,34.9,166.8,34.9,166.8,34.9z M168.7,38.4h-1.9c0,0.3-0.1,0.5-0.2,0.8h2.8v2.7h-0.6v-0.3h-4.6V42h-0.6v-2.8h2.3
		c0-0.3,0.1-0.5,0.1-0.8h-1.8v-2.2h4.4v2.2C168.6,38.4,168.7,38.4,168.7,38.4z M168.9,41.1v-1.4h-4.6v1.4H168.9z M164.9,36.7v1.2
		h3.3v-1.2H164.9z"/>
</g>
<g>
	<path class="st1" d="M92.1,36.2v-2.1l0.8,0.1c0,0.1-0.1,0.1-0.2,0.1v7.6h-0.6v-2c-0.8,0.3-1.6,0.7-2.2,0.9c0,0.1,0,0.1-0.1,0.1
		l-0.3-0.7c0.6-0.2,1.6-0.6,2.5-0.9v-2.5h-2.2v-0.6H92.1L92.1,36.2z M94.8,40.6c0,0.4,0.1,0.5,0.4,0.5h1.4c0.4,0,0.5-0.3,0.5-1.8
		c0.2,0.1,0.3,0.3,0.5,0.3c0.1,1.6-0.1,2.2-0.9,2.2h-1.5c-0.8,0-1-0.3-1-1.1V34l0.8,0.1c0,0.1-0.1,0.1-0.2,0.1V37
		c0.9-0.5,1.7-1.1,2.2-1.6l0.5,0.5h-0.1h-0.1c-0.6,0.5-1.6,1.1-2.6,1.6L94.8,40.6L94.8,40.6z"/>
	<path class="st1" d="M106.2,37.4V38h-3.6v4H102v-4h-3.5v-0.6h3.5v-2.2c-0.9,0.2-2,0.3-2.9,0.3c0-0.2-0.1-0.3-0.2-0.5
		c2.1-0.2,4.6-0.6,6-1l0.5,0.5h-0.1h-0.1c-0.7,0.2-1.5,0.3-2.4,0.5h0.1c0,0.1-0.1,0.1-0.2,0.1v2.2h3.5
		C106.2,37.3,106.2,37.4,106.2,37.4z"/>
	<path class="st1" d="M108.1,37c-0.3,0.5-0.7,1-1,1.5c-0.1-0.2-0.2-0.4-0.3-0.5c0.9-0.9,1.6-2.4,2.2-3.9l0.7,0.3
		c0,0.1-0.1,0.1-0.2,0.1c-0.3,0.6-0.5,1.2-0.8,1.8l0.3,0.1c0,0.1-0.1,0.1-0.2,0.1v5.7h-0.7V37z M112.4,41h2.5v0.5h-5.7V41h2.6v-2.3
		h-2.1v-0.4h2.1v-2h-2.3v-0.6h3.1c-0.4-0.4-1.2-0.9-1.9-1.4l0.3-0.4c0.7,0.3,1.6,0.9,1.9,1.3l-0.3,0.4h2.2v0.5h-2.3v2.2h2.1v0.5
		h-2.1L112.4,41L112.4,41z"/>
</g>
<line class="st2" x1="26" y1="56.3" x2="215.2" y2="56.3"/>
<circle class="st3" cx="215.2" cy="56.3" r="7"/>
<circle class="st3" cx="48.2" cy="56.3" r="7"/>
<circle class="st3" cx="161.7" cy="56.3" r="7"/>
<circle class="st3" cx="101.6" cy="56.7" r="7"/>
<g>
	<path class="st1" d="M38.8,105c0,0.5-0.4,0.8-0.8,0.8s-0.8-0.4-0.8-0.8s0.4-0.8,0.8-0.8C38.4,104.1,38.8,104.5,38.8,105z"/>
	<path class="st1" d="M50.2,104.1h-3.3c0.6,2,1.7,3.6,3.4,4.3c-0.2,0.2-0.3,0.3-0.4,0.5c-1.8-0.8-2.8-2.3-3.4-4.3
		c-0.4,1.7-1.3,3.3-3.5,4.3c-0.1-0.2-0.3-0.3-0.4-0.5c2.3-0.9,3.1-2.6,3.4-4.3h-3.3v-0.6H46c0.1-0.9,0.1-1.8,0.1-2.5l0.8,0.1
		c0,0.1-0.1,0.1-0.2,0.2c0,0.7,0,1.5-0.1,2.3h3.5v0.5H50.2z"/>
	<path class="st1" d="M55.1,102h3.3v2h-0.6v-1.4h-6v1.4h-0.6v-2h3.3v-1l0.8,0.1c0,0.1-0.1,0.1-0.2,0.1V102z M56.9,105.4H55
		c0,0.3-0.1,0.5-0.2,0.8h2.8v2.7H57v-0.3h-4.4v0.3H52v-2.7h2.3c0-0.3,0.1-0.5,0.1-0.8h-1.8v-2.2h4.3
		C56.9,103.2,56.9,105.4,56.9,105.4z M57.1,108.1v-1.3h-4.4v1.3H57.1z M53.3,103.7v1.3h3.2v-1.3H53.3z"/>
	<path class="st1" d="M63.2,108.2v-5.7l0,0l-1,0.6l-0.2-0.5l1.3-0.8H64v6.4H63.2z"/>
	<path class="st1" d="M69.7,101.8v0.6h-2.3l-0.3,1.8c0.2,0,0.3,0,0.5,0c1.1,0,2.1,0.7,2.1,1.9c0,1.3-0.9,2.2-2.2,2.2
		c-0.7,0-1.2-0.2-1.4-0.3l0.2-0.6c0.3,0.2,0.7,0.3,1.3,0.3c0.8,0,1.5-0.6,1.5-1.5c0-0.8-0.6-1.5-1.8-1.5c-0.3,0-0.6,0-0.8,0.1
		l0.4-2.9L69.7,101.8L69.7,101.8z"/>
	<path class="st1" d="M73.9,101.5c0,0.1-0.1,0.1-0.2,0.1c-0.6,1.3-1.6,2.6-2.7,3.3c-0.1-0.1-0.3-0.3-0.4-0.4c1.1-0.7,2-1.9,2.6-3.3
		L73.9,101.5z M76.9,104.3L76.9,104.3h0.4c0,0.1,0,0.2,0,0.2c-0.2,2.8-0.3,3.7-0.6,4c-0.3,0.3-0.5,0.3-1,0.3c-0.3,0-0.7,0-1,0
		c0-0.2-0.1-0.4-0.2-0.6c0.6,0.1,1.1,0.1,1.3,0.1c0.2,0,0.3,0,0.3-0.1c0.3-0.3,0.3-1.1,0.5-3.3h-2.3c-0.3,1.6-0.7,3.3-3,4.1
		c-0.1-0.2-0.3-0.3-0.3-0.5c2-0.7,2.5-2.1,2.8-3.6h-1.9v-0.6C71.9,104.3,76.9,104.3,76.9,104.3z M76.1,101.2
		c0.6,1.2,1.7,2.5,2.6,3.1c-0.2,0.1-0.3,0.3-0.5,0.5c-0.9-0.8-2-2.2-2.7-3.4L76.1,101.2z"/>
</g>
<g>
	<path class="st1" d="M89,104.9c0,0.5-0.4,0.8-0.8,0.8s-0.8-0.4-0.8-0.8s0.4-0.8,0.8-0.8C88.7,104.1,89,104.5,89,104.9z"/>
	<path class="st1" d="M92.9,103.4c0.6,0.3,1.3,0.6,1.6,0.8l-0.3,0.5c-0.3-0.3-1-0.7-1.6-0.9L92.9,103.4z M92.9,108.5
		c0.4-0.7,1.1-1.8,1.5-2.8l0.4,0.3c-0.4,0.9-1,2-1.4,2.7c0,0.1,0.1,0.1,0.1,0.1v0.1L92.9,108.5z M93.4,101.1
		c0.5,0.3,1.2,0.6,1.5,0.9l-0.3,0.5c-0.3-0.3-1-0.8-1.5-1L93.4,101.1z M96.4,107.6c0,0.5,0.1,0.6,0.8,0.6h2.3c0.5,0,0.6-0.3,0.7-1.2
		c0.2,0.1,0.3,0.2,0.5,0.3c-0.1,1.2-0.3,1.5-1.2,1.5h-2.3c-1,0-1.3-0.3-1.3-1.1v-2.8l-0.9,0.4l-0.3-0.5l1.1-0.4V102l0.8,0.1
		c0,0.1-0.1,0.1-0.2,0.1v1.8l1.3-0.5v-2.3l0.7,0.1c0,0.1-0.1,0.1-0.2,0.1v2l1.4-0.6c0,0,0.2-0.1,0.2-0.2l0.5,0.2l-0.1,0.1
		c0,1.6,0,2.9-0.1,3.3c-0.1,0.5-0.3,0.7-1.3,0.7c0-0.2-0.1-0.4-0.2-0.5c0.2,0,0.3,0,0.4,0c0.5,0,0.5,0,0.6-0.3s0.1-1.3,0.1-2.7
		l-1.4,0.6v3.3h-0.5v-3l-1.3,0.5L96.4,107.6L96.4,107.6z"/>
	<path class="st1" d="M102.5,105.1v-2c-0.3,0.3-0.6,0.7-0.9,0.9c-0.1-0.1-0.3-0.3-0.4-0.4c0.8-0.6,1.6-1.6,2.1-2.5l0.7,0.3
		c0,0.1-0.1,0.1-0.2,0.1c-0.2,0.3-0.4,0.8-0.8,1.1l0.2,0.1c0,0.1-0.1,0.1-0.2,0.1v2.5L102.5,105.1L102.5,105.1z M105.7,105.9
		c0.2,0.4,0.5,0.8,0.8,1.2c0.5-0.3,1.2-0.7,1.5-1l0.5,0.4c0,0.1-0.1,0.1-0.2,0.1c-0.4,0.3-1,0.6-1.6,0.8c0.6,0.5,1.3,0.8,2.3,1
		c-0.2,0.1-0.3,0.3-0.3,0.5c-1.8-0.4-2.9-1.4-3.6-3l0,0c-0.3,0.3-0.8,0.6-1.3,0.8h0.2c0,0.1-0.1,0.1-0.2,0.1v1.3
		c0.7-0.1,1.4-0.1,2.1-0.2v0.4c-1.2,0.2-2.5,0.3-3.3,0.3c0,0.1-0.1,0.1-0.1,0.1l-0.3-0.6l0.9-0.1v-1.2c-0.6,0.3-1.2,0.4-1.7,0.6
		c-0.1-0.2-0.3-0.3-0.3-0.4c1.1-0.3,2.3-0.7,3.2-1.3h-3v-0.5h3.5v-0.9l0.8,0.1c0,0.1-0.1,0.1-0.2,0.1v0.8h3.6v0.5L105.7,105.9
		L105.7,105.9z M103.6,102.6l1.8-0.2c-0.2-0.4-0.2-0.9-0.3-1.4h0.8c0,0.1-0.1,0.1-0.2,0.2c0,0.4,0.1,0.8,0.3,1.3l2.9-0.3l0.1,0.5
		l-2.8,0.3c0.4,1,1.2,1.7,2,1.7c0.3,0,0.3-0.3,0.4-0.8c0.2,0.1,0.3,0.3,0.4,0.3c-0.1,0.9-0.3,1.2-0.8,1.2c-1.1,0-2-0.9-2.5-2.2
		l-1.8,0.2L103.6,102.6z M106.8,101.1c0.5,0.2,1.2,0.4,1.5,0.6l-0.3,0.4c-0.3-0.3-1-0.5-1.5-0.7L106.8,101.1z"/>
	<path class="st1" d="M111.9,108.5h-0.6l2.7-6.9h0.6L111.9,108.5z"/>
	<path class="st1" d="M118.7,108h3.9v0.6h-7.7V108h3.3v-6.8l0.8,0.1c0,0.1-0.1,0.1-0.2,0.1v2.5h3.3v0.6h-3.3v3.5H118.7z"/>
	<path class="st1" d="M131,104.3h0.3c-0.1,0.4-0.5,1.6-0.8,2.1c-0.3-0.1-0.4-0.1-0.5-0.2c0.2-0.3,0.4-0.9,0.6-1.4h-1.1v3.4
		c0,0.7-0.3,0.7-1.7,0.7c0-0.2-0.1-0.4-0.2-0.6c0.3,0,0.7,0,0.8,0c0.4,0,0.4,0,0.4-0.2v-3.3h-1.5v0.2h-1.6v0.9h1.6v0.5h-1.6v1.3
		l1.8-0.3v0.5c-1.4,0.3-3,0.5-3.9,0.7c0,0.1-0.1,0.1-0.2,0.1l-0.2-0.7c0.5-0.1,1.2-0.2,1.8-0.3v-1.3h-1.6v-0.5h1.6V105h-1.6v-3.5
		h3.8v2.8h2.4c-0.5-0.4-1.2-1-1.8-1.3l0.3-0.3c0.3,0.2,0.7,0.3,0.9,0.6c0.3-0.3,0.8-0.7,1-1.1h-2.7v-0.5h3.1h0.1l0.4,0.3l-0.1,0.1
		c-0.3,0.5-0.9,1.2-1.5,1.6c0.3,0.3,0.5,0.4,0.7,0.6l-0.3,0.3h0.8L131,104.3z M124.1,101.9v1h1.1v-1H124.1z M124.1,103.4v1.1h1.1
		v-1.1H124.1z M126.8,103v-1.1h-1.1v1L126.8,103L126.8,103z M126.8,104.5v-1.1h-1.1v1.1H126.8z"/>
	<path class="st1" d="M137.1,108.2h-0.7v-1.8h-2.8V106l2.7-4.1h0.8v4h0.8v0.5h-0.8V108.2z M134.3,105.9h2.1v-2.3c0-0.3,0-0.7,0-1
		l0,0c-0.2,0.4-0.3,0.7-0.5,0.9L134.3,105.9L134.3,105.9z"/>
	<path class="st1" d="M142,101.8v0.6h-2.3l-0.3,1.8c0.2,0,0.3,0,0.5,0c1.1,0,2.1,0.7,2.1,1.9c0,1.3-0.9,2.2-2.2,2.2
		c-0.7,0-1.2-0.2-1.4-0.3l0.2-0.6c0.3,0.2,0.7,0.3,1.3,0.3c0.8,0,1.5-0.6,1.5-1.5c0-0.8-0.6-1.5-1.8-1.5c-0.3,0-0.6,0-0.8,0.1
		l0.4-2.9C139.2,101.8,142,101.8,142,101.8z"/>
	<path class="st1" d="M146.2,101.5c0,0.1-0.1,0.1-0.2,0.1c-0.6,1.3-1.6,2.6-2.7,3.3c-0.1-0.1-0.3-0.3-0.4-0.4c1.1-0.8,2-1.9,2.6-3.3
		L146.2,101.5z M149.2,104.3h0.2h0.3c0,0.1,0,0.2,0,0.2c-0.2,2.8-0.3,3.7-0.6,4s-0.5,0.3-1,0.3c-0.3,0-0.7,0-1,0
		c0-0.2-0.1-0.4-0.2-0.6c0.6,0.1,1.1,0.1,1.3,0.1s0.3,0,0.3-0.1c0.3-0.3,0.3-1.1,0.5-3.3h-2.3c-0.3,1.6-0.7,3.3-3,4.1
		c-0.1-0.2-0.3-0.3-0.3-0.5c2-0.7,2.5-2.1,2.8-3.6h-1.8v-0.6H149.2L149.2,104.3z M148.4,101.2c0.6,1.2,1.7,2.5,2.6,3.1
		c-0.2,0.1-0.3,0.3-0.5,0.5c-0.9-0.8-2-2.2-2.7-3.4L148.4,101.2z"/>
</g>
<g>
	<path class="st1" d="M161.4,104.9c0,0.5-0.4,0.8-0.8,0.8c-0.5,0-0.8-0.4-0.8-0.8s0.4-0.8,0.8-0.8S161.4,104.5,161.4,104.9z"/>
	<path class="st1" d="M167.1,103.2v-2l0.8,0.1c0,0.1-0.1,0.1-0.2,0.1v7.4h-0.6v-1.9c-0.8,0.3-1.5,0.7-2.1,0.8c0,0.1-0.1,0.1-0.1,0.2
		l-0.3-0.7c0.6-0.2,1.5-0.6,2.4-0.9v-2.4h-2.2v-0.6C164.9,103.2,167.1,103.2,167.1,103.2z M169.8,107.5c0,0.4,0.1,0.5,0.4,0.5h1.3
		c0.4,0,0.5-0.3,0.5-1.8c0.2,0.1,0.3,0.3,0.5,0.3c-0.1,1.5-0.3,2.1-1,2.1h-1.4c-0.8,0-1-0.3-1-1.1v-6.4l0.8,0.1
		c0,0.1-0.1,0.1-0.2,0.1v2.7c0.8-0.5,1.7-1.1,2.2-1.6l0.5,0.5h-0.1h-0.1c-0.6,0.5-1.6,1.1-2.5,1.6L169.8,107.5
		C169.7,107.5,169.8,107.5,169.8,107.5z"/>
	<path class="st1" d="M181.4,104.4v0.6h-3.5v3.9h-0.6V105h-3.4v-0.6h3.4v-2.1c-0.9,0.2-1.9,0.3-2.8,0.3c0-0.2-0.1-0.3-0.2-0.5
		c2-0.2,4.4-0.6,5.8-1l0.5,0.5h-0.1h-0.1c-0.7,0.2-1.4,0.3-2.3,0.5h0.1c0,0.1-0.1,0.1-0.2,0.1v2.1L181.4,104.4L181.4,104.4z"/>
	<path class="st1" d="M183.9,104c-0.3,0.5-0.7,1-1,1.4c-0.1-0.2-0.2-0.4-0.3-0.5c0.8-0.8,1.6-2.3,2.1-3.8l0.7,0.3
		c0,0.1-0.1,0.1-0.2,0.1c-0.3,0.6-0.5,1.2-0.8,1.8l0.3,0.1c0,0.1-0.1,0.1-0.2,0.1v5.5H184v-4.9C184.1,104,183.9,104,183.9,104z
		 M188.1,108h2.4v0.5H185V108h2.5v-2.3h-2v-0.5h2v-1.9h-2.3v-0.5h3c-0.4-0.4-1.2-0.9-1.8-1.3l0.3-0.4c0.7,0.3,1.5,0.9,1.8,1.3
		l-0.3,0.4h2.1v0.5H188v1.9h2.2v0.5h-2L188.1,108L188.1,108z"/>
	<path class="st1" d="M195.8,104.7c0.8,0.2,1.3,0.8,1.3,1.6c0,1-0.8,1.8-2.1,1.8c-0.7,0-1.2-0.2-1.5-0.4l0.2-0.5
		c0.3,0.2,0.8,0.3,1.3,0.3c1.1,0,1.4-0.8,1.4-1.3c0-0.9-0.8-1.3-1.6-1.3h-0.4v-0.4h0.4c0.6,0,1.3-0.3,1.3-1.2c0-0.6-0.3-1-1.1-1
		c-0.4,0-0.9,0.3-1.2,0.4l-0.2-0.5c0.3-0.3,0.9-0.5,1.5-0.5c1.2,0,1.7,0.8,1.7,1.5C197,103.8,196.6,104.4,195.8,104.7L195.8,104.7z"
		/>
	<path class="st1" d="M198.8,105c0-2.2,0.8-3.3,2-3.3s1.9,1.1,1.9,3.2c0,2.2-0.8,3.3-2,3.3C199.6,108.2,198.8,107.1,198.8,105z
		 M202.1,104.9c0-1.6-0.3-2.7-1.3-2.7c-0.8,0-1.3,1-1.3,2.7s0.4,2.7,1.3,2.7C201.7,107.7,202.1,106.4,202.1,104.9z"/>
	<path class="st1" d="M207.2,101.5c0,0.1-0.1,0.1-0.2,0.1c-0.6,1.3-1.6,2.6-2.6,3.3c-0.1-0.1-0.3-0.3-0.4-0.4c1-0.7,2-1.9,2.5-3.3
		L207.2,101.5z M210.2,104.2h0.2h0.3c0,0.1,0,0.2,0,0.2c-0.2,2.7-0.3,3.7-0.6,4s-0.5,0.3-1,0.3c-0.3,0-0.7,0-1,0
		c0-0.2-0.1-0.4-0.2-0.6c0.6,0.1,1.1,0.1,1.3,0.1s0.3,0,0.3-0.1c0.3-0.3,0.3-1.1,0.4-3.3h-2.3c-0.3,1.6-0.7,3.3-2.9,4
		c-0.1-0.2-0.3-0.3-0.3-0.5c2-0.7,2.5-2.1,2.7-3.5h-1.8v-0.6H210.2L210.2,104.2z M209.4,101.2c0.6,1.2,1.7,2.4,2.6,3.1
		c-0.2,0.1-0.3,0.3-0.5,0.5c-0.9-0.8-2-2.1-2.7-3.3L209.4,101.2z"/>
</g>
<g>
	<path class="st1" d="M131.7,112.4l2.3,2.3l2.3-2.3l0.2,0.2l-2.3,2.3l2.3,2.3l-0.2,0.2l-2.3-2.3l-2.3,2.3l-0.2-0.2l2.3-2.3l-2.3-2.3
		L131.7,112.4z M132,115.5c-0.3,0-0.5-0.2-0.5-0.6c0-0.3,0.2-0.6,0.5-0.6s0.5,0.2,0.5,0.6C132.6,115.2,132.3,115.5,132,115.5z
		 M133.5,113c0-0.3,0.2-0.5,0.6-0.5c0.3,0,0.5,0.2,0.5,0.5s-0.2,0.6-0.5,0.6C133.7,113.5,133.5,113.2,133.5,113z M134.5,116.9
		c0,0.3-0.2,0.5-0.5,0.5s-0.6-0.2-0.6-0.5s0.2-0.6,0.6-0.6C134.3,116.4,134.5,116.7,134.5,116.9z M136,114.4c0.3,0,0.6,0.2,0.6,0.6
		s-0.2,0.6-0.6,0.6c-0.3,0-0.5-0.2-0.5-0.6S135.7,114.4,136,114.4z"/>
	<path class="st1" d="M144.6,116.2h-2.3c0.6,0.6,1.7,1.2,2.7,1.4c-0.1,0.1-0.3,0.3-0.3,0.4c-0.9-0.3-2-0.9-2.7-1.6v1.8h-0.5v-1.8
		c-0.7,0.7-1.7,1.3-2.7,1.6c-0.1-0.1-0.2-0.3-0.3-0.4c0.9-0.3,2-0.8,2.6-1.4h-2.2v-0.4h1V115h-1.3v-0.4h1.3v-0.8h-1v-0.4h2.5v-0.7
		c-0.8,0.1-1.6,0.1-2.3,0.1c0-0.1-0.1-0.3-0.1-0.4c1.7-0.1,3.8-0.2,4.9-0.5l0.3,0.4h-0.1H144c-0.6,0.1-1.3,0.2-2.2,0.3v0.7h2.6v0.4
		h-1v0.8h1.3v0.4h-1.3v0.8h1.1L144.6,116.2C144.5,116.2,144.6,116.2,144.6,116.2z M140.3,113.7v0.8h1v-0.8H140.3z M140.3,114.9v0.8
		h1v-0.8H140.3z M143,113.7h-1.1v0.8h1.1V113.7z M143,115.8V115h-1.1v0.8H143z"/>
	<path class="st1" d="M146.8,115.8c-0.1-0.3-0.2-0.9-0.2-1.3c0-0.6,0.1-1.4,0.2-2.3l0.7,0.1c0,0.1-0.1,0.1-0.2,0.1
		c-0.1,0.6-0.2,1.5-0.2,2c0,0.1,0,0.3,0,0.3c0.1-0.3,0.4-0.8,0.6-1c0.1,0.1,0.2,0.2,0.3,0.3c-0.5,0.9-0.7,1.2-0.7,1.5
		c0,0.1,0,0.1,0,0.1L146.8,115.8z M150.5,112c0,0.1-0.1,0.1-0.2,0.1c0.1,0.6,0.1,1.6,0.1,2.4c0,1.3-0.5,2.6-2.6,3.4
		c-0.1-0.1-0.2-0.3-0.3-0.4c1.9-0.7,2.4-1.9,2.4-3c0-0.8-0.1-1.9-0.1-2.6L150.5,112L150.5,112z"/>
	<path class="st1" d="M154.4,115.3l-0.8,0.3v2.1c0,0.5-0.2,0.6-1.1,0.6c0-0.1-0.1-0.3-0.1-0.4c0.2,0,0.3,0,0.5,0
		c0.3,0,0.3,0,0.3-0.1v-2l-0.7,0.2c0,0.1-0.1,0.1-0.1,0.1l-0.1-0.6c0.3-0.1,0.6-0.1,1-0.3v-1.6h-0.9v-0.4h0.9v-1.5h0.6
		c0,0.1-0.1,0.1-0.1,0.1v1.3h0.7v0.4c0.6-0.6,1-1.3,1.3-1.9l0.6,0.1c0,0.1-0.1,0.1-0.1,0.1c-0.1,0.1-0.1,0.3-0.1,0.4h1.3h0.1
		l0.3,0.2l-0.1,0.1c-0.1,0.3-0.3,0.6-0.5,0.9h1.3v2.4h-0.4V115c-0.1,0.1-0.1,0.1-0.3,0.1h-0.4c-0.3,0-0.4-0.1-0.4-0.5v-0.8h-0.6
		c-0.1,0.6-0.2,1.2-0.8,1.5c-0.1-0.1-0.1-0.2-0.2-0.3c0.5-0.2,0.6-0.6,0.6-1.2h-0.6v2h-0.4v-2c-0.1,0.1-0.1,0.1-0.3,0.2
		c-0.1-0.1-0.2-0.2-0.3-0.3c0.1-0.1,0.1-0.1,0.1-0.1h-0.7v1.5l0.8-0.2L154.4,115.3z M158.6,116.4h-1.8c0.3,0.7,1,1.2,2,1.4
		c-0.1,0.1-0.2,0.3-0.3,0.4c-1-0.2-1.7-0.8-2-1.6c-0.3,0.8-0.8,1.3-2,1.6c-0.1-0.1-0.1-0.3-0.2-0.3c1.1-0.3,1.6-0.8,1.9-1.5h-1.7
		V116h1.8c0-0.2,0.1-0.4,0.1-0.6l0.6,0.1c0,0.1-0.1,0.1-0.1,0.1c0,0.1-0.1,0.3-0.1,0.5h2L158.6,116.4L158.6,116.4z M156.5,113.4
		c0.1-0.2,0.3-0.5,0.4-0.8h-1.3c-0.1,0.2-0.3,0.5-0.5,0.8H156.5z M157.5,114.7c0.1,0,0.1,0,0.1-0.3c0.1,0.1,0.1,0.1,0.2,0.1v-0.8
		H157v0.8c0,0.1,0,0.1,0.1,0.1C157.2,114.7,157.5,114.7,157.5,114.7z"/>
	<path class="st1" d="M162.4,115.6c0.2-0.1,0.5-0.1,0.7-0.1c0.3,0,0.6,0.3,0.6,0.7c0,0.2,0,0.4,0,0.6c0,0.7,0.4,0.7,1,0.7
		c0.3,0,0.6,0,0.9-0.1c0,0.3,0,0.5,0,0.5c-0.3,0-0.6,0.1-0.9,0.1s-0.6,0-0.7-0.1c-0.5-0.1-0.8-0.4-0.8-0.8c0-0.1,0-0.5,0-0.7
		c0-0.3-0.1-0.5-0.3-0.5c-0.3,0-0.8,0.2-1.3,0.6c-0.4,0.4-1.2,1.2-1.4,1.5c0,0-0.1-0.1-0.3-0.3c0.6-0.7,2.9-2.8,3.6-3.5
		c-0.5,0.1-2.1,0.1-2.9,0.2c0,0.1-0.1,0.1-0.1,0.1l-0.1-0.6c1,0,2.8-0.1,3.5-0.2l0.1-0.1l0.4,0.3c-0.1,0-0.1,0.1-0.1,0.1
		C163.8,114.4,162.9,115.1,162.4,115.6L162.4,115.6z M164.2,112.8c-0.8-0.2-2-0.4-3-0.5l0.1-0.5c1,0.1,2.2,0.2,3,0.5L164.2,112.8z"
		/>
	<path class="st1" d="M169.4,111.9c0,0.1-0.1,0.1-0.2,0.1c-0.1,0.3-0.1,0.7-0.1,0.9c0.7-0.1,1.5-0.1,2-0.3l0.1,0.5
		c-0.6,0.1-1.4,0.3-2.2,0.3c-0.3,1.3-0.8,2.4-1.5,3.4l-0.5-0.2c0.6-0.9,1.1-2,1.4-3.2H167V113h0.8c0.2,0,0.4,0,0.6,0
		c0.1-0.3,0.1-0.8,0.2-1.2L169.4,111.9z M171.2,114.8c0,0.6,0.1,1,0.1,1.4c0.4,0.1,1,0.5,1.5,0.8l-0.3,0.4c-0.3-0.3-0.8-0.6-1.3-0.7
		c0,0.7-0.3,1.3-1.3,1.3c-0.8,0-1.4-0.3-1.3-1c0-0.7,0.7-1,1.4-1c0.3,0,0.5,0.1,0.8,0.1c0-0.4-0.1-0.9-0.1-1.3L171.2,114.8z
		 M170.9,116.6c-0.3-0.1-0.6-0.1-0.8-0.1c-0.4,0-0.9,0.1-0.9,0.6c0,0.4,0.4,0.6,0.9,0.6s0.8-0.2,0.8-0.7
		C170.9,116.8,170.9,116.7,170.9,116.6z M172.8,114.2c-0.8,0-1.7,0.1-2.4,0.3l-0.1-0.4c0.8-0.2,1.7-0.3,2.5-0.3V114.2z"/>
	<path class="st1" d="M175.9,112c0,0.1-0.1,0.1-0.2,0.1c-0.1,0.8-0.1,2.7-0.1,3.7s0.5,1.5,1.4,1.5c0.8,0,1.7-0.4,2.5-1.3
		c0.1,0.1,0.2,0.3,0.3,0.4c-0.8,0.9-1.8,1.4-2.9,1.4c-1.3,0-1.9-0.7-1.9-2c0-0.9,0.1-3.1,0.1-3.9L175.9,112z"/>
	<path class="st1" d="M181.2,116.2c0.5,0.4,1.2,1.1,1.6,1.5l-0.4,0.3c-0.3-0.4-1-1.2-1.5-1.6L181.2,116.2z"/>
	<path class="st1" d="M187,113.4h1.1c0-0.2,0.1-0.4,0.1-0.6h-2.9v-0.4h2.9c0-0.2,0.1-0.5,0.1-0.7l0.6,0.1c0,0.1-0.1,0.1-0.1,0.1
		c0,0.1,0,0.3-0.1,0.5h2.8v0.4h-2.9c0,0.2-0.1,0.4-0.1,0.6h2.2v3.3H187V113.4L187,113.4z M191.6,117.4v0.4h-5.4v0.3h-0.5v-4.5h0.6
		c0,0.1-0.1,0.1-0.1,0.1v3.6L191.6,117.4L191.6,117.4z M190.2,114.4v-0.6h-2.8v0.6H190.2z M190.2,115.3v-0.6h-2.8v0.6H190.2z
		 M190.2,116.4v-0.6h-2.8v0.6H190.2z"/>
	<path class="st1" d="M194.3,114.5v2.3c0.6,0.8,1.5,0.8,2.9,0.8c0.8,0,1.7,0,2.2-0.1c-0.1,0.1-0.1,0.3-0.1,0.5c-0.5,0-1.3,0-2,0
		c-1.5,0-2.5,0-3.1-0.8c-0.3,0.3-0.8,0.6-1,0.8c0,0.1,0,0.1-0.1,0.1l-0.3-0.5c0.3-0.2,0.8-0.6,1.1-0.8V115h-1v-0.4L194.3,114.5
		L194.3,114.5L194.3,114.5z M193.2,111.8c0.4,0.3,1,0.8,1.2,1.2l-0.3,0.3c-0.2-0.3-0.7-0.8-1.2-1.2L193.2,111.8z M197.2,113.5
		c-0.4-0.2-1-0.5-1.4-0.6l0.3-0.3c0.3,0.1,0.6,0.3,1,0.4c0.3-0.1,0.8-0.3,1-0.6H195V112h3.6h0.1l0.3,0.2l-0.1,0.1
		c-0.3,0.3-0.9,0.6-1.4,0.9c0.2,0.1,0.4,0.2,0.6,0.3h0.9v3.1c0,0.5-0.1,0.5-1.2,0.5c0-0.1-0.1-0.3-0.1-0.4c0.2,0,0.4,0,0.6,0
		c0.3,0,0.3,0,0.3-0.1v-0.7h-1.3v1.2h-0.4v-1.2h-1.3v1.2h-0.4v-3.7h2.1v0.1H197.2z M196.8,113.9h-1.3v0.7h1.3V113.9z M195.5,115.5
		h1.3v-0.7h-1.3V115.5z M198.5,114.5v-0.7h-1.3v0.7H198.5z M197.2,115.5h1.3v-0.7h-1.3V115.5z"/>
	<path class="st1" d="M202,117.6v-4.7l0,0l-0.8,0.5l-0.1-0.4l1-0.6h0.5v5.2H202z"/>
	<path class="st1" d="M211.3,113.7h-2.5c0.6,1.3,1.7,2.4,2.8,2.9c-0.1,0.1-0.3,0.3-0.3,0.4c-1.1-0.6-2.1-1.7-2.7-3v2.3h1.4v0.5h-1.4
		v1.3H208v-1.3h-1.4v-0.5h1.4V114c-0.7,1.3-1.7,2.4-2.7,3c-0.1-0.1-0.2-0.3-0.3-0.3c1.1-0.6,2.2-1.7,2.7-3h-2.5v-0.5h2.8v-1.5
		l0.6,0.1c0,0.1-0.1,0.1-0.1,0.1v1.4h2.9L211.3,113.7L211.3,113.7z"/>
</g>
</svg>
