<?xml version="1.0" encoding="UTF-8"?>
<svg xmlns="http://www.w3.org/2000/svg" version="1.1" viewBox="0 0 118.5 49.9">
  <defs>
    <style>
      .cls-1 {
        fill: #4d4d4d;
      }

      .cls-2 {
        fill: #89c13f;
      }

      .cls-3 {
        fill: #f0ffe5;
      }

      .cls-4 {
        display: none;
      }
    </style>
  </defs>
  <!-- Generator: Adobe Illustrator 28.7.1, SVG Export Plug-In . SVG Version: 1.2.0 Build 142)  -->
  <g>
    <g id="_レイヤー_1" data-name="レイヤー_1">
      <g>
        <ellipse class="cls-2" cx="57.3" cy="26.5" rx="57.3" ry="23.5"/>
        <path class="cls-2" d="M7.6,49.1c4.7-4.1,7.1-10.1,4.3-11.2l19.1,6.7c-3.3-1-9.8,6-23.1,5.2-.3,0-.5-.5-.3-.7Z"/>
      </g>
      <g>
        <ellipse class="cls-3" cx="61.3" cy="23.5" rx="57.3" ry="23.5"/>
        <path class="cls-3" d="M11.6,46.1c4.7-4.1,7.1-10.1,4.3-11.2l19.1,6.7c-3.3-1-9.8,6-23.1,5.2-.3,0-.5-.5-.3-.7Z"/>
      </g>
      <g class="cls-4">
        <g>
          <path class="cls-1" d="M22.2,19.6l.6.4c0,0,0,.1-.2.1-.4,1.1-1.1,2.2-1.8,3.2.6.4,1.7,1.4,2,1.6l-.5.8c-.3-.4-1.1-1-1.6-1.6v5.8h-.9v-5.4c-.5.6-1.1,1.1-1.7,1.5,0-.3-.4-.7-.5-.8,1.5-1.1,3.1-2.9,4-4.8h-3.8v-.9h2v-2.7h1.2c0,.2,0,.2-.3.3v2.4h1.5ZM22.6,17.4h7.9v.8h-7.9v-.8ZM23,30v-6.2h7.2v6.2h-.9v-.6h-5.4v.7h-.9ZM23.8,19.3h5.6v3.4h-5.6v-3.4ZM26.1,24.6h-2.2v1.5h2.2v-1.5ZM23.8,28.5h2.2v-1.6h-2.2v1.6ZM28.5,21.9v-1.9h-3.8v1.9h3.8ZM29.2,26.1v-1.5h-2.3v1.5h2.3ZM26.9,28.5h2.3v-1.6h-2.3v1.6Z"/>
          <path class="cls-1" d="M38.2,17.6c0,0-.1,0-.3,0-.6.3-1.4.6-2.3.8v2.7h2.8v.9h-2.8v1.1c.6.5,2.3,1.9,2.7,2.3l-.5.8c-.4-.5-1.4-1.4-2.1-2.1v5.8h-.9v-6.4c-.7,1.7-1.7,3.3-2.7,4.3-.1-.3-.4-.7-.5-.9,1.1-1.1,2.3-3.1,3-4.9h-2.8v-.9h3v-2.5c-.9.2-1.9.4-2.8.5,0-.2-.2-.5-.3-.7,2-.4,4.5-1,5.7-1.7l.9.7ZM39.5,18.7h1.2c0,.2,0,.2-.3.3v7.6h-.9v-7.8h0ZM43,17.2h1.2c0,.2,0,.2-.3.3v11.2c0,.7-.2,1-.6,1.1-.4.2-1.2.2-2.5.2,0-.3-.2-.7-.4-1,.5,0,1,0,1.4,0,1.1,0,1.2,0,1.2-.4v-11.5h0Z"/>
          <path class="cls-1" d="M58.4,18.6h-10.5v3.3c0,2.3-.2,5.7-1.5,8.1-.2-.2-.6-.4-.8-.5,1.3-2.2,1.4-5.3,1.4-7.6v-4.1h11.5v.9h0ZM58.6,26.6v.8h-4.9v1.5c0,.5-.1.7-.5.9-.4.1-1.1.1-2.2.1,0-.2-.2-.6-.3-.8.5,0,1,0,1.4,0,.8,0,.8,0,.8-.3v-1.5h-4.8v-.8h4.8v-.9h.6c.6-.2,1.2-.5,1.7-.8h-5.9v-.7h7.1c0,0,.7.4.7.4,0,0-.1,0-.2.1-.8.5-2,1.2-3.1,1.6v.3h4.9ZM56.8,23.4h-7.3v-3.9h7.3v3.9ZM50.4,20.2v.9h5.5v-.9h-5.5ZM50.4,21.8v1h5.5v-1h-5.5Z"/>
          <path class="cls-1" d="M66.6,28.6h5.9v.9h-12.7v-.9h5.8v-3.8h-4.3v-.9h4.3v-3.2h-3.4c-.5,1-1.1,1.9-1.7,2.6-.2-.2-.5-.4-.8-.6,1.1-1.2,2.1-3.3,2.7-5.5l1.2.3c0,0-.1.2-.3.2-.2.7-.4,1.4-.7,2.1h3v-2.8h1.3c0,.2,0,.2-.3.3v2.5h5.2v.9h-5.2v3.2h4.7v.9h-4.7v3.8Z"/>
          <path class="cls-1" d="M79,23.9c0,0-.1.2-.3.2-.3,2.9-.9,4.9-4.5,5.9,0-.2-.3-.6-.5-.8,3.3-.9,3.9-2.6,4.1-5.4h1.2ZM85.4,24.3c-.2-.3-.5-.7-.9-1.1-3.5.2-7.2.3-9.5.4,0,.1-.1.2-.2.2l-.4-1.1c.6,0,1.4,0,2.2,0,.5-.8,1.1-2,1.5-3h-4.1v-.9h5.7v-1.8h1.2c0,.2,0,.3-.3.3v1.5h5.8v.9h-7,0c0,0-.2.1-.3.1-.4.8-1,1.9-1.5,2.8,1.9,0,4-.1,6.1-.2-.7-.7-1.4-1.3-2.2-1.9l.8-.5c1.4,1.1,3.1,2.6,3.9,3.7l-.8.5ZM82.4,28.4c0,.4.1.5.7.5h1.9c.6,0,.7-.4.7-2.5.2.2.6.3.9.4-.1,2.4-.4,3-1.5,3h-2.1c-1.2,0-1.5-.3-1.5-1.4v-4.7h1.2c0,.2,0,.2-.3.3v4.5h0Z"/>
          <path class="cls-1" d="M100.4,26.2h-5.2c1,1.6,2.9,2.6,5.4,2.9-.2.2-.4.6-.6.8-2.8-.5-4.7-1.7-5.8-3.8h-.2c-.7,1.4-2.3,2.8-5.6,3.8-.1-.2-.4-.6-.6-.8,2.9-.8,4.4-1.9,5.1-3h-5v-.8h5.4c.2-.4.2-.9.3-1.3h-4v-.8h4v-1.2h-4.4v-.8h4.4v-1.4h1.2c0,.2,0,.3-.3.3v1.1h4.5v-1.8h-9.8v1.8h-.9v-2.7h5.3v-1.7h1.2c0,.2,0,.3-.3.3v1.5h5.4v2.7h-.9v.7h-4.5v1.2h4.2v.8h-4.2c0,.4,0,.9-.2,1.3h6.1v.8h0Z"/>
          <path class="cls-1" d="M107.2,28c0-.5.4-.9.9-.9s.9.4.9.9-.4.9-.9.9-.9-.4-.9-.9ZM107.7,25.8l-.2-7.7h1.3l-.2,7.7h-.9Z"/>
        </g>
      </g>
      <g>
        <path class="cls-1" d="M30,20h-7.6c-.3.6-.6,1.2-.9,1.7h6.8v7.3c0,1.2-.6,1.2-3.1,1.2,0-.3-.2-.7-.3-.9.5,0,1,0,1.3,0,1,0,1.1,0,1.1-.3v-1.6h-5.9v2.8h-.9v-6.9c-.7,1-1.5,1.8-2.5,2.5-.1-.2-.4-.6-.6-.8,1.7-1.2,3.1-3.1,4-5h-3.7v-.9h4.1c.3-.6.4-1.2.6-1.9l1.2.3c0,0-.1.2-.3.2-.1.5-.3.9-.5,1.4h7.3v.9ZM27.3,24.2v-1.6h-5.9v1.6h5.9ZM21.4,26.6h5.9v-1.6h-5.9v1.6Z"/>
        <path class="cls-1" d="M33.2,22.2c-.5.9-1.1,1.7-1.7,2.3,0-.2-.3-.7-.5-.9,1.3-1.5,2.7-3.9,3.5-6.3l1.1.4c0,0-.2.1-.3.1-.4,1-.8,2-1.3,2.9h.4c0,.2,0,.3-.3.3v9.3h-.9v-8.1ZM44.2,21.8h-3.6c.9,2.3,2.5,4.7,4,5.9-.2.2-.5.5-.7.8-1.4-1.3-2.9-3.6-3.8-5.9v7.8h-.9v-7.6c-1,2.3-2.4,4.5-3.9,5.8-.2-.2-.5-.6-.7-.7,1.6-1.2,3.1-3.6,4-5.9h-3.5v-.9h4.1v-3.5h1.2c0,.2,0,.3-.3.3v3.2h4.2v.9Z"/>
        <path class="cls-1" d="M45.8,21.2c.9.4,2.1,1,2.6,1.5l-.5.8c-.6-.5-1.7-1.1-2.6-1.5l.5-.7ZM45.7,29.4c.7-1.1,1.8-3,2.5-4.6l.7.6c-.7,1.5-1.6,3.2-2.3,4.3,0,0,0,.1,0,.2s0,.1,0,.2l-1-.7ZM48.6,19.7c-.5-.5-1.6-1.2-2.6-1.7l.5-.7c.9.4,2,1.1,2.6,1.6l-.6.8ZM50.6,17.8c.7.8,1.4,2,1.6,2.7l-.8.4c-.3-.8-.9-1.9-1.6-2.8l.8-.4ZM57.5,21.5v7.5c0,1.1-.5,1.1-2.7,1.1,0-.3-.2-.6-.3-.9.4,0,.8,0,1.1,0,.9,0,1,0,1-.3v-1.9h-5.2v3h-.9v-8.7h3v-4.3h1.2c0,.2,0,.2-.3.3v4.1h3.1ZM56.5,22.4h-5.2v1.6h5.2v-1.6ZM51.3,26.4h5.2v-1.6h-5.2v1.6ZM58.2,18.3c0,0-.1.1-.3.1-.4.8-1.1,1.9-1.7,2.6,0,0-.8-.4-.8-.4.6-.8,1.3-2,1.7-2.9l1.1.5Z"/>
        <path class="cls-1" d="M61.5,30.2v-8.1c-.6.9-1.2,1.7-1.9,2.4-.1-.2-.4-.7-.5-.9,1.5-1.5,2.9-3.9,3.8-6.4l1.1.4c0,.1-.2.2-.3.1-.4,1-.9,2-1.4,3h.4c0,.2,0,.3-.3.3v9.1h-1ZM66.6,28.2c0,.8.2,1,1,1h2.9c.8,0,.9-.5,1-2.6.2.2.6.4.9.4-.2,2.3-.4,3.1-1.9,3.1h-3c-1.4,0-1.9-.4-1.9-1.9v-10.6h1.2c0,.2,0,.3-.3.3v5.2c1.7-.9,3.4-2.1,4.4-3.1l.8.9c0,0-.2,0-.3,0-1.2,1-3.1,2.1-4.9,3.1v4.2Z"/>
        <path class="cls-1" d="M76.4,29.1v-9.4h0l-1.7,1-.3-.9,2.2-1.2h1v10.5h-1.1Z"/>
        <path class="cls-1" d="M81.1,23.8c0-3.7,1.4-5.4,3.4-5.4s3.2,1.9,3.2,5.3-1.3,5.5-3.4,5.5-3.2-1.9-3.2-5.4ZM86.5,23.8c0-2.6-.6-4.4-2.1-4.4s-2.1,1.7-2.1,4.4.8,4.5,2.1,4.5,2.1-2,2.1-4.5Z"/>
        <path class="cls-1" d="M88.8,23.8c0-3.7,1.4-5.4,3.4-5.4s3.2,1.9,3.2,5.3-1.3,5.5-3.4,5.5-3.2-1.9-3.2-5.4ZM94.2,23.8c0-2.6-.6-4.4-2.1-4.4s-2.1,1.7-2.1,4.4.8,4.5,2.1,4.5,2.1-2,2.1-4.5Z"/>
        <path class="cls-1" d="M101,21.7c0,2.2-1.1,3.2-2.3,3.2s-2.3-1-2.3-3.1,1.1-3.2,2.3-3.2,2.3,1.1,2.3,3.1ZM97.4,21.8c0,1.3.5,2.4,1.3,2.4s1.3-1.1,1.3-2.4-.3-2.4-1.3-2.4-1.3,1.3-1.3,2.5ZM99.3,29.3h-.8l6-10.7h.8l-6,10.7ZM107.4,25.9c0,2.2-1.1,3.2-2.3,3.2s-2.3-1-2.3-3.1,1.1-3.2,2.3-3.2,2.3,1.2,2.3,3.1ZM103.8,26c0,1.3.5,2.4,1.3,2.4s1.3-1.1,1.3-2.4-.3-2.4-1.3-2.4-1.4,1.2-1.4,2.4Z"/>
      </g>
    </g>
  </g>
</svg>