<svg id="レイヤー_1" data-name="レイヤー 1" xmlns="http://www.w3.org/2000/svg" viewBox="0 0 150 150"><defs><style>.cls-1{fill:#ee8093;}.cls-2{fill:none;stroke-linecap:round;stroke-linejoin:round;stroke-width:4px;}.cls-2,.cls-3{stroke:#fff;}.cls-3{fill:#fff;stroke-miterlimit:10;}</style></defs><circle class="cls-1" cx="75" cy="75" r="75"/><g id="レイヤー_2" data-name="レイヤー 2"><g id="icon_data" data-name="icon data"><polyline class="cls-2" points="29.17 122.71 29.17 60.83 49.79 60.83 49.79 26.46 100.21 26.46 100.21 60.83 120.83 60.83 120.83 122.71"/><circle class="cls-3" cx="47.5" cy="79.17" r="4.58"/><circle class="cls-3" cx="65.83" cy="79.17" r="4.58"/><circle class="cls-3" cx="84.17" cy="79.17" r="4.58"/><circle class="cls-3" cx="102.5" cy="79.17" r="4.58"/><circle class="cls-3" cx="47.5" cy="97.5" r="4.58"/><circle class="cls-3" cx="65.83" cy="97.5" r="4.58"/><circle class="cls-3" cx="84.17" cy="97.5" r="4.58"/><circle class="cls-3" cx="102.5" cy="97.5" r="4.58"/><circle class="cls-3" cx="47.5" cy="115.83" r="4.58"/><circle class="cls-3" cx="65.83" cy="115.83" r="4.58"/><circle class="cls-3" cx="84.17" cy="115.83" r="4.58"/><circle class="cls-3" cx="102.5" cy="115.83" r="4.58"/><line class="cls-2" x1="65.83" y1="51.67" x2="84.17" y2="51.67"/><line class="cls-2" x1="75" y1="42.5" x2="75" y2="60.83"/></g></g></svg>