<?xml version="1.0" encoding="utf-8"?>
<!-- Generator: Adobe Illustrator 25.4.1, SVG Export Plug-In . SVG Version: 6.00 Build 0)  -->
<svg version="1.1" id="レイヤー_1" xmlns="http://www.w3.org/2000/svg" xmlns:xlink="http://www.w3.org/1999/xlink" x="0px"
	 y="0px" viewBox="0 0 606.61 606.8" style="enable-background:new 0 0 606.61 606.8;" xml:space="preserve">
<style type="text/css">
	.st0{display:none;}
	.st1{display:inline;fill:none;stroke:#FFFFFF;stroke-miterlimit:10;}
	.st2{fill:none;stroke:#FFFFFF;stroke-width:4;stroke-linecap:round;stroke-linejoin:round;}
	.st3{fill:#FFFFFF;stroke:#FFFFFF;stroke-miterlimit:10;}
	.st4{fill:#EE8093;}
</style>
<g id="レイヤー_2_00000037674837954246322850000005319197489893578677_">
	<g id="Rectangle" class="st0">
		<rect id="rect" x="248.12" y="247.97" class="st1" width="110" height="110"/>
	</g>
	<g id="icon_data">
		<polyline class="st2" points="257.28,351.1 257.28,289.22 277.91,289.22 277.91,254.85 328.32,254.85 328.32,289.22 
			348.95,289.22 348.95,351.1 		"/>
		<circle class="st3" cx="275.62" cy="307.56" r="4.58"/>
		<circle class="st3" cx="293.95" cy="307.56" r="4.58"/>
		<circle class="st3" cx="312.28" cy="307.56" r="4.58"/>
		<circle class="st3" cx="330.62" cy="307.56" r="4.58"/>
		<circle class="st3" cx="275.62" cy="325.89" r="4.58"/>
		<circle class="st3" cx="293.95" cy="325.89" r="4.58"/>
		<circle class="st3" cx="312.28" cy="325.89" r="4.58"/>
		<circle class="st3" cx="330.62" cy="325.89" r="4.58"/>
		<circle class="st3" cx="275.62" cy="344.22" r="4.58"/>
		<circle class="st3" cx="293.95" cy="344.22" r="4.58"/>
		<circle class="st3" cx="312.28" cy="344.22" r="4.58"/>
		<circle class="st3" cx="330.62" cy="344.22" r="4.58"/>
		<line class="st2" x1="293.95" y1="280.06" x2="312.28" y2="280.06"/>
		<line class="st2" x1="303.12" y1="270.89" x2="303.12" y2="289.22"/>
	</g>
</g>
<circle class="st4" cx="303.05" cy="305.75" r="303.05"/>
<g id="レイヤー_2_00000180332224151868199830000009135740533520892333_">
	<g id="Rectangle_00000146473592316584837720000006196352761541733807_" class="st0">
		
			<rect id="rect_00000170993111407111554310000010005573964396866178_" x="100.2" y="100.45" class="st1" width="406.21" height="406.21"/>
	</g>
	<g id="icon_data_00000042710408110296309180000000414264223715920311_">
		<polyline class="st2" points="134.05,481.28 134.05,252.78 210.22,252.78 210.22,125.84 396.4,125.84 396.4,252.78 472.56,252.78 
			472.56,481.28 		"/>
		<circle class="st3" cx="201.75" cy="320.48" r="16.93"/>
		<circle class="st3" cx="269.46" cy="320.48" r="16.93"/>
		<circle class="st3" cx="337.16" cy="320.48" r="16.93"/>
		<circle class="st3" cx="404.86" cy="320.48" r="16.93"/>
		<circle class="st3" cx="201.75" cy="388.18" r="16.93"/>
		<circle class="st3" cx="269.46" cy="388.18" r="16.93"/>
		<circle class="st3" cx="337.16" cy="388.18" r="16.93"/>
		<circle class="st3" cx="404.86" cy="388.18" r="16.93"/>
		<circle class="st3" cx="201.75" cy="455.89" r="16.93"/>
		<circle class="st3" cx="269.46" cy="455.89" r="16.93"/>
		<circle class="st3" cx="337.16" cy="455.89" r="16.93"/>
		<circle class="st3" cx="404.86" cy="455.89" r="16.93"/>
		<line class="st2" x1="269.46" y1="218.93" x2="337.16" y2="218.93"/>
		<line class="st2" x1="303.31" y1="185.08" x2="303.31" y2="252.78"/>
	</g>
</g>
</svg>
