<?xml version="1.0" encoding="utf-8"?>
<!-- Generator: Adobe Illustrator 25.4.1, SVG Export Plug-In . SVG Version: 6.00 Build 0)  -->
<svg version="1.1" id="Capa_1" xmlns="http://www.w3.org/2000/svg" xmlns:xlink="http://www.w3.org/1999/xlink" x="0px" y="0px"
	 viewBox="0 0 31.5 31.5" style="enable-background:new 0 0 31.5 31.5;" xml:space="preserve">
<style type="text/css">
	.st0{fill:#FFFFFF;}
</style>
<g>
	<path class="st0" d="M31.3,0.7C31.3,0.7,31.2,0.6,31.3,0.7C31.2,0.6,31.2,0.6,31.3,0.7c-0.3-0.4-0.6-0.6-1-0.6l0,0h-21l0,0
		c-0.7,0-1.2,0.6-1.2,1.2l0,0v1.1v4v2.3v4V15v4v2.3v4v1.2l0,0c0,0.2,0.1,0.5,0.2,0.7l0,0l0,0c0.2,0.3,0.6,0.5,1,0.5l0,0h1.5
		c-0.3,1.7-1.7,3-3.4,3c-1.8,0-3.2-1.3-3.4-3h1.5l0,0c0.7,0,1.2-0.6,1.2-1.2l0,0v-1.1v-4V19v-4v-2.3v-4V6.4v-4V1.3l0,0
		c0-0.2-0.1-0.5-0.2-0.7l0,0l0,0c-0.2-0.3-0.6-0.5-1-0.5l0,0H1.3l0,0c-0.7,0-1.2,0.6-1.2,1.2l0,0v1.1v4v2.3v4V15v4v2.3v4v1.1l0,0
		c0,0.2,0.1,0.5,0.2,0.7l0,0l0,0c0.2,0.3,0.6,0.5,1,0.5l0,0h1.8c0.2,2.2,2.1,3.9,4.3,3.9s4-1.7,4.3-3.8h18.6l0,0
		c0.7,0,1.2-0.6,1.2-1.2l0,0v-1.1v-4v-2.3v-4v-2.3v-4V6.5v-4V1.4l0,0C31.5,1.1,31.4,0.8,31.3,0.7z M16,18.7c0,0.3-0.2,0.5-0.5,0.5
		h-2.9c-0.3,0-0.5-0.2-0.5-0.5v-1.2c0-0.3,0.2-0.5,0.5-0.5h2.9c0.2-0.1,0.5,0.2,0.5,0.5V18.7z M16,14.5c0,0.3-0.2,0.5-0.5,0.5h-2.9
		c-0.4,0-0.6-0.2-0.6-0.5v-1.2c0-0.3,0.2-0.5,0.5-0.5h2.9c0.3,0,0.5,0.2,0.5,0.5C16,13.3,16,14.5,16,14.5z M16,10.3
		c0,0.3-0.2,0.5-0.5,0.5h-2.9c-0.3,0-0.5-0.2-0.5-0.5V9.1c0-0.3,0.2-0.5,0.5-0.5h2.9c0.3,0,0.5,0.2,0.5,0.5C16,9.1,16,10.3,16,10.3z
		 M21.7,18.7c0,0.3-0.2,0.5-0.5,0.5h-2.9c-0.3,0-0.5-0.2-0.5-0.5v-1.2c0-0.3,0.2-0.5,0.5-0.5h2.9c0.3,0,0.5,0.2,0.5,0.5V18.7z
		 M21.7,14.5c0,0.3-0.2,0.5-0.5,0.5h-2.9c-0.3,0-0.5-0.2-0.5-0.5v-1.2c0-0.3,0.2-0.5,0.5-0.5h2.9c0.3,0,0.5,0.2,0.5,0.5V14.5z
		 M21.7,10.3c0,0.3-0.2,0.5-0.5,0.5h-2.9c-0.3,0-0.5-0.2-0.5-0.5V9.1c0-0.3,0.2-0.5,0.5-0.5h2.9c0.3,0,0.5,0.2,0.5,0.5
		C21.7,9.1,21.7,10.3,21.7,10.3z M27.5,18.7c0,0.3-0.2,0.5-0.5,0.5h-2.9c-0.3,0-0.5-0.2-0.5-0.5v-1.2c0-0.3,0.2-0.5,0.5-0.5H27
		c0.3,0,0.5,0.2,0.5,0.5V18.7z M27.5,14.5c0,0.3-0.2,0.5-0.5,0.5h-2.9c-0.3,0-0.5-0.2-0.5-0.5v-1.2c0-0.3,0.2-0.5,0.5-0.5H27
		c0.3,0,0.5,0.2,0.5,0.5V14.5z M27.5,10.3c0,0.3-0.2,0.5-0.5,0.5h-2.9c-0.3,0-0.5-0.2-0.5-0.5V9.1c0-0.3,0.2-0.5,0.5-0.5H27
		c0.3,0,0.5,0.2,0.5,0.5V10.3z"/>
</g>
</svg>
