<?xml version="1.0" encoding="utf-8"?>
<!-- Generator: Adobe Illustrator 25.4.1, SVG Export Plug-In . SVG Version: 6.00 Build 0)  -->
<svg version="1.1" id="レイヤー_1" xmlns="http://www.w3.org/2000/svg" xmlns:xlink="http://www.w3.org/1999/xlink" x="0px"
	 y="0px" viewBox="0 0 8 14" style="enable-background:new 0 0 8 14;" xml:space="preserve">
<style type="text/css">
	.st0{fill:#FFFFFF;}
</style>
<g>
	<path class="st0" d="M3.27,1.3c0,0.67,0.51,1.21,1.15,1.21c0.63,0,1.15-0.54,1.15-1.21c0-0.67-0.51-1.21-1.15-1.21
		C3.78,0.09,3.27,0.63,3.27,1.3z"/>
	<path class="st0" d="M0.09,5.89C0.45,5.26,0.95,4.46,1.3,4.22c0.04-0.03,1.75-1.13,1.94-1.25c0.08-0.05,0.49-0.34,0.93-0.34
		c0.54,0,0.78,0.46,0.82,0.52c0.5,0.81,1.08,1.72,1.25,1.97c0.39,0.29,1.39,1.1,1.51,1.2c0.28,0.23,0.33,0.65,0.12,0.95
		C7.74,7.45,7.55,7.54,7.36,7.54c-0.14,0-0.27-0.05-0.39-0.14C6.62,7.12,5.67,6.36,5.44,6.19C5.36,6.14,5.31,6.1,4.95,5.54
		c-0.01,0.09-0.02,0.2-0.03,0.33C4.88,6.31,4.78,7.33,4.77,7.52c0,0.04,0,0.07-0.01,0.11c0.3,0.55,0.79,1.46,0.99,1.88
		c0.11,0.23,0.3,0.86,0.69,2.16c0.17,0.57,0.34,1.15,0.42,1.37c0.13,0.37-0.05,0.78-0.4,0.91C6.4,13.99,6.32,14,6.24,14
		c-0.27,0-0.53-0.18-0.63-0.46c-0.09-0.25-0.25-0.8-0.44-1.44c-0.21-0.7-0.52-1.75-0.61-1.94C4.47,9.97,4.32,9.67,4.15,9.35
		c0.05,0.86,0.01,1.01,0,1.08c-0.03,0.13-0.07,0.3-0.94,1.61c-0.4,0.6-0.9,1.33-1.13,1.61c-0.13,0.16-0.32,0.24-0.51,0.24
		c-0.16,0-0.31-0.06-0.44-0.18c-0.28-0.26-0.31-0.71-0.06-1c0.34-0.41,1.52-2.18,1.77-2.65c0-0.34-0.07-1.4-0.14-2.28
		c-0.01-0.06,0.01-0.24,0-0.26c0-0.17,0.03-0.57,0.16-1.89C2.87,5.51,2.88,5.39,2.89,5.3c0.02-0.2,0.04-0.38,0.05-0.55
		C2.51,5.02,2.12,5.28,2.01,5.35C1.88,5.48,1.5,6.05,1.19,6.59C1.07,6.8,0.86,6.92,0.64,6.92c-0.11,0-0.23-0.03-0.33-0.1
		C0.01,6.63-0.09,6.21,0.09,5.89z"/>
</g>
</svg>
