<?xml version="1.0" encoding="utf-8"?>
<!-- Generator: Adobe Illustrator 26.1.0, SVG Export Plug-In . SVG Version: 6.00 Build 0)  -->
<svg version="1.1" id="image" xmlns="http://www.w3.org/2000/svg" xmlns:xlink="http://www.w3.org/1999/xlink" x="0px" y="0px"
	 width="595.28px" height="841.89px" viewBox="0 0 595.28 841.89" style="enable-background:new 0 0 595.28 841.89;"
	 xml:space="preserve">
<style type="text/css">
	.st0{fill:#FFFFFF;}
	.st1{fill:#EBCA99;}
	.st2{fill:#893A65;}
	.st3{fill:#C6A473;}
	.st4{fill:#C50018;}
	.st5{fill:#DCDCDC;}
	.st6{fill:#EBEBEB;}
	.st7{fill:#C2A275;}
	.st8{opacity:0.4;fill:#FFFFFF;}
	.st9{opacity:0.32;fill:#C6A473;}
	.st10{opacity:0.4;fill:#C6A473;}
	.st11{opacity:0.7;fill:#DAA693;}
	.st12{opacity:0.42;fill:#C6A473;}
	.st13{fill:url(#SVGID_1_);}
	.st14{fill:url(#SVGID_00000121275032967921103890000006476297657355442878_);}
	.st15{fill:#9A7A4B;}
	.st16{opacity:0.3;fill:#9A7A4B;}
	.st17{opacity:0.24;fill:#9A7A4B;}
	.st18{fill:#7E4C3C;}
</style>
<g>
	<path d="M172.749,689.257c0,0,38.833-40.013,89.188-51.817l85.435,14.058c0,0-5.517,10.48-12.871,12.036
		c-7.356,1.554-38.099,5.523-65.014,23.856c-33.443,22.777-53.398,38.5-59.913,48.843c-6.508,10.349-16.097,20.794-35.074,17.707
		c-18.982-3.089-47.768-27.521-52.838-46.588C116.585,688.28,131.804,664.315,172.749,689.257z"/>
	<path class="st0" d="M123.394,698.732c0.189-6.949,17.452-9.09,37.47,8.94c20.019,18.029,39.366,43.159,24.625,45.946
		c-16.63,3.147-41.373-16.568-46.343-21.327C134.17,727.541,123.056,711.036,123.394,698.732z"/>
	<path d="M275.919,668.043c0,0,14.773,40.804,47.568,62.121c0,0-10.196,37.091,12.809,39.551
		c23.024,2.467,37.559-23.491,38.029-42.174c0.465-18.691-2.999-23.326-13.448-33.125c-10.448-9.8-30.185-27.685-44.756-55.944
		C306.506,619.828,275.919,668.043,275.919,668.043z"/>
	<path d="M182.138,757.358c-9.824,0-20.728-4.079-31.969-12.021c-13.797-9.739-29.804-27.771-32.342-44.35
		c-1.04-6.801,0.265-12.65,3.879-17.386c14.472-18.948,42.22-4.146,50.538,0.948c32.379-34.676,78.943-48.103,80.945-48.667
		c1.7-0.474,3.482,0.516,3.963,2.221c0.483,1.707-0.511,3.484-2.218,3.968c-0.483,0.134-48.604,14.033-79.753,48.784
		c-1.079,1.206-2.88,1.42-4.214,0.506c-0.308-0.214-31.062-21.008-44.153-3.856c-2.515,3.291-3.402,7.499-2.636,12.51
		c1.902,12.413,14.39,29.269,29.697,40.071c12.545,8.865,24.315,12.398,34.052,10.224c7.254-1.622,13.191-6.432,17.646-14.293
		c11.666-20.604,40.474-43.329,77.062-60.787c18.125-8.648,32.9-12.037,42.678-14.276c3.918-0.898,7.013-1.607,8.735-2.322
		c10.844-4.509,12.657-11.318,12.728-11.607c0.428-1.703,2.128-2.769,3.86-2.372c1.71,0.405,2.786,2.085,2.406,3.797
		c-0.091,0.418-2.403,10.241-16.532,16.118c-2.225,0.92-5.385,1.644-9.763,2.648c-9.503,2.179-23.861,5.473-41.346,13.813
		c-35.443,16.912-63.197,38.654-74.239,58.158c-5.39,9.507-12.736,15.358-21.835,17.393
		C187.008,757.102,184.608,757.358,182.138,757.358z"/>
	<path d="M338.875,772.963c-2.436,0-4.838-0.408-7.173-1.23c-18.93-6.674-13.611-34.87-11.813-42.422
		c-37.536-25.749-44.654-63.003-44.941-64.597c-0.255-1.397,0.675-2.733,2.07-2.988c1.364-0.257,2.733,0.672,2.986,2.072
		c0.07,0.373,7.274,37.737,44.246,62.252c0.929,0.619,1.356,1.768,1.052,2.841c-0.088,0.319-8.805,32.033,8.107,37.991
		c4.923,1.733,10.098,1.096,15.388-1.892c10.967-6.185,20.084-21.253,22.247-31.663c3.019-14.572-1.506-29.433-10.757-35.332
		c-11.51-7.338-35.647-32.397-42.015-59.742c-0.32-1.383,0.54-2.765,1.921-3.088c1.38-0.304,2.767,0.537,3.087,1.92
		c5.955,25.59,29.219,49.847,39.768,56.574c11.163,7.12,16.521,23.859,13.028,40.71c-2.442,11.767-12.37,28.111-24.752,35.099
		C347.206,771.792,342.995,772.963,338.875,772.963z"/>
	<path d="M153.431,746.609c-0.768,0-1.522-0.367-1.99-1.048c-0.751-1.095-0.472-2.596,0.624-3.349
		c0.147-0.101,14.773-10.186,22.065-19.379c0.825-1.039,2.341-1.221,3.386-0.393c1.045,0.829,1.217,2.345,0.393,3.387
		c-7.75,9.768-22.493,19.931-23.116,20.356C154.376,746.471,153.901,746.609,153.431,746.609z"/>
	<path class="st0" d="M144.336,502.417c0,0,4.82,35.531,11.246,49.187c0,0,46.983-0.101,77.777-23.564
		c0,0-18.469,83.216-22.887,116.954c0,0,60.641,29.72,143.377,14.458c0,0-4.819-123.781-6.426-141.453
		c0,0,36.322,18.87,56.403,62.648c0,0,27.713-5.036,38.558-22.708c0,0-19.454-37.129-43.552-57.611
		c-24.099-20.483-65.064-40.565-65.064-40.565l-16.065-18.073l-47.393,4.819c0,0-17.671,17.27-22.09,22.894
		C248.219,469.401,201.736,502.256,144.336,502.417z"/>
	<path class="st1" d="M272.719,450.122l-2.008,18.476c0,0,4.016,14.057,8.033,21.286c0,0,21.688-12.049,30.121-18.876
		c0,0,8.034-11.246,9.641-24.901C320.112,432.451,272.719,450.122,272.719,450.122z"/>
	<path class="st1" d="M144.944,515.036c0,0-4.066-11.478-14.584-15.13c0,0-14.337-25.087-21.999-20.157
		c-7.668,4.93,2.908,28.764,2.908,28.764s-30.781,4.81-33.279,9.203c-2.504,4.394,0.778,9.505,0.778,9.505s-8.722,7.15,1.946,12.782
		c0,0-6.364,7.048,5.566,12.053c0,0-6.89,11.299,9.464,12.149c16.353,0.847,50.624-10.605,55.532-24.889L144.944,515.036z"/>
	<path class="st2" d="M269.512,466.19c0,0,5.083,17.936,9.232,23.693c0,0,19.679-11.38,30.121-18.876
		c0,0-23.294,39.093-38.82,54.089C270.045,525.097,260.946,489.219,269.512,466.19z"/>
	<path class="st3" d="M269.512,466.19c0,0,13.649,11.833,39.354,4.817c0,0,10.443-19.868,12.854-28.704
		c2.409-8.837-51.41,4.204-51.41,4.204S271.118,454.735,269.512,466.19z"/>
	<path class="st1" d="M412.361,578.636c0,0-16.868,18.476-10.845,31.327c6.025,12.853,13.655,20.483,21.689,18.877
		c8.032-1.606,11.646-8.837,11.646-8.837s19.278-2.811,22.894-16.868c3.613-14.057-6.716-38.468-18.361-39.272L412.361,578.636z"/>
	<path class="st0" d="M394.288,642.896c0,0-1.204-20.885,5.222-27.311c6.426-6.426,14.056-13.655,18.475-8.033
		c4.417,5.623-5.623,11.246-8.435,19.278c-2.811,8.032-1.204,12.049-1.204,12.049L394.288,642.896z"/>
	<path class="st0" d="M458.48,603.148c0,0,10.11,6.413,9.708,18.061l11.647-3.614c0,0-5.378-20.314-20.083-27.312L458.48,603.148z"
		/>
	<path class="st0" d="M376.002,653.01c0,0,14.214-6.709,28.917-11.113c12.08-3.624,73.655-25.135,90.512-29.393
		c0,0,23.307,41.482,35.889,87.626c0,0-57.251,26.607-93.887,37.527c0,0-30.104,5.198-45.097,5.158
		C392.336,742.815,379.948,688.95,376.002,653.01z"/>
	<g>
		<path class="st4" d="M506.795,691.457c-0.552,1.185-1.55,2.093-2.786,2.529l-51.34,18.177c-0.533,0.191-1.079,0.275-1.618,0.275
			c-1.965,0-3.81-1.199-4.538-3.141l-20.007-53.047c-0.458-1.218-0.414-2.573,0.146-3.756c0.546-1.187,1.549-2.093,2.779-2.529
			l51.334-18.18c2.504-0.879,5.233,0.396,6.162,2.868l20.006,53.047C507.398,688.922,507.348,690.274,506.795,691.457z"/>
		<path d="M451.051,714.528c-2.875,0-5.485-1.807-6.493-4.496l-20.006-53.044c-0.655-1.747-0.58-3.708,0.211-5.385
			c0.766-1.662,2.214-2.984,3.972-3.606l51.333-18.18c3.516-1.245,7.527,0.674,8.814,4.1l20.007,53.044
			c0.658,1.732,0.587,3.694-0.201,5.379c-0.794,1.703-2.209,2.986-3.985,3.613l-51.337,18.175
			C452.638,714.394,451.853,714.528,451.051,714.528z M482.384,633.597c-0.315,0-0.624,0.053-0.929,0.159l-51.328,18.178
			c-0.709,0.254-1.271,0.763-1.577,1.435c-0.32,0.677-0.35,1.452-0.088,2.148l20.006,53.044c0.515,1.374,2.215,2.093,3.495,1.639
			l51.349-18.181c0.71-0.251,1.274-0.763,1.592-1.444c0.316-0.678,0.342-1.433,0.078-2.13l-20.009-53.053
			C484.57,634.317,483.528,633.597,482.384,633.597z"/>
	</g>
	<g>
		<path class="st0" d="M278.31,539.169c0,2.495-2.026,4.519-4.518,4.519c-2.498,0-4.519-2.023-4.519-4.519
			c0-2.495,2.02-4.518,4.519-4.518C276.284,534.65,278.31,536.674,278.31,539.169z"/>
		<path d="M273.792,545.294c-3.377,0-6.125-2.749-6.125-6.125c0-3.376,2.748-6.125,6.125-6.125c3.376,0,6.125,2.749,6.125,6.125
			C279.917,542.545,277.168,545.294,273.792,545.294z M273.792,536.257c-1.607,0-2.912,1.306-2.912,2.912
			c0,1.607,1.306,2.911,2.912,2.911c1.606,0,2.912-1.305,2.912-2.911C276.704,537.562,275.398,536.257,273.792,536.257z"/>
	</g>
	<g>
		<path class="st0" d="M273.491,571.133c0,2.495-2.027,4.519-4.52,4.519c-2.497,0-4.518-2.023-4.518-4.519
			c0-2.494,2.02-4.518,4.518-4.518C271.464,566.614,273.491,568.639,273.491,571.133z"/>
		<path d="M268.972,577.258c-3.376,0-6.124-2.748-6.124-6.125c0-3.376,2.748-6.125,6.124-6.125c3.377,0,6.126,2.749,6.126,6.125
			C275.098,574.51,272.349,577.258,268.972,577.258z M268.972,568.221c-1.606,0-2.911,1.306-2.911,2.912
			c0,1.607,1.305,2.912,2.911,2.912c1.607,0,2.913-1.306,2.913-2.912C271.885,569.526,270.579,568.221,268.972,568.221z"/>
	</g>
	<g>
		<path class="st0" d="M270.265,605.172c0,2.494-2.021,4.519-4.518,4.519c-2.49,0-4.518-2.024-4.518-4.519
			c0-2.495,2.027-4.519,4.518-4.519C268.244,600.653,270.265,602.677,270.265,605.172z"/>
		<path d="M265.746,611.297c-3.376,0-6.124-2.749-6.124-6.125c0-3.377,2.748-6.125,6.124-6.125c3.377,0,6.126,2.748,6.126,6.125
			C271.872,608.548,269.123,611.297,265.746,611.297z M265.746,602.26c-1.607,0-2.911,1.305-2.911,2.912
			c0,1.606,1.305,2.912,2.911,2.912c1.607,0,2.912-1.306,2.912-2.912C268.658,603.565,267.353,602.26,265.746,602.26z"/>
	</g>
	<path d="M261.476,528.842c-0.699,0-1.38-0.363-1.747-1.016c-10.104-17.779-13.743-39.514-13.894-40.431
		c-0.091-0.564,0.063-1.146,0.427-1.591c0.36-0.445,0.897-0.715,1.471-0.736l5.469-0.229l-5.293-6.087
		c-0.515-0.594-0.637-1.435-0.314-2.15c2.014-4.432,9.392-18.026,9.706-18.602c0.529-0.972,1.747-1.336,2.72-0.806
		c0.975,0.527,1.337,1.747,0.806,2.721c-0.068,0.128-6.499,11.98-9.027,17.188l7.173,8.249c0.504,0.584,0.633,1.403,0.328,2.112
		c-0.303,0.709-0.99,1.18-1.76,1.211l-7.323,0.308c1.205,5.999,5.096,22.943,13,36.859c0.549,0.964,0.21,2.19-0.753,2.736
		C262.15,528.758,261.811,528.842,261.476,528.842z"/>
	<path d="M278.345,529.244c-0.722,0-1.416-0.386-1.776-1.066c-0.521-0.979-0.147-2.197,0.832-2.715
		c0.314-0.166,30.401-16.144,52.121-27.957c-5.015-4.525-12.549-11.184-14.941-12.777c-0.76-0.508-1.083-1.462-0.785-2.324
		c0.295-0.86,1.08-1.403,2.047-1.35c0.096,0.006,8.932,0.655,15.554,0.777c0.059-4.201,0.084-14.136-0.82-20.166
		c-0.162-1.098,0.594-2.118,1.689-2.284c1.067-0.173,2.118,0.59,2.284,1.689c1.219,8.114,0.841,22.246,0.826,22.846
		c-0.032,1.086-0.92,1.951-2.009,1.951c-3.455,0-7.866-0.197-11.438-0.397c5.228,4.44,11.99,10.6,12.389,10.963
		c0.479,0.437,0.718,1.079,0.64,1.727c-0.075,0.643-0.461,1.211-1.032,1.52c-21.846,11.918-54.313,29.156-54.641,29.329
		C278.981,529.168,278.661,529.244,278.345,529.244z"/>
	<path d="M278.929,492.811c-0.713,0-1.408-0.338-1.846-0.96c-7.75-11.066-9.219-25.379-9.274-25.983
		c-0.123-1.233,0.78-2.335,2.017-2.454c1.225-0.11,2.335,0.781,2.458,2.018c0.013,0.129,1.273,12.269,7.345,22.105
		c4.751-2.827,17.822-10.734,28.419-18.365c1.014-0.722,2.416-0.489,3.142,0.512c0.724,1.007,0.496,2.413-0.513,3.141
		c-13.319,9.592-30.448,19.583-30.617,19.68C279.703,492.711,279.311,492.811,278.929,492.811z"/>
	<path d="M281.894,502.444c-0.075,0-0.15-0.006-0.226-0.015c-3.777-0.54-9.702-1.617-9.702-1.617
		c-0.37-0.068-0.703-0.264-0.944-0.552c-2.824-3.386-5.935-14.704-6.279-15.983c-0.232-0.857,0.276-1.738,1.133-1.968
		c0.848-0.233,1.739,0.273,1.967,1.133c0.841,3.112,3.349,11.399,5.319,14.321c1.497,0.266,5.399,0.957,8.35,1.396
		c1.764-1.189,7.845-5.328,14.349-10.163c0.7-0.527,1.71-0.389,2.246,0.332c0.531,0.71,0.38,1.718-0.332,2.247
		c-7.753,5.765-14.917,10.553-14.988,10.6C282.521,502.351,282.211,502.444,281.894,502.444z"/>
	<path d="M271.614,500.468c-0.333,0-0.668-0.104-0.957-0.317c-0.713-0.527-0.862-1.534-0.333-2.246
		c0.166-0.227,4.167-5.588,8.69-8.669c0.73-0.493,1.732-0.315,2.23,0.423c0.499,0.73,0.311,1.732-0.425,2.231
		c-4.064,2.773-7.879,7.878-7.915,7.929C272.59,500.241,272.104,500.468,271.614,500.468z"/>
	<path class="st0" d="M489.06,671.779l-12.795,4.525l4.982,13.225l-14.351,5.074l-4.99-13.216l-12.802,4.53l-5.592-14.831
		l12.803-4.537l-4.99-13.214l14.365-5.079l4.99,13.212l12.795-4.525L489.06,671.779z"/>
	<path d="M271.115,469.188c-0.139,0-0.275-0.01-0.418-0.025c-1.939-0.23-3.322-1.985-3.096-3.926c1.016-8.619,0.009-18.941,0-19.046
		c-0.195-1.941,1.224-3.674,3.166-3.868c1.954-0.22,3.674,1.224,3.868,3.166c0.044,0.455,1.092,11.202-0.013,20.577
		C274.41,467.863,272.885,469.188,271.115,469.188z"/>
	<path d="M154.957,554.014c-0.088,0-0.155,0-0.199,0c-1.282-0.01-2.437-0.778-2.937-1.958c-7.593-17.892-11.067-47.355-11.21-48.601
		c-0.106-0.913,0.184-1.83,0.797-2.514c0.609-0.681,1.48-1.07,2.395-1.07c0.177-0.021,0.467,0,0.703,0
		c59.277,0,102.185-33.166,102.613-33.502c1.4-1.104,3.417-0.854,4.512,0.54c1.098,1.396,0.854,3.417-0.541,4.513
		c-1.791,1.408-43.73,33.815-103.63,34.851c1.11,7.998,4.223,27.738,9.466,41.271c9.266-0.298,46.806-2.704,73.766-21.907
		c1.447-1.026,3.451-0.693,4.481,0.753c1.029,1.446,0.693,3.452-0.754,4.48C202.634,553.509,158.74,554.014,154.957,554.014z"/>
	<path d="M404.367,582.786c-1.212,0-2.329-0.684-2.875-1.775c-0.26-0.521-26.54-52.312-63.829-63.553
		c-1.697-0.511-2.659-2.303-2.146-4.003c0.509-1.694,2.278-2.671,4.004-2.146c36.122,10.885,61.365,54.879,66.702,64.873
		c14.384-1.788,28.161-13.903,32.753-18.309c-3.747-6.854-17.569-30.261-44.23-55.62c-26.641-25.337-61.246-38.823-61.591-38.955
		c-0.566-0.217-1.058-0.59-1.419-1.073c-2.479-3.304-10.194-10.448-12.958-12.921c-1.322-1.184-1.434-3.217-0.252-4.537
		c1.186-1.324,3.223-1.432,4.537-0.251c0.402,0.36,9.423,8.449,13.232,13.112c5.65,2.272,37.299,15.642,62.881,39.969
		c32.495,30.909,46.072,58.318,46.634,59.47c0.587,1.198,0.37,2.633-0.541,3.605c-0.803,0.856-19.867,20.981-40.731,22.112
		C404.482,582.786,404.423,582.786,404.367,582.786z"/>
	<path d="M303.898,665.58c-58.406,0-93.36-16.016-95.193-16.875c-1.245-0.584-1.979-1.896-1.829-3.264
		c5.315-47.864,31.143-149.888,31.399-150.913c0.437-1.723,2.188-2.752,3.907-2.325c1.718,0.44,2.76,2.186,2.325,3.906
		c-0.257,1.005-25.143,99.322-30.97,147.673c10.81,4.386,62.427,22.908,138.536,11.797c-1.002-15.096-5.577-84.773-8.125-135.143
		c-0.087-1.773,1.275-3.282,3.047-3.373c1.795-0.091,3.283,1.273,3.374,3.046c2.853,56.446,8.256,137.184,8.312,137.99
		c0.11,1.666-1.067,3.138-2.714,3.392C337.039,664.418,319.616,665.58,303.898,665.58z"/>
	<path d="M143.738,516.081c-1.27,0-2.434-0.844-2.786-2.124l0,0c-0.112-0.401-2.835-9.828-10.931-10.021
		c-0.982-0.022-1.884-0.544-2.397-1.381c-7.448-12.166-15.54-20.02-17.159-19.131c-0.555,0.295-1.338,0.866-1.712,2.403
		c-1.148,4.723,2.392,14.471,8.416,23.179c0.908,1.312,0.581,3.112-0.732,4.022c-1.315,0.91-3.116,0.58-4.025-0.734
		c-5.477-7.917-11.192-19.956-9.278-27.832c0.675-2.773,2.27-4.898,4.617-6.147c7.634-4.058,18.82,11.666,24.021,19.956
		c11.148,1.35,14.609,13.614,14.758,14.157c0.419,1.544-0.491,3.132-2.033,3.549C144.245,516.047,143.989,516.081,143.738,516.081z"
		/>
	<path d="M88.823,530.882c-4.968,0-9.642-0.766-12.603-3.03c-1.954-1.501-3.056-3.546-3.187-5.919
		c-0.499-9.077,13.658-11.985,31.581-15.669l5.207-1.08c1.556-0.319,3.097,0.672,3.426,2.234c0.328,1.562-0.671,3.097-2.234,3.427
		l-5.235,1.085c-11.476,2.357-27.195,5.589-26.971,9.684c0.038,0.684,0.315,1.173,0.929,1.643c2.54,1.949,10.226,2.972,24.183,0.01
		c1.561-0.32,3.097,0.665,3.428,2.23c0.331,1.563-0.667,3.098-2.229,3.43C100.79,529.843,94.609,530.882,88.823,530.882z"/>
	<path d="M88.242,543.153c-11.419,0.004-14.382-4.536-15.146-7.062c-1.341-4.443,1.721-9.404,6.974-11.286
		c1.5-0.547,3.16,0.235,3.7,1.744c0.54,1.503-0.242,3.157-1.745,3.696c-2.402,0.863-3.772,2.915-3.392,4.173
		c0.553,1.823,6.434,5.454,26.76,0.431c1.549-0.37,3.119,0.565,3.5,2.114c0.385,1.55-0.563,3.118-2.113,3.502
		C98.925,542.404,92.885,543.153,88.242,543.153z"/>
	<path d="M91.487,554.541c-7.73,0-11.204-2.419-12.714-4.992c-1.846-3.147-1.03-7.265,2.08-10.492c1.11-1.148,2.94-1.184,4.09-0.079
		c1.149,1.108,1.185,2.94,0.077,4.089c-1.036,1.076-1.825,2.588-1.26,3.555c1.111,1.892,7.435,3.912,24.114-0.471
		c1.542-0.418,3.127,0.515,3.534,2.062c0.406,1.544-0.519,3.125-2.062,3.53C101.717,553.75,95.906,554.541,91.487,554.541z"/>
	<path d="M100.966,565.642c-6.613,0-12.536-1.352-15.458-4.995c-1.999-2.494-2.252-5.707-0.706-9.052
		c0.671-1.453,2.388-2.074,3.838-1.415c1.449,0.671,2.081,2.387,1.412,3.837c-0.893,1.935-0.289,2.688-0.032,3.012
		c2.14,2.671,11.084,4.064,23.439,1.379c19.803-4.296,30.504-10.73,33.675-20.239c0.506-1.516,2.146-2.348,3.658-1.826
		c1.515,0.505,2.334,2.143,1.829,3.658c-5.102,15.294-24.093,21.055-37.936,24.06C110.279,565.015,105.462,565.642,100.966,565.642z
		"/>
	<path d="M250.092,473.716l-5.353-4.613c0,0,10.054-11.663,18.899-21.716c1.292-1.469,3.525-1.606,4.988-0.32
		c1.466,1.289,1.609,3.523,0.32,4.988C260.121,462.084,250.092,473.716,250.092,473.716z"/>
	<path d="M250.77,657.845c-0.065,0-0.131-0.003-0.2-0.01c-1.324-0.106-2.313-1.271-2.203-2.598
		c5.67-69.197,10.976-109.479,13.159-119.671c1.06-4.945,7.632-13.273,16.725-24.801c13.121-16.633,31.095-39.413,38.785-61.048
		c0.449-1.255,1.817-1.908,3.079-1.466c1.254,0.446,1.91,1.826,1.465,3.079c-7.961,22.385-26.217,45.525-39.545,62.422
		c-8.032,10.183-14.972,18.975-15.796,22.824c-2.159,10.068-7.42,50.085-13.072,119.056
		C253.066,656.891,252.013,657.845,250.77,657.845z"/>
	<path d="M269.503,527.235c-1.133,0-2.14-0.8-2.363-1.954c-6.034-31.365-1.807-61.39-1.625-62.651
		c0.189-1.315,1.438-2.209,2.729-2.039c1.317,0.191,2.232,1.411,2.04,2.73c-0.044,0.301-4.286,30.511,1.588,61.051
		c0.25,1.305-0.604,2.57-1.911,2.82C269.808,527.224,269.652,527.235,269.503,527.235z"/>
	<path d="M401.116,611.971c-1.337,0-2.583-0.837-3.041-2.171c-5.406-15.771,10.145-31.566,10.81-32.231
		c1.256-1.256,3.285-1.253,4.54-0.004c1.256,1.252,1.256,3.288,0.007,4.544c-0.136,0.135-13.38,13.637-9.275,25.607
		c0.573,1.678-0.32,3.505-1.999,4.082C401.811,611.914,401.461,611.971,401.116,611.971z"/>
	<path d="M422.641,631.071c-6.878,0-11.568-4.403-11.817-4.641c-1.15-1.106-1.188-2.939-0.084-4.089
		c1.104-1.151,2.924-1.19,4.075-0.099c0.214,0.201,5.222,4.782,11.779,2.289c6.41-2.442,6.176-9.553,6.173-9.624
		c-0.069-1.594,1.167-2.946,2.764-3.016c1.575-0.013,2.946,1.167,3.016,2.764c0.019,0.462,0.373,11.369-9.893,15.279
		C426.519,630.747,424.498,631.071,422.641,631.071z"/>
	<path d="M436.054,624.021c-1.499,0-2.843-1.055-3.145-2.583c-0.35-1.742,0.78-3.433,2.519-3.781
		c2.097-0.419,16.578-5.39,19.222-14.973c2.871-10.407-5.227-30.729-16.596-35.896c-1.616-0.734-2.327-2.639-1.594-4.254
		c0.732-1.61,2.621-2.341,4.255-1.595c14.697,6.681,23.801,30.145,20.129,43.452c-3.981,14.434-23.956,19.526-24.154,19.567
		C436.475,624.001,436.262,624.021,436.054,624.021z"/>
	<path d="M395.489,645.389c-1.36,0-2.576-0.967-2.836-2.354c-3.568-18.797,6.254-35.3,14.713-39.983
		c3.722-2.064,7.286-1.931,9.772,0.373c6.551,6.059,2.478,11.286-0.795,15.485c-3.278,4.208-6.993,8.974-5.553,17.053
		c0.282,1.573-0.766,3.076-2.339,3.355c-1.571,0.288-3.074-0.767-3.354-2.339c-1.896-10.618,3.061-16.981,6.683-21.625
		c3.696-4.744,3.832-5.463,1.428-7.688c-0.756-0.699-2.375,0.078-3.04,0.443c-6.753,3.739-14.851,17.943-11.836,33.846
		c0.299,1.57-0.73,3.084-2.3,3.38C395.851,645.369,395.668,645.389,395.489,645.389z"/>
	<path d="M468.586,622.347c-1.302,0-2.484-0.887-2.808-2.211c-2.278-9.4-7.798-13.232-8.029-13.389
		c-1.317-0.892-1.675-2.684-0.794-4.008c0.882-1.32,2.661-1.688,3.985-0.815c0.311,0.201,7.612,5.111,10.461,16.85
		c0.377,1.551-0.577,3.115-2.131,3.492C469.042,622.319,468.812,622.347,468.586,622.347z"/>
	<path d="M479.431,618.479c-1.279,0-2.45-0.858-2.792-2.155c-2.862-10.862-13.56-22.345-17.685-22.345c0,0,0,0-0.003,0l0,0
		c-1.598,0-2.89-1.295-2.893-2.893c0-1.597,1.295-2.889,2.893-2.893c0,0,0,0,0.003,0c8.217,0,20.275,15.262,23.276,26.655
		c0.408,1.544-0.516,3.13-2.06,3.533C479.924,618.446,479.676,618.479,479.431,618.479z"/>
	<path d="M392.512,746.028c-0.002,0-0.182,0-0.185,0c-1.493-0.003-2.785-1.038-3.122-2.491
		c-0.124-0.543-12.475-54.462-16.398-90.176c-0.15-1.365,0.584-2.67,1.823-3.257c0.589-0.279,14.604-6.863,29.366-11.287
		c4.276-1.282,15.089-4.92,27.612-9.134c23.21-7.811,52.099-17.53,63.034-20.295c1.428-0.352,2.878,0.279,3.59,1.541
		c0.235,0.421,23.647,42.36,36.186,88.356c0.412,1.509-0.325,3.096-1.743,3.758c-0.578,0.267-57.886,26.831-94.328,37.692
		c-0.118,0.037-0.244,0.065-0.37,0.088C436.748,741.037,407.663,746.028,392.512,746.028z M379.456,654.965
		c3.614,30.822,13.021,73.803,15.44,84.6c14.527-0.451,39.397-4.634,41.802-5.042c31.701-9.477,79.453-30.988,90.794-36.17
		c-10.815-38.273-28.893-73.19-33.676-82.095c-12.145,3.359-38.608,12.266-60.159,19.517c-12.576,4.229-23.436,7.885-27.816,9.199
		C394.783,648.287,383.895,652.976,379.456,654.965z"/>
	<path d="M434.037,738.738c-0.947,0-1.829-0.604-2.141-1.556c-12.839-39.548-30.377-92.647-30.552-93.179
		c-0.39-1.179,0.25-2.45,1.431-2.843c1.189-0.38,2.45,0.254,2.843,1.431c0.177,0.533,17.717,53.644,30.559,93.205
		c0.383,1.179-0.264,2.45-1.445,2.833C434.502,738.705,434.266,738.738,434.037,738.738z"/>
	<path d="M421.125,617.625c-1.271,0-2.335-0.994-2.403-2.278c-0.085-1.421-0.838-5.5-3.282-7.335
		c-1.063-0.798-1.28-2.307-0.479-3.374c0.791-1.063,2.307-1.286,3.372-0.479c4.764,3.571,5.188,10.631,5.202,10.932
		c0.07,1.327-0.949,2.463-2.281,2.532C421.213,617.625,421.169,617.625,421.125,617.625z"/>
	<path d="M239.02,576.932c-0.566,0.007-0.955-0.022-1.118-0.037c-2.397-0.314-4.054-2.389-3.866-4.83
		c0.201-2.271,1.965-4.035,4.117-4.104c0.012-0.003,0.653,0.028,0.885,0.023c1.38-0.048,4.618-0.496,6.703-3.641
		c4.662-6.997,9.828-32.548,10.744-53.505c0.106-2.34,1.907-4.221,4.097-4.289c2.68,0.323,4.455,2.232,4.361,4.66
		c-0.997,22.786-6.746,49.955-12.275,58.27c-4.311,6.467-10.812,7.358-13.403,7.446L239.02,576.932z"/>
	<path d="M251.049,568.271c-4.656,6.979-12.143,6.59-12.978,6.526l-0.013-0.003l-0.087-0.01c-1.199-0.16-2.052-1.283-1.946-2.551
		c0.107-1.303,1.205-2.274,2.423-2.161c0.062-0.007,5.628,0.433,8.924-4.522c4.837-7.267,10.165-33.319,11.094-54.638
		c0.064-1.305,1.11-2.322,2.342-2.269c1.229,0.101,2.195,1.195,2.146,2.47C261.969,533.565,256.39,560.245,251.049,568.271z"/>
	<path d="M251.439,463.421c0,0,5.98-11.661,19.371-11.68c0,0,1.739,7.422-2.008,7.521c-4.933,0.132-9.896,4.434-11.56,7.575
		L251.439,463.421z"/>
	<path d="M319.133,547.594c-0.405,0-0.818-0.06-1.227-0.192c-2.112-0.678-3.276-2.938-2.599-5.052
		c14.398-44.927,15.673-80.327,8.582-88.598c-1.443-1.685-1.249-4.22,0.436-5.664c1.689-1.446,4.228-1.239,5.663,0.436
		c11.98,13.976,5.099,58.425-7.03,96.279C322.411,546.508,320.833,547.594,319.133,547.594z"/>
	<path class="st0" d="M330.767,481.852c0,0-3.488,29.328-11.221,55.61l1.538-0.411C321.084,537.051,332.003,497.119,330.767,481.852
		z"/>
	<g>
		<path class="st5" d="M325.302,557.001c-2.271,7.693-9.621,11.964-16.4,9.542c-6.783-2.426-10.434-10.634-8.158-18.331
			c2.273-7.7,9.621-11.968,16.4-9.538C323.927,541.104,327.579,549.297,325.302,557.001z"/>
		<path d="M312.785,569.79c-1.613,0-3.21-0.276-4.748-0.828c-8.036-2.871-12.412-12.507-9.758-21.478
			c2.13-7.214,8.146-12.061,14.974-12.061c1.615,0,3.216,0.278,4.757,0.831c8.032,2.878,12.406,12.514,9.758,21.475
			C325.637,564.942,319.616,569.79,312.785,569.79z M313.253,540.562c-4.529,0-8.563,3.366-10.041,8.377
			c-1.896,6.401,1.048,13.213,6.557,15.183c0.979,0.349,1.997,0.527,3.017,0.527c4.53,0,8.571-3.366,10.05-8.377
			c1.892-6.395-1.051-13.207-6.558-15.182C315.291,540.741,314.275,540.562,313.253,540.562z"/>
	</g>
	<path d="M324.529,556.075c-1.713,5.773-7.217,8.977-12.312,7.154c-5.083-1.817-7.819-7.974-6.112-13.743
		c1.707-5.774,7.217-8.98,12.293-7.154C323.494,544.146,326.23,550.302,324.529,556.075z"/>
	<g>
		<path class="st0" d="M337.087,557.826c-2.611,8.227-10.994,12.783-18.758,10.194c-7.757-2.596-11.93-11.358-9.331-19.586
			c2.604-8.228,11.007-12.796,18.764-10.2C335.524,540.832,339.69,549.589,337.087,557.826z"/>
		<path d="M322.776,571.51c-1.806,0-3.594-0.292-5.323-0.869c-9.158-3.062-14.136-13.398-11.092-23.038
			c2.436-7.692,9.247-12.858,16.954-12.858c1.808,0,3.596,0.292,5.32,0.87c9.163,3.064,14.134,13.403,11.087,23.043
			C337.28,566.345,330.472,571.51,322.776,571.51z M323.315,540.271c-5.285,0-9.979,3.614-11.682,8.999
			c-2.145,6.78,1.255,14.017,7.57,16.131c1.161,0.386,2.363,0.584,3.572,0.584c5.277,0,9.971-3.615,11.678-8.992
			c2.144-6.785-1.253-14.023-7.568-16.139C325.725,540.468,324.523,540.271,323.315,540.271z"/>
	</g>
	<g>
		<path class="st6" d="M330.391,555.552c-1.224,3.887-5.209,6.056-8.88,4.825c-3.677-1.227-5.654-5.378-4.425-9.27
			c1.236-3.905,5.222-6.068,8.894-4.841C329.65,547.496,331.627,551.651,330.391,555.552z"/>
		<path d="M323.617,561.767c-0.829,0-1.648-0.134-2.439-0.398c-4.205-1.402-6.484-6.147-5.086-10.574
			c1.117-3.539,4.249-5.915,7.785-5.915c0.825,0,1.644,0.133,2.432,0.396c4.204,1.409,6.482,6.16,5.077,10.594
			C330.274,559.394,327.152,561.767,323.617,561.767z M323.877,546.966c-2.624,0-4.951,1.792-5.796,4.456
			c-1.058,3.348,0.631,6.919,3.759,7.964c3.085,1.045,6.525-0.882,7.557-4.148c1.06-3.354-0.622-6.932-3.75-7.979
			C325.072,547.063,324.477,546.966,323.877,546.966z"/>
	</g>
	<path class="st0" d="M321.128,537.089c0,0-3.407-0.427-7.185,2.466c-3.208,2.46-4.845,6.172-4.978,7.349
		c0,0,2.749-4.734,5.284-6.671C317.721,537.594,321.128,537.089,321.128,537.089z"/>
	<g>
		<path class="st0" d="M240.645,572.725c-0.143,2.418-2.115,4.267-4.405,4.119l-2.127-0.139c-0.175-0.009-0.339-0.1-0.521-0.141
			c-0.96,0.813-2.19,1.28-3.527,1.195l-0.452-0.028c-2.874-0.191-5.058-2.789-4.876-5.842c0.183-3.044,2.662-5.354,5.529-5.175
			l0.451,0.032c1.181,0.075,2.234,0.571,3.063,1.324c0.289-0.048,0.559-0.144,0.854-0.12l2.128,0.135
			C239.056,568.227,240.789,570.305,240.645,572.725z"/>
		<path d="M230.375,579.859l-0.894-0.044c-4.017-0.267-7.079-3.878-6.829-8.052c0.239-4.007,3.446-7.147,7.302-7.147l0.906,0.047
			c1.249,0.078,2.439,0.492,3.486,1.202c0.059-0.004,0.122-0.007,0.188-0.007l2.356,0.145c3.43,0.21,6.05,3.282,5.836,6.847
			c-0.204,3.414-2.939,6.091-6.231,6.091l-2.431-0.146C232.947,579.485,231.67,579.859,230.375,579.859z M230.111,568.799
			c-1.81,0-3.182,1.411-3.292,3.216c-0.11,1.89,1.202,3.518,2.931,3.634l0.446,0.028l0.179,2.093v-2.087
			c0.847,0,1.484-0.389,1.867-0.712l0.793-0.672l1.453,0.358l1.886,0.103c0.003,0,0.006,0,0.006,0c1.205,0,2.109-0.951,2.181-2.162
			c0.076-1.267-0.791-2.356-1.93-2.429l-2.13-0.135l-1.38,0.26l-0.748-0.678c-0.36-0.329-0.966-0.734-1.788-0.787l-0.464-0.031
			C230.117,568.799,230.114,568.799,230.111,568.799z"/>
	</g>
	<path d="M260.978,513.151c-0.148,0-0.292-0.008-0.438-0.023c-2.294-0.239-3.961-2.294-3.722-4.588
		c1.897-18.218-6.995-19.225-10.343-19.604c-10.423-1.211-15.077,10.176-16.203,17.076c-0.374,2.277-2.561,3.824-4.795,3.451
		c-2.278-0.37-3.821-2.517-3.451-4.795c2.074-12.729,10.86-25.657,25.393-24.035c7.641,0.866,20.104,5.759,17.707,28.773
		C264.902,511.554,263.09,513.151,260.978,513.151z"/>
	<path d="M256.528,491.635c-0.182,0-0.367-0.013-0.552-0.04c-1.928-0.302-3.248-2.109-2.947-4.039
		c0.933-5.993,1.246-16.115-1.041-18.798c-0.244-0.289-0.373-0.301-0.577-0.305h-0.004c-2.497,0-7.389,8.253-10.069,16.985
		c-0.574,1.863-2.541,2.921-4.414,2.344c-1.867-0.574-2.915-2.552-2.344-4.415c1.585-5.162,7.475-21.98,16.832-21.98
		c0.008,0,0.018,0,0.028,0c2.334,0.01,4.386,0.973,5.93,2.787c5.205,6.108,3.115,21.458,2.645,24.474
		C259.741,490.393,258.238,491.635,256.528,491.635z"/>
	<g>
		<path d="M233.07,572.658c-1.11,0.016-2.247-0.034-3.377-0.163c-4.035-0.452-13.649-2.573-15.827-12.447
			c-2.586-11.679,3.2-35.604,6.966-51.021l0.521-2.155c0.471-1.923,2.127-3.298,4.035-3.367c0.201-0.003,0.389,0.013,0.589,0.028
			c0.063,0.003,0.439,0.066,0.49,0.088c1.123,0.292,2.052,1.032,2.629,2.059c0.584,1.025,0.741,2.228,0.465,3.393l-0.521,2.117
			c-3.546,14.562-9.037,37.279-6.935,46.787c0.985,4.455,6.746,5.434,8.491,5.633c0.759,0.087,1.531,0.128,2.284,0.105
			c0.822-0.024,1.394-0.071,1.951-0.156c0.145-0.016,0.458-0.044,0.458-0.044c0.22-0.003,0.383,0.016,0.552,0.038
			c1.92,0.219,3.501,1.829,3.753,3.831c0.32,2.438-1.312,4.703-3.615,5.045c-0.816,0.113-1.656,0.195-2.522,0.223L233.07,572.658z"
			/>
		<path d="M235.706,570.346c-1.801,0.267-3.809,0.289-5.798,0.056c-3.615-0.414-12.219-2.28-14.102-10.844
			c-2.466-11.148,3.244-34.801,6.953-50.016l0.521-2.162c0.301-1.22,1.525-1.989,2.724-1.716c1.211,0.323,1.939,1.612,1.625,2.883
			l-0.521,2.132c-3.596,14.75-9.149,37.753-6.934,47.79c1.28,5.78,8.128,6.994,10.204,7.235c1.613,0.187,3.245,0.164,4.726-0.053
			c1.217-0.169,2.372,0.75,2.529,2.015C237.789,568.962,236.923,570.166,235.706,570.346z"/>
		<g>
			<path class="st0" d="M237.482,563.173l2.115-0.214c0.288-0.031,0.564,0.06,0.859,0.094c0.81-0.787,1.838-1.336,3.018-1.445
				l0.452-0.044c2.862-0.299,5.41,1.913,5.68,4.954c0.277,3.034-1.833,5.727-4.706,6.021l-0.446,0.051
				c-1.324,0.129-2.567-0.282-3.565-1.058c-0.176,0.041-0.326,0.148-0.514,0.167l-2.115,0.216c-2.29,0.236-4.311-1.534-4.524-3.938
				C233.516,565.56,235.186,563.408,237.482,563.173z"/>
			<path d="M245.119,574.883l-0.458,0.044c-1.443,0.141-2.886-0.17-4.154-0.882l-1.744-2.359c-3.508,0.348-6.915,0.204-7.248-3.479
				c-0.327-3.706,2.252-7.014,5.754-7.371l2.122-0.213c0.144-0.017,0.282-0.022,0.414-0.022c1.035-0.75,2.203-1.205,3.439-1.33
				l0.483-0.047c4.085-0.408,7.706,2.761,8.096,7.06c0.182,2.09-0.408,4.136-1.669,5.761
				C248.891,573.665,247.096,574.679,245.119,574.883z M241.41,569.021l0.798,0.618c0.426,0.32,1.123,0.696,2.045,0.606l0.446-0.047
				c0.797-0.079,1.513-0.486,2.027-1.139c0.508-0.653,0.747-1.478,0.665-2.312c-0.151-1.735-1.606-3.01-3.244-2.843l-0.471,0.046
				l0,0c-0.797,0.079-1.374,0.493-1.714,0.826l-0.74,0.725l-1.431-0.176l-2.109,0.191c-1.054,0.106-1.832,1.11-1.738,2.234
				c0.107,1.113,1.042,1.932,2.102,1.826l1.926-0.195c0.158-0.071,0.314-0.112,0.471-0.15L241.41,569.021z"/>
		</g>
		<g>
			<path class="st0" d="M229.957,569.932c-5.811-0.656-12.187-3.553-13.718-10.487c-2.441-11.044,3.263-34.643,6.966-49.82
				l0.515-2.118c0.251-1.026,1.092-1.299,2.033-1.063c0.966,0.257,1.688,0.969,1.443,1.989l-0.521,2.124
				c-3.608,14.807-9.174,37.886-6.94,48.026c1.449,6.546,9.883,8.354,15.431,7.537c0.986-0.138,1.883,0.577,2.021,1.609
				c0.138,1.045-0.559,2.002-1.544,2.149C233.979,570.119,232.009,570.164,229.957,569.932z"/>
			<path d="M232.653,570.487c-0.907,0-1.83-0.054-2.74-0.157c-3.602-0.405-12.184-2.271-14.066-10.797
				c-2.485-11.249,3.432-35.511,6.969-50.003l0.515-2.119c0.276-1.142,1.274-1.669,2.52-1.358c1.312,0.348,2.008,1.344,1.735,2.473
				l-0.52,2.124c-3.433,14.092-9.178,37.672-6.938,47.845c1.211,5.466,7.458,7.405,12.441,7.405c0.879,0,1.732-0.06,2.538-0.179
				c1.227-0.148,2.312,0.725,2.479,1.955c0.166,1.254-0.678,2.419-1.883,2.601C234.74,570.414,233.713,570.487,232.653,570.487z
				 M225.15,506.766c-0.561,0-0.903,0.272-1.042,0.835l-0.515,2.117c-3.518,14.427-9.41,38.572-6.962,49.639
				c1.769,8.023,9.94,9.787,13.369,10.177c1.908,0.216,3.872,0.197,5.585-0.054c0.769-0.113,1.311-0.876,1.202-1.697
				c-0.107-0.807-0.794-1.378-1.566-1.265c-0.844,0.122-1.738,0.186-2.654,0.186c-5.281,0-11.911-2.103-13.226-8.033
				c-2.281-10.357,3.493-34.051,6.944-48.208l0.521-2.125c0.198-0.831-0.467-1.324-1.158-1.506
				C225.477,506.787,225.308,506.766,225.15,506.766z"/>
		</g>
	</g>
	<g>
		<path class="st0" d="M238.028,574.318c-0.954-0.129-1.639-1.029-1.557-2.046c0.081-1.042,0.954-1.817,1.952-1.729
			c0.226,0.018,5.9,0.41,9.312-4.72c4.883-7.33,10.248-33.511,11.178-54.889c0.05-1.042,0.966-1.405,1.951-1.358
			c0.947,0.047,1.688,0.47,1.645,1.519c-0.979,22.372-6.533,48.945-11.835,56.906c-4.632,6.949-12.244,6.35-12.577,6.329
			C238.071,574.321,238.046,574.318,238.028,574.318z"/>
		<path d="M238.769,574.754c-0.37,0-0.612-0.016-0.688-0.021l-0.126-0.025c-1.148-0.147-1.983-1.236-1.886-2.466
			c0.098-1.246,1.184-2.172,2.388-2.1c0.028,0.003,0.173,0.013,0.399,0.013c1.295,0,5.732-0.326,8.544-4.553
			c4.892-7.343,10.185-33.404,11.11-54.686c0.054-1.076,0.891-1.744,2.188-1.744l0.186,0.003c1.317,0.066,2.073,0.791,2.027,1.936
			c-0.98,22.378-6.544,49.064-11.902,57.113C247.081,574.117,241.141,574.754,238.769,574.754z M238.147,573.932
			c0.098,0.007,0.307,0.02,0.622,0.02c2.241,0,7.859-0.603,11.568-6.172c5.297-7.948,10.797-34.446,11.77-56.703
			c0.013-0.254,0.043-1.032-1.262-1.098l-0.148-0.004c-0.609,0-1.347,0.17-1.383,0.979c-0.93,21.394-6.29,47.653-11.243,55.093
			c-3.034,4.556-7.82,4.91-9.216,4.91c-0.267,0-0.43-0.009-0.468-0.013c-0.041-0.006-0.082-0.006-0.12-0.006
			c-0.724,0-1.336,0.6-1.396,1.365c-0.066,0.806,0.464,1.516,1.208,1.615L238.147,573.932z"/>
	</g>
	<path class="st0" d="M226.933,496.016c0.433-2.09,3.514-8.566,8.453-11.443c4.833-2.818,9.464-3.013,10.688-2.712
		c0,0-6.489,1.067-10.28,3.612C230.303,489.149,226.933,496.016,226.933,496.016z"/>
	<path class="st0" d="M241.962,470.964c0,0,1.137-3.716,4.4-5.98c2.271-1.575,5.132-1.61,6.752-1.036
		C253.114,463.947,247.02,463.135,241.962,470.964z"/>
	<g>
		<path class="st0" d="M237.143,570.265c-1.406,1.045-1.732,3.567,0.49,4.471"/>
		<path d="M237.633,575.538c-0.101,0-0.204-0.019-0.302-0.059c-1.176-0.477-1.936-1.416-2.08-2.57
			c-0.16-1.242,0.395-2.535,1.412-3.288c0.358-0.271,0.863-0.188,1.124,0.162c0.267,0.358,0.191,0.86-0.164,1.124
			c-0.543,0.404-0.863,1.143-0.782,1.798c0.076,0.581,0.452,1.026,1.092,1.286c0.411,0.166,0.608,0.634,0.442,1.045
			C238.25,575.351,237.949,575.538,237.633,575.538z"/>
	</g>
	<g>
		<path class="st0" d="M235.543,565.341c1.675,0.847,2.723,3.116,0.941,4.763"/>
		<path d="M236.484,570.907c-0.217,0-0.433-0.088-0.59-0.258c-0.301-0.326-0.283-0.834,0.044-1.136
			c0.518-0.477,0.737-1.02,0.652-1.616c-0.101-0.724-0.668-1.465-1.413-1.841c-0.395-0.198-0.552-0.681-0.351-1.08
			c0.201-0.396,0.675-0.555,1.08-0.352c1.227,0.618,2.099,1.789,2.275,3.051c0.157,1.113-0.254,2.187-1.152,3.018
			C236.876,570.838,236.679,570.907,236.484,570.907z"/>
	</g>
	<g>
		<path class="st0" d="M240.839,569.991c0,0,4.996-1.236,6.521-4.675"/>
		<path d="M240.839,570.666c-0.305,0-0.577-0.204-0.655-0.512c-0.088-0.361,0.131-0.729,0.493-0.819
			c0.046-0.01,4.697-1.201,6.064-4.293c0.151-0.338,0.553-0.495,0.892-0.345c0.342,0.153,0.496,0.553,0.345,0.892
			c-1.64,3.699-6.758,5.004-6.975,5.058C240.946,570.659,240.892,570.666,240.839,570.666z"/>
	</g>
	<path class="st3" d="M116.56,518.692c-0.311,3.253,2.328,9.294,6.976,11.775c4.647,2.482,11.933,1.083,13.947,0
		c0,0-7.983-0.32-12.401-2.789C119.814,524.735,116.56,518.692,116.56,518.692z"/>
	<path class="st1" d="M178.241,256.47c0,0-13.235-18.99-25.342-10.985c-12.105,8.008-16.269,38.783-8.661,68.152
		c7.603,29.366,26.008,36.94,36.758,35.472C180.996,349.109,176.345,282.802,178.241,256.47z"/>
	<path class="st7" d="M175.474,275.29c0,0-8.566-15.463-16.662-11.387c-8.094,4.079-3.46,37.346,0.879,47.697
		c4.33,10.368,8.779,18.478,16.793,15.896L175.474,275.29z"/>
	<path class="st1" d="M421.223,271.443c0,0,16.21-17.442,28.29-8.161c12.093,9.272,13.184,40.33,1.857,68.698
		c-11.321,28.378-31.83,33.904-43.17,31.274C408.2,363.254,420.382,297.829,421.223,271.443z"/>
	<path class="st7" d="M422.132,290.455c0,0,10.839-14.443,19.053-9.507c8.222,4.939-0.352,37.505-6.125,47.333
		c-5.749,9.834-11.39,17.418-19.687,13.978L422.132,290.455z"/>
	<path d="M177.638,353.624c-14.113,0-28.511-15.105-34.865-37.02c-6.116-21.092-10.047-65.952,8.597-74.076
		c4.302-1.873,8.577-1.924,12.682-0.145c10.248,4.434,15.588,19.127,15.808,19.749c0.64,1.81-0.301,3.796-2.109,4.443
		c-1.814,0.643-3.803-0.295-4.449-2.1c-1.243-3.464-5.824-13.037-12.024-15.711c-2.297-0.995-4.626-0.944-7.128,0.141
		c-12.243,5.331-11.298,42.978-4.691,65.761c6.427,22.175,20.071,32.975,29.585,31.92c1.914-0.222,3.633,1.155,3.853,3.062
		c0.214,1.911-1.154,3.634-3.062,3.85C179.107,353.58,178.373,353.624,177.638,353.624z"/>
	<path d="M413.931,368.243c-1.557,0-3.095-0.154-4.601-0.468c-1.883-0.392-3.087-2.24-2.699-4.12
		c0.396-1.879,2.241-3.082,4.117-2.692c10.268,2.162,26.156-7.148,35.483-28.573c14.207-32.657,10.649-61.221,2.065-65.78
		c-2.77-1.462-5.461-1.747-8.254-0.869c-8.309,2.598-14.357,14.167-14.421,14.283c-0.878,1.704-2.961,2.381-4.681,1.5
		c-1.707-0.879-2.385-2.969-1.513-4.679c0.302-0.58,7.417-14.251,18.512-17.741c4.601-1.446,9.176-0.992,13.612,1.359
		c19.028,10.104,9.903,54.355,1.06,74.704C443.927,355.127,428.258,368.24,413.931,368.243z"/>
	<path class="st1" d="M166.21,155.908c0,0-4.424,91.412-1.191,138.666c2.993,43.521,13.034,91.027,33.178,113.939
		c20.138,22.912,44.255,37.452,64.706,44.625c20.465,7.17,50.625,3.675,67.299-4.088c16.669-7.757,54.008-29.223,69.904-60.907
		c15.895-31.695,31.352-144.613,26.036-188.595c-5.31-43.992-40.283-94.105-97.897-100.182
		C270.629,93.294,180.211,111.919,166.21,155.908z"/>
	<path d="M292.876,461.436c-16.348,0-34.309-2.901-47.231-10.234c-12.581-7.142-54.646-33.452-67.787-72.131
		c-16.586-48.751-16.053-141.026-14.214-206.194c0.057-1.926,1.807-3.452,3.577-3.379c1.92,0.053,3.439,1.653,3.377,3.577
		c-1.827,64.628-2.373,156.065,13.844,203.76c12.356,36.35,52.595,61.481,64.638,68.318c21.192,12.023,58.594,10.967,74.038,4.992
		c16.819-6.501,56.348-29.727,71.221-60.019c16.43-33.496,27.901-103.611,34.076-208.397c0.113-1.913,1.757-3.398,3.678-3.266
		c1.914,0.113,3.383,1.76,3.27,3.681c-6.237,105.711-17.936,176.719-34.779,211.045c-15.777,32.143-57.314,56.627-74.955,63.449
		C318.035,459.573,305.974,461.436,292.876,461.436z"/>
	<g>
		<path d="M169.11,325.698c-0.1-50.599,3.038-85.516,2.893-93.85c-0.213-13.348-4.21-33.257,0.258-48.199
			c4.462-14.945,42.994-52.724,76.454-51.032c40.044,2.027,79.543-3.502,100.296-11.61c0,0,11.339,17.593,26.701,36.367
			c14.021,17.126,32.715,36.668,39.367,50.737c15.632,33.069,2.477,96.58,0.357,119.467c0,0,14.282-19.156,19.24-59.809
			c0.309-2.551,10.336-6.018,10.882-8.287c1.022-4.251,1.814-8.045,2.246-11.083c2.9-20.085,23.357-63.73,13.386-97.041
			c-10.736-35.905-44.719-80.179-88.974-62.599c0,0-21.073-42.724-89.57-44.11c-56.071-1.139-85.108,42.733-105.774,68.328
			c-2.855,3.53-30.509,32.592-33.381,60.958c-2.868,28.372,12.95,42.655,14.509,64.358
			C162.257,297.383,169.079,312.13,169.11,325.698z"/>
		<path d="M415.436,328.073c-0.064,0-0.119-0.01-0.182-0.035c-0.201-0.078-0.333-0.285-0.314-0.508
			c0.39-4.176,1.143-9.724,2.021-16.141c3.884-28.481,10.392-76.153-2.335-103.069c-4.882-10.327-16.442-23.797-27.624-36.821
			c-3.936-4.585-8.002-9.325-11.674-13.81c-14.037-17.16-24.85-33.533-26.52-36.074c-19.091,7.354-50.951,11.92-83.295,11.92
			c-5.642,0-11.308-0.141-16.825-0.42c-0.721-0.041-1.443-0.057-2.171-0.057c-32.627,0-69.514,36.432-73.782,50.731
			c-3.163,10.571-2.052,23.655-1.067,35.206c0.396,4.628,0.772,9.002,0.835,12.846c0.038,2.632-0.245,7.992-0.64,15.406
			c-0.872,16.363-2.329,43.75-2.253,78.447l0,0l0,0c0,0.273-0.226,0.499-0.502,0.499l0,0c-0.276,0-0.489-0.22-0.495-0.496
			c-0.013-5.086-0.973-10.286-2.435-18.149c-2.404-12.927-6.025-32.457-8.674-69.219c-0.641-8.92-3.688-16.514-6.913-24.553
			c-4.568-11.387-9.284-23.163-7.597-39.893c1.739-17.167,12.536-37.217,32.089-59.596c0.652-0.747,1.136-1.296,1.399-1.625
			c1.808-2.246,3.69-4.628,5.642-7.11c20.396-25.925,48.321-61.425,98.381-61.425c0.715,0,1.431,0.006,2.145,0.025
			c64.443,1.302,87.382,39.596,89.797,43.982c6.571-2.554,13.179-3.85,19.668-3.85c15.745,0,31.095,7.637,44.399,22.084
			c11.05,11.999,20.22,28.347,25.152,44.848c7.217,24.12-1.508,53.906-7.876,75.654c-2.511,8.59-4.689,16.012-5.492,21.6
			c-0.413,2.891-1.173,6.631-2.266,11.127c-0.308,1.287-2.66,2.614-5.39,4.145c-2.379,1.34-5.348,3.003-5.478,4.089
			c-4.915,40.313-19.185,59.85-19.335,60.044C415.738,328.001,415.587,328.073,415.436,328.073z M349.011,120.508
			c0.162,0,0.325,0.082,0.414,0.226c0.112,0.176,11.502,17.791,26.67,36.326c3.666,4.475,7.732,9.213,11.661,13.791
			c11.225,13.078,22.836,26.599,27.775,37.047c12.845,27.182,6.312,75.033,2.415,103.627c-0.747,5.435-1.399,10.239-1.812,14.114
			c3.427-5.447,13.968-24.462,18.047-57.926c0.195-1.588,3.006-3.169,5.975-4.838c2.102-1.173,4.706-2.643,4.915-3.508
			c1.085-4.468,1.838-8.18,2.246-11.036c0.815-5.66,2.999-13.112,5.527-21.738c6.333-21.628,14.999-51.249,7.871-75.09
			c-9.841-32.908-36.561-66.222-68.598-66.222c-6.496,0-13.129,1.325-19.719,3.941c-0.238,0.094-0.514-0.009-0.627-0.244
			c-0.214-0.421-21.751-42.466-89.137-43.832c-0.71-0.012-1.418-0.018-2.128-0.018c-49.577,0-77.334,35.281-97.604,61.042
			c-1.952,2.485-3.834,4.873-5.648,7.12c-0.27,0.333-0.753,0.894-1.424,1.657c-19.413,22.219-30.128,42.084-31.847,59.043
			c-1.667,16.482,3.012,28.142,7.53,39.419c3.254,8.114,6.329,15.777,6.983,24.852c2.642,36.708,6.263,56.207,8.654,69.106
			c0.584,3.134,1.085,5.839,1.488,8.296c0.182-29.975,1.449-53.703,2.234-68.462c0.389-7.399,0.677-12.743,0.628-15.341
			c-0.05-3.806-0.421-8.165-0.816-12.78c-0.998-11.632-2.114-24.817,1.099-35.573c4.33-14.499,41.694-51.438,74.735-51.438
			c0.74,0,1.48,0.016,2.221,0.054c5.504,0.279,11.151,0.42,16.774,0.42c32.45,0,64.375-4.597,83.314-11.999
			C348.891,120.517,348.948,120.508,349.011,120.508z"/>
	</g>
	<g>
		<path d="M232.242,133.931c-16.247,5.937-22.027,30.267-50.016,32.632c-34.115,2.89-54.134-32.702-37.099-62.228
			c0,0,6.828,28.01,42.264,22.573C212.21,123.103,232.242,133.931,232.242,133.931z"/>
		<path d="M178.36,167.226c-14.465,0-27.325-7.298-34.388-19.532c-7.653-13.254-7.383-29.555,0.725-43.606
			c0.101-0.176,0.27-0.273,0.505-0.242c0.198,0.028,0.358,0.175,0.411,0.373c0.016,0.057,1.462,5.805,6.245,11.466
			c4.399,5.212,12.615,11.428,26.779,11.428h0.013c2.749,0,5.661-0.235,8.667-0.694c3.533-0.542,7.179-0.818,10.837-0.818
			c19.498,0,34.182,7.816,34.327,7.894c0.17,0.091,0.276,0.279,0.258,0.471c-0.013,0.198-0.145,0.368-0.327,0.433
			c-6.263,2.288-11.032,7.458-16.078,12.921c-7.907,8.572-16.869,18.287-34.063,19.74
			C180.964,167.172,179.646,167.226,178.36,167.226z M144.995,105.587c-7.374,13.508-7.456,28.983-0.16,41.606
			c6.985,12.103,19.205,19.041,33.525,19.041c1.261,0,2.547-0.054,3.828-0.164c16.806-1.421,25.629-10.985,33.417-19.426
			c4.851-5.255,9.445-10.235,15.419-12.768c-3.577-1.706-16.499-7.28-32.871-7.28c-3.615,0-7.204,0.267-10.694,0.807
			c-3.049,0.464-6.012,0.703-8.811,0.703h-0.013C154.308,128.107,146.607,110.307,144.995,105.587z"/>
	</g>
	<path class="st8" d="M278.372,125.346c0,0-21.048-35.485-45.327-30.323c-24.267,5.167-20.866,30.944-20.866,30.944
		s-0.627-21.77,21.249-25.889C255.304,95.957,278.372,125.346,278.372,125.346z"/>
	<path class="st8" d="M316.716,117.894c0,0,2.9-30.603-20.633-46.197c-18.764-12.416-44.098-3.455-48.398,0.411
		c0,0,26.283-10.345,44.644,1.732C314.125,88.154,316.716,117.894,316.716,117.894z"/>
	<path class="st8" d="M155.102,135.124c0,0,2.51,23.935,32.49,19.724C187.592,154.847,165.64,156.582,155.102,135.124z"/>
	<path class="st9" d="M259.628,230.837c11.416,6.63,19.899,16.733,18.626,31.18c-1.148,12.899-16.43,20.198-26.169,23.461
		c0,0,14.967-9.614,14.007-23.674c-0.797-11.775-17.44-24.785-32.344-31.195C233.748,230.608,247.164,223.589,259.628,230.837z"/>
	<path class="st9" d="M313.755,232.667c-11.749,6.037-20.748,15.989-20.202,30.185c0.509,12.938,15.375,21.007,24.934,24.77
		c0,0-11.516-13.018-9.834-27.016c1.4-11.726,15.738-21.205,30.951-26.843C339.603,233.762,326.568,226.062,313.755,232.667z"/>
	<path class="st10" d="M253.867,393.922c0,0,9.125,10.283,30.8,10.898c19.461,0.549,31.008-10.085,31.008-10.085
		s-6.916,16.759-31.245,16.514C258.907,410.991,253.867,393.922,253.867,393.922z"/>
	<path class="st11" d="M245.308,377.857c4.788,10.508,14.076,23.875,39.354,24.572c25.253,0.696,38.983-16.1,41.701-24.142
		c0,0-22.574,8.764-39.719,8.29C269.493,386.106,245.308,377.857,245.308,377.857z"/>
	<path class="st11" d="M247.705,372.62c0,0,14.646-8.695,20.904-8.34c4.719,0.282,12.399,6.351,12.399,6.351
		s9.564-6.746,14.653-6.526c6.495,0.276,28.88,9.793,28.88,9.793s-18.902,6.037-38.476,5.497
		C266.499,378.849,247.705,372.62,247.705,372.62z"/>
	<path class="st12" d="M245.583,365.529c-3.138-1.243-7.825,0-9.061,4.531c-1.299,4.77-0.12,8.328,1.236,9.68
		c0,0,0.86-2.937,3.295-6.385C243.381,370.062,250.341,367.405,245.583,365.529z"/>
	<path class="st12" d="M327.573,366.762c3.684-1.161,7.053,0.979,8.654,5.771c1.028,3.087,0.206,7.621-1.651,9.269
		c0,0-1.914-5.332-3.909-7.211C327.152,371.293,323.983,367.895,327.573,366.762z"/>
	<path class="st0" d="M244.384,374.575c0,0,13.7,17.77,40.835,18.522c27.129,0.747,41.701-17.829,41.701-17.829
		s-20.753,4.976-42.267,4.386C263.13,379.058,244.384,374.575,244.384,374.575z"/>
	<path d="M256.372,375.269c0,0,3.419,8.02,7.586,12.181c0,0-16.316-5.312-19.919-14.315L256.372,375.269z"/>
	<path d="M312.901,377.515c0,0-1.514,7.201-4.883,9.96c0,0,14.547-6.112,16.505-13.515L312.901,377.515z"/>
	<path class="st0" d="M203.513,268.854c0,0,12.909,4.013,29.23,4.735c16.324,0.722,24.714-2.576,24.757-4.107
		c0.038-1.528-5.359-20.509-24.135-20.38C214.607,249.234,203.513,268.854,203.513,268.854z"/>
	
		<linearGradient id="SVGID_1_" gradientUnits="userSpaceOnUse" x1="173.651" y1="231.9855" x2="240.9807" y2="236.1646" gradientTransform="matrix(0.974 -0.0092 0.0094 1 5.5017 -3.001)">
		<stop  offset="0" style="stop-color:#000000;stop-opacity:0"/>
		<stop  offset="1" style="stop-color:#000000"/>
	</linearGradient>
	<path class="st13" d="M253.365,236.281c3.37,1.121,10.706-1.854,9.219-3.646c-1.481-1.795-29.426-15.749-46.722-14.986
		c-17.295,0.759-26.828,13.624-27.612,22.373c0,0,12.702-10.271,28.554-9.962C232.317,230.351,248.954,234.812,253.365,236.281z"/>
	<path d="M192.611,271.835c3.27-0.832,7.901-4.362,9.872-6.978c5.12-6.796,13.122-18.403,29.156-19.165
		c19.259-0.907,29.545,17.597,25.624,26.436c-0.183-0.891-5.962-20.336-25.096-18.902c-14.729,1.108-19.944,9.119-25.347,14.971
		C202.866,272.473,196.283,273.081,192.611,271.835z"/>
	<path d="M231.639,245.691c-12.927-0.634-29.125,9.564-32.136,20.966c0,0,8.239-11.98,20.401-14.675L231.639,245.691z"/>
	<path d="M232.743,273.589c-3.533-0.157-6.909-0.467-10.028-0.863c-2.096-2.639-3.345-5.971-3.251-9.602
		c0.113-4.672,2.416-8.729,5.843-11.38c2.736-0.941,5.686-1.543,8.879-1.566c3.564-0.025,6.621,0.612,9.282,1.645
		c0.087,0.038,0.169,0.088,0.263,0.132c3.47,2.814,5.692,7.116,5.567,11.929c-0.095,3.625-1.506,6.872-3.709,9.392
		C242.069,273.652,237.789,273.812,232.743,273.589z"/>
	<path class="st0" d="M231.608,259.849c-0.038,1.438-1.23,2.573-2.661,2.536c-1.444-0.038-2.586-1.23-2.548-2.667
		c0.038-1.438,1.236-2.573,2.674-2.539C230.51,257.223,231.645,258.418,231.608,259.849z"/>
	<path class="st0" d="M372.612,273.84c0,0-13.536,3.405-30.424,3.292c-16.887-0.126-25.378-3.929-25.34-5.488
		c0.043-1.569,6.62-20.65,25.98-19.527C362.195,253.235,372.612,273.84,372.612,273.84z"/>
	
		<linearGradient id="SVGID_00000090277380187955161290000010811580317104605610_" gradientUnits="userSpaceOnUse" x1="838.1025" y1="254.5484" x2="904.7025" y2="258.6822" gradientTransform="matrix(-1.0131 -0.0742 -0.0752 0.9973 1267.6923 41.1747)">
		<stop  offset="0" style="stop-color:#000000;stop-opacity:0"/>
		<stop  offset="1" style="stop-color:#000000"/>
	</linearGradient>
	<path style="fill:url(#SVGID_00000090277380187955161290000010811580317104605610_);" d="M320.155,237.939
		c-3.577,0.894-10.988-2.862-9.332-4.554c1.663-1.688,32.859-13.998,50.807-12.074c17.96,1.915,24.612,16.041,25.26,22.624
		c0,0-11.717-9.31-28.24-10.063C342.471,233.128,324.849,236.768,320.155,237.939z"/>
	<path d="M382.051,277.103c-3.156-1.672-6.269-4.518-8.171-7.292c-4.926-7.2-12.57-19.46-29.094-21.082
		c-19.824-1.939-31.578,16.752-28.184,25.87c0.221-0.903,7.569-20.561,27.249-18.214c13.944,1.722,19.943,10.498,25.379,16.607
		C372.268,276.392,379.277,278.171,382.051,277.103z"/>
	<path d="M344.786,248.729c13.386,0.028,29.571,11.286,32.081,23.078c0,0-7.876-12.654-20.289-16.046L344.786,248.729z"/>
	<path d="M342.188,277.132c-3.689-0.031-6.953-0.242-9.846-0.555c-2.485-2.737-4.017-6.36-3.986-10.358
		c0.045-4.951,2.485-9.294,6.169-12.049c2.806-1.003,6.025-1.569,9.747-1.421c1.45,0.06,2.843,0.251,4.186,0.521
		c1.971,0.521,3.821,1.227,5.56,2.068c2.976,2.805,4.87,6.724,4.826,11.149c-0.024,3.906-1.543,7.433-3.985,10.11
		C351.006,276.937,346.726,277.16,342.188,277.132z"/>
	<path class="st0" d="M347.121,264.888c-0.038,1.466,1.117,2.683,2.586,2.721c1.475,0.034,2.686-1.12,2.729-2.588
		c0.032-1.465-1.116-2.686-2.586-2.727C348.377,262.256,347.153,263.417,347.121,264.888z"/>
	<path class="st15" d="M283.005,349.818c-0.402,0.006-0.811-0.003-1.231-0.022c-7.216-0.314-10.925-3.282-13.899-5.67
		c-1.639-1.302-3.05-2.435-4.801-2.962c-0.408-0.122-0.866-0.238-1.368-0.364c-2.969-0.762-7.468-1.914-11.001-6.165
		c-3.006-3.596-3.79-7.885-2.196-12.083c2.064-5.432,7.844-9.733,14.383-10.712c1.23-0.179,2.353,0.659,2.548,1.882
		c0.176,1.221-0.672,2.359-1.889,2.544c-4.908,0.732-9.376,3.97-10.857,7.876c-1.01,2.654-0.514,5.293,1.443,7.628
		c2.611,3.144,5.975,4.003,8.679,4.694c0.564,0.141,1.086,0.276,1.544,0.42c2.58,0.775,4.475,2.29,6.308,3.753
		c2.85,2.284,5.547,4.439,11.303,4.691c5.057,0.226,7.504-1.532,10.329-3.561c1.906-1.375,4.079-2.927,7.085-3.791
		c0.809-0.229,1.768-0.471,2.793-0.731c3.432-0.863,9.181-2.309,10.555-4.298c1.55-2.259,1.864-5.203,0.822-7.869
		c-1.306-3.352-4.518-5.836-8.811-6.816c-1.198-0.279-1.951-1.475-1.675-2.679c0.27-1.205,1.469-1.945,2.68-1.682
		c5.754,1.314,10.122,4.794,11.974,9.551c1.581,4.051,1.092,8.548-1.305,12.037c-2.335,3.373-8.329,4.885-13.148,6.1
		c-0.973,0.244-1.876,0.471-2.66,0.693c-2.26,0.643-3.93,1.845-5.698,3.119C292.047,347.455,288.834,349.771,283.005,349.818z"/>
	<path class="st16" d="M270.717,314.665c-0.144,0-0.289-0.016-0.439-0.063c-0.892-0.234-1.407-1.142-1.175-2.023
		c2.875-10.681,6.997-34.7,7.042-34.946c0.15-0.903,1.017-1.5,1.914-1.352c0.896,0.157,1.506,1.014,1.354,1.914
		c-0.176,0.991-4.197,24.415-7.11,35.243C272.109,314.173,271.444,314.659,270.717,314.665z"/>
	<path class="st17" d="M298.342,315.293c-0.772,0.006-1.468-0.534-1.632-1.322c-2.528-12.272-4.864-32.447-4.882-32.648
		c-0.106-0.91,0.546-1.729,1.455-1.836c0.892-0.106,1.732,0.55,1.833,1.46c0.025,0.204,2.334,20.232,4.838,32.354
		c0.183,0.897-0.396,1.772-1.287,1.957C298.561,315.277,298.448,315.293,298.342,315.293z"/>
	<path class="st18" d="M289.977,381.289c-1.538,0.016-3.125,0-4.732-0.041c-26.526-0.731-43.653-7.967-44.369-8.274
		c-1.073-0.461-1.574-1.71-1.116-2.79c0.471-1.073,1.718-1.578,2.792-1.117c0.169,0.076,17.156,7.227,42.812,7.933
		c25.729,0.693,43.182-6.822,43.357-6.896c1.072-0.468,2.328,0.018,2.799,1.094c0.464,1.076-0.024,2.329-1.099,2.796
		C329.719,374.305,313.936,381.08,289.977,381.289z"/>
	<path class="st18" d="M285.74,395.03c-0.57,0.006-1.136-0.003-1.688-0.016c-17.334-0.477-36.738-10.687-42.373-22.294
		c-0.508-1.054-0.068-2.328,0.986-2.836c1.048-0.508,2.327-0.075,2.836,0.982c4.852,9.99,23.276,19.477,38.663,19.9
		c16.769,0.42,36.975-8.503,41.575-18.453c0.49-1.067,1.77-1.522,2.817-1.035c1.067,0.489,1.531,1.754,1.043,2.814
		C324.003,386.207,302.295,394.879,285.74,395.03z"/>
	<path class="st8" d="M371.049,124.176c0,0,55.695-12.319,66.941,48.195C437.99,172.371,422.992,123.103,371.049,124.176z"/>
	<path class="st8" d="M418.523,186.535c0,0,24.286,4.045,23.245,39.165C441.769,225.701,437.766,196.705,418.523,186.535z"/>
</g>
</svg>
