<?xml version="1.0" encoding="utf-8"?>
<!-- Generator: Adobe Illustrator 27.7.0, SVG Export Plug-In . SVG Version: 6.00 Build 0)  -->
<svg version="1.1" id="image" xmlns="http://www.w3.org/2000/svg" xmlns:xlink="http://www.w3.org/1999/xlink" x="0px" y="0px"
	 viewBox="0 0 595.3 841.9" style="enable-background:new 0 0 595.3 841.9;" xml:space="preserve">
<style type="text/css">
	.st0{fill:#FFFFFF;}
	.st1{fill:#F8CC98;}
	.st2{fill:#9D3767;}
	.st3{fill:#D3A671;}
	.st4{fill:#E60012;}
	.st5{fill:#DCDDDD;}
	.st6{fill:#EBEBEC;}
	.st7{fill:#CFA373;}
	.st8{opacity:0.4;fill:#FFFFFF;}
	.st9{opacity:0.32;fill:#D3A671;}
	.st10{opacity:0.4;fill:#D3A671;}
	.st11{opacity:0.7;fill:#ECA894;}
	.st12{opacity:0.42;fill:#D3A671;}
	.st13{fill:url(#SVGID_1_);}
	.st14{fill:url(#SVGID_00000114040101893541050390000015662639650661269427_);}
	.st15{fill:#A77A46;}
	.st16{opacity:0.3;fill:#A77A46;}
	.st17{opacity:0.24;fill:#A77A46;}
	.st18{fill:#8E4B38;}
</style>
<g>
	<path d="M172.7,689.3c0,0,38.8-40,89.2-51.8l85.4,14.1c0,0-5.5,10.5-12.9,12c-7.4,1.6-38.1,5.5-65,23.9
		c-33.4,22.8-53.4,38.5-59.9,48.8c-6.5,10.3-16.1,20.8-35.1,17.7c-19-3.1-47.8-27.5-52.8-46.6C116.6,688.3,131.8,664.3,172.7,689.3z
		"/>
	<path class="st0" d="M123.4,698.7c0.2-6.9,17.5-9.1,37.5,8.9c20,18,39.4,43.2,24.6,45.9c-16.6,3.1-41.4-16.6-46.3-21.3
		C134.2,727.5,123.1,711,123.4,698.7z"/>
	<path d="M275.9,668c0,0,14.8,40.8,47.6,62.1c0,0-10.2,37.1,12.8,39.6c23,2.5,37.6-23.5,38-42.2c0.5-18.7-3-23.3-13.4-33.1
		c-10.4-9.8-30.2-27.7-44.8-55.9C306.5,619.8,275.9,668,275.9,668z"/>
	<path d="M182.1,757.4c-9.8,0-20.7-4.1-32-12c-13.8-9.7-29.8-27.8-32.3-44.3c-1-6.8,0.3-12.7,3.9-17.4c14.5-18.9,42.2-4.1,50.5,0.9
		c32.4-34.7,78.9-48.1,80.9-48.7c1.7-0.5,3.5,0.5,4,2.2c0.5,1.7-0.5,3.5-2.2,4c-0.5,0.1-48.6,14-79.8,48.8c-1.1,1.2-2.9,1.4-4.2,0.5
		c-0.3-0.2-31.1-21-44.2-3.9c-2.5,3.3-3.4,7.5-2.6,12.5c1.9,12.4,14.4,29.3,29.7,40.1c12.5,8.9,24.3,12.4,34.1,10.2
		c7.3-1.6,13.2-6.4,17.6-14.3c11.7-20.6,40.5-43.3,77.1-60.8c18.1-8.6,32.9-12,42.7-14.3c3.9-0.9,7-1.6,8.7-2.3
		c10.8-4.5,12.7-11.3,12.7-11.6c0.4-1.7,2.1-2.8,3.9-2.4c1.7,0.4,2.8,2.1,2.4,3.8c-0.1,0.4-2.4,10.2-16.5,16.1
		c-2.2,0.9-5.4,1.6-9.8,2.6c-9.5,2.2-23.9,5.5-41.3,13.8c-35.4,16.9-63.2,38.7-74.2,58.2c-5.4,9.5-12.7,15.4-21.8,17.4
		C187,757.1,184.6,757.4,182.1,757.4z"/>
	<path d="M338.9,773c-2.4,0-4.8-0.4-7.2-1.2c-18.9-6.7-13.6-34.9-11.8-42.4c-37.5-25.7-44.7-63-44.9-64.6c-0.3-1.4,0.7-2.7,2.1-3
		c1.4-0.3,2.7,0.7,3,2.1c0.1,0.4,7.3,37.7,44.2,62.3c0.9,0.6,1.4,1.8,1.1,2.8c-0.1,0.3-8.8,32,8.1,38c4.9,1.7,10.1,1.1,15.4-1.9
		c11-6.2,20.1-21.3,22.2-31.7c3-14.6-1.5-29.4-10.8-35.3c-11.5-7.3-35.6-32.4-42-59.7c-0.3-1.4,0.5-2.8,1.9-3.1
		c1.4-0.3,2.8,0.5,3.1,1.9c6,25.6,29.2,49.8,39.8,56.6c11.2,7.1,16.5,23.9,13,40.7c-2.4,11.8-12.4,28.1-24.8,35.1
		C347.2,771.8,343,773,338.9,773z"/>
	<path d="M153.4,746.6c-0.8,0-1.5-0.4-2-1c-0.8-1.1-0.5-2.6,0.6-3.3c0.1-0.1,14.8-10.2,22.1-19.4c0.8-1,2.3-1.2,3.4-0.4
		c1,0.8,1.2,2.3,0.4,3.4c-7.8,9.8-22.5,19.9-23.1,20.4C154.4,746.5,153.9,746.6,153.4,746.6z"/>
	<path class="st0" d="M144.3,502.4c0,0,4.8,35.5,11.2,49.2c0,0,47-0.1,77.8-23.6c0,0-18.5,83.2-22.9,117c0,0,60.6,29.7,143.4,14.5
		c0,0-4.8-123.8-6.4-141.5c0,0,36.3,18.9,56.4,62.6c0,0,27.7-5,38.6-22.7c0,0-19.5-37.1-43.6-57.6c-24.1-20.5-65.1-40.6-65.1-40.6
		l-16.1-18.1l-47.4,4.8c0,0-17.7,17.3-22.1,22.9C248.2,469.4,201.7,502.3,144.3,502.4z"/>
	<path class="st1" d="M272.7,450.1l-2,18.5c0,0,4,14.1,8,21.3c0,0,21.7-12,30.1-18.9c0,0,8-11.2,9.6-24.9
		C320.1,432.5,272.7,450.1,272.7,450.1z"/>
	<path class="st1" d="M144.9,515c0,0-4.1-11.5-14.6-15.1c0,0-14.3-25.1-22-20.2c-7.7,4.9,2.9,28.8,2.9,28.8s-30.8,4.8-33.3,9.2
		c-2.5,4.4,0.8,9.5,0.8,9.5s-8.7,7.2,1.9,12.8c0,0-6.4,7,5.6,12.1c0,0-6.9,11.3,9.5,12.1c16.4,0.8,50.6-10.6,55.5-24.9L144.9,515z"
		/>
	<path class="st2" d="M269.5,466.2c0,0,5.1,17.9,9.2,23.7c0,0,19.7-11.4,30.1-18.9c0,0-23.3,39.1-38.8,54.1
		C270,525.1,260.9,489.2,269.5,466.2z"/>
	<path class="st3" d="M269.5,466.2c0,0,13.6,11.8,39.4,4.8c0,0,10.4-19.9,12.9-28.7c2.4-8.8-51.4,4.2-51.4,4.2
		S271.1,454.7,269.5,466.2z"/>
	<path class="st1" d="M412.4,578.6c0,0-16.9,18.5-10.8,31.3c6,12.9,13.7,20.5,21.7,18.9c8-1.6,11.6-8.8,11.6-8.8s19.3-2.8,22.9-16.9
		c3.6-14.1-6.7-38.5-18.4-39.3L412.4,578.6z"/>
	<path class="st0" d="M394.3,642.9c0,0-1.2-20.9,5.2-27.3c6.4-6.4,14.1-13.7,18.5-8c4.4,5.6-5.6,11.2-8.4,19.3c-2.8,8-1.2,12-1.2,12
		L394.3,642.9z"/>
	<path class="st0" d="M458.5,603.1c0,0,10.1,6.4,9.7,18.1l11.6-3.6c0,0-5.4-20.3-20.1-27.3L458.5,603.1z"/>
	<path class="st0" d="M376,653c0,0,14.2-6.7,28.9-11.1c12.1-3.6,73.7-25.1,90.5-29.4c0,0,23.3,41.5,35.9,87.6
		c0,0-57.3,26.6-93.9,37.5c0,0-30.1,5.2-45.1,5.2C392.3,742.8,379.9,689,376,653z"/>
	<g>
		<path class="st4" d="M506.8,691.5c-0.6,1.2-1.5,2.1-2.8,2.5l-51.3,18.2c-0.5,0.2-1.1,0.3-1.6,0.3c-2,0-3.8-1.2-4.5-3.1l-20-53
			c-0.5-1.2-0.4-2.6,0.1-3.8c0.5-1.2,1.5-2.1,2.8-2.5l51.3-18.2c2.5-0.9,5.2,0.4,6.2,2.9l20,53C507.4,688.9,507.3,690.3,506.8,691.5
			z"/>
		<path d="M451.1,714.5c-2.9,0-5.5-1.8-6.5-4.5l-20-53c-0.7-1.7-0.6-3.7,0.2-5.4c0.8-1.7,2.2-3,4-3.6l51.3-18.2
			c3.5-1.2,7.5,0.7,8.8,4.1l20,53c0.7,1.7,0.6,3.7-0.2,5.4c-0.8,1.7-2.2,3-4,3.6l-51.3,18.2C452.6,714.4,451.9,714.5,451.1,714.5z
			 M482.4,633.6c-0.3,0-0.6,0.1-0.9,0.2l-51.3,18.2c-0.7,0.3-1.3,0.8-1.6,1.4c-0.3,0.7-0.3,1.5-0.1,2.1l20,53
			c0.5,1.4,2.2,2.1,3.5,1.6l51.3-18.2c0.7-0.3,1.3-0.8,1.6-1.4c0.3-0.7,0.3-1.4,0.1-2.1l-20-53.1
			C484.6,634.3,483.5,633.6,482.4,633.6z"/>
	</g>
	<g>
		<path class="st0" d="M278.3,539.2c0,2.5-2,4.5-4.5,4.5c-2.5,0-4.5-2-4.5-4.5c0-2.5,2-4.5,4.5-4.5
			C276.3,534.7,278.3,536.7,278.3,539.2z"/>
		<path d="M273.8,545.3c-3.4,0-6.1-2.7-6.1-6.1c0-3.4,2.7-6.1,6.1-6.1c3.4,0,6.1,2.7,6.1,6.1C279.9,542.5,277.2,545.3,273.8,545.3z
			 M273.8,536.3c-1.6,0-2.9,1.3-2.9,2.9c0,1.6,1.3,2.9,2.9,2.9c1.6,0,2.9-1.3,2.9-2.9C276.7,537.6,275.4,536.3,273.8,536.3z"/>
	</g>
	<g>
		<path class="st0" d="M273.5,571.1c0,2.5-2,4.5-4.5,4.5c-2.5,0-4.5-2-4.5-4.5c0-2.5,2-4.5,4.5-4.5
			C271.5,566.6,273.5,568.6,273.5,571.1z"/>
		<path d="M269,577.3c-3.4,0-6.1-2.7-6.1-6.1c0-3.4,2.7-6.1,6.1-6.1c3.4,0,6.1,2.7,6.1,6.1C275.1,574.5,272.3,577.3,269,577.3z
			 M269,568.2c-1.6,0-2.9,1.3-2.9,2.9c0,1.6,1.3,2.9,2.9,2.9c1.6,0,2.9-1.3,2.9-2.9C271.9,569.5,270.6,568.2,269,568.2z"/>
	</g>
	<g>
		<path class="st0" d="M270.3,605.2c0,2.5-2,4.5-4.5,4.5c-2.5,0-4.5-2-4.5-4.5c0-2.5,2-4.5,4.5-4.5
			C268.2,600.7,270.3,602.7,270.3,605.2z"/>
		<path d="M265.7,611.3c-3.4,0-6.1-2.7-6.1-6.1c0-3.4,2.7-6.1,6.1-6.1c3.4,0,6.1,2.7,6.1,6.1C271.9,608.5,269.1,611.3,265.7,611.3z
			 M265.7,602.3c-1.6,0-2.9,1.3-2.9,2.9c0,1.6,1.3,2.9,2.9,2.9c1.6,0,2.9-1.3,2.9-2.9C268.7,603.6,267.4,602.3,265.7,602.3z"/>
	</g>
	<path d="M261.5,528.8c-0.7,0-1.4-0.4-1.7-1c-10.1-17.8-13.7-39.5-13.9-40.4c-0.1-0.6,0.1-1.1,0.4-1.6c0.4-0.4,0.9-0.7,1.5-0.7
		l5.5-0.2l-5.3-6.1c-0.5-0.6-0.6-1.4-0.3-2.1c2-4.4,9.4-18,9.7-18.6c0.5-1,1.7-1.3,2.7-0.8c1,0.5,1.3,1.7,0.8,2.7
		c-0.1,0.1-6.5,12-9,17.2l7.2,8.2c0.5,0.6,0.6,1.4,0.3,2.1c-0.3,0.7-1,1.2-1.8,1.2l-7.3,0.3c1.2,6,5.1,22.9,13,36.9
		c0.5,1,0.2,2.2-0.8,2.7C262.2,528.8,261.8,528.8,261.5,528.8z"/>
	<path d="M278.3,529.2c-0.7,0-1.4-0.4-1.8-1.1c-0.5-1-0.1-2.2,0.8-2.7c0.3-0.2,30.4-16.1,52.1-28c-5-4.5-12.5-11.2-14.9-12.8
		c-0.8-0.5-1.1-1.5-0.8-2.3c0.3-0.9,1.1-1.4,2-1.3c0.1,0,8.9,0.7,15.6,0.8c0.1-4.2,0.1-14.1-0.8-20.2c-0.2-1.1,0.6-2.1,1.7-2.3
		c1.1-0.2,2.1,0.6,2.3,1.7c1.2,8.1,0.8,22.2,0.8,22.8c0,1.1-0.9,2-2,2c-3.5,0-7.9-0.2-11.4-0.4c5.2,4.4,12,10.6,12.4,11
		c0.5,0.4,0.7,1.1,0.6,1.7c-0.1,0.6-0.5,1.2-1,1.5c-21.8,11.9-54.3,29.2-54.6,29.3C279,529.2,278.7,529.2,278.3,529.2z"/>
	<path d="M278.9,492.8c-0.7,0-1.4-0.3-1.8-1c-7.8-11.1-9.2-25.4-9.3-26c-0.1-1.2,0.8-2.3,2-2.5c1.2-0.1,2.3,0.8,2.5,2
		c0,0.1,1.3,12.3,7.3,22.1c4.8-2.8,17.8-10.7,28.4-18.4c1-0.7,2.4-0.5,3.1,0.5c0.7,1,0.5,2.4-0.5,3.1c-13.3,9.6-30.4,19.6-30.6,19.7
		C279.7,492.7,279.3,492.8,278.9,492.8z"/>
	<path d="M281.9,502.4c-0.1,0-0.2,0-0.2,0c-3.8-0.5-9.7-1.6-9.7-1.6c-0.4-0.1-0.7-0.3-0.9-0.6c-2.8-3.4-5.9-14.7-6.3-16
		c-0.2-0.9,0.3-1.7,1.1-2c0.8-0.2,1.7,0.3,2,1.1c0.8,3.1,3.3,11.4,5.3,14.3c1.5,0.3,5.4,1,8.3,1.4c1.8-1.2,7.8-5.3,14.3-10.2
		c0.7-0.5,1.7-0.4,2.2,0.3c0.5,0.7,0.4,1.7-0.3,2.2c-7.8,5.8-14.9,10.6-15,10.6C282.5,502.4,282.2,502.4,281.9,502.4z"/>
	<path d="M271.6,500.5c-0.3,0-0.7-0.1-1-0.3c-0.7-0.5-0.9-1.5-0.3-2.2c0.2-0.2,4.2-5.6,8.7-8.7c0.7-0.5,1.7-0.3,2.2,0.4
		c0.5,0.7,0.3,1.7-0.4,2.2c-4.1,2.8-7.9,7.9-7.9,7.9C272.6,500.2,272.1,500.5,271.6,500.5z"/>
	<path class="st0" d="M489.1,671.8l-12.8,4.5l5,13.2l-14.4,5.1l-5-13.2l-12.8,4.5l-5.6-14.8l12.8-4.5l-5-13.2l14.4-5.1l5,13.2
		l12.8-4.5L489.1,671.8z"/>
	<path d="M271.1,469.2c-0.1,0-0.3,0-0.4,0c-1.9-0.2-3.3-2-3.1-3.9c1-8.6,0-18.9,0-19c-0.2-1.9,1.2-3.7,3.2-3.9
		c2-0.2,3.7,1.2,3.9,3.2c0,0.5,1.1,11.2,0,20.6C274.4,467.9,272.9,469.2,271.1,469.2z"/>
	<path d="M155,554c-0.1,0-0.2,0-0.2,0c-1.3,0-2.4-0.8-2.9-2c-7.6-17.9-11.1-47.4-11.2-48.6c-0.1-0.9,0.2-1.8,0.8-2.5
		c0.6-0.7,1.5-1.1,2.4-1.1c0.2,0,0.5,0,0.7,0c59.3,0,102.2-33.2,102.6-33.5c1.4-1.1,3.4-0.9,4.5,0.5c1.1,1.4,0.9,3.4-0.5,4.5
		c-1.8,1.4-43.7,33.8-103.6,34.9c1.1,8,4.2,27.7,9.5,41.3c9.3-0.3,46.8-2.7,73.8-21.9c1.4-1,3.5-0.7,4.5,0.8c1,1.4,0.7,3.5-0.8,4.5
		C202.6,553.5,158.7,554,155,554z"/>
	<path d="M404.4,582.8c-1.2,0-2.3-0.7-2.9-1.8c-0.3-0.5-26.5-52.3-63.8-63.6c-1.7-0.5-2.7-2.3-2.1-4c0.5-1.7,2.3-2.7,4-2.1
		c36.1,10.9,61.4,54.9,66.7,64.9c14.4-1.8,28.2-13.9,32.8-18.3c-3.7-6.9-17.6-30.3-44.2-55.6c-26.6-25.3-61.2-38.8-61.6-39
		c-0.6-0.2-1.1-0.6-1.4-1.1c-2.5-3.3-10.2-10.4-13-12.9c-1.3-1.2-1.4-3.2-0.3-4.5c1.2-1.3,3.2-1.4,4.5-0.3
		c0.4,0.4,9.4,8.4,13.2,13.1c5.7,2.3,37.3,15.6,62.9,40c32.5,30.9,46.1,58.3,46.6,59.5c0.6,1.2,0.4,2.6-0.5,3.6
		c-0.8,0.9-19.9,21-40.7,22.1C404.5,582.8,404.4,582.8,404.4,582.8z"/>
	<path d="M303.9,665.6c-58.4,0-93.4-16-95.2-16.9c-1.2-0.6-2-1.9-1.8-3.3c5.3-47.9,31.1-149.9,31.4-150.9c0.4-1.7,2.2-2.8,3.9-2.3
		c1.7,0.4,2.8,2.2,2.3,3.9c-0.3,1-25.1,99.3-31,147.7c10.8,4.4,62.4,22.9,138.5,11.8c-1-15.1-5.6-84.8-8.1-135.1
		c-0.1-1.8,1.3-3.3,3-3.4c1.8-0.1,3.3,1.3,3.4,3c2.9,56.4,8.3,137.2,8.3,138c0.1,1.7-1.1,3.1-2.7,3.4
		C337,664.4,319.6,665.6,303.9,665.6z"/>
	<path d="M143.7,516.1c-1.3,0-2.4-0.8-2.8-2.1l0,0c-0.1-0.4-2.8-9.8-10.9-10c-1,0-1.9-0.5-2.4-1.4c-7.4-12.2-15.5-20-17.2-19.1
		c-0.6,0.3-1.3,0.9-1.7,2.4c-1.1,4.7,2.4,14.5,8.4,23.2c0.9,1.3,0.6,3.1-0.7,4c-1.3,0.9-3.1,0.6-4-0.7c-5.5-7.9-11.2-20-9.3-27.8
		c0.7-2.8,2.3-4.9,4.6-6.1c7.6-4.1,18.8,11.7,24,20c11.1,1.3,14.6,13.6,14.8,14.2c0.4,1.5-0.5,3.1-2,3.5
		C144.2,516,144,516.1,143.7,516.1z"/>
	<path d="M88.8,530.9c-5,0-9.6-0.8-12.6-3c-2-1.5-3.1-3.5-3.2-5.9c-0.5-9.1,13.7-12,31.6-15.7l5.2-1.1c1.6-0.3,3.1,0.7,3.4,2.2
		c0.3,1.6-0.7,3.1-2.2,3.4l-5.2,1.1c-11.5,2.4-27.2,5.6-27,9.7c0,0.7,0.3,1.2,0.9,1.6c2.5,1.9,10.2,3,24.2,0
		c1.6-0.3,3.1,0.7,3.4,2.2c0.3,1.6-0.7,3.1-2.2,3.4C100.8,529.8,94.6,530.9,88.8,530.9z"/>
	<path d="M88.2,543.2c-11.4,0-14.4-4.5-15.1-7.1c-1.3-4.4,1.7-9.4,7-11.3c1.5-0.5,3.2,0.2,3.7,1.7c0.5,1.5-0.2,3.2-1.7,3.7
		c-2.4,0.9-3.8,2.9-3.4,4.2c0.6,1.8,6.4,5.5,26.8,0.4c1.5-0.4,3.1,0.6,3.5,2.1c0.4,1.5-0.6,3.1-2.1,3.5
		C98.9,542.4,92.9,543.2,88.2,543.2z"/>
	<path d="M91.5,554.5c-7.7,0-11.2-2.4-12.7-5c-1.8-3.1-1-7.3,2.1-10.5c1.1-1.1,2.9-1.2,4.1-0.1c1.1,1.1,1.2,2.9,0.1,4.1
		c-1,1.1-1.8,2.6-1.3,3.6c1.1,1.9,7.4,3.9,24.1-0.5c1.5-0.4,3.1,0.5,3.5,2.1c0.4,1.5-0.5,3.1-2.1,3.5
		C101.7,553.8,95.9,554.5,91.5,554.5z"/>
	<path d="M101,565.6c-6.6,0-12.5-1.4-15.5-5c-2-2.5-2.3-5.7-0.7-9.1c0.7-1.5,2.4-2.1,3.8-1.4c1.4,0.7,2.1,2.4,1.4,3.8
		c-0.9,1.9-0.3,2.7,0,3c2.1,2.7,11.1,4.1,23.4,1.4c19.8-4.3,30.5-10.7,33.7-20.2c0.5-1.5,2.1-2.3,3.7-1.8c1.5,0.5,2.3,2.1,1.8,3.7
		c-5.1,15.3-24.1,21.1-37.9,24.1C110.3,565,105.5,565.6,101,565.6z"/>
	<path d="M250.1,473.7l-5.4-4.6c0,0,10.1-11.7,18.9-21.7c1.3-1.5,3.5-1.6,5-0.3c1.5,1.3,1.6,3.5,0.3,5
		C260.1,462.1,250.1,473.7,250.1,473.7z"/>
	<path d="M250.8,657.8c-0.1,0-0.1,0-0.2,0c-1.3-0.1-2.3-1.3-2.2-2.6c5.7-69.2,11-109.5,13.2-119.7c1.1-4.9,7.6-13.3,16.7-24.8
		c13.1-16.6,31.1-39.4,38.8-61c0.4-1.3,1.8-1.9,3.1-1.5c1.3,0.4,1.9,1.8,1.5,3.1c-8,22.4-26.2,45.5-39.5,62.4
		c-8,10.2-15,19-15.8,22.8c-2.2,10.1-7.4,50.1-13.1,119.1C253.1,656.9,252,657.8,250.8,657.8z"/>
	<path d="M269.5,527.2c-1.1,0-2.1-0.8-2.4-2c-6-31.4-1.8-61.4-1.6-62.7c0.2-1.3,1.4-2.2,2.7-2c1.3,0.2,2.2,1.4,2,2.7
		c0,0.3-4.3,30.5,1.6,61.1c0.2,1.3-0.6,2.6-1.9,2.8C269.8,527.2,269.7,527.2,269.5,527.2z"/>
	<path d="M401.1,612c-1.3,0-2.6-0.8-3-2.2c-5.4-15.8,10.1-31.6,10.8-32.2c1.3-1.3,3.3-1.3,4.5,0c1.3,1.3,1.3,3.3,0,4.5
		c-0.1,0.1-13.4,13.6-9.3,25.6c0.6,1.7-0.3,3.5-2,4.1C401.8,611.9,401.5,612,401.1,612z"/>
	<path d="M422.6,631.1c-6.9,0-11.6-4.4-11.8-4.6c-1.2-1.1-1.2-2.9-0.1-4.1c1.1-1.2,2.9-1.2,4.1-0.1c0.2,0.2,5.2,4.8,11.8,2.3
		c6.4-2.4,6.2-9.6,6.2-9.6c-0.1-1.6,1.2-2.9,2.8-3c1.6,0,2.9,1.2,3,2.8c0,0.5,0.4,11.4-9.9,15.3
		C426.5,630.7,424.5,631.1,422.6,631.1z"/>
	<path d="M436.1,624c-1.5,0-2.8-1.1-3.1-2.6c-0.3-1.7,0.8-3.4,2.5-3.8c2.1-0.4,16.6-5.4,19.2-15c2.9-10.4-5.2-30.7-16.6-35.9
		c-1.6-0.7-2.3-2.6-1.6-4.3c0.7-1.6,2.6-2.3,4.3-1.6c14.7,6.7,23.8,30.1,20.1,43.5c-4,14.4-24,19.5-24.2,19.6
		C436.5,624,436.3,624,436.1,624z"/>
	<path d="M395.5,645.4c-1.4,0-2.6-1-2.8-2.4c-3.6-18.8,6.3-35.3,14.7-40c3.7-2.1,7.3-1.9,9.8,0.4c6.6,6.1,2.5,11.3-0.8,15.5
		c-3.3,4.2-7,9-5.6,17.1c0.3,1.6-0.8,3.1-2.3,3.4c-1.6,0.3-3.1-0.8-3.4-2.3c-1.9-10.6,3.1-17,6.7-21.6c3.7-4.7,3.8-5.5,1.4-7.7
		c-0.8-0.7-2.4,0.1-3,0.4c-6.8,3.7-14.9,17.9-11.8,33.8c0.3,1.6-0.7,3.1-2.3,3.4C395.9,645.4,395.7,645.4,395.5,645.4z"/>
	<path d="M468.6,622.3c-1.3,0-2.5-0.9-2.8-2.2c-2.3-9.4-7.8-13.2-8-13.4c-1.3-0.9-1.7-2.7-0.8-4c0.9-1.3,2.7-1.7,4-0.8
		c0.3,0.2,7.6,5.1,10.5,16.8c0.4,1.6-0.6,3.1-2.1,3.5C469,622.3,468.8,622.3,468.6,622.3z"/>
	<path d="M479.4,618.5c-1.3,0-2.5-0.9-2.8-2.2c-2.9-10.9-13.6-22.3-17.7-22.3c0,0,0,0,0,0l0,0c-1.6,0-2.9-1.3-2.9-2.9
		c0-1.6,1.3-2.9,2.9-2.9c0,0,0,0,0,0c8.2,0,20.3,15.3,23.3,26.7c0.4,1.5-0.5,3.1-2.1,3.5C479.9,618.4,479.7,618.5,479.4,618.5z"/>
	<path d="M392.5,746c0,0-0.2,0-0.2,0c-1.5,0-2.8-1-3.1-2.5c-0.1-0.5-12.5-54.5-16.4-90.2c-0.2-1.4,0.6-2.7,1.8-3.3
		c0.6-0.3,14.6-6.9,29.4-11.3c4.3-1.3,15.1-4.9,27.6-9.1c23.2-7.8,52.1-17.5,63-20.3c1.4-0.4,2.9,0.3,3.6,1.5
		c0.2,0.4,23.6,42.4,36.2,88.4c0.4,1.5-0.3,3.1-1.7,3.8c-0.6,0.3-57.9,26.8-94.3,37.7c-0.1,0-0.2,0.1-0.4,0.1
		C436.7,741,407.7,746,392.5,746z M379.5,655c3.6,30.8,13,73.8,15.4,84.6c14.5-0.5,39.4-4.6,41.8-5c31.7-9.5,79.5-31,90.8-36.2
		c-10.8-38.3-28.9-73.2-33.7-82.1c-12.1,3.4-38.6,12.3-60.2,19.5c-12.6,4.2-23.4,7.9-27.8,9.2C394.8,648.3,383.9,653,379.5,655z"/>
	<path d="M434,738.7c-0.9,0-1.8-0.6-2.1-1.6c-12.8-39.5-30.4-92.6-30.6-93.2c-0.4-1.2,0.2-2.5,1.4-2.8c1.2-0.4,2.5,0.3,2.8,1.4
		c0.2,0.5,17.7,53.6,30.6,93.2c0.4,1.2-0.3,2.5-1.4,2.8C434.5,738.7,434.3,738.7,434,738.7z"/>
	<path d="M421.1,617.6c-1.3,0-2.3-1-2.4-2.3c-0.1-1.4-0.8-5.5-3.3-7.3c-1.1-0.8-1.3-2.3-0.5-3.4c0.8-1.1,2.3-1.3,3.4-0.5
		c4.8,3.6,5.2,10.6,5.2,10.9c0.1,1.3-0.9,2.5-2.3,2.5C421.2,617.6,421.2,617.6,421.1,617.6z"/>
	<path d="M239,576.9c-0.6,0-1,0-1.1,0c-2.4-0.3-4.1-2.4-3.9-4.8c0.2-2.3,2-4,4.1-4.1c0,0,0.7,0,0.9,0c1.4,0,4.6-0.5,6.7-3.6
		c4.7-7,9.8-32.5,10.7-53.5c0.1-2.3,1.9-4.2,4.1-4.3c2.7,0.3,4.5,2.2,4.4,4.7c-1,22.8-6.7,50-12.3,58.3c-4.3,6.5-10.8,7.4-13.4,7.4
		L239,576.9z"/>
	<path d="M251,568.3c-4.7,7-12.1,6.6-13,6.5l0,0l-0.1,0c-1.2-0.2-2.1-1.3-1.9-2.6c0.1-1.3,1.2-2.3,2.4-2.2c0.1,0,5.6,0.4,8.9-4.5
		c4.8-7.3,10.2-33.3,11.1-54.6c0.1-1.3,1.1-2.3,2.3-2.3c1.2,0.1,2.2,1.2,2.1,2.5C262,533.6,256.4,560.2,251,568.3z"/>
	<path d="M251.4,463.4c0,0,6-11.7,19.4-11.7c0,0,1.7,7.4-2,7.5c-4.9,0.1-9.9,4.4-11.6,7.6L251.4,463.4z"/>
	<path d="M319.1,547.6c-0.4,0-0.8-0.1-1.2-0.2c-2.1-0.7-3.3-2.9-2.6-5.1c14.4-44.9,15.7-80.3,8.6-88.6c-1.4-1.7-1.2-4.2,0.4-5.7
		c1.7-1.4,4.2-1.2,5.7,0.4c12,14,5.1,58.4-7,96.3C322.4,546.5,320.8,547.6,319.1,547.6z"/>
	<path class="st0" d="M330.8,481.9c0,0-3.5,29.3-11.2,55.6l1.5-0.4C321.1,537.1,332,497.1,330.8,481.9z"/>
	<g>
		<path class="st5" d="M325.3,557c-2.3,7.7-9.6,12-16.4,9.5c-6.8-2.4-10.4-10.6-8.2-18.3c2.3-7.7,9.6-12,16.4-9.5
			C323.9,541.1,327.6,549.3,325.3,557z"/>
		<path d="M312.8,569.8c-1.6,0-3.2-0.3-4.7-0.8c-8-2.9-12.4-12.5-9.8-21.5c2.1-7.2,8.1-12.1,15-12.1c1.6,0,3.2,0.3,4.8,0.8
			c8,2.9,12.4,12.5,9.8,21.5C325.6,564.9,319.6,569.8,312.8,569.8z M313.3,540.6c-4.5,0-8.6,3.4-10,8.4c-1.9,6.4,1,13.2,6.6,15.2
			c1,0.3,2,0.5,3,0.5c4.5,0,8.6-3.4,10-8.4c1.9-6.4-1.1-13.2-6.6-15.2C315.3,540.7,314.3,540.6,313.3,540.6z"/>
	</g>
	<path d="M324.5,556.1c-1.7,5.8-7.2,9-12.3,7.2c-5.1-1.8-7.8-8-6.1-13.7c1.7-5.8,7.2-9,12.3-7.2
		C323.5,544.1,326.2,550.3,324.5,556.1z"/>
	<g>
		<path class="st0" d="M337.1,557.8c-2.6,8.2-11,12.8-18.8,10.2c-7.8-2.6-11.9-11.4-9.3-19.6c2.6-8.2,11-12.8,18.8-10.2
			C335.5,540.8,339.7,549.6,337.1,557.8z"/>
		<path d="M322.8,571.5c-1.8,0-3.6-0.3-5.3-0.9c-9.2-3.1-14.1-13.4-11.1-23c2.4-7.7,9.2-12.9,17-12.9c1.8,0,3.6,0.3,5.3,0.9
			c9.2,3.1,14.1,13.4,11.1,23C337.3,566.3,330.5,571.5,322.8,571.5z M323.3,540.3c-5.3,0-10,3.6-11.7,9c-2.1,6.8,1.3,14,7.6,16.1
			c1.2,0.4,2.4,0.6,3.6,0.6c5.3,0,10-3.6,11.7-9c2.1-6.8-1.3-14-7.6-16.1C325.7,540.5,324.5,540.3,323.3,540.3z"/>
	</g>
	<g>
		<path class="st6" d="M330.4,555.6c-1.2,3.9-5.2,6.1-8.9,4.8c-3.7-1.2-5.7-5.4-4.4-9.3c1.2-3.9,5.2-6.1,8.9-4.8
			C329.7,547.5,331.6,551.7,330.4,555.6z"/>
		<path d="M323.6,561.8c-0.8,0-1.6-0.1-2.4-0.4c-4.2-1.4-6.5-6.1-5.1-10.6c1.1-3.5,4.2-5.9,7.8-5.9c0.8,0,1.6,0.1,2.4,0.4
			c4.2,1.4,6.5,6.2,5.1,10.6C330.3,559.4,327.2,561.8,323.6,561.8z M323.9,547c-2.6,0-5,1.8-5.8,4.5c-1.1,3.3,0.6,6.9,3.8,8
			c3.1,1,6.5-0.9,7.6-4.1c1.1-3.4-0.6-6.9-3.8-8C325.1,547.1,324.5,547,323.9,547z"/>
	</g>
	<path class="st0" d="M321.1,537.1c0,0-3.4-0.4-7.2,2.5c-3.2,2.5-4.8,6.2-5,7.3c0,0,2.7-4.7,5.3-6.7
		C317.7,537.6,321.1,537.1,321.1,537.1z"/>
	<g>
		<path class="st0" d="M240.6,572.7c-0.1,2.4-2.1,4.3-4.4,4.1l-2.1-0.1c-0.2,0-0.3-0.1-0.5-0.1c-1,0.8-2.2,1.3-3.5,1.2l-0.5,0
			c-2.9-0.2-5.1-2.8-4.9-5.8c0.2-3,2.7-5.4,5.5-5.2l0.5,0c1.2,0.1,2.2,0.6,3.1,1.3c0.3,0,0.6-0.1,0.9-0.1l2.1,0.1
			C239.1,568.2,240.8,570.3,240.6,572.7z"/>
		<path d="M230.4,579.9l-0.9,0c-4-0.3-7.1-3.9-6.8-8.1c0.2-4,3.4-7.1,7.3-7.1l0.9,0c1.2,0.1,2.4,0.5,3.5,1.2c0.1,0,0.1,0,0.2,0
			l2.4,0.1c3.4,0.2,6,3.3,5.8,6.8c-0.2,3.4-2.9,6.1-6.2,6.1l-2.4-0.1C232.9,579.5,231.7,579.9,230.4,579.9z M230.1,568.8
			c-1.8,0-3.2,1.4-3.3,3.2c-0.1,1.9,1.2,3.5,2.9,3.6l0.4,0l0.2,2.1v-2.1c0.8,0,1.5-0.4,1.9-0.7l0.8-0.7l1.5,0.4l1.9,0.1c0,0,0,0,0,0
			c1.2,0,2.1-1,2.2-2.2c0.1-1.3-0.8-2.4-1.9-2.4l-2.1-0.1l-1.4,0.3l-0.7-0.7c-0.4-0.3-1-0.7-1.8-0.8L230.1,568.8
			C230.1,568.8,230.1,568.8,230.1,568.8z"/>
	</g>
	<path d="M261,513.2c-0.1,0-0.3,0-0.4,0c-2.3-0.2-4-2.3-3.7-4.6c1.9-18.2-7-19.2-10.3-19.6c-10.4-1.2-15.1,10.2-16.2,17.1
		c-0.4,2.3-2.6,3.8-4.8,3.5c-2.3-0.4-3.8-2.5-3.5-4.8c2.1-12.7,10.9-25.7,25.4-24c7.6,0.9,20.1,5.8,17.7,28.8
		C264.9,511.6,263.1,513.2,261,513.2z"/>
	<path d="M256.5,491.6c-0.2,0-0.4,0-0.6,0c-1.9-0.3-3.2-2.1-2.9-4c0.9-6,1.2-16.1-1-18.8c-0.2-0.3-0.4-0.3-0.6-0.3h0
		c-2.5,0-7.4,8.3-10.1,17c-0.6,1.9-2.5,2.9-4.4,2.3c-1.9-0.6-2.9-2.6-2.3-4.4c1.6-5.2,7.5-22,16.8-22c0,0,0,0,0,0
		c2.3,0,4.4,1,5.9,2.8c5.2,6.1,3.1,21.5,2.6,24.5C259.7,490.4,258.2,491.6,256.5,491.6z"/>
	<g>
		<path d="M233.1,572.7c-1.1,0-2.2,0-3.4-0.2c-4-0.5-13.6-2.6-15.8-12.4c-2.6-11.7,3.2-35.6,7-51l0.5-2.2c0.5-1.9,2.1-3.3,4-3.4
			c0.2,0,0.4,0,0.6,0c0.1,0,0.4,0.1,0.5,0.1c1.1,0.3,2.1,1,2.6,2.1c0.6,1,0.7,2.2,0.5,3.4l-0.5,2.1c-3.5,14.6-9,37.3-6.9,46.8
			c1,4.5,6.7,5.4,8.5,5.6c0.8,0.1,1.5,0.1,2.3,0.1c0.8,0,1.4-0.1,2-0.2c0.1,0,0.5,0,0.5,0c0.2,0,0.4,0,0.6,0
			c1.9,0.2,3.5,1.8,3.8,3.8c0.3,2.4-1.3,4.7-3.6,5c-0.8,0.1-1.7,0.2-2.5,0.2L233.1,572.7z"/>
		<path d="M235.7,570.3c-1.8,0.3-3.8,0.3-5.8,0.1c-3.6-0.4-12.2-2.3-14.1-10.8c-2.5-11.1,3.2-34.8,7-50l0.5-2.2
			c0.3-1.2,1.5-2,2.7-1.7c1.2,0.3,1.9,1.6,1.6,2.9l-0.5,2.1c-3.6,14.8-9.1,37.8-6.9,47.8c1.3,5.8,8.1,7,10.2,7.2
			c1.6,0.2,3.2,0.2,4.7-0.1c1.2-0.2,2.4,0.8,2.5,2C237.8,569,236.9,570.2,235.7,570.3z"/>
		<g>
			<path class="st0" d="M237.5,563.2l2.1-0.2c0.3,0,0.6,0.1,0.9,0.1c0.8-0.8,1.8-1.3,3-1.4l0.5,0c2.9-0.3,5.4,1.9,5.7,5
				c0.3,3-1.8,5.7-4.7,6l-0.4,0.1c-1.3,0.1-2.6-0.3-3.6-1.1c-0.2,0-0.3,0.1-0.5,0.2l-2.1,0.2c-2.3,0.2-4.3-1.5-4.5-3.9
				C233.5,565.6,235.2,563.4,237.5,563.2z"/>
			<path d="M245.1,574.9l-0.5,0c-1.4,0.1-2.9-0.2-4.2-0.9l-1.7-2.4c-3.5,0.3-6.9,0.2-7.2-3.5c-0.3-3.7,2.3-7,5.8-7.4l2.1-0.2
				c0.1,0,0.3,0,0.4,0c1-0.8,2.2-1.2,3.4-1.3l0.5,0c4.1-0.4,7.7,2.8,8.1,7.1c0.2,2.1-0.4,4.1-1.7,5.8
				C248.9,573.7,247.1,574.7,245.1,574.9z M241.4,569l0.8,0.6c0.4,0.3,1.1,0.7,2,0.6l0.4,0c0.8-0.1,1.5-0.5,2-1.1
				c0.5-0.7,0.7-1.5,0.7-2.3c-0.2-1.7-1.6-3-3.2-2.8l-0.5,0l0,0c-0.8,0.1-1.4,0.5-1.7,0.8l-0.7,0.7l-1.4-0.2l-2.1,0.2
				c-1.1,0.1-1.8,1.1-1.7,2.2c0.1,1.1,1,1.9,2.1,1.8l1.9-0.2c0.2-0.1,0.3-0.1,0.5-0.2L241.4,569z"/>
		</g>
		<g>
			<path class="st0" d="M230,569.9c-5.8-0.7-12.2-3.6-13.7-10.5c-2.4-11,3.3-34.6,7-49.8l0.5-2.1c0.3-1,1.1-1.3,2-1.1
				c1,0.3,1.7,1,1.4,2l-0.5,2.1c-3.6,14.8-9.2,37.9-6.9,48c1.4,6.5,9.9,8.4,15.4,7.5c1-0.1,1.9,0.6,2,1.6c0.1,1-0.6,2-1.5,2.1
				C234,570.1,232,570.2,230,569.9z"/>
			<path d="M232.7,570.5c-0.9,0-1.8-0.1-2.7-0.2c-3.6-0.4-12.2-2.3-14.1-10.8c-2.5-11.2,3.4-35.5,7-50l0.5-2.1
				c0.3-1.1,1.3-1.7,2.5-1.4c1.3,0.3,2,1.3,1.7,2.5l-0.5,2.1c-3.4,14.1-9.2,37.7-6.9,47.8c1.2,5.5,7.5,7.4,12.4,7.4
				c0.9,0,1.7-0.1,2.5-0.2c1.2-0.1,2.3,0.7,2.5,2c0.2,1.3-0.7,2.4-1.9,2.6C234.7,570.4,233.7,570.5,232.7,570.5z M225.2,506.8
				c-0.6,0-0.9,0.3-1,0.8l-0.5,2.1c-3.5,14.4-9.4,38.6-7,49.6c1.8,8,9.9,9.8,13.4,10.2c1.9,0.2,3.9,0.2,5.6-0.1
				c0.8-0.1,1.3-0.9,1.2-1.7c-0.1-0.8-0.8-1.4-1.6-1.3c-0.8,0.1-1.7,0.2-2.7,0.2c-5.3,0-11.9-2.1-13.2-8
				c-2.3-10.4,3.5-34.1,6.9-48.2l0.5-2.1c0.2-0.8-0.5-1.3-1.2-1.5C225.5,506.8,225.3,506.8,225.2,506.8z"/>
		</g>
	</g>
	<g>
		<path class="st0" d="M238,574.3c-1-0.1-1.6-1-1.6-2c0.1-1,1-1.8,2-1.7c0.2,0,5.9,0.4,9.3-4.7c4.9-7.3,10.2-33.5,11.2-54.9
			c0-1,1-1.4,2-1.4c0.9,0,1.7,0.5,1.6,1.5c-1,22.4-6.5,48.9-11.8,56.9C246,575,238.4,574.4,238,574.3
			C238.1,574.3,238,574.3,238,574.3z"/>
		<path d="M238.8,574.8c-0.4,0-0.6,0-0.7,0l-0.1,0c-1.1-0.1-2-1.2-1.9-2.5c0.1-1.2,1.2-2.2,2.4-2.1c0,0,0.2,0,0.4,0
			c1.3,0,5.7-0.3,8.5-4.6c4.9-7.3,10.2-33.4,11.1-54.7c0.1-1.1,0.9-1.7,2.2-1.7l0.2,0c1.3,0.1,2.1,0.8,2,1.9
			c-1,22.4-6.5,49.1-11.9,57.1C247.1,574.1,241.1,574.8,238.8,574.8z M238.1,573.9c0.1,0,0.3,0,0.6,0c2.2,0,7.9-0.6,11.6-6.2
			c5.3-7.9,10.8-34.4,11.8-56.7c0-0.3,0-1-1.3-1.1l-0.1,0c-0.6,0-1.3,0.2-1.4,1c-0.9,21.4-6.3,47.7-11.2,55.1
			c-3,4.6-7.8,4.9-9.2,4.9c-0.3,0-0.4,0-0.5,0c0,0-0.1,0-0.1,0c-0.7,0-1.3,0.6-1.4,1.4C236.8,573.1,237.3,573.8,238.1,573.9
			L238.1,573.9z"/>
	</g>
	<path class="st0" d="M226.9,496c0.4-2.1,3.5-8.6,8.5-11.4c4.8-2.8,9.5-3,10.7-2.7c0,0-6.5,1.1-10.3,3.6
		C230.3,489.1,226.9,496,226.9,496z"/>
	<path class="st0" d="M242,471c0,0,1.1-3.7,4.4-6c2.3-1.6,5.1-1.6,6.8-1C253.1,463.9,247,463.1,242,471z"/>
	<g>
		<path class="st0" d="M237.1,570.3c-1.4,1-1.7,3.6,0.5,4.5"/>
		<path d="M237.6,575.5c-0.1,0-0.2,0-0.3-0.1c-1.2-0.5-1.9-1.4-2.1-2.6c-0.2-1.2,0.4-2.5,1.4-3.3c0.4-0.3,0.9-0.2,1.1,0.2
			c0.3,0.4,0.2,0.9-0.2,1.1c-0.5,0.4-0.9,1.1-0.8,1.8c0.1,0.6,0.5,1,1.1,1.3c0.4,0.2,0.6,0.6,0.4,1
			C238.2,575.4,237.9,575.5,237.6,575.5z"/>
	</g>
	<g>
		<path class="st0" d="M235.5,565.3c1.7,0.8,2.7,3.1,0.9,4.8"/>
		<path d="M236.5,570.9c-0.2,0-0.4-0.1-0.6-0.3c-0.3-0.3-0.3-0.8,0-1.1c0.5-0.5,0.7-1,0.7-1.6c-0.1-0.7-0.7-1.5-1.4-1.8
			c-0.4-0.2-0.6-0.7-0.4-1.1c0.2-0.4,0.7-0.6,1.1-0.4c1.2,0.6,2.1,1.8,2.3,3.1c0.2,1.1-0.3,2.2-1.2,3
			C236.9,570.8,236.7,570.9,236.5,570.9z"/>
	</g>
	<g>
		<path class="st0" d="M240.8,570c0,0,5-1.2,6.5-4.7"/>
		<path d="M240.8,570.7c-0.3,0-0.6-0.2-0.7-0.5c-0.1-0.4,0.1-0.7,0.5-0.8c0,0,4.7-1.2,6.1-4.3c0.2-0.3,0.6-0.5,0.9-0.3
			c0.3,0.2,0.5,0.6,0.3,0.9c-1.6,3.7-6.8,5-7,5.1C240.9,570.7,240.9,570.7,240.8,570.7z"/>
	</g>
	<path class="st3" d="M116.6,518.7c-0.3,3.3,2.3,9.3,7,11.8c4.6,2.5,11.9,1.1,13.9,0c0,0-8-0.3-12.4-2.8
		C119.8,524.7,116.6,518.7,116.6,518.7z"/>
	<path class="st1" d="M178.2,256.5c0,0-13.2-19-25.3-11c-12.1,8-16.3,38.8-8.7,68.2c7.6,29.4,26,36.9,36.8,35.5
		C181,349.1,176.3,282.8,178.2,256.5z"/>
	<path class="st7" d="M175.5,275.3c0,0-8.6-15.5-16.7-11.4c-8.1,4.1-3.5,37.3,0.9,47.7c4.3,10.4,8.8,18.5,16.8,15.9L175.5,275.3z"/>
	<path class="st1" d="M421.2,271.4c0,0,16.2-17.4,28.3-8.2c12.1,9.3,13.2,40.3,1.9,68.7c-11.3,28.4-31.8,33.9-43.2,31.3
		C408.2,363.3,420.4,297.8,421.2,271.4z"/>
	<path class="st7" d="M422.1,290.5c0,0,10.8-14.4,19.1-9.5c8.2,4.9-0.4,37.5-6.1,47.3c-5.7,9.8-11.4,17.4-19.7,14L422.1,290.5z"/>
	<path d="M177.6,353.6c-14.1,0-28.5-15.1-34.9-37c-6.1-21.1-10-66,8.6-74.1c4.3-1.9,8.6-1.9,12.7-0.1c10.2,4.4,15.6,19.1,15.8,19.7
		c0.6,1.8-0.3,3.8-2.1,4.4c-1.8,0.6-3.8-0.3-4.4-2.1c-1.2-3.5-5.8-13-12-15.7c-2.3-1-4.6-0.9-7.1,0.1c-12.2,5.3-11.3,43-4.7,65.8
		c6.4,22.2,20.1,33,29.6,31.9c1.9-0.2,3.6,1.2,3.9,3.1c0.2,1.9-1.2,3.6-3.1,3.9C179.1,353.6,178.4,353.6,177.6,353.6z"/>
	<path d="M413.9,368.2c-1.6,0-3.1-0.2-4.6-0.5c-1.9-0.4-3.1-2.2-2.7-4.1c0.4-1.9,2.2-3.1,4.1-2.7c10.3,2.2,26.2-7.1,35.5-28.6
		c14.2-32.7,10.6-61.2,2.1-65.8c-2.8-1.5-5.5-1.7-8.3-0.9c-8.3,2.6-14.4,14.2-14.4,14.3c-0.9,1.7-3,2.4-4.7,1.5
		c-1.7-0.9-2.4-3-1.5-4.7c0.3-0.6,7.4-14.3,18.5-17.7c4.6-1.4,9.2-1,13.6,1.4c19,10.1,9.9,54.4,1.1,74.7
		C443.9,355.1,428.3,368.2,413.9,368.2z"/>
	<path class="st1" d="M166.2,155.9c0,0-4.4,91.4-1.2,138.7c3,43.5,13,91,33.2,113.9c20.1,22.9,44.3,37.5,64.7,44.6
		c20.5,7.2,50.6,3.7,67.3-4.1c16.7-7.8,54-29.2,69.9-60.9c15.9-31.7,31.4-144.6,26-188.6c-5.3-44-40.3-94.1-97.9-100.2
		C270.6,93.3,180.2,111.9,166.2,155.9z"/>
	<path d="M292.9,461.4c-16.3,0-34.3-2.9-47.2-10.2c-12.6-7.1-54.6-33.5-67.8-72.1c-16.6-48.8-16.1-141-14.2-206.2
		c0.1-1.9,1.8-3.5,3.6-3.4c1.9,0.1,3.4,1.7,3.4,3.6c-1.8,64.6-2.4,156.1,13.8,203.8c12.4,36.4,52.6,61.5,64.6,68.3
		c21.2,12,58.6,11,74,5c16.8-6.5,56.3-29.7,71.2-60c16.4-33.5,27.9-103.6,34.1-208.4c0.1-1.9,1.8-3.4,3.7-3.3
		c1.9,0.1,3.4,1.8,3.3,3.7c-6.2,105.7-17.9,176.7-34.8,211c-15.8,32.1-57.3,56.6-75,63.4C318,459.6,306,461.4,292.9,461.4z"/>
	<g>
		<path d="M169.1,325.7c-0.1-50.6,3-85.5,2.9-93.9c-0.2-13.3-4.2-33.3,0.3-48.2c4.5-14.9,43-52.7,76.5-51c40,2,79.5-3.5,100.3-11.6
			c0,0,11.3,17.6,26.7,36.4c14,17.1,32.7,36.7,39.4,50.7c15.6,33.1,2.5,96.6,0.4,119.5c0,0,14.3-19.2,19.2-59.8
			c0.3-2.6,10.3-6,10.9-8.3c1-4.3,1.8-8,2.2-11.1c2.9-20.1,23.4-63.7,13.4-97c-10.7-35.9-44.7-80.2-89-62.6c0,0-21.1-42.7-89.6-44.1
			c-56.1-1.1-85.1,42.7-105.8,68.3c-2.9,3.5-30.5,32.6-33.4,61c-2.9,28.4,12.9,42.7,14.5,64.4C162.3,297.4,169.1,312.1,169.1,325.7z
			"/>
		<path d="M415.4,328.1c-0.1,0-0.1,0-0.2,0c-0.2-0.1-0.3-0.3-0.3-0.5c0.4-4.2,1.1-9.7,2-16.1c3.9-28.5,10.4-76.2-2.3-103.1
			c-4.9-10.3-16.4-23.8-27.6-36.8c-3.9-4.6-8-9.3-11.7-13.8c-14-17.2-24.8-33.5-26.5-36.1c-19.1,7.4-51,11.9-83.3,11.9
			c-5.6,0-11.3-0.1-16.8-0.4c-0.7,0-1.4-0.1-2.2-0.1c-32.6,0-69.5,36.4-73.8,50.7c-3.2,10.6-2.1,23.7-1.1,35.2
			c0.4,4.6,0.8,9,0.8,12.8c0,2.6-0.2,8-0.6,15.4c-0.9,16.4-2.3,43.7-2.3,78.4l0,0l0,0c0,0.3-0.2,0.5-0.5,0.5l0,0
			c-0.3,0-0.5-0.2-0.5-0.5c0-5.1-1-10.3-2.4-18.1c-2.4-12.9-6-32.5-8.7-69.2c-0.6-8.9-3.7-16.5-6.9-24.6
			c-4.6-11.4-9.3-23.2-7.6-39.9c1.7-17.2,12.5-37.2,32.1-59.6c0.7-0.7,1.1-1.3,1.4-1.6c1.8-2.2,3.7-4.6,5.6-7.1
			c20.4-25.9,48.3-61.4,98.4-61.4c0.7,0,1.4,0,2.1,0c64.4,1.3,87.4,39.6,89.8,44c6.6-2.6,13.2-3.9,19.7-3.9
			c15.7,0,31.1,7.6,44.4,22.1c11,12,20.2,28.3,25.2,44.8c7.2,24.1-1.5,53.9-7.9,75.7c-2.5,8.6-4.7,16-5.5,21.6
			c-0.4,2.9-1.2,6.6-2.3,11.1c-0.3,1.3-2.7,2.6-5.4,4.1c-2.4,1.3-5.3,3-5.5,4.1c-4.9,40.3-19.2,59.8-19.3,60
			C415.7,328,415.6,328.1,415.4,328.1z M349,120.5c0.2,0,0.3,0.1,0.4,0.2c0.1,0.2,11.5,17.8,26.7,36.3c3.7,4.5,7.7,9.2,11.7,13.8
			c11.2,13.1,22.8,26.6,27.8,37c12.8,27.2,6.3,75,2.4,103.6c-0.7,5.4-1.4,10.2-1.8,14.1c3.4-5.4,14-24.5,18-57.9
			c0.2-1.6,3-3.2,6-4.8c2.1-1.2,4.7-2.6,4.9-3.5c1.1-4.5,1.8-8.2,2.2-11c0.8-5.7,3-13.1,5.5-21.7c6.3-21.6,15-51.2,7.9-75.1
			c-9.8-32.9-36.6-66.2-68.6-66.2c-6.5,0-13.1,1.3-19.7,3.9c-0.2,0.1-0.5,0-0.6-0.2c-0.2-0.4-21.8-42.5-89.1-43.8
			c-0.7,0-1.4,0-2.1,0c-49.6,0-77.3,35.3-97.6,61c-2,2.5-3.8,4.9-5.6,7.1c-0.3,0.3-0.8,0.9-1.4,1.7c-19.4,22.2-30.1,42.1-31.8,59
			c-1.7,16.5,3,28.1,7.5,39.4c3.3,8.1,6.3,15.8,7,24.9c2.6,36.7,6.3,56.2,8.7,69.1c0.6,3.1,1.1,5.8,1.5,8.3
			c0.2-30,1.4-53.7,2.2-68.5c0.4-7.4,0.7-12.7,0.6-15.3c0-3.8-0.4-8.2-0.8-12.8c-1-11.6-2.1-24.8,1.1-35.6
			c4.3-14.5,41.7-51.4,74.7-51.4c0.7,0,1.5,0,2.2,0.1c5.5,0.3,11.2,0.4,16.8,0.4c32.5,0,64.4-4.6,83.3-12
			C348.9,120.5,348.9,120.5,349,120.5z"/>
	</g>
	<g>
		<path d="M232.2,133.9c-16.2,5.9-22,30.3-50,32.6c-34.1,2.9-54.1-32.7-37.1-62.2c0,0,6.8,28,42.3,22.6
			C212.2,123.1,232.2,133.9,232.2,133.9z"/>
		<path d="M178.4,167.2c-14.5,0-27.3-7.3-34.4-19.5c-7.7-13.3-7.4-29.6,0.7-43.6c0.1-0.2,0.3-0.3,0.5-0.2c0.2,0,0.4,0.2,0.4,0.4
			c0,0.1,1.5,5.8,6.2,11.5c4.4,5.2,12.6,11.4,26.8,11.4h0c2.7,0,5.7-0.2,8.7-0.7c3.5-0.5,7.2-0.8,10.8-0.8c19.5,0,34.2,7.8,34.3,7.9
			c0.2,0.1,0.3,0.3,0.3,0.5c0,0.2-0.1,0.4-0.3,0.4c-6.3,2.3-11,7.5-16.1,12.9c-7.9,8.6-16.9,18.3-34.1,19.7
			C181,167.2,179.6,167.2,178.4,167.2z M145,105.6c-7.4,13.5-7.5,29-0.2,41.6c7,12.1,19.2,19,33.5,19c1.3,0,2.5-0.1,3.8-0.2
			c16.8-1.4,25.6-11,33.4-19.4c4.9-5.3,9.4-10.2,15.4-12.8c-3.6-1.7-16.5-7.3-32.9-7.3c-3.6,0-7.2,0.3-10.7,0.8
			c-3,0.5-6,0.7-8.8,0.7h0C154.3,128.1,146.6,110.3,145,105.6z"/>
	</g>
	<path class="st8" d="M278.4,125.3c0,0-21-35.5-45.3-30.3c-24.3,5.2-20.9,30.9-20.9,30.9s-0.6-21.8,21.2-25.9
		C255.3,96,278.4,125.3,278.4,125.3z"/>
	<path class="st8" d="M316.7,117.9c0,0,2.9-30.6-20.6-46.2c-18.8-12.4-44.1-3.5-48.4,0.4c0,0,26.3-10.3,44.6,1.7
		C314.1,88.2,316.7,117.9,316.7,117.9z"/>
	<path class="st8" d="M155.1,135.1c0,0,2.5,23.9,32.5,19.7C187.6,154.8,165.6,156.6,155.1,135.1z"/>
	<path class="st9" d="M259.6,230.8c11.4,6.6,19.9,16.7,18.6,31.2c-1.1,12.9-16.4,20.2-26.2,23.5c0,0,15-9.6,14-23.7
		c-0.8-11.8-17.4-24.8-32.3-31.2C233.7,230.6,247.2,223.6,259.6,230.8z"/>
	<path class="st9" d="M313.8,232.7c-11.7,6-20.7,16-20.2,30.2c0.5,12.9,15.4,21,24.9,24.8c0,0-11.5-13-9.8-27
		c1.4-11.7,15.7-21.2,31-26.8C339.6,233.8,326.6,226.1,313.8,232.7z"/>
	<path class="st10" d="M253.9,393.9c0,0,9.1,10.3,30.8,10.9c19.5,0.5,31-10.1,31-10.1s-6.9,16.8-31.2,16.5
		C258.9,411,253.9,393.9,253.9,393.9z"/>
	<path class="st11" d="M245.3,377.9c4.8,10.5,14.1,23.9,39.4,24.6c25.3,0.7,39-16.1,41.7-24.1c0,0-22.6,8.8-39.7,8.3
		C269.5,386.1,245.3,377.9,245.3,377.9z"/>
	<path class="st11" d="M247.7,372.6c0,0,14.6-8.7,20.9-8.3c4.7,0.3,12.4,6.4,12.4,6.4s9.6-6.7,14.7-6.5c6.5,0.3,28.9,9.8,28.9,9.8
		s-18.9,6-38.5,5.5C266.5,378.8,247.7,372.6,247.7,372.6z"/>
	<path class="st12" d="M245.6,365.5c-3.1-1.2-7.8,0-9.1,4.5c-1.3,4.8-0.1,8.3,1.2,9.7c0,0,0.9-2.9,3.3-6.4
		C243.4,370.1,250.3,367.4,245.6,365.5z"/>
	<path class="st12" d="M327.6,366.8c3.7-1.2,7.1,1,8.7,5.8c1,3.1,0.2,7.6-1.7,9.3c0,0-1.9-5.3-3.9-7.2
		C327.2,371.3,324,367.9,327.6,366.8z"/>
	<path class="st0" d="M244.4,374.6c0,0,13.7,17.8,40.8,18.5c27.1,0.7,41.7-17.8,41.7-17.8s-20.8,5-42.3,4.4
		C263.1,379.1,244.4,374.6,244.4,374.6z"/>
	<path d="M256.4,375.3c0,0,3.4,8,7.6,12.2c0,0-16.3-5.3-19.9-14.3L256.4,375.3z"/>
	<path d="M312.9,377.5c0,0-1.5,7.2-4.9,10c0,0,14.5-6.1,16.5-13.5L312.9,377.5z"/>
	<path class="st0" d="M203.5,268.9c0,0,12.9,4,29.2,4.7c16.3,0.7,24.7-2.6,24.8-4.1c0-1.5-5.4-20.5-24.1-20.4
		C214.6,249.2,203.5,268.9,203.5,268.9z"/>
	
		<linearGradient id="SVGID_1_" gradientUnits="userSpaceOnUse" x1="173.651" y1="231.9855" x2="240.9807" y2="236.1646" gradientTransform="matrix(0.974 -9.200000e-03 9.400000e-03 1 5.5017 -3.001)">
		<stop  offset="0" style="stop-color:#000000;stop-opacity:0"/>
		<stop  offset="1" style="stop-color:#000000"/>
	</linearGradient>
	<path class="st13" d="M253.4,236.3c3.4,1.1,10.7-1.9,9.2-3.6c-1.5-1.8-29.4-15.7-46.7-15c-17.3,0.8-26.8,13.6-27.6,22.4
		c0,0,12.7-10.3,28.6-10C232.3,230.4,249,234.8,253.4,236.3z"/>
	<path d="M192.6,271.8c3.3-0.8,7.9-4.4,9.9-7c5.1-6.8,13.1-18.4,29.2-19.2c19.3-0.9,29.5,17.6,25.6,26.4c-0.2-0.9-6-20.3-25.1-18.9
		c-14.7,1.1-19.9,9.1-25.3,15C202.9,272.5,196.3,273.1,192.6,271.8z"/>
	<path d="M231.6,245.7c-12.9-0.6-29.1,9.6-32.1,21c0,0,8.2-12,20.4-14.7L231.6,245.7z"/>
	<path d="M232.7,273.6c-3.5-0.2-6.9-0.5-10-0.9c-2.1-2.6-3.3-6-3.3-9.6c0.1-4.7,2.4-8.7,5.8-11.4c2.7-0.9,5.7-1.5,8.9-1.6
		c3.6,0,6.6,0.6,9.3,1.6c0.1,0,0.2,0.1,0.3,0.1c3.5,2.8,5.7,7.1,5.6,11.9c-0.1,3.6-1.5,6.9-3.7,9.4
		C242.1,273.7,237.8,273.8,232.7,273.6z"/>
	<path class="st0" d="M231.6,259.8c0,1.4-1.2,2.6-2.7,2.5c-1.4,0-2.6-1.2-2.5-2.7c0-1.4,1.2-2.6,2.7-2.5
		C230.5,257.2,231.6,258.4,231.6,259.8z"/>
	<path class="st0" d="M372.6,273.8c0,0-13.5,3.4-30.4,3.3c-16.9-0.1-25.4-3.9-25.3-5.5c0-1.6,6.6-20.6,26-19.5
		C362.2,253.2,372.6,273.8,372.6,273.8z"/>
	
		<linearGradient id="SVGID_00000098221214914247866600000006253274978248962493_" gradientUnits="userSpaceOnUse" x1="838.1025" y1="254.5484" x2="904.7025" y2="258.6822" gradientTransform="matrix(-1.0131 -7.420000e-02 -7.520000e-02 0.9973 1267.6923 41.1747)">
		<stop  offset="0" style="stop-color:#000000;stop-opacity:0"/>
		<stop  offset="1" style="stop-color:#000000"/>
	</linearGradient>
	<path style="fill:url(#SVGID_00000098221214914247866600000006253274978248962493_);" d="M320.2,237.9c-3.6,0.9-11-2.9-9.3-4.6
		c1.7-1.7,32.9-14,50.8-12.1c18,1.9,24.6,16,25.3,22.6c0,0-11.7-9.3-28.2-10.1C342.5,233.1,324.8,236.8,320.2,237.9z"/>
	<path d="M382.1,277.1c-3.2-1.7-6.3-4.5-8.2-7.3c-4.9-7.2-12.6-19.5-29.1-21.1c-19.8-1.9-31.6,16.8-28.2,25.9
		c0.2-0.9,7.6-20.6,27.2-18.2c13.9,1.7,19.9,10.5,25.4,16.6C372.3,276.4,379.3,278.2,382.1,277.1z"/>
	<path d="M344.8,248.7c13.4,0,29.6,11.3,32.1,23.1c0,0-7.9-12.7-20.3-16L344.8,248.7z"/>
	<path d="M342.2,277.1c-3.7,0-7-0.2-9.8-0.6c-2.5-2.7-4-6.4-4-10.4c0-5,2.5-9.3,6.2-12c2.8-1,6-1.6,9.7-1.4c1.5,0.1,2.8,0.3,4.2,0.5
		c2,0.5,3.8,1.2,5.6,2.1c3,2.8,4.9,6.7,4.8,11.1c0,3.9-1.5,7.4-4,10.1C351,276.9,346.7,277.2,342.2,277.1z"/>
	<path class="st0" d="M347.1,264.9c0,1.5,1.1,2.7,2.6,2.7c1.5,0,2.7-1.1,2.7-2.6c0-1.5-1.1-2.7-2.6-2.7
		C348.4,262.3,347.2,263.4,347.1,264.9z"/>
	<path class="st15" d="M283,349.8c-0.4,0-0.8,0-1.2,0c-7.2-0.3-10.9-3.3-13.9-5.7c-1.6-1.3-3-2.4-4.8-3c-0.4-0.1-0.9-0.2-1.4-0.4
		c-3-0.8-7.5-1.9-11-6.2c-3-3.6-3.8-7.9-2.2-12.1c2.1-5.4,7.8-9.7,14.4-10.7c1.2-0.2,2.4,0.7,2.5,1.9c0.2,1.2-0.7,2.4-1.9,2.5
		c-4.9,0.7-9.4,4-10.9,7.9c-1,2.7-0.5,5.3,1.4,7.6c2.6,3.1,6,4,8.7,4.7c0.6,0.1,1.1,0.3,1.5,0.4c2.6,0.8,4.5,2.3,6.3,3.8
		c2.8,2.3,5.5,4.4,11.3,4.7c5.1,0.2,7.5-1.5,10.3-3.6c1.9-1.4,4.1-2.9,7.1-3.8c0.8-0.2,1.8-0.5,2.8-0.7c3.4-0.9,9.2-2.3,10.6-4.3
		c1.5-2.3,1.9-5.2,0.8-7.9c-1.3-3.4-4.5-5.8-8.8-6.8c-1.2-0.3-2-1.5-1.7-2.7c0.3-1.2,1.5-1.9,2.7-1.7c5.8,1.3,10.1,4.8,12,9.6
		c1.6,4.1,1.1,8.5-1.3,12c-2.3,3.4-8.3,4.9-13.1,6.1c-1,0.2-1.9,0.5-2.7,0.7c-2.3,0.6-3.9,1.8-5.7,3.1
		C292,347.5,288.8,349.8,283,349.8z"/>
	<path class="st16" d="M270.7,314.7c-0.1,0-0.3,0-0.4-0.1c-0.9-0.2-1.4-1.1-1.2-2c2.9-10.7,7-34.7,7-34.9c0.2-0.9,1-1.5,1.9-1.4
		c0.9,0.2,1.5,1,1.4,1.9c-0.2,1-4.2,24.4-7.1,35.2C272.1,314.2,271.4,314.7,270.7,314.7z"/>
	<path class="st17" d="M298.3,315.3c-0.8,0-1.5-0.5-1.6-1.3c-2.5-12.3-4.9-32.4-4.9-32.6c-0.1-0.9,0.5-1.7,1.5-1.8
		c0.9-0.1,1.7,0.5,1.8,1.5c0,0.2,2.3,20.2,4.8,32.4c0.2,0.9-0.4,1.8-1.3,2C298.6,315.3,298.4,315.3,298.3,315.3z"/>
	<path class="st18" d="M290,381.3c-1.5,0-3.1,0-4.7,0c-26.5-0.7-43.7-8-44.4-8.3c-1.1-0.5-1.6-1.7-1.1-2.8c0.5-1.1,1.7-1.6,2.8-1.1
		c0.2,0.1,17.2,7.2,42.8,7.9c25.7,0.7,43.2-6.8,43.4-6.9c1.1-0.5,2.3,0,2.8,1.1c0.5,1.1,0,2.3-1.1,2.8
		C329.7,374.3,313.9,381.1,290,381.3z"/>
	<path class="st18" d="M285.7,395c-0.6,0-1.1,0-1.7,0c-17.3-0.5-36.7-10.7-42.4-22.3c-0.5-1.1-0.1-2.3,1-2.8c1-0.5,2.3-0.1,2.8,1
		c4.9,10,23.3,19.5,38.7,19.9c16.8,0.4,37-8.5,41.6-18.5c0.5-1.1,1.8-1.5,2.8-1c1.1,0.5,1.5,1.8,1,2.8
		C324,386.2,302.3,394.9,285.7,395z"/>
	<path class="st8" d="M371,124.2c0,0,55.7-12.3,66.9,48.2C438,172.4,423,123.1,371,124.2z"/>
	<path class="st8" d="M418.5,186.5c0,0,24.3,4,23.2,39.2C441.8,225.7,437.8,196.7,418.5,186.5z"/>
</g>
</svg>
