<?xml version="1.0" encoding="utf-8"?>
<!-- Generator: Adobe Illustrator 18.1.1, SVG Export Plug-In . SVG Version: 6.00 Build 0)  -->
<!DOCTYPE svg PUBLIC "-//W3C//DTD SVG 1.1//EN" "http://www.w3.org/Graphics/SVG/1.1/DTD/svg11.dtd">
<svg version="1.1" id="Layer_1" xmlns="http://www.w3.org/2000/svg" xmlns:xlink="http://www.w3.org/1999/xlink" x="0px" y="0px"
	 viewBox="-3.1 -1.5 11 11" enable-background="new -3.1 -1.5 11 11" xml:space="preserve">
<path fill="#58B7ED" d="M7,9.5h-9.2c-0.5,0-0.9-0.4-0.9-0.9v-9.2c0-0.5,0.4-0.9,0.9-0.9H7c0.5,0,0.9,0.4,0.9,0.9v9.2
	C7.9,9.1,7.5,9.5,7,9.5z"/>
<g>
	<g>
		<g>
			<path fill="#469BC1" d="M5.3,5.1C5.2,5,5,5,4.8,5.1L3.6,5.7V5.6c0-0.3-0.2-0.5-0.5-0.5H1.9C1.7,5.1,1.4,5,1.2,5L0.4,4.8V4.4
				c0-0.1-0.1-0.2-0.2-0.2h-1.1c-0.1,0-0.2,0.1-0.2,0.2v2.8c0,0.1,0.1,0.2,0.2,0.2h1.1c0.1,0,0.2-0.1,0.2-0.2V7l0.1,0.1
				c0.3,0.3,0.7,0.4,1.2,0.4h1c0.4,0,0.7-0.1,1-0.3l1.6-1.1C5.5,6,5.6,5.8,5.6,5.6C5.6,5.4,5.5,5.2,5.3,5.1z M0.1,7h-0.7V4.6h0.7V7z
				 M5.1,5.7L3.5,6.8C3.3,7,3,7.1,2.7,7.1h-1C1.4,7.1,1,7,0.8,6.8L0.4,6.5V5.1l0.6,0.2c0.3,0.1,0.5,0.1,0.8,0.1H3
				c0.1,0,0.2,0.1,0.2,0.2v0.2C3,5.9,2.5,6,2,5.9C1.9,5.9,1.8,5.9,1.8,6s0.1,0.2,0.2,0.2c0.2,0,0.3,0,0.5,0c0.6,0,1-0.2,1.1-0.2l0,0
				l0,0h0l0,0l1.4-0.7c0.1,0,0.1,0,0.2,0s0.1,0.1,0.1,0.2C5.3,5.6,5.2,5.7,5.1,5.7z"/>
			<path fill="#469BC1" d="M-0.7,2.7c0.2,0.1,0.4,0.1,0.5,0L1,2.2v0.1c0,0.3,0.3,0.6,0.6,0.6h1.2c0.2,0,0.5,0,0.7,0.1l0.7,0.2v0.3
				c0,0.1,0.1,0.2,0.2,0.2h1.1c0.1,0,0.2-0.1,0.2-0.2V0.6c0-0.1-0.1-0.2-0.2-0.2H4.4c-0.1,0-0.2,0.1-0.2,0.2v0.3L4.1,0.8
				C3.8,0.5,3.4,0.4,2.9,0.4h-1c-0.4,0-0.7,0.1-1,0.3l-1.6,1.1c-0.2,0.1-0.2,0.3-0.2,0.4C-0.9,2.4-0.8,2.6-0.7,2.7z M4.5,0.8h0.7
				v2.5H4.5V0.8z M-0.5,2.1L1.1,1c0.2-0.2,0.5-0.3,0.8-0.3h1c0.3,0,0.6,0.1,0.9,0.3l0.3,0.3v1.4L3.5,2.5C3.3,2.5,3,2.4,2.7,2.4H1.6
				c-0.1,0-0.2-0.1-0.2-0.2V2C1.6,2,2.1,1.9,2.6,1.9c0.1,0,0.2-0.1,0.2-0.2c0-0.1-0.1-0.2-0.2-0.2C1.9,1.4,1.2,1.7,1.1,1.7l0,0l0,0
				l0,0l0,0l-1.4,0.7c-0.1,0-0.1,0-0.2,0s-0.1-0.1-0.1-0.2C-0.6,2.2-0.6,2.1-0.5,2.1z"/>
			<path fill="#469BC1" d="M2.4,3.3C2.3,3.3,2.2,3.2,2.1,3.2c-0.3,0-0.6,0.3-0.6,0.6c0,0.2,0.1,0.4,0.4,0.6c0.2,0.2,0.3,0.3,0.4,0.3
				c0,0,0.1,0,0.1,0s0.1,0,0.1,0c0,0,0.2-0.1,0.4-0.3C3.1,4.2,3.2,4,3.2,3.8c0-0.3-0.3-0.6-0.6-0.6C2.6,3.2,2.5,3.3,2.4,3.3z
				 M2.9,3.8c0,0.1-0.2,0.4-0.5,0.6C2.1,4.2,1.9,3.9,1.9,3.8c0-0.1,0.1-0.2,0.2-0.2c0.1,0,0.1,0,0.2,0.1c0,0,0.1,0.1,0.1,0.1
				c0.1,0,0.1,0,0.1-0.1c0.1-0.1,0.1-0.1,0.2-0.1C2.8,3.6,2.9,3.7,2.9,3.8z"/>
		</g>
	</g>
</g>
<text transform="matrix(1 0 0 1 0.1268 2.5531)" enable-background="new    "><tspan x="0" y="0" fill="#FFFFFF" font-family="'HiraMaruStd-W8-83pv-RKSJ-H'" font-size="2.3726">が</tspan><tspan x="2.4" y="0" fill="#FFFFFF" font-family="'HiraMaruStd-W8-83pv-RKSJ-H'" font-size="2.3726">ん</tspan><tspan x="1.2" y="2" fill="#FFFFFF" font-family="'HiraMaruStd-W8-83pv-RKSJ-H'" font-size="2.3726">・</tspan><tspan x="-2.2" y="4" fill="#FFFFFF" font-family="'HiraMaruStd-W8-83pv-RKSJ-H'" font-size="2.3726">緩</tspan><tspan x="0.1" y="4" fill="#FFFFFF" font-family="'HiraMaruStd-W8-83pv-RKSJ-H'" font-size="2.3726">和</tspan><tspan x="2.4" y="4" fill="#FFFFFF" font-family="'HiraMaruStd-W8-83pv-RKSJ-H'" font-size="2.3726">ケ</tspan><tspan x="4.7" y="4" fill="#FFFFFF" font-family="'HiraMaruStd-W8-83pv-RKSJ-H'" font-size="2.3726">ア</tspan></text>
</svg>
