<?xml version="1.0" encoding="utf-8"?>
<!-- Generator: Adobe Illustrator 18.1.1, SVG Export Plug-In . SVG Version: 6.00 Build 0)  -->
<!DOCTYPE svg PUBLIC "-//W3C//DTD SVG 1.1//EN" "http://www.w3.org/Graphics/SVG/1.1/DTD/svg11.dtd">
<svg version="1.1" id="レイヤー_1" xmlns="http://www.w3.org/2000/svg" xmlns:xlink="http://www.w3.org/1999/xlink" x="0px"
	 y="0px" viewBox="0 1 11 11" enable-background="new 0 1 11 11" xml:space="preserve">
<path fill="#58B7ED" d="M10.1,12H0.9C0.4,12,0,11.6,0,11.1V1.9C0,1.4,0.4,1,0.9,1h9.2C10.6,1,11,1.4,11,1.9v9.2
	C11,11.6,10.6,12,10.1,12z"/>
<g display="none">
	<path display="inline" fill="#469BC1" d="M9.4,9C9.3,8.8,9.2,8.6,9,8.5c-0.1,0-0.2-0.1-0.3-0.1V8.2c0-0.2,0-0.3-0.1-0.4
		C8.5,7.6,8.4,7.4,8.2,7.3C8,7.2,7.8,7.1,7.6,7.1c-0.2,0-0.3,0-0.4,0.1C6.9,7.3,6.8,7.4,6.6,7.6C6.5,7.8,6.4,8,6.4,8.2V9
		c0,0.1,0,0.2,0,0.2c0,0.1-0.1,0.2-0.2,0.3C6.1,9.6,6,9.6,5.9,9.6s-0.2,0-0.2,0c-0.1,0-0.2-0.1-0.3-0.2C5.3,9.2,5.3,9.1,5.3,9V7.3
		c0.2,0,0.4-0.1,0.6-0.2C6.4,7,6.7,6.7,7,6.4C7.2,6.2,7.3,6,7.4,5.8s0.2-0.4,0.3-0.6C7.8,5,7.8,4.7,7.8,4.5s0-0.3,0-0.4
		S7.7,3.9,7.7,3.8S7.6,3.7,7.6,3.6C7.5,3.5,7.4,3.4,7.3,3.4C7.2,3.3,7,3.3,6.9,3.3v0.6c0,0,0,0,0.1,0l0,0c0,0,0,0,0.1,0.1
		c0,0,0.1,0.1,0.1,0.2c0,0.1,0,0.2,0,0.3c0,0.2,0,0.4-0.1,0.6c0,0.2-0.1,0.4-0.3,0.6C6.6,6,6.4,6.3,6.1,6.5c-0.2,0-0.4,0.1-0.5,0.2
		C5.4,6.7,5.2,6.8,5,6.8c-0.3,0-0.5-0.1-0.7-0.1C4.1,6.5,4,6.5,3.8,6.4C3.6,6.2,3.4,6,3.2,5.8C3.1,5.6,2.9,5.3,2.9,5.1
		C2.8,4.9,2.8,4.7,2.8,4.5c0-0.1,0-0.2,0-0.3c0-0.1,0-0.1,0.1-0.2c0,0,0-0.1,0.1-0.1l0.1-0.1h0.1V3.3c-0.1,0-0.1,0-0.2,0
		c-0.1,0-0.1,0-0.2,0.1c-0.2,0-0.3,0.1-0.3,0.2C2.4,3.7,2.3,3.8,2.3,4c0,0.2-0.1,0.3-0.1,0.5s0,0.5,0.1,0.8C2.4,5.5,2.5,5.8,2.7,6
		c0.2,0.4,0.6,0.7,1,0.9C3.9,7,4.1,7.1,4.3,7.2c0.1,0,0.3,0.1,0.4,0.1V9c0,0.2,0,0.3,0.1,0.4C4.9,9.7,5,9.8,5.2,10
		c0.2,0.1,0.4,0.2,0.6,0.2s0.3,0,0.4-0.1C6.5,10,6.7,9.8,6.8,9.7C6.9,9.5,7,9.3,7,9V8.2c0,0,0-0.1,0-0.2c0-0.1,0.1-0.2,0.2-0.3
		c0.1-0.1,0.2-0.1,0.3-0.1c0.1,0,0.2,0,0.2,0c0.1,0,0.2,0.1,0.3,0.2C8.1,8,8.1,8.1,8.1,8.2v0.2H8C7.9,8.5,7.7,8.6,7.6,8.8
		S7.4,9.2,7.4,9.4c0,0.1,0,0.3,0.1,0.4c0.1,0.2,0.2,0.3,0.4,0.4c0.1,0.1,0.3,0.2,0.5,0.2c0.1,0,0.3,0,0.4-0.1
		c0.2-0.1,0.4-0.2,0.5-0.4c0.1-0.2,0.2-0.4,0.2-0.6C9.5,9.2,9.4,9.1,9.4,9z M8.9,9.6c0,0.1-0.1,0.2-0.2,0.2C8.6,9.9,8.5,9.9,8.4,9.9
		s-0.1,0-0.2,0C8.1,9.8,8,9.8,8,9.7S7.9,9.5,7.9,9.4s0-0.1,0-0.2C8,9.1,8,9,8.1,8.9c0.1-0.1,0.2-0.1,0.3-0.1s0.1,0,0.2,0
		c0.1,0,0.2,0.1,0.2,0.2C8.9,9.2,9,9.3,9,9.4C9,9.5,9,9.5,8.9,9.6z"/>
	<path display="inline" fill="#469BC1" d="M3.9,4.1C4,4,4.1,3.9,4.1,3.8V3.3C4.1,3.2,4,3.1,4,3C3.8,3,3.7,3,3.6,3L3.3,3.1v1l0.3,0.1
		C3.7,4.2,3.8,4.2,3.9,4.1z"/>
	<path display="inline" fill="#469BC1" d="M6.1,4.1c0.1,0.1,0.2,0.1,0.3,0.1l0.3-0.1v-1L6.4,3C6.3,3,6.2,3,6.1,3.1
		C6,3.1,5.9,3.2,5.9,3.3v0.4C5.9,3.9,6,4,6.1,4.1z"/>
</g>
<g>
	<path fill="#469BC1" d="M3,7.8c-0.5,0-1,0.4-1,1s0.4,1,1,1s1-0.4,1-1S3.5,7.8,3,7.8z M3,9.1C2.8,9.1,2.6,9,2.6,8.7
		c0-0.2,0.2-0.4,0.4-0.4s0.4,0.2,0.4,0.4C3.4,9,3.2,9.1,3,9.1z"/>
	<path fill="#469BC1" d="M7.9,7.8c-0.5,0-1,0.4-1,1s0.4,1,1,1c0.5,0,1-0.4,1-1S8.4,7.8,7.9,7.8z M7.9,9.1C7.6,9.1,7.5,9,7.5,8.7
		c0-0.2,0.2-0.4,0.4-0.4s0.4,0.2,0.4,0.4C8.3,9,8.1,9.1,7.9,9.1z"/>
	<path fill="#469BC1" d="M2.9,4.1h2.9c0.3,0,0.6-0.3,0.6-0.6C6.3,3.2,6.1,3,5.8,3H2.9C2.6,3,2.3,3.2,2.3,3.5S2.6,4.1,2.9,4.1z
		 M4,3.1h0.7v0.8H4V3.1z"/>
	<path fill="#469BC1" d="M9.6,6.9l-1-0.4c-0.1,0-0.1-0.1-0.2-0.2L7.1,4.6C7,4.4,6.9,4.4,6.7,4.4H2c-0.2,0-0.5,0.2-0.5,0.4L1.1,6.4
		v0.1v1.9C1,8.7,1.3,9,1.6,9h0.3c0-0.1,0-0.1,0-0.2c0-0.6,0.5-1.2,1.2-1.2s1.2,0.5,1.2,1.2c0,0.1,0,0.1,0,0.2h2.5c0-0.1,0-0.1,0-0.2
		c0-0.6,0.5-1.2,1.2-1.2c0.5,0,1,0.5,1,1.1C9,8.8,9,8.9,9,9h0.3c0.3,0,0.5-0.2,0.5-0.5v-1C9.9,7.2,9.8,7,9.6,6.9z M3.9,6.2H3.4v0.5
		H2.9V6.2H2.3V5.7h0.5V5.2h0.5v0.5h0.5L3.9,6.2L3.9,6.2z M7.8,6.3C7.8,6.4,7.8,6.4,7.8,6.3H5.6c-0.1,0-0.2-0.1-0.2-0.2V4.9
		c0-0.1,0.1-0.2,0.2-0.2h1c0.1,0,0.1,0,0.2,0.1L7.8,6.3C7.9,6.3,7.9,6.3,7.8,6.3z"/>
</g>
<text transform="matrix(1 0 0 1 0.6917 7.0726)" fill="#FFFFFF" font-family="'HiraMaruStd-W8-83pv-RKSJ-H'" font-size="2.3726">在</text>
<text transform="matrix(1 0 0 1 3.1917 7.0726)" fill="#FFFFFF" font-family="'HiraMaruStd-W8-83pv-RKSJ-H'" font-size="2.3726">宅</text>
<text transform="matrix(1 0 0 1 5.6917 7.0726)" fill="#FFFFFF" font-family="'HiraMaruStd-W8-83pv-RKSJ-H'" font-size="2.3726">医</text>
<text transform="matrix(1 0 0 1 8.0917 7.0726)" fill="#FFFFFF" font-family="'HiraMaruStd-W8-83pv-RKSJ-H'" font-size="2.3726">療</text>
</svg>
