<?xml version="1.0" encoding="utf-8"?>
<!-- Generator: Adobe Illustrator 18.1.1, SVG Export Plug-In . SVG Version: 6.00 Build 0)  -->
<!DOCTYPE svg PUBLIC "-//W3C//DTD SVG 1.1//EN" "http://www.w3.org/Graphics/SVG/1.1/DTD/svg11.dtd">
<svg version="1.1" id="_x32_" xmlns="http://www.w3.org/2000/svg" xmlns:xlink="http://www.w3.org/1999/xlink" x="0px" y="0px"
	 viewBox="202 -298 606.7 606.7" enable-background="new 202 -298 606.7 606.7" xml:space="preserve">
<circle fill="#F48A9D" cx="505.4" cy="5.4" r="303.4"/>
<g>
	<path fill="#FFFFFF" d="M691.8,120.3c-4-9.5-10.7-17.6-19.2-23.3c-4.5-3.1-9.5-5.4-14.9-7v-8.2c0-8.2-1.7-16-4.7-23.1
		C648.5,48,641,39,631.6,32.6c-9.4-6.4-20.9-10.1-33.2-10.1c-8.2,0-16,1.7-23.1,4.7c-10.7,4.5-19.7,12-26.1,21.5
		C542.8,58,539,69.5,539,81.8v40.7c0,4.1-0.8,8-2.3,11.6c-2.2,5.3-6,9.9-10.8,13.1c-4.8,3.2-10.4,5.1-16.6,5.1
		c-4.1,0-8-0.8-11.6-2.3c-5.3-2.2-9.9-6-13.1-10.8c-3.2-4.8-5.1-10.4-5.1-16.6V33.7c11.8-1.4,23.1-4.4,33.7-8.6
		c22.5-9,41.9-23.6,57.3-40.6c7.7-8.5,14.4-17.7,20-27.3c5.6-9.5,10.1-19.4,13.3-29.4c4.5-14,6.7-27.9,6.7-40.9
		c0-7.9-0.8-15.5-2.5-22.6c-1.3-5.3-3-10.4-5.4-15.1c-1.8-3.5-3.9-6.9-6.4-9.9c-3.7-4.6-8.4-8.5-13.9-11.3
		c-5.5-2.7-11.8-4.2-18.1-4.2v29.6c1.2,0,2.2,0.1,3.2,0.4c0.8,0.2,1.5,0.5,2.2,0.9c1.2,0.7,2.5,1.8,3.8,3.4c2,2.4,3.9,6.2,5.3,11.1
		c1.4,4.9,2.2,11,2.2,17.7c0,9.6-1.7,20.6-5.3,31.8c-3.3,10.3-8.6,21-15.5,31.2c-10.4,15.3-24.5,29.2-40.9,39.2
		c-8.2,5-16.9,9-26,11.7c-9.1,2.7-18.6,4.2-28.5,4.2c-13.1,0-25.7-2.7-37.5-7.4c-8.8-3.5-17.2-8.3-25-13.9
		c-11.7-8.4-22-18.8-30.2-30.1c-8.3-11.3-14.5-23.4-18.2-35c-3.6-11.2-5.3-22.2-5.3-31.8c0-5.8,0.6-11.2,1.7-15.7
		c0.8-3.4,1.9-6.3,3.1-8.7c0.9-1.8,1.8-3.3,2.8-4.4c1.4-1.8,2.8-2.8,4.2-3.5s2.8-1.1,4.9-1.1v-29.6c-3.8,0-7.5,0.5-11.1,1.5
		c-3.1,0.9-6.1,2.1-8.9,3.7c-4.8,2.7-9,6.4-12.3,10.6c-5.1,6.3-8.5,13.7-10.8,21.7c-2.2,8-3.3,16.6-3.3,25.7c0,13,2.2,26.9,6.7,40.9
		c4.3,13.3,10.8,26.4,19.3,38.8c12.7,18.5,29.6,35.4,49.9,47.7c10.2,6.2,21.2,11.3,32.9,14.8c7.2,2.1,14.6,3.7,22.2,4.6v88.9
		c0,8.2,1.7,16,4.7,23.1c4.5,10.7,12,19.7,21.5,26.1c9.5,6.4,21,10.2,33.2,10.2c8.2,0,16-1.7,23.1-4.7c10.7-4.5,19.7-12,26.1-21.5
		c6.4-9.4,10.1-20.9,10.1-33.2V81.8c0-4.2,0.8-8,2.3-11.6c2.2-5.3,6.1-9.9,10.8-13.1c4.8-3.2,10.4-5.1,16.6-5.1
		c4.1,0,8,0.8,11.6,2.3c5.3,2.2,9.9,6,13.1,10.8c3.2,4.8,5.1,10.4,5.1,16.6V90c-2,0.6-4,1.3-5.9,2.1c-9.5,4-17.6,10.7-23.3,19.2
		c-5.7,8.4-9.1,18.7-9.1,29.7c0,7.3,1.5,14.3,4.2,20.7c4,9.5,10.8,17.6,19.2,23.3c8.5,5.7,18.7,9.1,29.7,9.1
		c7.3,0,14.3-1.5,20.7-4.2c9.5-4,17.6-10.8,23.3-19.2c5.7-8.5,9.1-18.7,9.1-29.7C696,133.6,694.5,126.6,691.8,120.3z M668.9,151.9
		c-2.1,5-5.7,9.4-10.2,12.4c-4.5,3-9.9,4.8-15.8,4.8c-3.9,0-7.6-0.8-11-2.2c-5-2.1-9.4-5.7-12.4-10.2s-4.8-9.9-4.8-15.8
		c0-3.9,0.8-7.6,2.2-11c2.1-5.1,5.7-9.4,10.2-12.4c4.5-3,9.9-4.8,15.8-4.8c3.9,0,7.6,0.8,11,2.2c5,2.1,9.4,5.7,12.4,10.2
		c3,4.5,4.8,9.9,4.8,15.8C671.1,144.9,670.3,148.5,668.9,151.9z"/>
	<path fill="#FFFFFF" d="M408.6-134c4.7-3.7,7.4-9.4,7.4-15.3v-23.2c0-6-2.7-11.6-7.4-15.3c-4.7-3.7-10.8-5-16.6-3.7l-15.5,3.7v53.8
		l15.5,3.7C397.9-129,404-130.3,408.6-134z"/>
	<path fill="#FFFFFF" d="M520.8-134c4.7,3.7,10.8,5.1,16.6,3.7l15.5-3.7v-53.8l-15.5-3.7c-5.8-1.4-11.9,0-16.6,3.7
		c-4.7,3.7-7.4,9.4-7.4,15.3v23.1C513.4-143.4,516.1-137.7,520.8-134z"/>
</g>
</svg>
