<?xml version="1.0" encoding="utf-8"?>
<!-- Generator: Adobe Illustrator 18.1.1, SVG Export Plug-In . SVG Version: 6.00 Build 0)  -->
<!DOCTYPE svg PUBLIC "-//W3C//DTD SVG 1.1//EN" "http://www.w3.org/Graphics/SVG/1.1/DTD/svg11.dtd">
<svg version="1.1" id="Capa_1" xmlns="http://www.w3.org/2000/svg" xmlns:xlink="http://www.w3.org/1999/xlink" x="0px" y="0px"
	 viewBox="10 -9.5 31.5 31.5" enable-background="new 10 -9.5 31.5 31.5" xml:space="preserve">
<g>
	<path fill="#6EB92B" d="M41.3-8.8C41.3-8.8,41.2-8.9,41.3-8.8C41.2-8.9,41.2-8.9,41.3-8.8c-0.3-0.4-0.6-0.6-1-0.6h0h-21h0
		c-0.7,0-1.2,0.6-1.2,1.2v0v1.1v4v2.3v4v2.3v4v2.3v4V17l0,0c0,0.2,0.1,0.5,0.2,0.7c0,0,0,0,0,0c0,0,0,0,0,0c0.2,0.3,0.6,0.5,1,0.5h0
		h1.5c-0.3,1.7-1.7,3-3.4,3c-1.8,0-3.2-1.3-3.4-3h1.5l0,0c0.7,0,1.2-0.6,1.2-1.2v0v-1.1v-4V9.5v-4V3.2v-4v-2.3v-4v-1.1v0
		c0-0.2-0.1-0.5-0.2-0.7c0,0,0,0,0,0c0,0,0,0,0,0c-0.2-0.3-0.6-0.5-1-0.5l0,0h-4.2h0c-0.7,0-1.2,0.6-1.2,1.2v0v1.1v4v2.3v4v2.3v4
		v2.3v4v1.1v0c0,0.2,0.1,0.5,0.2,0.7c0,0,0,0,0,0c0,0,0,0,0,0c0.2,0.3,0.6,0.5,1,0.5h0h1.8c0.2,2.2,2.1,3.9,4.3,3.9
		c2.2,0,4-1.7,4.3-3.8h18.6h0c0.7,0,1.2-0.6,1.2-1.2v0v-1.1v-4V9.6v-4V3.3v-4v-2.3v-4v-1.1v0C41.5-8.4,41.4-8.7,41.3-8.8z M26,9.2
		c0,0.3-0.2,0.5-0.5,0.5h-2.9c-0.3,0-0.5-0.2-0.5-0.5V8c0-0.3,0.2-0.5,0.5-0.5h2.9C25.7,7.4,26,7.7,26,8C26,8,26,9.2,26,9.2z M26,5
		c0,0.3-0.2,0.5-0.5,0.5h-2.9C22.2,5.5,22,5.3,22,5V3.8c0-0.3,0.2-0.5,0.5-0.5h2.9c0.3,0,0.5,0.2,0.5,0.5C26,3.8,26,5,26,5z M26,0.8
		c0,0.3-0.2,0.5-0.5,0.5h-2.9c-0.3,0-0.5-0.2-0.5-0.5v-1.2c0-0.3,0.2-0.5,0.5-0.5h2.9c0.3,0,0.5,0.2,0.5,0.5C26-0.4,26,0.8,26,0.8z
		 M31.7,9.2c0,0.3-0.2,0.5-0.5,0.5h-2.9c-0.3,0-0.5-0.2-0.5-0.5V8c0-0.3,0.2-0.5,0.5-0.5h2.9c0.3,0,0.5,0.2,0.5,0.5
		C31.7,8,31.7,9.2,31.7,9.2z M31.7,5c0,0.3-0.2,0.5-0.5,0.5h-2.9c-0.3,0-0.5-0.2-0.5-0.5V3.8c0-0.3,0.2-0.5,0.5-0.5h2.9
		c0.3,0,0.5,0.2,0.5,0.5C31.7,3.8,31.7,5,31.7,5z M31.7,0.8c0,0.3-0.2,0.5-0.5,0.5h-2.9c-0.3,0-0.5-0.2-0.5-0.5v-1.2
		c0-0.3,0.2-0.5,0.5-0.5h2.9c0.3,0,0.5,0.2,0.5,0.5C31.7-0.4,31.7,0.8,31.7,0.8z M37.5,9.2c0,0.3-0.2,0.5-0.5,0.5h-2.9
		c-0.3,0-0.5-0.2-0.5-0.5V8c0-0.3,0.2-0.5,0.5-0.5h2.9c0.3,0,0.5,0.2,0.5,0.5V9.2z M37.5,5c0,0.3-0.2,0.5-0.5,0.5h-2.9
		c-0.3,0-0.5-0.2-0.5-0.5V3.8c0-0.3,0.2-0.5,0.5-0.5h2.9c0.3,0,0.5,0.2,0.5,0.5V5z M37.5,0.8c0,0.3-0.2,0.5-0.5,0.5h-2.9
		c-0.3,0-0.5-0.2-0.5-0.5v-1.2c0-0.3,0.2-0.5,0.5-0.5h2.9c0.3,0,0.5,0.2,0.5,0.5V0.8z"/>
</g>
</svg>
