<?xml version="1.0" encoding="utf-8"?>
<!-- Generator: Adobe Illustrator 18.1.1, SVG Export Plug-In . SVG Version: 6.00 Build 0)  -->
<!DOCTYPE svg PUBLIC "-//W3C//DTD SVG 1.1//EN" "http://www.w3.org/Graphics/SVG/1.1/DTD/svg11.dtd">
<svg version="1.1" id="_x32_" xmlns="http://www.w3.org/2000/svg" xmlns:xlink="http://www.w3.org/1999/xlink" x="0px" y="0px"
	 viewBox="202 -298 606.7 606.7" enable-background="new 202 -298 606.7 606.7" xml:space="preserve">
<circle fill="#F48A9D" cx="505.4" cy="5.4" r="303.4"/>
<g>
	<path fill="#FFFFFF" d="M386.3,75c-27.4,0-49.6,22.2-49.6,49.6s22.2,49.6,49.6,49.6s49.6-22.2,49.6-49.6S413.7,75,386.3,75z
		 M386.3,145c-11.2,0-20.3-9.1-20.3-20.3c0-11.2,9.1-20.3,20.3-20.3c11.2,0,20.3,9.1,20.3,20.3C406.6,135.9,397.5,145,386.3,145z"/>
	<path fill="#FFFFFF" d="M631.5,75c-27.4,0-49.6,22.2-49.6,49.6s22.2,49.6,49.6,49.6c27.4,0,49.6-22.2,49.6-49.6S658.9,75,631.5,75z
		 M631.5,145c-11.2,0-20.3-9.1-20.3-20.3c0-11.2,9.1-20.3,20.3-20.3c11.2,0,20.3,9.1,20.3,20.3C651.9,135.9,642.8,145,631.5,145z"/>
	<path fill="#FFFFFF" d="M381.2-110.7h145.2c15.6,0,28.3-12.7,28.3-28.3c0-15.6-12.7-28.3-28.3-28.3H381.2
		c-15.6,0-28.3,12.7-28.3,28.3C352.9-123.4,365.6-110.7,381.2-110.7z M435.4-158.3h36.8v38.6h-36.8V-158.3z"/>
	<path fill="#FFFFFF" d="M718.6,33.1l-49.2-22.4c-3.9-1.7-7.2-4.3-9.9-7.6l-65.4-89.6c-5.2-6.4-13-10.1-21.3-10.1H333.9
		c-12.4,0-23.3,8.3-26.6,20.3L288,4.5c-0.6,2.4-1,4.8-1,7.3v96.1c0,15.2,12.3,27.5,27.5,27.5H328c-0.6-3.5-1-7.1-1-10.8
		c0-32.7,26.6-59.3,59.3-59.3s59.3,26.6,59.3,59.3c0,3.7-0.4,7.3-1,10.8h128.6c-0.6-3.5-1-7.1-1-10.8c0-32.7,26.6-59.3,59.3-59.3
		c32.7,0,59.3,26.6,59.3,59.3c0,3.7-0.4,7.3-1,10.8h17.4c15.2,0,27.5-12.3,27.5-27.5V58.2C734.8,47.4,728.4,37.6,718.6,33.1z
		 M432.1-3h-26.7v26.7h-25.9V-3h-26.7v-25.9h26.7v-26.7h25.9v26.7h26.7L432.1-3L432.1-3z M630.7,3.1c-0.8,1.6-2.4,2.5-4.1,2.5H517.4
		c-5.1,0-9.2-4.1-9.2-9.2V-68c0-5.1,4.1-9.2,9.2-9.2h52.2c3.3,0,6.4,1.4,8.6,3.9l52.2,71.5C631.3-0.3,631.5,1.5,630.7,3.1z"/>
</g>
</svg>
