<?xml version="1.0" encoding="utf-8"?>
<!-- Generator: Adobe Illustrator 18.1.1, SVG Export Plug-In . SVG Version: 6.00 Build 0)  -->
<!DOCTYPE svg PUBLIC "-//W3C//DTD SVG 1.1//EN" "http://www.w3.org/Graphics/SVG/1.1/DTD/svg11.dtd">
<svg version="1.1" id="レイヤー_1" xmlns="http://www.w3.org/2000/svg" xmlns:xlink="http://www.w3.org/1999/xlink" x="0px"
	 y="0px" viewBox="20 -12 52 37" enable-background="new 20 -12 52 37" xml:space="preserve">
<path id="path-1" fill="#8BC33E" d="M72-2.3c0-1.1-0.3-5.7-2.5-6.6C64.9-10.6,53.6-12,46-12s-18.9,1.4-23.5,3.2
	C20.3-8,20-3.3,20-2.3c0,0.3,0,0.6,0,0.9l0.4,2.2c0.2,1.2,1.4,2,2.6,1.8l10-2c1.2-0.2,2-1.4,1.7-2.6l-0.5-2.7
	C35.2-4.8,36.1-4.9,37-5l-0.3,4.4c0,0-14.9,8-14.9,11c0,3,0,14.6,0,14.6H46h24.2c0,0,0-11.7,0-14.6s-14.9-11-14.9-11L54.9-5
	c0.9,0.1,1.8,0.2,2.8,0.4L57.2-2c-0.2,1.2,0.5,2.4,1.7,2.6l10,2c1.2,0.2,2.3-0.6,2.6-1.8l0.4-2.2C72-1.6,72-1.9,72-2.3z M46-5.7
	c0.9,0,4.5,0.2,5.5,0.3c0,0-0.3,4.3-0.4,4.3H46h-5.2l-0.3-4.3C42.5-5.6,44.4-5.7,46-5.7z M46,19c-3.9,0-7-2.9-7-6.6
	c0-3.6,3.1-6.6,7-6.6c3.9,0,7,2.9,7,6.6C53,16.1,49.8,19,46,19z"/>
</svg>
