<?xml version="1.0" encoding="UTF-8"?>
<svg xmlns="http://www.w3.org/2000/svg" xmlns:xlink="http://www.w3.org/1999/xlink" version="1.1" viewBox="0 0 589.6 589.6">
  <defs>
    <style>
      .cls-1, .cls-2 {
        fill: none;
      }

      .cls-3, .cls-4 {
        fill: #61c1be;
      }

      .cls-5 {
        fill: #6a5632;
      }

      .cls-6, .cls-7 {
        fill: #e798a2;
      }

      .cls-4 {
        stroke-width: .7px;
      }

      .cls-4, .cls-8, .cls-9, .cls-10, .cls-11, .cls-7, .cls-12, .cls-13 {
        stroke-miterlimit: 10;
      }

      .cls-4, .cls-2, .cls-14, .cls-7, .cls-15, .cls-16, .cls-17, .cls-13 {
        stroke: #fff;
      }

      .cls-18, .cls-13 {
        fill: #f0bd58;
      }

      .cls-8 {
        stroke: #f0bd58;
      }

      .cls-8, .cls-9, .cls-19, .cls-11, .cls-12 {
        fill: #fff;
      }

      .cls-8, .cls-9, .cls-11, .cls-12 {
        stroke-width: 3.7px;
      }

      .cls-9 {
        stroke: #61c1be;
      }

      .cls-20, .cls-17 {
        fill: #ecac92;
      }

      .cls-2, .cls-14, .cls-15, .cls-16, .cls-17 {
        stroke-linejoin: round;
      }

      .cls-2, .cls-15, .cls-16 {
        stroke-linecap: round;
      }

      .cls-2, .cls-16 {
        stroke-width: 1px;
      }

      .cls-10 {
        fill: #309739;
        stroke: #c3d842;
        stroke-width: 1px;
      }

      .cls-11 {
        stroke: #e798a2;
      }

      .cls-21, .cls-14, .cls-15, .cls-16 {
        fill: #c3bdb6;
      }

      .cls-22 {
        opacity: .7;
      }

      .cls-14, .cls-17 {
        stroke-width: 1.5px;
      }

      .cls-7, .cls-13 {
        stroke-width: .7px;
      }

      .cls-12 {
        stroke: #ecac92;
      }

      .cls-15 {
        stroke-width: 1.3px;
      }

      .cls-23 {
        clip-path: url(#clippath);
      }

      .cls-24 {
        fill: #6c5833;
      }

      .cls-25 {
        fill: #c3bcb6;
      }
    </style>
    <clipPath id="clippath">
      <rect class="cls-1" x="0" y="0" width="589.6" height="589.6"/>
    </clipPath>
  </defs>
  <!-- Generator: Adobe Illustrator 28.7.1, SVG Export Plug-In . SVG Version: 1.2.0 Build 142)  -->
  <g>
    <g id="_レイヤー_2" data-name="レイヤー_2">
      <g>
        <rect class="cls-19" x="0" y="0" width="589.6" height="589.6"/>
        <g class="cls-22">
          <g class="cls-23">
            <g>
              <g>
                <path class="cls-21" d="M118,339.3c-.2-.2-.2-.4-.2-.7l1.4-20.3-8.9-5.1-5.9,3.3-9,31.3c-.1.4-.4.6-.8.7l-11.2,1.9c0,0-.1,0-.2,0-.3,0-.6-.1-.8-.4l-5.2-6.8-7.3,4.2,1.3,10,7,4.1c.3.2.5.5.5.8v44.2h2.3c.5,0,1,.4,1,1v5.7l10.6,3.9,13.3-5.8,2.7-30.7c0-.4.3-.7.7-.8l13.4-3.9,11.2-16.6-16-19.8Z"/>
                <path class="cls-21" d="M88.8,295.6c.2.4.1.8-.2,1.1l-2.8,3c-.2.2-.4.3-.7.3s0,0,0,0c-.3,0-.6-.2-.7-.4l-3.1-4.9-17.8,12.3c-.2.1-.4.2-.5.2s-.3,0-.5-.1l-4.8-2.8-2.1,2.5,4.7,10.7,23.5,30.9,10-1.7,9-31.1c0-.2.2-.4.4-.6l6-3.4-6.3-17c-.1-.4,0-.8.3-1.1l10.4-9-1.9-3.3-8.5,2.9c-.1,0-.2,0-.3,0-.2,0-.5,0-.6-.3l-5.7-5.3c-.4-.4-.4-1,0-1.3l4.7-5.3-2-2.5-13.1,3.6c0,0-.2,0-.3,0-.2,0-.3,0-.5-.1l-5.3-3.1-1.9,2.8,10.9,22.8Z"/>
                <polygon class="cls-21" points="81.4 421.4 83.2 418.6 86.7 420.1 87.4 421.9 88.6 418.9 81.4 416 81.4 421.4"/>
                <polygon class="cls-21" points="89.4 421.9 92.2 421.9 93.7 425.1 95.5 421.4 90.4 419.4 89.4 421.9"/>
                <g>
                  <path class="cls-17" d="M147.9,349.4l15-13.4,12.8-4.3v-12.7l-.7-1.5-.3-.8-4.8-10.8,5.8-10.1-3.3-5.1-16.3,6.8-7.3,22-24.8-17.5-13.5,11.2,8.9,5.1s-1.9,19.6-1.2,21c.3.6,16,19.8,16,19.8l-11.2,16.6-13.8,4.2-.7,5.9,25.8,12c.5-.8,1.3-1.6,2.3-2.6,2.7-2.8,5.7-3.9,7.5-4.5,3.1-1.1,6.3-1.6,9.7-1.5v-1.4h-13l14-10.5,4.2,7,5.4-6.7h1.6l-5.9-20.8-11.9-7.4Z"/>
                  <path class="cls-17" d="M133.3,400c0-.5.6-1.7.8-2.1l-25.8-12-2.2,25.4-2.9,4.1-3.2,3.7s0,.7,0,1.1c0,.6.1,1.5,0,3.1,0,.8-.1,1.4-.1,1.9-.1,1.1-.1,1.5.1,2.2.4,1,1.3,2.1,2.4,2.5.4.1.7,0,1,0,.4,0,1-.2,1.8,0,1,.3,1.7.8,2.1,1.2.1,0,.2.2.3.3,0-.1.1-.4.1-.6.1-.7.3-1.6,1.1-2.2,1.1-.8,2.6-.5,3.6,0,3,1.4,3.3,5.9,3.3,6.4,0,.9,0,1.5-.1,2,0,.1,0,.2,0,.3.7-.2,3.1-2,5.9-4.1l.4-.3c.7-.5,1.4-1,2.1-1.5,1.2-.9,2.5-1.8,3.7-2.8,4.7-3.8,9.5-6,13.4-7.8,3.8-1.8,6.6-3,6.6-4.7,0-.4-.6-.9-3.5-3.5l-2-1.8c-7.4-6.5-9.1-8.3-8.9-10.7Z"/>
                </g>
              </g>
              <polygon class="cls-4" points="199.3 366.5 214 366.5 239.7 362.2 240.9 353.4 241 352.7 242.6 340.8 239.7 318.9 239.8 318.8 255.6 301.5 259.3 286.7 244.5 273.3 237.4 293.3 211.1 297.9 211.1 298.5 202.5 317.1 189.8 318.5 174.7 316.7 175.2 319 175.2 332.3 162 336.7 147.9 349.4 159.2 356.5 165.3 377.7 177.2 377.7 180.2 368.7 184.4 370.8 181.5 380.9 187.2 383.8 187.2 387.8 182.8 387.8 182.8 392.2 194.4 392.2 188.9 378.4 199.3 366.5"/>
              <polygon class="cls-14" points="148.7 319.5 155.9 298.1 172.3 291.2 173 290.9 173.3 290.8 177.6 283.6 193.4 279.2 193.4 270.3 186.5 264.1 176.4 271.3 160.2 256.5 160.1 256.5 154.4 239.2 137.3 227.8 121.5 240.8 111.9 243.9 113.5 284.6 103.2 293.6 110.4 313.2 124.3 302.2 148.7 319.5"/>
              <polygon class="cls-14" points="209.1 272.7 193 268.7 193 268.7 193 269.7 193 278.6 176.9 283 173 290.9 175.7 295.7 169.8 305.9 174.7 316.8 189.8 318.5 202.5 317.1 211.1 298.5 211.1 298.3 211 297.5 209.1 272.7"/>
              <g>
                <g>
                  <path class="cls-25" d="M188.9,210l53.4,11.5,32.1,5.2h.7c0,.1,12,2.1,12,2.1l11.6-4.8c-2.8-3.4-4.9-7.5-6.4-10.4-.9-1.8-1.5-3.2-2-4.4-1-2.4-1.7-3.9-3.6-5.5-1.3-1.2-4.6-2.3-9.9-4.2-8.4-3-12.4-4.3-15.7-4.3-2.2,0-4.5,0-6.9,1.4-1,.6-1.6,1.1-2.2,1.7-.7.6-1.3,1.2-2.5,1.3-1.9.1-3.1-1.2-4.7-2.9-.9-.9-1.8-2-3.1-3.1-1.7-1.4-2.9-1.9-4.7-2.6-1-.4-2.2-.9-3.8-1.6-2.3-1.1-9.2-4.4-14.7-10.3-1.1-1.2-2-2.3-2.7-3.3l-31.1,20.3,4.2,14Z"/>
                  <path class="cls-25" d="M133.6,160.1l-4,24,20.4,16-5.7,7.1,14.2,4.3v26.7h-5.7l5.6,16.8,15.6,14.2,10.1-7.2,6.9,6.2v-.4l16.8,4.2.7.2h0s21.7-30.3,21.7-30.3l17.6-2.9h0s11.1,3.4,11.1,3.4l.8.2,2.4.7,9.8-4.2,1.9-11.6-32.1-5.2-53.8-11.6v-.2c0,0-4.5-14.7-4.5-14.7h.2c0-.1,31.3-20.6,31.3-20.6-.8-1.1-1.4-2.1-1.9-3-1.5-2.5-2.4-4-4.7-4.5-.7-.2-3.9.5-8.4,1.5-1.3.3-2.3.5-3.3.7-4.5,1-5.5,1.2-7.2.8-2.3-.6-3.5-1.8-5.7-4.1-.6-.6-1.2-1.2-1.9-1.9-1.3-1.3-4.2-3.8-10.1-8.6-4.4-3.7-8.3-7-12-9.7l-13.6,11-13.1,3Z"/>
                  <path class="cls-25" d="M404.9,243.7l-4.6,7.6-7.3-2.9-10.3,14.9-.5.7-2,2.9v18.7l8.6,22.9h1.2c0,0,.7-.1.7-.1l21.1-1.3,5.8,5.8h6.9l10.3-23.5.4.4,28.9,34.7,15.1,9.6h.2c0-.1.5.4.5.4h.1c0,0,9.1,1.4,9.1,1.4l-9.8-11.1,11.7-8.8-7.3-17.4,12.2-6.7-2.1-9.6,14.9,4.5,12.8-7.1,4.4-13,1.6-2.1.5-.6,10.9-14.5v-23l-5.7-18.6-9.6-4.8-4.3,7.8h-13.2l-14.6,8.7-3.3-1.6v-.2s1.5-17.2,1.5-17.2l-11.5-10.1h0c0,0-4.3-14.1-4.3-14.1-3,1.3-5.4,2.6-8,4.4-3.3,2.2-4.6,3.7-7.4,6.8-2.4,2.6-6,6.7-12.8,13.4-6.7,6.6-9.9,9.4-14.9,10.3-6.8,1.3-13.2-1.4-13.5-1.5-2.8-1.2-4.7-2.7-6.3-4-.4-.3-.7-.6-1.1-.9l-9.4,18.7,4.3,20.3Z"/>
                  <path class="cls-25" d="M490.3,200l-1.4,17.3,2.5,1.2,14.4-8.6h12.9l4.1-7.4-10.1-5v-20.5l2.1-9.9c-1.2.2-2.3.4-3.1.5-3.1.4-4.8.3-6.5.1-1.4-.1-2.8-.3-5.1-.1-5.1.3-8.5,1.5-15.7,4.3-4.1,1.6-7.3,2.8-10,4l4.3,14,11.7,10.2Z"/>
                  <path class="cls-25" d="M287.1,229.5l-12.1-2-2,12-10.4,4.5h-.1s-2.2-.7-2.2-.7l1.2,6.1-1.4,5.7,13,14.5v.2s-4.3,18.2-4.3,18.2l11.4,1.6,24.9,15.8.6.4,6.4,4.1,17.1,5.7,16-14.5h.2c0,.1,40.3,22.4,40.3,22.4l1,.5h.3c0,.1,3-14.9,3-14.9h-1.6c0,0-8.8-23.5-8.8-23.5v-18.9l2.4-3.5-5.3-13.6-12.9-14.3-24.6,2.9h-.1c0,0-14.6-8.9-14.6-8.9l-2-3.3c-1.7.9-3.7,1.6-6.2,2.3l-1.6.4c-3.3.9-5.2,1.5-7.4,1-3.2-.7-5.8-2.7-8.1-5.3l-12,5h-.1Z"/>
                  <path class="cls-25" d="M263.1,493.2l15.4,3.6,17.4,1.5,31.7,13,23.2-8.7,11.9,7.4v26.1l20,11.4h14.1l1.1-3.2.2-.7,3-9.1,12.9-7.1-11.5-24.5v-22h.2c0,0,3.3-1.6,3.3-1.6l-6.3-8.1-13.1-21.9,2.9-18.7-4.1-1.4-3.3-1.3-.7-.3-22.3-8.7-7.2-14.4-1.5.2h-.7c0,.1-6,1.1-6,1.1l-5.8,20.3h-8l3-11.8-8.4-8.4c-5.2.6-13.1,1.8-14.1,2.8-.1.1-.3.2-.5.2-2.3-.3-12.5-17.1-14.5-20.5h0v-13.3l4.2-5.7-1.4-1.6-.6-.7-7.8-9.4-1.2,5.2-10.3-13.2-12.9,18.6h-11.6l-11.6,14.5h-18.8l-17.8,22,46.7,50.4,3.3-3.3-7.3-8.8,5.5-3.7,11.1,12.6-6.2,5h14.4l1.8,7.2h-21.8l2.6,14.5h33.4v4.3l-28.7,1.4,2.7,8.2-.2.2Z"/>
                  <path class="cls-25" d="M339.4,237.5l24.7-2.9h.1c0,.1,13.1,14.7,13.1,14.7l5.1,13.2,10.3-14.9,7.2,2.9,4.1-6.9-4.3-20.3h0c0-.1,9.5-19.1,9.5-19.1-1.4-1-2.8-1.7-4.9-1.9-2.2-.2-3.7.3-7,1.4-4.9,1.6-9.7,4.8-12.8,7.1-2.4,1.8-4.2,3.4-5.6,4.6-2.9,2.6-4.6,4.1-7.8,4.2-.6,0-1.1,0-6-1.5-4.7-1.5-7.4-2.5-9.1-3.1-1.7-.6-2.6-1-3.8-1.2-4.2-.8-8,.9-15.5,4.3-4.2,1.9-7,3.6-9.4,5.1-1.4.9-2.7,1.7-4.2,2.4l2,3.1,14.3,8.6Z"/>
                  <polygon class="cls-25" points="242.1 382.3 253.1 368.6 253.5 368.1 253.5 367.8 253.5 358.3 240.9 353.6 239.7 362.7 213.3 367.1 198.9 367.1 189.1 378.4 194.5 392.1 195.2 392.1 195.2 397.9 182.1 397.9 182.1 402.3 186.5 402.3 186.5 403.7 191.3 403.7 198.8 397.6 205.2 404.6 223.2 382.3 242.1 382.3"/>
                  <polygon class="cls-25" points="440.1 423.6 432.3 423.6 425.2 442 431.3 448.6 439.2 444.6 439.3 444.6 453.6 447.5 455.9 445.2 446.2 436.5 440.1 423.6"/>
                  <polygon class="cls-25" points="431.8 449.1 444.2 462.5 407.3 479.6 410.6 483.9 419.1 495.3 427.8 492.4 446.7 511.3 455.5 514.2 461.3 528.7 475.7 533.1 481.4 537.3 490.1 537.4 493.9 529 484.9 515.6 499.8 515.6 504.2 501.3 511.4 492.6 517.5 480.3 508.6 459.9 486.9 467.1 475.3 449.7 460.8 449.7 456.4 445.7 453.9 448.3 439.3 445.4 431.8 449.1"/>
                  <polygon class="cls-25" points="454.6 397.1 447.5 388.5 451.7 384.3 431.6 371.3 431.6 356.8 424.6 352.6 417 346.9 409.2 353.9 408.3 358.3 408.1 359 406.2 368.4 394.6 382.9 386 394.5 380.3 408.7 384.6 413 382.4 427.4 385.8 428.7 390.4 430.3 387.5 449.3 400.5 470.9 406.8 479.1 443 462.3 431.1 449.5 430.6 448.9 424.3 442.2 431.8 422.9 439.7 422.9 433 408.6 454.6 397.1"/>
                  <polygon class="cls-25" points="265.2 367.8 278.4 348.8 288.4 361.6 289.4 357.3 289.6 356.4 292.7 343.4 298.4 336.2 298.4 313 304.5 306 279.8 290.3 268.6 288.7 267.8 288.6 259.5 287.4 259.4 287.4 259.2 287.2 255.5 301.8 239.7 319.1 242.6 340.7 241 352.9 254.2 357.8 254.2 367.8 265.2 367.8"/>
                  <polygon class="cls-25" points="378.9 340.7 386 352.1 388.8 359.1 401.6 356.2 407.6 358.1 408.5 353.5 416.4 346.5 412.9 343.8 406.9 328.8 420.1 325.9 420.1 313.5 417.4 313.5 411.6 307.7 390.6 309 387.4 325.3 386.9 325.1 389 330.6 378.9 340.7"/>
                  <polygon class="cls-25" points="236.2 292.6 243.5 272 258.8 285.9 259.4 286.4 259.8 286.7 268 287.9 272.3 269.8 259.2 255.3 260.7 249.4 259.4 243.1 248 239.6 230.9 242.5 209.1 273 208.7 272.9 210.6 297.5 236.2 292.6"/>
                  <path class="cls-25" d="M346.1,362.5l-5.5-5.5-12.8,5.7-17.4,4.4-11.2.9,1.4,1.7-4.4,5.9v12.8c5.9,9.8,12.7,20,14,20.1,1.4-1.5,13.3-2.8,14.6-3h.2s9,8.9,9,8.9l-2.8,11.3h6.5l5.8-20.2,6.5-1.1-2.2-18.8-4.4-8.7h0c0-.1,2.9-14.4,2.9-14.4Z"/>
                  <polygon class="cls-25" points="352.5 404 359.8 418.6 381.7 427.1 383.8 413.2 379.4 408.9 385.4 394.1 394.1 382.5 405.6 368.1 407.4 358.8 401.6 357 388.3 359.9 385.3 352.4 378 340.6 388.1 330.5 386 324.5 345.1 302 329.2 316.5 311.7 310.6 305.1 306.4 299.1 313.3 299.1 336.5 293.3 343.7 290.2 357.1 298.7 367.3 310.3 366.4 327.6 362.1 340.8 356.2 346.9 362.3 344 376.9 348.3 385.6 350.6 404.4 352.5 404"/>
                  <path class="cls-25" d="M465.3,370.6l8.8,8.8h26.9l8.3-6c.3-.5.7-1.1,1.1-1.3l.6-1.3-6.2-6.1-25.6-29.8-15.7-10-28.6-34.3-10,22.9h-4.2v13l-12.9,2.9,5.6,14,3.5,2.6.6.4,7.4,5.6,7.4,4.4v14.5l19.8,12.8,13.1-13.1Z"/>
                  <path class="cls-25" d="M490.5,538.1h-9.5c0,0-5.7-4.4-5.7-4.4l-14.6-4.4-5.8-14.5-8.7-2.9-18.7-18.7-8.7,2.9-8.8-11.8-3.4-4.4-3.2,1.5v21.4l11.7,24.9-13.2,7.3-3,8.9,7.1,3.5,34.9-2.9,4.3,11.5,15.8-7.2,13.3,7.4h0c0,.1,3.6,7.4,3.6,7.4l.2-.3h.2c0,0,23.1,6.5,23.1,6.5.3-.7.5-1.4.8-2,4-9.7,7.6-17.1,10.4-22.3l-17-7.5h-5.2Z"/>
                  <path class="cls-25" d="M562.2,442.5l-3.2-6.3,5.9-5.9v-9.6h-15.7l-10.5-9,5.8-10.1-12.7-8.5-13.1-1.5-7.2-11.6h-37.6l-8.5-8.5-12.5,12.5-.5.5-3.9,3.9,7.3,8.8-21.8,11.6,6.6,14,.3.7,5.9,12.5,9.6,8.6.5.5,4.2,3.8h14.5l11.5,17.3,21.8-7.3,9,20.5.4.9.9,2.1,23.5,15.7c4.9-6.5,10.8-13.8,17.6-21.7,4.2-4.8,11.7-13.3,22.4-24.1l-11.8-12.7-8.8,2.9Z"/>
                  <path class="cls-25" d="M518.6,482.8l-.7-1.6-5.9,11.8-7.2,8.7-4.4,14.7h-14.1l8.4,12.6-3.9,8.4h5s17.2,7.5,17.2,7.5c.3-.6.6-1.2.9-1.7,3.5-6.7,7.6-13.9,11.6-20.3,3.1-5,8.6-13.4,16.8-24.2l-23.7-15.8h0Z"/>
                  <polygon class="cls-25" points="433.1 618.6 450.5 605.6 450.5 604.3 450.5 603.5 450.5 585.3 450.6 585.2 462.2 576.5 472.3 570.7 477.5 564.3 473.7 556.8 461 549.7 444.8 557 440.5 545.3 405.9 548.2 398.7 544.6 397.5 548.2 383.4 548.2 377.2 559.8 375.2 560.1 380.3 568.1 374.5 584.1 385.3 611.2 385.6 611.9 389 620.4 380.3 629 384.4 635.9 397.6 635.9 397.6 650.4 424.4 652.8 424.4 649.1 424.5 649 428.8 643.3 429.4 641.5 429.6 640.8 431.7 634.7 433.1 618.6"/>
                  <polygon class="cls-25" points="222.3 602.9 222.3 614.1 255.6 609.7 261.8 649.8 262 650.6 262.8 656.2 272.9 657.6 273 657.8 289 686.9 280.2 700.2 274.2 707.8 283.3 717.3 275.9 727.6 283.1 772.2 295.9 789.2 310.1 770.6 323.1 767.7 327.4 753.3 339 740.3 352.1 724.3 362 721.4 358.4 712.8 358.1 712.2 347.6 686.9 347.6 669.6 340.3 659.4 344.7 649.3 339.7 639.6 339.3 638.9 322.9 607.2 331.6 598.5 323 588.5 320 575.2 320.3 575 340.6 566.4 350.8 557.6 359.6 562 374 559.6 374.8 559.4 376.7 559.1 382.6 548.2 362.1 536.5 362.1 510.4 350.8 503.3 327.7 512 295.8 498.9 278.4 497.5 262.6 493.8 257.6 500 262.6 506.2 265.5 503.2 269.2 508.8 264 514.1 246.6 499.6 229.7 516.5 221.4 528.9 225.7 533.2 223.8 538.9 217.8 534.4 212.7 542 217.1 546.3 213.5 551.7 207.7 548.8 201.1 558 208.4 568.2 206.5 570.1 212.1 582.5 222.3 602.9"/>
                  <polygon class="cls-25" points="379.5 568.2 374.4 560.2 359.5 562.7 350.9 558.4 340.9 567 320.9 575.6 323.7 588.2 332.5 598.6 323.8 607.3 339.9 638.5 347.7 633.1 355 618.5 355.1 618.5 372.6 611.2 384.5 611.2 373.7 584.1 373.7 583.9 379.5 568.2"/>
                  <polygon class="cls-25" points="358.8 711.8 372.5 703.9 379.5 703.9 379.5 691.1 397.1 673.5 397.2 673.5 424.4 670.7 424.4 653.5 396.9 651 396.9 636.6 384 636.6 379.4 628.9 388.1 620.2 384.8 611.9 372.7 611.9 355.5 619.1 348.2 633.6 340.3 639.2 345.5 649.2 341.2 659.3 348.4 669.4 348.4 686.8 358.8 711.8"/>
                  <g>
                    <path class="cls-25" d="M291.3,209.3c.5,1.2,1.1,2.6,2,4.3,1.5,3,3.6,7,6.4,10.3l.5.6c2.2,2.5,4.8,4.6,8,5.2,2.2.5,4.1,0,7.3-1l1.6-.4c2.4-.7,4.4-1.4,6.1-2.3l.6-.3c1.4-.7,2.7-1.5,4.1-2.4,2.4-1.5,5.2-3.2,9.3-5,7.5-3.3,11.2-5,15.3-4.2.6.1,1.2.3,1.8.5,0,0,0,0,0,0l5-14.8-14.4,2.9h-.7c0,.1-4.1.7-4.1.7l-8.5-15.6-8.3,2.8-17.3,7.2-7.2-4.3h-9.7s-2.2,9.8-2.2,9.8c1.9,1.7,3.5,3.8,4.5,6.1Z"/>
                    <path class="cls-25" d="M354.2,214.5s0,0,0,0c.6.2,1.2.4,2,.7,1.7.7,4.4,1.6,9,3.1,4.8,1.5,5.4,1.5,6,1.5,3.1,0,4.9-1.6,7.7-4.1,1.4-1.2,3.2-2.8,5.6-4.6,3.1-2.3,7.8-5.4,12.7-7.1,3.3-1.1,4.7-1.6,6.9-1.4,2.1.2,3.5.9,4.8,1.9l.6.4c.4.3.7.6,1.1.9,1.6,1.3,3.4,2.8,6.2,3.9.2,0,4.3,1.8,9.3,1.8.8-.3,1.6-.6,2.4-.7.7,0,1.6,0,2.5.1,4.4-1.1,7.6-3.9,13.8-10,6.8-6.7,10.3-10.6,12.7-13.2,2.8-3.1,4.1-4.5,7.3-6.7,2.5-1.7,4.9-3,7.9-4.3l.3.9c1.2-.7,2.5-1.4,3.9-2l-1.5-5.3-4-6.7-6.9,5.5h-8.5l-10,8.6h-8.4l-2.9,11.4h-17.6l-4.3-5.7-15.9-1.4v-4.4l-9.7-5.6h-9.8l-18.4,12.7-4.3,10-9.9,2.8v5.1l14.4-2.9-5,14.8Z"/>
                  </g>
                </g>
                <g>
                  <path class="cls-16" d="M188.9,210l53.4,11.5,32.1,5.2h.7c0,.1,12,2.1,12,2.1l11.6-4.8c-2.8-3.4-4.9-7.5-6.4-10.4-.9-1.8-1.5-3.2-2-4.4-1-2.4-1.7-3.9-3.6-5.5-1.3-1.2-4.6-2.3-9.9-4.2-8.4-3-12.4-4.3-15.7-4.3-2.2,0-4.5,0-6.9,1.4-1,.6-1.6,1.1-2.2,1.7-.7.6-1.3,1.2-2.5,1.3-1.9.1-3.1-1.2-4.7-2.9-.9-.9-1.8-2-3.1-3.1-1.7-1.4-2.9-1.9-4.7-2.6-1-.4-2.2-.9-3.8-1.6-2.3-1.1-9.2-4.4-14.7-10.3-1.1-1.2-2-2.3-2.7-3.3l-31.1,20.3,4.2,14Z"/>
                  <path class="cls-16" d="M133.6,160.1l-4,24,20.4,16-5.7,7.1,14.2,4.3v26.7h-5.7l5.6,16.8,15.6,14.2,10.1-7.2,6.9,6.2v-.4l16.8,4.2.7.2h0s21.7-30.3,21.7-30.3l17.6-2.9h0s11.1,3.4,11.1,3.4l.8.2,2.4.7,9.8-4.2,1.9-11.6-32.1-5.2-53.8-11.6v-.2c0,0-4.5-14.7-4.5-14.7h.2c0-.1,31.3-20.6,31.3-20.6-.8-1.1-1.4-2.1-1.9-3-1.5-2.5-2.4-4-4.7-4.5-.7-.2-3.9.5-8.4,1.5-1.3.3-2.3.5-3.3.7-4.5,1-5.5,1.2-7.2.8-2.3-.6-3.5-1.8-5.7-4.1-.6-.6-1.2-1.2-1.9-1.9-1.3-1.3-4.2-3.8-10.1-8.6-4.4-3.7-8.3-7-12-9.7l-13.6,11-13.1,3Z"/>
                  <path class="cls-16" d="M404.9,243.7l-4.6,7.6-7.3-2.9-10.3,14.9-.5.7-2,2.9v18.7l8.6,22.9h1.2c0,0,.7-.1.7-.1l21.1-1.3,5.8,5.8h6.9l10.3-23.5.4.4,28.9,34.7,15.1,9.6h.2c0-.1.5.4.5.4h.1c0,0,9.1,1.4,9.1,1.4l-9.8-11.1,11.7-8.8-7.3-17.4,12.2-6.7-2.1-9.6,14.9,4.5,12.8-7.1,4.4-13,1.6-2.1.5-.6,10.9-14.5v-23l-5.7-18.6-9.6-4.8-4.3,7.8h-13.2l-14.6,8.7-3.3-1.6v-.2s1.5-17.2,1.5-17.2l-11.5-10.1h0c0,0-4.3-14.1-4.3-14.1-3,1.3-5.4,2.6-8,4.4-3.3,2.2-4.6,3.7-7.4,6.8-2.4,2.6-6,6.7-12.8,13.4-6.7,6.6-9.9,9.4-14.9,10.3-6.8,1.3-13.2-1.4-13.5-1.5-2.8-1.2-4.7-2.7-6.3-4-.4-.3-.7-.6-1.1-.9l-9.4,18.7,4.3,20.3Z"/>
                  <path class="cls-16" d="M490.3,200l-1.4,17.3,2.5,1.2,14.4-8.6h12.9l4.1-7.4-10.1-5v-20.5l2.1-9.9c-1.2.2-2.3.4-3.1.5-3.1.4-4.8.3-6.5.1-1.4-.1-2.8-.3-5.1-.1-5.1.3-8.5,1.5-15.7,4.3-4.1,1.6-7.3,2.8-10,4l4.3,14,11.7,10.2Z"/>
                  <path class="cls-7" d="M287.1,229.5l-12.1-2-2,12-10.4,4.5h-.1s-2.2-.7-2.2-.7l1.2,6.1-1.4,5.7,13,14.5v.2s-4.3,18.2-4.3,18.2l11.4,1.6,24.9,15.8.6.4,6.4,4.1,17.1,5.7,16-14.5h.2c0,.1,40.3,22.4,40.3,22.4l1,.5h.3c0,.1,3-14.9,3-14.9h-1.6c0,0-8.8-23.5-8.8-23.5v-18.9l2.4-3.5-5.3-13.6-12.9-14.3-24.6,2.9h-.1c0,0-14.6-8.9-14.6-8.9l-2-3.3c-1.7.9-3.7,1.6-6.2,2.3l-1.6.4c-3.3.9-5.2,1.5-7.4,1-3.2-.7-5.8-2.7-8.1-5.3l-12,5h-.1Z"/>
                  <path class="cls-13" d="M263.1,493.2l15.4,3.6,17.4,1.5,31.7,13,23.2-8.7,11.9,7.4v26.1l20,11.4h14.1l1.1-3.2.2-.7,3-9.1,12.9-7.1-11.5-24.5v-22h.2c0,0,3.3-1.6,3.3-1.6l-6.3-8.1-13.1-21.9,2.9-18.7-4.1-1.4-3.3-1.3-.7-.3-22.3-8.7-7.2-14.4-1.5.2h-.7c0,.1-6,1.1-6,1.1l-5.8,20.3h-8l3-11.8-8.4-8.4c-5.2.6-13.1,1.8-14.1,2.8-.1.1-.3.2-.5.2-2.3-.3-12.5-17.1-14.5-20.5h0v-13.3l4.2-5.7-1.4-1.6-.6-.7-7.8-9.4-1.2,5.2-10.3-13.2-12.9,18.6h-11.6l-11.6,14.5h-18.8l-17.8,22,46.7,50.4,3.3-3.3-7.3-8.8,5.5-3.7,11.1,12.6-6.2,5h14.4l1.8,7.2h-21.8l2.6,14.5h33.4v4.3l-28.7,1.4,2.7,8.2-.2.2Z"/>
                  <path class="cls-16" d="M339.4,237.5l24.7-2.9h.1c0,.1,13.1,14.7,13.1,14.7l5.1,13.2,10.3-14.9,7.2,2.9,4.1-6.9-4.3-20.3h0c0-.1,9.5-19.1,9.5-19.1-1.4-1-2.8-1.7-4.9-1.9-2.2-.2-3.7.3-7,1.4-4.9,1.6-9.7,4.8-12.8,7.1-2.4,1.8-4.2,3.4-5.6,4.6-2.9,2.6-4.6,4.1-7.8,4.2-.6,0-1.1,0-6-1.5-4.7-1.5-7.4-2.5-9.1-3.1-1.7-.6-2.6-1-3.8-1.2-4.2-.8-8,.9-15.5,4.3-4.2,1.9-7,3.6-9.4,5.1-1.4.9-2.7,1.7-4.2,2.4l2,3.1,14.3,8.6Z"/>
                  <polygon class="cls-4" points="242.1 382.3 253.1 368.6 253.5 368.1 253.5 367.8 253.5 358.3 240.9 353.6 239.7 362.7 213.3 367.1 198.9 367.1 189.1 378.4 194.5 392.1 195.2 392.1 195.2 397.9 182.1 397.9 182.1 402.3 186.5 402.3 186.5 403.7 191.3 403.7 198.8 397.6 205.2 404.6 223.2 382.3 242.1 382.3"/>
                  <polygon class="cls-16" points="440.1 423.6 432.3 423.6 425.2 442 431.3 448.6 439.2 444.6 439.3 444.6 453.6 447.5 455.9 445.2 446.2 436.5 440.1 423.6"/>
                  <polygon class="cls-16" points="431.8 449.1 444.2 462.5 407.3 479.6 410.6 483.9 419.1 495.3 427.8 492.4 446.7 511.3 455.5 514.2 461.3 528.7 475.7 533.1 481.4 537.3 490.1 537.4 493.9 529 484.9 515.6 499.8 515.6 504.2 501.3 511.4 492.6 517.5 480.3 508.6 459.9 486.9 467.1 475.3 449.7 460.8 449.7 456.4 445.7 453.9 448.3 439.3 445.4 431.8 449.1"/>
                  <polygon class="cls-16" points="454.6 397.1 447.5 388.5 451.7 384.3 431.6 371.3 431.6 356.8 424.6 352.6 417 346.9 409.2 353.9 408.3 358.3 408.1 359 406.2 368.4 394.6 382.9 386 394.5 380.3 408.7 384.6 413 382.4 427.4 385.8 428.7 390.4 430.3 387.5 449.3 400.5 470.9 406.8 479.1 443 462.3 431.1 449.5 430.6 448.9 424.3 442.2 431.8 422.9 439.7 422.9 433 408.6 454.6 397.1"/>
                  <polygon class="cls-13" points="265.2 367.8 278.4 348.8 288.4 361.6 289.4 357.3 289.6 356.4 292.7 343.4 298.4 336.2 298.4 313 304.5 306 279.8 290.3 268.6 288.7 267.8 288.6 259.5 287.4 259.4 287.4 259.2 287.2 255.5 301.8 239.7 319.1 242.6 340.7 241 352.9 254.2 357.8 254.2 367.8 265.2 367.8"/>
                  <polygon class="cls-7" points="378.9 340.7 386 352.1 388.8 359.1 401.6 356.2 407.6 358.1 408.5 353.5 416.4 346.5 412.9 343.8 406.9 328.8 420.1 325.9 420.1 313.5 417.4 313.5 411.6 307.7 390.6 309 387.4 325.3 386.9 325.1 389 330.6 378.9 340.7"/>
                  <polygon class="cls-16" points="236.2 292.6 243.5 272 258.8 285.9 259.4 286.4 259.8 286.7 268 287.9 272.3 269.8 259.2 255.3 260.7 249.4 259.4 243.1 248 239.6 230.9 242.5 209.1 273 208.7 272.9 210.6 297.5 236.2 292.6"/>
                  <path class="cls-7" d="M346.1,362.5l-5.5-5.5-12.8,5.7-17.4,4.4-11.2.9,1.4,1.7-4.4,5.9v12.8c5.9,9.8,12.7,20,14,20.1,1.4-1.5,13.3-2.8,14.6-3h.2s9,8.9,9,8.9l-2.8,11.3h6.5l5.8-20.2,6.5-1.1-2.2-18.8-4.4-8.7h0c0-.1,2.9-14.4,2.9-14.4Z"/>
                  <polygon class="cls-7" points="352.5 404 359.8 418.6 381.7 427.1 383.8 413.2 379.4 408.9 385.4 394.1 394.1 382.5 405.6 368.1 407.4 358.8 401.6 357 388.3 359.9 385.3 352.4 378 340.6 388.1 330.5 386 324.5 345.1 302 329.2 316.5 311.7 310.6 305.1 306.4 299.1 313.3 299.1 336.5 293.3 343.7 290.2 357.1 298.7 367.3 310.3 366.4 327.6 362.1 340.8 356.2 346.9 362.3 344 376.9 348.3 385.6 350.6 404.4 352.5 404"/>
                  <path class="cls-16" d="M465.3,370.6l8.8,8.8h26.9l8.3-6c.3-.5.7-1.1,1.1-1.3l.6-1.3-6.2-6.1-25.6-29.8-15.7-10-28.6-34.3-10,22.9h-4.2v13l-12.9,2.9,5.6,14,3.5,2.6.6.4,7.4,5.6,7.4,4.4v14.5l19.8,12.8,13.1-13.1Z"/>
                  <path class="cls-16" d="M490.5,538.1h-9.5c0,0-5.7-4.4-5.7-4.4l-14.6-4.4-5.8-14.5-8.7-2.9-18.7-18.7-8.7,2.9-8.8-11.8-3.4-4.4-3.2,1.5v21.4l11.7,24.9-13.2,7.3-3,8.9,7.1,3.5,34.9-2.9,4.3,11.5,15.8-7.2,13.3,7.4h0c0,.1,3.6,7.4,3.6,7.4l.2-.3h.2c0,0,23.1,6.5,23.1,6.5.3-.7.5-1.4.8-2,4-9.7,7.6-17.1,10.4-22.3l-17-7.5h-5.2Z"/>
                  <path class="cls-16" d="M562.2,442.5l-3.2-6.3,5.9-5.9v-9.6h-15.7l-10.5-9,5.8-10.1-12.7-8.5-13.1-1.5-7.2-11.6h-37.6l-8.5-8.5-12.5,12.5-.5.5-3.9,3.9,7.3,8.8-21.8,11.6,6.6,14,.3.7,5.9,12.5,9.6,8.6.5.5,4.2,3.8h14.5l11.5,17.3,21.8-7.3,9,20.5.4.9.9,2.1,23.5,15.7c4.9-6.5,10.8-13.8,17.6-21.7,4.2-4.8,11.7-13.3,22.4-24.1l-11.8-12.7-8.8,2.9Z"/>
                  <path class="cls-16" d="M518.6,482.8l-.7-1.6-5.9,11.8-7.2,8.7-4.4,14.7h-14.1l8.4,12.6-3.9,8.4h5s17.2,7.5,17.2,7.5c.3-.6.6-1.2.9-1.7,3.5-6.7,7.6-13.9,11.6-20.3,3.1-5,8.6-13.4,16.8-24.2l-23.7-15.8h0Z"/>
                  <polygon class="cls-16" points="433.1 618.6 450.5 605.6 450.5 604.3 450.5 603.5 450.5 585.3 450.6 585.2 462.2 576.5 472.3 570.7 477.5 564.3 473.7 556.8 461 549.7 444.8 557 440.5 545.3 405.9 548.2 398.7 544.6 397.5 548.2 383.4 548.2 377.2 559.8 375.2 560.1 380.3 568.1 374.5 584.1 385.3 611.2 385.6 611.9 389 620.4 380.3 629 384.4 635.9 397.6 635.9 397.6 650.4 424.4 652.8 424.4 649.1 424.5 649 428.8 643.3 429.4 641.5 429.6 640.8 431.7 634.7 433.1 618.6"/>
                  <polygon class="cls-16" points="222.3 602.9 222.3 614.1 255.6 609.7 261.8 649.8 262 650.6 262.8 656.2 272.9 657.6 273 657.8 289 686.9 280.2 700.2 274.2 707.8 283.3 717.3 275.9 727.6 283.1 772.2 295.9 789.2 310.1 770.6 323.1 767.7 327.4 753.3 339 740.3 352.1 724.3 362 721.4 358.4 712.8 358.1 712.2 347.6 686.9 347.6 669.6 340.3 659.4 344.7 649.3 339.7 639.6 339.3 638.9 322.9 607.2 331.6 598.5 323 588.5 320 575.2 320.3 575 340.6 566.4 350.8 557.6 359.6 562 374 559.6 374.8 559.4 376.7 559.1 382.6 548.2 362.1 536.5 362.1 510.4 350.8 503.3 327.7 512 295.8 498.9 278.4 497.5 262.6 493.8 257.6 500 262.6 506.2 265.5 503.2 269.2 508.8 264 514.1 246.6 499.6 229.7 516.5 221.4 528.9 225.7 533.2 223.8 538.9 217.8 534.4 212.7 542 217.1 546.3 213.5 551.7 207.7 548.8 201.1 558 208.4 568.2 206.5 570.1 212.1 582.5 222.3 602.9"/>
                  <polygon class="cls-16" points="379.5 568.2 374.4 560.2 359.5 562.7 350.9 558.4 340.9 567 320.9 575.6 323.7 588.2 332.5 598.6 323.8 607.3 339.9 638.5 347.7 633.1 355 618.5 355.1 618.5 372.6 611.2 384.5 611.2 373.7 584.1 373.7 583.9 379.5 568.2"/>
                  <polygon class="cls-16" points="358.8 711.8 372.5 703.9 379.5 703.9 379.5 691.1 397.1 673.5 397.2 673.5 424.4 670.7 424.4 653.5 396.9 651 396.9 636.6 384 636.6 379.4 628.9 388.1 620.2 384.8 611.9 372.7 611.9 355.5 619.1 348.2 633.6 340.3 639.2 345.5 649.2 341.2 659.3 348.4 669.4 348.4 686.8 358.8 711.8"/>
                  <g>
                    <path class="cls-15" d="M291.3,209.3c.5,1.2,1.1,2.6,2,4.3,1.5,3,3.6,7,6.4,10.3l.5.6c2.2,2.5,4.8,4.6,8,5.2,2.2.5,4.1,0,7.3-1l1.6-.4c2.4-.7,4.4-1.4,6.1-2.3l.6-.3c1.4-.7,2.7-1.5,4.1-2.4,2.4-1.5,5.2-3.2,9.3-5,7.5-3.3,11.2-5,15.3-4.2.6.1,1.2.3,1.8.5,0,0,0,0,0,0l5-14.8-14.4,2.9h-.7c0,.1-4.1.7-4.1.7l-8.5-15.6-8.3,2.8-17.3,7.2-7.2-4.3h-9.7s-2.2,9.8-2.2,9.8c1.9,1.7,3.5,3.8,4.5,6.1Z"/>
                    <path class="cls-15" d="M354.2,214.5s0,0,0,0c.6.2,1.2.4,2,.7,1.7.7,4.4,1.6,9,3.1,4.8,1.5,5.4,1.5,6,1.5,3.1,0,4.9-1.6,7.7-4.1,1.4-1.2,3.2-2.8,5.6-4.6,3.1-2.3,7.8-5.4,12.7-7.1,3.3-1.1,4.7-1.6,6.9-1.4,2.1.2,3.5.9,4.8,1.9l.6.4c.4.3.7.6,1.1.9,1.6,1.3,3.4,2.8,6.2,3.9.2,0,4.3,1.8,9.3,1.8.8-.3,1.6-.6,2.4-.7.7,0,1.6,0,2.5.1,4.4-1.1,7.6-3.9,13.8-10,6.8-6.7,10.3-10.6,12.7-13.2,2.8-3.1,4.1-4.5,7.3-6.7,2.5-1.7,4.9-3,7.9-4.3l.3.9c1.2-.7,2.5-1.4,3.9-2l-1.5-5.3-4-6.7-6.9,5.5h-8.5l-10,8.6h-8.4l-2.9,11.4h-17.6l-4.3-5.7-15.9-1.4v-4.4l-9.7-5.6h-9.8l-18.4,12.7-4.3,10-9.9,2.8v5.1l14.4-2.9-5,14.8Z"/>
                  </g>
                </g>
                <g>
                  <path class="cls-2" d="M188.9,210l53.4,11.5,32.1,5.2h.7c0,.1,12,2.1,12,2.1l11.6-4.8c-2.8-3.4-4.9-7.5-6.4-10.4-.9-1.8-1.5-3.2-2-4.4-1-2.4-1.7-3.9-3.6-5.5-1.3-1.2-4.6-2.3-9.9-4.2-8.4-3-12.4-4.3-15.7-4.3-2.2,0-4.5,0-6.9,1.4-1,.6-1.6,1.1-2.2,1.7-.7.6-1.3,1.2-2.5,1.3-1.9.1-3.1-1.2-4.7-2.9-.9-.9-1.8-2-3.1-3.1-1.7-1.4-2.9-1.9-4.7-2.6-1-.4-2.2-.9-3.8-1.6-2.3-1.1-9.2-4.4-14.7-10.3-1.1-1.2-2-2.3-2.7-3.3l-31.1,20.3,4.2,14Z"/>
                  <path class="cls-2" d="M133.6,160.1l-4,24,20.4,16-5.7,7.1,14.2,4.3v26.7h-5.7l5.6,16.8,15.6,14.2,10.1-7.2,6.9,6.2v-.4l16.8,4.2.7.2h0s21.7-30.3,21.7-30.3l17.6-2.9h0s11.1,3.4,11.1,3.4l.8.2,2.4.7,9.8-4.2,1.9-11.6-32.1-5.2-53.8-11.6v-.2c0,0-4.5-14.7-4.5-14.7h.2c0-.1,31.3-20.6,31.3-20.6-.8-1.1-1.4-2.1-1.9-3-1.5-2.5-2.4-4-4.7-4.5-.7-.2-3.9.5-8.4,1.5-1.3.3-2.3.5-3.3.7-4.5,1-5.5,1.2-7.2.8-2.3-.6-3.5-1.8-5.7-4.1-.6-.6-1.2-1.2-1.9-1.9-1.3-1.3-4.2-3.8-10.1-8.6-4.4-3.7-8.3-7-12-9.7l-13.6,11-13.1,3Z"/>
                  <path class="cls-2" d="M404.9,243.7l-4.6,7.6-7.3-2.9-10.3,14.9-.5.7-2,2.9v18.7l8.6,22.9h1.2c0,0,.7-.1.7-.1l21.1-1.3,5.8,5.8h6.9l10.3-23.5.4.4,28.9,34.7,15.1,9.6h.2c0-.1.5.4.5.4h.1c0,0,9.1,1.4,9.1,1.4l-9.8-11.1,11.7-8.8-7.3-17.4,12.2-6.7-2.1-9.6,14.9,4.5,12.8-7.1,4.4-13,1.6-2.1.5-.6,10.9-14.5v-23l-5.7-18.6-9.6-4.8-4.3,7.8h-13.2l-14.6,8.7-3.3-1.6v-.2s1.5-17.2,1.5-17.2l-11.5-10.1h0c0,0-4.3-14.1-4.3-14.1-3,1.3-5.4,2.6-8,4.4-3.3,2.2-4.6,3.7-7.4,6.8-2.4,2.6-6,6.7-12.8,13.4-6.7,6.6-9.9,9.4-14.9,10.3-6.8,1.3-13.2-1.4-13.5-1.5-2.8-1.2-4.7-2.7-6.3-4-.4-.3-.7-.6-1.1-.9l-9.4,18.7,4.3,20.3Z"/>
                  <path class="cls-2" d="M490.3,200l-1.4,17.3,2.5,1.2,14.4-8.6h12.9l4.1-7.4-10.1-5v-20.5l2.1-9.9c-1.2.2-2.3.4-3.1.5-3.1.4-4.8.3-6.5.1-1.4-.1-2.8-.3-5.1-.1-5.1.3-8.5,1.5-15.7,4.3-4.1,1.6-7.3,2.8-10,4l4.3,14,11.7,10.2Z"/>
                  <path class="cls-2" d="M287.1,229.5l-12.1-2-2,12-10.4,4.5h-.1s-2.2-.7-2.2-.7l1.2,6.1-1.4,5.7,13,14.5v.2s-4.3,18.2-4.3,18.2l11.4,1.6,24.9,15.8.6.4,6.4,4.1,17.1,5.7,16-14.5h.2c0,.1,40.3,22.4,40.3,22.4l1,.5h.3c0,.1,3-14.9,3-14.9h-1.6c0,0-8.8-23.5-8.8-23.5v-18.9l2.4-3.5-5.3-13.6-12.9-14.3-24.6,2.9h-.1c0,0-14.6-8.9-14.6-8.9l-2-3.3c-1.7.9-3.7,1.6-6.2,2.3l-1.6.4c-3.3.9-5.2,1.5-7.4,1-3.2-.7-5.8-2.7-8.1-5.3l-12,5h-.1Z"/>
                  <path class="cls-2" d="M263.1,493.2l15.4,3.6,17.4,1.5,31.7,13,23.2-8.7,11.9,7.4v26.1l20,11.4h14.1l1.1-3.2.2-.7,3-9.1,12.9-7.1-11.5-24.5v-22h.2c0,0,3.3-1.6,3.3-1.6l-6.3-8.1-13.1-21.9,2.9-18.7-4.1-1.4-3.3-1.3-.7-.3-22.3-8.7-7.2-14.4-1.5.2h-.7c0,.1-6,1.1-6,1.1l-5.8,20.3h-8l3-11.8-8.4-8.4c-5.2.6-13.1,1.8-14.1,2.8-.1.1-.3.2-.5.2-2.3-.3-12.5-17.1-14.5-20.5h0v-13.3l4.2-5.7-1.4-1.6-.6-.7-7.8-9.4-1.2,5.2-10.3-13.2-12.9,18.6h-11.6l-11.6,14.5h-18.8l-17.8,22,46.7,50.4,3.3-3.3-7.3-8.8,5.5-3.7,11.1,12.6-6.2,5h14.4l1.8,7.2h-21.8l2.6,14.5h33.4v4.3l-28.7,1.4,2.7,8.2-.2.2Z"/>
                  <path class="cls-2" d="M339.4,237.5l24.7-2.9h.1c0,.1,13.1,14.7,13.1,14.7l5.1,13.2,10.3-14.9,7.2,2.9,4.1-6.9-4.3-20.3h0c0-.1,9.5-19.1,9.5-19.1-1.4-1-2.8-1.7-4.9-1.9-2.2-.2-3.7.3-7,1.4-4.9,1.6-9.7,4.8-12.8,7.1-2.4,1.8-4.2,3.4-5.6,4.6-2.9,2.6-4.6,4.1-7.8,4.2-.6,0-1.1,0-6-1.5-4.7-1.5-7.4-2.5-9.1-3.1-1.7-.6-2.6-1-3.8-1.2-4.2-.8-8,.9-15.5,4.3-4.2,1.9-7,3.6-9.4,5.1-1.4.9-2.7,1.7-4.2,2.4l2,3.1,14.3,8.6Z"/>
                  <polygon class="cls-2" points="242.1 382.3 253.1 368.6 253.5 368.1 253.5 367.8 253.5 358.3 240.9 353.6 239.7 362.7 213.3 367.1 198.9 367.1 189.1 378.4 194.5 392.1 195.2 392.1 195.2 397.9 182.1 397.9 182.1 402.3 186.5 402.3 186.5 403.7 191.3 403.7 198.8 397.6 205.2 404.6 223.2 382.3 242.1 382.3"/>
                  <polygon class="cls-2" points="440.1 423.6 432.3 423.6 425.2 442 431.3 448.6 439.2 444.6 439.3 444.6 453.6 447.5 455.9 445.2 446.2 436.5 440.1 423.6"/>
                  <polygon class="cls-2" points="431.8 449.1 444.2 462.5 407.3 479.6 410.6 483.9 419.1 495.3 427.8 492.4 446.7 511.3 455.5 514.2 461.3 528.7 475.7 533.1 481.4 537.3 490.1 537.4 493.9 529 484.9 515.6 499.8 515.6 504.2 501.3 511.4 492.6 517.5 480.3 508.6 459.9 486.9 467.1 475.3 449.7 460.8 449.7 456.4 445.7 453.9 448.3 439.3 445.4 431.8 449.1"/>
                  <polygon class="cls-2" points="454.6 397.1 447.5 388.5 451.7 384.3 431.6 371.3 431.6 356.8 424.6 352.6 417 346.9 409.2 353.9 408.3 358.3 408.1 359 406.2 368.4 394.6 382.9 386 394.5 380.3 408.7 384.6 413 382.4 427.4 385.8 428.7 390.4 430.3 387.5 449.3 400.5 470.9 406.8 479.1 443 462.3 431.1 449.5 430.6 448.9 424.3 442.2 431.8 422.9 439.7 422.9 433 408.6 454.6 397.1"/>
                  <polygon class="cls-2" points="265.2 367.8 278.4 348.8 288.4 361.6 289.4 357.3 289.6 356.4 292.7 343.4 298.4 336.2 298.4 313 304.5 306 279.8 290.3 268.6 288.7 267.8 288.6 259.5 287.4 259.4 287.4 259.2 287.2 255.5 301.8 239.7 319.1 242.6 340.7 241 352.9 254.2 357.8 254.2 367.8 265.2 367.8"/>
                  <polygon class="cls-2" points="378.9 340.7 386 352.1 388.8 359.1 401.6 356.2 407.6 358.1 408.5 353.5 416.4 346.5 412.9 343.8 406.9 328.8 420.1 325.9 420.1 313.5 417.4 313.5 411.6 307.7 390.6 309 387.4 325.3 386.9 325.1 389 330.6 378.9 340.7"/>
                  <polygon class="cls-2" points="236.2 292.6 243.5 272 258.8 285.9 259.4 286.4 259.8 286.7 268 287.9 272.3 269.8 259.2 255.3 260.7 249.4 259.4 243.1 248 239.6 230.9 242.5 209.1 273 208.7 272.9 210.6 297.5 236.2 292.6"/>
                  <path class="cls-2" d="M346.1,362.5l-5.5-5.5-12.8,5.7-17.4,4.4-11.2.9,1.4,1.7-4.4,5.9v12.8c5.9,9.8,12.7,20,14,20.1,1.4-1.5,13.3-2.8,14.6-3h.2s9,8.9,9,8.9l-2.8,11.3h6.5l5.8-20.2,6.5-1.1-2.2-18.8-4.4-8.7h0c0-.1,2.9-14.4,2.9-14.4Z"/>
                  <polygon class="cls-2" points="352.5 404 359.8 418.6 381.7 427.1 383.8 413.2 379.4 408.9 385.4 394.1 394.1 382.5 405.6 368.1 407.4 358.8 401.6 357 388.3 359.9 385.3 352.4 378 340.6 388.1 330.5 386 324.5 345.1 302 329.2 316.5 311.7 310.6 305.1 306.4 299.1 313.3 299.1 336.5 293.3 343.7 290.2 357.1 298.7 367.3 310.3 366.4 327.6 362.1 340.8 356.2 346.9 362.3 344 376.9 348.3 385.6 350.6 404.4 352.5 404"/>
                  <path class="cls-2" d="M465.3,370.6l8.8,8.8h26.9l8.3-6c.3-.5.7-1.1,1.1-1.3l.6-1.3-6.2-6.1-25.6-29.8-15.7-10-28.6-34.3-10,22.9h-4.2v13l-12.9,2.9,5.6,14,3.5,2.6.6.4,7.4,5.6,7.4,4.4v14.5l19.8,12.8,13.1-13.1Z"/>
                  <path class="cls-2" d="M490.5,538.1h-9.5c0,0-5.7-4.4-5.7-4.4l-14.6-4.4-5.8-14.5-8.7-2.9-18.7-18.7-8.7,2.9-8.8-11.8-3.4-4.4-3.2,1.5v21.4l11.7,24.9-13.2,7.3-3,8.9,7.1,3.5,34.9-2.9,4.3,11.5,15.8-7.2,13.3,7.4h0c0,.1,3.6,7.4,3.6,7.4l.2-.3h.2c0,0,23.1,6.5,23.1,6.5.3-.7.5-1.4.8-2,4-9.7,7.6-17.1,10.4-22.3l-17-7.5h-5.2Z"/>
                  <path class="cls-2" d="M562.2,442.5l-3.2-6.3,5.9-5.9v-9.6h-15.7l-10.5-9,5.8-10.1-12.7-8.5-13.1-1.5-7.2-11.6h-37.6l-8.5-8.5-12.5,12.5-.5.5-3.9,3.9,7.3,8.8-21.8,11.6,6.6,14,.3.7,5.9,12.5,9.6,8.6.5.5,4.2,3.8h14.5l11.5,17.3,21.8-7.3,9,20.5.4.9.9,2.1,23.5,15.7c4.9-6.5,10.8-13.8,17.6-21.7,4.2-4.8,11.7-13.3,22.4-24.1l-11.8-12.7-8.8,2.9Z"/>
                  <path class="cls-2" d="M518.6,482.8l-.7-1.6-5.9,11.8-7.2,8.7-4.4,14.7h-14.1l8.4,12.6-3.9,8.4h5s17.2,7.5,17.2,7.5c.3-.6.6-1.2.9-1.7,3.5-6.7,7.6-13.9,11.6-20.3,3.1-5,8.6-13.4,16.8-24.2l-23.7-15.8h0Z"/>
                  <polygon class="cls-2" points="433.1 618.6 450.5 605.6 450.5 604.3 450.5 603.5 450.5 585.3 450.6 585.2 462.2 576.5 472.3 570.7 477.5 564.3 473.7 556.8 461 549.7 444.8 557 440.5 545.3 405.9 548.2 398.7 544.6 397.5 548.2 383.4 548.2 377.2 559.8 375.2 560.1 380.3 568.1 374.5 584.1 385.3 611.2 385.6 611.9 389 620.4 380.3 629 384.4 635.9 397.6 635.9 397.6 650.4 424.4 652.8 424.4 649.1 424.5 649 428.8 643.3 429.4 641.5 429.6 640.8 431.7 634.7 433.1 618.6"/>
                  <polygon class="cls-2" points="222.3 602.9 222.3 614.1 255.6 609.7 261.8 649.8 262 650.6 262.8 656.2 272.9 657.6 273 657.8 289 686.9 280.2 700.2 274.2 707.8 283.3 717.3 275.9 727.6 283.1 772.2 295.9 789.2 310.1 770.6 323.1 767.7 327.4 753.3 339 740.3 352.1 724.3 362 721.4 358.4 712.8 358.1 712.2 347.6 686.9 347.6 669.6 340.3 659.4 344.7 649.3 339.7 639.6 339.3 638.9 322.9 607.2 331.6 598.5 323 588.5 320 575.2 320.3 575 340.6 566.4 350.8 557.6 359.6 562 374 559.6 374.8 559.4 376.7 559.1 382.6 548.2 362.1 536.5 362.1 510.4 350.8 503.3 327.7 512 295.8 498.9 278.4 497.5 262.6 493.8 257.6 500 262.6 506.2 265.5 503.2 269.2 508.8 264 514.1 246.6 499.6 229.7 516.5 221.4 528.9 225.7 533.2 223.8 538.9 217.8 534.4 212.7 542 217.1 546.3 213.5 551.7 207.7 548.8 201.1 558 208.4 568.2 206.5 570.1 212.1 582.5 222.3 602.9"/>
                  <polygon class="cls-2" points="379.5 568.2 374.4 560.2 359.5 562.7 350.9 558.4 340.9 567 320.9 575.6 323.7 588.2 332.5 598.6 323.8 607.3 339.9 638.5 347.7 633.1 355 618.5 355.1 618.5 372.6 611.2 384.5 611.2 373.7 584.1 373.7 583.9 379.5 568.2"/>
                  <polygon class="cls-2" points="358.8 711.8 372.5 703.9 379.5 703.9 379.5 691.1 397.1 673.5 397.2 673.5 424.4 670.7 424.4 653.5 396.9 651 396.9 636.6 384 636.6 379.4 628.9 388.1 620.2 384.8 611.9 372.7 611.9 355.5 619.1 348.2 633.6 340.3 639.2 345.5 649.2 341.2 659.3 348.4 669.4 348.4 686.8 358.8 711.8"/>
                  <g>
                    <path class="cls-2" d="M291.3,209.3c.5,1.2,1.1,2.6,2,4.3,1.5,3,3.6,7,6.4,10.3l.5.6c2.2,2.5,4.8,4.6,8,5.2,2.2.5,4.1,0,7.3-1l1.6-.4c2.4-.7,4.4-1.4,6.1-2.3l.6-.3c1.4-.7,2.7-1.5,4.1-2.4,2.4-1.5,5.2-3.2,9.3-5,7.5-3.3,11.2-5,15.3-4.2.6.1,1.2.3,1.8.5,0,0,0,0,0,0l5-14.8-14.4,2.9h-.7c0,.1-4.1.7-4.1.7l-8.5-15.6-8.3,2.8-17.3,7.2-7.2-4.3h-9.7s-2.2,9.8-2.2,9.8c1.9,1.7,3.5,3.8,4.5,6.1Z"/>
                    <path class="cls-2" d="M354.2,214.5s0,0,0,0c.6.2,1.2.4,2,.7,1.7.7,4.4,1.6,9,3.1,4.8,1.5,5.4,1.5,6,1.5,3.1,0,4.9-1.6,7.7-4.1,1.4-1.2,3.2-2.8,5.6-4.6,3.1-2.3,7.8-5.4,12.7-7.1,3.3-1.1,4.7-1.6,6.9-1.4,2.1.2,3.5.9,4.8,1.9l.6.4c.4.3.7.6,1.1.9,1.6,1.3,3.4,2.8,6.2,3.9.2,0,4.3,1.8,9.3,1.8.8-.3,1.6-.6,2.4-.7.7,0,1.6,0,2.5.1,4.4-1.1,7.6-3.9,13.8-10,6.8-6.7,10.3-10.6,12.7-13.2,2.8-3.1,4.1-4.5,7.3-6.7,2.5-1.7,4.9-3,7.9-4.3l.3.9c1.2-.7,2.5-1.4,3.9-2l-1.5-5.3-4-6.7-6.9,5.5h-8.5l-10,8.6h-8.4l-2.9,11.4h-17.6l-4.3-5.7-15.9-1.4v-4.4l-9.7-5.6h-9.8l-18.4,12.7-4.3,10-9.9,2.8v5.1l14.4-2.9-5,14.8Z"/>
                  </g>
                </g>
              </g>
            </g>
          </g>
        </g>
        <g>
          <polygon class="cls-3" points="197.2 320.1 174.8 229.6 149.9 229.6 197.2 320.1"/>
          <g>
            <rect class="cls-9" x="25.5" y="116.2" width="229.5" height="113.4"/>
            <g>
              <g>
                <path class="cls-5" d="M52.6,161.2c-5.2,2.6-7.8,3.4-8.4,3.4-1.1,0-1.7-.9-1.7-1.7s.4-1.4,1.3-1.7c3.4-1.1,6.1-2.1,8.8-3.6v-8.4h-7.5c-1.2,0-1.8-.9-1.8-1.7s.6-1.7,1.8-1.7h7.5v-7.8c0-1.1.9-1.7,1.8-1.7s1.8.6,1.8,1.7v28.7c0,1.1-.9,1.6-1.8,1.6s-1.8-.5-1.8-1.6v-5.7ZM71.2,160c0-1.2.9-1.7,1.7-1.7s2,.5,2,2c0,7.4-3.9,7.4-7.9,7.4s-6.8-.5-6.8-4.7,0-23.8,0-25c0-1,1-1.5,1.8-1.5s1.8.5,1.8,1.6c0,.7,0,5.1,0,10,2.4-1.2,5.2-2.9,7.1-4.4.3-.2.6-.3,1-.3,1,0,1.9,1,1.9,2s-.3,1.2-1,1.7c-2.4,1.6-6.4,3.5-9,4.5,0,5.2,0,10.1,0,10.8,0,1.4.9,1.8,3.4,1.8s4.1-.4,4.1-4v-.2h0Z"/>
                <path class="cls-5" d="M79.9,140c-1,0-1.4-.7-1.4-1.4s.5-1.5,1.5-1.5c1.5,0,3.1,0,4.7,0s3.1,0,4.5,0c2.4,0,3.5,1.3,3.5,3.4,0,2.4,0,6.4.1,8.2v.2c0,.6-.1,1.1-.4,1.6.2-.1.5-.1.7-.1.9,0,1.8.5,1.8,1.5s-.3,1.2-.5,1.9c2,0,4.1,0,5.9.1,2.1,0,3.7,1.5,3.7,3,0,1.3,0,2.6,0,3.8s0,2.6,0,3.9c0,1.7-1.6,3.3-3.9,3.4-1.8,0-3.9,0-6,0s-4.8,0-6.8-.1c-2.6-.1-3.9-1.5-4-3.4,0-1.2,0-2.4,0-3.7s0-2.6,0-3.8c0-1.5,1.1-3.1,3.9-3.2,1.1,0,2.4,0,3.8,0,.2-.8.4-1.6.5-2.2-.9.7-2,1-3.4,1s-3.4-.3-3.4-1.7.6-1.5,1.6-1.5.3,0,.4,0c.4,0,.9.1,1.2.1,1,0,1.5-.4,1.5-1.3,0,0,0-1.8,0-3.6,0-4,0-4.5-1.3-4.6-1,0-2.4,0-3.8,0s-2.9,0-4.3,0h0ZM80.1,150.2c-1,0-1.5-.8-1.5-1.6s.3-1.2,1-1.4c2.9-.9,4.7-1.5,6.8-2.6.3-.1.5-.2.7-.2.8,0,1.3.7,1.3,1.4s-.2,1-.9,1.3c-2.1,1.1-6.4,3.1-7.5,3.1ZM83.8,144.6c-1.2-.7-2.6-1.2-3.3-1.5-.7-.2-1-.7-1-1.1s.6-1.4,1.6-1.4,3.6,1,4.5,1.6c.5.3.7.7.7,1.1,0,.8-.7,1.6-1.6,1.6s-.6,0-.9-.3ZM100.7,159.4c0-1.9-.1-2.7-1.8-2.8-1.9,0-4.4,0-6.8,0s-2.8,0-3.9,0c-1.8,0-1.8,1-1.8,2.8h14.3ZM86.4,162c0,2.2,0,3,1.8,3.1,1.7,0,4,.1,6.2.1s3.2,0,4.5,0c1.8,0,1.8-1.1,1.8-3.1h-14.3ZM95.1,150.2c-1,0-1.5-.8-1.5-1.6s.3-1.2,1-1.4c2.4-.7,4.8-1.5,6.7-2.6.3-.1.5-.2.7-.2.8,0,1.3.7,1.3,1.4s-.3,1-.9,1.3c-3.7,2-7,3-7.4,3ZM95.3,140c-1,0-1.4-.7-1.4-1.4s.5-1.5,1.5-1.5c1.5,0,3,0,4.5,0s2.9,0,4.3,0c2.4,0,3.6,1.3,3.6,3.4,0,2.4,0,6.5.1,8.3h0c0,2.1-1.5,3.8-4.5,3.8s-3.6-1.1-3.6-1.7.6-1.5,1.6-1.5.3,0,.4,0c.4,0,.8.1,1.1.1,1,0,1.5-.4,1.5-1.2,0,0,0-1.8,0-3.7,0-4.2,0-4.6-1.3-4.6-1,0-2.3,0-3.7,0s-2.8,0-4.1,0h0ZM99.7,144.9c-.3,0-.6,0-.9-.3-1.2-.7-2.6-1.2-3.3-1.5-.7-.2-1-.7-1-1.1s.6-1.4,1.5-1.4,3.7,1,4.6,1.6c.5.3.7.7.7,1.1,0,.8-.7,1.6-1.6,1.6Z"/>
                <path class="cls-5" d="M112.1,165.3c0-.6.3-1.1,1.1-1.6,1-.6,3-2.6,3.4-4,.3-.9.9-1.2,1.6-1.2s1.8.7,1.8,1.7c0,1.4-3.1,7-5.9,7s-2-.9-2-1.8ZM116.8,152.6c-1.1,0-1.7-.8-1.7-1.6s.6-1.6,1.7-1.6h9.8v-4.6h-12.1c-1.1,0-1.7-.8-1.7-1.6s.6-1.6,1.7-1.6h12.1v-3.8c0-1.1,1-1.7,1.9-1.7s1.9.6,1.9,1.7v3.8h12c1,0,1.5.8,1.5,1.6s-.5,1.6-1.5,1.6h-12v4.6h9.7c1,0,1.5.8,1.5,1.6s-.5,1.6-1.5,1.6h-23.4ZM128.5,168c-4,0-6.9-.2-6.9-4.1s0-4.4,0-6.1c0-1,.9-1.4,1.7-1.4s1.7.5,1.7,1.4h0c0,1.2-.1,2.8-.1,4.1,0,2.8.2,3,3.6,3s4.8-.5,4.8-2.6.9-1.6,1.7-1.6c1.7,0,2,1.3,2,1.8,0,5.4-5.4,5.6-8.8,5.6ZM130.5,159.1c-1-1.1-2.5-2.1-3.6-2.6-.8-.3-1.1-.9-1.1-1.5s.6-1.4,1.6-1.4,6.1,2,6.1,4.2-.9,1.9-1.8,1.9-.8-.2-1.2-.6ZM141.5,164.8c-1-1.7-2.5-3.3-4.3-4.4-.4-.3-.7-.7-.7-1,0-.8.9-1.7,1.9-1.7s6.5,3.8,6.5,6.1-.9,2-1.9,2-1.2-.3-1.6-1Z"/>
                <path class="cls-5" d="M159,158.3v3.3c1.8-.4,3.5-.9,5-1.4.1,0,.3,0,.4,0,.8,0,1.3.7,1.3,1.4s-.3,1.2-1.1,1.5c-5.1,1.9-13.4,3.3-14.3,3.3s-1.6-.9-1.6-1.7.4-1.5,1.4-1.6c1.9-.2,3.8-.5,5.6-.8v-4h-4.7s0,0,0,0c-.9,0-1.4-.7-1.4-1.4s.5-1.5,1.4-1.5h4.7v-3c-.9,0-1.7,0-2.4-.1-2-.1-3.3-1.1-3.4-3.1,0-1.3,0-2.7,0-4.2s0-3,0-4.4c0-1.7.9-3.4,3.7-3.5,1.3,0,2.6,0,4,0s2.7,0,4,0c1.8,0,3.1,1.2,3.3,2.8.1,1.7.2,3.4.2,5.1s0,2.8-.1,4.1c-.1,1.9-1.3,2.9-3.6,3.1-.7,0-1.4,0-2.2.1v3h4.7s0,0,0,0c.9,0,1.4.7,1.4,1.4s-.5,1.4-1.4,1.5h-4.7ZM155.8,139.9q-3,0-3,3.5h3v-3.5ZM155.8,146.1h-3c0,.9,0,1.7,0,2.5,0,1,.7,1.1,2.9,1.1v-3.6ZM161.8,143.4c0-.9,0-1.6-.1-2.3,0-1.1-.6-1.1-2.8-1.1v3.5h3ZM158.9,146.1v3.6c2.9,0,3,0,3-3.6h-3ZM171.3,151.4c-1.6,0-3.1,0-4.6,0h0c-1,0-1.6-.7-1.6-1.5s.6-1.6,1.6-1.6c2,0,4,0,6.1,0-.1,0-.2-.2-.3-.3-.9-1.3-2.6-2.1-3.5-2.6-.5-.3-.7-.6-.7-1,0-.8.8-1.6,1.8-1.6s1.7.6,2.3.9c.8-.7,2.8-2.8,2.8-3.1s0-.2-.3-.2c-2.1,0-4.7.2-7.2.3h0c-1,0-1.6-.8-1.6-1.6s.5-1.6,1.6-1.6c2,0,4.3,0,6.6,0h2.4c1.9,0,3,1,3,2.3s-.4,2.1-4.9,5.8c0,0,.1.1.2.2.3.3.4.7.4,1,0,.6-.4,1.2-.9,1.5,1.4,0,2.8,0,4,0,2,0,3.2,1.2,3.2,2.9s-2.1,5.2-2.1,5.3c-.5.7-1.2,1-1.9,1s-1.7-.6-1.7-1.4,0-.6.3-.9c.2-.3,1.7-2.7,1.7-3.3s-.6-.6-3.3-.6v12.2c0,0,0,0,0,0,0,2.1-1.1,4.8-5.3,4.8s-3.7-.3-3.7-2.1.5-1.7,1.4-1.7.3,0,.4,0c.7.1,1.3.3,1.9.3,1.2,0,2-.5,2-2.2v-11.4Z"/>
                <path class="cls-5" d="M187.8,168.9c-.9,0-1.8-.6-1.8-1.6,0-6.7,0-18.9.2-26.7,0-3.5,2-3.5,5.4-3.5s1.4,0,2,0c2.1,0,3.2,1.2,3.2,2.8s-.2,1.8-2.2,6c-.2.4-.3.7-.3,1,0,.5.2,1,.6,1.5,1.3,1.6,2,3.2,2,5.7s-2,5.6-4.7,5.6-2.6-.1-2.6-1.8.6-1.6,1.3-1.6.3,0,.4,0c.2,0,.3,0,.5,0,.8,0,1.7-.7,1.7-2.7s-.5-3-1.4-4.3c-.7-1-1-1.8-1-2.6s.2-1.3.5-2.1c.8-1.8,1.5-4,1.5-4.3,0-.4-.2-.7-1.5-.7s-2.1,0-2.1,1.3c0,3.4,0,7.8,0,12.4v13.7c0,1.1-.9,1.6-1.7,1.6ZM193.4,167c0-.7.4-1.4,1.4-1.8,5-1.8,6.4-4.7,7-8.6.1-1,.9-1.4,1.6-1.4s1.9.7,1.9,1.7,0,.2,0,.3c-1.7,10-9.6,11.5-10.1,11.5-1.1,0-1.8-.8-1.8-1.7ZM213.4,146.6v-1.5c0-1.3-.5-1.6-1.7-1.6-1.5,0-3.3,0-5,0s-3.4,0-4.8,0c-1.4,0-1.8.4-1.8,1.5v1.6c0,1-.9,1.6-1.7,1.6s-1.7-.5-1.7-1.6v-1.9c0-1.7,0-4,3.8-4.1,1.3,0,2.7,0,4.1,0v-2.6s0,0,0,0c0-1.1.9-1.7,1.9-1.7s1.9.6,1.9,1.7h0s0,2.7,0,2.7c1.6,0,3.3,0,4.7,0,2.4.1,3.8,1.2,3.8,3.4v2.6c0,1-1,1.6-1.9,1.6s-1.7-.5-1.7-1.5h0ZM214.2,161.6c0-1,.8-1.5,1.6-1.5s1.9.3,1.9,1.8c0,5.3-2,6.3-6,6.3s-4.8-1.6-4.8-4.3,0-6.9.1-9.4h-8.3c-1,0-1.5-.7-1.5-1.5s.5-1.5,1.5-1.5h16.8c1,0,1.4.8,1.4,1.6s-.5,1.5-1.4,1.5h-5.1c0,2.1-.1,6.5-.1,8.3s.1,1.9,1.5,1.9c2.1,0,2.5-.6,2.5-2.8v-.4h0ZM202.3,149c-1,0-1.6-.7-1.6-1.5s.5-1.5,1.6-1.5h8.9c1,0,1.4.7,1.4,1.5s-.5,1.5-1.4,1.5h-8.9Z"/>
              </g>
              <g>
                <path class="cls-5" d="M48.7,197.1h-.9c0,4.2-.4,8.4-2,11.1-.3.5-.8.8-1.2.8-.6,0-1.2-.5-1.2-1.1s0-.4.2-.5c1.4-2.3,1.9-6.2,2-9.9,0,0-.5,0-.7,0-.8,0-1.2-.6-1.2-1.1s.4-1,1-1c.3,0,.5,0,.9,0,0-1.9,0-3.6,0-5.1h0c0-1.4.7-2.2,2.4-2.3h.5c.2-.5.3-.9.5-2.1.1-.5.6-.7,1.2-.7s1.4.4,1.4,1-.3,1-.6,1.8h.5c1.5,0,2.4,1,2.4,2.3v4.2h.2c0,0,0,0,.1,0,.6,0,.9.5.9.9s0,.1,0,.2c1.2-1.6,1.6-3.2,1.9-5.1.1-.7.6-1,1.1-1s1.2.4,1.2,1.2-1.7,7.3-3.8,7.3-1.2-.5-1.2-1.1,0-.5.3-.7c-.2,0-.5.2-.9.2v5.4c0,1,0,2.5,0,3.3h0c0,1.5-.7,3.3-3.3,3.3s-2.2,0-2.2-1.3.4-1.2,1.1-1.2.1,0,.2,0c.4,0,.7.1,1,.1,1.1,0,1.1-.4,1.1-5.4s0-2.6,0-3.9c-.4,0-.7.1-1.1.2,0,0,0,.1,0,.2v6.2c0,.6-.4.9-.9.9s-1-.3-1-.9v-6.1ZM47.8,195.2c1.3-.1,2.6-.3,3.8-.4,0-1.7,0-3.2,0-4.2,0-.7-.5-.8-1.7-.8s-2,0-2,.8v.9c.2-.3.6-.6,1-.6s2.2,1.2,2.2,2-.5,1.1-1.1,1.1-.5-.1-.7-.4c-.4-.6-.9-1.1-1.2-1.3,0,0-.1-.1-.2-.2v3ZM63.5,208.6c-.7,0-1.5,0-2.3,0-3.1,0-5.1,0-5.2-2.7,0-.5,0-1,0-1.6,0-1.3,0-2.9,0-3.8,0-1.5,1-2.5,2.5-2.5.8,0,1.5,0,2.3,0s1.8,0,2.6,0c1.3,0,2.6,1,2.7,2.4,0,1,0,2.6,0,4s0,1.1,0,1.5c0,1.5-1,2.5-2.7,2.7ZM59,188.8h0c-.8,0-1.1-.5-1.1-1.1s.4-1.1,1.2-1.1h2.6c0,0,0,0,0,0,1.1,0,2.3.7,2.5,1.8.6,2.7,1.6,5,3.6,7.1.3.3.4.6.4.9,0,.7-.7,1.3-1.4,1.3s-.8-.1-1.1-.5c-2-2.1-3.2-5.6-3.8-8.1,0-.4-.3-.5-.8-.5h-2.1ZM63.6,201.1c0-.9-.5-.9-2.6-.9s-1.1,0-1.6,0c-1.1,0-1.1.5-1.1,4s0,.8,0,1.1c0,.6.4.9,1.1,1,.5,0,1.1,0,1.6,0,2.6,0,2.6-.4,2.6-1.8s0-2.6,0-3.4Z"/>
                <path class="cls-5" d="M76.3,208.2c0,.8-.6,1.1-1.3,1.1s-1.3-.4-1.3-1.1h0s0-9.3,0-9.3c-1.7,3.2-2.3,3.8-3,3.8s-1.3-.6-1.3-1.2.1-.6.4-.9c1.3-1.4,3-4,4-6.5v-.6h-2.3q0,0,0,0c-.8,0-1.1-.6-1.1-1.2s.4-1.2,1.2-1.2h2.2v-4.5c0,0,0,0,0,0,0-.8.6-1.2,1.3-1.2s1.3.4,1.3,1.2h0s0,2.1,0,4.5h1.7c.8,0,1.2.6,1.2,1.2s-.4,1.2-1.2,1.2h-1.8c0,.9,0,1.9,0,2.6h0c.2,0,.3,0,.5,0,.7,0,2.4,1.8,2.4,2.5s-.6,1.2-1.2,1.2-.6-.1-.8-.5c-.3-.5-.6-1-.9-1.4,0,4.2.1,10.2.1,10.2h0ZM89.6,192.2c1.1,1.3,2.6,2.3,4.2,2.9.5.2.8.6.8,1,0,.6-.5,1.2-1.2,1.2-1.2,0-2.9-1.6-3.4-2.1,0,2.4,0,2.6-3.9,2.6s-3.7-.2-3.7-2.3c-.3.3-1.9,2-2.9,2s-1.2-.5-1.2-1,.2-.7.6-.9c1.4-.8,2.6-1.9,3.5-3.3h-2.3c-.7,0-1.1-.5-1.1-1s.4-1,1.1-1h3.5c.2-.4.4-.8.5-1.3h-3c-.8,0-1.1-.6-1.1-1.1s.4-1.1,1.1-1.1h0c.8,0,1.6,0,2.4,0,2.3,0,4.6-.2,6.9-.6,0,0,.1,0,.2,0,.7,0,1.2.6,1.2,1.2,0,.9-.6,1.2-5.2,1.5-.1.4-.4.9-.6,1.4h6.7c.7,0,1,.5,1,1s-.3,1-1,1h-3ZM90.9,204c0-.9,0-1.8,0-2.5,0-.6-.4-1-1.1-1-1.2,0-2.7,0-4.1,0s-2.3,0-3.3,0c-.6,0-1,.4-1,1,0,1,0,2.2,0,3.3s0,2.4,0,3.4h0c0,.8-.6,1.1-1.1,1.1s-1.2-.4-1.2-1.1c0-1.2,0-2.5,0-3.8s0-2.6,0-3.6c0-1.3,1-2.1,2.6-2.2,1.3,0,2.8,0,4.2,0s2.9,0,4.4,0c1.6,0,2.6.9,2.7,2.2,0,1.3,0,2.9,0,3.5s0,1.5,0,2.1h0c0,1.4-.9,2.6-3.3,2.6s-2.3-.5-2.3-1.2.4-1.1,1.1-1.1.1,0,.2,0c.4,0,.8.1,1.1.1.6,0,1-.2,1-.9,0,0,0-1,0-2.1ZM86.1,206.2c-3.3,0-3.5-.4-3.5-2.5s0-2.2,1.8-2.3c.6,0,1.2,0,1.8,0,2.9,0,3.5,0,3.5,2.3s-.5,2.5-3.6,2.5ZM84.8,192.2c-.3.4-.5.8-.8,1.2.7,0,1.6,0,2.4,0s1.3,0,2,0c-.3-.4-.6-.9-.8-1.2h-2.7ZM87.5,194.9c-.5,0-1,0-1.5,0s-1,0-1.5,0c-.2,0-.5,0-.5.6s0,.7,1.9.7,1.9,0,1.9-.7-.2-.6-.5-.6ZM87.7,203.4c0-.4-.1-.5-1.5-.5s-1.6,0-1.6.9,0,.9,1.6.9,1.5-.1,1.5-.5v-.7Z"/>
                <path class="cls-5" d="M108.4,191.5h-10.1c-.9,0-1.3-.6-1.3-1.2s.4-1.3,1.3-1.3h8.8c0,0,0-2.5,0-2.5,0-.8.7-1.3,1.4-1.3s1.4.4,1.4,1.3v2.6s8.7,0,8.7,0c.8,0,1.3.6,1.3,1.2s-.4,1.3-1.3,1.3h-10.2ZM107.1,196.5c-1.5,0-3,0-3.8,0-.7,0-1.1.4-1.1,1.2,0,1,0,2.5,0,4s0,3.1,0,4.4h0c0,.8-.6,1.2-1.3,1.2s-1.3-.4-1.4-1.2v-1.6c0-2.4,0-5.2,0-7.2,0-1.9,1.2-2.9,3.2-3,1,0,2.6,0,4.3,0v-1c0-.9.7-1.3,1.3-1.3s1.3.4,1.3,1.3v1c1.8,0,3.5,0,4.6,0,1.8,0,3.1,1,3.1,2.9,0,.9,0,1.8,0,2.6v1.7c0,.5,0,1,0,2h0c0,1.9-1.4,3.4-3.9,3.4s-2.8-.2-2.8-1.5.4-1.3,1.1-1.3.2,0,.3,0c.4.1.9.2,1.4.2.7,0,1.3-.3,1.3-1.1,0,0,0-3.9,0-5.7,0-.6-.3-1-1-1-.9,0-2.4,0-4,0v11.5c0,.9-.7,1.3-1.3,1.3s-1.4-.4-1.4-1.3v-11.5Z"/>
                <path class="cls-5" d="M125.8,208.8c-.7-1-2.2-2.2-3.3-2.8-.5-.3-.7-.7-.7-1.1,0-.6.5-1.2,1.3-1.2s5.3,2.4,5.3,4.2-.7,1.5-1.5,1.5-.8-.2-1-.6Z"/>
                <path class="cls-5" d="M139.4,188.3c-.7,0-1.1-.5-1.1-1s.4-1.1,1.1-1.1c1.1,0,2.2,0,3.4,0s2.3,0,3.3,0c1.8,0,2.5.9,2.6,2.5,0,1.7,0,4.7,0,6v.2c0,.4-.1.8-.3,1.2.2,0,.4-.1.5-.1.6,0,1.3.4,1.3,1.1s-.2.9-.4,1.3c1.5,0,3,0,4.3,0,1.5,0,2.7,1.1,2.7,2.2,0,.9,0,1.9,0,2.8s0,1.9,0,2.8c0,1.3-1.1,2.4-2.8,2.5-1.3,0-2.8,0-4.4,0s-3.5,0-4.9,0c-1.9,0-2.8-1.1-2.9-2.5,0-.9,0-1.8,0-2.7s0-1.9,0-2.8c0-1.1.8-2.3,2.9-2.3.8,0,1.8,0,2.8,0,.2-.6.3-1.2.4-1.6-.6.5-1.5.8-2.5.8s-2.5-.2-2.5-1.3.4-1.1,1.1-1.1.2,0,.3,0c.3,0,.6,0,.9,0,.8,0,1.1-.3,1.1-.9,0,0,0-1.3,0-2.6,0-2.9,0-3.3-.9-3.3-.8,0-1.8,0-2.8,0s-2.1,0-3.1,0h0ZM139.6,195.7c-.7,0-1.1-.6-1.1-1.2s.2-.9.8-1c2.1-.6,3.5-1.1,5-1.9.2-.1.4-.1.5-.1.6,0,.9.5.9,1s-.2.7-.6.9c-1.5.8-4.7,2.2-5.5,2.2ZM142.3,191.6c-.9-.5-1.9-.9-2.4-1.1-.5-.2-.7-.5-.7-.8s.5-1,1.1-1,2.6.7,3.3,1.1c.4.2.5.5.5.8,0,.6-.5,1.1-1.1,1.1s-.4,0-.6-.2ZM154.6,202.4c0-1.4,0-2-1.3-2-1.4,0-3.2,0-4.9,0s-2.1,0-2.9,0c-1.3,0-1.3.8-1.3,2.1h10.4ZM144.2,204.3c0,1.6,0,2.2,1.3,2.2,1.2,0,2.9,0,4.5,0s2.3,0,3.3,0c1.3,0,1.3-.8,1.3-2.3h-10.4ZM150.5,195.7c-.7,0-1.1-.6-1.1-1.2s.2-.9.8-1c1.8-.5,3.5-1.1,4.9-1.9.2-.1.4-.1.5-.1.6,0,1,.5,1,1.1s-.2.7-.6.9c-2.7,1.4-5.1,2.2-5.4,2.2ZM150.6,188.3c-.7,0-1.1-.5-1.1-1s.4-1.1,1.1-1.1c1.1,0,2.2,0,3.3,0s2.1,0,3.2,0c1.8,0,2.6.9,2.6,2.5,0,1.7,0,4.8,0,6h0c0,1.5-1.1,2.8-3.3,2.8s-2.6-.8-2.6-1.3.4-1.1,1.1-1.1.2,0,.3,0c.3,0,.6,0,.8,0,.7,0,1.1-.3,1.1-.9,0,0,0-1.3,0-2.7,0-3.1,0-3.3-.9-3.3-.8,0-1.7,0-2.7,0s-2,0-3,0h0ZM153.8,191.8c-.2,0-.4,0-.6-.2-.9-.5-1.9-.9-2.4-1.1-.5-.2-.7-.5-.7-.8s.5-1,1.1-1,2.7.8,3.3,1.1c.4.2.5.5.5.8,0,.6-.5,1.1-1.2,1.1Z"/>
                <path class="cls-5" d="M163.1,206.7c0-.4.2-.8.8-1.2.7-.4,2.2-1.9,2.5-2.9.2-.6.7-.9,1.2-.9s1.3.5,1.3,1.2c0,1.1-2.3,5.1-4.3,5.1s-1.5-.6-1.5-1.3ZM166.4,197.5c-.8,0-1.2-.6-1.2-1.2s.4-1.2,1.2-1.2h7.2v-3.3h-8.8c-.8,0-1.2-.6-1.2-1.2s.4-1.2,1.2-1.2h8.8v-2.8c0-.8.7-1.2,1.4-1.2s1.4.4,1.4,1.2v2.8h8.7c.8,0,1.1.6,1.1,1.2s-.4,1.2-1.1,1.2h-8.7v3.3h7.1c.8,0,1.1.6,1.1,1.2s-.4,1.2-1.1,1.2h-17.1ZM175,208.7c-2.9,0-5-.2-5-3s0-3.2,0-4.5c0-.7.6-1,1.3-1s1.3.4,1.3,1h0c0,.9,0,2.1,0,3,0,2.1.2,2.2,2.6,2.2s3.5-.4,3.5-1.9.6-1.2,1.3-1.2c1.3,0,1.5.9,1.5,1.3,0,4-3.9,4-6.4,4ZM176.5,202.2c-.7-.8-1.8-1.5-2.6-1.9-.6-.2-.8-.7-.8-1.1s.5-1.1,1.2-1.1,4.5,1.5,4.5,3.1-.6,1.4-1.3,1.4-.6-.1-.9-.4ZM184.5,206.3c-.8-1.3-1.8-2.4-3.1-3.2-.3-.2-.5-.5-.5-.8,0-.6.6-1.2,1.4-1.2s4.8,2.8,4.8,4.5-.6,1.5-1.3,1.5-.9-.2-1.2-.8Z"/>
                <path class="cls-5" d="M197.3,201.6v2.4c1.3-.3,2.6-.6,3.7-1,.1,0,.2,0,.3,0,.6,0,.9.5.9,1.1s-.2.9-.8,1.1c-3.7,1.4-9.8,2.4-10.4,2.4s-1.2-.6-1.2-1.2.3-1.1,1-1.2c1.4-.1,2.8-.4,4.1-.6v-2.9h-3.4s0,0,0,0c-.7,0-1-.5-1-1s.4-1.1,1.1-1.1h3.5v-2.2c-.6,0-1.2,0-1.8,0-1.4-.1-2.4-.8-2.5-2.2,0-.9,0-2,0-3.1s0-2.2,0-3.2c0-1.2.6-2.5,2.7-2.5,1,0,1.9,0,2.9,0s1.9,0,2.9,0c1.3,0,2.3.9,2.4,2.1,0,1.3.1,2.5.1,3.7s0,2-.1,3c-.1,1.3-1,2.1-2.6,2.2-.5,0-1.1,0-1.6,0v2.2h3.4s0,0,0,0c.6,0,1,.5,1,1s-.4,1.1-1,1.1h-3.4ZM195.1,188.2q-2.2,0-2.2,2.5h2.2v-2.5ZM195.1,192.7h-2.2c0,.6,0,1.2,0,1.8,0,.7.5.8,2.1.8v-2.6ZM199.4,190.8c0-.6,0-1.2,0-1.7,0-.8-.5-.8-2.1-.8v2.5h2.2ZM197.3,192.7v2.6c2.1,0,2.2,0,2.2-2.6h-2.2ZM206.3,196.6c-1.1,0-2.3,0-3.3,0h0c-.8,0-1.1-.5-1.1-1.1s.4-1.1,1.2-1.1c1.4,0,2.9,0,4.4,0,0,0-.1-.1-.2-.2-.7-.9-1.9-1.5-2.6-1.9-.4-.2-.5-.5-.5-.7,0-.6.6-1.2,1.3-1.2s1.2.4,1.6.7c.6-.5,2.1-2,2.1-2.2s0-.1-.2-.1c-1.5,0-3.5.1-5.2.2h0c-.8,0-1.1-.6-1.1-1.1s.4-1.1,1.2-1.2c1.5,0,3.2,0,4.8,0h1.8c1.4,0,2.2.8,2.2,1.7s-.3,1.6-3.6,4.2c0,0,.1,0,.1.1.2.2.3.5.3.7,0,.4-.3.9-.6,1.1,1.1,0,2.1,0,2.9,0,1.5,0,2.3.9,2.3,2.1s-1.5,3.8-1.6,3.8c-.4.5-.9.7-1.3.7s-1.3-.4-1.3-1,0-.4.2-.6c.2-.2,1.3-1.9,1.3-2.4s-.4-.4-2.4-.4v8.9c0,0,0,0,0,0,0,1.5-.8,3.5-3.9,3.5s-2.7-.2-2.7-1.5.4-1.2,1-1.2.2,0,.3,0c.5.1,1,.2,1.4.2.9,0,1.4-.4,1.4-1.6v-8.3Z"/>
                <path class="cls-5" d="M227.4,191.5h-10.1c-.9,0-1.3-.6-1.3-1.2s.4-1.3,1.3-1.3h8.8c0,0,0-2.5,0-2.5,0-.8.7-1.3,1.4-1.3s1.4.4,1.4,1.3v2.6s8.7,0,8.7,0c.8,0,1.3.6,1.3,1.2s-.4,1.3-1.3,1.3h-10.2ZM226.1,196.5c-1.5,0-3,0-3.8,0-.7,0-1.1.4-1.1,1.2,0,1,0,2.5,0,4s0,3.1,0,4.4h0c0,.8-.6,1.2-1.3,1.2s-1.3-.4-1.4-1.2v-1.6c0-2.4,0-5.2,0-7.2,0-1.9,1.2-2.9,3.2-3,1,0,2.6,0,4.3,0v-1c0-.9.7-1.3,1.3-1.3s1.3.4,1.3,1.3v1c1.8,0,3.5,0,4.6,0,1.8,0,3.1,1,3.1,2.9,0,.9,0,1.8,0,2.6v1.7c0,.5,0,1,0,2h0c0,1.9-1.4,3.4-3.9,3.4s-2.8-.2-2.8-1.5.4-1.3,1.1-1.3.2,0,.3,0c.4.1.9.2,1.4.2.7,0,1.3-.3,1.3-1.1,0,0,0-3.9,0-5.7,0-.6-.3-1-1-1-.9,0-2.4,0-4,0v11.5c0,.9-.7,1.3-1.3,1.3s-1.4-.4-1.4-1.3v-11.5Z"/>
              </g>
            </g>
          </g>
          <g>
            <rect class="cls-11" x="354.3" y="116.2" width="209.8" height="186"/>
            <polygon class="cls-6" points="416.7 333.4 442.6 302.2 473.1 302.2 416.7 333.4"/>
            <g>
              <g>
                <path class="cls-5" d="M373.7,150.4c-2.5,3.1-3.5,3.5-4.3,3.5s-1.7-.7-1.7-1.6.2-.9.6-1.3c3.6-3.3,6.9-8,8.7-13.1.3-.8.9-1.1,1.6-1.1,1,0,2.1.8,2.1,1.8s-3.3,6.6-3.4,6.8l-.4,21.6c0,1.1-.9,1.6-1.9,1.6s-1.7-.5-1.7-1.6h0c0,0,.4-16.7.4-16.7ZM382.1,167.4c-1.2,0-1.7-.7-1.7-1.5s.6-1.7,1.7-1.7h7.1s0-8.1,0-8.1h-4.2c-.6,1.1-3.5,5.7-5.6,5.7s-1.8-.7-1.8-1.6.2-.9.7-1.3c3.4-3,5.7-7.1,7-11.5h-4.7s0,0,0,0c-1.1,0-1.7-.8-1.7-1.6s.6-1.7,1.7-1.7h5.5c.4-1.8.6-3.7.7-5.4,0-1.1.9-1.6,1.8-1.6s2,.6,2,1.7-.2,2.4-.9,5.4h10c1.1,0,1.7.8,1.7,1.6s-.6,1.7-1.7,1.7h-10.8c-.6,1.9-1.3,3.8-2.1,5.6h11.2c1.2,0,1.8.8,1.8,1.6s-.6,1.6-1.8,1.6h-5.2s0,8.1,0,8.1h7.2c1.1,0,1.7.8,1.7,1.6s-.6,1.6-1.7,1.6h-17.9Z"/>
                <path class="cls-5" d="M409.2,166.1c-.6.4-1.1.6-1.6.6-1.1,0-1.9-.8-1.9-1.7s.3-1.1.9-1.5c4.5-2.9,5.4-6.2,5.4-12s0-1.3,0-2h0c0-1.6,1.2-2.9,3.8-2.9,1.9,0,3.7,0,5.4,0s4.2,0,6.4,0c2.5,0,4,.9,4.1,2.7,0,.7,0,1.7,0,2.7,0,4,0,5.4-4.1,5.6-2.1,0-4.1,0-6.2,0s-4.2,0-6.5,0c-.7,2.9-2.3,5.7-5.7,8.5ZM417.4,145.1c-.8,0-1.2-.5-1.3-1.1-3.4,2.9-7.3,5.6-8.6,5.6s-1.7-.9-1.7-1.7.3-1.3,1.1-1.6c4.1-1.9,8.6-5.7,11.3-8.7,1-1.1,2-1.7,3.2-1.7s2.3.6,3.5,1.7c3.5,3.3,7.4,5.9,11.6,7.8.7.3,1,.9,1,1.4,0,.9-.8,1.9-1.9,1.9-1.7,0-6.9-3.8-8.2-4.8,0,.7-.4,1.3-1.3,1.3h-8.7ZM428.9,168c-1.9,0-3.8.1-5.7.1s-4,0-6.1-.1c-1.9,0-3.1-1.4-3.2-2.8,0-.4,0-.9,0-1.3,0-.6,0-1.3,0-1.9,0-1.2,1.1-2.5,3.1-2.6,2,0,4,0,5.9,0s4,0,6.1,0c1.6,0,3.4,1,3.5,2.4,0,.5,0,1.1,0,1.7s0,1.1,0,1.6c-.1,1.5-1.5,2.8-3.6,2.9ZM415.4,153.3v1.8c2.2,0,4.3,0,6.1,0s3.7,0,5.3,0,1.2-.8,1.2-1.8h-12.7ZM428,150.9c0-1.1,0-1.7-1.2-1.7-2.4,0-4.6,0-6.8,0s-2.2,0-3.3,0c-1.1,0-1.4.6-1.4,1.4v.4h12.7ZM429,162.9c0-.9-1-.9-6.1-.9s-3.1,0-4.4,0c-.9,0-1.3.3-1.3,1.7s0,1.4,5.8,1.4,6,0,6-1.5,0-.6,0-.9ZM425.6,142.3c-1-.9-2-1.8-2.9-2.7-.4-.4-.8-.7-1.1-.7s-.6.2-1,.7c-.8.9-1.7,1.8-2.7,2.7h7.8Z"/>
                <path class="cls-5" d="M443.9,168.9c-.9,0-1.8-.6-1.8-1.6,0-6.7,0-18.9.2-26.7,0-3.5,2-3.5,5.4-3.5s1.4,0,2,0c2.1,0,3.2,1.2,3.2,2.8s-.2,1.8-2.2,6c-.2.4-.3.7-.3,1,0,.5.2,1,.6,1.5,1.3,1.6,2,3.2,2,5.7s-2,5.6-4.7,5.6-2.6-.1-2.6-1.8.6-1.6,1.3-1.6.3,0,.4,0c.2,0,.3,0,.5,0,.8,0,1.7-.7,1.7-2.7s-.5-3-1.4-4.3c-.7-1-1-1.8-1-2.6s.2-1.3.5-2.1c.8-1.8,1.5-4,1.5-4.3,0-.4-.2-.7-1.5-.7s-2.1,0-2.1,1.3c0,3.4,0,7.8,0,12.4v13.7c0,1.1-.9,1.6-1.7,1.6ZM449.4,167c0-.7.4-1.4,1.4-1.8,5-1.8,6.4-4.7,7-8.6.1-1,.9-1.4,1.6-1.4s1.9.7,1.9,1.7,0,.2,0,.3c-1.7,10-9.6,11.5-10.1,11.5-1.1,0-1.8-.8-1.8-1.7ZM469.4,146.6v-1.5c0-1.3-.5-1.6-1.7-1.6-1.5,0-3.3,0-5,0s-3.4,0-4.8,0c-1.4,0-1.8.4-1.8,1.5v1.6c0,1-.9,1.6-1.7,1.6s-1.7-.5-1.7-1.6v-1.9c0-1.7,0-4,3.8-4.1,1.3,0,2.7,0,4.1,0v-2.6s0,0,0,0c0-1.1.9-1.7,1.9-1.7s1.9.6,1.9,1.7h0s0,2.7,0,2.7c1.6,0,3.3,0,4.7,0,2.4.1,3.8,1.2,3.8,3.4v2.6c0,1-1,1.6-1.8,1.6s-1.7-.5-1.7-1.5h0ZM470.3,161.6c0-1,.8-1.5,1.6-1.5s1.9.3,1.9,1.8c0,5.3-2,6.3-6,6.3s-4.8-1.6-4.8-4.3,0-6.9.1-9.4h-8.3c-1,0-1.5-.7-1.5-1.5s.5-1.5,1.5-1.5h16.8c1,0,1.4.8,1.4,1.6s-.5,1.5-1.4,1.5h-5.1c0,2.1-.1,6.5-.1,8.3s.1,1.9,1.5,1.9c2.1,0,2.5-.6,2.5-2.8v-.4h0ZM458.4,149c-1,0-1.6-.7-1.6-1.5s.5-1.5,1.6-1.5h8.9c1,0,1.4.7,1.4,1.5s-.5,1.5-1.4,1.5h-8.9Z"/>
              </g>
              <g>
                <path class="cls-5" d="M373.8,195.9c-1.8,2.3-2.6,2.6-3.1,2.6s-1.2-.5-1.2-1.2.1-.6.5-.9c2.6-2.4,5-5.9,6.3-9.5.2-.6.7-.8,1.2-.8.7,0,1.5.6,1.5,1.3s-2.4,4.8-2.5,5l-.3,15.8c0,.8-.7,1.2-1.3,1.2s-1.2-.4-1.2-1.1h0c0,0,.3-12.2.3-12.2ZM379.9,208.2c-.9,0-1.3-.5-1.3-1.1s.5-1.2,1.3-1.2h5.2s0-5.9,0-5.9h-3.1c-.5.8-2.5,4.2-4.1,4.2s-1.3-.5-1.3-1.2.1-.6.5-.9c2.5-2.2,4.2-5.2,5.1-8.4h-3.4s0,0,0,0c-.8,0-1.2-.6-1.2-1.2s.4-1.2,1.3-1.2h4c.3-1.3.5-2.7.5-3.9,0-.8.7-1.2,1.3-1.2s1.5.5,1.5,1.2-.2,1.7-.7,3.9h7.3c.8,0,1.3.6,1.3,1.2s-.4,1.2-1.3,1.2h-7.9c-.4,1.4-.9,2.8-1.5,4.1h8.2c.9,0,1.3.6,1.3,1.2s-.4,1.1-1.3,1.1h-3.8s0,5.9,0,5.9h5.3c.8,0,1.2.6,1.2,1.2s-.4,1.1-1.2,1.1h-13Z"/>
                <path class="cls-5" d="M399.8,207.3c-.4.3-.8.5-1.2.5-.8,0-1.4-.6-1.4-1.3s.2-.8.7-1.1c3.3-2.1,3.9-4.5,3.9-8.8s0-.9,0-1.4h0c0-1.2.9-2.1,2.8-2.1,1.4,0,2.7,0,3.9,0s3.1,0,4.6,0c1.8,0,2.9.6,3,2,0,.5,0,1.2,0,1.9,0,2.9,0,4-3,4-1.5,0-3,0-4.5,0s-3,0-4.8,0c-.5,2.1-1.6,4.2-4.1,6.2ZM405.8,191.9c-.6,0-.9-.4-1-.8-2.5,2.1-5.3,4.1-6.3,4.1s-1.2-.6-1.2-1.3.2-.9.8-1.2c3-1.3,6.3-4.1,8.3-6.4.7-.8,1.5-1.2,2.3-1.2s1.7.4,2.5,1.2c2.5,2.4,5.4,4.3,8.4,5.7.5.2.8.6.8,1.1,0,.7-.6,1.4-1.4,1.4-1.2,0-5-2.8-6-3.5,0,.5-.3.9-.9.9h-6.3ZM414.2,208.7c-1.3,0-2.8,0-4.2,0s-2.9,0-4.4,0c-1.4,0-2.3-1-2.3-2.1,0-.3,0-.6,0-.9,0-.5,0-.9,0-1.4,0-.9.8-1.8,2.3-1.9,1.5,0,2.9,0,4.3,0s2.9,0,4.4,0c1.2,0,2.5.7,2.5,1.7,0,.4,0,.8,0,1.2s0,.8,0,1.2c-.1,1.1-1.1,2.1-2.6,2.1ZM404.3,197.9v1.3c1.6,0,3.1,0,4.5,0s2.7,0,3.9,0,.9-.6.9-1.3h-9.3ZM413.6,196.2c0-.8,0-1.3-.9-1.3-1.8,0-3.4,0-5,0s-1.6,0-2.4,0c-.8,0-1,.4-1,1v.3h9.3ZM414.3,205c0-.6-.8-.6-4.4-.6s-2.2,0-3.2,0c-.7,0-.9.2-.9,1.2s0,1.1,4.2,1.1,4.4,0,4.4-1.1,0-.4,0-.6ZM411.8,189.9c-.8-.6-1.5-1.3-2.1-1.9-.3-.3-.6-.5-.8-.5s-.5.2-.8.5c-.6.6-1.2,1.3-1.9,2h5.7Z"/>
                <path class="cls-5" d="M434.5,191.5h-10.1c-.9,0-1.3-.6-1.3-1.2s.4-1.3,1.3-1.3h8.8c0,0,0-2.5,0-2.5,0-.8.7-1.3,1.4-1.3s1.4.4,1.4,1.3v2.6s8.7,0,8.7,0c.8,0,1.3.6,1.3,1.2s-.4,1.3-1.3,1.3h-10.2ZM433.2,196.5c-1.5,0-3,0-3.8,0-.7,0-1.1.4-1.1,1.2,0,1,0,2.5,0,4s0,3.1,0,4.4h0c0,.8-.6,1.2-1.3,1.2s-1.3-.4-1.4-1.2v-1.6c0-2.4,0-5.2,0-7.2,0-1.9,1.2-2.9,3.2-3,1,0,2.6,0,4.3,0v-1c0-.9.7-1.3,1.3-1.3s1.3.4,1.3,1.3v1c1.8,0,3.5,0,4.6,0,1.8,0,3.1,1,3.1,2.9,0,.9,0,1.8,0,2.6v1.7c0,.5,0,1,0,2h0c0,1.9-1.4,3.4-3.9,3.4s-2.8-.2-2.8-1.5.4-1.3,1.1-1.3.2,0,.3,0c.4.1.9.2,1.4.2.7,0,1.3-.3,1.3-1.1,0,0,0-3.9,0-5.7,0-.6-.3-1-1-1-.9,0-2.4,0-4,0v11.5c0,.9-.7,1.3-1.3,1.3s-1.4-.4-1.4-1.3v-11.5Z"/>
                <path class="cls-5" d="M451.9,208.8c-.7-1-2.2-2.2-3.3-2.8-.5-.3-.7-.7-.7-1.1,0-.6.5-1.2,1.3-1.2s5.3,2.4,5.3,4.2-.7,1.5-1.5,1.5-.8-.2-1-.6Z"/>
                <path class="cls-5" d="M473.1,202.7c.7,0,1.1.6,1.1,1.2s-.4,1.2-1.2,1.2c-1,0-1.8,0-2.6,0-3,0-5.2,0-5.2-3.2,0-1.9,0-4.1,0-6.3s0-2.6,0-3.9c0-1.8.8-3.2,2.6-3.9,1.6-.6,3.1-1.1,4.6-1.8.2,0,.4-.1.5-.1.7,0,1.3.7,1.3,1.4s-.1,1.4-5.2,2.8c-.8.2-1.2.9-1.2,1.9v2.5h5.1c.8,0,1.2.6,1.2,1.2s-.4,1.2-1.2,1.2h-5.1c0,1.4,0,2.8,0,4.2,0,1.5.6,1.5,2.5,1.5s1.6,0,2.8,0h0ZM483.6,197.5c0-2.1,0-4.8,0-6.6,0-1.2-.7-1.2-2.8-1.2s-2.7,0-2.7,1.1,0,1.5,0,2.7c0,4.8,0,13.2,0,14.5s-.7,1.2-1.4,1.2-1.3-.4-1.3-1.2h0c0-2.8,0-6.3,0-9.6v-8.2c0-1.6,1-2.7,2.9-2.8,1,0,1.9,0,2.8,0s1.5,0,2.4,0c1.7,0,2.7,1.2,2.7,2.8,0,1.3,0,3,0,4.5,0,3.5,0,5.5,0,7.2h0c0,1.8-1.2,3.5-3.9,3.5s-2.9-.7-2.9-1.5.4-1.3,1.1-1.3.2,0,.3,0c.5.1.9.2,1.3.2.8,0,1.3-.4,1.3-1.6,0,0,0-1.7,0-3.8Z"/>
                <path class="cls-5" d="M504.9,189.3c0,.7,0,1.8,0,2.9,1.2,0,2.4,0,3.6,0,1.7,0,3.3.9,3.3,3,0,1.6,0,3.3,0,5.1s0,3,0,4.3c0,1.9-1.2,3.3-3.4,3.3-2.3,0-4.6.1-6.9.1s-4.6,0-6.8-.1c-2.4,0-3.6-1.3-3.6-3.3,0-1.4,0-2.9,0-4.3s0-3.5,0-5.2c0-1.7,1.3-2.9,3.4-2.9h2.9v-2.9h-6.5c-.8,0-1.2-.6-1.2-1.2s.4-1.2,1.2-1.2h21.1c.8,0,1.2.6,1.2,1.2s-.4,1.2-1.2,1.2h-7ZM495.6,194.4c-1.6,0-1.9.5-1.9,1.8,0,1.3,0,3.3,0,5.1.1-.2.3-.5.6-.6,2.8-1.3,3.2-4.2,3.3-6.3-.7,0-1.3,0-1.9,0ZM499.9,194.3c-.1,3.1-.7,6.5-4.3,8.3-.3.2-.6.2-.9.2-.5,0-.9-.3-1.1-.7,0,2.6,0,3.3,2.2,3.3,1.7,0,3.6,0,5.6,0s4,0,6,0c1.5,0,1.9-.7,1.9-1.8,0-1.1,0-2.4,0-3.7s0-2.6,0-3.9c0-1.5-.6-1.7-1.9-1.8-.9,0-1.8,0-2.7,0,0,1.9,0,4.3,0,4.7,0,.6.6.8,1,.8.8,0,.9-.4,1-1.2,0-.6.5-.9,1.1-.9s1.3.4,1.3,1.1c0,1.3-.5,3.3-3.5,3.3s-3.2-.3-3.2-2.7,0-3,0-5h-2.5ZM500,189.3v2.9c.8,0,1.5,0,2.3,0,0-1.1,0-2.1,0-2.9h-2.3Z"/>
                <path class="cls-5" d="M527.5,191.5h-10.1c-.9,0-1.3-.6-1.3-1.2s.4-1.3,1.3-1.3h8.8c0,0,0-2.5,0-2.5,0-.8.7-1.3,1.4-1.3s1.4.4,1.4,1.3v2.6s8.7,0,8.7,0c.8,0,1.3.6,1.3,1.2s-.4,1.3-1.3,1.3h-10.2ZM526.2,196.5c-1.5,0-3,0-3.8,0-.7,0-1.1.4-1.1,1.2,0,1,0,2.5,0,4s0,3.1,0,4.4h0c0,.8-.6,1.2-1.3,1.2s-1.3-.4-1.4-1.2v-1.6c0-2.4,0-5.2,0-7.2,0-1.9,1.2-2.9,3.2-3,1,0,2.6,0,4.3,0v-1c0-.9.7-1.3,1.3-1.3s1.3.4,1.3,1.3v1c1.8,0,3.5,0,4.6,0,1.8,0,3.1,1,3.1,2.9,0,.9,0,1.8,0,2.6v1.7c0,.5,0,1,0,2h0c0,1.9-1.4,3.4-3.9,3.4s-2.8-.2-2.8-1.5.4-1.3,1.1-1.3.2,0,.3,0c.4.1.9.2,1.4.2.7,0,1.3-.3,1.3-1.1,0,0,0-3.9,0-5.7,0-.6-.3-1-1-1-.9,0-2.4,0-4,0v11.5c0,.9-.7,1.3-1.3,1.3s-1.4-.4-1.4-1.3v-11.5Z"/>
                <path class="cls-5" d="M546.5,208.8c-.7-1-2.2-2.2-3.3-2.8-.5-.3-.7-.7-.7-1.1,0-.6.5-1.2,1.3-1.2s5.3,2.4,5.3,4.2-.7,1.5-1.5,1.5-.8-.2-1-.6Z"/>
                <path class="cls-5" d="M389.2,245.6c-2.7,0-5.4.1-8,.1s-4,0-5.9-.1c-2.3-.1-3.6-1.3-3.7-3.3,0-1.9-.1-3.9-.1-5.9s0-4.9.1-7.3c0-1.7,1.5-3,3.5-3.1,2.3,0,4.6,0,7,0s4.7,0,7.3,0c2.1,0,3.6,1,3.6,3.2,0,2.4.1,5.1.1,7.6s0,3.7-.1,5.3c-.1,2.2-1.5,3.3-3.8,3.3ZM387.5,236.2c0-.7.5-1.1,1.1-1.1s1.2.4,1.2,1.2c0,3.2-1.6,3.6-3.8,3.6s-2.9-.3-2.9-2.5,0-6,0-9h-2.5c0,.6,0,1.2,0,1.9,0,4-.5,8.3-4.3,10.4-.2.1-.5.2-.7.2-.8,0-1.3-.8-1.3-1.5s.2-.7.5-.9c2.9-1.3,3.4-4.8,3.4-8.1s0-1.4,0-2c-.7,0-1.5,0-2.2,0-1.5,0-1.9.6-2,1.8,0,1.4,0,3.6,0,5.8s0,4,0,5.3c0,1.3.7,1.8,2.3,1.8,2,0,4.1,0,6.3,0s3.8,0,5.7,0c1.5,0,2-.8,2-1.9,0-1.7.1-3.6.1-5.5s0-3.9-.1-5.6c0-1.4-.6-1.8-1.9-1.8-.9,0-1.9,0-2.8,0,0,2.4,0,5,0,7.3v1.5c0,.6.8.6.9.6.7,0,.9-.3.9-1.4h0Z"/>
                <path class="cls-5" d="M399.8,235.9c-1.6,1.4-2.1,1.6-2.5,1.6-.7,0-1.2-.6-1.2-1.3s.2-.8.6-1c1.9-1.1,3.8-3,5.2-5.2.3-.4.6-.6,1-.6.6,0,1.2.6,1.2,1.3s-.1.8-1.9,2.7l-.3,12.7c0,.8-.7,1.1-1.3,1.1s-1.2-.4-1.2-1.1h0c0,0,.4-10.4.4-10.4ZM397.6,231.5c-.7,0-1.2-.6-1.2-1.2s.2-.8.7-1.1c1.9-1.1,3.4-2.7,4.6-4.6.3-.4.6-.6,1-.6.6,0,1.3.6,1.3,1.3s0,.5-.2.7c-.6,1-4.3,5.3-6.1,5.3ZM409.5,238.5v2.5c1.1-.3,2-.6,3-.9.1,0,.3,0,.4,0,.6,0,.9.5.9,1.1s-.2.9-.6,1.1c-3.1,1.2-8.3,2.1-9.1,2.1s-1.2-.6-1.2-1.2.3-1,1-1.1c1.2-.1,2.3-.3,3.3-.5v-3h-2.5c0,0,0,0,0,0-.7,0-1.1-.5-1.1-1.1s.4-1.1,1.1-1.1h2.5v-1.3c0-.7.6-1.1,1.2-1.1s1.2.4,1.2,1.1v1.3h2.5s0,0,0,0c.7,0,1.1.5,1.1,1.1s-.4,1.1-1.1,1.1h-2.5ZM415.6,233.6h-1.6c-.5,0-.9-.3-1.1-.6-.1.4-.5.6-1,.6h-7.4c-.7,0-1.1-.5-1.1-1.1s.4-1.1,1.1-1.1h2.6s0-2.4,0-2.4h-2.1c-.7,0-1.1-.5-1.1-1.1s.4-1.1,1.1-1.1h2.1s0-2.3,0-2.3c0-.7.6-1.1,1.2-1.1s1.2.4,1.2,1.1v2.3h2.1c.8,0,1.1.5,1.1,1.1s-.3,1.1-1.1,1.1h-2.1s0,2.4,0,2.4h2.5c.5,0,.8.2.9.5.2-.4.5-.7,1.1-.7h5.6c.8,0,1.2.6,1.2,1.2s-.4,1.2-1.2,1.2h-1.5v9.8q0,0,0,0c0,1.5-1.1,3.5-4.2,3.5s-3.1-.6-3.1-1.5.4-1.2,1.1-1.2.2,0,.4,0c.5.2,1.1.3,1.6.3.9,0,1.6-.4,1.6-1.6v-9.4ZM414.6,227.4c-.8,0-1.2-.6-1.2-1.2s.4-1.2,1.2-1.2h4.2c.9,0,1.3.6,1.3,1.2s-.4,1.2-1.3,1.2h-4.2Z"/>
                <path class="cls-5" d="M424.3,247c-.8,0-1.5-.7-1.5-1.4s.2-.8.7-1c1.5-.8,2.7-1.7,3.6-2.8,0-1.2,0-2.3,0-3.3v-1.1c0-.7-.3-.8-1.2-.8h-1.1c-.5,0-1.5,0-1.5-1.2s.4-1.2,1.1-1.2,1.7,0,2.6,0c1.7,0,2.5.8,2.5,2.5s0,3.4,0,5.2c1.7,2.2,4.5,2.7,8.2,2.7s5.6-.3,7.7-.5h.1c.8,0,1.3.6,1.3,1.3s-.4,1.2-1.3,1.3c-1.7.2-4.2.3-6.6.3-5.9,0-8.1-.7-10.6-3.3-1.3,1.5-3,3.2-4.1,3.2ZM427.5,229.2c-.7-1.1-1.9-1.9-2.6-2.3-.4-.2-.5-.5-.5-.8,0-.6.6-1.2,1.4-1.2s4.2,2.1,4.2,3.5-.7,1.5-1.5,1.5-.7-.2-.9-.6ZM439.2,228.8c-.1.5-.2.9-.3,1.3.9,0,1.7,0,2.3,0,1.8,0,2.8,1.1,2.8,2.3,0,1.3,0,2.6,0,3.9s0,2.6,0,3.8c0,1.3-1.1,2.4-2.8,2.5-.8,0-1.8,0-2.8,0s-2.5,0-3.4,0c-1.8,0-2.7-1.1-2.8-2.5,0-1.2,0-2.5,0-3.8s0-2.7,0-4c0-2.3,2.6-2.3,4-2.3.1-.4.2-.8.3-1.4h-4.9c-.8,0-1.2-.5-1.2-1.1s.4-1.1,1.2-1.1h3c0,0,0-.1-.1-.2-.4-.9-.8-1.2-1.1-1.5-.1-.2-.2-.3-.2-.4,0-.5.7-1,1.3-1,1.1,0,2.1,1.9,2.1,2.3s-.2.6-.4.8h2.3c.4-.8.7-1.4,1.2-2.7.2-.4.5-.6,1-.6.7,0,1.5.5,1.5,1.1s-.4.9-1.2,2.2h3.8c.8,0,1.1.5,1.1,1.1s-.4,1.1-1.1,1.1h-5.8ZM441.6,235.6h-6.9v1.6h6.9v-1.6ZM441.5,233.1c0-1-.2-1-3.5-1s-3.2,0-3.3,1.1c0,.2,0,.4,0,.6h6.9v-.6ZM434.7,239.1c0,.3,0,.5,0,.8,0,1,.6,1,3,1,3.6,0,3.8,0,3.8-1.1,0-.2,0-.5,0-.8h-6.9Z"/>
                <path class="cls-5" d="M461,229.5h-10.1c-.9,0-1.3-.6-1.3-1.2s.4-1.3,1.3-1.3h8.8c0,0,0-2.5,0-2.5,0-.8.7-1.3,1.4-1.3s1.4.4,1.4,1.3v2.6s8.7,0,8.7,0c.8,0,1.3.6,1.3,1.2s-.4,1.3-1.3,1.3h-10.2ZM459.7,234.5c-1.5,0-3,0-3.8,0-.7,0-1.1.4-1.1,1.2,0,1,0,2.5,0,4s0,3.1,0,4.4h0c0,.8-.6,1.2-1.3,1.2s-1.3-.4-1.4-1.2v-1.6c0-2.4,0-5.2,0-7.2,0-1.9,1.2-2.9,3.2-3,1,0,2.6,0,4.3,0v-1c0-.9.7-1.3,1.3-1.3s1.3.4,1.3,1.3v1c1.8,0,3.5,0,4.6,0,1.8,0,3.1,1,3.1,2.9,0,.9,0,1.8,0,2.6v1.7c0,.5,0,1,0,2h0c0,1.9-1.4,3.4-3.9,3.4s-2.8-.2-2.8-1.5.4-1.3,1.1-1.3.2,0,.3,0c.4.1.9.2,1.4.2.7,0,1.3-.3,1.3-1.1,0,0,0-3.9,0-5.7,0-.6-.3-1-1-1-.9,0-2.4,0-4,0v11.5c0,.9-.7,1.3-1.3,1.3s-1.4-.4-1.4-1.3v-11.5Z"/>
                <path class="cls-5" d="M478.4,246.8c-.7-1-2.2-2.2-3.3-2.8-.5-.3-.7-.7-.7-1.1,0-.6.5-1.2,1.3-1.2s5.3,2.4,5.3,4.2-.7,1.5-1.5,1.5-.8-.2-1-.6Z"/>
                <path class="cls-5" d="M374.2,272.5c-1.1-.8-2-1.3-3.1-1.7-.5-.2-.7-.5-.7-.9,0-.6.6-1.3,1.3-1.3s2.7.6,4,1.5c.4.3.6.7.6,1.1,0,.8-.6,1.5-1.3,1.5s-.5,0-.8-.3ZM372.3,284.7c-.8,0-1.4-.6-1.4-1.3s0-.5.3-.8c1.5-1.9,2.9-4.8,3.6-6.6.2-.5.6-.8,1.1-.8.7,0,1.3.5,1.3,1.3s-1.8,4.9-3.6,7.5c-.4.5-.9.7-1.3.7ZM375.1,266.6c-1-1.2-1.9-1.7-2.9-2.3-.4-.2-.6-.5-.6-.8,0-.6.7-1.3,1.5-1.3s4.3,1.8,4.3,3.3-.7,1.5-1.4,1.5-.6-.2-.9-.5ZM388.3,265.1c0,.6,0,1.5,0,2.5.7,0,1.3,0,1.9,0,1.5,0,2.9,1,3,3.1,0,1.6,0,3.7,0,5.7s0,3.2,0,4.5c0,1.9-1.1,3.2-3,3.3-1.4,0-2.9.1-4.5.1s-2.9,0-4-.1c-2.1-.1-3.2-1.3-3.3-3.3,0-1.3,0-2.8,0-4.4s0-4.3,0-6.1c0-1.7,1.2-2.9,3.1-2.9.4,0,.9,0,1.3,0v-2.5h-4.1c-.7,0-1.1-.6-1.1-1.2s.4-1.2,1.1-1.2h14.1c.7,0,1.1.6,1.1,1.2s-.4,1.2-1.1,1.2h-4.5ZM386.1,269.6h-1.2c-.2,5.2-2.9,6.5-3.5,6.5s-.5,0-.7-.2v1.8h10.1v-1.9c0-1.5,0-3.1,0-4.3,0-1.5-.5-1.8-1.7-1.8-.4,0-.7,0-1.1,0,0,1.5,0,3.1,0,3.3s0,.5.4.5c.5,0,.6-.2.6-1.6s.3-.8.7-.8.9.3.9.8v.2c0,1.2,0,3.2-2.5,3.2s-2-.6-2-2.3v-3.3ZM382.4,269.6c-1.3,0-1.7.5-1.7,1.8,0,.7,0,1.7,0,2.8,1.7-.8,2.2-2.8,2.3-4.6h-.5ZM390.8,279.7h-10.1c0,.2,0,.4,0,.6,0,1.8.5,1.8,5,1.8s2.3,0,3.4,0c1.2,0,1.7-.7,1.7-1.8v-.6ZM386,267.6c0-1,0-1.8,0-2.5h-1.1v2.5h1.1Z"/>
                <path class="cls-5" d="M411.5,280.1c0,.9-.7,1.6-1.5,1.6s-.8-.2-1.1-.5c-1.4-1.6-3.2-2.6-5.1-3.4-.6-.2-.8-.6-.8-1.1,0-.7.6-1.3,1.5-1.3s.7,0,2.8,1.1c2-2.1,3.8-4.8,3.8-5.2s-.1-.5-.5-.5c-1.1,0-2.7,0-4.5,0-1.6,2.6-3.5,5-5.5,6.8-.4.4-.8.5-1.2.5-.8,0-1.4-.6-1.4-1.3s.2-.8.6-1.1c2.7-2.2,5.4-5.8,7.1-9.8.3-.7.8-1,1.4-1s1.5.6,1.5,1.4,0,.5-1,2.3c1.5,0,3.4,0,4.8,0s2.2.8,2.2,1.9-.1.9-.4,1.4c-1.4,2.3-3,4.3-4.6,6.1,2,1.4,2.1,1.9,2.1,2.4Z"/>
                <path class="cls-5" d="M435.3,276.5v7.3c0,.8-.7,1.3-1.3,1.3s-1.3-.4-1.3-1.3v-7.3h-4.7c-1.3,8-7.7,8.7-7.8,8.7-.9,0-1.3-.7-1.3-1.4s.2-1,.8-1.1c3.8-.9,5.3-3.7,5.8-6.2h-5.3c-.8,0-1.2-.6-1.2-1.2s.4-1.2,1.2-1.2h5.5c0-1.3,0-3.2,0-5.2h-4.5c-.8,0-1.2-.6-1.2-1.2s.4-1.2,1.2-1.2h4.5c0-1.2,0-2.4,0-3.5h0c0-.8.6-1.2,1.3-1.2s1.4.4,1.4,1.2c0,1,0,2.3,0,3.5h4.4v-3.6c0-.8.6-1.2,1.3-1.2s1.3.4,1.3,1.2v3.6h4.5c.9,0,1.3.6,1.3,1.2s-.4,1.2-1.3,1.2h-4.5v5.2h5.6c.8,0,1.2.6,1.2,1.2s-.4,1.2-1.2,1.2h-5.6ZM432.6,268.9h-4.4c0,2.1,0,4-.1,5.2h4.5v-5.2Z"/>
                <path class="cls-5" d="M461.6,267.2h-4.5c0,1.1,0,2.4,0,3.7,0,2.4,0,4.8,0,6.2,0,1.5-1.1,2.7-2.8,2.8-.9,0-2,.1-3,.1s-2,0-2.9-.1c-1.8-.1-2.7-1.2-2.8-2.8,0-1.4,0-3.7,0-6s0-4.6,0-6c0-1.3.8-2.5,2.8-2.6,1,0,1.9,0,2.9,0s2,0,2.9,0c1.7,0,2.7,1.1,2.8,2.4h10.2c.9,0,1.3.6,1.3,1.2s-.4,1.2-1.3,1.2h-3v14q0,0,0,0c0,1.6-1.2,3.7-4.6,3.7s-3.5-1-3.5-1.6.5-1.3,1.3-1.3.3,0,.4,0c.6.2,1.2.3,1.8.3,1.1,0,1.9-.4,1.9-1.7v-13.5ZM450.2,264.6c-1.5,0-2.1.1-2.2,1.2,0,.9,0,2.3,0,3.9h2.2v-5ZM450.2,271.7h-2.2c0,1.9,0,3.8,0,5,0,.7.4,1.1,1.2,1.1.3,0,.6,0,1,0v-6.1ZM454.8,269.6c0-1.6,0-3,0-3.8,0-1.1-.5-1.2-2.3-1.2v5h2.3ZM452.5,271.7v6.1c1.4,0,2.3-.1,2.3-1.2,0-1.1,0-3,0-4.9h-2.3Z"/>
              </g>
            </g>
          </g>
          <g>
            <rect class="cls-8" x="392.6" y="413.9" width="171.5" height="150.2"/>
            <polygon class="cls-18" points="357.5 457.3 392.6 466.6 392.6 490.9 357.5 457.3"/>
            <g>
              <g>
                <path class="cls-5" d="M410,465.4c-1.2,0-2.3-1-2.3-2.1s.2-1,.8-1.3c7.7-5,9.2-11.8,9.7-19.5,0-1.1,1-1.6,1.9-1.6s2,.6,2,1.8h0c-.7,8.8-2.7,16.8-10.8,22.3-.4.3-.9.4-1.4.4ZM420.6,439.3h0c-1.2,0-1.8-.9-1.8-1.7s.6-1.7,1.7-1.7c1.5,0,3.3,0,5.1,0s5.6,0,5.7,4c.3,7.5,2,16.6,9.9,20.9.8.4,1.1,1.1,1.1,1.7,0,1.1-1.1,2.3-2.4,2.3s-.9-.1-1.3-.4c-8.3-5.2-10.3-15.2-11-23.6,0-1-.6-1.5-1.5-1.5h-5.5Z"/>
                <path class="cls-5" d="M458.7,450.6v14.1c0,1.2-1,1.8-1.9,1.8s-2-.6-2-1.8v-14.1s-12,0-12,0c-1.1,0-1.7-.9-1.7-1.7s.6-1.7,1.7-1.7h12s0-6.8,0-6.8c-2.3.3-6.9.7-9.6.7s-2-.9-2-1.8.6-1.7,1.8-1.7c6.4,0,13.7-.9,20.6-2.7.2,0,.4,0,.6,0,1.2,0,1.8,1,1.8,1.9s-.3,1.4-1.1,1.6c-2.2.6-5.1,1.1-8.3,1.6v7.3h12.2c1,0,1.6.9,1.6,1.7s-.5,1.7-1.6,1.7h-12.2Z"/>
                <path class="cls-5" d="M482.6,447.4c-2.7,3.3-3.8,3.8-4.5,3.8s-1.7-.8-1.7-1.7.2-.9.6-1.3c3.6-3.2,6.9-7.7,8.8-12.7.3-.8,1-1.2,1.7-1.2,1,0,2,.8,2,1.9s-3.2,6.2-3.3,6.3l-.4,22.4c0,1.1-1,1.7-1.9,1.7s-1.8-.6-1.8-1.6h0c0,0,.5-17.5.5-17.5ZM498,447.1c1.2,9.3,5.2,14.3,6.7,14.3s1.6-1.1,2.1-3.5c.2-1,1-1.4,1.7-1.4s2,.7,2,1.8-1.5,7.1-5.7,7.1-3.3-1-4.4-2.4c-3.3-4.2-5-9.6-5.9-15.5l-5.5.7h-.3c-1.1,0-1.6-.8-1.6-1.7s.5-1.6,1.5-1.7l5.6-.7c-.3-2.9-.4-6.3-.4-8.5s.9-1.6,1.9-1.6,2,.6,2,1.8h0c0,.8,0,1.6,0,2.4,0,1.8,0,3.6.2,5.4l9.3-1.1h.2c1.1,0,1.7.9,1.7,1.7s-.4,1.5-1.5,1.6l-9.3,1.1ZM503.1,441c-1.1-1-2.6-1.7-3.3-2s-1-.8-1-1.4.7-1.6,1.7-1.6c1.6,0,4.7,2.1,5,2.4.4.4.7.9.7,1.4,0,1-.8,1.8-1.7,1.8s-.9-.1-1.3-.6Z"/>
                <path class="cls-5" d="M516.5,466.6c-.9,0-1.8-.6-1.8-1.6,0-6.7,0-18.9.2-26.7,0-3.5,2-3.5,5.4-3.5s1.4,0,2,0c2.1,0,3.2,1.2,3.2,2.8s-.2,1.8-2.2,6c-.2.4-.3.7-.3,1,0,.5.2,1,.6,1.5,1.3,1.6,2,3.2,2,5.7s-2,5.6-4.7,5.6-2.6-.1-2.6-1.8.6-1.6,1.3-1.6.3,0,.4,0c.2,0,.3,0,.5,0,.8,0,1.7-.7,1.7-2.7s-.5-3-1.4-4.3c-.7-1-1-1.8-1-2.6s.2-1.3.5-2.1c.8-1.8,1.5-4,1.5-4.3,0-.4-.2-.7-1.5-.7s-2.1,0-2.1,1.3c0,3.4,0,7.8,0,12.4v13.7c0,1.1-.9,1.6-1.7,1.6ZM522.1,464.6c0-.7.4-1.4,1.4-1.8,5-1.8,6.4-4.7,7-8.6.1-1,.9-1.4,1.6-1.4s1.9.7,1.9,1.7,0,.2,0,.3c-1.7,10-9.6,11.5-10.1,11.5-1.1,0-1.8-.8-1.8-1.7ZM542,444.2v-1.5c0-1.3-.5-1.6-1.7-1.6-1.5,0-3.3,0-5,0s-3.4,0-4.8,0c-1.4,0-1.8.4-1.8,1.5v1.6c0,1-.9,1.6-1.7,1.6s-1.7-.5-1.7-1.6v-1.9c0-1.7,0-4,3.8-4.1,1.3,0,2.7,0,4.1,0v-2.6s0,0,0,0c0-1.1.9-1.7,1.9-1.7s1.9.6,1.9,1.7h0s0,2.7,0,2.7c1.6,0,3.3,0,4.7,0,2.4.1,3.8,1.2,3.8,3.4v2.6c0,1-1,1.6-1.8,1.6s-1.7-.5-1.7-1.5h0ZM542.9,459.2c0-1,.8-1.5,1.6-1.5s1.9.3,1.9,1.8c0,5.3-2,6.3-6,6.3s-4.8-1.6-4.8-4.3,0-6.9.1-9.4h-8.3c-1,0-1.5-.7-1.5-1.5s.5-1.5,1.5-1.5h16.8c1,0,1.4.8,1.4,1.6s-.5,1.5-1.4,1.5h-5.1c0,2.1-.1,6.5-.1,8.3s.1,1.9,1.5,1.9c2.1,0,2.5-.6,2.5-2.8v-.4h0ZM531,446.6c-1,0-1.6-.7-1.6-1.5s.5-1.5,1.6-1.5h8.9c1,0,1.4.7,1.4,1.5s-.5,1.5-1.4,1.5h-8.9Z"/>
              </g>
              <g>
                <path class="cls-5" d="M411.1,506.2c-.9,0-1.7-.8-1.7-1.5s.2-.7.6-1c5.6-3.7,6.7-8.6,7.1-14.2,0-.8.7-1.2,1.4-1.2s1.5.5,1.5,1.3h0c-.5,6.4-2,12.3-7.9,16.2-.3.2-.7.3-1,.3ZM418.8,487.1h0c-.9,0-1.3-.6-1.3-1.3s.4-1.3,1.3-1.3c1.1,0,2.4,0,3.7,0s4,0,4.2,2.9c.2,5.5,1.5,12.1,7.2,15.3.6.3.8.8.8,1.2,0,.8-.8,1.7-1.8,1.7s-.6,0-1-.3c-6-3.8-7.5-11.1-8-17.2,0-.7-.5-1.1-1.1-1.1h-4Z"/>
                <path class="cls-5" d="M446.8,495.4v10.3c0,.9-.7,1.3-1.4,1.3s-1.4-.4-1.4-1.3v-10.3s-8.7,0-8.7,0c-.8,0-1.2-.6-1.2-1.3s.4-1.3,1.2-1.3h8.7s0-4.9,0-4.9c-1.7.2-5,.5-7,.5s-1.4-.7-1.4-1.3.4-1.2,1.3-1.2c4.6,0,10-.6,15-2,.2,0,.3,0,.5,0,.9,0,1.3.7,1.3,1.4s-.2,1-.8,1.2c-1.6.4-3.8.8-6.1,1.2v5.3h8.9c.8,0,1.2.6,1.2,1.3s-.4,1.2-1.2,1.2h-8.9Z"/>
                <path class="cls-5" d="M464.3,493c-2,2.4-2.8,2.8-3.3,2.8s-1.3-.6-1.3-1.2.1-.7.5-1c2.6-2.3,5-5.6,6.5-9.3.2-.6.7-.9,1.2-.9.7,0,1.5.6,1.5,1.3s-2.3,4.5-2.4,4.6l-.3,16.4c0,.8-.7,1.2-1.4,1.2s-1.3-.4-1.3-1.2h0c0,0,.4-12.8.4-12.8ZM475.5,492.8c.9,6.7,3.8,10.4,4.9,10.4s1.1-.8,1.5-2.5c.1-.7.7-1,1.3-1s1.5.5,1.5,1.3-1.1,5.2-4.2,5.2-2.4-.7-3.2-1.7c-2.4-3-3.7-7-4.3-11.3l-4,.5h-.2c-.8,0-1.2-.6-1.2-1.2s.4-1.2,1.1-1.2l4-.5c-.2-2.1-.3-4.6-.3-6.2s.7-1.1,1.4-1.1,1.4.4,1.4,1.3h0c0,.6,0,1.2,0,1.7,0,1.3,0,2.6.1,4l6.7-.8h.2c.8,0,1.2.6,1.2,1.3s-.3,1.1-1.1,1.2l-6.8.8ZM479.3,488.4c-.8-.8-1.9-1.3-2.4-1.5s-.8-.6-.8-1,.5-1.2,1.2-1.2c1.2,0,3.4,1.6,3.6,1.8.3.3.5.7.5,1,0,.7-.6,1.3-1.3,1.3s-.6-.1-.9-.4Z"/>
                <path class="cls-5" d="M497.8,489.2h-10.1c-.9,0-1.3-.6-1.3-1.2s.4-1.3,1.3-1.3h8.8c0,0,0-2.5,0-2.5,0-.8.7-1.3,1.4-1.3s1.4.4,1.4,1.3v2.6s8.7,0,8.7,0c.8,0,1.3.6,1.3,1.2s-.4,1.3-1.3,1.3h-10.2ZM496.5,494.1c-1.5,0-3,0-3.8,0-.7,0-1.1.4-1.1,1.2,0,1,0,2.5,0,4s0,3.1,0,4.4h0c0,.8-.6,1.2-1.3,1.2s-1.3-.4-1.4-1.2v-1.6c0-2.4,0-5.2,0-7.2,0-1.9,1.2-2.9,3.2-3,1,0,2.6,0,4.3,0v-1c0-.9.7-1.3,1.3-1.3s1.3.4,1.3,1.3v1c1.8,0,3.5,0,4.6,0,1.8,0,3.1,1,3.1,2.9,0,.9,0,1.8,0,2.6v1.7c0,.5,0,1,0,2h0c0,1.9-1.4,3.4-3.9,3.4s-2.8-.2-2.8-1.5.4-1.3,1.1-1.3.2,0,.3,0c.4.1.9.2,1.4.2.7,0,1.3-.3,1.3-1.1,0,0,0-3.9,0-5.7,0-.6-.3-1-1-1-.9,0-2.4,0-4,0v11.5c0,.9-.7,1.3-1.3,1.3s-1.4-.4-1.4-1.3v-11.5Z"/>
                <path class="cls-5" d="M515.2,506.4c-.7-1-2.2-2.2-3.3-2.8-.5-.3-.7-.7-.7-1.1,0-.6.5-1.2,1.3-1.2s5.3,2.4,5.3,4.2-.7,1.5-1.5,1.5-.8-.2-1-.6Z"/>
                <path class="cls-5" d="M423.6,533.4v10.3c0,.9-.7,1.3-1.4,1.3s-1.4-.4-1.4-1.3v-10.3s-8.7,0-8.7,0c-.8,0-1.2-.6-1.2-1.3s.4-1.3,1.2-1.3h8.7s0-4.9,0-4.9c-1.7.2-5,.5-7,.5s-1.4-.7-1.4-1.3.4-1.2,1.3-1.2c4.6,0,10-.6,15-2,.2,0,.3,0,.5,0,.9,0,1.3.7,1.3,1.4s-.2,1-.8,1.2c-1.6.4-3.8.8-6.1,1.2v5.3h8.9c.8,0,1.2.6,1.2,1.3s-.4,1.2-1.2,1.2h-8.9Z"/>
                <path class="cls-5" d="M457.5,538.8h-7.6c2.7,1.6,5.3,2.4,8.2,3.2.6.2.8.6.8,1s-.5,1.4-1.3,1.4-4.7-1.2-8.9-4.3v3.9c0,0,0,0,0,0,0,.7-.6,1-1.2,1s-1.2-.4-1.2-1h0s0-3.8,0-3.8c-3.6,2.7-8.3,4.3-9,4.3s-1.3-.6-1.3-1.2.3-.9,1-1.1c3.1-.9,5.5-1.9,8-3.6h-7.3c0,.1,0,.1,0,.1-.7,0-1.1-.5-1.1-1s.4-1.1,1.1-1.1h8.6s0-.8,0-.8c0-.3,0-.5.2-.7-3.3,0-6.1,0-6.1-2.9s0-1.8,0-2.8h-3.6c-.7,0-1.1-.5-1.1-1s.4-1,1.1-1h3.6v-.8c0-.7.7-1.1,1.3-1.1s1.3.4,1.3,1h0c0,0,0,.9,0,.9h2.6c0-.3,0-.6,0-.9,0-.6.6-.9,1.2-.9s1.2.3,1.2,1h0v.9h3.2v-.9c0-.2,0-.3,0-.4-.2.1-.5.2-.8.2-.6,0-1.2-.3-1.2-1v-.7h-3.8v.7c0,.6-.6,1-1.2,1s-1.2-.3-1.2-1v-.7h-5.5c-.7,0-1.1-.5-1.1-1.1s.4-1,1.1-1h5.5v-1.1c0-.6.6-.9,1.2-.9s1.2.3,1.2.9v1.1h3.8v-1.1c0-.6.6-.9,1.2-.9s1.2.3,1.2.9v1.1h5.7c.7,0,1.1.5,1.1,1s-.4,1.1-1.1,1.1h-5.7v.7c0,.2,0,.3,0,.4.2-.1.5-.2.7-.2.6,0,1.2.4,1.2,1s0,.6,0,.9h4.5c.7,0,1.1.5,1.1,1s-.4,1-1.1,1h-4.5c0,1.8,0,2.7-4.2,2.7s-3.7,0-3.8-1.8c0-.3,0-.6,0-.9h-2.6c0,.5,0,.9,0,1.4s0,.8,0,1.1c0,1,.3,1.1,6.1,1.1s4.1,0,6.2,0h0c.7,0,1.1.5,1.1,1s-.4,1.1-1.1,1.1c-2.4,0-4.6,0-6.8,0,.2.2.2.4.2.7v.8s8.7,0,8.7,0c.7,0,1.1.5,1.1,1.1s-.4,1-1,1h0ZM451.3,529.3h-3.2c0,.2,0,.4,0,.6,0,.5,0,.6,1.7.6s1.4-.3,1.5-.6v-.6Z"/>
                <path class="cls-5" d="M473.4,527.2h-10.1c-.9,0-1.3-.6-1.3-1.2s.4-1.3,1.3-1.3h8.8c0,0,0-2.5,0-2.5,0-.8.7-1.3,1.4-1.3s1.4.4,1.4,1.3v2.6s8.7,0,8.7,0c.8,0,1.3.6,1.3,1.2s-.4,1.3-1.3,1.3h-10.2ZM472.1,532.1c-1.5,0-3,0-3.8,0-.7,0-1.1.4-1.1,1.2,0,1,0,2.5,0,4s0,3.1,0,4.4h0c0,.8-.6,1.2-1.3,1.2s-1.3-.4-1.4-1.2v-1.6c0-2.4,0-5.2,0-7.2,0-1.9,1.2-2.9,3.2-3,1,0,2.6,0,4.3,0v-1c0-.9.7-1.3,1.3-1.3s1.3.4,1.3,1.3v1c1.8,0,3.5,0,4.6,0,1.8,0,3.1,1,3.1,2.9,0,.9,0,1.8,0,2.6v1.7c0,.5,0,1,0,2h0c0,1.9-1.4,3.4-3.9,3.4s-2.8-.2-2.8-1.5.4-1.3,1.1-1.3.2,0,.3,0c.4.1.9.2,1.4.2.7,0,1.3-.3,1.3-1.1,0,0,0-3.9,0-5.7,0-.6-.3-1-1-1-.9,0-2.4,0-4,0v11.5c0,.9-.7,1.3-1.3,1.3s-1.4-.4-1.4-1.3v-11.5Z"/>
              </g>
            </g>
          </g>
          <g>
            <rect class="cls-12" x="25.5" y="450.7" width="201.3" height="113.4"/>
            <polygon class="cls-20" points="108.4 421.8 71.3 450.7 95.7 450.7 108.4 421.8"/>
            <g>
              <g>
                <path class="cls-5" d="M59.8,495.4v6.4c0,1-.9,1.5-1.8,1.5s-1.8-.5-1.8-1.5v-6.4h-4.4c-1.1,0-1.7-.7-1.7-1.5s.6-1.6,1.7-1.6h4.4v-8.1c-2.7,4.8-6.8,9.4-11.5,13-.4.3-.9.5-1.3.5-1,0-1.9-.8-1.9-1.7s.3-1.1,1-1.6c4.8-3.3,9.1-7.7,12.2-13.2h-10.2c0,.1,0,.1,0,.1-1.1,0-1.7-.8-1.7-1.6s.6-1.7,1.7-1.7h11.8v-6.2c0-1.1.9-1.6,1.7-1.6s1.8.6,1.8,1.6v6.2h11.8c1.1,0,1.6.8,1.6,1.7s-.5,1.6-1.6,1.6h-10.3c3.3,5.2,7.8,9.1,12.3,12,.6.4.9,1,.9,1.5,0,1-1,2-2.1,2s-.9-.1-1.3-.4c-3.9-2.8-8.3-7.5-11.3-12.4v7.4c.1,0,.1,1,.1,1h4.4c1.1,0,1.6.8,1.6,1.6s-.5,1.6-1.6,1.6h-4.4Z"/>
                <path class="cls-5" d="M78.4,502.3c-1.2,0-2.3-1-2.3-2.1s.2-1,.8-1.3c7.7-5,9.2-11.8,9.7-19.5,0-1.1,1-1.6,1.9-1.6s2,.6,2,1.8h0c-.7,8.8-2.7,16.8-10.8,22.3-.4.3-.9.4-1.4.4ZM89.1,476.1h0c-1.2,0-1.8-.9-1.8-1.7s.6-1.7,1.7-1.7c1.5,0,3.3,0,5.1,0s5.6,0,5.7,4c.3,7.5,2,16.6,9.9,20.9.8.4,1.1,1.1,1.1,1.7,0,1.1-1.1,2.3-2.4,2.3s-.9-.1-1.3-.4c-8.3-5.2-10.3-15.2-11-23.6,0-1-.6-1.5-1.5-1.5h-5.5Z"/>
                <path class="cls-5" d="M143.6,482l-6.3-.2c2.1,1.9,4.6,3.4,6.9,4.4.7.3,1,.9,1,1.4,0,.9-.8,1.8-1.8,1.8s-5.5-3.5-7.7-5.8v3.4c.1,1.1-.9,1.4-1.5,1.4s-1.6-.4-1.6-1.3h0c0,0,.1-3.3.1-3.3-1.8,2.4-5.7,6.1-7.2,6.1s-.9-.2-1.1-.5c0,.7,0,1.3,0,1.5v.2c0,2-1.2,2.9-2.8,2.9s-1.2,0-1.6-.6v8.5c0,1-.7,1.4-1.5,1.4s-1.6-.5-1.6-1.4v-22.1c0,0-.1,0-.1,0-.8,0-1.1.4-1.1,1.2,0,2.4,0,5.4,0,8.4v3.6h0c0,1.1-.7,1.6-1.4,1.6s-1.4-.5-1.5-1.6c0-1.7,0-3.4,0-5.3s0-5.1,0-7.2c0-2.2,1-3.3,3.4-3.4h.7v-5.1c0-1.1.8-1.6,1.6-1.6s1.7.6,1.7,1.6v5.1c.3,0,.7,0,1,0,1.9.1,2.9,1,3.1,2.7.2-.4.6-.7,1.2-.7h2.5c-.9-1.1-.9-1.4-.9-1.6,0-.7.9-1.3,1.6-1.3s1.3.3,2.6,2.9h1.3s0-3.6,0-3.6c-2.5.1-4.6.2-5.3.2h0c-1.1,0-1.7-.8-1.7-1.5s.5-1.4,1.6-1.4h0c.4,0,1,0,1.4,0,3.5,0,8-.4,11.6-1.4.1,0,.3,0,.4,0,.9,0,1.6.8,1.6,1.6,0,1.3-1,1.7-6.5,2.3v3.9h1.2c.5-1,.9-1.9,1.2-2.7.2-.6.7-.9,1.3-.9.9,0,1.7.7,1.7,1.6s-.1.6-1,2h3.3s0,0,0,0c.9,0,1.3.7,1.3,1.5s-.4,1.4-1.3,1.4h0ZM120.1,491.1c.1-.2.4-.4.7-.4s.1,0,.2,0h.1c.2,0,.5-.1.5-.6v-3.4c0-1.9,0-4.2,0-5.8,0-.7-.3-1.1-1.1-1.2-.1,0-.3,0-.4,0v11.4ZM125.5,482c-.6,0-1-.3-1.2-.6,0,1.7,0,4.1,0,6.1.1-.1.3-.3.4-.4,2.6-1.5,4.5-3.1,6.3-5.3l-5.6.2ZM138.8,502.4c-1.3,0-2.8.1-4.4.1s-3.1,0-4.4-.1c-2.4-.1-3.5-1.4-3.6-3.2,0-1.1,0-2.3,0-3.6s0-2.6,0-3.7c0-1.4,1-2.8,3.6-3,1.3,0,2.7,0,4.2,0s3,0,4.4,0c2.3,0,3.5,1.4,3.6,2.9,0,1.1,0,2.4,0,3.7s0,2.6,0,3.7c-.1,1.7-1.3,3-3.5,3.1ZM132.7,491.3c-.7,0-1.3,0-1.9,0-1.2,0-1.4.5-1.4,2.9h3.3v-3ZM132.7,496.7h-3.3c0,.7,0,1.4,0,2,0,1.2.8,1.2,3.2,1.2v-3.2ZM139.2,494.3c0-.6,0-1.1,0-1.7,0-1.2-.3-1.3-3.4-1.3v3h3.4ZM135.8,496.7v3.2c.7,0,1.5,0,2.1,0,1.2,0,1.3-.5,1.3-3.2h-3.4Z"/>
                <path class="cls-5" d="M151.2,503.4c-.9,0-1.8-.6-1.8-1.6,0-6.7,0-18.9.2-26.7,0-3.5,2-3.5,5.4-3.5s1.4,0,2,0c2.1,0,3.2,1.2,3.2,2.8s-.2,1.8-2.2,6c-.2.4-.3.7-.3,1,0,.5.2,1,.6,1.5,1.3,1.6,2,3.2,2,5.7s-2,5.6-4.7,5.6-2.6-.1-2.6-1.8.6-1.6,1.3-1.6.3,0,.4,0c.2,0,.3,0,.5,0,.8,0,1.7-.7,1.7-2.7s-.5-3-1.4-4.3c-.7-1-1-1.8-1-2.6s.2-1.3.5-2.1c.8-1.8,1.5-4,1.5-4.3,0-.4-.2-.7-1.5-.7s-2.1,0-2.1,1.3c0,3.4,0,7.8,0,12.4v13.7c0,1.1-.9,1.6-1.7,1.6ZM156.7,501.5c0-.7.4-1.4,1.4-1.8,5-1.8,6.4-4.7,7-8.6.1-1,.9-1.4,1.6-1.4s1.9.7,1.9,1.7,0,.2,0,.3c-1.7,10-9.6,11.5-10.1,11.5-1.1,0-1.8-.8-1.8-1.7ZM176.7,481.1v-1.5c0-1.3-.5-1.6-1.7-1.6-1.5,0-3.3,0-5,0s-3.4,0-4.8,0c-1.4,0-1.8.4-1.8,1.5v1.6c0,1-.9,1.6-1.7,1.6s-1.7-.5-1.7-1.6v-1.8c0-1.7,0-4,3.8-4.1,1.3,0,2.7,0,4.1,0v-2.6s0,0,0,0c0-1.1.9-1.7,1.9-1.7s1.9.6,1.9,1.7h0s0,2.7,0,2.7c1.6,0,3.3,0,4.7,0,2.4.1,3.8,1.2,3.8,3.4v2.6c0,1-1,1.6-1.9,1.6s-1.7-.5-1.7-1.5h0ZM177.5,496.1c0-1,.8-1.5,1.6-1.5s1.9.3,1.9,1.8c0,5.3-2,6.3-6,6.3s-4.8-1.6-4.8-4.3,0-6.9.1-9.4h-8.3c-1,0-1.5-.7-1.5-1.5s.5-1.5,1.5-1.5h16.8c1,0,1.4.8,1.4,1.6s-.5,1.5-1.4,1.5h-5.1c0,2.1-.1,6.5-.1,8.3s.1,1.9,1.5,1.9c2.1,0,2.5-.6,2.5-2.8v-.4h0ZM165.7,483.5c-1,0-1.6-.7-1.6-1.5s.5-1.5,1.6-1.5h8.9c1,0,1.4.7,1.4,1.5s-.5,1.5-1.4,1.5h-8.9Z"/>
              </g>
              <g>
                <path class="cls-5" d="M55.1,526h-10.1c-.9,0-1.3-.6-1.3-1.2s.4-1.3,1.3-1.3h8.8c0,0,0-2.5,0-2.5,0-.8.7-1.3,1.4-1.3s1.4.4,1.4,1.3v2.6s8.7,0,8.7,0c.8,0,1.3.6,1.3,1.2s-.4,1.3-1.3,1.3h-10.2ZM53.8,531c-1.5,0-3,0-3.8,0-.7,0-1.1.4-1.1,1.2,0,1,0,2.5,0,4s0,3.1,0,4.4h0c0,.8-.6,1.2-1.3,1.2s-1.3-.4-1.4-1.2v-1.6c0-2.4,0-5.2,0-7.2,0-1.9,1.2-2.9,3.2-3,1,0,2.6,0,4.3,0v-1c0-.9.7-1.3,1.3-1.3s1.3.4,1.3,1.3v1c1.8,0,3.5,0,4.6,0,1.8,0,3.1,1,3.1,2.9,0,.9,0,1.8,0,2.6v1.7c0,.5,0,1,0,2h0c0,1.9-1.4,3.4-3.9,3.4s-2.8-.2-2.8-1.5.4-1.3,1.1-1.3.2,0,.3,0c.4.1.9.2,1.4.2.7,0,1.3-.3,1.3-1.1,0,0,0-3.9,0-5.7,0-.6-.3-1-1-1-.9,0-2.4,0-4,0v11.5c0,.9-.7,1.3-1.3,1.3s-1.4-.4-1.4-1.3v-11.5Z"/>
                <path class="cls-5" d="M68.8,543.5c-.8,0-1.6-.7-1.6-1.4s.1-.5.4-.8c4.1-4.1,4.2-9.3,4.2-14.1s0-3.8-.1-5.3h0c0-.8.6-1.2,1.3-1.2s1.4.4,1.5,1.2c0,.6,0,1.3,0,2,0,1.8,0,3.9,0,5.4,0,3.9-.5,9.5-4.5,13.7-.3.3-.7.5-1.1.5ZM78.8,522.5c0-.8.6-1.2,1.3-1.2s1.3.4,1.3,1.2v17.8c0,.7-.7,1.1-1.3,1.1s-1.3-.4-1.3-1.1v-17.8ZM86.3,521.7c0-.8.7-1.2,1.3-1.2s1.4.4,1.4,1.2v20.6c0,.7-.7,1.1-1.3,1.1s-1.3-.4-1.3-1.1v-20.6Z"/>
                <path class="cls-5" d="M105,526h-10.1c-.9,0-1.3-.6-1.3-1.2s.4-1.3,1.3-1.3h8.8c0,0,0-2.5,0-2.5,0-.8.7-1.3,1.4-1.3s1.4.4,1.4,1.3v2.6s8.7,0,8.7,0c.8,0,1.3.6,1.3,1.2s-.4,1.3-1.3,1.3h-10.2ZM103.7,531c-1.5,0-3,0-3.8,0-.7,0-1.1.4-1.1,1.2,0,1,0,2.5,0,4s0,3.1,0,4.4h0c0,.8-.6,1.2-1.3,1.2s-1.3-.4-1.4-1.2v-1.6c0-2.4,0-5.2,0-7.2,0-1.9,1.2-2.9,3.2-3,1,0,2.6,0,4.3,0v-1c0-.9.7-1.3,1.3-1.3s1.3.4,1.3,1.3v1c1.8,0,3.5,0,4.6,0,1.8,0,3.1,1,3.1,2.9,0,.9,0,1.8,0,2.6v1.7c0,.5,0,1,0,2h0c0,1.9-1.4,3.4-3.9,3.4s-2.8-.2-2.8-1.5.4-1.3,1.1-1.3.2,0,.3,0c.4.1.9.2,1.4.2.7,0,1.3-.3,1.3-1.1,0,0,0-3.9,0-5.7,0-.6-.3-1-1-1-.9,0-2.4,0-4,0v11.5c0,.9-.7,1.3-1.3,1.3s-1.4-.4-1.4-1.3v-11.5Z"/>
                <path class="cls-5" d="M122.4,543.3c-.7-1-2.2-2.2-3.3-2.8-.5-.3-.7-.7-.7-1.1,0-.6.5-1.2,1.3-1.2s5.3,2.4,5.3,4.2-.7,1.5-1.5,1.5-.8-.2-1-.6Z"/>
                <path class="cls-5" d="M139.9,530.7c-1.1-.9-2.2-1.3-3.2-1.6-.5-.2-.7-.5-.7-.9,0-.6.5-1.3,1.3-1.3s3.1.9,4,1.6c.4.3.6.7.6,1.1,0,.8-.6,1.5-1.2,1.5s-.5,0-.8-.3ZM137.8,543.1c-.7,0-1.4-.6-1.4-1.3s0-.5.3-.8c1.5-1.9,2.8-4.2,3.7-6.4.2-.5.6-.7,1.1-.7s1.3.5,1.3,1.2-1.6,4.4-3.7,7.3c-.4.5-.9.7-1.3.7ZM140.8,524.8c-.8-1-2.1-1.7-2.7-2.1-.4-.2-.5-.5-.5-.8,0-.6.6-1.3,1.3-1.3s4.2,1.7,4.2,3.2-.7,1.5-1.4,1.5-.6-.1-.9-.5ZM152.5,537.9v4.8c0,.7-.6,1.1-1.2,1.1s-1.2-.4-1.2-1.1v-4.8h-3.4c0,1.6,0,3.2,0,4.8h0c0,.8-.6,1.1-1.2,1.1s-1.2-.4-1.2-1.1c0-1.7,0-3.5,0-5.3s0-5,0-7.3c0-1.6.9-2.4,2.9-2.5.9,0,1.8,0,2.9,0v-1.8h-5.5c-.8,0-1.2-.5-1.2-1.1s.4-1.1,1.2-1.1h5.5c0,0,0-2.4,0-2.4,0-.8.6-1.2,1.2-1.2s1.2.4,1.2,1.2v2.5h6c.8,0,1.2.5,1.2,1.1s-.4,1.1-1.2,1.1h-6c0,0,0,1.7,0,1.7,1.1,0,2.1,0,3.1,0,1.8,0,2.7.9,2.8,2.5v1.1c0,1.5,0,2.9,0,3.9,0,2,.1,4.6.1,4.9v.2c0,1.7-1,3.2-3.1,3.2s-2-.8-2-1.3.3-1.1.9-1.1.2,0,.2,0c.2,0,.4,0,.6,0,.5,0,.8-.3.8-1.5,0,0,0-.8,0-1.9h-3.5ZM150.1,533.7h-3.4c0,.7,0,1.5,0,2.2h3.4v-2.2ZM150.1,529.6c-.9,0-1.7,0-2.5,0-.6,0-.9.3-.9.9v1.2s3.3,0,3.3,0v-2.1ZM156,531.7c0-.4,0-.8,0-1.2,0-.5-.3-.9-1-.9-.8,0-1.6,0-2.5,0v2.1h3.5ZM152.5,533.7v2.2h3.5c0-.7,0-1.5,0-2.2h-3.5ZM156.1,523.3c-.6-.7-1.3-1-2-1.3-.3-.1-.4-.4-.4-.6,0-.5.6-1.1,1.2-1.1s2.9,1,2.9,2.1-.5,1.2-1.1,1.2-.4,0-.6-.3Z"/>
                <path class="cls-5" d="M179.2,532.2c-.2,1.9-.8,3.5-1.5,4.9,2.6,1.2,6,3.3,6,4.6s-.7,1.4-1.5,1.4-.7-.1-1-.5c-1.4-1.5-3-2.7-4.9-3.6-3.3,3.8-9,4.5-11.9,4.5s-1.5-.7-1.5-1.3.5-1.2,1.4-1.2c4,0,7.4-.8,9.6-3-1.1-.4-2.3-.7-3.6-.9-.4,1.1-.8,1.8-1.9,1.8s-1.3-.4-1.3-1,0-.4.2-.6c.8-1.6,1.6-3.4,2.2-5.2h-5.5c-.8,0-1.2-.6-1.2-1.2s.4-1.1,1.2-1.1h6.2c.3-1,.6-2.1.8-3.1.2-.7.8-1,1.3-1s1.3.4,1.3,1.1-.4,1.7-.8,3h11.1c.8,0,1.2.6,1.2,1.1s-.4,1.2-1.2,1.2h-4.8ZM175.4,522.8c2,0,4,0,6,0,1.5,0,3,1.2,3,2.8,0,.4,0,.9,0,1.3,0,1,0,2.1-1.5,2.1s-1.3-.4-1.3-1.2h0c0-2.4,0-2.8-1.6-2.8-2.1,0-4.5,0-6.8,0s-3.8,0-5.4,0c-1.5,0-1.6.5-1.7,1.5v1.3h0c0,.8-.7,1.2-1.3,1.2s-1.3-.4-1.3-1.3c0-.4,0-.7,0-1.1s0-.8,0-1.2c0-1.3,1-2.6,3.1-2.7,2,0,4,0,6.1,0v-2c0-.8.7-1.2,1.4-1.2s1.4.4,1.4,1.2v2ZM172.1,532.2c-.3,1-.7,2-1.1,3,1.4.2,2.9.5,4.2,1,.6-1.1,1-2.4,1.2-4h-4.3Z"/>
                <path class="cls-5" d="M199.7,526h-10.1c-.9,0-1.3-.6-1.3-1.2s.4-1.3,1.3-1.3h8.8c0,0,0-2.5,0-2.5,0-.8.7-1.3,1.4-1.3s1.4.4,1.4,1.3v2.6s8.7,0,8.7,0c.8,0,1.3.6,1.3,1.2s-.4,1.3-1.3,1.3h-10.2ZM198.4,531c-1.5,0-3,0-3.8,0-.7,0-1.1.4-1.1,1.2,0,1,0,2.5,0,4s0,3.1,0,4.4h0c0,.8-.6,1.2-1.3,1.2s-1.3-.4-1.4-1.2v-1.6c0-2.4,0-5.2,0-7.2,0-1.9,1.2-2.9,3.2-3,1,0,2.6,0,4.3,0v-1c0-.9.7-1.3,1.3-1.3s1.3.4,1.3,1.3v1c1.8,0,3.5,0,4.6,0,1.8,0,3.1,1,3.1,2.9,0,.9,0,1.8,0,2.6v1.7c0,.5,0,1,0,2h0c0,1.9-1.4,3.4-3.9,3.4s-2.8-.2-2.8-1.5.4-1.3,1.1-1.3.2,0,.3,0c.4.1.9.2,1.4.2.7,0,1.3-.3,1.3-1.1,0,0,0-3.9,0-5.7,0-.6-.3-1-1-1-.9,0-2.4,0-4,0v11.5c0,.9-.7,1.3-1.3,1.3s-1.4-.4-1.4-1.3v-11.5Z"/>
              </g>
            </g>
          </g>
        </g>
        <circle class="cls-10" cx="143.2" cy="358" r="9.1"/>
        <circle class="cls-10" cx="275.5" cy="340.5" r="9.1"/>
        <circle class="cls-10" cx="341.7" cy="327.3" r="9.1"/>
        <circle class="cls-10" cx="210.2" cy="353.9" r="9.1"/>
        <rect class="cls-5" x="121.9" y="23.2" width="345.8" height="65.2" rx="32.6" ry="32.6"/>
        <g>
          <path class="cls-19" d="M198.6,47.7c-1.2,0-1.7-.8-1.7-1.6s.6-1.6,1.7-1.6h11.4c1.2,0,1.7.8,1.7,1.6s-.6,1.6-1.7,1.6h-11.4ZM231.1,47.7h-8.7c0,1.3-.2,2.8-.4,4.1,1.6,0,3,0,4.8,0,2.5,0,4,1.2,4,3.8,0,8.2-.9,17-7.9,17s-2.7-.3-4.4-1c-.8-.3-1.2-1-1.2-1.7,0-1.1.8-2.2,1.8-2.2s.4,0,.6.2c1.2.6,2.1.9,3,.9,4.2,0,4.3-9.3,4.3-12.2s-.6-1.5-1.4-1.5c-1.3,0-2.6,0-4,0-1,7.1-3.3,13-8.8,17.4-.4.3-.9.5-1.4.5-1.1,0-2.1-.8-2.2-1.9-1,1.1-2.1,1.1-5.3,1.1s-2,0-2.8,0c-1.8-.1-2.9-1.4-3-3.2,0-1,0-2,0-3s0-1.9,0-2.8c0-1.5,1-2.9,2.9-3,.8,0,1.7,0,2.6,0s2.3,0,3.2,0c1.5,0,3.2,1.1,3.2,2.8,0,.9,0,2,0,3s0,2,0,2.9c0,.2,0,.5,0,.7,0,0,0-.1.2-.2,6.8-5,8-13.5,8.3-21.8h-4.6c0,0,0,0,0,0-1.2,0-1.8-.9-1.8-1.8s.6-1.8,1.8-1.8h5.7v-4.2c0-1.2,1-1.8,2-1.8s2,.6,2,1.8v4.2h7.5c1.2,0,1.8.9,1.8,1.8s-.6,1.8-1.8,1.8h0ZM200.2,42.2c-1.1,0-1.6-.8-1.6-1.6s.5-1.6,1.6-1.6h8.5c1.1,0,1.6.8,1.6,1.6s-.6,1.6-1.6,1.6h-8.5ZM200.3,52.9c-1.1,0-1.6-.8-1.6-1.6s.5-1.6,1.6-1.6h8.5c1.1,0,1.6.8,1.6,1.6s-.6,1.6-1.6,1.6h-8.5ZM200.3,58.1c-1.1,0-1.6-.8-1.6-1.6s.5-1.6,1.6-1.6h8.5c1.1,0,1.6.8,1.6,1.6s-.6,1.6-1.6,1.6h-8.5ZM206.8,66.1c0-.7,0-1.4,0-2,0-1-.8-1.1-2.6-1.1-2.6,0-2.6,0-2.6,3s0,1.4,0,2c0,.6.2,1,2.5,1s2.6,0,2.7-1c0-.6,0-1.3,0-2Z"/>
          <path class="cls-19" d="M243.3,73.3c-1,0-1.9-.6-1.9-1.6h0c.3-7.4.2-20,.3-28.7,0-3.9,2.7-3.9,6.9-3.9s3.2,0,3.9,0c2,0,3.5,1.4,3.6,3.2,0,1.4,0,2.9,0,4.4,0,5.1,0,6.1-8,6.1s-2,0-2.8,0v3.6c0,4.3,0,9.7-.2,15.4,0,1.2-1,1.7-1.9,1.7ZM252.6,44.6c0-.5,0-1,0-1.4,0-1.1-.3-1.2-3.5-1.2s-3.6.1-3.6,1.6c0,.3,0,.7,0,1h7.2ZM245.4,47.2v2.6c.6,0,1.8,0,3,0,3.9,0,4.2-.2,4.2-1.3,0-.4,0-.8,0-1.3h-7.2ZM261.1,67.8c-.9,0-2.2.1-3.5.1-6.6,0-7.8,0-7.8-5.9s0-2.3,0-3.4c.1-2.1,1.5-3.5,3.7-3.6,1,0,2.4,0,3.9,0s2.9,0,3.8,0c2,0,3.6,1.6,3.7,3.6,0,1,0,2.2,0,3.3s0,1.4,0,2.1c0,2.1-1.4,3.6-3.8,3.8ZM261.3,60.6c0-2.5-.2-2.6-4-2.6s-3.9.1-3.9,3,0,1.6,0,2.3c0,1.2,1.1,1.3,3.9,1.3s1.8,0,2.4,0c1.6-.1,1.6-.7,1.6-4ZM267,52.8c-4.7,0-8,0-8.2-3.5,0-.8,0-1.7,0-2.6,0-1.5,0-3,0-4.4,0-1.8,1.4-3.1,3.5-3.2.8,0,2.4,0,4.1,0s2.3,0,3,0c3,.2,4.2,1.8,4.2,3.6v3c0,6,0,12.2,0,17.3s0,3.6,0,5c0,2.8-1.4,5.3-6,5.3s-4.2-.4-4.2-2.1.6-1.8,1.6-1.8.2,0,.3,0c.8.1,1.5.2,2.1.2,1.3,0,2.3-.5,2.4-2.4,0-1.6,0-3.3,0-5,0-2.6,0-5.3,0-7.8v-1.6c-.7,0-1.8,0-2.9,0ZM269.9,44.6c0-2.6,0-2.6-3.8-2.6s-3.6,0-3.7,1.3c0,.4,0,.8,0,1.3h7.5ZM270,47.2h-7.6c0,.5,0,.9,0,1.3,0,1.1.2,1.3,4.4,1.3s2.6,0,3.2,0v-2.6Z"/>
          <path class="cls-19" d="M290.1,52.5c-2.6-.1-2.5-3.8,0-3.8,5.2.1,12.2,0,18.2-.2,1.4,0,2.1.9,2.1,1.9,0,1-.8,1.9-2.1,2-2,0-4.5,0-7.1.1,0,3.4,0,8,0,10.6,4.4,0,8.8,0,12.4,0s2,1,2,2.1c0,1-.8,2-2.4,2-8.5-.2-20-.1-27.7.1-3.2,0-3-3.9,0-3.9,3.1,0,7.3-.1,11.6-.2,0-3,0-8.2,0-10.6-2.9,0-5.5,0-7.2,0Z"/>
          <path class="cls-19" d="M329.5,59.7c-1,0-2.2-.7-2.1-2,.2-4,.1-10.2,0-14-.1-2.5,4-2.7,4.2-.2.2,3.6.2,10.4.1,14.2,0,1.4-1.1,2.1-2.1,2.1ZM329.8,69.4c7.1-3.9,8.7-9.3,8.7-15.2s-.2-8.1-.2-11.2,4.3-2.4,4.3,0c0,3.4.1,7.9.1,11.2,0,6.9-2.1,13.8-10.4,18.6-3.3,1.9-5-1.9-2.5-3.3Z"/>
          <path class="cls-19" d="M360.9,71.5c-1.6,1-3.1.6-3.8-.4s-.5-2.3,1.1-3.1c6.7-3.3,9-9.9,8.4-15.7-.2-1.7.9-2.4,2.2-2.4s2.4.6,2.4,2.3c0,.5,0,1,0,1.5.1,0,.2-.1.3-.2,2.7-1.1,5.7-2.9,7.3-5,.6-.8.6-1.4-.4-1.4-4.5,0-13.2,0-18.8.4-3.5.2-3.3-3.7-.3-3.8,5.8-.3,14.5-.2,20.5-.2s6.1,3.5,3.3,6.6c-2.6,3-5.6,5.6-9.9,7.1-.9.3-1.7.2-2.3-.1-1,6.1-4,10.9-9.9,14.6Z"/>
        </g>
        <path class="cls-24" d="M586.8,2.8v583.9H2.8V2.8h583.9M589.6,0H0v589.6h589.6V0h0Z"/>
      </g>
    </g>
  </g>
</svg>