<?xml version="1.0" encoding="UTF-8"?>
<svg id="_レイヤー_1" data-name="レイヤー_1" xmlns="http://www.w3.org/2000/svg" xmlns:xlink="http://www.w3.org/1999/xlink" version="1.1" viewBox="0 0 357.2 190.5">
  <!-- Generator: Adobe Illustrator 29.5.1, SVG Export Plug-In . SVG Version: 2.1.0 Build 141)  -->
  <defs>
    <style>
      .st0 {
        fill: none;
      }

      .st1, .st2, .st3 {
        fill: #e7b859;
      }

      .st1, .st4, .st5, .st3, .st6, .st7, .st8, .st9, .st10, .st11 {
        stroke-miterlimit: 10;
      }

      .st1, .st4, .st3, .st6, .st12 {
        stroke: #fff;
      }

      .st1, .st4, .st6, .st12 {
        stroke-width: .3px;
      }

      .st4, .st13 {
        fill: #5eb8b5;
      }

      .st5 {
        stroke: #e5a890;
      }

      .st5, .st7, .st8, .st11 {
        fill: #fff;
        stroke-width: 1.4px;
      }

      .st3 {
        stroke-width: .7px;
      }

      .st3, .st12 {
        stroke-linecap: round;
      }

      .st6, .st14 {
        fill: #df949e;
      }

      .st15 {
        fill: #c2bcb5;
      }

      .st12 {
        stroke-linejoin: round;
      }

      .st12, .st16 {
        fill: #c3bcb5;
      }

      .st7 {
        stroke: #df949e;
      }

      .st8 {
        stroke: #5eb8b5;
      }

      .st17 {
        opacity: .7;
      }

      .st18 {
        fill: #e5a890;
      }

      .st19 {
        fill: #695532;
      }

      .st9 {
        stroke-width: .4px;
      }

      .st9, .st10 {
        fill: #329139;
        stroke: #bbcf46;
      }

      .st10 {
        stroke-width: .4px;
      }

      .st20 {
        clip-path: url(#clippath);
      }

      .st11 {
        stroke: #e7b859;
      }
    </style>
    <clipPath id="clippath">
      <rect class="st0" x="33.2" y="3.5" width="306.4" height="178.6"/>
    </clipPath>
  </defs>
  <g class="st17">
    <g class="st20">
      <g>
        <path class="st16" d="M48.8,112.6s0,0,0,0c.2,0,.3.1.4.3l1.5,3.4,4.1.6c.1,0,.2,0,.3.2l5.6,7.3,4.8,1.6v-6l-4-3c-.2-.1-.2-.4,0-.6l2.5-3.6v-2.6c-3-2.5-4.1-3.6-4.6-4-.6.4-2.5,1.8-4.1,3,0,0-.2,0-.3,0s0,0,0,0c-.1,0-.2-.1-.3-.2l-1.7-3.3-7.4,5.3v1.9c0,0,3.3-.5,3.3-.5Z"/>
        <path class="st16" d="M72.3,133.4c0,0-.2,0-.3,0l-6.8-5.2-3.2,3.9c0,0-.1.1-.2.1l-3.6,1.4,1.4,2.2c0,.1,0,.3,0,.4l-2,4,.9,2.5,10.3,5.5,5.6.4-.2-.6c0,0,0-.1,0-.2l2.2-14.4h-4.2Z"/>
        <path class="st16" d="M79.8,120.9l.5-.5-.9-6.2h-4.3c-.1,0-.2,0-.3-.1l-5.5-5.7-4.6,4.8-2.3,3.4,3.8,2.8c.1,0,.2.2.2.4v6.8c0,.1,0,.2,0,.3l-.4.5,6.6,5.1h4.2l.9-5.7c0-.2.2-.4.4-.4h1.2l.4-5.2c0-.1,0-.2.1-.3Z"/>
        <path class="st13" d="M105.4,94.3l3.5-2-7.8-10.2-2.4,2.2v5.3c0,0,0,.2,0,.2l-8.1,13.4,6.8,2.4,6.2-7.5c0-.1.2-.2.3-.2s.2,0,.2,0l1.6.9-.5-4.2c0-.2,0-.3.2-.4Z"/>
        <path class="st14" d="M80.5,86.8l4.9,2.9,6.5-2.8c0,0,.1,0,.2,0s0,0,.1,0l5.7,2v-4.6l-5.9-.3c-.2,0-.3,0-.4-.2l-2.9-5.6-8.5-.8-2.8,1.5,5.8,4.8c0,0,.2.2.2.3,0,.1,0,.2-.1.3l-2.7,2.5Z"/>
        <path class="st13" d="M92,87.8l-6.5,2.8c0,0-.1,0-.2,0s-.2,0-.2,0l-3.9-2.3,2.4,9.9,4.2,4.1,1.9.6,7.9-13.1-5.6-2Z"/>
        <path class="st16" d="M47.2,71.4c.2,0,.3.1.4.3l4.7,12.3,6.1-2.1s0,0,.1,0c.1,0,.3,0,.4.2l.9,1.3,2.1-1.9c0,0,.2-.1.3-.1s3.1.2,3.1.2l1.1-2.7-4.3-5.6s0,0,0-.1l-2.5-7.6h-4c-.1,0-.3,0-.4-.2,0-.1-.1-.3,0-.4l2.2-6.6-18.5.8-5.7,7.7,3.4,3.4,10.7,1.2Z"/>
        <path class="st16" d="M79.5,87.3l-2.5-1.2-7.2,4.9c0,0-.2,0-.2,0s-.2,0-.2,0l-1.9-1.1-1.7,5.4,15.4,5,1.5-2-2.6-10.6-.6-.4Z"/>
        <path class="st16" d="M67.7,84.3c0,0-.2.1-.3.1s-.2,0-.3-.1l-1.7-1.9-3-.2-2.4,2.1c0,0-.2.1-.3.1s0,0,0,0c-.1,0-.2,0-.3-.2l-1-1.4-5.9,2-.6,2.4,3.4,3.4h5.5c.2,0,.4.2.4.4v2.7l3.8,1.2,1.9-5.9c0-.1.1-.2.3-.3,0,0,.1,0,.2,0,0,0,.2,0,.2,0l2.1,1.2,6.5-4.5-6.4-3.2-2,1.8Z"/>
        <path class="st15" d="M83.3,99l-1.5,2c0,.1-.2.2-.3.2s0,0-.1,0l-5.6-1.8-5.8,8.3,5.4,5.6h4.2l7.4-10.6-3.7-3.7Z"/>
        <path class="st16" d="M89.4,114.4l1.2-8-1-2.7-1.8-.6-7.5,10.7.8,5.8,1.5-1.4c0,0,.2-.1.3-.1s.1,0,.2,0c.2,0,.3.3.2.4l-.3,3,1.2,1.6,4.8-4.3.4-4.6Z"/>
        <path class="st16" d="M50.6,92.6l2.6,3.4h3.7c.2,0,.3,0,.4.2,0,.1,0,.3,0,.5l-2.6,3.4-1.2,5,1.7,3.1c3.9-3,4.1-3,4.3-3s.3,0,.4.2c.3.3,3.1,2.8,4.9,4.2,0,0,.2.2.2.3v1.9l4.2-4.3,5.8-8.4-14.2-4.6c-.2,0-.3-.2-.3-.4v-2.6h-5.2c-.1,0-.2,0-.3-.1l-3.2-3.2-1,4.3Z"/>
        <polygon class="st16" points="79.3 129.3 78.5 129.3 78 132.5 79.3 132.5 79.3 129.3"/>
        <polygon class="st16" points="77.6 135.7 79.3 135.7 79.3 133.4 77.9 133.4 77.6 135.7"/>
        <polygon class="st16" points="87.8 153.8 89.4 152.3 86.3 150.1 84 152 83.1 151.5 85.5 148.1 84.7 146.5 79.5 151.2 76.7 149.6 78.2 153.8 87.8 153.8"/>
        <polygon class="st16" points="76.4 148.4 79.4 150.2 84.3 145.7 79.3 136.3 77.6 136.3 76 147.7 76.3 148.5 76.4 148.4"/>
        <polygon class="st16" points="102.9 121.7 102.9 120.5 101.5 120.5 101.5 123 99.8 123 99.8 120.9 96.3 121.1 97 126.3 105.8 124.8 105.8 128.9 101.3 129.4 101.3 130.3 108.2 129.4 108.2 123.5 105.9 121.7 102.9 121.7"/>
        <polygon class="st16" points="103.7 135.2 106.2 138.8 107.7 137.7 107.7 130.4 103.3 130.9 103.7 135.2"/>
        <polygon class="st16" points="101.5 126 101.5 128.8 102.7 128.8 102.7 127.5 105.1 127.5 105.1 126.7 102.7 126.7 102.7 126 101.5 126"/>
        <polygon class="st16" points="96 127.7 95.5 121.7 93.1 123.4 93.1 125.1 88.2 128.4 87.2 127.3 86.2 127.9 89.6 131.8 90.9 131.1 93.4 134.3 94.5 132.2 92.7 129 93.4 127.7 96 127.7"/>
        <polygon class="st16" points="92.9 136.7 90.2 132.2 88.7 133.3 92 137.8 92.9 136.7"/>
        <polygon class="st16" points="91.1 139.5 86.5 132.8 84.5 134 89.5 143 91.1 139.5"/>
        <polygon class="st16" points="83.4 136.1 84.4 135.5 83.4 133.7 87.5 131.1 85.6 128.4 84 129 85 130.8 82.5 132.5 83.4 136.1"/>
        <polygon class="st16" points="100 139.8 97.7 138 93.1 141.4 91.1 145 92.3 145.7 100 139.8"/>
        <polygon class="st16" points="95.9 144.4 98.7 148.4 103.3 145.4 100.7 140.8 95.9 144.4"/>
        <polygon class="st16" points="91.7 147.6 96 150.2 97.8 149 95.1 145.1 91.7 147.6"/>
        <polygon class="st16" points="111.3 128.8 112.1 127.5 113.7 128.2 114 129.1 114.6 127.7 111.3 126.3 111.3 128.8"/>
        <polygon class="st16" points="114.9 129.1 116.2 129.1 116.9 130.5 117.7 128.8 115.4 127.9 114.9 129.1"/>
        <path class="st13" d="M97.9,106.4c0,.1-.2.2-.3.2s0,0-.1,0l-6.7-2.4.8,2.1c0,0,0,.1,0,.2l-1.1,7.8,1.9,1.1c.2,0,.2.3.2.5l-.8,5c0,.1,0,.2-.1.3l-5.1,4.4.4.6,9-6.5c0,0,.2,0,.3,0h11.5c.2,0,.4.2.4.4v2h1.3v-20l-5.2-3-6.1,7.4Z"/>
        <path class="st15" d="M87.5,44.2l-6.9-13.4-.5-1-9-11.8-5.3,5.5s0,0,0,0l-15.4,11.1.6,7.4,10.9,3.8c.1,0,.2.1.2.2,0,.1,0,.2,0,.3h0c0,.1-4.7,11.1-4.7,11.1.8.6,3.9,2.8,6.1,4.3l7.7.9c.2,0,.3.1.3.3l.7,2.7,6.4-3.8.5-4.8-2.2-3.8c0,0,0-.2,0-.3,0-.1,0-.2.2-.2,3.2-1.8,4.4-2.4,4.9-2.7l.2-3.7s0,0,0,0c0,0,0,0,0,0,0,0,0,0,0,0,0,0,0,0,0,0,0,0,0,0,0,0,0,0,0,0,0,0,0,0,0,0,.1,0l5-2Z"/>
        <path class="st15" d="M101.3,52.2c.1,0,.2.2.2.3l.2,7.4h3.1s2.6-2.5,2.6-2.5c0,0,.2-.1.3-.1s.1,0,.2,0l5.4,3.1c.6,0,1.1-.2,1.4-.3l-.7-3.5c0-.1,0-.2,0-.3l2.7-3.2v-3.6l-7-4.9s0,0,0,0c0,0,0,0,0,0,0,0,0,0,0,0,0,0,0,0,0,0,0,0,0,0,0,0,0,0,0,0,0,0,0,0,0,0,0,0h0s0,0,0,0h0s-1.8-12-1.8-12v-.5c0,0-4.3.6-4.3.6v10.8s0,0,0,0c0,0,0,.2-.1.2l-3.2,3.2-1.5,6.1c.9-.3,2.3-.7,2.3-.7.1,0,.3,0,.4,0Z"/>
        <path class="st15" d="M125,64.2c.2,0,.4,0,.5.2h0c0,.1-.7-16.9-.7-16.9-.2-1.3-.2-2.2,0-2.9.2-.7.4-1.5.3-2.9,0-.6,0-1.1-.1-1.4,0-.7-.1-1.3.1-2.1.2-.7.5-1.1.8-1.4.3-.3.5-.7.9-1.4.2-.5.5-1.4,1.1-3.2h0c.5-1.6.5-1.8.5-2.1,0-.4,0-.8-.1-1.1l-4.7-.5-9.9,2.2s0,0,0,0l-5.3,1.1.3,1.8,1.6,10.6,7,4.9c.1,0,.2.2.2.3v4c0,0,0,.2,0,.3l-2.6,3.2.6,3.2,3.7-1c.2,0,.3,0,.4.1l.9,1.1c.1.2.1.4,0,.5l-2,2.5,2.6,2.4,3.8-1.3Z"/>
        <path class="st15" d="M97.7,53.2l1.7-6.7c0,0,0-.1.1-.2l3.2-3.2v-10.9s0,0,0,0c0,0,0,0,0,0,0,0,0,0,0,0,0,0,0,0,0,0,0,0,0,0,0,0,0,0,0,0,0,0,0,0,0,0,0,0,0,0,0,0,0,0,0,0,0,0,0,0,0,0,0,0,0,0,0,0,0,0,0,0,0,0,0,0,0,0,0,0,0,0,0,0,0,0,0,0,0,0,0,0,0,0,0,0l4.3-.9-.4-2.7-.7.2-13.3,4.4c0,0-.1,0-.2,0h0s-10.9-1.7-10.9-1.7l6.8,13c0,.1,0,.2,0,.3,0,.1-.1.2-.2.2l-5.2,2.1v3.3c.6.3,2.6,1.4,8.8,4.9l5.9-1.9Z"/>
        <path class="st15" d="M153.6,69.1l1.3,1.9c0,.1,0,.3,0,.4l-1.9,3.4-.6,1.1,2,4.6,6.6.8,5.6-.6,3.8-8.2v-.3s-.9-11.1-.9-11.1l-6.6-1.6c0,0,0,.1,0,.2v3.9c0,.2-.1.3-.3.4l-7.1,1.9-1.9,3.3Z"/>
        <path class="st15" d="M155,60.4c-.2.1-.4,0-.5,0l-7.4-6.8c0,0,0-.1-.1-.2h0s-2.6-7.8-2.6-7.8l-7.5-5-7,5.7s0,0-.1,0l-4.1,1.4c.2,2.6.7,17.5.7,18.3h0s0,0,0,0c0,0,0,0,0,0,0,0,0,0,0,0,0,0,0,0,0,0,0,0,0,0,0,0,0,0,0,0,0,0,0,0,0,0,0,0,0,0,0,0,0,0,0,0,0,0,0,0,0,0,0,0,0,0l-4.5,3.9,3,8.2,5.8-4.8c.1-.1.3-.1.5,0h.2q0,.1,0,.1l10.8,7.6,3.2-9.6c0-.1.1-.2.2-.2,0,0,7.6-3.2,7.7-3.1l1.6-3.3c0-.1.1-.2.3-.2l7.1-1.9v-3.5l-2.6-2.3-4.4,3.1Z"/>
        <path class="st13" d="M186.2,61.7l-3.1,8.6c0,.1-.2.2-.3.3l-11.7,2.1s0,0,0,0h0s0,0,0,0l-3.9,8.5c0,.1-.2.2-.3.2l-5.8.7s0,0,0,0,0,0,0,0l-6.2-.6v6.6s-6.2,2.2-6.2,2.2l-6,5.4,5,3.1c0,0,.1.1.2.2l2.6,9.3h4.6l1.3-3.8c0-.1.1-.2.2-.2.1,0,.2,0,.3,0l1.9,1c.2,0,.3.3.2.5l-1.2,4.3,2.3,1.1c.1,0,.2.2.2.4v1.9c0,.2-.2.4-.4.4h-1.6v1.2h4.3l-2.3-5.8c0-.1,0-.3,0-.4l4.8-5.4c0,0,.2-.1.3-.1h6.7l11.5-1.9,1.3-9.5-1.3-10c0-.1,0-.2.1-.3h0c0,0,7.2-7.9,7.2-7.9l1.6-6.4-6.1-5.6Z"/>
        <path class="st18" d="M129.5,133.9h.2c.3-.4.6-.6,1-.8.6-.4,1.1-.8,1.7-1.3,2.2-1.8,4.4-2.8,6.2-3.6,1.4-.6,2.7-1.2,2.8-1.7-.1-.2-.7-.7-1.5-1.3l-.9-.8c-3.3-2.9-4.3-3.9-4.2-5.3,0-.2.1-.5.2-.7l-10.9-5.1-1,11.1c0,0,0,.1,0,.2l-1.3,1.9s0,0,0,0l-1.4,1.6c0,.1,0,.2,0,.3,0,.3,0,.7,0,1.5,0,.3,0,.6,0,.8,0,0,0,0,0,0,0,.5,0,.6,0,.8.1.3.4.8.8.9.1,0,.1,0,.3,0,.2,0,.5-.1,1,0,.3,0,.6.2.8.3,0-.3.2-.6.6-.9.3-.2.7-.3,1-.3s.8.1,1.1.2c1.6.7,1.7,3,1.8,3.3,0,.1,0,.2,0,.3.5-.4,1.3-.9,2-1.4Z"/>
        <path class="st18" d="M145.1,108.4l1.6,2.7,2.1-2.6c0,0,.2-.1.3-.2l-2.6-9-5-3.2s0,0-.1-.1c0,0,0,0,0,0,0,0,0,0,0,0,0,0,0,0,0,0,0,0,0,0,0,0,0,0,0-.1,0-.2,0,0,0,0,0,0,0,0,0,0,0,0,0,0,0,0,0,0,0,0,0,0,0,0,0,0,0,0,0,0l6.4-5.8s0,0,0,0l.3-.3s0,0,.1,0l5.4-1.8v-5.5l-.2-.9s0,0,0,0l-2.2-5h0s0,0,0,0h0s0,0,0,0c0,0,0,0,0,0,0,0,0,0,0,0,0,0,0,0,0,0,0,0,0,0,0,0,0,0,0,0,0,0,0,0,0,0,0,0l2.5-4.4-1.1-1.6-7.2,3-3.2,9.6c0,.1-.1.2-.3.3,0,0,0,0-.1,0,0,0,0,0,0,0,0,0,0,0,0,0,0,0,0,0,0,0,0,0,0,0,0,0,0,0,0,0-.1,0l-11-7.7-5.6,4.5,3.5,2.1c.1,0,.2.2.2.4-.4,4.1-.7,8.8-.6,9.4.4.5,4.5,5.6,7.3,9,.1.1.1.3,0,.5l-5.1,7.6c0,0-.1.1-.2.2l-6.1,1.8-.3,2.1,9.3,4.3,2,.9c.2-.3.5-.6.9-1,1.3-1.3,2.7-1.9,3.6-2.2.7-.2,1.4-.4,2.1-.6h-3.5c-.2,0-.3-.1-.4-.3,0-.2,0-.4.1-.5l6.4-4.8c0,0,.2,0,.3,0,.1,0,.2,0,.3.2Z"/>
        <path class="st2" d="M122.2,124l1-11.5s0,0,0,0c0,0,0,0,0,0l.3-2.7c0-.2.1-.3.3-.3l6.2-1.9,4.9-7.2c-2.7-3.3-7.1-8.6-7.2-8.9-.3-.6.2-6.2.5-9.6l-3.8-2.2s0,0,0,0c0,0,0,0,0,0,0,0,0,0,0,0,0,0,0,0,0,0,0,0,0,0,0,0l-2.3,1.3-4.1,14.3c0,.2-.2.3-.3.3l-5.1.9s0,0,0,0c-.1,0-.3,0-.3-.2l-2.4-3.1-3.3,1.9.6,4.6,3.2,1.9c.1,0,.2.2.2.4v20.3h1.1c.2,0,.4.2.4.4v2.6l4.9,1.8,5.4-2.3.3-.5Z"/>
        <path class="st2" d="M121.3,80.1l2.6-1.5-3-8.2c0-.2,0-.3.1-.4l4.5-3.9-.5-.9-3.7,1.3c-.1,0-.3,0-.4,0l-3-2.8c-.2-.1-.2-.4,0-.6l2.1-2.5-.6-.7-3.8,1.1c-.4.3-1.5.5-2.1.6,0,0,0,0,0,0,0,0-.1,0-.2,0l-2.7-1.5-.7,1,5,10.4c0,.2,0,.4,0,.5l-1.3,1.4c0,0-.2.1-.3.1s0,0,0,0c-.1,0-.3,0-.3-.2l-1.4-2.2-8.2,5.6c0,0-.2,0-.2,0s-.2,0-.2,0l-2.2-1.3-1,1.1,2.2,4.9,10.8,14.2,4.6-.8,4.1-14.2c0-.1.1-.2.2-.3Z"/>
        <path class="st14" d="M108.8,60.4l.8-1.1-1.8-1-2.5,2.4c0,0-.2.1-.3.1h-3.7c-.2,0-.4-.2-.4-.4l-.2-7.3c-.8.2-2.2.7-2.5.8,0,0,0,0,0,0,0,0,0,0,0,0l-6.3,2s0,0-.1,0c0,0-.1,0-.2,0-3-1.7-7.7-4.4-8.9-5,0,0-.1,0-.2,0-.3.1-2.6,1.3-4.6,2.5l2.1,3.5c0,0,0,.2,0,.3l-.6,5.1c0,.1,0,.2-.2.3l-6.8,4-.7,2.2,2.4,2.3,4.4-.8s0,0,0,0c.1,0,.3,0,.3.2l.8,1c.1.2.1.4,0,.6l-2.8,3,.9,1.2,11.2,1.1c.1,0,.3.1.3.2l2.9,5.6,6,.3,2.4-2.2-2.2-4.9c0-.2,0-.3,0-.5l1.4-1.6c0,0,.2-.2.3-.2s.2,0,.2,0l2.3,1.3,8.3-5.7c0,0,.2,0,.2,0s0,0,0,0c.1,0,.2,0,.3.2l1.4,2.1.7-.8-5-10.4c0-.1,0-.3,0-.4Z"/>
        <path class="st16" d="M76.1,78.7c0-.1.1-.3.2-.3l2.2-1.1h-1c-.1-.1-.2-.2-.3-.3l-1.2-1.6c-.1-.2-.1-.4,0-.6l2.7-3-.4-.5-4.4.8s0,0,0,0c-.1,0-.2,0-.3-.1l-2.8-2.6c-.1-.1-.2-.3-.1-.4l.7-2.4-.8-2.8-7.5-.9c0,0-.1,0-.2,0-1.2-.9-3.6-2.5-5.1-3.6l-1.9,5.5h3.7c.2,0,.4.1.4.3l2.5,7.8,4.4,5.8c0,.1.1.3,0,.4l-1.2,3,1.4,1.5,1.9-1.7c0,0,.2-.1.3-.1s.1,0,.2,0l9.8,4.8,2.6-2.4-6-4.9c-.1,0-.2-.2-.2-.4Z"/>
      </g>
      <g>
        <path class="st12" d="M161,32.6l24.2,5.2,14.5,2.3h.3c0,0,5.4.9,5.4.9l5.3-2.2c-1.3-1.5-2.2-3.4-2.9-4.7-.4-.8-.7-1.5-.9-2-.5-1.1-.8-1.7-1.6-2.5-.6-.5-2.1-1-4.5-1.9-3.8-1.4-5.6-2-7.1-2-1,0-2,0-3.1.6-.5.3-.7.5-1,.7-.3.3-.6.6-1.1.6-.9,0-1.4-.5-2.1-1.3-.4-.4-.8-.9-1.4-1.4-.8-.6-1.3-.9-2.1-1.2-.5-.2-1-.4-1.7-.7-1-.5-4.1-2-6.7-4.7-.5-.5-.9-1-1.2-1.5l-14.1,9.2,1.9,6.4Z"/>
        <path class="st12" d="M136,10l-1.8,10.9,9.2,7.3-2.6,3.2,6.4,1.9v12.1h-2.3l2.4,7.7,7.5,6.6,4.5-3.3,2.6,2.4,7.6,1.9h.3c0,0,0,0,0,0l9.8-13.7,8-1.3h0s5,1.5,5,1.5h.4c0,.1,1.1.4,1.1.4l4.5-1.9.9-5.3-14.5-2.3-24.4-5.3h0c0,0-2-6.8-2-6.8h.1c0,0,14.2-9.3,14.2-9.3-.3-.5-.6-1-.9-1.4-.7-1.1-1.1-1.8-2.1-2-.3,0-1.8.2-3.8.7-.6.1-1.1.2-1.5.3-2,.4-2.5.5-3.3.3-1-.3-1.6-.8-2.6-1.8-.2-.3-.5-.5-.9-.9-.6-.6-1.9-1.7-4.6-3.9-2-1.7-3.8-3.2-5.4-4.4l-6.2,5-5.9,1.4Z"/>
        <path class="st12" d="M258.9,47.8l-2.1,3.5-3.3-1.3-4.7,6.7-.2.3-.9,1.3v8.5l3.9,10.4h.6s.3,0,.3,0l9.6-.6,2.6,2.6h3.1l4.7-10.6.2.2,13.1,15.7,6.8,4.3h0c0,0,.2.2.2.2h0s4.1.6,4.1.6l-4.4-5.1,5.3-4-3.3-7.9,5.5-3-1-4.4,6.8,2,5.8-3.2,2-5.9.7-1,.2-.3,4.9-6.6v-10.4l-2.6-8.4-4.4-2.2-2,3.5h-6l-6.6,4-1.5-.7h0c0-.1.6-7.9.6-7.9l-5.2-4.6h0s-2-6.4-2-6.4c-1.3.6-2.5,1.2-3.6,2-1.5,1-2.1,1.7-3.3,3.1-1.1,1.2-2.7,3-5.8,6.1-3,3-4.5,4.2-6.7,4.7-3.1.6-6-.6-6.1-.7-1.3-.5-2.1-1.2-2.8-1.8-.2-.1-.3-.3-.5-.4l-4.2,8.5,2,9.2Z"/>
        <path class="st12" d="M297.6,28l-.7,7.8,1.1.6,6.5-3.9h5.9l1.9-3.4-4.6-2.3v-9.3l1-4.5c-.5.1-1,.2-1.4.2-1.4.2-2.2.1-3,0-.6,0-1.3-.1-2.3,0-2.3.1-3.8.7-7.1,1.9-1.9.7-3.3,1.3-4.5,1.8l2,6.3,5.3,4.6Z"/>
        <path class="st6" d="M205.5,41.4l-5.5-.9-.9,5.4-4.7,2h0s-1-.3-1-.3l.6,2.8-.6,2.6,5.9,6.6h0c0,0-1.9,8.4-1.9,8.4l5.2.7,11.3,7.2.3.2,2.9,1.8,7.7,2.6,7.2-6.6h.1c0,0,18.3,10.1,18.3,10.1l.4.2h.1c0,0,1.4-6.8,1.4-6.8h-.7s-4-10.6-4-10.6v-8.6l1.1-1.6-2.4-6.1-5.8-6.5-11.1,1.3h0s-6.6-4-6.6-4l-.9-1.5c-.8.4-1.7.7-2.8,1.1l-.7.2c-1.5.4-2.4.7-3.4.5-1.4-.3-2.6-1.2-3.6-2.4l-5.5,2.2h0Z"/>
        <path class="st12" d="M194.7,160.9l7,1.6,7.9.7,14.4,5.9,10.5-3.9,5.4,3.4v11.8l9.1,5.2h6.4l.5-1.4v-.3c.1,0,1.5-4.1,1.5-4.1l5.8-3.2-5.2-11.1v-10h0s1.5-.7,1.5-.7l-2.8-3.7-5.9-9.9,1.3-8.5-1.8-.6-1.5-.6h-.3c0-.1-10.1-4-10.1-4l-3.3-6.5h-.7c0,.1-.3.2-.3.2l-2.7.5-2.6,9.2h-3.6l1.3-5.4-3.8-3.8c-2.4.3-5.9.8-6.4,1.3,0,0-.1,0-.2,0-1-.1-5.7-7.8-6.6-9.3h0v-6l1.9-2.6-.6-.7-.3-.3-3.5-4.2-.5,2.4-4.7-6-5.8,8.4h-5.3l-5.3,6.6h-8.5l-8.1,10,21.1,22.9,1.5-1.5-3.3-4,2.5-1.7,5,5.7-2.8,2.3h6.5l.8,3.3h-9.9l1.2,6.6h15.2v2l-13,.7,1.2,3.7h0Z"/>
        <path class="st1" d="M194.7,160.9l7,1.6,7.9.7,38.8-31.9-10.1-3.9-3.3-6.5h-.7c0,.1-.3.2-.3.2l-2.7.5-2.6,9.2h-3.6l1.3-5.4-3.8-3.8c-2.4.3-5.9.8-6.4,1.3,0,0-.1,0-.2,0-1-.1-5.7-7.8-6.6-9.3h0v-6l1.9-2.6-.6-.7-.3-.3-3.5-4.2-.5,2.4-4.7-6-5.8,8.4h-5.3l-5.3,6.6h-8.5l-8.1,10,21.1,22.9,1.5-1.5-3.3-4,2.5-1.7,5,5.7-2.8,2.3h6.5l.8,3.3h-9.9l1.2,6.6h15.2v2l-13,.7,1.2,3.7h0Z"/>
        <path class="st12" d="M229.2,45l11.2-1.3h0c0,0,5.9,6.7,5.9,6.7l2.3,6,4.7-6.8,3.3,1.3,1.9-3.1-2-9.2h0c0,0,4.3-8.6,4.3-8.6-.6-.4-1.3-.8-2.2-.9-1,0-1.7.1-3.2.6-2.2.7-4.4,2.2-5.8,3.2-1.1.8-1.9,1.5-2.5,2.1-1.3,1.2-2.1,1.9-3.5,1.9-.3,0-.5,0-2.7-.7-2.1-.7-3.3-1.1-4.1-1.4-.8-.3-1.2-.4-1.7-.5-1.9-.4-3.6.4-7,1.9-1.9.9-3.2,1.6-4.3,2.3-.6.4-1.2.8-1.9,1.1l.9,1.4,6.5,3.9Z"/>
        <polygon class="st4" points="185.1 110.7 190.1 104.4 190.3 104.2 190.3 104.1 190.3 99.8 184.6 97.6 184 101.8 172.1 103.8 165.6 103.8 160.9 109.1 163.2 115.1 163.9 115.1 163.9 117.7 158 117.7 158 119.7 159.9 119.7 159.9 120.3 162.1 120.3 165.5 117.6 168.4 120.7 176.6 110.7 185.1 110.7"/>
        <polygon class="st12" points="274.8 129.4 271.3 129.4 268.1 137.7 270.8 140.7 274.4 138.9 274.5 138.9 281 140.2 282 139.1 277.6 135.2 274.8 129.4"/>
        <polygon class="st12" points="271.1 140.9 276.7 147 260 154.7 261.5 156.7 265.3 161.8 269.3 160.5 277.8 169.1 281.8 170.4 284.4 177 291 178.9 293.5 180.9 297.5 180.9 299.2 177.1 295.2 171 301.9 171 303.9 164.5 307.2 160.6 309.9 155.1 305.9 145.8 296.1 149.1 290.8 141.2 284.2 141.2 282.2 139.4 281.1 140.5 274.5 139.2 271.1 140.9"/>
        <polygon class="st12" points="281.4 117.3 278.2 113.4 280.1 111.5 271 105.7 271 99.1 267.8 97.2 264.4 94.6 260.8 97.8 260.4 99.8 260.4 100.1 259.5 104.4 254.2 110.9 250.3 116.2 247.7 122.6 249.7 124.5 248.7 131.1 250.2 131.7 252.3 132.4 251 141 256.9 150.8 259.8 154.5 276.2 146.9 270.8 141.1 270.5 140.8 267.7 137.8 271.1 129 274.7 129 271.6 122.6 281.4 117.3"/>
        <polygon class="st1" points="195.6 104.1 201.6 95.4 206.1 101.3 206.6 99.3 206.7 98.9 208 93 210.6 89.8 210.6 79.3 213.4 76.1 202.2 69 197.1 68.2 196.8 68.2 193 67.7 193 67.6 192.9 67.6 191.2 74.2 184.1 82 185.4 91.8 184.6 97.3 190.6 99.5 190.6 104.1 195.6 104.1"/>
        <polygon class="st6" points="247.1 91.8 250.3 96.9 251.6 100.1 257.4 98.8 260.1 99.7 260.5 97.6 264.1 94.4 262.5 93.2 259.8 86.4 265.8 85.1 265.8 79.5 264.5 79.5 261.9 76.9 252.4 77.5 250.9 84.8 250.8 84.7 251.7 87.2 247.1 91.8"/>
        <polygon class="st12" points="182.4 70 185.8 60.6 192.7 66.9 193 67.2 193.1 67.3 196.9 67.9 198.8 59.7 192.9 53.1 193.6 50.4 193 47.6 187.8 46 180 47.3 170.2 61.1 170 61.1 170.9 72.2 182.4 70"/>
        <path class="st6" d="M232.3,101.7l-2.5-2.5-5.8,2.6-7.9,2-5.1.4.6.8-2,2.7v5.8c2.7,4.5,5.8,9.1,6.3,9.1.6-.7,6-1.3,6.6-1.3h0s4.1,4.1,4.1,4.1l-1.3,5.1h2.9l2.6-9.2,2.9-.5-1-8.5-2-4h0c0,0,1.3-6.5,1.3-6.5Z"/>
        <polygon class="st6" points="235.2 120.5 238.5 127.1 248.4 130.9 249.3 124.7 247.4 122.7 250 116 254 110.7 259.2 104.2 260.1 100 257.4 99.2 251.4 100.5 250 97.1 246.7 91.8 251.3 87.1 250.3 84.5 231.8 74.3 224.6 80.8 216.7 78.2 213.7 76.3 211 79.4 211 89.9 208.3 93.2 206.9 99.2 210.8 103.8 216 103.4 223.9 101.5 229.9 98.8 232.6 101.6 231.3 108.2 233.3 112.1 234.3 120.6 235.2 120.5"/>
        <path class="st12" d="M286.3,105.3l4,4h12.2l3.8-2.7c.2-.2.3-.5.5-.6l.3-.6-2.8-2.7-11.6-13.5-7.1-4.5-13-15.5-4.5,10.4h-1.9v5.9l-5.8,1.3,2.5,6.3,1.6,1.2.3.2,3.4,2.5,3.3,2v6.6l9,5.8,6-6Z"/>
        <path class="st12" d="M297.7,181.2h-4.3s-2.6-2-2.6-2l-6.6-2-2.6-6.6-3.9-1.3-8.5-8.5-4,1.3-4-5.3-1.5-2-1.4.7v9.7l5.3,11.3-6,3.3-1.3,4,3.2,1.6,15.8-1.3,2,5.2,7.1-3.2,6,3.3h0s1.7,3.4,1.7,3.4h.1c0-.1.1-.1.1-.1l10.4,2.9c.1-.3.2-.6.4-.9,1.8-4.4,3.5-7.7,4.7-10.1l-7.7-3.4h-2.3Z"/>
        <path class="st12" d="M330.2,137.9l-1.4-2.9,2.7-2.7v-4.4h-7.1l-4.7-4.1,2.6-4.6-5.7-3.8-5.9-.7-3.3-5.2h-17l-3.9-3.9-5.7,5.7-.2.2-1.7,1.7,3.3,4-9.9,5.3,3,6.3.2.3,2.7,5.6,4.4,3.9.2.2,1.9,1.7h6.6l5.2,7.8,9.9-3.3,4.1,9.3.2.4.4.9,10.7,7.1c2.2-2.9,4.9-6.2,8-9.8,1.9-2.2,5.3-6,10.1-10.9l-5.3-5.8-4,1.3Z"/>
        <path class="st12" d="M310.4,156.2l-.3-.7-2.7,5.3-3.3,3.9-2,6.6h-6.4l3.8,5.7-1.8,3.8h2.3s7.8,3.4,7.8,3.4c.1-.3.3-.5.4-.8,1.6-3,3.5-6.3,5.3-9.2,1.4-2.3,3.9-6.1,7.6-10.9l-10.7-7.2h0Z"/>
        <polygon class="st12" points="271.7 217.7 279.5 211.8 279.5 211.2 279.5 210.9 279.5 202.6 279.6 202.6 284.9 198.6 289.4 196 291.8 193.1 290.1 189.7 284.3 186.5 277 189.8 275 184.5 259.3 185.8 256.1 184.2 255.5 185.8 249.1 185.8 246.3 191 245.4 191.2 247.7 194.8 245.1 202 250 214.4 250.2 214.7 251.7 218.5 247.8 222.4 249.6 225.5 255.6 225.5 255.6 232.1 267.7 233.2 267.7 231.5 267.8 231.5 269.7 228.9 270 228.1 270.1 227.8 271 225 271.7 217.7"/>
        <polygon class="st12" points="176.2 210.6 176.2 215.6 191.2 213.7 194.1 231.9 194.1 232.2 194.5 234.7 199.1 235.4 199.1 235.4 206.4 248.7 202.4 254.7 199.7 258.1 203.8 262.4 200.5 267.1 203.7 287.3 209.5 295 216 286.6 221.8 285.3 223.8 278.7 229.1 272.8 235 265.6 239.5 264.3 237.8 260.4 237.7 260.1 232.9 248.7 232.9 240.8 229.6 236.2 231.6 231.6 229.3 227.2 229.2 226.9 221.8 212.5 225.7 208.6 221.8 204.1 220.5 198 220.6 198 229.7 194 234.4 190 238.4 192 244.9 191 245.2 190.9 246.1 190.7 248.8 185.8 239.5 180.5 239.5 168.7 234.4 165.5 223.9 169.4 209.4 163.5 201.6 162.8 194.4 161.2 192.2 164 194.4 166.8 195.7 165.4 197.4 168 195.1 170.3 187.2 163.8 179.5 171.4 175.8 177.1 177.7 179 176.8 181.6 174.1 179.5 171.8 183 173.8 184.9 172.2 187.4 169.5 186.1 166.6 190.2 169.9 194.9 169 195.7 171.6 201.3 176.2 210.6"/>
        <polygon class="st12" points="247.4 194.9 245.1 191.3 238.3 192.4 234.4 190.4 229.9 194.3 220.8 198.2 222.1 203.9 226.1 208.6 222.2 212.6 229.5 226.7 233 224.3 236.3 217.7 236.3 217.7 244.3 214.4 249.7 214.4 244.7 202.1 244.8 202 247.4 194.9"/>
        <polygon class="st12" points="238 259.9 244.2 256.4 247.4 256.4 247.4 250.6 255.4 242.6 255.4 242.6 267.7 241.3 267.7 233.5 255.3 232.4 255.3 225.8 249.4 225.8 247.3 222.4 251.3 218.4 249.8 214.7 244.3 214.7 236.5 217.9 233.2 224.5 229.6 227 232 231.6 230 236.2 233.3 240.7 233.3 248.6 238 259.9"/>
        <path class="st12" d="M207.4,31.9c.2.5.5,1.2.9,2,.7,1.3,1.6,3.1,2.9,4.6l.2.3c1,1.1,2.2,2,3.6,2.4,1,.2,1.8,0,3.3-.4l.7-.2c1.1-.3,2-.6,2.7-1h.3c.6-.5,1.2-.8,1.8-1.2,1.1-.7,2.3-1.4,4.2-2.3,3.4-1.5,5-2.3,6.9-1.9.3,0,.5.1.8.2,0,0,0,0,0,0l2.2-6.6-6.5,1.3h-.3s-1.9.3-1.9.3l-3.8-7-3.7,1.2-7.8,3.2-3.2-1.9h-4.4s-1,4.4-1,4.4c.9.7,1.6,1.7,2,2.8Z"/>
        <path class="st12" d="M236.2,34.2s0,0,0,0c.3,0,.5.2.9.3.8.3,2,.7,4.1,1.4,2.2.7,2.4.7,2.7.7,1.4,0,2.2-.7,3.5-1.9.6-.6,1.4-1.3,2.5-2.1,1.4-1.1,3.5-2.5,5.7-3.2,1.5-.5,2.1-.7,3.1-.6.9,0,1.6.4,2.2.8l.3.2c.2.1.3.3.5.4.7.6,1.5,1.2,2.8,1.8,0,0,1.9.8,4.2.8.4-.2.7-.3,1.1-.3.3,0,.7,0,1.1,0,2-.5,3.4-1.8,6.2-4.5,3.1-3,4.7-4.8,5.7-6,1.3-1.4,1.8-2,3.3-3,1.1-.8,2.2-1.4,3.6-1.9v.4c.7-.3,1.3-.6,1.9-.9l-.7-2.4-1.8-3-3.1,2.5h-3.9l-4.5,3.9h-3.8l-1.3,5.1h-7.9l-1.9-2.6-7.2-.7v-2l-4.4-2.5h-4.4l-8.3,5.7-1.9,4.5-4.5,1.3v2.3l6.5-1.3-2.2,6.7Z"/>
        <line class="st3" x1="209.5" y1="163.2" x2="248.3" y2="131.3"/>
      </g>
    </g>
  </g>
  <g>
    <circle class="st9" cx="139.6" cy="99.5" r="3.3"/>
    <circle class="st9" cx="200.2" cy="92.7" r="3.3"/>
    <circle class="st9" cx="229.8" cy="85.1" r="3.3"/>
    <circle class="st9" cx="170.1" cy="97.8" r="3.3"/>
    <circle class="st10" cx="92.7" cy="74.8" r="3.3"/>
    <circle class="st10" cx="113.8" cy="92.4" r="3.3"/>
    <circle class="st10" cx="98.3" cy="98.7" r="3.3"/>
  </g>
  <g>
    <rect class="st8" x="182.1" y=".7" width="82.2" height="40.8"/>
    <g>
      <g>
        <path class="st19" d="M191.2,12.7h-2.7c-.2,0-.6,0-.6-.6s.3-.6.6-.6h2.7v-2.3c0-.2,0-.6.6-.6s.7.2.7.6v10c0,.2,0,.6-.6.6s-.7-.2-.7-.6v-1.1c-.6.2-2.5.9-2.8.9s-.6-.5-.6-.8.2-.5.9-.7c1.2-.3,1.8-.5,2.4-.7v-4.1ZM195.3,17.9c0,.5.2.5,1.1.5s1.2,0,1.3-.4c0-.3,0-1.4.1-1.6,0-.3.4-.4.5-.4.7,0,.7.5.7.6,0,.3-.1,1.8-.3,2.3-.2.5-.5.7-1,.7-.3,0-1.2,0-1.6,0-1.1,0-1.4,0-1.7-.2-.4-.3-.4-.9-.4-1.1v-9.1c0-.2,0-.6.6-.6s.7.2.7.6v3.1c1.2-.6,1.8-1.1,2.1-1.3.5-.4.6-.6.9-.6.4,0,.7.5.7.8s0,.4-.9.9c-1.2.9-2.3,1.4-2.8,1.6v4.1Z"/>
        <path class="st19" d="M203.7,8.8c.8,0,1.2.3,1.2,1.2v2.8c0,.5,0,.8-.3,1.1-.2.2-.4.2-1.7.2s-.8,0-.8-.6.3-.5.7-.5.6,0,.7,0c.2,0,.3-.1.3-.4v-2.4c0-.3-.1-.4-.4-.4h-3.1c-.1,0-.6,0-.6-.5s.4-.5.6-.5h3.4ZM203.3,12.2c0,.3-.3.5-.8.7-.5.2-1.9.9-2.3.9s-.5-.5-.5-.6c0-.4.2-.4.9-.7.3,0,1.1-.4,1.4-.6.2,0,.6-.3.7-.3.5,0,.5.5.5.5ZM201.7,10.3c.7.4.7.5.7.7s-.2.6-.6.6-.4-.2-.9-.5c-.6-.4-.7-.4-.7-.6,0-.3.3-.6.5-.6s.2,0,.9.4ZM208.5,14.5c.8,0,1.2.3,1.2,1.2v2.6c0,.9-.4,1.2-1.2,1.2h-6.4c-.9,0-1.2-.3-1.2-1.2v-2.6c0-.9.4-1.2,1.2-1.2h2.5c.2-.5.3-.6.3-.7.1-.1.3-.2.4-.2s.6,0,.6.4,0,.3-.1.5h2.7ZM208.5,16.5v-.7c0-.2,0-.3-.3-.3h-5.6c-.3,0-.3.2-.3.3v.7h6.3ZM208.5,17.5h-6.3v.7c0,.2,0,.3.3.3h5.6c.2,0,.3,0,.3-.3v-.7ZM209.3,8.8c.9,0,1.2.3,1.2,1.2v2.8c0,.4,0,.9-.5,1.1-.3.1-.3.1-1.7.1s-.7,0-.7-.6.3-.5.7-.5.6,0,.7,0c.2,0,.3-.1.3-.4v-2.4c0-.2-.1-.4-.4-.4h-3.1c-.1,0-.6,0-.6-.5s.4-.5.6-.5h3.4ZM208.3,12.7c-.3.1-1.7.9-2.1.9s-.5-.4-.5-.6c0-.3.2-.4.8-.6.4-.1,1-.4,1.3-.6.4-.2.6-.3.7-.3.3,0,.4.3.4.5,0,.3,0,.4-.7.7ZM206.5,11.2c-.8-.5-.8-.5-.8-.7s.2-.6.5-.6,1.2.6,1.3.6c.2.1.4.3.4.5s-.2.6-.6.6-.3,0-.9-.4Z"/>
        <path class="st19" d="M222.4,9.9c.2,0,.6,0,.6.6s-.2.6-.6.6h-4.3v1.7h3.7c.2,0,.7,0,.7.6s-.2.6-.7.6h-8.8c-.2,0-.7,0-.7-.6s.2-.6.7-.6h3.8v-1.7h-4.4c-.2,0-.6,0-.6-.6s.3-.6.6-.6h4.4v-.8c0-.2,0-.6.6-.6s.7.1.7.6v.8h4.3ZM214.2,15.8c0,.3-.3,1.2-.7,2.2-.5,1.2-.7,1.4-1,1.4s-.7-.2-.7-.6,0-.3.4-1c.3-.7.6-1.7.7-2,0-.2.1-.5.5-.5s.7,0,.7.5ZM216,18c0,.2,0,.4.3.5.1,0,1.8,0,2.1,0,.7,0,.8,0,.9-1,0-.4.1-.6.5-.6s.7,0,.7.6-.2,1.4-.5,1.8c-.3.4-.6.4-2.2.4s-2.2,0-2.4,0c-.6-.2-.6-.7-.6-1.3v-2.1c0-.2,0-.6.6-.6s.6.4.6.6v1.8ZM218.1,15c.8.7.8.8.8,1,0,.3-.3.7-.6.7s-.3,0-.8-.6c-.4-.4-.8-.7-1.3-1-.2-.1-.2-.3-.2-.4,0-.3.3-.6.6-.6s1.2.7,1.5,1ZM221.9,16.1c.1.2,1.1,1.9,1.1,2.4s-.3.6-.7.6-.4-.2-.8-1c-.4-.9-.5-1.1-1.1-2,0,0-.1-.2-.1-.4,0-.4.4-.6.6-.6s.4,0,.9.9Z"/>
        <path class="st19" d="M227.8,15.3h1.7c.2,0,.6,0,.6.6s-.4.6-.6.6h-1.7v1.3c.6,0,.7,0,1.6-.2.1,0,.3,0,.4,0,.4,0,.5.3.5.6,0,.5-.3.6-1.1.7-.5,0-4,.4-4.5.4s-.6-.2-.6-.6.4-.6.8-.6c.6,0,.7,0,1.8-.1v-1.4h-1.7c-.1,0-.6,0-.6-.6s.2-.6.6-.6h1.7v-1h-.9c-.8,0-1.2-.3-1.2-1.2v-3c0-.9.4-1.2,1.2-1.2h3.1c.8,0,1.2.3,1.2,1.2v3c0,.9-.4,1.2-1.2,1.2h-1v1ZM225.5,11.2h1.1v-1.2h-.8c-.2,0-.3,0-.3.3v.8ZM225.5,12.1v.9c0,.2.1.3.3.3h.8v-1.2h-1.1ZM228.9,11.2v-.8c0-.2-.1-.3-.3-.3h-.8v1.2h1.2ZM228.9,12.1h-1.2v1.2h.8c.2,0,.3,0,.3-.3v-.9ZM232.5,12.9c-.5-.5-1.1-.9-1.2-1-.5-.3-.6-.4-.6-.6s.3-.6.6-.6.2,0,.5.2c.2.1.4.2.8.6.2-.2,1-1,1-1.2s-.2-.2-.3-.2h-2.4c-.2,0-.6,0-.6-.5s.4-.5.6-.5h3c.5,0,1.1,0,1.1.8s-.2.7-.6,1.2c-.3.3-.5.6-1,1.1.3.3.4.4.4.6s0,.2,0,.2h.3c.5,0,1.2,0,1.2.9s-.2,1-.3,1.4c-.3,1.1-.4,1.2-.7,1.2s-.6-.1-.6-.4.6-1.4.6-1.7-.2-.2-.3-.2h-.7v4.3c0,1.3-.5,1.4-1.7,1.4s-.7,0-.9,0c-.3-.1-.4-.4-.4-.6,0-.6.4-.6.6-.6s.6,0,.7,0c.3,0,.5,0,.5-.5v-3.9h-1.4c-.2,0-.6,0-.6-.6s.4-.6.6-.6h1.9Z"/>
        <path class="st19" d="M240.5,15.1c-.3,0-.4,0-.5-.2,0,.1,0,.4,0,.6,0,1.7-1,1.7-1.5,1.7s-.8,0-.8-.7.3-.6.6-.6c.3,0,.5,0,.5-.8s-.2-1.2-.6-1.9c-.3-.5-.3-.5-.3-.7,0-.3.8-2.1.8-2.5s-.2-.2-.3-.2h-.6c-.2,0-.3.1-.3.3v8.9c0,.4-.2.6-.6.6s-.6-.5-.6-.6v-9.1c0-1,.3-1.2,1.2-1.2h1c.7,0,1.3,0,1.3.9s-.1,1-.3,1.4c0,.3-.6,1.5-.6,1.6s0,.1.2.4c.5.7.6,1.1.7,1.4,0-.5.4-.5.6-.5h6.2c.2,0,.6,0,.6.6s-.5.6-.6.6h-1.8v3c0,.4.2.4.6.4s.6,0,.7-.6c0-.8,0-.9.5-.9s.6.4.6.6,0,1.4-.4,1.9c-.2.3-.6.3-1.4.3-1.3,0-1.7,0-1.7-1.2v-3.3h-1c0,1.3-.2,2.4-.9,3.3-.7.9-1.7,1.3-2.1,1.3s-.6-.4-.6-.7.2-.4.5-.5c1.5-.7,1.9-1.3,1.9-3.4h-1.2ZM241.7,13c-.1,0-.6,0-.6-.5s0-.2,0-.3c-.1.1-.3.2-.4.2-.6,0-.6-.4-.6-.6v-.9c0-.9.4-1.2,1.2-1.2h1.7v-.6c0-.1,0-.5.6-.5s.6.2.6.5v.6h1.7c.8,0,1.2.3,1.2,1.2v.9c0,.2,0,.6-.6.6s-.3,0-.4,0c0,0,.1.7-.5.7h-3.9ZM245.6,11.9c.2,0,.2,0,.3,0,0,0,0-.1,0-.2v-.6c0-.2-.1-.3-.3-.3h-4c-.2,0-.3,0-.3.3v.6c0,.1,0,.2,0,.3,0,0,.1-.1.4-.1h3.9Z"/>
      </g>
      <g>
        <path class="st19" d="M190.2,30.6h-.4c0,1,0,1.9-.2,2.8-.1.8-.3,1-.5,1s-.5-.1-.5-.4.3-1,.3-1.2c0-.5.1-1.4.1-2-.2,0-.6,0-.6-.5s.2-.4.6-.4v-2.1c0-.7.2-.9.9-.9,0,0,.2-.6.2-.7,0-.1.2-.2.4-.2s.5,0,.5.3,0,.2-.2.5h.4c.8,0,.9.3.9.9v1.8c.1,0,.2,0,.3,0,0,0,0-.1,0-.3s0-.2.4-.8c.4-.8.5-1.6.6-2.1,0-.1,0-.4.4-.4s.5,0,.5.4-.2,1.2-.5,2c-.4,1.2-.6,1.3-.8,1.3s-.2,0-.4-.1c0,0,0,.2,0,.3,0,.3-.2.4-.5.4v3c0,.8-.2.9-1,.9s-.9,0-.9-.5,0-.4.3-.4c0,0,.5,0,.5,0,.2,0,.3,0,.3-.3v-2.6c-.3,0-.3,0-.5,0v2c0,.2,0,.3-.3.3s-.3-.2-.3-.3v-2ZM189.8,29.7c.8,0,1.2,0,1.6-.1v-1.7c0-.2,0-.3-.3-.3h-1c-.2,0-.3.1-.3.3v1.9ZM190.7,28.3c.2.4.3.7.3.8,0,.3-.3.3-.3.3-.2,0-.2,0-.3-.4,0,0-.2-.5-.3-.6,0,0,0-.1,0-.2,0-.2.2-.3.3-.3.2,0,.2,0,.3.4ZM196.6,33.2c0,.8-.3,1-1,1h-1.9c-.7,0-1-.2-1-1v-2.1c0-.8.3-1,1-1h1.9c.7,0,1,.2,1,1v2.1ZM195.7,31.4c0-.2-.1-.4-.4-.4h-1.4c-.2,0-.4.1-.4.4v1.6c0,.2.1.4.4.4h1.4c.2,0,.4-.1.4-.4v-1.6ZM196,26.3c.3,1.4.4,1.7,1,2.7,0,0,0,.2,0,.3,0,.3-.3.5-.5.5s-.4-.1-.9-1.3c-.3-.7-.5-1.8-.5-2.1s0-.4.5-.4.3.2.4.4Z"/>
        <path class="st19" d="M199.7,34c0,.1,0,.4-.4.4s-.5-.1-.5-.4v-3.3c-.2.6-.4,1-.5,1.2,0,.1-.2.2-.3.2-.2,0-.4-.2-.4-.5s0-.2.4-.8c.1-.2.5-.9.8-2.2h-.6c-.1,0-.4,0-.4-.4s.3-.4.4-.4h.7v-1.4c0-.1,0-.4.4-.4s.5.2.5.4v1.4h.4c.3,0,.4.1.4.4s0,.4-.4.4h-.4v.5c.2.4.3.5.6.9.3.3.3.4.3.5,0,.2-.2.5-.4.5s-.2,0-.5-.6v3.7ZM202.3,27.3c0-.2.1-.3.2-.4-.4,0-1,0-1.4,0s-.4,0-.4-.4.3-.3.5-.3c.7,0,1.7,0,2.8-.1.2,0,1.3-.2,1.3-.2.3,0,.4.2.4.4,0,.3-.2.3-.3.4-.3,0-1.2.1-1.9.2,0,0,0,.2-.2.5h2.5c.2,0,.4,0,.4.4s-.3.4-.4.4h-1.2c.4.5.8.8,1.1.9.5.2.5.3.5.5s-.1.4-.4.4-.7-.3-.9-.5v.2c0,.6-.1.7-.7.7h-2c-.6,0-.7-.1-.7-.7v-.2c-.2.2-.6.4-.8.4s-.4-.3-.4-.5.1-.3.3-.4c.6-.3.9-.5,1.3-1h-1.1c-.2,0-.4,0-.4-.4s.2-.4.4-.4h1.5ZM202.6,33.6c-.5,0-.7-.2-.7-.7v-.6c0-.5.2-.7.7-.7h1.3c.5,0,.7.2.7.7v.6c0,0,0,.4-.1.5h.3c.2,0,.2-.2.2-.3v-1.6c0-.1,0-.3-.3-.3h-3c-.2,0-.3,0-.3.3v2.5c0,.1,0,.4-.4.4s-.4-.2-.4-.4v-2.5c0-.7.2-.9.9-.9h3.3c.7,0,.9.2.9.9v2c0,.8-.3.8-1.1.8s-.8,0-.8-.5,0-.1,0-.2c0,0,0,0-.2,0h-1.3ZM204,29.6c.2,0,.2-.1.2-.3s0-.2-.2-.2h-1.5c-.2,0-.2,0-.2.2s0,.3.2.3h1.5ZM204.1,28.5c-.1-.2-.2-.3-.4-.6h-.9c-.2.3-.3.5-.4.6h1.7ZM203.8,32.5c0-.1,0-.2-.2-.2h-.8c-.1,0-.2,0-.2.2v.2c0,.1,0,.2.2.2h.8c.1,0,.2,0,.2-.2v-.2Z"/>
        <path class="st19" d="M211.7,33.9c0,.2,0,.5-.5.5s-.5-.1-.5-.5v-4.3h-1.6c-.2,0-.4,0-.4.4v3.3c0,.2,0,.5-.5.5s-.5-.2-.5-.5v-3.5c0-.8.4-1.1,1.1-1.1h1.9v-.9h-3.3c-.1,0-.5,0-.5-.5s.2-.5.5-.5h3.3v-.6c0-.3.1-.4.5-.4s.5,0,.5.4v.6h3.3c.1,0,.4,0,.4.4s-.1.5-.4.5h-3.3v.9h2c.7,0,1.1.2,1.1,1.1v2.8c0,1-.6,1-1.4,1s-1,0-1-.5.3-.4.6-.4h.5c.2,0,.3-.2.3-.4v-2.3c0-.3-.1-.4-.4-.4h-1.7v4.3Z"/>
        <path class="st19" d="M218.3,34c-.3,0-.4-.2-.6-.4-.4-.6-.8-1-1.3-1.5,0,0-.2-.2-.2-.4s.3-.5.6-.5.3,0,1.4,1.2c.3.3.7.8.7,1s-.3.6-.6.6Z"/>
        <path class="st19" d="M225.1,26.1c.6,0,.9.2.9.9v2.1c0,.4,0,.6-.3.8-.2.1-.3.1-1.3.1s-.6,0-.6-.4.2-.4.5-.4.5,0,.5,0c.1,0,.2,0,.2-.3v-1.8c0-.2,0-.3-.3-.3h-2.3c-.1,0-.4,0-.4-.4s.3-.4.4-.4h2.6ZM224.8,28.6c0,.3-.2.4-.6.5-.4.2-1.4.7-1.7.7s-.4-.4-.4-.4c0-.3.1-.3.7-.5.2,0,.8-.3,1-.4.1,0,.4-.2.5-.2.3,0,.3.4.3.4ZM223.6,27.3c.5.3.5.4.5.5s-.2.4-.4.4-.3-.1-.7-.4c-.5-.3-.5-.3-.5-.4,0-.3.2-.5.4-.5s.2,0,.7.3ZM228.7,30.4c.6,0,.9.2.9.9v1.9c0,.7-.3.9-.9.9h-4.8c-.6,0-.9-.2-.9-.9v-1.9c0-.7.3-.9.9-.9h1.9c.2-.4.2-.5.3-.5,0,0,.2-.1.3-.1s.5,0,.5.3,0,.3-.1.3h2ZM228.7,31.9v-.5c0-.2,0-.3-.3-.3h-4.2c-.2,0-.3.1-.3.3v.5h4.7ZM228.7,32.6h-4.7v.5c0,.2,0,.3.3.3h4.2c.2,0,.3,0,.3-.3v-.5ZM229.3,26.1c.6,0,.9.2.9.9v2.1c0,.3,0,.7-.4.9-.2,0-.3,0-1.2,0s-.5,0-.5-.4.2-.4.5-.4.4,0,.5,0c.1,0,.2,0,.2-.3v-1.8c0-.2,0-.3-.3-.3h-2.3c-.1,0-.4,0-.4-.4s.3-.4.4-.4h2.6ZM228.6,29c-.2,0-1.3.7-1.6.7s-.4-.3-.4-.5c0-.2.1-.3.6-.5.3-.1.7-.3,1-.5.3-.2.4-.2.5-.2.3,0,.3.2.3.4,0,.2,0,.3-.5.6ZM227.2,27.9c-.6-.3-.6-.4-.6-.5s.2-.4.4-.4.9.4,1,.5c.1,0,.3.2.3.4s-.2.5-.4.5-.2,0-.6-.3Z"/>
        <path class="st19" d="M239.3,26.9c.1,0,.5,0,.5.4s-.1.5-.5.5h-3.3v1.3h2.8c.1,0,.5,0,.5.4s-.1.5-.5.5h-6.6c-.1,0-.5,0-.5-.4s.1-.5.5-.5h2.8v-1.3h-3.3c-.2,0-.5,0-.5-.5s.2-.5.5-.5h3.3v-.6c0-.2,0-.5.5-.5s.5.1.5.5v.6h3.3ZM233.1,31.3c0,.2-.2.9-.5,1.7-.4.9-.5,1-.8,1s-.5-.2-.5-.4,0-.2.3-.8c.3-.5.5-1.3.5-1.5,0-.2.1-.4.4-.4s.5,0,.5.4ZM234.5,33c0,.2,0,.3.2.4.1,0,1.3,0,1.5,0,.5,0,.6,0,.7-.7,0-.3,0-.5.4-.5s.5,0,.5.4-.1,1.1-.4,1.4c-.2.3-.5.3-1.6.3s-1.7,0-1.8,0c-.4-.1-.5-.5-.5-1v-1.6c0-.1,0-.5.5-.5s.5.3.5.5v1.4ZM236,30.8c.6.5.6.6.6.7,0,.2-.2.5-.5.5s-.2,0-.6-.4c-.3-.3-.6-.5-.9-.8-.1-.1-.2-.2-.2-.3,0-.2.2-.5.5-.5s.9.5,1.1.7ZM238.9,31.6c0,.2.8,1.5.8,1.8s-.3.5-.5.5-.3-.1-.6-.7c-.3-.6-.4-.9-.8-1.5,0,0,0-.2,0-.3,0-.3.3-.4.5-.4s.3,0,.7.7Z"/>
        <path class="st19" d="M243.4,31h1.3c.1,0,.5,0,.5.4s-.3.4-.5.4h-1.3v.9c.5,0,.5,0,1.2-.1,0,0,.2,0,.3,0,.3,0,.4.2.4.4,0,.4-.2.4-.8.5-.4,0-3,.3-3.4.3s-.4-.1-.4-.5.3-.4.6-.5c.5,0,.5,0,1.3,0v-1h-1.3c0,0-.5,0-.5-.4s.2-.5.5-.5h1.3v-.7h-.7c-.6,0-.9-.2-.9-.9v-2.2c0-.7.3-.9.9-.9h2.3c.6,0,.9.2.9.9v2.2c0,.7-.3.9-.9.9h-.7v.7ZM241.7,27.9h.8v-.9h-.6c-.2,0-.3,0-.3.3v.6ZM241.7,28.6v.7c0,.2,0,.3.3.3h.6v-.9h-.8ZM244.3,27.9v-.6c0-.2,0-.3-.2-.3h-.6v.9h.9ZM244.3,28.6h-.9v.9h.6c.2,0,.2,0,.2-.3v-.7ZM247,29.2c-.4-.3-.8-.7-.9-.7-.3-.2-.4-.3-.4-.5s.2-.4.5-.4.2,0,.4.1c.1,0,.3.2.6.4.2-.2.7-.7.7-.9s-.1-.1-.2-.1h-1.8c-.2,0-.4,0-.4-.4s.3-.4.4-.4h2.3c.4,0,.8,0,.8.6s-.1.5-.4.9c-.2.3-.4.4-.7.8.3.2.3.3.3.5s0,.1,0,.2h.2c.4,0,.9,0,.9.7s-.1.8-.2,1.1c-.3.8-.3.9-.6.9s-.5,0-.5-.3.4-1.1.4-1.3-.2-.1-.2-.1h-.5v3.2c0,1-.4,1-1.3,1s-.5,0-.7,0c-.2,0-.3-.3-.3-.5,0-.4.3-.4.4-.4s.5,0,.5,0c.2,0,.4,0,.4-.4v-2.9h-1c-.2,0-.4,0-.4-.4s.3-.4.4-.4h1.4Z"/>
        <path class="st19" d="M254.5,33.9c0,.2,0,.5-.5.5s-.5-.1-.5-.5v-4.3h-1.6c-.2,0-.4,0-.4.4v3.3c0,.2,0,.5-.5.5s-.5-.2-.5-.5v-3.5c0-.8.4-1.1,1.1-1.1h1.9v-.9h-3.3c-.1,0-.5,0-.5-.5s.2-.5.5-.5h3.3v-.6c0-.3.1-.4.5-.4s.5,0,.5.4v.6h3.3c.1,0,.4,0,.4.4s-.1.5-.4.5h-3.3v.9h2c.7,0,1.1.2,1.1,1.1v2.8c0,1-.6,1-1.4,1s-1,0-1-.5.3-.4.6-.4h.5c.2,0,.3-.2.3-.4v-2.3c0-.3-.1-.4-.4-.4h-1.7v4.3Z"/>
      </g>
    </g>
  </g>
  <polygon class="st13" points="187.8 66.1 198.6 41.6 190.1 41.6 187.8 66.1"/>
  <polygon class="st2" points="240.5 136.1 272.8 158 272.8 168.2 240.5 136.1"/>
  <polygon class="st2" points="115.1 60.6 110.8 41.6 119.6 41.6 115.1 60.6"/>
  <polygon class="st18" points="131.8 131.1 142.3 149.1 133.5 149.1 131.8 131.1"/>
  <polygon class="st13" points="90.8 115.1 62.5 135.8 74.5 135.6 90.8 115.1"/>
  <polygon class="st14" points="80.3 64.3 62.3 41.6 51.4 41.6 80.3 64.3"/>
  <polygon class="st14" points="262.8 79.6 288.8 54.6 299.8 54.6 262.8 79.6"/>
  <g>
    <rect class="st7" x="272.8" y=".7" width="83.6" height="53.9"/>
    <g>
      <g>
        <path class="st19" d="M280.8,19.2c0,.2,0,.6-.6.6s-.6-.3-.6-.6v-5.3c-.4.5-.5.7-.8.7s-.7-.5-.7-.8,0-.3.2-.6c.8-1.1,1.4-1.9,2.1-4.2,0-.3.2-.5.6-.5s.6.1.6.5-.2.9-.3,1.2c-.2.5-.4,1-.6,1.5v7.5ZM282.1,11.4c-.2,0-.6,0-.6-.6s.3-.6.6-.6h1.9c0-.2,0-1.2.1-1.4,0-.3.4-.3.6-.3.6,0,.6.4.6.6,0,.3,0,.8,0,1.1h3.5c.1,0,.6,0,.6.6s-.2.6-.6.6h-3.7c-.1.7-.3,1.5-.6,2.2h3.9c.2,0,.6,0,.6.6s-.3.6-.6.6h-1.9v3.5h2.3c.2,0,.6,0,.6.6s-.3.6-.6.6h-6c-.2,0-.6,0-.6-.6s.2-.6.6-.6h2.5v-3.5h-1.3c-.2.6-.7,1.6-1.5,2.6-.4.5-.6.7-.9.7s-.7-.3-.7-.7,0-.3.3-.5c.7-.7,1.9-2.1,2.6-5.4h-1.7Z"/>
        <path class="st19" d="M291.7,13.4c0-1,.2-1.2,1.2-1.2h6.4c1,0,1.2.2,1.2,1.2v1.2c0,1-.2,1.2-1.2,1.2h-6.5c0,1.1-.3,2.3-.9,3.2-.2.4-.4.6-.7.6s-.7-.3-.7-.7,0-.3.5-1.1c.3-.4.7-1.4.7-2.8v-1.7ZM293.9,11.8c-.4,0-.5-.2-.5-.5-.3.1-1.6.8-2.3.8s-.6-.3-.6-.7,0-.4.4-.6c1.6-.6,2.5-.9,3.9-2,.4-.3.7-.5,1.2-.5s.8.2.9.3c1.7,1.2,2.5,1.5,4.3,2.1.1,0,.4.1.4.5s-.2.7-.6.7-2-.8-2.3-.9c0,.5-.3.5-.5.5h-4.4ZM292.9,13.7h6.4v-.3c0-.2,0-.3-.3-.3h-5.8c-.3,0-.3.2-.3.3v.3ZM299.4,14.4h-6.4v.6h6.1c.2,0,.3-.1.3-.3v-.3ZM300.9,18.4c0,1-.3,1.2-1.2,1.2h-5.3c-.9,0-1.2-.2-1.2-1.2v-.9c0-1,.3-1.2,1.2-1.2h5.3c.9,0,1.2.2,1.2,1.2v.9ZM298.1,10.8c-.3-.2-1-.6-1.6-1.1-.2-.2-.2-.2-.3-.2s-.1,0-.3.2c-.6.5-1.1.8-1.5,1h3.8ZM299.7,17.6c0-.2,0-.3-.3-.3h-4.7c-.2,0-.3.1-.3.3v.6c0,.2,0,.3.3.3h4.7c.2,0,.3-.1.3-.3v-.6Z"/>
        <path class="st19" d="M307.1,15.1c-.3,0-.4,0-.5-.2,0,.1,0,.4,0,.6,0,1.7-1,1.7-1.5,1.7s-.8,0-.8-.7.3-.6.6-.6c.3,0,.5,0,.5-.8s-.2-1.2-.6-1.9c-.3-.5-.3-.5-.3-.7,0-.3.8-2.1.8-2.5s-.2-.2-.3-.2h-.6c-.2,0-.3.1-.3.3v8.9c0,.4-.2.6-.6.6s-.6-.5-.6-.6v-9.1c0-1,.3-1.2,1.2-1.2h1c.7,0,1.3,0,1.3.9s-.1,1-.3,1.4c0,.3-.6,1.5-.6,1.6s0,.1.2.4c.5.7.6,1.1.7,1.4,0-.5.4-.5.6-.5h6.2c.2,0,.6,0,.6.6s-.5.6-.6.6h-1.8v3c0,.4.2.4.6.4s.6,0,.7-.6c0-.8,0-.9.5-.9s.6.4.6.6,0,1.4-.4,1.9c-.2.3-.6.3-1.4.3-1.3,0-1.7,0-1.7-1.2v-3.3h-1c0,1.3-.2,2.4-.9,3.3-.7.9-1.7,1.3-2.1,1.3s-.6-.4-.6-.7.2-.4.5-.5c1.5-.7,1.9-1.3,1.9-3.4h-1.2ZM308.2,13c-.1,0-.6,0-.6-.5s0-.2,0-.3c-.1.1-.3.2-.4.2-.6,0-.6-.4-.6-.6v-.9c0-.9.4-1.2,1.2-1.2h1.7v-.6c0-.1,0-.5.6-.5s.6.2.6.5v.6h1.7c.8,0,1.2.3,1.2,1.2v.9c0,.2,0,.6-.6.6s-.3,0-.4,0c0,0,.1.7-.5.7h-3.9ZM312.1,11.9c.2,0,.2,0,.3,0,0,0,0-.1,0-.2v-.6c0-.2-.1-.3-.3-.3h-4c-.2,0-.3,0-.3.3v.6c0,.1,0,.2,0,.3,0,0,.1-.1.4-.1h3.9Z"/>
      </g>
      <g>
        <path class="st19" d="M280.8,33.9c0,.2,0,.5-.4.5s-.5-.2-.5-.5v-4c-.3.4-.4.6-.6.6s-.5-.4-.5-.6,0-.2.2-.4c.6-.8,1-1.5,1.6-3.2,0-.2.1-.4.4-.4s.5,0,.5.4-.2.7-.3.9c-.1.4-.3.8-.4,1.1v5.7ZM281.8,28.1c-.1,0-.5,0-.5-.4s.2-.5.5-.5h1.4c0-.2,0-.9.1-1,0-.2.3-.3.4-.3.5,0,.5.3.5.5,0,.2,0,.6,0,.8h2.6c.1,0,.5,0,.5.4s-.1.5-.5.5h-2.8c-.1.5-.2,1.1-.4,1.6h3c.1,0,.5,0,.5.4s-.3.4-.5.4h-1.4v2.6h1.7c.1,0,.5,0,.5.4s-.3.5-.5.5h-4.5c-.1,0-.5,0-.5-.4s.1-.5.5-.5h1.9v-2.6h-1c-.2.4-.5,1.2-1.2,2-.3.4-.5.5-.7.5s-.5-.3-.5-.5,0-.3.2-.4c.5-.5,1.4-1.6,2-4.1h-1.3Z"/>
        <path class="st19" d="M289,29.6c0-.7.2-.9.9-.9h4.8c.7,0,.9.2.9.9v.9c0,.7-.2.9-.9.9h-4.9c0,.9-.2,1.7-.7,2.4-.2.3-.3.4-.5.4s-.5-.2-.5-.5,0-.2.4-.8c.2-.3.5-1,.5-2.1v-1.3ZM290.7,28.3c-.3,0-.4-.2-.4-.3-.2,0-1.2.6-1.7.6s-.5-.3-.5-.5,0-.3.3-.4c1.2-.4,1.9-.7,3-1.5.3-.2.5-.4.9-.4s.6.2.7.2c1.3.9,1.9,1.1,3.2,1.6,0,0,.3.1.3.4s-.2.5-.5.5-1.5-.6-1.7-.7c0,.4-.2.4-.4.4h-3.3ZM289.9,29.8h4.8v-.2c0-.1,0-.3-.2-.3h-4.3c-.2,0-.3.1-.3.3v.2ZM294.7,30.3h-4.8v.5h4.6c.2,0,.2,0,.2-.3v-.2ZM295.9,33.3c0,.7-.2.9-.9.9h-4c-.7,0-.9-.1-.9-.9v-.7c0-.7.2-.9.9-.9h4c.7,0,.9.1.9.9v.7ZM293.8,27.6c-.2-.1-.8-.5-1.2-.8-.2-.1-.2-.1-.2-.1s0,0-.3.2c-.4.3-.8.6-1.1.8h2.8ZM295,32.7c0-.2,0-.3-.3-.3h-3.5c-.2,0-.2,0-.2.3v.5c0,.2,0,.3.2.3h3.5c.2,0,.3,0,.3-.3v-.5Z"/>
        <path class="st19" d="M302,33.9c0,.2,0,.5-.5.5s-.5-.1-.5-.5v-4.3h-1.6c-.2,0-.4,0-.4.4v3.3c0,.2,0,.5-.5.5s-.5-.2-.5-.5v-3.5c0-.8.4-1.1,1.1-1.1h1.9v-.9h-3.3c-.1,0-.5,0-.5-.5s.2-.5.5-.5h3.3v-.6c0-.3.1-.4.5-.4s.5,0,.5.4v.6h3.3c.1,0,.4,0,.4.4s-.1.5-.4.5h-3.3v.9h2c.7,0,1.1.2,1.1,1.1v2.8c0,1-.6,1-1.4,1s-1,0-1-.5.3-.4.6-.4h.5c.2,0,.3-.2.3-.4v-2.3c0-.3-.1-.4-.4-.4h-1.7v4.3Z"/>
        <path class="st19" d="M308.4,34c-.3,0-.4-.2-.6-.4-.4-.6-.8-1-1.3-1.5,0,0-.2-.2-.2-.4s.3-.5.6-.5.3,0,1.4,1.2c.3.3.7.8.7,1s-.3.6-.6.6Z"/>
        <path class="st19" d="M320.6,32.7c0,.9-.4,1.2-1.2,1.2h-5.4c-.8,0-1.2-.3-1.2-1.2v-5.1c0-.9.4-1.2,1.2-1.2h5.4c.8,0,1.2.3,1.2,1.2v5.1ZM315.1,27.3h-.9c-.3,0-.4.1-.4.4v4.9c0,.3.2.4.4.4h5c.3,0,.4-.2.4-.4v-4.9c0-.3-.1-.4-.4-.4h-1.3v3.4c0,.3,0,.3.6.3s.3,0,.3-.4c0-.4,0-.6.4-.6s.4.3.4.5,0,.9-.4,1.2c-.2.1-.2.1-1.1.1s-1,0-1-.9v-3.5h-1.1v1.8c0,.4,0,1.3-.5,2.1-.2.3-.7,1-1,1s-.5-.2-.5-.5,0-.2.4-.5c.3-.3.8-.7.8-2.1v-1.8Z"/>
        <path class="st19" d="M322.5,30.7c-.3.3-.4.4-.5.4-.3,0-.4-.3-.4-.5s0-.3.6-.9c.3-.3.7-.9.8-1,.4-.7.4-.7.6-.7s.5.2.5.4-.4,1-.6,1.2v4.5c0,.2,0,.4-.4.4s-.4-.3-.4-.4v-3.3ZM323.8,26.4c0,.2-.3.7-.7,1-.3.3-.7.8-1,.8s-.5-.3-.5-.5,0-.2.4-.5c.5-.4.7-.7,1-1.1.1-.2.3-.2.3-.2.2,0,.5.2.5.5ZM325.3,31.5h-.9c-.1,0-.5,0-.5-.4s.2-.4.5-.4h.9v-1h-1c-.1,0-.5,0-.5-.4s.3-.4.5-.4h1v-1.1h-.8c-.1,0-.5,0-.5-.4s.2-.4.5-.4h.8v-.6c0-.1,0-.4.4-.4s.5.2.5.4v.6h.8c.2,0,.5,0,.5.4s-.2.4-.5.4h-.8v1.1h.9c.1,0,.5,0,.5.4s-.1.4-.5.4h-.9v1h.8c.1,0,.5,0,.5.4s-.3.4-.5.4h-.8v1.2c.2,0,1.1-.2,1.2-.2.3,0,.3.2.3.4,0,.4-.1.4-1.8.6-.7,0-1.5.2-1.7.2-.4,0-.4-.4-.4-.5,0-.2,0-.3.3-.4.1,0,1.1,0,1.3-.1v-1.3ZM328,29.4c-.1,0-.4,0-.4-.5s0-.4.4-.4h1.7c.1,0,.4,0,.4.5s0,.4-.3.4h-.4v3.9c0,.9-.3.9-1.4.9s-.6,0-.6-.5.3-.4.5-.4.4,0,.4,0c.1,0,.2-.1.2-.3v-3.6h-.5ZM328.1,27.2c-.1,0-.5,0-.5-.4s.3-.5.5-.5h1.4c.1,0,.5,0,.5.4s-.4.4-.5.4h-1.4Z"/>
        <path class="st19" d="M338.8,33.3c.3,0,.4.2.4.4s-.1.5-.5.5h-3.9c-1.7,0-2.2-.7-2.4-1-.4.5-.7.8-.8.9-.2.2-.3.2-.4.2-.3,0-.5-.3-.5-.6s0-.2.5-.7c.2-.2.4-.4.5-.5v-2.1c0,0,0-.3-.2-.3h-.3c-.3,0-.4-.2-.4-.4s.2-.4.5-.4h.5c.7,0,.9.2.9.9v1.6c.1,1.2,1.4,1.4,2.1,1.4h4ZM332.3,26.7c.1.1.4.4.5.6,0,0,0,.2,0,.2,0,.3-.2.5-.5.5s-.3,0-.5-.4c-.2-.2-.4-.5-.8-.8-.1-.1-.2-.2-.2-.3,0-.2.2-.5.5-.5s.6.4.9.7ZM337.7,28.2c.6,0,.9.2.9.9v2.7c0,.7-.3.9-.9.9h-3.2c-.6,0-.9-.2-.9-.9v-2.7c0-.7.3-.9.9-.9h.8c0,0,.1-.3.2-.5h-2c-.1,0-.4,0-.4-.4s.2-.4.4-.4h1c0-.1-.2-.3-.2-.4,0,0,0-.1,0-.2,0-.2.2-.3.5-.3s.3,0,.4.3c.2.3.3.5.4.7h1.2c0-.2.2-.4.3-.7,0-.1.1-.3.5-.3s.5,0,.5.4,0,.2-.3.6h1.1c.1,0,.4,0,.4.4s-.3.4-.4.4h-2.4c0,.1,0,.3-.2.5h1.5ZM337.7,29.5v-.4c0-.2,0-.3-.2-.3h-2.7c-.2,0-.3,0-.3.3v.4h3.2ZM337.7,30.2h-3.2v.6h3.2v-.6ZM337.7,31.4h-3.2v.4c0,.2,0,.3.3.3h2.7c.2,0,.2,0,.2-.3v-.4Z"/>
        <path class="st19" d="M344.7,33.9c0,.2,0,.5-.5.5s-.5-.1-.5-.5v-4.3h-1.6c-.2,0-.4,0-.4.4v3.3c0,.2,0,.5-.5.5s-.5-.2-.5-.5v-3.5c0-.8.4-1.1,1.1-1.1h1.9v-.9h-3.3c-.1,0-.5,0-.5-.5s.2-.5.5-.5h3.3v-.6c0-.3.1-.4.5-.4s.5,0,.5.4v.6h3.3c.1,0,.4,0,.4.4s-.1.5-.4.5h-3.3v.9h2c.7,0,1.1.2,1.1,1.1v2.8c0,1-.6,1-1.4,1s-1,0-1-.5.3-.4.6-.4h.5c.2,0,.3-.2.3-.4v-2.3c0-.3-.1-.4-.4-.4h-1.7v4.3Z"/>
        <path class="st19" d="M351.2,34c-.3,0-.4-.2-.6-.4-.4-.6-.8-1-1.3-1.5,0,0-.2-.2-.2-.4s.3-.5.6-.5.3,0,1.4,1.2c.3.3.7.8.7,1s-.3.6-.6.6Z"/>
        <path class="st19" d="M280.2,45.6c0,.2.1.4.4.4h1.9c.3,0,.4.1.4.4s0,.5-.4.5h-2.2c-.7,0-1-.2-1-1v-4.6c0-.5,0-.9.5-1.1.2,0,1-.2,1.1-.2.4,0,1.1-.3,1.1-.3.2,0,.2,0,.3,0,.3,0,.4.3.4.5,0,.3,0,.5-2.3.8-.3,0-.3.2-.3.5v1.4h2.2c.3,0,.4.1.4.4s0,.5-.4.5h-2.2v1.9ZM283.4,40.9c0-.8.3-1,1-1h1.6c.7,0,1,.2,1,1v5c0,.9-.3.9-1.3.9s-.6,0-.7,0c-.2-.1-.3-.4-.3-.5,0-.2,0-.5.4-.5s.6,0,.7,0c.2,0,.3-.2.3-.3v-4.4c0-.2-.1-.4-.4-.4h-1.1c-.2,0-.4.1-.4.4v6.4c0,.1,0,.5-.4.5s-.5-.1-.5-.5v-6.7Z"/>
        <path class="st19" d="M288.4,40.9c-.1,0-.5,0-.5-.4s.2-.4.5-.4h7.6c.2,0,.5,0,.5.4s0,.5-.5.5h-2.7v1.1h1.7c.7,0,1.1.2,1.1,1.1v3.7c0,.8-.4,1.1-1.1,1.1h-5.6c-.7,0-1.1-.2-1.1-1.1v-3.7c0-.8.3-1.1,1.1-1.1h1.1v-1.1h-2.1ZM290.5,42.9h-.9c-.2,0-.4.1-.4.4v3.4c0,.2.1.4.4.4h5.2c.2,0,.4-.1.4-.4v-3.4c0-.2-.1-.4-.4-.4h-1.5v1.8c0,.3,0,.3.5.3s.4,0,.4-.6c0-.3,0-.5.3-.5s.4.3.4.4,0,1-.3,1.3c-.2.2-.4.2-1.3.2s-.9-.3-.9-.9v-2h-1.2v.2c0,1.1-.2,1.7-.4,2.1-.2.4-.6,1-1,1s-.5-.3-.5-.5,0-.2.2-.3c.4-.4.9-.9.9-2.3v-.2ZM292.5,40.9h-1.2v1.1h1.2v-1.1Z"/>
        <path class="st19" d="M301.9,47.6c0,.2,0,.5-.5.5s-.5-.1-.5-.5v-4.3h-1.6c-.2,0-.4,0-.4.4v3.3c0,.2,0,.5-.5.5s-.5-.2-.5-.5v-3.5c0-.8.4-1.1,1.1-1.1h1.9v-.9h-3.3c-.1,0-.5,0-.5-.5s.2-.5.5-.5h3.3v-.6c0-.3.1-.4.5-.4s.5,0,.5.4v.6h3.3c.1,0,.4,0,.4.4s-.1.5-.4.5h-3.3v.9h2c.7,0,1.1.2,1.1,1.1v2.8c0,1-.6,1-1.4,1s-1,0-1-.5.3-.4.6-.4h.5c.2,0,.3-.2.3-.4v-2.3c0-.3-.1-.4-.4-.4h-1.7v4.3Z"/>
        <path class="st19" d="M308.3,47.7c-.3,0-.4-.2-.6-.4-.4-.6-.8-1-1.3-1.5,0,0-.2-.2-.2-.4s.3-.5.6-.5.3,0,1.4,1.2c.3.3.7.8.7,1s-.3.6-.6.6Z"/>
        <path class="st19" d="M313.5,43.3c-.3-.2-.3-.2-.6-.4-.2-.1-.3-.2-.3-.4,0-.2.2-.5.4-.5s.7.3,1,.5c.4.3.6.4.6.6s-.2.5-.4.5-.2,0-.6-.4ZM312.9,46.7c.4-.6.6-1.2.9-1.9,0-.2.2-.4.4-.4s.5.1.5.4c0,.5-.8,2.1-.9,2.1-.5,1-.7,1-.9,1-.3,0-.5-.3-.5-.4s0-.2.4-.8ZM314.4,41.3c-.1,0-.2,0-.7-.4-.6-.4-.7-.5-.8-.5,0,0,0-.1,0-.2,0-.2.2-.5.5-.5s.8.4,1,.5c.4.3.5.4.5.6,0,.2-.3.4-.5.4ZM316.7,40.7h-1.5c-.1,0-.5,0-.5-.4s.3-.4.5-.4h5.2c.2,0,.5,0,.5.4s-.2.4-.5.4h-1.6v.9h.8c.6,0,.9.2.9.9v4.4c0,.7-.3.9-.9.9h-3.7c-.6,0-.9-.2-.9-.9v-4.4c0-.7.3-.9.9-.9h.7v-.9ZM316.7,42.4h-.5c-.2,0-.3,0-.3.3v2.7h3.8v-.8h-.7c-.6,0-.8-.2-.8-.8v-1.4h-.7v.2c0,.7-.1,1.3-.4,1.8-.3.4-.4.4-.5.4-.2,0-.4-.2-.4-.4s0-.2.2-.4c.3-.4.4-.7.4-1.4v-.2ZM319.7,46.1h-3.8v.7c0,.2,0,.3.3.3h3.3c.2,0,.3-.1.3-.3v-.7ZM317.5,41.7h.7v-.9h-.7v.9ZM318.9,43.7c0,.2,0,.2.2.2h.6v-1.2c0-.1,0-.3-.3-.3h-.6v1.3Z"/>
        <path class="st19" d="M324.6,42.5c-.3.4-.8,1.1-1.5,1.9-.5.5-.6.6-.8.6s-.5-.2-.5-.5,0-.3.4-.6c.6-.6,1.6-1.7,2.2-2.9,0,0,.2-.5.3-.6,0-.1.2-.3.5-.3s.5,0,.5.4,0,.4-.5,1.1h3.1c.8,0,1,.5,1,.8s-.3.9-.6,1.2c-.9,1.1-1.4,1.6-2.2,2.3.3.2.6.5.8.7.2.1.3.3.3.5s-.2.5-.5.5-.3-.1-.5-.3c-.5-.5-1.4-1.3-2.6-2.1-.2,0-.3-.2-.3-.4s.2-.5.4-.5.4.1.5.2c.2.1.8.6,1.1.8.5-.4,1-.8,1.7-1.7.2-.2.6-.7.6-.9s-.3-.2-.4-.2h-3Z"/>
        <path class="st19" d="M330.7,45.3c-.1,0-.5,0-.5-.4s.2-.5.5-.5h1.5c0-.3,0-.7,0-.7v-1.4h-1.4c-.1,0-.5,0-.5-.5s.3-.5.5-.5h1.4v-1.2c0-.1,0-.5.5-.5s.5.2.5.5v1.2h2.5v-1.2c0-.1,0-.5.5-.5s.5.2.5.5v1.2h1.4c.1,0,.5,0,.5.5s-.3.5-.5.5h-1.4v2.2h1.5c.1,0,.5,0,.5.5s-.3.5-.5.5h-1.5v2.3c0,.1,0,.5-.5.5s-.5-.1-.5-.5v-2.3h-2.7c-.1.5-.4,1.5-1.4,2.3-.5.4-.7.5-.8.5-.3,0-.5-.3-.5-.5s.1-.3.3-.4c.7-.5,1.1-.9,1.4-1.8h-1.4ZM333.3,43.6c0,.2,0,.4,0,.7h2.5v-2.2h-2.5v1.4Z"/>
        <path class="st19" d="M343.8,46.2c0,.7-.3.9-.9.9h-2.3c-.6,0-.9-.2-.9-.9v-5.4c0-.7.3-.9.9-.9h2.3c.6,0,.9.2.9.9v5.4ZM341.3,43.1v-2.3h-.5c-.2,0-.3.1-.3.3v2.1h.8ZM341.3,43.9h-.8v2.1c0,.1,0,.3.3.3h.5v-2.4ZM342.2,43.1h.8v-2.1c0-.2,0-.3-.3-.3h-.6v2.3ZM342.2,43.9v2.4h.6c.2,0,.3,0,.3-.3v-2.1h-.8ZM344.3,41.2c-.1,0-.5,0-.5-.5s.3-.5.5-.5h3.1c.1,0,.5,0,.5.5s-.2.5-.5.5h-.6v5.7c0,1-.5,1-1.4,1s-.9,0-1,0c-.2,0-.3-.2-.3-.5,0-.5.3-.5.6-.5s.7,0,.8,0c.3,0,.3-.2.3-.4v-5.3h-1.5Z"/>
      </g>
    </g>
  </g>
  <g>
    <rect class="st7" x=".7" y=".7" width="82.2" height="40.8"/>
    <g>
      <g>
        <path class="st19" d="M9.8,12.7h-2.7c-.2,0-.6,0-.6-.6s.3-.6.6-.6h2.7v-2.3c0-.2,0-.6.6-.6s.7.2.7.6v10c0,.2,0,.6-.6.6s-.7-.2-.7-.6v-1.1c-.6.2-2.5.9-2.8.9s-.6-.5-.6-.8.2-.5.9-.7c1.2-.3,1.8-.5,2.4-.7v-4.1ZM13.9,17.9c0,.5.2.5,1.1.5s1.2,0,1.3-.4c0-.3,0-1.4.1-1.6,0-.3.4-.4.5-.4.7,0,.7.5.7.6,0,.3-.1,1.8-.3,2.3-.2.5-.5.7-1,.7-.3,0-1.2,0-1.6,0-1.1,0-1.4,0-1.7-.2-.4-.3-.4-.9-.4-1.1v-9.1c0-.2,0-.6.6-.6s.7.2.7.6v3.1c1.2-.6,1.8-1.1,2.1-1.3.5-.4.6-.6.9-.6.4,0,.7.5.7.8s0,.4-.9.9c-1.2.9-2.3,1.4-2.8,1.6v4.1Z"/>
        <path class="st19" d="M24.4,13h4.4c.2,0,.6,0,.6.6s-.2.7-.6.7h-4.4v4.9c0,.3,0,.6-.6.6s-.8-.1-.8-.6v-4.9h-4.3c-.2,0-.6,0-.6-.6s.2-.7.6-.7h4.3v-2.6c-1,0-3.3,0-3.4,0-.3,0-.7,0-.7-.6s.4-.6.9-.6c.5,0,3.9,0,5.9-.4.3,0,2-.3,2.1-.3.6,0,.6.6.6.7,0,.4-.2.5-.4.6,0,0-.8.3-3.5.5v2.6Z"/>
        <path class="st19" d="M33,19.2c0,.2,0,.6-.6.6s-.6-.3-.6-.6v-5.4c-.4.5-.5.7-.8.7s-.7-.3-.7-.8,0-.4.2-.6c.8-1,1-1.4,1.5-2.5.2-.5.4-1,.6-1.6,0-.2.1-.5.6-.5s.6,0,.6.5-.1.9-.9,2.6v7.5ZM38.2,14.5h2.1c.2,0,.6,0,.6.6s-.5.6-.6.6h-2.1v2.7h2.8c.1,0,.6,0,.6.6s-.5.6-.6.6h-6.9c-.1,0-.6,0-.6-.6s.5-.6.6-.6h2.9v-2.7h-2.2c-.1,0-.6,0-.6-.6s.5-.6.6-.6h2.2v-2.4h-2.6c-.1,0-.6,0-.6-.6s.5-.6.6-.6h6.4c.2,0,.6,0,.6.6s-.5.6-.6.6h-2.5v2.4ZM38.3,9.3c.5.3.6.4.6.7s-.3.7-.6.7-.3,0-1-.5c-.2,0-1-.5-1.1-.6-.3-.1-.3-.3-.3-.4,0-.3.2-.7.7-.7s1.5.6,1.7.8Z"/>
        <path class="st19" d="M46.9,15.1c-.3,0-.4,0-.5-.2,0,.1,0,.4,0,.6,0,1.7-1,1.7-1.5,1.7s-.8,0-.8-.7.3-.6.6-.6c.3,0,.5,0,.5-.8s-.2-1.2-.6-1.9c-.3-.5-.3-.5-.3-.7,0-.3.8-2.1.8-2.5s-.2-.2-.3-.2h-.6c-.2,0-.3.1-.3.3v8.9c0,.4-.2.6-.6.6s-.6-.5-.6-.6v-9.1c0-1,.3-1.2,1.2-1.2h1c.7,0,1.3,0,1.3.9s-.1,1-.3,1.4c0,.3-.6,1.5-.6,1.6s0,.1.2.4c.5.7.6,1.1.7,1.4,0-.5.4-.5.6-.5h6.2c.2,0,.6,0,.6.6s-.5.6-.6.6h-1.8v3c0,.4.2.4.6.4s.6,0,.7-.6c0-.8,0-.9.5-.9s.6.4.6.6,0,1.4-.4,1.9c-.2.3-.6.3-1.4.3-1.3,0-1.7,0-1.7-1.2v-3.3h-1c0,1.3-.2,2.4-.9,3.3-.7.9-1.7,1.3-2.1,1.3s-.6-.4-.6-.7.2-.4.5-.5c1.5-.7,1.9-1.3,1.9-3.4h-1.2ZM48,13c-.1,0-.6,0-.6-.5s0-.2,0-.3c-.1.1-.3.2-.4.2-.6,0-.6-.4-.6-.6v-.9c0-.9.4-1.2,1.2-1.2h1.7v-.6c0-.1,0-.5.6-.5s.6.2.6.5v.6h1.7c.8,0,1.2.3,1.2,1.2v.9c0,.2,0,.6-.6.6s-.3,0-.4,0c0,0,.1.7-.5.7h-3.9ZM51.9,11.9c.2,0,.2,0,.3,0,0,0,0-.1,0-.2v-.6c0-.2-.1-.3-.3-.3h-4c-.2,0-.3,0-.3.3v.6c0,.1,0,.2,0,.3,0,0,.1-.1.4-.1h3.9Z"/>
      </g>
      <g>
        <path class="st19" d="M15.1,33.3c.3,0,.5,0,.5.4,0,.5-.3.5-.5.5h-2.5c-1.5,0-2.7-.4-3.5-1.7-.3.6-.6,1.2-1.1,1.6-.2.2-.3.2-.4.2-.2,0-.5-.2-.5-.5s0-.2.6-.9c0,0,.7-.9,1-2.5,0-.2,0-.5.5-.5s.5,0,.5.4-.1.9-.2,1.2c.3.7.9,1.3,1.5,1.5v-3.7h-2.1c-.7,0-1-.3-1-1v-1.1c0-.7.3-1,1-1h5.1c.7,0,1,.3,1,1v1.1c0,.7-.3,1-1,1h-2v1.3h2.9c.1,0,.5,0,.5.4s-.1.5-.5.5h-2.9v1.8c.2,0,.4,0,.6,0h2.6ZM13.9,27.4c0-.2-.1-.4-.4-.4h-4.5c-.2,0-.4.1-.4.4v.7c0,.2.1.4.4.4h4.5c.2,0,.4-.1.4-.4v-.7Z"/>
        <path class="st19" d="M24.4,33.1c.1,0,.5,0,.5.5s-.2.5-.5.5h-7.5c-.2,0-.5,0-.5-.5s.2-.5.5-.5h4.1c.7-1.5,1.1-3.1,1.1-3.4,0-.1.2-.9.2-.9,0-.1.2-.3.5-.3s.5.2.5.5-.3,1.2-.4,1.5c-.4,1.3-.5,1.6-1,2.7h2.4ZM24.1,27.1c.2,0,.5,0,.5.5s-.2.5-.5.5h-6.9c-.2,0-.5,0-.5-.5s.2-.5.5-.5h2.9v-.7c0-.1,0-.5.5-.5s.5.2.5.5v.7h2.9ZM19.2,29.5c.3,1.2.5,2.4.5,2.7,0,.4-.4.5-.5.5-.4,0-.5-.3-.5-.5-.2-1.4-.3-1.8-.7-3,0-.1,0-.2,0-.2,0-.2.2-.4.5-.4s.4.2.6,1Z"/>
        <path class="st19" d="M33.4,26.2c.1,0,.5,0,.5.5s-.3.5-.5.5h-6.1c-.3,0-.5.2-.5.5v5.2c0,.2,0,.5.5.5h6.2c.2,0,.5,0,.5.4s-.3.5-.5.5h-6.5c-.8,0-1.2-.3-1.2-1.2v-5.5c0-.9.4-1.2,1.2-1.2h6.3ZM31.7,27.7c0-.1.2-.3.4-.3s.6.2.6.5-.7,1.3-1.3,2.1c0,0,.9.7,1.5,1.2.4.4.5.4.5.6,0,.3-.3.6-.6.6s-.3,0-.4-.2c-.5-.5-1.1-1-1.6-1.5-.5.6-1.3,1.3-2.1,1.8-.5.3-.5.3-.6.3-.4,0-.5-.3-.5-.5s.1-.3.2-.4c.8-.5.9-.5,1.5-1,.4-.3.7-.6.8-.7-.6-.4-1.2-.8-1.9-1.2-.3-.2-.4-.2-.4-.4s.2-.5.5-.5.2,0,.5.2c.1,0,1.2.7,1.9,1.2.5-.6.7-1,1.1-1.7Z"/>
        <path class="st19" d="M36.8,34c-.3,0-.4-.2-.6-.4-.4-.6-.8-1-1.3-1.5,0,0-.2-.2-.2-.4s.3-.5.6-.5.3,0,1.4,1.2c.3.3.7.8.7,1s-.3.6-.6.6Z"/>
        <path class="st19" d="M43.2,29.8c0,.2,0,.3.3.3h5.1c.4,0,.4.3.4.4,0,.1,0,.4-.4.4h-5.3c-.7,0-.9-.2-.9-.9v-.8h-.8c-.1,0-.4,0-.4-.4s.3-.4.4-.4h3.3v-.3c0-.3.2-.3.4-.3.3,0,.5,0,.5.3v.3h3.3c.1,0,.4,0,.4.4s-.3.4-.4.4h-6v.6ZM43.2,26.3c0-.2,0-.4.4-.4s.5,0,.5.4v.3h2.5v-.3c0-.2,0-.4.4-.4s.5,0,.5.4v.3h1.6c.1,0,.5,0,.5.4s-.1.4-.5.4h-1.6v.3c0,.2,0,.4-.4.4s-.5,0-.5-.4v-.3h-2.5v.3c0,.2,0,.4-.4.4s-.5-.1-.5-.4v-.3h-1.6c-.2,0-.5,0-.5-.4s.2-.4.5-.4h1.6v-.3ZM43.6,31.5s0,.9-.3,1.6c-.4,1-1.4,1.3-1.6,1.3-.3,0-.5-.3-.5-.5s.1-.3.5-.5c.8-.4.8-.9,1-1.8,0-.3,0-.6.5-.6s.5,0,.5.5ZM45.7,33.8c0,.1,0,.5-.5.5s-.5-.3-.5-.5v-2.4c0-.1,0-.5.5-.5s.5.3.5.5v2.4ZM47.7,33.1c0,.3,0,.3.5.3s.4,0,.4-.7c0-.3,0-.6.4-.6s.5.4.5.5c0,.4,0,1.2-.3,1.5-.2.2-.4.2-1.2.2s-1.2,0-1.2-.9v-1.9c0-.1,0-.5.5-.5s.5.3.5.5v1.6Z"/>
        <path class="st19" d="M52.3,29.7c0,2-.4,3.3-.7,3.9-.3.6-.5.7-.7.7s-.6-.2-.6-.5,0-.3.2-.5c.2-.3.5-.8.6-1.9,0-.6,0-1.3,0-1.6v-3.2c0-.2,0-.5.5-.5s.5.1.5.5v3.2ZM55.2,33.3c0,.2,0,.5-.5.5s-.5-.1-.5-.5v-6.6c0-.2,0-.5.5-.5s.5.1.5.5v6.6ZM58.3,33.9c0,.2,0,.5-.5.5s-.5-.1-.5-.5v-7.4c0-.2,0-.5.5-.5s.5.1.5.5v7.4Z"/>
        <path class="st19" d="M67.4,26.2c.1,0,.5,0,.5.5s-.3.5-.5.5h-6.1c-.3,0-.5.2-.5.5v5.2c0,.2,0,.5.5.5h6.2c.2,0,.5,0,.5.4s-.3.5-.5.5h-6.5c-.8,0-1.2-.3-1.2-1.2v-5.5c0-.9.4-1.2,1.2-1.2h6.3ZM65.7,27.7c0-.1.2-.3.4-.3s.6.2.6.5-.7,1.3-1.3,2.1c0,0,.9.7,1.5,1.2.4.4.5.4.5.6,0,.3-.3.6-.6.6s-.3,0-.4-.2c-.5-.5-1.1-1-1.6-1.5-.5.6-1.3,1.3-2.1,1.8-.5.3-.5.3-.6.3-.4,0-.5-.3-.5-.5s.1-.3.2-.4c.8-.5.9-.5,1.5-1,.4-.3.7-.6.8-.7-.6-.4-1.2-.8-1.9-1.2-.3-.2-.4-.2-.4-.4s.2-.5.5-.5.2,0,.5.2c.1,0,1.2.7,1.9,1.2.5-.6.7-1,1.1-1.7Z"/>
      </g>
    </g>
  </g>
  <g>
    <rect class="st11" x="272.8" y="148.9" width="83.6" height="40.8"/>
    <g>
      <g>
        <path class="st19" d="M282.7,157.6c0,.3-.2,3-.7,5.2-.5,2.1-1.5,3.6-2.3,4.6-.3.3-.5.4-.7.4-.4,0-.8-.4-.8-.7s.1-.4.3-.6c1.6-1.8,2.3-3.6,2.7-7.2,0-.3.1-1.8.1-1.9,0-.3.3-.4.6-.4.6,0,.6.4.6.6ZM286.5,157.8c.3,4.7.9,6.3,2.7,8.6.2.2.3.4.3.7,0,.4-.4.7-.8.7s-.6-.2-1.3-1.3c-1.4-2.1-1.8-4.2-2-5.8-.2-1.5-.3-2.8-.3-3.1s0-.6.6-.6.7.2.7.8Z"/>
        <path class="st19" d="M295.6,161.2h4.4c.2,0,.6,0,.6.6s-.2.7-.6.7h-4.4v4.9c0,.3,0,.6-.6.6s-.8-.1-.8-.6v-4.9h-4.3c-.2,0-.6,0-.6-.6s.2-.7.6-.7h4.3v-2.6c-1,0-3.3,0-3.4,0-.3,0-.7,0-.7-.6s.4-.6.9-.6c.5,0,3.9,0,5.9-.4.3,0,2-.3,2.1-.3.6,0,.6.6.6.7,0,.4-.2.5-.4.6,0,0-.8.3-3.5.5v2.6Z"/>
        <path class="st19" d="M304.5,167.4c0,.2,0,.6-.6.6s-.7-.1-.7-.6v-5.4c-.5.7-.7.8-.9.8s-.7-.3-.7-.7,0-.4.3-.7c.9-1.1,1.5-2,2.3-4.1.2-.4.3-.6.6-.6s.7.1.7.6-.8,2-1.1,2.6v7.5ZM312.2,159.9c.3,0,.7,0,.7.6s-.3.6-.6.6l-3.4.2c.2,2.7,1,4.1,1.5,4.7.4.5.6.5.7.5.4,0,.6-.6.6-.8.2-.6.2-.8.6-.8s.7.2.7.6-.3,1.2-.7,1.8c-.3.4-.6.7-1.1.7-2,0-3.3-3.4-3.5-6.6h-2c-.3.1-.7,0-.7-.5s.2-.6.6-.6h1.9c0-.5-.2-2-.2-2.3,0-.3,0-.6,0-.6,0-.2,0-.7.7-.7s.7.5.7.7c0,.4.2,2.3.2,2.7l3.4-.2ZM311.5,157.9c.6.5.6.6.6.8,0,.4-.4.7-.7.7s-.3,0-.7-.5c-.3-.3-.7-.6-.9-.8-.1,0-.3-.3-.3-.5s.3-.6.6-.6,1,.6,1.3.9Z"/>
        <path class="st19" d="M318.3,163.4c-.3,0-.4,0-.5-.2,0,.1,0,.4,0,.6,0,1.7-1,1.7-1.5,1.7s-.8,0-.8-.7.3-.6.6-.6c.3,0,.5,0,.5-.8s-.2-1.2-.6-1.9c-.3-.5-.3-.5-.3-.7,0-.3.8-2.1.8-2.5s-.2-.2-.3-.2h-.6c-.2,0-.3.1-.3.3v8.9c0,.4-.2.6-.6.6s-.6-.5-.6-.6v-9.1c0-1,.3-1.2,1.2-1.2h1c.7,0,1.3,0,1.3.9s-.1,1-.3,1.4c0,.3-.6,1.5-.6,1.6s0,.1.2.4c.5.7.6,1.1.7,1.4,0-.5.4-.5.6-.5h6.2c.2,0,.6,0,.6.6s-.5.6-.6.6h-1.8v3c0,.4.2.4.6.4s.6,0,.7-.6c0-.8,0-.9.5-.9s.6.4.6.6,0,1.4-.4,1.9c-.2.3-.6.3-1.4.3-1.3,0-1.7,0-1.7-1.2v-3.3h-1c0,1.3-.2,2.4-.9,3.3-.7.9-1.7,1.3-2.1,1.3s-.6-.4-.6-.7.2-.4.5-.5c1.5-.7,1.9-1.3,1.9-3.4h-1.2ZM319.4,161.2c-.1,0-.6,0-.6-.5s0-.2,0-.3c-.1.1-.3.2-.4.2-.6,0-.6-.4-.6-.6v-.9c0-.9.4-1.2,1.2-1.2h1.7v-.6c0-.1,0-.5.6-.5s.6.2.6.5v.6h1.7c.8,0,1.2.3,1.2,1.2v.9c0,.2,0,.6-.6.6s-.3,0-.4,0c0,0,.1.7-.5.7h-3.9ZM323.3,160.1c.2,0,.2,0,.3,0,0,0,0-.1,0-.2v-.6c0-.2-.1-.3-.3-.3h-4c-.2,0-.3,0-.3.3v.6c0,.1,0,.2,0,.3,0,0,.1-.1.4-.1h3.9Z"/>
      </g>
      <g>
        <path class="st19" d="M282.2,174.7c0,.2-.1,2.3-.5,3.9-.4,1.6-1.1,2.7-1.7,3.5-.2.3-.4.3-.5.3-.3,0-.6-.3-.6-.5s.1-.3.2-.5c1.2-1.4,1.7-2.7,2-5.4,0-.2,0-1.3.1-1.4,0-.2.2-.3.5-.3.5,0,.5.3.5.5ZM285.1,174.9c.2,3.5.6,4.7,2,6.4.1.2.2.3.2.5,0,.3-.3.5-.6.5s-.4-.1-1-1c-1-1.6-1.3-3.1-1.5-4.3-.2-1.1-.2-2.1-.2-2.3s0-.5.5-.5.5.2.5.6Z"/>
        <path class="st19" d="M292.3,177.5h3.3c.1,0,.5,0,.5.5s-.1.5-.5.5h-3.3v3.7c0,.2,0,.5-.5.5s-.6-.1-.6-.5v-3.7h-3.3c-.2,0-.5,0-.5-.5s.1-.5.5-.5h3.3v-1.9c-.7,0-2.5,0-2.6,0-.3,0-.5,0-.5-.5s.3-.5.7-.5c.4,0,2.9,0,4.4-.3.2,0,1.5-.3,1.5-.3.5,0,.5.5.5.5,0,.3-.2.4-.3.4,0,0-.6.2-2.6.4v2Z"/>
        <path class="st19" d="M299.3,182.1c0,.2,0,.5-.4.5s-.5-.1-.5-.5v-4.1c-.4.5-.5.6-.7.6s-.5-.2-.5-.5,0-.3.2-.5c.7-.8,1.2-1.5,1.8-3.1.1-.3.2-.5.5-.5s.5,0,.5.4-.6,1.5-.8,2v5.6ZM305.1,176.5c.2,0,.5,0,.5.5s-.2.4-.4.5l-2.5.2c.2,2.1.7,3.1,1.1,3.5.3.4.5.4.5.4.3,0,.4-.5.4-.6.1-.5.2-.6.4-.6s.5.1.5.4-.2.9-.5,1.3c-.2.3-.4.5-.9.5-1.5,0-2.5-2.6-2.6-4.9h-1.5c-.2.1-.5,0-.5-.4s.1-.4.4-.4h1.5c0-.4-.1-1.5-.1-1.7,0-.2,0-.4,0-.5,0-.1,0-.5.5-.5s.5.4.5.5c0,.3.1,1.7.1,2l2.5-.2ZM304.6,175c.4.4.5.5.5.6,0,.3-.3.5-.5.5s-.2,0-.5-.4c-.2-.2-.5-.5-.7-.6,0,0-.2-.2-.2-.3s.2-.5.5-.5.7.5,1,.7Z"/>
        <path class="st19" d="M311.1,182.1c0,.2,0,.5-.5.5s-.5-.1-.5-.5v-4.3h-1.6c-.2,0-.4,0-.4.4v3.3c0,.2,0,.5-.5.5s-.5-.2-.5-.5v-3.5c0-.8.4-1.1,1.1-1.1h1.9v-.9h-3.3c-.1,0-.5,0-.5-.5s.2-.5.5-.5h3.3v-.6c0-.3.1-.4.5-.4s.5,0,.5.4v.6h3.3c.1,0,.4,0,.4.4s-.1.5-.4.5h-3.3v.9h2c.7,0,1.1.2,1.1,1.1v2.8c0,1-.6,1-1.4,1s-1,0-1-.5.3-.4.6-.4h.5c.2,0,.3-.2.3-.4v-2.3c0-.3-.1-.4-.4-.4h-1.7v4.3Z"/>
        <path class="st19" d="M317.9,182.2c-.3,0-.4-.2-.6-.4-.4-.6-.8-1-1.3-1.5,0,0-.2-.2-.2-.4s.3-.5.6-.5.3,0,1.4,1.2c.3.3.7.8.7,1s-.3.6-.6.6Z"/>
        <path class="st19" d="M326,177.5h3.3c.1,0,.5,0,.5.5s-.1.5-.5.5h-3.3v3.7c0,.2,0,.5-.5.5s-.6-.1-.6-.5v-3.7h-3.3c-.2,0-.5,0-.5-.5s.1-.5.5-.5h3.3v-1.9c-.7,0-2.5,0-2.6,0-.3,0-.5,0-.5-.5s.3-.5.7-.5c.4,0,2.9,0,4.4-.3.2,0,1.5-.3,1.5-.3.5,0,.5.5.5.5,0,.3-.2.4-.3.4,0,0-.6.2-2.6.4v2Z"/>
        <path class="st19" d="M335.3,182.1c0,.2,0,.5-.4.5s-.5,0-.5-.5v-1.4c-1.2,1.2-3,1.6-3.3,1.6s-.4-.3-.4-.5c0-.3.2-.3,1-.5.4-.1,1.4-.5,2-1h-2.6c-.1,0-.4,0-.4-.4s.3-.4.4-.4h3.4v-.4h-1.6c-.6,0-.9-.2-.9-.9v-1.3h-.9c-.1,0-.4,0-.4-.4s.2-.4.4-.4h.9v-.3c0-.2.2-.3.4-.3s.5,0,.5.3v.3h1.6v-.3c0-.1,0-.3.4-.3s.5,0,.5.3v.3h1.6v-.3c0-.2,0-.3.4-.3s.5,0,.5.3v.3h.9c.2,0,.4,0,.4.4s-.2.4-.4.4h-.9v.3c0,.7-.4.8-.9.8h-1.6c-.5,0-.9,0-.9-.8v-.3h-1.6v1.1c0,.2,0,.3.3.3h5.1c.1,0,.4,0,.4.4s-.2.4-.4.4h-2.9v.4h3.4c.1,0,.4,0,.4.4s-.1.4-.4.4h-2.6c.8.6,1.6.9,2,1,.8.2,1,.2,1,.5s0,.2,0,.3c0,0-.2.1-.3.1-.4,0-2.1-.5-3.3-1.6v1.4ZM332.8,174.5c0-.1,0-.4.4-.4s.5.1.5.4v.2h2.2v-.2c0-.1,0-.4.4-.4s.5.1.5.4v.2h1.7c.1,0,.5,0,.5.4s-.3.4-.5.4h-1.7v.2c0,.3-.3.4-.5.4-.4,0-.5-.1-.5-.3v-.2h-2.2v.2c0,.3-.2.4-.4.4-.4,0-.5-.1-.5-.4v-.2h-1.8c-.1,0-.4,0-.4-.4s.3-.4.4-.4h1.8ZM335.3,177.1v.3c0,.1,0,.2.2.2h1.2c.1,0,.2,0,.2-.2v-.3h-1.6Z"/>
        <path class="st19" d="M344.8,182.1c0,.2,0,.5-.5.5s-.5-.1-.5-.5v-4.3h-1.6c-.2,0-.4,0-.4.4v3.3c0,.2,0,.5-.5.5s-.5-.2-.5-.5v-3.5c0-.8.4-1.1,1.1-1.1h1.9v-.9h-3.3c-.1,0-.5,0-.5-.5s.2-.5.5-.5h3.3v-.6c0-.3.1-.4.5-.4s.5,0,.5.4v.6h3.3c.1,0,.4,0,.4.4s-.1.5-.4.5h-3.3v.9h2c.7,0,1.1.2,1.1,1.1v2.8c0,1-.6,1-1.4,1s-1,0-1-.5.3-.4.6-.4h.5c.2,0,.3-.2.3-.4v-2.3c0-.3-.1-.4-.4-.4h-1.7v4.3Z"/>
      </g>
    </g>
  </g>
  <g>
    <rect class="st11" x="91.4" y=".7" width="82.2" height="40.8"/>
    <g>
      <g>
        <path class="st19" d="M102.3,12.2c.2,0,.6,0,.6.6s-.4.6-.6.6h-1.5v1h1.4c.2,0,.6,0,.6.5s-.3.6-.6.6h-1.2c.5.6,1,1.1,1.1,1.2.5.4.5.5.5.7,0,.3-.3.6-.6.6s-.3,0-.5-.3c-.3-.4-.6-.7-.7-.9v2.5c0,.2,0,.6-.6.6s-.6-.1-.6-.6v-2.2c-.4.6-.9,1.1-1.2,1.4-.3.3-.4.3-.6.3-.4,0-.6-.3-.6-.7s0-.3.7-.8c.9-.8,1.4-1.5,1.6-1.8h-1.5c-.1,0-.6,0-.6-.5s.2-.6.6-.6h1.6v-1h-1.8c-.2,0-.6,0-.6-.6s.4-.6.6-.6h.8c0-.4-.2-1.2-.3-1.6h-.4c-.3,0-.5-.2-.5-.5,0-.5.2-.6.6-.6h1.6v-.5c0-.4.3-.5.6-.5s.6,0,.6.5v.5h1.5c.2,0,.6,0,.6.6s0,.5-.5.5h-.4c0,.5-.2,1.2-.3,1.6h.6ZM100.6,12.2c0-.3.2-.8.3-1.6h-1.5c0,.4.1.6.3,1.6h1ZM107.1,13.4v5.8c0,.5-.2.6-.7.6s-.6-.4-.6-.6v-5.8h-1.5v.8c0,.2,0,.9,0,1.5-.1,1-.5,2.3-.9,3.2-.4.6-.5.7-.8.7s-.7-.3-.7-.6,0-.3.2-.5c1-1.4,1.2-3.2,1.2-4.4v-3.5c0-.7,0-1.1.5-1.3.2,0,1.8-.2,2.2-.3.3,0,1.6-.3,1.7-.3.3,0,.6.3.6.7s0,.5-.5.6c-.8.2-2,.3-2.4.4-.9,0-.9.1-.9.7v1.1h3.5c.5,0,.6.2.6.6s-.4.6-.6.6h-.7Z"/>
        <path class="st19" d="M112.1,11c0,0-.3,2.7-1.2,4.7-.2.5-.6,1.3-.9,1.5,0,0-.2.1-.4.1-.4,0-.8-.4-.8-.7s0-.3.3-.7c1-1.5,1.3-2.6,1.7-4.9,0-.5.2-.6.7-.6s.7,0,.7.6ZM115.1,18.3c0,1.4-.7,1.4-2.3,1.4s-.9,0-1.2,0c-.4,0-.5-.4-.5-.7,0-.6.5-.6.7-.6s1,0,1.1,0c.4,0,.7,0,.7-.6v-8.6c0-.2,0-.6.6-.6s.7.2.7.6v9.1ZM118.1,11.1c.3,2,.8,3.4,1.4,4.3,0,.1.5.7.6.9,0,.1,0,.2,0,.3,0,.5-.5.7-.8.7s-.6-.2-1-1c-1.2-2.1-1.7-5.2-1.7-5.4,0-.4.4-.6.7-.6.5,0,.6.2.7.7Z"/>
        <path class="st19" d="M130.1,15.1c.9,0,1.3.3,1.3,1.3v1.8c0,1-.4,1.3-1.3,1.3h-5.6c-1,0-1.3-.4-1.3-1.3v-1.2c-.5.4-1.1.9-1.4.9s-.7-.4-.7-.8.2-.4.3-.5c.7-.4,1.3-.9,2.1-1.7.3-.4.5-.7.8-1.2h-2.6c-.2,0-.6,0-.6-.6s.3-.6.6-.6h10c.2,0,.6,0,.6.6s-.4.6-.6.6h-5.9c-.3.5-.5.9-.8,1.3h5.1ZM130,10.7c.3,0,.5-.2.5-.5v-.8c0-.2,0-.6.6-.6s.7.1.7.6v1c0,1-.4,1.3-1.3,1.3h-7.2c-.9,0-1.3-.3-1.3-1.3v-1c0-.2,0-.6.6-.6s.6.1.6.6v.8c0,.3.1.5.5.5h2.6v-1.6c0-.2,0-.5.6-.5s.7.1.7.5v1.6h2.6ZM130.2,16.7c0-.3-.1-.5-.5-.5h-4.7c-.3,0-.5.2-.5.5v1.2c0,.4.2.5.5.5h4.7c.3,0,.5-.1.5-.5v-1.2Z"/>
        <path class="st19" d="M137.7,15.1c-.3,0-.4,0-.5-.2,0,.1,0,.4,0,.6,0,1.7-1,1.7-1.5,1.7s-.8,0-.8-.7.3-.6.6-.6c.3,0,.5,0,.5-.8s-.2-1.2-.6-1.9c-.3-.5-.3-.5-.3-.7,0-.3.8-2.1.8-2.5s-.2-.2-.3-.2h-.6c-.2,0-.3.1-.3.3v8.9c0,.4-.2.6-.6.6s-.6-.5-.6-.6v-9.1c0-1,.3-1.2,1.2-1.2h1c.7,0,1.3,0,1.3.9s-.1,1-.3,1.4c0,.3-.6,1.5-.6,1.6s0,.1.2.4c.5.7.6,1.1.7,1.4,0-.5.4-.5.6-.5h6.2c.2,0,.6,0,.6.6s-.5.6-.6.6h-1.8v3c0,.4.2.4.6.4s.6,0,.7-.6c0-.8,0-.9.5-.9s.6.4.6.6,0,1.4-.4,1.9c-.2.3-.6.3-1.4.3-1.3,0-1.7,0-1.7-1.2v-3.3h-1c0,1.3-.2,2.4-.9,3.3-.7.9-1.7,1.3-2.1,1.3s-.6-.4-.6-.7.2-.4.5-.5c1.5-.7,1.9-1.3,1.9-3.4h-1.2ZM138.8,13c-.1,0-.6,0-.6-.5s0-.2,0-.3c-.1.1-.3.2-.4.2-.6,0-.6-.4-.6-.6v-.9c0-.9.4-1.2,1.2-1.2h1.7v-.6c0-.1,0-.5.6-.5s.6.2.6.5v.6h1.7c.8,0,1.2.3,1.2,1.2v.9c0,.2,0,.6-.6.6s-.3,0-.4,0c0,0,.1.7-.5.7h-3.9ZM142.7,11.9c.2,0,.2,0,.3,0,0,0,0-.1,0-.2v-.6c0-.2-.1-.3-.3-.3h-4c-.2,0-.3,0-.3.3v.6c0,.1,0,.2,0,.3,0,0,.1-.1.4-.1h3.9Z"/>
      </g>
      <g>
        <path class="st19" d="M105.1,30.8c.2,0,.4,0,.5.1.2.1.3.3.3.7s0,1.7-.3,2.2c-.2.4-.6.4-1.4.4s-.8,0-.8-.5.3-.4.4-.4.4,0,.5,0c.4,0,.5,0,.5-.5,0-.3,0-1,0-1.1,0,0,0-.3-.3-.3h-4.6c0,.1-.2.2-.4.4v.4c.3,0,1.3-.1,2-.3.2,0,1-.2,1.1-.2.3,0,.3.3.3.4,0,.2,0,.3-.7.4-.5.1-1.6.3-2.7.4,0,.4,0,.4.9.4s1.7,0,1.8,0c.2,0,.2,0,.3-.4,0,0,0-.2.4-.2s.5,0,.5.4-.1.7-.4.9c-.2,0-.2.1-2,.1s-1.6,0-1.8,0c-.5,0-.5-.5-.5-.9v-.6c-.4.2-.5.3-.6.3-.3,0-.4-.3-.4-.5,0-.3.2-.4.7-.6.3-.1.9-.5,1.3-1.2h-.2c-.7,0-.9-.2-.9-.9v-.9c0-.7.2-.9.9-.9h.5c-.1,0-.1-.1-.1-.3v-.2h-1.7c-.2,0-.5,0-.5-.4s.2-.4.5-.4h1.7v-.2c0,0,0-.4.4-.4s.5.1.5.4v.2h2.2v-.2c0-.1,0-.4.4-.4s.5.1.5.4v.2h1.8c.1,0,.5,0,.5.4s-.2.4-.5.4h-1.8v.2c0,.2,0,.2-.2.3h.5c.7,0,.9.2.9.9v.9c0,.8-.2.9-.9.9h-3.5c-.1.2-.1.2-.2.3h4.4ZM104.3,28.8v-.2c0-.1,0-.3-.2-.3h-4.2c-.2,0-.2.1-.2.3v.2h4.7ZM99.6,29.4v.2c0,.2,0,.3.2.3h4.2c.2,0,.2,0,.2-.3v-.2h-4.7ZM103.1,27.2h-2.2v.2c0,.2,0,.2-.1.3h2.5c0,0-.1,0-.1-.3v-.2Z"/>
        <path class="st19" d="M109,26.9c-.4.5-.8,1-1.2,1.4-.3.3-.4.3-.6.3-.3,0-.5-.3-.5-.5s.1-.3.3-.4c.7-.5,1-.9,1.4-1.4.2-.2.3-.4.7-.4s.4,0,.8.5c.3.3.4.4.8.7.1.1.2.2.2.3,0,.3-.2.5-.5.5s-.2,0-.6-.5c-.2-.2-.4-.5-.5-.5,0,0,0-.1-.1-.1s0,0-.1.1ZM107.5,29.3c0-.7.1-.9.9-.9h.3v-.4c0,0,0-.5.4-.5s.4.2.4.5v.4h.3c.7,0,.7.5.7.9v1.4c0,.7-.2.9-.8.9h-1.4v1.4c.2,0,.3,0,.5-.1.1,0,.6-.2.7-.2-.2-.4-.2-.5-.2-.5,0-.2.2-.4.5-.4s.3.1.5.5c0,0,.5,1,.5,1.3s-.2.4-.5.4-.3-.1-.4-.2c0,0-.1-.3-.2-.4-.3,0-2.2.7-2.5.7s-.4-.2-.4-.5.2-.4.6-.4v-3.9ZM108.3,29.7h1.5v-.3c0-.2,0-.3-.3-.3h-1c-.2,0-.3,0-.3.3v.3ZM109.8,30.4h-1.5v.6h1.2c.2,0,.3,0,.3-.3v-.3ZM114.9,26.8c.1,0,.5,0,.5.4s-.3.4-.5.4h-1.5v1.1h.7c.7,0,.9.2.9.9v3c0,.8-.5.8-1,.8s-.5,0-.5-.5.2-.4.4-.4c.2,0,.3,0,.3-.2v-2.5c0-.2,0-.3-.3-.3h-.6v4.3c0,.1,0,.4-.4.4s-.4-.3-.4-.4v-4.3h-.6c-.2,0-.3,0-.3.3v3.2c0,.1,0,.4-.4.4s-.4-.1-.4-.4v-3.4c0-.7.2-.9.9-.9h.6v-1.1h-.8c-.5.9-.6.9-.8.9-.2,0-.5-.2-.5-.4s0-.2.3-.6c.3-.4.6-1.1.6-1.4,0-.2.2-.4.4-.4s.5,0,.5.4,0,.3-.2.6h2.7Z"/>
        <path class="st19" d="M124,26.2c.1,0,.5,0,.5.5s-.3.5-.5.5h-6.1c-.3,0-.5.2-.5.5v5.2c0,.2,0,.5.5.5h6.2c.2,0,.5,0,.5.4s-.3.5-.5.5h-6.5c-.8,0-1.2-.3-1.2-1.2v-5.5c0-.9.4-1.2,1.2-1.2h6.3ZM122.3,27.7c0-.1.2-.3.4-.3s.6.2.6.5-.7,1.3-1.3,2.1c0,0,.9.7,1.5,1.2.4.4.5.4.5.6,0,.3-.3.6-.6.6s-.3,0-.4-.2c-.5-.5-1.1-1-1.6-1.5-.5.6-1.3,1.3-2.1,1.8-.5.3-.5.3-.6.3-.4,0-.5-.3-.5-.5s.1-.3.2-.4c.8-.5.9-.5,1.5-1,.4-.3.7-.6.8-.7-.6-.4-1.2-.8-1.9-1.2-.3-.2-.4-.2-.4-.4s.2-.5.5-.5.2,0,.5.2c.1,0,1.2.7,1.9,1.2.5-.6.7-1,1.1-1.7Z"/>
        <path class="st19" d="M127.4,34c-.3,0-.4-.2-.6-.4-.4-.6-.8-1-1.3-1.5,0,0-.2-.2-.2-.4s.3-.5.6-.5.3,0,1.4,1.2c.3.3.7.8.7,1s-.3.6-.6.6Z"/>
        <path class="st19" d="M132.2,33c.3-.4.8-1.3,1.1-1.9,0-.2.1-.4.4-.4s.5,0,.5.4-.3.8-.5,1.2c-.5.9-.7,1.2-1,1.7,0,.1-.2.2-.4.2s-.5-.2-.5-.5,0-.2.4-.8ZM133.3,29.9c-.1,0-.2,0-.7-.3-.1,0-.7-.4-.8-.5-.1,0-.2-.2-.2-.3,0-.3.2-.5.4-.5s.2,0,1,.5c.4.3.5.4.6.5,0,.2-.1.6-.5.6ZM133.9,27.6c-.1,0-.2,0-.5-.2,0,0-.6-.4-.8-.5-.2,0-.3-.2-.3-.4s.2-.5.4-.5.4.1.9.4c.6.4.7.5.7.6,0,.2-.2.5-.4.5ZM137.6,33h2.1c.2,0,.5,0,.5.4s-.1.5-.5.5h-5.4c-.1,0-.5,0-.5-.4s.1-.5.5-.5h2.4v-5.6h-1.7c-.1,0-.5,0-.5-.4s.2-.5.5-.5h4.5c.2,0,.5,0,.5.4s-.1.5-.5.5h-1.9v5.6Z"/>
        <path class="st19" d="M141.9,29c0-.8.3-1.1,1.1-1.1h4.9c.7,0,1.1.2,1.1,1.1v1.4c0,.8-.3,1-1,1h-5c0,1.3-.5,2.2-.6,2.5-.3.4-.4.5-.5.5-.3,0-.6-.2-.6-.5s0-.2.1-.4c.2-.3.5-.8.6-1.5,0-.4.1-1,.1-1.1v-1.9ZM149.1,26.2c.1,0,.5,0,.5.4s-.3.5-.5.5h-7.6c0,0-.4,0-.4-.4s.2-.5.4-.5h7.6ZM142.8,30.5h4.7c.3,0,.4-.1.4-.4v-.9c0-.2-.1-.4-.4-.4h-4.3c-.3,0-.4.1-.4.4v1.3Z"/>
        <path class="st19" d="M151.9,29.7c0,2-.4,3.3-.7,3.9-.3.6-.5.7-.7.7s-.6-.2-.6-.5,0-.3.2-.5c.2-.3.5-.8.6-1.9,0-.6,0-1.3,0-1.6v-3.2c0-.2,0-.5.5-.5s.5.1.5.5v3.2ZM154.8,33.3c0,.2,0,.5-.5.5s-.5-.1-.5-.5v-6.6c0-.2,0-.5.5-.5s.5.1.5.5v6.6ZM157.9,33.9c0,.2,0,.5-.5.5s-.5-.1-.5-.5v-7.4c0-.2,0-.5.5-.5s.5.1.5.5v7.4Z"/>
        <path class="st19" d="M167,26.2c.1,0,.5,0,.5.5s-.3.5-.5.5h-6.1c-.3,0-.5.2-.5.5v5.2c0,.2,0,.5.5.5h6.2c.2,0,.5,0,.5.4s-.3.5-.5.5h-6.5c-.8,0-1.2-.3-1.2-1.2v-5.5c0-.9.4-1.2,1.2-1.2h6.3ZM165.3,27.7c0-.1.2-.3.4-.3s.6.2.6.5-.7,1.3-1.3,2.1c0,0,.9.7,1.5,1.2.4.4.5.4.5.6,0,.3-.3.6-.6.6s-.3,0-.4-.2c-.5-.5-1.1-1-1.6-1.5-.5.6-1.3,1.3-2.1,1.8-.5.3-.5.3-.6.3-.4,0-.5-.3-.5-.5s.1-.3.2-.4c.8-.5.9-.5,1.5-1,.4-.3.7-.6.8-.7-.6-.4-1.2-.8-1.9-1.2-.3-.2-.4-.2-.4-.4s.2-.5.5-.5.2,0,.5.2c.1,0,1.2.7,1.9,1.2.5-.6.7-1,1.1-1.7Z"/>
      </g>
    </g>
  </g>
  <g>
    <rect class="st5" x="91.4" y="148.9" width="82.2" height="40.8"/>
    <g>
      <g>
        <path class="st19" d="M105.1,164.7c.2,0,.6,0,.6.6s-.3.6-.6.6h-1.7v1.5c0,.2,0,.6-.6.6s-.7-.2-.7-.6v-1.5h-1.8c-.2,0-.6,0-.6-.6s.3-.6.6-.6h1.8v-3.6c-.9,2.1-2.2,3.4-2.9,4.1-.4.4-.8.7-1,.8-.1,0-.2,0-.3,0-.4,0-.7-.4-.7-.7s.2-.5.4-.6c1.4-1,2.7-2.1,3.9-4.8h-3.7c-.2,0-.6,0-.6-.6s.4-.6.6-.6h4.4v-1.5c0-.2,0-.6.6-.6s.7.1.7.6v1.5h4.4c.2,0,.6,0,.6.6s-.2.6-.6.6h-3.8c1,2.2,2.7,3.8,3.2,4.1.1,0,1,.8,1.1.8,0,0,.1.2.1.4,0,.4-.3.8-.7.8s-.3,0-1-.6c-2-1.8-2.8-3.4-3.3-4.4v3.6h1.7Z"/>
        <path class="st19" d="M113.4,157.6c0,.3-.2,3-.7,5.2-.5,2.1-1.5,3.6-2.3,4.6-.3.3-.5.4-.7.4-.4,0-.8-.4-.8-.7s.1-.4.3-.6c1.6-1.8,2.3-3.6,2.7-7.2,0-.3.1-1.8.1-1.9,0-.3.3-.4.6-.4.6,0,.6.4.6.6ZM117.2,157.8c.3,4.7.9,6.3,2.7,8.6.2.2.3.4.3.7,0,.4-.4.7-.8.7s-.6-.2-1.3-1.3c-1.4-2.1-1.8-4.2-2-5.8-.2-1.5-.3-2.8-.3-3.1s0-.6.6-.6.7.2.7.8Z"/>
        <path class="st19" d="M123.6,167.5c0,.2,0,.6-.5.6s-.5-.4-.5-.6v-7.7h-.3c-.2,0-.3.1-.3.3v5.2c0,.1,0,.5-.5.5s-.5-.3-.5-.5v-5.4c0-.9.2-1.2,1.2-1.2h.3v-1.5c0-.1,0-.6.5-.6s.6.2.6.6v1.5h.4c1,0,1.1.5,1.1,1.2v4.7c0,.5,0,.9-.8.9s-.6,0-.6-.7.2-.6.4-.6.2-.1.2-.3v-4c0-.2,0-.3-.3-.3h-.4v7.7ZM130.2,163.1c1,0,1.3.2,1.3,1.3v2.2c0,1-.2,1.3-1.3,1.3h-3.3c-1,0-1.3-.3-1.3-1.3v-2.2c0-1,.2-1.3,1.3-1.3h1v-1.8c-.8,1-2,2-2.4,2s-.5-.4-.5-.6.2-.3.4-.5c.7-.4,1.3-.9,1.9-1.5h-1.6c-.1,0-.5,0-.5-.5s.1-.5.5-.5h.7c0-.1-.3-.8-.3-.9,0-.2.2-.3.3-.3-.2,0-.4,0-.5,0-.3,0-.6,0-.6-.5s.3-.5.6-.5c2.5-.1,3.1-.2,4.7-.5.2,0,.3,0,.4,0,.4,0,.5.3.5.5,0,.3-.2.4-.4.5-.6.1-1.2.2-2,.3v1.4h.6c.3-.6.4-.8.5-1.2,0-.2.2-.4.5-.4s.6.1.6.4,0,.4-.4,1.1h.8c.2,0,.4.1.4.5s-.2.5-.5.5h-1.8c.2.2.8.9,1.5,1.3.7.4.8.5.8.7s-.2.6-.5.6-.7-.3-1-.6c-.8-.6-1.1-1-1.5-1.5v1.8h1.1ZM127.9,158.2c-.4,0-.9,0-1.3,0,.2,0,.2,0,.3.3.1.3.3.7.4,1h.6v-1.3ZM126.7,165h1.3v-1h-.9c-.2,0-.3.1-.3.3v.6ZM127.9,166.8v-1h-1.3v.7c0,.2.1.3.3.3h.9ZM130.3,165v-.6c0-.2,0-.3-.3-.3h-1v1h1.3ZM130.3,165.8h-1.3v1h1c.2,0,.3-.1.3-.3v-.7Z"/>
        <path class="st19" d="M137.4,163.4c-.3,0-.4,0-.5-.2,0,.1,0,.4,0,.6,0,1.7-1,1.7-1.5,1.7s-.8,0-.8-.7.3-.6.6-.6c.3,0,.5,0,.5-.8s-.2-1.2-.6-1.9c-.3-.5-.3-.5-.3-.7,0-.3.8-2.1.8-2.5s-.2-.2-.3-.2h-.6c-.2,0-.3.1-.3.3v8.9c0,.4-.2.6-.6.6s-.6-.5-.6-.6v-9.1c0-1,.3-1.2,1.2-1.2h1c.7,0,1.3,0,1.3.9s-.1,1-.3,1.4c0,.3-.6,1.5-.6,1.6s0,.1.2.4c.5.7.6,1.1.7,1.4,0-.5.4-.5.6-.5h6.2c.2,0,.6,0,.6.6s-.5.6-.6.6h-1.8v3c0,.4.2.4.6.4s.6,0,.7-.6c0-.8,0-.9.5-.9s.6.4.6.6,0,1.4-.4,1.9c-.2.3-.6.3-1.4.3-1.3,0-1.7,0-1.7-1.2v-3.3h-1c0,1.3-.2,2.4-.9,3.3-.7.9-1.7,1.3-2.1,1.3s-.6-.4-.6-.7.2-.4.5-.5c1.5-.7,1.9-1.3,1.9-3.4h-1.2ZM138.5,161.2c-.1,0-.6,0-.6-.5s0-.2,0-.3c-.1.1-.3.2-.4.2-.6,0-.6-.4-.6-.6v-.9c0-.9.4-1.2,1.2-1.2h1.7v-.6c0-.1,0-.5.6-.5s.6.2.6.5v.6h1.7c.8,0,1.2.3,1.2,1.2v.9c0,.2,0,.6-.6.6s-.3,0-.4,0c0,0,.1.7-.5.7h-3.9ZM142.5,160.1c.2,0,.2,0,.3,0,0,0,0-.1,0-.2v-.6c0-.2-.1-.3-.3-.3h-4c-.2,0-.3,0-.3.3v.6c0,.1,0,.2,0,.3,0,0,.1-.1.4-.1h3.9Z"/>
      </g>
      <g>
        <path class="st19" d="M102.2,182.1c0,.2,0,.5-.5.5s-.5-.1-.5-.5v-4.3h-1.6c-.2,0-.4,0-.4.4v3.3c0,.2,0,.5-.5.5s-.5-.2-.5-.5v-3.5c0-.8.4-1.1,1.1-1.1h1.9v-.9h-3.3c-.1,0-.5,0-.5-.5s.2-.5.5-.5h3.3v-.6c0-.3.1-.4.5-.4s.5,0,.5.4v.6h3.3c.1,0,.4,0,.4.4s-.1.5-.4.5h-3.3v.9h2c.7,0,1.1.2,1.1,1.1v2.8c0,1-.6,1-1.4,1s-1,0-1-.5.3-.4.6-.4h.5c.2,0,.3-.2.3-.4v-2.3c0-.3-.1-.4-.4-.4h-1.7v4.3Z"/>
        <path class="st19" d="M108.3,177.9c0,2-.4,3.3-.7,3.9-.3.6-.5.7-.7.7s-.6-.2-.6-.5,0-.3.2-.5c.2-.3.5-.8.6-1.9,0-.6,0-1.3,0-1.6v-3.2c0-.2,0-.5.5-.5s.5.1.5.5v3.2ZM111.2,181.5c0,.2,0,.5-.5.5s-.5-.1-.5-.5v-6.6c0-.2,0-.5.5-.5s.5.1.5.5v6.6ZM114.4,182.1c0,.2,0,.5-.5.5s-.5-.1-.5-.5v-7.4c0-.2,0-.5.5-.5s.5.1.5.5v7.4Z"/>
        <path class="st19" d="M120.2,182.1c0,.2,0,.5-.5.5s-.5-.1-.5-.5v-4.3h-1.6c-.2,0-.4,0-.4.4v3.3c0,.2,0,.5-.5.5s-.5-.2-.5-.5v-3.5c0-.8.4-1.1,1.1-1.1h1.9v-.9h-3.3c-.1,0-.5,0-.5-.5s.2-.5.5-.5h3.3v-.6c0-.3.1-.4.5-.4s.5,0,.5.4v.6h3.3c.1,0,.4,0,.4.4s-.1.5-.4.5h-3.3v.9h2c.7,0,1.1.2,1.1,1.1v2.8c0,1-.6,1-1.4,1s-1,0-1-.5.3-.4.6-.4h.5c.2,0,.3-.2.3-.4v-2.3c0-.3-.1-.4-.4-.4h-1.7v4.3Z"/>
        <path class="st19" d="M126.7,182.2c-.3,0-.4-.2-.6-.4-.4-.6-.8-1-1.3-1.5,0,0-.2-.2-.2-.4s.3-.5.6-.5.3,0,1.4,1.2c.3.3.7.8.7,1s-.3.6-.6.6Z"/>
        <path class="st19" d="M132.4,177c.6.4.6.5.6.7,0,.3-.2.5-.5.5s-.2,0-.5-.3c-.1,0-.7-.5-.8-.5,0,0-.2-.2-.2-.3s.2-.5.4-.5.6.2.9.4ZM131.5,181.2c.3-.5.7-1.3,1-2,0-.2.2-.3.4-.3s.5.1.5.4-.5,1.3-.6,1.6c-.4.9-.7,1.3-.8,1.3,0,0-.2.1-.3.1-.3,0-.5-.2-.5-.4s0-.2.4-.8ZM132.7,174.7c.6.4.6.5.6.6,0,.3-.2.5-.5.5s-.2,0-.5-.3c-.1,0-.6-.4-.7-.5,0,0-.2-.2-.2-.4,0-.3.2-.5.5-.5s.3,0,.9.5ZM139,175.1c.3,0,.5.1.5.4s-.1.4-.5.4h-2.2v.6h1.4c.6,0,.9.2.9.9v4.1c0,.9-.3.9-1.2.9s-.8,0-.8-.5.3-.4.7-.4.4,0,.4-.3v-.9h-1.4v1.6c0,.2,0,.5-.4.5s-.5-.1-.5-.5v-1.6h-1.3v1.7c0,.1,0,.5-.4.5s-.5,0-.5-.5v-4.7c0-.7.3-.9.9-.9h1.3v-.6h-2c-.1,0-.5,0-.5-.4s.1-.4.5-.4h2v-.6c0-.1,0-.4.5-.4s.5.2.5.4v.6h1.4s-.5-.3-.6-.4c0,0-.2-.1-.2-.2s.2-.4.4-.4.6.2.6.3c.3.2.4.3.4.5s0,.2-.1.3h.2ZM135.9,178.2v-.8h-1.1c-.2,0-.3.1-.3.3v.6h1.3ZM135.9,178.9h-1.3v.9h1.3v-.9ZM136.8,178.2h1.4v-.6c0-.2,0-.3-.3-.3h-1.1v.8ZM138.2,178.9h-1.4v.9h1.4v-.9Z"/>
        <path class="st19" d="M140.7,178.2c-.1,0-.5,0-.5-.4s.2-.4.5-.4h2.1c0-.2.4-.9.5-1,0-.1.1-.3.4-.3s.6.2.6.4-.2.6-.3.9h4.3c.1,0,.5,0,.5.4s-.3.4-.5.4h-1c-.3.8-.7,1.6-1.3,2.3.9.4,1,.4,1.9,1,.2.1.4.2.4.5,0,.4-.3.6-.5.6s-.2,0-.5-.2c-.8-.5-1.1-.7-2-1.1-.2.2-1,.7-2.2,1-1,.2-1.7.3-1.9.3s-.5,0-.5-.5.3-.5.5-.5c.5,0,1.8-.1,3-.8-.8-.3-1-.3-1.7-.6-.4-.1-.7-.2-.7-.6s0-.4.2-.6c.3-.5.4-.6.5-.8h-1.6ZM147.4,174.9c.7,0,1,.2,1,1v.6c0,.2,0,.5-.5.5s-.5,0-.5-.5v-.5c0-.2,0-.3-.3-.3h-5.4c-.2,0-.3.1-.3.3v.5c0,.1,0,.5-.5.5s-.5-.1-.5-.5v-.7c0-.8.3-1,1-1h2.5v-.4c0-.3.1-.4.4-.4s.5,0,.5.4v.4h2.5ZM143.4,178.2c-.2.3-.3.5-.5.8,0,.1-.1.2-.1.3,0,.2.1.2.3.2,1,.3,1.7.5,1.8.6.4-.4.8-.9,1.2-1.9h-2.7Z"/>
        <path class="st19" d="M154.2,182.1c0,.2,0,.5-.5.5s-.5-.1-.5-.5v-4.3h-1.6c-.2,0-.4,0-.4.4v3.3c0,.2,0,.5-.5.5s-.5-.2-.5-.5v-3.5c0-.8.4-1.1,1.1-1.1h1.9v-.9h-3.3c-.1,0-.5,0-.5-.5s.2-.5.5-.5h3.3v-.6c0-.3.1-.4.5-.4s.5,0,.5.4v.6h3.3c.1,0,.4,0,.4.4s-.1.5-.4.5h-3.3v.9h2c.7,0,1.1.2,1.1,1.1v2.8c0,1-.6,1-1.4,1s-1,0-1-.5.3-.4.6-.4h.5c.2,0,.3-.2.3-.4v-2.3c0-.3-.1-.4-.4-.4h-1.7v4.3Z"/>
      </g>
    </g>
  </g>
  <g>
    <rect class="st8" x=".7" y="135.6" width="82.2" height="54.1"/>
    <g>
      <g>
        <path class="st19" d="M10.7,147c0,.5-.3.5-.5.5h-.6v1.1h1.1c.2,0,.5,0,.5.5s-.2.5-.5.5h-1.1v3.3c.2,0,1-.2,1.1-.2s.5,0,.5.5-.2.5-.7.6c-.7.2-3,.6-3.4.6s-.5-.4-.5-.6,0-.4.3-.5c.1,0,1.4-.2,1.7-.2v-3.4h-1.4c-.2,0-.6,0-.6-.5s.3-.5.6-.5h1.4v-1.1h-.8c-.3,0-.6,0-.5-.7,0,0-.1.1-.3.1-.3,0-.6-.3-.6-.7s0-.3.6-.9c.5-.5.8-.9,1.3-1.6.1-.2.3-.4.7-.4s.5.1,1.1.8c.2.3.6.7.9.9.2.2.4.4.4.7s-.2.6-.6.6-.4-.2-.8-.6c-.4-.4-.4-.5-.8-1,0,0-.1-.2-.2-.2s0,0-.2.2c-.5.8-.9,1.2-1.3,1.5h2.5c.2,0,.5,0,.5.5ZM7.8,150.6c0,.2.2,1.2.2,1.6s-.5.5-.5.5c-.4,0-.4-.4-.5-.7,0-.2-.2-1.4-.2-1.5,0-.3.3-.4.6-.4s.3.2.4.4ZM11,150.5c0,.2-.1.8-.2,1.4,0,.4-.2.6-.4.6s-.2,0-.4-.1c0,0-.1-.2-.1-.3s.2-1.1.2-1.3c0-.4,0-.6.4-.6s.5.1.5.4ZM13.7,148.8h-1c-.8,0-1.2-.2-1.2-1.2v-2c0-.9.4-1.2,1.2-1.2h.5c0-.1.2-.6.3-.7.1-.2.4-.2.5-.2.4,0,.6.2.6.4s-.1.4-.2.6h1.4c.8,0,1.2.3,1.2,1.2v2c0,.9-.4,1.2-1.2,1.2h-1v.8h1.3c.9,0,1.2.3,1.2,1.2v2.1c0,.9-.3,1.1-1.1,1.1s-.4,0-.6,0c-.5,0-.5-.5-.5-.6,0-.5.3-.5.6-.5s.5,0,.5-.3v-1.5c0-.3-.1-.4-.4-.4h-1v3.5c0,.4-.2.6-.6.6s-.5-.5-.5-.6v-3.5h-.9c-.2,0-.4,0-.4.4v2.4c0,.2,0,.6-.6.6s-.5-.5-.5-.6v-2.7c0-.9.3-1.2,1.2-1.2h1.2v-.8ZM12.7,146.1h3.3v-.5c0-.1,0-.3-.3-.3h-2.6c-.2,0-.3.1-.3.3v.5ZM12.7,147v.5c0,.2.1.3.3.3h2.6c.3,0,.3-.2.3-.3v-.5h-3.3Z"/>
        <path class="st19" d="M19,150c-.1,0-.6,0-.6-.6s.4-.5.5-.6c.2,0,2.4,0,2.9,0,.3-.3.5-.4.7-.7-.7-.6-1.3-1.1-2.1-1.6-.8-.5-.9-.6-.9-.9s.3-.7.6-.7.8.4,1.1.5c.3-.3.9-1.1,1.1-1.3.5-.7.5-.7.8-.7s.7.3.7.6,0,.4-.5.9c-.5.6-.8,1-1.1,1.3.5.3.8.6,1.2,1,.8-.9,1.8-1.9,2.4-2.7.2-.2.3-.4.6-.4s.7.3.7.6,0,.3-.5.8c-1,1.1-2.1,2.2-3.2,3.2,2,0,2.2,0,3.9-.1-.1-.2-.7-.9-.8-1.1-.1-.2-.2-.3-.2-.4,0-.3.4-.6.6-.6s.4,0,1,.9c.5.6,1.6,2.1,1.6,2.5s-.3.6-.7.6-.4,0-.9-.9c-1.1,0-2.2.1-3.3.2v4.3c0,.4-.1.6-.7.6s-.6-.5-.6-.6v-4.2c-.3,0-4.2.1-4.4.1ZM22,151.1c0,.4-1.1,1.8-1.3,2-.3.4-.9,1.1-1.3,1.1s-.7-.3-.7-.7,0-.3.6-.8c.7-.7,1-1.1,1.5-1.8.2-.3.3-.4.6-.4s.7.3.7.6ZM27.2,150.7c.9,1.3,1,1.4,2,2.3.2.2.2.3.2.5,0,.4-.3.7-.7.7s-.4,0-1.4-1.2c-.4-.5-.9-1.1-1.2-1.6-.1-.2-.1-.3-.1-.4,0-.4.5-.6.7-.6s.3,0,.5.3Z"/>
        <path class="st19" d="M36.3,152.3c0,.9-.4,1.2-1.2,1.2h-3.1c-.8,0-1.2-.3-1.2-1.2v-7.2c0-.9.4-1.2,1.2-1.2h3.1c.8,0,1.2.3,1.2,1.2v7.2ZM33.1,148.1v-3.1h-.7c-.3,0-.3.2-.3.3v2.8h1ZM33.1,149.2h-1v2.8c0,.2,0,.3.3.3h.7v-3.1ZM34.2,148.1h1.1v-2.8c0-.2-.1-.3-.3-.3h-.7v3.1ZM34.2,149.2v3.1h.7c.2,0,.3-.1.3-.3v-2.8h-1.1ZM37,145.6c-.2,0-.6,0-.6-.6s.4-.6.6-.6h4.1c.2,0,.6,0,.6.6s-.3.6-.6.6h-.9v7.6c0,1.3-.7,1.3-1.8,1.3s-1.2,0-1.3,0c-.2,0-.3-.3-.3-.6,0-.6.4-.6.8-.6s.9,0,1.1,0c.3,0,.4-.3.4-.5v-7.1h-2Z"/>
        <path class="st19" d="M47,150.1c-.3,0-.4,0-.5-.2,0,.1,0,.4,0,.6,0,1.7-1,1.7-1.5,1.7s-.8,0-.8-.7.3-.6.6-.6c.3,0,.5,0,.5-.8s-.2-1.2-.6-1.9c-.3-.5-.3-.5-.3-.7,0-.3.8-2.1.8-2.5s-.2-.2-.3-.2h-.6c-.2,0-.3.1-.3.3v8.9c0,.4-.2.6-.6.6s-.6-.5-.6-.6v-9.1c0-1,.3-1.2,1.2-1.2h1c.7,0,1.3,0,1.3.9s-.1,1-.3,1.4c0,.3-.6,1.5-.6,1.6s0,.1.2.4c.5.7.6,1.1.7,1.4,0-.5.4-.5.6-.5h6.2c.2,0,.6,0,.6.6s-.5.6-.6.6h-1.8v3c0,.4.2.4.6.4s.6,0,.7-.6c0-.8,0-.9.5-.9s.6.4.6.6,0,1.4-.4,1.9c-.2.3-.6.3-1.4.3-1.3,0-1.7,0-1.7-1.2v-3.3h-1c0,1.3-.2,2.4-.9,3.3-.7.9-1.7,1.3-2.1,1.3s-.6-.4-.6-.7.2-.4.5-.5c1.5-.7,1.9-1.3,1.9-3.4h-1.2ZM48.1,147.9c-.1,0-.6,0-.6-.5s0-.2,0-.3c-.1.1-.3.2-.4.2-.6,0-.6-.4-.6-.6v-.9c0-.9.4-1.2,1.2-1.2h1.7v-.6c0-.1,0-.5.6-.5s.6.2.6.5v.6h1.7c.8,0,1.2.3,1.2,1.2v.9c0,.2,0,.6-.6.6s-.3,0-.4,0c0,0,.1.7-.5.7h-3.9ZM52,146.8c.2,0,.2,0,.3,0,0,0,0-.1,0-.2v-.6c0-.2-.1-.3-.3-.3h-4c-.2,0-.3,0-.3.3v.6c0,.1,0,.2,0,.3,0,0,.1-.1.4-.1h3.9Z"/>
      </g>
      <g>
        <path class="st19" d="M11.7,164.1h2.9c.1,0,.3,0,.3.3s-.1.3-.3.3h-2.9v.4h3.4c0,0,.4,0,.4.3s-.2.3-.4.3h-.7c.2.1.5.4.5.5.5.5.5.6.5.7,0,.2-.2.4-.4.4s-.3-.1-.5-.4c0-.1-.4-.4-.5-.6s-.2-.2-.2-.4.1-.3.2-.3h-1.4c.2.1.4.8.4.9,0,.3-.4.3-.4.3-.2,0-.3,0-.4-.3-.1-.3-.3-.6-.3-.7s0-.2.1-.2h-3.4c.2.1.2.2.2.4,0,.2-.3.6-.5.8-.2.2-.5.5-.7.5s-.4-.2-.4-.4,0-.2.4-.5c.3-.3.3-.3.6-.6,0,0,.1-.1.2-.2h-.9c-.2,0-.4,0-.4-.3s.2-.3.4-.3h3.4v-.4h-2.9c0,0-.3,0-.3-.3s0-.3.3-.3h2.9v-.4h-2.2c-.8,0-.9-.2-.9-.9v-.7c0-.7.2-.9.9-.9h5.2c.8,0,.9.2.9.9v.7c0,.7-.2.9-.9.9h-2.2v.4ZM14.3,167c.1,0,.4,0,.4.3s-.1.3-.4.3h-2.5v.6h3.3c.1,0,.4,0,.4.4s-.3.4-.4.4h-7.6c-.1,0-.4,0-.4-.4s.3-.4.4-.4h3.3v-.6h-2.5c-.1,0-.4,0-.4-.3s.2-.3.4-.3h2.5v-.4c0-.3.2-.4.4-.4s.5,0,.5.4v.4h2.5ZM10.8,161.7h-2c-.1,0-.2,0-.2.2v.2h2.2v-.4ZM10.8,163.1v-.4h-2.2v.2c0,.1,0,.2.2.2h2ZM10.5,165.9c0,0,0,.5,0,.7s0,.4-.5.4-.4-.1-.4-.9.2-.4.4-.4.4,0,.4.2ZM11.7,161.7v.4h2.2v-.2c0-.1,0-.2-.2-.2h-2ZM11.7,163.1h2c.1,0,.2,0,.2-.2v-.2h-2.2v.4Z"/>
        <path class="st19" d="M24.4,167.9c0,.9-.4,1.2-1.2,1.2h-5.3c-.8,0-1.2-.3-1.2-1.2v-5.5c0-.9.4-1.2,1.2-1.2h5.3c.8,0,1.2.3,1.2,1.2v5.5ZM20.1,164.6v-2.5h-2c-.4,0-.5.2-.5.5v2.1h2.4ZM20.1,165.5h-2.4v2.2c0,.3.1.5.5.5h2v-2.7ZM21,164.6h2.4v-2.1c0-.3,0-.5-.5-.5h-2v2.5ZM21,165.5v2.7h2c.4,0,.5-.2.5-.5v-2.2h-2.4Z"/>
        <path class="st19" d="M33.4,161.2c.1,0,.5,0,.5.5s-.3.5-.5.5h-6.1c-.3,0-.5.2-.5.5v5.2c0,.2,0,.5.5.5h6.2c.2,0,.5,0,.5.4s-.3.5-.5.5h-6.5c-.8,0-1.2-.3-1.2-1.2v-5.5c0-.9.4-1.2,1.2-1.2h6.3ZM31.7,162.7c0-.1.2-.3.4-.3s.6.2.6.5-.7,1.3-1.3,2.1c0,0,.9.7,1.5,1.2.4.4.5.4.5.6,0,.3-.3.6-.6.6s-.3,0-.4-.2c-.5-.5-1.1-1-1.6-1.5-.5.6-1.3,1.3-2.1,1.8-.5.3-.5.3-.6.3-.4,0-.5-.3-.5-.5s.1-.3.2-.4c.8-.5.9-.5,1.5-1,.4-.3.7-.6.8-.7-.6-.4-1.2-.8-1.9-1.2-.3-.2-.4-.2-.4-.4s.2-.5.5-.5.2,0,.5.2c.1,0,1.2.7,1.9,1.2.5-.6.7-1,1.1-1.7Z"/>
        <path class="st19" d="M36.8,168.9c-.3,0-.4-.2-.6-.4-.4-.6-.8-1-1.3-1.5,0,0-.2-.2-.2-.4s.3-.5.6-.5.3,0,1.4,1.2c.3.3.7.8.7,1s-.3.6-.6.6Z"/>
        <path class="st19" d="M41.6,167.9c.3-.4.8-1.3,1.1-1.9,0-.2.1-.4.4-.4s.5,0,.5.4-.3.8-.5,1.2c-.5.9-.7,1.2-1,1.7,0,.1-.2.2-.4.2s-.5-.2-.5-.5,0-.2.4-.8ZM42.8,164.9c-.1,0-.2,0-.7-.3-.1,0-.7-.4-.8-.5-.1,0-.2-.2-.2-.3,0-.3.2-.5.4-.5s.2,0,1,.5c.4.3.5.4.6.5,0,.2-.1.6-.5.6ZM43.3,162.6c-.1,0-.2,0-.5-.2,0,0-.6-.4-.8-.5-.2,0-.3-.2-.3-.4s.2-.5.4-.5.4.1.9.4c.6.4.7.5.7.6,0,.2-.2.5-.4.5ZM47.1,167.9h2.1c.2,0,.5,0,.5.4s-.1.5-.5.5h-5.4c-.1,0-.5,0-.5-.4s.1-.5.5-.5h2.4v-5.6h-1.7c-.1,0-.5,0-.5-.4s.2-.5.5-.5h4.5c.2,0,.5,0,.5.4s-.1.5-.5.5h-1.9v5.6Z"/>
        <path class="st19" d="M57.4,162.9c.6,0,.9.2.9.9v1.6c0,.7-.3.9-.9.9h-1.4c1,1,1.6,1.2,2.7,1.7.2,0,.3.2.3.4,0,.2-.2.6-.5.6s-2.2-1-3.2-2.3v2c0,.1,0,.5-.5.5s-.5-.1-.5-.5v-2c-.5.6-1.2,1.1-1.8,1.6-.2.1-1.1.6-1.3.6s-.5-.3-.5-.6,0-.3.3-.4c1-.4,1.7-.7,2.6-1.7h-1.4c-.6,0-.9-.2-.9-.9v-1.6c0-.7.3-.9.9-.9h2.2v-.5h-3.3c-.2,0-.5,0-.5-.4s0-.5.5-.5h3.3v-.4c0-.3.2-.4.4-.4s.5,0,.5.4v.4h3.3c.2,0,.5,0,.5.4s0,.5-.5.5h-3.3v.5h2.2ZM54.2,164.3v-.6h-2c-.2,0-.3.1-.3.3v.4h2.2ZM54.2,165h-2.2v.4c0,.1,0,.3.3.3h2v-.7ZM55.1,164.3h2.2v-.4c0-.1,0-.3-.2-.3h-2v.6ZM55.1,165v.7h2c.2,0,.2-.1.2-.3v-.4h-2.2Z"/>
        <path class="st19" d="M67.5,161.2c.1,0,.5,0,.5.5s-.3.5-.5.5h-6.1c-.3,0-.5.2-.5.5v5.2c0,.2,0,.5.5.5h6.2c.2,0,.5,0,.5.4s-.3.5-.5.5h-6.5c-.8,0-1.2-.3-1.2-1.2v-5.5c0-.9.4-1.2,1.2-1.2h6.3ZM65.7,162.7c0-.1.2-.3.4-.3s.6.2.6.5-.7,1.3-1.3,2.1c0,0,.9.7,1.5,1.2.4.4.5.4.5.6,0,.3-.3.6-.6.6s-.3,0-.4-.2c-.5-.5-1.1-1-1.6-1.5-.5.6-1.3,1.3-2.1,1.8-.5.3-.5.3-.6.3-.4,0-.5-.3-.5-.5s.1-.3.2-.4c.8-.5.9-.5,1.5-1,.4-.3.7-.6.8-.7-.6-.4-1.2-.8-1.9-1.2-.3-.2-.4-.2-.4-.4s.2-.5.5-.5.2,0,.5.2c.1,0,1.2.7,1.9,1.2.5-.6.7-1,1.1-1.7Z"/>
        <path class="st19" d="M70.9,168.9c-.3,0-.4-.2-.6-.4-.4-.6-.8-1-1.3-1.5,0,0-.2-.2-.2-.4s.3-.5.6-.5.3,0,1.4,1.2c.3.3.7.8.7,1s-.3.6-.6.6Z"/>
        <path class="st19" d="M9.7,175c.2-.5.3-.6.6-.6s.6.2.6.4-.2.5-.3.7c-.5.8-.6,1.1-1,1.5,2.1,0,2.4,0,3.9-.2-.3-.4-.4-.4-.9-.9,0,0-.1-.2-.1-.3,0-.2.3-.5.5-.5s.2,0,.4.2c.5.4.9.8,1.5,1.6.5.6.5.7.5.9,0,.3-.3.5-.6.5s-.2,0-.3-.1c0,0-.3-.5-.4-.6-.8,0-1.3.1-2.8.2-1.3,0-3.3.1-3.8.1s-.6,0-.6-.5.3-.5.5-.5.7,0,.9,0c.2-.3.6-.9,1.2-2.1ZM14.7,181.7c0,.8-.4,1.1-1.1,1.1h-4.6c-.7,0-1.1-.2-1.1-1.1v-1.9c0-.8.4-1.1,1.1-1.1h4.6c.7,0,1.1.2,1.1,1.1v1.9ZM13.7,180.1c0-.3-.1-.4-.4-.4h-4c-.2,0-.4.1-.4.4v1.5c0,.3.1.4.4.4h4c.2,0,.4-.1.4-.4v-1.5Z"/>
        <path class="st19" d="M23,176.6c.6,0,.9.2.9.9v1.6c0,.7-.3.9-.9.9h-1.4c1,1,1.6,1.2,2.7,1.7.2,0,.3.2.3.4,0,.2-.2.6-.5.6s-2.2-1-3.2-2.3v2c0,.1,0,.5-.5.5s-.5-.1-.5-.5v-2c-.5.6-1.2,1.1-1.8,1.6-.2.1-1.1.6-1.3.6s-.5-.3-.5-.6,0-.3.3-.4c1-.4,1.7-.7,2.6-1.7h-1.4c-.6,0-.9-.2-.9-.9v-1.6c0-.7.3-.9.9-.9h2.2v-.5h-3.3c-.2,0-.5,0-.5-.4s0-.5.5-.5h3.3v-.4c0-.3.2-.4.4-.4s.5,0,.5.4v.4h3.3c.2,0,.5,0,.5.4s0,.5-.5.5h-3.3v.5h2.2ZM19.8,178v-.6h-2c-.2,0-.3.1-.3.3v.4h2.2ZM19.8,178.7h-2.2v.4c0,.1,0,.3.3.3h2v-.7ZM20.7,178h2.2v-.4c0-.1,0-.3-.2-.3h-2v.6ZM20.7,178.7v.7h2c.2,0,.2-.1.2-.3v-.4h-2.2Z"/>
        <path class="st19" d="M33.1,174.9c.1,0,.5,0,.5.5s-.3.5-.5.5h-6.1c-.3,0-.5.2-.5.5v5.2c0,.2,0,.5.5.5h6.2c.2,0,.5,0,.5.4s-.3.5-.5.5h-6.5c-.8,0-1.2-.3-1.2-1.2v-5.5c0-.9.4-1.2,1.2-1.2h6.3ZM31.3,176.4c0-.1.2-.3.4-.3s.6.2.6.5-.7,1.3-1.3,2.1c0,0,.9.7,1.5,1.2.4.4.5.4.5.6,0,.3-.3.6-.6.6s-.3,0-.4-.2c-.5-.5-1.1-1-1.6-1.5-.5.6-1.3,1.3-2.1,1.8-.5.3-.5.3-.6.3-.4,0-.5-.3-.5-.5s.1-.3.2-.4c.8-.5.9-.5,1.5-1,.4-.3.7-.6.8-.7-.6-.4-1.2-.8-1.9-1.2-.3-.2-.4-.2-.4-.4s.2-.5.5-.5.2,0,.5.2c.1,0,1.2.7,1.9,1.2.5-.6.7-1,1.1-1.7Z"/>
      </g>
    </g>
  </g>
</svg>