<?xml version="1.0" encoding="UTF-8"?>
<svg xmlns="http://www.w3.org/2000/svg" xmlns:xlink="http://www.w3.org/1999/xlink" version="1.1" viewBox="0 0 589.6 589.6">
  <defs>
    <style>
      .cls-1 {
        fill: none;
      }

      .cls-2, .cls-3, .cls-4, .cls-5 {
        stroke-linejoin: round;
      }

      .cls-2, .cls-4, .cls-5 {
        stroke: #fff;
        stroke-width: 3.4px;
      }

      .cls-2, .cls-6 {
        fill: #ecac92;
      }

      .cls-7 {
        fill: #61c1be;
      }

      .cls-8 {
        fill: #6a5632;
      }

      .cls-9 {
        fill: #e798a2;
      }

      .cls-3 {
        stroke-width: .7px;
      }

      .cls-3, .cls-10 {
        fill: #309739;
        stroke: #c3d842;
      }

      .cls-11 {
        fill: #f0bd58;
      }

      .cls-12 {
        stroke: #f0bd58;
        stroke-width: 4px;
      }

      .cls-12, .cls-13, .cls-14, .cls-15, .cls-16 {
        fill: #fff;
      }

      .cls-12, .cls-13, .cls-10, .cls-15, .cls-16 {
        stroke-miterlimit: 10;
      }

      .cls-13 {
        stroke: #61c1be;
        stroke-width: 3.8px;
      }

      .cls-4 {
        stroke-linecap: round;
      }

      .cls-4, .cls-5, .cls-17 {
        fill: #c3bcb6;
      }

      .cls-10 {
        stroke-width: 1px;
      }

      .cls-18 {
        fill: #c3bdb6;
      }

      .cls-15 {
        stroke: #e798a2;
        stroke-width: 4px;
      }

      .cls-19 {
        opacity: .7;
      }

      .cls-16 {
        stroke: #ecac92;
        stroke-width: 3.7px;
      }

      .cls-20 {
        display: none;
      }

      .cls-21 {
        fill: #6c5833;
      }

      .cls-22 {
        clip-path: url(#clippath);
      }
    </style>
    <clipPath id="clippath">
      <rect class="cls-1" x="0" y="0" width="589.6" height="589.6"/>
    </clipPath>
  </defs>
  <!-- Generator: Adobe Illustrator 28.7.1, SVG Export Plug-In . SVG Version: 1.2.0 Build 142)  -->
  <g>
    <g id="_レイヤー_1" data-name="レイヤー_1">
      <g>
        <rect class="cls-14" x="0" y="0" width="589.6" height="589.6"/>
        <g class="cls-19">
          <g class="cls-22">
            <g>
              <path class="cls-18" d="M105.4,422.1c0,0,.1,0,.2,0,.5,0,1,.3,1.3.8l4.7,10.7,12.8,1.8c.4,0,.7.2.9.5l17.6,23.1,15.1,5.1v-18.9l-12.5-9.4c-.6-.4-.7-1.3-.3-1.9l8-11.5v-8.2c-9.4-8-13.1-11.3-14.5-12.7-2,1.3-7.8,5.6-12.9,9.6-.2.2-.5.3-.8.3s-.2,0-.3,0c-.4,0-.7-.3-.9-.7l-5.5-10.3-23.2,16.9.2,6.1,10.2-1.5Z"/>
              <path class="cls-18" d="M179.6,487.8c-.3,0-.6-.1-.8-.3l-21.3-16.5-10,12.4c-.2.2-.4.3-.6.4l-11.5,4.5,4.4,7c.3.4.3.9,0,1.3l-6.2,12.8,2.9,7.9,32.5,17.2,17.8,1.1-.7-1.9c0-.2-.1-.5,0-.7l6.9-45.3h-13.4Z"/>
              <path class="cls-18" d="M203.2,448.4l1.7-1.5-2.8-19.7h-13.5c-.4,0-.7-.2-1-.4l-17.3-17.9-14.6,15-7.4,10.6,12,9c.4.3.6.7.6,1.1v21.5c0,.3-.1.6-.3.9l-1.4,1.7,20.9,16.2h13.3l2.7-18c.1-.7.7-1.2,1.4-1.2h3.9l1.4-16.5c0-.3.2-.7.4-.9Z"/>
              <path class="cls-7" d="M284.1,364.3l11.1-6.4-24.5-32.2-7.6,7v16.7c0,.3,0,.5-.2.7l-25.6,42.4,21.6,7.6,19.5-23.6c.3-.3.7-.5,1.1-.5s.5,0,.7.2l5.1,2.9-1.7-13.3c0-.6.2-1.1.7-1.4Z"/>
              <path class="cls-9" d="M205.4,340.7l15.6,9,20.4-8.7c.2,0,.4-.1.5-.1s.3,0,.5,0l17.9,6.3v-14.4l-18.5-1c-.5,0-.9-.3-1.2-.7l-9.2-17.8-26.9-2.6-8.9,4.6,18.4,15.2c.3.3.5.6.5,1,0,.4-.1.8-.4,1.1l-8.7,8Z"/>
              <path class="cls-7" d="M242,343.8l-20.5,8.8c-.2,0-.4.1-.5.1s-.5,0-.7-.2l-12.4-7.2,7.6,31.1,13.1,13,6.1,2,25.1-41.4-17.6-6.3Z"/>
              <path class="cls-18" d="M100.5,291.9c.5,0,1,.4,1.1.9l14.8,38.7,19.1-6.5c.1,0,.3,0,.4,0,.4,0,.9.2,1.1.6l3,4.1,6.8-6c.3-.2.6-.3.9-.3s9.7.6,9.7.6l3.5-8.6-13.7-17.8c0-.1-.2-.3-.2-.4l-7.8-24h-12.6c-.4,0-.9-.2-1.1-.6-.3-.4-.3-.8-.2-1.3l7.1-20.7-58.3,2.5-18.1,24.4,10.9,10.7,33.7,3.9Z"/>
              <path class="cls-18" d="M202.5,342.2l-7.8-3.8-22.7,15.6c-.2.2-.5.2-.8.2s-.5,0-.7-.2l-6-3.5-5.4,17,48.7,15.6,4.8-6.4-8.1-33.5-2-1.2Z"/>
              <path class="cls-18" d="M165.1,332.7c-.3.2-.6.3-.9.3s-.7-.1-1-.4l-5.5-5.9-9.4-.6-7.5,6.6c-.3.2-.6.3-.9.3s0,0-.1,0c-.4,0-.7-.2-1-.6l-3.3-4.5-18.7,6.4-1.8,7.6,10.8,10.9h17.3c.8,0,1.4.6,1.4,1.4v8.7l12,3.9,6-18.7c.1-.4.4-.7.8-.9.2,0,.3,0,.5,0,.2,0,.5,0,.7.2l6.7,3.9,20.7-14.2-20.3-10-6.5,5.7Z"/>
              <path class="cls-17" d="M214.3,379.3l-4.8,6.4c-.3.4-.7.5-1.1.5s-.3,0-.4,0l-17.6-5.6-18.3,26.3,17.1,17.7h13.4l23.4-33.5-11.7-11.6Z"/>
              <path class="cls-18" d="M233.6,427.8l3.6-25.1-3.1-8.4-5.8-1.9-23.6,33.8,2.7,18.4,4.6-4.3c.3-.2.6-.4.9-.4s.4,0,.6.1c.5.3.8.8.8,1.4l-.8,9.5,3.7,5.1,15.2-13.6,1.2-14.5Z"/>
              <path class="cls-18" d="M111.1,358.8l8.1,10.7h11.7c.5,0,1,.3,1.2.8.2.5.2,1-.1,1.5l-8.1,10.8-3.8,15.7,5.2,9.8c12.3-9.5,13-9.5,13.6-9.5s.9.3,1.2.6c.9,1,9.9,8.7,15.4,13.4.3.3.5.7.5,1.1v5.9l13.2-13.6,18.4-26.4-45-14.4c-.6-.2-1-.7-1-1.3v-8.3h-16.5c-.4,0-.7-.1-1-.4l-9.9-10-3.1,13.7Z"/>
              <polygon class="cls-18" points="201.8 474.8 199.1 474.8 197.8 485 201.8 485 201.8 474.8"/>
              <polygon class="cls-18" points="196.5 495.1 201.8 495.1 201.8 487.8 197.4 487.8 196.5 495.1"/>
              <polygon class="cls-18" points="228.7 552.2 233.6 547.5 224 540.5 216.5 546.4 213.6 544.7 221.3 534.1 218.8 529.2 202.4 544.1 193.7 539 198.3 552.2 228.7 552.2"/>
              <polygon class="cls-18" points="192.4 535.1 202.1 540.7 217.4 526.6 201.8 497 196.5 497 191.4 532.8 192.3 535.3 192.4 535.1"/>
              <polygon class="cls-18" points="276.1 450.9 276.1 447.1 271.8 447.1 271.8 454.8 266.5 454.8 266.5 448.4 255.6 449 257.5 465.4 285.3 460.7 285.3 473.5 271 475.2 271 477.9 292.8 475.3 292.8 456.6 285.8 450.9 276.1 450.9"/>
              <polygon class="cls-18" points="278.7 493.5 286.7 504.7 291.5 501.2 291.5 478.3 277.6 480 278.7 493.5"/>
              <polygon class="cls-18" points="271.7 464.4 271.7 473.3 275.7 473.3 275.7 469.1 283 469.1 283 466.5 275.7 466.5 275.7 464.4 271.7 464.4"/>
              <polygon class="cls-18" points="254.5 469.8 253 450.8 245.3 456.1 245.3 461.4 229.8 472.1 226.8 468.4 223.6 470.3 234.3 482.8 238.2 480.6 246.3 490.7 249.9 483.8 243.9 474 246.1 469.7 254.5 469.8"/>
              <polygon class="cls-18" points="244.7 498.1 236.2 484 231.3 487.4 241.8 501.5 244.7 498.1"/>
              <polygon class="cls-18" points="239.1 507 224.4 485.7 218.2 489.5 233.8 518.1 239.1 507"/>
              <polygon class="cls-18" points="214.7 496.4 217.7 494.4 214.5 488.5 227.6 480.5 221.7 471.8 216.4 474 219.6 479.4 211.9 485 214.7 496.4"/>
              <polygon class="cls-18" points="267 508 259.9 502.3 245.2 513.1 239.1 524.4 242.8 526.5 267 508"/>
              <polygon class="cls-18" points="254.2 522.4 263.1 535.1 277.4 525.6 269.2 511 254.2 522.4"/>
              <polygon class="cls-18" points="240.8 532.7 254.5 540.7 260.2 537 251.5 524.5 240.8 532.7"/>
              <polygon class="cls-18" points="302.6 473.3 305.3 469.2 310.4 471.4 311.3 474 313.1 469.7 302.6 465.4 302.6 473.3"/>
              <polygon class="cls-18" points="314.2 474 318.3 474 320.4 478.6 323 473.3 315.7 470.5 314.2 474"/>
              <path class="cls-7" d="M260.3,402.5c-.3.3-.7.5-1.1.5s-.3,0-.5,0l-21.3-7.5,2.5,6.6c0,.2.1.5,0,.7l-3.6,24.6,6.1,3.5c.5.3.8.9.7,1.4l-2.6,15.9c0,.3-.2.6-.5.8l-16.2,13.9,1.3,2,28.4-20.6c.2-.2.5-.3.8-.3h36.3c.8,0,1.4.6,1.4,1.4v6.3h4v-63.1l-16.5-9.6-19.4,23.5Z"/>
              <path class="cls-17" d="M227.8,206.1l-21.9-42.1-1.6-3.2-28.5-37.2-16.7,17.4c0,0-.1.1-.2.2l-48.5,35.1,1.9,23.3,34.3,12c.3.1.6.4.8.7.1.3.1.7,0,1l-.2.4-14.7,34.7c2.6,2,12.4,8.8,19.2,13.6l24.4,2.9c.5,0,1,.4,1.1.9l2.3,8.4,20.1-11.8,1.7-15-7-11.8c-.2-.3-.2-.7-.1-1,0-.3.3-.6.6-.8,10-5.7,14-7.7,15.6-8.4l.7-11.8c0,0,0-.1,0-.2,0,0,0-.1,0-.2,0,0,0-.1,0-.2,0,0,0,0,0-.1,0,0,.1-.1.2-.2,0,0,0,0,0,0,0,0,.2-.1.3-.2l15.9-6.4Z"/>
              <path class="cls-17" d="M271.3,231.6c.3.2.5.6.5,1l.6,23.4h9.9c0,0,8.1-7.8,8.1-7.8.2-.2.6-.4.9-.4s.4,0,.6.2l17.1,9.7c1.8-.3,3.6-.6,4.5-1l-2.2-11c0-.4,0-.8.3-1.1l8.4-10.1v-11.5l-22.2-15.3c0,0-.1-.1-.2-.2,0,0,0,0,0,0,0,0,0,0-.1-.2,0,0,0,0,0-.1,0,0,0,0,0-.1,0,0,0,0,0-.1,0,0,0,0,0-.1h0s0,0,0,0h0s-5.7-38-5.7-38l-.2-1.6-13.2,2v34c0,0,0,.2,0,.3,0,.2-.2.5-.4.7l-10.2,10.2-4.8,19.3c2.9-.9,7.2-2.2,7.4-2.3.4-.1.8,0,1.1.2Z"/>
              <path class="cls-17" d="M345.9,269.4c.6-.2,1.2,0,1.5.6l.2.3-2.1-53.6c-.6-4.1-.6-6.9,0-9.1.6-2.2,1.2-4.6,1.1-9.3,0-1.9-.2-3.3-.3-4.5-.3-2.3-.4-4,.4-6.7.7-2.3,1.6-3.4,2.5-4.5.8-1,1.7-2.1,2.8-4.5.7-1.4,1.6-4.5,3.3-10.1h0c1.5-5,1.6-5.7,1.7-6.5,0-1.3,0-2.4-.3-3.5l-14.9-1.7-31.1,6.9s0,0,0,0l-16.9,3.6.9,5.8,5,33.3,22.2,15.4c.3.2.6.6.6,1.1v12.6c0,.3-.1.6-.3.8l-8.3,10,2,9.9,11.8-3.3c.5-.1,1,0,1.3.4l2.9,3.6c.4.5.4,1.2,0,1.6l-6.4,7.8,8.2,7.5,12.1-4.1Z"/>
              <path class="cls-17" d="M259.8,234.7l5.3-21.2c0-.2.2-.4.3-.6l10-10v-34.5c0,0,0-.2,0-.2,0,0,0,0,0,0,0,0,0,0,0-.1,0,0,0,0,0,0,0,0,0,0,0-.1,0,0,0,0,0,0,0,0,0,0,0-.1,0,0,0,0,0,0,0,0,0,0,0,0,0,0,0,0,0,0,0,0,0,0,.1,0,0,0,0,0,0,0,0,0,0,0,.1,0,0,0,0,0,.1,0,0,0,0,0,0,0l13.4-2.8-1.3-8.7-2.1.8-42,14c-.2,0-.4,0-.6,0h-.1s-34.5-5.3-34.5-5.3l21.3,41.2c.2.3.2.7,0,1-.1.3-.4.6-.7.7l-16.5,6.6-.3,10.4c2.2,1,8.5,4.4,27.9,15.6l18.6-5.8Z"/>
              <path class="cls-17" d="M436.2,284.8l4,6c.2.4.2.9,0,1.3l-6.1,10.6-2,3.5,6.4,14.4,21,2.5,17.6-2,11.9-25.9v-1.1c0,0-2.8-35-2.8-35l-20.9-5.1c0,.2.1.4.1.6v12.3c0,.6-.4,1.1-1,1.2l-22.3,6.1-5.9,10.5Z"/>
              <path class="cls-17" d="M440.8,257.2c-.5.4-1.2.3-1.6,0l-23.5-21.3c-.2-.1-.3-.3-.4-.5h0c0-.1-8.2-24.7-8.2-24.7l-23.5-15.7-22.2,18.1c-.1,0-.3.2-.4.2l-12.9,4.3c.5,8.1,2.2,55.1,2.2,57.8h0s0,0,0,0c0,0,0,0,0,0,0,0,0,.2,0,.3,0,0,0,0,0,0,0,0,0,.1,0,.2,0,0,0,0,0,0,0,0,0,.2-.1.2,0,0,0,0,0,0,0,0-.1.1-.2.2,0,0,0,0,0,0l-14.3,12.4,9.5,25.8,18.2-15c.4-.4,1.1-.4,1.6,0l.5.3s0,0,0,0l34,24,10.1-30.2c.1-.4.4-.6.7-.8,0,0,24.1-9.9,24.4-9.9l5.1-10.5c.2-.3.5-.6.8-.7l22.3-6.1v-11.1l-8.1-7.3-13.8,9.9Z"/>
              <path class="cls-17" d="M539.2,261.3l-9.7,27.1c-.2.4-.5.8-1,.8l-37,6.6c0,0,0,.2,0,.2h0s0,0,0,0l-12.4,26.9c-.2.4-.6.7-1,.7l-18.4,2.1s0,0-.1,0-.1,0-.2,0l-19.6-1.8v20.9s-19.7,7.1-19.7,7.1l-19,17,15.7,9.8c.3.2.5.4.6.7l8.4,29.3h14.7l4-12.1c.1-.4.4-.6.7-.8.3-.1.7-.1,1.1,0l6,3c.6.3.8.9.7,1.5l-3.9,13.6,7.2,3.6c.4.2.7.7.7,1.2v5.9c0,.7-.6,1.3-1.3,1.3h-5v3.7h13.6l-7.3-18.2c-.2-.5,0-1,.2-1.3l15-17.2c.2-.3.6-.4,1-.4h21.1l36.2-6,4-29.9-4.2-31.4c0-.4,0-.8.3-1l.2-.2,22.7-24.8,5.1-20.2-19.4-17.6Z"/>
              <path class="cls-6" d="M360.1,489.2l.5-.4c1-.7,2-1.5,3-2.2,1.8-1.3,3.6-2.6,5.3-4,7-5.6,14-8.8,19.7-11.4,4.4-2,8.5-3.9,8.8-5.4-.4-.5-2.2-2.1-4.6-4.2l-2.9-2.6c-10.4-9.2-13.7-12.3-13.4-16.6,0-.6.4-1.5.7-2.4l-34.5-16.1-3.1,35c0,.2,0,.4-.2.6l-4.2,5.9s0,0,0,.1l-4.3,5c0,.3,0,.8,0,1.1,0,.9.2,2.2,0,4.7,0,1.1-.1,2-.2,2.7,0,0,0,0,0,0-.1,1.6-.2,1.9,0,2.6.4,1.1,1.4,2.4,2.6,2.8.3,0,.4,0,.9,0,.7-.1,1.7-.4,3.2,0,1,.3,1.8.7,2.5,1.1.3-.9.8-2,1.9-2.8,1-.7,2.1-1,3.2-1s2.4.3,3.3.7c5,2.3,5.5,9.6,5.5,10.4,0,.4,0,.8,0,1.1,1.7-1.1,4.1-3,6.2-4.6Z"/>
              <path class="cls-6" d="M409.6,408.8l5.2,8.6,6.6-8.2c.2-.3.6-.5,1-.5l-8.1-28.5-15.9-10c-.2,0-.3-.2-.4-.4,0,0,0,0,0,0,0,0,0-.1,0-.2,0,0,0,0,0-.1,0,0,0-.2,0-.3,0-.2,0-.3,0-.5,0,0,0,0,0,0,0,0,0,0,0-.1,0,0,0,0,0-.1,0,0,0,0,0,0,0,0,0,0,.1-.1l20.4-18.3c0,0,.2-.1.3-.2l1-.9c.1-.1.3-.2.5-.3l16.9-5.6v-17.5l-.7-2.9s0,0,0,0l-6.9-15.7h0c0,0,0,0,0,0h0s0,0,0-.1c0,0,0-.1,0-.2,0,0,0-.1,0-.2,0,0,0,0,0,0,0,0,0-.2,0-.3,0,0,0,0,0,0,0,0,0-.2.1-.3l8-13.9-3.3-5.2-22.7,9.5-10.1,30.4c-.1.4-.4.7-.8.8-.1,0-.2,0-.4,0,0,0,0,0,0,0,0,0,0,0,0,0,0,0-.2,0-.2,0,0,0,0,0-.1,0-.1,0-.2,0-.3-.2l-34.6-24.4-17.8,14,11.2,6.5c.4.3.7.7.6,1.2-1.3,13-2.3,27.7-1.9,29.7,1.2,1.7,14.3,17.8,23,28.4.4.4.4,1.1,0,1.5l-16.2,24.1c-.2.2-.4.4-.7.5l-19.2,5.8-.8,6.7,29.3,13.7,6.2,2.9c.7-.9,1.7-1.9,2.9-3.1,4.2-4.2,8.7-5.9,11.3-6.8,2.2-.8,4.4-1.4,6.7-1.8h-11.1c-.6,0-1-.4-1.2-.9-.2-.5,0-1.1.4-1.4l20.2-15.2c.3-.2.7-.3,1-.2.4,0,.7.3.9.6Z"/>
              <path class="cls-11" d="M337.1,458.2l3.2-36.4s0,0,0,0c0,0,0,0,0,0l1-8.5c0-.5.4-.9.9-1.1l19.5-5.9,15.4-22.9c-8.6-10.5-22.3-27.3-22.7-28.1-1-2,.5-19.4,1.6-30.3l-12.1-7s0,0,0,0c0,0-.1,0-.2-.1,0,0,0,0,0-.1,0,0,0,0-.1-.1,0,0,0,0,0,0l-7.4,4.2-13.1,45.2c-.1.5-.6.9-1.1,1l-16.2,2.7c0,0-.2,0-.2,0-.4,0-.8-.2-1.1-.5l-7.5-9.9-10.6,6.1,1.9,14.5,10.1,5.9c.4.2.7.7.7,1.2v63.9h3.4c.8,0,1.4.6,1.4,1.4v8.2l15.4,5.6,16.9-7.3,1-1.4Z"/>
              <path class="cls-11" d="M334.2,319.4l8.2-4.7-9.5-25.9c-.2-.5,0-1.1.4-1.4l14.2-12.3-1.7-2.9-11.8,4c-.4.1-.9,0-1.3-.3l-9.6-8.9c-.5-.5-.6-1.2-.1-1.8l6.5-7.9-1.7-2.1-12.1,3.4c-1.4,1-4.7,1.5-6.6,1.8,0,0-.1,0-.2,0-.2,0-.4,0-.6-.2l-8.4-4.8-2.1,3,15.8,32.9c.2.5.2,1.1-.2,1.6l-4.1,4.4c-.3.3-.6.4-1,.4s0,0-.1,0c-.4,0-.8-.3-1-.6l-4.5-7.1-25.8,17.8c-.2.2-.5.2-.8.2s-.5,0-.7-.2l-6.9-4-3.1,3.6,6.9,15.5,34,44.7,14.5-2.4,13-44.9c.1-.3.3-.6.7-.8Z"/>
              <path class="cls-9" d="M294.9,257.5l2.4-3.4-5.8-3.3-7.8,7.6c-.2.2-.6.3-.9.4h-11.7c-.7,0-1.3-.6-1.3-1.3l-.6-23c-2.4.8-6.8,2.1-7.9,2.5,0,0,0,0,0,0,0,0,0,0,0,0l-19.8,6.2c-.1,0-.3,0-.4,0-.2,0-.4,0-.6-.2-9.4-5.4-24.3-13.9-28-15.7-.2.1-.4.2-.6.3-1.1.4-8.1,4.2-14.6,7.9l6.5,11.1c.1.2.2.5.2.8l-1.8,16.1c0,.4-.3.8-.6,1l-21.4,12.6-2.2,7,7.5,7.2,13.9-2.5c0,0,.2,0,.2,0,.4,0,.8.2,1.1.5l2.5,3.3c.4.5.4,1.3,0,1.8l-8.7,9.4,2.7,3.7,35.4,3.4c.5,0,.9.3,1.1.7l9.2,17.8,18.8,1,7.7-7-6.9-15.6c-.2-.5-.1-1.1.2-1.5l4.4-5.1c.3-.3.7-.5,1-.5s.5,0,.7.2l7.1,4.1,26.2-18.1c.2-.2.5-.2.8-.2s.2,0,.3,0c.4,0,.7.3.9.6l4.3,6.8,2.2-2.4-15.7-32.8c-.2-.5-.2-1,.1-1.4Z"/>
              <path class="cls-18" d="M191.7,315c0-.5.3-.9.7-1.1l6.9-3.6-3.2-.3c-.4,0-.8-.2-1-.6l-3.7-5.1c-.4-.5-.3-1.3.1-1.8l8.7-9.4-1.3-1.7-13.7,2.5c0,0-.2,0-.2,0-.4,0-.7-.1-1-.4l-8.7-8.2c-.4-.4-.5-.9-.4-1.4l2.4-7.7-2.4-8.9-23.8-2.8c-.2,0-.4-.1-.6-.2-3.9-2.7-11.3-7.9-16.1-11.3l-5.9,17.3h11.7c.6,0,1.1.4,1.3,1l8,24.8,14,18.2c.3.4.4.9.2,1.4l-3.8,9.4,4.3,4.7,6.1-5.5c.3-.2.6-.3.9-.3s.4,0,.6.1l30.9,15.2,8.2-7.6-18.8-15.5c-.4-.3-.5-.8-.5-1.2Z"/>
            </g>
          </g>
        </g>
        <g>
          <polygon class="cls-9" points="182.5 261.5 158 229.6 133.2 229.6 182.5 261.5"/>
          <polygon class="cls-7" points="219.7 390.3 193.5 413.9 165.4 413.9 219.7 390.3"/>
          <g>
            <rect class="cls-15" x="25.5" y="116.2" width="206.5" height="113.4"/>
            <g>
              <g>
                <path class="cls-8" d="M52.6,161.2c-5.2,2.6-7.8,3.4-8.4,3.4-1.1,0-1.7-.9-1.7-1.7s.4-1.4,1.3-1.7c3.4-1.1,6.1-2.1,8.8-3.6v-8.4h-7.5c-1.2,0-1.8-.9-1.8-1.7s.6-1.7,1.8-1.7h7.5v-7.8c0-1.1.9-1.7,1.8-1.7s1.8.6,1.8,1.7v28.7c0,1.1-.9,1.6-1.8,1.6s-1.8-.5-1.8-1.6v-5.7ZM71.2,160c0-1.2.9-1.7,1.7-1.7s2,.5,2,2c0,7.4-3.9,7.4-7.9,7.4s-6.8-.5-6.8-4.7,0-23.8,0-25c0-1,1-1.5,1.8-1.5s1.8.5,1.8,1.6c0,.7,0,5.1,0,10,2.4-1.2,5.2-2.9,7.1-4.4.3-.2.6-.3,1-.3,1,0,1.9,1,1.9,2s-.3,1.2-1,1.7c-2.4,1.6-6.4,3.5-9,4.5,0,5.2,0,10.1,0,10.8,0,1.4.9,1.8,3.4,1.8s4.1-.4,4.1-4v-.2h0Z"/>
                <path class="cls-8" d="M94.5,153v14.1c0,1.2-1,1.8-1.9,1.8s-2-.6-2-1.8v-14.1s-12,0-12,0c-1.1,0-1.7-.9-1.7-1.7s.6-1.7,1.7-1.7h12s0-6.8,0-6.8c-2.3.3-6.9.7-9.6.7s-2-.9-2-1.8.6-1.7,1.8-1.7c6.4,0,13.7-.9,20.6-2.7.2,0,.4,0,.6,0,1.2,0,1.8,1,1.8,1.9s-.3,1.4-1.1,1.6c-2.2.6-5.1,1.1-8.3,1.6v7.3h12.2c1,0,1.6.9,1.6,1.7s-.5,1.7-1.6,1.7h-12.2Z"/>
                <path class="cls-8" d="M118,150.2c-2.5,3-3.3,3.3-4.1,3.3s-1.7-.8-1.7-1.7.2-.9.6-1.3c3.6-3.2,6.9-7.7,8.8-12.7.3-.8,1-1.2,1.7-1.2,1,0,2,.8,2,1.9s-2.4,5-3.7,6.9l-.4,21.8c0,1.1-1,1.7-1.9,1.7s-1.8-.5-1.8-1.6h0c0,0,.5-17.1.5-17.1ZM123.9,167.3c-1.3,0-1.8-.8-1.8-1.6s.6-1.6,1.8-1.6h8.1s0-7.7,0-7.7h-5.4c-1.2,0-1.8-.8-1.8-1.6s.6-1.6,1.8-1.6h5.4s0-6.2,0-6.2h-6.2c-1.2,0-1.8-.8-1.8-1.6s.6-1.6,1.8-1.6h16.8c1.2,0,1.8.8,1.8,1.6s-.6,1.6-1.8,1.6h-7s0,6.2,0,6.2h5.6c1.2,0,1.8.8,1.8,1.6s-.6,1.6-1.8,1.6h-5.6s0,7.7,0,7.7h8.6c1.1,0,1.7.8,1.7,1.6s-.6,1.6-1.7,1.6h-20.4ZM134.4,142c-1.3-1.4-3.2-2.3-4.4-2.8-.7-.3-1-.7-1-1.2,0-.9.9-1.8,2-1.8s6.5,1.9,6.5,4.3-.9,2.1-2,2.1-.9-.2-1.3-.6Z"/>
                <path class="cls-8" d="M152.1,168.9c-.9,0-1.8-.6-1.8-1.6,0-6.7,0-18.9.2-26.7,0-3.5,2-3.5,5.4-3.5s1.4,0,2,0c2.1,0,3.2,1.2,3.2,2.8s-.2,1.8-2.2,6c-.2.4-.3.7-.3,1,0,.5.2,1,.6,1.5,1.3,1.6,2,3.2,2,5.7s-2,5.6-4.7,5.6-2.6-.1-2.6-1.8.6-1.6,1.3-1.6.3,0,.4,0c.2,0,.3,0,.5,0,.8,0,1.7-.7,1.7-2.7s-.5-3-1.4-4.3c-.7-1-1-1.8-1-2.6s.2-1.3.5-2.1c.8-1.8,1.5-4,1.5-4.3,0-.4-.2-.7-1.5-.7s-2.1,0-2.1,1.3c0,3.4,0,7.8,0,12.4v13.7c0,1.1-.9,1.6-1.7,1.6ZM157.7,167c0-.7.4-1.4,1.4-1.8,5-1.8,6.4-4.7,7-8.6.1-1,.9-1.4,1.6-1.4s1.9.7,1.9,1.7,0,.2,0,.3c-1.7,10-9.6,11.5-10.1,11.5-1.1,0-1.8-.8-1.8-1.7ZM177.7,146.6v-1.5c0-1.3-.5-1.6-1.7-1.6-1.5,0-3.3,0-5,0s-3.4,0-4.8,0c-1.4,0-1.8.4-1.8,1.5v1.6c0,1-.9,1.6-1.7,1.6s-1.7-.5-1.7-1.6v-1.9c0-1.7,0-4,3.8-4.1,1.3,0,2.7,0,4.1,0v-2.6s0,0,0,0c0-1.1.9-1.7,1.9-1.7s1.9.6,1.9,1.7h0s0,2.7,0,2.7c1.6,0,3.3,0,4.7,0,2.4.1,3.8,1.2,3.8,3.4v2.6c0,1-1,1.6-1.8,1.6s-1.7-.5-1.7-1.5h0ZM178.5,161.6c0-1,.8-1.5,1.6-1.5s1.9.3,1.9,1.8c0,5.3-2,6.3-6,6.3s-4.8-1.6-4.8-4.3,0-6.9.1-9.4h-8.3c-1,0-1.5-.7-1.5-1.5s.5-1.5,1.5-1.5h16.8c1,0,1.4.8,1.4,1.6s-.5,1.5-1.4,1.5h-5.1c0,2.1-.1,6.5-.1,8.3s.1,1.9,1.5,1.9c2.1,0,2.5-.6,2.5-2.8v-.4h0ZM166.6,149c-1,0-1.6-.7-1.6-1.5s.5-1.5,1.6-1.5h8.9c1,0,1.4.7,1.4,1.5s-.5,1.5-1.4,1.5h-8.9Z"/>
              </g>
              <g>
                <path class="cls-8" d="M57.3,201.3v4.8c1.1.2,2.2.3,3.4.3,1.8,0,3.8-.2,5.5-.3h0c.8,0,1.3.6,1.3,1.2s-.4,1.2-1.3,1.3c-1.6.2-3.2.3-4.8.3-4.6,0-8.9-1-11.1-5.2-1.3,3-4,5.6-5.2,5.6s-1.3-.7-1.3-1.4.2-.7.6-1c3.2-2.1,4.3-5.1,4.6-8.3.1-.9.7-1.2,1.3-1.2s1.3.5,1.3,1.2,0,.9-.2,1.8c.6,2.3,1.8,3.8,3.3,4.6v-9.2c-1.4,0-2.7,0-3.9,0-2,0-3-1.2-3-2.8,0-.5,0-1.1,0-1.6s0-1.5,0-2c0-1.3.8-2.6,3-2.7,1.6,0,3.3,0,5.1,0s3.6,0,5.4,0c1.6,0,2.8,1.2,2.9,2.5,0,.5,0,1,0,1.6s0,1.5,0,2.2c0,1.5-1.2,2.8-3,2.8-1.2,0-2.5,0-3.8,0v3.1h6.2c.8,0,1.2.6,1.2,1.2s-.4,1.2-1.2,1.2h-6.2ZM61.5,191.2c0-1.4,0-2.2-1.3-2.2-1.2,0-2.6,0-3.9,0s-3.3,0-4.7,0c-1.1,0-1.3.8-1.3,2.3s.2,2.3,1.3,2.3c1.3,0,2.8,0,4.3,0s3.1,0,4.4,0c1.2,0,1.3-.8,1.3-2.4Z"/>
                <path class="cls-8" d="M71.9,207.9c-.9,0-1.3-.6-1.3-1.2s.4-1.2,1.3-1.2h10.8c1.3-3.2,2.8-8.1,3.2-10.6.1-.7.7-1,1.3-1s1.6.5,1.6,1.4-2.5,8-3.5,10.2h7.6c.8,0,1.2.6,1.2,1.3s-.4,1.2-1.2,1.2h-21ZM73.6,193.1c-.8,0-1.2-.6-1.2-1.2s.4-1.2,1.2-1.2h7.5c0,0,0-3.6,0-3.6,0-.8.7-1.3,1.4-1.3s1.4.4,1.4,1.3v3.6s7.3,0,7.3,0c.9,0,1.3.6,1.3,1.2s-.4,1.2-1.3,1.2h-17.6ZM78.4,203c-.4-2.2-1.3-4.9-2.3-7-.1-.2-.1-.4-.1-.6,0-.7.7-1.2,1.4-1.2s1,.2,1.2.8c1.2,2.7,2.6,6.9,2.6,7.7s-.7,1.5-1.5,1.5-1.2-.4-1.3-1.2Z"/>
                <path class="cls-8" d="M117.9,205.6c.8,0,1.2.6,1.2,1.2s-.4,1.2-1.2,1.2c-3.2,0-6.2.1-9.2.1s-4.9,0-7.3,0c-2.3,0-3.5-1.2-3.6-3.2,0-2-.1-4.3-.1-6.6s0-5.7.1-8.3c0-1.7,1.4-2.9,3.4-2.9,2.3,0,5.1,0,7.9,0s5.6,0,8.2,0c.8,0,1.2.6,1.2,1.2s-.4,1.2-1.2,1.2c-3.5,0-7.5,0-10.9,0s-2.9,0-4,0c-1.5,0-1.9.5-2,1.8,0,2.2,0,4.4,0,6.5s0,4.3,0,6.3c0,1.5.6,1.8,2.2,1.8,1.6,0,3.3,0,5.2,0,3.1,0,6.5,0,10.1-.1h0ZM103,204.3c-.8,0-1.4-.7-1.4-1.3s.2-.8.7-1c2.4-1.1,4.4-2.7,5.9-4.6-1.5-1-3-1.9-4.5-2.8-.5-.3-.6-.6-.6-1,0-.6.6-1.2,1.3-1.2s.5,0,.7.2c1.3.7,2.9,1.7,4.6,2.9.9-1.5,1.7-3.1,2.3-4.8.2-.5.6-.8,1.1-.8.7,0,1.5.6,1.5,1.4s-1.4,3.2-2.9,5.5c3.4,2.5,4.1,3.3,4.1,4.2s-.7,1.5-1.4,1.5-.7-.2-1.1-.6c-.9-1.1-1.9-2.1-3.1-3.1-3.2,4-6.4,5.5-7.2,5.5Z"/>
                <path class="cls-8" d="M126.2,208.8c-.7-1-2.2-2.2-3.3-2.8-.5-.3-.7-.7-.7-1.1,0-.6.5-1.2,1.3-1.2s5.3,2.4,5.3,4.2-.7,1.5-1.5,1.5-.8-.2-1-.6Z"/>
                <path class="cls-8" d="M140.1,208c0-.5.3-1,.8-1.1,3.3-.5,4.7-2.5,4.7-5.9v-.4h0c0-.8.6-1.2,1.2-1.2,1.3,0,1.3,1.1,1.3,1.7,0,7.3-6,8.2-6.7,8.2s-1.3-.7-1.3-1.3ZM156.7,189.3v.8c0,.7-.6,1.1-1.3,1.1s-1.2-.4-1.2-1v-.9h-4.5v.8c0,.7-.6,1.1-1.3,1.1s-1.2-.4-1.2-1v-.9h-5.6c-.7,0-1.1-.5-1.1-1.1s.4-1.1,1.1-1.1h5.6v-1c0-.7.6-1.1,1.2-1.1s1.2.4,1.2,1.1v1h4.5v-1c0-.7.6-1.1,1.3-1.1s1.2.4,1.2,1.1v1h5.7c.7,0,1.1.5,1.1,1.1s-.4,1.1-1.1,1.1h-5.7ZM147.8,194.3q0,2.5,4.5,2.5c2.2,0,4.6-.1,7-.4h.2c.8,0,1.1.5,1.1,1.1s-.4,1.1-1.1,1.2c-1.8.2-3.9.3-5.9.3-6.2,0-8.2-.2-8.3-2.8,0-.4,0-1.2,0-1.9h-2.8c-.7,0-1.1-.5-1.1-1.1s.4-1.1,1.1-1.1h8.3s0-.9,0-.9c0-.8.7-1.2,1.3-1.2s1.3.4,1.3,1.1h0c0,0,0,.9,0,.9h8.4c.7,0,1.1.5,1.1,1s-.4,1.1-1.1,1.1h-14ZM150.7,200.7c0-.7.6-1.1,1.2-1.1s1.2.4,1.2,1.1v6.7c0,.8-.6,1.1-1.2,1.1s-1.3-.4-1.3-1.1v-6.7ZM161.2,204.7c0-.7.6-1,1.2-1s1.3,0,1.3,1.1c0,3.4-1.7,3.9-4.6,3.9s-3.4-.9-3.4-2.7,0-4.8,0-5.4.6-1.1,1.2-1.1c1.3,0,1.3,1,1.3,1.4,0,1.1,0,3.5,0,4.5s0,1,1.2,1,1.8,0,1.8-1.5v-.2h0Z"/>
                <path class="cls-8" d="M167.7,209c-.8,0-1.6-.7-1.6-1.4s.1-.5.4-.8c4.1-4.1,4.2-9.3,4.2-14.1s0-3.8-.1-5.3h0c0-.8.6-1.2,1.3-1.2s1.4.4,1.5,1.2c0,.6,0,1.3,0,2,0,1.8,0,3.9,0,5.4,0,3.9-.5,9.5-4.5,13.7-.3.3-.7.5-1.1.5ZM177.7,188c0-.8.6-1.2,1.3-1.2s1.3.4,1.3,1.2v17.8c0,.7-.7,1.1-1.3,1.1s-1.3-.4-1.3-1.1v-17.8ZM185.2,187.2c0-.8.7-1.2,1.3-1.2s1.4.4,1.4,1.2v20.6c0,.7-.7,1.1-1.3,1.1s-1.3-.4-1.3-1.1v-20.6Z"/>
                <path class="cls-8" d="M213.8,205.6c.8,0,1.2.6,1.2,1.2s-.4,1.2-1.2,1.2c-3.2,0-6.2.1-9.2.1s-4.9,0-7.3,0c-2.3,0-3.5-1.2-3.6-3.2,0-2-.1-4.3-.1-6.6s0-5.7.1-8.3c0-1.7,1.4-2.9,3.4-2.9,2.3,0,5.1,0,7.9,0s5.6,0,8.2,0c.8,0,1.2.6,1.2,1.2s-.4,1.2-1.2,1.2c-3.5,0-7.5,0-10.9,0s-2.9,0-4,0c-1.5,0-1.9.5-2,1.8,0,2.2,0,4.4,0,6.5s0,4.3,0,6.3c0,1.5.6,1.8,2.2,1.8,1.6,0,3.3,0,5.2,0,3.1,0,6.5,0,10.1-.1h0ZM198.9,204.3c-.8,0-1.4-.7-1.4-1.3s.2-.8.7-1c2.4-1.1,4.4-2.7,5.9-4.6-1.5-1-3-1.9-4.5-2.8-.5-.3-.6-.6-.6-1,0-.6.6-1.2,1.3-1.2s.5,0,.7.2c1.3.7,2.9,1.7,4.6,2.9.9-1.5,1.7-3.1,2.3-4.8.2-.5.6-.8,1.1-.8.7,0,1.5.6,1.5,1.4s-1.4,3.2-2.9,5.5c3.4,2.5,4.1,3.3,4.1,4.2s-.7,1.5-1.4,1.5-.7-.2-1.1-.6c-.9-1.1-1.9-2.1-3.1-3.1-3.2,4-6.4,5.5-7.2,5.5Z"/>
              </g>
            </g>
          </g>
          <g>
            <rect class="cls-12" x="334.6" y="116.2" width="229.5" height="113.4"/>
            <polygon class="cls-11" points="353.2 273.7 373.1 229.6 403.6 229.6 353.2 273.7"/>
            <g>
              <g>
                <path class="cls-8" d="M359,160.5c-1.8,2.2-4.6,5-5.9,5s-1.7-.7-1.7-1.6.3-1,.9-1.3c2-1.1,4.6-3.4,6.5-5.9h-4.8c0,.1,0,.1,0,.1-1,0-1.5-.7-1.5-1.4s.5-1.4,1.5-1.4h5.1s0-1.6,0-1.6h0c0-1,.7-1.5,1.5-1.5s1.5.5,1.5,1.5h0s0,1.7,0,1.7h4.6s0,0,0,0c.9,0,1.4.7,1.4,1.5s-.4,1.4-1.4,1.4h-4.7c0-.1,0,1.3,0,1.3.2-.1.5-.3.7-.3.6,0,3.1,1.2,4,2,.4.3.6.8.6,1.2,0,.9-.7,1.8-1.6,1.8s-.6-.1-1-.4c-.9-.8-1.9-1.6-2.7-2v6.9c0,.9-.7,1.4-1.5,1.4s-1.6-.4-1.6-1.4v-6.8ZM353.4,150.7c-1,0-1.5-.7-1.5-1.4s.5-1.4,1.5-1.4h3.7c-.2-.2-.3-.4-.4-.7-.4-1.1-.8-1.8-1.1-2.3-.2-.3-.3-.6-.3-.8,0-.7.8-1.3,1.6-1.3,1.6,0,2.8,3.1,2.8,3.8s-.3,1-.7,1.3h1.7c.6-1.1,1.2-2.9,1.6-4.1.2-.8.8-1.1,1.4-1.1.9,0,1.8.7,1.8,1.6s-.6,1.7-1.6,3.6h3.4c1,0,1.5.7,1.5,1.4s-.5,1.4-1.5,1.4h-13.9ZM354.4,142.3c-1.1,0-1.6-.7-1.6-1.4s.5-1.4,1.6-1.4h4.4v-2.1c0-1,.8-1.6,1.7-1.6s1.7.5,1.7,1.6v2.1h4.2c1,0,1.5.7,1.5,1.4s-.5,1.4-1.5,1.4h-12ZM376.6,150.2h-3.7c-.1,6-.9,12.4-4.1,16.9-.5.7-1.1,1-1.8,1-1,0-1.9-.7-1.9-1.6s.1-.7.4-1c3.5-4.1,4.2-10,4.2-15.7s0-3.7-.1-5.4v-.4c0-2.5.9-3.6,3.4-4.3,1.4-.4,5-1.9,6.4-2.6.3-.1.6-.2.9-.2,1.1,0,1.9.9,1.9,1.9s-.3,1.3-1.2,1.6c-1.2.6-5.4,1.9-6.4,2.2-1.2.4-1.6,1-1.6,2.1v2.5h10.6c1.2,0,1.8.7,1.8,1.5s-.6,1.6-1.8,1.6h-3.5v16.9c0,1-.8,1.6-1.7,1.6s-1.7-.5-1.7-1.6v-17Z"/>
                <path class="cls-8" d="M387.9,159.6c-1.1,0-2-.9-2-1.9s.2-1,.7-1.5c2.3-2.2,4.6-6,5.8-9,.3-.8,1-1.2,1.7-1.2,1,0,2,.7,2,1.9,0,1.6-3.7,8-6.5,10.9-.6.6-1.1.8-1.7.8ZM404.6,162.7h0c0,2.4-1.7,5.6-6.9,5.6s-5-.6-5-2.4.7-1.9,1.8-1.9.3,0,.5,0c.9.2,1.7.3,2.6.3,1.7,0,3-.6,3-2.5v-22.8c0-1.3,1-1.9,2-1.9s1.9.6,1.9,1.9v23.6ZM414.8,156.9c-1.4-2.8-3.8-6-6.1-8.1-.4-.4-.6-.9-.6-1.3,0-.9.9-1.6,1.8-1.6s1,.2,1.4.6c2.7,2.2,7.4,7.5,7.4,9.5s-1,2.1-2.1,2.1-1.4-.4-1.9-1.3Z"/>
                <path class="cls-8" d="M435.9,151.8c-1,1.5-2.1,2.9-3.3,4.3.2,0,.4,0,.6,0,1.5,0,3.3,0,5.1,0s4.7,0,7,0c2.2,0,3.8,1.6,3.8,3.2,0,.7,0,1.6,0,2.4s0,1.7,0,2.6c-.1,1.9-1.6,3.6-4,3.6-2.1,0-4.1.1-6.1.1s-3.8,0-5.8-.1c-2.6-.1-4-1.6-4.1-3.6,0-.6,0-1.1,0-1.6,0-1.1,0-2.2,0-3.1h0c-1.4,1.2-3,2.4-4.8,3.7-.4.3-.9.4-1.3.4-1,0-1.8-.9-1.8-1.8s.3-1.1,1-1.6c4.2-2.4,7.3-4.8,10-8.4h-8.9c-1.1,0-1.7-.7-1.7-1.5s.6-1.6,1.7-1.6h27.9c1.1,0,1.7.8,1.7,1.6s-.6,1.6-1.7,1.6h-15.3ZM445.9,139.3h0c0-1.1.9-1.7,1.7-1.7s1.9.6,1.9,1.7c0,.3,0,1,0,1.7s0,1.4,0,1.9c0,2.1-1.7,3.1-4.4,3.1-2.6,0-5.4,0-8.3,0s-5.5,0-7.9,0c-3.8,0-4-1.7-4-4.8s0-1.4,0-1.8c0-1.1,1-1.7,1.9-1.7s1.8.6,1.8,1.6h0v2.6c0,.8.1,1.2,1.3,1.2s3.4,0,5.4,0v-5.1c0-1.2.9-1.8,1.9-1.8s1.9.6,1.9,1.8v5.1c1.9,0,3.7,0,5.4,0,1.1,0,1.3-.4,1.4-1.2v-2.6ZM432.5,162.2c0,.4,0,.8,0,1.2.1,1.5.6,1.5,6.4,1.5s3.4,0,5,0c1.3,0,1.6-.5,1.6-2.8s0-1.1,0-1.7c0-1.4-.7-1.4-6-1.4s-3.7,0-5.4,0c-1.6,0-1.7,1.3-1.7,3.3Z"/>
                <path class="cls-8" d="M459.4,168.9c-.9,0-1.8-.6-1.8-1.6,0-6.7,0-18.9.2-26.7,0-3.5,2-3.5,5.4-3.5s1.4,0,2,0c2.1,0,3.2,1.2,3.2,2.8s-.2,1.8-2.2,6c-.2.4-.3.7-.3,1,0,.5.2,1,.6,1.5,1.3,1.6,2,3.2,2,5.7s-2,5.6-4.7,5.6-2.6-.1-2.6-1.8.6-1.6,1.3-1.6.3,0,.4,0c.2,0,.3,0,.5,0,.8,0,1.7-.7,1.7-2.7s-.5-3-1.4-4.3c-.7-1-1-1.8-1-2.6s.2-1.3.5-2.1c.8-1.8,1.5-4,1.5-4.3,0-.4-.2-.7-1.5-.7s-2.1,0-2.1,1.3c0,3.4,0,7.8,0,12.4v13.7c0,1.1-.9,1.6-1.7,1.6ZM465,167c0-.7.4-1.4,1.4-1.8,5-1.8,6.4-4.7,7-8.6.1-1,.9-1.4,1.6-1.4s1.9.7,1.9,1.7,0,.2,0,.3c-1.7,10-9.6,11.5-10.1,11.5-1.1,0-1.8-.8-1.8-1.7ZM485,146.6v-1.5c0-1.3-.5-1.6-1.7-1.6-1.5,0-3.3,0-5,0s-3.4,0-4.8,0c-1.4,0-1.8.4-1.8,1.5v1.6c0,1-.9,1.6-1.7,1.6s-1.7-.5-1.7-1.6v-1.9c0-1.7,0-4,3.8-4.1,1.3,0,2.7,0,4.1,0v-2.6s0,0,0,0c0-1.1.9-1.7,1.9-1.7s1.9.6,1.9,1.7h0s0,2.7,0,2.7c1.6,0,3.3,0,4.7,0,2.4.1,3.8,1.2,3.8,3.4v2.6c0,1-1,1.6-1.8,1.6s-1.7-.5-1.7-1.5h0ZM485.8,161.6c0-1,.8-1.5,1.6-1.5s1.9.3,1.9,1.8c0,5.3-2,6.3-6,6.3s-4.8-1.6-4.8-4.3,0-6.9.1-9.4h-8.3c-1,0-1.5-.7-1.5-1.5s.5-1.5,1.5-1.5h16.8c1,0,1.4.8,1.4,1.6s-.5,1.5-1.4,1.5h-5.1c0,2.1-.1,6.5-.1,8.3s.1,1.9,1.5,1.9c2.1,0,2.5-.6,2.5-2.8v-.4h0ZM474,149c-1,0-1.6-.7-1.6-1.5s.5-1.5,1.6-1.5h8.9c1,0,1.4.7,1.4,1.5s-.5,1.5-1.4,1.5h-8.9Z"/>
              </g>
              <g>
                <path class="cls-8" d="M359.8,197.6c-2.8,0-2.8-1.4-2.8-3.7s0-3.5,2.7-3.6c1.3,0,3.1,0,4.9,0s3.7,0,5.3,0c2.6,0,2.6,1.9,2.6,3.4,0,2.1,0,3.8-2.7,3.9-1.6,0-3.4,0-5.2,0h-1.8c-.4.5-.9,1-1.3,1.4,2.7,0,6.3,0,9,0h1.8c2,0,2.9,1.1,2.9,2.6s0,.5,0,.7c-.4,2.3-1.2,7-6.9,7s-1.8-.1-2.8-.3c-.5-.1-.8-.6-.8-1.1s.1-.6.3-.8c-.6,0-1.3,0-1.9,0-3.4,0-5.1-.3-5.1-2.3s0-2.2,0-2.6c0-.2,0-.3.1-.5-.8.6-3,2-3.8,2s-1.2-.5-1.2-1.1.2-.8.8-1.1c2.2-.9,4.1-2,6.2-4.1h-.4ZM369.2,188.8v.2c0,.6-.6,1-1.2,1s-1.2-.3-1.2-1v-.2h-3.6v.2c0,.6-.6,1-1.2,1s-1.2-.3-1.2-1v-.2h-5.6c-.8,0-1.1-.5-1.1-1.1s.4-1.1,1.1-1.1h5.6s0-.7,0-.7c0-.6.6-.9,1.2-.9s1.2.3,1.2.9v.7h3.6v-.7c0-.6.6-.9,1.2-.9s1.2.3,1.2.9v.7h5.9c.7,0,1.1.5,1.1,1.1s-.4,1.1-1.1,1.1h-5.9ZM360.3,204.5v.3c0,.6.4.8,2.7.8,3.4,0,3.8-.4,3.8-1.1s.5-.9,1.1-.9,1.2.3,1.2.9h0c0,1.7-.9,2.3-2.8,2.7.8.2,1.4.2,2,.2,3.7,0,4.2-4.8,4.2-5.2,0-.8-.4-1.1-1-1.1-2,0-5.4,0-8.5,0s-2.7,0-3.7,0c-.2.1-.4.3-.5.4.1,0,.3,0,.4,0,.6,0,1.1.3,1.1.9h0v.5c1.6-.3,4.6-.9,5.9-1.3.1,0,.3,0,.4,0,.6,0,1.1.5,1.1,1s-.2.7-.8.9c-1.4.4-5.1,1-6.5,1.1h0ZM370,192.8c0-.9-.4-.9-5.1-.9s-5.4,0-5.5,1v.3s10.6,0,10.6,0v-.4ZM370,194.6h-10.6c0,.2,0,.3,0,.5,0,.6.4.8,1.2.8,1.3,0,2.9,0,4.6,0s2.5,0,3.6,0c.6,0,1.1-.2,1.2-.8v-.4Z"/>
                <path class="cls-8" d="M385.7,192.4c.2,0,.5,0,.6,0,1.2.1,2.4.7,2.4,2.2,0,1.1,0,2.2,0,3.3,0,3.3,0,4.2-4.4,4.2s-1.3,0-1.8,0c0,.3,0,2.1,0,3.5,1.1-.3,2.3-.6,3.1-.9-.6-.8-.6-1-.6-1.1,0-.6.6-1,1.2-1s.6.1.9.3c.6.6,2.6,2.8,2.6,3.9s-.6,1.3-1.3,1.3-.8-.2-1.1-.8c-.1-.3-.3-.6-.5-.9-2.9,1.1-7.3,2.5-7.8,2.5-.7,0-1.1-.7-1.1-1.3s.4-.9,2.3-1.4v-2.2c0-3.5,0-8.5,0-9.5,0-1,.6-2.2,2.9-2.2v-1.4c0-.6.6-1,1.2-1s1.2.3,1.2,1v1.4ZM388,192c-.3,0-.6-.1-.9-.4-.9-1-1.5-2.1-2.3-3.2,0-.1-.2-.1-.3-.1s-.2,0-.3.2c-.9,1.5-2.3,3.2-3.6,4.5-.3.3-.6.4-1,.4-.8,0-1.4-.6-1.4-1.2s.1-.6.4-.9c1.3-1.2,2.9-3.2,3.5-4.1.5-.9,1.3-1.3,2.2-1.3s1.7.4,2.4,1.3c.6.8,1.5,2,2.4,2.9.2.2.3.5.3.7,0,.6-.7,1.3-1.4,1.3ZM382.6,198.1c0,.9,0,1.6,0,2.1.3,0,1,0,1.6,0s1.3,0,1.5,0c.8,0,.8-.6.8-2.1h-3.9ZM386.6,196.2c0-.4,0-.8,0-1.2,0-.6-.1-.8-1.9-.8s-1.9.2-1.9.8v1.1h3.9ZM394.4,196.2h-1.1c-.5,0-.8.3-.8.9,0,.9,0,2.5,0,4.2s0,3.3,0,4.3h0c0,.8-.6,1.1-1.2,1.1s-1.2-.4-1.2-1.1c0-1,0-2.6,0-4.3s0-3.5,0-4.6c0-2.6,1.8-2.6,4.2-2.6v-2.8h-1.9c-1.1,1.9-1.6,2.7-2.5,2.7s-1.2-.5-1.2-1.1,0-.5.3-.8c1.4-1.8,2.3-3.8,3-5.8.2-.5.6-.8,1.1-.8s1.3.4,1.3,1.1-.1.8-.8,2.3h7.2c0,0,0,0,0,0,.8,0,1.1.6,1.1,1.2s-.4,1.2-1.2,1.2h-4v2.8c.6,0,1.3,0,1.9,0,1.6,0,2.5.9,2.6,2.7v5.2c0,.4,0,.9,0,1.7h0c0,1.8-.9,2.8-2.5,2.8s-1.8-.8-1.8-1.3.3-1.1.8-1.1.1,0,.2,0c.2,0,.3,0,.5,0,.4,0,.5-.3.5-1v-2.5c0-1.3,0-2.8,0-3.5,0-.9-.6-.9-2.1-.9v12c0,.8-.6,1.3-1.2,1.3s-1.2-.4-1.2-1.3v-12Z"/>
                <path class="cls-8" d="M426,205.6c.8,0,1.2.6,1.2,1.2s-.4,1.2-1.2,1.2c-3.2,0-6.2.1-9.2.1s-4.9,0-7.3,0c-2.3,0-3.5-1.2-3.6-3.2,0-2-.1-4.3-.1-6.6s0-5.7.1-8.3c0-1.7,1.4-2.9,3.4-2.9,2.3,0,5.1,0,7.9,0s5.6,0,8.2,0c.8,0,1.2.6,1.2,1.2s-.4,1.2-1.2,1.2c-3.5,0-7.5,0-10.9,0s-2.9,0-4,0c-1.5,0-1.9.5-2,1.8,0,2.2,0,4.4,0,6.5s0,4.3,0,6.3c0,1.5.6,1.8,2.2,1.8,1.6,0,3.3,0,5.2,0,3.1,0,6.5,0,10.1-.1h0ZM411.2,204.3c-.8,0-1.4-.7-1.4-1.3s.2-.8.7-1c2.4-1.1,4.4-2.7,5.9-4.6-1.5-1-3-1.9-4.5-2.8-.5-.3-.6-.6-.6-1,0-.6.6-1.2,1.3-1.2s.5,0,.7.2c1.3.7,2.9,1.7,4.6,2.9.9-1.5,1.7-3.1,2.3-4.8.2-.5.6-.8,1.1-.8.7,0,1.5.6,1.5,1.4s-1.4,3.2-2.9,5.5c3.4,2.5,4.1,3.3,4.1,4.2s-.7,1.5-1.4,1.5-.7-.2-1.1-.6c-.9-1.1-1.9-2.1-3.1-3.1-3.2,4-6.4,5.5-7.2,5.5Z"/>
                <path class="cls-8" d="M434.4,208.8c-.7-1-2.2-2.2-3.3-2.8-.5-.3-.7-.7-.7-1.1,0-.6.5-1.2,1.3-1.2s5.3,2.4,5.3,4.2-.7,1.5-1.5,1.5-.8-.2-1-.6Z"/>
                <path class="cls-8" d="M452.1,196.8c-1.2-.9-2.5-1.5-3.5-1.8-.5-.2-.7-.5-.7-.9,0-.6.6-1.3,1.3-1.3s2.9.6,4.3,1.7c.4.3.6.7.6,1.1,0,.8-.6,1.5-1.3,1.5s-.5,0-.8-.3ZM450,208.7c-.8,0-1.4-.6-1.4-1.4s.1-.6.4-.9c1.7-1.8,3-4.3,4-6.6.2-.5.7-.7,1.1-.7.7,0,1.3.5,1.3,1.3s-2.1,5.3-4.2,7.7c-.4.5-.8.6-1.3.6ZM453.2,191.1c-1.1-1.3-2.3-1.9-3.2-2.5-.4-.2-.6-.5-.6-.8,0-.6.7-1.3,1.5-1.3s4.7,2,4.7,3.5-.7,1.5-1.4,1.5-.6-.1-.9-.5ZM456.1,207.7c-.8,0-1.2-.6-1.2-1.2s.4-1.2,1.2-1.2h5.8s0-14.7,0-14.7h-4.3c-.8,0-1.2-.6-1.2-1.2s.4-1.2,1.2-1.2h12.1c.9,0,1.3.6,1.3,1.2s-.4,1.2-1.3,1.2h-5s0,14.7,0,14.7h6.1c.9,0,1.3.6,1.3,1.2s-.4,1.2-1.3,1.2h-14.7Z"/>
                <path class="cls-8" d="M477.4,208.2c-.4.5-.8.6-1.3.6-.8,0-1.5-.6-1.5-1.3s.1-.6.4-.9c2.7-3.1,3.1-6.4,3.1-11s0-1.2,0-1.8h0c0-1.5.8-2.6,2.9-2.7,1.9,0,3.8,0,5.7,0s3.9,0,5.9,0c3.3,0,3.3,1.8,3.3,4.2s-.1,4.1-3.3,4.2c-2.2,0-4.3,0-6.6,0s-3.4,0-5.4,0c-.4,3.3-1.3,6.2-3.2,8.5ZM477.2,188.9c-.8,0-1.2-.6-1.2-1.2s.4-1.2,1.2-1.2h19.5c.7,0,1.1.6,1.1,1.2s-.4,1.2-1.1,1.2h-19.5ZM485.1,197.3c2.6,0,4.9,0,7.1-.1.9,0,1.1-.6,1.1-1.7s0-1.8-1.2-1.9c-1.5,0-3,0-4.4,0s-3.7,0-5.7,0c-.8,0-1.2.4-1.2,1.1s0,1.7,0,2.5c1.6,0,3,0,4.3,0Z"/>
                <path class="cls-8" d="M499.8,209c-.8,0-1.6-.7-1.6-1.4s.1-.5.4-.8c4.1-4.1,4.2-9.3,4.2-14.1s0-3.8-.1-5.3h0c0-.8.6-1.2,1.3-1.2s1.4.4,1.5,1.2c0,.6,0,1.3,0,2,0,1.8,0,3.9,0,5.4,0,3.9-.5,9.5-4.5,13.7-.3.3-.7.5-1.1.5ZM509.9,188c0-.8.6-1.2,1.3-1.2s1.3.4,1.3,1.2v17.8c0,.7-.7,1.1-1.3,1.1s-1.3-.4-1.3-1.1v-17.8ZM517.4,187.2c0-.8.7-1.2,1.3-1.2s1.4.4,1.4,1.2v20.6c0,.7-.7,1.1-1.3,1.1s-1.3-.4-1.3-1.1v-20.6Z"/>
                <path class="cls-8" d="M545.9,205.6c.8,0,1.2.6,1.2,1.2s-.4,1.2-1.2,1.2c-3.2,0-6.2.1-9.2.1s-4.9,0-7.3,0c-2.3,0-3.5-1.2-3.6-3.2,0-2-.1-4.3-.1-6.6s0-5.7.1-8.3c0-1.7,1.4-2.9,3.4-2.9,2.3,0,5.1,0,7.9,0s5.6,0,8.2,0c.8,0,1.2.6,1.2,1.2s-.4,1.2-1.2,1.2c-3.5,0-7.5,0-10.9,0s-2.9,0-4,0c-1.5,0-1.9.5-2,1.8,0,2.2,0,4.4,0,6.5s0,4.3,0,6.3c0,1.5.6,1.8,2.2,1.8,1.6,0,3.3,0,5.2,0,3.1,0,6.5,0,10.1-.1h0ZM531,204.3c-.8,0-1.4-.7-1.4-1.3s.2-.8.7-1c2.4-1.1,4.4-2.7,5.9-4.6-1.5-1-3-1.9-4.5-2.8-.5-.3-.6-.6-.6-1,0-.6.6-1.2,1.3-1.2s.5,0,.7.2c1.3.7,2.9,1.7,4.6,2.9.9-1.5,1.7-3.1,2.3-4.8.2-.5.6-.8,1.1-.8.7,0,1.5.6,1.5,1.4s-1.4,3.2-2.9,5.5c3.4,2.5,4.1,3.3,4.1,4.2s-.7,1.5-1.4,1.5-.7-.2-1.1-.6c-.9-1.1-1.9-2.1-3.1-3.1-3.2,4-6.4,5.5-7.2,5.5Z"/>
              </g>
            </g>
          </g>
          <g>
            <rect class="cls-16" x="362.8" y="450.7" width="201.3" height="113.4"/>
            <polygon class="cls-6" points="419.7 421.8 456.8 450.7 432.4 450.7 419.7 421.8"/>
            <g>
              <g>
                <path class="cls-8" d="M397.2,495.4v6.4c0,1-.9,1.5-1.8,1.5s-1.8-.5-1.8-1.5v-6.4h-4.4c-1.1,0-1.7-.7-1.7-1.5s.6-1.6,1.7-1.6h4.4v-8.1c-2.7,4.8-6.8,9.4-11.5,13-.4.3-.9.5-1.3.5-1,0-1.9-.8-1.9-1.7s.3-1.1,1-1.6c4.8-3.3,9.1-7.7,12.2-13.2h-10.2c0,.1,0,.1,0,.1-1.1,0-1.7-.8-1.7-1.6s.6-1.7,1.7-1.7h11.8v-6.2c0-1.1.9-1.6,1.7-1.6s1.8.6,1.8,1.6v6.2h11.8c1.1,0,1.6.8,1.6,1.7s-.5,1.6-1.6,1.6h-10.3c3.3,5.2,7.8,9.1,12.3,12,.6.4.9,1,.9,1.5,0,1-1,2-2.1,2s-.9-.1-1.3-.4c-3.9-2.8-8.3-7.5-11.3-12.4v7.4c.1,0,.1,1,.1,1h4.4c1.1,0,1.6.8,1.6,1.6s-.5,1.6-1.6,1.6h-4.4Z"/>
                <path class="cls-8" d="M415.8,502.3c-1.2,0-2.3-1-2.3-2.1s.2-1,.8-1.3c7.7-5,9.2-11.8,9.7-19.5,0-1.1,1-1.6,1.9-1.6s2,.6,2,1.8h0c-.7,8.8-2.7,16.8-10.8,22.3-.4.3-.9.4-1.4.4ZM426.4,476.1h0c-1.2,0-1.8-.9-1.8-1.7s.6-1.7,1.7-1.7c1.5,0,3.3,0,5.1,0s5.6,0,5.7,4c.3,7.5,2,16.6,9.9,20.9.8.4,1.1,1.1,1.1,1.7,0,1.1-1.1,2.3-2.4,2.3s-.9-.1-1.3-.4c-8.3-5.2-10.3-15.2-11-23.6,0-1-.6-1.5-1.5-1.5h-5.5Z"/>
                <path class="cls-8" d="M480.9,482l-6.3-.2c2.1,1.9,4.6,3.4,6.9,4.4.7.3,1,.9,1,1.4,0,.9-.8,1.8-1.8,1.8s-5.5-3.5-7.7-5.8v3.4c.1,1.1-.9,1.4-1.5,1.4s-1.6-.4-1.6-1.3h0c0,0,.1-3.3.1-3.3-1.8,2.4-5.7,6.1-7.2,6.1s-.9-.2-1.1-.5c0,.7,0,1.3,0,1.5v.2c0,2-1.2,2.9-2.8,2.9s-1.2,0-1.6-.6v8.5c0,1-.7,1.4-1.5,1.4s-1.6-.5-1.6-1.4v-22.1c0,0-.1,0-.1,0-.8,0-1.1.4-1.1,1.2,0,2.4,0,5.4,0,8.4v3.6h0c0,1.1-.7,1.6-1.4,1.6s-1.4-.5-1.5-1.6c0-1.7,0-3.4,0-5.3s0-5.1,0-7.2c0-2.2,1-3.3,3.4-3.4h.7v-5.1c0-1.1.8-1.6,1.6-1.6s1.7.6,1.7,1.6v5.1c.3,0,.7,0,1,0,1.9.1,2.9,1,3.1,2.7.2-.4.6-.7,1.2-.7h2.5c-.9-1.1-.9-1.4-.9-1.6,0-.7.9-1.3,1.6-1.3s1.3.3,2.6,2.9h1.3s0-3.6,0-3.6c-2.5.1-4.6.2-5.3.2h0c-1.1,0-1.7-.8-1.7-1.5s.5-1.4,1.6-1.4h0c.4,0,1,0,1.4,0,3.5,0,8-.4,11.6-1.4.1,0,.3,0,.4,0,.9,0,1.6.8,1.6,1.6,0,1.3-1,1.7-6.5,2.3v3.9h1.2c.5-1,.9-1.9,1.2-2.7.2-.6.7-.9,1.3-.9.9,0,1.7.7,1.7,1.6s-.1.6-1,2h3.3s0,0,0,0c.9,0,1.3.7,1.3,1.5s-.4,1.4-1.3,1.4h0ZM457.4,491.1c.1-.2.4-.4.7-.4s.1,0,.2,0h.1c.2,0,.5-.1.5-.6v-3.4c0-1.9,0-4.2,0-5.8,0-.7-.3-1.1-1.1-1.2-.1,0-.3,0-.4,0v11.4ZM462.9,482c-.6,0-1-.3-1.2-.6,0,1.7,0,4.1,0,6.1.1-.1.3-.3.4-.4,2.6-1.5,4.5-3.1,6.3-5.3l-5.6.2ZM476.1,502.4c-1.3,0-2.8.1-4.4.1s-3.1,0-4.4-.1c-2.4-.1-3.5-1.4-3.6-3.2,0-1.1,0-2.3,0-3.6s0-2.6,0-3.7c0-1.4,1-2.8,3.6-3,1.3,0,2.7,0,4.2,0s3,0,4.4,0c2.3,0,3.5,1.4,3.6,2.9,0,1.1,0,2.4,0,3.7s0,2.6,0,3.7c-.1,1.7-1.3,3-3.5,3.1ZM470,491.3c-.7,0-1.3,0-1.9,0-1.2,0-1.4.5-1.4,2.9h3.3v-3ZM470,496.7h-3.3c0,.7,0,1.4,0,2,0,1.2.8,1.2,3.2,1.2v-3.2ZM476.5,494.3c0-.6,0-1.1,0-1.7,0-1.2-.3-1.3-3.4-1.3v3h3.4ZM473.1,496.7v3.2c.7,0,1.5,0,2.1,0,1.2,0,1.3-.5,1.3-3.2h-3.4Z"/>
                <path class="cls-8" d="M488.5,503.4c-.9,0-1.8-.6-1.8-1.6,0-6.7,0-18.9.2-26.7,0-3.5,2-3.5,5.4-3.5s1.4,0,2,0c2.1,0,3.2,1.2,3.2,2.8s-.2,1.8-2.2,6c-.2.4-.3.7-.3,1,0,.5.2,1,.6,1.5,1.3,1.6,2,3.2,2,5.7s-2,5.6-4.7,5.6-2.6-.1-2.6-1.8.6-1.6,1.3-1.6.3,0,.4,0c.2,0,.3,0,.5,0,.8,0,1.7-.7,1.7-2.7s-.5-3-1.4-4.3c-.7-1-1-1.8-1-2.6s.2-1.3.5-2.1c.8-1.8,1.5-4,1.5-4.3,0-.4-.2-.7-1.5-.7s-2.1,0-2.1,1.3c0,3.4,0,7.8,0,12.4v13.7c0,1.1-.9,1.6-1.7,1.6ZM494,501.5c0-.7.4-1.4,1.4-1.8,5-1.8,6.4-4.7,7-8.6.1-1,.9-1.4,1.6-1.4s1.9.7,1.9,1.7,0,.2,0,.3c-1.7,10-9.6,11.5-10.1,11.5-1.1,0-1.8-.8-1.8-1.7ZM514,481.1v-1.5c0-1.3-.5-1.6-1.7-1.6-1.5,0-3.3,0-5,0s-3.4,0-4.8,0c-1.4,0-1.8.4-1.8,1.5v1.6c0,1-.9,1.6-1.7,1.6s-1.7-.5-1.7-1.6v-1.8c0-1.7,0-4,3.8-4.1,1.3,0,2.7,0,4.1,0v-2.6s0,0,0,0c0-1.1.9-1.7,1.9-1.7s1.9.6,1.9,1.7h0s0,2.7,0,2.7c1.6,0,3.3,0,4.7,0,2.4.1,3.8,1.2,3.8,3.4v2.6c0,1-1,1.6-1.9,1.6s-1.7-.5-1.7-1.5h0ZM514.9,496.1c0-1,.8-1.5,1.6-1.5s1.9.3,1.9,1.8c0,5.3-2,6.3-6,6.3s-4.8-1.6-4.8-4.3,0-6.9.1-9.4h-8.3c-1,0-1.5-.7-1.5-1.5s.5-1.5,1.5-1.5h16.8c1,0,1.4.8,1.4,1.6s-.5,1.5-1.4,1.5h-5.1c0,2.1-.1,6.5-.1,8.3s.1,1.9,1.5,1.9c2.1,0,2.5-.6,2.5-2.8v-.4h0ZM503,483.5c-1,0-1.6-.7-1.6-1.5s.5-1.5,1.6-1.5h8.9c1,0,1.4.7,1.4,1.5s-.5,1.5-1.4,1.5h-8.9Z"/>
              </g>
              <g>
                <path class="cls-8" d="M392.4,526h-10.1c-.9,0-1.3-.6-1.3-1.2s.4-1.3,1.3-1.3h8.8c0,0,0-2.5,0-2.5,0-.8.7-1.3,1.4-1.3s1.4.4,1.4,1.3v2.6s8.7,0,8.7,0c.8,0,1.3.6,1.3,1.2s-.4,1.3-1.3,1.3h-10.2ZM391.1,531c-1.5,0-3,0-3.8,0-.7,0-1.1.4-1.1,1.2,0,1,0,2.5,0,4s0,3.1,0,4.4h0c0,.8-.6,1.2-1.3,1.2s-1.3-.4-1.4-1.2v-1.6c0-2.4,0-5.2,0-7.2,0-1.9,1.2-2.9,3.2-3,1,0,2.6,0,4.3,0v-1c0-.9.7-1.3,1.3-1.3s1.3.4,1.3,1.3v1c1.8,0,3.5,0,4.6,0,1.8,0,3.1,1,3.1,2.9,0,.9,0,1.8,0,2.6v1.7c0,.5,0,1,0,2h0c0,1.9-1.4,3.4-3.9,3.4s-2.8-.2-2.8-1.5.4-1.3,1.1-1.3.2,0,.3,0c.4.1.9.2,1.4.2.7,0,1.3-.3,1.3-1.1,0,0,0-3.9,0-5.7,0-.6-.3-1-1-1-.9,0-2.4,0-4,0v11.5c0,.9-.7,1.3-1.3,1.3s-1.4-.4-1.4-1.3v-11.5Z"/>
                <path class="cls-8" d="M406.1,543.5c-.8,0-1.6-.7-1.6-1.4s.1-.5.4-.8c4.1-4.1,4.2-9.3,4.2-14.1s0-3.8-.1-5.3h0c0-.8.6-1.2,1.3-1.2s1.4.4,1.5,1.2c0,.6,0,1.3,0,2,0,1.8,0,3.9,0,5.4,0,3.9-.5,9.5-4.5,13.7-.3.3-.7.5-1.1.5ZM416.2,522.5c0-.8.6-1.2,1.3-1.2s1.3.4,1.3,1.2v17.8c0,.7-.7,1.1-1.3,1.1s-1.3-.4-1.3-1.1v-17.8ZM423.7,521.7c0-.8.7-1.2,1.3-1.2s1.4.4,1.4,1.2v20.6c0,.7-.7,1.1-1.3,1.1s-1.3-.4-1.3-1.1v-20.6Z"/>
                <path class="cls-8" d="M442.3,526h-10.1c-.9,0-1.3-.6-1.3-1.2s.4-1.3,1.3-1.3h8.8c0,0,0-2.5,0-2.5,0-.8.7-1.3,1.4-1.3s1.4.4,1.4,1.3v2.6s8.7,0,8.7,0c.8,0,1.3.6,1.3,1.2s-.4,1.3-1.3,1.3h-10.2ZM441,531c-1.5,0-3,0-3.8,0-.7,0-1.1.4-1.1,1.2,0,1,0,2.5,0,4s0,3.1,0,4.4h0c0,.8-.6,1.2-1.3,1.2s-1.3-.4-1.4-1.2v-1.6c0-2.4,0-5.2,0-7.2,0-1.9,1.2-2.9,3.2-3,1,0,2.6,0,4.3,0v-1c0-.9.7-1.3,1.3-1.3s1.3.4,1.3,1.3v1c1.8,0,3.5,0,4.6,0,1.8,0,3.1,1,3.1,2.9,0,.9,0,1.8,0,2.6v1.7c0,.5,0,1,0,2h0c0,1.9-1.4,3.4-3.9,3.4s-2.8-.2-2.8-1.5.4-1.3,1.1-1.3.2,0,.3,0c.4.1.9.2,1.4.2.7,0,1.3-.3,1.3-1.1,0,0,0-3.9,0-5.7,0-.6-.3-1-1-1-.9,0-2.4,0-4,0v11.5c0,.9-.7,1.3-1.3,1.3s-1.4-.4-1.4-1.3v-11.5Z"/>
                <path class="cls-8" d="M459.7,543.3c-.7-1-2.2-2.2-3.3-2.8-.5-.3-.7-.7-.7-1.1,0-.6.5-1.2,1.3-1.2s5.3,2.4,5.3,4.2-.7,1.5-1.5,1.5-.8-.2-1-.6Z"/>
                <path class="cls-8" d="M477.3,530.7c-1.1-.9-2.2-1.3-3.2-1.6-.5-.2-.7-.5-.7-.9,0-.6.5-1.3,1.3-1.3s3.1.9,4,1.6c.4.3.6.7.6,1.1,0,.8-.6,1.5-1.2,1.5s-.5,0-.8-.3ZM475.1,543.1c-.7,0-1.4-.6-1.4-1.3s0-.5.3-.8c1.5-1.9,2.8-4.2,3.7-6.4.2-.5.6-.7,1.1-.7s1.3.5,1.3,1.2-1.6,4.4-3.7,7.3c-.4.5-.9.7-1.3.7ZM478.1,524.8c-.8-1-2.1-1.7-2.7-2.1-.4-.2-.5-.5-.5-.8,0-.6.6-1.3,1.3-1.3s4.2,1.7,4.2,3.2-.7,1.5-1.4,1.5-.6-.1-.9-.5ZM489.8,537.9v4.8c0,.7-.6,1.1-1.2,1.1s-1.2-.4-1.2-1.1v-4.8h-3.4c0,1.6,0,3.2,0,4.8h0c0,.8-.6,1.1-1.2,1.1s-1.2-.4-1.2-1.1c0-1.7,0-3.5,0-5.3s0-5,0-7.3c0-1.6.9-2.4,2.9-2.5.9,0,1.8,0,2.9,0v-1.8h-5.5c-.8,0-1.2-.5-1.2-1.1s.4-1.1,1.2-1.1h5.5c0,0,0-2.4,0-2.4,0-.8.6-1.2,1.2-1.2s1.2.4,1.2,1.2v2.5h6c.8,0,1.2.5,1.2,1.1s-.4,1.1-1.2,1.1h-6c0,0,0,1.7,0,1.7,1.1,0,2.1,0,3.1,0,1.8,0,2.7.9,2.8,2.5v1.1c0,1.5,0,2.9,0,3.9,0,2,.1,4.6.1,4.9v.2c0,1.7-1,3.2-3.1,3.2s-2-.8-2-1.3.3-1.1.9-1.1.2,0,.2,0c.2,0,.4,0,.6,0,.5,0,.8-.3.8-1.5,0,0,0-.8,0-1.9h-3.5ZM487.4,533.7h-3.4c0,.7,0,1.5,0,2.2h3.4v-2.2ZM487.4,529.6c-.9,0-1.7,0-2.5,0-.6,0-.9.3-.9.9v1.2s3.3,0,3.3,0v-2.1ZM493.3,531.7c0-.4,0-.8,0-1.2,0-.5-.3-.9-1-.9-.8,0-1.6,0-2.5,0v2.1h3.5ZM489.8,533.7v2.2h3.5c0-.7,0-1.5,0-2.2h-3.5ZM493.4,523.3c-.6-.7-1.3-1-2-1.3-.3-.1-.4-.4-.4-.6,0-.5.6-1.1,1.2-1.1s2.9,1,2.9,2.1-.5,1.2-1.1,1.2-.4,0-.6-.3Z"/>
                <path class="cls-8" d="M516.5,532.2c-.2,1.9-.8,3.5-1.5,4.9,2.6,1.2,6,3.3,6,4.6s-.7,1.4-1.5,1.4-.7-.1-1-.5c-1.4-1.5-3-2.7-4.9-3.6-3.3,3.8-9,4.5-11.9,4.5s-1.5-.7-1.5-1.3.5-1.2,1.4-1.2c4,0,7.4-.8,9.6-3-1.1-.4-2.3-.7-3.6-.9-.4,1.1-.8,1.8-1.9,1.8s-1.3-.4-1.3-1,0-.4.2-.6c.8-1.6,1.6-3.4,2.2-5.2h-5.5c-.8,0-1.2-.6-1.2-1.2s.4-1.1,1.2-1.1h6.2c.3-1,.6-2.1.8-3.1.2-.7.8-1,1.3-1s1.3.4,1.3,1.1-.4,1.7-.8,3h11.1c.8,0,1.2.6,1.2,1.1s-.4,1.2-1.2,1.2h-4.8ZM512.7,522.8c2,0,4,0,6,0,1.5,0,3,1.2,3,2.8,0,.4,0,.9,0,1.3,0,1,0,2.1-1.5,2.1s-1.3-.4-1.3-1.2h0c0-2.4,0-2.8-1.6-2.8-2.1,0-4.5,0-6.8,0s-3.8,0-5.4,0c-1.5,0-1.6.5-1.7,1.5v1.3h0c0,.8-.7,1.2-1.3,1.2s-1.3-.4-1.3-1.3c0-.4,0-.7,0-1.1s0-.8,0-1.2c0-1.3,1-2.6,3.1-2.7,2,0,4,0,6.1,0v-2c0-.8.7-1.2,1.4-1.2s1.4.4,1.4,1.2v2ZM509.4,532.2c-.3,1-.7,2-1.1,3,1.4.2,2.9.5,4.2,1,.6-1.1,1-2.4,1.2-4h-4.3Z"/>
                <path class="cls-8" d="M537,526h-10.1c-.9,0-1.3-.6-1.3-1.2s.4-1.3,1.3-1.3h8.8c0,0,0-2.5,0-2.5,0-.8.7-1.3,1.4-1.3s1.4.4,1.4,1.3v2.6s8.7,0,8.7,0c.8,0,1.3.6,1.3,1.2s-.4,1.3-1.3,1.3h-10.2ZM535.7,531c-1.5,0-3,0-3.8,0-.7,0-1.1.4-1.1,1.2,0,1,0,2.5,0,4s0,3.1,0,4.4h0c0,.8-.6,1.2-1.3,1.2s-1.3-.4-1.4-1.2v-1.6c0-2.4,0-5.2,0-7.2,0-1.9,1.2-2.9,3.2-3,1,0,2.6,0,4.3,0v-1c0-.9.7-1.3,1.3-1.3s1.3.4,1.3,1.3v1c1.8,0,3.5,0,4.6,0,1.8,0,3.1,1,3.1,2.9,0,.9,0,1.8,0,2.6v1.7c0,.5,0,1,0,2h0c0,1.9-1.4,3.4-3.9,3.4s-2.8-.2-2.8-1.5.4-1.3,1.1-1.3.2,0,.3,0c.4.1.9.2,1.4.2.7,0,1.3-.3,1.3-1.1,0,0,0-3.9,0-5.7,0-.6-.3-1-1-1-.9,0-2.4,0-4,0v11.5c0,.9-.7,1.3-1.3,1.3s-1.4-.4-1.4-1.3v-11.5Z"/>
              </g>
            </g>
          </g>
          <g>
            <rect class="cls-13" x="25.5" y="413.9" width="215.4" height="150.2"/>
            <g>
              <g>
                <path class="cls-8" d="M48.6,450.8h-3.9c-1,0-1.5-.7-1.5-1.4s.5-1.4,1.5-1.4h3.9v-2.6h-1.4c-.6,0-1-.3-1.2-.6-.8,1.2-1.5,1.3-1.8,1.3-.9,0-1.8-.7-1.8-1.6s.1-.7.5-1.1c1.6-1.8,3.4-4.6,4.6-7,.6-1.3,1.6-2,2.7-2s2.1.6,2.9,2c.8,1.4,2.6,3.8,3.7,5.1.3.3.4.6.4,1,0,.9-.8,1.7-1.7,1.7s-.5,0-.7-.2h0c0,.8-.5,1.5-1.4,1.5h-1.5v2.6h3.3c.9,0,1.4.7,1.4,1.4s-.5,1.4-1.4,1.4h-3.3v8.6c1.1-.4,2.1-.9,3-1.3.2-.1.4-.1.6-.1.8,0,1.4.7,1.4,1.6s-.3,1-.9,1.4c-4.1,2.1-10.4,3.8-11.5,3.8s-1.7-.8-1.7-1.7.4-1.4,1.3-1.6c1.6-.3,3.2-.7,4.7-1.1v-9.6ZM45.1,458.2c-.3-1.4-1.1-3.1-1.5-3.9-.1-.2-.2-.5-.2-.7,0-.7.8-1.3,1.6-1.3s.8.1,1.1.4c1.3,1.5,2,4.3,2,4.7,0,1.1-.9,1.8-1.7,1.8s-1.1-.3-1.3-1.1ZM53.5,442.4c-1-1.5-2.3-3.4-2.8-4.3,0-.1-.2-.2-.3-.2s-.2,0-.3.2c-.7,1.4-1.6,3-2.5,4.3h5.9ZM53.4,457.5c-.6,0-1.3-.4-1.3-1.1s0-.5.2-.7c.4-.7.9-2,1-2.8.1-.7.6-1,1.1-1,.7,0,1.5.6,1.5,1.4s-1.3,3.4-1.5,3.7c-.3.4-.7.6-1.1.6ZM63.9,454.3c-.8,0-1.5,0-2.2,0-1.2,0-1.2.5-1.2,4.7s0,2.6,0,4h0c0,1-.8,1.5-1.7,1.5s-1.7-.5-1.7-1.5h0c0-2.6,0-5.6,0-8s1.3-3.5,3.7-3.6c.9,0,1.9,0,2.9,0v-1.4c0-.3,0-.6.2-.9-2.4,0-6.1,0-6.2-3.3,0-.7,0-1.5,0-2.3,0-1.3,0-2.6,0-3.8,0-1.6,1.3-3.1,3.8-3.1h1.6c.2-.8.4-1.7.4-2.4,0-.8.8-1.1,1.6-1.1s1.9.6,1.9,1.6,0,.2,0,.3c-.1.5-.3,1-.4,1.6,1,0,2.1,0,3.2,0,1.8,0,3.5,1.5,3.6,2.9,0,1.1,0,2.3,0,3.4s0,1.9,0,2.8c0,1.8-1.6,3.2-3.7,3.3-.9,0-1.8,0-2.7,0,.1.3.2.6.2.9v1.3c1.2,0,2.4,0,3.4,0,2.2.1,3.6,1.3,3.7,3.6,0,2.2,0,1.9,0,3.2s0,.7,0,2v.2c0,2.3-1.3,3.7-3.7,3.7s-2.7,0-2.7-1.7.4-1.5,1.1-1.5h.1c.3,0,.5,0,.7,0,.6,0,1-.2,1-1.4h0c0-.1,0-2.7,0-4,0-1.3-.6-1.4-3.8-1.4v10.7c0,1.1-.9,1.7-1.7,1.7s-1.7-.6-1.7-1.7v-10.6ZM70.3,441.5c0-.3,0-.6,0-.9,0-1.4-1-1.4-4.7-1.4s-4.5,0-4.6,1.4c0,.3,0,.6,0,.9h9.3ZM61,444.1c0,2.3,0,2.4,4.7,2.4s4.5,0,4.6-1.3c0-.3,0-.7,0-1.1h-9.3Z"/>
                <path class="cls-8" d="M80.9,464.7c-1.1,0-2-1-2-1.9s.4-1.3,1.2-1.6c2.7-1.1,5-3.1,6.6-5.6.4-.5.9-.7,1.3-.7,1,0,2,.9,2,1.9,0,2-7.2,7.9-9.1,7.9ZM92.7,453.1c-1.7.2-8.2.9-11,.9s-1.8-.9-1.8-1.7.6-1.6,1.7-1.6c1.8,0,3.6-.1,5.6-.3,0,0,.1-.1.2-.2.9-.6,1.9-1.4,2.8-2.2-1.8-1.6-4-2.9-6-4-.6-.3-.9-.9-.9-1.4,0-.9.7-1.7,1.7-1.7s.8,0,2,.7c1.4-1.3,3.6-4.4,4.7-6.7.3-.6.9-.9,1.5-.9,1,0,2.1.7,2.1,1.7s-3.6,5.7-5.6,7.5c1.1.7,2.1,1.4,3,2.3,2.2-2.1,4.2-4.6,5.5-6.6.4-.6,1-.8,1.6-.8,1,0,2,.7,2,1.7,0,2.3-9,9.7-9.5,10.1,3.1-.3,6.3-.6,9.2-1-.4-.4-.9-.7-1.4-1-.6-.4-.8-.9-.8-1.3,0-.8.7-1.5,1.7-1.5,1.8,0,7.9,5.3,7.9,7.5s-1,2-1.9,2-1-.3-1.4-.9c-.4-.9-1-1.6-1.6-2.4-2.3.4-5,.9-7.9,1.3v12.3c0,1-.9,1.5-1.8,1.5s-1.8-.5-1.8-1.5v-11.9ZM105.5,463.2c-1.5-2.1-3.9-3.8-6.5-5.1-.7-.3-1-.9-1-1.4,0-.9.8-1.8,1.8-1.8s6.2,2.9,8.6,5.5c.4.5.6,1,.6,1.6,0,1.1-1,2.1-2,2.1s-1.1-.3-1.5-.9Z"/>
                <path class="cls-8" d="M136.4,441.7h-6.2c0,1.5,0,3.3,0,5.1,0,3.3,0,6.5-.1,8.4,0,2-1.6,3.7-3.8,3.8-1.3,0-2.7.1-4.1.1s-2.7,0-4-.1c-2.5-.2-3.7-1.7-3.8-3.8,0-1.9,0-5.1,0-8.2s0-6.3,0-8.2c0-1.7,1.1-3.5,3.8-3.6,1.3,0,2.7,0,4,0s2.7,0,4,0c2.3.1,3.7,1.5,3.8,3.3h14c1.2,0,1.8.8,1.8,1.6s-.6,1.6-1.8,1.6h-4.1v19.2q0,0,0,0c0,2.3-1.7,5.1-6.3,5.1s-4.8-1.4-4.8-2.2.7-1.8,1.7-1.8.4,0,.6,0c.8.2,1.7.4,2.4.4,1.5,0,2.7-.6,2.7-2.3v-18.5ZM120.7,438.1c-2.1,0-2.9.1-3,1.6,0,1.2-.1,3.2-.1,5.3h3.1v-6.9ZM120.7,447.8h-3.1c0,2.7,0,5.3.1,6.8,0,1,.6,1.4,1.6,1.5.4,0,.9,0,1.4,0v-8.3ZM127.1,444.9c0-2.1,0-4.1,0-5.3,0-1.5-.6-1.6-3.1-1.6v6.9h3.2ZM123.9,447.8v8.4c1.9,0,3.1-.1,3.1-1.6,0-1.5,0-4.1,0-6.7h-3.2Z"/>
                <path class="cls-8" d="M152,466.6c-.9,0-1.8-.6-1.8-1.6,0-6.7,0-18.9.2-26.7,0-3.5,2-3.5,5.4-3.5s1.4,0,2,0c2.1,0,3.2,1.2,3.2,2.8s-.2,1.8-2.2,6c-.2.4-.3.7-.3,1,0,.5.2,1,.6,1.5,1.3,1.6,2,3.2,2,5.7s-2,5.6-4.7,5.6-2.6-.1-2.6-1.8.6-1.6,1.3-1.6.3,0,.4,0c.2,0,.3,0,.5,0,.8,0,1.7-.7,1.7-2.7s-.5-3-1.4-4.3c-.7-1-1-1.8-1-2.6s.2-1.3.5-2.1c.8-1.8,1.5-4,1.5-4.3,0-.4-.2-.7-1.5-.7s-2.1,0-2.1,1.3c0,3.4,0,7.8,0,12.4v13.7c0,1.1-.9,1.6-1.7,1.6ZM157.6,464.6c0-.7.4-1.4,1.4-1.8,5-1.8,6.4-4.7,7-8.6.1-1,.9-1.4,1.6-1.4s1.9.7,1.9,1.7,0,.2,0,.3c-1.7,10-9.6,11.5-10.1,11.5-1.1,0-1.8-.8-1.8-1.7ZM177.6,444.2v-1.5c0-1.3-.5-1.6-1.7-1.6-1.5,0-3.3,0-5,0s-3.4,0-4.8,0c-1.4,0-1.8.4-1.8,1.5v1.6c0,1-.9,1.6-1.7,1.6s-1.7-.5-1.7-1.6v-1.9c0-1.7,0-4,3.8-4.1,1.3,0,2.7,0,4.1,0v-2.6s0,0,0,0c0-1.1.9-1.7,1.9-1.7s1.9.6,1.9,1.7h0s0,2.7,0,2.7c1.6,0,3.3,0,4.7,0,2.4.1,3.8,1.2,3.8,3.4v2.6c0,1-1,1.6-1.9,1.6s-1.7-.5-1.7-1.5h0ZM178.4,459.2c0-1,.8-1.5,1.6-1.5s1.9.3,1.9,1.8c0,5.3-2,6.3-6,6.3s-4.8-1.6-4.8-4.3,0-6.9.1-9.4h-8.3c-1,0-1.5-.7-1.5-1.5s.5-1.5,1.5-1.5h16.8c1,0,1.4.8,1.4,1.6s-.5,1.5-1.4,1.5h-5.1c0,2.1-.1,6.5-.1,8.3s.1,1.9,1.5,1.9c2.1,0,2.5-.6,2.5-2.8v-.4h0ZM166.5,446.6c-1,0-1.6-.7-1.6-1.5s.5-1.5,1.6-1.5h8.9c1,0,1.4.7,1.4,1.5s-.5,1.5-1.4,1.5h-8.9Z"/>
              </g>
              <g>
                <path class="cls-8" d="M45.5,506.2c-.7,0-1-.5-1-.9s.4-.9,1-.9h9v-1.4h-6.2c-.7,0-1.1-.5-1.1-.9s.4-.9,1.1-.9h6.2v-.6c0-.7.6-1,1.2-1s1.3.4,1.3,1.1v.5h6.4c.7,0,1,.5,1,.9s-.3.9-1,.9h-6.4v1.4h9.3c.7,0,1,.5,1,.9s-.3.9-1,.9h-20.8ZM45.8,496.7c-.6,0-1-.5-1-.9s.3-.9,1-.9h8.8v-1.1h-6.8c-.6,0-1-.4-1-.9s.3-.9,1-.9h6.8v-1c-1.5,0-2.9,0-4.1,0-1.9,0-2.9-.9-2.9-2,0-.5,0-1,0-1.6s0-1.1,0-1.5c0-.9.8-2,2.9-2,1.4,0,3.4,0,5.4,0s4.1,0,5.8,0c1.6,0,2.7,1,2.8,1.9,0,.4,0,1,0,1.6s0,1.1,0,1.6c0,1.1-1.1,2-2.9,2.1-1.3,0-2.9,0-4.5,0v1h6.8c.7,0,1.1.5,1.1.9s-.3.8-.9.8h-6.9v1.1h9.1c.7,0,1,.5,1,.9s-.3.9-1,.9h-20.3ZM45,500.1c0-.3.2-.6.7-.9.5-.3,1.3-1,1.5-1.6.2-.5.6-.8,1-.8s1.2.4,1.2,1c0,1.2-1.8,3.3-3.1,3.3s-1.2-.5-1.2-1ZM54.6,488.1h-4.9c0,.1,0,.2,0,.3,0,.8.5.9,1.3.9.9,0,2.2,0,3.5,0v-1.2ZM54.6,485.5c-1.4,0-2.6,0-3.5,0-.9,0-1.3.4-1.3.9v.2h4.8v-1.1ZM53.4,500.6c-.5,0-1-.3-1-.9h0v-.2c0-.6-.1-1.2-.3-1.6,0-.1,0-.2,0-.3,0-.4.5-.7,1-.7,1.4,0,1.7,2,1.7,2.7s-.6,1.1-1.3,1.1ZM62.1,486.4c0-.5-.4-.9-1.3-.9-.9,0-2.3,0-3.8,0v1.1h5.1v-.2ZM62.1,488.1h-5.1v1.2c1.4,0,2.7,0,3.8,0s1.3-.3,1.3-.9v-.2ZM59.3,500.6c-.5,0-.9-.2-1.1-.8-.2-.7-.5-1.2-.8-1.7-.1-.2-.2-.3-.2-.4,0-.4.5-.8,1.1-.8,1.1,0,2.2,1.9,2.2,2.7s-.6,1-1.2,1ZM65.5,500.9c-.4,0-.8-.2-1-.6-.4-.7-1-1.4-1.6-1.9-.2-.2-.4-.4-.4-.6,0-.5.6-.9,1.2-.9,1.1,0,3.1,2,3.1,2.9s-.6,1.1-1.3,1.1Z"/>
                <path class="cls-8" d="M87.6,505.3c-2.4,0-4.7.1-7,.1s-3.8,0-5.5-.1c-2.3-.1-3.5-1.2-3.6-3.2,0-1.6,0-4.3,0-6.9s0-4.5,0-5.9c0-2.3,1.1-3.6,3.6-3.7,2.2,0,4.7-.1,7-.1s3.9,0,5.6.1c1.6,0,3.2,1.2,3.3,3.1,0,1.6,0,4.1,0,6.5s0,5.3,0,6.7c0,1.9-1.4,3.2-3.3,3.3ZM79.8,487.9c-5.3,0-5.7,0-5.8,1.9,0,1.1,0,2.5,0,4.1h5.9v-5.9ZM79.8,496.1h-5.9c0,2,0,3.9,0,5.1,0,1.8.6,1.9,5.8,1.9v-7ZM88.5,493.8c0-1.6,0-3,0-4.1,0-1.9-.5-1.9-6.2-1.9v5.9h6.2ZM82.3,496.1v7c1.4,0,2.8,0,4.1,0,1.5,0,2-.7,2.1-1.9,0-1.3,0-3.1,0-5h-6.2Z"/>
                <path class="cls-8" d="M116.4,503.3c.8,0,1.2.6,1.2,1.2s-.4,1.2-1.2,1.2c-3.2,0-6.2.1-9.2.1s-4.9,0-7.3,0c-2.3,0-3.5-1.2-3.6-3.2,0-2-.1-4.3-.1-6.6s0-5.7.1-8.3c0-1.7,1.4-2.9,3.4-2.9,2.3,0,5.1,0,7.9,0s5.6,0,8.2,0c.8,0,1.2.6,1.2,1.2s-.4,1.2-1.2,1.2c-3.5,0-7.5,0-10.9,0s-2.9,0-4,0c-1.5,0-1.9.5-2,1.8,0,2.2,0,4.4,0,6.5s0,4.3,0,6.3c0,1.5.6,1.8,2.2,1.8,1.6,0,3.3,0,5.2,0,3.1,0,6.5,0,10.1-.1h0ZM101.5,501.9c-.8,0-1.4-.7-1.4-1.3s.2-.8.7-1c2.4-1.1,4.4-2.7,5.9-4.6-1.5-1-3-1.9-4.5-2.8-.5-.3-.6-.6-.6-1,0-.6.6-1.2,1.3-1.2s.5,0,.7.2c1.3.7,2.9,1.7,4.6,2.9.9-1.5,1.7-3.1,2.3-4.8.2-.5.6-.8,1.1-.8.7,0,1.5.6,1.5,1.4s-1.4,3.2-2.9,5.5c3.4,2.5,4.1,3.3,4.1,4.2s-.7,1.5-1.4,1.5-.7-.2-1.1-.6c-.9-1.1-1.9-2.1-3.1-3.1-3.2,4-6.4,5.5-7.2,5.5Z"/>
                <path class="cls-8" d="M124.8,506.4c-.7-1-2.2-2.2-3.3-2.8-.5-.3-.7-.7-.7-1.1,0-.6.5-1.2,1.3-1.2s5.3,2.4,5.3,4.2-.7,1.5-1.5,1.5-.8-.2-1-.6Z"/>
                <path class="cls-8" d="M142.5,494.4c-1.2-.9-2.5-1.5-3.5-1.8-.5-.2-.7-.5-.7-.9,0-.6.6-1.3,1.3-1.3s2.9.6,4.3,1.7c.4.3.6.7.6,1.1,0,.8-.6,1.5-1.3,1.5s-.5,0-.8-.3ZM140.4,506.3c-.8,0-1.4-.6-1.4-1.4s.1-.6.4-.9c1.7-1.8,3-4.3,4-6.6.2-.5.7-.7,1.1-.7.7,0,1.3.5,1.3,1.3s-2.1,5.3-4.2,7.7c-.4.5-.8.6-1.3.6ZM143.6,488.7c-1.1-1.3-2.3-1.9-3.2-2.5-.4-.2-.6-.5-.6-.8,0-.6.7-1.3,1.5-1.3s4.7,2,4.7,3.5-.7,1.5-1.4,1.5-.6-.1-.9-.5ZM146.4,505.3c-.8,0-1.2-.6-1.2-1.2s.4-1.2,1.2-1.2h5.8s0-14.7,0-14.7h-4.3c-.8,0-1.2-.6-1.2-1.2s.4-1.2,1.2-1.2h12.1c.9,0,1.3.6,1.3,1.2s-.4,1.2-1.3,1.2h-5s0,14.7,0,14.7h6.1c.9,0,1.3.6,1.3,1.2s-.4,1.2-1.3,1.2h-14.7Z"/>
                <path class="cls-8" d="M175.9,505.8v-4.9c-3.5,2.9-8.5,5.1-9.4,5.1s-1.4-.6-1.4-1.2.3-.9.9-1.1c3.5-1.2,6.1-2.5,8.9-4.8-.8,0-1.6,0-2.3,0-2.9,0-3.4-1.5-3.5-2.5,0-.7,0-1.5,0-2.2s0-1.8,0-2.6c0-1.1.8-2.3,2.9-2.4,1,0,2.4,0,3.9,0v-1.6h-8.2c-.8,0-1.2-.5-1.2-1s.4-1.1,1.2-1.1h8.2v-1.7c0-.8.6-1.1,1.3-1.1s1.3.4,1.3,1.1v1.7h8.2c.8,0,1.1.5,1.1,1.1s-.4,1.1-1.1,1.1h-8.3v1.6c1.5,0,3,0,4.2,0,1.6,0,2.7,1.1,2.8,2.2,0,.6,0,1.4,0,2.3s0,1.9,0,2.7c0,1.3-1.2,2.5-2.9,2.5h-.6c-.8,0-1.7,0-2.6,0,2.9,2.2,5.8,3.3,9,4.4.6.2.9.6.9,1.1s-.5,1.5-1.6,1.5-5-1.7-9.3-5.1c0,1.5,0,2.5,0,5s-.6,1.1-1.3,1.1-1.3-.4-1.3-1.1h0ZM175.9,491.2c-1.2,0-2.3,0-3.2,0-1.3,0-1.3.9-1.3,1.9h4.5v-2ZM175.9,495.1h-4.5c0,1.3,0,1.9,1.4,2,.9,0,2,0,3.2,0v-2ZM178.4,495.1v2c1.2,0,2.3,0,3.3,0,1.3,0,1.3-.9,1.3-2h-4.7ZM183.1,493.2c0-.3,0-.6,0-.9,0-1.1-.6-1.1-4.6-1.1v2h4.7Z"/>
                <path class="cls-8" d="M212.8,503.3c.8,0,1.2.6,1.2,1.2s-.4,1.2-1.2,1.2c-3.2,0-6.2.1-9.2.1s-4.9,0-7.3,0c-2.3,0-3.5-1.2-3.6-3.2,0-2-.1-4.3-.1-6.6s0-5.7.1-8.3c0-1.7,1.4-2.9,3.4-2.9,2.3,0,5.1,0,7.9,0s5.6,0,8.2,0c.8,0,1.2.6,1.2,1.2s-.4,1.2-1.2,1.2c-3.5,0-7.5,0-10.9,0s-2.9,0-4,0c-1.5,0-1.9.5-2,1.8,0,2.2,0,4.4,0,6.5s0,4.3,0,6.3c0,1.5.6,1.8,2.2,1.8,1.6,0,3.3,0,5.2,0,3.1,0,6.5,0,10.1-.1h0ZM197.9,501.9c-.8,0-1.4-.7-1.4-1.3s.2-.8.7-1c2.4-1.1,4.4-2.7,5.9-4.6-1.5-1-3-1.9-4.5-2.8-.5-.3-.6-.6-.6-1,0-.6.6-1.2,1.3-1.2s.5,0,.7.2c1.3.7,2.9,1.7,4.6,2.9.9-1.5,1.7-3.1,2.3-4.8.2-.5.6-.8,1.1-.8.7,0,1.5.6,1.5,1.4s-1.4,3.2-2.9,5.5c3.4,2.5,4.1,3.3,4.1,4.2s-.7,1.5-1.4,1.5-.7-.2-1.1-.6c-.9-1.1-1.9-2.1-3.1-3.1-3.2,4-6.4,5.5-7.2,5.5Z"/>
                <path class="cls-8" d="M221.2,506.4c-.7-1-2.2-2.2-3.3-2.8-.5-.3-.7-.7-.7-1.1,0-.6.5-1.2,1.3-1.2s5.3,2.4,5.3,4.2-.7,1.5-1.5,1.5-.8-.2-1-.6Z"/>
                <path class="cls-8" d="M46.4,532.1c-.9,0-1.3-.7-1.3-1.4s.4-1.2,1.2-1.2c1.2,0,2.5,0,3.9-.1,1.1-1.9,2.8-5.6,3.3-7.8.2-.6.6-.9,1.2-.9s1.6.5,1.6,1.4c0,1.4-3.2,7-3.3,7.1,2.9-.2,5.8-.4,8.4-.8-.6-.5-1.2-.9-1.8-1.4-.4-.3-.5-.6-.5-1,0-.6.6-1.2,1.3-1.2s.6,0,.9.3c.8.5,5.8,4.2,5.8,6s-.7,1.6-1.5,1.6-.8-.2-1.2-.7c-.4-.6-.7-1.1-1.1-1.6-6.2,1.2-15.8,1.7-16.8,1.7ZM55.8,534.1c1.7,0,3.5,0,5.2.1,1.6,0,2.8,1.2,2.9,2.5,0,.7,0,1.5,0,2.3s0,1.6,0,2.3c-.1,1.5-1.2,2.8-3,2.8-1.6,0-3.3,0-4.9,0s-3.3,0-4.8,0c-2,0-2.9-1.2-3.1-2.8,0-.7,0-1.4,0-2.2s0-1.5,0-2.2c0-1.3.8-2.6,3-2.7,1.5,0,3.1-.1,4.8-.1ZM61.3,539.2c0-.6,0-1.2,0-1.7,0-1.2-.6-1.2-5.3-1.2s-2.9,0-4,0c-1.3,0-1.3.9-1.3,2.8s0,1,0,1.3c.1,1.2.5,1.2,5.2,1.2s2.8,0,4.2,0c1.3,0,1.3-1,1.3-2.5Z"/>
                <path class="cls-8" d="M79.3,543.8v-4.9c-3.5,2.9-8.5,5.1-9.4,5.1s-1.4-.6-1.4-1.2.3-.9.9-1.1c3.5-1.2,6.1-2.5,8.9-4.8-.8,0-1.6,0-2.3,0-2.9,0-3.4-1.5-3.5-2.5,0-.7,0-1.5,0-2.2s0-1.8,0-2.6c0-1.1.8-2.3,2.9-2.4,1,0,2.4,0,3.9,0v-1.6h-8.2c-.8,0-1.2-.5-1.2-1s.4-1.1,1.2-1.1h8.2v-1.7c0-.8.6-1.1,1.3-1.1s1.3.4,1.3,1.1v1.7h8.2c.8,0,1.1.5,1.1,1.1s-.4,1.1-1.1,1.1h-8.3v1.6c1.5,0,3,0,4.2,0,1.6,0,2.7,1.1,2.8,2.2,0,.6,0,1.4,0,2.3s0,1.9,0,2.7c0,1.3-1.2,2.5-2.9,2.5h-.6c-.8,0-1.7,0-2.6,0,2.9,2.2,5.8,3.3,9,4.4.6.2.9.6.9,1.1s-.5,1.5-1.6,1.5-5-1.7-9.3-5.1c0,1.5,0,2.5,0,5s-.6,1.1-1.3,1.1-1.3-.4-1.3-1.1h0ZM79.3,529.2c-1.2,0-2.3,0-3.2,0-1.3,0-1.3.9-1.3,1.9h4.5v-2ZM79.3,533.1h-4.5c0,1.3,0,1.9,1.4,2,.9,0,2,0,3.2,0v-2ZM81.8,533.1v2c1.2,0,2.3,0,3.3,0,1.3,0,1.3-.9,1.3-2h-4.7ZM86.5,531.2c0-.3,0-.6,0-.9,0-1.1-.6-1.1-4.6-1.1v2h4.7Z"/>
                <path class="cls-8" d="M116.2,541.3c.8,0,1.2.6,1.2,1.2s-.4,1.2-1.2,1.2c-3.2,0-6.2.1-9.2.1s-4.9,0-7.3,0c-2.3,0-3.5-1.2-3.6-3.2,0-2-.1-4.3-.1-6.6s0-5.7.1-8.3c0-1.7,1.4-2.9,3.4-2.9,2.3,0,5.1,0,7.9,0s5.6,0,8.2,0c.8,0,1.2.6,1.2,1.2s-.4,1.2-1.2,1.2c-3.5,0-7.5,0-10.9,0s-2.9,0-4,0c-1.5,0-1.9.5-2,1.8,0,2.2,0,4.4,0,6.5s0,4.3,0,6.3c0,1.5.6,1.8,2.2,1.8,1.6,0,3.3,0,5.2,0,3.1,0,6.5,0,10.1-.1h0ZM101.3,539.9c-.8,0-1.4-.7-1.4-1.3s.2-.8.7-1c2.4-1.1,4.4-2.7,5.9-4.6-1.5-1-3-1.9-4.5-2.8-.5-.3-.6-.6-.6-1,0-.6.6-1.2,1.3-1.2s.5,0,.7.2c1.3.7,2.9,1.7,4.6,2.9.9-1.5,1.7-3.1,2.3-4.8.2-.5.6-.8,1.1-.8.7,0,1.5.6,1.5,1.4s-1.4,3.2-2.9,5.5c3.4,2.5,4.1,3.3,4.1,4.2s-.7,1.5-1.4,1.5-.7-.2-1.1-.6c-.9-1.1-1.9-2.1-3.1-3.1-3.2,4-6.4,5.5-7.2,5.5Z"/>
              </g>
            </g>
          </g>
          <circle class="cls-10" cx="243.9" cy="301.4" r="9.1"/>
          <circle class="cls-10" cx="310.7" cy="360.3" r="9.1"/>
          <circle class="cls-10" cx="390.1" cy="387.4" r="9.1"/>
          <circle class="cls-10" cx="261.3" cy="379.3" r="9.1"/>
        </g>
        <rect class="cls-8" x="121.9" y="23.2" width="345.8" height="65.2" rx="32.6" ry="32.6"/>
        <g>
          <path class="cls-14" d="M198.6,47.7c-1.2,0-1.7-.8-1.7-1.6s.6-1.6,1.7-1.6h11.4c1.2,0,1.7.8,1.7,1.6s-.6,1.6-1.7,1.6h-11.4ZM231.1,47.7h-8.7c0,1.3-.2,2.8-.4,4.1,1.6,0,3,0,4.8,0,2.5,0,4,1.2,4,3.8,0,8.2-.9,17-7.9,17s-2.7-.3-4.4-1c-.8-.3-1.2-1-1.2-1.7,0-1.1.8-2.2,1.8-2.2s.4,0,.6.2c1.2.6,2.1.9,3,.9,4.2,0,4.3-9.3,4.3-12.2s-.6-1.5-1.4-1.5c-1.3,0-2.6,0-4,0-1,7.1-3.3,13-8.8,17.4-.4.3-.9.5-1.4.5-1.1,0-2.1-.8-2.2-1.9-1,1.1-2.1,1.1-5.3,1.1s-2,0-2.8,0c-1.8-.1-2.9-1.4-3-3.2,0-1,0-2,0-3s0-1.9,0-2.8c0-1.5,1-2.9,2.9-3,.8,0,1.7,0,2.6,0s2.3,0,3.2,0c1.5,0,3.2,1.1,3.2,2.8,0,.9,0,2,0,3s0,2,0,2.9c0,.2,0,.5,0,.7,0,0,0-.1.2-.2,6.8-5,8-13.5,8.3-21.8h-4.6c0,0,0,0,0,0-1.2,0-1.8-.9-1.8-1.8s.6-1.8,1.8-1.8h5.7v-4.2c0-1.2,1-1.8,2-1.8s2,.6,2,1.8v4.2h7.5c1.2,0,1.8.9,1.8,1.8s-.6,1.8-1.8,1.8h0ZM200.2,42.2c-1.1,0-1.6-.8-1.6-1.6s.5-1.6,1.6-1.6h8.5c1.1,0,1.6.8,1.6,1.6s-.6,1.6-1.6,1.6h-8.5ZM200.3,52.9c-1.1,0-1.6-.8-1.6-1.6s.5-1.6,1.6-1.6h8.5c1.1,0,1.6.8,1.6,1.6s-.6,1.6-1.6,1.6h-8.5ZM200.3,58.1c-1.1,0-1.6-.8-1.6-1.6s.5-1.6,1.6-1.6h8.5c1.1,0,1.6.8,1.6,1.6s-.6,1.6-1.6,1.6h-8.5ZM206.8,66.1c0-.7,0-1.4,0-2,0-1-.8-1.1-2.6-1.1-2.6,0-2.6,0-2.6,3s0,1.4,0,2c0,.6.2,1,2.5,1s2.6,0,2.7-1c0-.6,0-1.3,0-2Z"/>
          <path class="cls-14" d="M243.3,73.3c-1,0-1.9-.6-1.9-1.6h0c.3-7.4.2-20,.3-28.7,0-3.9,2.7-3.9,6.9-3.9s3.2,0,3.9,0c2,0,3.5,1.4,3.6,3.2,0,1.4,0,2.9,0,4.4,0,5.1,0,6.1-8,6.1s-2,0-2.8,0v3.6c0,4.3,0,9.7-.2,15.4,0,1.2-1,1.7-1.9,1.7ZM252.6,44.6c0-.5,0-1,0-1.4,0-1.1-.3-1.2-3.5-1.2s-3.6.1-3.6,1.6c0,.3,0,.7,0,1h7.2ZM245.4,47.2v2.6c.6,0,1.8,0,3,0,3.9,0,4.2-.2,4.2-1.3,0-.4,0-.8,0-1.3h-7.2ZM261.1,67.8c-.9,0-2.2.1-3.5.1-6.6,0-7.8,0-7.8-5.9s0-2.3,0-3.4c.1-2.1,1.5-3.5,3.7-3.6,1,0,2.4,0,3.9,0s2.9,0,3.8,0c2,0,3.6,1.6,3.7,3.6,0,1,0,2.2,0,3.3s0,1.4,0,2.1c0,2.1-1.4,3.6-3.8,3.8ZM261.3,60.6c0-2.5-.2-2.6-4-2.6s-3.9.1-3.9,3,0,1.6,0,2.3c0,1.2,1.1,1.3,3.9,1.3s1.8,0,2.4,0c1.6-.1,1.6-.7,1.6-4ZM267.1,52.8c-4.7,0-8,0-8.2-3.5,0-.8,0-1.7,0-2.6,0-1.5,0-3,0-4.4,0-1.8,1.4-3.1,3.5-3.2.8,0,2.4,0,4.1,0s2.3,0,3,0c3,.2,4.2,1.8,4.2,3.6v3c0,6,0,12.2,0,17.3s0,3.6,0,5c0,2.8-1.4,5.3-6,5.3s-4.2-.4-4.2-2.1.6-1.8,1.6-1.8.2,0,.3,0c.8.1,1.5.2,2.1.2,1.3,0,2.3-.5,2.4-2.4,0-1.6,0-3.3,0-5,0-2.6,0-5.3,0-7.8v-1.6c-.7,0-1.8,0-2.9,0ZM269.9,44.6c0-2.6,0-2.6-3.8-2.6s-3.6,0-3.7,1.3c0,.4,0,.8,0,1.3h7.5ZM270,47.2h-7.6c0,.5,0,.9,0,1.3,0,1.1.2,1.3,4.4,1.3s2.6,0,3.2,0v-2.6Z"/>
          <path class="cls-14" d="M290.1,52.5c-2.6-.1-2.5-3.8,0-3.8,5.2.1,12.2,0,18.2-.2,1.4,0,2.1.9,2.1,1.9,0,1-.8,1.9-2.1,2-2,0-4.5,0-7.1.1,0,3.4,0,8,0,10.6,4.4,0,8.8,0,12.4,0s2,1,2,2.1c0,1-.8,2-2.4,2-8.5-.2-20-.1-27.7.1-3.2,0-3-3.9,0-3.9,3.1,0,7.3-.1,11.6-.2,0-3,0-8.2,0-10.6-2.9,0-5.5,0-7.2,0Z"/>
          <path class="cls-14" d="M329.5,59.7c-1,0-2.2-.7-2.1-2,.2-4,.1-10.2,0-14-.1-2.5,4-2.7,4.2-.2.2,3.6.2,10.4.1,14.2,0,1.4-1.1,2.1-2.1,2.1ZM329.8,69.4c7.1-3.9,8.7-9.3,8.7-15.2s-.2-8.1-.2-11.2,4.3-2.4,4.3,0c0,3.4.1,7.9.1,11.2,0,6.9-2.1,13.8-10.4,18.6-3.3,1.9-5-1.9-2.5-3.3Z"/>
          <path class="cls-14" d="M360.9,71.5c-1.6,1-3.1.6-3.8-.4s-.5-2.3,1.1-3.1c6.7-3.3,9-9.9,8.4-15.7-.2-1.7.9-2.4,2.2-2.4s2.4.6,2.4,2.3c0,.5,0,1,0,1.5.1,0,.2-.1.3-.2,2.7-1.1,5.7-2.9,7.3-5,.6-.8.6-1.4-.4-1.4-4.5,0-13.2,0-18.8.4-3.5.2-3.3-3.7-.3-3.8,5.8-.3,14.5-.2,20.5-.2s6.1,3.5,3.3,6.6c-2.6,3-5.6,5.6-9.9,7.1-.9.3-1.7.2-2.3-.1-1,6.1-4,10.9-9.9,14.6Z"/>
        </g>
        <path class="cls-21" d="M586.8,2.8v583.9H2.8V2.8h583.9M589.6,0H0v589.6h589.6V0h0Z"/>
      </g>
      <g class="cls-20">
        <g>
          <path class="cls-18" d="M-1358.7,432.3c.3-.5.9-.8,1.5-.9l18.8-2.4c0,0,.2,0,.3,0,.3,0,.6,0,.8.2l18.8,7.9,6.2-18.7-26.5-2.6c-1,0-1.8-.8-1.9-1.8l-7-47.6c-.1-.7.1-1.4.7-1.9.4-.4.9-.6,1.4-.6s.3,0,.5,0l30,7.1,10.5-35.9-23.9-54.3-57.6,8.3c0,0-.2,0-.3,0-.2,0-.3,0-.5,0l-35.7-8.5c-.3,0-.5-.2-.7-.3l-35.8-24.2-11.8,17.9,8.1,113.5,43.7,8.7c.3,0,.6.2.9.4l61.5,48.2-2.2-10.8c-.1-.6,0-1.2.4-1.7Z"/>
          <path class="cls-18" d="M-1457.5,206l-11.3,25.4,10.6,20.3,36.8,24.9,34.9,8.3,38.8-5.6-1.1-30.7c0-.6.2-1.1.6-1.6l10.1-10.4-17-34.7-34.6-13c-.5-.2-.8-.5-1.1-.9l-17.8-30.7-64.6,25.6v10.3l15,9.8c.9.6,1.2,1.7.8,2.7Z"/>
          <path class="cls-18" d="M-1327.7,276.5c.1,0,.2,0,.3,0,.8,0,1.6.5,1.9,1.3l7.3,16.5,19.7,2.8c.6,0,1.1.4,1.4.8l27.1,35.7,23.3,7.9v-29.1l-19.3-14.4c-.9-.7-1.1-2-.5-2.9l12.2-17.7v-12.7c-14.5-12.3-20.1-17.3-22.4-19.5-3.1,2-12,8.6-19.9,14.8-.4.3-.8.4-1.3.4s-.3,0-.4,0c-.6-.1-1.1-.5-1.4-1.1l-8.5-15.9-35.8,26,.3,9.5,15.8-2.3Z"/>
          <path class="cls-18" d="M-1311.7,374.4c-.3.9-1.1,1.5-2,1.5s-.3,0-.5,0l-28.9-6.8,6.3,42.8,26.1,2.6,6.2-10.2c.4-.7,1.1-1,1.8-1s.5,0,.7.1l14.3,4.8,8.6-17.7-7.5-12c-.3-.5-.4-1.2-.2-1.8.2-.6.7-1.1,1.3-1.3l19.6-7.6,17.9-22.2-23.9-8.1c-.4-.1-.8-.4-1-.7l-27-35.5-16.2-2.3,15.6,35.4c.2.5.2,1,0,1.5l-11.3,38.6Z"/>
          <path class="cls-18" d="M-1213.5,377.6c-.5,0-.9-.2-1.3-.4l-32.8-25.4-15.3,19c-.2.3-.5.5-.9.6l-17.7,6.9,6.7,10.8c.4.6.4,1.4.1,2.1l-9.5,19.7,4.5,12.2,50,26.5,27.4,1.7-1.1-2.9c-.1-.3-.2-.7-.1-1.1l10.6-69.8h-20.6Z"/>
          <path class="cls-18" d="M-1177,317.1l2.6-2.4-4.4-30.3h-20.7c-.6,0-1.1-.2-1.5-.6l-26.7-27.5-22.5,23.1-11.3,16.4,18.5,13.8c.5.4.9,1,.9,1.7v33.2c0,.5-.2,1-.5,1.3l-2.1,2.7,32.2,24.9h20.5l4.2-27.7c.2-1,1.1-1.8,2.1-1.8h6l2.2-25.4c0-.5.3-1,.7-1.4Z"/>
          <path class="cls-11" d="M-942.3,172.5c-.3-.4-.5-1-.5-1.5l3.2-45.3-19.8-11.4-13.1,7.4-20.1,69.7c-.2.8-.9,1.4-1.7,1.5l-25,4.2c-.1,0-.2,0-.4,0-.7,0-1.3-.3-1.7-.8l-11.5-15.2-16.3,9.4,2.9,22.4,15.6,9c.7.4,1.1,1.1,1.1,1.9v98.4h5.2c1.2,0,2.1,1,2.1,2.1v12.6l23.6,8.6,29.5-12.8,6-68.5c0-.9.7-1.6,1.5-1.9l29.8-8.7,25-37-35.7-44.1Z"/>
          <path class="cls-7" d="M-1052.4,187.5l17-9.9-37.7-49.6-11.7,10.7v25.8c0,.4-.1.8-.3,1.1l-39.5,65.2,33.2,11.7,30-36.4c.4-.5,1-.8,1.6-.8s.7,0,1.1.3l7.8,4.5-2.7-20.5c-.1-.9.3-1.7,1.1-2.1Z"/>
          <path class="cls-11" d="M-1007.3,75.1c.4.8.2,1.7-.4,2.4l-6.3,6.7c-.4.4-1,.7-1.6.7s-.1,0-.2,0c-.7,0-1.2-.4-1.6-1l-6.9-10.9-39.7,27.4c-.4.2-.8.4-1.2.4s-.7,0-1.1-.3l-10.6-6.1-4.7,5.5,10.6,23.9,52.3,68.9,22.4-3.7,20-69.2c.2-.5.5-1,1-1.3l13.3-7.5-14-37.9c-.3-.8,0-1.8.6-2.4l23.1-20-4.3-7.3-19,6.5c-.2,0-.5.1-.7.1-.5,0-1-.2-1.4-.6l-12.7-11.8c-.9-.8-.9-2.1-.1-3l10.5-11.8-4.5-5.5-29.2,8.1c-.2,0-.4,0-.6,0-.4,0-.7,0-1.1-.3l-11.8-6.8-4.3,6.1,24.3,50.7Z"/>
          <path class="cls-9" d="M-1181.6,32.6l-30.4,17.6-4.2,13.6,11.6,11,21.4-3.9c.1,0,.3,0,.4,0,.7,0,1.3.3,1.7.8l3.8,5c.6.8.6,2-.1,2.7l-13.4,14.5,4.1,5.7,54.5,5.2c.7,0,1.4.5,1.7,1.1l14.2,27.4,29,1.6,11.8-10.8-10.6-24c-.3-.8-.2-1.6.3-2.3l6.8-7.8c.4-.5,1-.7,1.6-.7s.7,0,1.1.3l11,6.3,40.4-27.9c.4-.2.8-.4,1.2-.4s.3,0,.4,0c.6.1,1.1.5,1.4.9l6.6,10.4,3.4-3.7-24.2-50.5c-.3-.7-.3-1.5.2-2.2l4.8-6.8-10.3-6-12.5,12.3c-.4.4-.9.6-1.5.6h-16c-1.2,0-2.1-1-2.1-2.1V-15.3l-44.7,14.2c-.2,0-.4,0-.6,0-.4,0-.7,0-1.1-.3l-42.6-24.7-26.6,14.2,11.1,18.8c.2.4.3.9.3,1.4l-2.8,22.6c0,.7-.5,1.3-1.1,1.6Z"/>
          <path class="cls-9" d="M-1173.7,151.2l24,13.9,31.4-13.4c.3-.1.5-.2.8-.2s.5,0,.7.1l27.6,9.8v-22.2l-28.6-1.6c-.8,0-1.4-.5-1.8-1.1l-14.2-27.4-41.5-4-13.7,7.1,28.4,23.4c.5.4.8,1,.8,1.6,0,.6-.2,1.2-.7,1.6l-13.3,12.4Z"/>
          <path class="cls-7" d="M-1117.3,156l-31.6,13.5c-.3.1-.6.2-.8.2s-.7,0-1.1-.3l-19.1-11.1,11.7,48,20.3,20.1,9.3,3.1,38.6-63.8-27.2-9.6Z"/>
          <path class="cls-18" d="M-1274.1,42.8c.9,0,1.7.6,2,1.5l12.3,38.1,21.6,28.1c.5.6.6,1.4.3,2.1l-5.9,14.5,6.7,7.2,9.5-8.4c.4-.4.9-.5,1.4-.5s.6,0,.9.2l47.6,23.5,12.6-11.7-29-23.9c-.6-.5-.8-1.2-.8-1.9,0-.7.5-1.3,1.1-1.7l10.7-5.5-4.9-.5c-.6,0-1.2-.4-1.5-.9l-5.7-7.9c-.6-.8-.5-2,.2-2.7l13.3-14.5-1.9-2.6-21.2,3.8c-.1,0-.3,0-.4,0-.5,0-1.1-.2-1.5-.6l-13.4-12.7c-.6-.6-.8-1.4-.6-2.2l4.6-15.1-3.2-12.2-38-4.5c-.4,0-.7-.2-1-.4l-24-18-10,29.3h18Z"/>
          <path class="cls-18" d="M-1335.3,76c.8,0,1.5.6,1.7,1.4l22.8,59.7,29.4-10c.2,0,.5-.1.7-.1.7,0,1.3.3,1.7.9l4.6,6.3,10.4-9.2c.4-.3.9-.5,1.4-.5s14.9,1,14.9,1l5.4-13.2-21.1-27.4c-.1-.2-.3-.4-.3-.6l-11.9-37h-19.4c-.7,0-1.3-.3-1.7-.9-.4-.6-.5-1.3-.3-1.9l10.9-31.9-89.8,3.8-27.9,37.5,16.8,16.5,51.9,5.9Z"/>
          <path class="cls-18" d="M-1178.2,153.5l-12-5.9-34.9,24c-.4.2-.8.4-1.2.4s-.7,0-1.1-.3l-9.2-5.3-8.4,26.2,75,24.1,7.4-9.8-12.5-51.5-3.1-1.8Z"/>
          <path class="cls-18" d="M-1235.8,138.9c-.4.4-.9.5-1.4.5s-1.1-.2-1.6-.7l-8.5-9.1-14.5-1-11.5,10.2c-.4.3-.9.5-1.4.5s-.2,0-.2,0c-.6,0-1.1-.4-1.5-.9l-5-6.9-28.8,9.8-2.8,11.7,16.6,16.7h26.7c1.2,0,2.1,1,2.1,2.1v13.4l18.6,6,9.2-28.7c.2-.6.7-1.1,1.3-1.3.2,0,.5-.1.8-.1.4,0,.7,0,1.1.3l10.4,6,31.8-21.8-31.3-15.4-10,8.8Z"/>
          <path class="cls-18" d="M-1396.2,140.7c.4-.4.9-.6,1.5-.6s.1,0,.2,0c.6,0,1.2.4,1.5.9l15.7,22.8h31.5l6.2-11.2c.4-.7,1.1-1.1,1.9-1.1h20.5l2.8-11.7-22.8-59.7-51.3-5.9c-.5,0-.9-.3-1.3-.6l-15.7-15.5-4,21.5c-.2,1-1.1,1.7-2.1,1.7s-.2,0-.3,0l-42.8-6.6c-.7-.1-1.3-.5-1.6-1.1-.3-.6-.3-1.3,0-2l5.5-10.6-18.1-7.1-37.6,36.8,8.7,39.8c0,.3,0,.5,0,.8l-6.8,41.5,27,17.7v-9c0-.9.5-1.7,1.3-2l67.3-26.7,12.7-12.2Z"/>
          <path class="cls-17" d="M-1160,210.6l-7.5,9.9c-.4.5-1,.8-1.7.8s-.4,0-.7-.1l-27.1-8.7-28.1,40.4,26.4,27.2h20.6l36.1-51.7-18-17.9Z"/>
          <path class="cls-18" d="M-1130.2,285.3l5.6-38.7-4.8-13-8.9-3-36.4,52.1,4.1,28.4,7.2-6.7c.4-.4.9-.6,1.5-.6s.6,0,.9.2c.8.4,1.3,1.2,1.2,2.1l-1.2,14.6,5.7,7.8,23.4-20.9,1.8-22.4Z"/>
          <path class="cls-18" d="M-1344.5,249.4l.5,14.7,34.8-25.2,6-24.7c0-.3.2-.6.4-.8l10.1-13.5h-14.8c-.7,0-1.3-.3-1.7-.9l-13.7-18.2c-.4-.5-.5-1.1-.4-1.8l5.2-23.3h-18.3l-6.2,11.2c-.4.7-1.1,1.1-1.9,1.1h-33.9c-.7,0-1.4-.3-1.8-.9l-14.9-21.7-10,9.6,17.5,30.1,34.6,13c.5.2.9.6,1.2,1.1l18,36.8c.4.8.2,1.8-.4,2.4l-10.5,10.8Z"/>
          <path class="cls-18" d="M-1318.9,179.1l12.5,16.5h18c.8,0,1.5.5,1.9,1.2.4.7.3,1.6-.2,2.2l-12.5,16.6-5.8,24.2,8.1,15.1c18.9-14.6,20.1-14.6,20.9-14.6s1.4.4,1.8,1c1.4,1.5,15.2,13.5,23.7,20.7.5.4.8,1,.8,1.6v9.1l20.4-20.9,28.3-40.7-69.2-22.2c-.9-.3-1.5-1.1-1.5-2v-12.8h-25.4c-.6,0-1.1-.2-1.5-.6l-15.3-15.5-4.7,21.1Z"/>
          <polygon class="cls-18" points="-1179.2 357.6 -1183.4 357.6 -1185.4 373.3 -1179.2 373.3 -1179.2 357.6"/>
          <polygon class="cls-18" points="-1187.4 388.9 -1179.2 388.9 -1179.2 377.6 -1186 377.6 -1187.4 388.9"/>
          <polygon class="cls-18" points="-1137.8 476.9 -1130.2 469.6 -1145.1 458.9 -1156.6 467.9 -1161.1 465.4 -1149.2 448.9 -1153.1 441.4 -1178.3 464.3 -1191.8 456.5 -1184.5 476.9 -1137.8 476.9"/>
          <polygon class="cls-18" points="-1193.7 450.5 -1178.8 459.1 -1155.2 437.5 -1179.2 391.8 -1187.4 391.8 -1195.2 446.9 -1193.8 450.8 -1193.7 450.5"/>
          <polygon class="cls-18" points="-1064.8 320.9 -1064.8 314.9 -1071.4 314.9 -1071.4 326.9 -1079.6 326.9 -1079.6 316.9 -1096.4 318 -1093.4 343.1 -1050.7 335.9 -1050.7 355.6 -1072.6 358.3 -1072.6 362.4 -1039.1 358.4 -1039.1 329.6 -1049.9 320.9 -1064.8 320.9"/>
          <polygon class="cls-18" points="-1060.7 386.5 -1048.4 403.7 -1041.2 398.3 -1041.2 363.1 -1062.5 365.6 -1060.7 386.5"/>
          <polygon class="cls-18" points="-1071.5 341.6 -1071.5 355.3 -1065.4 355.3 -1065.4 349 -1054.1 349 -1054.1 344.8 -1065.4 344.8 -1065.4 341.6 -1071.5 341.6"/>
          <polygon class="cls-18" points="-1098 349.9 -1100.4 320.7 -1112.2 328.9 -1112.2 337.1 -1136.1 353.4 -1140.8 347.8 -1145.7 350.7 -1129.1 370 -1123.1 366.5 -1110.7 382.2 -1105.2 371.6 -1114.4 356.4 -1111 349.7 -1098 349.9"/>
          <polygon class="cls-18" points="-1113.2 393.6 -1126.2 371.8 -1133.8 377 -1117.7 398.8 -1113.2 393.6"/>
          <polygon class="cls-18" points="-1121.9 407.2 -1144.4 374.5 -1153.9 380.3 -1129.9 424.4 -1121.9 407.2"/>
          <polygon class="cls-18" points="-1159.4 390.8 -1154.7 387.9 -1159.6 378.8 -1139.5 366.4 -1148.6 353.1 -1156.7 356.4 -1151.9 364.7 -1163.7 373.3 -1159.4 390.8"/>
          <polygon class="cls-18" points="-1078.8 408.8 -1089.7 400 -1112.4 416.7 -1121.9 434.1 -1116.2 437.4 -1078.8 408.8"/>
          <polygon class="cls-18" points="-1098.5 431 -1084.8 450.4 -1062.8 435.8 -1075.5 413.4 -1098.5 431"/>
          <polygon class="cls-18" points="-1119.1 446.8 -1098 459.2 -1089.3 453.4 -1102.7 434.3 -1119.1 446.8"/>
          <polygon class="cls-18" points="-1024 355.3 -1019.9 349.1 -1012 352.5 -1010.6 356.5 -1007.8 349.8 -1024 343.2 -1024 355.3"/>
          <polygon class="cls-18" points="-1006.1 356.5 -999.8 356.5 -996.5 363.6 -992.5 355.3 -1003.8 351 -1006.1 356.5"/>
          <path class="cls-18" d="M-1111.1,558.2c-.3.2-.7.3-1.1.3s-.4,0-.6,0c-.6-.2-1-.6-1.3-1.1l-23.9-46.4c-.5-1-.2-2.3.8-2.8l8.3-4.8-3.5-8.6-24.9.9-14.8,14.5c-.4.4-.9.6-1.5.6s-.6,0-.9-.2l-21.6-10.5c-.8-.4-1.3-1.2-1.2-2.1,0-.9.7-1.6,1.6-1.9l9-2.4-14-37.8-29.7-1.9c-.3,0-.6-.1-.9-.2l-51.1-27.1c-.5-.2-.8-.7-1-1.1l-4.8-12.9-13.5-4.6-5.9,9.7-7.6,23.2c-.2.6-.6,1-1.1,1.3-.3.1-.6.2-.9.2s-.6,0-.8-.2l-20.4-8.6-16,2,2.6,12.9,18,4.8c.6.2,1.2.6,1.4,1.3l21.8,54.3,39.2,17.6c1,.5,1.5,1.6,1.1,2.7l-8.9,23.7,7.6,8,84.8-20c.2,0,.3,0,.5,0,.4,0,.8.1,1.2.4l59.3,40.5,28.8-24-1.5-6.7-12.6,7.3Z"/>
          <path class="cls-7" d="M-1089.1,246.3c-.4.5-1,.8-1.6.8s-.5,0-.7-.1l-32.8-11.5,3.8,10.2c.1.3.2.7.1,1.1l-5.5,37.8,9.3,5.4c.8.4,1.2,1.3,1,2.2l-4,24.5c0,.5-.3.9-.7,1.3l-24.9,21.4,2,3.1,43.8-31.7c.4-.3.8-.4,1.2-.4h55.9c1.2,0,2.1,1,2.1,2.1v9.6h6.2v-97.2l-25.5-14.8-29.8,36.2Z"/>
          <circle class="cls-3" cx="-1118.3" cy="95.1" r="9.1"/>
          <circle class="cls-3" cx="-1011.6" cy="187.7" r="9.1"/>
          <circle class="cls-3" cx="-1081.2" cy="211.9" r="9.1"/>
          <g>
            <path class="cls-2" d="M-875.7,195l33.4-29.9,28.5-9.5v-28.3l-1.5-3.4-.8-1.7-10.7-24.1,12.9-22.5-7.3-11.3-36.3,15.1-16.4,49.1-55.2-39-30.2,24.9,19.8,11.4s-4.2,43.8-2.7,46.8c.7,1.4,35.7,44.1,35.7,44.1l-25,37-30.8,9.3-1.6,13.1,57.5,26.8c1.2-1.9,3-3.7,5.2-5.9,6.1-6.2,12.8-8.6,16.7-10.1,6.8-2.5,14.1-3.6,21.5-3.4v-3.2h-29l31.1-23.3,9.4,15.7,11.9-14.9h3.6l-13.2-46.3-26.5-16.5Z"/>
            <path class="cls-2" d="M-908.2,307.7c.1-1.2,1.2-3.7,1.7-4.8l-57.5-26.8-5,56.7-6.4,9.1-7.1,8.2s0,1.5,0,2.5c0,1.4.2,3.3,0,7,0,1.7-.2,3-.3,4.1-.2,2.4-.3,3.4.2,4.9.8,2.2,2.8,4.8,5.4,5.5.9.3,1.5.1,2.3,0,1-.2,2.2-.5,4.1,0,2.3.6,3.7,1.7,4.8,2.6.2.2.5.4.7.6.1-.3.2-.9.3-1.3.3-1.5.7-3.5,2.5-4.8,2.4-1.8,5.9-1.2,8.1-.2,6.7,3.1,7.3,13.2,7.4,14.3,0,2-.1,3.4-.3,4.5,0,.2,0,.5,0,.7,1.6-.4,7-4.4,13.1-9.1l.8-.6c1.5-1.1,3.1-2.3,4.6-3.4,2.7-2,5.6-4.1,8.3-6.3,10.5-8.5,21.3-13.4,29.9-17.4,8.5-3.9,14.7-6.7,14.7-10.4,0-.8-1.2-2-7.8-7.7l-4.5-4c-16.5-14.6-20.4-18.5-19.9-23.9Z"/>
          </g>
        </g>
        <polygon class="cls-5" points="-761.2 233 -728.6 233 -671.2 223.4 -668.6 203.9 -668.4 202.3 -664.8 175.7 -671.3 127 -671 126.8 -635.7 88.2 -627.5 55.4 -660.4 25.4 -676.3 69.9 -735 80.3 -734.9 81.5 -754.1 123 -782.5 126.2 -816.1 122.1 -814.9 127.3 -814.9 156.9 -844.3 166.8 -875.7 195 -850.5 210.7 -837 258 -810.4 258 -803.7 238 -794.4 242.7 -800.9 265.3 -788.3 271.6 -788.3 280.6 -797.9 280.6 -797.9 290.3 -772 290.3 -784.4 259.5 -761.2 233"/>
        <polygon class="cls-5" points="-873.9 128.4 -858 80.6 -821.3 65.3 -819.8 64.7 -819.2 64.5 -809.5 48.3 -774.3 38.7 -774.3 18.7 -789.6 4.8 -812.2 20.9 -848.4 -11.9 -848.5 -12.1 -861.3 -50.6 -899.3 -75.9 -934.6 -47.1 -955.9 -40 -952.3 50.6 -975.4 70.6 -959.3 114.3 -928.4 89.9 -873.9 128.4"/>
        <polygon class="cls-5" points="-739.4 24 -775.3 15.1 -775.3 15.3 -775.3 17.4 -775.3 37.2 -811.1 47 -819.8 64.7 -813.9 75.3 -826.8 98 -816.1 122.2 -782.5 126.2 -754.1 123 -735 81.7 -735 81 -735.1 79.4 -739.4 24"/>
        <g>
          <path class="cls-4" d="M-1063.7-60.5v-54l22.5-4.7-2.7-17.6-5.5,2-64.6,21.5h-.2s-57-8.8-57-8.8l34.7,66.9-26.6,10.6-.5,18.6c1.6.1,44.8,25,44.8,25l30.5-9.6,8.5-33.8,16.1-16.1Z"/>
          <path class="cls-4" d="M-1011.8-124l-27.8,5.9,9.5,62.9,35,24.2V-11.6l-13.4,16.1,3.7,18.3,20.3-5.6,4.5,5.5-11,13.5,14.8,13.7,19.7-6.6,4.3,7.3s-3-86.6-3.6-90.6c-.8-5.6-1-9.9,0-13.4.9-3.4,1.9-7.3,1.8-14.8,0-3-.3-5.3-.5-7.1-.4-3.4-.6-5.7.6-9.4,1-3.1,2.2-4.6,3.6-6.4,1.3-1.6,2.7-3.4,4.6-7.2,1.1-2.3,2.6-7.2,5.3-15.9,2.4-7.8,2.6-9,2.6-10.4.1-2.7-.2-4.8-.9-7.3l-24.6-2.7-48.2,10.7Z"/>
          <path class="cls-4" d="M-995.2-11.6v-19.4l-35-24.2v-.3s-9.5-62.7-9.5-62.7l-24,3.7v54l-16.1,16.1-8.5,33.8c2.5-.9,14.8-4.7,14.8-4.7l1,38h18c0,.1,13.1-12.5,13.1-12.5l26.9,15.2s8.1-1,9.5-2.6l-3.7-18.3,13.4-16.1Z"/>
          <path class="cls-4" d="M-1171.1-122l-.8-1.5-1.8-3.5-45.4-59.3-27.3,28.5-75.6,54.7,3.2,38.3,54,18.9-.3.7-13.2,31.2-.5,1.2-9.5,22.4c1,1.1,31.3,22.2,31.3,22.2l38,4.5,4.2,15.4,34.1-20.1,2.8-24.8-11.1-18.8s23.6-13.3,24.9-13.3l1.1-19.5,26.6-10.6-34.7-66.9Z"/>
        </g>
      </g>
      <g class="cls-20">
        <path class="cls-18" d="M-1380.9,1247c.3-.5.9-.8,1.5-.9l18.8-2.4c0,0,.2,0,.3,0,.3,0,.6,0,.8.2l18.8,7.9,6.2-18.7-26.5-2.6c-1,0-1.8-.8-1.9-1.8l-7-47.6c-.1-.7.1-1.4.7-1.9.4-.4.9-.6,1.4-.6s.3,0,.5,0l30,7.1,10.5-35.9-23.9-54.3-57.6,8.3c0,0-.2,0-.3,0-.2,0-.3,0-.5,0l-35.7-8.5c-.3,0-.5-.2-.7-.3l-35.8-24.2-11.8,17.9,8.1,113.5,43.7,8.7c.3,0,.6.2.9.4l61.5,48.2-2.2-10.8c-.1-.6,0-1.2.4-1.7Z"/>
        <path class="cls-18" d="M-1479.7,1020.6l-11.3,25.4,10.6,20.3,36.8,24.9,34.9,8.3,38.8-5.6-1.1-30.7c0-.6.2-1.1.6-1.6l10.1-10.4-17-34.7-34.6-13c-.5-.2-.8-.5-1.1-.9l-17.8-30.7-64.6,25.6v10.3l15,9.8c.9.6,1.2,1.7.8,2.7Z"/>
        <path class="cls-18" d="M-1349.9,1091.1c.1,0,.2,0,.3,0,.8,0,1.6.5,1.9,1.3l7.3,16.5,19.7,2.8c.6,0,1.1.4,1.4.8l27.1,35.7,23.3,7.9v-29.1l-19.3-14.4c-.9-.7-1.1-2-.5-2.9l12.2-17.7v-12.7c-14.5-12.3-20.1-17.3-22.4-19.5-3.1,2-12,8.6-19.9,14.8-.4.3-.8.4-1.3.4s-.3,0-.4,0c-.6-.1-1.1-.5-1.4-1.1l-8.5-15.9-35.8,26,.3,9.5,15.8-2.3Z"/>
        <path class="cls-18" d="M-1333.9,1189c-.3.9-1.1,1.5-2,1.5s-.3,0-.5,0l-28.9-6.8,6.3,42.8,26.1,2.6,6.2-10.2c.4-.7,1.1-1,1.8-1s.5,0,.7.1l14.3,4.8,8.6-17.7-7.5-12c-.3-.5-.4-1.2-.2-1.8.2-.6.7-1.1,1.3-1.3l19.6-7.6,17.9-22.2-23.9-8.1c-.4-.1-.8-.4-1-.7l-27-35.5-16.2-2.3,15.6,35.4c.2.5.2,1,0,1.5l-11.3,38.6Z"/>
        <path class="cls-18" d="M-1235.7,1192.2c-.5,0-.9-.2-1.3-.4l-32.8-25.4-15.3,19c-.2.3-.5.5-.9.6l-17.7,6.9,6.7,10.8c.4.6.4,1.4.1,2.1l-9.5,19.7,4.5,12.2,50,26.5,27.4,1.7-1.1-2.9c-.1-.3-.2-.7-.1-1.1l10.6-69.8h-20.6Z"/>
        <path class="cls-18" d="M-1199.3,1131.7l2.6-2.4-4.4-30.3h-20.7c-.6,0-1.1-.2-1.5-.6l-26.7-27.5-22.5,23.1-11.3,16.4,18.5,13.8c.5.4.9,1,.9,1.7v33.2c0,.5-.2,1-.5,1.3l-2.1,2.7,32.2,24.9h20.5l4.2-27.7c.2-1,1.1-1.8,2.1-1.8h6l2.2-25.4c0-.5.3-1,.7-1.4Z"/>
        <path class="cls-7" d="M-1074.7,1002.1l17-9.9-37.7-49.6-11.7,10.7v25.8c0,.4-.1.8-.3,1.1l-39.5,65.2,33.2,11.7,30-36.4c.4-.5,1-.8,1.6-.8s.7,0,1.1.3l7.8,4.5-2.7-20.5c-.1-.9.3-1.7,1.1-2.1Z"/>
        <path class="cls-9" d="M-1196,965.8l24,13.9,31.4-13.4c.3-.1.5-.2.8-.2s.5,0,.7.1l27.6,9.8v-22.2l-28.6-1.6c-.8,0-1.4-.5-1.8-1.1l-14.2-27.4-41.5-4-13.7,7.1,28.4,23.4c.5.4.8,1,.8,1.6,0,.6-.2,1.2-.7,1.6l-13.3,12.4Z"/>
        <path class="cls-7" d="M-1139.6,970.6l-31.6,13.5c-.3.1-.6.2-.8.2s-.7,0-1.1-.3l-19.1-11.1,11.7,48,20.3,20.1,9.3,3.1,38.6-63.8-27.2-9.6Z"/>
        <path class="cls-18" d="M-1357.5,890.6c.8,0,1.5.6,1.7,1.4l22.8,59.7,29.4-10c.2,0,.5-.1.7-.1.7,0,1.3.3,1.7.9l4.6,6.3,10.4-9.2c.4-.3.9-.5,1.4-.5s14.9,1,14.9,1l5.4-13.2-21.1-27.4c-.1-.2-.3-.4-.3-.6l-11.9-37h-19.4c-.7,0-1.3-.3-1.7-.9-.4-.6-.5-1.3-.3-1.9l10.9-31.9-89.8,3.8-27.9,37.5,16.8,16.5,51.9,5.9Z"/>
        <path class="cls-18" d="M-1200.5,968.1l-12-5.9-34.9,24c-.4.2-.8.4-1.2.4s-.7,0-1.1-.3l-9.2-5.3-8.4,26.2,75,24.1,7.4-9.8-12.5-51.5-3.1-1.8Z"/>
        <path class="cls-18" d="M-1258,953.5c-.4.4-.9.5-1.4.5s-1.1-.2-1.6-.7l-8.5-9.1-14.5-1-11.5,10.2c-.4.3-.9.5-1.4.5s-.2,0-.2,0c-.6,0-1.1-.4-1.5-.9l-5-6.9-28.8,9.8-2.8,11.7,16.6,16.7h26.7c1.2,0,2.1,1,2.1,2.1v13.4l18.6,6,9.2-28.7c.2-.6.7-1.1,1.3-1.3.2,0,.5-.1.8-.1.4,0,.7,0,1.1.3l10.4,6,31.8-21.8-31.3-15.4-10,8.8Z"/>
        <path class="cls-18" d="M-1418.4,955.4c.4-.4.9-.6,1.5-.6s.1,0,.2,0c.6,0,1.2.4,1.5.9l15.7,22.8h31.5l6.2-11.2c.4-.7,1.1-1.1,1.9-1.1h20.5l2.8-11.7-22.8-59.7-51.3-5.9c-.5,0-.9-.3-1.3-.6l-15.7-15.5-4,21.5c-.2,1-1.1,1.7-2.1,1.7s-.2,0-.3,0l-42.8-6.6c-.7-.1-1.3-.5-1.6-1.1-.3-.6-.3-1.3,0-2l5.5-10.6-18.1-7.1-37.6,36.8,8.7,39.8c0,.3,0,.5,0,.8l-6.8,41.5,27,17.7v-9c0-.9.5-1.7,1.3-2l67.3-26.7,12.7-12.2Z"/>
        <path class="cls-17" d="M-1182.3,1025.2l-7.5,9.9c-.4.5-1,.8-1.7.8s-.4,0-.7-.1l-27.1-8.7-28.1,40.4,26.4,27.2h20.6l36.1-51.7-18-17.9Z"/>
        <path class="cls-18" d="M-1152.5,1100l5.6-38.7-4.8-13-8.9-3-36.4,52.1,4.1,28.4,7.2-6.7c.4-.4.9-.6,1.5-.6s.6,0,.9.2c.8.4,1.3,1.2,1.2,2.1l-1.2,14.6,5.7,7.8,23.4-20.9,1.8-22.4Z"/>
        <path class="cls-18" d="M-1366.7,1064l.5,14.7,34.8-25.2,6-24.7c0-.3.2-.6.4-.8l10.1-13.5h-14.8c-.7,0-1.3-.3-1.7-.9l-13.7-18.2c-.4-.5-.5-1.1-.4-1.8l5.2-23.3h-18.3l-6.2,11.2c-.4.7-1.1,1.1-1.9,1.1h-33.9c-.7,0-1.4-.3-1.8-.9l-14.9-21.7-10,9.6,17.5,30.1,34.6,13c.5.2.9.6,1.2,1.1l18,36.8c.4.8.2,1.8-.4,2.4l-10.5,10.8Z"/>
        <path class="cls-18" d="M-1341.1,993.7l12.5,16.5h18c.8,0,1.5.5,1.9,1.2.4.7.3,1.6-.2,2.2l-12.5,16.6-5.8,24.2,8.1,15.1c18.9-14.6,20.1-14.6,20.9-14.6s1.4.4,1.8,1c1.4,1.5,15.2,13.5,23.7,20.7.5.4.8,1,.8,1.6v9.1l20.4-20.9,28.3-40.7-69.2-22.2c-.9-.3-1.5-1.1-1.5-2v-12.8h-25.4c-.6,0-1.1-.2-1.5-.6l-15.3-15.5-4.7,21.1Z"/>
        <polygon class="cls-18" points="-1201.5 1172.2 -1205.7 1172.2 -1207.7 1188 -1201.5 1188 -1201.5 1172.2"/>
        <polygon class="cls-18" points="-1209.7 1203.5 -1201.5 1203.5 -1201.5 1192.2 -1208.2 1192.2 -1209.7 1203.5"/>
        <polygon class="cls-18" points="-1160 1291.5 -1152.5 1284.2 -1167.3 1273.5 -1178.8 1282.5 -1183.3 1280 -1171.4 1263.5 -1175.4 1256 -1200.5 1279 -1214 1271.1 -1206.8 1291.5 -1160 1291.5"/>
        <polygon class="cls-18" points="-1215.9 1265.1 -1201.1 1273.7 -1177.4 1252.1 -1201.5 1206.4 -1209.7 1206.4 -1217.4 1261.5 -1216.1 1265.4 -1215.9 1265.1"/>
        <polygon class="cls-18" points="-1087 1135.5 -1087 1129.5 -1093.6 1129.5 -1093.6 1141.5 -1101.9 1141.5 -1101.9 1131.5 -1118.7 1132.6 -1115.6 1157.7 -1072.9 1150.5 -1072.9 1170.3 -1094.8 1172.9 -1094.8 1177 -1061.3 1173 -1061.3 1144.2 -1072.2 1135.5 -1087 1135.5"/>
        <polygon class="cls-18" points="-1083 1201.1 -1070.7 1218.3 -1063.4 1212.9 -1063.4 1177.7 -1084.7 1180.3 -1083 1201.1"/>
        <polygon class="cls-18" points="-1093.8 1156.2 -1093.8 1169.9 -1087.7 1169.9 -1087.7 1163.6 -1076.4 1163.6 -1076.4 1159.4 -1087.7 1159.4 -1087.7 1156.2 -1093.8 1156.2"/>
        <polygon class="cls-18" points="-1120.3 1164.6 -1122.6 1135.3 -1134.5 1143.5 -1134.5 1151.7 -1158.4 1168.1 -1163 1162.5 -1167.9 1165.3 -1151.4 1184.6 -1145.4 1181.2 -1132.9 1196.8 -1127.5 1186.2 -1136.6 1171 -1133.2 1164.4 -1120.3 1164.6"/>
        <polygon class="cls-18" points="-1135.4 1208.2 -1148.4 1186.4 -1156 1191.6 -1139.9 1213.4 -1135.4 1208.2"/>
        <polygon class="cls-18" points="-1144.1 1221.8 -1166.7 1189.1 -1176.2 1194.9 -1152.2 1239 -1144.1 1221.8"/>
        <polygon class="cls-18" points="-1181.7 1205.5 -1176.9 1202.5 -1181.9 1193.4 -1161.7 1181 -1170.8 1167.7 -1179 1171 -1174.1 1179.4 -1185.9 1187.9 -1181.7 1205.5"/>
        <polygon class="cls-18" points="-1101 1223.4 -1111.9 1214.6 -1134.7 1231.3 -1144.1 1248.7 -1138.4 1252 -1101 1223.4"/>
        <polygon class="cls-18" points="-1120.7 1245.6 -1107.1 1265.1 -1085.1 1250.5 -1097.7 1228.1 -1120.7 1245.6"/>
        <polygon class="cls-18" points="-1141.4 1261.4 -1120.3 1273.8 -1111.5 1268 -1125 1248.9 -1141.4 1261.4"/>
        <polygon class="cls-18" points="-1046.2 1169.9 -1042.1 1163.7 -1034.2 1167.1 -1032.9 1171.1 -1030 1164.4 -1046.2 1157.9 -1046.2 1169.9"/>
        <polygon class="cls-18" points="-1028.3 1171.1 -1022 1171.1 -1018.8 1178.2 -1014.8 1169.9 -1026 1165.6 -1028.3 1171.1"/>
        <path class="cls-18" d="M-1133.4,1372.8c-.3.2-.7.3-1.1.3s-.4,0-.6,0c-.6-.2-1-.6-1.3-1.1l-23.9-46.4c-.5-1-.2-2.3.8-2.8l8.3-4.8-3.5-8.6-24.9.9-14.8,14.5c-.4.4-.9.6-1.5.6s-.6,0-.9-.2l-21.6-10.5c-.8-.4-1.3-1.2-1.2-2.1,0-.9.7-1.6,1.6-1.9l9-2.4-14-37.8-29.7-1.9c-.3,0-.6-.1-.9-.2l-51.1-27.1c-.5-.2-.8-.7-1-1.1l-4.8-12.9-13.5-4.6-5.9,9.7-7.6,23.2c-.2.6-.6,1-1.1,1.3-.3.1-.6.2-.9.2s-.6,0-.8-.2l-20.4-8.6-16,2,2.6,12.9,18,4.8c.6.2,1.2.6,1.4,1.3l21.8,54.3,39.2,17.6c1,.5,1.5,1.6,1.1,2.7l-8.9,23.7,7.6,8,84.8-20c.2,0,.3,0,.5,0,.4,0,.8.1,1.2.4l59.3,40.5,28.8-24-1.5-6.7-12.6,7.3Z"/>
        <path class="cls-7" d="M-1111.3,1061c-.4.5-1,.8-1.6.8s-.5,0-.7-.1l-32.8-11.5,3.8,10.2c.1.3.2.7.1,1.1l-5.5,37.8,9.3,5.4c.8.4,1.2,1.3,1,2.2l-4,24.5c0,.5-.3.9-.7,1.3l-24.9,21.4,2,3.1,43.8-31.7c.4-.3.8-.4,1.2-.4h55.9c1.2,0,2.1,1,2.1,2.1v9.6h6.2v-97.2l-25.5-14.8-29.8,36.2Z"/>
        <path class="cls-17" d="M-1161.5,758.4l-33.7-64.9-2.5-4.9-43.9-57.3-25.7,26.9c0,0-.2.2-.3.2l-74.7,54.1,3,35.9,52.8,18.5c.5.2.9.6,1.2,1.1.2.5.2,1.1,0,1.6l-.3.7-22.6,53.5c4.1,3,19.1,13.6,29.6,20.9l37.5,4.5c.8,0,1.5.7,1.7,1.5l3.5,12.9,31-18.2,2.7-23.2-10.7-18.2c-.3-.5-.3-1-.2-1.5.1-.5.5-1,.9-1.2,15.5-8.7,21.5-11.8,24-13l1-18.2c0-.1,0-.2,0-.3,0,0,0-.2,0-.2,0-.1,0-.2.1-.3,0,0,0-.1.1-.2,0,0,.2-.2.2-.3,0,0,0-.1.1-.2.1-.1.3-.2.5-.3l24.5-9.8Z"/>
        <path class="cls-17" d="M-1094.5,797.7c.5.4.8.9.8,1.6l1,36.1h15.3c0,.1,12.5-12,12.5-12,.4-.4.9-.6,1.4-.6s.7,0,1,.3l26.3,14.9c2.8-.4,5.5-1,6.9-1.5l-3.4-17c-.1-.6,0-1.2.4-1.7l12.9-15.5v-17.6l-34.1-23.6c-.1,0-.2-.2-.3-.3,0,0,0,0,0,0,0,0-.1-.2-.2-.2,0,0,0-.1,0-.2,0,0,0-.1,0-.2,0,0,0-.2,0-.2,0,0,0-.1,0-.2h0s0,0,0,0h0c0,0-8.8-58.5-8.8-58.5l-.4-2.4-20.4,3.1v52.3c0,.1,0,.3,0,.4,0,.4-.3.7-.5,1l-15.7,15.7-7.4,29.8c4.4-1.4,11-3.5,11.4-3.6.6-.2,1.2,0,1.7.3Z"/>
        <path class="cls-17" d="M-979.5,856c.9-.3,1.9,0,2.3.9l.3.5-3.3-82.6c-.9-6.4-.9-10.6,0-14.1.9-3.3,1.9-7.1,1.7-14.3,0-2.9-.3-5.1-.5-6.9-.4-3.6-.7-6.2.7-10.3,1.1-3.5,2.5-5.2,3.9-7,1.3-1.6,2.6-3.3,4.3-6.9,1.1-2.2,2.5-6.9,5.2-15.5h0c2.3-7.7,2.5-8.8,2.5-10.1.1-2,0-3.6-.5-5.3l-22.9-2.5-47.9,10.6s0,0,0,0l-26,5.5,1.3,8.9,7.7,51.3,34.3,23.7c.5.4.9,1,.9,1.6v19.4c0,.5-.2.9-.5,1.3l-12.8,15.3,3.1,15.3,18.2-5.1c.8-.2,1.6,0,2.1.7l4.5,5.5c.6.7.6,1.8,0,2.5l-9.9,12,12.6,11.6,18.6-6.2Z"/>
        <path class="cls-17" d="M-1112.1,802.4l8.2-32.7c0-.3.3-.7.5-.9l15.5-15.5v-53.2c0-.1,0-.2,0-.4,0,0,0,0,0-.1,0,0,0-.1,0-.2,0,0,0,0,0-.1,0,0,0-.1,0-.2,0,0,0,0,0-.1,0,0,0-.1.1-.2,0,0,0,0,0-.1,0,0,0,0,.1-.1,0,0,0,0,.1,0,0,0,.1,0,.2-.1,0,0,0,0,.1,0,0,0,.1,0,.2,0,0,0,.1,0,.2,0,0,0,0,0,.1,0l20.7-4.4-2-13.3-3.2,1.2-64.7,21.6c-.3,0-.6.1-.9,0h-.2s-53.1-8.2-53.1-8.2l32.9,63.4c.3.5.3,1.1,0,1.6-.2.5-.6.9-1.1,1.2l-25.4,10.1-.4,16c3.3,1.6,13.1,6.8,43,24.1l28.7-9Z"/>
        <path class="cls-17" d="M-840.5,879.7l6.1,9.2c.3.6.3,1.3,0,1.9l-9.4,16.4-3.1,5.4,9.9,22.2,32.3,3.9,27.1-3,18.4-39.9v-1.7c-.1,0-4.3-54-4.3-54l-32.2-7.8c.1.3.2.6.2.9v19c0,.9-.6,1.7-1.5,1.9l-34.4,9.4-9.1,16.1Z"/>
        <path class="cls-17" d="M-833.3,837.2c-.8.5-1.8.5-2.5-.1l-36.1-32.9c-.2-.2-.4-.5-.5-.8v-.2c0,0-12.7-37.8-12.7-37.8l-36.2-24.1-34.2,27.9c-.2.2-.4.3-.6.3l-19.8,6.6c.8,12.5,3.3,84.9,3.5,89h0c0,0,0,0,0,0,0,0,0,0,0,0,0,.1,0,.3,0,.4,0,0,0,0,0,.1,0,0,0,.2,0,.3,0,0,0,0,0,0,0,.1-.1.2-.2.3,0,0,0,0,0,0,0,.1-.2.2-.3.3,0,0,0,0,0,0l-22.1,19.1,14.6,39.7,28-23.1c.7-.6,1.7-.6,2.4,0l.7.5s0,0,0,0l52.3,36.9,15.5-46.6c.2-.5.6-1,1.1-1.2,0,0,37.2-15.3,37.6-15.2l7.9-16.1c.3-.5.7-.9,1.3-1l34.3-9.4v-17.1l-12.5-11.3-21.3,15.2Z"/>
        <path class="cls-17" d="M-681.8,843.5l-14.9,41.7c-.2.7-.8,1.2-1.5,1.3l-57,10.1c0,.1,0,.3-.1.4h0c0,0,0,.1,0,.1l-19.1,41.4c-.3.6-.9,1.1-1.6,1.1l-28.4,3.2c0,0-.1,0-.2,0s-.2,0-.2,0l-30.1-2.8v32.2s-30.3,10.9-30.3,10.9l-29.2,26.2,24.2,15.1c.4.3.7.7.9,1.1l12.9,45.1h22.6l6.2-18.7c.2-.5.6-1,1.1-1.2.5-.2,1.1-.2,1.6,0l9.3,4.7c.9.4,1.3,1.4,1,2.3l-6,21,11.1,5.6c.7.3,1.1,1,1.1,1.8v9.1c0,1.1-.9,2-2,2h-7.7v5.7h21l-11.2-28.1c-.3-.7-.1-1.5.3-2l23.2-26.5c.4-.4.9-.7,1.5-.7h32.5l55.8-9.3,6.1-46-6.5-48.4c0-.6.1-1.2.5-1.6l.3-.3,35-38.2,7.8-31.2-29.9-27.1Z"/>
        <path class="cls-6" d="M-957.7,1194.4l.8-.6c1.5-1.2,3.1-2.3,4.6-3.4,2.7-2,5.5-4.1,8.2-6.2,10.7-8.6,21.6-13.6,30.3-17.6,6.7-3.1,13.1-6,13.5-8.4-.7-.8-3.4-3.2-7.1-6.5l-4.5-4c-16.1-14.1-21.1-18.9-20.6-25.6,0-1,.6-2.3,1.1-3.6l-53.2-24.8-4.7,53.8c0,.3-.2.7-.4,1l-6.4,9.1c0,0,0,.1-.1.2l-6.7,7.7c0,.5,0,1.2,0,1.6.1,1.4.2,3.4,0,7.3,0,1.7-.2,3-.3,4.1,0,0,0,.1,0,.1-.2,2.4-.3,3,.1,4,.6,1.7,2.2,3.7,4,4.2.5.1.7,0,1.4,0,1.1-.2,2.7-.5,5,0,1.6.4,2.8,1,3.8,1.7.4-1.4,1.2-3.1,2.9-4.3,1.5-1.1,3.3-1.5,5-1.5s3.7.5,5.1,1.1c7.8,3.6,8.5,14.8,8.5,16,0,.6,0,1.2,0,1.7,2.6-1.8,6.3-4.6,9.6-7Z"/>
        <path class="cls-6" d="M-881.5,1070.6l7.9,13.2,10.2-12.7c.4-.5.9-.7,1.5-.7l-12.5-43.8-24.5-15.3c-.2-.1-.4-.3-.6-.6,0,0,0,0,0,0,0,0,0-.2-.1-.2,0,0,0-.1,0-.2,0-.1,0-.3,0-.5,0-.3,0-.5.1-.8,0,0,0,0,0-.1,0,0,0-.1.1-.2,0,0,0-.1,0-.2,0,0,0,0,.1-.1,0,0,.1-.1.2-.2l31.4-28.2c.1-.1.3-.2.4-.3l1.6-1.4c.2-.2.4-.3.7-.4l26.1-8.7v-26.9l-1.1-4.5s0,0,0,0l-10.7-24.1h0c0-.1,0-.1,0-.1h0c0,0,0-.1,0-.2,0,0,0-.2,0-.3,0-.1,0-.2,0-.3,0,0,0,0,0-.1,0-.1,0-.3,0-.4,0,0,0,0,0,0,0-.1.1-.3.2-.4l12.3-21.5-5.1-8-35,14.6-15.6,46.9c-.2.6-.7,1.1-1.3,1.3-.2,0-.4,0-.5,0,0,0,0,0,0,0,0,0,0,0-.1,0-.1,0-.3,0-.4,0,0,0-.1,0-.2,0-.2,0-.3-.1-.5-.2l-53.3-37.6-27.5,21.6,17.2,10c.7.4,1.1,1.1,1,1.9-1.9,20-3.6,42.7-2.9,45.7,1.8,2.6,22,27.4,35.4,43.7.6.7.6,1.6.1,2.4l-25,37c-.3.4-.6.7-1.1.8l-29.5,9-1.3,10.4,45.1,21.1,9.6,4.5c1.1-1.4,2.6-2.9,4.4-4.8,6.4-6.5,13.3-9,17.5-10.5,3.3-1.2,6.8-2.1,10.3-2.7h-17.1c-.9,0-1.6-.5-1.9-1.4-.3-.8,0-1.7.7-2.2l31.1-23.3c.4-.3,1-.5,1.6-.4.6.1,1,.4,1.3.9Z"/>
        <path class="cls-11" d="M-993.1,1146.6l4.9-56.1s0,0,0,0c0,0,0,0,0,0l1.6-13.1c0-.8.6-1.4,1.4-1.7l30.1-9.1,23.8-35.2c-13.2-16.1-34.3-42-35-43.3-1.5-3,.8-29.9,2.4-46.6l-18.7-10.8s0,0-.1,0c0,0-.2-.1-.2-.2,0,0,0-.1-.1-.2,0,0-.1-.1-.2-.2,0,0,0,0,0-.1l-11.4,6.4-20.1,69.7c-.2.8-.9,1.4-1.7,1.5l-25,4.2c-.1,0-.2,0-.4,0-.7,0-1.3-.3-1.7-.8l-11.5-15.2-16.3,9.4,2.9,22.4,15.6,9c.7.4,1.1,1.1,1.1,1.9v98.4h5.2c1.2,0,2.1,1,2.1,2.1v12.6l23.6,8.6,26-11.3,1.6-2.2Z"/>
        <path class="cls-11" d="M-997.5,933l12.7-7.2-14.7-39.9c-.3-.8,0-1.6.6-2.2l21.8-19-2.7-4.5-18.2,6.1c-.7.2-1.4,0-2-.4l-14.8-13.7c-.8-.7-.9-1.9-.2-2.7l10-12.2-2.7-3.3-18.6,5.2c-2.1,1.5-7.2,2.3-10.2,2.7,0,0-.2,0-.3,0-.3,0-.7,0-1-.3l-12.9-7.3-3.3,4.6,24.3,50.7c.4.8.2,1.8-.4,2.4l-6.3,6.7c-.4.4-1,.7-1.6.7s-.1,0-.2,0c-.7,0-1.2-.4-1.6-1l-6.9-10.9-39.7,27.4c-.4.2-.8.4-1.2.4s-.7,0-1.1-.3l-10.6-6.1-4.7,5.5,10.6,23.9,52.3,68.9,22.4-3.7,20-69.2c.2-.5.5-1,1-1.3Z"/>
        <path class="cls-9" d="M-1058.1,837.5l3.7-5.3-8.9-5-12.1,11.6c-.4.4-.9.5-1.4.6h-18c-1.1-.1-1.9-1-2-2.1l-.9-35.4c-3.7,1.2-10.5,3.3-12.2,3.9,0,0,0,0,0,0,0,0,0,0,0,0l-30.5,9.6c-.2,0-.4,0-.6,0-.3,0-.7,0-1-.3-14.5-8.3-37.5-21.4-43.2-24.2-.3.2-.6.4-.9.4-1.7.6-12.5,6.5-22.5,12.1l10.1,17.1c.2.4.3.8.3,1.2l-2.8,24.8c0,.6-.4,1.2-1,1.5l-33,19.4-3.3,10.8,11.6,11,21.4-3.9c.1,0,.3,0,.4,0,.7,0,1.3.3,1.7.8l3.8,5c.6.8.6,2-.1,2.7l-13.4,14.5,4.1,5.7,54.5,5.2c.7,0,1.4.5,1.7,1.1l14.2,27.4,29,1.6,11.8-10.8-10.6-24c-.3-.8-.2-1.6.3-2.3l6.8-7.8c.4-.5,1-.7,1.6-.7s.7,0,1.1.3l11,6.3,40.4-27.9c.4-.2.8-.4,1.2-.4s.3,0,.4,0c.6.1,1.1.5,1.4.9l6.6,10.4,3.4-3.7-24.2-50.5c-.3-.7-.3-1.5.2-2.2Z"/>
        <path class="cls-18" d="M-1217.1,926.2c0-.7.5-1.3,1.1-1.7l10.7-5.5-4.9-.5c-.6,0-1.2-.4-1.5-.9l-5.7-7.9c-.6-.8-.5-2,.2-2.7l13.3-14.5-1.9-2.6-21.2,3.8c-.1,0-.3,0-.4,0-.5,0-1.1-.2-1.5-.6l-13.4-12.7c-.6-.6-.8-1.4-.6-2.2l3.6-11.8-3.7-13.7-36.7-4.4c-.3,0-.6-.2-.9-.3-6-4.2-17.4-12.2-24.8-17.4l-9.1,26.6h18c.9,0,1.7.6,2,1.5l12.3,38.1,21.6,28.1c.5.6.6,1.4.3,2.1l-5.9,14.5,6.7,7.2,9.5-8.4c.4-.4.9-.5,1.4-.5s.6,0,.9.2l47.6,23.5,12.6-11.7-29-23.9c-.6-.5-.8-1.2-.8-1.9Z"/>
      </g>
    </g>
  </g>
</svg>