<?xml version="1.0" encoding="utf-8"?>
<!-- Generator: Adobe Illustrator 26.3.1, SVG Export Plug-In . SVG Version: 6.00 Build 0)  -->
<svg version="1.1" id="レイヤー_1" xmlns="http://www.w3.org/2000/svg" xmlns:xlink="http://www.w3.org/1999/xlink" x="0px"
	 y="0px" width="589.9px" height="589.8px" viewBox="0 0 589.9 589.8" style="enable-background:new 0 0 589.9 589.8;"
	 xml:space="preserve">
<style type="text/css">
	.st0{fill:#FFFFFF;}
	.st1{fill:#6C5733;}
	.st2{opacity:0.7;clip-path:url(#SVGID_00000148627046255744327830000006551705382138005633_);}
	.st3{fill:#E798A2;stroke:#FFFFFF;stroke-width:2.126;stroke-miterlimit:10;}
	.st4{fill:#C3BDB7;stroke:#FFFFFF;stroke-width:2.126;stroke-miterlimit:10;}
	.st5{fill:#F0BD58;stroke:#FFFFFF;stroke-width:2.126;stroke-miterlimit:10;}
	.st6{clip-path:url(#SVGID_00000148627046255744327830000006551705382138005633_);fill:#329739;}
	.st7{fill:none;stroke:#E798A2;stroke-width:3;stroke-miterlimit:10;}
	.st8{opacity:0.7;fill:#E798A2;}
	.st9{fill:none;stroke:#F0BD58;stroke-width:3;stroke-miterlimit:10;}
	.st10{display:none;fill:none;stroke:#A279C9;stroke-width:0.9921;stroke-miterlimit:10;}
	.st11{opacity:0.7;fill:#F0BD58;}
</style>
<g>
	<g>
		<rect x="0.1" y="0.1" class="st0" width="589.6" height="589.6"/>
	</g>
	<path class="st1" d="M435.2,88.5H154.6c-18,0-32.6-14.6-32.6-32.6v0c0-18,14.6-32.6,32.6-32.6h280.6c18,0,32.6,14.6,32.6,32.6v0
		C467.8,73.9,453.2,88.5,435.2,88.5z"/>
	<g>
		<path class="st0" d="M198.7,47.8c-1.2,0-1.7-0.8-1.7-1.6c0-0.8,0.6-1.6,1.7-1.6h11.4c1.2,0,1.7,0.8,1.7,1.6c0,0.8-0.6,1.6-1.7,1.6
			H198.7z M231.2,47.8l-8.7-0.1c-0.1,1.4-0.2,2.9-0.4,4.2c1.6,0,3-0.1,4.8-0.1c2.5,0,4,1.2,4,3.8c0,8.2-0.9,17-7.9,17
			c-1.3,0-2.7-0.3-4.4-1c-0.8-0.3-1.2-1-1.2-1.7c0-1.1,0.8-2.2,1.8-2.2c0.2,0,0.4,0,0.6,0.2c1.2,0.6,2.1,0.9,3,0.9
			c4.2,0,4.3-9.3,4.3-12.2c0-1.1-0.6-1.5-1.4-1.5c-1.3,0-2.6,0-4,0c-1,7.1-3.3,13-8.8,17.4c-0.4,0.3-0.9,0.5-1.4,0.5
			c-1.1,0-2.1-0.8-2.2-1.9c-1,1.1-2.1,1.1-5.3,1.1c-1,0-2,0-2.8-0.1c-1.8-0.1-2.9-1.4-3-3.2c0-1,0-2,0-3s0-1.9,0-2.8
			c0-1.5,1-2.9,2.9-3c0.8,0,1.7-0.1,2.6-0.1c1.1,0,2.3,0,3.2,0.1c1.5,0.1,3.2,1.1,3.2,2.8c0,0.9,0,2,0,3c0,1,0,2,0,2.9
			c0,0.2,0,0.5-0.1,0.7c0.1,0,0.1-0.1,0.2-0.2c6.8-5,8-13.5,8.3-21.8l-4.6,0.1h0c-1.2,0-1.8-0.9-1.8-1.8s0.6-1.8,1.8-1.8h5.7v-4.2
			c0-1.2,1-1.8,2-1.8c1,0,2,0.6,2,1.8v4.2h7.5c1.2,0,1.8,0.9,1.8,1.8S232.4,47.8,231.2,47.8L231.2,47.8z M200.3,42.3
			c-1.1,0-1.6-0.8-1.6-1.6s0.5-1.6,1.6-1.6h8.5c1.1,0,1.6,0.8,1.6,1.6s-0.6,1.6-1.6,1.6H200.3z M200.4,53c-1.1,0-1.6-0.8-1.6-1.6
			s0.5-1.6,1.6-1.6h8.5c1.1,0,1.6,0.8,1.6,1.6s-0.6,1.6-1.6,1.6H200.4z M200.4,58.2c-1.1,0-1.6-0.8-1.6-1.6s0.5-1.6,1.6-1.6h8.5
			c1.1,0,1.6,0.8,1.6,1.6s-0.6,1.6-1.6,1.6H200.4z M206.9,66.2c0-0.7,0-1.4,0-2c-0.1-1-0.8-1.1-2.6-1.1c-2.6,0-2.6,0-2.6,3
			c0,0.7,0,1.4,0,2c0,0.6,0.2,1,2.5,1c1.4,0,2.6,0,2.7-1C206.9,67.6,206.9,66.9,206.9,66.2z"/>
		<path class="st0" d="M243.4,73.4c-1,0-1.9-0.6-1.9-1.6c0,0,0,0,0-0.1c0.3-7.3,0.2-20,0.3-28.6c0-3.9,2.7-3.9,6.9-3.9
			c1.5,0,3.2,0,3.9,0c2,0.1,3.5,1.4,3.6,3.2c0,1.4,0.1,2.9,0.1,4.4c0,5.1,0,6.1-8,6.1c-1,0-2,0-2.8-0.1c0,1,0,2.2,0,3.6
			c0,4.3,0,9.7-0.2,15.4C245.3,72.9,244.3,73.4,243.4,73.4z M252.7,44.7c0-0.5,0-1,0-1.4c-0.1-1.1-0.3-1.2-3.5-1.2
			c-3.3,0-3.6,0.1-3.6,1.6c0,0.3,0,0.7,0,1H252.7z M245.5,47.3v2.6c0.6,0,1.8,0,3,0c3.9,0,4.2-0.2,4.2-1.3c0-0.4,0-0.8,0-1.3H245.5z
			 M261.2,67.9c-0.9,0.1-2.2,0.1-3.5,0.1c-6.6,0-7.8-0.1-7.8-5.9c0-1.2,0-2.3,0.1-3.4c0.1-2.1,1.5-3.5,3.7-3.6c1,0,2.4-0.1,3.9-0.1
			c1.5,0,2.9,0,3.8,0.1c2,0.1,3.6,1.6,3.7,3.6c0,1,0.1,2.2,0.1,3.3c0,0.7,0,1.4,0,2.1C264.9,66.2,263.6,67.7,261.2,67.9z
			 M261.4,60.7c0-2.5-0.2-2.6-4-2.6c-3.8,0-3.9,0.1-3.9,3c0,0.8,0,1.6,0,2.3c0.1,1.2,1.1,1.3,3.9,1.3c0.9,0,1.8,0,2.4,0
			C261.4,64.6,261.4,64,261.4,60.7z M267.1,52.9c-4.7,0-8,0-8.2-3.5c0-0.8,0-1.7,0-2.6c0-1.5,0-3,0.1-4.4c0.1-1.8,1.4-3.1,3.5-3.2
			c0.8,0,2.4,0,4.1,0c1.2,0,2.3,0,3,0c3,0.2,4.2,1.8,4.2,3.6c0,1,0,2,0,3c0,6,0.1,12.2,0.1,17.3c0,1.9,0,3.6,0,5
			c0,2.8-1.4,5.3-6,5.3c-2.8,0-4.2-0.4-4.2-2.1c0-0.9,0.6-1.8,1.6-1.8c0.1,0,0.2,0,0.3,0c0.8,0.1,1.5,0.2,2.1,0.2
			c1.3,0,2.3-0.5,2.4-2.4c0-1.6,0.1-3.3,0.1-5c0-2.6,0-5.3,0-7.8c0-0.6,0-1.1,0-1.6C269.3,52.8,268.3,52.9,267.1,52.9z M270,44.7
			c0-2.6-0.1-2.6-3.8-2.6c-3.2,0-3.6,0-3.7,1.3c0,0.4,0,0.8,0,1.3H270z M270.1,47.3h-7.6c0,0.5,0,0.9,0,1.3c0,1.1,0.2,1.3,4.4,1.3
			c1.3,0,2.6,0,3.2,0V47.3z"/>
		<path class="st0" d="M290.2,52.6c-2.6-0.1-2.5-3.8,0.1-3.8c5.2,0.1,12.2,0,18.2-0.2c1.4,0,2.1,0.9,2.1,1.9c0,1-0.8,1.9-2.1,2
			c-2,0-4.5,0.1-7.1,0.1c0,3.4,0,8,0,10.6c4.4,0,8.8-0.1,12.4-0.1c1.3,0,2,1,2,2.1c0,1-0.8,2-2.4,2c-8.5-0.2-20-0.1-27.7,0.1
			c-3.2,0.1-3-3.9,0-3.9c3.1-0.1,7.3-0.1,11.6-0.2c0.1-3,0-8.2,0-10.6C294.5,52.7,291.9,52.7,290.2,52.6z"/>
		<path class="st0" d="M329.6,59.8c-1,0-2.2-0.7-2.1-2c0.2-4,0.1-10.2-0.1-14c-0.1-2.5,4-2.7,4.2-0.2c0.2,3.6,0.2,10.4,0.1,14.2
			C331.6,59.1,330.6,59.8,329.6,59.8z M329.9,69.5c7.1-3.9,8.7-9.3,8.7-15.2c0-3.1-0.2-8.1-0.2-11.2c0-2.6,4.3-2.4,4.3,0
			c-0.1,3.4,0.1,7.9,0.1,11.2c0,6.9-2.1,13.8-10.4,18.6C329.1,74.6,327.4,70.9,329.9,69.5z"/>
		<path class="st0" d="M361,71.6c-1.6,1-3.1,0.6-3.8-0.4s-0.5-2.3,1.1-3.1c6.7-3.3,9-9.9,8.4-15.7c-0.2-1.7,0.9-2.4,2.2-2.4
			c1.2,0,2.4,0.6,2.4,2.3c0,0.5,0,1,0,1.5c0.1,0,0.2-0.1,0.3-0.2c2.7-1.1,5.7-2.9,7.3-5c0.6-0.8,0.6-1.4-0.4-1.4
			c-4.5,0-13.2,0.1-18.8,0.4c-3.5,0.2-3.3-3.7-0.3-3.8c5.8-0.3,14.5-0.2,20.5-0.2c4.2,0,6.1,3.5,3.3,6.6c-2.6,3-5.6,5.6-9.9,7.1
			c-0.9,0.3-1.7,0.2-2.3-0.1C369.9,63.1,366.9,67.9,361,71.6z"/>
	</g>
	<g>
		<defs>
			<rect id="SVGID_1_" x="0.1" y="0.1" width="589.6" height="589.6"/>
		</defs>
		<clipPath id="SVGID_00000136412157461660653870000004145847457572506497_">
			<use xlink:href="#SVGID_1_"  style="overflow:visible;"/>
		</clipPath>
		<g style="opacity:0.7;clip-path:url(#SVGID_00000136412157461660653870000004145847457572506497_);">
			<path class="st3" d="M119,214l-17.2-2.8l-2.8,17.1L84,234.7l-0.2-0.1l-3.1-0.9l1.7,8.7l-2,8.1L99,271.1l-0.1,0.3l-6.1,26
				l16.2,2.3l35.4,22.5l0.9,0.6l9.1,5.8l24.3,8.1l22.7-20.7l0.3,0.2l57.4,31.7l1.4,0.8l0.4,0.2l4.3-21.5l-2.2,0.1l-12.5-33.5v-27
				l3.5-5l-7.5-19.3l-18.3-20.3l-35,4.1l-0.1-0.1l-20.8-12.5l-2.9-4.6c-2.5,1.2-5.2,2.3-8.8,3.3l-2.3,0.6c-4.7,1.3-7.5,2.1-10.6,1.4
				c-4.5-1-8.3-3.9-11.5-7.5l-17.1,7L119,214z"/>
			<polygon class="st4" points="-6.9,408.8 13.9,408.8 50.6,402.7 52.2,390.2 52.4,389.2 54.6,372.2 50.5,341.1 50.6,341 
				73.2,316.3 78.5,295.4 57.4,276.3 47.3,304.7 10.3,311.8 10.3,312.6 -2.2,339.7 -21.1,341.8 -42.1,339.4 -41.2,341.3 
				-41.2,360.2 -60,366.5 -80,384.5 -64,394.6 -55.3,424.8 -38.3,424.8 -34.1,412 -28.1,415 -32.3,429.4 -24.2,433.4 -24.2,439.2 
				-30.4,439.2 -30.4,445.4 -13.8,445.4 -21.7,425.7 			"/>
			<polygon class="st4" points="54.9,431.5 70.6,411.9 71.1,411.2 71.1,410.9 71.1,397.3 53.2,390.6 51.5,403.6 14,409.8 
				-6.5,409.9 -20.5,425.9 -12.7,445.4 -11.8,445.4 -11.8,453.7 -30.4,453.7 -30.4,459.8 -24.2,459.8 -24.2,461.9 -17.4,461.9 
				-6.6,453.3 2.5,463.1 28.1,431.5 			"/>
			<line class="st5" x1="119.9" y1="575.3" x2="81.3" y2="577.3"/>
			<line class="st5" x1="122.1" y1="575.2" x2="119.9" y2="575.3"/>
			<path class="st5" d="M122.1,575.2v-6.1H74.6l-3.7-20.6h31l-2.6-10.3H78.7l8.9-7.1l-15.7-18l-7.9,5.3l10.4,12.5l-4.8,4.8
				L3.2,463.9l25.4-31.4h26.8l16.5-20.6h16.5l18.3-26.4l14.7,18.9l1.7-7.5l11.1,13.3l0.8,1l1.9,2.3l-6,8.1v18.9l0.1,0.1
				c2.9,4.8,17.4,28.8,20.7,29.2c0.3,0,0.5-0.1,0.7-0.2c1.4-1.4,12.7-3.1,20.1-3.9l12,12l-4.2,16.8h11.4l8.3-28.9l8.5-1.4l1-0.2
				l2.1-0.4l10.2,20.4l31.7,12.3l1,0.4l4.7,1.8l5.8,1.9l-4.1,26.5l18.7,31.1l8.9,11.5l-4.6,2.1l-0.3,0.1v31.2l16.3,34.8l-18.3,10.2
				l-4.3,12.9l-0.3,1l-1.5,4.5h-18.8h-1.2h-0.1l-28.5-16.3v-37.1l-16.9-10.6l-33,12.4l-45.2-18.5l-24.8-2.1l-21.9-5.2l0.3-0.3
				l-3.9-11.6L122.1,575.2z"/>
			<polygon class="st4" points="46.5,303.8 57,274.5 78.8,294.2 79.6,295 80.1,295.5 91.8,297.2 97.9,271.4 79.3,250.8 81.4,242.4 
				79.6,233.4 63.4,228.5 39,232.5 8,275.9 7.5,275.8 10.2,310.8 			"/>
			<polygon class="st3" points="249.6,372.3 259.6,388.5 263.6,398.4 281.9,394.4 290.4,397 291.7,390.5 303,380.5 297.9,376.7 
				289.4,355.4 308.2,351.2 308.2,333.6 304.3,333.6 296.1,325.4 266.3,327.2 261.6,350.4 261,350 263.9,357.9 			"/>
			<polygon class="st3" points="212.1,462.4 222.5,483.1 253.6,495.2 256.6,475.5 250.4,469.2 258.8,448.2 271.2,431.7 287.6,411.2 
				290.2,398 281.9,395.4 263,399.6 258.7,388.9 248.2,372.2 262.7,357.7 259.7,349.3 201.6,317.2 178.9,337.8 153.9,329.4 
				144.6,323.5 136,333.3 136,366.2 127.8,376.6 123.4,395.6 135.5,410.1 152,408.8 176.6,402.7 195.4,394.3 204.1,403 200,423.7 
				206.1,436.1 209.3,462.8 			"/>
			<path class="st3" d="M203,403.3l-7.8-7.8l-18.2,8.1l-24.8,6.2l-15.9,1.2l2,2.4l-6.3,8.4v18.2c8.4,14,18.1,28.5,19.8,28.6
				c2-2.1,18.9-4,20.8-4.2l0.2,0l12.7,12.7l-4,16.1h9.3l8.2-28.8l9.2-1.5l-3.1-26.7l-6.2-12.4l0-0.2L203,403.3z"/>
			<polygon class="st5" points="87.9,410.9 106.7,383.7 120.8,402 122.3,395.9 122.6,394.6 126.9,376 135,365.9 135,332.9 
				143.7,322.9 108.6,300.6 92.6,298.3 91.6,298.2 79.7,296.5 79.5,296.4 79.3,296.2 74.1,316.9 51.6,341.5 55.7,372.2 53.4,389.6 
				72.2,396.6 72.2,410.9 			"/>
			<polygon class="st4" points="26.8,745.3 26.8,761.2 74.1,755 83,812.1 83.2,813.1 84.5,821.1 98.8,823.2 98.9,823.4 121.7,864.9 
				109.2,883.7 100.7,894.6 113.5,908.1 103.1,922.7 113.3,986.3 131.5,1010.4 151.7,983.9 170.2,979.8 176.4,959.3 192.9,940.8 
				211.5,918 225.5,914 220.4,901.7 220,900.8 205.1,864.9 205.1,840.3 194.7,825.8 200.9,811.3 193.8,797.5 193.3,796.6 
				169.9,751.4 182.2,739.1 170.1,724.8 165.9,705.8 166.2,705.7 195,693.3 209.7,680.8 222.2,687.1 242.6,683.7 243.7,683.5 
				246.5,683 254.8,667.4 225.7,650.8 225.7,613.7 209.7,603.7 176.7,616 131.3,597.4 106.6,595.4 84.2,590.1 77.1,599 84.1,607.7 
				88.3,603.5 93.6,611.5 86.1,618.9 61.4,598.3 37.3,622.4 25.6,640.1 31.6,646.1 28.9,654.2 20.4,647.8 13.2,658.6 19.4,664.8 
				14.3,672.4 6,668.3 -3.4,681.4 7,695.9 4.3,698.6 12.3,716.2 			"/>
		</g>
		
			<circle style="clip-path:url(#SVGID_00000136412157461660653870000004145847457572506497_);fill:#329739;" cx="104.2" cy="362.1" r="9.2"/>
		
			<circle style="clip-path:url(#SVGID_00000136412157461660653870000004145847457572506497_);fill:#329739;" cx="197.1" cy="344.7" r="9.2"/>
	</g>
	<g>
		<g>
			<g>
				<g>
					<g>
						<path class="st1" d="M338.3,182.7c-2.5,3.1-3.5,3.5-4.3,3.5c-1,0-1.7-0.7-1.7-1.6c0-0.4,0.2-0.9,0.6-1.3
							c3.6-3.3,6.9-8,8.7-13.1c0.3-0.8,0.9-1.1,1.6-1.1c1,0,2.1,0.8,2.1,1.8c0,1.2-3.3,6.6-3.4,6.8l-0.4,21.6c0,1.1-0.9,1.6-1.9,1.6
							c-0.9,0-1.7-0.5-1.7-1.6c0,0,0,0,0-0.1L338.3,182.7z M346.7,199.7c-1.2,0-1.7-0.7-1.7-1.5c0-0.8,0.6-1.7,1.7-1.7l7.1,0v-8.2
							l-4.2,0c-0.6,1.1-3.5,5.7-5.6,5.7c-1,0-1.9-0.7-1.9-1.6c0-0.4,0.2-0.9,0.7-1.3c3.4-3,5.7-7.1,7-11.5l-4.7,0h0
							c-1.1,0-1.7-0.8-1.7-1.6c0-0.9,0.6-1.7,1.7-1.7l5.5,0c0.4-1.9,0.6-3.7,0.7-5.4c0.1-1.1,0.9-1.6,1.8-1.6c1,0,2,0.6,2,1.7
							c0,0-0.2,2.4-0.9,5.4l10,0c1.1,0,1.7,0.8,1.7,1.6s-0.6,1.7-1.7,1.7l-10.8,0c-0.6,2-1.3,3.8-2.1,5.6h11.2
							c1.2,0,1.8,0.8,1.8,1.6c0,0.8-0.6,1.6-1.8,1.6l-5.2,0v8.2l7.2,0c1.1,0,1.7,0.8,1.7,1.6c0,0.8-0.6,1.6-1.7,1.6H346.7z"/>
					</g>
					<g>
						<path class="st1" d="M373.8,198.4c-0.6,0.4-1.1,0.6-1.6,0.6c-1.1,0-1.9-0.8-1.9-1.7c0-0.5,0.3-1.1,0.9-1.5
							c4.5-2.9,5.4-6.2,5.4-12c0-0.6,0-1.3,0-2c0,0,0,0,0-0.1c0-1.6,1.2-2.8,3.8-2.8c1.9,0,3.7,0,5.4,0c2.1,0,4.2,0,6.4,0.1
							c2.5,0.1,4,0.9,4.1,2.7c0.1,0.7,0.1,1.7,0.1,2.7c0,4,0,5.4-4.1,5.6c-2.1,0-4.1,0.1-6.2,0.1c-2.1,0-4.2,0-6.5,0
							C378.7,192.9,377.2,195.7,373.8,198.4z M381.9,177.4c-0.8,0-1.2-0.5-1.3-1.1c-3.4,2.9-7.3,5.6-8.6,5.6c-1,0-1.7-0.9-1.7-1.7
							c0-0.6,0.3-1.3,1.1-1.6c4.1-1.8,8.6-5.7,11.3-8.7c1-1.1,2-1.7,3.2-1.7c1.1,0,2.3,0.6,3.5,1.7c3.5,3.3,7.4,5.9,11.6,7.8
							c0.7,0.3,1,0.9,1,1.4c0,0.9-0.8,1.9-1.9,1.9c-1.7,0-6.9-3.8-8.2-4.8c0,0.7-0.4,1.3-1.3,1.3H381.9z M393.5,200.3
							c-1.9,0.1-3.8,0.1-5.7,0.1c-2,0-4,0-6.1-0.1c-1.9-0.1-3.1-1.4-3.2-2.8c0-0.4,0-0.9,0-1.3c0-0.6,0-1.3,0.1-1.9
							c0.1-1.2,1.1-2.5,3.1-2.6c2-0.1,4-0.1,5.9-0.1c2,0,4,0,6.1,0.1c1.6,0,3.4,1,3.5,2.4c0,0.5,0.1,1.1,0.1,1.7
							c0,0.6,0,1.1-0.1,1.6C397,198.9,395.6,200.2,393.5,200.3z M379.9,185.6l-0.1,1.8c2.3,0,4.4,0,6.3,0c1.9,0,3.7,0,5.3,0
							c1.2,0,1.2-0.8,1.2-1.8H379.9z M392.6,183.2c0-1.1,0-1.7-1.2-1.7c-2.4,0-4.6,0-6.8,0c-1.1,0-2.2,0-3.3,0
							c-1.1,0-1.4,0.6-1.4,1.4v0.4H392.6z M393.6,195.2c-0.1-0.9-1-0.9-6.1-0.9c-1.6,0-3.1,0-4.4,0.1c-0.9,0-1.3,0.3-1.3,1.7
							c0,1.4,0.1,1.4,5.8,1.4c6,0,6,0,6-1.5C393.6,195.8,393.6,195.5,393.6,195.2z M390.2,174.6c-1-0.9-2-1.8-2.9-2.7
							c-0.4-0.4-0.8-0.7-1.1-0.7s-0.6,0.2-1,0.7c-0.8,0.9-1.7,1.8-2.7,2.7H390.2z"/>
					</g>
					<g>
						<path class="st1" d="M408.5,201.2c-0.9,0-1.8-0.6-1.8-1.6c0-6.7,0-18.9,0.2-26.7c0.1-3.5,2-3.5,5.4-3.5c0.7,0,1.4,0,2,0
							c2.1,0.1,3.2,1.2,3.2,2.8c0,0.7-0.2,1.8-2.2,6c-0.2,0.4-0.3,0.7-0.3,1c0,0.5,0.2,1,0.6,1.5c1.3,1.6,2,3.2,2,5.7
							c0,3.2-2,5.6-4.7,5.6c-0.6,0-2.6-0.1-2.6-1.8c0-0.8,0.6-1.6,1.3-1.6c0.1,0,0.3,0,0.4,0.1c0.2,0,0.3,0.1,0.5,0.1
							c0.8,0,1.7-0.7,1.7-2.7c0-1.7-0.5-3-1.4-4.3c-0.7-1-1-1.8-1-2.6c0-0.7,0.2-1.3,0.5-2.1c0.8-1.8,1.5-4,1.5-4.3
							c0-0.4-0.2-0.7-1.5-0.7c-1.4,0-2.1,0-2.1,1.3c0,3.4-0.1,7.8-0.1,12.4c0,11.5,0,13.2,0,13.7
							C410.2,200.7,409.3,201.2,408.5,201.2z M414,199.3c0-0.7,0.4-1.4,1.4-1.8c5-1.8,6.4-4.7,7-8.6c0.1-1,0.9-1.4,1.6-1.4
							c0.9,0,1.9,0.7,1.9,1.7c0,0.1,0,0.2,0,0.3c-1.7,10-9.6,11.5-10.1,11.5C414.7,201,414,200.2,414,199.3z M434,178.9v-1.5
							c0-1.3-0.5-1.6-1.7-1.6c-1.5,0-3.3-0.1-5-0.1c-1.7,0-3.4,0-4.8,0.1c-1.4,0-1.8,0.4-1.8,1.5v1.6c0,1-0.9,1.6-1.7,1.6
							c-0.9,0-1.7-0.5-1.7-1.6c0-0.5,0-1.2,0-1.8c0-1.7,0.1-4,3.8-4.1c1.3,0,2.7-0.1,4.1-0.1l0-2.6v0c0-1.1,0.9-1.7,1.9-1.7
							c0.9,0,1.9,0.6,1.9,1.7v0l0,2.6c1.6,0,3.3,0,4.7,0.1c2.4,0.1,3.8,1.2,3.8,3.4c0,2.6,0,2.6,0,2.6c-0.1,1-1,1.6-1.8,1.6
							C434.8,180.5,434,179.9,434,178.9L434,178.9z M434.8,193.9c0-1,0.8-1.5,1.6-1.5c0.6,0,1.9,0.3,1.9,1.8c0,5.3-2,6.3-6,6.3
							c-3.8,0-4.8-1.6-4.8-4.3c0-1.3,0-6.9,0.1-9.4l-8.3,0.1c-1,0-1.5-0.8-1.5-1.6c0-0.7,0.5-1.5,1.5-1.5h16.8c1,0,1.4,0.8,1.4,1.6
							s-0.5,1.5-1.4,1.5h0l-5-0.1c0,2.2-0.1,6.5-0.1,8.4c0,1,0.1,1.9,1.5,1.9c2.1,0,2.5-0.6,2.5-2.8
							C434.8,194.2,434.8,194.1,434.8,193.9L434.8,193.9z M423,181.3c-1,0-1.6-0.7-1.6-1.5c0-0.7,0.5-1.5,1.6-1.5h8.9
							c1,0,1.4,0.7,1.4,1.5c0,0.7-0.5,1.5-1.4,1.5H423z"/>
					</g>
				</g>
			</g>
			<g>
				<g>
					<g>
						<path class="st1" d="M338.4,231.7c-1.8,2.3-2.6,2.6-3.1,2.6c-0.7,0-1.2-0.5-1.2-1.2c0-0.3,0.1-0.6,0.5-0.9
							c2.6-2.4,5-5.9,6.3-9.5c0.2-0.6,0.7-0.8,1.2-0.8c0.7,0,1.5,0.6,1.5,1.3c0,0.9-2.4,4.8-2.5,5l-0.3,15.8c0,0.8-0.7,1.2-1.4,1.2
							c-0.6,0-1.2-0.4-1.2-1.1c0,0,0,0,0-0.1L338.4,231.7z M344.5,244.1c-0.9,0-1.3-0.5-1.3-1.1c0-0.6,0.5-1.2,1.3-1.2l5.2,0v-6
							l-3,0c-0.5,0.8-2.5,4.2-4.1,4.2c-0.8,0-1.3-0.5-1.3-1.2c0-0.3,0.1-0.6,0.5-0.9c2.5-2.2,4.2-5.2,5.1-8.4l-3.4,0h0
							c-0.8,0-1.2-0.6-1.2-1.2c0-0.6,0.4-1.2,1.3-1.2l4,0c0.3-1.3,0.5-2.7,0.5-4c0.1-0.8,0.7-1.2,1.3-1.2c0.7,0,1.5,0.5,1.5,1.2
							c0,0-0.2,1.7-0.7,3.9l7.3,0c0.8,0,1.3,0.6,1.3,1.2s-0.4,1.2-1.3,1.2l-7.9,0c-0.4,1.4-0.9,2.8-1.5,4.1h8.2
							c0.9,0,1.3,0.6,1.3,1.2c0,0.6-0.4,1.1-1.3,1.1l-3.8,0v6l5.3,0c0.8,0,1.2,0.6,1.2,1.2c0,0.6-0.4,1.1-1.2,1.1H344.5z"/>
					</g>
					<g>
						<path class="st1" d="M364.4,243.2c-0.4,0.3-0.8,0.5-1.2,0.5c-0.8,0-1.4-0.6-1.4-1.3c0-0.4,0.2-0.8,0.7-1.1
							c3.3-2.1,3.9-4.5,3.9-8.8c0-0.5,0-0.9,0-1.4c0,0,0,0,0-0.1c0-1.1,0.9-2.1,2.8-2.1c1.4,0,2.7,0,3.9,0c1.6,0,3.1,0,4.6,0.1
							c1.8,0.1,2.9,0.6,3,2c0.1,0.5,0.1,1.2,0.1,1.9c0,2.9,0,4-3,4c-1.5,0-3,0.1-4.5,0.1c-1.5,0-3,0-4.8,0
							C368,239.1,366.9,241.2,364.4,243.2z M370.3,227.8c-0.6,0-0.9-0.4-1-0.8c-2.5,2.1-5.3,4.1-6.3,4.1c-0.8,0-1.2-0.6-1.2-1.3
							c0-0.5,0.2-0.9,0.8-1.2c3-1.3,6.3-4.1,8.3-6.4c0.7-0.8,1.5-1.2,2.3-1.2c0.8,0,1.7,0.4,2.5,1.2c2.5,2.4,5.4,4.3,8.4,5.7
							c0.5,0.2,0.8,0.6,0.8,1.1c0,0.7-0.6,1.4-1.4,1.4c-1.2,0-5-2.8-6-3.5c0,0.5-0.3,0.9-0.9,0.9H370.3z M378.8,244.5
							c-1.3,0.1-2.8,0.1-4.2,0.1c-1.4,0-2.9,0-4.4-0.1c-1.4-0.1-2.3-1-2.3-2.1c0-0.3,0-0.6,0-0.9c0-0.5,0-0.9,0.1-1.4
							c0.1-0.9,0.8-1.8,2.3-1.9c1.5-0.1,2.9-0.1,4.3-0.1c1.5,0,2.9,0,4.4,0.1c1.2,0,2.5,0.7,2.5,1.7c0,0.4,0.1,0.8,0.1,1.2
							c0,0.4,0,0.8-0.1,1.2C381.3,243.5,380.3,244.5,378.8,244.5z M368.9,233.8l-0.1,1.3c1.7,0,3.2,0,4.6,0c1.4,0,2.7,0,3.9,0
							c0.9,0,0.9-0.6,0.9-1.3H368.9z M378.1,232.1c0-0.8,0-1.3-0.9-1.3c-1.8,0-3.4,0-5,0c-0.8,0-1.6,0-2.4,0c-0.8,0-1,0.4-1,1v0.3
							H378.1z M378.9,240.8c-0.1-0.6-0.8-0.6-4.4-0.6c-1.2,0-2.2,0-3.2,0.1c-0.7,0-0.9,0.2-0.9,1.2c0,1.1,0.1,1.1,4.2,1.1
							c4.3,0,4.4,0,4.4-1.1C378.9,241.2,378.9,241,378.9,240.8z M376.4,225.8c-0.8-0.6-1.5-1.3-2.1-1.9c-0.3-0.3-0.6-0.5-0.8-0.5
							c-0.2,0-0.5,0.2-0.8,0.5c-0.6,0.6-1.2,1.3-1.9,2H376.4z"/>
					</g>
					<g>
						<path class="st1" d="M399.1,227.4l-10.1,0.1c-0.9,0-1.3-0.6-1.3-1.2c0-0.6,0.4-1.3,1.3-1.3l8.8,0.1l0-2.6
							c0-0.8,0.7-1.3,1.4-1.3c0.7,0,1.4,0.4,1.4,1.3l0,2.6l8.7-0.1c0.8,0,1.3,0.6,1.3,1.2c0,0.6-0.4,1.3-1.3,1.3L399.1,227.4z
							 M397.8,232.4c-1.5,0-3,0-3.8,0c-0.7,0-1.1,0.4-1.1,1.2c0,1,0,2.5,0,4s0,3.1,0,4.4v0c0,0.8-0.6,1.1-1.3,1.1s-1.3-0.4-1.4-1.2
							c0-0.5,0-1.1,0-1.6c0-2.4,0-5.2,0.1-7.2c0-1.9,1.2-2.9,3.2-3c1,0,2.6-0.1,4.3-0.1v-1c0-0.9,0.7-1.3,1.3-1.3
							c0.6,0,1.3,0.4,1.3,1.3v1c1.8,0,3.5,0,4.6,0.1c1.8,0.1,3.1,1,3.1,2.9c0,0.9,0,1.8,0,2.6c0,0.8,0,1.4,0,1.7c0,0.5,0,1,0.1,2
							c0,0,0,0.1,0,0.1c0,1.9-1.4,3.3-3.9,3.3c-1.4,0-2.8-0.2-2.8-1.5c0-0.6,0.4-1.3,1.1-1.3c0.1,0,0.2,0,0.3,0
							c0.4,0.1,0.9,0.2,1.4,0.2c0.7,0,1.3-0.3,1.3-1.1c0,0,0-3.9-0.1-5.7c0-0.6-0.3-1-1-1c-0.9,0-2.4-0.1-4-0.1v11.5
							c0,0.9-0.7,1.3-1.3,1.3c-0.7,0-1.4-0.4-1.4-1.3L397.8,232.4z"/>
					</g>
					<g>
						<path class="st1" d="M416.5,244.7c-0.7-1-2.2-2.2-3.3-2.8c-0.5-0.3-0.7-0.7-0.7-1.1c0-0.6,0.5-1.2,1.3-1.2
							c0.9,0,5.3,2.4,5.3,4.2c0,0.9-0.7,1.5-1.5,1.5C417.1,245.3,416.7,245.1,416.5,244.7z"/>
					</g>
					<g>
						<path class="st1" d="M435.5,238.6c0.7,0,1.1,0.6,1.1,1.2c0,0.6-0.4,1.2-1.2,1.2c-1,0-1.8,0-2.6,0c-3,0-5.2,0-5.2-3.2
							c0-1.9-0.1-4.1-0.1-6.3c0-1.3,0-2.6,0-3.9c0-1.8,0.8-3.2,2.6-3.9c1.6-0.6,3.1-1.1,4.6-1.8c0.2-0.1,0.4-0.1,0.5-0.1
							c0.7,0,1.3,0.7,1.3,1.4c0,0.7-0.1,1.4-5.2,2.8c-0.8,0.2-1.2,0.9-1.2,1.9v2.5h5.1c0.8,0,1.2,0.6,1.2,1.2c0,0.6-0.4,1.2-1.2,1.2
							h-5.1c0,1.4,0,2.8,0,4.2c0,1.5,0.6,1.5,2.5,1.5C433.4,238.6,434.3,238.6,435.5,238.6L435.5,238.6z M446,233.4
							c0-2.1,0-4.8-0.1-6.6c-0.1-1.2-0.7-1.2-2.8-1.2c-2.1,0-2.7,0.1-2.7,1.1c0,0.6,0,1.5,0,2.7c0,4.8,0.1,13.2,0.1,14.5
							c0,0.8-0.7,1.2-1.4,1.2c-0.7,0-1.3-0.4-1.3-1.2c0,0,0,0,0-0.1c0.1-2.7,0.1-6.2,0.1-9.5c0-8.2,0-8.2,0-8.2c0-1.6,1-2.7,2.9-2.8
							c1,0,1.9-0.1,2.8-0.1c0.7,0,1.5,0,2.4,0.1c1.7,0.1,2.7,1.2,2.7,2.8c0,1.3,0,3,0,4.5c0,3.5,0,5.5,0.1,7.2c0,0,0,0.1,0,0.1
							c0,1.7-1.2,3.4-3.9,3.4c-2.4,0-2.9-0.7-2.9-1.5c0-0.6,0.4-1.3,1.1-1.3c0.1,0,0.2,0,0.3,0c0.5,0.1,0.9,0.2,1.3,0.2
							c0.8,0,1.3-0.4,1.3-1.6C446,237.2,446,235.5,446,233.4z"/>
					</g>
					<g>
						<path class="st1" d="M467.4,225.2c0,0.7,0,1.8,0,2.9c1.2,0,2.4,0,3.6,0c1.7,0,3.3,0.9,3.3,3c0.1,1.6,0.1,3.3,0.1,5.1
							c0,1.5,0,3-0.1,4.3c-0.1,1.9-1.2,3.3-3.4,3.3c-2.3,0.1-4.6,0.1-6.9,0.1c-2.3,0-4.6,0-6.8-0.1c-2.4-0.1-3.6-1.3-3.6-3.3
							c0-1.4-0.1-2.9-0.1-4.3c0-1.8,0-3.5,0.1-5.2c0-1.7,1.3-2.9,3.4-2.9l2.9,0c0,0,0,0,0-2.9h-6.5c-0.8,0-1.2-0.6-1.2-1.2
							c0-0.6,0.4-1.2,1.2-1.2h21.1c0.8,0,1.2,0.6,1.2,1.2c0,0.6-0.4,1.2-1.2,1.2H467.4z M458,230.2c-1.6,0-1.9,0.5-1.9,1.8
							c0,1.3-0.1,3.3-0.1,5.1c0.1-0.2,0.3-0.5,0.6-0.6c2.8-1.3,3.2-4.2,3.3-6.3C459.3,230.2,458.6,230.2,458,230.2z M462.3,230.2
							c-0.1,3-0.7,6.5-4.3,8.3c-0.4,0.2-0.6,0.2-0.9,0.2c-0.5,0-0.9-0.3-1.1-0.7c0,2.6,0,3.3,2.2,3.3c1.7,0.1,3.6,0.1,5.6,0.1
							c2,0,4,0,6-0.1c1.5,0,1.9-0.7,1.9-1.8c0.1-1.1,0.1-2.4,0.1-3.7c0-1.3,0-2.6-0.1-3.9c-0.1-1.5-0.6-1.7-1.9-1.8
							c-0.9,0-1.8,0-2.7,0c0,1.9,0,4.3,0,4.7c0,0.6,0.6,0.8,1,0.8c0.8,0,0.9-0.4,1-1.2c0.1-0.6,0.5-0.9,1.1-0.9
							c0.6,0,1.3,0.4,1.3,1.1c0,1.3-0.5,3.3-3.5,3.3c-1.3,0-3.2-0.3-3.2-2.7c0-0.3,0-3,0-5H462.3z M462.4,225.2c0,2.9,0,2.9,0,2.9
							c0.8,0,1.5,0,2.3,0c0-1.1,0-2.1,0-2.9H462.4z"/>
					</g>
					<g>
						<path class="st1" d="M489.9,227.4l-10.1,0.1c-0.9,0-1.3-0.6-1.3-1.2c0-0.6,0.4-1.3,1.3-1.3l8.8,0.1l0-2.6
							c0-0.8,0.7-1.3,1.4-1.3c0.7,0,1.4,0.4,1.4,1.3l0,2.6l8.7-0.1c0.8,0,1.3,0.6,1.3,1.2c0,0.6-0.4,1.3-1.3,1.3L489.9,227.4z
							 M488.6,232.4c-1.5,0-3,0-3.8,0c-0.7,0-1.1,0.4-1.1,1.2c0,1,0,2.5,0,4s0,3.1,0,4.4v0c0,0.8-0.6,1.1-1.3,1.1s-1.3-0.4-1.4-1.2
							c0-0.5,0-1.1,0-1.6c0-2.4,0-5.2,0.1-7.2c0-1.9,1.2-2.9,3.2-3c1,0,2.6-0.1,4.3-0.1v-1c0-0.9,0.7-1.3,1.3-1.3
							c0.6,0,1.3,0.4,1.3,1.3v1c1.8,0,3.5,0,4.6,0.1c1.8,0.1,3.1,1,3.1,2.9c0,0.9,0,1.8,0,2.6c0,0.8,0,1.4,0,1.7c0,0.5,0,1,0.1,2
							c0,0,0,0.1,0,0.1c0,1.9-1.4,3.3-3.9,3.3c-1.4,0-2.8-0.2-2.8-1.5c0-0.6,0.4-1.3,1.1-1.3c0.1,0,0.2,0,0.3,0
							c0.4,0.1,0.9,0.2,1.4,0.2c0.7,0,1.3-0.3,1.3-1.1c0,0,0-3.9-0.1-5.7c0-0.6-0.3-1-1-1c-0.9,0-2.4-0.1-4-0.1v11.5
							c0,0.9-0.7,1.3-1.3,1.3c-0.7,0-1.4-0.4-1.4-1.3L488.6,232.4z"/>
					</g>
					<g>
						<path class="st1" d="M507.3,244.7c-0.7-1-2.2-2.2-3.3-2.8c-0.5-0.3-0.7-0.7-0.7-1.1c0-0.6,0.5-1.2,1.3-1.2
							c0.9,0,5.3,2.4,5.3,4.2c0,0.9-0.7,1.5-1.5,1.5C508,245.3,507.6,245.1,507.3,244.7z"/>
					</g>
					<g>
						<path class="st1" d="M353.8,285.5c-2.7,0.1-5.4,0.1-8,0.1c-2,0-4,0-5.9-0.1c-2.3-0.1-3.6-1.3-3.7-3.3
							c-0.1-1.9-0.1-3.9-0.1-5.9c0-2.4,0.1-4.9,0.1-7.3c0-1.7,1.5-3,3.5-3c2.3-0.1,4.6-0.1,7-0.1c2.3,0,4.7,0,7.3,0.1
							c2.1,0.1,3.6,1,3.6,3.2c0.1,2.4,0.1,5.1,0.1,7.6c0,1.9-0.1,3.7-0.1,5.3C357.5,284.3,356.1,285.4,353.8,285.5z M352.1,276.1
							c0-0.7,0.5-1.1,1.1-1.1c0.6,0,1.2,0.4,1.2,1.2c0,3.2-1.6,3.6-3.8,3.6c-1.3,0-2.9-0.3-2.9-2.5c0-2.6,0-6,0.1-9h-2.5
							c0,0.6,0,1.2,0,1.9c0,4-0.5,8.3-4.3,10.4c-0.2,0.1-0.5,0.2-0.7,0.2c-0.8,0-1.3-0.8-1.3-1.5c0-0.4,0.2-0.7,0.5-0.9
							c2.9-1.3,3.4-4.8,3.4-8.1c0-0.7,0-1.4-0.1-2c-0.7,0-1.5,0-2.2,0c-1.5,0-1.9,0.6-2,1.8c-0.1,1.4-0.1,3.6-0.1,5.8
							c0,2,0,4,0.1,5.3c0.1,1.3,0.7,1.8,2.3,1.8c2,0.1,4.1,0.1,6.3,0.1c1.9,0,3.8,0,5.7-0.1c1.5-0.1,2-0.8,2-1.9
							c0.1-1.7,0.1-3.6,0.1-5.5c0-1.9-0.1-3.9-0.1-5.6c-0.1-1.4-0.6-1.8-1.9-1.8c-0.9,0-1.9,0-2.8,0c0,2.4-0.1,5-0.1,7.3
							c0,0.5,0,1,0,1.5c0,0.6,0.8,0.6,0.9,0.6c0.7,0,0.9-0.3,0.9-1.4C352.1,276.2,352.1,276.1,352.1,276.1L352.1,276.1z"/>
					</g>
					<g>
						<path class="st1" d="M364.4,275.8c-1.6,1.4-2.1,1.6-2.5,1.6c-0.7,0-1.2-0.6-1.2-1.3c0-0.4,0.2-0.8,0.6-1
							c1.9-1.1,3.8-3,5.2-5.2c0.3-0.4,0.6-0.6,1-0.6c0.6,0,1.2,0.6,1.2,1.3c0,0.3-0.1,0.8-1.9,2.7l-0.3,12.7c0,0.8-0.7,1.1-1.3,1.1
							s-1.2-0.4-1.2-1.1c0,0,0,0,0-0.1L364.4,275.8z M362.2,271.4c-0.7,0-1.2-0.6-1.2-1.2c0-0.4,0.2-0.8,0.7-1.1
							c1.9-1.1,3.4-2.7,4.6-4.6c0.3-0.4,0.6-0.6,1-0.6c0.6,0,1.3,0.6,1.3,1.3c0,0.2-0.1,0.5-0.2,0.7
							C367.7,267,364,271.4,362.2,271.4z M374.1,278.4v2.5c1.1-0.3,2-0.6,3-0.9c0.1-0.1,0.3-0.1,0.4-0.1c0.6,0,0.9,0.5,0.9,1.1
							c0,0.4-0.2,0.9-0.6,1.1c-3.1,1.2-8.3,2.1-9.1,2.1c-0.8,0-1.2-0.6-1.2-1.2c0-0.5,0.3-1,1-1.1c1.2-0.1,2.3-0.3,3.3-0.5v-3
							l-2.5,0.1h0c-0.7,0-1.1-0.5-1.1-1.1c0-0.5,0.4-1.1,1.1-1.1h2.5V275c0-0.7,0.6-1.1,1.2-1.1c0.6,0,1.2,0.4,1.2,1.1v1.3l2.5,0h0
							c0.7,0,1.1,0.5,1.1,1.1c0,0.5-0.4,1.1-1.1,1.1H374.1z M380.2,273.5h-1.6c-0.5,0-0.9-0.3-1.1-0.6c-0.1,0.4-0.5,0.6-1,0.6h-7.4
							c-0.7,0-1.1-0.5-1.1-1.1s0.4-1.1,1.1-1.1l2.6,0v-2.4l-2.1,0c-0.7,0-1.1-0.5-1.1-1.1s0.4-1.1,1.1-1.1l2.1,0v-2.3
							c0-0.7,0.6-1.1,1.2-1.1c0.6,0,1.2,0.4,1.2,1.1v2.3l2.1,0c0.8,0,1.1,0.5,1.1,1.1s-0.4,1.1-1.1,1.1l-2.1,0v2.4l2.5,0
							c0.5,0,0.8,0.2,0.9,0.6c0.2-0.4,0.5-0.7,1.1-0.7h5.6c0.8,0,1.2,0.6,1.2,1.2c0,0.6-0.4,1.2-1.2,1.2h-1.5v6.1l0.1,3.8
							c0,0,0,0,0,0.1c0,1.5-1.1,3.5-4.2,3.5c-2.3,0-3-0.6-3-1.5c0-0.6,0.4-1.2,1.1-1.2c0.1,0,0.2,0,0.4,0.1c0.5,0.2,1.1,0.3,1.6,0.3
							c0.9,0,1.6-0.4,1.6-1.6V273.5z M379.2,267.3c-0.8,0-1.2-0.6-1.2-1.2c0-0.6,0.4-1.2,1.2-1.2h4.2c0.9,0,1.3,0.6,1.3,1.2
							c0,0.6-0.4,1.2-1.3,1.2H379.2z"/>
					</g>
					<g>
						<path class="st1" d="M388.8,286.8c-0.8,0-1.5-0.7-1.5-1.4c0-0.4,0.2-0.8,0.7-1c1.5-0.8,2.7-1.7,3.6-2.8c0-1.2,0.1-2.3,0.1-3.3
							c0-0.4,0-0.7,0-1.1c0-0.7-0.3-0.8-1.2-0.8c-0.4,0-0.7,0-1.1,0c-0.5,0-1.5,0-1.5-1.2c0-0.6,0.4-1.2,1.1-1.2c1,0,1.7,0,2.6,0
							c1.7,0.1,2.5,0.8,2.5,2.5c0,1.6-0.1,3.4-0.1,5.2c1.7,2.2,4.5,2.7,8.2,2.7c2.7,0,5.6-0.3,7.7-0.5c0.1,0,0.1,0,0.1,0
							c0.8,0,1.3,0.6,1.3,1.3c0,0.6-0.4,1.2-1.3,1.3c-1.7,0.2-4.2,0.3-6.6,0.3c-5.9,0-8.1-0.7-10.6-3.3
							C391.6,285.1,389.9,286.8,388.8,286.8z M392.1,269.1c-0.7-1.1-1.9-1.9-2.6-2.3c-0.4-0.2-0.5-0.5-0.5-0.8
							c0-0.6,0.6-1.2,1.4-1.2c0.8,0,4.2,2.1,4.2,3.5c0,0.8-0.7,1.5-1.5,1.5C392.7,269.7,392.4,269.5,392.1,269.1z M403.8,268.7
							c-0.1,0.5-0.2,0.9-0.4,1.3c0.9,0,1.7,0,2.3,0.1c1.8,0.1,2.8,1.1,2.8,2.3c0.1,1.3,0.1,2.6,0.1,3.9c0,1.3,0,2.6-0.1,3.8
							c-0.1,1.3-1.1,2.4-2.8,2.5c-0.8,0-1.8,0.1-2.8,0.1c-1.2,0-2.5,0-3.4-0.1c-1.8-0.1-2.7-1.1-2.8-2.5c0-1.2-0.1-2.5-0.1-3.8
							c0-1.3,0-2.7,0.1-4c0.1-2.3,2.6-2.3,4-2.3c0.1-0.4,0.2-0.8,0.3-1.4h-4.9c-0.8,0-1.2-0.5-1.2-1.1c0-0.5,0.4-1.1,1.2-1.1h3
							c-0.1-0.1-0.1-0.1-0.1-0.2c-0.4-0.9-0.8-1.2-1.1-1.5c-0.1-0.2-0.2-0.3-0.2-0.4c0-0.5,0.7-1,1.3-1c1.1,0,2.1,1.9,2.1,2.3
							c0,0.3-0.2,0.6-0.4,0.8h2.3c0.4-0.8,0.7-1.4,1.2-2.7c0.2-0.4,0.5-0.6,1-0.6c0.7,0,1.5,0.5,1.5,1.1c0,0.2-0.4,0.9-1.2,2.2h3.8
							c0.8,0,1.1,0.5,1.1,1.1c0,0.5-0.4,1.1-1.1,1.1H403.8z M406.1,275.4h-6.9v1.6h6.9V275.4z M406.1,272.9c-0.1-1-0.2-1-3.5-1
							c-2.8,0-3.2,0-3.3,1.1c0,0.2,0,0.4,0,0.6h6.9L406.1,272.9z M399.3,278.9c0,0.3,0,0.5,0,0.8c0.1,1,0.6,1,3,1
							c3.6,0,3.8,0,3.8-1.1c0-0.2,0-0.5,0-0.8H399.3z"/>
					</g>
					<g>
						<path class="st1" d="M425.6,269.4l-10.1,0.1c-0.9,0-1.3-0.6-1.3-1.2c0-0.6,0.4-1.3,1.3-1.3l8.8,0.1l0-2.6
							c0-0.8,0.7-1.3,1.4-1.3c0.7,0,1.4,0.4,1.4,1.3l0,2.6l8.7-0.1c0.8,0,1.3,0.6,1.3,1.2c0,0.6-0.4,1.3-1.3,1.3L425.6,269.4z
							 M424.3,274.4c-1.5,0-3,0-3.8,0c-0.7,0-1.1,0.4-1.1,1.2c0,1,0,2.5,0,4s0,3.1,0,4.4v0c0,0.8-0.6,1.1-1.3,1.1s-1.3-0.4-1.4-1.2
							c0-0.5,0-1.1,0-1.6c0-2.4,0-5.2,0.1-7.2c0-1.9,1.2-2.9,3.2-3c1,0,2.6-0.1,4.3-0.1v-1c0-0.9,0.7-1.3,1.3-1.3
							c0.6,0,1.3,0.4,1.3,1.3v1c1.8,0,3.5,0,4.6,0.1c1.8,0.1,3.1,1,3.1,2.9c0,0.9,0,1.8,0,2.6c0,0.8,0,1.4,0,1.7c0,0.5,0,1,0.1,2
							c0,0,0,0.1,0,0.1c0,1.9-1.4,3.3-3.9,3.3c-1.4,0-2.8-0.2-2.8-1.5c0-0.6,0.4-1.3,1.1-1.3c0.1,0,0.2,0,0.3,0
							c0.4,0.1,0.9,0.2,1.4,0.2c0.7,0,1.3-0.3,1.3-1.1c0,0,0-3.9-0.1-5.7c0-0.6-0.3-1-1-1c-0.9,0-2.4-0.1-4-0.1v11.5
							c0,0.9-0.7,1.3-1.3,1.3c-0.7,0-1.4-0.4-1.4-1.3L424.3,274.4z"/>
					</g>
					<g>
						<path class="st1" d="M443,286.7c-0.7-1-2.2-2.2-3.3-2.8c-0.5-0.3-0.7-0.7-0.7-1.1c0-0.6,0.5-1.2,1.3-1.2
							c0.9,0,5.3,2.4,5.3,4.2c0,0.9-0.7,1.5-1.5,1.5C443.7,287.3,443.3,287.1,443,286.7z"/>
					</g>
					<g>
						<path class="st1" d="M457.8,274.4c-1.1-0.8-2-1.3-3.1-1.7c-0.5-0.2-0.7-0.5-0.7-0.9c0-0.6,0.6-1.3,1.3-1.3
							c0.6,0,2.7,0.6,4,1.5c0.4,0.3,0.6,0.7,0.6,1.1c0,0.8-0.6,1.5-1.3,1.5C458.3,274.7,458.1,274.6,457.8,274.4z M455.9,286.5
							c-0.8,0-1.4-0.6-1.4-1.3c0-0.3,0.1-0.5,0.3-0.8c1.5-1.9,2.9-4.8,3.6-6.6c0.2-0.5,0.6-0.8,1.1-0.8c0.7,0,1.3,0.5,1.3,1.3
							c0,0.7-1.8,4.9-3.6,7.5C456.8,286.3,456.4,286.5,455.9,286.5z M458.7,268.4c-1-1.2-1.9-1.7-2.9-2.3c-0.4-0.2-0.6-0.5-0.6-0.8
							c0-0.6,0.7-1.3,1.5-1.3c0.6,0,4.3,1.8,4.3,3.3c0,0.8-0.7,1.5-1.4,1.5C459.3,268.9,459,268.8,458.7,268.4z M471.9,267
							c0,0.6,0,1.5,0,2.5c0.7,0,1.3,0,1.9,0c1.5,0,2.9,1,3,3.1c0,1.6,0.1,3.7,0.1,5.7c0,1.6,0,3.2-0.1,4.5c-0.1,1.9-1.1,3.2-3,3.3
							c-1.4,0.1-2.9,0.1-4.5,0.1c-1.5,0-2.9,0-4-0.1c-2.1-0.1-3.2-1.3-3.3-3.3c0-1.3,0-2.8,0-4.4c0-2.1,0-4.3,0-6.1
							c0-1.7,1.2-2.9,3-2.9c0.4,0,0.9,0,1.3,0c0,0,0,0,0-2.5h-4.1c-0.7,0-1.1-0.6-1.1-1.2c0-0.6,0.4-1.2,1.1-1.2h14.1
							c0.7,0,1.1,0.6,1.1,1.2c0,0.6-0.4,1.2-1.1,1.2H471.9z M469.7,271.5h-1.2c-0.2,5.2-2.9,6.5-3.5,6.5c-0.3,0-0.5-0.1-0.7-0.2v1.8
							h10.1c0-0.6,0-1.2,0-1.9c0-1.5,0-3,0-4.3c0-1.5-0.5-1.8-1.7-1.8c-0.4,0-0.7,0-1.1,0c0,1.5,0,3.1,0,3.3c0,0.4,0.1,0.5,0.4,0.5
							c0.5,0,0.6-0.2,0.6-1.6c0-0.5,0.4-0.8,0.7-0.8c0.4,0,0.9,0.3,0.9,0.8c0,0.1,0,0.1,0,0.2c0,1.2-0.1,3.2-2.5,3.2
							c-1.6,0-2-0.6-2-2.3V271.5z M466,271.5c-1.3,0-1.7,0.5-1.7,1.8c0,0.7,0,1.7,0,2.8c1.7-0.8,2.2-2.8,2.3-4.6H466z M474.4,281.5
							h-10.1c0,0.2,0,0.4,0,0.6c0.1,1.8,0.5,1.8,5,1.8c1.1,0,2.3,0,3.4,0c1.2,0,1.7-0.7,1.7-1.8V281.5z M469.6,269.4
							c0-1,0-1.8,0-2.5h-1.1c0,2.5,0,2.5,0,2.5H469.6z"/>
					</g>
					<g>
						<path class="st1" d="M495.1,282c0,0.9-0.7,1.6-1.5,1.6c-0.4,0-0.8-0.2-1.1-0.5c-1.4-1.6-3.2-2.6-5.1-3.4
							c-0.6-0.2-0.8-0.6-0.8-1.1c0-0.7,0.6-1.3,1.5-1.3c0.2,0,0.7,0,2.8,1.1c2-2.1,3.8-4.8,3.8-5.2c0-0.2-0.1-0.5-0.5-0.5
							c-1.1,0-2.7,0-4.5,0c-1.6,2.6-3.5,5-5.5,6.8c-0.4,0.4-0.8,0.5-1.2,0.5c-0.8,0-1.4-0.6-1.4-1.3c0-0.4,0.2-0.8,0.6-1.1
							c2.7-2.2,5.4-5.8,7.1-9.8c0.3-0.7,0.8-1,1.4-1c0.8,0,1.5,0.6,1.5,1.4c0,0.2-0.1,0.5-1,2.3c1.5,0,3.4-0.1,4.8-0.1
							c1.4,0,2.2,0.8,2.2,1.9c0,0.4-0.1,0.9-0.4,1.4c-1.4,2.3-3,4.3-4.6,6.1C495,280.9,495.1,281.5,495.1,282z"/>
					</g>
					<g>
						<path class="st1" d="M518.9,278.4v7.3c0,0.8-0.7,1.3-1.3,1.3c-0.7,0-1.3-0.4-1.3-1.3v-7.3h-4.7c-1.3,8-7.7,8.7-7.8,8.7
							c-0.9,0-1.3-0.7-1.3-1.4c0-0.5,0.2-1,0.8-1.1c3.8-0.9,5.3-3.7,5.8-6.2h-5.3c-0.8,0-1.2-0.6-1.2-1.2s0.4-1.2,1.2-1.2h5.5
							c0-1.3,0-3.2,0-5.2h-4.5c-0.8,0-1.2-0.6-1.2-1.2c0-0.6,0.4-1.2,1.2-1.2h4.5c0-1.2,0-2.4-0.1-3.5c0,0,0,0,0-0.1
							c0-0.8,0.6-1.2,1.3-1.2s1.4,0.4,1.4,1.2c0,1,0,2.3,0,3.5h4.4v-3.6c0-0.8,0.6-1.2,1.3-1.2s1.3,0.4,1.3,1.2v3.6h4.5
							c0.9,0,1.3,0.6,1.3,1.2c0,0.6-0.4,1.2-1.3,1.2h-4.5v5.2h5.6c0.8,0,1.2,0.6,1.2,1.2s-0.4,1.2-1.2,1.2H518.9z M516.2,270.8h-4.4
							c0,2.1-0.1,4-0.1,5.2h4.5V270.8z"/>
					</g>
					<g>
						<path class="st1" d="M545.2,269.1h-4.5c0,1.1,0,2.4,0,3.7c0,2.4,0,4.8-0.1,6.2c-0.1,1.5-1.1,2.7-2.8,2.8c-0.9,0.1-2,0.1-3,0.1
							c-1,0-2-0.1-2.9-0.1c-1.8-0.1-2.7-1.2-2.8-2.8c0-1.4-0.1-3.7-0.1-6c0-2.3,0-4.6,0.1-6c0-1.3,0.8-2.5,2.8-2.6
							c1-0.1,1.9-0.1,2.9-0.1s2,0,2.9,0.1c1.7,0.1,2.7,1.1,2.8,2.4h10.2c0.9,0,1.3,0.6,1.3,1.2c0,0.6-0.4,1.2-1.3,1.2h-3v10l0.1,4
							c0,0,0,0,0,0.1c0,1.6-1.2,3.7-4.6,3.7c-3.2,0-3.5-1-3.5-1.6c0-0.6,0.5-1.3,1.3-1.3c0.1,0,0.3,0,0.4,0.1
							c0.6,0.2,1.2,0.3,1.8,0.3c1.1,0,1.9-0.4,1.9-1.7V269.1z M533.8,266.4c-1.5,0-2.1,0.1-2.2,1.2c0,0.9-0.1,2.3-0.1,3.9h2.2V266.4
							z M533.8,273.6h-2.2c0,1.9,0,3.8,0.1,5c0,0.7,0.4,1.1,1.2,1.1c0.3,0,0.6,0,1,0V273.6z M538.4,271.5c0-1.6,0-3,0-3.8
							c0-1.1-0.5-1.2-2.3-1.2v5H538.4z M536.1,273.6v6.1c1.4,0,2.3-0.1,2.3-1.2c0-1.1,0-3,0-4.9H536.1z"/>
					</g>
				</g>
			</g>
		</g>
		<rect x="315.9" y="146" class="st7" width="252.8" height="163.4"/>
		<polygon class="st8" points="315.4,246.3 269,292.7 315.4,279.5 		"/>
	</g>
	<g>
		<g>
			<g>
				<g>
					<g>
						<path class="st1" d="M371.9,421.3c-1.2,0-2.3-1-2.3-2.1c0-0.5,0.2-1,0.8-1.3c7.7-5,9.2-11.8,9.7-19.5c0.1-1.1,1-1.6,1.9-1.6
							c1,0,2,0.6,2,1.8c0,0,0,0.1,0,0.1c-0.7,8.6-2.7,16.7-10.8,22.1C372.9,421.2,372.4,421.3,371.9,421.3z M382.6,395.2
							L382.6,395.2c-1.2,0-1.8-0.9-1.8-1.7c0-0.9,0.6-1.7,1.7-1.7c1.5,0,3.3-0.1,5.1-0.1c2.2,0,5.6,0,5.7,4c0.3,7.5,2,16.6,9.9,20.9
							c0.8,0.4,1.1,1.1,1.1,1.7c0,1.1-1.1,2.3-2.4,2.3c-0.4,0-0.9-0.1-1.3-0.4c-8.3-5.2-10.3-15.2-11-23.6c-0.1-1-0.6-1.5-1.5-1.5
							L382.6,395.2z"/>
					</g>
					<g>
						<path class="st1" d="M420.7,406.5l0,14.1c0,1.2-1,1.8-2,1.8c-1,0-2-0.6-2-1.8l0-14.1l-12,0c-1.1,0-1.7-0.9-1.7-1.7
							c0-0.9,0.6-1.7,1.7-1.7l12,0v-6.8c-2.3,0.3-6.9,0.7-9.6,0.7c-1.3,0-2-0.9-2-1.8c0-0.9,0.6-1.7,1.8-1.7
							c6.4-0.1,13.7-0.9,20.6-2.7c0.2-0.1,0.4-0.1,0.6-0.1c1.2,0,1.8,1,1.8,1.9c0,0.7-0.3,1.4-1.1,1.6c-2.2,0.6-5.1,1.1-8.3,1.6v7.3
							l12.2,0c1,0,1.6,0.9,1.6,1.8c0,0.9-0.5,1.7-1.6,1.7L420.7,406.5z"/>
					</g>
					<g>
						<path class="st1" d="M444.6,403.3c-2.7,3.3-3.8,3.8-4.5,3.8c-1,0-1.7-0.8-1.7-1.7c0-0.4,0.2-0.9,0.6-1.3
							c3.6-3.2,6.9-7.7,8.8-12.7c0.3-0.8,1-1.2,1.7-1.2c1,0,2,0.8,2,1.9c0,1.1-3.2,6.2-3.3,6.3l-0.4,22.4c0,1.1-1,1.7-1.9,1.7
							c-0.9,0-1.8-0.6-1.8-1.6c0,0,0,0,0-0.1L444.6,403.3z M460,403c1.2,9.3,5.2,14.3,6.7,14.3c0.9,0,1.6-1.1,2.1-3.5
							c0.2-1,1-1.4,1.7-1.4c1,0,2,0.7,2,1.8c0,0.8-1.5,7.1-5.7,7.1c-1.7,0-3.3-1-4.4-2.4c-3.3-4.2-5-9.6-5.9-15.5l-5.5,0.7
							c-0.1,0-0.2,0-0.3,0c-1.1,0-1.6-0.8-1.6-1.7c0-0.8,0.5-1.6,1.5-1.7l5.6-0.7c-0.3-2.9-0.4-6.3-0.4-8.5c0-1,0.9-1.6,1.9-1.6
							s2,0.6,2,1.8v0c0,0.8,0,1.6,0,2.3c0,1.8,0.1,3.6,0.2,5.4l9.3-1.1c0.1,0,0.1,0,0.2,0c1.1,0,1.7,0.9,1.7,1.7
							c0,0.7-0.4,1.5-1.5,1.6L460,403z M465.1,396.9c-1.1-1-2.6-1.7-3.3-2s-1-0.8-1-1.4c0-0.8,0.7-1.6,1.7-1.6c1.6,0,4.7,2.1,5,2.4
							c0.4,0.4,0.7,0.9,0.7,1.4c0,1-0.8,1.8-1.7,1.8C466,397.5,465.5,397.3,465.1,396.9z"/>
					</g>
					<g>
						<path class="st1" d="M478.5,422.4c-0.9,0-1.8-0.6-1.8-1.6c0-6.7,0-18.9,0.2-26.7c0.1-3.5,2-3.5,5.4-3.5c0.7,0,1.4,0,2,0
							c2.1,0.1,3.2,1.2,3.2,2.8c0,0.7-0.2,1.8-2.2,6c-0.2,0.4-0.3,0.7-0.3,1c0,0.5,0.2,1,0.6,1.5c1.3,1.6,2,3.2,2,5.7
							c0,3.2-2,5.6-4.7,5.6c-0.6,0-2.6-0.1-2.6-1.8c0-0.8,0.6-1.6,1.3-1.6c0.1,0,0.3,0,0.4,0.1c0.2,0,0.3,0.1,0.5,0.1
							c0.8,0,1.7-0.7,1.7-2.7c0-1.7-0.5-3-1.4-4.3c-0.7-1-1-1.8-1-2.6c0-0.7,0.2-1.3,0.5-2.1c0.8-1.8,1.5-4,1.5-4.3
							c0-0.4-0.2-0.7-1.5-0.7c-1.4,0-2.1,0-2.1,1.3c0,3.4-0.1,7.8-0.1,12.4c0,11.5,0,13.2,0,13.7
							C480.2,421.9,479.3,422.4,478.5,422.4z M484,420.5c0-0.7,0.4-1.4,1.4-1.8c5-1.8,6.4-4.7,7-8.6c0.1-1,0.9-1.4,1.6-1.4
							c0.9,0,1.9,0.7,1.9,1.7c0,0.1,0,0.2,0,0.3c-1.7,10-9.6,11.5-10.1,11.5C484.7,422.2,484,421.4,484,420.5z M504,400.1v-1.5
							c0-1.3-0.5-1.6-1.7-1.6c-1.5,0-3.3-0.1-5-0.1c-1.7,0-3.4,0-4.8,0.1c-1.4,0-1.8,0.4-1.8,1.5v1.6c0,1-0.9,1.6-1.7,1.6
							c-0.9,0-1.7-0.5-1.7-1.6c0-0.5,0-1.2,0-1.9c0-1.7,0.1-4,3.8-4.1c1.3,0,2.7-0.1,4.1-0.1l0-2.6v0c0-1.1,0.9-1.7,1.9-1.7
							c0.9,0,1.9,0.6,1.9,1.7v0l0,2.6c1.6,0,3.3,0,4.7,0.1c2.4,0.1,3.8,1.2,3.8,3.4c0,2.6,0,2.6,0,2.6c-0.1,1-1,1.6-1.8,1.6
							C504.8,401.6,504,401.1,504,400.1L504,400.1z M504.9,415.1c0-1,0.8-1.5,1.6-1.5c0.6,0,1.9,0.3,1.9,1.8c0,5.3-2,6.3-6,6.3
							c-3.8,0-4.8-1.6-4.8-4.3c0-1.3,0-6.9,0.1-9.4l-8.3,0.1c-1,0-1.5-0.8-1.5-1.6c0-0.7,0.5-1.5,1.5-1.5h16.8c1,0,1.4,0.8,1.4,1.6
							c0,0.8-0.5,1.5-1.4,1.5h0l-5-0.1c0,2.2-0.1,6.5-0.1,8.4c0,1,0.1,1.9,1.5,1.9c2.1,0,2.5-0.6,2.5-2.8
							C504.9,415.4,504.9,415.3,504.9,415.1L504.9,415.1z M493,402.5c-1,0-1.6-0.7-1.6-1.5s0.5-1.5,1.6-1.5h8.9c1,0,1.4,0.7,1.4,1.5
							s-0.5,1.5-1.4,1.5H493z"/>
					</g>
				</g>
			</g>
			<g>
				<g>
					<g>
						<path class="st1" d="M374,465.6c-0.9,0-1.7-0.8-1.7-1.5c0-0.4,0.2-0.7,0.6-1c5.6-3.7,6.7-8.6,7.1-14.2
							c0.1-0.8,0.7-1.2,1.4-1.2c0.8,0,1.5,0.5,1.5,1.3c0,0,0,0.1,0,0.1c-0.5,6.3-2,12.2-7.9,16.1C374.7,465.5,374.4,465.6,374,465.6
							z M381.8,446.5L381.8,446.5c-0.9,0-1.3-0.6-1.3-1.3c0-0.6,0.4-1.3,1.3-1.3c1.1,0,2.4-0.1,3.7-0.1c1.6,0,4,0,4.2,2.9
							c0.2,5.5,1.5,12.1,7.2,15.3c0.6,0.3,0.8,0.8,0.8,1.2c0,0.8-0.8,1.7-1.8,1.7c-0.3,0-0.6-0.1-1-0.3c-6-3.8-7.5-11.1-8-17.2
							c-0.1-0.7-0.5-1.1-1.1-1.1L381.8,446.5z"/>
					</g>
					<g>
						<path class="st1" d="M409.8,454.8l0,10.3c0,0.9-0.7,1.3-1.4,1.3c-0.7,0-1.4-0.4-1.4-1.3l0-10.3l-8.7,0c-0.8,0-1.2-0.6-1.2-1.3
							c0-0.6,0.4-1.3,1.2-1.3l8.7,0v-5c-1.7,0.2-5,0.5-7,0.5c-0.9,0-1.4-0.7-1.4-1.3c0-0.6,0.4-1.2,1.3-1.2c4.6-0.1,10-0.6,15-2
							c0.2-0.1,0.3-0.1,0.5-0.1c0.9,0,1.3,0.7,1.3,1.4c0,0.5-0.2,1-0.8,1.2c-1.6,0.4-3.8,0.8-6.1,1.2v5.3l8.9,0
							c0.8,0,1.2,0.6,1.2,1.3c0,0.6-0.4,1.2-1.2,1.2L409.8,454.8z"/>
					</g>
					<g>
						<path class="st1" d="M427.3,452.4c-2,2.4-2.8,2.8-3.3,2.8c-0.7,0-1.3-0.6-1.3-1.2c0-0.3,0.1-0.7,0.5-1c2.6-2.3,5-5.6,6.5-9.3
							c0.2-0.6,0.7-0.9,1.2-0.9c0.7,0,1.5,0.6,1.5,1.3c0,0.8-2.3,4.5-2.4,4.6l-0.3,16.4c0,0.8-0.7,1.2-1.4,1.2s-1.3-0.4-1.3-1.2
							c0,0,0,0,0-0.1L427.3,452.4z M438.5,452.2c0.9,6.7,3.8,10.4,4.9,10.4c0.6,0,1.1-0.8,1.5-2.5c0.1-0.7,0.7-1,1.3-1
							c0.7,0,1.5,0.5,1.5,1.3c0,0.6-1.1,5.2-4.2,5.2c-1.2,0-2.4-0.7-3.2-1.7c-2.4-3-3.7-7-4.3-11.3l-4,0.5c-0.1,0-0.1,0-0.2,0
							c-0.8,0-1.2-0.6-1.2-1.2c0-0.6,0.4-1.2,1.1-1.2l4-0.5c-0.2-2.1-0.3-4.6-0.3-6.2c0-0.7,0.7-1.1,1.4-1.1c0.7,0,1.4,0.4,1.4,1.3
							v0c0,0.6,0,1.1,0,1.7c0,1.3,0.1,2.6,0.1,4l6.7-0.8c0.1,0,0.1,0,0.2,0c0.8,0,1.2,0.6,1.2,1.3c0,0.5-0.3,1.1-1.1,1.2
							L438.5,452.2z M442.3,447.8c-0.8-0.8-1.9-1.3-2.4-1.5s-0.8-0.6-0.8-1c0-0.6,0.5-1.2,1.2-1.2c1.2,0,3.4,1.6,3.6,1.8
							c0.3,0.3,0.5,0.7,0.5,1c0,0.7-0.6,1.3-1.3,1.3C442.9,448.2,442.6,448.1,442.3,447.8z"/>
					</g>
					<g>
						<path class="st1" d="M460.7,448.6l-10.1,0.1c-0.9,0-1.3-0.6-1.3-1.2c0-0.6,0.4-1.3,1.3-1.3l8.8,0.1l0-2.6
							c0-0.8,0.7-1.3,1.4-1.3c0.7,0,1.4,0.4,1.4,1.3l0,2.6l8.7-0.1c0.8,0,1.3,0.6,1.3,1.2c0,0.6-0.4,1.3-1.3,1.3L460.7,448.6z
							 M459.5,453.5c-1.5,0-3,0-3.8,0c-0.7,0-1.1,0.4-1.1,1.2c0,1,0,2.5,0,4c0,1.5,0,3.1,0,4.4v0c0,0.8-0.6,1.1-1.3,1.1
							s-1.3-0.4-1.4-1.2c0-0.5,0-1.1,0-1.6c0-2.4,0-5.2,0.1-7.2c0-1.9,1.2-2.9,3.2-3c1,0,2.6-0.1,4.3-0.1v-1c0-0.9,0.7-1.3,1.3-1.3
							c0.6,0,1.3,0.4,1.3,1.3v1c1.8,0,3.5,0,4.6,0.1c1.8,0.1,3.1,1,3.1,2.9c0,0.9,0,1.8,0,2.6c0,0.8,0,1.4,0,1.7c0,0.5,0,1,0.1,2
							c0,0,0,0.1,0,0.1c0,1.9-1.4,3.3-3.9,3.3c-1.4,0-2.8-0.2-2.8-1.5c0-0.6,0.4-1.3,1.1-1.3c0.1,0,0.2,0,0.3,0
							c0.4,0.1,0.9,0.2,1.4,0.2c0.7,0,1.3-0.3,1.3-1.1c0,0,0-3.9-0.1-5.7c0-0.6-0.3-1-1-1c-0.9,0-2.4-0.1-4-0.1V465
							c0,0.9-0.7,1.3-1.3,1.3c-0.7,0-1.4-0.4-1.4-1.3L459.5,453.5z"/>
					</g>
					<g>
						<path class="st1" d="M478.1,465.9c-0.7-1-2.2-2.2-3.3-2.8c-0.5-0.3-0.7-0.7-0.7-1.1c0-0.6,0.5-1.2,1.3-1.2
							c0.9,0,5.3,2.4,5.3,4.2c0,0.9-0.7,1.5-1.5,1.5C478.8,466.4,478.4,466.3,478.1,465.9z"/>
					</g>
					<g>
						<path class="st1" d="M386.5,496.8l0,10.3c0,0.9-0.7,1.3-1.4,1.3c-0.7,0-1.4-0.4-1.4-1.3l0-10.3l-8.7,0c-0.8,0-1.2-0.6-1.2-1.3
							c0-0.6,0.4-1.3,1.2-1.3l8.7,0v-5c-1.7,0.2-5,0.5-7,0.5c-0.9,0-1.4-0.7-1.4-1.3c0-0.6,0.4-1.2,1.3-1.2c4.6-0.1,10-0.6,15-2
							c0.2-0.1,0.3-0.1,0.5-0.1c0.9,0,1.3,0.7,1.3,1.4c0,0.5-0.2,1-0.8,1.2c-1.6,0.4-3.8,0.8-6.1,1.2v5.3l8.9,0
							c0.8,0,1.2,0.6,1.2,1.3c0,0.6-0.4,1.2-1.2,1.2L386.5,496.8z"/>
					</g>
					<g>
						<path class="st1" d="M420.5,502.2l-7.6-0.1c2.7,1.7,5.3,2.5,8.2,3.3c0.6,0.2,0.8,0.6,0.8,1c0,0.6-0.5,1.4-1.3,1.4
							c-0.3,0-4.7-1.2-8.9-4.3l0.1,3.9v0c0,0.7-0.6,1-1.2,1c-0.6,0-1.2-0.4-1.2-1v0l0-3.8c-3.6,2.7-8.3,4.3-9,4.3
							c-0.8,0-1.3-0.6-1.3-1.2c0-0.5,0.3-0.9,1-1.1c3.1-0.9,5.5-1.9,8-3.6l-7.3,0.1h0c-0.7,0-1.1-0.5-1.1-1s0.4-1.1,1.1-1.1l8.6,0
							l0-0.8c0-0.3,0.1-0.5,0.2-0.7c-3.3,0-6.1,0-6.1-2.9c0-0.8,0-1.8,0-2.8h-3.6c-0.7,0-1.1-0.5-1.1-1c0-0.5,0.4-1,1.1-1h3.6l0-0.8
							c0-0.7,0.7-1.1,1.3-1.1c0.6,0,1.3,0.4,1.3,1c0,0,0,0,0,0.1l0,0.8h2.6c0-0.3,0-0.6,0-0.9c0-0.6,0.6-0.9,1.2-0.9
							c0.6,0,1.2,0.3,1.2,1v0v0.9h3.2V490c0-0.2,0-0.3,0.1-0.4c-0.2,0.1-0.5,0.2-0.8,0.2c-0.6,0-1.2-0.3-1.2-1v-0.7h-3.8v0.7
							c0,0.6-0.6,1-1.2,1c-0.6,0-1.2-0.3-1.2-1v-0.7h-5.5c-0.7,0-1.1-0.5-1.1-1.1c0-0.5,0.4-1,1.1-1h5.5v-1.1c0-0.6,0.6-0.9,1.2-0.9
							c0.6,0,1.2,0.3,1.2,0.9v1.1h3.8v-1.1c0-0.6,0.6-0.9,1.2-0.9c0.6,0,1.2,0.3,1.2,0.9v1.1h5.7c0.7,0,1.1,0.5,1.1,1
							c0,0.5-0.4,1.1-1.1,1.1h-5.7v0.7c0,0.2,0,0.3-0.1,0.4c0.2-0.1,0.5-0.2,0.7-0.2c0.6,0,1.2,0.4,1.2,1c0,0.3,0,0.6,0,0.9h4.5
							c0.7,0,1.1,0.5,1.1,1c0,0.5-0.4,1-1.1,1h-4.5c0,1.8,0,2.7-4.2,2.7c-2.3,0-3.7,0-3.8-1.8c0-0.3,0-0.6,0-0.9h-2.6
							c0,0.5,0,0.9,0,1.4c0,0.4,0,0.8,0,1.1c0.1,1,0.3,1.1,6.1,1.1c2.1,0,4.1,0,6.2-0.1h0c0.7,0,1.1,0.5,1.1,1s-0.4,1.1-1.1,1.1
							c-2.4,0.1-4.6,0.1-6.8,0.1c0.2,0.2,0.2,0.4,0.2,0.7l0,0.8l8.8,0c0.7,0,1.1,0.5,1.1,1.1C421.6,501.7,421.2,502.2,420.5,502.2
							L420.5,502.2z M414.3,492.7h-3.2c0,0.2,0,0.4,0,0.6c0,0.5,0.1,0.6,1.7,0.6c1.3,0,1.4-0.3,1.5-0.6V492.7z"/>
					</g>
					<g>
						<path class="st1" d="M436.4,490.6l-10.1,0.1c-0.9,0-1.3-0.6-1.3-1.2c0-0.6,0.4-1.3,1.3-1.3l8.8,0.1l0-2.6
							c0-0.8,0.7-1.3,1.4-1.3c0.7,0,1.4,0.4,1.4,1.3l0,2.6l8.7-0.1c0.8,0,1.3,0.6,1.3,1.2c0,0.6-0.4,1.3-1.3,1.3L436.4,490.6z
							 M435.1,495.5c-1.5,0-3,0-3.8,0c-0.7,0-1.1,0.4-1.1,1.2c0,1,0,2.5,0,4c0,1.5,0,3.1,0,4.4v0c0,0.8-0.6,1.1-1.3,1.1
							s-1.3-0.4-1.4-1.2c0-0.5,0-1.1,0-1.6c0-2.4,0-5.2,0.1-7.2c0-1.9,1.2-2.9,3.2-3c1,0,2.6-0.1,4.3-0.1v-1c0-0.9,0.7-1.3,1.3-1.3
							c0.6,0,1.3,0.4,1.3,1.3v1c1.8,0,3.5,0,4.6,0.1c1.8,0.1,3.1,1,3.1,2.9c0,0.9,0,1.8,0,2.6c0,0.8,0,1.4,0,1.7c0,0.5,0,1,0.1,2
							c0,0,0,0.1,0,0.1c0,1.9-1.4,3.3-3.9,3.3c-1.4,0-2.8-0.2-2.8-1.5c0-0.6,0.4-1.3,1.1-1.3c0.1,0,0.2,0,0.3,0
							c0.4,0.1,0.9,0.2,1.4,0.2c0.7,0,1.3-0.3,1.3-1.1c0,0,0-3.9-0.1-5.7c0-0.6-0.3-1-1-1c-0.9,0-2.4-0.1-4-0.1V507
							c0,0.9-0.7,1.3-1.3,1.3c-0.7,0-1.4-0.4-1.4-1.3L435.1,495.5z"/>
					</g>
				</g>
			</g>
		</g>
		<rect x="352.6" y="366.9" class="st9" width="173.7" height="164.2"/>
		<rect x="351" y="315.5" class="st10" width="178.6" height="206.9"/>
		<polygon class="st11" points="352.1,480 298.3,526.8 352.1,515.2 		"/>
	</g>
	<g>
		<path class="st1" d="M586.9,2.9v583.9H2.9V2.9H586.9 M589.7,0.1H0.1v589.6h589.6V0.1L589.7,0.1z"/>
	</g>
</g>
</svg>
