<svg xmlns="http://www.w3.org/2000/svg" xmlns:xlink="http://www.w3.org/1999/xlink" xml:space="preserve" id="レイヤー_1" x="0" y="0" version="1.1" viewBox="0 0 186 184.9"><style>.st4,.st7{fill:none;stroke:#f48a9d;stroke-width:.45;stroke-miterlimit:10}.st7{stroke:#d2959f;stroke-width:.25}.st10{fill:#595858}.st11{fill:#fff}.st12{fill:#524d4b}</style><radialGradient id="SVGID_1_" cx="91.5" cy="-118.5" r="61.3" gradientTransform="matrix(1 0 0 -1 0 -19)" gradientUnits="userSpaceOnUse"><stop offset="0" style="stop-color:#fff"/><stop offset="0" style="stop-color:#e4f7dc"/><stop offset="1" style="stop-color:#e4f6d8"/><stop offset="1" style="stop-color:#d3edbc;stop-opacity:.5"/></radialGradient><radialGradient id="SVGID_00000069367953996738222010000014935025385325632397_" cx="92.1" cy="304.6" r="44.1" gradientTransform="translate(0 -204)" gradientUnits="userSpaceOnUse"><stop offset="0" style="stop-color:#d3edbc;stop-opacity:0"/><stop offset="0" style="stop-color:#e4f6d8"/><stop offset=".069" style="stop-color:#dbf3c8;stop-opacity:.9726"/><stop offset=".174" style="stop-color:#d2f0b7;stop-opacity:.9305"/><stop offset=".305" style="stop-color:#cbeeac;stop-opacity:.878"/><stop offset=".489" style="stop-color:#c7eda5;stop-opacity:.8044"/><stop offset="1" style="stop-color:#c6eda3;stop-opacity:.6"/></radialGradient><radialGradient id="SVGID_00000138565123883031147640000016187989362706418867_" cx="94.923" cy="296.896" r="68.115" gradientTransform="matrix(.9853 0 0 .9849 -1.128 -200.013)" gradientUnits="userSpaceOnUse"><stop offset=".2" style="stop-color:#c6eda3"/><stop offset=".475" style="stop-color:#c8eda6"/><stop offset=".665" style="stop-color:#cdefaf"/><stop offset=".828" style="stop-color:#d5f2be"/><stop offset=".976" style="stop-color:#e2f5d4"/><stop offset="1" style="stop-color:#e4f6d8"/><stop offset="1" style="stop-color:#d3edbc"/></radialGradient><circle cx="92.4" cy="92.4" r="67.1" style="fill:url(#SVGID_00000138565123883031147640000016187989362706418867_)"/><path d="M146.5 11.7c-13.3 4.8-26.6 11.5-38.2 18.1l-3.8-2.4-2.4.4-2.8 4.4-4.4-1.8-1 2-5-.6-1.4-4-4-1.4-1.8 1.2.4 5.2-6.6.4-2 3-3.5-.4-7.2-8.5" class="st4"/><path d="m78.9-1.4-3.4 10 2.6 6.7 6.2 3 9 14.1 4.3 3.8-.4 1.8-1.6 4 4.6 14.1 7.9 13.9-.2 7.3 2 2.6h5.8l2.2 1.8 8.1-.2" class="st4"/><path d="m90.3 27.8 2.7-1.7 3.6 1 1-.6-2.4-6.6-2-.2-.2-2.6 5-2 .2-7.1 2-2.2 5.2-.4 3.7-5.2M102.8 60l12.1.4 11.7 11.4 8.2 5.7v10l24.8 24.2 1 6.8 22.1 18.3" class="st4"/><path d="m95.2 19.9 1.2-.8h3.8l2.2-4.2 3-.2 1.8-2.2.9-6.5 6.2.2-1.8 5.5 1.2 1.8 4.8-1 3 2.8 1.4-.2v-3.2l4.3-2.9 1.4 1 1 1.9-1.4 1.2-.6 1.8 2.2 3.9M118.9 64.4l1.2-6.3 6.1.2 1.8-.8-3.2-4.2 1.8-2.8 8 1.6.6 6.2 7-2.2 2.1-4 14.2 3.1 14.8 19 10.2 5.1" class="st4"/><path d="m142.2 56.1 2.5 3.7 3.2.4 2.2 2-3.4 17.5 3.8 4.6-.2 2.8-3.4.8-.6 3.2-5.6 2.1M175.9 124.6l-1-6.5-2.7-3.8-1-4 .6-2 15.1-7.3M166.6 65.6l-.2-6.5h4.6l1.9-2 .8-7.4M151.9 53.9l-1.8-9 4.2-3.3v-3.2l2.5-2.2-5.1-5.6-.2-5.1-2-.2-2.8-2.2-3.6 3.4.2 4.5-1.6.2-2.9-4.3-.8-5.6 5.1-7.8M63.6.6l9.2 8v1.6h-6.6l-1.4-1.4-6.5 3.3.2 8.6-.8 1.6M13.3 39.6l15.5-4.8 11.8.6 9.5-4.8 5.2.4 5.3-3.4 2.2-.2.8-.9-4.9-3.6H44.3l-3.1 2H28.4M68.2 33.4l-2.7 2.9.1 2.7 4.2 4v2.7l-4.4 3.8-3.2-3.2h-2v6.2l-4.7 1.2-.4 4.6H43.3l-3.7-2.8-1 2.6" class="st4"/><path d="m26.3 26.3 2.5 8.5 1.2 2.6v4.4l-3.7.4-.6 1.9 3.9 4v3.4l3.4-1.6 2.6 1.8-.8 5.6 3.8.8 3.2 5.3L41 67M126.6 71.8l-1.2 2.8.6 6.9 3.6 10.2 9.4 8.9v3l-1.4 2.6.8 1.8-.2 8.7 3.5 4 1.2 7.3 1.5 2.9 4.7 10.6M163.6 155.3l-7.7-9.4-4.8-3.8-4.4-.6-1.4 1 1 2-.2 1.8-.6 2.6 3.4 4.2-.2 1.8-6.6 3.3 8.8 8.4" class="st4"/><path d="m146.5 156.1-4.8.4-1-1v-1.8l-1.7-2-4.5-.4-.3-3.2 4.4-3.8-3.4-3.2M100.2 56.1 94 58.3l.2 4.3-6.7 5v4L80.3 74l-.2 4.3-7.1 4.8-4.4-3.4-2.2-.4-10.1 6.2-5.2.8" class="st4"/><path d="m7.2 66.6 6.3.2 2.8 2.6 1.2-2 3.6 5.2 2.6-1 1.2 1.2.4 5.5h4.3l1-5.3-2.2-1.6V70l4-1v-4l2.4-1.8L41 67l3.3 6.8 4.6-.8-4.8 6.9.4 3 7.2 3.6.4 1.6-.2 3.8-1 2.5 3.8 5-.6 2.2M5 116.3l3.8 2.6.2 1.6 3.7 3.4 2.8.9 3.6 7.9M11.1 142.1l5.6-8.3 4.2-1.4 2.6 3.6h9.1l6.2 3.2 7.1.4.4 1.5-.8 4.2 3 1.2v1.4l-1 2.2 2.2 8.5-2 2.8 1.8 2.6h-3l-3 4.6" class="st4"/><path d="m45.5 145.3 3.4-2.4 2.8 1.2 2.2-2.6 6.1-1.3 3.6 3.3 1.6-.6-1.7-6.1-2.9-2.6.2-1.8 6.4.8 2.2-1.8 1.5.8 2.5 4.6 3.9-.2 2.2 1.8 2.2-6.8h1.6l.4-1.8 2.4-1.6 5.9-.6 4.8-3.9-1.4-5.4.6-2.2M108.1 70l-3.1 3.8-5.4.8-2 9.5 2.6-.6 1.6.8.8 3.8-4.1 5.1h-3.3l-.8 5.1-4.7 1.9-1.8-3-2.8-.6-1 1.2 1 2-2.2 1.8h-1.4l-2.4-2.4-5-.2-4.5-3-2.6 1.6.2 3.4-8 3-5.1-2.4-2.2.2-1.8 2.5 1.2 2.5-1.4 3.7v4.2l-5-2.2-3.9-1.6-2.8 1.2-1.6 3.4-3.4.4-.6 1-.4 2.6" class="st4"/><path d="m144.4 130.9-3.1.1-5.1 5.6-1 4.5-2.8-.2-2.4-5.6-2.4-.3-2 1.4v3l2 2.9-1.6 1.4h-5.3l-9.1-8.2-5.8 1.1-1.9-7 3.3-1.2.4-5.3-10.4-7.2-7.8.1-3.3-3.1-4.4-.6-.4-3.2 1.6-1.7v-2.2l-3.1-2.2-8.8 1.6-3.8-3.6" class="st4"/><path d="m100.8 118.3 1.8-2.8-.8-4 1.2-3.9-3.3-2.5-3-.1-2.1-2.8-.2-3.9M116.7 139.6v8.1l-3.2 1.4.8 3.8 4.6 4.1-5.2 8-.8 6-6.7-4.8-3 .2 2.6 6.7-1.8 2.4-4.6-.8-1 1-2.4 7.6M49.5 164l-.2 2.6 2.2 4.2 4.6.2 4.5 7.3" class="st4"/><path d="m113.7 165 6.6 7.6 4.5 2.5M136.8 98.8l-1.8 3.4-4-.6-4.2 3.6v2.8l1.8 1.1-2.2 3.6.2 1.8-12.2 3.4-4.3.4-7.5-2.8" class="st4"/><path d="m98.5 93.2 1.4 1.2-1.3 1.4 4.4 6.8 4.4 3.4 8.1 1.4 2 6.1-3.1 4.4M101.2 89.9l2.8 4.5 4.1.2.2 3 1.2 1.4 4.2.2 1.8-1.8v-4l2-.4 5.6 6.8 3.1-.8v-4.6l3.4-2.7M81.7 131.6l-2.8-2.8-6.5-.2-2.4-2.4-2-6.7-3.4-6-7.7-.8-1.6 1.4.2 7.6-2.4.4-1.4-2.2-6.2.6-1.6 2.2.6 5.1-1.4 4.6" class="st4"/><path d="m60.8 103.6 1.2 3.2-1.5 2.1-.3 4.2M62 106.8l6.6 1.2 3 5.5 5.9 1 .8 4.2 3.4 2.8-2.6 3.9-.2 3.4" class="st4"/><circle cx="91.3" cy="90.9" r=".7" style="fill:none"/><path d="m52.3 101.6-2.1-2.5-4.9-.6-5.3-6h-1.3l-1 4.8 2.5 4-3.4 3.2-1.5.3-1.2-2.3-2.5-.1-1.6 1.2-3.9-2.8v-1.6l1.3-1.6-2.7-3.2.2-2.5-3.4-.6-7.8-9.4-3.7-.2" class="st4"/><path d="m30 103.6 2.3 2.6-2.3 3.2.1 1.7h-2.3l-2.3-3.1-3.7-.2-2.6 2.9-4.1.8-.6-1.4-4.9 1.7.2-3.5-8.7-5.8" class="st4"/><path d="m15.1 111.5-.7 2.3-1.3 1.6-4.1-.1-7.2-4.4M30.1 111.1l1.3 1.4-1.3 4 2.1 3 2.5 2 .2 3.6 4.3 2.3-1 2.8.6 1.2 2.4-.3 4.1 2.2-.6 3.5 1.5.3 1.1.9-1.4 1.6" class="st4"/><defs><circle id="SVGID_00000132087208751057192680000007644442861009603236_" cx="91.3" cy="90.9" r="43.2"/></defs><clipPath id="SVGID_00000078022738889585772040000009265763531336336829_"><use xlink:href="#SVGID_00000132087208751057192680000007644442861009603236_" style="overflow:visible"/></clipPath><g style="clip-path:url(#SVGID_00000078022738889585772040000009265763531336336829_)"><path d="M146.5 11.7c-13.3 4.8-26.6 11.5-38.2 18.1l-3.8-2.4-2.4.4-2.8 4.4-4.4-1.8-1 2-5-.6-1.4-4-4-1.4-1.8 1.2.4 5.2-6.6.4-2 3" class="st7"/><path d="m78.9-1.4-3.4 10 2.6 6.7 6.2 3 9 14.1 4.3 3.8-.4 1.8-1.6 4 4.6 14.1 7.9 13.9-.2 7.3 2 2.6h5.8l2.2 1.8 8.1-.2" class="st7"/><path d="m90.3 27.8 2.7-1.7 3.6 1 1-.6-2.4-6.6-2-.2-.2-2.6 5-2 .2-7.1 2-2.2 5.2-.4 3.7-5.2M102.8 60l12.1.4 11.7 11.4 8.2 5.7v10l24.8 24.2 1 6.8 22.1 18.3" class="st7"/><path d="m95.2 19.9 1.2-.8h3.8l2.2-4.2 3-.2 1.8-2.2.9-6.5 6.2.2-1.8 5.5 1.2 1.8 4.8-1 3 2.8 1.4-.2v-3.2l4.3-2.9 1.4 1 1 1.9-1.4 1.2-.6 1.8 2.2 3.9M118.9 64.4l1.2-6.3 6.1.2 1.8-.8-3.2-4.2 1.8-2.8 8 1.6.6 6.2 7-2.2 2.1-4 14.2 3.1 14.8 19 10.2 5.1" class="st7"/><path d="m142.2 56.1 2.5 3.7 3.2.4 2.2 2-3.4 17.5 3.8 4.6-.2 2.8-3.4.8-.6 3.2-5.6 2.1M175.9 124.6l-1-6.5-2.7-3.8-1-4 .6-2 15.1-7.3M166.6 65.6l-.2-6.5h4.6l1.9-2 .8-7.4M151.9 53.9l-1.8-9 4.2-3.3v-3.2l2.5-2.2-5.1-5.6-.2-5.1-2-.2-2.8-2.2-3.6 3.4.2 4.5-1.6.2-2.9-4.3-.8-5.6 5.1-7.8M63.6.6l9.2 8v1.6h-6.6l-1.4-1.4-6.5 3.3.2 8.6-.8 1.6M13.3 39.6l15.5-4.8 11.8.6 9.5-4.8 5.2.4 5.3-3.4 2.2-.2.8-.9-4.9-3.6H44.3l-3.1 2H28.4" class="st7"/><path d="m26.3 26.3 2.5 8.5 1.2 2.6v4.4l-3.7.4-.6 1.9 3.9 4v3.4l3.4-1.6 2.6 1.8-.8 5.6 3.8.8 3.2 5.3L41 67M126.6 71.8l-1.2 2.8.6 6.9 3.6 10.2 9.4 8.9v3l-1.4 2.6.8 1.8-.2 8.7 3.5 4 1.2 7.3 1.5 2.9 4.7 10.6M163.6 155.3l-7.7-9.4-4.8-3.8-4.4-.6-1.4 1 1 2-.2 1.8-.6 2.6 3.4 4.2-.2 1.8-6.6 3.3 8.8 8.4" class="st7"/><path d="m146.5 156.1-4.8.4-1-1v-1.8l-1.7-2-4.5-.4-.3-3.2 4.4-3.8-3.4-3.2M7.2 66.6l6.3.2 2.8 2.6 1.2-2 3.6 5.2 2.6-1 1.2 1.2.4 5.5h4.3l1-5.3-2.2-1.6V70l4-1v-4l2.4-1.8L41 67l3.3 6.8 4.6-.8-4.8 6.9.4 3 7.2 3.6.4 1.6-.2 3.8-1 2.5 3.8 5-.6 2.2M5 116.3l3.8 2.6.2 1.6 3.7 3.4 2.8.9 3.6 7.9M11.1 142.1l5.6-8.3 4.2-1.4 2.6 3.6h9.1l6.2 3.2 7.1.4.4 1.5-.8 4.2 3 1.2v1.4l-1 2.2 2.2 8.5-2 2.8 1.8 2.6h-3l-3 4.6" class="st7"/><path d="m45.5 145.3 3.4-2.4 2.8 1.2 2.2-2.6 6.1-1.3 3.6 3.3 1.6-.6-1.7-6.1-2.9-2.6.2-1.8 6.4.8 2.2-1.8 1.5.8 2.5 4.6 3.9-.2 2.2 1.8 2.2-6.8h1.6l.4-1.8 2.4-1.6 5.9-.6 4.8-3.9-1.4-5.4.6-2.2M108.1 70l-3.1 3.8-5.4.8-2 9.5 2.6-.6 1.6.8.8 3.8-4.1 5.1h-3.3l-.8 5.1-4.7 1.9-1.8-3-2.8-.6-1 1.2 1 2-2.2 1.8h-1.4l-2.4-2.4-5-.2-4.5-3-2.6 1.6.2 3.4-8 3-5.1-2.4-2.2.2-1.8 2.5 1.2 2.5-1.4 3.7v4.2l-5-2.2-3.9-1.6-2.8 1.2-1.6 3.4-3.4.4-.6 1-.4 2.6" class="st7"/><path d="m144.4 130.9-3.1.1-5.1 5.6-1 4.5-2.8-.2-2.4-5.6-2.4-.3-2 1.4v3l2 2.9-1.6 1.4h-5.3l-9.1-8.2-5.8 1.1-1.9-7 3.3-1.2.4-5.3-10.4-7.2-7.8.1-3.3-3.1-4.4-.6-.4-3.2 1.6-1.7v-2.2l-3.1-2.2-8.8 1.6-3.8-3.6" class="st7"/><path d="m100.8 118.3 1.8-2.8-.8-4 1.2-3.9-3.3-2.5-3-.1-2.1-2.8-.2-3.9M116.7 139.6v8.1l-3.2 1.4.8 3.8 4.6 4.1-5.2 8-.8 6-6.7-4.8-3 .2 2.6 6.7-1.8 2.4-4.6-.8-1 1-2.4 7.6M49.5 164l-.2 2.6 2.2 4.2 4.6.2 4.5 7.3" class="st7"/><path d="m113.7 165 6.6 7.6 4.5 2.5M136.8 98.8l-1.8 3.4-4-.6-4.2 3.6v2.8l1.8 1.1-2.2 3.6.2 1.8-12.2 3.4-4.3.4-7.5-2.8" class="st7"/><path d="m98.5 93.2 1.4 1.2-1.3 1.4 4.4 6.8 4.4 3.4 8.1 1.4 2 6.1-3.1 4.4M101.2 89.9l2.8 4.5 4.1.2.2 3 1.2 1.4 4.2.2 1.8-1.8v-4l2-.4 5.6 6.8 3.1-.8v-4.6l3.4-2.7M81.7 131.6l-2.8-2.8-6.5-.2-2.4-2.4-2-6.7-3.4-6-7.7-.8-1.6 1.4.2 7.6-2.4.4-1.4-2.2-6.2.6-1.6 2.2.6 5.1-1.4 4.6" class="st7"/><path d="m60.8 103.6 1.2 3.2-1.5 2.1-.3 4.2M62 106.8l6.6 1.2 3 5.5 5.9 1 .8 4.2 3.4 2.8-2.6 3.9-.2 3.4" class="st7"/><circle cx="91.3" cy="90.9" r=".7" style="fill:#d2959f"/><path d="m52.3 101.6-2.1-2.5-4.9-.6-5.3-6h-1.3l-1 4.8 2.5 4-3.4 3.2-1.5.3-1.2-2.3-2.5-.1-1.6 1.2-3.9-2.8v-1.6l1.3-1.6-2.7-3.2.2-2.5-3.4-.6-7.8-9.4-3.7-.2" class="st7"/><path d="m30 103.6 2.3 2.6-2.3 3.2.1 1.7h-2.3l-2.3-3.1-3.7-.2-2.6 2.9-4.1.8-.6-1.4-4.9 1.7.2-3.5-8.7-5.8" class="st7"/><path d="m15.1 111.5-.7 2.3-1.3 1.6-4.1-.1-7.2-4.4M30.1 111.1l1.3 1.4-1.3 4 2.1 3 2.5 2 .2 3.6 4.3 2.3-1 2.8.6 1.2 2.4-.3 4.1 2.2-.6 3.5 1.5.3 1.1.9-1.4 1.6" class="st7"/></g><path d="M61.2 60.4c-.1 0-.3 0-.3-.3 0-.2.1-.4.3-.4h.6v-.8c0-.1 0-.3.3-.3q.3 0 .3.3v.8h.6c.3 0 .4 0 .6.1.2.2.2.4.2.8 0 .7 0 2.9-.2 3.5-.2.4-.5.4-.8.4h-.5c-.1 0-.2-.2-.2-.4 0-.1 0-.3.3-.3h.4c.2 0 .3-.2.3-.7.1-.9.1-1.6.1-2.5 0-.3-.1-.3-.3-.3h-.4c0 .6-.1 1.5-.2 2.2-.2 1-.6 1.6-.7 1.8-.1.1-.2.2-.3.2-.2 0-.4-.1-.4-.3 0-.1 0-.2.3-.6.4-.6.5-1.2.6-1.9.1-.4.1-.9.1-1.3zm5.4 3.3c0 .6-.2.8-.8.8H65c-.5 0-.8-.2-.8-.8v-4c0-.6.3-.8.8-.8h.8c.5 0 .8.2.8.8zm-.6-3.8q0-.3-.3-.3h-.5q-.3 0-.3.3v3.7q0 .3.3.3h.5q.3 0 .3-.3zM69.5 62.5c0 .2-.2.4-.4.6-.5.6-.9 1-1.1 1.1-.2.3-.3.3-.4.3-.2 0-.3-.2-.3-.4 0-.1 0-.2.4-.4.6-.5.9-.9 1.3-1.4.1-.1.2-.1.2-.1.1 0 .3.1.3.3m-.4-3.5c0 .1 0 .2-.5.7-.1.1-.7.7-1 .7-.2 0-.3-.2-.3-.4 0-.1 0-.1.4-.4.4-.2.6-.5.9-.8.1-.1.1-.1.2-.1s.3.1.3.3m.3 1.6c0 .2-.4.6-.6.7-.3.2-.9.8-1.2.8-.2 0-.3-.2-.3-.4 0-.1 0-.1.5-.5.5-.3.7-.5 1-.9.1-.1.2-.1.2-.1.2.1.4.2.4.4m1.4 3.1c0 .1 0 .1-.4.4-.2.2-.8.5-1.1.5-.2 0-.3-.2-.3-.4s0-.2.5-.4c.3-.1.6-.4.8-.5.1-.1.2-.1.2-.1.2.1.3.3.3.5m-.1-3.9c.1-.2.1-.3.2-.4h-1.3c-.1 0-.3 0-.3-.3s.2-.3.3-.3h3.3c.1 0 .3 0 .3.3s-.2.3-.3.3h-1.4l-.2.4h.9c.5 0 .7.1.7.7v2.1c0 .5-.1.7-.7.7h-2c-.5 0-.7-.1-.7-.7v-2.1c0-.5.1-.7.7-.7zm1.6 1v-.3c0-.1-.1-.2-.2-.2h-1.7c-.1 0-.2.1-.2.2v.3zm0 .5h-2v.5h2zm0 .9h-2v.3c0 .1.1.2.2.2h1.7c.1 0 .2-.1.2-.2zm0 1.4.8.4c.1 0 .2.1.2.2s-.1.4-.3.4c-.3 0-1-.5-1.1-.5-.4-.3-.4-.3-.4-.4q0-.3.3-.3c.1-.1.2 0 .5.2M77 64.3c0 .1 0 .3-.3.3s-.4-.1-.4-.3v-3.1h-1.2q-.3 0-.3.3v2.3c0 .1 0 .3-.3.3s-.3-.2-.3-.3v-2.5c0-.6.2-.8.7-.8h1.4v-.7H74c-.1 0-.3 0-.3-.3s.2-.3.3-.3h2.3v-.4q0-.3.3-.3c.2 0 .4.1.4.3v.4h2.3c.1 0 .3 0 .3.3q0 .3-.3.3H77v.7h1.4c.5 0 .8.2.8.8v2c0 .7-.4.7-1 .7-.5 0-.7 0-.7-.4 0-.3.2-.3.4-.3h.4c.2 0 .2-.1.2-.3v-1.5q0-.3-.3-.3H77z" class="st10"/><path d="M61.7 60.9c-.1 0-.3 0-.3-.3 0-.2.1-.4.3-.4h.6v-.8c0-.1 0-.3.3-.3q.3 0 .3.3v.8h.5c.3 0 .4 0 .6.1.2.2.2.4.2.8 0 .7 0 2.9-.2 3.5-.2.4-.5.4-.8.4h-.5c-.1 0-.2-.2-.2-.4 0-.1 0-.3.3-.3h.4c.2 0 .3-.2.3-.7.1-.9.1-1.6.1-2.5 0-.3-.1-.3-.3-.3H63c0 .6-.1 1.5-.2 2.2-.2 1-.6 1.6-.7 1.8-.1.1-.2.2-.3.2-.2 0-.4-.1-.4-.3 0-.1 0-.2.3-.6.4-.6.5-1.2.6-1.9.1-.4.1-.9.1-1.3zm5.4 3.3c0 .6-.2.8-.8.8h-.8c-.5 0-.8-.2-.8-.8v-4c0-.6.3-.8.8-.8h.8c.5 0 .8.2.8.8zm-.7-3.9q0-.3-.3-.3h-.5q-.3 0-.3.3V64q0 .3.3.3h.5q.3 0 .3-.3zM70 63c0 .2-.2.4-.4.6-.5.6-.9 1-1.1 1.1-.2.2-.3.2-.4.2-.2 0-.3-.2-.3-.4 0-.1 0-.2.4-.4.6-.5.9-.9 1.3-1.4.1-.1.2-.1.2-.1.1 0 .3.2.3.4m-.4-3.6c0 .1 0 .2-.5.7-.1.1-.7.7-1 .7-.2 0-.3-.2-.3-.4 0-.1 0-.1.4-.4.4-.2.6-.5.9-.8.1-.1.1-.1.2-.1s.3.1.3.3m.2 1.6c0 .2-.4.6-.6.7-.3.2-.9.8-1.2.8-.2 0-.3-.2-.3-.4 0-.1 0-.1.5-.5.5-.3.7-.5 1-.9.1-.1.2-.1.2-.1.3.1.4.3.4.4m1.5 3.1c0 .1 0 .1-.4.4-.2.2-.8.5-1.1.5-.2 0-.3-.2-.3-.4s0-.2.5-.4c.3-.1.6-.4.8-.5.1-.1.2-.1.2-.1.1.2.3.4.3.5m-.1-3.8c.1-.2.1-.3.2-.4h-1.3c-.1 0-.3 0-.3-.3s.2-.3.3-.3h3.3c.1 0 .3 0 .3.3s-.2.3-.3.3H72l-.2.4h.9c.5 0 .7.1.7.7v2.1c0 .5-.1.7-.7.7h-2c-.5 0-.7-.1-.7-.7V61c0-.5.1-.7.7-.7zm1.6 1V61c0-.1-.1-.2-.2-.2h-1.7c-.1 0-.2.1-.2.2v.3zm0 .4h-2v.5h2zm0 1h-2v.3c0 .1.1.2.2.2h1.7c.1 0 .2-.1.2-.2zm-.1 1.3.8.4c.1 0 .2.1.2.2s-.1.4-.3.4c-.3 0-1-.5-1.1-.5-.4-.3-.4-.3-.4-.4q0-.3.3-.3c.2 0 .2 0 .5.2M77.4 64.8c0 .1 0 .3-.3.3s-.4-.1-.4-.3v-3.1h-1.2q-.3 0-.3.3v2.3c0 .1 0 .3-.3.3s-.3-.2-.3-.3v-2.5c0-.6.2-.8.7-.8h1.4v-.7h-2.3c-.1 0-.3 0-.3-.3s.2-.3.3-.3h2.3v-.4q0-.3.3-.3c.2 0 .4.1.4.3v.4h2.3c.1 0 .3 0 .3.3q0 .3-.3.3h-2.3v.7h1.4c.5 0 .8.2.8.8v2c0 .7-.4.7-1 .7-.5 0-.7 0-.7-.4 0-.3.2-.3.4-.3h.4c.2 0 .2-.1.2-.3v-1.6q0-.3-.3-.3h-1.2z" class="st11"/><path d="M61.2 60.4c-.1 0-.3 0-.3-.3 0-.2.1-.4.3-.4h.6v-.8c0-.1 0-.3.3-.3q.3 0 .3.3v.8h.6c.3 0 .4 0 .6.1.2.2.2.4.2.8 0 .7 0 2.9-.2 3.5-.2.4-.5.4-.8.4h-.5c-.1 0-.2-.2-.2-.4 0-.1 0-.3.3-.3h.4c.2 0 .3-.2.3-.7.1-.9.1-1.6.1-2.5 0-.3-.1-.3-.3-.3h-.4c0 .6-.1 1.5-.2 2.2-.2 1-.6 1.6-.7 1.8-.1.1-.2.2-.3.2-.2 0-.4-.1-.4-.3 0-.1 0-.2.3-.6.4-.6.5-1.2.6-1.9.1-.4.1-.9.1-1.3zm5.4 3.3c0 .6-.2.8-.8.8H65c-.5 0-.8-.2-.8-.8v-4c0-.6.3-.8.8-.8h.8c.5 0 .8.2.8.8zm-.6-3.8q0-.3-.3-.3h-.5q-.3 0-.3.3v3.7q0 .3.3.3h.5q.3 0 .3-.3zM69.5 62.5c0 .2-.2.4-.4.6-.5.6-.9 1-1.1 1.1-.2.3-.3.3-.4.3-.2 0-.3-.2-.3-.4 0-.1 0-.2.4-.4.6-.5.9-.9 1.3-1.4.1-.1.2-.1.2-.1.1 0 .3.1.3.3m-.4-3.5c0 .1 0 .2-.5.7-.1.1-.7.7-1 .7-.2 0-.3-.2-.3-.4 0-.1 0-.1.4-.4.4-.2.6-.5.9-.8.1-.1.1-.1.2-.1s.3.1.3.3m.3 1.6c0 .2-.4.6-.6.7-.3.2-.9.8-1.2.8-.2 0-.3-.2-.3-.4 0-.1 0-.1.5-.5.5-.3.7-.5 1-.9.1-.1.2-.1.2-.1.2.1.4.2.4.4m1.4 3.1c0 .1 0 .1-.4.4-.2.2-.8.5-1.1.5-.2 0-.3-.2-.3-.4s0-.2.5-.4c.3-.1.6-.4.8-.5.1-.1.2-.1.2-.1.2.1.3.3.3.5m-.1-3.9c.1-.2.1-.3.2-.4h-1.3c-.1 0-.3 0-.3-.3s.2-.3.3-.3h3.3c.1 0 .3 0 .3.3s-.2.3-.3.3h-1.4l-.2.4h.9c.5 0 .7.1.7.7v2.1c0 .5-.1.7-.7.7h-2c-.5 0-.7-.1-.7-.7v-2.1c0-.5.1-.7.7-.7zm1.6 1v-.3c0-.1-.1-.2-.2-.2h-1.7c-.1 0-.2.1-.2.2v.3zm0 .5h-2v.5h2zm0 .9h-2v.3c0 .1.1.2.2.2h1.7c.1 0 .2-.1.2-.2zm0 1.4.8.4c.1 0 .2.1.2.2s-.1.4-.3.4c-.3 0-1-.5-1.1-.5-.4-.3-.4-.3-.4-.4q0-.3.3-.3c.1-.1.2 0 .5.2M77 64.3c0 .1 0 .3-.3.3s-.4-.1-.4-.3v-3.1h-1.2q-.3 0-.3.3v2.3c0 .1 0 .3-.3.3s-.3-.2-.3-.3v-2.5c0-.6.2-.8.7-.8h1.4v-.7H74c-.1 0-.3 0-.3-.3s.2-.3.3-.3h2.3v-.4q0-.3.3-.3c.2 0 .4.1.4.3v.4h2.3c.1 0 .3 0 .3.3q0 .3-.3.3H77v.7h1.4c.5 0 .8.2.8.8v2c0 .7-.4.7-1 .7-.5 0-.7 0-.7-.4 0-.3.2-.3.4-.3h.4c.2 0 .2-.1.2-.3v-1.5q0-.3-.3-.3H77z" class="st12"/><path d="M113.4 42v-1.1h-2.3c-.2 0-.3-.1-.3-.4s.3-.3.3-.3h2.3v-.6c0-.2.1-.3.4-.3s.3.2.3.3v.6h2.3c.1 0 .3 0 .3.3s-.2.3-.3.3h-2.3v1.1h1.3c.5 0 .7.2.7.7v1.7c0 .6-.2.7-.7.7H112c-.5 0-.7-.2-.7-.7v-1.7c0-.6.2-.7.7-.7h1.4zm2.1.9c0-.2-.1-.2-.2-.2h-2.9c-.2 0-.3.1-.3.2v1.3q0 .3.3.3h2.9c.2 0 .2-.1.2-.3zM118.2 42.2c-.1 0-.1 0-.4-.2-.2-.1-.4-.3-.6-.4-.1-.1-.1-.2-.1-.2q0-.3.3-.3c.1 0 .4.2.6.3s.5.3.5.5c.1.2-.2.3-.3.3m-.7 2.1c.3-.5.5-.9.7-1.4.1-.1.1-.2.3-.2q.3 0 .3.3c0 .3-.5 1.3-.7 1.6-.3.5-.4.6-.5.6-.2 0-.4-.2-.4-.3s0-.2.3-.6m1-3.8c-.1 0-.1 0-.4-.2-.1-.1-.4-.3-.5-.3-.1-.1-.2-.1-.2-.2 0-.2.1-.4.3-.4s.5.2.7.4c.2.1.4.2.4.4 0 .1-.1.3-.3.3m.7-.4c-.1 0-.3 0-.3-.3q0-.3.3-.3h3.7c.1 0 .3 0 .3.3q0 .3-.3.3h-.3v4.4c0 .2 0 .6-.4.7h-1.4c-.1 0-.2-.1-.2-.3 0-.3.3-.3.4-.3h.7c.2 0 .3 0 .3-.3v-4.2zm2.2 2.9c0 .5-.2.7-.7.7h-.8c-.5 0-.7-.2-.7-.7v-1.5c0-.5.2-.7.7-.7h.8c.5 0 .7.2.7.7zm-.6-1.4c0-.2-.1-.2-.2-.2h-.6c-.2 0-.2.1-.2.2v1.2c0 .2.1.3.2.3h.5c.2 0 .2-.1.2-.3v-1.2zM126.9 45c0 .1 0 .3-.3.3s-.4-.1-.4-.3v-3.1H125q-.3 0-.3.3v2.3c0 .1 0 .3-.3.3s-.3-.2-.3-.3V42c0-.6.2-.8.7-.8h1.4v-.7h-2.3c-.1 0-.3 0-.3-.3s.2-.3.3-.3h2.3v-.4q0-.3.3-.3c.2 0 .4.1.4.3v.4h2.3c.1 0 .3 0 .3.3q0 .3-.3.3h-2.3v.7h1.4c.5 0 .8.2.8.8v2c0 .7-.4.7-1 .7-.5 0-.7 0-.7-.4 0-.3.2-.3.4-.3h.4c.2 0 .2-.1.2-.3v-1.6q0-.3-.3-.3h-1.2z" class="st10"/><path d="M113.9 42.5v-1.1h-2.3c-.2 0-.3-.1-.3-.4s.3-.3.3-.3h2.3v-.6c0-.2.1-.3.4-.3s.3.2.3.3v.6h2.3c.1 0 .3 0 .3.3s-.2.3-.3.3h-2.3v1.2h1.3c.5 0 .7.2.7.7v1.7c0 .6-.2.7-.7.7h-3.4c-.5 0-.7-.2-.7-.7v-1.7c0-.6.2-.7.7-.7zm2 .9c0-.2-.1-.2-.2-.2h-2.9c-.2 0-.3.1-.3.2v1.3q0 .3.3.3h2.9c.2 0 .2-.1.2-.3zM118.7 42.6c-.1 0-.1 0-.4-.2-.2-.1-.4-.3-.6-.4-.1-.1-.1-.2-.1-.2q0-.3.3-.3c.1 0 .4.2.6.3s.5.3.5.5c0 .3-.2.3-.3.3m-.8 2.2c.3-.5.5-.9.7-1.4.1-.1.1-.2.3-.2q.3 0 .3.3c0 .3-.5 1.3-.7 1.6-.3.5-.4.6-.5.6-.2 0-.4-.2-.4-.3 0-.2 0-.2.3-.6m1-3.8c-.1 0-.1 0-.4-.2-.1-.1-.4-.3-.5-.3-.1-.1-.2-.1-.2-.2 0-.2.1-.4.3-.4s.5.2.7.4c.2.1.4.2.4.4.1 0 0 .3-.3.3m.7-.4c-.1 0-.3 0-.3-.3q0-.3.3-.3h3.7c.1 0 .3 0 .3.3q0 .3-.3.3h-.3V45c0 .2 0 .6-.4.7h-1.4c-.1 0-.2-.1-.2-.3 0-.3.3-.3.4-.3h.7c.2 0 .3 0 .3-.3v-4.2zm2.2 2.8c0 .5-.2.7-.7.7h-.8c-.5 0-.7-.2-.7-.7v-1.5c0-.5.2-.7.7-.7h.8c.5 0 .7.2.7.7zm-.6-1.3c0-.2-.1-.2-.2-.2h-.5c-.2 0-.2.1-.2.2v1.2c0 .2.1.3.2.3h.5c.2 0 .2-.1.2-.3zM127.3 45.4c0 .1 0 .3-.3.3s-.4-.1-.4-.3v-3.1h-1.2q-.3 0-.3.3v2.3c0 .1 0 .3-.3.3s-.3-.2-.3-.3v-2.4c0-.6.2-.8.7-.8h1.4V41h-2.3c-.1 0-.3 0-.3-.3s.2-.3.3-.3h2.3V40q0-.3.3-.3c.2 0 .4.1.4.3v.4h2.3c.1 0 .3 0 .3.3q0 .3-.3.3h-2.3v.7h1.4c.5 0 .8.2.8.8v2c0 .7-.4.7-1 .7-.5 0-.7 0-.7-.4 0-.3.2-.3.4-.3h.4c.2 0 .2-.1.2-.3v-1.6q0-.3-.3-.3h-1.2z" class="st11"/><path d="M113.4 42v-1.1h-2.3c-.2 0-.3-.1-.3-.4s.3-.3.3-.3h2.3v-.6c0-.2.1-.3.4-.3s.3.2.3.3v.6h2.3c.1 0 .3 0 .3.3s-.2.3-.3.3h-2.3v1.1h1.3c.5 0 .7.2.7.7v1.7c0 .6-.2.7-.7.7H112c-.5 0-.7-.2-.7-.7v-1.7c0-.6.2-.7.7-.7h1.4zm2.1.9c0-.2-.1-.2-.2-.2h-2.9c-.2 0-.3.1-.3.2v1.3q0 .3.3.3h2.9c.2 0 .2-.1.2-.3zM118.2 42.2c-.1 0-.1 0-.4-.2-.2-.1-.4-.3-.6-.4-.1-.1-.1-.2-.1-.2q0-.3.3-.3c.1 0 .4.2.6.3s.5.3.5.5c.1.2-.2.3-.3.3m-.7 2.1c.3-.5.5-.9.7-1.4.1-.1.1-.2.3-.2q.3 0 .3.3c0 .3-.5 1.3-.7 1.6-.3.5-.4.6-.5.6-.2 0-.4-.2-.4-.3s0-.2.3-.6m1-3.8c-.1 0-.1 0-.4-.2-.1-.1-.4-.3-.5-.3-.1-.1-.2-.1-.2-.2 0-.2.1-.4.3-.4s.5.2.7.4c.2.1.4.2.4.4 0 .1-.1.3-.3.3m.7-.4c-.1 0-.3 0-.3-.3q0-.3.3-.3h3.7c.1 0 .3 0 .3.3q0 .3-.3.3h-.3v4.4c0 .2 0 .6-.4.7h-1.4c-.1 0-.2-.1-.2-.3 0-.3.3-.3.4-.3h.7c.2 0 .3 0 .3-.3v-4.2zm2.2 2.9c0 .5-.2.7-.7.7h-.8c-.5 0-.7-.2-.7-.7v-1.5c0-.5.2-.7.7-.7h.8c.5 0 .7.2.7.7zm-.6-1.4c0-.2-.1-.2-.2-.2h-.6c-.2 0-.2.1-.2.2v1.2c0 .2.1.3.2.3h.5c.2 0 .2-.1.2-.3v-1.2zM126.9 45c0 .1 0 .3-.3.3s-.4-.1-.4-.3v-3.1H125q-.3 0-.3.3v2.3c0 .1 0 .3-.3.3s-.3-.2-.3-.3V42c0-.6.2-.8.7-.8h1.4v-.7h-2.3c-.1 0-.3 0-.3-.3s.2-.3.3-.3h2.3v-.4q0-.3.3-.3c.2 0 .4.1.4.3v.4h2.3c.1 0 .3 0 .3.3q0 .3-.3.3h-2.3v.7h1.4c.5 0 .8.2.8.8v2c0 .7-.4.7-1 .7-.5 0-.7 0-.7-.4 0-.3.2-.3.4-.3h.4c.2 0 .2-.1.2-.3v-1.6q0-.3-.3-.3h-1.2z" class="st12"/><path d="M110.3 84.7c.1 0 .3 0 .3.3 0 .2-.2.3-.3.3h-1.9v.6h2.3c.1 0 .3 0 .3.3q0 .3-.3.3h-.9c0 .1-.1.5-.3.8h1.2c.1 0 .3 0 .3.3s-.2.3-.3.3h-2.3v.6h2c.1 0 .3 0 .3.3s-.2.3-.3.3h-2v.8c0 .1 0 .3-.3.3s-.4-.1-.4-.3v-.8h-2c-.1 0-.3 0-.3-.3s.2-.3.3-.3h2v-.6h-2.3c-.1 0-.3 0-.3-.3s.2-.3.3-.3h1.2c-.1-.3-.2-.5-.3-.8h-.9c-.1 0-.3 0-.3-.3s.2-.3.3-.3h2.3v-.6h-1.8c-.1 0-.3 0-.3-.3s.2-.3.3-.3h1.8v-.3c0-.2.2-.3.3-.3.2 0 .4 0 .4.3v.3zm-1.4 2.6c.1-.3.2-.5.2-.8H107c.1.3.1.4.3.8zM114.9 85.9h2c.1 0 .3 0 .3.3q0 .3-.3.3h-2v.9h2.3c.1 0 .3 0 .3.3s-.2.3-.3.3h-2.3v1.3c0 .8-.4.8-1.2.8h-.7c-.2 0-.2-.2-.2-.3 0-.3.3-.3.4-.3h.7c.2 0 .4 0 .4-.3v-1.1h-2.4c-.1 0-.3 0-.3-.3q0-.3.3-.3h2.4v-1h-2.1c-.1 0-.3 0-.3-.3q0-.3.3-.3h2.1v-.8c-.6 0-1.5.1-2.1.1-.3 0-.3-.2-.3-.3 0-.3.2-.3.4-.3h1.5c.9 0 1.9-.1 2.4-.2.1 0 .7-.1.7-.1.2 0 .3.2.3.3q0 .3-.3.3c-.6.1-1.2.2-1.8.2v.8zM121.2 89.8c0 .1 0 .3-.3.3s-.4-.1-.4-.3v-3.1h-1.2q-.3 0-.3.3v2.3c0 .1 0 .3-.3.3s-.3-.2-.3-.3v-2.5c0-.6.2-.8.7-.8h1.4v-.7h-2.3c-.1 0-.3 0-.3-.3s.2-.3.3-.3h2.3v-.4q0-.3.3-.3c.2 0 .4.1.4.3v.4h2.3c.1 0 .3 0 .3.3q0 .3-.3.3h-2.3v.7h1.4c.5 0 .8.2.8.8v2c0 .7-.4.7-1 .7-.5 0-.7 0-.7-.4 0-.3.2-.3.4-.3h.4c.2 0 .2-.1.2-.3v-1.6q0-.3-.3-.3h-1.2z" class="st10"/><path d="M110.8 85.1c.1 0 .3 0 .3.3 0 .2-.2.3-.3.3h-1.9v.6h2.3c.1 0 .3 0 .3.3q0 .3-.3.3h-.9c0 .1-.1.5-.3.8h1.2c.1 0 .3 0 .3.3s-.2.3-.3.3h-2.3v.6h2c.1 0 .3 0 .3.3s-.2.3-.3.3h-2v.8c0 .1 0 .3-.3.3s-.4-.1-.4-.3v-.8h-2c-.1 0-.3 0-.3-.3s.2-.3.3-.3h2v-.6H106c-.1 0-.3 0-.3-.3s.2-.3.3-.3h1.2c-.1-.3-.2-.5-.3-.8h-.9c-.1 0-.3 0-.3-.3s.2-.3.3-.3h2.3v-.6h-1.8c-.1 0-.3 0-.3-.3s.2-.3.3-.3h1.8v-.3c0-.2.2-.3.3-.3.2 0 .4 0 .4.3v.3zm-1.4 2.6c.1-.3.2-.5.2-.8h-2.1c.1.3.1.4.3.8zM115.4 86.3h2c.1 0 .3 0 .3.3q0 .3-.3.3h-2v.9h2.3c.1 0 .3 0 .3.3s-.2.3-.3.3h-2.3v1.3c0 .8-.4.8-1.2.8h-.7c-.2 0-.2-.2-.2-.3 0-.3.3-.3.4-.3h.7c.2 0 .4 0 .4-.3v-1.1h-2.4c-.1 0-.3 0-.3-.3q0-.3.3-.3h2.4V87h-2.1c-.1 0-.3 0-.3-.3q0-.3.3-.3h2.1v-.9c-.6 0-1.5.1-2.1.1-.3 0-.3-.2-.3-.3 0-.3.2-.3.4-.3h1.5c.9 0 1.9-.1 2.4-.2.1 0 .7-.1.7-.1.2 0 .3.2.3.3q0 .3-.3.3c-.6.1-1.2.2-1.8.2v.8zM121.7 90.2c0 .1 0 .3-.3.3s-.4-.1-.4-.3v-3.1h-1.2q-.3 0-.3.3v2.3c0 .1 0 .3-.3.3s-.3-.2-.3-.3v-2.5c0-.6.2-.8.7-.8h1.4v-.7h-2.3c-.1 0-.3 0-.3-.3s.2-.3.3-.3h2.3v-.4q0-.3.3-.3c.2 0 .4.1.4.3v.4h2.3c.1 0 .3 0 .3.3q0 .3-.3.3h-2.3v.7h1.4c.5 0 .8.2.8.8v2c0 .7-.4.7-1 .7-.5 0-.7 0-.7-.4 0-.3.2-.3.4-.3h.4c.2 0 .2-.1.2-.3v-1.4q0-.3-.3-.3h-1.2z" class="st11"/><path d="M110.3 84.7c.1 0 .3 0 .3.3 0 .2-.2.3-.3.3h-1.9v.6h2.3c.1 0 .3 0 .3.3q0 .3-.3.3h-.9c0 .1-.1.5-.3.8h1.2c.1 0 .3 0 .3.3s-.2.3-.3.3h-2.3v.6h2c.1 0 .3 0 .3.3s-.2.3-.3.3h-2v.8c0 .1 0 .3-.3.3s-.4-.1-.4-.3v-.8h-2c-.1 0-.3 0-.3-.3s.2-.3.3-.3h2v-.6h-2.3c-.1 0-.3 0-.3-.3s.2-.3.3-.3h1.2c-.1-.3-.2-.5-.3-.8h-.9c-.1 0-.3 0-.3-.3s.2-.3.3-.3h2.3v-.6h-1.8c-.1 0-.3 0-.3-.3s.2-.3.3-.3h1.8v-.3c0-.2.2-.3.3-.3.2 0 .4 0 .4.3v.3zm-1.4 2.6c.1-.3.2-.5.2-.8H107c.1.3.1.4.3.8zM114.9 85.9h2c.1 0 .3 0 .3.3q0 .3-.3.3h-2v.9h2.3c.1 0 .3 0 .3.3s-.2.3-.3.3h-2.3v1.3c0 .8-.4.8-1.2.8h-.7c-.2 0-.2-.2-.2-.3 0-.3.3-.3.4-.3h.7c.2 0 .4 0 .4-.3v-1.1h-2.4c-.1 0-.3 0-.3-.3q0-.3.3-.3h2.4v-1h-2.1c-.1 0-.3 0-.3-.3q0-.3.3-.3h2.1v-.8c-.6 0-1.5.1-2.1.1-.3 0-.3-.2-.3-.3 0-.3.2-.3.4-.3h1.5c.9 0 1.9-.1 2.4-.2.1 0 .7-.1.7-.1.2 0 .3.2.3.3q0 .3-.3.3c-.6.1-1.2.2-1.8.2v.8zM121.2 89.8c0 .1 0 .3-.3.3s-.4-.1-.4-.3v-3.1h-1.2q-.3 0-.3.3v2.3c0 .1 0 .3-.3.3s-.3-.2-.3-.3v-2.5c0-.6.2-.8.7-.8h1.4v-.7h-2.3c-.1 0-.3 0-.3-.3s.2-.3.3-.3h2.3v-.4q0-.3.3-.3c.2 0 .4.1.4.3v.4h2.3c.1 0 .3 0 .3.3q0 .3-.3.3h-2.3v.7h1.4c.5 0 .8.2.8.8v2c0 .7-.4.7-1 .7-.5 0-.7 0-.7-.4 0-.3.2-.3.4-.3h.4c.2 0 .2-.1.2-.3v-1.6q0-.3-.3-.3h-1.2z" class="st12"/><path d="M72.6 85.9c.2 0 .7 0 .7.5s-.5 1.4-.8 1.9c.2.4.4.9 1.2 1.6.1.1.2.2.8.5.1 0 .1.1.1.3s-.1.4-.4.4-1-.6-1.1-.7c-.5-.5-.9-1-1.1-1.5-.5.7-1.1 1.2-1.7 1.6-.4.2-1.1.6-1.3.6-.3 0-.4-.3-.4-.4s0-.2.2-.3c.8-.3 1-.4 1.5-.8 1.5-1.2 2.1-2.7 2.1-2.9s-.1-.2-.2-.2h-1.4c-.4.7-1 1.3-1.3 1.5-.2.2-.3.3-.5.3s-.4-.2-.4-.4c0-.1.1-.2.1-.3.6-.5.7-.6 1.1-1.1.3-.4.4-.7.6-1.2.1-.1.1-.2.3-.2s.4.1.4.3c0 .1 0 .1-.1.4zM80.7 88.8q.3 0 .3.3t-.3.3h-5.4c-.1 0-.3 0-.3-.3q0-.3.3-.3h1.3c0-.1-.1-.2-.1-.4h-.2c-.4 0-.6-.1-.6-.5v-.2c0-.4.1-.5.6-.5h3.6c.4 0 .6.1.6.5v.2c0 .5-.1.5-.6.5h-.2c0 .1-.1.3-.2.4zm0-3.3q.3 0 .3.3t-.3.3h-2.3v.3h2c.1 0 .3 0 .3.2s-.1.2-.3.2h-4.7c-.1 0-.3 0-.3-.2s.1-.2.3-.2h2v-.3h-2.3q-.3 0-.3-.3c0-.1.1-.3.3-.3h2.3v-.2c0-.1.1-.2.3-.2s.4.1.4.3v.1zm-.3 5c0 .6-.3.6-.7.6h-3.5c-.4 0-.7 0-.7-.6v-.4c0-.5.3-.6.7-.6h3.5c.4 0 .7 0 .7.6zm-.6-.3c0-.1-.1-.2-.2-.2h-3.1c-.1 0-.2.1-.2.2v.2c0 .1 0 .2.2.2h3.1c.1 0 .2-.1.2-.2zm-.1-2.5c0-.1-.1-.1 0 0l-3.2-.1c-.1 0-.1 0-.1.1v.1c0 .1.1.1.1.1h3.1c.1 0 .1 0 .1-.2m-1 1.1c.1-.1.1-.3.2-.4h-1.7c0 .1.1.3.2.4zM84.8 90.9c0 .1 0 .3-.3.3s-.4-.1-.4-.3v-3.1h-1.2q-.3 0-.3.3v2.3c0 .1 0 .3-.3.3s-.3-.2-.3-.3v-2.5c0-.6.2-.8.7-.8h1.4v-.6h-2.3c-.1 0-.3 0-.3-.3s.2-.3.3-.3h2.3v-.4q0-.3.3-.3c.2 0 .4.1.4.3v.4h2.3c.1 0 .3 0 .3.3q0 .3-.3.3h-2.3v.7h1.4c.5 0 .8.2.8.8v2c0 .7-.4.7-1 .7-.5 0-.7 0-.7-.4 0-.3.2-.3.4-.3h.3c.2 0 .2-.1.2-.3v-1.6q0-.3-.3-.3h-1.2v3.1z" class="st10"/><path d="M73.1 86.3c.2 0 .7 0 .7.5s-.5 1.4-.8 1.9c.2.4.4.9 1.2 1.6.1.1.2.2.8.5.1 0 .1.1.1.3s-.1.4-.4.4-1-.6-1.1-.7c-.5-.5-.9-1-1.1-1.5-.5.7-1.1 1.2-1.7 1.6-.4.2-1.1.6-1.3.6-.3 0-.4-.3-.4-.4s0-.2.2-.3c.8-.3 1-.4 1.5-.8 1.5-1.2 2.1-2.7 2.1-2.9s-.1-.2-.2-.2h-1.4c-.4.7-1 1.3-1.3 1.5-.2.2-.3.3-.5.3s-.4-.2-.4-.4c0-.1.1-.2.1-.3.6-.5.7-.6 1.1-1.1.3-.4.4-.7.6-1.2.1-.1.1-.2.3-.2s.4.1.4.3c0 .1 0 .1-.1.4zM81.2 89.2q.3 0 .3.3t-.3.3h-5.4c-.1 0-.3 0-.3-.3q0-.3.3-.3h1.3c0-.1-.1-.2-.1-.4h-.2c-.4 0-.6-.1-.6-.5v-.2c0-.4.1-.5.6-.5h3.6c.4 0 .6.1.6.5v.2c0 .5-.1.5-.6.5h-.2c0 .1-.1.3-.2.4zm0-3.2q.3 0 .3.3t-.3.3h-2.3v.3h2c.1 0 .3 0 .3.2s-.1.2-.3.2h-4.7c-.1 0-.3 0-.3-.2s.1-.2.3-.2h2v-.4h-2.3q-.3 0-.3-.3c0-.1.1-.3.3-.3h2.3v-.2c0-.1.1-.2.3-.2s.4.1.4.3v.2zm-.3 4.9c0 .6-.3.6-.7.6h-3.5c-.4 0-.7 0-.7-.6v-.4c0-.5.3-.6.7-.6h3.5c.4 0 .7 0 .7.6zm-.7-.2c0-.1-.1-.2-.2-.2h-3.1c-.1 0-.2.1-.2.2v.2c0 .1 0 .2.2.2H80c.1 0 .2-.1.2-.2zm0-2.6c0-.1-.1-.1 0 0L77 88c-.1 0-.1 0-.1.1v.1c0 .1.1.1.1.1h3c.1 0 .1 0 .2-.2m-1 1.1c.1-.1.1-.3.2-.4h-1.7c0 .1.1.3.2.4zM85.2 91.3c0 .1 0 .3-.3.3s-.4-.1-.4-.3v-3.1h-1.2q-.3 0-.3.3v2.3c0 .1 0 .3-.3.3s-.3-.2-.3-.3v-2.5c0-.6.2-.8.7-.8h1.4v-.7h-2.3c-.1 0-.3 0-.3-.3s.2-.3.3-.3h2.3v-.4q0-.3.3-.3c.2 0 .4.1.4.3v.4h2.3c.1 0 .3 0 .3.3q0 .3-.3.3h-2.3v.7h1.4c.5 0 .8.2.8.8v2c0 .7-.4.7-1 .7-.5 0-.7 0-.7-.4 0-.3.2-.3.4-.3h.4c.2 0 .2-.1.2-.3v-1.5q0-.3-.3-.3h-1.2z" class="st11"/><path d="M72.6 85.9c.2 0 .7 0 .7.5s-.5 1.4-.8 1.9c.2.4.4.9 1.2 1.6.1.1.2.2.8.5.1 0 .1.1.1.3s-.1.4-.4.4-1-.6-1.1-.7c-.5-.5-.9-1-1.1-1.5-.5.7-1.1 1.2-1.7 1.6-.4.2-1.1.6-1.3.6-.3 0-.4-.3-.4-.4s0-.2.2-.3c.8-.3 1-.4 1.5-.8 1.5-1.2 2.1-2.7 2.1-2.9s-.1-.2-.2-.2h-1.4c-.4.7-1 1.3-1.3 1.5-.2.2-.3.3-.5.3s-.4-.2-.4-.4c0-.1.1-.2.1-.3.6-.5.7-.6 1.1-1.1.3-.4.4-.7.6-1.2.1-.1.1-.2.3-.2s.4.1.4.3c0 .1 0 .1-.1.4zM80.7 88.8q.3 0 .3.3t-.3.3h-5.4c-.1 0-.3 0-.3-.3q0-.3.3-.3h1.3c0-.1-.1-.2-.1-.4h-.2c-.4 0-.6-.1-.6-.5v-.2c0-.4.1-.5.6-.5h3.6c.4 0 .6.1.6.5v.2c0 .5-.1.5-.6.5h-.2c0 .1-.1.3-.2.4zm0-3.3q.3 0 .3.3t-.3.3h-2.3v.3h2c.1 0 .3 0 .3.2s-.1.2-.3.2h-4.7c-.1 0-.3 0-.3-.2s.1-.2.3-.2h2v-.3h-2.3q-.3 0-.3-.3c0-.1.1-.3.3-.3h2.3v-.2c0-.1.1-.2.3-.2s.4.1.4.3v.1zm-.3 5c0 .6-.3.6-.7.6h-3.5c-.4 0-.7 0-.7-.6v-.4c0-.5.3-.6.7-.6h3.5c.4 0 .7 0 .7.6zm-.6-.3c0-.1-.1-.2-.2-.2h-3.1c-.1 0-.2.1-.2.2v.2c0 .1 0 .2.2.2h3.1c.1 0 .2-.1.2-.2zm-.1-2.5c0-.1-.1-.1 0 0l-3.2-.1c-.1 0-.1 0-.1.1v.1c0 .1.1.1.1.1h3.1c.1 0 .1 0 .1-.2m-1 1.1c.1-.1.1-.3.2-.4h-1.7c0 .1.1.3.2.4zM84.8 90.9c0 .1 0 .3-.3.3s-.4-.1-.4-.3v-3.1h-1.2q-.3 0-.3.3v2.3c0 .1 0 .3-.3.3s-.3-.2-.3-.3v-2.5c0-.6.2-.8.7-.8h1.4v-.6h-2.3c-.1 0-.3 0-.3-.3s.2-.3.3-.3h2.3v-.4q0-.3.3-.3c.2 0 .4.1.4.3v.4h2.3c.1 0 .3 0 .3.3q0 .3-.3.3h-2.3v.7h1.4c.5 0 .8.2.8.8v2c0 .7-.4.7-1 .7-.5 0-.7 0-.7-.4 0-.3.2-.3.4-.3h.3c.2 0 .2-.1.2-.3v-1.6q0-.3-.3-.3h-1.2v3.1z" class="st12"/><path d="M26.5 88.3c-.2.5-.2.6-.4.6-.1 0-.4-.1-.4-.3 0-.1 0-.1.2-.5s.3-.9.4-1.3q0-.3.3-.3t.3.3c0 .3-.3 1.2-.4 1.5m-.5-3.5c.1 0 .4.2.6.3.3.2.3.2.3.4s-.1.4-.3.4c-.1 0-.1 0-.4-.2-.1-.1-.4-.2-.5-.3s-.1-.1-.1-.2c.1-.2.2-.4.4-.4m.6-1.4c.3.2.3.2.3.4s-.1.4-.3.4c-.1 0-.1 0-.4-.2-.4-.3-.5-.3-.5-.5s.2-.3.3-.3c.2-.1.5.1.6.2m.9.8h-.2c-.1 0-.3 0-.3-.3q0-.3.3-.3h1q.3 0 .3.3t-.3.3H28v2.6l.3-.1c.1 0 .2.1.2.3s-.1.2-.6.4c-.2.1-.5.2-.7.3-.1 0-.2.1-.2.1-.2 0-.3-.2-.3-.3 0-.2.1-.2.2-.3.1 0 .4-.1.4-.1v-2.9zm1 4.4c-.1.3-.2.3-.3.3s-.3-.1-.3-.2 0-.1.1-.3c.2-.3.2-.5.3-.8 0-.1.1-.2.2-.2s.3 0 .3.2-.2.7-.3 1m1.1-5.1c0-.1.1-.3.1-.4 0 0 .1-.1.3-.1 0 0 .3 0 .3.2 0 0 0 .1-.1.3h.5c.5 0 .7.1.7.7v.7c0 .5-.1.7-.7.7h-1.5v.3h2.1q.3 0 .3.3c0 .2-.1.2-.3.2h-2.1v.1c0 .1 0 .1.1.1h1.5c.5 0 .6.2.6.6s-.1 1.1-.2 1.4c-.1.4-.4.4-.8.4H30c-.2 0-.2-.2-.2-.3 0-.3.2-.3.3-.3h.4c.1 0 .3 0 .3-.2s.1-.7.1-.8 0-.2-.2-.2h-1.4c-.5 0-.7-.1-.7-.7v-2.4c0-.5.1-.7.7-.7zm-.1 4.5c0 .7 0 .7-.2.7s-.2-.1-.2-.2v-1c0-.1.1-.1.2-.1.2 0 .2.1.2.6m-.2-3.7h1.5v-.2c0-.1 0-.1-.1-.1h-1.2c-.1 0-.1.1-.1.1zm0 .8h1.4c.1 0 .1-.1.1-.1v-.2h-1.5zm.8 2.5c.1.2.1.5.1.6 0 0 0 .1-.1.2H30c-.2 0-.2-.1-.2-.3 0-.1-.1-.5-.1-.6s.1-.1.2-.1.2.1.2.2m.6 0c0 .1.1.3.1.4 0 .2-.2.2-.2.2-.1 0-.1 0-.2-.3 0-.1-.1-.3-.1-.4s.1-.1.2-.1c.1-.1.1 0 .2.2M34.9 84.1s-.2-.4-.2-.5c-.1-.2-.1-.2-.1-.3 0-.2.2-.3.4-.3s.2.1.4.3c.1.2.2.4.2.5s-.1.2-.1.2h.7c.3-.4.4-.5.6-.8.1-.1.1-.2.3-.2s.4.1.4.3c0 .1-.2.4-.5.8q.6 0 .6.6v1c0 .5-.2.6-.6.6h-1.6v.4h2.4c.1 0 .3 0 .3.3s-.2.3-.3.3h-1.7c.5.5 1.2.7 1.7.9.1.1.2.1.2.3s-.2.4-.3.4c-.3 0-1.6-.6-2.3-1.4v1.2c0 .1 0 .3-.3.3s-.4-.1-.4-.3v-1.2c-.8.8-2 1.4-2.3 1.4-.2 0-.3-.2-.3-.4s.1-.2.2-.3c.5-.2 1.1-.4 1.7-.9h-1.7c-.1 0-.3 0-.3-.3s.2-.3.3-.3h2.4v-.4h-1.6c-.4 0-.6-.1-.6-.6v-1c0-.6.3-.6.7-.6-.3-.5-.4-.6-.4-.7 0-.2.2-.3.4-.3.1 0 .2 0 .4.3.1.1.2.4.2.5s-.1.2-.1.2zm-1.7.9h1.6v-.4h-1.4c-.1 0-.2.1-.2.2zm0 .5v.2c0 .1 0 .2.2.2h1.4v-.4zM37 85v-.2c0-.1-.1-.2-.2-.2h-1.4v.4zm0 .5h-1.6v.4h1.4c.1 0 .2-.1.2-.2zM41.8 88.7c0 .1 0 .3-.3.3s-.4-.1-.4-.3v-3.1H40q-.3 0-.3.3v2.3c0 .1 0 .3-.3.3s-.3-.2-.3-.3v-2.5c0-.6.2-.8.7-.8h1.4v-.7h-2.3c-.1 0-.3 0-.3-.3s.2-.3.3-.3h2.3v-.4q0-.3.3-.3c.3 0 .4.1.4.3v.4h2.3c.1 0 .3 0 .3.3q0 .3-.3.3h-2.3v.7h1.4c.5 0 .8.2.8.8v2c0 .7-.4.7-1 .7-.5 0-.7 0-.7-.4 0-.3.2-.3.4-.3h.4c.2 0 .2-.1.2-.3v-1.6q0-.3-.3-.3h-1.2v3.2z" class="st10"/><path d="M26.9 88.8c-.2.5-.2.6-.4.6-.1 0-.4-.1-.4-.3 0-.1 0-.1.2-.5s.3-.9.4-1.3q0-.3.3-.3t.3.3c0 .3-.3 1.2-.4 1.5m-.4-3.5c.1 0 .4.2.6.3.3.2.3.2.3.4s-.1.4-.3.4c-.1 0-.1 0-.4-.2-.1-.1-.4-.2-.5-.3s-.1-.1-.1-.2c.1-.2.2-.4.4-.4m.6-1.4c.3.2.3.2.3.4s-.1.4-.3.4c-.1 0-.1 0-.4-.2-.4-.3-.5-.3-.5-.5s.2-.3.3-.3c.2-.1.5.1.6.2m.8.8h-.2c-.1 0-.3 0-.3-.3q0-.3.3-.3h1q.3 0 .3.3t-.3.3h-.3v2.6l.3-.1c.1 0 .2.1.2.3s-.1.2-.6.4c-.2.1-.5.2-.7.3-.1 0-.2.1-.2.1-.2 0-.3-.2-.3-.3 0-.2.1-.2.2-.3.1 0 .4-.1.4-.1v-2.9zM29 89c-.1.3-.2.3-.3.3s-.3-.1-.3-.2 0-.1.1-.3c.2-.3.2-.5.3-.8 0-.1.1-.2.2-.2s.3 0 .3.2-.2.8-.3 1m1-5c0-.1.1-.3.1-.4 0 0 .1-.1.3-.1 0 0 .3 0 .3.2 0 0 0 .1-.1.3h.5c.5 0 .7.1.7.7v.7c0 .5-.1.7-.7.7h-1.5v.3h2.1q.3 0 .3.3c0 .2-.1.2-.3.2h-2.1v.2c0 .1 0 .1.1.1h1.5c.5 0 .6.2.6.6s-.1 1.1-.2 1.4c-.1.4-.4.4-.8.4h-.4c-.2 0-.2-.2-.2-.3 0-.3.2-.3.3-.3h.4c.1 0 .3 0 .3-.2s.1-.7.1-.8 0-.2-.2-.2h-1.4c-.5 0-.7-.1-.7-.7v-2.4c0-.5.1-.7.7-.7zm-.1 4.5c0 .7 0 .7-.2.7s-.2-.1-.2-.2v-1c0-.1.1-.1.2-.1.2 0 .2.1.2.6m-.1-3.7h1.5v-.2c0-.1 0-.1-.1-.1H30c-.1 0-.1.1-.1.1zm0 .7h1.4c.1 0 .1-.1.1-.1v-.2h-1.5zm.7 2.6c.1.2.1.5.1.6 0 0 0 .1-.1.2h-.1c-.2 0-.2-.1-.2-.3 0-.1-.1-.5-.1-.6s.1-.1.2-.1c.2 0 .2.1.2.2m.7 0c0 .1.1.3.1.4 0 .2-.2.2-.2.2-.1 0-.1 0-.2-.3 0-.1-.1-.3-.1-.4s.1-.1.2-.1c.1-.1.1 0 .2.2M35.4 84.5s-.2-.4-.2-.5c-.1-.2-.1-.2-.1-.3 0-.2.2-.3.4-.3s.2.1.4.3c.1.2.2.4.2.5s-.1.2-.1.2h.7c.3-.4.4-.5.6-.8.1-.1.1-.2.3-.2s.4.1.4.3c0 .1-.2.4-.5.8h.1q.6 0 .6.6v1c0 .5-.2.6-.6.6H36v.4h2.4c.1 0 .3 0 .3.3s-.2.3-.3.3h-1.7c.5.5 1.2.7 1.7.9.1.1.2.1.2.3s-.2.4-.3.4c-.3 0-1.6-.6-2.3-1.4v1.2c0 .1 0 .3-.3.3s-.4-.1-.4-.3v-1.2c-.8.8-2 1.4-2.3 1.4-.2 0-.3-.2-.3-.4s.1-.2.2-.3c.5-.2 1.1-.4 1.7-.9h-1.7c-.1 0-.3 0-.3-.3s.2-.3.3-.3h2.4v-.4h-1.6c-.4 0-.6-.1-.6-.6v-1c0-.6.3-.6.7-.6-.3-.5-.4-.6-.4-.7 0-.2.2-.3.4-.3.1 0 .2 0 .4.3.1.1.2.4.2.5s-.1.2-.1.2zm-1.8.9h1.6V85h-1.4c-.1 0-.2.1-.2.2zm0 .5v.2c0 .1 0 .2.2.2h1.4v-.4zm3.9-.5v-.2c0-.1-.1-.2-.2-.2h-1.4v.4zm0 .5h-1.6v.4h1.4c.1 0 .2-.1.2-.2zM42.3 89.2c0 .1 0 .3-.3.3s-.4-.1-.4-.3v-3.1h-1.2q-.3 0-.3.3v2.3c0 .1 0 .3-.3.3s-.3-.2-.3-.3v-2.5c0-.6.2-.8.7-.8h1.4v-.7h-2.3c-.1 0-.3 0-.3-.3s.2-.3.3-.3h2.3v-.4q0-.3.3-.3c.3 0 .4.1.4.3v.4h2.3c.1 0 .3 0 .3.3q0 .3-.3.3h-2.3v.8h1.4c.5 0 .8.2.8.8v2c0 .7-.4.7-1 .7-.5 0-.7 0-.7-.4 0-.3.2-.3.4-.3h.4c.2 0 .2-.1.2-.3v-1.6q0-.3-.3-.3h-1.2z" class="st11"/><path d="M26.5 88.3c-.2.5-.2.6-.4.6-.1 0-.4-.1-.4-.3 0-.1 0-.1.2-.5s.3-.9.4-1.3q0-.3.3-.3t.3.3c0 .3-.3 1.2-.4 1.5m-.5-3.5c.1 0 .4.2.6.3.3.2.3.2.3.4s-.1.4-.3.4c-.1 0-.1 0-.4-.2-.1-.1-.4-.2-.5-.3s-.1-.1-.1-.2c.1-.2.2-.4.4-.4m.6-1.4c.3.2.3.2.3.4s-.1.4-.3.4c-.1 0-.1 0-.4-.2-.4-.3-.5-.3-.5-.5s.2-.3.3-.3c.2-.1.5.1.6.2m.9.8h-.2c-.1 0-.3 0-.3-.3q0-.3.3-.3h1q.3 0 .3.3t-.3.3H28v2.6l.3-.1c.1 0 .2.1.2.3s-.1.2-.6.4c-.2.1-.5.2-.7.3-.1 0-.2.1-.2.1-.2 0-.3-.2-.3-.3 0-.2.1-.2.2-.3.1 0 .4-.1.4-.1v-2.9zm1 4.4c-.1.3-.2.3-.3.3s-.3-.1-.3-.2 0-.1.1-.3c.2-.3.2-.5.3-.8 0-.1.1-.2.2-.2s.3 0 .3.2-.2.7-.3 1m1.1-5.1c0-.1.1-.3.1-.4 0 0 .1-.1.3-.1 0 0 .3 0 .3.2 0 0 0 .1-.1.3h.5c.5 0 .7.1.7.7v.7c0 .5-.1.7-.7.7h-1.5v.3h2.1q.3 0 .3.3c0 .2-.1.2-.3.2h-2.1v.1c0 .1 0 .1.1.1h1.5c.5 0 .6.2.6.6s-.1 1.1-.2 1.4c-.1.4-.4.4-.8.4H30c-.2 0-.2-.2-.2-.3 0-.3.2-.3.3-.3h.4c.1 0 .3 0 .3-.2s.1-.7.1-.8 0-.2-.2-.2h-1.4c-.5 0-.7-.1-.7-.7v-2.4c0-.5.1-.7.7-.7zm-.1 4.5c0 .7 0 .7-.2.7s-.2-.1-.2-.2v-1c0-.1.1-.1.2-.1.2 0 .2.1.2.6m-.2-3.7h1.5v-.2c0-.1 0-.1-.1-.1h-1.2c-.1 0-.1.1-.1.1zm0 .8h1.4c.1 0 .1-.1.1-.1v-.2h-1.5zm.8 2.5c.1.2.1.5.1.6 0 0 0 .1-.1.2H30c-.2 0-.2-.1-.2-.3 0-.1-.1-.5-.1-.6s.1-.1.2-.1.2.1.2.2m.6 0c0 .1.1.3.1.4 0 .2-.2.2-.2.2-.1 0-.1 0-.2-.3 0-.1-.1-.3-.1-.4s.1-.1.2-.1c.1-.1.1 0 .2.2M34.9 84.1s-.2-.4-.2-.5c-.1-.2-.1-.2-.1-.3 0-.2.2-.3.4-.3s.2.1.4.3c.1.2.2.4.2.5s-.1.2-.1.2h.7c.3-.4.4-.5.6-.8.1-.1.1-.2.3-.2s.4.1.4.3c0 .1-.2.4-.5.8q.6 0 .6.6v1c0 .5-.2.6-.6.6h-1.6v.4h2.4c.1 0 .3 0 .3.3s-.2.3-.3.3h-1.7c.5.5 1.2.7 1.7.9.1.1.2.1.2.3s-.2.4-.3.4c-.3 0-1.6-.6-2.3-1.4v1.2c0 .1 0 .3-.3.3s-.4-.1-.4-.3v-1.2c-.8.8-2 1.4-2.3 1.4-.2 0-.3-.2-.3-.4s.1-.2.2-.3c.5-.2 1.1-.4 1.7-.9h-1.7c-.1 0-.3 0-.3-.3s.2-.3.3-.3h2.4v-.4h-1.6c-.4 0-.6-.1-.6-.6v-1c0-.6.3-.6.7-.6-.3-.5-.4-.6-.4-.7 0-.2.2-.3.4-.3.1 0 .2 0 .4.3.1.1.2.4.2.5s-.1.2-.1.2zm-1.7.9h1.6v-.4h-1.4c-.1 0-.2.1-.2.2zm0 .5v.2c0 .1 0 .2.2.2h1.4v-.4zM37 85v-.2c0-.1-.1-.2-.2-.2h-1.4v.4zm0 .5h-1.6v.4h1.4c.1 0 .2-.1.2-.2zM41.8 88.7c0 .1 0 .3-.3.3s-.4-.1-.4-.3v-3.1H40q-.3 0-.3.3v2.3c0 .1 0 .3-.3.3s-.3-.2-.3-.3v-2.5c0-.6.2-.8.7-.8h1.4v-.7h-2.3c-.1 0-.3 0-.3-.3s.2-.3.3-.3h2.3v-.4q0-.3.3-.3c.3 0 .4.1.4.3v.4h2.3c.1 0 .3 0 .3.3q0 .3-.3.3h-2.3v.7h1.4c.5 0 .8.2.8.8v2c0 .7-.4.7-1 .7-.5 0-.7 0-.7-.4 0-.3.2-.3.4-.3h.4c.2 0 .2-.1.2-.3v-1.6q0-.3-.3-.3h-1.2v3.2z" class="st12"/><path d="M35.2 120.2c0 .1 0 .3-.3.3s-.3-.1-.3-.3v-2.3c-.1.4-.2.6-.3.8-.1.1-.1.2-.3.2s-.3-.2-.3-.4c0-.1 0-.2.3-.5.4-.7.6-1.4.7-1.7h-.5c-.1 0-.3 0-.3-.3s.2-.3.3-.3h.5v-.9c0-.1 0-.3.3-.3s.3.1.3.3v.9h.5c.1 0 .3 0 .3.3s-.1.3-.3.3h-.5v.2c.1.3.3.5.5.8s.2.3.2.4q0 .3-.3.3c-.1 0-.1 0-.2-.1s-.1-.3-.2-.4v2.7zm1.1-5.1c-.1 0-.3 0-.3-.3s.2-.3.3-.3h2.5c.2 0 .5 0 .5.4 0 .2-.1.3-.6.7-.3.2-.5.3-.7.4v.1h.7c.4 0 .7.2.7.6v3.1c0 .5-.3.5-.7.5h-.4c-.1 0-.2-.2-.2-.3 0-.3.2-.3.3-.3h.3c.1 0 .1-.1.1-.2v-.6H38v1.1c0 .1 0 .3-.3.3q-.3 0-.3-.3v-1.1h-.8v1.2c0 .1 0 .3-.3.3s-.3-.1-.3-.3v-3.4c0-.5.2-.6.7-.6h.7c-.2-.2-.3-.3-.5-.4-.1-.1-.2-.1-.2-.2s.1-.3.3-.3c.1 0 .2 0 .4.2.1.1.3.2.4.3.3-.1.7-.4.7-.5h-.1zm.3 2.2h.8v-.7h-.6c-.2 0-.2.1-.2.2zm.9.5h-.8v.7h.8zm1.4-.5v-.5c0-.1 0-.2-.2-.2H38v.7zm0 .5H38v.7h.9zM41.5 117.1c0 1.5-.3 2.3-.5 2.8-.2.4-.3.5-.5.5s-.4-.1-.4-.4c0-.1 0-.2.1-.4s.3-.6.5-1.4c.1-.4.1-.9.1-1.2v-2.3c0-.1 0-.3.3-.3s.4.1.4.3zm2.1 2.6c0 .1 0 .3-.3.3s-.4-.1-.4-.3V115c0-.1 0-.3.3-.3s.4.1.4.3zm2.2.4c0 .1 0 .3-.3.3s-.4-.1-.4-.3v-5.3c0-.1 0-.3.3-.3s.4.1.4.3zM49.9 120.1c0 .1 0 .3-.3.3s-.4-.1-.4-.3V117H48q-.3 0-.3.3v2.3c0 .1 0 .3-.3.3s-.3-.2-.3-.3v-2.5c0-.6.2-.8.7-.8h1.4v-.7h-2.3c-.1 0-.3 0-.3-.3s.2-.3.3-.3h2.3v-.4q0-.3.3-.3c.3 0 .4.1.4.3v.4h2.3c.1 0 .3 0 .3.3q0 .3-.3.3h-2.3v.7h1.4c.5 0 .8.2.8.8v2c0 .7-.4.7-1 .7-.5 0-.7 0-.7-.4 0-.3.2-.3.4-.3h.4c.2 0 .2-.1.2-.3v-1.6q0-.3-.3-.3h-1.2z" class="st10"/><path d="M35.7 120.6c0 .1 0 .3-.3.3s-.3-.1-.3-.3v-2.3c-.1.4-.2.6-.3.8-.1.1-.1.2-.3.2s-.3-.2-.3-.4c0-.1 0-.2.3-.5.4-.7.6-1.4.7-1.7h-.5c-.1 0-.3 0-.3-.3s.2-.3.3-.3h.5v-.9c0-.1 0-.3.3-.3s.3.1.3.3v.9h.5c.1 0 .3 0 .3.3s-.1.3-.3.3h-.5v.2c.1.3.3.5.5.8s.2.3.2.4q0 .3-.3.3c-.1 0-.1 0-.2-.1s-.1-.3-.2-.4v2.7zm1-5c-.1 0-.3 0-.3-.3s.2-.3.3-.3h2.5c.2 0 .5 0 .5.4 0 .2-.1.3-.6.7-.3.2-.5.3-.7.4v.1h.7c.4 0 .7.2.7.6v3.1c0 .5-.3.5-.7.5h-.4c-.1 0-.2-.2-.2-.3 0-.3.2-.3.3-.3h.3c.1 0 .1-.1.1-.2v-.6h-.9v1.1c0 .1 0 .3-.3.3q-.3 0-.3-.3v-1.1h-.8v1.2c0 .1 0 .3-.3.3s-.3-.1-.3-.3v-3.4c0-.5.2-.6.7-.6h.7c-.2-.2-.3-.3-.5-.4-.1-.1-.2-.1-.2-.2s.1-.3.3-.3c.1 0 .2 0 .4.2.1.1.3.2.4.3.3-.1.7-.4.7-.5h-.1zm.4 2.1h.8v-.7h-.6c-.2 0-.2.1-.2.2zm.8.5h-.8v.7h.8zm1.5-.5v-.5c0-.1 0-.2-.2-.2h-.7v.7zm0 .5h-.9v.7h.9zM42 117.6c0 1.5-.3 2.3-.5 2.8-.2.4-.3.5-.5.5s-.4-.1-.4-.4c0-.1 0-.2.1-.4s.3-.6.5-1.4c.1-.4.1-.9.1-1.2v-2.3c0-.1 0-.3.3-.3s.4.1.4.3zm2 2.5c0 .1 0 .3-.3.3s-.4-.1-.4-.3v-4.7c0-.1 0-.3.3-.3s.4.1.4.3zm2.2.4c0 .1 0 .3-.3.3s-.4-.1-.4-.3v-5.3c0-.1 0-.3.3-.3s.4.1.4.3zM50.3 120.6c0 .1 0 .3-.3.3s-.4-.1-.4-.3v-3.1h-1.2q-.3 0-.3.3v2.3c0 .1 0 .3-.3.3s-.3-.2-.3-.3v-2.5c0-.6.2-.8.7-.8h1.4v-.7h-2.3c-.1 0-.3 0-.3-.3s.2-.3.3-.3h2.3v-.4q0-.3.3-.3c.3 0 .4.1.4.3v.4h2.3c.1 0 .3 0 .3.3q0 .3-.3.3h-2.3v.7h1.4c.5 0 .8.2.8.8v2c0 .7-.4.7-1 .7-.5 0-.7 0-.7-.4 0-.3.2-.3.4-.3h.4c.2 0 .2-.1.2-.3v-1.6q0-.3-.3-.3h-1.2z" class="st11"/><path d="M35.2 120.2c0 .1 0 .3-.3.3s-.3-.1-.3-.3v-2.3c-.1.4-.2.6-.3.8-.1.1-.1.2-.3.2s-.3-.2-.3-.4c0-.1 0-.2.3-.5.4-.7.6-1.4.7-1.7h-.5c-.1 0-.3 0-.3-.3s.2-.3.3-.3h.5v-.9c0-.1 0-.3.3-.3s.3.1.3.3v.9h.5c.1 0 .3 0 .3.3s-.1.3-.3.3h-.5v.2c.1.3.3.5.5.8s.2.3.2.4q0 .3-.3.3c-.1 0-.1 0-.2-.1s-.1-.3-.2-.4v2.7zm1.1-5.1c-.1 0-.3 0-.3-.3s.2-.3.3-.3h2.5c.2 0 .5 0 .5.4 0 .2-.1.3-.6.7-.3.2-.5.3-.7.4v.1h.7c.4 0 .7.2.7.6v3.1c0 .5-.3.5-.7.5h-.4c-.1 0-.2-.2-.2-.3 0-.3.2-.3.3-.3h.3c.1 0 .1-.1.1-.2v-.6H38v1.1c0 .1 0 .3-.3.3q-.3 0-.3-.3v-1.1h-.8v1.2c0 .1 0 .3-.3.3s-.3-.1-.3-.3v-3.4c0-.5.2-.6.7-.6h.7c-.2-.2-.3-.3-.5-.4-.1-.1-.2-.1-.2-.2s.1-.3.3-.3c.1 0 .2 0 .4.2.1.1.3.2.4.3.3-.1.7-.4.7-.5h-.1zm.3 2.2h.8v-.7h-.6c-.2 0-.2.1-.2.2zm.9.5h-.8v.7h.8zm1.4-.5v-.5c0-.1 0-.2-.2-.2H38v.7zm0 .5H38v.7h.9zM41.5 117.1c0 1.5-.3 2.3-.5 2.8-.2.4-.3.5-.5.5s-.4-.1-.4-.4c0-.1 0-.2.1-.4s.3-.6.5-1.4c.1-.4.1-.9.1-1.2v-2.3c0-.1 0-.3.3-.3s.4.1.4.3zm2.1 2.6c0 .1 0 .3-.3.3s-.4-.1-.4-.3V115c0-.1 0-.3.3-.3s.4.1.4.3zm2.2.4c0 .1 0 .3-.3.3s-.4-.1-.4-.3v-5.3c0-.1 0-.3.3-.3s.4.1.4.3zM49.9 120.1c0 .1 0 .3-.3.3s-.4-.1-.4-.3V117H48q-.3 0-.3.3v2.3c0 .1 0 .3-.3.3s-.3-.2-.3-.3v-2.5c0-.6.2-.8.7-.8h1.4v-.7h-2.3c-.1 0-.3 0-.3-.3s.2-.3.3-.3h2.3v-.4q0-.3.3-.3c.3 0 .4.1.4.3v.4h2.3c.1 0 .3 0 .3.3q0 .3-.3.3h-2.3v.7h1.4c.5 0 .8.2.8.8v2c0 .7-.4.7-1 .7-.5 0-.7 0-.7-.4 0-.3.2-.3.4-.3h.4c.2 0 .2-.1.2-.3v-1.6q0-.3-.3-.3h-1.2z" class="st12"/><path d="M51.2 126.2c.1 0 .3 0 .3.3s-.2.3-.3.3h-2v2.6h2.4c.1 0 .3 0 .3.3s-.2.3-.3.3h-5.4c-.1 0-.3 0-.3-.3s.2-.3.3-.3h2.2v-4.7c0-.1 0-.3.3-.3s.4.1.4.3v1.5zM53.4 127.3c0 .8-.1 1.7-.4 2.5-.1.4-.2.5-.4.5-.1 0-.4-.1-.4-.3 0-.1 0-.2.1-.3.2-.6.4-1.1.4-2.4v-2c0-.5.2-.7.7-.7h3.9c.5 0 .6.1.6.6v.3c0 .5-.1.6-.6.6h-3.9zm0-1.7h3.7c.1 0 .1 0 .1-.1v-.2c0-.1-.1-.1-.1-.1h-3.6c-.1 0-.2.1-.2.2zm2.4 1.9 1.8-.1c.2 0 .3 0 .3.2s-.2.2-.3.3l-1.8.1v.4l2.1-.1c.1 0 .3 0 .3.3 0 .1 0 .2-.3.3l-2.1.1v.5q0 .3.3.3h1c.4 0 .4 0 .4-.3s0-.4.3-.4c.1 0 .2 0 .2.1.1.1.1.2.1.2 0 .2-.1.6-.2.8-.2.2-.3.2-1.3.2h-.8c-.5 0-.7-.1-.7-.7v-.5l-1.4.1c-.1 0-.3 0-.3-.3 0-.1 0-.2.3-.3l1.5-.1v-.4l-1.2.1c-.1 0-.3 0-.3-.3 0-.2.1-.2.3-.3l1.3-.1v-.4c-.3 0-1.1.1-1.2.1s-.3 0-.3-.3.2-.3.4-.3c.9 0 2-.1 2.7-.2.1 0 .7-.1.8-.1.2 0 .2.2.2.3 0 .2-.1.2-.4.3-.5.1-1.2.2-1.5.2v.3zM61.9 130c0 .1 0 .3-.3.3s-.4-.1-.4-.3v-3.1H60q-.3 0-.3.3v2.3c0 .1 0 .3-.3.3s-.3-.2-.3-.3V127c0-.6.2-.8.7-.8h1.4v-.7h-2.3c-.1 0-.3 0-.3-.3s.2-.3.3-.3h2.3v-.4q0-.3.3-.3c.3 0 .4.1.4.3v.4h2.3c.1 0 .3 0 .3.3q0 .3-.3.3h-2.3v.7h1.4c.5 0 .8.2.8.8v2c0 .7-.4.7-1 .7-.5 0-.7 0-.7-.4 0-.3.2-.3.4-.3h.4c.2 0 .2-.1.2-.3v-1.6q0-.3-.3-.3h-1.2z" class="st10"/><path d="M51.6 126.7c.1 0 .3 0 .3.3s-.2.3-.3.3h-2v2.6H52c.1 0 .3 0 .3.3s-.2.3-.3.3h-5.4c-.1 0-.3 0-.3-.3s.2-.3.3-.3h2.2v-4.7c0-.1 0-.3.3-.3s.4.1.4.3v1.5zM53.8 127.7c0 .8-.1 1.7-.4 2.5-.1.4-.2.5-.4.5-.1 0-.4-.1-.4-.3 0-.1 0-.2.1-.3.2-.6.4-1.1.4-2.4v-2c0-.5.2-.7.7-.7h3.9c.5 0 .6.1.6.6v.3c0 .5-.1.6-.6.6h-3.9zm0-1.7h3.7c.1 0 .1 0 .1-.1v-.2c0-.1-.1-.1-.1-.1H54c-.1 0-.2.1-.2.2zm2.4 1.9 1.8-.1c.2 0 .3 0 .3.2s-.2.2-.3.3l-1.8.1v.4l2.1-.1c.1 0 .3 0 .3.3 0 .1 0 .2-.3.3l-2.1.1v.5q0 .3.3.3h1c.4 0 .4 0 .4-.3s0-.4.3-.4c.1 0 .2 0 .2.1.1.1.1.2.1.2 0 .2-.1.6-.2.8-.2.2-.3.2-1.3.2h-.8c-.5 0-.7-.1-.7-.7v-.5l-1.4.1c-.1 0-.3 0-.3-.3 0-.1 0-.2.3-.3l1.5-.1v-.5l-1.2.1c-.1 0-.3 0-.3-.3 0-.2.1-.2.3-.3l1.3-.1v-.4c-.3 0-1.1.1-1.2.1s-.3 0-.3-.3.2-.3.4-.3c.9 0 2-.1 2.7-.2.1 0 .7-.1.8-.1.2 0 .2.2.2.3 0 .2-.1.2-.4.3-.5.1-1.2.2-1.5.2v.4zM62.4 130.5c0 .1 0 .3-.3.3s-.4-.1-.4-.3v-3h-1.2q-.3 0-.3.3v2.3c0 .1 0 .3-.3.3s-.3-.2-.3-.3v-2.5c0-.6.2-.8.7-.8h1.4v-.7h-2.3c-.1 0-.3 0-.3-.3s.2-.3.3-.3h2.3v-.4q0-.3.3-.3c.3 0 .4.1.4.3v.4h2.3c.1 0 .3 0 .3.3q0 .3-.3.3h-2.3v.7h1.4c.5 0 .8.2.8.8v2c0 .7-.4.7-1 .7-.5 0-.7 0-.7-.4 0-.3.2-.3.4-.3h.4c.2 0 .2-.1.2-.3v-1.6q0-.3-.3-.3h-1.2z" class="st11"/><path d="M51.2 126.2c.1 0 .3 0 .3.3s-.2.3-.3.3h-2v2.6h2.4c.1 0 .3 0 .3.3s-.2.3-.3.3h-5.4c-.1 0-.3 0-.3-.3s.2-.3.3-.3h2.2v-4.7c0-.1 0-.3.3-.3s.4.1.4.3v1.5zM53.4 127.3c0 .8-.1 1.7-.4 2.5-.1.4-.2.5-.4.5-.1 0-.4-.1-.4-.3 0-.1 0-.2.1-.3.2-.6.4-1.1.4-2.4v-2c0-.5.2-.7.7-.7h3.9c.5 0 .6.1.6.6v.3c0 .5-.1.6-.6.6h-3.9zm0-1.7h3.7c.1 0 .1 0 .1-.1v-.2c0-.1-.1-.1-.1-.1h-3.6c-.1 0-.2.1-.2.2zm2.4 1.9 1.8-.1c.2 0 .3 0 .3.2s-.2.2-.3.3l-1.8.1v.4l2.1-.1c.1 0 .3 0 .3.3 0 .1 0 .2-.3.3l-2.1.1v.5q0 .3.3.3h1c.4 0 .4 0 .4-.3s0-.4.3-.4c.1 0 .2 0 .2.1.1.1.1.2.1.2 0 .2-.1.6-.2.8-.2.2-.3.2-1.3.2h-.8c-.5 0-.7-.1-.7-.7v-.5l-1.4.1c-.1 0-.3 0-.3-.3 0-.1 0-.2.3-.3l1.5-.1v-.4l-1.2.1c-.1 0-.3 0-.3-.3 0-.2.1-.2.3-.3l1.3-.1v-.4c-.3 0-1.1.1-1.2.1s-.3 0-.3-.3.2-.3.4-.3c.9 0 2-.1 2.7-.2.1 0 .7-.1.8-.1.2 0 .2.2.2.3 0 .2-.1.2-.4.3-.5.1-1.2.2-1.5.2v.3zM61.9 130c0 .1 0 .3-.3.3s-.4-.1-.4-.3v-3.1H60q-.3 0-.3.3v2.3c0 .1 0 .3-.3.3s-.3-.2-.3-.3V127c0-.6.2-.8.7-.8h1.4v-.7h-2.3c-.1 0-.3 0-.3-.3s.2-.3.3-.3h2.3v-.4q0-.3.3-.3c.3 0 .4.1.4.3v.4h2.3c.1 0 .3 0 .3.3q0 .3-.3.3h-2.3v.7h1.4c.5 0 .8.2.8.8v2c0 .7-.4.7-1 .7-.5 0-.7 0-.7-.4 0-.3.2-.3.4-.3h.4c.2 0 .2-.1.2-.3v-1.6q0-.3-.3-.3h-1.2z" class="st12"/><path d="M32.6 106.4h-1.4c-.1 0-.3 0-.3-.3s.1-.3.3-.3h1.4v-1.3c0-.1 0-.3.3-.3s.4.1.4.3v5.3c0 .1 0 .3-.3.3s-.4-.1-.4-.3v-.6c-.3.1-1.3.5-1.5.5s-.3-.2-.3-.4.1-.3.5-.4c.6-.2 1-.3 1.3-.4zm2.2 2.7c0 .3.1.3.6.3.7 0 .7 0 .7-.2 0-.1.1-.7.1-.8 0-.2.2-.2.3-.2.4 0 .4.3.4.3 0 .1-.1 1-.1 1.2-.1.3-.3.4-.6.4h-.9c-.6 0-.7 0-.9-.1s-.2-.5-.2-.6v-4.9c0-.1 0-.3.3-.3s.4.1.4.3v1.7c.6-.3 1-.6 1.1-.7.3-.2.3-.3.5-.3s.4.3.4.4-.1.2-.5.5c-.7.5-1.2.7-1.5.9zM41.4 108.4c.1 0 .3 0 .3.3s-.2.3-.3.3h-.9v.8c0 .1 0 .3-.3.3s-.4-.1-.4-.3v-.8h-.9c-.1 0-.3 0-.3-.3s.2-.3.3-.3h.9v-1.9c-.5 1.1-1.2 1.8-1.6 2.2-.2.2-.4.4-.5.4h-.2c-.2 0-.4-.2-.4-.4s.1-.2.2-.3c.7-.5 1.4-1.1 2.1-2.5h-2c-.1 0-.3 0-.3-.3s.2-.3.3-.3h2.3v-.8c0-.1 0-.3.3-.3.2 0 .4.1.4.3v.8h2.4c.1 0 .3 0 .3.3q0 .3-.3.3h-2c.5 1.2 1.5 2 1.7 2.2.1 0 .5.4.6.4.1.1.1.1.1.2 0 .2-.2.4-.4.4-.1 0-.2 0-.5-.3-1.1-.9-1.5-1.8-1.8-2.3v1.9zM46.9 109.8c0 .1 0 .3-.3.3s-.4-.1-.4-.3v-3.1H45q-.3 0-.3.3v2.3c0 .1 0 .3-.3.3s-.3-.2-.3-.3v-2.5c0-.6.2-.8.7-.8h1.4v-.5h-2.3c-.1 0-.3 0-.3-.3s.2-.3.3-.3h2.3v-.4q0-.3.3-.3c.3 0 .4.1.4.3v.4h2.3c.1 0 .3 0 .3.3q0 .3-.3.3h-2.3v.7h1.4c.5 0 .8.2.8.8v2c0 .7-.4.7-1 .7-.5 0-.7 0-.7-.4 0-.3.2-.3.4-.3h.4c.2 0 .2-.1.2-.3v-1.6q0-.3-.3-.3h-1.2z" class="st10"/><path d="M33 106.8h-1.4c-.1 0-.3 0-.3-.3s.1-.3.3-.3H33V105c0-.1 0-.3.3-.3s.4.1.4.3v5.3c0 .1 0 .3-.3.3s-.4-.1-.4-.3v-.6c-.3.1-1.3.5-1.5.5s-.3-.2-.3-.4.1-.3.5-.4c.6-.2 1-.3 1.3-.4zm2.2 2.8c0 .3.1.3.6.3.7 0 .7 0 .7-.2 0-.1.1-.7.1-.8 0-.2.2-.2.3-.2.4 0 .4.3.4.3 0 .1-.1 1-.1 1.2-.1.3-.3.4-.6.4h-.9c-.6 0-.7 0-.9-.1s-.2-.5-.2-.6v-4.8c0-.1 0-.3.3-.3s.4.1.4.3v1.7c.6-.3 1-.6 1.1-.7.3-.2.3-.3.5-.3s.4.3.4.4-.1.2-.5.5c-.7.5-1.2.7-1.5.9zM41.9 108.9c.1 0 .3 0 .3.3s-.2.3-.3.3H41v.8c0 .1 0 .3-.3.3s-.4-.1-.4-.3v-.8h-.9c-.1 0-.3 0-.3-.3s.2-.3.3-.3h.9V107c-.5 1.1-1.2 1.8-1.6 2.2-.2.2-.4.4-.5.4H38c-.2 0-.4-.2-.4-.4s.1-.2.2-.3c.7-.5 1.4-1.1 2.1-2.5h-2c-.1 0-.3 0-.3-.3s.2-.3.3-.3h2.3v-.8c0-.1 0-.3.3-.3.2 0 .4.1.4.3v.8h2.4c.1 0 .3 0 .3.3q0 .3-.3.3h-2c.5 1.2 1.5 2 1.7 2.2.1 0 .5.4.6.4.1.1.1.1.1.2 0 .2-.2.4-.4.4-.1 0-.2 0-.5-.3-1.1-.9-1.5-1.8-1.8-2.3v1.9zM47.4 110.3c0 .1 0 .3-.3.3s-.4-.1-.4-.3v-3.1h-1.2q-.3 0-.3.3v2.3c0 .1 0 .3-.3.3s-.3-.2-.3-.3v-2.5c0-.6.2-.8.7-.8h1.4v-.7h-2.3c-.1 0-.3 0-.3-.3s.2-.3.3-.3h2.3v-.4q0-.3.3-.3c.3 0 .4.1.4.3v.4h2.3c.1 0 .3 0 .3.3q0 .3-.3.3h-2.3v.7h1.4c.5 0 .8.2.8.8v2c0 .7-.4.7-1 .7-.5 0-.7 0-.7-.4 0-.3.2-.3.4-.3h.4c.2 0 .2-.1.2-.3v-1.5q0-.3-.3-.3h-1.2z" class="st11"/><path d="M32.6 106.4h-1.4c-.1 0-.3 0-.3-.3s.1-.3.3-.3h1.4v-1.3c0-.1 0-.3.3-.3s.4.1.4.3v5.3c0 .1 0 .3-.3.3s-.4-.1-.4-.3v-.6c-.3.1-1.3.5-1.5.5s-.3-.2-.3-.4.1-.3.5-.4c.6-.2 1-.3 1.3-.4zm2.2 2.7c0 .3.1.3.6.3.7 0 .7 0 .7-.2 0-.1.1-.7.1-.8 0-.2.2-.2.3-.2.4 0 .4.3.4.3 0 .1-.1 1-.1 1.2-.1.3-.3.4-.6.4h-.9c-.6 0-.7 0-.9-.1s-.2-.5-.2-.6v-4.9c0-.1 0-.3.3-.3s.4.1.4.3v1.7c.6-.3 1-.6 1.1-.7.3-.2.3-.3.5-.3s.4.3.4.4-.1.2-.5.5c-.7.5-1.2.7-1.5.9zM41.4 108.4c.1 0 .3 0 .3.3s-.2.3-.3.3h-.9v.8c0 .1 0 .3-.3.3s-.4-.1-.4-.3v-.8h-.9c-.1 0-.3 0-.3-.3s.2-.3.3-.3h.9v-1.9c-.5 1.1-1.2 1.8-1.6 2.2-.2.2-.4.4-.5.4h-.2c-.2 0-.4-.2-.4-.4s.1-.2.2-.3c.7-.5 1.4-1.1 2.1-2.5h-2c-.1 0-.3 0-.3-.3s.2-.3.3-.3h2.3v-.8c0-.1 0-.3.3-.3.2 0 .4.1.4.3v.8h2.4c.1 0 .3 0 .3.3q0 .3-.3.3h-2c.5 1.2 1.5 2 1.7 2.2.1 0 .5.4.6.4.1.1.1.1.1.2 0 .2-.2.4-.4.4-.1 0-.2 0-.5-.3-1.1-.9-1.5-1.8-1.8-2.3v1.9zM46.9 109.8c0 .1 0 .3-.3.3s-.4-.1-.4-.3v-3.1H45q-.3 0-.3.3v2.3c0 .1 0 .3-.3.3s-.3-.2-.3-.3v-2.5c0-.6.2-.8.7-.8h1.4v-.5h-2.3c-.1 0-.3 0-.3-.3s.2-.3.3-.3h2.3v-.4q0-.3.3-.3c.3 0 .4.1.4.3v.4h2.3c.1 0 .3 0 .3.3q0 .3-.3.3h-2.3v.7h1.4c.5 0 .8.2.8.8v2c0 .7-.4.7-1 .7-.5 0-.7 0-.7-.4 0-.3.2-.3.4-.3h.4c.2 0 .2-.1.2-.3v-1.6q0-.3-.3-.3h-1.2z" class="st12"/><path d="M84.6 120.8h1.5c.1 0 .3 0 .3.2s-.2.2-.3.2h-1.5v.3h.9c.5 0 .7.1.7.7v.5c0 .5-.1.7-.7.7h-.9v.3h1.5c.1 0 .3 0 .3.3 0 .2-.2.3-.3.3h-1.5v.2c0 .1-.1.3-.3.3q-.3 0-.3-.3v-.2h-1.5c-.1 0-.3 0-.3-.3 0-.2.2-.3.3-.3H84v-.3h-.9c-.5 0-.7-.1-.7-.7v-.5c0-.5.1-.7.7-.7h.9v-.3h-1.5c-.1 0-.3 0-.3-.2s.2-.2.3-.2H84v-.1c0-.2.2-.2.3-.2v-.2h-1.5v.1c0 .1-.1.3-.3.3q-.3 0-.3-.3v-.1h-1.3c-.1 0-.3 0-.3-.3q0-.3.3-.3h1.3v-.2q0-.3.3-.3c.2 0 .4.1.4.3v.1h1.5v-.1c0-.1.1-.3.3-.3q.3 0 .3.3v.1h1.2c.1 0 .3 0 .3.3q0 .3-.3.3H85c0 .2 0 .4-.3.4-.1 0-.1 0-.1.2m1.5 3.7c.1 0 .3 0 .3.3q0 .3-.3.3h-3c-.1 0-.5 0-.8-.1-.4-.1-.5-.4-.6-.5-.1.2-.6.7-.8.7s-.3-.2-.3-.4.1-.2.2-.3c.3-.2.4-.2.5-.4V123c0-.1-.1-.2-.2-.2h-.3c-.1 0-.3 0-.3-.3s.1-.3.3-.3h.4c.5 0 .7.1.7.7v.8c0 .1.1.4.5.6.2.1.5.2.8.2zm-4.7-3.6c.1.1.4.3.5.4s.1.1.1.2c0 .2-.2.3-.3.3s-.2-.1-.4-.2-.3-.3-.5-.4c-.1-.1-.2-.1-.2-.2s.1-.3.3-.3c.2-.1.3 0 .5.2m1.7 1.3h.9v-.3h-.8c-.1 0-.2.1-.2.2zm.9.7v-.3h-.9v.1c0 .1.1.2.2.2zm1.5-.7c0-.2 0-.3-.2-.3h-.8v.3zm0 .4h-.9v.3h.8c.1 0 .2-.1.2-.2zM92.6 124.3c0 .6-.2.8-.8.8H88c-.6 0-.8-.2-.8-.8v-3.9c0-.6.3-.8.8-.8h3.8c.6 0 .8.2.8.8zm-3.1-2.3v-1.8h-1.4c-.3 0-.3.2-.3.3v1.5zm0 .6h-1.7v1.6q0 .3.3.3h1.4zm.7-.6h1.7v-1.5q0-.3-.3-.3h-1.4zm0 .6v1.9h1.4q.3 0 .3-.3v-1.6zM96.6 124.9c0 .1 0 .3-.3.3s-.4-.1-.4-.3v-3.1h-1.2q-.3 0-.3.3v2.3c0 .1 0 .3-.3.3s-.3-.2-.3-.3v-2.5c0-.6.2-.8.7-.8h1.4v-.7h-2.3c-.1 0-.3 0-.3-.3s.2-.3.3-.3h2.3v-.3q0-.3.3-.3c.2 0 .4.1.4.3v.4h2.3c.1 0 .3 0 .3.3q0 .3-.3.3h-2.3v.7H98c.5 0 .8.2.8.8v2c0 .7-.4.7-1 .7-.5 0-.7 0-.7-.4 0-.3.2-.3.4-.3h.4c.2 0 .2-.1.2-.3v-1.6q0-.3-.3-.3h-1.2z" class="st10"/><path d="M85.1 121.2h1.5c.1 0 .3 0 .3.2s-.2.2-.3.2h-1.5v.3h.9c.5 0 .7.1.7.7v.5c0 .5-.1.7-.7.7h-.9v.3h1.5c.1 0 .3 0 .3.3 0 .2-.2.3-.3.3h-1.5v.2c0 .1-.1.3-.3.3q-.3 0-.3-.3v-.4H83c-.1 0-.3 0-.3-.3 0-.2.2-.3.3-.3h1.5v-.3h-.9c-.5 0-.7-.1-.7-.7v-.5c0-.5.1-.7.7-.7h.9v-.3H83c-.1 0-.3 0-.3-.2s.2-.2.3-.2h1.5v-.1c0-.2.2-.2.3-.2v-.2h-1.5v.1c0 .1-.1.3-.3.3q-.3 0-.3-.3v-.1h-1.3c-.1 0-.3 0-.3-.3q0-.3.3-.3h1.3v-.1q0-.3.3-.3c.2 0 .4.1.4.3v.1h1.5v-.1c0-.1.1-.3.3-.3q.3 0 .3.3v.1h1.2c.1 0 .3 0 .3.3q0 .3-.3.3h-1.2c0 .2 0 .4-.3.4-.1.2-.1.2-.1.3m1.5 3.8c.1 0 .3 0 .3.3q0 .3-.3.3h-3c-.1 0-.5 0-.8-.1-.4-.1-.5-.4-.6-.5-.1.2-.6.7-.8.7s-.3-.2-.3-.4.1-.2.2-.3c.3-.2.4-.2.5-.4v-1.1c0-.1-.1-.2-.2-.2h-.3c-.1 0-.3 0-.3-.3s.1-.3.3-.3h.4c.5 0 .7.1.7.7v.8c0 .1.1.4.5.6.2.1.5.2.8.2zm-4.7-3.7c.1.1.4.3.5.4s.1.1.1.2c0 .2-.2.3-.3.3s-.2-.1-.4-.2-.3-.3-.5-.4c-.1-.1-.2-.1-.2-.2s.1-.3.3-.3c.1-.1.3.1.5.2m1.6 1.4h.9v-.3h-.8c-.1 0-.2.1-.2.2zm.9.7v-.3h-.9v.1c0 .1.1.2.2.2zm1.6-.7v-.2c0-.1 0-.2-.2-.2H85v.3zm0 .3h-.9v.3h.8c.1 0 .2-.1.2-.2zM93 124.7c0 .6-.2.8-.8.8h-3.8c-.6 0-.8-.2-.8-.8v-3.9c0-.6.3-.8.8-.8h3.8c.6 0 .8.2.8.8zm-3-2.3v-1.8h-1.4c-.3 0-.3.2-.3.3v1.5zm0 .6h-1.7v1.6q0 .3.3.3H90zm.6-.6h1.7v-1.5q0-.3-.3-.3h-1.4zm0 .6v1.9H92q.3 0 .3-.3V123zM97 125.4c0 .1 0 .3-.3.3s-.4-.1-.4-.3v-3.1h-1.2q-.3 0-.3.3v2.3c0 .1 0 .3-.3.3s-.3-.2-.3-.3v-2.4c0-.6.2-.8.7-.8h1.4v-.7H94c-.1 0-.3 0-.3-.3s.2-.3.3-.3h2.3v-.4q0-.3.3-.3c.2 0 .4.1.4.3v.4h2.3c.1 0 .3 0 .3.3q0 .3-.3.3H97v.7h1.4c.5 0 .8.2.8.8v2c0 .7-.4.7-1 .7-.5 0-.7 0-.7-.4 0-.3.2-.3.4-.3h.4c.2 0 .2-.1.2-.3v-1.6q0-.3-.3-.3H97z" class="st11"/><path d="M84.6 120.8h1.5c.1 0 .3 0 .3.2s-.2.2-.3.2h-1.5v.3h.9c.5 0 .7.1.7.7v.5c0 .5-.1.7-.7.7h-.9v.3h1.5c.1 0 .3 0 .3.3 0 .2-.2.3-.3.3h-1.5v.2c0 .1-.1.3-.3.3q-.3 0-.3-.3v-.2h-1.5c-.1 0-.3 0-.3-.3 0-.2.2-.3.3-.3H84v-.3h-.9c-.5 0-.7-.1-.7-.7v-.5c0-.5.1-.7.7-.7h.9v-.3h-1.5c-.1 0-.3 0-.3-.2s.2-.2.3-.2H84v-.1c0-.2.2-.2.3-.2v-.2h-1.5v.1c0 .1-.1.3-.3.3q-.3 0-.3-.3v-.1h-1.3c-.1 0-.3 0-.3-.3q0-.3.3-.3h1.3v-.2q0-.3.3-.3c.2 0 .4.1.4.3v.1h1.5v-.1c0-.1.1-.3.3-.3q.3 0 .3.3v.1h1.2c.1 0 .3 0 .3.3q0 .3-.3.3H85c0 .2 0 .4-.3.4-.1 0-.1 0-.1.2m1.5 3.7c.1 0 .3 0 .3.3q0 .3-.3.3h-3c-.1 0-.5 0-.8-.1-.4-.1-.5-.4-.6-.5-.1.2-.6.7-.8.7s-.3-.2-.3-.4.1-.2.2-.3c.3-.2.4-.2.5-.4V123c0-.1-.1-.2-.2-.2h-.3c-.1 0-.3 0-.3-.3s.1-.3.3-.3h.4c.5 0 .7.1.7.7v.8c0 .1.1.4.5.6.2.1.5.2.8.2zm-4.7-3.6c.1.1.4.3.5.4s.1.1.1.2c0 .2-.2.3-.3.3s-.2-.1-.4-.2-.3-.3-.5-.4c-.1-.1-.2-.1-.2-.2s.1-.3.3-.3c.2-.1.3 0 .5.2m1.7 1.3h.9v-.3h-.8c-.1 0-.2.1-.2.2zm.9.7v-.3h-.9v.1c0 .1.1.2.2.2zm1.5-.7c0-.2 0-.3-.2-.3h-.8v.3zm0 .4h-.9v.3h.8c.1 0 .2-.1.2-.2zM92.6 124.3c0 .6-.2.8-.8.8H88c-.6 0-.8-.2-.8-.8v-3.9c0-.6.3-.8.8-.8h3.8c.6 0 .8.2.8.8zm-3.1-2.3v-1.8h-1.4c-.3 0-.3.2-.3.3v1.5zm0 .6h-1.7v1.6q0 .3.3.3h1.4zm.7-.6h1.7v-1.5q0-.3-.3-.3h-1.4zm0 .6v1.9h1.4q.3 0 .3-.3v-1.6zM96.6 124.9c0 .1 0 .3-.3.3s-.4-.1-.4-.3v-3.1h-1.2q-.3 0-.3.3v2.3c0 .1 0 .3-.3.3s-.3-.2-.3-.3v-2.5c0-.6.2-.8.7-.8h1.4v-.7h-2.3c-.1 0-.3 0-.3-.3s.2-.3.3-.3h2.3v-.3q0-.3.3-.3c.2 0 .4.1.4.3v.4h2.3c.1 0 .3 0 .3.3q0 .3-.3.3h-2.3v.7H98c.5 0 .8.2.8.8v2c0 .7-.4.7-1 .7-.5 0-.7 0-.7-.4 0-.3.2-.3.4-.3h.4c.2 0 .2-.1.2-.3v-1.6q0-.3-.3-.3h-1.2z" class="st12"/><path d="M85.5 105.3c.6 0 .8.2.8.8v3.3c0 .6-.3.8-.8.8H82c-.6 0-.8-.2-.8-.8v-3.3c0-.6.3-.8.8-.8h1c0-.1.2-.6.2-.7.1-.1.1-.2.3-.2s.4.1.4.3c0 .1-.2.5-.2.6zm-3.7 2.2h3.8v-1.2q0-.3-.3-.3h-3.2q-.3 0-.3.3zm0 .6v1.3q0 .3.3.3h3.2q.3 0 .3-.3v-1.3zM88 110.2c0 .1 0 .3-.3.3s-.3-.2-.3-.3v-4.6c0-.7.3-.8.8-.8H92c.6 0 .8.2.8.8v4.1c0 .8-.4.8-1.1.8-.4 0-.4 0-.5-.1s-.1-.2-.1-.3c0-.3.2-.3.4-.3h.5c.2 0 .2-.1.2-.3v-3.8q0-.3-.3-.3h-3.6c-.3 0-.3.2-.3.3zm2.4-1.2h.5c.1 0 .2-.1.2-.2v-1.1c0-.1 0-.3.3-.3q.3 0 .3.3v1.2c0 .5-.2.7-.7.7h-1.8c-.5 0-.7-.2-.7-.7v-1.2c0-.1 0-.3.3-.3s.3.1.3.3v1.1c0 .1 0 .2.2.2h.5v-1.9h-1.3c-.1 0-.3 0-.3-.3q0-.3.3-.3h.6c-.1-.2-.1-.3-.2-.5 0-.1-.1-.1-.1-.2 0-.2.2-.2.4-.2s.2.1.3.2.2.5.3.8h.7c.1-.1.1-.3.3-.7 0-.1.1-.2.3-.2s.4.1.4.3c0 .1-.2.5-.3.7h.7c.1 0 .3 0 .3.3s-.2.3-.3.3h-1.3v1.7zM96.8 110.2c0 .1 0 .3-.3.3s-.4-.1-.4-.3v-3.1H95q-.3 0-.3.3v2.3c0 .1 0 .3-.3.3s-.3-.2-.3-.3v-2.5c0-.6.2-.8.7-.8h1.4v-.7h-2.3c-.1 0-.3 0-.3-.3s.2-.3.3-.3h2.3v-.4q0-.3.3-.3c.2 0 .4.1.4.3v.4h2.3c.1 0 .3 0 .3.3q0 .3-.3.3h-2.3v.7h1.4c.5 0 .8.2.8.8v2c0 .7-.4.7-1 .7-.5 0-.7 0-.7-.4 0-.3.2-.3.4-.3h.4c.2 0 .2-.1.2-.3v-1.6q0-.3-.3-.3h-1.2z" class="st10"/><path d="M85.9 105.8c.6 0 .8.2.8.8v3.3c0 .6-.3.8-.8.8h-3.5c-.6 0-.8-.2-.8-.8v-3.3c0-.6.3-.8.8-.8h1.1c0-.1.2-.6.2-.7.1-.1.1-.2.3-.2s.4.1.4.3c0 .1-.2.5-.2.6zm-3.6 2.1h3.8v-1.2q0-.3-.3-.3h-3.2q-.3 0-.3.3zm0 .6v1.3q0 .3.3.3h3.2q.3 0 .3-.3v-1.3zM88.4 110.6c0 .1 0 .3-.3.3s-.3-.2-.3-.3V106c0-.7.3-.8.8-.8h3.8c.6 0 .8.2.8.8v4.1c0 .8-.4.8-1.1.8-.4 0-.4 0-.5-.1s-.1-.2-.1-.3c0-.3.2-.3.4-.3h.5c.2 0 .2-.1.2-.3v-3.8q0-.3-.3-.3h-3.6c-.3 0-.3.2-.3.3zm2.4-1.2h.5c.1 0 .2-.1.2-.2v-1.1c0-.1 0-.3.3-.3q.3 0 .3.3v1.2c0 .5-.2.7-.7.7h-1.8c-.5 0-.7-.2-.7-.7v-1.2c0-.1 0-.3.3-.3s.3.1.3.3v1.1c0 .1 0 .2.2.2h.5v-1.9h-1.3c-.1 0-.3 0-.3-.3q0-.3.3-.3h.6c-.1-.2-.1-.3-.2-.5 0-.1-.1-.1-.1-.2 0-.2.2-.2.4-.2s.2.1.3.2.2.5.3.8h.7c.1-.1.1-.3.3-.7 0-.1.1-.2.3-.2s.4.1.4.3c0 .1-.2.5-.3.7h.7c.1 0 .3 0 .3.3s-.2.3-.3.3H91v1.7zM97.3 110.6c0 .1 0 .3-.3.3s-.4-.1-.4-.3v-3.1h-1.2q-.3 0-.3.3v2.3c0 .1 0 .3-.3.3s-.3-.2-.3-.3v-2.5c0-.6.2-.8.7-.8h1.4v-.7h-2.3c-.1 0-.3 0-.3-.3s.2-.3.3-.3h2.3v-.4q0-.3.3-.3c.2 0 .4.1.4.3v.4h2.3c.1 0 .3 0 .3.3q0 .3-.3.3h-2.3v.7h1.4c.5 0 .8.2.8.8v2c0 .7-.4.7-1 .7-.5 0-.7 0-.7-.4 0-.3.2-.3.4-.3h.4c.2 0 .2-.1.2-.3v-1.6q0-.3-.3-.3h-1.2z" class="st11"/><path d="M85.5 105.3c.6 0 .8.2.8.8v3.3c0 .6-.3.8-.8.8H82c-.6 0-.8-.2-.8-.8v-3.3c0-.6.3-.8.8-.8h1c0-.1.2-.6.2-.7.1-.1.1-.2.3-.2s.4.1.4.3c0 .1-.2.5-.2.6zm-3.7 2.2h3.8v-1.2q0-.3-.3-.3h-3.2q-.3 0-.3.3zm0 .6v1.3q0 .3.3.3h3.2q.3 0 .3-.3v-1.3zM88 110.2c0 .1 0 .3-.3.3s-.3-.2-.3-.3v-4.6c0-.7.3-.8.8-.8H92c.6 0 .8.2.8.8v4.1c0 .8-.4.8-1.1.8-.4 0-.4 0-.5-.1s-.1-.2-.1-.3c0-.3.2-.3.4-.3h.5c.2 0 .2-.1.2-.3v-3.8q0-.3-.3-.3h-3.6c-.3 0-.3.2-.3.3zm2.4-1.2h.5c.1 0 .2-.1.2-.2v-1.1c0-.1 0-.3.3-.3q.3 0 .3.3v1.2c0 .5-.2.7-.7.7h-1.8c-.5 0-.7-.2-.7-.7v-1.2c0-.1 0-.3.3-.3s.3.1.3.3v1.1c0 .1 0 .2.2.2h.5v-1.9h-1.3c-.1 0-.3 0-.3-.3q0-.3.3-.3h.6c-.1-.2-.1-.3-.2-.5 0-.1-.1-.1-.1-.2 0-.2.2-.2.4-.2s.2.1.3.2.2.5.3.8h.7c.1-.1.1-.3.3-.7 0-.1.1-.2.3-.2s.4.1.4.3c0 .1-.2.5-.3.7h.7c.1 0 .3 0 .3.3s-.2.3-.3.3h-1.3v1.7zM96.8 110.2c0 .1 0 .3-.3.3s-.4-.1-.4-.3v-3.1H95q-.3 0-.3.3v2.3c0 .1 0 .3-.3.3s-.3-.2-.3-.3v-2.5c0-.6.2-.8.7-.8h1.4v-.7h-2.3c-.1 0-.3 0-.3-.3s.2-.3.3-.3h2.3v-.4q0-.3.3-.3c.2 0 .4.1.4.3v.4h2.3c.1 0 .3 0 .3.3q0 .3-.3.3h-2.3v.7h1.4c.5 0 .8.2.8.8v2c0 .7-.4.7-1 .7-.5 0-.7 0-.7-.4 0-.3.2-.3.4-.3h.4c.2 0 .2-.1.2-.3v-1.6q0-.3-.3-.3h-1.2z" class="st12"/><path d="M70.7 145.4c0-.3.3-.3.4-.3.2 0 .3.1.4.3.1.4.1.5.2.6.2 0 .6 0 1.1-.1.2 0 .5-.1.6-.1.3 0 .3.3.3.4 0 .2-.1.2-.2.3-.2.1-.4.1-1.5.1.3.5.6 1 .9 1.3s.3.4.3.5c0 .2-.2.3-.4.3-.1 0-.1 0-.4-.2-.1 0-.5-.2-.8-.3-.4-.1-.7-.1-1-.1-1 0-1.4.5-1.4.9 0 .8 1.2.8 1.8.8.3 0 .9 0 1.4-.1s.5-.1.6-.1c.2 0 .3.2.3.3q0 .3-.3.3c-.4.1-1.4.2-2 .2s-1.3-.1-1.8-.4c-.5-.2-.7-.7-.7-1.2 0-.8.6-1.5 2-1.5.7 0 1.2.2 1.5.2-.3-.4-.5-.7-.7-1.2H69c-.5 0-.7 0-.7-.3s.3-.3.4-.3h2.4000000000000004c-.3.3-.4-.1-.4-.3M75.4 145.7v.5c0 .3-.1.8-.1 1.3 0 .2 0 1.5.3 2.1.1.1.2.3.4.3.4 0 .6-.4.8-.9.1-.3.1-.4.3-.4s.4.1.4.3-.1.4-.3.9c-.2.4-.5.9-1.2.9-1.5 0-1.5-2.5-1.5-3.2s.1-1.7.1-1.8c.1-.2.2-.2.4-.2.1-.1.4-.1.4.2m3.9 4.1v-.9c0-.9-.1-1.9-.6-2.3-.1-.1-.3-.1-.5-.2-.2 0-.4 0-.4-.4 0-.1 0-.4.4-.4.1 0 .9 0 1.4.8.3.5.4 1.3.4 1.6.1.4.1 1 .1 1.4 0 .3 0 .6-.4.6-.4.2-.4-.1-.4-.2M81.4 146.7c-.3 0-.5 0-.5-.3s.1-.3.4-.3h.9c.1-.5.1-.6.1-.7.1-.2.2-.2.3-.2.3 0 .4.1.4.3 0 .1 0 .2-.1.6.8 0 1.1 0 1.8-.1h.5c.1 0 .4 0 .4.3s-.2.3-.4.3c-1.3.1-1.9.1-2.5.1-.2.8-.3 1.2-.6 2.2-.2.5-.5 1.4-.6 1.6-.1.1-.1.2-.3.2-.1 0-.4-.1-.4-.3 0-.1 0-.1.1-.4.2-.4.5-1.3.8-2.2l.3-1.2zm4.8 4c-.1 0-.5.1-1.1.1-1.5 0-2.2-.3-2.2-1 0-.3.1-.7.5-.7.1 0 .3.1.3.2s0 .1-.1.2c0 .1-.1.1-.1.2 0 .2.2.3.4.4.1 0 .4.1.8.1H86q.3 0 .3.3c.2 0 .1.1-.1.2m0-2.6c-.1 0-.2.1-.2.1h-1.7000000000000002c-.1 0-.6.1-.6.1-.3 0-.3-.3-.3-.3 0-.2.2-.3.6-.4s1-.1 1.3-.1c0 0 .7 0 .9.1.1.1.1.2.1.3 0 0-.1.1-.1.2M90.6 147.2c.2 0 1.7-.1 1.8-.1s.3 0 .3.3-.2.3-.5.3h-1.6v.9c.8.3 1.6.9 1.8 1 .3.2.3.4.3.4 0 .2-.2.4-.4.4s-.2-.1-.4-.3-.5-.4-.8-.6c-.2-.1-.4-.2-.5-.3 0 .6-.1 1.4-1.4 1.4-.9 0-1.8-.3-1.8-1.2 0-.7.6-1.2 1.7-1.2.3 0 .6 0 .7.1v-.7h-1.9c-.4 0-.6 0-.6-.3s.2-.3.3-.3h2.1v-.7h-1.9c-.4 0-.6 0-.6-.3s.2-.3.4-.3h2.1v-.5c0-.2.1-.3.4-.3.2 0 .4.1.4.3v.4h1.8c.1 0 .3 0 .3.3s-.2.3-.3.3c-.5 0-1.3 0-1.8.1zm-1.4 1.8c-.3 0-1.1 0-1.1.6 0 .4.5.6 1 .6s.7-.2.8-.5v-.6c-.1 0-.4-.1-.7-.1M96.8 150.7c0 .1 0 .3-.3.3s-.4-.1-.4-.3v-3.1h-1.2q-.3 0-.3.3v2.3c0 .1 0 .3-.3.3s-.3-.2-.3-.3v-2.5c0-.6.2-.8.7-.8h1.4v-.7h-2.3c-.1 0-.3 0-.3-.3s.2-.3.3-.3h2.3v-.4q0-.3.3-.3c.2 0 .4.1.4.3v.4h2.3c.1 0 .3 0 .3.3q0 .3-.3.3h-2.3v.7h1.4c.5 0 .8.2.8.8v2c0 .7-.4.7-1 .7-.5 0-.7 0-.7-.4 0-.3.2-.3.4-.3h.3c.2 0 .2-.1.2-.3v-1.6q0-.3-.3-.3h-1.2v3.2z" class="st10"/><path d="M71.2 145.9c0-.3.3-.3.4-.3.2 0 .3.1.4.3.1.4.1.5.2.6.2 0 .6 0 1.1-.1.2 0 .5-.1.6-.1.3 0 .3.3.3.4 0 .2-.1.2-.2.3-.2.1-.4.1-1.5.1.3.5.6 1 .9 1.3s.3.4.3.5c0 .2-.2.3-.4.3-.1 0-.1 0-.4-.2-.1 0-.5-.2-.8-.3-.4-.1-.7-.1-1-.1-1 0-1.4.5-1.4.9 0 .8 1.2.8 1.8.8.3 0 .9 0 1.4-.1s.5-.1.6-.1c.2 0 .3.2.3.3q0 .3-.3.3c-.4.1-1.4.2-2 .2s-1.3-.1-1.8-.4c-.5-.2-.7-.7-.7-1.2 0-.8.6-1.5 2-1.5.7 0 1.2.2 1.5.2-.3-.4-.5-.7-.7-1.2h-2.3c-.5 0-.7 0-.7-.3s.3-.3.4-.3h2.4000000000000004c-.3.2-.4-.2-.4-.3M75.8 146.2v.5c0 .3-.1.8-.1 1.3 0 .2 0 1.5.3 2.1.1.1.2.3.4.3.4 0 .6-.4.8-.9.1-.3.1-.4.3-.4s.4.1.4.3-.1.4-.3.9c-.2.4-.5.9-1.2.9-1.5 0-1.5-2.5-1.5-3.2s.1-1.7.1-1.8c.1-.2.2-.2.4-.2.1-.1.4-.1.4.2m4 4.1v-.9c0-.9-.1-1.9-.6-2.3-.1-.1-.3-.1-.5-.2-.2 0-.4 0-.4-.4 0-.1 0-.4.4-.4.1 0 .9 0 1.4.8.3.5.4 1.3.4 1.6.1.4.1 1 .1 1.4 0 .3 0 .6-.4.6-.4.2-.4-.1-.4-.2M81.9 147.2c-.3 0-.5 0-.5-.3s.1-.3.4-.3h.9c.1-.5.1-.6.1-.7.1-.2.2-.2.3-.2.3 0 .4.1.4.3 0 .1 0 .2-.1.6.8 0 1.1 0 1.8-.1h.5c.1 0 .4 0 .4.3s-.2.3-.4.3c-1.3.1-1.9.1-2.5.1-.2.8-.3 1.2-.6 2.2-.2.5-.5 1.4-.6 1.6-.1.1-.1.2-.3.2-.1 0-.4-.1-.4-.3 0-.1 0-.1.1-.4.2-.4.5-1.3.8-2.2l.3-1.2zm4.7 3.9c-.1 0-.5.1-1.1.1-1.5 0-2.2-.3-2.2-1 0-.3.1-.7.5-.7.1 0 .3.1.3.2s0 .1-.1.2c0 .1-.1.1-.1.2 0 .2.2.3.4.4.1 0 .4.1.8.1h1.3q.3 0 .3.3c.2.1.1.2-.1.2m0-2.6c-.1 0-.2.1-.2.1h-1.7000000000000002c-.1 0-.6.1-.6.1-.3 0-.3-.3-.3-.3 0-.2.2-.3.6-.4s1-.1 1.3-.1c0 0 .7 0 .9.1.1.1.1.2.1.3 0 0 0 .2-.1.2M91 147.7c.2 0 1.7-.1 1.8-.1s.3 0 .3.3-.2.3-.5.3H91v.9c.8.3 1.6.9 1.8 1 .3.2.3.4.3.4 0 .2-.2.4-.4.4s-.2-.1-.4-.3-.5-.4-.8-.6c-.2-.1-.4-.2-.5-.3 0 .6-.1 1.4-1.4 1.4-.9 0-1.8-.3-1.8-1.2 0-.7.6-1.2 1.7-1.2.3 0 .6 0 .7.1v-.7h-1.9c-.4 0-.6 0-.6-.3s.2-.3.3-.3h2.1v-.7h-1.9c-.4 0-.6 0-.6-.3s.2-.3.4-.3h2.1v-.5c0-.2.1-.3.4-.3.2 0 .4.1.4.3v.4h1.8c.1 0 .3 0 .3.3s-.2.3-.3.3c-.5 0-1.3 0-1.8.1zm-1.4 1.8c-.3 0-1.1 0-1.1.6 0 .4.5.6 1 .6s.7-.2.8-.5v-.6c-.1-.1-.3-.1-.7-.1M97.2 151.2c0 .1 0 .3-.3.3s-.4-.1-.4-.3v-3.1h-1.2q-.3 0-.3.3v2.3c0 .1 0 .3-.3.3s-.3-.2-.3-.3v-2.5c0-.6.2-.8.7-.8h1.4v-.7h-2.3c-.1 0-.3 0-.3-.3s.2-.3.3-.3h2.3v-.4q0-.3.3-.3c.2 0 .4.1.4.3v.4h2.3c.1 0 .3 0 .3.3q0 .3-.3.3h-2.3v.7h1.4c.5 0 .8.2.8.8v2c0 .7-.4.7-1 .7-.5 0-.7 0-.7-.4 0-.3.2-.3.4-.3h.4c.2 0 .2-.1.2-.3v-1.6q0-.3-.3-.3h-1.2z" class="st11"/><path d="M70.7 145.4c0-.3.3-.3.4-.3.2 0 .3.1.4.3.1.4.1.5.2.6.2 0 .6 0 1.1-.1.2 0 .5-.1.6-.1.3 0 .3.3.3.4 0 .2-.1.2-.2.3-.2.1-.4.1-1.5.1.3.5.6 1 .9 1.3s.3.4.3.5c0 .2-.2.3-.4.3-.1 0-.1 0-.4-.2-.1 0-.5-.2-.8-.3-.4-.1-.7-.1-1-.1-1 0-1.4.5-1.4.9 0 .8 1.2.8 1.8.8.3 0 .9 0 1.4-.1s.5-.1.6-.1c.2 0 .3.2.3.3q0 .3-.3.3c-.4.1-1.4.2-2 .2s-1.3-.1-1.8-.4c-.5-.2-.7-.7-.7-1.2 0-.8.6-1.5 2-1.5.7 0 1.2.2 1.5.2-.3-.4-.5-.7-.7-1.2H69c-.5 0-.7 0-.7-.3s.3-.3.4-.3h2.4000000000000004c-.3.3-.4-.1-.4-.3M75.4 145.7v.5c0 .3-.1.8-.1 1.3 0 .2 0 1.5.3 2.1.1.1.2.3.4.3.4 0 .6-.4.8-.9.1-.3.1-.4.3-.4s.4.1.4.3-.1.4-.3.9c-.2.4-.5.9-1.2.9-1.5 0-1.5-2.5-1.5-3.2s.1-1.7.1-1.8c.1-.2.2-.2.4-.2.1-.1.4-.1.4.2m3.9 4.1v-.9c0-.9-.1-1.9-.6-2.3-.1-.1-.3-.1-.5-.2-.2 0-.4 0-.4-.4 0-.1 0-.4.4-.4.1 0 .9 0 1.4.8.3.5.4 1.3.4 1.6.1.4.1 1 .1 1.4 0 .3 0 .6-.4.6-.4.2-.4-.1-.4-.2M81.4 146.7c-.3 0-.5 0-.5-.3s.1-.3.4-.3h.9c.1-.5.1-.6.1-.7.1-.2.2-.2.3-.2.3 0 .4.1.4.3 0 .1 0 .2-.1.6.8 0 1.1 0 1.8-.1h.5c.1 0 .4 0 .4.3s-.2.3-.4.3c-1.3.1-1.9.1-2.5.1-.2.8-.3 1.2-.6 2.2-.2.5-.5 1.4-.6 1.6-.1.1-.1.2-.3.2-.1 0-.4-.1-.4-.3 0-.1 0-.1.1-.4.2-.4.5-1.3.8-2.2l.3-1.2zm4.8 4c-.1 0-.5.1-1.1.1-1.5 0-2.2-.3-2.2-1 0-.3.1-.7.5-.7.1 0 .3.1.3.2s0 .1-.1.2c0 .1-.1.1-.1.2 0 .2.2.3.4.4.1 0 .4.1.8.1H86q.3 0 .3.3c.2 0 .1.1-.1.2m0-2.6c-.1 0-.2.1-.2.1h-1.7000000000000002c-.1 0-.6.1-.6.1-.3 0-.3-.3-.3-.3 0-.2.2-.3.6-.4s1-.1 1.3-.1c0 0 .7 0 .9.1.1.1.1.2.1.3 0 0-.1.1-.1.2M90.6 147.2c.2 0 1.7-.1 1.8-.1s.3 0 .3.3-.2.3-.5.3h-1.6v.9c.8.3 1.6.9 1.8 1 .3.2.3.4.3.4 0 .2-.2.4-.4.4s-.2-.1-.4-.3-.5-.4-.8-.6c-.2-.1-.4-.2-.5-.3 0 .6-.1 1.4-1.4 1.4-.9 0-1.8-.3-1.8-1.2 0-.7.6-1.2 1.7-1.2.3 0 .6 0 .7.1v-.7h-1.9c-.4 0-.6 0-.6-.3s.2-.3.3-.3h2.1v-.7h-1.9c-.4 0-.6 0-.6-.3s.2-.3.4-.3h2.1v-.5c0-.2.1-.3.4-.3.2 0 .4.1.4.3v.4h1.8c.1 0 .3 0 .3.3s-.2.3-.3.3c-.5 0-1.3 0-1.8.1zm-1.4 1.8c-.3 0-1.1 0-1.1.6 0 .4.5.6 1 .6s.7-.2.8-.5v-.6c-.1 0-.4-.1-.7-.1M96.8 150.7c0 .1 0 .3-.3.3s-.4-.1-.4-.3v-3.1h-1.2q-.3 0-.3.3v2.3c0 .1 0 .3-.3.3s-.3-.2-.3-.3v-2.5c0-.6.2-.8.7-.8h1.4v-.7h-2.3c-.1 0-.3 0-.3-.3s.2-.3.3-.3h2.3v-.4q0-.3.3-.3c.2 0 .4.1.4.3v.4h2.3c.1 0 .3 0 .3.3q0 .3-.3.3h-2.3v.7h1.4c.5 0 .8.2.8.8v2c0 .7-.4.7-1 .7-.5 0-.7 0-.7-.4 0-.3.2-.3.4-.3h.3c.2 0 .2-.1.2-.3v-1.6q0-.3-.3-.3h-1.2v3.2z" class="st12"/><path d="M119 122.1c.1 0 .3 0 .3.3 0 .2-.2.3-.3.3h-2.6c-.1.2-.1.3-.1.3h2.4c.1 0 .3 0 .3.2s-.1.2-.3.2h-1.2c.1.2.2.3.2.4h1.4c.2 0 .3 0 .3.3q0 .3-.3.3h-.9c.2.2.2.2.9.6q.3.15.3.3c0 .2-.1.4-.3.4s-.5-.2-.7-.4v1.5c0 .5-.2.6-.6.6h-2.6c-.5 0-.6-.2-.6-.6v-1.4000000000000001c-.2.1-.5.4-.7.4s-.3-.2-.3-.4q0-.15.3-.3c.6-.4.7-.4.9-.6h-.9c-.1 0-.3 0-.3-.3q0-.3.3-.3h1.3c.1-.2.2-.3.3-.4h-1.2c-.1 0-.3 0-.3-.2s.1-.2.3-.2h1.4c0-.1.1-.2.1-.3H114c-.1 0-.3 0-.3-.3 0-.2.2-.3.3-.3h2c.1-.3.1-.5.4-.5.1 0 .3 0 .3.3v.2zm-1.2 2.8c-.1-.2-.2-.3-.3-.4h-1.9l-.4.4zm-.1 1v-.4c0-.1-.1-.2-.2-.2h-2.2c-.2 0-.2.1-.2.2v.4zm0 .5h-2.6v.4c0 .1 0 .2.2.2h2.2c.1 0 .2 0 .2-.2zm-.6-2.5c0-.1-.1-.2-.2-.4h-.7c0 .1-.1.2-.2.4zM125.3 126.7c0 .6-.3.8-.8.8h-3.1c-.6 0-.8-.2-.8-.8v-3.8c0-.6.2-.8.8-.8h3.1c.6 0 .8.2.8.8zm-.8-2.3V123q0-.3-.3-.3h-2.7q-.3 0-.3.3v1.4zm-3.3.6v1.5q0 .3.3.3h2.7q.3 0 .3-.3V125zM127.6 122.3v-.4q0-.3.3-.3c.3 0 .3.1.3.3v.4h1c.1 0 .3 0 .3.3s-.3.3-.3.3h-.1c-.1.4-.1.6-.3 1.1h.6c.1 0 .3 0 .3.3s-.2.3-.3.3h-2.9c-.1 0-.3 0-.3-.3s.2-.3.3-.3h.5c0-.2 0-.5-.2-1.1h-.1c-.1 0-.3 0-.3-.3s.3-.3.3-.3zm1 2.9c.6 0 .7.1.7.7v.9c0 .6-.1.7-.7.7h-1.3c-.6 0-.7-.1-.7-.7v-.9c0-.6.1-.7.7-.7zm.1.8c0-.2-.1-.2-.2-.2h-1c-.1 0-.2.1-.2.2v.8c0 .2.1.2.2.2h1c.1 0 .2 0 .2-.2zm-1.3-3.1c.2.8.2.9.2 1.1h.6c.1-.4.2-.9.2-1.1zm3 4.5c0 .1 0 .3-.3.3q-.3 0-.3-.3v-4.9c0-.5.1-.7.7-.7h.9c.3 0 .7 0 .7.5 0 .2 0 .3-.4 1.2 0 0-.2.4-.2.5v.1s0 .1.1.1c.3.3.4.4.5.7.2.3.3.6.3 1s-.1.9-.6 1.1c-.2.1-.3.1-.6.1s-.5 0-.5-.3q0-.3.3-.3h.3c.2 0 .4-.2.4-.6 0-.5-.3-.9-.4-1.1-.4-.4-.4-.4-.4-.6 0-.1 0-.2.2-.6.2-.3.4-.9.4-1s-.1-.1-.2-.1h-.6c-.1 0-.2.1-.2.2zM136 127.4c0 .1 0 .3-.3.3s-.4-.1-.4-.3v-3.1h-1.2q-.3 0-.3.3v2.3c0 .1 0 .3-.3.3s-.3-.2-.3-.3v-2.5c0-.6.2-.8.7-.8h1.4v-.7H133c-.1 0-.3 0-.3-.3s.2-.3.3-.3h2.3v-.4q0-.3.3-.3c.3 0 .4.1.4.3v.4h2.3c.1 0 .3 0 .3.3q0 .3-.3.3H136v.7h1.4c.5 0 .8.2.8.8v2c0 .7-.4.7-1 .7-.5 0-.7 0-.7-.4 0-.3.2-.3.4-.3h.4c.2 0 .2-.1.2-.3v-1.6q0-.3-.3-.3H136z" class="st10"/><path d="M119.5 122.6c.1 0 .3 0 .3.3 0 .2-.2.3-.3.3h-2.6c-.1.2-.1.3-.1.3h2.4c.1 0 .3 0 .3.2s-.1.2-.3.2H118c.1.2.2.3.2.4h1.4c.2 0 .3 0 .3.3q0 .3-.3.3h-.9c.2.2.2.2.9.6q.3.15.3.3c0 .2-.1.4-.3.4s-.5-.2-.7-.4v1.5c0 .5-.2.6-.6.6h-2.6c-.5 0-.6-.2-.6-.6v-1.5c-.2.1-.5.4-.7.4s-.3-.2-.3-.4q0-.15.3-.3c.6-.4.7-.4.9-.6h-.9c-.1 0-.3 0-.3-.3q0-.3.3-.3h1.3c.1-.2.2-.3.3-.4h-1.2c-.1 0-.3 0-.3-.2s.1-.2.3-.2h1.4c0-.1.1-.2.1-.3h-1.8c-.1 0-.3 0-.3-.3 0-.2.2-.3.3-.3h2c.1-.3.1-.5.4-.5.1 0 .3 0 .3.3v.2zm-1.3 2.7c-.1-.2-.2-.3-.3-.4H116l-.4.4zm0 1.1v-.4c0-.1-.1-.2-.2-.2h-2.2c-.2 0-.2.1-.2.2v.4zm0 .5h-2.6v.4c0 .1 0 .2.2.2h2.2c.1 0 .2 0 .2-.2zm-.7-2.6c0-.1-.1-.2-.2-.4h-.7c0 .1-.1.2-.2.4zM125.7 127.1c0 .6-.3.8-.8.8h-3.1c-.6 0-.8-.2-.8-.8v-3.8c0-.6.2-.8.8-.8h3.1c.6 0 .8.2.8.8zm-.7-2.3v-1.4q0-.3-.3-.3H122q-.3 0-.3.3v1.4zm-3.4.7v1.5q0 .3.3.3h2.7q.3 0 .3-.3v-1.5zM128.1 122.8v-.4q0-.3.3-.3c.3 0 .3.1.3.3v.4h1c.1 0 .3 0 .3.3s-.3.3-.3.3h-.1c-.1.4-.1.6-.3 1.1h.6c.1 0 .3 0 .3.3s-.2.3-.3.3H127c-.1 0-.3 0-.3-.3s.2-.3.3-.3h.5c0-.2 0-.5-.2-1.1h-.1c-.1 0-.3 0-.3-.3s.3-.3.3-.3zm1 2.8c.6 0 .7.1.7.7v.9c0 .6-.1.7-.7.7h-1.3c-.6 0-.7-.1-.7-.7v-.9c0-.6.1-.7.7-.7zm.1.8c0-.2-.1-.2-.2-.2h-1c-.1 0-.2.1-.2.2v.8c0 .2.1.2.2.2h1c.1 0 .2 0 .2-.2zm-1.3-3c.2.8.2.9.2 1.1h.6c.1-.4.2-.9.2-1.1zm3 4.4c0 .1 0 .3-.3.3q-.3 0-.3-.3v-4.9c0-.5.1-.7.7-.7h.9c.3 0 .7 0 .7.5 0 .2 0 .3-.4 1.2 0 0-.2.4-.2.5v.1s0 .1.1.1c.3.3.4.4.5.7.2.3.3.6.3 1s-.1.9-.6 1.1c-.2.1-.3.1-.6.1s-.5 0-.5-.3q0-.3.3-.3h.3c.2 0 .4-.2.4-.6 0-.5-.3-.9-.4-1.1-.4-.4-.4-.4-.4-.6 0-.1 0-.2.2-.6.2-.3.4-.9.4-1s-.1-.1-.2-.1h-.6c-.1 0-.2.1-.2.2zM136.4 127.8c0 .1 0 .3-.3.3s-.4-.1-.4-.3v-3.1h-1.2q-.3 0-.3.3v2.3c0 .1 0 .3-.3.3s-.3-.2-.3-.3v-2.5c0-.6.2-.8.7-.8h1.4v-.5h-2.3c-.1 0-.3 0-.3-.3s.2-.3.3-.3h2.3v-.4q0-.3.3-.3c.3 0 .4.1.4.3v.4h2.3c.1 0 .3 0 .3.3q0 .3-.3.3h-2.3v.7h1.4c.5 0 .8.2.8.8v2c0 .7-.4.7-1 .7-.5 0-.7 0-.7-.4 0-.3.2-.3.4-.3h.4c.2 0 .2-.1.2-.3v-1.6q0-.3-.3-.3h-1.2z" class="st11"/><path d="M119 122.1c.1 0 .3 0 .3.3 0 .2-.2.3-.3.3h-2.6c-.1.2-.1.3-.1.3h2.4c.1 0 .3 0 .3.2s-.1.2-.3.2h-1.2c.1.2.2.3.2.4h1.4c.2 0 .3 0 .3.3q0 .3-.3.3h-.9c.2.2.2.2.9.6q.3.15.3.3c0 .2-.1.4-.3.4s-.5-.2-.7-.4v1.5c0 .5-.2.6-.6.6h-2.6c-.5 0-.6-.2-.6-.6v-1.4000000000000001c-.2.1-.5.4-.7.4s-.3-.2-.3-.4q0-.15.3-.3c.6-.4.7-.4.9-.6h-.9c-.1 0-.3 0-.3-.3q0-.3.3-.3h1.3c.1-.2.2-.3.3-.4h-1.2c-.1 0-.3 0-.3-.2s.1-.2.3-.2h1.4c0-.1.1-.2.1-.3H114c-.1 0-.3 0-.3-.3 0-.2.2-.3.3-.3h2c.1-.3.1-.5.4-.5.1 0 .3 0 .3.3v.2zm-1.2 2.8c-.1-.2-.2-.3-.3-.4h-1.9l-.4.4zm-.1 1v-.4c0-.1-.1-.2-.2-.2h-2.2c-.2 0-.2.1-.2.2v.4zm0 .5h-2.6v.4c0 .1 0 .2.2.2h2.2c.1 0 .2 0 .2-.2zm-.6-2.5c0-.1-.1-.2-.2-.4h-.7c0 .1-.1.2-.2.4zM125.3 126.7c0 .6-.3.8-.8.8h-3.1c-.6 0-.8-.2-.8-.8v-3.8c0-.6.2-.8.8-.8h3.1c.6 0 .8.2.8.8zm-.8-2.3V123q0-.3-.3-.3h-2.7q-.3 0-.3.3v1.4zm-3.3.6v1.5q0 .3.3.3h2.7q.3 0 .3-.3V125zM127.6 122.3v-.4q0-.3.3-.3c.3 0 .3.1.3.3v.4h1c.1 0 .3 0 .3.3s-.3.3-.3.3h-.1c-.1.4-.1.6-.3 1.1h.6c.1 0 .3 0 .3.3s-.2.3-.3.3h-2.9c-.1 0-.3 0-.3-.3s.2-.3.3-.3h.5c0-.2 0-.5-.2-1.1h-.1c-.1 0-.3 0-.3-.3s.3-.3.3-.3zm1 2.9c.6 0 .7.1.7.7v.9c0 .6-.1.7-.7.7h-1.3c-.6 0-.7-.1-.7-.7v-.9c0-.6.1-.7.7-.7zm.1.8c0-.2-.1-.2-.2-.2h-1c-.1 0-.2.1-.2.2v.8c0 .2.1.2.2.2h1c.1 0 .2 0 .2-.2zm-1.3-3.1c.2.8.2.9.2 1.1h.6c.1-.4.2-.9.2-1.1zm3 4.5c0 .1 0 .3-.3.3q-.3 0-.3-.3v-4.9c0-.5.1-.7.7-.7h.9c.3 0 .7 0 .7.5 0 .2 0 .3-.4 1.2 0 0-.2.4-.2.5v.1s0 .1.1.1c.3.3.4.4.5.7.2.3.3.6.3 1s-.1.9-.6 1.1c-.2.1-.3.1-.6.1s-.5 0-.5-.3q0-.3.3-.3h.3c.2 0 .4-.2.4-.6 0-.5-.3-.9-.4-1.1-.4-.4-.4-.4-.4-.6 0-.1 0-.2.2-.6.2-.3.4-.9.4-1s-.1-.1-.2-.1h-.6c-.1 0-.2.1-.2.2zM136 127.4c0 .1 0 .3-.3.3s-.4-.1-.4-.3v-3.1h-1.2q-.3 0-.3.3v2.3c0 .1 0 .3-.3.3s-.3-.2-.3-.3v-2.5c0-.6.2-.8.7-.8h1.4v-.7H133c-.1 0-.3 0-.3-.3s.2-.3.3-.3h2.3v-.4q0-.3.3-.3c.3 0 .4.1.4.3v.4h2.3c.1 0 .3 0 .3.3q0 .3-.3.3H136v.7h1.4c.5 0 .8.2.8.8v2c0 .7-.4.7-1 .7-.5 0-.7 0-.7-.4 0-.3.2-.3.4-.3h.4c.2 0 .2-.1.2-.3v-1.6q0-.3-.3-.3H136z" class="st12"/><path d="M142.3 114h.9c.1 0 .3 0 .3.3s-.2.3-.3.3h-.9v.7c.3 0 .4 0 .8-.1h.2q.3 0 .3.3c0 .3-.2.3-.6.4-.3 0-2.1.2-2.4.2q-.3 0-.3-.3c0-.3.2-.3.4-.3.3 0 .4 0 .9-.1v-.7h-.9c-.1 0-.3 0-.3-.3q0-.3.3-.3h.9v-.6h-.5c-.4 0-.6-.1-.6-.6v-1.6c0-.5.2-.6.6-.6h1.6c.4 0 .6.1.6.6v1.6c0 .5-.2.6-.6.6h-.5v.5zm-1.3-2.2h.6v-.6h-.4c-.1 0-.2.1-.2.2zm0 .5v.5c0 .1.1.2.2.2h.4v-.7zm1.9-.5v-.4c0-.1-.1-.2-.2-.2h-.4v.6zm0 .5h-.6v.7h.4c.1 0 .2-.1.2-.2zm1.9.4c-.3-.2-.6-.5-.7-.5-.2-.2-.3-.2-.3-.3 0-.2.2-.3.3-.3s.1 0 .2.1.2.1.4.3c.1-.1.5-.5.5-.6s-.1-.1-.1-.1h-1.3c-.1 0-.3 0-.3-.3s.2-.3.3-.3h1.6c.3 0 .6 0 .6.4q0 .3-.3.6c-.3.3-.3.3-.5.6.2.1.2.2.2.3v.1h.1c.3 0 .6 0 .6.5 0 .2-.1.6-.2.8-.2.6-.2.6-.4.6-.1 0-.3-.1-.3-.2s.3-.7.3-.9c0-.1-.1-.1-.2-.1h-.4v2.3c0 .7-.3.7-.9.7h-.5c-.2-.1-.2-.2-.2-.3 0-.3.2-.3.3-.3h.4c.2 0 .3 0 .3-.3v-2.1h-.7c-.1 0-.3 0-.3-.3s.2-.3.3-.3zM152.4 115.4c0 .6-.2.8-.8.8h-3.8c-.6 0-.8-.2-.8-.8v-3.9c0-.6.3-.8.8-.8h3.8c.6 0 .8.2.8.8zm-3.1-2.3v-1.8h-1.4c-.3 0-.3.2-.3.3v1.5zm0 .6h-1.7v1.6q0 .3.3.3h1.4zm.7-.6h1.7v-1.5q0-.3-.3-.3H150zm0 .6v1.9h1.4q.3 0 .3-.3v-1.6zM156.4 116.1c0 .1 0 .3-.3.3s-.4-.1-.4-.3V113h-1.2q-.3 0-.3.3v2.3c0 .1 0 .3-.3.3s-.3-.2-.3-.3v-2.5c0-.6.2-.8.7-.8h1.4v-.7h-2.3c-.1 0-.3 0-.3-.3s.2-.3.3-.3h2.3v-.4q0-.3.3-.3c.3 0 .4.1.4.3v.4h2.3c.1 0 .3 0 .3.3q0 .3-.3.3h-2.3v.7h1.4c.5 0 .8.2.8.8v2c0 .7-.4.7-1 .7-.5 0-.7 0-.7-.4 0-.3.2-.3.4-.3h.4c.2 0 .2-.1.2-.3v-1.6q0-.3-.3-.3h-1.2z" class="st10"/><path d="M142.7 114.5h.9c.1 0 .3 0 .3.3s-.2.3-.3.3h-.9v.7c.3 0 .4 0 .8-.1h.2q.3 0 .3.3c0 .3-.2.3-.6.4-.3 0-2.1.2-2.4.2q-.3 0-.3-.3c0-.3.2-.3.4-.3.3 0 .4 0 .9-.1v-.7h-.9c-.1 0-.3 0-.3-.3q0-.3.3-.3h.9v-.5h-.5c-.4 0-.6-.1-.6-.6v-1.6c0-.5.2-.6.6-.6h1.6c.4 0 .6.1.6.6v1.6c0 .5-.2.6-.6.6h-.5v.4zm-1.2-2.2h.6v-.6h-.4c-.1 0-.2.1-.2.2zm0 .4v.5c0 .1.1.2.2.2h.4v-.7zm1.8-.4v-.4c0-.1-.1-.2-.2-.2h-.4v.6zm0 .4h-.6v.7h.4c.1 0 .2-.1.2-.2zm2 .5c-.3-.2-.6-.5-.7-.5-.2-.2-.3-.2-.3-.3 0-.2.2-.3.3-.3s.1 0 .2.1.2.1.4.3c.1-.1.5-.5.5-.6s-.1-.1-.1-.1h-1.3c-.1 0-.3 0-.3-.3s.2-.3.3-.3h1.6c.3 0 .6 0 .6.4q0 .3-.3.6c-.3.3-.3.3-.5.6.2.1.2.2.2.3v.1h.1c.3 0 .6 0 .6.5 0 .2-.1.6-.2.8-.2.6-.2.6-.4.6-.1 0-.3-.1-.3-.2s.3-.7.3-.9c0-.1-.1-.1-.2-.1h-.4v2.3c0 .7-.3.7-.9.7h-.5c-.2-.1-.2-.2-.2-.3 0-.3.2-.3.3-.3h.4c.2 0 .3 0 .3-.3v-2.1h-.7c-.1 0-.3 0-.3-.3s.2-.3.3-.3zM152.9 115.9c0 .6-.2.8-.8.8h-3.8c-.6 0-.8-.2-.8-.8V112c0-.6.3-.8.8-.8h3.8c.6 0 .8.2.8.8zm-3.1-2.3v-1.8h-1.4c-.3 0-.3.2-.3.3v1.5zm0 .6h-1.7v1.6q0 .3.3.3h1.4zm.6-.6h1.7v-1.5q0-.3-.3-.3h-1.4zm0 .6v1.9h1.4q.3 0 .3-.3v-1.6zM156.9 116.5c0 .1 0 .3-.3.3s-.4-.1-.4-.3v-3H155q-.3 0-.3.3v2.3c0 .1 0 .3-.3.3s-.3-.2-.3-.3v-2.5c0-.6.2-.8.7-.8h1.4v-.7h-2.3c-.1 0-.3 0-.3-.3s.2-.3.3-.3h2.3v-.4q0-.3.3-.3c.3 0 .4.1.4.3v.4h2.3c.1 0 .3 0 .3.3q0 .3-.3.3h-2.3v.7h1.4c.5 0 .8.2.8.8v2c0 .7-.4.7-1 .7-.5 0-.7 0-.7-.4 0-.3.2-.3.4-.3h.4c.2 0 .2-.1.2-.3v-1.6q0-.3-.3-.3h-1.2z" class="st11"/><path d="M142.3 114h.9c.1 0 .3 0 .3.3s-.2.3-.3.3h-.9v.7c.3 0 .4 0 .8-.1h.2q.3 0 .3.3c0 .3-.2.3-.6.4-.3 0-2.1.2-2.4.2q-.3 0-.3-.3c0-.3.2-.3.4-.3.3 0 .4 0 .9-.1v-.7h-.9c-.1 0-.3 0-.3-.3q0-.3.3-.3h.9v-.6h-.5c-.4 0-.6-.1-.6-.6v-1.6c0-.5.2-.6.6-.6h1.6c.4 0 .6.1.6.6v1.6c0 .5-.2.6-.6.6h-.5v.5zm-1.3-2.2h.6v-.6h-.4c-.1 0-.2.1-.2.2zm0 .5v.5c0 .1.1.2.2.2h.4v-.7zm1.9-.5v-.4c0-.1-.1-.2-.2-.2h-.4v.6zm0 .5h-.6v.7h.4c.1 0 .2-.1.2-.2zm1.9.4c-.3-.2-.6-.5-.7-.5-.2-.2-.3-.2-.3-.3 0-.2.2-.3.3-.3s.1 0 .2.1.2.1.4.3c.1-.1.5-.5.5-.6s-.1-.1-.1-.1h-1.3c-.1 0-.3 0-.3-.3s.2-.3.3-.3h1.6c.3 0 .6 0 .6.4q0 .3-.3.6c-.3.3-.3.3-.5.6.2.1.2.2.2.3v.1h.1c.3 0 .6 0 .6.5 0 .2-.1.6-.2.8-.2.6-.2.6-.4.6-.1 0-.3-.1-.3-.2s.3-.7.3-.9c0-.1-.1-.1-.2-.1h-.4v2.3c0 .7-.3.7-.9.7h-.5c-.2-.1-.2-.2-.2-.3 0-.3.2-.3.3-.3h.4c.2 0 .3 0 .3-.3v-2.1h-.7c-.1 0-.3 0-.3-.3s.2-.3.3-.3zM152.4 115.4c0 .6-.2.8-.8.8h-3.8c-.6 0-.8-.2-.8-.8v-3.9c0-.6.3-.8.8-.8h3.8c.6 0 .8.2.8.8zm-3.1-2.3v-1.8h-1.4c-.3 0-.3.2-.3.3v1.5zm0 .6h-1.7v1.6q0 .3.3.3h1.4zm.7-.6h1.7v-1.5q0-.3-.3-.3H150zm0 .6v1.9h1.4q.3 0 .3-.3v-1.6zM156.4 116.1c0 .1 0 .3-.3.3s-.4-.1-.4-.3V113h-1.2q-.3 0-.3.3v2.3c0 .1 0 .3-.3.3s-.3-.2-.3-.3v-2.5c0-.6.2-.8.7-.8h1.4v-.7h-2.3c-.1 0-.3 0-.3-.3s.2-.3.3-.3h2.3v-.4q0-.3.3-.3c.3 0 .4.1.4.3v.4h2.3c.1 0 .3 0 .3.3q0 .3-.3.3h-2.3v.7h1.4c.5 0 .8.2.8.8v2c0 .7-.4.7-1 .7-.5 0-.7 0-.7-.4 0-.3.2-.3.4-.3h.4c.2 0 .2-.1.2-.3v-1.6q0-.3-.3-.3h-1.2z" class="st12"/><path d="M101.9 110.4c-.2 0-.2.1-.2.2v.4c0 .1 0 .3-.3.3s-.3-.1-.3-.3v-.5c0-.5.2-.7.7-.7h1.8v-.3c0-.1 0-.3.3-.3.2 0 .4.1.4.3v.3h1.8c.5 0 .7.2.7.7v.5c0 .1 0 .3-.3.3s-.3-.1-.3-.3v-.4c0-.2-.1-.2-.2-.2zm.6 2.3c-.6 0-.7-.1-.7-.7v-.4c0-.6.1-.7.7-.7h2.5c.6 0 .7.1.7.7v.4c0 .6-.1.7-.7.7h-1c0 .1-.1.4-.2.5h1.7c.5 0 .7.1.7.7v.6c0 .5-.2.7-.7.7H102c-.5 0-.7-.2-.7-.7v-.6c0-.6.2-.7.7-.7h1.2c.1-.2.1-.3.2-.5zm3.2 1.3c0-.1-.1-.2-.2-.2h-3.3c-.2 0-.2.1-.2.2v.4c0 .2.1.2.2.2h3.3c.2 0 .2-.1.2-.2zm-.5-2.4c0-.2-.1-.2-.2-.2h-2.3c-.1 0-.2 0-.2.2v.3c0 .2.1.2.2.2h2.3c.2 0 .2-.1.2-.2zM108.7 115c0 .1 0 .3-.3.3-.2 0-.4-.1-.4-.3v-2.9c-.3.4-.4.4-.5.4-.2 0-.4-.2-.4-.4 0-.1 0-.2.2-.4.5-.6.8-1.1 1.2-2.2.1-.2.1-.3.3-.3.1 0 .4.1.4.3 0 .3-.4 1.1-.6 1.4v4.1zm4.1-4c.2 0 .4.1.4.3s-.2.3-.3.3l-1.8.1c.1 1.5.5 2.2.8 2.5.2.3.3.3.4.3.2 0 .3-.3.3-.4.1-.3.1-.4.3-.4s.4.1.4.3-.2.7-.4.9c-.1.2-.3.4-.6.4-1 0-1.7-1.8-1.9-3.5l-1 .1c-.2 0-.4 0-.4-.3q0-.3.3-.3l1-.1c0-.2-.1-1-.1-1.1v-.3c0-.1 0-.4.4-.4.3 0 .4.3.4.4 0 .2.1 1.2.1 1.4zm-.3-1.1c.3.3.3.3.3.4 0 .2-.2.4-.4.4-.1 0-.2 0-.4-.3-.2-.2-.4-.3-.5-.4s-.1-.1-.1-.2.1-.3.3-.3.6.3.8.4M116.7 114c0 .5-.2.6-.6.6h-1.6q-.6 0-.6-.6v-3.8c0-.5.2-.6.6-.6h1.6q.6 0 .6.6zm-1.7-2.2v-1.6h-.4c-.2 0-.2.1-.2.2v1.5zm0 .6h-.6v1.5c0 .1 0 .2.2.2h.4zm.6-.6h.6v-1.5c0-.1-.1-.2-.2-.2h-.4zm0 .6v1.7h.4c.1 0 .2-.1.2-.2v-1.5zm1.5-1.9c-.1 0-.3 0-.3-.3s.2-.3.3-.3h2.2c.1 0 .3 0 .3.3q0 .3-.3.3h-.5v4c0 .7-.4.7-1 .7h-.7c-.1 0-.2-.2-.2-.3 0-.3.2-.3.4-.3h.6c.2 0 .2-.1.2-.3v-3.8z" class="st10"/><path d="M102.3 110.9c-.2 0-.2.1-.2.2v.4c0 .1 0 .3-.3.3s-.3-.1-.3-.3v-.5c0-.5.2-.7.7-.7h1.8v-.3c0-.1 0-.3.3-.3.2 0 .4.1.4.3v.3h1.8c.5 0 .7.2.7.7v.5c0 .1 0 .3-.3.3s-.3-.1-.3-.3v-.4c0-.2-.1-.2-.2-.2zm.7 2.3c-.6 0-.7-.1-.7-.7v-.4c0-.6.1-.7.7-.7h2.5c.6 0 .7.1.7.7v.4c0 .6-.1.7-.7.7h-1c0 .1-.1.4-.2.5h1.7c.5 0 .7.1.7.7v.6c0 .5-.2.7-.7.7h-3.6c-.5 0-.7-.2-.7-.7v-.6c0-.6.2-.7.7-.7h1.2c.1-.2.1-.3.2-.5zm3.1 1.2c0-.1-.1-.2-.2-.2h-3.3c-.2 0-.2.1-.2.2v.4c0 .2.1.2.2.2h3.3c.2 0 .2-.1.2-.2zm-.5-2.3c0-.2-.1-.2-.2-.2h-2.3c-.1 0-.2 0-.2.2v.3c0 .2.1.2.2.2h2.3c.2 0 .2-.1.2-.2zM109.1 115.5c0 .1 0 .3-.3.3-.2 0-.4-.1-.4-.3v-2.9c-.3.4-.4.4-.5.4-.2 0-.4-.2-.4-.4 0-.1 0-.2.2-.4.5-.6.8-1.1 1.2-2.2.1-.2.1-.3.3-.3.1 0 .4.1.4.3 0 .3-.4 1.1-.6 1.4v4.1zm4.2-4c.2 0 .4.1.4.3s-.2.3-.3.3l-1.8.1c.1 1.5.5 2.2.8 2.5.2.3.3.3.4.3.2 0 .3-.3.3-.4.1-.3.1-.4.3-.4s.4.1.4.3-.2.7-.4.9c-.1.2-.3.4-.6.4-1 0-1.7-1.8-1.9-3.5l-1 .1c-.2 0-.4 0-.4-.3q0-.3.3-.3l1-.1c0-.2-.1-1-.1-1.1v-.3c0-.1 0-.4.4-.4.3 0 .4.3.4.4 0 .2.1 1.2.1 1.4zm-.4-1.1c.3.3.3.3.3.4 0 .2-.2.4-.4.4-.1 0-.2 0-.4-.3-.2-.2-.4-.3-.5-.4s-.1-.1-.1-.2.1-.3.3-.3c.3-.1.6.2.8.4M117.2 114.5c0 .5-.2.6-.6.6H115q-.6 0-.6-.6v-3.8c0-.5.2-.6.6-.6h1.6q.6 0 .6.6zm-1.8-2.2v-1.6h-.4c-.2 0-.2.1-.2.2v1.5zm0 .5h-.6v1.5c0 .1 0 .2.2.2h.4zm.6-.5h.6v-1.5c0-.1-.1-.2-.2-.2h-.4zm0 .5v1.7h.4c.1 0 .2-.1.2-.2v-1.5zm1.5-1.9c-.1 0-.3 0-.3-.3s.2-.3.3-.3h2.2c.1 0 .3 0 .3.3q0 .3-.3.3h-.5v4c0 .7-.4.7-1 .7h-.7c-.1 0-.2-.2-.2-.3 0-.3.2-.3.4-.3h.6c.2 0 .2-.1.2-.3v-3.8z" class="st11"/><path d="M101.9 110.4c-.2 0-.2.1-.2.2v.4c0 .1 0 .3-.3.3s-.3-.1-.3-.3v-.5c0-.5.2-.7.7-.7h1.8v-.3c0-.1 0-.3.3-.3.2 0 .4.1.4.3v.3h1.8c.5 0 .7.2.7.7v.5c0 .1 0 .3-.3.3s-.3-.1-.3-.3v-.4c0-.2-.1-.2-.2-.2zm.6 2.3c-.6 0-.7-.1-.7-.7v-.4c0-.6.1-.7.7-.7h2.5c.6 0 .7.1.7.7v.4c0 .6-.1.7-.7.7h-1c0 .1-.1.4-.2.5h1.7c.5 0 .7.1.7.7v.6c0 .5-.2.7-.7.7H102c-.5 0-.7-.2-.7-.7v-.6c0-.6.2-.7.7-.7h1.2c.1-.2.1-.3.2-.5zm3.2 1.3c0-.1-.1-.2-.2-.2h-3.3c-.2 0-.2.1-.2.2v.4c0 .2.1.2.2.2h3.3c.2 0 .2-.1.2-.2zm-.5-2.4c0-.2-.1-.2-.2-.2h-2.3c-.1 0-.2 0-.2.2v.3c0 .2.1.2.2.2h2.3c.2 0 .2-.1.2-.2zM108.7 115c0 .1 0 .3-.3.3-.2 0-.4-.1-.4-.3v-2.9c-.3.4-.4.4-.5.4-.2 0-.4-.2-.4-.4 0-.1 0-.2.2-.4.5-.6.8-1.1 1.2-2.2.1-.2.1-.3.3-.3.1 0 .4.1.4.3 0 .3-.4 1.1-.6 1.4v4.1zm4.1-4c.2 0 .4.1.4.3s-.2.3-.3.3l-1.8.1c.1 1.5.5 2.2.8 2.5.2.3.3.3.4.3.2 0 .3-.3.3-.4.1-.3.1-.4.3-.4s.4.1.4.3-.2.7-.4.9c-.1.2-.3.4-.6.4-1 0-1.7-1.8-1.9-3.5l-1 .1c-.2 0-.4 0-.4-.3q0-.3.3-.3l1-.1c0-.2-.1-1-.1-1.1v-.3c0-.1 0-.4.4-.4.3 0 .4.3.4.4 0 .2.1 1.2.1 1.4zm-.3-1.1c.3.3.3.3.3.4 0 .2-.2.4-.4.4-.1 0-.2 0-.4-.3-.2-.2-.4-.3-.5-.4s-.1-.1-.1-.2.1-.3.3-.3.6.3.8.4M116.7 114c0 .5-.2.6-.6.6h-1.6q-.6 0-.6-.6v-3.8c0-.5.2-.6.6-.6h1.6q.6 0 .6.6zm-1.7-2.2v-1.6h-.4c-.2 0-.2.1-.2.2v1.5zm0 .6h-.6v1.5c0 .1 0 .2.2.2h.4zm.6-.6h.6v-1.5c0-.1-.1-.2-.2-.2h-.4zm0 .6v1.7h.4c.1 0 .2-.1.2-.2v-1.5zm1.5-1.9c-.1 0-.3 0-.3-.3s.2-.3.3-.3h2.2c.1 0 .3 0 .3.3q0 .3-.3.3h-.5v4c0 .7-.4.7-1 .7h-.7c-.1 0-.2-.2-.2-.3 0-.3.2-.3.4-.3h.6c.2 0 .2-.1.2-.3v-3.8z" class="st12"/><path d="M61.5 120.4c0 .1 0 .3-.3.3s-.3-.2-.3-.3v-2.8c-.1.2-.2.3-.4.3s-.4-.2-.4-.4c0-.1 0-.2.1-.3.6-.8.7-1.5.9-2.2q0-.3.3-.3c.1 0 .4.1.4.3 0 .1-.1.7-.3 1.3zm2.5-1.8c-.1.5-.3 1.2-1.1 1.8-.3.2-.4.3-.5.3-.2 0-.4-.2-.4-.4 0-.1.1-.2.2-.3.5-.3.9-.6 1.1-1.4h-1c-.2 0-.3 0-.3-.3s.2-.3.3-.3h1.1v-.8999999999999999H62q-.3 0-.3-.3c0-.3.2-.3.3-.3h1.4v-1h-1q-.3 0-.3-.3c0-.3.2-.3.3-.3H65c.5 0 .7.2.7.7v.8h.2q.3 0 .3.3c0 .3-.2.3-.3.3h-.2v.9c0 .6-.2.7-.7.7zm.1-1.6v.8999999999999999h.8q.3 0 .3-.3v-.7zm0-1.5v.9h1v-.7c0-.2-.1-.2-.3-.2zM66.9 118.5c-.1 0-.3 0-.3-.3s.2-.3.3-.3h5.3c.1 0 .3 0 .3.3s-.2.3-.3.3h-2.3v1.4c0 .7-.3.7-.9.7h-.5c-.2 0-.3-.2-.3-.4 0-.3.3-.3.3-.3h.4q.3 0 .3-.3v-1.1zm1.3-1.1c-.2 0-.3-.1-.3-.2-.5.3-.8.4-1 .4s-.3-.2-.3-.4.1-.2.2-.3c.6-.3 1.2-.5 1.7-1.2H67c-.1 0-.3 0-.3-.3s.3-.3.3-.3h1.9c0-.1.1-.4.2-.4.1-.1.2-.1.3-.1 0 0 .4 0 .4.3 0 .1 0 .2-.1.3h2.5q.3 0 .3.3c0 .3-.2.3-.3.3h-1.6l.5.5c.4.3.6.4 1.3.7.1 0 .1.1.1.2s-.1.4-.3.4-.8-.3-1-.5q0 .3-.3.3zm-1.6 2.6c0-.2.1-.2.4-.4.2-.1.5-.4.6-.5.2-.2.3-.3.4-.3.2 0 .3.2.3.3 0 .2-.2.3-.5.7-.1 0-.7.6-.9.6-.1 0-.3-.2-.3-.4m4.1-3.2c-.4-.3-.7-.6-.9-1h-.5c-.3.5-.6.8-.9 1zm.9 3.4c-.2-.1-.5-.4-.9-.8-.1-.1-.1-.2-.1-.3 0-.2.2-.3.4-.3.1 0 .1 0 .5.3.3.3.6.5.8.6.1.1.2.1.2.3s-.2.4-.3.4c-.2 0-.3 0-.6-.2M76.1 119.4c0 .5-.2.6-.6.6h-1.6q-.6 0-.6-.6v-3.8c0-.5.2-.6.6-.6h1.6q.6 0 .6.6zm-1.7-2.2v-1.7H74c-.2 0-.2.1-.2.2v1.5zm0 .5h-.6v1.5c0 .1 0 .2.2.2h.4zm.5-.5h.6v-1.5c0-.1-.1-.2-.2-.2h-.4zm0 .5v1.7h.4c.1 0 .2-.1.2-.2v-1.5zm1.6-1.8c-.1 0-.3 0-.3-.3s.2-.3.3-.3h2.2c.1 0 .3 0 .3.3q0 .3-.3.3h-.5v4c0 .7-.4.7-1 .7h-.7c-.1 0-.2-.2-.2-.3 0-.3.2-.3.4-.3h.6c.2 0 .2-.1.2-.3v-3.8z" class="st10"/><path d="M61.9 120.8c0 .1 0 .3-.3.3s-.3-.2-.3-.3V118c-.1.2-.2.3-.4.3s-.4-.2-.4-.4c0-.1 0-.2.1-.3.6-.8.7-1.5.9-2.2q0-.3.3-.3c.1 0 .4.1.4.3 0 .1-.1.7-.3 1.3zm2.5-1.7c-.1.5-.3 1.2-1.1 1.8-.3.2-.4.3-.5.3-.2 0-.4-.2-.4-.4 0-.1.1-.2.2-.3.5-.3.9-.6 1.1-1.4h-1c-.2 0-.3 0-.3-.3s.2-.3.3-.3h1.1v-1h-1.4q-.3 0-.3-.3c0-.3.2-.3.3-.3h1.4v-.9h-1q-.3 0-.3-.3c0-.3.2-.3.3-.3h2.6c.5 0 .7.2.7.7v.8h.2q.3 0 .3.3c0 .3-.2.3-.3.3h-.2v.9c0 .6-.2.7-.7.7zm.1-1.6v.8999999999999999h.8q.3 0 .3-.3v-.6zm0-1.5v.9h1v-.7c0-.2-.1-.2-.3-.2zM67.4 119c-.1 0-.3 0-.3-.3s.2-.3.3-.3h5.3c.1 0 .3 0 .3.3s-.2.3-.3.3h-2.3v1.4c0 .7-.3.7-.9.7H69c-.2 0-.3-.2-.3-.4 0-.3.3-.3.3-.3h.4q.3 0 .3-.3V119zm1.3-1.1c-.2 0-.3-.1-.3-.2-.5.3-.8.4-1 .4s-.3-.2-.3-.4.1-.2.2-.3c.6-.3 1.2-.5 1.7-1.2h-1.5c-.1 0-.3 0-.3-.3s.3-.3.3-.3h1.9c0-.1.1-.4.2-.4.1-.1.2-.1.3-.1 0 0 .4 0 .4.3 0 .1 0 .2-.1.3h2.5q.3 0 .3.3c0 .3-.2.3-.3.3H71l.5.5c.4.3.6.4 1.3.7.1 0 .1.1.1.2s-.1.4-.3.4-.8-.3-1-.5q0 .3-.3.3zm-1.6 2.6c0-.2.1-.2.4-.4.2-.1.5-.4.6-.5.2-.2.3-.3.4-.3.2 0 .3.2.3.3 0 .2-.2.3-.5.7-.1 0-.7.6-.9.6s-.3-.2-.3-.4m4.1-3.2c-.4-.3-.7-.6-.9-1h-.5c-.3.5-.6.8-.9 1zm.9 3.3c-.2-.1-.5-.4-.9-.8-.1-.1-.1-.2-.1-.3 0-.2.2-.3.4-.3.1 0 .1 0 .5.3.3.3.6.5.8.6.1.1.2.1.2.3s-.2.4-.3.4c-.2.1-.3.1-.6-.2M76.5 119.8c0 .5-.2.6-.6.6h-1.6q-.6 0-.6-.6V116c0-.5.2-.6.6-.6h1.6q.6 0 .6.6zm-1.7-2.2V116h-.4c-.2 0-.2.1-.2.2v1.5zm0 .6h-.6v1.5c0 .1 0 .2.2.2h.4zm.6-.6h.6v-1.5c0-.1-.1-.2-.2-.2h-.4zm0 .6v1.7h.4c.1 0 .2-.1.2-.2v-1.5zm1.5-1.9c-.1 0-.3 0-.3-.3s.2-.3.3-.3h2.2c.1 0 .3 0 .3.3q0 .3-.3.3h-.5v4c0 .7-.4.7-1 .7h-.7c-.1 0-.2-.2-.2-.3 0-.3.2-.3.4-.3h.6c.2 0 .2-.1.2-.3v-3.8z" class="st11"/><path d="M61.5 120.4c0 .1 0 .3-.3.3s-.3-.2-.3-.3v-2.8c-.1.2-.2.3-.4.3s-.4-.2-.4-.4c0-.1 0-.2.1-.3.6-.8.7-1.5.9-2.2q0-.3.3-.3c.1 0 .4.1.4.3 0 .1-.1.7-.3 1.3zm2.5-1.8c-.1.5-.3 1.2-1.1 1.8-.3.2-.4.3-.5.3-.2 0-.4-.2-.4-.4 0-.1.1-.2.2-.3.5-.3.9-.6 1.1-1.4h-1c-.2 0-.3 0-.3-.3s.2-.3.3-.3h1.1v-.8999999999999999H62q-.3 0-.3-.3c0-.3.2-.3.3-.3h1.4v-1h-1q-.3 0-.3-.3c0-.3.2-.3.3-.3H65c.5 0 .7.2.7.7v.8h.2q.3 0 .3.3c0 .3-.2.3-.3.3h-.2v.9c0 .6-.2.7-.7.7zm.1-1.6v.8999999999999999h.8q.3 0 .3-.3v-.7zm0-1.5v.9h1v-.7c0-.2-.1-.2-.3-.2zM66.9 118.5c-.1 0-.3 0-.3-.3s.2-.3.3-.3h5.3c.1 0 .3 0 .3.3s-.2.3-.3.3h-2.3v1.4c0 .7-.3.7-.9.7h-.5c-.2 0-.3-.2-.3-.4 0-.3.3-.3.3-.3h.4q.3 0 .3-.3v-1.1zm1.3-1.1c-.2 0-.3-.1-.3-.2-.5.3-.8.4-1 .4s-.3-.2-.3-.4.1-.2.2-.3c.6-.3 1.2-.5 1.7-1.2H67c-.1 0-.3 0-.3-.3s.3-.3.3-.3h1.9c0-.1.1-.4.2-.4.1-.1.2-.1.3-.1 0 0 .4 0 .4.3 0 .1 0 .2-.1.3h2.5q.3 0 .3.3c0 .3-.2.3-.3.3h-1.6l.5.5c.4.3.6.4 1.3.7.1 0 .1.1.1.2s-.1.4-.3.4-.8-.3-1-.5q0 .3-.3.3zm-1.6 2.6c0-.2.1-.2.4-.4.2-.1.5-.4.6-.5.2-.2.3-.3.4-.3.2 0 .3.2.3.3 0 .2-.2.3-.5.7-.1 0-.7.6-.9.6-.1 0-.3-.2-.3-.4m4.1-3.2c-.4-.3-.7-.6-.9-1h-.5c-.3.5-.6.8-.9 1zm.9 3.4c-.2-.1-.5-.4-.9-.8-.1-.1-.1-.2-.1-.3 0-.2.2-.3.4-.3.1 0 .1 0 .5.3.3.3.6.5.8.6.1.1.2.1.2.3s-.2.4-.3.4c-.2 0-.3 0-.6-.2M76.1 119.4c0 .5-.2.6-.6.6h-1.6q-.6 0-.6-.6v-3.8c0-.5.2-.6.6-.6h1.6q.6 0 .6.6zm-1.7-2.2v-1.7H74c-.2 0-.2.1-.2.2v1.5zm0 .5h-.6v1.5c0 .1 0 .2.2.2h.4zm.5-.5h.6v-1.5c0-.1-.1-.2-.2-.2h-.4zm0 .5v1.7h.4c.1 0 .2-.1.2-.2v-1.5zm1.6-1.8c-.1 0-.3 0-.3-.3s.2-.3.3-.3h2.2c.1 0 .3 0 .3.3q0 .3-.3.3h-.5v4c0 .7-.4.7-1 .7h-.7c-.1 0-.2-.2-.2-.3 0-.3.2-.3.4-.3h.6c.2 0 .2-.1.2-.3v-3.8z" class="st12"/><path d="M110 105.4c0 .1 0 .3-.3.3q-.3 0-.3-.3v-2.6c-.2.5-.3.8-.4 1s-.2.4-.4.4-.3-.2-.3-.4c0-.1.1-.2.1-.3.3-.5.7-1.1 1-2h-.7c-.1 0-.3 0-.3-.3s.2-.3.3-.3h.8v-.9c0-.1 0-.3.3-.3q.3 0 .3.3v.9h.6c.1 0 .3 0 .3.3s-.2.3-.3.3h-.7v.3c0 .1.2.6.6 1 .2.3.2.3.2.4 0 .2-.2.3-.3.3s-.2 0-.5-.7zm3.2-.8c-.9.7-2 1.1-2.3 1.1-.2 0-.3-.2-.3-.4s.1-.2.3-.3c.3-.1 1.6-.6 2.4-1.4l.4-.4s.1-.1.2-.1c.2 0 .4.1.4.4s-.7.8-1.1 1.1m.3-4.2c-.9.6-2 1-2.2 1s-.3-.2-.3-.4.1-.2.3-.3c.5-.2 1.2-.4 1.7-.7s.5-.3.6-.3c.2 0 .3.2.3.4-.1.1-.1.2-.4.3m-2.2 3.1c-.2 0-.3-.2-.3-.4s.1-.2.2-.3c1.2-.5 1.8-.9 2.2-1.3.1-.1.2-.1.2-.1.2 0 .4.2.3.4 0 .4-2.2 1.7-2.6 1.7M115.3 101.9c0-.6.2-.7.8-.7h3.5c.5 0 .7.2.7.7v1c0 .5-.2.7-.7.7H116c0 1-.4 1.6-.5 1.7-.2.3-.3.3-.4.3-.2 0-.4-.2-.4-.4 0-.1 0-.2.1-.3.1-.2.3-.5.4-1 .1-.3.1-.7.1-.7zm5.1-2c.1 0 .3 0 .3.3s-.2.3-.3.3H115c-.1 0-.3 0-.3-.3s.2-.3.3-.3zm-4.4 3h3.3c.2 0 .2-.1.2-.2v-.7c0-.2-.1-.3-.2-.3h-3.1q-.3 0-.3.3zM124.2 104.3c0 .5-.2.6-.6.6H122q-.6 0-.6-.6v-3.8c0-.5.2-.6.6-.6h1.6q.6 0 .6.6zm-1.7-2.2v-1.6h-.4c-.2 0-.2.1-.2.2v1.5zm0 .6h-.6v1.5c0 .1 0 .2.2.2h.4zm.6-.6h.6v-1.5c0-.1-.1-.2-.2-.2h-.4zm0 .6v1.7h.4c.1 0 .2-.1.2-.2v-1.5zm1.5-1.9c-.1 0-.3 0-.3-.3s.2-.3.3-.3h2.2c.1 0 .3 0 .3.3q0 .3-.3.3h-.5v4c0 .7-.4.7-1 .7h-.7c-.1 0-.2-.2-.2-.3 0-.3.2-.3.4-.3h.6c.2 0 .2-.1.2-.3v-3.8z" class="st10"/><path d="M110.5 105.8c0 .1 0 .3-.3.3q-.3 0-.3-.3v-2.6c-.2.5-.3.8-.4 1s-.2.4-.4.4-.3-.2-.3-.4c0-.1.1-.2.1-.3.3-.5.7-1.1 1-2h-.7c-.1 0-.3 0-.3-.3s.2-.3.3-.3h.8v-.9c0-.1 0-.3.3-.3q.3 0 .3.3v.9h.6c.1 0 .3 0 .3.3s-.2.3-.3.3h-.6v.3c0 .1.2.6.6 1 .2.3.2.3.2.4 0 .2-.2.3-.3.3s-.2 0-.5-.7zm3.2-.8c-.9.7-2 1.1-2.3 1.1-.2 0-.3-.2-.3-.4s.1-.2.3-.3c.3-.1 1.6-.6 2.4-1.4l.4-.4s.1-.1.2-.1c.2 0 .4.1.4.4-.1.3-.8.9-1.1 1.1m.3-4.1c-.9.6-2 1-2.2 1s-.3-.2-.3-.4.1-.2.3-.3c.5-.2 1.2-.4 1.7-.7s.5-.3.6-.3c.2 0 .3.2.3.4-.1.1-.2.1-.4.3m-2.2 3c-.2 0-.3-.2-.3-.4s.1-.2.2-.3c1.2-.5 1.8-.9 2.2-1.3.1-.1.2-.1.2-.1.2 0 .4.2.3.4 0 .5-2.2 1.7-2.6 1.7M115.7 102.3c0-.6.2-.7.8-.7h3.5c.5 0 .7.2.7.7v1c0 .5-.2.7-.7.7h-3.6c0 1-.4 1.6-.5 1.7-.2.3-.3.3-.4.3-.2 0-.4-.2-.4-.4 0-.1 0-.2.1-.3.1-.2.3-.5.4-1 .1-.3.1-.7.1-.7zm5.2-1.9c.1 0 .3 0 .3.3s-.2.3-.3.3h-5.4c-.1 0-.3 0-.3-.3s.2-.3.3-.3zm-4.5 3h3.3c.2 0 .2-.1.2-.2v-.7c0-.2-.1-.3-.2-.3h-3.1q-.3 0-.3.3zM124.7 104.8c0 .5-.2.6-.6.6h-1.6q-.6 0-.6-.6V101c0-.5.2-.6.6-.6h1.6q.6 0 .6.6zm-1.8-2.2V101h-.4c-.2 0-.2.1-.2.2v1.5zm0 .6h-.6v1.5c0 .1 0 .2.2.2h.4zm.6-.6h.6v-1.5c0-.1-.1-.2-.2-.2h-.4zm0 .6v1.7h.4c.1 0 .2-.1.2-.2v-1.5zm1.6-1.9c-.1 0-.3 0-.3-.3s.2-.3.3-.3h2.2c.1 0 .3 0 .3.3q0 .3-.3.3h-.5v4c0 .7-.4.7-1 .7h-.7c-.1 0-.2-.2-.2-.3 0-.3.2-.3.4-.3h.6c.2 0 .2-.1.2-.3v-3.8z" class="st11"/><path d="M110 105.4c0 .1 0 .3-.3.3q-.3 0-.3-.3v-2.6c-.2.5-.3.8-.4 1s-.2.4-.4.4-.3-.2-.3-.4c0-.1.1-.2.1-.3.3-.5.7-1.1 1-2h-.7c-.1 0-.3 0-.3-.3s.2-.3.3-.3h.8v-.9c0-.1 0-.3.3-.3q.3 0 .3.3v.9h.6c.1 0 .3 0 .3.3s-.2.3-.3.3h-.7v.3c0 .1.2.6.6 1 .2.3.2.3.2.4 0 .2-.2.3-.3.3s-.2 0-.5-.7zm3.2-.8c-.9.7-2 1.1-2.3 1.1-.2 0-.3-.2-.3-.4s.1-.2.3-.3c.3-.1 1.6-.6 2.4-1.4l.4-.4s.1-.1.2-.1c.2 0 .4.1.4.4s-.7.8-1.1 1.1m.3-4.2c-.9.6-2 1-2.2 1s-.3-.2-.3-.4.1-.2.3-.3c.5-.2 1.2-.4 1.7-.7s.5-.3.6-.3c.2 0 .3.2.3.4-.1.1-.1.2-.4.3m-2.2 3.1c-.2 0-.3-.2-.3-.4s.1-.2.2-.3c1.2-.5 1.8-.9 2.2-1.3.1-.1.2-.1.2-.1.2 0 .4.2.3.4 0 .4-2.2 1.7-2.6 1.7M115.3 101.9c0-.6.2-.7.8-.7h3.5c.5 0 .7.2.7.7v1c0 .5-.2.7-.7.7H116c0 1-.4 1.6-.5 1.7-.2.3-.3.3-.4.3-.2 0-.4-.2-.4-.4 0-.1 0-.2.1-.3.1-.2.3-.5.4-1 .1-.3.1-.7.1-.7zm5.1-2c.1 0 .3 0 .3.3s-.2.3-.3.3H115c-.1 0-.3 0-.3-.3s.2-.3.3-.3zm-4.4 3h3.3c.2 0 .2-.1.2-.2v-.7c0-.2-.1-.3-.2-.3h-3.1q-.3 0-.3.3zM124.2 104.3c0 .5-.2.6-.6.6H122q-.6 0-.6-.6v-3.8c0-.5.2-.6.6-.6h1.6q.6 0 .6.6zm-1.7-2.2v-1.6h-.4c-.2 0-.2.1-.2.2v1.5zm0 .6h-.6v1.5c0 .1 0 .2.2.2h.4zm.6-.6h.6v-1.5c0-.1-.1-.2-.2-.2h-.4zm0 .6v1.7h.4c.1 0 .2-.1.2-.2v-1.5zm1.5-1.9c-.1 0-.3 0-.3-.3s.2-.3.3-.3h2.2c.1 0 .3 0 .3.3q0 .3-.3.3h-.5v4c0 .7-.4.7-1 .7h-.7c-.1 0-.2-.2-.2-.3 0-.3.2-.3.4-.3h.6c.2 0 .2-.1.2-.3v-3.8z" class="st12"/><path d="M132.6 65.3c0-.2-.1-.3-.2-.6h-.3c-.1 0-.3-.1-.3-.3q0-.3.3-.3h1.2v-.2q0-.3.3-.3c.3 0 .4.1.4.3v.2h1.3c.1 0 .3 0 .3.3q0 .3-.3.3h-.3c0 .2-.1.4-.2.6h.6c.1 0 .3 0 .3.2s-.2.3-.3.3H132c-.1 0-.2 0-.3-.1 0 .1 0 .3-.3.3h-.3v1.9c.1 0 .3-.1.4-.1h.1c.2 0 .2.3.2.3 0 .2-.1.2-.5.4-.3.1-.7.2-1.1.4-.2.1-.2.1-.3.1-.2 0-.3-.2-.3-.4s.1-.2.2-.3c.1 0 .5-.1.6-.2V66h-.4c-.1 0-.3 0-.3-.3q0-.3.3-.3h.4v-1.3c0-.1 0-.3.3-.3s.3.1.3.3v1.3h.3c.1 0 .2 0 .2.1 0-.2.2-.2.3-.2zm1.8 3.6c0 .2.1.2.3.2.4 0 .4 0 .4-.4 0-.3 0-.3.2-.3 0 0 .3 0 .3.2s0 .7-.2.9c-.1.2-.3.2-1 .2-.5 0-.8 0-.8-.7v-.9h-.6c-.1 1.3-1.5 1.6-1.7 1.6-.3 0-.3-.2-.3-.3 0-.2.2-.2.2-.3.5-.1 1-.3 1.2-1h-.2c-.5 0-.5-.4-.5-.7v-.7c0-.5.1-.7.7-.7h2.1c.5 0 .7.1.7.7v.7c0 .5-.1.7-.7.7h-.3v.8zm-1.8-2h2.1v-.2c0-.1 0-.2-.2-.2h-1.8c-.1 0-.2.1-.2.2zm0 .4v.2c0 .1.1.2.2.2h1.8c.1 0 .2-.1.2-.2v-.2zm1.6-2c0-.1.1-.2.2-.6H133s.2.5.2.6zM139.3 68.4c0 .5-.2.6-.6.6H137q-.6 0-.6-.6v-3.8c0-.5.2-.6.6-.6h1.6q.6 0 .6.6zm-1.8-2.2v-1.7h-.4c-.2 0-.2.1-.2.2v1.5zm0 .6h-.5v1.5c0 .1 0 .2.2.2h.4zm.6-.6h.6v-1.5c0-.1-.1-.2-.2-.2h-.4zm0 .6v1.7h.4c.1 0 .2-.1.2-.2v-1.5zm1.6-1.9c-.1 0-.3 0-.3-.3s.2-.3.3-.3h2.2c.1 0 .3 0 .3.3q0 .3-.3.3h-.5v4c0 .7-.4.7-1 .7h-.7c-.1 0-.2-.2-.2-.3 0-.3.2-.3.4-.3h.6c.2 0 .2-.1.2-.3v-3.8z" class="st10"/><path d="M133 65.7c0-.2-.1-.3-.2-.6h-.3c-.1 0-.3-.1-.3-.3q0-.3.3-.3h1.2v-.2q0-.3.3-.3c.3 0 .4.1.4.3v.2h1.3c.1 0 .3 0 .3.3q0 .3-.3.3h-.4c0 .2-.1.4-.2.6h.6c.1 0 .3 0 .3.2s-.2.3-.3.3h-3.5c-.1 0-.2 0-.3-.1 0 .1 0 .3-.3.3h-.3v1.9c.1 0 .3-.1.4-.1h.1c.2 0 .2.3.2.3 0 .2-.1.2-.5.4-.3.1-.7.2-1.1.4-.2.1-.2.1-.3.1-.2 0-.3-.2-.3-.4s.1-.2.2-.3c.1 0 .5-.1.6-.2v-2h-.4c-.1 0-.3 0-.3-.3q0-.3.3-.3h.4v-1.4c0-.1 0-.3.3-.3s.3.1.3.3v1.3h.3c.1 0 .2 0 .2.1 0-.2.2-.2.3-.2zm1.9 3.6c0 .2.1.2.3.2.4 0 .4 0 .4-.4 0-.3 0-.3.2-.3 0 0 .3 0 .3.2s0 .7-.2.9c-.1.2-.3.2-1 .2-.5 0-.8 0-.8-.7v-.9h-.6c-.1 1.3-1.5 1.6-1.7 1.6-.3 0-.3-.2-.3-.3 0-.2.2-.2.2-.3.5-.1 1-.3 1.2-1h.1c-.5 0-.5-.4-.5-.7v-.7c0-.5.1-.7.7-.7h2.1c.5 0 .7.1.7.7v.7c0 .5-.1.7-.7.7h-.3v.8zm-1.8-2h2.1v-.2c0-.1 0-.2-.2-.2h-1.8c-.1 0-.2.1-.2.2zm0 .4v.2c0 .1.1.2.2.2h1.8c.1 0 .2-.1.2-.2v-.2zm1.5-2c0-.1.1-.2.2-.6h-1.3s.2.5.2.6zM139.7 68.9c0 .5-.2.6-.6.6h-1.6q-.6 0-.6-.6v-3.8c0-.5.2-.6.6-.6h1.6q.6 0 .6.6zm-1.7-2.3V65h-.4c-.2 0-.2.1-.2.2v1.5zm0 .6h-.6v1.5c0 .1 0 .2.2.2h.4zm.6-.6h.6v-1.5c0-.1-.1-.2-.2-.2h-.4zm0 .6v1.7h.4c.1 0 .2-.1.2-.2v-1.5zm1.5-1.9c-.1 0-.3 0-.3-.3s.2-.3.3-.3h2.2c.1 0 .3 0 .3.3q0 .3-.3.3h-.5v4c0 .7-.4.7-1 .7h-.7c-.1 0-.2-.2-.2-.3 0-.3.2-.3.4-.3h.6c.2 0 .2-.1.2-.3v-3.8z" class="st11"/><path d="M132.6 65.3c0-.2-.1-.3-.2-.6h-.3c-.1 0-.3-.1-.3-.3q0-.3.3-.3h1.2v-.2q0-.3.3-.3c.3 0 .4.1.4.3v.2h1.3c.1 0 .3 0 .3.3q0 .3-.3.3h-.3c0 .2-.1.4-.2.6h.6c.1 0 .3 0 .3.2s-.2.3-.3.3H132c-.1 0-.2 0-.3-.1 0 .1 0 .3-.3.3h-.3v1.9c.1 0 .3-.1.4-.1h.1c.2 0 .2.3.2.3 0 .2-.1.2-.5.4-.3.1-.7.2-1.1.4-.2.1-.2.1-.3.1-.2 0-.3-.2-.3-.4s.1-.2.2-.3c.1 0 .5-.1.6-.2V66h-.4c-.1 0-.3 0-.3-.3q0-.3.3-.3h.4v-1.3c0-.1 0-.3.3-.3s.3.1.3.3v1.3h.3c.1 0 .2 0 .2.1 0-.2.2-.2.3-.2zm1.8 3.6c0 .2.1.2.3.2.4 0 .4 0 .4-.4 0-.3 0-.3.2-.3 0 0 .3 0 .3.2s0 .7-.2.9c-.1.2-.3.2-1 .2-.5 0-.8 0-.8-.7v-.9h-.6c-.1 1.3-1.5 1.6-1.7 1.6-.3 0-.3-.2-.3-.3 0-.2.2-.2.2-.3.5-.1 1-.3 1.2-1h-.2c-.5 0-.5-.4-.5-.7v-.7c0-.5.1-.7.7-.7h2.1c.5 0 .7.1.7.7v.7c0 .5-.1.7-.7.7h-.3v.8zm-1.8-2h2.1v-.2c0-.1 0-.2-.2-.2h-1.8c-.1 0-.2.1-.2.2zm0 .4v.2c0 .1.1.2.2.2h1.8c.1 0 .2-.1.2-.2v-.2zm1.6-2c0-.1.1-.2.2-.6H133s.2.5.2.6zM139.3 68.4c0 .5-.2.6-.6.6H137q-.6 0-.6-.6v-3.8c0-.5.2-.6.6-.6h1.6q.6 0 .6.6zm-1.8-2.2v-1.7h-.4c-.2 0-.2.1-.2.2v1.5zm0 .6h-.5v1.5c0 .1 0 .2.2.2h.4zm.6-.6h.6v-1.5c0-.1-.1-.2-.2-.2h-.4zm0 .6v1.7h.4c.1 0 .2-.1.2-.2v-1.5zm1.6-1.9c-.1 0-.3 0-.3-.3s.2-.3.3-.3h2.2c.1 0 .3 0 .3.3q0 .3-.3.3h-.5v4c0 .7-.4.7-1 .7h-.7c-.1 0-.2-.2-.2-.3 0-.3.2-.3.4-.3h.6c.2 0 .2-.1.2-.3v-3.8z" class="st12"/><path d="M110.4 71.7c.4 0 .7.1.7.7l-.1 1.9h.5c.1 0 .3 0 .3.3s-.2.3-.3.3h-5.3c-.1 0-.3 0-.3-.3s.2-.3.3-.3h1.1c.1-.3.2-.8.4-1.5 0-.2.1-.4.1-.5h-1.1c-.1 0-.3 0-.3-.3s.2-.3.3-.3h1.3c.1-.7.2-.8.2-1.3h-1.7c-.1 0-.3 0-.3-.3s.2-.3.3-.3h4.7c.1 0 .3 0 .3.3s-.2.3-.3.3H109c-.1.6-.2.9-.3 1.3zm-1.8.6c0 .2-.3 1.4-.5 2h2.2l.1-1.7c0-.3-.1-.3-.3-.3zM117.5 70.3c.5 0 .6.1.6.6v.5c0 .1 0 .3-.3.3s-.3-.2-.3-.3v-.5c0-.1-.1-.2-.2-.2h-1.7v.9c0 .1 0 .3-.3.3s-.3-.2-.3-.3v-.9h-1.7c-.1 0-.2.1-.2.2v.5c0 .1 0 .3-.3.3s-.3-.2-.3-.3v-.5c0-.5.1-.6.6-.6h1.9V70h-2c-.2 0-.3 0-.3-.2s.1-.2.3-.2h4.6c.1 0 .3 0 .3.2s-.1.2-.3.2h-2v.3zm-2.7 4.1q.3 0 .3.3t-.3.3h-1.5v.1c0 .1 0 .3-.3.3s-.3-.2-.3-.3v-2.4c0-.5.1-.7.7-.7h1.3c.4 0 .5.1.5.5v.2c0 .4-.1.5-.5.5h-1.3v.3h1.5q.3 0 .3.3t-.3.3h-1.5v.3zm-1.6-1.6h1.1c.1 0 .1-.1.1-.1v-.1c0-.1 0-.1-.1-.1h-.9c-.1 0-.2.1-.2.3m1.4-1.9c.1 0 .2 0 .2.1s0 .2-.2.2h-1.1c-.1 0-.2 0-.2-.1s0-.2.2-.2zm0 .5c.1 0 .2 0 .2.1s0 .2-.2.2h-1.1c-.1 0-.2-.1-.2-.1 0-.1 0-.2.2-.2zm.9 2.5c-.1 0-.3 0-.3-.2s.1-.2.3-.2h1.9c.2 0 .5 0 .5.4 0 .3-.4.7-.7.8.2 0 .4.1.8.1.1 0 .3 0 .3.2 0 .1 0 .3-.3.3-.1 0-.7-.1-1.4-.4-.6.3-1.3.4-1.4.4-.2 0-.3-.2-.3-.3 0-.2.1-.2.2-.2.3 0 .6-.1.9-.2-.2-.2-.4-.3-.4-.3s-.1-.1-.1-.2.1-.2.3-.2c.1 0 .1 0 .2.1.4.3.5.4.6.4.3-.2.6-.4.6-.5l-.1-.1zm2-1.9c.4 0 .5.1.5.5v.2c0 .4-.1.5-.5.5h-1.9c-.1 0-.2 0-.2-.2 0-.1.1-.2.2-.2h1.7c.1 0 .1-.1.1-.2s-.1-.1-.1-.1h-1.7c-.1 0-.2 0-.2-.2s.1-.2.2-.2h1.9zm-.4-1.1c.1 0 .2 0 .2.1s0 .2-.2.2H116c-.1 0-.2 0-.2-.1s0-.2.2-.2zm0 .5c.1 0 .2 0 .2.1s0 .2-.2.2H116c-.1 0-.2 0-.2-.1s0-.2.2-.2zM121.8 74c0 .5-.2.6-.6.6h-1.6q-.6 0-.6-.6v-3.8c0-.5.2-.6.6-.6h1.6q.6 0 .6.6zm-1.7-2.2v-1.6h-.4c-.2 0-.2.1-.2.2v1.5zm0 .6h-.6v1.5c0 .1 0 .2.2.2h.4zm.6-.6h.6v-1.5c0-.1-.1-.2-.2-.2h-.4zm0 .6v1.7h.4c.1 0 .2-.1.2-.2v-1.5zm1.5-1.9c-.1 0-.3 0-.3-.3s.2-.3.3-.3h2.2c.1 0 .3 0 .3.3q0 .3-.3.3h-.5v4c0 .7-.4.7-1 .7h-.7c-.1 0-.2-.2-.2-.3 0-.3.2-.3.4-.3h.6c.2 0 .2-.1.2-.3v-3.8z" class="st10"/><path d="M110.8 72.1c.4 0 .7.1.7.7l-.1 1.9h.5c.1 0 .3 0 .3.3s-.2.3-.3.3h-5.3c-.1 0-.3 0-.3-.3s.2-.3.3-.3h1.1c.1-.3.2-.8.4-1.5 0-.2.1-.4.1-.5h-1.1c-.1 0-.3 0-.3-.3s.2-.3.3-.3h1.3c.1-.7.2-.8.2-1.3H107c-.1 0-.3 0-.3-.3s.2-.3.3-.3h4.7c.1 0 .3 0 .3.3s-.2.3-.3.3h-2.3c-.1.6-.2.9-.3 1.3zm-1.7.6c0 .2-.3 1.4-.5 2h2.2l.1-1.7c0-.3-.1-.3-.3-.3zM118 70.7c.5 0 .6.1.6.6v.5c0 .1 0 .3-.3.3s-.3-.2-.3-.3v-.5c0-.1-.1-.2-.2-.2h-1.7v.9c0 .1 0 .3-.3.3s-.3-.2-.3-.3v-.9h-1.7c-.1 0-.2.1-.2.2v.5c0 .1 0 .3-.3.3s-.3-.2-.3-.3v-.5c0-.5.1-.6.6-.6h1.9v-.2h-2c-.2 0-.3 0-.3-.2s.1-.2.3-.2h4.6c.1 0 .3 0 .3.2s-.1.2-.3.2h-2v.3h1.9zm-2.8 4.1q.3 0 .3.3t-.3.3h-1.5v.1c0 .1 0 .3-.3.3s-.3-.2-.3-.3v-2.4c0-.5.1-.7.7-.7h1.3c.4 0 .5.1.5.5v.2c0 .4-.1.5-.5.5h-1.3v.3h1.5q.3 0 .3.3t-.3.3h-1.5v.3zm-1.5-1.5h1.1c.1 0 .1-.1.1-.1v-.1c0-.1 0-.1-.1-.1h-.9c-.1 0-.2.1-.2.3m1.3-1.9c.1 0 .2 0 .2.1s0 .2-.2.2h-1.1c-.1 0-.2 0-.2-.1s0-.2.2-.2zm0 .5c.1 0 .2 0 .2.1s0 .2-.2.2h-1.1c-.1 0-.2-.1-.2-.1 0-.1 0-.2.2-.2zm1 2.4c-.1 0-.3 0-.3-.2s.1-.2.3-.2h1.9c.2 0 .5 0 .5.4 0 .3-.4.7-.7.8.2 0 .4.1.8.1.1 0 .3 0 .3.2 0 .1 0 .3-.3.3-.1 0-.7-.1-1.4-.4-.6.3-1.3.4-1.4.4-.2 0-.3-.2-.3-.3 0-.2.1-.2.2-.2.3 0 .6-.1.9-.2-.2-.2-.4-.3-.4-.3s-.1-.1-.1-.2.1-.2.3-.2c.1 0 .1 0 .2.1.4.3.5.4.6.4.3-.2.6-.4.6-.5l-.1-.1zm1.9-1.9c.4 0 .5.1.5.5v.2c0 .4-.1.5-.5.5H116c-.1 0-.2 0-.2-.2 0-.1.1-.2.2-.2h1.7c.1 0 .1-.1.1-.2s-.1-.1-.1-.1H116c-.1 0-.2 0-.2-.2s.1-.2.2-.2h1.9zm-.3-1c.1 0 .2 0 .2.1s0 .2-.2.2h-1.1c-.1 0-.2 0-.2-.1s0-.2.2-.2zm0 .5c.1 0 .2 0 .2.1s0 .2-.2.2h-1.1c-.1 0-.2 0-.2-.1s0-.2.2-.2zM122.3 74.5c0 .5-.2.6-.6.6H120q-.6 0-.6-.6v-3.8c0-.5.2-.6.6-.6h1.6q.6 0 .6.6v3.8zm-1.8-2.2v-1.6h-.4c-.2 0-.2.1-.2.2v1.5zm0 .5h-.5v1.5c0 .1 0 .2.2.2h.4zm.6-.5h.6v-1.5c0-.1-.1-.2-.2-.2h-.4zm0 .5v1.7h.4c.1 0 .2-.1.2-.2v-1.5zm1.5-1.8c-.1 0-.3 0-.3-.3s.2-.3.3-.3h2.2c.1 0 .3 0 .3.3q0 .3-.3.3h-.5v4c0 .7-.4.7-1 .7h-.7c-.1 0-.2-.2-.2-.3 0-.3.2-.3.4-.3h.6c.2 0 .2-.1.2-.3V71z" class="st11"/><path d="M110.4 71.7c.4 0 .7.1.7.7l-.1 1.9h.5c.1 0 .3 0 .3.3s-.2.3-.3.3h-5.3c-.1 0-.3 0-.3-.3s.2-.3.3-.3h1.1c.1-.3.2-.8.4-1.5 0-.2.1-.4.1-.5h-1.1c-.1 0-.3 0-.3-.3s.2-.3.3-.3h1.3c.1-.7.2-.8.2-1.3h-1.7c-.1 0-.3 0-.3-.3s.2-.3.3-.3h4.7c.1 0 .3 0 .3.3s-.2.3-.3.3H109c-.1.6-.2.9-.3 1.3zm-1.8.6c0 .2-.3 1.4-.5 2h2.2l.1-1.7c0-.3-.1-.3-.3-.3zM117.5 70.3c.5 0 .6.1.6.6v.5c0 .1 0 .3-.3.3s-.3-.2-.3-.3v-.5c0-.1-.1-.2-.2-.2h-1.7v.9c0 .1 0 .3-.3.3s-.3-.2-.3-.3v-.9h-1.7c-.1 0-.2.1-.2.2v.5c0 .1 0 .3-.3.3s-.3-.2-.3-.3v-.5c0-.5.1-.6.6-.6h1.9V70h-2c-.2 0-.3 0-.3-.2s.1-.2.3-.2h4.6c.1 0 .3 0 .3.2s-.1.2-.3.2h-2v.3zm-2.7 4.1q.3 0 .3.3t-.3.3h-1.5v.1c0 .1 0 .3-.3.3s-.3-.2-.3-.3v-2.4c0-.5.1-.7.7-.7h1.3c.4 0 .5.1.5.5v.2c0 .4-.1.5-.5.5h-1.3v.3h1.5q.3 0 .3.3t-.3.3h-1.5v.3zm-1.6-1.6h1.1c.1 0 .1-.1.1-.1v-.1c0-.1 0-.1-.1-.1h-.9c-.1 0-.2.1-.2.3m1.4-1.9c.1 0 .2 0 .2.1s0 .2-.2.2h-1.1c-.1 0-.2 0-.2-.1s0-.2.2-.2zm0 .5c.1 0 .2 0 .2.1s0 .2-.2.2h-1.1c-.1 0-.2-.1-.2-.1 0-.1 0-.2.2-.2zm.9 2.5c-.1 0-.3 0-.3-.2s.1-.2.3-.2h1.9c.2 0 .5 0 .5.4 0 .3-.4.7-.7.8.2 0 .4.1.8.1.1 0 .3 0 .3.2 0 .1 0 .3-.3.3-.1 0-.7-.1-1.4-.4-.6.3-1.3.4-1.4.4-.2 0-.3-.2-.3-.3 0-.2.1-.2.2-.2.3 0 .6-.1.9-.2-.2-.2-.4-.3-.4-.3s-.1-.1-.1-.2.1-.2.3-.2c.1 0 .1 0 .2.1.4.3.5.4.6.4.3-.2.6-.4.6-.5l-.1-.1zm2-1.9c.4 0 .5.1.5.5v.2c0 .4-.1.5-.5.5h-1.9c-.1 0-.2 0-.2-.2 0-.1.1-.2.2-.2h1.7c.1 0 .1-.1.1-.2s-.1-.1-.1-.1h-1.7c-.1 0-.2 0-.2-.2s.1-.2.2-.2h1.9zm-.4-1.1c.1 0 .2 0 .2.1s0 .2-.2.2H116c-.1 0-.2 0-.2-.1s0-.2.2-.2zm0 .5c.1 0 .2 0 .2.1s0 .2-.2.2H116c-.1 0-.2 0-.2-.1s0-.2.2-.2zM121.8 74c0 .5-.2.6-.6.6h-1.6q-.6 0-.6-.6v-3.8c0-.5.2-.6.6-.6h1.6q.6 0 .6.6zm-1.7-2.2v-1.6h-.4c-.2 0-.2.1-.2.2v1.5zm0 .6h-.6v1.5c0 .1 0 .2.2.2h.4zm.6-.6h.6v-1.5c0-.1-.1-.2-.2-.2h-.4zm0 .6v1.7h.4c.1 0 .2-.1.2-.2v-1.5zm1.5-1.9c-.1 0-.3 0-.3-.3s.2-.3.3-.3h2.2c.1 0 .3 0 .3.3q0 .3-.3.3h-.5v4c0 .7-.4.7-1 .7h-.7c-.1 0-.2-.2-.2-.3 0-.3.2-.3.4-.3h.6c.2 0 .2-.1.2-.3v-3.8z" class="st12"/></svg>