<?xml version="1.0" encoding="utf-8"?>
<!-- Generator: Adobe Illustrator 26.3.1, SVG Export Plug-In . SVG Version: 6.00 Build 0)  -->
<svg version="1.1" id="レイヤー_1" xmlns="http://www.w3.org/2000/svg" xmlns:xlink="http://www.w3.org/1999/xlink" x="0px"
	 y="0px" width="203px" height="33px" viewBox="0 0 203 33" style="enable-background:new 0 0 203 33;" xml:space="preserve">
<style type="text/css">
	.st0{fill:url(#SVGID_1_);}
	.st1{fill:#F09BA7;}
	.st2{fill:#F9C258;}
	.st3{fill:#A8977F;}
	.st4{fill:url(#SVGID_00000119075858836356870720000012544186955891384469_);}
	.st5{fill:#8AC23E;}
	.st6{fill:#28AC4B;}
	
		.st7{clip-path:url(#SVGID_00000145017213908964288840000005747123946982871191_);fill:url(#SVGID_00000097488821837073531770000008747231367598239411_);}
	
		.st8{clip-path:url(#SVGID_00000181046067645845507500000003335654749711845550_);fill:url(#SVGID_00000170273534166859518480000001198731640291221169_);}
	.st9{fill:url(#SVGID_00000176750336828948649320000009058601949583497394_);}
	.st10{fill:#FFFFFF;}
</style>
<linearGradient id="SVGID_1_" gradientUnits="userSpaceOnUse" x1="39.5744" y1="11.4806" x2="84.0242" y2="11.4806" gradientTransform="matrix(1 0 0 -1 0 33.7638)">
	<stop  offset="0" style="stop-color:#8AC23E"/>
	<stop  offset="1" style="stop-color:#28AC4B"/>
</linearGradient>
<path class="st0" d="M43.372,22.419c0,0.64-0.811,3.286-1.195,4.296c-0.313,0.853-0.626,1.508-1.323,1.508
	c-0.54,0-1.28-0.427-1.28-1.067c0-0.327,0.086-0.497,0.369-1.024c0.483-0.896,0.91-2.361,1.066-3.073
	c0.214-0.953,0.342-1.565,1.138-1.565c0.114,0,0.242,0.015,0.37,0.043C42.86,21.608,43.372,21.821,43.372,22.419 M51.665,22.83
	c-0.469-0.981-1.294-1.806-2.362-1.806c-0.739,0-0.952,0.512-1.024,0.811c-0.015,0.084-0.029,0.17-0.029,0.284
	c0,0.313,0.128,0.484,0.213,0.569c0.086,0.086,0.57,0.384,0.669,0.469c0.725,0.612,0.882,2.547,0.967,3.727
	c0.029,0.355,0.1,1.124,1.152,1.124c0.327,0,0.74-0.114,0.967-0.37c0.156-0.171,0.242-0.427,0.242-0.868
	C52.462,26.629,52.262,24.055,51.665,22.83 M48.83,19.283c0.617-0.08,1.171-0.202,1.171-1.132c0-0.948-0.768-1.019-1.537-1.066
	c-1.677-0.105-3.243-0.341-3.997-0.484c-0.27-0.043-1.578-0.355-1.877-0.355c-0.712,0-0.882,0.611-0.925,0.953
	c-0.1,0.882,0.483,1.038,1.068,1.18c0.592,0.152,1.463,0.31,2.371,0.448c-0.715,0.426-1.207,1.124-1.147,2.127
	c0.081,1.342,0.896,2.39,1.281,2.831c0.768,0.896,1.066,1.238,1.066,1.892c0,0.157-0.029,0.967-1.01,0.967
	c-0.341,0-0.612-0.071-0.811-0.128c-0.527-0.171-0.583-0.199-0.797-0.199c-1.01,0-1.01,1.081-1.01,1.138
	c0,0.398,0.156,0.697,0.598,0.939c0.839,0.455,1.864,0.541,2.361,0.541c2.362,0,3.059-1.806,3.059-2.93
	c0-1.095-0.458-2.043-1.537-3.215C45.364,20.841,45.726,19.688,48.83,19.283 M58.414,16.515c0.214-0.285,0.541-0.355,0.854-0.355
	c0.555,0,1.209,0.171,1.209,0.953c0,0.199-0.043,0.427-0.114,0.854c1.138-0.029,2.518-0.057,3.414-0.1
	c0.171,0,0.939-0.058,1.096-0.058c0.285,0,1.124,0.014,1.124,1.067c0,0.967-0.711,1.025-1.152,1.053
	c-1.465,0.071-3.273,0.128-4.894,0.171c-0.37,1.807-2.105,7.895-2.688,8.507c-0.1,0.114-0.328,0.285-0.712,0.285
	c-0.398,0-1.309-0.213-1.309-1.024c0-0.313,0.228-0.825,0.369-1.124c0.57-1.28,1.267-3.414,1.651-4.879
	c0.156-0.612,0.327-1.366,0.412-1.722c-0.811,0.029-1.636,0.029-1.906-0.128c-0.37-0.213-0.428-0.64-0.428-0.91
	c0-0.882,0.456-1.082,1.167-1.082h1.537C58.244,16.843,58.257,16.714,58.414,16.515 M64.729,28.777
	c-3.371,0-4.851-0.541-4.851-2.404c0-0.185,0.015-1.736,1.408-1.736c0.512,0,1.066,0.214,1.066,0.726
	c0,0.142-0.043,0.256-0.071,0.327c-0.085,0.227-0.1,0.284-0.1,0.412c0,0.256,0.157,0.427,0.669,0.513
	c0.384,0.07,0.867,0.085,1.195,0.085c0.399,0,1.153-0.029,2.091-0.142c0.171-0.014,0.484-0.057,0.64-0.057
	c0.64,0,0.995,0.356,0.995,1.025C67.773,28.536,67.276,28.777,64.729,28.777 M67.02,23.101c-0.186,0.156-0.385,0.185-0.712,0.185
	c-0.242,0-1.308-0.057-1.522-0.057c-0.896,0-1.28,0.029-2.632,0.128c-0.086,0.014-0.313,0.028-0.513,0.028
	c-0.938,0-0.938-0.924-0.938-1.066c0-0.441,0.185-0.854,0.853-1.01c0.896-0.199,2.561-0.242,3.513-0.242
	c2.148,0,2.305,0.356,2.305,1.237C67.376,22.518,67.276,22.902,67.02,23.101 M73.697,17.34c0,0.171-0.284,1.949-0.327,2.319
	c-0.114,1.138-0.171,2.305-0.171,3.457c0,1.252,0.071,2.561,0.242,3.812c0.043,0.313,0.085,0.726,0.085,0.896
	c0,0.683-0.412,0.981-1.082,0.981c-0.269,0-0.882-0.014-1.08-0.711c-0.214-0.725-0.356-3.059-0.356-5.079
	c0-3.086,0.398-5.533,0.498-5.875c0.1-0.384,0.342-0.882,1.309-0.754C73.512,16.486,73.697,16.828,73.697,17.34 M78.405,17.539
	c-0.015-0.398,0.015-1.195,1.138-1.195c1.138,0,1.167,0.754,1.167,1.195l0.015,1.223c0.227-0.014,1.379-0.057,1.45-0.057
	c0.284,0,1.095,0,1.095,1.081c0,0.712-0.397,0.925-0.583,0.981c-0.228,0.057-0.327,0.071-1.934,0.143l0.029,2.845
	c1.138,0.611,1.792,1.123,2.191,1.507c0.285,0.285,0.469,0.612,0.469,0.981c0,0.626-0.512,1.252-1.138,1.252
	c-0.398,0-0.541-0.157-1.024-0.698c-0.058-0.057-0.555-0.484-0.626-0.541c-0.043,0.782-0.128,2.56-3.002,2.56
	c-2.532,0-3.457-1.465-3.457-2.901c0-1.707,1.309-2.874,3.357-2.874c0.455,0,0.768,0.057,0.996,0.086l-0.057-2.134
	c-0.981,0.043-2.19,0.043-3.187,0.043c-0.356,0-1.152,0-1.152-1.082c0-0.839,0.512-0.981,0.825-1.024
	c0.171-0.014,2.831-0.071,3.457-0.071L78.405,17.539z M77.538,24.894c-0.342,0-1.408,0.07-1.408,1.066c0,0.982,1.066,1.01,1.28,1.01
	c0.313,0,0.91-0.071,1.095-0.555c0.071-0.2,0.085-0.313,0.071-1.295C78.292,24.993,78.035,24.894,77.538,24.894 M80.952,16.558
	c-0.043-0.1-0.043-0.199-0.043-0.242c0-0.37,0.384-0.455,0.555-0.455c0.241,0,0.412,0.185,0.512,0.469
	c0.242,0.626,0.426,1.138,0.426,1.452c0,0.469-0.455,0.498-0.54,0.498c-0.199,0-0.342-0.071-0.442-0.356
	c-0.029-0.1-0.199-0.612-0.228-0.711C81.152,17.112,80.994,16.685,80.952,16.558 M82.574,16.33c-0.043-0.1-0.043-0.213-0.043-0.242
	c0-0.37,0.412-0.455,0.569-0.455c0.298,0,0.412,0.242,0.568,0.612c0.157,0.384,0.356,1.01,0.356,1.308
	c0,0.469-0.484,0.483-0.555,0.483c-0.142,0-0.327-0.043-0.441-0.356c-0.028-0.1-0.186-0.597-0.214-0.697
	C82.787,16.885,82.602,16.43,82.574,16.33"/>
<g>
	<g>
		<path class="st1" d="M96.114,20.168h-4.488c0.2-0.545,0.2-0.619,0.2-0.692c0-0.43-0.504-0.514-0.765-0.514
			c-0.546,0-0.651,0.252-0.913,1.206h-2.6c-0.43,0-0.661,0.23-0.661,0.65c0,0.398,0.22,0.64,0.661,0.64h2.097
			c-0.294,0.64-0.902,1.719-1.845,2.506c-0.933,0.786-0.975,0.818-0.975,1.122c0,0.441,0.315,0.786,0.713,0.786
			c0.21,0,0.325-0.052,0.85-0.513v2.956c0,0.389,0.156,0.619,0.691,0.619c0.628,0,0.628-0.471,0.628-0.619V23.88
			c0.765-1.007,1.258-2.065,1.406-2.422h5.001c0.429,0,0.66-0.231,0.66-0.65C96.774,20.368,96.501,20.168,96.114,20.168z"/>
		<path class="st1" d="M96.103,27.266h-2.033v-2.59h1.74c0.409,0,0.65-0.21,0.65-0.64c0-0.43-0.252-0.629-0.65-0.629h-1.74v-1.08
			c0-0.461-0.252-0.629-0.723-0.629c-0.504,0-0.619,0.324-0.619,0.629v1.08h-1.75c-0.42,0-0.661,0.22-0.661,0.64
			c0,0.44,0.272,0.629,0.661,0.629h1.75v2.59h-2.076c-0.429,0-0.659,0.22-0.659,0.65c0,0.43,0.25,0.639,0.659,0.639h5.452
			c0.43,0,0.661-0.241,0.661-0.649C96.764,27.424,96.449,27.266,96.103,27.266z"/>
		<path class="st1" d="M107.79,25.107c0.293-0.031,0.503-0.136,0.503-0.577c0-0.67-0.451-0.618-0.619-0.608l-4.309,0.398v-1.153
			c1.112-0.126,1.678-0.241,2.611-0.461c0.294-0.063,0.545-0.168,0.545-0.535c0-0.22-0.115-0.681-0.566-0.681
			c-0.126,0-0.326,0.042-0.41,0.063c-2.096,0.504-3.628,0.598-5.232,0.702c-0.073,0-0.262,0.021-0.387,0.094
			c0.031-0.084,0.052-0.147,0.052-0.356v-0.608c0-0.241,0.127-0.356,0.357-0.356h6.06c0.242,0,0.356,0.125,0.356,0.356v0.597
			c0,0.409,0.126,0.64,0.682,0.64c0.587,0,0.629-0.356,0.629-0.64v-0.87c0-0.933-0.398-1.216-1.206-1.216h-2.8v-0.387
			c0-0.43-0.315-0.524-0.755-0.524c-0.366,0-0.639,0.136-0.639,0.524v0.387h-2.768c-0.797,0-1.216,0.273-1.216,1.216v0.881
			c0,0.378,0.126,0.64,0.661,0.64c0.241,0,0.345-0.052,0.429-0.094c-0.052,0.105-0.052,0.22-0.052,0.263
			c0,0.167,0.032,0.66,0.588,0.66c0.408,0,0.797-0.031,1.708-0.125v1.111l-3.029,0.283c-0.304,0.032-0.525,0.147-0.525,0.556
			c0,0.702,0.472,0.661,0.64,0.64l2.914-0.273v1.898c0,0.347,0,1.143,0.965,1.196c0.282,0.021,0.535,0.021,3.365,0.021
			c0.986,0,1.573,0,1.573-2.108c0-0.188,0-0.671-0.691-0.671c-0.608,0-0.629,0.43-0.64,0.619c-0.042,0.723-0.053,0.881-0.315,0.944
			c-0.116,0.021-1.573,0.021-1.888,0.021c-0.775,0-0.796,0-0.86-0.031c-0.084-0.042-0.157-0.115-0.157-0.367v-1.645L107.79,25.107z"
			/>
	</g>
	<g>
		<path class="st2" d="M118.323,20.735h-3.177c0.284-0.535,0.336-0.712,0.336-0.902c0-0.377-0.43-0.545-0.745-0.545
			c-0.44,0-0.513,0.178-0.902,0.954c-0.157,0.325-0.975,1.646-2.191,2.548c-0.482,0.356-0.567,0.419-0.567,0.703
			c0,0.345,0.315,0.702,0.683,0.702c0.712,0,2.033-1.468,2.558-2.181h3.093c0.262,0,0.398,0,0.398,0.199
			c0,0.273-0.324,1.143-0.598,1.688c-1.09,2.129-2.883,2.82-4.613,3.25c-0.776,0.189-0.975,0.252-0.975,0.703
			c0,0.157,0.063,0.723,0.693,0.723c0.335,0,2.579-0.43,4.246-1.74c2.402-1.898,2.81-4.78,2.81-5.179
			C119.372,21.112,119.088,20.735,118.323,20.735z"/>
		<path class="st2" d="M123.707,24.781v-4.56c0-0.504-0.273-0.672-0.745-0.672c-0.619,0-0.723,0.346-0.723,0.672v4.56
			c0,0.504,0.273,0.671,0.745,0.671C123.602,25.452,123.707,25.107,123.707,24.781z"/>
		<path class="st2" d="M128.32,19.413c-0.629,0-0.733,0.357-0.733,0.682v3.984c0,0.65-0.064,1.258-0.599,1.887
			c-0.556,0.64-1.352,0.976-3.02,1.132c-0.703,0.073-1.049,0.105-1.049,0.672c0,0.723,0.651,0.723,0.807,0.723
			c0.231,0,1.027-0.021,1.971-0.283c3.188-0.881,3.366-2.968,3.366-4.173v-3.942C129.065,19.591,128.782,19.413,128.32,19.413z"/>
		<path class="st2" d="M133.024,21.615h6.354c0.367,0,0.692-0.147,0.692-0.692c0-0.682-0.535-0.682-0.692-0.682h-6.354
			c-0.326,0-0.703,0.095-0.703,0.692C132.321,21.615,132.866,21.615,133.024,21.615z"/>
		<path class="st2" d="M140.153,26.312h-7.874c-0.419,0-0.702,0.178-0.702,0.692c0,0.681,0.525,0.681,0.702,0.681h7.874
			c0.419,0,0.693-0.178,0.693-0.692C140.845,26.323,140.321,26.312,140.153,26.312z"/>
		<path class="st2" d="M145.915,23.974c0.074,0.326,0.168,0.703,0.535,0.703c0.22,0,0.817-0.021,0.817-0.619
			c0-0.251-0.419-1.688-0.66-2.201c-0.126-0.283-0.231-0.493-0.618-0.493c-0.336,0-0.683,0.199-0.683,0.545
			c0,0.136,0.042,0.241,0.084,0.356C145.581,22.748,145.716,23.157,145.915,23.974z"/>
		<path class="st2" d="M149.637,21.667c-0.073-0.021-0.147-0.031-0.209-0.031c-0.493,0-0.577,0.367-0.64,0.651
			c-0.22,1.048-0.241,1.163-0.387,1.572c-0.85,2.464-2.738,3.093-3.576,3.345c-0.734,0.22-0.944,0.282-0.944,0.671
			c0,0.209,0.136,0.681,0.618,0.681c0.168,0,2.696-0.377,4.258-2.621c1.142-1.656,1.373-3.649,1.373-3.691
			C150.13,22.035,150.057,21.751,149.637,21.667z"/>
		<path class="st2" d="M144.95,24.529c0-0.157-0.031-0.273-0.115-0.513c-0.609-1.667-0.787-2.149-1.279-2.149
			c-0.324,0-0.702,0.199-0.702,0.566c0,0.147,0.052,0.263,0.104,0.378c0.21,0.45,0.389,0.849,0.64,1.667
			c0.116,0.367,0.21,0.672,0.577,0.672C144.405,25.149,144.95,25.054,144.95,24.529z"/>
		<path class="st2" d="M159.227,20.735h-3.177c0.282-0.535,0.335-0.712,0.335-0.902c0-0.377-0.429-0.545-0.744-0.545
			c-0.441,0-0.514,0.178-0.902,0.954c-0.157,0.325-0.974,1.646-2.191,2.548c-0.482,0.356-0.566,0.419-0.566,0.703
			c0,0.345,0.315,0.702,0.682,0.702c0.713,0,2.035-1.468,2.558-2.181h3.093c0.262,0,0.399,0,0.399,0.199
			c0,0.273-0.325,1.143-0.598,1.688c-1.09,2.129-2.884,2.82-4.613,3.25c-0.777,0.189-0.975,0.252-0.975,0.703
			c0,0.157,0.062,0.723,0.691,0.723c0.336,0,2.58-0.43,4.247-1.74c2.402-1.898,2.81-4.78,2.81-5.179
			C160.274,21.112,159.992,20.735,159.227,20.735z"/>
	</g>
</g>
<g>
	<g>
		<path class="st3" d="M82.373,6.68c0.093,0,0.437,0,0.437,0.401c0,0.408-0.344,0.408-0.437,0.408h-4.701
			c-0.186,0-0.294,0.086-0.294,0.294v4.12c0,0.201,0.1,0.287,0.294,0.287h4.844c0.093,0,0.444,0.007,0.444,0.408
			c0,0.408-0.344,0.408-0.444,0.408h-5.045c-0.638,0-0.96-0.222-0.96-0.96V7.638c0-0.746,0.323-0.96,0.96-0.96h4.902V6.68z
			 M82.237,9.561c0.1,0,0.387,0,0.387,0.373s-0.287,0.373-0.387,0.373h-1.512c0.423,0.451,0.688,0.681,1.562,0.953
			c0.143,0.043,0.301,0.1,0.301,0.358c0,0.158-0.086,0.458-0.401,0.458c-0.251,0-1.505-0.401-2.107-1.44
			c-0.688,1.175-1.77,1.426-1.964,1.426c-0.315,0-0.408-0.301-0.408-0.458c0-0.251,0.186-0.308,0.308-0.344
			c0.444-0.136,1.018-0.323,1.383-0.953h-1.44c-0.108,0-0.38,0-0.38-0.365c0-0.358,0.229-0.38,0.38-0.38h1.677
			c0-0.007,0.022-0.179,0.022-0.251V8.873h-0.774c-0.394,0.573-0.552,0.623-0.702,0.623c-0.215,0-0.451-0.186-0.451-0.43
			c0-0.15,0.036-0.179,0.344-0.509c0.208-0.215,0.351-0.466,0.53-0.781c0.086-0.158,0.193-0.28,0.38-0.28
			c0.165,0,0.43,0.1,0.43,0.373c0,0.1-0.029,0.172-0.079,0.265h2.609c0.093,0,0.387,0,0.387,0.365c0,0.373-0.287,0.373-0.387,0.373
			h-1.469v0.437c0,0.1-0.015,0.201-0.022,0.251L82.237,9.561L82.237,9.561z"/>
		<path class="st3" d="M90.281,10.893c0,0.15,0,0.358-0.158,0.523c-0.179,0.186-0.401,0.186-0.552,0.186h-0.738v0.746
			c0,0.746-0.193,0.81-0.953,0.81c-0.458,0-0.716,0-0.716-0.394c0-0.229,0.122-0.358,0.351-0.358c0.029,0,0.272,0.007,0.294,0.007
			c0.136,0,0.165-0.05,0.165-0.193v-0.616h-0.76c-0.666,0-0.702-0.437-0.702-0.702v-0.48c-0.05,0.029-0.129,0.065-0.215,0.065
			c-0.193,0-0.337-0.186-0.358-0.38c-0.029,0.688-0.15,1.662-0.538,2.436c-0.265,0.53-0.394,0.588-0.581,0.588
			c-0.236,0-0.466-0.186-0.466-0.394c0-0.129,0.058-0.243,0.122-0.373c0.373-0.731,0.488-0.953,0.595-1.627
			c-0.136,0.1-0.408,0.287-0.588,0.287c-0.301,0-0.358-0.394-0.358-0.509c0-0.265,0.179-0.337,0.33-0.394
			c0.186-0.072,0.43-0.186,0.695-0.344V9.058c-0.05,0.029-0.143,0.079-0.273,0.079c-0.215,0-0.251-0.122-0.365-0.43
			c-0.093-0.258-0.136-0.344-0.265-0.602c-0.015-0.036-0.05-0.122-0.05-0.222c0-0.222,0.236-0.373,0.423-0.373
			c0.215,0,0.294,0.172,0.53,0.709V7.783c0-0.645,0.287-0.824,0.831-0.824h1.541V6.737c0-0.315,0.294-0.351,0.423-0.351
			c0.215,0,0.458,0.057,0.458,0.351v0.222h2.143c0.165,0,0.423,0.036,0.423,0.344c0,0.265-0.165,0.358-0.423,0.358h-2.229
			c0.136,0.057,0.229,0.129,0.201,0.337h2.057c0.143,0,0.358,0.007,0.358,0.337c0,0.323-0.193,0.351-0.358,0.351h-1.197
			c0.323,0.344,0.358,0.38,0.48,0.48c0.05-0.057,0.251-0.323,0.301-0.373c0.057-0.058,0.122-0.065,0.186-0.065
			c0.172,0,0.387,0.129,0.387,0.294c0,0.136-0.236,0.387-0.351,0.508c0.072,0.036,0.387,0.208,0.451,0.251
			c0.136,0.086,0.15,0.158,0.15,0.251c0,0.208-0.136,0.437-0.387,0.437c-0.115,0-0.201-0.036-0.315-0.108L90.281,10.893
			L90.281,10.893z M86.799,12.642c-0.222,0.15-0.616,0.394-0.817,0.394c-0.273,0-0.365-0.258-0.365-0.387
			c0-0.193,0.065-0.222,0.501-0.451c0.28-0.143,0.373-0.215,0.666-0.423c0.093-0.072,0.165-0.1,0.265-0.1
			c0.201,0,0.373,0.165,0.373,0.38C87.422,12.19,87.278,12.327,86.799,12.642z M85.945,10.012c0.022-0.122,0.122-0.201,0.143-0.215
			c0.108-0.086,0.294-0.193,0.401-0.273c-0.086-0.093-0.186-0.201-0.272-0.287c-0.072-0.079-0.1-0.129-0.1-0.201
			c0-0.165,0.208-0.315,0.373-0.315c0.1,0,0.179,0.043,0.502,0.408c0.143-0.136,0.272-0.28,0.387-0.444H86.39
			c-0.215,0-0.358-0.065-0.358-0.358c0-0.294,0.193-0.33,0.358-0.33h1.354c0.1-0.265,0.115-0.294,0.172-0.337h-1.72
			c-0.172,0-0.251,0.086-0.251,0.243L85.945,10.012L85.945,10.012z M87.35,10.198h2.114v-0.143c0-0.1-0.043-0.172-0.172-0.172h-1.77
			c-0.143,0-0.172,0.079-0.172,0.172V10.198z M87.35,10.721v0.15c0,0.1,0.036,0.179,0.172,0.179h1.77
			c0.143,0,0.172-0.093,0.172-0.179v-0.15H87.35z M89.063,9.331c-0.301-0.33-0.394-0.502-0.466-0.645h-0.38
			c-0.1,0.165-0.222,0.365-0.451,0.645H89.063z M89.629,11.675c0.1,0,0.129,0.015,0.366,0.186c0.273,0.193,0.53,0.33,0.817,0.48
			c0.086,0.05,0.172,0.122,0.172,0.273c0,0.165-0.129,0.416-0.401,0.416c-0.172,0-0.566-0.251-0.753-0.373
			c-0.201-0.129-0.573-0.373-0.573-0.595C89.257,11.832,89.45,11.675,89.629,11.675z"/>
		<path class="st3" d="M93.67,11.89c-0.616,1.233-0.724,1.233-0.896,1.233c-0.229,0-0.48-0.186-0.48-0.423
			c0-0.165,0.057-0.251,0.358-0.731c0.287-0.444,0.495-0.91,0.731-1.426c0.05-0.115,0.122-0.258,0.344-0.258
			c0.179,0,0.43,0.129,0.43,0.387C94.157,10.915,93.814,11.61,93.67,11.89z M92.725,8.35c0.215,0,0.581,0.251,0.838,0.43
			c0.416,0.287,0.473,0.394,0.473,0.53c0,0.208-0.193,0.488-0.444,0.488c-0.122,0-0.172-0.036-0.595-0.351
			c-0.079-0.057-0.43-0.287-0.501-0.337c-0.129-0.086-0.172-0.143-0.172-0.337C92.323,8.593,92.51,8.35,92.725,8.35z M92.925,6.486
			c0.2,0,0.602,0.251,0.831,0.394c0.423,0.258,0.523,0.337,0.523,0.538c0,0.236-0.2,0.502-0.43,0.502
			c-0.122,0-0.15-0.022-0.588-0.315c-0.093-0.058-0.508-0.301-0.588-0.358c-0.072-0.043-0.165-0.108-0.165-0.308
			C92.51,6.744,92.695,6.486,92.925,6.486z M94.609,10.155c-0.129,0-0.437-0.007-0.437-0.416c0-0.351,0.222-0.416,0.437-0.416h1.555
			V8.234h-1.269c-0.108,0-0.444,0-0.444-0.401c0-0.323,0.143-0.444,0.444-0.444h1.269V6.858c0-0.165,0.029-0.437,0.416-0.437
			c0.315,0,0.473,0.093,0.473,0.437v0.531h1.333c0.108,0,0.437,0,0.437,0.401c0,0.337-0.157,0.444-0.437,0.444h-1.333v1.089h1.569
			c0.108,0,0.437,0,0.437,0.394c0,0.323-0.15,0.437-0.437,0.437h-2.157c-0.273,0.753-0.652,1.577-0.817,1.92
			c0.796-0.043,1.011-0.057,1.964-0.15c-0.15-0.251-0.179-0.301-0.451-0.702c-0.093-0.136-0.108-0.215-0.108-0.287
			c0-0.251,0.265-0.387,0.444-0.387c0.186,0,0.294,0.072,0.602,0.509c0.179,0.265,0.437,0.645,0.695,1.111
			c0.158,0.287,0.215,0.423,0.215,0.552c0,0.243-0.243,0.43-0.502,0.43c-0.243,0-0.33-0.158-0.366-0.236
			c-0.022-0.036-0.108-0.215-0.122-0.251c-1.548,0.222-3.447,0.323-3.533,0.323s-0.43,0-0.43-0.444c0-0.158,0.065-0.294,0.201-0.373
			c0.065-0.036,0.108-0.043,0.416-0.05c0.308-0.638,0.609-1.29,0.817-1.963C95.491,10.155,94.609,10.155,94.609,10.155z"/>
		<path class="st3" d="M103.236,6.902c0-0.129,0-0.466,0.495-0.466s0.502,0.323,0.502,0.466V7.59c0,0.545,0.086,2.057,0.932,3.196
			c0.416,0.566,0.967,1.018,1.584,1.347c0.172,0.093,0.344,0.193,0.344,0.444c0,0.201-0.165,0.545-0.523,0.545
			c-0.351,0-1.226-0.724-1.691-1.24c-0.573-0.631-0.931-1.419-1.139-2.243c-0.337,1.29-0.839,1.928-1.297,2.401
			c-0.408,0.423-1.189,1.082-1.548,1.082c-0.301,0-0.516-0.294-0.516-0.552c0-0.229,0.129-0.315,0.265-0.394
			c0.932-0.53,1.978-1.247,2.444-3.182c0.072-0.308,0.15-1.29,0.15-1.405L103.236,6.902L103.236,6.902z"/>
		<path class="st3" d="M109.995,7.489c0.366,0,0.652,0.136,0.652,0.595c0,0.308-0.093,0.638-0.638,1.383
			c0.165,0.186,0.301,0.315,0.545,0.545c0.287,0.265,0.344,0.315,0.344,0.466c0,0.2-0.186,0.444-0.423,0.444
			c-0.251,0-0.488-0.33-0.674-0.588v2.429c0,0.351-0.165,0.437-0.488,0.437c-0.373,0-0.408-0.251-0.408-0.437V10.65
			c-0.294,0.236-0.437,0.358-0.645,0.358c-0.229,0-0.458-0.251-0.458-0.509c0-0.243,0.108-0.315,0.645-0.695
			c0.788-0.552,1.197-1.29,1.197-1.376c0-0.108-0.108-0.115-0.172-0.115h-1.161c-0.208,0-0.437-0.057-0.437-0.416
			c0-0.408,0.323-0.408,0.437-0.408h0.588V6.845c0-0.33,0.15-0.444,0.48-0.444c0.401,0,0.423,0.301,0.423,0.444v0.645
			C109.802,7.489,109.995,7.489,109.995,7.489z M114.022,8.314c0.122,0,0.466,0,0.466,0.416c0,0.337-0.129,0.48-0.466,0.48h-1.025
			v2.888h1.146c0.115,0,0.458,0,0.458,0.408c0,0.33-0.129,0.473-0.458,0.473h-3.289c-0.129,0-0.509,0-0.509-0.416
			c0-0.351,0.165-0.466,0.509-0.466h1.226V9.209h-0.974c-0.115,0-0.451,0-0.451-0.423c0-0.351,0.15-0.473,0.451-0.473h0.974V6.858
			c0-0.165,0.022-0.444,0.423-0.444c0.358,0,0.495,0.122,0.495,0.444v1.455L114.022,8.314L114.022,8.314z"/>
		<path class="st3" d="M122.243,12.047c0,0.738-0.323,0.96-0.96,0.96h-4.257c-0.638,0-0.96-0.215-0.96-0.96V7.64
			c0-0.738,0.315-0.96,0.96-0.96h4.257c0.638,0,0.96,0.222,0.96,0.96V12.047z M121.369,7.805c0-0.208-0.115-0.294-0.287-0.294
			h-3.841c-0.208,0-0.287,0.122-0.287,0.294v4.077c0,0.193,0.093,0.294,0.287,0.294h3.841c0.186,0,0.287-0.093,0.287-0.294V7.805z
			 M120.545,11.259c0,0.81-0.229,0.81-1.247,0.81c-0.33,0-0.573,0-0.573-0.38c0-0.373,0.265-0.373,0.365-0.373
			c0.058,0,0.308,0.015,0.358,0.015c0.229,0,0.258-0.1,0.258-0.229V9.166h-2.308c-0.15,0-0.408,0-0.408-0.365
			c0-0.344,0.15-0.408,0.408-0.408h2.308V7.927c0-0.287,0.122-0.408,0.394-0.408c0.287,0,0.444,0.072,0.444,0.408v0.466h0.373
			c0.15,0,0.408,0.007,0.408,0.373c0,0.344-0.143,0.401-0.408,0.401h-0.373V11.259z M118.553,10.027
			c0.136,0.193,0.365,0.523,0.365,0.716c0,0.294-0.323,0.416-0.48,0.416c-0.186,0-0.243-0.1-0.451-0.451
			c-0.1-0.172-0.179-0.28-0.401-0.595c-0.065-0.086-0.15-0.208-0.15-0.337c0-0.215,0.236-0.365,0.43-0.365
			C118.022,9.41,118.115,9.41,118.553,10.027z"/>
	</g>
	
		<linearGradient id="SVGID_00000114785995202333413690000016839655602906440877_" gradientUnits="userSpaceOnUse" x1="126.8892" y1="23.9847" x2="149.8372" y2="23.9847" gradientTransform="matrix(1 0 0 -1 0 33.7638)">
		<stop  offset="0" style="stop-color:#8AC23E"/>
		<stop  offset="1" style="stop-color:#28AC4B"/>
	</linearGradient>
	<path style="fill:url(#SVGID_00000114785995202333413690000016839655602906440877_);" d="M133.237,7.016
		c0.108,0,0.437,0,0.437,0.38c0,0.287-0.122,0.423-0.437,0.423h-2.508v1.555c0,0.924,0.273,1.648,1.032,2.229
		c0.466,0.351,1.061,0.516,1.527,0.638c0.236,0.065,0.351,0.143,0.351,0.38c0,0.143-0.065,0.531-0.451,0.531
		c-0.488,0-2.286-0.702-2.888-2.1c-0.093,0.236-0.273,0.681-0.989,1.254c-0.716,0.566-1.584,0.86-1.899,0.86
		c-0.408,0-0.458-0.408-0.458-0.523c0-0.28,0.179-0.351,0.351-0.394c1.469-0.387,2.544-0.989,2.544-3.031V7.819h-2.53
		c-0.143,0-0.43-0.022-0.43-0.401c0-0.323,0.193-0.401,0.43-0.401h2.53V6.751c0-0.229,0.122-0.358,0.408-0.358
		c0.273,0,0.473,0.057,0.473,0.358v0.265C130.73,7.016,133.237,7.016,133.237,7.016z M129.533,9.969
		c0,0.186-0.179,0.337-0.538,0.616c0.208,0.193,0.28,0.273,0.28,0.408c0,0.236-0.258,0.423-0.43,0.423
		c-0.122,0-0.193-0.079-0.28-0.179c-0.043-0.05-0.086-0.093-0.208-0.222c-0.358,0.201-0.846,0.416-1.025,0.416
		c-0.28,0-0.358-0.273-0.358-0.408c0-0.193,0.129-0.265,0.273-0.323c0.337-0.136,0.373-0.15,0.516-0.215
		c-0.065-0.05-0.337-0.251-0.394-0.294c-0.05-0.043-0.1-0.1-0.1-0.201c0-0.172,0.165-0.351,0.387-0.351c0.093,0,0.179,0,0.76,0.451
		c0.115-0.079,0.223-0.172,0.43-0.358c0.058-0.05,0.122-0.115,0.251-0.129c-0.086,0.007-0.143-0.007-0.215-0.05
		c-0.079-0.05-0.394-0.323-0.458-0.38c-0.401,0.258-0.924,0.502-1.097,0.502c-0.236,0-0.33-0.251-0.33-0.394
		c0-0.186,0.136-0.243,0.236-0.287c0.416-0.172,0.458-0.186,0.573-0.251c-0.444-0.273-0.538-0.337-0.538-0.473
		c0-0.193,0.165-0.344,0.366-0.344c0.108,0,0.179,0.029,0.322,0.108c0.129,0.079,0.337,0.201,0.509,0.315
		c0.065-0.05,0.273-0.222,0.408-0.344c0.086-0.072,0.136-0.1,0.229-0.1c0.2,0,0.351,0.172,0.351,0.33
		c0,0.165-0.122,0.265-0.416,0.502c0.373,0.28,0.423,0.337,0.423,0.48c0,0.158-0.129,0.351-0.358,0.387
		C129.354,9.589,129.533,9.783,129.533,9.969z M133.36,9.166c0,0.193-0.186,0.394-0.38,0.394c-0.1,0-0.158-0.043-0.243-0.115
		c-0.215-0.201-0.251-0.215-0.344-0.287c-0.387,0.243-0.939,0.516-1.125,0.516c-0.265,0-0.344-0.28-0.344-0.394
		c0-0.201,0.165-0.273,0.28-0.315c0.315-0.129,0.351-0.136,0.559-0.243c-0.079-0.043-0.423-0.229-0.488-0.273
		c-0.036-0.029-0.136-0.093-0.136-0.222c0-0.136,0.136-0.323,0.373-0.323c0.193,0,0.666,0.294,0.874,0.43
		c0.093-0.065,0.122-0.093,0.394-0.323c0.086-0.079,0.165-0.093,0.229-0.093c0.208,0,0.365,0.186,0.365,0.337
		s-0.122,0.251-0.387,0.473C133.288,8.951,133.36,9.031,133.36,9.166z M132.865,9.682c0.086-0.086,0.165-0.122,0.258-0.122
		c0.208,0,0.38,0.172,0.38,0.351c0,0.165-0.129,0.287-0.466,0.588c0.373,0.308,0.466,0.387,0.466,0.573
		c0,0.236-0.251,0.38-0.401,0.38c-0.1,0-0.158-0.036-0.265-0.129c-0.215-0.193-0.222-0.201-0.416-0.358
		c-0.186,0.122-0.631,0.373-0.81,0.373c-0.222,0-0.366-0.236-0.366-0.416c0-0.172,0.115-0.236,0.179-0.273
		c0.057-0.029,0.315-0.143,0.366-0.165c-0.058-0.043-0.093-0.072-0.366-0.236c-0.079-0.05-0.186-0.136-0.186-0.287
		c0-0.172,0.179-0.358,0.387-0.358c0.172,0,0.624,0.301,0.839,0.451C132.586,9.955,132.614,9.933,132.865,9.682z M135.876,8.966
		c-0.122-0.158-0.229-0.287-0.523-0.581c-0.287-0.287-0.323-0.33-0.323-0.508c0-0.179,0.15-0.401,0.366-0.401
		c0.079,0,0.122,0.022,0.165,0.05c0.122-0.208,0.265-0.437,0.387-0.716c0.115-0.251,0.165-0.38,0.366-0.38
		c0.179,0,0.466,0.136,0.466,0.344c0,0.229-0.43,0.91-0.666,1.261c0.115,0.122,0.129,0.136,0.223,0.243
		c0.215-0.337,0.229-0.365,0.552-0.953c0.065-0.108,0.158-0.208,0.287-0.208c0.2,0,0.458,0.165,0.458,0.373
		c0,0.129-0.236,0.488-0.344,0.659c-0.394,0.602-0.623,0.881-0.939,1.283c0.136-0.007,0.193-0.007,0.659-0.043
		c-0.108-0.315-0.115-0.351-0.115-0.416c0-0.172,0.158-0.243,0.28-0.243c0.186,0,0.236,0.143,0.301,0.301
		c0.093,0.236,0.258,0.774,0.287,0.874c0.136-0.193,0.287-0.193,0.315-0.193c0.093,0,0.172,0.022,0.531,0.365
		c0.1,0.1,0.358,0.351,0.358,0.552c0,0.15-0.143,0.365-0.387,0.365c-0.108,0-0.129-0.022-0.351-0.251
		c-0.065-0.065-0.394-0.387-0.458-0.473c-0.065,0.1-0.186,0.143-0.301,0.143c-0.201,0-0.236-0.15-0.287-0.337
		c-0.065,0.007-0.1,0.015-0.416,0.05v2.694c0,0.1,0,0.38-0.344,0.38s-0.344-0.287-0.344-0.38v-2.623
		c-0.43,0.043-0.559,0.057-0.731,0.057c-0.2,0-0.38-0.1-0.38-0.416c0-0.358,0.222-0.358,0.545-0.373L135.876,8.966z M135.861,10.865
		c0,0.136-0.057,1.118-0.193,1.605c-0.029,0.108-0.086,0.251-0.287,0.251c-0.036,0-0.38,0-0.38-0.315
		c0-0.093,0.093-0.508,0.108-0.588c0.065-0.373,0.086-0.631,0.115-1.003c0.015-0.165,0.05-0.315,0.301-0.315
		C135.861,10.5,135.861,10.743,135.861,10.865z M138.334,11.302c0.251-0.172,0.315-0.186,0.38-0.186
		c0.193,0,0.337,0.201,0.337,0.408c0,0.186-0.079,0.251-0.509,0.573c-0.193,0.143-0.695,0.495-0.874,0.495
		c-0.2,0-0.365-0.222-0.365-0.444c0-0.057,0.007-0.093,0.022-0.129c-0.251-0.022-0.258-0.108-0.308-0.566
		c-0.007-0.1-0.079-0.609-0.079-0.623c0-0.222,0.243-0.258,0.33-0.258c0.251,0,0.272,0.115,0.344,0.509
		c0.007,0.036,0.086,0.444,0.086,0.631C137.933,11.582,138.241,11.366,138.334,11.302z M140.004,12.348
		c0,0.681-0.143,0.803-0.846,0.803c-0.458,0-0.495,0-0.538-0.007c-0.208-0.036-0.315-0.229-0.315-0.423
		c0-0.186,0.065-0.416,0.373-0.416c0.058,0,0.287,0.015,0.33,0.007c0.108-0.015,0.158-0.058,0.158-0.222V9.539h-1.19
		c-0.1,0-0.365,0-0.365-0.351c0-0.273,0.1-0.387,0.365-0.387h2.379V8.414h-2.035c-0.108,0-0.351-0.007-0.351-0.33
		c0-0.294,0.186-0.33,0.351-0.33h2.035V7.54c0-0.072-0.022-0.172-0.172-0.172h-1.97c-0.1,0-0.358,0-0.358-0.344
		c0-0.265,0.086-0.387,0.358-0.387h2.243c0.495,0,0.753,0.172,0.753,0.774V8.83h0.208c0.208,0,0.323,0.129,0.323,0.351
		c0,0.344-0.236,0.358-0.366,0.358h-1.369v0.38c0.086,0.208,0.236,0.473,0.308,0.595c0.122-0.108,0.33-0.301,0.538-0.552
		c0.165-0.208,0.229-0.265,0.373-0.265c0.229,0,0.401,0.201,0.401,0.38c0,0.136-0.05,0.236-0.172,0.387
		c-0.273,0.323-0.516,0.545-0.688,0.695c0.179,0.215,0.33,0.365,0.48,0.488c0.38,0.315,0.488,0.401,0.488,0.595
		c0,0.215-0.201,0.466-0.444,0.466c-0.287,0-0.896-0.674-1.283-1.376v1.017H140.004z M144.95,9.131c-0.265,0-0.408-0.093-0.43-0.358
		c-0.28,0.165-0.803,0.466-1.054,0.466c-0.229,0-0.437-0.236-0.437-0.538c0-0.273,0.172-0.358,0.387-0.437
		c1.082-0.408,1.712-1.011,2.243-1.519c0.287-0.28,0.401-0.387,0.774-0.387s0.466,0.1,0.881,0.502
		c0.394,0.394,0.982,0.953,2.164,1.433c0.215,0.086,0.358,0.165,0.358,0.423c0,0.287-0.208,0.53-0.458,0.53
		c-0.229,0-0.746-0.294-1.011-0.458c-0.036,0.308-0.243,0.344-0.437,0.344L144.95,9.131L144.95,9.131z M145.938,10.636
		c-0.172,0.416-0.33,0.753-0.709,1.426c1.018-0.036,1.189-0.05,2.688-0.136c-0.108-0.136-0.143-0.172-0.423-0.48
		c-0.158-0.172-0.186-0.258-0.186-0.351c0-0.215,0.265-0.408,0.495-0.408c0.122,0,0.229,0.05,0.365,0.186
		c0.287,0.28,0.616,0.638,0.953,1.068c0.344,0.43,0.423,0.566,0.423,0.724c0,0.251-0.308,0.473-0.559,0.473
		c-0.165,0-0.243-0.093-0.287-0.158c-0.029-0.043-0.179-0.273-0.215-0.323c-0.746,0.086-1.519,0.143-2.279,0.193
		c-0.358,0.029-2.208,0.136-2.494,0.136c-0.115,0-0.444,0-0.444-0.458c0-0.065,0-0.387,0.323-0.416
		c0.065-0.007,0.566-0.022,0.674-0.022c0.258-0.473,0.516-0.946,0.688-1.455h-1.326c-0.301,0-0.437-0.136-0.437-0.451
		c0-0.401,0.337-0.401,0.437-0.401h5.604c0.294,0,0.437,0.122,0.437,0.444c0,0.408-0.337,0.408-0.437,0.408L145.938,10.636
		L145.938,10.636z M147.694,8.335c-0.223-0.165-0.645-0.488-1.054-0.946c-0.108-0.115-0.136-0.143-0.201-0.143
		s-0.093,0.029-0.2,0.143c-0.323,0.351-0.674,0.666-1.054,0.946H147.694z"/>
</g>
<path class="st5" d="M6.194,4.148c0.197,5.228,4.374,9.436,9.59,9.679C15.588,8.599,11.41,4.391,6.194,4.148"/>
<path class="st6" d="M30.846,0c-7.775,0.57-16.656,7.159-13.708,23.978c0-5.405,0.81-8.689,1.449-10.295
	C25.353,12.683,30.583,6.98,30.846,0"/>
<path class="st3" d="M9.641,30.059c0.18,0,0.25,0.006,0.332,0.049c0.107,0.055,0.18,0.18,0.18,0.33c0,0.149-0.073,0.274-0.18,0.329
	c-0.082,0.043-0.152,0.049-0.332,0.049H8.41v1.214c0,0.199-0.006,0.268-0.058,0.372c-0.064,0.119-0.202,0.202-0.368,0.202
	c-0.168,0-0.305-0.083-0.369-0.202c-0.052-0.104-0.058-0.174-0.058-0.372v-3.275c0-0.125,0-0.281,0.119-0.4
	c0.119-0.119,0.275-0.119,0.4-0.119h1.863c0.18,0,0.25,0.006,0.332,0.049c0.107,0.055,0.18,0.18,0.18,0.329
	c0,0.149-0.073,0.274-0.18,0.33c-0.082,0.043-0.152,0.049-0.332,0.049H8.41v1.067h1.232V30.059z"/>
<path class="st3" d="M12.253,32.614c-0.317,0-0.573-0.104-0.75-0.28c-0.256-0.256-0.323-0.556-0.323-0.903v-1.512
	c0-0.192,0.009-0.269,0.052-0.354c0.058-0.116,0.183-0.189,0.345-0.189c0.161,0,0.286,0.073,0.344,0.189
	c0.043,0.086,0.052,0.162,0.052,0.354v1.403c0,0.43,0.275,0.573,0.524,0.573c0.251,0,0.531-0.143,0.531-0.573v-1.403
	c0-0.192,0.009-0.269,0.052-0.354c0.058-0.116,0.183-0.189,0.345-0.189c0.161,0,0.286,0.073,0.344,0.189
	c0.043,0.086,0.052,0.162,0.052,0.354v2.143c0,0.204-0.01,0.265-0.059,0.356c-0.058,0.11-0.192,0.183-0.341,0.183
	c-0.107,0-0.192-0.033-0.253-0.091c-0.064-0.058-0.094-0.125-0.119-0.231C12.848,32.501,12.546,32.614,12.253,32.614"/>
<path class="st3" d="M15.17,30.102h-0.079c-0.149,0-0.204-0.009-0.269-0.043c-0.094-0.049-0.146-0.143-0.146-0.263
	c0-0.118,0.052-0.213,0.146-0.262c0.064-0.034,0.119-0.043,0.269-0.043h0.079v-0.423c0-0.192,0.009-0.269,0.052-0.354
	c0.058-0.116,0.183-0.189,0.345-0.189c0.162,0,0.286,0.073,0.345,0.189c0.043,0.086,0.052,0.162,0.052,0.354v0.423h0.238
	c0.15,0,0.204,0.009,0.269,0.043c0.094,0.049,0.146,0.144,0.146,0.262c0,0.119-0.052,0.214-0.146,0.263
	c-0.064,0.034-0.119,0.043-0.269,0.043h-0.238v1.524c0,0.15,0.054,0.269,0.256,0.281c0.101,0.006,0.171,0.015,0.238,0.049
	c0.098,0.048,0.158,0.14,0.158,0.284c0,0.14-0.064,0.234-0.158,0.283c-0.07,0.037-0.174,0.055-0.326,0.055h-0.043
	c-0.659,0-0.918-0.445-0.918-0.909L15.17,30.102L15.17,30.102z"/>
<path class="st3" d="M18.053,30.187c-0.104,0.061-0.192,0.083-0.262,0.083c-0.08,0-0.168-0.034-0.226-0.107
	c-0.063-0.076-0.089-0.146-0.089-0.238c0-0.176,0.15-0.302,0.296-0.377c0.231-0.122,0.481-0.183,0.801-0.183
	c0.884,0,1.339,0.378,1.339,1.122v1.576c0,0.204-0.009,0.266-0.059,0.357c-0.058,0.11-0.192,0.183-0.341,0.183
	c-0.107,0-0.192-0.034-0.253-0.091c-0.061-0.055-0.091-0.116-0.116-0.21c-0.232,0.226-0.424,0.314-0.786,0.314
	c-0.36,0-0.628-0.1-0.811-0.286c-0.168-0.168-0.263-0.433-0.263-0.714c0-0.506,0.348-0.921,1.098-0.921h0.738v-0.158
	c0-0.348-0.182-0.5-0.558-0.5C18.373,30.035,18.226,30.084,18.053,30.187 M19.12,31.236h-0.603c-0.317,0-0.47,0.128-0.47,0.366
	c0,0.219,0.152,0.359,0.482,0.359c0.195,0,0.336-0.024,0.469-0.153c0.095-0.088,0.122-0.197,0.122-0.402V31.236z"/>
<path class="st3" d="M21.074,28.754c0-0.192,0.009-0.268,0.052-0.354c0.058-0.116,0.182-0.189,0.344-0.189s0.287,0.073,0.344,0.189
	c0.043,0.086,0.052,0.162,0.052,0.354v0.927c0.201-0.232,0.445-0.317,0.768-0.317c0.317,0,0.591,0.104,0.768,0.286
	c0.305,0.311,0.33,0.805,0.33,1.336c0,0.537-0.024,1.031-0.33,1.342c-0.177,0.182-0.46,0.286-0.771,0.286
	c-0.338,0-0.573-0.089-0.789-0.329c-0.024,0.104-0.055,0.171-0.116,0.225c-0.061,0.058-0.146,0.091-0.253,0.091
	c-0.149,0-0.284-0.073-0.341-0.183c-0.049-0.091-0.058-0.153-0.058-0.356L21.074,28.754L21.074,28.754z M22.403,30.084
	c-0.475,0-0.536,0.393-0.536,0.902c0,0.509,0.061,0.909,0.542,0.909c0.47,0,0.531-0.4,0.531-0.909
	C22.939,30.476,22.879,30.084,22.403,30.084"/>
<path class="st3" d="M25.326,30.187c-0.104,0.061-0.192,0.083-0.262,0.083c-0.08,0-0.168-0.034-0.226-0.107
	c-0.064-0.076-0.089-0.146-0.089-0.238c0-0.176,0.15-0.302,0.296-0.377c0.232-0.122,0.481-0.183,0.801-0.183
	c0.884,0,1.339,0.378,1.339,1.122v1.576c0,0.204-0.009,0.266-0.059,0.357c-0.058,0.11-0.192,0.183-0.341,0.183
	c-0.107,0-0.192-0.034-0.253-0.091c-0.061-0.055-0.091-0.116-0.116-0.21c-0.232,0.226-0.424,0.314-0.787,0.314
	c-0.36,0-0.628-0.1-0.811-0.286c-0.168-0.168-0.263-0.433-0.263-0.714c0-0.506,0.348-0.921,1.098-0.921h0.738v-0.158
	c0-0.348-0.182-0.5-0.558-0.5C25.646,30.035,25.5,30.084,25.326,30.187 M26.393,31.236h-0.603c-0.317,0-0.47,0.128-0.47,0.366
	c0,0.219,0.152,0.359,0.482,0.359c0.195,0,0.336-0.024,0.469-0.153c0.095-0.088,0.122-0.197,0.122-0.402V31.236z"/>
<g>
	<g>
		<defs>
			<path id="SVGID_00000104675445542931762180000001462838227151965850_" d="M28.705,12.84c-0.603-1.718-1.505-0.543-1.457,0.584
				c-0.58-0.918-1.047-0.029-1.047,1.095c-1.015-1.163-0.74,1.74-0.74,2.545c1.965-2.062,3.653-1.722,4.048-0.877
				c0.687,1.472-1.96,4.359-3.114,5.42c-0.749,0.69-1.8,0.75-0.314-0.663c0.223-0.211,0.767-0.736,1.521-1.643
				c2.946-3.536,0.22-3.688-1.32-2.191c-1.303,1.266-1.981,2.319-4.968,3.684c-1.291,0.589-2.025,1.527-1.947,3.272
				c0.053,1.169,1.721,3.944,5.196,1.71c3.331-2.143,4.804-3.492,6.134-5.868c1.351-2.41-0.052-5.799-0.278-6.492
				c-0.358-1.096-0.771-1.516-1.104-1.516C28.996,11.902,28.752,12.291,28.705,12.84"/>
		</defs>
		<clipPath id="SVGID_00000161631403321231585040000014535861803925365384_">
			<use xlink:href="#SVGID_00000104675445542931762180000001462838227151965850_"  style="overflow:visible;"/>
		</clipPath>
		
			<linearGradient id="SVGID_00000067218683147759657350000008347321533716793505_" gradientUnits="userSpaceOnUse" x1="-277.202" y1="-195.7452" x2="-276.8512" y2="-195.7452" gradientTransform="matrix(40.7752 -7.1898 -7.1898 -40.7752 9912.7256 -9953.4941)">
			<stop  offset="0" style="stop-color:#FFF3E1"/>
			<stop  offset="0.1341" style="stop-color:#FFF0D8"/>
			<stop  offset="0.3527" style="stop-color:#FEE7C0"/>
			<stop  offset="0.6287" style="stop-color:#FCD998"/>
			<stop  offset="0.9484" style="stop-color:#F9C562"/>
			<stop  offset="1" style="stop-color:#F9C258"/>
		</linearGradient>
		
			<polygon style="clip-path:url(#SVGID_00000161631403321231585040000014535861803925365384_);fill:url(#SVGID_00000067218683147759657350000008347321533716793505_);" points="
			19.721,30.195 34.983,27.503 31.71,8.94 16.448,11.631 		"/>
	</g>
</g>
<g>
	<g>
		<defs>
			<path id="SVGID_00000123440652587682663010000006826494645245085335_" d="M5.571,12.84c0.603-1.718,1.505-0.543,1.457,0.584
				c0.58-0.918,1.047-0.029,1.047,1.095c1.015-1.163,0.74,1.74,0.74,2.545c-1.965-2.062-3.653-1.722-4.048-0.877
				c-0.687,1.472,1.96,4.359,3.114,5.42c0.749,0.69,1.8,0.75,0.314-0.663c-0.223-0.211-0.767-0.736-1.521-1.643
				c-2.946-3.536-0.22-3.688,1.32-2.191c1.303,1.266,1.981,2.319,4.968,3.684c1.291,0.589,2.025,1.527,1.947,3.272
				c-0.053,1.169-1.721,3.944-5.196,1.71c-3.331-2.143-4.804-3.492-6.134-5.868c-1.351-2.41,0.052-5.799,0.278-6.492
				C4.216,12.321,4.629,11.9,4.962,11.9C5.28,11.902,5.523,12.291,5.571,12.84"/>
		</defs>
		<clipPath id="SVGID_00000145753035725341272030000013715155663346146986_">
			<use xlink:href="#SVGID_00000123440652587682663010000006826494645245085335_"  style="overflow:visible;"/>
		</clipPath>
		
			<linearGradient id="SVGID_00000055685748535040894190000015258167411377419905_" gradientUnits="userSpaceOnUse" x1="-272.5773" y1="-177.2796" x2="-272.2147" y2="-177.2796" gradientTransform="matrix(36.5262 6.4406 -6.4406 36.5262 8817.0566 8249.4316)">
			<stop  offset="0" style="stop-color:#F09BA7"/>
			<stop  offset="0.0935" style="stop-color:#F1A5B0"/>
			<stop  offset="0.4902" style="stop-color:#F7CDD2"/>
			<stop  offset="0.8062" style="stop-color:#FBE5E6"/>
			<stop  offset="1" style="stop-color:#FCEEEE"/>
		</linearGradient>
		
			<polygon style="clip-path:url(#SVGID_00000145753035725341272030000013715155663346146986_);fill:url(#SVGID_00000055685748535040894190000015258167411377419905_);" points="
			2.486,8.94 17.829,11.702 14.635,30.195 -0.707,27.432 		"/>
	</g>
</g>
<linearGradient id="SVGID_00000039825270408412437150000006703847936312660355_" gradientUnits="userSpaceOnUse" x1="164.5078" y1="10.2449" x2="202.7852" y2="10.2449" gradientTransform="matrix(1 0 0 -1 0 33.7638)">
	<stop  offset="0" style="stop-color:#8AC23E"/>
	<stop  offset="1" style="stop-color:#28AC4B"/>
</linearGradient>
<path style="fill:url(#SVGID_00000039825270408412437150000006703847936312660355_);" d="M199.873,29.983H167.42
	c-1.608,0-2.912-1.304-2.912-2.912v-7.103c0-1.608,1.304-2.912,2.912-2.912h32.453c1.608,0,2.912,1.304,2.912,2.912v7.103
	C202.785,28.679,201.481,29.983,199.873,29.983z"/>
<g>
	<path class="st10" d="M179.52,27.703c0.712-0.874,0.744-0.916,0.852-0.916c0.097,0,0.151,0.032,0.571,0.442
		c0.409,0.409,0.496,0.496,0.496,0.571c0,0.075-0.064,0.119-0.151,0.119H175.8c-0.377,0-0.765,0.021-1.38,0.075l-0.108-0.366
		c0.712,0.054,1.111,0.076,1.488,0.076h1.456v-2.954c0-0.194-0.011-0.421-0.033-0.625h-0.884c-0.69,1.229-1.574,2.22-2.383,2.857
		c0,0.69,0.011,0.97,0.011,1.121c0,0.302-0.334,0.464-0.916,0.464c-0.409,0-0.474-0.086-0.474-0.367c0-0.28,0.043-1.013,0.065-2.512
		l0.032-3.137c-0.463,0.539-0.948,1.024-1.412,1.412c-0.054,0.043-0.13-0.033-0.097-0.086c0.712-0.992,1.477-2.728,2.092-4.647
		c0.076-0.248,0.14-0.506,0.194-0.776c1.467,0.571,1.661,0.712,1.661,0.852c0,0.151-0.097,0.237-0.485,0.355
		c-0.313,0.604-0.679,1.197-1.078,1.758c0.614,0.237,0.733,0.334,0.733,0.453c0,0.097-0.065,0.172-0.334,0.28v2.415
		c0,0.959,0,1.661,0.011,2.167c0.56-0.755,1.056-1.736,1.531-3.094c0.27-0.776,0.485-1.638,0.647-2.468h-0.442
		c-0.377,0-0.797,0.022-1.412,0.076l-0.108-0.367c0.712,0.054,1.143,0.076,1.52,0.076h0.474c0.119-0.625,0.205-1.229,0.259-1.757
		c0.033-0.324,0.033-0.507,0.043-0.809c1.682,0.291,1.919,0.399,1.919,0.593c0,0.162-0.108,0.248-0.442,0.389
		c-0.108,0.539-0.237,1.078-0.377,1.585h1.725c0.722-0.916,0.765-0.949,0.884-0.949c0.118,0,0.151,0.022,0.658,0.507
		c0.409,0.399,0.474,0.464,0.474,0.539c0,0.076-0.054,0.119-0.14,0.119h-3.665c-0.28,0.981-0.604,1.865-0.959,2.566l-0.086,0.171
		h2.426c0.668-0.83,0.711-0.884,0.819-0.884s0.161,0.033,0.582,0.442c0.389,0.388,0.432,0.442,0.432,0.539
		c0,0.075-0.054,0.118-0.14,0.118h-1.682c0,0.097-0.064,0.172-0.248,0.27v3.31C178.646,27.703,179.52,27.703,179.52,27.703z"/>
	<path class="st10" d="M188.6,26.344c-0.571,0.841-1.638,1.768-2.663,2.135c-0.065,0.022-0.108-0.076-0.054-0.108
		c0.701-0.41,1.467-1.348,1.832-2.318c0.334-0.884,0.453-1.855,0.453-2.986c0-0.367,0-0.582-0.011-0.776
		c-0.679,0.453-1.412,0.83-2.167,1.067c-0.065,0.022-0.108-0.086-0.054-0.118c1.164-0.582,2.847-2.383,3.73-4.205
		c0.076-0.161,0.172-0.366,0.259-0.658c1.789,0.377,1.811,0.485,1.811,0.679c0,0.086-0.065,0.161-0.356,0.248
		c0.4,0.421,1.1,0.916,1.984,1.358c0.84,0.421,1.951,0.733,2.76,0.862c0.065,0.011,0.054,0.076,0,0.108
		c-0.345,0.161-0.668,0.625-0.852,1.024c-0.076,0.162-0.13,0.227-0.237,0.227c-0.119,0-0.195-0.021-0.302-0.054
		c-0.615-0.216-1.358-0.712-1.887-1.219c-0.507-0.474-1.175-1.283-1.638-2.253c-0.421,0.636-1.034,1.315-1.757,1.951
		c0.355,0.043,0.603,0.054,0.797,0.054h0.885c0.485-0.658,0.496-0.679,0.571-0.679c0.065,0,0.097,0.022,0.464,0.388
		c0.302,0.302,0.324,0.324,0.324,0.389c0,0.075-0.033,0.118-0.119,0.118h-2.124c-0.183,0-0.442,0.011-0.84,0.076l-0.076-0.237
		c-0.215,0.183-0.453,0.377-0.701,0.549c0.744,0.195,0.992,0.302,1.057,0.4h2.534c0.453-0.485,0.485-0.496,0.571-0.496
		c0.086,0,0.119,0,0.668,0.421c0.41,0.313,0.442,0.345,0.442,0.431c0,0.086-0.021,0.13-0.227,0.291v0.399
		c0,0.604,0.043,1.132,0.043,1.305c0,0.302-0.28,0.463-0.884,0.463c-0.409,0-0.496-0.086-0.496-0.366h-3.105
		c-0.054,0.237-0.119,0.464-0.205,0.69c0.679,0.161,0.949,0.248,1.056,0.324h2.62c0.474-0.528,0.517-0.561,0.615-0.561
		c0.108,0,0.161,0.011,0.744,0.431c0.399,0.291,0.431,0.334,0.431,0.431c0,0.108-0.033,0.14-0.324,0.367v0.421
		c0,0.453,0.043,0.959,0.043,1.11c0,0.302-0.323,0.464-0.927,0.464c-0.409,0-0.496-0.086-0.496-0.377v-0.27h-2.9v0.259
		c0,0.302-0.324,0.464-0.862,0.464c-0.4,0-0.464-0.097-0.464-0.356c0-0.086,0.033-0.323,0.033-1.315v-0.551H188.6z M192.34,24.597
		V23.67h-2.943c-0.022,0.334-0.054,0.636-0.108,0.927H192.34z M189.602,22.582c-0.043,0.033-0.097,0.075-0.183,0.118v0.302
		c0,0.161,0,0.313-0.011,0.453h2.932v-0.873H189.602z M192.793,27.627v-1.585h-2.695c-0.043,0.043-0.108,0.086-0.205,0.118v1.467
		H192.793z"/>
</g>
</svg>
