<?xml version="1.0" encoding="utf-8"?>
<!-- Generator: Adobe Illustrator 26.1.0, SVG Export Plug-In . SVG Version: 6.00 Build 0)  -->
<svg version="1.1" id="レイヤー_1" xmlns="http://www.w3.org/2000/svg" xmlns:xlink="http://www.w3.org/1999/xlink" x="0px"
	 y="0px" viewBox="0 0 170 85" style="enable-background:new 0 0 170 85;" xml:space="preserve">
<style type="text/css">
	.st0{fill:#8BC33E;}
	.st1{fill:#FFFFFF;}
</style>
<g>
	<rect y="0" class="st0" width="170" height="85"/>
</g>
<g>
	<path class="st1" d="M71.4,40.8v-2.6h-5.6v3.3h-1.2v-3.3h-5.4v2.6H58v-3.5h6.5v-1H59v-0.9h12.2l0,0.9h-5.6v1h6.8v3.5H71.4z
		 M60.2,47.1v0.7H59v-5.6h12.4v4.9h-5.7v0.7c0,0.2,0.1,0.4,0.2,0.5c0.1,0.1,0.3,0.2,0.5,0.2c0.2,0,0.5,0.1,1,0.1s0.9,0,1.4,0
		c0.5,0,1.1,0,1.7,0s1-0.1,1.1-0.1c0.2,0,0.3-0.1,0.4-0.2c0.1-0.1,0.2-0.2,0.3-0.4c0.1-0.2,0.1-0.7,0.1-1.7l1.1,0.2v1.8
		c0,0.2-0.1,0.4-0.2,0.6c-0.1,0.2-0.2,0.3-0.4,0.4s-0.4,0.2-0.5,0.2c-0.2,0-0.7,0.1-1.6,0.1s-1.6,0-2.4,0c-1.4,0-2.3,0-2.7-0.1
		c-0.4-0.1-0.7-0.2-0.9-0.4c-0.2-0.2-0.3-0.5-0.3-0.9v-1H60.2z M60.2,44.2h4.3V43h-4.3V44.2z M64.5,45h-4.3v1.2h4.3V45z M60.3,39.7
		V39h3v0.7H60.3z M60.3,41.3v-0.7h3v0.7H60.3z M65.7,44.2h4.5V43h-4.5V44.2z M70.2,45h-4.5v1.2h4.5V45z M67,39.7V39h3.2v0.7H67z
		 M67,41.3v-0.7h3.2v0.7H67z"/>
	<path class="st1" d="M74.6,38.7v-0.9h5.5v0.9H74.6z M76.1,49v0.6h-1.2v-5.1h4.6V49H76.1z M75.1,36.5v-0.9h4.5v0.9H75.1z M75.2,41
		V40h4.4V41H75.2z M75.2,43.1v-0.9h4.4v0.9H75.2z M78.4,45.4h-2.3v2.7h2.3V45.4z M87.6,48.9h-5.3v0.6h-1.3v-6.3h3.2v-2.7h-3.9v-1
		h3.9V37c-0.9,0.1-2,0.2-3.2,0.3l-0.3-1c3.5-0.2,6-0.6,7.6-1.1l0.6,1c-1,0.3-2.1,0.5-3.4,0.7v2.6h4v1h-4v2.7h3.3v6.3h-1.3V48.9z
		 M82.3,47.9h5.3v-3.8h-5.3V47.9z"/>
	<path class="st1" d="M101,46.6h-1.2V44c0-0.3,0-0.6,0-0.8c-2.5,1.3-3.7,2.4-3.7,3.4c0,0.5,0.3,0.9,0.8,1.2c0.6,0.3,1.7,0.5,3.5,0.5
		c2.1,0,3.8-0.1,5.1-0.3l0.1,1.2c-1.3,0.2-2.8,0.2-4.5,0.2c-2.6,0-4.3-0.2-5.1-0.7s-1.2-1.1-1.2-2c0-0.8,0.3-1.5,1-2.2
		c0.7-0.7,1.9-1.5,3.7-2.4c-0.2-0.5-0.6-0.7-1.2-0.7c-0.7,0-1.4,0.1-2.1,0.4c-0.8,0.2-1.7,0.8-2.8,1.8l-1.3,1.1l-0.7-0.8
		c2-1.5,3.5-3.3,4.4-5.3H92v-1.1h4.2c0.2-0.6,0.4-1.3,0.6-2l1.3,0.1c-0.1,0.6-0.3,1.2-0.6,1.8h6v1.1h-6.5c-0.3,0.6-0.8,1.4-1.6,2.5
		l0.1,0.1c0.2-0.1,0.6-0.3,1.3-0.4c0.6-0.1,1.1-0.2,1.4-0.2c1.1,0,1.8,0.4,2.2,1.2l4.8-1.8l0.5,1.1c-1.1,0.4-2.8,1-5,1.8
		c0.1,0.4,0.1,0.9,0.1,1.5V46.6z"/>
	<path class="st1" d="M112.8,37c0,0.5,0,1-0.1,1.7h3.1c0.8,0,1.4,0.3,1.8,0.8c0.4,0.5,0.7,1.3,0.7,2.2c0,2.2-0.2,4-0.7,5.4
		c-0.5,1.4-1.3,2.2-2.4,2.2c-0.7,0-1.6-0.3-2.8-1l0.4-1c0.3,0.1,0.7,0.3,1.2,0.5s0.9,0.3,1.1,0.3c0.4,0,0.8-0.2,1-0.7
		c0.3-0.5,0.5-1.1,0.7-2c0.2-0.9,0.3-1.9,0.3-3.1c0-1.1-0.1-1.8-0.4-2s-0.7-0.4-1.2-0.4h-2.8c-0.2,1.4-0.5,2.6-0.7,3.6
		s-0.7,2-1.2,3.1s-1.2,2.1-2,2.9l-0.9-0.7c0.7-0.8,1.4-2,2.1-3.5s1.2-3.2,1.4-5.3h-3.2v-1.1h3.3c0-0.4,0.1-1.5,0.1-3.3h1.3V37z
		 M123.4,43.6l-1.3,0.3c-0.7-2.7-1.8-4.8-3.2-6.3l1-0.6c0.7,0.8,1.5,1.8,2.1,3.1C122.7,41.3,123.2,42.5,123.4,43.6z"/>
	<path class="st1" d="M129.7,44.5c-1.3,2-2.1,3.5-2.3,4.3l-1-0.1c-0.7-1.8-1-3.8-1-5.8c0-1.9,0.3-4.2,0.9-6.8l1.3,0.2
		c-0.7,2.6-1,4.8-1,6.5c0,1.4,0.1,2.7,0.4,3.9c0.7-1.1,1.3-2.1,1.7-2.8L129.7,44.5z M132.4,49.4l-0.5-1c1.2-0.5,2.1-1.1,2.6-1.9
		c0.6-0.8,0.8-2,0.8-3.4v-3h-5.4v-1.1h5.4v-3.3h1.3v3.3h3.3v1.1h-3.3v3.1C136.6,46.4,135.2,48.5,132.4,49.4z"/>
	<path class="st1" d="M150.9,48.1c2-0.5,3-1.5,3-3.1c0-1-0.4-1.8-1.1-2.3c-0.7-0.5-1.7-0.8-3-0.8c-0.9,0-1.7,0.1-2.5,0.3
		s-1.8,0.7-2.8,1.3c-1.1,0.7-1.8,1.2-2.2,1.5l-0.6-1c3.3-2.1,6.5-4.4,9.7-6.7l-8.2,0v-1.1h9.9l0.6,0.8l-5.7,4l0.1,0.1
		c0.7-0.2,1.3-0.3,2-0.3c1.6,0,2.8,0.4,3.8,1.1c1,0.7,1.5,1.7,1.5,3c0,1.5-0.6,2.6-1.8,3.4s-2.9,1.2-4.9,1.2c-2.8,0-4.2-0.8-4.2-2.3
		c0-0.6,0.3-1.1,0.9-1.5c0.6-0.4,1.2-0.6,1.9-0.6c1,0,1.8,0.3,2.5,0.8C150.3,46.3,150.7,47.1,150.9,48.1z M149.7,48.3
		c-0.3-1.6-1.2-2.3-2.5-2.3c-0.4,0-0.8,0.1-1.2,0.3c-0.3,0.2-0.5,0.5-0.5,0.9c0,0.8,1,1.2,2.9,1.2C148.8,48.4,149.2,48.4,149.7,48.3
		z"/>
</g>
<g>
	<path class="st1" d="M26,51.1c2,1.1,4.2,2.1,6.5,2.8c1.1,0.4,1.9,0.6,2.3,0.6l0.1,0c1.6,0,3.7-2.3,3.9-3c0.3-0.9-0.1-1.8-1.1-2.4
		l-2.2-1.3c-0.5-0.3-1.2-0.5-1.9-0.5c-0.8,0-1.5,0.2-2.1,0.6c-0.3,0.2-0.8,0.6-1,0.8c0,0,0,0-0.1,0c-0.9,0-4.1-2.1-4.9-2.8
		c-0.9-0.6-3.7-3.1-3.6-3.7c0,0,0-0.1,0-0.1c0.3-0.2,0.7-0.5,1-0.8c1-0.8,1.1-2.1,0.2-3l-1.7-1.6c-0.1-0.1-0.3-0.2-0.5-0.4
		c-0.1-0.1-0.2-0.1-0.3-0.2C20.5,36.1,20,36,19.6,36c-0.1,0-0.2,0-0.4,0c-0.2,0-0.5,0-0.7,0.1c-0.9,0.2-4.1,1.7-4,3
		c0,0.3,0.3,0.9,0.8,1.8c1,1.7,2.3,3.4,3.8,4.9C21,47.8,23.4,49.6,26,51.1z"/>
	<path class="st1" d="M41.3,34.3c-2.5-1.9-5.7-3.2-9.2-3.6c-0.2,0-0.4,0-0.6,0c0,0,0,0,0,0c-0.1,0-0.2,0-0.3,0.1c0,0,0,0,0,0
		c-0.1,0-0.2,0.1-0.3,0.1c0,0,0,0,0,0c-0.1,0-0.2,0.1-0.2,0.2c0,0,0,0,0,0c-0.3,0.2-0.5,0.6-0.5,0.9v0c0,0.6,0.6,1.2,1.4,1.3
		c2.8,0.3,5.3,1.3,7.3,2.8c2,1.5,3.3,3.5,3.7,5.5c0.1,0.6,0.9,1.1,1.7,1.1c1.1,0,1.9-0.7,1.7-1.5C45.5,38.6,43.8,36.2,41.3,34.3z"/>
	<path class="st1" d="M31.3,38.8c0.9,0.2,1.8,0.6,2.5,1.2c0.7,0.5,1.2,1.2,1.5,1.9c0.2,0.6,0.9,0.9,1.7,0.9h0c1.2,0,2-0.9,1.7-1.7
		c-0.5-1.1-1.3-2.2-2.4-3c-1.1-0.9-2.5-1.5-4-1.8c-1.1-0.3-2.2,0.4-2.2,1.3v0C30.1,38.1,30.6,38.6,31.3,38.8z"/>
</g>
</svg>
