<?xml version="1.0" encoding="utf-8"?>
<!-- Generator: Adobe Illustrator 26.1.0, SVG Export Plug-In . SVG Version: 6.00 Build 0)  -->
<svg version="1.1" id="レイヤー_1" xmlns="http://www.w3.org/2000/svg" xmlns:xlink="http://www.w3.org/1999/xlink" x="0px"
	 y="0px" viewBox="0 0 170 85" style="enable-background:new 0 0 170 85;" xml:space="preserve">
<style type="text/css">
	.st0{fill:#F48A9D;}
	.st1{fill:#FFFFFF;}
</style>
<g>
	<rect class="st0" width="170" height="85"/>
</g>
<g>
	<path class="st1" d="M62.4,49l0.3-1c0.7,0.2,1.3,0.4,2.1,0.4c1,0,1.8-0.2,2.4-0.7c0.6-0.5,0.9-1.1,0.9-2c0-1-0.4-1.7-1.2-2.2
		c-0.8-0.5-1.9-0.7-3.3-0.7c-0.9,0-1.8,0.1-2.7,0.3v4.9c0,1-0.8,1.6-2.4,1.6c-0.9,0-1.7-0.3-2.4-0.8c-0.7-0.5-1-1.2-1-2
		c0-0.9,0.4-1.7,1.3-2.5s1.9-1.4,3.2-1.8v-2.8h-4v-1.1h4v-2.6h1.3v2.5h4.2v1.1h-4.2v2.6c0.9-0.2,1.8-0.3,2.7-0.3c1.6,0,3,0.3,4.1,1
		c1.1,0.7,1.7,1.7,1.7,2.9s-0.4,2.2-1.2,2.9s-1.8,1-3.1,1C63.9,49.5,63,49.3,62.4,49z M59.6,43.4c-0.9,0.4-1.7,0.8-2.3,1.4
		s-1,1.2-1,1.8c0,0.6,0.2,1,0.7,1.3c0.5,0.3,1,0.5,1.5,0.5c0.7,0,1.1-0.2,1.1-0.7V43.4z M70.2,39.9l-1,0.7c-1.1-1.3-2.4-2.5-4-3.6
		l0.9-0.8c0.7,0.4,1.4,1,2.2,1.7S69.8,39.3,70.2,39.9z"/>
	<path class="st1" d="M73.3,41.2v8.8h-1.2V35.8h5.8v5.4H73.3z M73.3,38.1h3.4v-1.5h-3.4V38.1z M76.8,38.8h-3.4v1.5h3.4V38.8z
		 M76.9,47.4v0.5h-1.2v-5.1h6.5v4.7H76.9z M76.9,46.5H81v-2.8h-4.1V46.5z M84.5,49.8h-1.9l-0.2-1.1H84c0.2,0,0.4-0.1,0.5-0.2
		c0.1-0.1,0.2-0.3,0.2-0.4v-6.9H80v-5.4h5.9v12.8c0,0.3-0.1,0.6-0.4,0.8S84.9,49.8,84.5,49.8z M81.2,38.1h3.5v-1.5h-3.5V38.1z
		 M84.7,38.8h-3.5v1.5h3.5V38.8z"/>
	<path class="st1" d="M95.6,44.6c-0.2,0.5-0.5,1.1-0.9,1.9s-0.8,1.4-1.2,1.9c-0.4,0.5-0.8,0.7-1.3,0.7c-0.3,0-0.5-0.1-0.7-0.2
		c-0.2-0.1-0.5-0.4-0.8-0.8c-0.3-0.4-0.7-0.9-0.9-1.5s-0.5-1.3-0.6-2.1c-0.1-0.7-0.2-1.4-0.2-2.1c0-0.6,0.1-1.5,0.2-2.6
		c0.1-1.2,0.2-2,0.2-2.6h1.4c0,0.5-0.1,1.3-0.3,2.6c-0.1,1.1-0.2,1.9-0.2,2.6c0,0.9,0.1,1.8,0.3,2.5c0.2,0.8,0.5,1.4,0.9,1.9
		c0.4,0.5,0.7,0.8,0.8,0.8c0.3,0,0.7-0.4,1.1-1.2c0.5-0.8,0.9-1.6,1.3-2.5L95.6,44.6z M103,47l-1.4,0v-0.1c0-1.6-0.3-3.2-0.8-4.7
		c-0.5-1.5-1.3-2.9-2.2-4.1l1-0.6C101.9,40,103,43.2,103,47z"/>
	<path class="st1" d="M119.9,41.8c-1.2-0.5-2.5-1.3-3.9-2.3c-1.5-1.1-2.7-2.2-3.6-3.4c-0.8,1-1.8,2.1-3.3,3.2
		c-1.4,1.1-2.9,2-4.3,2.6l-0.5-0.9c1.4-0.7,2.8-1.6,4.1-2.6c1.4-1.1,2.4-2.1,3-3.1h1.8c0.9,1.1,2,2.2,3.4,3.2s2.8,1.8,3.9,2.3
		L119.9,41.8z M116.9,49h-9.2v0.8h-1.3v-6.3h11.7v6.3h-1.3V49z M107.7,48h9.2v-3.6h-9.2V48z M116.6,41.2h-8.5v-1h8.5V41.2z"/>
	<path class="st1" d="M124.8,43.6c-0.6,0.9-1.5,2.2-2.8,4l-0.9-0.8c0.6-0.8,1.3-1.7,2-2.8c0.7-1.1,1.3-2,1.6-2.8v-1.9h-3v-1.1h3
		v-2.6h1.2v4.7c0.9-0.8,1.8-1.5,2.8-2c1-0.5,2-0.7,2.9-0.7c1.4,0,2.6,0.5,3.5,1.5c0.9,1,1.4,2.2,1.4,3.7c0,1.8-0.6,3.3-1.7,4.5
		c-1.1,1.2-3,1.9-5.6,2.1l-0.3-1.1c4.2-0.3,6.3-2.1,6.3-5.4c0-1.1-0.3-2-1-2.8c-0.7-0.8-1.5-1.2-2.5-1.2c-1,0-2,0.3-3.1,0.8
		c-1,0.6-2,1.3-2.8,2.2l0,7.7h-1.2V43.6z"/>
	<path class="st1" d="M151.5,49.3c-1.3,0.1-2.7,0.1-4,0.1c-1.9,0-3.3-0.1-4.1-0.2c-0.8-0.1-1.4-0.4-1.9-0.9
		c-0.4-0.5-0.7-1.2-0.7-2.2v-5.3h-2.5v-1.1h2.5v-3.4h1.3v3.4h7.3c0-1.4,0-2.5-0.1-3.5l1.3-0.1c0.1,1,0.2,2.1,0.2,3.3v0.3h2.6v1.1
		h-2.6c0,0.9-0.1,1.7-0.2,2.6c-0.1,0.9-0.3,1.5-0.6,1.8c-0.3,0.3-0.7,0.4-1.3,0.4c-0.8,0-1.9-0.5-3.1-1.4l0.5-0.9
		c1.1,0.7,1.9,1.1,2.5,1.1c0.4,0,0.6-0.2,0.7-0.7c0.1-0.5,0.2-1.4,0.2-2.9h-7.3V46c0,0.7,0.2,1.2,0.5,1.5c0.3,0.3,0.8,0.5,1.5,0.6
		c0.7,0.1,2,0.1,3.9,0.1c1.4,0,2.6,0,3.5-0.1V49.3z"/>
</g>
<g>
	<path class="st1" d="M42.5,32.5H17.3c-0.4,0-0.8,0.3-0.8,0.8l0,0V35L30,44.3L43.4,35v-1.7C43.4,32.8,42.9,32.5,42.5,32.5z"/>
	<path class="st1" d="M16.4,38.5v11c0,1.9,1.4,3.4,3.3,3.4h20.5c1.7,0,3.3-1.5,3.3-3.3v-0.1v-11l-13.5,9.4L16.4,38.5z"/>
</g>
</svg>
