<?xml version="1.0" encoding="UTF-8"?>
<svg xmlns="http://www.w3.org/2000/svg" xmlns:xlink="http://www.w3.org/1999/xlink" version="1.1" viewBox="0 0 594.8 93.5">
  <defs>
    <style>
      .cls-1 {
        fill: none;
      }

      .cls-2 {
        fill: #28ac4b;
      }

      .cls-3 {
        isolation: isolate;
      }

      .cls-4 {
        fill: #f9c258;
      }

      .cls-5 {
        fill: url(#_名称未設定グラデーション_4);
      }

      .cls-6 {
        fill: url(#_名称未設定グラデーション_3);
      }

      .cls-7 {
        fill: url(#_名称未設定グラデーション_2);
      }

      .cls-8 {
        clip-path: url(#clippath-1);
      }

      .cls-9 {
        fill: #fff;
      }

      .cls-10 {
        fill: #a8977f;
      }

      .cls-11 {
        fill: #8ac23e;
      }

      .cls-12 {
        fill: url(#_名称未設定グラデーション);
      }

      .cls-13 {
        clip-path: url(#clippath);
      }

      .cls-14 {
        fill: #f09ba7;
      }
    </style>
    <linearGradient id="_名称未設定グラデーション" data-name="名称未設定グラデーション" x1="115.5" y1="-121.9" x2="243" y2="-121.9" gradientTransform="translate(0 -58) scale(1 -1)" gradientUnits="userSpaceOnUse">
      <stop offset="0" stop-color="#8ac23e"/>
      <stop offset="1" stop-color="#28ac4b"/>
    </linearGradient>
    <linearGradient id="_名称未設定グラデーション_2" data-name="名称未設定グラデーション 2" x1="334" y1="-86" x2="399.8" y2="-86" gradientTransform="translate(0 -58) scale(1 -1)" gradientUnits="userSpaceOnUse">
      <stop offset="0" stop-color="#8ac23e"/>
      <stop offset="1" stop-color="#28ac4b"/>
    </linearGradient>
    <clipPath id="clippath">
      <path class="cls-1" d="M84.4,36.8c-1.7-4.9-4.3-1.6-4.2,1.7-1.7-2.6-3-.1-3,3.1-2.9-3.3-2.1,5-2.1,7.3,5.6-5.9,10.5-4.9,11.6-2.5,2,4.2-5.6,12.5-8.9,15.5-2.1,2-5.2,2.2-.9-1.9.6-.6,2.2-2.1,4.4-4.7,8.5-10.1.6-10.6-3.8-6.3-3.7,3.6-5.7,6.7-14.2,10.6-3.7,1.7-5.8,4.4-5.6,9.4.2,3.4,4.9,11.3,14.9,4.9,9.6-6.1,13.8-10,17.6-16.8,3.9-6.9,0-16.6-.8-18.6-1-3.1-2.2-4.3-3.2-4.3s-1.7,1.1-1.8,2.6Z"/>
    </clipPath>
    <linearGradient id="_名称未設定グラデーション_3" data-name="名称未設定グラデーション 3" x1="-2013.6" y1="-321.1" x2="-2012.6" y2="-321.1" gradientTransform="translate(79841.5 -27507.6) rotate(-10) scale(41.4 -41.4)" gradientUnits="userSpaceOnUse">
      <stop offset="0" stop-color="#fff3e1"/>
      <stop offset="0" stop-color="#fff0d8"/>
      <stop offset=".4" stop-color="#fee7c0"/>
      <stop offset=".6" stop-color="#fcd998"/>
      <stop offset=".9" stop-color="#f9c562"/>
      <stop offset="1" stop-color="#f9c258"/>
    </linearGradient>
    <clipPath id="clippath-1">
      <path class="cls-1" d="M18,36.8c1.7-4.9,4.3-1.6,4.2,1.7,1.7-2.6,3-.1,3,3.1,2.9-3.3,2.1,5,2.1,7.3-5.6-5.9-10.5-4.9-11.6-2.5-2,4.2,5.6,12.5,8.9,15.5,2.1,2,5.2,2.2.9-1.9-.6-.6-2.2-2.1-4.4-4.7-8.5-10.1-.6-10.6,3.8-6.3,3.7,3.6,5.7,6.7,14.2,10.6,3.7,1.7,5.8,4.4,5.6,9.4-.2,3.4-4.9,11.3-14.9,4.9-9.6-6.1-13.8-10-17.6-16.8-3.9-6.9.1-16.6.8-18.6,1-3.1,2.2-4.3,3.2-4.3s1.7,1.1,1.8,2.6Z"/>
    </clipPath>
    <linearGradient id="_名称未設定グラデーション_4" data-name="名称未設定グラデーション 4" x1="-2004.6" y1="-302.7" x2="-2003.6" y2="-302.7" gradientTransform="translate(71291.8 24026) rotate(10) scale(37.1)" gradientUnits="userSpaceOnUse">
      <stop offset="0" stop-color="#f09ba7"/>
      <stop offset="0" stop-color="#f1a5b0"/>
      <stop offset=".5" stop-color="#f7cdd2"/>
      <stop offset=".8" stop-color="#fbe5e6"/>
      <stop offset="1" stop-color="#fceeee"/>
    </linearGradient>
  </defs>
  <!-- Generator: Adobe Illustrator 28.7.1, SVG Export Plug-In . SVG Version: 1.2.0 Build 142)  -->
  <g>
    <g id="_レイヤー_1" data-name="レイヤー_1">
      <g id="_レイヤー_1-2" data-name="_レイヤー_1">
        <g id="_レイヤー_1-2">
          <path class="cls-12" d="M126.4,64.3c0,1.8-2.3,9.4-3.4,12.3-.9,2.4-1.8,4.3-3.8,4.3s-3.7-1.2-3.7-3.1.2-1.4,1.1-2.9c1.4-2.6,2.6-6.8,3.1-8.8.6-2.7,1-4.5,3.3-4.5s.7,0,1.1,0c.9.3,2.3.9,2.3,2.6M150.2,65.5c-1.3-2.8-3.7-5.2-6.8-5.2s-2.7,1.5-2.9,2.3c0,.2-.1.5-.1.8,0,.9.4,1.4.6,1.6.2.2,1.6,1.1,1.9,1.3,2.1,1.8,2.5,7.3,2.8,10.7.1,1,.3,3.2,3.3,3.2s2.1-.3,2.8-1.1c.4-.5.7-1.2.7-2.5s-.6-7.6-2.3-11.1M142.1,55.3c1.8-.2,3.4-.6,3.4-3.2s-2.2-2.9-4.4-3.1c-4.8-.3-9.3-1-11.5-1.4-.8,0-4.5-1-5.4-1-2,0-2.5,1.8-2.7,2.7-.3,2.5,1.4,3,3.1,3.4s4.2.9,6.8,1.3c-2.1,1.2-3.5,3.2-3.3,6.1.2,3.8,2.6,6.9,3.7,8.1,2.2,2.6,3.1,3.6,3.1,5.4s-.1,2.8-2.9,2.8-1.8-.2-2.3-.4c-1.5-.5-1.7-.6-2.3-.6-2.9,0-2.9,3.1-2.9,3.3,0,1.1.4,2,1.7,2.7,2.4,1.3,5.3,1.6,6.8,1.6,6.8,0,8.8-5.2,8.8-8.4s-1.3-5.9-4.4-9.2c-5.3-5.6-4.2-8.9,4.7-10.1M169.6,47.4c.6-.8,1.6-1,2.4-1,1.6,0,3.5.5,3.5,2.7s-.1,1.2-.3,2.4c3.3,0,7.2-.2,9.8-.3.5,0,2.7-.2,3.1-.2.8,0,3.2,0,3.2,3.1s-2,2.9-3.3,3c-4.2.2-9.4.4-14,.5-1.1,5.2-6,22.6-7.7,24.4-.3.3-.9.8-2,.8s-3.8-.6-3.8-2.9.7-2.4,1.1-3.2c1.6-3.7,3.6-9.8,4.7-14,.4-1.8.9-3.9,1.2-4.9-2.3,0-4.7,0-5.5-.4-1.1-.6-1.2-1.8-1.2-2.6,0-2.5,1.3-3.1,3.3-3.1h4.4c.6-3.4.6-3.8,1.1-4.3M187.7,82.5c-9.7,0-13.9-1.6-13.9-6.9s0-5,4-5,3.1.6,3.1,2.1-.1.7-.2.9c-.2.7-.3.8-.3,1.2,0,.7.5,1.2,1.9,1.5,1.1.2,2.5.2,3.4.2s3.3,0,6-.4c.5,0,1.4-.2,1.8-.2,1.8,0,2.9,1,2.9,2.9,0,3-1.4,3.7-8.7,3.7M194.3,66.3c-.5.4-1.1.5-2,.5s-3.8-.2-4.4-.2c-2.6,0-3.7,0-7.5.4h-1.5c-2.7,0-2.7-2.7-2.7-3.1,0-1.3.5-2.4,2.4-2.9,2.6-.6,7.3-.7,10.1-.7,6.2,0,6.6,1,6.6,3.5s-.3,1.8-1,2.4M213.4,49.7c0,.5-.8,5.6-.9,6.7-.3,3.3-.5,6.6-.5,9.9s.2,7.3.7,10.9c.1.9.2,2.1.2,2.6,0,2-1.2,2.8-3.1,2.8s-2.5,0-3.1-2c-.6-2.1-1-8.8-1-14.6,0-8.9,1.1-15.9,1.4-16.9.3-1.1,1-2.5,3.8-2.2,2,.4,2.5,1.4,2.5,2.8M226.9,50.3c0-1.1,0-3.4,3.3-3.4s3.3,2.2,3.3,3.4v3.5c.7,0,4-.2,4.2-.2.8,0,3.1,0,3.1,3.1s-1.1,2.7-1.7,2.8c-.7.2-.9.2-5.5.4v8.2c3.4,1.8,5.2,3.2,6.4,4.3.8.8,1.3,1.8,1.3,2.8,0,1.8-1.5,3.6-3.3,3.6s-1.6-.5-2.9-2c-.2-.2-1.6-1.4-1.8-1.6-.1,2.2-.4,7.3-8.6,7.3s-9.9-4.2-9.9-8.3,3.8-8.2,9.6-8.2,2.2.2,2.9.2l-.2-6.1h-9.1c-2.8,0-3.3,0-3.3-3.1s1.5-2.8,2.4-2.9c.5,0,8.1-.2,9.9-.2v-3.7h0ZM224.4,71.4c-1,0-4,.2-4,3.1s3.1,2.9,3.7,2.9c.9,0,2.6-.2,3.1-1.6.2-.6.2-.9.2-3.7-.8-.4-1.6-.7-3-.7M234.2,47.5c-.1-.3-.1-.6-.1-.7,0-1.1,1.1-1.3,1.6-1.3s1.2.5,1.5,1.3c.7,1.8,1.2,3.3,1.2,4.2,0,1.3-1.3,1.4-1.5,1.4-.6,0-1-.2-1.3-1-.1-.3-.6-1.8-.7-2,0-.3-.6-1.5-.7-1.9M238.9,46.8c-.1-.3-.1-.6-.1-.7,0-1.1,1.2-1.3,1.6-1.3.9,0,1.2.7,1.6,1.8.4,1.1,1,2.9,1,3.8,0,1.3-1.4,1.4-1.6,1.4-.4,0-.9,0-1.3-1-.1-.3-.5-1.7-.6-2,0-.4-.6-1.7-.6-2"/>
          <g>
            <g>
              <path class="cls-14" d="M277.7,57.8h-12.9c.6-1.6.6-1.8.6-2,0-1.2-1.4-1.5-2.2-1.5-1.6,0-1.9.7-2.6,3.5h-7.5c-1.2,0-1.9.7-1.9,1.9s.6,1.8,1.9,1.8h6c-.8,1.8-2.6,4.9-5.3,7.2-2.7,2.3-2.8,2.3-2.8,3.2,0,1.3.9,2.3,2,2.3s.9-.2,2.4-1.5v8.5c0,1.1.4,1.8,2,1.8s1.8-1.4,1.8-1.8v-12.7c2.2-2.9,3.6-5.9,4-6.9h14.3c1.2,0,1.9-.7,1.9-1.9.2-1.3-.6-1.9-1.7-1.9h0Z"/>
              <path class="cls-14" d="M277.7,78.2h-5.8v-7.4h5c1.2,0,1.9-.6,1.9-1.8s-.7-1.8-1.9-1.8h-5v-3.2c0-1.3-.7-1.8-2.1-1.8s-1.8.9-1.8,1.8v3.1h-5c-1.2,0-1.9.6-1.9,1.8s.8,1.8,1.9,1.8h5v7.4h-6c-1.2,0-1.9.6-1.9,1.9s.7,1.8,1.9,1.8h15.6c1.2,0,1.9-.7,1.9-1.9s-.8-1.7-1.8-1.7h0Z"/>
              <path class="cls-14" d="M311.2,72c.8,0,1.4-.4,1.4-1.7,0-1.9-1.3-1.8-1.8-1.7l-12.4,1.1v-3.3c3.2-.4,4.8-.7,7.5-1.3.8-.2,1.6-.5,1.6-1.5s-.3-2-1.6-2-.9,0-1.2.2c-6,1.4-10.4,1.7-15,2-.2,0-.7,0-1.1.3.1-.2.1-.4.1-1v-1.7c0-.7.4-1,1-1h17.4c.7,0,1,.4,1,1v1.6c0,1.2.4,1.8,2,1.8s1.8-1,1.8-1.8v-2.5c0-2.7-1.1-3.5-3.5-3.5h-8v-1c0-1.2-.9-1.5-2.2-1.5s-1.8.4-1.8,1.5v1.1h-7.9c-2.3,0-3.5.8-3.5,3.5v2.5c0,1.1.4,1.8,1.9,1.8s1,0,1.2-.3c-.2.3-.2.6-.2.8,0,.5.1,1.9,1.7,1.9s2.3,0,4.9-.4v3.2l-8.7.8c-.9,0-1.5.4-1.5,1.6,0,2,1.4,1.9,1.8,1.8l8.4-.8v5.5c0,1,0,3.3,2.8,3.4h9.7c8.2,0,4.5,0,4.5-6s0-1.9-2-1.9-1.8,1.2-1.8,1.8c-.1,2.1-.2,2.5-.9,2.7h-7.9c-.2,0-.5-.3-.5-1.1v-4.7l12.8-1.3h0Z"/>
            </g>
            <g>
              <path class="cls-4" d="M341.4,59.5h-9.1c.8-1.5,1-2,1-2.6,0-1.1-1.2-1.6-2.1-1.6-1.3,0-1.5.5-2.6,2.7-.5.9-2.8,4.7-6.3,7.3-1.4,1-1.6,1.2-1.6,2s.9,2,2,2c2,0,5.8-4.2,7.3-6.3h8.9c.8,0,1.1,0,1.1.6s-.9,3.3-1.7,4.8c-3.1,6.1-8.3,8.1-13.2,9.3-2.2.5-2.8.7-2.8,2s.2,2.1,2,2.1,7.4-1.2,12.2-5c6.9-5.4,8.1-13.7,8.1-14.9-.2-1.3-1-2.4-3.2-2.4h0Z"/>
              <path class="cls-4" d="M356.8,71.1v-13.1c0-1.4-.8-1.9-2.1-1.9s-2.1,1-2.1,1.9v13.1c0,1.4.8,1.9,2.1,1.9s2.1-1,2.1-1.9Z"/>
              <path class="cls-4" d="M370.1,55.7c-1.8,0-2.1,1-2.1,2v11.4c0,1.9-.2,3.6-1.7,5.4-1.6,1.8-3.9,2.8-8.7,3.2-2,.2-3,.3-3,1.9s1.9,2.1,2.3,2.1c.7,0,2.9,0,5.7-.8,9.1-2.5,9.7-8.5,9.7-12v-11.3c0-1.4-.9-1.9-2.2-1.9h0Z"/>
              <path class="cls-4" d="M383.6,62h18.2c1.1,0,2-.4,2-2s-1.5-2-2-2h-18.2c-.9,0-2,.3-2,2-.1,2,1.5,2,2,2Z"/>
              <path class="cls-4" d="M404,75.5h-22.6c-1.2,0-2,.5-2,2s1.5,2,2,2h22.6c1.2,0,2-.5,2-2s-1.5-2-2-2Z"/>
              <path class="cls-4" d="M420.5,68.8c.2.9.5,2,1.5,2s2.3,0,2.3-1.8-1.2-4.8-1.9-6.3c-.4-.8-.7-1.4-1.8-1.4s-2,.6-2,1.6.1.7.2,1c.8,1.3,1.2,2.5,1.7,4.9h0Z"/>
              <path class="cls-4" d="M431.2,62.1h-.6c-1.4,0-1.7,1.1-1.8,1.9-.6,3-.7,3.3-1.1,4.5-2.4,7.1-7.9,8.9-10.3,9.6-2.1.6-2.7.8-2.7,1.9s.4,2,1.8,2,7.7-1.1,12.2-7.5c3.3-4.8,3.9-10.5,3.9-10.6,0-.6-.2-1.4-1.4-1.7h0Z"/>
              <path class="cls-4" d="M417.8,70.4c0-.5-.1-.8-.3-1.5-1.7-4.8-2.3-6.2-3.7-6.2s-2,.6-2,1.6.2.8.3,1.1c.6,1.3,1.1,2.4,1.8,4.8.3,1.1.6,1.9,1.7,1.9s2.2-.2,2.2-1.7Z"/>
              <path class="cls-4" d="M458.7,59.5h-9.1c.8-1.5,1-2,1-2.6,0-1.1-1.2-1.6-2.1-1.6-1.3,0-1.5.5-2.6,2.7-.4.9-2.8,4.7-6.3,7.3-1.4,1-1.6,1.2-1.6,2s.9,2,2,2c2,0,5.8-4.2,7.3-6.3h8.9c.8,0,1.1,0,1.1.6s-.9,3.3-1.7,4.8c-3.1,6.1-8.3,8.1-13.2,9.3-2.2.5-2.8.7-2.8,2s.2,2.1,2,2.1,7.4-1.2,12.2-5c6.9-5.4,8.1-13.7,8.1-14.9-.2-1.3-1-2.4-3.2-2.4h0Z"/>
            </g>
          </g>
          <g>
            <g>
              <path class="cls-10" d="M206.3,19.2c.3,0,1.3,0,1.3,1.2s-1,1.2-1.3,1.2h-13.5c-.5,0-.8.2-.8.8v11.8c0,.6.3.8.8.8h13.9c.3,0,1.3,0,1.3,1.2s-1,1.2-1.3,1.2h-14.5c-1.8,0-2.8-.6-2.8-2.8v-12.7c0-2.1.9-2.8,2.8-2.8h14.1ZM205.9,27.4c.3,0,1.1,0,1.1,1.1s-.8,1.1-1.1,1.1h-4.3c1.2,1.3,2,2,4.5,2.7.4,0,.9.3.9,1s-.2,1.3-1.2,1.3-4.3-1.2-6-4.1c-2,3.4-5.1,4.1-5.6,4.1-.9,0-1.2-.9-1.2-1.3,0-.7.5-.9.9-1,1.3-.4,2.9-.9,4-2.7h-4.1c-.3,0-1.1,0-1.1-1s.7-1.1,1.1-1.1h4.8s.1-.5.1-.7v-1.3h-2.2c-1.1,1.6-1.6,1.8-2,1.8-.6,0-1.3-.5-1.3-1.2s.1-.5,1-1.5c.6-.6,1-1.3,1.5-2.2.2-.5.6-.8,1.1-.8s1.2.3,1.2,1.1-.1.5-.2.8h7.5c.3,0,1.1,0,1.1,1s-.8,1.1-1.1,1.1h-4.2v1.3c0,.3,0,.6-.1.7h4.9v-.2h0Z"/>
              <path class="cls-10" d="M229,31.2c0,.4,0,1-.5,1.5s-1.2.5-1.6.5h-2.1v2.1c0,2.1-.6,2.3-2.7,2.3s-2.1,0-2.1-1.1.3-1,1-1h.8c.4,0,.5,0,.5-.6v-1.8h-2.2c-1.9,0-2-1.3-2-2v-1.4c-.1.1-.4.2-.6.2-.6,0-1-.5-1-1.1-.1,2-.4,4.8-1.5,7-.8,1.5-1.1,1.7-1.7,1.7s-1.3-.5-1.3-1.1.2-.7.3-1.1c1.1-2.1,1.4-2.7,1.7-4.7-.4.3-1.2.8-1.7.8-.9,0-1-1.1-1-1.5,0-.8.5-1,.9-1.1.5-.2,1.2-.5,2-1v-1.8c-.1.1-.4.2-.8.2-.6,0-.7-.3-1-1.2-.3-.7-.4-1-.8-1.7,0-.1-.1-.3-.1-.6,0-.6.7-1.1,1.2-1.1s.8.5,1.5,2v-1.3c0-1.8.8-2.4,2.4-2.4h4.4v-.6c0-.9.8-1,1.2-1,.6,0,1.3.2,1.3,1v.7h6.1c.5,0,1.2.1,1.2,1s-.5,1-1.2,1h-6.4c.4.2.7.4.6,1h5.9c.4,0,1,0,1,1s-.6,1-1,1h-3.4c.9,1,1,1.1,1.4,1.4.1-.2.7-.9.9-1.1s.3-.2.5-.2c.5,0,1.1.4,1.1.8s-.7,1.1-1,1.5c.2.1,1.1.6,1.3.7.4.2.4.5.4.7,0,.6-.4,1.3-1.1,1.3s-.6-.1-.9-.3v1.4h.1ZM219,36.3c-.6.4-1.8,1.1-2.3,1.1-.8,0-1-.7-1-1.1,0-.6.2-.6,1.4-1.3.8-.4,1.1-.6,1.9-1.2.3-.2.5-.3.8-.3.6,0,1.1.5,1.1,1.1s-.5.8-1.9,1.7ZM216.5,28.7c.1-.3.3-.6.4-.6.3-.2.8-.6,1.2-.8-.2-.3-.5-.6-.8-.8-.2-.2-.3-.4-.3-.6,0-.5.6-.9,1.1-.9s.5.1,1.4,1.2c.4-.4.8-.8,1.1-1.3h-2.8c-.6,0-1-.2-1-1s.6-.9,1-.9h3.9c.2-.5.4-.9.5-1h-4.9c-.5,0-.7.2-.7.7v6h0ZM220.6,29.3h6.1v-.4c0-.3-.1-.5-.5-.5h-5.1c-.4,0-.5.2-.5.5v.4ZM220.6,30.8v.4c0,.3.1.5.5.5h5.1c.4,0,.5-.3.5-.5v-.4h-6.1ZM225.5,26.8c-.9-.9-1.1-1.4-1.3-1.8h-1.1c-.3.5-.6,1-1.3,1.8h3.7ZM227.1,33.5c.3,0,.4,0,1,.5.8.6,1.5.9,2.3,1.4.2,0,.5.3.5.8s-.4,1.2-1.2,1.2-1.6-.7-2.2-1.1c-.6-.4-1.6-1.1-1.6-1.7s.7-1.1,1.2-1.1Z"/>
              <path class="cls-10" d="M238.7,34.1c-1.8,3.5-2.1,3.5-2.6,3.5s-1.4-.5-1.4-1.2.2-.7,1-2.1c.8-1.3,1.4-2.6,2.1-4.1.1-.3.3-.7,1-.7s1.2.4,1.2,1.1c.1.7-.9,2.7-1.3,3.5ZM236,23.9c.6,0,1.7.7,2.4,1.2,1.2.8,1.4,1.1,1.4,1.5,0,.6-.6,1.4-1.3,1.4s-.5-.1-1.7-1c-.2-.2-1.2-.8-1.4-1-.4-.2-.5-.4-.5-1s.5-1.1,1.1-1.1ZM236.6,18.6c.6,0,1.7.7,2.4,1.1,1.2.7,1.5,1,1.5,1.5s-.6,1.4-1.2,1.4-.4-.1-1.7-.9c-.3-.2-1.5-.9-1.7-1s-.5-.3-.5-.9.5-1.2,1.2-1.2ZM241.4,29.1c-.4,0-1.3,0-1.3-1.2s.6-1.2,1.3-1.2h4.5v-3.1h-3.6c-.3,0-1.3,0-1.3-1.2s.4-1.3,1.3-1.3h3.6v-1.5c0-.5.1-1.3,1.2-1.3s1.4.3,1.4,1.3v1.5h3.8c.3,0,1.3,0,1.3,1.2s-.5,1.3-1.3,1.3h-3.8v3.1h4.5c.3,0,1.3,0,1.3,1.1s-.4,1.3-1.3,1.3h-6.2c-.8,2.2-1.9,4.5-2.3,5.5,2.3,0,2.9-.2,5.6-.4-.4-.7-.5-.9-1.3-2-.3-.4-.3-.6-.3-.8,0-.7.8-1.1,1.3-1.1s.8.2,1.7,1.5c.5.8,1.3,1.8,2,3.2.5.8.6,1.2.6,1.6,0,.7-.7,1.2-1.4,1.2s-.9-.5-1-.7c-.1,0-.3-.6-.3-.7-4.4.6-9.9.9-10.1.9s-1.2,0-1.2-1.3.2-.8.6-1.1h1.2c.9-1.8,1.7-3.7,2.3-5.6h-2.8v-.2Z"/>
              <path class="cls-10" d="M266.1,19.8c0-.4,0-1.3,1.4-1.3s1.4.9,1.4,1.3v2c0,1.6.2,5.9,2.7,9.2,1.2,1.6,2.8,2.9,4.5,3.9.5.3,1,.6,1,1.3s-.5,1.6-1.5,1.6-3.5-2.1-4.9-3.6c-1.6-1.8-2.7-4.1-3.3-6.4-1,3.7-2.4,5.5-3.7,6.9-1.2,1.2-3.4,3.1-4.4,3.1s-1.5-.8-1.5-1.6.4-.9.8-1.1c2.7-1.5,5.7-3.6,7-9.1.2-.9.4-3.7.4-4v-2.2h.1Z"/>
              <path class="cls-10" d="M285.5,21.5c1,0,1.9.4,1.9,1.7s-.3,1.8-1.8,4c.5.5.9.9,1.6,1.6.8.8,1,.9,1,1.3,0,.6-.5,1.3-1.2,1.3s-1.4-.9-1.9-1.7v7c0,1-.5,1.3-1.4,1.3s-1.2-.7-1.2-1.3v-6.1c-.8.7-1.3,1-1.8,1s-1.3-.7-1.3-1.5.3-.9,1.8-2c2.3-1.6,3.4-3.7,3.4-3.9,0-.3-.3-.3-.5-.3h-3.3c-.6,0-1.3-.2-1.3-1.2s.9-1.2,1.3-1.2h1.7v-1.8c0-.9.4-1.3,1.4-1.3s1.2.9,1.2,1.3v1.8h.4,0ZM297.1,23.8c.3,0,1.3,0,1.3,1.2s-.4,1.4-1.3,1.4h-2.9v8.3h3.3c.3,0,1.3,0,1.3,1.2s-.4,1.4-1.3,1.4h-9.5c-.4,0-1.5,0-1.5-1.2s.5-1.3,1.5-1.3h3.5v-8.3h-2.8c-.3,0-1.3,0-1.3-1.2s.4-1.4,1.3-1.4h2.8v-4.2c0-.5.1-1.3,1.2-1.3s1.4.3,1.4,1.3v4.2h3Z"/>
              <path class="cls-10" d="M320.6,34.6c0,2.1-.9,2.8-2.8,2.8h-12.2c-1.8,0-2.8-.6-2.8-2.8v-12.7c0-2.1.9-2.8,2.8-2.8h12.2c1.8,0,2.8.6,2.8,2.8v12.7ZM318.1,22.4c0-.6-.3-.8-.8-.8h-11c-.6,0-.8.3-.8.8v11.7c0,.6.3.8.8.8h11c.5,0,.8-.3.8-.8v-11.7ZM315.8,32.3c0,2.3-.7,2.3-3.6,2.3s-1.6,0-1.6-1.1.8-1.1,1-1.1h1c.7,0,.7-.3.7-.7v-5.5h-6.6c-.4,0-1.2,0-1.2-1s.4-1.2,1.2-1.2h6.6v-1.3c0-.8.3-1.2,1.1-1.2s1.3.2,1.3,1.2v1.3h1.1c.4,0,1.2,0,1.2,1.1s-.4,1.2-1.2,1.2h-1.1v6h.1ZM310.1,28.8c.4.6,1,1.5,1,2.1s-.9,1.2-1.4,1.2-.7-.3-1.3-1.3-.5-.8-1.2-1.7c-.2-.2-.4-.6-.4-1,0-.6.7-1,1.2-1s.8,0,2.1,1.7h0Z"/>
            </g>
            <path class="cls-7" d="M352.2,20.1c.3,0,1.3,0,1.3,1.1s-.3,1.2-1.3,1.2h-7.2v4.5c0,2.7.8,4.7,3,6.4,1.3,1,3,1.5,4.4,1.8.7.2,1,.4,1,1.1s-.2,1.5-1.3,1.5-6.6-2-8.3-6c-.3.7-.8,2-2.8,3.6-2.1,1.6-4.5,2.5-5.4,2.5s-1.3-1.2-1.3-1.5c0-.8.5-1,1-1.1,4.2-1.1,7.3-2.8,7.3-8.7v-4h-7.3c-.4,0-1.2-.1-1.2-1.2s.6-1.2,1.2-1.2h7.3v-.8c0-.7.3-1,1.2-1s1.4.2,1.4,1v.8h7,0ZM341.5,28.6c0,.5-.5,1-1.5,1.8.6.6.8.8.8,1.2,0,.7-.7,1.2-1.2,1.2s-.6-.2-.8-.5c-.1,0-.2-.3-.6-.6-1,.6-2.4,1.2-2.9,1.2-.8,0-1-.8-1-1.2,0-.6.4-.8.8-.9,1-.4,1.1-.4,1.5-.6-.2-.1-1-.7-1.1-.8-.1-.1-.3-.3-.3-.6,0-.5.5-1,1.1-1s.5,0,2.2,1.3c.3-.2.6-.5,1.2-1,.2-.1.3-.3.7-.4-.2,0-.4,0-.6-.1s-1.1-.9-1.3-1.1c-1.2.7-2.7,1.4-3.1,1.4-.7,0-.9-.7-.9-1.1s.4-.7.7-.8c1.2-.5,1.3-.5,1.6-.7-1.3-.8-1.5-1-1.5-1.4,0-.6.5-1,1-1s.5.1.9.3c.4.2,1,.6,1.5.9.2-.1.8-.6,1.2-1,.2-.2.4-.3.7-.3.6,0,1,.5,1,.9s-.3.8-1.2,1.4c1.1.8,1.2,1,1.2,1.4s-.4,1-1,1.1c.4,0,.9.5.9,1h0ZM352.5,26.3c0,.6-.5,1.1-1.1,1.1s-.5-.1-.7-.3c-.6-.6-.7-.6-1-.8-1.1.7-2.7,1.5-3.2,1.5-.8,0-1-.8-1-1.1,0-.6.5-.8.8-.9.9-.4,1-.4,1.6-.7-.2-.1-1.2-.7-1.4-.8-.1-.1-.4-.3-.4-.6s.4-.9,1.1-.9,1.9.8,2.5,1.2c.3-.2.3-.3,1.1-.9.2-.2.5-.3.7-.3.6,0,1,.5,1,1s-.3.7-1.1,1.4c.9.5,1.1.7,1.1,1.1ZM351.1,27.8c.2-.2.5-.3.7-.3.6,0,1.1.5,1.1,1s-.4.8-1.3,1.7c1.1.9,1.3,1.1,1.3,1.6s-.7,1.1-1.2,1.1-.5,0-.8-.4c-.4-.4-.8-.7-1.2-1-.5.3-1.8,1.1-2.3,1.1s-1-.7-1-1.2.3-.7.5-.8c.2-.1.9-.4,1-.5-.2-.1-.3-.2-1-.7-.2-.1-.5-.4-.5-.8s.5-1,1.1-1,1.8.9,2.4,1.3c.4-.3.5-.4,1.2-1.1h0ZM359.7,25.7c-.3-.5-.7-.8-1.5-1.7-.8-.8-.9-.9-.9-1.5s.4-1.2,1-1.2.3.1.5.1c.3-.6.8-1.3,1.1-2.1.3-.7.5-1.1,1-1.1s1.3.4,1.3,1-1.2,2.6-1.9,3.6c.3.3.4.4.6.7.6-1,.7-1,1.6-2.7.2-.3.5-.6.8-.6.6,0,1.3.5,1.3,1.1s-.7,1.4-1,1.9c-1.1,1.7-1.8,2.5-2.7,3.7.4,0,.6,0,1.9-.1-.3-.9-.3-1-.3-1.2,0-.5.5-.7.8-.7.5,0,.7.4.9.9.3.7.7,2.2.8,2.5.4-.6.8-.6.9-.6.3,0,.5.1,1.5,1,.3.3,1,1,1,1.6s-.4,1-1.1,1-.4-.1-1-.7c-.2-.2-1.1-1.1-1.3-1.4-.2.3-.5.4-.9.4-.6,0-.7-.4-.8-1-.2,0-.3,0-1.2.1v7.7c0,.3,0,1.1-1,1.1s-1-.8-1-1.1v-7.5c-1.2.1-1.6.2-2.1.2s-1.1-.3-1.1-1.2.6-1,1.6-1.1l1.2-1.1h0ZM359.7,31.2c0,.4-.2,3.2-.6,4.6-.1.3-.2.7-.8.7s-1.1,0-1.1-.9.3-1.5.3-1.7c.2-1.1.2-1.8.3-2.9,0-.5.1-.9.9-.9s1,.7,1,1.1h0ZM366.8,32.4c.7-.5.9-.5,1.1-.5.6,0,1,.6,1,1.2s-.2.7-1.5,1.6c-.6.4-2,1.4-2.5,1.4s-1-.6-1-1.3,0-.3.1-.4c-.7,0-.7-.3-.9-1.6,0-.3-.2-1.7-.2-1.8,0-.6.7-.7.9-.7.7,0,.8.3,1,1.5,0,.1.2,1.3.2,1.8.6-.4,1.5-1,1.8-1.2ZM371.6,35.4c0,2-.4,2.3-2.4,2.3h-1.5c-.6,0-.9-.7-.9-1.2s.2-1.2,1.1-1.2h.9c.3,0,.5-.2.5-.6v-7.3h-3.4c-.3,0-1,0-1-1s.3-1.1,1-1.1h6.8v-1.1h-5.8c-.3,0-1,0-1-.9s.5-.9,1-.9h5.8v-.6c0-.2-.1-.5-.5-.5h-5.7c-.3,0-1,0-1-1s.2-1.1,1-1.1h6.4c1.4,0,2.2.5,2.2,2.2v4.1h.6c.6,0,.9.4.9,1,0,1-.7,1-1,1h-3.9v1.1c.2.6.7,1.4.9,1.7.3-.3.9-.9,1.5-1.6.5-.6.7-.8,1.1-.8.7,0,1.2.6,1.2,1.1s-.1.7-.5,1.1c-.8.9-1.5,1.6-2,2,.5.6.9,1,1.4,1.4,1.1.9,1.4,1.2,1.4,1.7s-.6,1.3-1.3,1.3-2.6-1.9-3.7-3.9v2.8s-.1,0-.1,0ZM385.8,26.2c-.8,0-1.2-.3-1.2-1-.8.5-2.3,1.3-3,1.3s-1.3-.7-1.3-1.5.5-1,1.1-1.3c3.1-1.2,4.9-2.9,6.4-4.4.8-.8,1.2-1.1,2.2-1.1s1.3.3,2.5,1.4c1.1,1.1,2.8,2.7,6.2,4.1.6.2,1,.5,1,1.2s-.6,1.5-1.3,1.5-2.1-.8-2.9-1.3c-.1.9-.7,1-1.3,1h-8.4ZM388.6,30.5c-.5,1.2-.9,2.2-2,4.1,2.9,0,3.4,0,7.7-.4-.3-.4-.4-.5-1.2-1.4-.5-.5-.5-.7-.5-1,0-.6.8-1.2,1.4-1.2s.7.1,1,.5c.8.8,1.8,1.8,2.7,3.1,1,1.2,1.2,1.6,1.2,2.1s-.9,1.4-1.6,1.4-.7-.3-.8-.5c-.1,0-.5-.8-.6-.9-2.1.2-4.4.4-6.5.6-1,0-6.3.4-7.2.4s-1.3,0-1.3-1.3,0-1.1.9-1.2h1.9c.7-1.4,1.5-2.7,2-4.2h-3.7c-.9,0-1.3-.4-1.3-1.3s1-1.2,1.3-1.2h16c.8,0,1.3.3,1.3,1.3s-1,1.2-1.3,1.2h-9.4ZM393.6,23.9c-.6-.5-1.8-1.4-3-2.7-.3-.3-.4-.4-.6-.4s-.3.1-.6.4c-.9,1-1.9,1.9-3,2.7h7.2Z"/>
          </g>
          <path class="cls-11" d="M19.8,11.9c.6,15,12.5,27.1,27.5,27.8-.6-15-12.5-27.1-27.5-27.8"/>
          <path class="cls-2" d="M90.5,0c-22.3,1.6-47.8,20.5-39.3,68.8,0-15.5,2.3-24.9,4.2-29.5,19.3-2.9,34.3-19.3,35.1-39.3"/>
          <path class="cls-10" d="M29.7,86.2h1c.3.2.5.5.5.9s-.2.8-.5.9h-4.5v3.5c0,.6,0,.8-.2,1.1-.2.3-.6.6-1.1.6s-.9-.2-1.1-.6c-.1-.3-.2-.5-.2-1.1v-9.4c0-.4,0-.8.3-1.1.3-.3.8-.3,1.1-.3h6.3c.3.2.5.5.5.9s-.2.8-.5.9h-5.4v3.1h3.8v.6Z"/>
          <path class="cls-10" d="M37.2,93.5c-.9,0-1.6-.3-2.2-.8-.7-.7-.9-1.6-.9-2.6v-5.3c.2-.3.5-.5,1-.5s.8.2,1,.5v5c0,1.2.8,1.6,1.5,1.6s1.5-.4,1.5-1.6v-5c.2-.3.5-.5,1-.5s.8.2,1,.5v7.2c0,.6,0,.8-.2,1-.2.3-.6.5-1,.5s-.6,0-.7-.3c-.2-.2-.3-.4-.3-.7-.4.7-1.3,1-2.1,1"/>
          <path class="cls-10" d="M45.5,86.3h-1c-.3,0-.4-.4-.4-.8s0-.6.4-.8h1v-2.2c.2-.3.5-.5,1-.5s.8.2,1,.5v2.2h1.5c.3,0,.4.4.4.8s0,.6-.4.8h-1.5v4.4c0,.4.2.8.7.8h.7c.3,0,.5.4.5.8s-.2.7-.5.8c-.2,0-.5.2-.9.2h0c-1.9,0-2.6-1.3-2.6-2.6v-4.5h0Z"/>
          <path class="cls-10" d="M53.8,86.6c-.3.2-.6.2-.8.2s-.5,0-.6-.3c-.2-.2-.3-.4-.3-.7,0-.5.4-.9.8-1.1.7-.4,1.4-.5,2.3-.5,2.5,0,3.8,1.1,3.8,3.2v4.6c0,.6,0,.8-.2,1-.2.3-.6.5-1,.5s-.6,0-.7-.3c-.2-.2-.3-.3-.3-.6-.7.6-1.2.9-2.3.9s-1.8-.3-2.3-.8-.8-1.2-.8-2c0-1.5,1-2.6,3.1-2.6h2.1v-.5c0-1-.5-1.4-1.6-1.4s-.7,0-1.2.4M56.9,89.6h-1.7c-.9,0-1.3.4-1.3,1s.4,1,1.4,1,1,0,1.3-.4.4-.6.4-1.2v-.4h-.1Z"/>
          <path class="cls-10" d="M62.5,82.5v-1c.2-.3.5-.5,1-.5s.8.2,1,.5v3.7c.6-.7,1.3-.9,2.2-.9s1.7.3,2.2.8c.9.9.9,2.3.9,3.8s0,3-.9,3.8-1.3.8-2.2.8-1.6-.3-2.3-.9c0,.3-.2.5-.3.6-.2.2-.4.3-.7.3s-.8-.2-1-.5c0-.3-.2-.4-.2-1v-9.5h.3ZM66.3,86.3c-1.4,0-1.5,1.1-1.5,2.6s.2,2.6,1.6,2.6,1.5-1.1,1.5-2.6-.3-2.6-1.6-2.6"/>
          <path class="cls-10" d="M74.7,86.6c-.3.2-.6.2-.8.2s-.5,0-.6-.3c-.2-.2-.3-.4-.3-.7,0-.5.4-.9.8-1.1.7-.4,1.4-.5,2.3-.5,2.5,0,3.8,1.1,3.8,3.2v4.6c0,.6,0,.8-.2,1-.2.3-.6.5-1,.5s-.6,0-.7-.3c-.2-.2-.3-.3-.3-.6-.7.6-1.2.9-2.3.9s-1.8-.3-2.3-.8-.8-1.2-.8-2c0-1.5,1-2.6,3.1-2.6h2.1v-.5c0-1-.5-1.4-1.6-1.4s-.7,0-1.2.4M77.7,89.6h-1.7c-.9,0-1.3.4-1.3,1s.4,1,1.4,1,1,0,1.3-.4.3-.6.3-1.2v-.4Z"/>
          <g class="cls-13">
            <polygon class="cls-6" points="58.6 86.6 102.4 78.9 93 25.6 49.2 33.4 58.6 86.6"/>
          </g>
          <g class="cls-8">
            <polygon class="cls-5" points="9.2 25.6 53.2 33.6 44 86.6 0 78.7 9.2 25.6"/>
          </g>
          <g id="_レイヤー_4のコピー">
            <circle class="cls-2" cx="529.4" cy="46.7" r="46.7"/>
            <g id="_埼玉" data-name="埼玉">
              <g class="cls-3">
                <g class="cls-3">
                  <path class="cls-9" d="M512.3,49.3l2.3-.7.4,2.4c-2.4,1-4.9,2-6.6,2.6,0,.2-.2.4-.3.5l-1.2-3.1c.8-.2,1.8-.5,2.9-.9v-6.5h-2.4v-2.6h2.4v-5.3l3.2.2c0,.2-.2.3-.6.4v4.7h2.2v2.6h-2.2v5.7ZM528.8,44.6v2.4h-1.9v7.6c0,2.3-.9,2.7-4.7,2.7-.1-.7-.5-1.8-.8-2.4,1,0,2.1,0,2.4,0s.4,0,.4-.4v-7.5h-10.1v-2.4h1.9c-.3-.6-.8-1.4-1.2-1.8,3-.6,4.4-1.5,5.1-2.9h-4.7v-2.3h5.2c0-.6,0-1.3,0-2l3.2.2c0,.2-.2.4-.6.4,0,.5,0,1,0,1.4h5.3v2.3h-5.7c1.9,1,4.5,2.3,5.9,3.1l-1.4,1.6h1.7ZM522.6,53.8h-4.4v1.4h-2.3v-7.1h6.7v5.7ZM526.1,44.6c-1.2-.7-2.9-1.7-4.5-2.4-.8,1.1-2.1,1.8-4.1,2.4h8.6ZM520.3,50.1h-2.1v1.8h2.1v-1.8Z"/>
                  <path class="cls-9" d="M542.2,53.8h9.3v2.7h-21.1v-2.7h8.8v-6.3h-6.7v-2.7h6.7v-5.1h-7.8v-2.7h19v2.7h-8.3v5.1h7.2v2.7h-7.2v6.3ZM547.5,53.6c-.8-1.2-2.5-3-3.9-4.2l2.2-1.6c1.4,1.2,3.2,2.8,4,4l-2.3,1.9Z"/>
                </g>
              </g>
            </g>
          </g>
        </g>
      </g>
    </g>
  </g>
</svg>