<?xml version="1.0" encoding="utf-8"?>
<!-- Generator: Adobe Illustrator 22.0.1, SVG Export Plug-In . SVG Version: 6.00 Build 0)  -->
<svg version="1.1" id="レイヤー_1" xmlns="http://www.w3.org/2000/svg" xmlns:xlink="http://www.w3.org/1999/xlink" x="0px"
	 y="0px" viewBox="0 0 11 11" style="enable-background:new 0 0 11 11;" xml:space="preserve">
<style type="text/css">
	.st0{fill:#58B7ED;}
	.st1{display:none;}
	.st2{display:inline;}
	.st3{fill:#469BC1;}
	.st4{enable-background:new    ;}
	.st5{fill:#FFFFFF;}
	.st6{font-family:'HiraMaruStd-W8-90ms-RKSJ-H';}
	.st7{font-size:2.3726px;}
</style>
<path class="st0" d="M10.1,11H0.9C0.4,11,0,10.6,0,10.1V0.9C0,0.4,0.4,0,0.9,0h9.2C10.6,0,11,0.4,11,0.9v9.2
	C11,10.6,10.6,11,10.1,11z"/>
<g class="st1">
	<g class="st2">
		<g>
			<path class="st3" d="M8.4,6.6C8.2,6.5,8,6.5,7.9,6.6L6.7,7.2V7.1c0-0.3-0.2-0.5-0.5-0.5H5c-0.2,0-0.5-0.1-0.7-0.1L3.5,6.3V5.9
				c0-0.1-0.1-0.2-0.2-0.2h-1c-0.1,0-0.2,0.1-0.2,0.2v2.8c0,0.1,0.1,0.2,0.2,0.2h1.1c0.1,0,0.2-0.1,0.2-0.2V8.5l0.1,0.1
				C4,8.8,4.4,9,4.8,9h1c0.4,0,0.7-0.1,1-0.3l1.6-1.1c0.2-0.1,0.2-0.3,0.2-0.4C8.7,6.9,8.6,6.7,8.4,6.6z M3.2,8.5H2.5V6.1h0.7V8.5z
				 M8.2,7.2L6.6,8.3C6.4,8.5,6.1,8.6,5.8,8.6h-1c-0.3,0-0.7-0.1-0.9-0.3L3.5,8V6.6l0.6,0.2C4.4,6.9,4.7,6.9,5,6.9h1.2
				c0.1,0,0.2,0.1,0.2,0.2v0.2C6.1,7.4,5.6,7.5,5.1,7.4c-0.1,0-0.2,0-0.2,0.1s0,0.2,0.1,0.2c0.2,0,0.3,0,0.5,0c0.6,0,1-0.2,1.1-0.2
				l0,0l0,0l0,0l0,0L8,6.9c0.1,0,0.1,0,0.2,0S8.3,7,8.3,7C8.4,7.1,8.3,7.2,8.2,7.2z"/>
			<path class="st3" d="M2.4,4.2c0.2,0.1,0.4,0.1,0.5,0l1.2-0.6v0.1c0,0.3,0.3,0.6,0.6,0.6h1.2c0.2,0,0.5,0,0.7,0.1l0.7,0.2v0.3
				c0,0.1,0.1,0.2,0.2,0.2h1.1c0.1,0,0.2-0.1,0.2-0.2V2.1c0-0.1-0.1-0.2-0.2-0.2H7.5C7.4,1.9,7.3,2,7.3,2.1v0.3L7.2,2.3
				C6.9,2,6.5,1.9,6,1.9H5C4.7,1.9,4.3,2,4,2.2L2.4,3.3C2.2,3.4,2.2,3.6,2.2,3.7C2.2,3.9,2.3,4.1,2.4,4.2z M7.6,2.3h0.7v2.5H7.6V2.3
				z M2.6,3.6l1.6-1.1C4.4,2.4,4.7,2.3,5,2.3h1c0.3,0,0.6,0.1,0.9,0.3l0.3,0.3v1.4L6.6,4C6.4,4,6.1,3.9,5.8,3.9H4.7
				c-0.1,0-0.2-0.1-0.2-0.2V3.5c0.2-0.1,0.7-0.2,1.2-0.1c0.1,0,0.2-0.1,0.2-0.2C5.9,3.1,5.8,3,5.7,3C5,2.9,4.3,3.2,4.2,3.2l0,0l0,0
				l0,0l0,0L2.8,3.9c-0.1,0-0.1,0-0.2,0S2.5,3.8,2.5,3.8C2.5,3.7,2.5,3.6,2.6,3.6z"/>
			<path class="st3" d="M5.5,4.8c-0.1,0-0.2-0.1-0.3-0.1C4.9,4.7,4.6,5,4.6,5.3c0,0.2,0.1,0.4,0.4,0.6c0.2,0.2,0.3,0.3,0.4,0.3h0.1
				h0.1c0,0,0.2-0.1,0.4-0.3c0.3-0.3,0.4-0.5,0.4-0.6c0-0.3-0.3-0.6-0.6-0.6C5.7,4.7,5.6,4.8,5.5,4.8z M6,5.3c0,0.1-0.2,0.4-0.5,0.6
				C5.2,5.7,5,5.4,5,5.3s0.1-0.2,0.2-0.2s0.1,0,0.2,0.1l0.1,0.1c0.1,0,0.1,0,0.1-0.1c0.1-0.1,0.1-0.1,0.2-0.1C5.9,5.1,6,5.2,6,5.3z"
				/>
		</g>
	</g>
</g>
<g>
	<path class="st3" d="M9.4,8C9.3,7.8,9.2,7.6,9,7.5c-0.1,0-0.2-0.1-0.3-0.1V7.2c0-0.2,0-0.3-0.1-0.4C8.5,6.6,8.4,6.4,8.2,6.3
		C8,6.2,7.8,6.1,7.6,6.1c-0.2,0-0.3,0-0.4,0.1C6.9,6.3,6.8,6.4,6.6,6.6C6.5,6.8,6.4,7,6.4,7.2V8c0,0.1,0,0.2,0,0.2
		c0,0.1-0.1,0.2-0.2,0.3C6.1,8.6,6,8.6,5.9,8.6s-0.2,0-0.2,0c-0.1,0-0.2-0.1-0.3-0.2C5.3,8.2,5.3,8.1,5.3,8V6.3
		c0.2,0,0.4-0.1,0.6-0.2C6.4,6,6.7,5.7,7,5.4C7.2,5.2,7.3,5,7.4,4.8s0.2-0.4,0.3-0.6C7.8,4,7.8,3.7,7.8,3.5s0-0.3,0-0.4
		S7.7,2.9,7.7,2.8S7.6,2.7,7.6,2.6C7.5,2.5,7.4,2.4,7.3,2.4C7.2,2.3,7,2.3,6.9,2.3v0.6c0,0,0,0,0.1,0l0,0c0,0,0,0,0.1,0.1
		c0,0,0.1,0.1,0.1,0.2s0,0.2,0,0.3c0,0.2,0,0.4-0.1,0.6c0,0.2-0.1,0.4-0.3,0.6C6.6,5,6.4,5.3,6.1,5.5c-0.2,0-0.4,0.1-0.5,0.2
		C5.4,5.7,5.2,5.8,5,5.8c-0.3,0-0.5-0.1-0.7-0.1C4.1,5.5,4,5.5,3.8,5.4C3.6,5.2,3.4,5,3.2,4.8C3.1,4.6,2.9,4.3,2.9,4.1
		C2.8,3.9,2.8,3.7,2.8,3.5c0-0.1,0-0.2,0-0.3c0-0.1,0-0.1,0.1-0.2c0,0,0-0.1,0.1-0.1l0.1-0.1h0.1V2.3c-0.1,0-0.1,0-0.2,0
		c-0.1,0-0.1,0-0.2,0.1c-0.2,0-0.3,0.1-0.3,0.2C2.4,2.7,2.3,2.8,2.3,3c0,0.2-0.1,0.3-0.1,0.5s0,0.5,0.1,0.8C2.4,4.5,2.5,4.8,2.7,5
		c0.2,0.4,0.6,0.7,1,0.9C3.9,6,4.1,6.1,4.3,6.2c0.1,0,0.3,0.1,0.4,0.1V8c0,0.2,0,0.3,0.1,0.4C4.9,8.7,5,8.8,5.2,9
		c0.2,0.1,0.4,0.2,0.6,0.2s0.3,0,0.4-0.1C6.5,9,6.7,8.8,6.8,8.7C6.9,8.5,7,8.3,7,8V7.2c0,0,0-0.1,0-0.2c0-0.1,0.1-0.2,0.2-0.3
		c0.1-0.1,0.2-0.1,0.3-0.1c0.1,0,0.2,0,0.2,0c0.1,0,0.2,0.1,0.3,0.2C8.1,7,8.1,7.1,8.1,7.2v0.2H8C7.9,7.5,7.7,7.6,7.6,7.8
		S7.4,8.2,7.4,8.4c0,0.1,0,0.3,0.1,0.4C7.6,9,7.7,9.1,7.9,9.2C8,9.3,8.2,9.4,8.4,9.4c0.1,0,0.3,0,0.4-0.1C9,9.2,9.2,9.1,9.3,8.9
		s0.2-0.4,0.2-0.6C9.5,8.2,9.4,8.1,9.4,8z M8.9,8.6c0,0.1-0.1,0.2-0.2,0.2C8.6,8.9,8.5,8.9,8.4,8.9s-0.1,0-0.2,0
		C8.1,8.8,8,8.8,8,8.7S7.9,8.5,7.9,8.4s0-0.1,0-0.2C8,8.1,8,8,8.1,7.9s0.2-0.1,0.3-0.1s0.1,0,0.2,0c0.1,0,0.2,0.1,0.2,0.2
		C8.9,8.2,9,8.3,9,8.4C9,8.5,9,8.5,8.9,8.6z"/>
	<path class="st3" d="M3.9,3.1C4,3,4.1,2.9,4.1,2.8V2.3C4.1,2.2,4,2.1,4,2C3.8,2,3.7,2,3.6,2L3.3,2.1v1l0.3,0.1
		C3.7,3.2,3.8,3.2,3.9,3.1z"/>
	<path class="st3" d="M6.1,3.1c0.1,0.1,0.2,0.1,0.3,0.1l0.3-0.1v-1L6.4,2C6.3,2,6.2,2,6.1,2.1C6,2.1,5.9,2.2,5.9,2.3v0.4
		C5.9,2.9,6,3,6.1,3.1z"/>
</g>
<text transform="matrix(1 0 0 1 2.6826 4.1142)" class="st4"><tspan x="0" y="0" class="st5 st6 st7">内 科</tspan><tspan x="1.6" y="1.9" class="st5 st6 st7">・</tspan><tspan x="0" y="3.8" class="st5 st6 st7">外 科</tspan></text>
</svg>
