<?xml version="1.0" encoding="utf-8"?>
<!-- Generator: Adobe Illustrator 22.0.1, SVG Export Plug-In . SVG Version: 6.00 Build 0)  -->
<svg version="1.1" id="レイヤー_1" xmlns="http://www.w3.org/2000/svg" xmlns:xlink="http://www.w3.org/1999/xlink" x="0px"
	 y="0px" viewBox="0 0 461.7 93.5" style="enable-background:new 0 0 461.7 93.5;" xml:space="preserve">
<style type="text/css">
	.st0{fill:url(#SVGID_3_);}
	.st1{fill:#F19CA8;}
	.st2{fill:#FAC359;}
	.st3{fill:#A9987F;}
	.st4{fill:url(#SVGID_4_);}
	.st5{fill:#8BC33F;}
	.st6{fill:#29AD4B;}
	.st7{clip-path:url(#SVGID_5_);fill:url(#SVGID_6_);}
	.st8{clip-path:url(#SVGID_7_);fill:url(#SVGID_8_);}
</style>
<g>
	<linearGradient id="SVGID_3_" gradientUnits="userSpaceOnUse" x1="115.5331" y1="63.912" x2="243.0245" y2="63.912">
		<stop  offset="0" style="stop-color:#8BC33F"/>
		<stop  offset="1" style="stop-color:#29AD4B"/>
	</linearGradient>
	<path class="st0" d="M126.4,64.3c0,1.8-2.3,9.4-3.4,12.3c-0.9,2.4-1.8,4.3-3.8,4.3c-1.5,0-3.7-1.2-3.7-3.1c0-0.9,0.2-1.4,1.1-2.9
		c1.4-2.6,2.6-6.8,3.1-8.8c0.6-2.7,1-4.5,3.3-4.5c0.3,0,0.7,0,1.1,0.1C125,62,126.4,62.6,126.4,64.3 M150.2,65.5
		c-1.3-2.8-3.7-5.2-6.8-5.2c-2.1,0-2.7,1.5-2.9,2.3c0,0.2-0.1,0.5-0.1,0.8c0,0.9,0.4,1.4,0.6,1.6c0.2,0.2,1.6,1.1,1.9,1.3
		c2.1,1.8,2.5,7.3,2.8,10.7c0.1,1,0.3,3.2,3.3,3.2c0.9,0,2.1-0.3,2.8-1.1c0.4-0.5,0.7-1.2,0.7-2.5C152.5,76.4,151.9,69,150.2,65.5
		 M142.1,55.3c1.8-0.2,3.4-0.6,3.4-3.2c0-2.7-2.2-2.9-4.4-3.1c-4.8-0.3-9.3-1-11.5-1.4c-0.8-0.1-4.5-1-5.4-1c-2,0-2.5,1.8-2.7,2.7
		c-0.3,2.5,1.4,3,3.1,3.4c1.7,0.4,4.2,0.9,6.8,1.3c-2.1,1.2-3.5,3.2-3.3,6.1c0.2,3.8,2.6,6.9,3.7,8.1c2.2,2.6,3.1,3.6,3.1,5.4
		c0,0.4-0.1,2.8-2.9,2.8c-1,0-1.8-0.2-2.3-0.4c-1.5-0.5-1.7-0.6-2.3-0.6c-2.9,0-2.9,3.1-2.9,3.3c0,1.1,0.4,2,1.7,2.7
		c2.4,1.3,5.3,1.6,6.8,1.6c6.8,0,8.8-5.2,8.8-8.4c0-3.1-1.3-5.9-4.4-9.2C132.1,59.8,133.2,56.5,142.1,55.3 M169.6,47.4
		c0.6-0.8,1.6-1,2.4-1c1.6,0,3.5,0.5,3.5,2.7c0,0.6-0.1,1.2-0.3,2.4c3.3-0.1,7.2-0.2,9.8-0.3c0.5,0,2.7-0.2,3.1-0.2
		c0.8,0,3.2,0,3.2,3.1c0,2.8-2,2.9-3.3,3c-4.2,0.2-9.4,0.4-14,0.5c-1.1,5.2-6,22.6-7.7,24.4c-0.3,0.3-0.9,0.8-2,0.8
		c-1.1,0-3.8-0.6-3.8-2.9c0-0.9,0.7-2.4,1.1-3.2c1.6-3.7,3.6-9.8,4.7-14c0.4-1.8,0.9-3.9,1.2-4.9c-2.3,0.1-4.7,0.1-5.5-0.4
		c-1.1-0.6-1.2-1.8-1.2-2.6c0-2.5,1.3-3.1,3.3-3.1h4.4C169.1,48.3,169.1,47.9,169.6,47.4 M187.7,82.5c-9.7,0-13.9-1.6-13.9-6.9
		c0-0.5,0-5,4-5c1.5,0,3.1,0.6,3.1,2.1c0,0.4-0.1,0.7-0.2,0.9c-0.2,0.7-0.3,0.8-0.3,1.2c0,0.7,0.5,1.2,1.9,1.5
		c1.1,0.2,2.5,0.2,3.4,0.2c1.1,0,3.3-0.1,6-0.4c0.5,0,1.4-0.2,1.8-0.2c1.8,0,2.9,1,2.9,2.9C196.4,81.8,195,82.5,187.7,82.5
		 M194.3,66.3c-0.5,0.4-1.1,0.5-2,0.5c-0.7,0-3.8-0.2-4.4-0.2c-2.6,0-3.7,0.1-7.5,0.4c-0.2,0-0.9,0.1-1.5,0.1
		c-2.7,0-2.7-2.7-2.7-3.1c0-1.3,0.5-2.4,2.4-2.9c2.6-0.6,7.3-0.7,10.1-0.7c6.2,0,6.6,1,6.6,3.5C195.3,64.6,195,65.7,194.3,66.3
		 M213.4,49.7c0,0.5-0.8,5.6-0.9,6.7c-0.3,3.3-0.5,6.6-0.5,9.9c0,3.6,0.2,7.3,0.7,10.9c0.1,0.9,0.2,2.1,0.2,2.6c0,2-1.2,2.8-3.1,2.8
		c-0.8,0-2.5,0-3.1-2c-0.6-2.1-1-8.8-1-14.6c0-8.9,1.1-15.9,1.4-16.9c0.3-1.1,1-2.5,3.8-2.2C212.9,47.3,213.4,48.3,213.4,49.7
		 M226.9,50.3c0-1.1,0-3.4,3.3-3.4c3.3,0,3.3,2.2,3.3,3.4l0,3.5c0.7,0,4-0.2,4.2-0.2c0.8,0,3.1,0,3.1,3.1c0,2-1.1,2.7-1.7,2.8
		c-0.7,0.2-0.9,0.2-5.5,0.4l0.1,8.2c3.3,1.8,5.1,3.2,6.3,4.3c0.8,0.8,1.3,1.8,1.3,2.8c0,1.8-1.5,3.6-3.3,3.6c-1.1,0-1.6-0.5-2.9-2
		c-0.2-0.2-1.6-1.4-1.8-1.6c-0.1,2.2-0.4,7.3-8.6,7.3c-7.3,0-9.9-4.2-9.9-8.3c0-4.9,3.8-8.2,9.6-8.2c1.3,0,2.2,0.2,2.9,0.2l-0.2-6.1
		c-2.8,0.1-6.3,0.1-9.1,0.1c-1,0-3.3,0-3.3-3.1c0-2.4,1.5-2.8,2.4-2.9c0.5,0,8.1-0.2,9.9-0.2L226.9,50.3z M224.4,71.4
		c-1,0-4,0.2-4,3.1c0,2.8,3.1,2.9,3.7,2.9c0.9,0,2.6-0.2,3.1-1.6c0.2-0.6,0.2-0.9,0.2-3.7C226.6,71.7,225.8,71.4,224.4,71.4
		 M234.2,47.5c-0.1-0.3-0.1-0.6-0.1-0.7c0-1.1,1.1-1.3,1.6-1.3c0.7,0,1.2,0.5,1.5,1.3c0.7,1.8,1.2,3.3,1.2,4.2
		c0,1.3-1.3,1.4-1.5,1.4c-0.6,0-1-0.2-1.3-1c-0.1-0.3-0.6-1.8-0.7-2C234.8,49.1,234.3,47.9,234.2,47.5 M238.9,46.8
		c-0.1-0.3-0.1-0.6-0.1-0.7c0-1.1,1.2-1.3,1.6-1.3c0.9,0,1.2,0.7,1.6,1.8c0.4,1.1,1,2.9,1,3.8c0,1.3-1.4,1.4-1.6,1.4
		c-0.4,0-0.9-0.1-1.3-1c-0.1-0.3-0.5-1.7-0.6-2C239.5,48.4,238.9,47.1,238.9,46.8"/>
	<g>
		<g>
			<path class="st1" d="M277.7,57.8h-12.9c0.6-1.6,0.6-1.8,0.6-2c0-1.2-1.4-1.5-2.2-1.5c-1.6,0-1.9,0.7-2.6,3.5h-7.5
				c-1.2,0-1.9,0.7-1.9,1.9c0,1.1,0.6,1.8,1.9,1.8h6c-0.8,1.8-2.6,4.9-5.3,7.2c-2.7,2.3-2.8,2.3-2.8,3.2c0,1.3,0.9,2.3,2,2.3
				c0.6,0,0.9-0.2,2.4-1.5v8.5c0,1.1,0.4,1.8,2,1.8c1.8,0,1.8-1.4,1.8-1.8V68.5c2.2-2.9,3.6-5.9,4-6.9h14.3c1.2,0,1.9-0.7,1.9-1.9
				C279.6,58.4,278.8,57.8,277.7,57.8z"/>
			<path class="st1" d="M277.7,78.2h-5.8v-7.4h5c1.2,0,1.9-0.6,1.9-1.8c0-1.2-0.7-1.8-1.9-1.8h-5V64c0-1.3-0.7-1.8-2.1-1.8
				c-1.4,0-1.8,0.9-1.8,1.8v3.1h-5c-1.2,0-1.9,0.6-1.9,1.8c0,1.3,0.8,1.8,1.9,1.8h5v7.4h-6c-1.2,0-1.9,0.6-1.9,1.9
				c0,1.2,0.7,1.8,1.9,1.8h15.6c1.2,0,1.9-0.7,1.9-1.9C279.6,78.7,278.7,78.2,277.7,78.2z"/>
			<path class="st1" d="M311.2,72c0.8-0.1,1.4-0.4,1.4-1.7c0-1.9-1.3-1.8-1.8-1.7l-12.4,1.1v-3.3c3.2-0.4,4.8-0.7,7.5-1.3
				c0.8-0.2,1.6-0.5,1.6-1.5c0-0.6-0.3-2-1.6-2c-0.4,0-0.9,0.1-1.2,0.2c-6,1.4-10.4,1.7-15,2c-0.2,0-0.7,0.1-1.1,0.3
				c0.1-0.2,0.1-0.4,0.1-1v-1.7c0-0.7,0.4-1,1-1h17.4c0.7,0,1,0.4,1,1V63c0,1.2,0.4,1.8,2,1.8c1.7,0,1.8-1,1.8-1.8v-2.5
				c0-2.7-1.1-3.5-3.5-3.5h-8V56c0-1.2-0.9-1.5-2.2-1.5c-1.1,0-1.8,0.4-1.8,1.5v1.1h-7.9c-2.3,0-3.5,0.8-3.5,3.5v2.5
				c0,1.1,0.4,1.8,1.9,1.8c0.7,0,1-0.1,1.2-0.3c-0.2,0.3-0.2,0.6-0.2,0.8c0,0.5,0.1,1.9,1.7,1.9c1.2,0,2.3-0.1,4.9-0.4v3.2l-8.7,0.8
				c-0.9,0.1-1.5,0.4-1.5,1.6c0,2,1.4,1.9,1.8,1.8l8.4-0.8V79c0,1,0,3.3,2.8,3.4c0.8,0.1,1.5,0.1,9.7,0.1c2.8,0,4.5,0,4.5-6
				c0-0.5,0-1.9-2-1.9c-1.7,0-1.8,1.2-1.8,1.8c-0.1,2.1-0.2,2.5-0.9,2.7c-0.3,0.1-4.5,0.1-5.4,0.1c-2.2,0-2.3,0-2.5-0.1
				c-0.2-0.1-0.5-0.3-0.5-1.1v-4.7L311.2,72z"/>
		</g>
		<g>
			<path class="st2" d="M341.4,59.5h-9.1c0.8-1.5,1-2,1-2.6c0-1.1-1.2-1.6-2.1-1.6c-1.3,0-1.5,0.5-2.6,2.7c-0.5,0.9-2.8,4.7-6.3,7.3
				c-1.4,1-1.6,1.2-1.6,2c0,1,0.9,2,2,2c2,0,5.8-4.2,7.3-6.3h8.9c0.8,0,1.1,0,1.1,0.6c0,0.8-0.9,3.3-1.7,4.8
				c-3.1,6.1-8.3,8.1-13.2,9.3c-2.2,0.5-2.8,0.7-2.8,2c0,0.5,0.2,2.1,2,2.1c1,0,7.4-1.2,12.2-5c6.9-5.4,8.1-13.7,8.1-14.9
				C344.4,60.6,343.6,59.5,341.4,59.5z"/>
			<path class="st2" d="M356.8,71.1V58c0-1.4-0.8-1.9-2.1-1.9c-1.8,0-2.1,1-2.1,1.9v13.1c0,1.4,0.8,1.9,2.1,1.9
				C356.5,73,356.8,72,356.8,71.1z"/>
			<path class="st2" d="M370.1,55.7c-1.8,0-2.1,1-2.1,2v11.4c0,1.9-0.2,3.6-1.7,5.4c-1.6,1.8-3.9,2.8-8.7,3.2c-2,0.2-3,0.3-3,1.9
				c0,2.1,1.9,2.1,2.3,2.1c0.7,0,2.9-0.1,5.7-0.8c9.1-2.5,9.7-8.5,9.7-12V57.6C372.2,56.2,371.4,55.7,370.1,55.7z"/>
			<path class="st2" d="M383.6,62h18.2c1.1,0,2-0.4,2-2c0-2-1.5-2-2-2h-18.2c-0.9,0-2,0.3-2,2C381.5,62,383.1,62,383.6,62z"/>
			<path class="st2" d="M404,75.5h-22.6c-1.2,0-2,0.5-2,2c0,2,1.5,2,2,2H404c1.2,0,2-0.5,2-2C406,75.5,404.5,75.5,404,75.5z"/>
			<path class="st2" d="M420.5,68.8c0.2,0.9,0.5,2,1.5,2c0.6,0,2.3-0.1,2.3-1.8c0-0.7-1.2-4.8-1.9-6.3c-0.4-0.8-0.7-1.4-1.8-1.4
				c-1,0-2,0.6-2,1.6c0,0.4,0.1,0.7,0.2,1C419.6,65.2,420,66.4,420.5,68.8z"/>
			<path class="st2" d="M431.2,62.1c-0.2-0.1-0.4-0.1-0.6-0.1c-1.4,0-1.7,1.1-1.8,1.9c-0.6,3-0.7,3.3-1.1,4.5
				c-2.4,7.1-7.9,8.9-10.3,9.6c-2.1,0.6-2.7,0.8-2.7,1.9c0,0.6,0.4,2,1.8,2c0.5,0,7.7-1.1,12.2-7.5c3.3-4.8,3.9-10.5,3.9-10.6
				C432.6,63.2,432.4,62.4,431.2,62.1z"/>
			<path class="st2" d="M417.8,70.4c0-0.5-0.1-0.8-0.3-1.5c-1.7-4.8-2.3-6.2-3.7-6.2c-0.9,0-2,0.6-2,1.6c0,0.4,0.2,0.8,0.3,1.1
				c0.6,1.3,1.1,2.4,1.8,4.8c0.3,1.1,0.6,1.9,1.7,1.9C416.2,72.1,417.8,71.9,417.8,70.4z"/>
			<path class="st2" d="M458.7,59.5h-9.1c0.8-1.5,1-2,1-2.6c0-1.1-1.2-1.6-2.1-1.6c-1.3,0-1.5,0.5-2.6,2.7c-0.4,0.9-2.8,4.7-6.3,7.3
				c-1.4,1-1.6,1.2-1.6,2c0,1,0.9,2,2,2c2,0,5.8-4.2,7.3-6.3h8.9c0.8,0,1.1,0,1.1,0.6c0,0.8-0.9,3.3-1.7,4.8
				c-3.1,6.1-8.3,8.1-13.2,9.3c-2.2,0.5-2.8,0.7-2.8,2c0,0.5,0.2,2.1,2,2.1c1,0,7.4-1.2,12.2-5c6.9-5.4,8.1-13.7,8.1-14.9
				C461.7,60.6,460.9,59.5,458.7,59.5z"/>
		</g>
	</g>
</g>
<g>
	<g>
		<path class="st3" d="M200.3,19.2c0.3,0,1.3,0,1.3,1.2c0,1.2-1,1.2-1.3,1.2h-13.5c-0.5,0-0.8,0.2-0.8,0.8v11.8
			c0,0.6,0.3,0.8,0.8,0.8h13.9c0.3,0,1.3,0,1.3,1.2c0,1.2-1,1.2-1.3,1.2h-14.5c-1.8,0-2.8-0.6-2.8-2.8V21.9c0-2.1,0.9-2.8,2.8-2.8
			H200.3z M199.9,27.4c0.3,0,1.1,0,1.1,1.1c0,1.1-0.8,1.1-1.1,1.1h-4.3c1.2,1.3,2,2,4.5,2.7c0.4,0.1,0.9,0.3,0.9,1
			c0,0.5-0.2,1.3-1.2,1.3c-0.7,0-4.3-1.2-6-4.1c-2,3.4-5.1,4.1-5.6,4.1c-0.9,0-1.2-0.9-1.2-1.3c0-0.7,0.5-0.9,0.9-1
			c1.3-0.4,2.9-0.9,4-2.7h-4.1c-0.3,0-1.1,0-1.1-1c0-1,0.7-1.1,1.1-1.1h4.8c0,0,0.1-0.5,0.1-0.7v-1.3h-2.2c-1.1,1.6-1.6,1.8-2,1.8
			c-0.6,0-1.3-0.5-1.3-1.2c0-0.4,0.1-0.5,1-1.5c0.6-0.6,1-1.3,1.5-2.2c0.2-0.5,0.6-0.8,1.1-0.8c0.5,0,1.2,0.3,1.2,1.1
			c0,0.3-0.1,0.5-0.2,0.8h7.5c0.3,0,1.1,0,1.1,1c0,1.1-0.8,1.1-1.1,1.1h-4.2v1.3c0,0.3,0,0.6-0.1,0.7H199.9z"/>
		<path class="st3" d="M223,31.2c0,0.4,0,1-0.5,1.5c-0.5,0.5-1.2,0.5-1.6,0.5h-2.1v2.1c0,2.1-0.6,2.3-2.7,2.3c-1.3,0-2.1,0-2.1-1.1
			c0-0.7,0.3-1,1-1c0.1,0,0.8,0,0.8,0c0.4,0,0.5-0.1,0.5-0.6v-1.8h-2.2c-1.9,0-2-1.3-2-2v-1.4c-0.1,0.1-0.4,0.2-0.6,0.2
			c-0.6,0-1-0.5-1-1.1c-0.1,2-0.4,4.8-1.5,7c-0.8,1.5-1.1,1.7-1.7,1.7c-0.7,0-1.3-0.5-1.3-1.1c0-0.4,0.2-0.7,0.3-1.1
			c1.1-2.1,1.4-2.7,1.7-4.7c-0.4,0.3-1.2,0.8-1.7,0.8c-0.9,0-1-1.1-1-1.5c0-0.8,0.5-1,0.9-1.1c0.5-0.2,1.2-0.5,2-1V26
			c-0.1,0.1-0.4,0.2-0.8,0.2c-0.6,0-0.7-0.3-1-1.2c-0.3-0.7-0.4-1-0.8-1.7c0-0.1-0.1-0.3-0.1-0.6c0-0.6,0.7-1.1,1.2-1.1
			c0.6,0,0.8,0.5,1.5,2v-1.3c0-1.8,0.8-2.4,2.4-2.4h4.4v-0.6c0-0.9,0.8-1,1.2-1c0.6,0,1.3,0.2,1.3,1V20h6.1c0.5,0,1.2,0.1,1.2,1
			c0,0.8-0.5,1-1.2,1h-6.4c0.4,0.2,0.7,0.4,0.6,1h5.9c0.4,0,1,0,1,1c0,0.9-0.6,1-1,1h-3.4c0.9,1,1,1.1,1.4,1.4
			c0.1-0.2,0.7-0.9,0.9-1.1c0.2-0.2,0.3-0.2,0.5-0.2c0.5,0,1.1,0.4,1.1,0.8c0,0.4-0.7,1.1-1,1.5c0.2,0.1,1.1,0.6,1.3,0.7
			c0.4,0.2,0.4,0.5,0.4,0.7c0,0.6-0.4,1.3-1.1,1.3c-0.3,0-0.6-0.1-0.9-0.3V31.2z M213,36.3c-0.6,0.4-1.8,1.1-2.3,1.1
			c-0.8,0-1-0.7-1-1.1c0-0.6,0.2-0.6,1.4-1.3c0.8-0.4,1.1-0.6,1.9-1.2c0.3-0.2,0.5-0.3,0.8-0.3c0.6,0,1.1,0.5,1.1,1.1
			C214.8,35,214.4,35.4,213,36.3z M210.5,28.7c0.1-0.3,0.3-0.6,0.4-0.6c0.3-0.2,0.8-0.6,1.2-0.8c-0.2-0.3-0.5-0.6-0.8-0.8
			c-0.2-0.2-0.3-0.4-0.3-0.6c0-0.5,0.6-0.9,1.1-0.9c0.3,0,0.5,0.1,1.4,1.2c0.4-0.4,0.8-0.8,1.1-1.3h-2.8c-0.6,0-1-0.2-1-1
			c0-0.8,0.6-0.9,1-0.9h3.9c0.3-0.8,0.3-0.8,0.5-1h-4.9c-0.5,0-0.7,0.2-0.7,0.7V28.7z M214.6,29.3h6.1v-0.4c0-0.3-0.1-0.5-0.5-0.5
			h-5.1c-0.4,0-0.5,0.2-0.5,0.5V29.3z M214.6,30.8v0.4c0,0.3,0.1,0.5,0.5,0.5h5.1c0.4,0,0.5-0.3,0.5-0.5v-0.4H214.6z M219.5,26.8
			c-0.9-0.9-1.1-1.4-1.3-1.8H217c-0.3,0.5-0.6,1-1.3,1.8H219.5z M221.1,33.5c0.3,0,0.4,0,1,0.5c0.8,0.6,1.5,0.9,2.3,1.4
			c0.2,0.1,0.5,0.3,0.5,0.8c0,0.5-0.4,1.2-1.2,1.2c-0.5,0-1.6-0.7-2.2-1.1c-0.6-0.4-1.6-1.1-1.6-1.7C220,33.9,220.6,33.5,221.1,33.5
			z"/>
		<path class="st3" d="M232.7,34.1c-1.8,3.5-2.1,3.5-2.6,3.5c-0.7,0-1.4-0.5-1.4-1.2c0-0.5,0.2-0.7,1-2.1c0.8-1.3,1.4-2.6,2.1-4.1
			c0.1-0.3,0.3-0.7,1-0.7c0.5,0,1.2,0.4,1.2,1.1C234.1,31.3,233.1,33.3,232.7,34.1z M230,23.9c0.6,0,1.7,0.7,2.4,1.2
			c1.2,0.8,1.4,1.1,1.4,1.5c0,0.6-0.6,1.4-1.3,1.4c-0.3,0-0.5-0.1-1.7-1c-0.2-0.2-1.2-0.8-1.4-1c-0.4-0.2-0.5-0.4-0.5-1
			C228.8,24.6,229.4,23.9,230,23.9z M230.6,18.6c0.6,0,1.7,0.7,2.4,1.1c1.2,0.7,1.5,1,1.5,1.5c0,0.7-0.6,1.4-1.2,1.4
			c-0.3,0-0.4-0.1-1.7-0.9c-0.3-0.2-1.5-0.9-1.7-1c-0.2-0.1-0.5-0.3-0.5-0.9C229.4,19.3,229.9,18.6,230.6,18.6z M235.4,29.1
			c-0.4,0-1.3,0-1.3-1.2c0-1,0.6-1.2,1.3-1.2h4.5v-3.1h-3.6c-0.3,0-1.3,0-1.3-1.2c0-0.9,0.4-1.3,1.3-1.3h3.6v-1.5
			c0-0.5,0.1-1.3,1.2-1.3c0.9,0,1.4,0.3,1.4,1.3v1.5h3.8c0.3,0,1.3,0,1.3,1.2c0,1-0.5,1.3-1.3,1.3h-3.8v3.1h4.5c0.3,0,1.3,0,1.3,1.1
			c0,0.9-0.4,1.3-1.3,1.3h-6.2c-0.8,2.2-1.9,4.5-2.3,5.5c2.3-0.1,2.9-0.2,5.6-0.4c-0.4-0.7-0.5-0.9-1.3-2c-0.3-0.4-0.3-0.6-0.3-0.8
			c0-0.7,0.8-1.1,1.3-1.1c0.5,0,0.8,0.2,1.7,1.5c0.5,0.8,1.3,1.8,2,3.2c0.5,0.8,0.6,1.2,0.6,1.6c0,0.7-0.7,1.2-1.4,1.2
			c-0.7,0-0.9-0.5-1-0.7c-0.1-0.1-0.3-0.6-0.3-0.7c-4.4,0.6-9.9,0.9-10.1,0.9c-0.2,0-1.2,0-1.2-1.3c0-0.5,0.2-0.8,0.6-1.1
			c0.2-0.1,0.3-0.1,1.2-0.1c0.9-1.8,1.7-3.7,2.3-5.6H235.4z"/>
		<path class="st3" d="M260.1,19.8c0-0.4,0-1.3,1.4-1.3c1.4,0,1.4,0.9,1.4,1.3v2c0,1.6,0.2,5.9,2.7,9.2c1.2,1.6,2.8,2.9,4.5,3.9
			c0.5,0.3,1,0.6,1,1.3c0,0.6-0.5,1.6-1.5,1.6c-1,0-3.5-2.1-4.9-3.6c-1.6-1.8-2.7-4.1-3.3-6.4c-1,3.7-2.4,5.5-3.7,6.9
			c-1.2,1.2-3.4,3.1-4.4,3.1c-0.9,0-1.5-0.8-1.5-1.6c0-0.7,0.4-0.9,0.8-1.1c2.7-1.5,5.7-3.6,7-9.1c0.2-0.9,0.4-3.7,0.4-4V19.8z"/>
		<path class="st3" d="M279.5,21.5c1,0,1.9,0.4,1.9,1.7c0,0.9-0.3,1.8-1.8,4c0.5,0.5,0.9,0.9,1.6,1.6c0.8,0.8,1,0.9,1,1.3
			c0,0.6-0.5,1.3-1.2,1.3c-0.7,0-1.4-0.9-1.9-1.7v7c0,1-0.5,1.3-1.4,1.3c-1.1,0-1.2-0.7-1.2-1.3v-6.1c-0.8,0.7-1.3,1-1.8,1
			c-0.7,0-1.3-0.7-1.3-1.5c0-0.7,0.3-0.9,1.8-2c2.3-1.6,3.4-3.7,3.4-3.9c0-0.3-0.3-0.3-0.5-0.3h-3.3c-0.6,0-1.3-0.2-1.3-1.2
			c0-1.2,0.9-1.2,1.3-1.2h1.7v-1.8c0-0.9,0.4-1.3,1.4-1.3c1.2,0,1.2,0.9,1.2,1.3v1.8H279.5z M291.1,23.8c0.3,0,1.3,0,1.3,1.2
			c0,1-0.4,1.4-1.3,1.4h-2.9v8.3h3.3c0.3,0,1.3,0,1.3,1.2c0,0.9-0.4,1.4-1.3,1.4H282c-0.4,0-1.5,0-1.5-1.2c0-1,0.5-1.3,1.5-1.3h3.5
			v-8.3h-2.8c-0.3,0-1.3,0-1.3-1.2c0-1,0.4-1.4,1.3-1.4h2.8v-4.2c0-0.5,0.1-1.3,1.2-1.3c1,0,1.4,0.3,1.4,1.3v4.2H291.1z"/>
		<path class="st3" d="M314.6,34.6c0,2.1-0.9,2.8-2.8,2.8h-12.2c-1.8,0-2.8-0.6-2.8-2.8V21.9c0-2.1,0.9-2.8,2.8-2.8h12.2
			c1.8,0,2.8,0.6,2.8,2.8V34.6z M312.1,22.4c0-0.6-0.3-0.8-0.8-0.8h-11c-0.6,0-0.8,0.3-0.8,0.8v11.7c0,0.6,0.3,0.8,0.8,0.8h11
			c0.5,0,0.8-0.3,0.8-0.8V22.4z M309.8,32.3c0,2.3-0.7,2.3-3.6,2.3c-0.9,0-1.6,0-1.6-1.1c0-1.1,0.8-1.1,1-1.1c0.2,0,0.9,0,1,0
			c0.7,0,0.7-0.3,0.7-0.7v-5.5h-6.6c-0.4,0-1.2,0-1.2-1c0-1,0.4-1.2,1.2-1.2h6.6v-1.3c0-0.8,0.3-1.2,1.1-1.2c0.8,0,1.3,0.2,1.3,1.2
			v1.3h1.1c0.4,0,1.2,0,1.2,1.1c0,1-0.4,1.2-1.2,1.2h-1.1V32.3z M304.1,28.8c0.4,0.6,1,1.5,1,2.1c0,0.8-0.9,1.2-1.4,1.2
			c-0.5,0-0.7-0.3-1.3-1.3c-0.3-0.5-0.5-0.8-1.2-1.7c-0.2-0.2-0.4-0.6-0.4-1c0-0.6,0.7-1,1.2-1C302.5,27,302.8,27,304.1,28.8z"/>
	</g>
	<linearGradient id="SVGID_4_" gradientUnits="userSpaceOnUse" x1="327.9645" y1="28.0483" x2="393.7849" y2="28.0483">
		<stop  offset="0" style="stop-color:#8BC33F"/>
		<stop  offset="1" style="stop-color:#29AD4B"/>
	</linearGradient>
	<path class="st4" d="M346.2,20.1c0.3,0,1.3,0,1.3,1.1c0,0.8-0.3,1.2-1.3,1.2H339v4.5c0,2.7,0.8,4.7,3,6.4c1.3,1,3,1.5,4.4,1.8
		c0.7,0.2,1,0.4,1,1.1c0,0.4-0.2,1.5-1.3,1.5c-1.4,0-6.6-2-8.3-6c-0.3,0.7-0.8,2-2.8,3.6c-2.1,1.6-4.5,2.5-5.4,2.5
		c-1.2,0-1.3-1.2-1.3-1.5c0-0.8,0.5-1,1-1.1c4.2-1.1,7.3-2.8,7.3-8.7v-4h-7.3c-0.4,0-1.2-0.1-1.2-1.2c0-0.9,0.6-1.2,1.2-1.2h7.3
		v-0.8c0-0.7,0.3-1,1.2-1c0.8,0,1.4,0.2,1.4,1v0.8H346.2z M335.5,28.6c0,0.5-0.5,1-1.5,1.8c0.6,0.6,0.8,0.8,0.8,1.2
		c0,0.7-0.7,1.2-1.2,1.2c-0.3,0-0.6-0.2-0.8-0.5c-0.1-0.1-0.2-0.3-0.6-0.6c-1,0.6-2.4,1.2-2.9,1.2c-0.8,0-1-0.8-1-1.2
		c0-0.6,0.4-0.8,0.8-0.9c1-0.4,1.1-0.4,1.5-0.6c-0.2-0.1-1-0.7-1.1-0.8c-0.1-0.1-0.3-0.3-0.3-0.6c0-0.5,0.5-1,1.1-1
		c0.3,0,0.5,0,2.2,1.3c0.3-0.2,0.6-0.5,1.2-1c0.2-0.1,0.3-0.3,0.7-0.4c-0.2,0-0.4,0-0.6-0.1c-0.2-0.1-1.1-0.9-1.3-1.1
		c-1.2,0.7-2.7,1.4-3.1,1.4c-0.7,0-0.9-0.7-0.9-1.1c0-0.5,0.4-0.7,0.7-0.8c1.2-0.5,1.3-0.5,1.6-0.7c-1.3-0.8-1.5-1-1.5-1.4
		c0-0.6,0.5-1,1-1c0.3,0,0.5,0.1,0.9,0.3c0.4,0.2,1,0.6,1.5,0.9c0.2-0.1,0.8-0.6,1.2-1c0.2-0.2,0.4-0.3,0.7-0.3c0.6,0,1,0.5,1,0.9
		c0,0.5-0.3,0.8-1.2,1.4c1.1,0.8,1.2,1,1.2,1.4c0,0.5-0.4,1-1,1.1C335,27.5,335.5,28.1,335.5,28.6z M346.5,26.3
		c0,0.6-0.5,1.1-1.1,1.1c-0.3,0-0.5-0.1-0.7-0.3c-0.6-0.6-0.7-0.6-1-0.8c-1.1,0.7-2.7,1.5-3.2,1.5c-0.8,0-1-0.8-1-1.1
		c0-0.6,0.5-0.8,0.8-0.9c0.9-0.4,1-0.4,1.6-0.7c-0.2-0.1-1.2-0.7-1.4-0.8c-0.1-0.1-0.4-0.3-0.4-0.6c0-0.4,0.4-0.9,1.1-0.9
		c0.6,0,1.9,0.8,2.5,1.2c0.3-0.2,0.3-0.3,1.1-0.9c0.2-0.2,0.5-0.3,0.7-0.3c0.6,0,1,0.5,1,1s-0.3,0.7-1.1,1.4
		C346.3,25.7,346.5,25.9,346.5,26.3z M345.1,27.8c0.2-0.2,0.5-0.3,0.7-0.3c0.6,0,1.1,0.5,1.1,1c0,0.5-0.4,0.8-1.3,1.7
		c1.1,0.9,1.3,1.1,1.3,1.6c0,0.7-0.7,1.1-1.2,1.1c-0.3,0-0.5-0.1-0.8-0.4c-0.6-0.6-0.6-0.6-1.2-1c-0.5,0.3-1.8,1.1-2.3,1.1
		c-0.6,0-1-0.7-1-1.2c0-0.5,0.3-0.7,0.5-0.8c0.2-0.1,0.9-0.4,1-0.5c-0.2-0.1-0.3-0.2-1-0.7c-0.2-0.1-0.5-0.4-0.5-0.8
		c0-0.5,0.5-1,1.1-1c0.5,0,1.8,0.9,2.4,1.3C344.3,28.6,344.4,28.5,345.1,27.8z M353.7,25.7c-0.3-0.5-0.7-0.8-1.5-1.7
		c-0.8-0.8-0.9-0.9-0.9-1.5c0-0.5,0.4-1.2,1-1.2c0.2,0,0.3,0.1,0.5,0.1c0.3-0.6,0.8-1.3,1.1-2.1c0.3-0.7,0.5-1.1,1-1.1
		c0.5,0,1.3,0.4,1.3,1c0,0.7-1.2,2.6-1.9,3.6c0.3,0.3,0.4,0.4,0.6,0.7c0.6-1,0.7-1,1.6-2.7c0.2-0.3,0.5-0.6,0.8-0.6
		c0.6,0,1.3,0.5,1.3,1.1c0,0.4-0.7,1.4-1,1.9c-1.1,1.7-1.8,2.5-2.7,3.7c0.4,0,0.6,0,1.9-0.1c-0.3-0.9-0.3-1-0.3-1.2
		c0-0.5,0.5-0.7,0.8-0.7c0.5,0,0.7,0.4,0.9,0.9c0.3,0.7,0.7,2.2,0.8,2.5c0.4-0.6,0.8-0.6,0.9-0.6c0.3,0,0.5,0.1,1.5,1
		c0.3,0.3,1,1,1,1.6c0,0.4-0.4,1-1.1,1c-0.3,0-0.4-0.1-1-0.7c-0.2-0.2-1.1-1.1-1.3-1.4c-0.2,0.3-0.5,0.4-0.9,0.4
		c-0.6,0-0.7-0.4-0.8-1c-0.2,0-0.3,0-1.2,0.1v7.7c0,0.3,0,1.1-1,1.1s-1-0.8-1-1.1v-7.5c-1.2,0.1-1.6,0.2-2.1,0.2
		c-0.6,0-1.1-0.3-1.1-1.2c0-1,0.6-1,1.6-1.1L353.7,25.7z M353.7,31.2c0,0.4-0.2,3.2-0.6,4.6c-0.1,0.3-0.2,0.7-0.8,0.7
		c-0.1,0-1.1,0-1.1-0.9c0-0.3,0.3-1.5,0.3-1.7c0.2-1.1,0.2-1.8,0.3-2.9c0-0.5,0.1-0.9,0.9-0.9C353.7,30.1,353.7,30.8,353.7,31.2z
		 M360.8,32.4c0.7-0.5,0.9-0.5,1.1-0.5c0.6,0,1,0.6,1,1.2c0,0.5-0.2,0.7-1.5,1.6c-0.6,0.4-2,1.4-2.5,1.4c-0.6,0-1-0.6-1-1.3
		c0-0.2,0-0.3,0.1-0.4c-0.7-0.1-0.7-0.3-0.9-1.6c0-0.3-0.2-1.7-0.2-1.8c0-0.6,0.7-0.7,0.9-0.7c0.7,0,0.8,0.3,1,1.5
		c0,0.1,0.2,1.3,0.2,1.8C359.6,33.2,360.5,32.6,360.8,32.4z M365.6,35.4c0,2-0.4,2.3-2.4,2.3c-1.3,0-1.4,0-1.5,0
		c-0.6-0.1-0.9-0.7-0.9-1.2c0-0.5,0.2-1.2,1.1-1.2c0.2,0,0.8,0,0.9,0c0.3,0,0.5-0.2,0.5-0.6v-7.3h-3.4c-0.3,0-1,0-1-1
		c0-0.8,0.3-1.1,1-1.1h6.8v-1.1h-5.8c-0.3,0-1,0-1-0.9c0-0.8,0.5-0.9,1-0.9h5.8v-0.6c0-0.2-0.1-0.5-0.5-0.5h-5.7c-0.3,0-1,0-1-1
		c0-0.8,0.2-1.1,1-1.1h6.4c1.4,0,2.2,0.5,2.2,2.2v4.1h0.6c0.6,0,0.9,0.4,0.9,1c0,1-0.7,1-1,1h-3.9v1.1c0.2,0.6,0.7,1.4,0.9,1.7
		c0.3-0.3,0.9-0.9,1.5-1.6c0.5-0.6,0.7-0.8,1.1-0.8c0.7,0,1.2,0.6,1.2,1.1c0,0.4-0.1,0.7-0.5,1.1c-0.8,0.9-1.5,1.6-2,2
		c0.5,0.6,0.9,1,1.4,1.4c1.1,0.9,1.4,1.2,1.4,1.7c0,0.6-0.6,1.3-1.3,1.3c-0.8,0-2.6-1.9-3.7-3.9V35.4z M379.8,26.2
		c-0.8,0-1.2-0.3-1.2-1c-0.8,0.5-2.3,1.3-3,1.3c-0.7,0-1.3-0.7-1.3-1.5c0-0.8,0.5-1,1.1-1.3c3.1-1.2,4.9-2.9,6.4-4.4
		c0.8-0.8,1.2-1.1,2.2-1.1c1.1,0,1.3,0.3,2.5,1.4c1.1,1.1,2.8,2.7,6.2,4.1c0.6,0.2,1,0.5,1,1.2c0,0.8-0.6,1.5-1.3,1.5
		c-0.7,0-2.1-0.8-2.9-1.3c-0.1,0.9-0.7,1-1.3,1H379.8z M382.6,30.5c-0.5,1.2-0.9,2.2-2,4.1c2.9-0.1,3.4-0.1,7.7-0.4
		c-0.3-0.4-0.4-0.5-1.2-1.4c-0.5-0.5-0.5-0.7-0.5-1c0-0.6,0.8-1.2,1.4-1.2c0.3,0,0.7,0.1,1,0.5c0.8,0.8,1.8,1.8,2.7,3.1
		c1,1.2,1.2,1.6,1.2,2.1c0,0.7-0.9,1.4-1.6,1.4c-0.5,0-0.7-0.3-0.8-0.5c-0.1-0.1-0.5-0.8-0.6-0.9c-2.1,0.2-4.4,0.4-6.5,0.6
		c-1,0.1-6.3,0.4-7.2,0.4c-0.3,0-1.3,0-1.3-1.3c0-0.2,0-1.1,0.9-1.2c0.2,0,1.6-0.1,1.9-0.1c0.7-1.4,1.5-2.7,2-4.2H376
		c-0.9,0-1.3-0.4-1.3-1.3c0-1.2,1-1.2,1.3-1.2H392c0.8,0,1.3,0.3,1.3,1.3c0,1.2-1,1.2-1.3,1.2H382.6z M387.6,23.9
		c-0.6-0.5-1.8-1.4-3-2.7c-0.3-0.3-0.4-0.4-0.6-0.4s-0.3,0.1-0.6,0.4c-0.9,1-1.9,1.9-3,2.7H387.6z"/>
</g>
<path class="st5" d="M19.8,11.9c0.6,15,12.5,27.1,27.5,27.8C46.7,24.7,34.8,12.6,19.8,11.9"/>
<path class="st6" d="M90.5,0C68.2,1.6,42.7,20.5,51.2,68.8c0-15.5,2.3-24.9,4.2-29.5C74.7,36.4,89.7,20,90.5,0"/>
<path class="st3" d="M29.7,86.2c0.5,0,0.7,0,1,0.1c0.3,0.2,0.5,0.5,0.5,0.9c0,0.4-0.2,0.8-0.5,0.9c-0.2,0.1-0.4,0.1-1,0.1h-3.5v3.5
	c0,0.6,0,0.8-0.2,1.1c-0.2,0.3-0.6,0.6-1.1,0.6c-0.5,0-0.9-0.2-1.1-0.6c-0.1-0.3-0.2-0.5-0.2-1.1v-9.4c0-0.4,0-0.8,0.3-1.1
	c0.3-0.3,0.8-0.3,1.1-0.3h5.3c0.5,0,0.7,0,1,0.1c0.3,0.2,0.5,0.5,0.5,0.9c0,0.4-0.2,0.8-0.5,0.9c-0.2,0.1-0.4,0.1-1,0.1h-4.4v3.1
	H29.7z"/>
<path class="st3" d="M37.2,93.5c-0.9,0-1.6-0.3-2.2-0.8c-0.7-0.7-0.9-1.6-0.9-2.6v-4.3c0-0.6,0-0.8,0.1-1c0.2-0.3,0.5-0.5,1-0.5
	c0.5,0,0.8,0.2,1,0.5c0.1,0.2,0.1,0.5,0.1,1v4c0,1.2,0.8,1.6,1.5,1.6c0.7,0,1.5-0.4,1.5-1.6v-4c0-0.6,0-0.8,0.1-1
	c0.2-0.3,0.5-0.5,1-0.5c0.5,0,0.8,0.2,1,0.5c0.1,0.2,0.1,0.5,0.1,1V92c0,0.6,0,0.8-0.2,1c-0.2,0.3-0.6,0.5-1,0.5
	c-0.3,0-0.6-0.1-0.7-0.3c-0.2-0.2-0.3-0.4-0.3-0.7C38.9,93.2,38,93.5,37.2,93.5"/>
<path class="st3" d="M45.5,86.3h-0.2c-0.4,0-0.6,0-0.8-0.1c-0.3-0.1-0.4-0.4-0.4-0.8c0-0.3,0.1-0.6,0.4-0.8c0.2-0.1,0.3-0.1,0.8-0.1
	h0.2v-1.2c0-0.6,0-0.8,0.1-1c0.2-0.3,0.5-0.5,1-0.5c0.5,0,0.8,0.2,1,0.5c0.1,0.2,0.1,0.5,0.1,1v1.2h0.7c0.4,0,0.6,0,0.8,0.1
	c0.3,0.1,0.4,0.4,0.4,0.8c0,0.3-0.1,0.6-0.4,0.8c-0.2,0.1-0.3,0.1-0.8,0.1h-0.7v4.4c0,0.4,0.2,0.8,0.7,0.8c0.3,0,0.5,0,0.7,0.1
	c0.3,0.1,0.5,0.4,0.5,0.8c0,0.4-0.2,0.7-0.5,0.8c-0.2,0.1-0.5,0.2-0.9,0.2h-0.1c-1.9,0-2.6-1.3-2.6-2.6V86.3z"/>
<path class="st3" d="M53.8,86.6c-0.3,0.2-0.6,0.2-0.8,0.2c-0.2,0-0.5-0.1-0.6-0.3c-0.2-0.2-0.3-0.4-0.3-0.7c0-0.5,0.4-0.9,0.8-1.1
	c0.7-0.4,1.4-0.5,2.3-0.5c2.5,0,3.8,1.1,3.8,3.2V92c0,0.6,0,0.8-0.2,1c-0.2,0.3-0.6,0.5-1,0.5c-0.3,0-0.6-0.1-0.7-0.3
	c-0.2-0.2-0.3-0.3-0.3-0.6c-0.7,0.6-1.2,0.9-2.3,0.9c-1,0-1.8-0.3-2.3-0.8c-0.5-0.5-0.8-1.2-0.8-2c0-1.5,1-2.6,3.1-2.6h2.1v-0.5
	c0-1-0.5-1.4-1.6-1.4C54.7,86.1,54.3,86.3,53.8,86.6 M56.9,89.6h-1.7c-0.9,0-1.3,0.4-1.3,1c0,0.6,0.4,1,1.4,1c0.6,0,1-0.1,1.3-0.4
	c0.3-0.3,0.4-0.6,0.4-1.2V89.6z"/>
<path class="st3" d="M62.5,82.5c0-0.5,0-0.8,0.1-1c0.2-0.3,0.5-0.5,1-0.5c0.5,0,0.8,0.2,1,0.5c0.1,0.2,0.1,0.5,0.1,1v2.7
	c0.6-0.7,1.3-0.9,2.2-0.9c0.9,0,1.7,0.3,2.2,0.8c0.9,0.9,0.9,2.3,0.9,3.8c0,1.5-0.1,3-0.9,3.8c-0.5,0.5-1.3,0.8-2.2,0.8
	c-1,0-1.6-0.3-2.3-0.9c-0.1,0.3-0.2,0.5-0.3,0.6c-0.2,0.2-0.4,0.3-0.7,0.3c-0.4,0-0.8-0.2-1-0.5c-0.1-0.3-0.2-0.4-0.2-1V82.5z
	 M66.3,86.3c-1.4,0-1.5,1.1-1.5,2.6c0,1.5,0.2,2.6,1.6,2.6c1.3,0,1.5-1.1,1.5-2.6C67.8,87.4,67.6,86.3,66.3,86.3"/>
<path class="st3" d="M74.7,86.6c-0.3,0.2-0.6,0.2-0.8,0.2c-0.2,0-0.5-0.1-0.6-0.3c-0.2-0.2-0.3-0.4-0.3-0.7c0-0.5,0.4-0.9,0.8-1.1
	c0.7-0.4,1.4-0.5,2.3-0.5c2.5,0,3.8,1.1,3.8,3.2V92c0,0.6,0,0.8-0.2,1c-0.2,0.3-0.6,0.5-1,0.5c-0.3,0-0.6-0.1-0.7-0.3
	c-0.2-0.2-0.3-0.3-0.3-0.6c-0.7,0.6-1.2,0.9-2.3,0.9c-1,0-1.8-0.3-2.3-0.8c-0.5-0.5-0.8-1.2-0.8-2c0-1.5,1-2.6,3.1-2.6h2.1v-0.5
	c0-1-0.5-1.4-1.6-1.4C75.6,86.1,75.2,86.3,74.7,86.6 M77.7,89.6H76c-0.9,0-1.3,0.4-1.3,1c0,0.6,0.4,1,1.4,1c0.6,0,1-0.1,1.3-0.4
	c0.3-0.3,0.3-0.6,0.3-1.2V89.6z"/>
<g>
	<defs>
		<path id="SVGID_2_" d="M84.4,36.8c-1.7-4.9-4.3-1.6-4.2,1.7c-1.7-2.6-3-0.1-3,3.1c-2.9-3.3-2.1,5-2.1,7.3
			c5.6-5.9,10.5-4.9,11.6-2.5c2,4.2-5.6,12.5-8.9,15.5c-2.1,2-5.2,2.2-0.9-1.9c0.6-0.6,2.2-2.1,4.4-4.7c8.5-10.1,0.6-10.6-3.8-6.3
			c-3.7,3.6-5.7,6.7-14.2,10.6c-3.7,1.7-5.8,4.4-5.6,9.4c0.2,3.4,4.9,11.3,14.9,4.9c9.6-6.1,13.8-10,17.6-16.8
			c3.9-6.9-0.1-16.6-0.8-18.6c-1-3.1-2.2-4.3-3.2-4.3C85.2,34.1,84.5,35.3,84.4,36.8"/>
	</defs>
	<clipPath id="SVGID_5_">
		<use xlink:href="#SVGID_2_"  style="overflow:visible;"/>
	</clipPath>
	
		<linearGradient id="SVGID_6_" gradientUnits="userSpaceOnUse" x1="-68.521" y1="358.1961" x2="-67.5148" y2="358.1961" gradientTransform="matrix(40.7752 -7.1898 7.1898 40.7752 269.7534 -15037.7041)">
		<stop  offset="0" style="stop-color:#FFF4E1"/>
		<stop  offset="0.13" style="stop-color:#FEF1D9"/>
		<stop  offset="0.3421" style="stop-color:#FEE9C3"/>
		<stop  offset="0.6098" style="stop-color:#FCDB9E"/>
		<stop  offset="0.9198" style="stop-color:#FAC868"/>
		<stop  offset="1" style="stop-color:#FAC359"/>
	</linearGradient>
	<polygon class="st7" points="58.6,86.6 102.4,78.9 93,25.6 49.2,33.4 	"/>
</g>
<g>
	<defs>
		<path id="SVGID_1_" d="M18,36.8c1.7-4.9,4.3-1.6,4.2,1.7c1.7-2.6,3-0.1,3,3.1c2.9-3.3,2.1,5,2.1,7.3C21.7,43,16.8,44,15.7,46.4
			c-2,4.2,5.6,12.5,8.9,15.5c2.1,2,5.2,2.2,0.9-1.9c-0.6-0.6-2.2-2.1-4.4-4.7c-8.5-10.1-0.6-10.6,3.8-6.3c3.7,3.6,5.7,6.7,14.2,10.6
			c3.7,1.7,5.8,4.4,5.6,9.4c-0.2,3.4-4.9,11.3-14.9,4.9c-9.6-6.1-13.8-10-17.6-16.8c-3.9-6.9,0.1-16.6,0.8-18.6
			c1-3.1,2.2-4.3,3.2-4.3C17.2,34.1,17.9,35.3,18,36.8"/>
	</defs>
	<clipPath id="SVGID_7_">
		<use xlink:href="#SVGID_1_"  style="overflow:visible;"/>
	</clipPath>
	
		<linearGradient id="SVGID_8_" gradientUnits="userSpaceOnUse" x1="-65.9505" y1="344.287" x2="-64.9105" y2="344.287" gradientTransform="matrix(36.5262 6.4406 6.4406 -36.5262 201.0802 13053.3799)">
		<stop  offset="0" style="stop-color:#F19CA8"/>
		<stop  offset="0.2211" style="stop-color:#F5B6BC"/>
		<stop  offset="0.5619" style="stop-color:#FAD5D8"/>
		<stop  offset="0.8335" style="stop-color:#FCE8E9"/>
		<stop  offset="1" style="stop-color:#FDEEEF"/>
	</linearGradient>
	<polygon class="st8" points="9.2,25.6 53.2,33.6 44,86.6 0,78.7 	"/>
</g>
</svg>
