<?xml version="1.0" encoding="utf-8"?>
<!-- Generator: Adobe Illustrator 26.3.1, SVG Export Plug-In . SVG Version: 6.00 Build 0)  -->
<svg version="1.1" id="レイヤー_1" xmlns="http://www.w3.org/2000/svg" xmlns:xlink="http://www.w3.org/1999/xlink" x="0px"
	 y="0px" width="566.9px" height="340.2px" viewBox="0 0 566.9 340.2" style="enable-background:new 0 0 566.9 340.2;"
	 xml:space="preserve">
<style type="text/css">
	.st0{fill:#F48A9D;}
	.st1{fill:#FFFFFF;}
</style>
<g>
	<rect class="st0" width="566.9" height="340.2"/>
</g>
<g>
	<path class="st1" d="M211.8,190.6l1-3.2c2.2,0.6,4.1,1.3,6.7,1.3c3.2,0,5.7-0.6,7.6-2.3c1.9-1.6,2.9-3.6,2.9-6.5
		c0-3.2-1.3-5.5-3.8-7.1c-2.5-1.6-6.1-2.3-10.5-2.3c-2.9,0-5.7,0.3-8.6,1v15.9c0,3.2-2.5,5.2-7.6,5.2c-2.9,0-5.4-1-7.6-2.6
		c-2.2-1.6-3.2-3.9-3.2-6.5c0-2.9,1.3-5.5,4.1-8.1c2.9-2.6,6.1-4.5,10.2-5.8v-9.1h-12.7v-3.6h12.7v-8.4h4.1v8.1h13.4v3.6H207v8.4
		c2.9-0.6,5.7-1,8.6-1c5.1,0,9.6,1,13.1,3.2s5.4,5.5,5.4,9.4c0,3.9-1.3,7.1-3.8,9.4c-2.5,2.3-5.7,3.2-9.9,3.2
		C216.6,192.2,213.7,191.5,211.8,190.6z M202.8,172.4c-2.9,1.3-5.4,2.6-7.3,4.5c-1.9,1.9-3.2,3.9-3.2,5.8c0,1.9,0.6,3.2,2.2,4.2
		c1.6,1,3.2,1.6,4.8,1.6c2.2,0,3.5-0.6,3.5-2.3V172.4z M236.6,161l-3.2,2.3c-3.5-4.2-7.6-8.1-12.7-11.7l2.9-2.6
		c2.2,1.3,4.5,3.2,7,5.5C233.1,156.8,235.4,159,236.6,161z"/>
	<path class="st1" d="M246.5,165.2v28.6h-3.8v-46.1h18.5v17.5H246.5z M246.5,155.1h10.8v-4.9h-10.8V155.1z M257.7,157.4h-10.8v4.9
		h10.8V157.4z M258,185.4v1.6h-3.8v-16.6h20.7v15.3H258V185.4z M258,182.4H271v-9.1H258V182.4z M282.2,193.2h-6.1l-0.6-3.6h5.1
		c0.6,0,1.3-0.3,1.6-0.6c0.3-0.3,0.6-1,0.6-1.3v-22.4h-15v-17.5h18.8v41.6c0,1-0.3,1.9-1.3,2.6C284.4,192.5,283.5,193.2,282.2,193.2
		z M271.7,155.1h11.2v-4.9h-11.2V155.1z M282.8,157.4h-11.2v4.9h11.2V157.4z"/>
	<path class="st1" d="M317.6,176.3c-0.6,1.6-1.6,3.6-2.9,6.2s-2.5,4.5-3.8,6.2s-2.5,2.3-4.1,2.3c-1,0-1.6-0.3-2.2-0.6
		s-1.6-1.3-2.5-2.6c-1-1.3-2.2-2.9-2.9-4.9c-0.6-1.9-1.6-4.2-1.9-6.8c-0.3-2.3-0.6-4.5-0.6-6.8c0-1.9,0.3-4.9,0.6-8.4
		c0.3-3.9,0.6-6.5,0.6-8.4h4.5c0,1.6-0.3,4.2-1,8.4c-0.3,3.6-0.6,6.2-0.6,8.4c0,2.9,0.3,5.8,1,8.1c0.6,2.6,1.6,4.5,2.9,6.2
		s2.2,2.6,2.5,2.6c1,0,2.2-1.3,3.5-3.9c1.6-2.6,2.9-5.2,4.1-8.1L317.6,176.3z M341.1,184.1h-4.5v-0.3c0-5.2-1-10.4-2.5-15.3
		c-1.6-4.9-4.1-9.4-7-13.3l3.2-1.9C337.6,161.3,341.1,171.7,341.1,184.1z"/>
	<path class="st1" d="M395,167.2c-3.8-1.6-8-4.2-12.4-7.5c-4.8-3.6-8.6-7.1-11.5-11c-2.5,3.2-5.7,6.8-10.5,10.4
		c-4.5,3.6-9.2,6.5-13.7,8.4l-1.6-2.9c4.5-2.3,8.9-5.2,13.1-8.4c4.5-3.6,7.6-6.8,9.6-10.1h5.7c2.9,3.6,6.4,7.1,10.8,10.4
		c4.5,3.2,8.9,5.8,12.4,7.5L395,167.2z M385.4,190.6h-29.3v2.6H352v-20.5h37.3v20.5h-4.1v-2.6H385.4z M356.1,187.3h29.3v-11.7h-29.3
		V187.3z M384.5,165.2h-27.1V162h27.1V165.2z"/>
	<path class="st1" d="M410.6,173c-1.9,2.9-4.8,7.1-8.9,13l-2.9-2.6c1.9-2.6,4.1-5.5,6.4-9.1c2.2-3.6,4.1-6.5,5.1-9.1V159h-9.6v-3.6
		h9.6V147h3.8v15.3c2.9-2.6,5.7-4.9,8.9-6.5c3.2-1.6,6.4-2.3,9.2-2.3c4.5,0,8.3,1.6,11.2,4.9s4.5,7.1,4.5,12
		c0,5.8-1.9,10.7-5.4,14.6c-3.5,3.9-9.6,6.2-17.8,6.8l-1-3.6c13.4-1,20.1-6.8,20.1-17.5c0-3.6-1-6.5-3.2-9.1c-2.2-2.6-4.8-3.9-8-3.9
		c-3.2,0-6.4,1-9.9,2.6c-3.2,1.9-6.4,4.2-8.9,7.1v25H410V173H410.6z"/>
	<path class="st1" d="M495.7,191.5c-4.1,0.3-8.6,0.3-12.7,0.3c-6.1,0-10.5-0.3-13.1-0.6c-2.5-0.3-4.5-1.3-6.1-2.9
		c-1.3-1.6-2.2-3.9-2.2-7.1v-17.2h-8v-3.6h8v-11h4.1v11H489c0-4.5,0-8.1-0.3-11.4l4.1-0.3c0.3,3.2,0.6,6.8,0.6,10.7v1h8.3v3.6h-8.3
		c0,2.9-0.3,5.5-0.6,8.4c-0.3,2.9-1,4.9-1.9,5.8c-1,1-2.2,1.3-4.1,1.3c-2.5,0-6.1-1.6-9.9-4.5l1.6-2.9c3.5,2.3,6.1,3.6,8,3.6
		c1.3,0,1.9-0.6,2.2-2.3s0.6-4.5,0.6-9.4H466v16.9c0,2.3,0.6,3.9,1.6,4.9c1,1,2.5,1.6,4.8,1.9c2.2,0.3,6.4,0.3,12.4,0.3
		c4.5,0,8.3,0,11.2-0.3v3.9H495.7z"/>
</g>
<g>
	<path class="st1" d="M148.4,136.9H68.1c-1.3,0-2.5,1-2.5,2.6l0,0v5.5l43,30.2l42.7-30.2v-5.5C151.2,137.9,149.6,136.9,148.4,136.9z
		"/>
	<path class="st1" d="M65.2,156.4v35.7c0,6.2,4.5,11,10.5,11H141c5.4,0,10.5-4.9,10.5-10.7v-0.3v-35.7l-43,30.5L65.2,156.4z"/>
</g>
</svg>
