<?xml version="1.0" encoding="utf-8"?>
<!-- Generator: Adobe Illustrator 18.1.1, SVG Export Plug-In . SVG Version: 6.00 Build 0)  -->
<!DOCTYPE svg PUBLIC "-//W3C//DTD SVG 1.1//EN" "http://www.w3.org/Graphics/SVG/1.1/DTD/svg11.dtd">
<svg version="1.1" id="_x32_" xmlns="http://www.w3.org/2000/svg" xmlns:xlink="http://www.w3.org/1999/xlink" x="0px" y="0px"
	 viewBox="250 -348 606.7 606.7" enable-background="new 250 -348 606.7 606.7" xml:space="preserve">
<circle fill="#F48A9D" cx="553.4" cy="-44.6" r="303.4"/>
<g>
	<path fill="#FFFFFF" d="M620.1-100.4l-25.2-10.6c-3.6,6.7-7.7,13.9-12,21.3l29.6,12.4v182.4L507.6,61.3v-89.9l-2.3-3.2
		c-1.2-1.7-6.1-8.7-12.9-18.7V61.3l-100.3,42V-79.1l65.9-27.6c-1.5-2.7-2.9-5.4-4.3-8.1c-2.5-4.8-4.7-9.3-6.7-13.6l-79.2,33.2v235.1
		L500,84.4l120,50.3l132.2-55.4v-235.1L620.1-100.4z M728,63.2l-100.3,42V-77.2l100.3-42V63.2z"/>
	<path fill="#FFFFFF" d="M464.8-120.6c20.9,40,50.5,81.2,50.7,81.5l9.8,13.7l9.8-13.7c0.1-0.1,17.4-24.2,34.8-53.2
		c8.7-14.6,17.5-30.4,24.2-45.3c3.4-7.5,6.2-14.7,8.3-21.7c2.1-6.9,3.4-13.5,3.4-20.1c0-44.5-36.1-80.6-80.6-80.6
		c-44.5,0-80.6,36.1-80.6,80.6c0,6.5,1.4,13.1,3.5,20.1C451.9-147.2,457.9-134,464.8-120.6z M485.4-219.3
		c10.3-10.2,24.3-16.5,39.9-16.5c15.6,0,29.7,6.3,39.9,16.5c10.2,10.3,16.5,24.3,16.5,39.9c0,2.9-0.8,7.6-2.4,13.1
		c-2.9,9.7-8.4,22-14.9,34.5c-9.8,18.9-22.1,38.6-31.9,53.6c-2.6,4-5,7.6-7.2,10.8c-6.8-10.1-16.3-24.6-25.6-40.2
		c-8.1-13.7-16.1-28.3-21.8-41.3c-2.9-6.5-5.2-12.6-6.8-17.9c-1.6-5.3-2.3-9.7-2.3-12.6C468.9-195,475.2-209.1,485.4-219.3z"/>
	<path fill="#FFFFFF" d="M525.3-153.2c14.5,0,26.2-11.7,26.2-26.2c0-14.5-11.7-26.2-26.2-26.2c-14.5,0-26.2,11.7-26.2,26.2
		C499.1-164.9,510.9-153.2,525.3-153.2z"/>
</g>
</svg>
