<?xml version="1.0" encoding="utf-8"?>
<!-- Generator: Adobe Illustrator 28.1.0, SVG Export Plug-In . SVG Version: 6.00 Build 0)  -->
<svg version="1.1" id="レイヤー_1" xmlns="http://www.w3.org/2000/svg" xmlns:xlink="http://www.w3.org/1999/xlink" x="0px"
	 y="0px" viewBox="0 0 594.8 93.5" style="enable-background:new 0 0 594.8 93.5;" xml:space="preserve">
<style type="text/css">
	.st0{fill:url(#SVGID_00000036948289587531903540000017760220295181625483_);}
	.st1{fill:#F09BA7;}
	.st2{fill:#F9C258;}
	.st3{fill:#A8977F;}
	.st4{fill:url(#SVGID_00000075876811157706529720000010629472395561353609_);}
	.st5{fill:#8AC23E;}
	.st6{fill:#28AC4B;}
	
		.st7{clip-path:url(#SVGID_00000075842349568936557730000009845318040295191986_);fill:url(#SVGID_00000142872731461819321430000008448713505040791189_);}
	
		.st8{clip-path:url(#SVGID_00000091007940797911402880000010882251583714863748_);fill:url(#SVGID_00000083089913181640495360000010905552166735847324_);}
	.st9{display:none;fill:url(#SVGID_00000174586331074865902380000011709151610393865097_);}
	.st10{display:none;}
	.st11{display:inline;fill:#FFFFFF;stroke:#FFFFFF;stroke-miterlimit:10;}
	.st12{fill:url(#SVGID_00000013162265195810020160000003264824498181274244_);}
	.st13{fill:#FFFFFF;stroke:#FFFFFF;stroke-miterlimit:10;}
	.st14{fill:url(#SVGID_00000024703748639185974010000006281333317508778900_);}
	.st15{fill:url(#SVGID_00000015328609042102585790000015987697094764721029_);}
	.st16{fill:#FFFFFF;}
	.st17{display:none;fill:url(#SVGID_00000085967000783559416270000005565717542189615028_);}
	.st18{display:none;fill:url(#SVGID_00000133487802412337176720000003579255995237352366_);}
	.st19{display:inline;fill:#FFFFFF;}
</style>
<linearGradient id="SVGID_00000129893372519485029560000012048593069313867143_" gradientUnits="userSpaceOnUse" x1="115.5331" y1="63.912" x2="243.0245" y2="63.912">
	<stop  offset="0" style="stop-color:#8AC23E"/>
	<stop  offset="1" style="stop-color:#28AC4B"/>
</linearGradient>
<path style="fill:url(#SVGID_00000129893372519485029560000012048593069313867143_);" d="M126.4,64.3c0,1.8-2.3,9.4-3.4,12.3
	c-0.9,2.4-1.8,4.3-3.8,4.3c-1.5,0-3.7-1.2-3.7-3.1c0-0.9,0.2-1.4,1.1-2.9c1.4-2.6,2.6-6.8,3.1-8.8c0.6-2.7,1-4.5,3.3-4.5
	c0.3,0,0.7,0,1.1,0.1C125,62,126.4,62.6,126.4,64.3 M150.2,65.5c-1.3-2.8-3.7-5.2-6.8-5.2c-2.1,0-2.7,1.5-2.9,2.3
	c0,0.2-0.1,0.5-0.1,0.8c0,0.9,0.4,1.4,0.6,1.6c0.2,0.2,1.6,1.1,1.9,1.3c2.1,1.8,2.5,7.3,2.8,10.7c0.1,1,0.3,3.2,3.3,3.2
	c0.9,0,2.1-0.3,2.8-1.1c0.4-0.5,0.7-1.2,0.7-2.5C152.5,76.4,151.9,69,150.2,65.5 M142.1,55.3c1.8-0.2,3.4-0.6,3.4-3.2
	c0-2.7-2.2-2.9-4.4-3.1c-4.8-0.3-9.3-1-11.5-1.4c-0.8-0.1-4.5-1-5.4-1c-2,0-2.5,1.8-2.7,2.7c-0.3,2.5,1.4,3,3.1,3.4
	c1.7,0.4,4.2,0.9,6.8,1.3c-2.1,1.2-3.5,3.2-3.3,6.1c0.2,3.8,2.6,6.9,3.7,8.1c2.2,2.6,3.1,3.6,3.1,5.4c0,0.4-0.1,2.8-2.9,2.8
	c-1,0-1.8-0.2-2.3-0.4c-1.5-0.5-1.7-0.6-2.3-0.6c-2.9,0-2.9,3.1-2.9,3.3c0,1.1,0.4,2,1.7,2.7c2.4,1.3,5.3,1.6,6.8,1.6
	c6.8,0,8.8-5.2,8.8-8.4c0-3.1-1.3-5.9-4.4-9.2C132.1,59.8,133.2,56.5,142.1,55.3 M169.6,47.4c0.6-0.8,1.6-1,2.4-1
	c1.6,0,3.5,0.5,3.5,2.7c0,0.6-0.1,1.2-0.3,2.4c3.3-0.1,7.2-0.2,9.8-0.3c0.5,0,2.7-0.2,3.1-0.2c0.8,0,3.2,0,3.2,3.1
	c0,2.8-2,2.9-3.3,3c-4.2,0.2-9.4,0.4-14,0.5c-1.1,5.2-6,22.6-7.7,24.4c-0.3,0.3-0.9,0.8-2,0.8c-1.1,0-3.8-0.6-3.8-2.9
	c0-0.9,0.7-2.4,1.1-3.2c1.6-3.7,3.6-9.8,4.7-14c0.4-1.8,0.9-3.9,1.2-4.9c-2.3,0.1-4.7,0.1-5.5-0.4c-1.1-0.6-1.2-1.8-1.2-2.6
	c0-2.5,1.3-3.1,3.3-3.1h4.4C169.1,48.3,169.1,47.9,169.6,47.4 M187.7,82.5c-9.7,0-13.9-1.6-13.9-6.9c0-0.5,0-5,4-5
	c1.5,0,3.1,0.6,3.1,2.1c0,0.4-0.1,0.7-0.2,0.9c-0.2,0.7-0.3,0.8-0.3,1.2c0,0.7,0.5,1.2,1.9,1.5c1.1,0.2,2.5,0.2,3.4,0.2
	c1.1,0,3.3-0.1,6-0.4c0.5,0,1.4-0.2,1.8-0.2c1.8,0,2.9,1,2.9,2.9C196.4,81.8,195,82.5,187.7,82.5 M194.3,66.3
	c-0.5,0.4-1.1,0.5-2,0.5c-0.7,0-3.8-0.2-4.4-0.2c-2.6,0-3.7,0.1-7.5,0.4c-0.2,0-0.9,0.1-1.5,0.1c-2.7,0-2.7-2.7-2.7-3.1
	c0-1.3,0.5-2.4,2.4-2.9c2.6-0.6,7.3-0.7,10.1-0.7c6.2,0,6.6,1,6.6,3.5C195.3,64.6,195,65.7,194.3,66.3 M213.4,49.7
	c0,0.5-0.8,5.6-0.9,6.7c-0.3,3.3-0.5,6.6-0.5,9.9c0,3.6,0.2,7.3,0.7,10.9c0.1,0.9,0.2,2.1,0.2,2.6c0,2-1.2,2.8-3.1,2.8
	c-0.8,0-2.5,0-3.1-2c-0.6-2.1-1-8.8-1-14.6c0-8.9,1.1-15.9,1.4-16.9c0.3-1.1,1-2.5,3.8-2.2C212.9,47.3,213.4,48.3,213.4,49.7
	 M226.9,50.3c0-1.1,0-3.4,3.3-3.4c3.3,0,3.3,2.2,3.3,3.4l0,3.5c0.7,0,4-0.2,4.2-0.2c0.8,0,3.1,0,3.1,3.1c0,2-1.1,2.7-1.7,2.8
	c-0.7,0.2-0.9,0.2-5.5,0.4l0.1,8.2c3.3,1.8,5.1,3.2,6.3,4.3c0.8,0.8,1.3,1.8,1.3,2.8c0,1.8-1.5,3.6-3.3,3.6c-1.1,0-1.6-0.5-2.9-2
	c-0.2-0.2-1.6-1.4-1.8-1.6c-0.1,2.2-0.4,7.3-8.6,7.3c-7.3,0-9.9-4.2-9.9-8.3c0-4.9,3.8-8.2,9.6-8.2c1.3,0,2.2,0.2,2.9,0.2l-0.2-6.1
	c-2.8,0.1-6.3,0.1-9.1,0.1c-1,0-3.3,0-3.3-3.1c0-2.4,1.5-2.8,2.4-2.9c0.5,0,8.1-0.2,9.9-0.2L226.9,50.3z M224.4,71.4
	c-1,0-4,0.2-4,3.1c0,2.8,3.1,2.9,3.7,2.9c0.9,0,2.6-0.2,3.1-1.6c0.2-0.6,0.2-0.9,0.2-3.7C226.6,71.7,225.8,71.4,224.4,71.4
	 M234.2,47.5c-0.1-0.3-0.1-0.6-0.1-0.7c0-1.1,1.1-1.3,1.6-1.3c0.7,0,1.2,0.5,1.5,1.3c0.7,1.8,1.2,3.3,1.2,4.2c0,1.3-1.3,1.4-1.5,1.4
	c-0.6,0-1-0.2-1.3-1c-0.1-0.3-0.6-1.8-0.7-2C234.8,49.1,234.3,47.9,234.2,47.5 M238.9,46.8c-0.1-0.3-0.1-0.6-0.1-0.7
	c0-1.1,1.2-1.3,1.6-1.3c0.9,0,1.2,0.7,1.6,1.8c0.4,1.1,1,2.9,1,3.8c0,1.3-1.4,1.4-1.6,1.4c-0.4,0-0.9-0.1-1.3-1
	c-0.1-0.3-0.5-1.7-0.6-2C239.5,48.4,238.9,47.1,238.9,46.8"/>
<g>
	<g>
		<path class="st1" d="M277.7,57.8h-12.9c0.6-1.6,0.6-1.8,0.6-2c0-1.2-1.4-1.5-2.2-1.5c-1.6,0-1.9,0.7-2.6,3.5h-7.5
			c-1.2,0-1.9,0.7-1.9,1.9c0,1.1,0.6,1.8,1.9,1.8h6c-0.8,1.8-2.6,4.9-5.3,7.2c-2.7,2.3-2.8,2.3-2.8,3.2c0,1.3,0.9,2.3,2,2.3
			c0.6,0,0.9-0.2,2.4-1.5v8.5c0,1.1,0.4,1.8,2,1.8c1.8,0,1.8-1.4,1.8-1.8V68.5c2.2-2.9,3.6-5.9,4-6.9h14.3c1.2,0,1.9-0.7,1.9-1.9
			C279.6,58.4,278.8,57.8,277.7,57.8z"/>
		<path class="st1" d="M277.7,78.2h-5.8v-7.4h5c1.2,0,1.9-0.6,1.9-1.8c0-1.2-0.7-1.8-1.9-1.8h-5V64c0-1.3-0.7-1.8-2.1-1.8
			c-1.4,0-1.8,0.9-1.8,1.8v3.1h-5c-1.2,0-1.9,0.6-1.9,1.8c0,1.3,0.8,1.8,1.9,1.8h5v7.4h-6c-1.2,0-1.9,0.6-1.9,1.9
			c0,1.2,0.7,1.8,1.9,1.8h15.6c1.2,0,1.9-0.7,1.9-1.9C279.6,78.7,278.7,78.2,277.7,78.2z"/>
		<path class="st1" d="M311.2,72c0.8-0.1,1.4-0.4,1.4-1.7c0-1.9-1.3-1.8-1.8-1.7l-12.4,1.1v-3.3c3.2-0.4,4.8-0.7,7.5-1.3
			c0.8-0.2,1.6-0.5,1.6-1.5c0-0.6-0.3-2-1.6-2c-0.4,0-0.9,0.1-1.2,0.2c-6,1.4-10.4,1.7-15,2c-0.2,0-0.7,0.1-1.1,0.3
			c0.1-0.2,0.1-0.4,0.1-1v-1.7c0-0.7,0.4-1,1-1h17.4c0.7,0,1,0.4,1,1V63c0,1.2,0.4,1.8,2,1.8c1.7,0,1.8-1,1.8-1.8v-2.5
			c0-2.7-1.1-3.5-3.5-3.5h-8V56c0-1.2-0.9-1.5-2.2-1.5c-1.1,0-1.8,0.4-1.8,1.5v1.1h-7.9c-2.3,0-3.5,0.8-3.5,3.5v2.5
			c0,1.1,0.4,1.8,1.9,1.8c0.7,0,1-0.1,1.2-0.3c-0.2,0.3-0.2,0.6-0.2,0.8c0,0.5,0.1,1.9,1.7,1.9c1.2,0,2.3-0.1,4.9-0.4v3.2l-8.7,0.8
			c-0.9,0.1-1.5,0.4-1.5,1.6c0,2,1.4,1.9,1.8,1.8l8.4-0.8V79c0,1,0,3.3,2.8,3.4c0.8,0.1,1.5,0.1,9.7,0.1c2.8,0,4.5,0,4.5-6
			c0-0.5,0-1.9-2-1.9c-1.7,0-1.8,1.2-1.8,1.8c-0.1,2.1-0.2,2.5-0.9,2.7c-0.3,0.1-4.5,0.1-5.4,0.1c-2.2,0-2.3,0-2.5-0.1
			c-0.2-0.1-0.5-0.3-0.5-1.1v-4.7L311.2,72z"/>
	</g>
	<g>
		<path class="st2" d="M341.4,59.5h-9.1c0.8-1.5,1-2,1-2.6c0-1.1-1.2-1.6-2.1-1.6c-1.3,0-1.5,0.5-2.6,2.7c-0.5,0.9-2.8,4.7-6.3,7.3
			c-1.4,1-1.6,1.2-1.6,2c0,1,0.9,2,2,2c2,0,5.8-4.2,7.3-6.3h8.9c0.8,0,1.1,0,1.1,0.6c0,0.8-0.9,3.3-1.7,4.8
			c-3.1,6.1-8.3,8.1-13.2,9.3c-2.2,0.5-2.8,0.7-2.8,2c0,0.5,0.2,2.1,2,2.1c1,0,7.4-1.2,12.2-5c6.9-5.4,8.1-13.7,8.1-14.9
			C344.4,60.6,343.6,59.5,341.4,59.5z"/>
		<path class="st2" d="M356.8,71.1V58c0-1.4-0.8-1.9-2.1-1.9c-1.8,0-2.1,1-2.1,1.9v13.1c0,1.4,0.8,1.9,2.1,1.9
			C356.5,73,356.8,72,356.8,71.1z"/>
		<path class="st2" d="M370.1,55.7c-1.8,0-2.1,1-2.1,2v11.4c0,1.9-0.2,3.6-1.7,5.4c-1.6,1.8-3.9,2.8-8.7,3.2c-2,0.2-3,0.3-3,1.9
			c0,2.1,1.9,2.1,2.3,2.1c0.7,0,2.9-0.1,5.7-0.8c9.1-2.5,9.7-8.5,9.7-12V57.6C372.2,56.2,371.4,55.7,370.1,55.7z"/>
		<path class="st2" d="M383.6,62h18.2c1.1,0,2-0.4,2-2c0-2-1.5-2-2-2h-18.2c-0.9,0-2,0.3-2,2C381.5,62,383.1,62,383.6,62z"/>
		<path class="st2" d="M404,75.5h-22.6c-1.2,0-2,0.5-2,2c0,2,1.5,2,2,2H404c1.2,0,2-0.5,2-2C406,75.5,404.5,75.5,404,75.5z"/>
		<path class="st2" d="M420.5,68.8c0.2,0.9,0.5,2,1.5,2c0.6,0,2.3-0.1,2.3-1.8c0-0.7-1.2-4.8-1.9-6.3c-0.4-0.8-0.7-1.4-1.8-1.4
			c-1,0-2,0.6-2,1.6c0,0.4,0.1,0.7,0.2,1C419.6,65.2,420,66.4,420.5,68.8z"/>
		<path class="st2" d="M431.2,62.1c-0.2-0.1-0.4-0.1-0.6-0.1c-1.4,0-1.7,1.1-1.8,1.9c-0.6,3-0.7,3.3-1.1,4.5
			c-2.4,7.1-7.9,8.9-10.3,9.6c-2.1,0.6-2.7,0.8-2.7,1.9c0,0.6,0.4,2,1.8,2c0.5,0,7.7-1.1,12.2-7.5c3.3-4.8,3.9-10.5,3.9-10.6
			C432.6,63.2,432.4,62.4,431.2,62.1z"/>
		<path class="st2" d="M417.8,70.4c0-0.5-0.1-0.8-0.3-1.5c-1.7-4.8-2.3-6.2-3.7-6.2c-0.9,0-2,0.6-2,1.6c0,0.4,0.2,0.8,0.3,1.1
			c0.6,1.3,1.1,2.4,1.8,4.8c0.3,1.1,0.6,1.9,1.7,1.9C416.2,72.1,417.8,71.9,417.8,70.4z"/>
		<path class="st2" d="M458.7,59.5h-9.1c0.8-1.5,1-2,1-2.6c0-1.1-1.2-1.6-2.1-1.6c-1.3,0-1.5,0.5-2.6,2.7c-0.4,0.9-2.8,4.7-6.3,7.3
			c-1.4,1-1.6,1.2-1.6,2c0,1,0.9,2,2,2c2,0,5.8-4.2,7.3-6.3h8.9c0.8,0,1.1,0,1.1,0.6c0,0.8-0.9,3.3-1.7,4.8
			c-3.1,6.1-8.3,8.1-13.2,9.3c-2.2,0.5-2.8,0.7-2.8,2c0,0.5,0.2,2.1,2,2.1c1,0,7.4-1.2,12.2-5c6.9-5.4,8.1-13.7,8.1-14.9
			C461.7,60.6,460.9,59.5,458.7,59.5z"/>
	</g>
</g>
<g>
	<g>
		<path class="st3" d="M206.3,19.2c0.3,0,1.3,0,1.3,1.2c0,1.2-1,1.2-1.3,1.2h-13.5c-0.5,0-0.8,0.2-0.8,0.8v11.8
			c0,0.6,0.3,0.8,0.8,0.8h13.9c0.3,0,1.3,0,1.3,1.2c0,1.2-1,1.2-1.3,1.2h-14.5c-1.8,0-2.8-0.6-2.8-2.8V21.9c0-2.1,0.9-2.8,2.8-2.8
			H206.3z M205.9,27.4c0.3,0,1.1,0,1.1,1.1c0,1.1-0.8,1.1-1.1,1.1h-4.3c1.2,1.3,2,2,4.5,2.7c0.4,0.1,0.9,0.3,0.9,1
			c0,0.5-0.2,1.3-1.2,1.3c-0.7,0-4.3-1.2-6-4.1c-2,3.4-5.1,4.1-5.6,4.1c-0.9,0-1.2-0.9-1.2-1.3c0-0.7,0.5-0.9,0.9-1
			c1.3-0.4,2.9-0.9,4-2.7h-4.1c-0.3,0-1.1,0-1.1-1c0-1,0.7-1.1,1.1-1.1h4.8c0,0,0.1-0.5,0.1-0.7v-1.3h-2.2c-1.1,1.6-1.6,1.8-2,1.8
			c-0.6,0-1.3-0.5-1.3-1.2c0-0.4,0.1-0.5,1-1.5c0.6-0.6,1-1.3,1.5-2.2c0.2-0.5,0.6-0.8,1.1-0.8c0.5,0,1.2,0.3,1.2,1.1
			c0,0.3-0.1,0.5-0.2,0.8h7.5c0.3,0,1.1,0,1.1,1c0,1.1-0.8,1.1-1.1,1.1h-4.2v1.3c0,0.3,0,0.6-0.1,0.7H205.9z"/>
		<path class="st3" d="M229,31.2c0,0.4,0,1-0.5,1.5c-0.5,0.5-1.2,0.5-1.6,0.5h-2.1v2.1c0,2.1-0.6,2.3-2.7,2.3c-1.3,0-2.1,0-2.1-1.1
			c0-0.7,0.3-1,1-1c0.1,0,0.8,0,0.8,0c0.4,0,0.5-0.1,0.5-0.6v-1.8h-2.2c-1.9,0-2-1.3-2-2v-1.4c-0.1,0.1-0.4,0.2-0.6,0.2
			c-0.6,0-1-0.5-1-1.1c-0.1,2-0.4,4.8-1.5,7c-0.8,1.5-1.1,1.7-1.7,1.7c-0.7,0-1.3-0.5-1.3-1.1c0-0.4,0.2-0.7,0.3-1.1
			c1.1-2.1,1.4-2.7,1.7-4.7c-0.4,0.3-1.2,0.8-1.7,0.8c-0.9,0-1-1.1-1-1.5c0-0.8,0.5-1,0.9-1.1c0.5-0.2,1.2-0.5,2-1V26
			c-0.1,0.1-0.4,0.2-0.8,0.2c-0.6,0-0.7-0.3-1-1.2c-0.3-0.7-0.4-1-0.8-1.7c0-0.1-0.1-0.3-0.1-0.6c0-0.6,0.7-1.1,1.2-1.1
			c0.6,0,0.8,0.5,1.5,2v-1.3c0-1.8,0.8-2.4,2.4-2.4h4.4v-0.6c0-0.9,0.8-1,1.2-1c0.6,0,1.3,0.2,1.3,1V20h6.1c0.5,0,1.2,0.1,1.2,1
			c0,0.8-0.5,1-1.2,1h-6.4c0.4,0.2,0.7,0.4,0.6,1h5.9c0.4,0,1,0,1,1c0,0.9-0.6,1-1,1h-3.4c0.9,1,1,1.1,1.4,1.4
			c0.1-0.2,0.7-0.9,0.9-1.1c0.2-0.2,0.3-0.2,0.5-0.2c0.5,0,1.1,0.4,1.1,0.8c0,0.4-0.7,1.1-1,1.5c0.2,0.1,1.1,0.6,1.3,0.7
			c0.4,0.2,0.4,0.5,0.4,0.7c0,0.6-0.4,1.3-1.1,1.3c-0.3,0-0.6-0.1-0.9-0.3V31.2z M219,36.3c-0.6,0.4-1.8,1.1-2.3,1.1
			c-0.8,0-1-0.7-1-1.1c0-0.6,0.2-0.6,1.4-1.3c0.8-0.4,1.1-0.6,1.9-1.2c0.3-0.2,0.5-0.3,0.8-0.3c0.6,0,1.1,0.5,1.1,1.1
			C220.8,35,220.4,35.4,219,36.3z M216.5,28.7c0.1-0.3,0.3-0.6,0.4-0.6c0.3-0.2,0.8-0.6,1.2-0.8c-0.2-0.3-0.5-0.6-0.8-0.8
			c-0.2-0.2-0.3-0.4-0.3-0.6c0-0.5,0.6-0.9,1.1-0.9c0.3,0,0.5,0.1,1.4,1.2c0.4-0.4,0.8-0.8,1.1-1.3h-2.8c-0.6,0-1-0.2-1-1
			c0-0.8,0.6-0.9,1-0.9h3.9c0.3-0.8,0.3-0.8,0.5-1h-4.9c-0.5,0-0.7,0.2-0.7,0.7V28.7z M220.6,29.3h6.1v-0.4c0-0.3-0.1-0.5-0.5-0.5
			h-5.1c-0.4,0-0.5,0.2-0.5,0.5V29.3z M220.6,30.8v0.4c0,0.3,0.1,0.5,0.5,0.5h5.1c0.4,0,0.5-0.3,0.5-0.5v-0.4H220.6z M225.5,26.8
			c-0.9-0.9-1.1-1.4-1.3-1.8h-1.1c-0.3,0.5-0.6,1-1.3,1.8H225.5z M227.1,33.5c0.3,0,0.4,0,1,0.5c0.8,0.6,1.5,0.9,2.3,1.4
			c0.2,0.1,0.5,0.3,0.5,0.8c0,0.5-0.4,1.2-1.2,1.2c-0.5,0-1.6-0.7-2.2-1.1c-0.6-0.4-1.6-1.1-1.6-1.7C226,33.9,226.6,33.5,227.1,33.5
			z"/>
		<path class="st3" d="M238.7,34.1c-1.8,3.5-2.1,3.5-2.6,3.5c-0.7,0-1.4-0.5-1.4-1.2c0-0.5,0.2-0.7,1-2.1c0.8-1.3,1.4-2.6,2.1-4.1
			c0.1-0.3,0.3-0.7,1-0.7c0.5,0,1.2,0.4,1.2,1.1C240.1,31.3,239.1,33.3,238.7,34.1z M236,23.9c0.6,0,1.7,0.7,2.4,1.2
			c1.2,0.8,1.4,1.1,1.4,1.5c0,0.6-0.6,1.4-1.3,1.4c-0.3,0-0.5-0.1-1.7-1c-0.2-0.2-1.2-0.8-1.4-1c-0.4-0.2-0.5-0.4-0.5-1
			C234.8,24.6,235.4,23.9,236,23.9z M236.6,18.6c0.6,0,1.7,0.7,2.4,1.1c1.2,0.7,1.5,1,1.5,1.5c0,0.7-0.6,1.4-1.2,1.4
			c-0.3,0-0.4-0.1-1.7-0.9c-0.3-0.2-1.5-0.9-1.7-1c-0.2-0.1-0.5-0.3-0.5-0.9C235.4,19.3,235.9,18.6,236.6,18.6z M241.4,29.1
			c-0.4,0-1.3,0-1.3-1.2c0-1,0.6-1.2,1.3-1.2h4.5v-3.1h-3.6c-0.3,0-1.3,0-1.3-1.2c0-0.9,0.4-1.3,1.3-1.3h3.6v-1.5
			c0-0.5,0.1-1.3,1.2-1.3c0.9,0,1.4,0.3,1.4,1.3v1.5h3.8c0.3,0,1.3,0,1.3,1.2c0,1-0.5,1.3-1.3,1.3h-3.8v3.1h4.5c0.3,0,1.3,0,1.3,1.1
			c0,0.9-0.4,1.3-1.3,1.3h-6.2c-0.8,2.2-1.9,4.5-2.3,5.5c2.3-0.1,2.9-0.2,5.6-0.4c-0.4-0.7-0.5-0.9-1.3-2c-0.3-0.4-0.3-0.6-0.3-0.8
			c0-0.7,0.8-1.1,1.3-1.1c0.5,0,0.8,0.2,1.7,1.5c0.5,0.8,1.3,1.8,2,3.2c0.5,0.8,0.6,1.2,0.6,1.6c0,0.7-0.7,1.2-1.4,1.2
			c-0.7,0-0.9-0.5-1-0.7c-0.1-0.1-0.3-0.6-0.3-0.7c-4.4,0.6-9.9,0.9-10.1,0.9c-0.2,0-1.2,0-1.2-1.3c0-0.5,0.2-0.8,0.6-1.1
			c0.2-0.1,0.3-0.1,1.2-0.1c0.9-1.8,1.7-3.7,2.3-5.6H241.4z"/>
		<path class="st3" d="M266.1,19.8c0-0.4,0-1.3,1.4-1.3c1.4,0,1.4,0.9,1.4,1.3v2c0,1.6,0.2,5.9,2.7,9.2c1.2,1.6,2.8,2.9,4.5,3.9
			c0.5,0.3,1,0.6,1,1.3c0,0.6-0.5,1.6-1.5,1.6c-1,0-3.5-2.1-4.9-3.6c-1.6-1.8-2.7-4.1-3.3-6.4c-1,3.7-2.4,5.5-3.7,6.9
			c-1.2,1.2-3.4,3.1-4.4,3.1c-0.9,0-1.5-0.8-1.5-1.6c0-0.7,0.4-0.9,0.8-1.1c2.7-1.5,5.7-3.6,7-9.1c0.2-0.9,0.4-3.7,0.4-4V19.8z"/>
		<path class="st3" d="M285.5,21.5c1,0,1.9,0.4,1.9,1.7c0,0.9-0.3,1.8-1.8,4c0.5,0.5,0.9,0.9,1.6,1.6c0.8,0.8,1,0.9,1,1.3
			c0,0.6-0.5,1.3-1.2,1.3c-0.7,0-1.4-0.9-1.9-1.7v7c0,1-0.5,1.3-1.4,1.3c-1.1,0-1.2-0.7-1.2-1.3v-6.1c-0.8,0.7-1.3,1-1.8,1
			c-0.7,0-1.3-0.7-1.3-1.5c0-0.7,0.3-0.9,1.8-2c2.3-1.6,3.4-3.7,3.4-3.9c0-0.3-0.3-0.3-0.5-0.3h-3.3c-0.6,0-1.3-0.2-1.3-1.2
			c0-1.2,0.9-1.2,1.3-1.2h1.7v-1.8c0-0.9,0.4-1.3,1.4-1.3c1.2,0,1.2,0.9,1.2,1.3v1.8H285.5z M297.1,23.8c0.3,0,1.3,0,1.3,1.2
			c0,1-0.4,1.4-1.3,1.4h-2.9v8.3h3.3c0.3,0,1.3,0,1.3,1.2c0,0.9-0.4,1.4-1.3,1.4H288c-0.4,0-1.5,0-1.5-1.2c0-1,0.5-1.3,1.5-1.3h3.5
			v-8.3h-2.8c-0.3,0-1.3,0-1.3-1.2c0-1,0.4-1.4,1.3-1.4h2.8v-4.2c0-0.5,0.1-1.3,1.2-1.3c1,0,1.4,0.3,1.4,1.3v4.2H297.1z"/>
		<path class="st3" d="M320.6,34.6c0,2.1-0.9,2.8-2.8,2.8h-12.2c-1.8,0-2.8-0.6-2.8-2.8V21.9c0-2.1,0.9-2.8,2.8-2.8h12.2
			c1.8,0,2.8,0.6,2.8,2.8V34.6z M318.1,22.4c0-0.6-0.3-0.8-0.8-0.8h-11c-0.6,0-0.8,0.3-0.8,0.8v11.7c0,0.6,0.3,0.8,0.8,0.8h11
			c0.5,0,0.8-0.3,0.8-0.8V22.4z M315.8,32.3c0,2.3-0.7,2.3-3.6,2.3c-0.9,0-1.6,0-1.6-1.1c0-1.1,0.8-1.1,1-1.1c0.2,0,0.9,0,1,0
			c0.7,0,0.7-0.3,0.7-0.7v-5.5h-6.6c-0.4,0-1.2,0-1.2-1c0-1,0.4-1.2,1.2-1.2h6.6v-1.3c0-0.8,0.3-1.2,1.1-1.2c0.8,0,1.3,0.2,1.3,1.2
			v1.3h1.1c0.4,0,1.2,0,1.2,1.1c0,1-0.4,1.2-1.2,1.2h-1.1V32.3z M310.1,28.8c0.4,0.6,1,1.5,1,2.1c0,0.8-0.9,1.2-1.4,1.2
			c-0.5,0-0.7-0.3-1.3-1.3c-0.3-0.5-0.5-0.8-1.2-1.7c-0.2-0.2-0.4-0.6-0.4-1c0-0.6,0.7-1,1.2-1C308.5,27,308.8,27,310.1,28.8z"/>
	</g>
	
		<linearGradient id="SVGID_00000085955507464272443340000007378682901880517296_" gradientUnits="userSpaceOnUse" x1="333.9651" y1="28.0483" x2="399.7854" y2="28.0483">
		<stop  offset="0" style="stop-color:#8AC23E"/>
		<stop  offset="1" style="stop-color:#28AC4B"/>
	</linearGradient>
	<path style="fill:url(#SVGID_00000085955507464272443340000007378682901880517296_);" d="M352.2,20.1c0.3,0,1.3,0,1.3,1.1
		c0,0.8-0.3,1.2-1.3,1.2H345v4.5c0,2.7,0.8,4.7,3,6.4c1.3,1,3,1.5,4.4,1.8c0.7,0.2,1,0.4,1,1.1c0,0.4-0.2,1.5-1.3,1.5
		c-1.4,0-6.6-2-8.3-6c-0.3,0.7-0.8,2-2.8,3.6c-2.1,1.6-4.5,2.5-5.4,2.5c-1.2,0-1.3-1.2-1.3-1.5c0-0.8,0.5-1,1-1.1
		c4.2-1.1,7.3-2.8,7.3-8.7v-4h-7.3c-0.4,0-1.2-0.1-1.2-1.2c0-0.9,0.6-1.2,1.2-1.2h7.3v-0.8c0-0.7,0.3-1,1.2-1c0.8,0,1.4,0.2,1.4,1
		v0.8H352.2z M341.5,28.6c0,0.5-0.5,1-1.5,1.8c0.6,0.6,0.8,0.8,0.8,1.2c0,0.7-0.7,1.2-1.2,1.2c-0.3,0-0.6-0.2-0.8-0.5
		c-0.1-0.1-0.2-0.3-0.6-0.6c-1,0.6-2.4,1.2-2.9,1.2c-0.8,0-1-0.8-1-1.2c0-0.6,0.4-0.8,0.8-0.9c1-0.4,1.1-0.4,1.5-0.6
		c-0.2-0.1-1-0.7-1.1-0.8c-0.1-0.1-0.3-0.3-0.3-0.6c0-0.5,0.5-1,1.1-1c0.3,0,0.5,0,2.2,1.3c0.3-0.2,0.6-0.5,1.2-1
		c0.2-0.1,0.3-0.3,0.7-0.4c-0.2,0-0.4,0-0.6-0.1c-0.2-0.1-1.1-0.9-1.3-1.1c-1.2,0.7-2.7,1.4-3.1,1.4c-0.7,0-0.9-0.7-0.9-1.1
		c0-0.5,0.4-0.7,0.7-0.8c1.2-0.5,1.3-0.5,1.6-0.7c-1.3-0.8-1.5-1-1.5-1.4c0-0.6,0.5-1,1-1c0.3,0,0.5,0.1,0.9,0.3
		c0.4,0.2,1,0.6,1.5,0.9c0.2-0.1,0.8-0.6,1.2-1c0.2-0.2,0.4-0.3,0.7-0.3c0.6,0,1,0.5,1,0.9c0,0.5-0.3,0.8-1.2,1.4
		c1.1,0.8,1.2,1,1.2,1.4c0,0.5-0.4,1-1,1.1C341,27.5,341.5,28.1,341.5,28.6z M352.5,26.3c0,0.6-0.5,1.1-1.1,1.1
		c-0.3,0-0.5-0.1-0.7-0.3c-0.6-0.6-0.7-0.6-1-0.8c-1.1,0.7-2.7,1.5-3.2,1.5c-0.8,0-1-0.8-1-1.1c0-0.6,0.5-0.8,0.8-0.9
		c0.9-0.4,1-0.4,1.6-0.7c-0.2-0.1-1.2-0.7-1.4-0.8c-0.1-0.1-0.4-0.3-0.4-0.6c0-0.4,0.4-0.9,1.1-0.9c0.6,0,1.9,0.8,2.5,1.2
		c0.3-0.2,0.3-0.3,1.1-0.9c0.2-0.2,0.5-0.3,0.7-0.3c0.6,0,1,0.5,1,1s-0.3,0.7-1.1,1.4C352.3,25.7,352.5,25.9,352.5,26.3z
		 M351.1,27.8c0.2-0.2,0.5-0.3,0.7-0.3c0.6,0,1.1,0.5,1.1,1c0,0.5-0.4,0.8-1.3,1.7c1.1,0.9,1.3,1.1,1.3,1.6c0,0.7-0.7,1.1-1.2,1.1
		c-0.3,0-0.5-0.1-0.8-0.4c-0.6-0.6-0.6-0.6-1.2-1c-0.5,0.3-1.8,1.1-2.3,1.1c-0.6,0-1-0.7-1-1.2c0-0.5,0.3-0.7,0.5-0.8
		c0.2-0.1,0.9-0.4,1-0.5c-0.2-0.1-0.3-0.2-1-0.7c-0.2-0.1-0.5-0.4-0.5-0.8c0-0.5,0.5-1,1.1-1c0.5,0,1.8,0.9,2.4,1.3
		C350.3,28.6,350.4,28.5,351.1,27.8z M359.7,25.7c-0.3-0.5-0.7-0.8-1.5-1.7c-0.8-0.8-0.9-0.9-0.9-1.5c0-0.5,0.4-1.2,1-1.2
		c0.2,0,0.3,0.1,0.5,0.1c0.3-0.6,0.8-1.3,1.1-2.1c0.3-0.7,0.5-1.1,1-1.1c0.5,0,1.3,0.4,1.3,1c0,0.7-1.2,2.6-1.9,3.6
		c0.3,0.3,0.4,0.4,0.6,0.7c0.6-1,0.7-1,1.6-2.7c0.2-0.3,0.5-0.6,0.8-0.6c0.6,0,1.3,0.5,1.3,1.1c0,0.4-0.7,1.4-1,1.9
		c-1.1,1.7-1.8,2.5-2.7,3.7c0.4,0,0.6,0,1.9-0.1c-0.3-0.9-0.3-1-0.3-1.2c0-0.5,0.5-0.7,0.8-0.7c0.5,0,0.7,0.4,0.9,0.9
		c0.3,0.7,0.7,2.2,0.8,2.5c0.4-0.6,0.8-0.6,0.9-0.6c0.3,0,0.5,0.1,1.5,1c0.3,0.3,1,1,1,1.6c0,0.4-0.4,1-1.1,1c-0.3,0-0.4-0.1-1-0.7
		c-0.2-0.2-1.1-1.1-1.3-1.4c-0.2,0.3-0.5,0.4-0.9,0.4c-0.6,0-0.7-0.4-0.8-1c-0.2,0-0.3,0-1.2,0.1v7.7c0,0.3,0,1.1-1,1.1
		s-1-0.8-1-1.1v-7.5c-1.2,0.1-1.6,0.2-2.1,0.2c-0.6,0-1.1-0.3-1.1-1.2c0-1,0.6-1,1.6-1.1L359.7,25.7z M359.7,31.2
		c0,0.4-0.2,3.2-0.6,4.6c-0.1,0.3-0.2,0.7-0.8,0.7c-0.1,0-1.1,0-1.1-0.9c0-0.3,0.3-1.5,0.3-1.7c0.2-1.1,0.2-1.8,0.3-2.9
		c0-0.5,0.1-0.9,0.9-0.9C359.7,30.1,359.7,30.8,359.7,31.2z M366.8,32.4c0.7-0.5,0.9-0.5,1.1-0.5c0.6,0,1,0.6,1,1.2
		c0,0.5-0.2,0.7-1.5,1.6c-0.6,0.4-2,1.4-2.5,1.4c-0.6,0-1-0.6-1-1.3c0-0.2,0-0.3,0.1-0.4c-0.7-0.1-0.7-0.3-0.9-1.6
		c0-0.3-0.2-1.7-0.2-1.8c0-0.6,0.7-0.7,0.9-0.7c0.7,0,0.8,0.3,1,1.5c0,0.1,0.2,1.3,0.2,1.8C365.6,33.2,366.5,32.6,366.8,32.4z
		 M371.6,35.4c0,2-0.4,2.3-2.4,2.3c-1.3,0-1.4,0-1.5,0c-0.6-0.1-0.9-0.7-0.9-1.2c0-0.5,0.2-1.2,1.1-1.2c0.2,0,0.8,0,0.9,0
		c0.3,0,0.5-0.2,0.5-0.6v-7.3h-3.4c-0.3,0-1,0-1-1c0-0.8,0.3-1.1,1-1.1h6.8v-1.1h-5.8c-0.3,0-1,0-1-0.9c0-0.8,0.5-0.9,1-0.9h5.8
		v-0.6c0-0.2-0.1-0.5-0.5-0.5h-5.7c-0.3,0-1,0-1-1c0-0.8,0.2-1.1,1-1.1h6.4c1.4,0,2.2,0.5,2.2,2.2v4.1h0.6c0.6,0,0.9,0.4,0.9,1
		c0,1-0.7,1-1,1h-3.9v1.1c0.2,0.6,0.7,1.4,0.9,1.7c0.3-0.3,0.9-0.9,1.5-1.6c0.5-0.6,0.7-0.8,1.1-0.8c0.7,0,1.2,0.6,1.2,1.1
		c0,0.4-0.1,0.7-0.5,1.1c-0.8,0.9-1.5,1.6-2,2c0.5,0.6,0.9,1,1.4,1.4c1.1,0.9,1.4,1.2,1.4,1.7c0,0.6-0.6,1.3-1.3,1.3
		c-0.8,0-2.6-1.9-3.7-3.9V35.4z M385.8,26.2c-0.8,0-1.2-0.3-1.2-1c-0.8,0.5-2.3,1.3-3,1.3c-0.7,0-1.3-0.7-1.3-1.5
		c0-0.8,0.5-1,1.1-1.3c3.1-1.2,4.9-2.9,6.4-4.4c0.8-0.8,1.2-1.1,2.2-1.1c1.1,0,1.3,0.3,2.5,1.4c1.1,1.1,2.8,2.7,6.2,4.1
		c0.6,0.2,1,0.5,1,1.2c0,0.8-0.6,1.5-1.3,1.5c-0.7,0-2.1-0.8-2.9-1.3c-0.1,0.9-0.7,1-1.3,1H385.8z M388.6,30.5
		c-0.5,1.2-0.9,2.2-2,4.1c2.9-0.1,3.4-0.1,7.7-0.4c-0.3-0.4-0.4-0.5-1.2-1.4c-0.5-0.5-0.5-0.7-0.5-1c0-0.6,0.8-1.2,1.4-1.2
		c0.3,0,0.7,0.1,1,0.5c0.8,0.8,1.8,1.8,2.7,3.1c1,1.2,1.2,1.6,1.2,2.1c0,0.7-0.9,1.4-1.6,1.4c-0.5,0-0.7-0.3-0.8-0.5
		c-0.1-0.1-0.5-0.8-0.6-0.9c-2.1,0.2-4.4,0.4-6.5,0.6c-1,0.1-6.3,0.4-7.2,0.4c-0.3,0-1.3,0-1.3-1.3c0-0.2,0-1.1,0.9-1.2
		c0.2,0,1.6-0.1,1.9-0.1c0.7-1.4,1.5-2.7,2-4.2H382c-0.9,0-1.3-0.4-1.3-1.3c0-1.2,1-1.2,1.3-1.2H398c0.8,0,1.3,0.3,1.3,1.3
		c0,1.2-1,1.2-1.3,1.2H388.6z M393.6,23.9c-0.6-0.5-1.8-1.4-3-2.7c-0.3-0.3-0.4-0.4-0.6-0.4s-0.3,0.1-0.6,0.4c-0.9,1-1.9,1.9-3,2.7
		H393.6z"/>
</g>
<path class="st5" d="M19.8,11.9c0.6,15,12.5,27.1,27.5,27.8C46.7,24.7,34.8,12.6,19.8,11.9"/>
<path class="st6" d="M90.5,0C68.2,1.6,42.7,20.5,51.2,68.8c0-15.5,2.3-24.9,4.2-29.5C74.7,36.4,89.7,20,90.5,0"/>
<path class="st3" d="M29.7,86.2c0.5,0,0.7,0,1,0.1c0.3,0.2,0.5,0.5,0.5,0.9c0,0.4-0.2,0.8-0.5,0.9c-0.2,0.1-0.4,0.1-1,0.1h-3.5v3.5
	c0,0.6,0,0.8-0.2,1.1c-0.2,0.3-0.6,0.6-1.1,0.6c-0.5,0-0.9-0.2-1.1-0.6c-0.1-0.3-0.2-0.5-0.2-1.1v-9.4c0-0.4,0-0.8,0.3-1.1
	c0.3-0.3,0.8-0.3,1.1-0.3h5.3c0.5,0,0.7,0,1,0.1c0.3,0.2,0.5,0.5,0.5,0.9c0,0.4-0.2,0.8-0.5,0.9c-0.2,0.1-0.4,0.1-1,0.1h-4.4v3.1
	H29.7z"/>
<path class="st3" d="M37.2,93.5c-0.9,0-1.6-0.3-2.2-0.8c-0.7-0.7-0.9-1.6-0.9-2.6v-4.3c0-0.6,0-0.8,0.1-1c0.2-0.3,0.5-0.5,1-0.5
	c0.5,0,0.8,0.2,1,0.5c0.1,0.2,0.1,0.5,0.1,1v4c0,1.2,0.8,1.6,1.5,1.6c0.7,0,1.5-0.4,1.5-1.6v-4c0-0.6,0-0.8,0.1-1
	c0.2-0.3,0.5-0.5,1-0.5c0.5,0,0.8,0.2,1,0.5c0.1,0.2,0.1,0.5,0.1,1V92c0,0.6,0,0.8-0.2,1c-0.2,0.3-0.6,0.5-1,0.5
	c-0.3,0-0.6-0.1-0.7-0.3c-0.2-0.2-0.3-0.4-0.3-0.7C38.9,93.2,38,93.5,37.2,93.5"/>
<path class="st3" d="M45.5,86.3h-0.2c-0.4,0-0.6,0-0.8-0.1c-0.3-0.1-0.4-0.4-0.4-0.8c0-0.3,0.1-0.6,0.4-0.8c0.2-0.1,0.3-0.1,0.8-0.1
	h0.2v-1.2c0-0.6,0-0.8,0.1-1c0.2-0.3,0.5-0.5,1-0.5c0.5,0,0.8,0.2,1,0.5c0.1,0.2,0.1,0.5,0.1,1v1.2h0.7c0.4,0,0.6,0,0.8,0.1
	c0.3,0.1,0.4,0.4,0.4,0.8c0,0.3-0.1,0.6-0.4,0.8c-0.2,0.1-0.3,0.1-0.8,0.1h-0.7v4.4c0,0.4,0.2,0.8,0.7,0.8c0.3,0,0.5,0,0.7,0.1
	c0.3,0.1,0.5,0.4,0.5,0.8c0,0.4-0.2,0.7-0.5,0.8c-0.2,0.1-0.5,0.2-0.9,0.2h-0.1c-1.9,0-2.6-1.3-2.6-2.6V86.3z"/>
<path class="st3" d="M53.8,86.6c-0.3,0.2-0.6,0.2-0.8,0.2c-0.2,0-0.5-0.1-0.6-0.3c-0.2-0.2-0.3-0.4-0.3-0.7c0-0.5,0.4-0.9,0.8-1.1
	c0.7-0.4,1.4-0.5,2.3-0.5c2.5,0,3.8,1.1,3.8,3.2V92c0,0.6,0,0.8-0.2,1c-0.2,0.3-0.6,0.5-1,0.5c-0.3,0-0.6-0.1-0.7-0.3
	c-0.2-0.2-0.3-0.3-0.3-0.6c-0.7,0.6-1.2,0.9-2.3,0.9c-1,0-1.8-0.3-2.3-0.8c-0.5-0.5-0.8-1.2-0.8-2c0-1.5,1-2.6,3.1-2.6h2.1v-0.5
	c0-1-0.5-1.4-1.6-1.4C54.7,86.1,54.3,86.3,53.8,86.6 M56.9,89.6h-1.7c-0.9,0-1.3,0.4-1.3,1c0,0.6,0.4,1,1.4,1c0.6,0,1-0.1,1.3-0.4
	c0.3-0.3,0.4-0.6,0.4-1.2V89.6z"/>
<path class="st3" d="M62.5,82.5c0-0.5,0-0.8,0.1-1c0.2-0.3,0.5-0.5,1-0.5c0.5,0,0.8,0.2,1,0.5c0.1,0.2,0.1,0.5,0.1,1v2.7
	c0.6-0.7,1.3-0.9,2.2-0.9c0.9,0,1.7,0.3,2.2,0.8c0.9,0.9,0.9,2.3,0.9,3.8c0,1.5-0.1,3-0.9,3.8c-0.5,0.5-1.3,0.8-2.2,0.8
	c-1,0-1.6-0.3-2.3-0.9c-0.1,0.3-0.2,0.5-0.3,0.6c-0.2,0.2-0.4,0.3-0.7,0.3c-0.4,0-0.8-0.2-1-0.5c-0.1-0.3-0.2-0.4-0.2-1V82.5z
	 M66.3,86.3c-1.4,0-1.5,1.1-1.5,2.6c0,1.5,0.2,2.6,1.6,2.6c1.3,0,1.5-1.1,1.5-2.6C67.8,87.4,67.6,86.3,66.3,86.3"/>
<path class="st3" d="M74.7,86.6c-0.3,0.2-0.6,0.2-0.8,0.2c-0.2,0-0.5-0.1-0.6-0.3c-0.2-0.2-0.3-0.4-0.3-0.7c0-0.5,0.4-0.9,0.8-1.1
	c0.7-0.4,1.4-0.5,2.3-0.5c2.5,0,3.8,1.1,3.8,3.2V92c0,0.6,0,0.8-0.2,1c-0.2,0.3-0.6,0.5-1,0.5c-0.3,0-0.6-0.1-0.7-0.3
	c-0.2-0.2-0.3-0.3-0.3-0.6c-0.7,0.6-1.2,0.9-2.3,0.9c-1,0-1.8-0.3-2.3-0.8c-0.5-0.5-0.8-1.2-0.8-2c0-1.5,1-2.6,3.1-2.6h2.1v-0.5
	c0-1-0.5-1.4-1.6-1.4C75.6,86.1,75.2,86.3,74.7,86.6 M77.7,89.6H76c-0.9,0-1.3,0.4-1.3,1c0,0.6,0.4,1,1.4,1c0.6,0,1-0.1,1.3-0.4
	c0.3-0.3,0.3-0.6,0.3-1.2V89.6z"/>
<g>
	<defs>
		<path id="SVGID_2_" d="M84.4,36.8c-1.7-4.9-4.3-1.6-4.2,1.7c-1.7-2.6-3-0.1-3,3.1c-2.9-3.3-2.1,5-2.1,7.3
			c5.6-5.9,10.5-4.9,11.6-2.5c2,4.2-5.6,12.5-8.9,15.5c-2.1,2-5.2,2.2-0.9-1.9c0.6-0.6,2.2-2.1,4.4-4.7c8.5-10.1,0.6-10.6-3.8-6.3
			c-3.7,3.6-5.7,6.7-14.2,10.6c-3.7,1.7-5.8,4.4-5.6,9.4c0.2,3.4,4.9,11.3,14.9,4.9c9.6-6.1,13.8-10,17.6-16.8
			c3.9-6.9-0.1-16.6-0.8-18.6c-1-3.1-2.2-4.3-3.2-4.3C85.2,34.1,84.5,35.3,84.4,36.8"/>
	</defs>
	<clipPath id="SVGID_00000070838321887701637680000018035655802317678238_">
		<use xlink:href="#SVGID_2_"  style="overflow:visible;"/>
	</clipPath>
	
		<linearGradient id="SVGID_00000116944295837654301200000005285356114802904764_" gradientUnits="userSpaceOnUse" x1="-73.8541" y1="480.2481" x2="-72.8478" y2="480.2481" gradientTransform="matrix(40.7752 -7.1898 7.1898 40.7752 -390.3204 -20052.7441)">
		<stop  offset="0" style="stop-color:#FFF3E1"/>
		<stop  offset="0.1341" style="stop-color:#FFF0D8"/>
		<stop  offset="0.3527" style="stop-color:#FEE7C0"/>
		<stop  offset="0.6287" style="stop-color:#FCD998"/>
		<stop  offset="0.9484" style="stop-color:#F9C562"/>
		<stop  offset="1" style="stop-color:#F9C258"/>
	</linearGradient>
	
		<polygon style="clip-path:url(#SVGID_00000070838321887701637680000018035655802317678238_);fill:url(#SVGID_00000116944295837654301200000005285356114802904764_);" points="
		58.6,86.6 102.4,78.9 93,25.6 49.2,33.4 	"/>
</g>
<g>
	<defs>
		<path id="SVGID_1_" d="M18,36.8c1.7-4.9,4.3-1.6,4.2,1.7c1.7-2.6,3-0.1,3,3.1c2.9-3.3,2.1,5,2.1,7.3C21.7,43,16.8,44,15.7,46.4
			c-2,4.2,5.6,12.5,8.9,15.5c2.1,2,5.2,2.2,0.9-1.9c-0.6-0.6-2.2-2.1-4.4-4.7c-8.5-10.1-0.6-10.6,3.8-6.3c3.7,3.6,5.7,6.7,14.2,10.6
			c3.7,1.7,5.8,4.4,5.6,9.4c-0.2,3.4-4.9,11.3-14.9,4.9c-9.6-6.1-13.8-10-17.6-16.8c-3.9-6.9,0.1-16.6,0.8-18.6
			c1-3.1,2.2-4.3,3.2-4.3C17.2,34.1,17.9,35.3,18,36.8"/>
	</defs>
	<clipPath id="SVGID_00000134931114431338078350000011171790036098455484_">
		<use xlink:href="#SVGID_1_"  style="overflow:visible;"/>
	</clipPath>
	
		<linearGradient id="SVGID_00000003826912130192333930000008353476923517356731_" gradientUnits="userSpaceOnUse" x1="-72.3765" y1="472.6341" x2="-71.3364" y2="472.6341" gradientTransform="matrix(36.5262 6.4406 6.4406 -36.5262 -390.8376 17782.7988)">
		<stop  offset="0" style="stop-color:#F09BA7"/>
		<stop  offset="9.345013e-02" style="stop-color:#F1A5B0"/>
		<stop  offset="0.4902" style="stop-color:#F7CDD2"/>
		<stop  offset="0.8062" style="stop-color:#FBE5E6"/>
		<stop  offset="1" style="stop-color:#FCEEEE"/>
	</linearGradient>
	
		<polygon style="clip-path:url(#SVGID_00000134931114431338078350000011171790036098455484_);fill:url(#SVGID_00000003826912130192333930000008353476923517356731_);" points="
		9.2,25.6 53.2,33.6 44,86.6 0,78.7 	"/>
</g>
<g id="レイヤー_5">
</g>
<linearGradient id="SVGID_00000132083047824469306130000013309516801203210385_" gradientUnits="userSpaceOnUse" x1="484.8633" y1="67.4565" x2="594.6495" y2="67.4565">
	<stop  offset="0" style="stop-color:#8AC23E"/>
	<stop  offset="1" style="stop-color:#28AC4B"/>
</linearGradient>
<path style="display:none;fill:url(#SVGID_00000132083047824469306130000013309516801203210385_);" d="M589.6,86h-99.8
	c-2.8,0-5-2.2-5-5V53.9c0-2.8,2.2-5,5-5h99.8c2.8,0,5,2.2,5,5V81C594.6,83.8,592.4,86,589.6,86z"/>
<g id="レイヤー_4" class="st10">
	<g>
		<path class="st11" d="M504.1,60c0,10.6,0.1,17.9,0.1,20.3c0,0.9-0.6,1.4-1.9,1.4c-1,0-1.4-0.3-1.4-1.1c0-1,0.1-3.2,0.1-6.9
			c-1.4,1.2-3.6,2.6-6,3.9c-0.1,0.8-0.3,1-0.6,1c-0.4,0-0.6-0.3-1.9-3.6c0.6-0.1,1.2-0.2,1.9-0.3c2-0.5,4.2-1.2,6.7-2.2l0.1-8.7
			h-5.5c-0.6,0-1.2,0.1-2.1,0.2l-0.3-1.1c1,0.2,1.7,0.2,2.4,0.2h5.5v-2.6c0-3.9,0-4.8-0.2-6.2c3.8,0.3,4.3,0.4,4.3,0.9
			c0,0.3-0.2,0.5-1,0.9V60z M511,65.9c1.5-1.2,3-2.7,4.1-4c0.7-0.9,1.3-1.8,1.7-2.6c2.4,1.5,3.4,2.3,3.4,2.7c0,0.3-0.3,0.6-1.5,0.4
			c-2.3,1.9-5,3.6-7.7,4.8v10c0,1.2,0.3,1.3,3.4,1.3c1.6,0,2.2,0,2.8-0.5c0.7-0.5,1.2-1.7,2.1-4.7c0-0.2,0.4-0.1,0.4,0.1
			c-0.1,1.3-0.2,3.1-0.2,3.8c0,0.4,0.1,0.5,0.4,0.7c0.7,0.3,0.9,0.6,0.9,1.1c0,0.9-0.6,1.5-2.2,1.8c-1,0.2-2.5,0.3-4.4,0.3
			c-5.3,0-6.3-0.5-6.3-3.5c0-0.6,0.1-1.2,0.1-3.5c0-6.6,0-13.2-0.1-19.8c3.7,0.4,4,0.5,4,1c0,0.3-0.2,0.6-0.9,0.9V65.9z"/>
		<path class="st11" d="M540.3,71.8c0,5.5,0.1,7.7,0.1,8.7c0,1-0.6,1.3-1.9,1.3c-0.9,0-1.3-0.3-1.3-1.1c0-0.8,0.1-3.3,0.1-8.2v-5.6
			h-9.6c-0.6,0-1.2,0.1-2.1,0.2l-0.3-1.1c1,0.2,1.7,0.2,2.5,0.2h9.5v-6.9c-3,0.5-6.2,0.7-9.5,0.7c-0.2,0-0.2-0.4-0.1-0.4
			c5.5-0.9,10.2-2.2,13.6-3.7c1.8-0.7,3.3-1.6,4.4-2.4c2.6,1.8,3.3,2.3,3.3,2.9c0,0.4-0.4,0.6-1.8,0.3c-2.1,0.8-4.4,1.5-6.9,2v7.5
			h7.7c1.7-1.9,2-2.2,2.3-2.2c0.3,0,0.6,0.2,2.1,1.5c0.7,0.6,0.9,0.9,0.9,1.1c0,0.2-0.1,0.3-0.4,0.3h-12.6V71.8z"/>
		<path class="st11" d="M560.7,65.5c-1.1,1.3-2.3,2.6-3.7,3.8c-0.1,0.1-0.4-0.2-0.3-0.3c2.2-2.7,4.2-6.8,5.4-10.8
			c0.5-1.6,0.8-3.2,1-4.7c2.8,0.8,4.1,1.3,4.1,1.7c0,0.4-0.3,0.6-1,0.7c-1.2,2.9-2.3,5.2-3.7,7.3c1.6,0.2,1.9,0.4,1.9,0.7
			c0,0.3-0.2,0.5-0.8,0.7v16c0,0.9-0.5,1.3-1.6,1.3c-0.7,0-1.3-0.2-1.3-1.1c0-0.8,0.2-3.3,0.2-8.2V65.5z M572.8,70.2h-4.2
			c-0.6,0-1.2,0.1-1.9,0.2l-0.3-1.1c0.9,0.2,1.6,0.2,2.3,0.2h4.2V62h-4.9c-0.6,0-1.2,0.1-2,0.2l-0.3-1.1c0.9,0.2,1.6,0.2,2.3,0.2
			h11.9c1.5-1.9,1.9-2.1,2.1-2.1c0.3,0,0.6,0.2,2.2,1.5c0.7,0.6,0.9,0.8,0.9,1s-0.1,0.3-0.4,0.3h-8.8v7.6h3.3c1.5-1.9,1.8-2.2,2-2.2
			c0.3,0,0.6,0.2,2,1.5c0.6,0.6,0.9,0.9,0.9,1.1s-0.1,0.3-0.4,0.3h-7.8v9.3h4.6c1.6-2.3,2-2.5,2.2-2.5c0.3,0,0.6,0.2,2.2,1.7
			c0.7,0.7,1,1,1,1.2s-0.1,0.3-0.4,0.3h-18.5c-0.6,0-1.3,0.1-2.2,0.2l-0.3-1.1c1,0.2,1.8,0.2,2.5,0.2h6V70.2z M575.1,59.5
			c-0.9,0-1.2-0.3-1.8-1.8c-0.6-1.4-1.2-2.3-2.3-3.2c-0.1-0.1,0-0.3,0.2-0.3c4,0.5,5.6,1.6,5.6,3.5C576.8,58.7,576,59.5,575.1,59.5z
			"/>
	</g>
</g>
<g id="レイヤー_4のコピー">
	
		<linearGradient id="SVGID_00000021118664477758446840000017033764622566066879_" gradientUnits="userSpaceOnUse" x1="490.779" y1="46.1915" x2="563.6938" y2="46.1915">
		<stop  offset="0" style="stop-color:#8AC23E"/>
		<stop  offset="1" style="stop-color:#28AC4B"/>
	</linearGradient>
	<path style="fill:url(#SVGID_00000021118664477758446840000017033764622566066879_);" d="M558.7,58.5h-62.9c-2.8,0-5-2.2-5-5V38.9
		c0-2.8,2.2-5,5-5h62.9c2.8,0,5,2.2,5,5v14.6C563.7,56.3,561.5,58.5,558.7,58.5z"/>
	<g>
		<path class="st13" d="M503.6,41.3c0,7.1,0.1,11.9,0.1,13.5c0,0.6-0.4,0.9-1.3,0.9c-0.7,0-0.9-0.2-0.9-0.7c0-0.7,0-2.2,0.1-4.6
			c-0.9,0.8-2.4,1.7-4,2.6c-0.1,0.5-0.2,0.7-0.4,0.7c-0.3,0-0.4-0.2-1.3-2.4c0.4-0.1,0.8-0.1,1.2-0.2c1.3-0.3,2.8-0.8,4.4-1.5
			l0.1-5.8H498c-0.4,0-0.8,0-1.4,0.1l-0.2-0.8c0.6,0.1,1.1,0.1,1.6,0.1h3.6v-1.7c0-2.6,0-3.2-0.2-4.1c2.5,0.2,2.8,0.3,2.8,0.6
			c0,0.2-0.1,0.3-0.7,0.6V41.3z M508.2,45.2c1-0.8,2-1.8,2.7-2.7c0.5-0.6,0.9-1.2,1.1-1.7c1.6,1,2.3,1.5,2.3,1.8
			c0,0.2-0.2,0.4-1,0.3c-1.5,1.3-3.3,2.4-5.1,3.2v6.6c0,0.8,0.2,0.9,2.3,0.9c1.1,0,1.4,0,1.9-0.3c0.5-0.3,0.8-1.1,1.4-3.1
			c0-0.1,0.3-0.1,0.3,0c-0.1,0.8-0.2,2.1-0.2,2.5c0,0.2,0.1,0.3,0.3,0.5c0.5,0.2,0.6,0.4,0.6,0.8c0,0.6-0.4,1-1.4,1.2
			c-0.7,0.2-1.7,0.2-2.9,0.2c-3.5,0-4.2-0.3-4.2-2.3c0-0.4,0.1-0.8,0.1-2.3c0-4.4,0-8.8-0.1-13.1c2.4,0.2,2.6,0.3,2.6,0.6
			c0,0.2-0.2,0.4-0.6,0.6V45.2z"/>
		<path class="st13" d="M527.6,49.1c0,3.6,0.1,5.1,0.1,5.8c0,0.6-0.4,0.9-1.3,0.9c-0.6,0-0.9-0.2-0.9-0.8c0-0.5,0.1-2.2,0.1-5.4
			v-3.8h-6.4c-0.4,0-0.8,0-1.4,0.1l-0.2-0.8c0.7,0.1,1.1,0.2,1.6,0.2h6.3v-4.6c-2,0.3-4.1,0.5-6.3,0.5c-0.1,0-0.1-0.2,0-0.3
			c3.7-0.6,6.8-1.5,9.1-2.4c1.2-0.5,2.2-1,2.9-1.6c1.7,1.2,2.2,1.6,2.2,1.9c0,0.2-0.2,0.4-1.2,0.2c-1.4,0.6-3,1-4.6,1.4v5h5.1
			c1.1-1.3,1.4-1.5,1.5-1.5c0.2,0,0.4,0.2,1.4,1c0.5,0.4,0.6,0.6,0.6,0.7c0,0.1-0.1,0.2-0.3,0.2h-8.4V49.1z"/>
		<path class="st13" d="M541.2,44.9c-0.7,0.9-1.5,1.7-2.5,2.5c-0.1,0.1-0.3-0.1-0.2-0.2c1.5-1.8,2.8-4.5,3.6-7.2
			c0.3-1.1,0.6-2.1,0.7-3.1c1.8,0.5,2.7,0.9,2.7,1.1c0,0.2-0.2,0.4-0.7,0.5c-0.8,1.9-1.6,3.5-2.5,4.8c1.1,0.2,1.3,0.2,1.3,0.5
			c0,0.2-0.1,0.3-0.6,0.5v10.6c0,0.6-0.3,0.9-1.1,0.9c-0.5,0-0.9-0.2-0.9-0.7c0-0.5,0.1-2.2,0.1-5.4V44.9z M549.2,48h-2.8
			c-0.4,0-0.8,0-1.3,0.1l-0.2-0.8c0.6,0.1,1.1,0.2,1.5,0.2h2.8v-5h-3.3c-0.4,0-0.8,0-1.3,0.1l-0.2-0.8c0.6,0.1,1.1,0.2,1.5,0.2h7.9
			c1-1.3,1.2-1.4,1.4-1.4c0.2,0,0.4,0.2,1.4,1c0.5,0.4,0.6,0.6,0.6,0.7s-0.1,0.2-0.3,0.2h-5.8v5h2.2c1-1.3,1.2-1.4,1.4-1.4
			c0.2,0,0.4,0.2,1.3,1c0.4,0.4,0.6,0.6,0.6,0.7s-0.1,0.2-0.3,0.2h-5.2v6.2h3.1c1.1-1.5,1.3-1.7,1.5-1.7c0.2,0,0.4,0.2,1.5,1.1
			c0.5,0.5,0.6,0.6,0.6,0.8s-0.1,0.2-0.3,0.2h-12.3c-0.4,0-0.9,0-1.5,0.1l-0.2-0.8c0.7,0.1,1.2,0.2,1.7,0.2h4V48z M550.7,40.9
			c-0.6,0-0.8-0.2-1.2-1.2c-0.4-0.9-0.8-1.5-1.5-2.1c-0.1-0.1,0-0.2,0.1-0.2c2.7,0.3,3.7,1.1,3.7,2.4
			C551.8,40.4,551.3,40.9,550.7,40.9z"/>
	</g>
	
		<linearGradient id="SVGID_00000047025487054637612220000013618043536117956267_" gradientUnits="userSpaceOnUse" x1="490.8542" y1="18.4292" x2="563.769" y2="18.4292">
		<stop  offset="0" style="stop-color:#8AC23E"/>
		<stop  offset="1" style="stop-color:#28AC4B"/>
	</linearGradient>
	<path style="fill:url(#SVGID_00000047025487054637612220000013618043536117956267_);" d="M558.8,30.7h-62.9c-2.8,0-5-2.2-5-5V11.1
		c0-2.8,2.2-5,5-5h62.9c2.8,0,5,2.2,5,5v14.6C563.8,28.5,561.5,30.7,558.8,30.7z"/>
	<g>
		<path class="st13" d="M501.7,22.3c0,3.6,0.1,4.6,0.1,5c0,0.6-0.3,0.8-1.1,0.8c-0.6,0-0.8-0.2-0.8-0.7c0-0.5,0.1-2.4,0.2-4.4
			c-1.4,1.8-2.3,2.5-4.1,3.5c-0.1,0-0.2-0.1-0.1-0.2c1.9-2,3-3.6,3.9-6h-2c-0.4,0-0.8,0-1.3,0.1l-0.2-0.8c0.6,0.1,1,0.2,1.4,0.2h2.3
			v-0.6c0-0.6,0-0.9-0.1-1.6c1.7,0.1,2.4,0.3,2.4,0.6c0,0.2-0.1,0.3-0.6,0.5v1.1h1.4c0.7-0.9,1-1,1.1-1c0.2,0,0.4,0.2,1.1,0.7
			c0.3,0.2,0.5,0.4,0.5,0.6s-0.1,0.2-0.3,0.2h-3.9v1c2,0.4,3,1.1,3,2.1c0,0.6-0.4,1-0.9,1s-0.7-0.2-1-1c-0.3-0.8-0.7-1.4-1.2-1.8
			V22.3z M501.3,16.6c0.4-1,0.6-1.7,0.8-2.5c0.1-0.4,0.2-0.9,0.2-1.4c1.6,0.5,2.2,0.8,2.2,1.1c0,0.2-0.2,0.3-0.7,0.3
			c-0.8,1.1-1.2,1.6-2,2.5h1.3c0.8-1,1.1-1.2,1.2-1.2c0.2,0,0.4,0.2,1.2,0.8c0.3,0.3,0.5,0.5,0.5,0.6c0,0.1-0.1,0.2-0.3,0.2h-8.2
			c-0.4,0-0.7,0-1.2,0.1l-0.2-0.8c0.6,0.1,1,0.2,1.4,0.2H501.3z M500,10.7c0-0.5,0-1-0.1-1.5c2.2,0.2,2.5,0.4,2.5,0.6
			c0,0.2-0.2,0.3-0.6,0.5v1.8h1.4c0.6-0.9,0.9-1,1-1c0.2,0,0.4,0.2,1.1,0.7c0.3,0.2,0.5,0.4,0.5,0.6c0,0.1-0.1,0.2-0.3,0.2h-7.3
			c-0.4,0-0.7,0-1.2,0.1l-0.2-0.8c0.6,0.1,1,0.2,1.4,0.2h1.9V10.7z M499.3,16.2c-0.6,0-0.7-0.2-0.8-1.4c-0.1-0.7-0.2-1.2-0.5-1.7
			c-0.1-0.1,0-0.2,0.1-0.2c1.4,0.5,2.2,1.3,2.2,2.2C500.3,15.8,499.9,16.2,499.3,16.2z M508.2,16.5c-0.1,1.8-0.2,3.1-0.4,4.3
			c-0.7,3.4-2,5.3-4.2,6.9c-0.1,0.1-0.3-0.1-0.2-0.2c1.7-2.1,2.5-4.1,2.9-7.8c0.2-1.6,0.2-3.5,0.2-5.8c0-1.1,0-1.7-0.1-2.7
			c1,0.4,1.2,0.5,2.2,0.9c0.9-0.4,1.9-1.1,2.7-1.8c0.4-0.3,0.8-0.7,1.1-1.1c1.4,0.8,2.1,1.3,2.1,1.6c0,0.2-0.1,0.3-0.9,0.2
			c-1.6,0.7-3.8,1.4-5.1,1.6v0.5c0,1.1,0,2,0,2.8h4.1c0.8-1.1,1.1-1.2,1.2-1.2c0.2,0,0.4,0.2,1.2,0.9c0.4,0.3,0.5,0.5,0.5,0.6
			s-0.1,0.2-0.3,0.2h-2.8v3.8c0,2.6,0,5.9,0,7c0,0.5-0.4,0.7-1.2,0.7c-0.5,0-0.8-0.2-0.8-0.6c0-0.5,0.1-2.1,0.1-5.2v-5.7H508.2z"/>
		<path class="st13" d="M523.4,16.2c-1.4,3.9-3,6.4-5.6,8.5c-0.1,0.1-0.3-0.1-0.2-0.2c1.4-1.9,2.5-4.5,3.2-7c0.3-1,0.5-2,0.6-3
			c2.5,0.6,3,0.8,3,1.1C524.3,15.9,524.1,16,523.4,16.2z M526.1,12.5c0-1.5,0-1.6-0.1-2.9c2.6,0.3,3,0.3,3,0.7
			c0,0.2-0.2,0.4-0.8,0.6v7.4c0,4,0.1,6.3,0.1,7.5c0,0.9-0.2,1.3-0.7,1.7c-0.4,0.3-1.2,0.5-1.8,0.5c-0.4,0-0.6-0.1-0.6-0.5
			c-0.1-0.8-0.6-1.3-2.4-1.8c-0.1,0-0.1-0.3,0-0.3c1,0.1,2.2,0.2,3,0.2c0.2,0,0.3-0.1,0.3-0.3V12.5z M534.6,24.1
			c-0.8,0-1-0.5-1.3-2.4c-0.4-2.6-1.6-5-3-6.8c-0.1-0.1,0.1-0.2,0.2-0.2c3.1,2.4,5.4,5.6,5.4,7.7C535.9,23.4,535.4,24.1,534.6,24.1z
			"/>
		<path class="st13" d="M547.2,17.8c-0.5,1.2-1.3,2.3-2.1,3.3c0.1,0.1,0.2,0.1,0.5,0.2h7.6c0.8-0.9,1-1,1.1-1c0.2,0,0.4,0.1,1.2,0.8
			c0.4,0.3,0.5,0.5,0.5,0.7c0,0.2-0.1,0.4-0.6,0.7v0.8c0,2.1,0.1,3.5,0.1,4c0,0.7-0.4,0.9-1.2,0.9c-0.6,0-0.9-0.2-0.9-0.7v-0.6h-7.9
			v0.6c0,0.6-0.5,0.8-1.3,0.8c-0.5,0-0.8-0.2-0.8-0.6c0-0.6,0-1,0-3.4v-1.2c-1.3,1.1-2.8,2.1-4.4,2.6c-0.1,0-0.2-0.1-0.1-0.2
			c2.6-1.8,4.9-4.5,5.9-7.4h-3.6c-0.5,0-1,0-1.7,0.1l-0.2-0.8c0.7,0.1,1.3,0.2,1.8,0.2h13.2c1.1-1.2,1.3-1.4,1.5-1.4
			c0.2,0,0.4,0.2,1.4,0.9c0.5,0.4,0.6,0.5,0.6,0.7c0,0.1-0.1,0.2-0.3,0.2H547.2z M543.1,14.5v0.3c0,0.6-0.3,0.8-1.1,0.8
			c-0.6,0-0.8-0.2-0.8-0.7c0-0.2,0.1-0.9,0.1-2.3c0-1.2,0-1.7-0.1-2.6c2.3,0.3,2.6,0.3,2.6,0.6c0,0.2-0.2,0.4-0.6,0.5V14h4.2V11
			c0-0.6,0-1.3-0.1-1.9c2.4,0.2,2.6,0.5,2.6,0.7c0,0.2-0.2,0.3-0.6,0.5V14h4.6v-2.2c0-0.9,0-1-0.1-1.8c2.3,0.2,2.6,0.3,2.6,0.6
			c0,0.2-0.2,0.3-0.6,0.5v0.6c0,1.6,0,2.7,0,3c0,0.7-0.3,0.9-1.1,0.9c-0.6,0-0.8-0.2-0.8-0.7v-0.4H543.1z M553.4,21.8h-7.9v0.9
			c0,1.8,0,2.8,0,3.5h7.9V21.8z"/>
	</g>
	
		<linearGradient id="SVGID_00000033357134533689298790000003231109831941469074_" gradientUnits="userSpaceOnUse" x1="490.6123" y1="74.8959" x2="563.5271" y2="74.8959">
		<stop  offset="0" style="stop-color:#8AC23E"/>
		<stop  offset="1" style="stop-color:#28AC4B"/>
	</linearGradient>
	<path style="fill:url(#SVGID_00000033357134533689298790000003231109831941469074_);" d="M558.5,87.2h-62.9c-2.8,0-5-2.2-5-5V67.6
		c0-2.8,2.2-5,5-5h62.9c2.8,0,5,2.2,5,5v14.6C563.5,85,561.3,87.2,558.5,87.2z"/>
	<g>
		<path class="st16" d="M513,75.9c0.9-1.1,1-1.1,1.1-1.1c0.2,0,0.3,0,1.3,0.9c0.6,0.5,0.7,0.6,0.7,0.8s-0.1,0.3-0.6,0.7v1.4
			c0,1.7,0.1,2.3,0.1,2.7c0,0.9-0.5,1.6-1.3,2c-0.5,0.2-0.9,0.3-1.3,0.3c-0.2,0-0.4-0.1-0.4-0.5c-0.1-0.7-0.3-1.1-0.9-1.4
			c0,1,0.1,1.8,0.1,2c0,0.6-0.5,1-1.7,1c-0.8,0-0.9-0.3-0.9-0.8c0-0.6,0.1-4.1,0.1-7.2v-0.4h-1c-0.1,0.1-0.2,0.1-0.3,0.3v1.7
			c0,3.2,0,3.8,0,4.1c0,0.6-0.4,1-1.3,1c-0.8,0-0.9-0.2-0.9-0.7c0-0.1,0-1.1,0-2.1c-2.2,1.2-4.2,2-6.6,3.1c-0.2,0.6-0.3,0.8-0.5,0.8
			c-0.4,0-0.4-0.2-1.4-3c0.7,0,1.1-0.1,1.3-0.1c0.6-0.1,1.3-0.1,2-0.2v-5.4H500c-0.6,0-1,0-2,0.1l-0.2-0.7c1,0.1,1.6,0.1,2.2,0.1
			h0.7v-1.9c0-0.1,0-0.4,0-0.7c-0.3,0-0.6,0.1-0.9,0.1l-0.1-0.4c-0.8,0.9-1.6,1.7-2.6,2.5c-0.1,0.1-0.2,0-0.2-0.1
			c1.1-1.6,2.5-4.7,3.3-7.9c0.1-0.2,0.1-0.6,0.2-1.2c2.6,0.7,3,1,3,1.3c0,0.2-0.2,0.4-0.7,0.5l-0.1,0.1c2.2,0.2,3.3,1.1,3.3,2.2
			c0,0.7-0.6,1.3-1.2,1.3c-0.6,0-0.9-0.3-1-1c-0.2-1-0.6-1.7-1.2-2.1c-0.8,1.6-1.7,2.9-2.7,4.1c0.8,0.1,1.3,0.1,1.9,0.1h0.9
			c0.8-1.2,0.9-1.2,1-1.2c0.2,0,0.2,0,0.8,0.6c0.6,0.6,0.7,0.7,0.7,0.8c0,0.2-0.1,0.2-0.3,0.2H503c0,0.1-0.1,0.2-0.3,0.3v2.2h0.4
			c0.9-1.3,0.9-1.3,1-1.3s0.2,0,0.8,0.6c0.7,0.7,0.7,0.8,0.7,0.9c0,0.2-0.1,0.2-0.3,0.2h-2.7v3.9c0.2-0.6,0.5-1.2,0.9-2.4
			c0.1-0.2,0.1-0.5,0.2-0.9c1.9,1.2,2,1.3,2,1.5c0,0.2-0.1,0.3-0.7,0.4c-1,0.9-1.7,1.5-2.4,2.1v0.5c1.1-0.2,2.1-0.3,3.2-0.6
			c0-0.8,0-1.5,0-1.9c0-1.3,0-1.8-0.1-3.2c1.7,0.4,2.3,0.7,2.6,0.8h1c0-1.4,0-2-0.1-2.5h-1v0.1c0,0.6-0.4,0.9-1.5,0.9
			c-0.6,0-0.7-0.1-0.7-0.7c0-0.3,0.1-1.9,0.1-3.5c0-1.5,0-1.9,0-2.8c1.8,0.4,2.4,0.6,2.6,0.8h0.2c0.1-0.8,0.2-1.3,0.2-2
			c0-0.3,0-0.5,0-0.9c2.9,0.4,3.2,0.6,3.2,0.9c0,0.3-0.1,0.4-0.9,0.6c-0.5,0.5-1,1-1.5,1.3h2.5c0.9-1,1-1.1,1.1-1.1
			c0.2,0,0.3,0,1,0.7c0.8,0.6,0.9,0.8,0.9,1c0,0.2,0,0.2-0.5,0.6v1.1c0,1,0.1,2.7,0.1,2.9c0,0.5-0.5,0.8-1.4,0.8c-0.8,0-1-0.1-1-0.7
			v-0.1h-0.7c0,0.2-0.1,0.3-0.4,0.4v2H513z M498.4,78.9c0.1-0.9-0.1-1.7-0.5-2.1c-0.1-0.1,0-0.2,0.1-0.1c1.6,0.4,2.4,1.4,2.4,2.5
			c0,0.9-0.6,1.4-1.1,1.4c-0.5,0-0.9-0.4-0.9-1C498.4,79.3,498.4,79.1,498.4,78.9z M508.7,68.7c-0.1,0-0.2,0.1-0.3,0.1v1.8h4.4v-1.9
			H508.7z M508.4,73.1h4.4v-2h-4.4V73.1z M511.7,76.7c0,1.7,0,3.4,0.1,4.8c0.3,0,0.6,0,0.7,0c0.6-0.1,0.7-0.4,0.7-0.9v-4.2h-1.6
			V76.7z"/>
		<path class="st16" d="M525.3,79.3c0,0.2-0.2,0.3-0.8,0.4c-1.6,2.1-4.3,3.9-6.7,4.6c-0.1,0-0.2-0.1-0.1-0.2c1.5-0.9,3.2-3.1,4-5
			c0.2-0.5,0.3-0.8,0.5-1.3C525.1,78.9,525.3,79,525.3,79.3z M528.5,79.4c0,2.2,0.1,3.9,0.1,4.4c0,0.6-0.3,1-1.7,1
			c-0.9,0-1-0.2-1-0.8c0-0.6,0.1-2.2,0.1-4.7v-2.4c-1.9,0.4-3.8,0.7-5.2,1c-0.2,0.3-0.3,0.5-0.6,0.5c-0.3,0-0.4-0.2-1.4-3.5
			c0.5,0,1,0.1,1.5,0.1c1,0,3.1,0.1,5.4,0.1c1.2-1.7,1.8-2.6,2.9-4.7c0.7-1.2,0.9-1.6,1-2.1c3.2,1.6,3.3,1.7,3.3,2.1
			c0,0.3-0.2,0.4-1,0.5c-1.7,1.4-2.9,2.6-4.9,4.2c1.7,0,3.4,0,4.9-0.1c-0.4-0.9-1-1.5-1.6-1.9c-0.1-0.1,0-0.2,0.1-0.2
			c3.3,0.2,4.8,1.9,4.8,3.5c0,1-0.6,1.5-1.4,1.5c-0.7,0-1.1-0.4-1.3-1.3c-0.1-0.3-0.1-0.6-0.2-0.9c-1,0.2-2.1,0.4-3.4,0.7
			c0.1,0,0.1,0.1,0.1,0.2c0,0.2-0.2,0.4-0.5,0.5V79.4z M521.3,69.6c1.2,0,2.1,0.2,2.9,0.5c0.3-1.2,0.6-2.4,0.8-3.3
			c0.1-0.7,0.1-0.9,0.2-1.3c3.6,1,3.8,1.3,3.8,1.6c0,0.3-0.2,0.4-0.9,0.6c-0.9,0.9-2,2-2.9,3c0.7,0.5,1,1.2,1,1.9
			c0,1-0.7,1.6-1.5,1.6c-0.7,0-1.1-0.4-1.3-1.3c-0.3-1.4-1-2.5-2-3C521.2,69.7,521.2,69.6,521.3,69.6z M535.4,81.9
			c0,1-0.7,1.6-1.4,1.6c-0.7,0-1.1-0.3-1.4-1.2c-0.5-1.8-1.7-3.3-3.1-4c-0.1-0.1,0-0.2,0.1-0.2C533.6,78.3,535.4,80.3,535.4,81.9z"
			/>
		<path class="st16" d="M553.8,68.5c1.3-1.7,1.4-1.8,1.6-1.8c0.2,0,0.3,0,1.2,0.9c0.8,0.8,0.9,0.9,0.9,1.1c0,0.1-0.1,0.2-0.4,0.2
			H555c0,0.2-0.1,0.3-0.5,0.6v5.4c0,3.2,0.1,6,0.1,7.1c0,1.4-0.6,2.1-1.4,2.4c-0.4,0.2-0.8,0.3-1.4,0.3c-0.4,0-0.4-0.2-0.6-0.6
			c-0.2-0.6-0.7-1.1-2.3-1.6c-0.1,0-0.1-0.2,0-0.2c0.6,0,1.5,0,2.1-0.1c0.5-0.1,0.8-0.3,0.8-0.9v-10c0-1.1,0-1.7,0-2.4h-3.6v3.7
			c0,3.1,0.1,6.8,0.1,7.3c0,0.6-0.4,0.9-1.8,0.9c-0.6,0-0.7-0.1-0.7-0.7v-0.9H541v1.3c0,0.6-0.5,0.9-1.6,0.9c-0.6,0-0.8-0.2-0.8-0.7
			c0-0.6,0.1-3.9,0.1-8c0-3.4,0-5-0.1-6.5c1.7,0.5,2.5,0.8,2.7,1.1h4.1c0.9-1.1,1-1.2,1.2-1.2c0.2,0,0.3,0,1.3,0.8
			c0.8,0.6,0.8,0.7,0.8,0.9c0,0.2,0,0.3-0.6,0.7v0.3H553.8z M541.5,67.5c-0.1,0.1-0.2,0.2-0.5,0.3v4.9h1.3v-4.1c0-0.3,0-0.7,0-1.1
			H541.5z M541,78.7h1.3v-5.6H541V78.7z M545.8,67.5h-1.1c0,0.1-0.1,0.2-0.3,0.4v4.8h1.4V67.5z M545.8,78.7v-5.6h-1.4v5.6H545.8z"/>
	</g>
</g>
<linearGradient id="SVGID_00000020371970447409165070000014449832145040225453_" gradientUnits="userSpaceOnUse" x1="484.9764" y1="25.6553" x2="594.7627" y2="25.6553">
	<stop  offset="0" style="stop-color:#8AC23E"/>
	<stop  offset="1" style="stop-color:#28AC4B"/>
</linearGradient>
<path style="display:none;fill:url(#SVGID_00000020371970447409165070000014449832145040225453_);" d="M589.8,44.2H490
	c-2.8,0-5-2.2-5-5V12.1c0-2.8,2.2-5,5-5h99.8c2.8,0,5,2.2,5,5v27.1C594.8,42,592.5,44.2,589.8,44.2z"/>
<g class="st10">
	<path class="st11" d="M501.2,31.5c0,5.4,0.1,6.9,0.1,7.5c0,0.9-0.5,1.2-1.7,1.2c-0.9,0-1.2-0.3-1.2-1.1c0-0.7,0.2-3.6,0.2-6.7
		c-2.2,2.7-3.5,3.8-6.1,5.2c-0.1,0.1-0.3-0.2-0.2-0.3c2.9-3,4.5-5.4,5.9-9h-3c-0.6,0-1.1,0.1-1.9,0.2l-0.3-1.1
		c0.8,0.2,1.5,0.2,2.1,0.2h3.5v-0.9c0-0.9,0-1.4-0.1-2.4c2.6,0.2,3.6,0.4,3.6,0.9c0,0.3-0.2,0.5-0.9,0.7v1.7h2.2
		c1.1-1.3,1.5-1.6,1.7-1.6c0.3,0,0.6,0.2,1.7,1.1c0.5,0.4,0.7,0.6,0.7,0.9s-0.1,0.3-0.4,0.3h-5.8v1.5c3,0.6,4.5,1.7,4.5,3.2
		c0,0.9-0.6,1.5-1.3,1.5s-1-0.3-1.5-1.5c-0.4-1.2-1-2.1-1.8-2.7V31.5z M500.7,23c0.6-1.5,1-2.6,1.2-3.7c0.2-0.6,0.3-1.3,0.4-2.1
		c2.4,0.7,3.4,1.2,3.4,1.6c0,0.3-0.2,0.5-1.1,0.5c-1.2,1.7-1.9,2.5-3.1,3.7h2c1.3-1.5,1.6-1.8,1.9-1.8c0.3,0,0.6,0.2,1.8,1.2
		c0.5,0.5,0.8,0.7,0.8,1c0,0.2-0.1,0.3-0.4,0.3h-12.3c-0.6,0-1.1,0.1-1.8,0.2l-0.3-1.1c0.9,0.2,1.5,0.2,2.1,0.2H500.7z M498.7,14.1
		c0-0.8,0-1.5-0.1-2.3c3.4,0.3,3.8,0.6,3.8,0.8c0,0.3-0.3,0.5-1,0.8v2.7h2c1-1.3,1.3-1.6,1.5-1.6c0.3,0,0.6,0.2,1.6,1.1
		c0.4,0.4,0.7,0.6,0.7,0.9s-0.1,0.3-0.4,0.3h-11c-0.6,0-1.1,0.1-1.9,0.2l-0.3-1.1c0.8,0.2,1.5,0.2,2.1,0.2h2.8V14.1z M497.8,22.3
		c-0.9,0-1-0.2-1.3-2.1c-0.2-1.1-0.3-1.8-0.8-2.5c-0.1-0.1,0.1-0.3,0.2-0.2c2.1,0.8,3.2,1.9,3.2,3.2
		C499.1,21.7,498.6,22.3,497.8,22.3z M511.1,22.8c-0.1,2.7-0.3,4.6-0.6,6.5c-1,5.2-3,8-6.4,10.4c-0.1,0.1-0.5-0.2-0.4-0.3
		c2.6-3.1,3.8-6.2,4.4-11.8c0.2-2.4,0.2-5.2,0.2-8.7c0-1.7-0.1-2.5-0.2-4c1.5,0.6,1.8,0.7,3.2,1.4c1.4-0.6,2.8-1.6,4-2.7
		c0.6-0.5,1.2-1.1,1.7-1.7c2.1,1.2,3.1,2,3.1,2.4c0,0.3-0.2,0.5-1.4,0.4c-2.4,1.1-5.6,2.1-7.7,2.3v0.7c0,1.6,0,3-0.1,4.2h6.2
		c1.3-1.6,1.6-1.9,1.9-1.9c0.3,0,0.6,0.2,1.9,1.3c0.6,0.5,0.8,0.7,0.8,1s-0.1,0.3-0.4,0.3h-4.2v5.7c0,4,0.1,8.9,0.1,10.6
		c0,0.8-0.6,1.1-1.8,1.1c-0.8,0-1.2-0.2-1.2-0.9c0-0.8,0.1-3.1,0.1-7.9v-8.6H511.1z"/>
	<path class="st11" d="M533.9,22.3c-2.1,5.9-4.5,9.6-8.4,12.8c-0.1,0.1-0.4-0.2-0.3-0.3c2.1-2.9,3.8-6.8,4.8-10.5
		c0.4-1.5,0.7-3.1,0.9-4.5c3.7,0.9,4.4,1.2,4.4,1.7C535.4,21.8,535,22.1,533.9,22.3z M538,16.7c0-2.3,0-2.5-0.2-4.3
		c3.9,0.4,4.5,0.5,4.5,1c0,0.4-0.3,0.6-1.2,0.9v11.1c0,6.1,0.2,9.5,0.2,11.3c0,1.3-0.2,2-1,2.5c-0.6,0.4-1.8,0.7-2.7,0.7
		c-0.6,0-0.9-0.2-1-0.8c-0.1-1.1-0.9-1.9-3.5-2.7c-0.2,0-0.2-0.4,0-0.4c1.5,0.1,3.3,0.2,4.5,0.2c0.4,0,0.5-0.1,0.5-0.4V16.7z
		 M550.9,34.2c-1.1,0-1.5-0.7-1.9-3.5c-0.6-3.9-2.3-7.6-4.5-10.3c-0.1-0.1,0.2-0.3,0.3-0.2c4.7,3.5,8.1,8.5,8.1,11.7
		C552.9,33.2,552.1,34.2,550.9,34.2z"/>
	<path class="st11" d="M569.9,24.7c-0.8,1.8-1.9,3.5-3.1,5c0.2,0.1,0.3,0.2,0.7,0.4h11.4c1.2-1.4,1.5-1.5,1.7-1.5
		c0.3,0,0.6,0.2,1.8,1.1c0.6,0.5,0.7,0.7,0.7,1c0,0.3-0.2,0.6-1,1v1.2c0,3.1,0.1,5.2,0.1,6c0,1-0.6,1.4-1.9,1.4
		c-0.9,0-1.3-0.3-1.3-1.1v-0.9h-11.9V39c0,1-0.7,1.2-1.9,1.2c-0.8,0-1.2-0.3-1.2-1c0-0.9,0.1-1.5,0.1-5.2v-1.8
		c-2,1.7-4.3,3.1-6.6,3.9c-0.2,0.1-0.3-0.2-0.2-0.3c4-2.7,7.3-6.8,8.9-11.1h-5.4c-0.7,0-1.5,0.1-2.5,0.2l-0.3-1.1
		c1.1,0.2,1.9,0.2,2.7,0.2h19.9c1.6-1.8,2-2,2.2-2c0.3,0,0.6,0.2,2.1,1.4c0.7,0.6,0.9,0.8,0.9,1c0,0.2-0.1,0.3-0.4,0.3H569.9z
		 M563.6,19.8v0.5c0,0.9-0.4,1.3-1.7,1.3c-0.9,0-1.2-0.4-1.2-1c0-0.3,0.1-1.4,0.1-3.5c0-1.8,0-2.6-0.2-4c3.5,0.4,3.9,0.5,3.9,1
		c0,0.3-0.2,0.6-0.9,0.8v4.3h6.4v-4.7c0-1,0-1.9-0.1-2.8c3.7,0.3,4,0.7,4,1c0,0.3-0.3,0.5-0.9,0.8v5.7h6.9v-3.4c0-1.3,0-1.6-0.2-2.7
		c3.5,0.4,3.9,0.5,3.9,0.9c0,0.3-0.2,0.5-0.8,0.8v0.9c0,2.3,0.1,4,0.1,4.6c0,1-0.5,1.3-1.7,1.3c-0.9,0-1.2-0.3-1.2-1v-0.6H563.6z
		 M579.1,30.8h-11.9v1.4c0,2.7,0,4.2,0,5.3h11.9V30.8z"/>
</g>
<linearGradient id="SVGID_00000179609780216792166070000005034615149856465831_" gradientUnits="userSpaceOnUse" x1="484.6123" y1="35.3922" x2="594.3985" y2="35.3922">
	<stop  offset="0" style="stop-color:#8AC23E"/>
	<stop  offset="1" style="stop-color:#28AC4B"/>
</linearGradient>
<path style="display:none;fill:url(#SVGID_00000179609780216792166070000005034615149856465831_);" d="M589.4,53.9h-99.8
	c-2.8,0-5-2.2-5-5V21.9c0-2.8,2.2-5,5-5h99.8c2.8,0,5,2.2,5,5v27.1C594.4,51.7,592.2,53.9,589.4,53.9z"/>
<g class="st10">
	<path class="st19" d="M518.3,37c1.3-1.6,1.4-1.7,1.7-1.7c0.3,0,0.5,0.1,2,1.3c1,0.8,1,1,1,1.2s-0.1,0.4-0.9,1.1v2.1
		c0,2.5,0.2,3.4,0.2,4.1c0,1.3-0.7,2.4-1.9,3c-0.7,0.4-1.3,0.5-2,0.5c-0.4,0-0.6-0.2-0.7-0.8c-0.2-1-0.5-1.7-1.3-2.1
		c0.1,1.5,0.1,2.6,0.1,3c0,0.9-0.7,1.5-2.5,1.5c-1.1,0-1.3-0.4-1.3-1.2c0-0.8,0.2-6.2,0.2-10.9v-0.6h-1.5c-0.1,0.1-0.3,0.2-0.5,0.4
		v2.6c0,4.8,0,5.7,0,6.1c0,0.9-0.7,1.4-2,1.4c-1.2,0-1.3-0.3-1.3-1.1c0-0.2,0-1.6,0.1-3.1c-3.4,1.8-6.3,3.1-9.9,4.6
		c-0.2,0.9-0.4,1.2-0.8,1.2c-0.6,0-0.7-0.3-2.1-4.5c1,0,1.6-0.1,1.9-0.2c1-0.1,1.9-0.2,3-0.3v-8.2h-1c-0.8,0-1.6,0-3,0.2l-0.3-1
		c1.6,0.2,2.4,0.2,3.3,0.2h1v-2.8c0-0.2,0-0.6,0-1c-0.4,0-0.9,0.1-1.4,0.2l-0.2-0.6c-1.2,1.4-2.5,2.6-3.8,3.7
		c-0.2,0.1-0.4-0.1-0.3-0.2c1.7-2.4,3.8-7,4.9-11.9c0.1-0.4,0.2-1,0.3-1.8c3.9,1.1,4.6,1.5,4.6,2c0,0.3-0.3,0.6-1,0.8l-0.1,0.2
		c3.3,0.4,4.9,1.6,4.9,3.3c0,1.1-0.9,1.9-1.8,1.9c-0.8,0-1.4-0.5-1.6-1.5c-0.3-1.4-0.9-2.5-1.8-3.2c-1.2,2.4-2.5,4.4-4,6.2
		c1.3,0.1,2,0.2,2.8,0.2h1.4c1.3-1.8,1.3-1.8,1.5-1.8c0.2,0,0.3,0,1.2,0.9c0.9,0.9,1,1,1,1.2c0,0.2-0.2,0.3-0.5,0.3h-2.6
		c0,0.2-0.1,0.3-0.5,0.5v3.4h0.6c1.3-2,1.3-2,1.6-2s0.3,0,1.2,0.9c1,1,1.1,1.2,1.1,1.4c0,0.2-0.2,0.3-0.5,0.3h-4v5.9
		c0.4-0.8,0.8-1.9,1.4-3.6c0.1-0.3,0.2-0.7,0.4-1.3c2.9,1.8,3,1.9,3,2.2c0,0.3-0.1,0.4-1.1,0.6c-1.6,1.4-2.5,2.2-3.7,3.2v0.7
		c1.6-0.2,3.2-0.5,4.9-0.8c0-1.2,0.1-2.3,0.1-2.9c0-1.9,0-2.7-0.2-4.9c2.6,0.7,3.5,1,3.8,1.3h1.5c0-2.2,0-3-0.1-3.7h-1.4v0.2
		c0,1-0.6,1.3-2.2,1.3c-0.8,0-1.1-0.2-1.1-1c0-0.5,0.1-2.9,0.1-5.2c0-2.3,0-2.9-0.1-4.2c2.8,0.6,3.6,1,3.9,1.2h0.3
		c0.1-1.1,0.2-2,0.3-3c0-0.4,0.1-0.8,0.1-1.4c4.4,0.6,4.8,0.9,4.8,1.3c0,0.4-0.1,0.6-1.4,1c-0.8,0.7-1.5,1.4-2.2,2h3.7
		c1.3-1.5,1.4-1.6,1.7-1.6c0.3,0,0.4,0,1.6,1c1.1,1,1.3,1.2,1.3,1.4c0,0.3-0.1,0.4-0.7,1v1.6c0,1.5,0.2,4,0.2,4.4
		c0,0.8-0.8,1.1-2.2,1.1c-1.2,0-1.5-0.2-1.5-1v-0.2h-1.1c0,0.3-0.1,0.5-0.6,0.7v3H518.3z M496.3,41.4c0.1-1.4-0.2-2.6-0.7-3.1
		c-0.1-0.1-0.1-0.3,0.1-0.2c2.3,0.6,3.6,2.2,3.6,3.7c0,1.4-0.9,2.1-1.7,2.1c-0.8,0-1.3-0.6-1.3-1.5C496.3,42,496.3,41.8,496.3,41.4z
		 M511.8,26.1c-0.1,0.1-0.2,0.1-0.4,0.2V29h6.6v-2.9H511.8z M511.4,32.6h6.6v-3h-6.6V32.6z M516.3,38.2c0,2.5,0.1,5.1,0.1,7.2
		c0.5,0,0.8,0,1.1,0c0.8-0.1,1.1-0.6,1.1-1.4v-6.4h-2.3V38.2z"/>
	<path class="st19" d="M536.9,42c0,0.3-0.3,0.5-1.2,0.7c-2.4,3.1-6.5,5.9-10,6.9c-0.2,0.1-0.3-0.2-0.2-0.3c2.3-1.4,4.9-4.7,6.1-7.6
		c0.3-0.7,0.5-1.2,0.7-2C536.6,41.3,536.9,41.6,536.9,42z M541.6,42.1c0,3.3,0.2,5.9,0.2,6.6c0,0.9-0.5,1.4-2.6,1.4
		c-1.3,0-1.6-0.3-1.6-1.2c0-0.9,0.1-3.3,0.1-7v-3.7c-2.9,0.6-5.7,1.1-7.8,1.4c-0.2,0.5-0.4,0.7-0.9,0.7c-0.4,0-0.6-0.2-2.1-5.3
		c0.8,0.1,1.4,0.1,2.3,0.1c1.5,0.1,4.7,0.1,8.2,0.2c1.8-2.6,2.7-4,4.4-7c1-1.8,1.3-2.5,1.6-3.2c4.8,2.4,4.9,2.6,4.9,3.1
		c0,0.5-0.3,0.7-1.5,0.8c-2.5,2.2-4.4,3.9-7.3,6.3c2.5,0,5.1,0,7.3-0.1c-0.6-1.3-1.5-2.3-2.5-2.9c-0.2-0.1-0.1-0.3,0.1-0.3
		c4.9,0.4,7.3,2.9,7.3,5.3c0,1.4-1,2.3-2.2,2.3c-1.1,0-1.7-0.6-2-1.9c-0.1-0.5-0.2-1-0.4-1.4c-1.5,0.3-3.2,0.7-5.1,1
		c0.1,0.1,0.2,0.2,0.2,0.2c0,0.4-0.3,0.6-0.8,0.8V42.1z M530.8,27.4c1.8,0.1,3.2,0.4,4.3,0.8c0.5-1.8,1-3.7,1.2-4.9
		c0.2-1,0.2-1.3,0.3-2c5.4,1.6,5.7,1.9,5.7,2.3c0,0.4-0.2,0.7-1.4,0.9c-1.3,1.3-3,3.1-4.4,4.5c1.1,0.8,1.6,1.8,1.6,2.9
		c0,1.5-1,2.5-2.3,2.5c-1.1,0-1.7-0.6-2-2c-0.4-2.2-1.5-3.7-3.1-4.5C530.6,27.6,530.7,27.4,530.8,27.4z M552,46c0,1.4-1,2.4-2.2,2.4
		c-1,0-1.7-0.5-2.1-1.8c-0.8-2.6-2.5-5-4.7-6c-0.2-0.1-0.1-0.3,0.1-0.3C549.3,40.6,552,43.5,552,46z"/>
	<path class="st19" d="M579.8,25.7c2-2.6,2.2-2.7,2.5-2.7c0.3,0,0.4,0,1.8,1.4c1.3,1.3,1.3,1.4,1.3,1.6c0,0.2-0.2,0.3-0.6,0.3h-3.3
		c0,0.3-0.2,0.5-0.7,0.9v8.2c0,4.8,0.2,9.1,0.2,10.7c0,2.2-0.9,3.1-2.2,3.7c-0.6,0.3-1.2,0.4-2.1,0.4c-0.6,0-0.7-0.3-0.9-0.8
		c-0.3-0.9-1-1.6-3.4-2.5c-0.2-0.1-0.2-0.3,0-0.3c1,0,2.3,0,3.2-0.2c0.8-0.2,1.3-0.5,1.3-1.4V29.9c0-1.6,0-2.5-0.1-3.6h-5.4v5.6
		c0,4.7,0.2,10.2,0.2,11c0,0.9-0.6,1.3-2.8,1.3c-1,0-1-0.2-1-1.1v-1.4h-7.3v1.9c0,0.9-0.7,1.3-2.4,1.3c-0.8,0-1.2-0.3-1.2-1.1
		c0-0.9,0.2-5.9,0.2-12c0-5.2,0-7.6-0.1-9.8c2.6,0.7,3.7,1.2,4.1,1.6h6.2c1.4-1.7,1.5-1.8,1.8-1.8c0.3,0,0.5,0,2,1.2
		c1.2,0.9,1.2,1,1.2,1.3c0,0.3-0.1,0.4-1,1v0.4H579.8z M561.2,24.2c-0.1,0.2-0.3,0.3-0.7,0.5v7.4h2v-6.2c0-0.5,0-1.1,0-1.6H561.2z
		 M560.5,41.1h2v-8.4h-2V41.1z M567.8,24.2h-1.6c0,0.2-0.2,0.4-0.5,0.6v7.3h2.1V24.2z M567.8,41.1v-8.4h-2.1v8.4H567.8z"/>
</g>
</svg>
