<?xml version="1.0" encoding="UTF-8"?>
<svg xmlns="http://www.w3.org/2000/svg" xmlns:xlink="http://www.w3.org/1999/xlink" version="1.1" viewBox="0 0 648.5 111">
  <defs>
    <style>
      .cls-1 {
        fill: none;
      }

      .cls-2 {
        fill: #28ac4b;
      }

      .cls-3 {
        fill: url(#logoふたば-4);
      }

      .cls-4 {
        fill: url(#logoふたば-2);
      }

      .cls-5 {
        fill: url(#logoふたば-3);
      }

      .cls-6 {
        fill: url(#logoふたば-5);
      }

      .cls-7, .cls-8, .cls-9, .cls-10, .cls-11, .cls-12 {
        isolation: isolate;
      }

      .cls-13 {
        fill: #f9c258;
      }

      .cls-14 {
        stroke-width: .5px;
      }

      .cls-14, .cls-8, .cls-15, .cls-9, .cls-10, .cls-11, .cls-12, .cls-16 {
        fill: #fff;
      }

      .cls-14, .cls-16 {
        stroke: #fff;
        stroke-miterlimit: 10;
      }

      .cls-17 {
        fill: url(#_名称未設定グラデーション_6);
      }

      .cls-18 {
        fill: url(#_名称未設定グラデーション_5);
      }

      .cls-19 {
        fill: url(#_名称未設定グラデーション_4);
      }

      .cls-20 {
        fill: url(#_名称未設定グラデーション_3);
      }

      .cls-21 {
        fill: url(#_名称未設定グラデーション_2);
      }

      .cls-22 {
        fill: url(#_名称未設定グラデーション_7);
      }

      .cls-23 {
        fill: url(#_名称未設定グラデーション-2);
      }

      .cls-24 {
        fill: url(#_名称未設定グラデーション-3);
      }

      .cls-8 {
        font-size: 20.5px;
      }

      .cls-8, .cls-9, .cls-10, .cls-11, .cls-12 {
        font-family: KozGoPr6N-Bold-83pv-RKSJ-H, 'Kozuka Gothic Pr6N';
        font-weight: 700;
      }

      .cls-25 {
        clip-path: url(#clippath-1);
      }

      .cls-26 {
        clip-path: url(#clippath-3);
      }

      .cls-27 {
        clip-path: url(#clippath-2);
      }

      .cls-28 {
        fill: url(#_名称未設定グラデーション_3-2);
      }

      .cls-29 {
        fill: url(#_名称未設定グラデーション_4-2);
      }

      .cls-9 {
        font-size: 27.3px;
      }

      .cls-30 {
        fill: #a8977f;
      }

      .cls-10 {
        font-size: 22.5px;
      }

      .cls-31 {
        fill: url(#logoふたば);
      }

      .cls-32 {
        fill: #8ac23e;
      }

      .cls-11 {
        font-size: 27.2px;
      }

      .cls-12 {
        font-size: 22.4px;
      }

      .cls-33 {
        fill: url(#_名称未設定グラデーション);
      }

      .cls-34 {
        display: none;
      }

      .cls-35 {
        clip-path: url(#clippath);
      }

      .cls-36 {
        fill: #f09ba7;
      }
    </style>
    <linearGradient id="_名称未設定グラデーション" data-name="名称未設定グラデーション" x1="110.5" y1="-133.3" x2="260.9" y2="-133.3" gradientTransform="translate(0 -58) scale(1 -1)" gradientUnits="userSpaceOnUse">
      <stop offset="0" stop-color="#8ac23e"/>
      <stop offset="1" stop-color="#28ac4b"/>
    </linearGradient>
    <linearGradient id="_名称未設定グラデーション_2" data-name="名称未設定グラデーション 2" x1="368.2" y1="-91" x2="445.8" y2="-91" gradientTransform="translate(0 -58) scale(1 -1)" gradientUnits="userSpaceOnUse">
      <stop offset="0" stop-color="#8ac23e"/>
      <stop offset="1" stop-color="#28ac4b"/>
    </linearGradient>
    <clipPath id="clippath">
      <path class="cls-1" d="M90.9,43.4c-2-5.8-5.1-1.9-5,2-2-3.1-3.5-.1-3.5,3.7-3.4-3.9-2.5,5.9-2.5,8.6,6.6-7,12.4-5.8,13.7-2.9,2.4,5-6.6,14.7-10.5,18.3-2.5,2.4-6.1,2.6-1.1-2.2.7-.7,2.6-2.5,5.2-5.5,10-11.9.7-12.5-4.5-7.4-4.4,4.2-6.7,7.9-16.7,12.5-4.4,2-6.8,5.2-6.6,11.1.2,4,5.8,13.3,17.6,5.8,11.3-7.2,16.3-11.8,20.8-19.8,4.6-8.1,0-19.6-.9-21.9-1.2-3.7-2.6-5.1-3.8-5.1s-2,1.3-2.1,3.1Z"/>
    </clipPath>
    <linearGradient id="_名称未設定グラデーション_3" data-name="名称未設定グラデーション 3" x1="-2013.7" y1="-321.4" x2="-2012.6" y2="-321.4" gradientTransform="translate(79847.5 -27508.6) rotate(-10) scale(41.4 -41.4)" gradientUnits="userSpaceOnUse">
      <stop offset="0" stop-color="#fff3e1"/>
      <stop offset="0" stop-color="#fff0d8"/>
      <stop offset=".4" stop-color="#fee7c0"/>
      <stop offset=".6" stop-color="#fcd998"/>
      <stop offset=".9" stop-color="#f9c562"/>
      <stop offset="1" stop-color="#f9c258"/>
    </linearGradient>
    <clipPath id="clippath-1">
      <path class="cls-1" d="M12.6,43.4c2-5.8,5.1-1.9,5,2,2-3.1,3.5-.1,3.5,3.7,3.4-3.9,2.5,5.9,2.5,8.6-6.6-7-12.4-5.8-13.7-2.9-2.4,5,6.6,14.7,10.5,18.3,2.5,2.4,6.1,2.6,1.1-2.2-.7-.7-2.6-2.5-5.2-5.5-10-11.9-.7-12.5,4.5-7.4,4.4,4.2,6.7,7.9,16.7,12.5,4.4,2,6.8,5.2,6.6,11.1-.2,4-5.8,13.3-17.6,5.8-11.3-7.2-16.3-11.8-20.8-19.8-4.6-8.1.1-19.6.9-21.9,1.2-3.7,2.6-5.1,3.8-5.1s2,1.3,2.1,3.1Z"/>
    </clipPath>
    <linearGradient id="_名称未設定グラデーション_4" data-name="名称未設定グラデーション 4" x1="-2004.9" y1="-302.4" x2="-2003.7" y2="-302.4" gradientTransform="translate(71297.2 24027) rotate(10) scale(37.1)" gradientUnits="userSpaceOnUse">
      <stop offset="0" stop-color="#f09ba7"/>
      <stop offset="0" stop-color="#f1a5b0"/>
      <stop offset=".5" stop-color="#f7cdd2"/>
      <stop offset=".8" stop-color="#fbe5e6"/>
      <stop offset="1" stop-color="#fceeee"/>
    </linearGradient>
    <linearGradient id="_名称未設定グラデーション_5" data-name="名称未設定グラデーション 5" x1="570.3" y1="-112.1" x2="659.7" y2="-112.1" gradientTransform="translate(0 -58) scale(1 -1)" gradientUnits="userSpaceOnUse">
      <stop offset="0" stop-color="#8ac23e"/>
      <stop offset="1" stop-color="#28ac4b"/>
    </linearGradient>
    <linearGradient id="_名称未設定グラデーション_6" data-name="名称未設定グラデーション 6" x1="570.4" y1="-147.3" x2="659.8" y2="-147.3" gradientTransform="translate(0 -58) scale(1 -1)" gradientUnits="userSpaceOnUse">
      <stop offset="0" stop-color="#8ac23e"/>
      <stop offset="1" stop-color="#28ac4b"/>
    </linearGradient>
    <linearGradient id="_名称未設定グラデーション_7" data-name="名称未設定グラデーション 7" x1="570.1" y1="-77.9" x2="659.4" y2="-77.9" gradientTransform="translate(0 -58) scale(1 -1)" gradientUnits="userSpaceOnUse">
      <stop offset="0" stop-color="#8ac23e"/>
      <stop offset="1" stop-color="#28ac4b"/>
    </linearGradient>
    <linearGradient id="_名称未設定グラデーション-2" data-name="名称未設定グラデーション" x1="114" y1="-133.8" x2="264.7" y2="-133.8" xlink:href="#_名称未設定グラデーション"/>
    <linearGradient id="_名称未設定グラデーション-3" data-name="名称未設定グラデーション" x1="372.2" y1="-91.3" x2="450" y2="-91.3" xlink:href="#_名称未設定グラデーション"/>
    <linearGradient id="logoふたば" x1="338.9" y1="33.4" x2="361.9" y2="33.4" gradientUnits="userSpaceOnUse">
      <stop offset="0" stop-color="#8ac23e"/>
      <stop offset="1" stop-color="#28ac4b"/>
    </linearGradient>
    <linearGradient id="logoふたば-2" data-name="logoふたば" x1="365.7" y1="33.4" x2="388.6" y2="33.4" xlink:href="#logoふたば"/>
    <linearGradient id="logoふたば-3" data-name="logoふたば" x1="393.1" y1="33.3" x2="416" y2="33.3" xlink:href="#logoふたば"/>
    <linearGradient id="logoふたば-4" data-name="logoふたば" x1="420.4" y1="33.4" x2="443.3" y2="33.4" xlink:href="#logoふたば"/>
    <linearGradient id="logoふたば-5" data-name="logoふたば" x1="447.8" y1="33.1" x2="470.8" y2="33.1" xlink:href="#logoふたば"/>
    <clipPath id="clippath-2">
      <path class="cls-1" d="M87.3,43.7c-2-5.8-5.1-1.9-5,2-2-3.1-3.5-.1-3.5,3.7-3.4-3.9-2.5,5.9-2.5,8.6,6.6-7,12.4-5.8,13.7-3,2.4,5-6.6,14.8-10.5,18.3-2.5,2.4-6.1,2.6-1.1-2.2.7-.7,2.6-2.5,5.2-5.6,10-11.9.7-12.5-4.5-7.4-4.4,4.3-6.7,7.9-16.8,12.5-4.4,2-6.9,5.2-6.6,11.1.2,4,5.8,13.4,17.6,5.8,11.3-7.2,16.3-11.8,20.8-19.9,4.6-8.2,0-19.6-.9-22-1.2-3.7-2.6-5.1-3.8-5.1s-2,1.3-2.1,3.1Z"/>
    </clipPath>
    <linearGradient id="_名称未設定グラデーション_3-2" data-name="名称未設定グラデーション 3" x1="-2013.8" y1="-321.4" x2="-2012.6" y2="-321.4" xlink:href="#_名称未設定グラデーション_3"/>
    <clipPath id="clippath-3">
      <path class="cls-1" d="M8.8,43.7c2-5.8,5.1-1.9,5,2,2-3.1,3.5-.1,3.5,3.7,3.4-3.9,2.5,5.9,2.5,8.6-6.6-7-12.4-5.8-13.7-3-2.4,5,6.6,14.8,10.5,18.3,2.5,2.4,6.1,2.6,1.1-2.2-.7-.7-2.6-2.5-5.2-5.6-10-11.9-.7-12.5,4.5-7.4,4.4,4.3,6.7,7.9,16.8,12.5,4.4,2,6.9,5.2,6.6,11.1-.2,4-5.8,13.4-17.6,5.8-11.3-7.2-16.3-11.8-20.8-19.9-4.6-8.2.1-19.6.9-22,1.2-3.7,2.6-5.1,3.8-5.1s2,1.3,2.1,3.1Z"/>
    </clipPath>
    <linearGradient id="_名称未設定グラデーション_4-2" data-name="名称未設定グラデーション 4" x1="-2005" y1="-302.4" x2="-2003.8" y2="-302.4" xlink:href="#_名称未設定グラデーション_4"/>
  </defs>
  <!-- Generator: Adobe Illustrator 28.7.1, SVG Export Plug-In . SVG Version: 1.2.0 Build 142)  -->
  <g>
    <g id="_レイヤー_1" data-name="レイヤー_1">
      <g class="cls-34">
        <g id="_レイヤー_1-2" data-name="_レイヤー_1">
          <g id="_レイヤー_1-2">
            <path class="cls-33" d="M123.4,75.8c0,2.1-2.7,11.1-4,14.5-1.1,2.8-2.1,5.1-4.5,5.1s-4.4-1.4-4.4-3.7.2-1.7,1.3-3.4c1.7-3.1,3.1-8,3.7-10.4.7-3.2,1.2-5.3,3.9-5.3s.8,0,1.3,0c1.1.4,2.7,1.1,2.7,3.1M151.5,77.2c-1.5-3.3-4.4-6.1-8-6.1s-3.2,1.8-3.4,2.7c0,.2-.1.6-.1.9,0,1.1.5,1.7.7,1.9.2.2,1.9,1.3,2.2,1.5,2.5,2.1,2.9,8.6,3.3,12.6.1,1.2.4,3.8,3.9,3.8s2.5-.4,3.3-1.3c.5-.6.8-1.4.8-2.9s-.7-9-2.7-13.1M141.9,65.2c2.1-.2,4-.7,4-3.8s-2.6-3.4-5.2-3.7c-5.7-.4-11-1.2-13.6-1.7-.9,0-5.3-1.2-6.4-1.2-2.4,0-2.9,2.1-3.2,3.2-.4,2.9,1.7,3.5,3.7,4s5,1.1,8,1.5c-2.5,1.4-4.1,3.8-3.9,7.2.2,4.5,3.1,8.1,4.4,9.6,2.6,3.1,3.7,4.2,3.7,6.4s-.1,3.3-3.4,3.3-2.1-.2-2.7-.5c-1.8-.6-2-.7-2.7-.7-3.4,0-3.4,3.7-3.4,3.9,0,1.3.5,2.4,2,3.2,2.8,1.5,6.2,1.9,8,1.9,8,0,10.4-6.1,10.4-9.9s-1.5-7-5.2-10.8c-6.2-6.6-5-10.5,5.5-11.9M174.3,55.9c.7-.9,1.9-1.2,2.8-1.2,1.9,0,4.1.6,4.1,3.2s-.1,1.4-.4,2.8c3.9,0,8.5-.2,11.6-.4.6,0,3.2-.2,3.7-.2.9,0,3.8,0,3.8,3.7s-2.4,3.4-3.9,3.5c-5,.2-11.1.5-16.5.6-1.3,6.1-7.1,26.6-9.1,28.8-.4.4-1.1.9-2.4.9s-4.5-.7-4.5-3.4.8-2.8,1.3-3.8c1.9-4.4,4.2-11.6,5.5-16.5.5-2.1,1.1-4.6,1.4-5.8-2.7,0-5.5,0-6.5-.5-1.3-.7-1.4-2.1-1.4-3.1,0-2.9,1.5-3.7,3.9-3.7h5.2c.7-4,.7-4.5,1.3-5.1M195.7,97.3c-11.4,0-16.4-1.9-16.4-8.1s0-5.9,4.7-5.9,3.7.7,3.7,2.5-.1.8-.2,1.1c-.2.8-.4.9-.4,1.4,0,.8.6,1.4,2.2,1.8,1.3.2,2.9.2,4,.2s3.9,0,7.1-.5c.6,0,1.7-.2,2.1-.2,2.1,0,3.4,1.2,3.4,3.4,0,3.5-1.7,4.4-10.3,4.4M203.5,78.2c-.6.5-1.3.6-2.4.6s-4.5-.2-5.2-.2c-3.1,0-4.4,0-8.8.5h-1.8c-3.2,0-3.2-3.2-3.2-3.7,0-1.5.6-2.8,2.8-3.4,3.1-.7,8.6-.8,11.9-.8,7.3,0,7.8,1.2,7.8,4.1s-.4,2.1-1.2,2.8M226,58.6c0,.6-.9,6.6-1.1,7.9-.4,3.9-.6,7.8-.6,11.7s.2,8.6.8,12.9c.1,1.1.2,2.5.2,3.1,0,2.4-1.4,3.3-3.7,3.3s-2.9,0-3.7-2.4c-.7-2.5-1.2-10.4-1.2-17.2,0-10.5,1.3-18.7,1.7-19.9.4-1.3,1.2-2.9,4.5-2.6,2.4.5,2.9,1.7,2.9,3.3M241.9,59.3c0-1.3,0-4,3.9-4s3.9,2.6,3.9,4v4.1c.8,0,4.7-.2,5-.2.9,0,3.7,0,3.7,3.7s-1.3,3.2-2,3.3c-.8.2-1.1.2-6.5.5v9.7c4,2.1,6.1,3.8,7.5,5.1.9.9,1.5,2.1,1.5,3.3,0,2.1-1.8,4.2-3.9,4.2s-1.9-.6-3.4-2.4c-.2-.2-1.9-1.7-2.1-1.9-.1,2.6-.5,8.6-10.1,8.6s-11.7-5-11.7-9.8,4.5-9.7,11.3-9.7,2.6.2,3.4.2l-.2-7.2h-10.7c-3.3,0-3.9,0-3.9-3.7s1.8-3.3,2.8-3.4c.6,0,9.6-.2,11.7-.2v-4.4h-.1ZM238.9,84.2c-1.2,0-4.7.2-4.7,3.7s3.7,3.4,4.4,3.4c1.1,0,3.1-.2,3.7-1.9.2-.7.2-1.1.2-4.4-.9-.5-1.9-.8-3.5-.8M250.5,56c-.1-.4-.1-.7-.1-.8,0-1.3,1.3-1.5,1.9-1.5s1.4.6,1.8,1.5c.8,2.1,1.4,3.9,1.4,5,0,1.5-1.5,1.7-1.8,1.7-.7,0-1.2-.2-1.5-1.2-.1-.4-.7-2.1-.8-2.4,0-.4-.7-1.8-.8-2.2M256,55.2c-.1-.4-.1-.7-.1-.8,0-1.3,1.4-1.5,1.9-1.5,1.1,0,1.4.8,1.9,2.1.5,1.3,1.2,3.4,1.2,4.5,0,1.5-1.7,1.7-1.9,1.7-.5,0-1.1,0-1.5-1.2-.1-.4-.6-2-.7-2.4,0-.5-.7-2-.7-2.4"/>
            <g>
              <g>
                <path class="cls-36" d="M301.8,68.2h-15.2c.7-1.9.7-2.1.7-2.4,0-1.4-1.7-1.8-2.6-1.8-1.9,0-2.2.8-3.1,4.1h-8.8c-1.4,0-2.2.8-2.2,2.2s.7,2.1,2.2,2.1h7.1c-.9,2.1-3.1,5.8-6.2,8.5-3.2,2.7-3.3,2.7-3.3,3.8,0,1.5,1.1,2.7,2.4,2.7s1.1-.2,2.8-1.8v10c0,1.3.5,2.1,2.4,2.1s2.1-1.7,2.1-2.1v-15c2.6-3.4,4.2-7,4.7-8.1h16.9c1.4,0,2.2-.8,2.2-2.2.2-1.5-.7-2.2-2-2.2h0Z"/>
                <path class="cls-36" d="M301.8,92.2h-6.8v-8.7h5.9c1.4,0,2.2-.7,2.2-2.1s-.8-2.1-2.2-2.1h-5.9v-3.8c0-1.5-.8-2.1-2.5-2.1s-2.1,1.1-2.1,2.1v3.7h-5.9c-1.4,0-2.2.7-2.2,2.1s.9,2.1,2.2,2.1h5.9v8.7h-7.1c-1.4,0-2.2.7-2.2,2.2s.8,2.1,2.2,2.1h18.4c1.4,0,2.2-.8,2.2-2.2s-.9-2-2.1-2h0Z"/>
                <path class="cls-36" d="M341.3,84.9c.9,0,1.7-.5,1.7-2,0-2.2-1.5-2.1-2.1-2l-14.6,1.3v-3.9c3.8-.5,5.7-.8,8.8-1.5.9-.2,1.9-.6,1.9-1.8s-.4-2.4-1.9-2.4-1.1,0-1.4.2c-7.1,1.7-12.3,2-17.7,2.4-.2,0-.8,0-1.3.4.1-.2.1-.5.1-1.2v-2c0-.8.5-1.2,1.2-1.2h20.5c.8,0,1.2.5,1.2,1.2v1.9c0,1.4.5,2.1,2.4,2.1s2.1-1.2,2.1-2.1v-2.9c0-3.2-1.3-4.1-4.1-4.1h-9.4v-1.2c0-1.4-1.1-1.8-2.6-1.8s-2.1.5-2.1,1.8v1.3h-9.3c-2.7,0-4.1.9-4.1,4.1v2.9c0,1.3.5,2.1,2.2,2.1s1.2,0,1.4-.4c-.2.4-.2.7-.2.9,0,.6.1,2.2,2,2.2s2.7,0,5.8-.5v3.8l-10.3.9c-1.1,0-1.8.5-1.8,1.9,0,2.4,1.7,2.2,2.1,2.1l9.9-.9v6.5c0,1.2,0,3.9,3.3,4h11.4c9.7,0,5.3,0,5.3-7.1s0-2.2-2.4-2.2-2.1,1.4-2.1,2.1c-.1,2.5-.2,2.9-1.1,3.2h-9.3c-.2,0-.6-.4-.6-1.3v-5.5l15.1-1.5h0Z"/>
              </g>
              <g>
                <path class="cls-13" d="M376.9,70.2h-10.7c.9-1.8,1.2-2.4,1.2-3.1,0-1.3-1.4-1.9-2.5-1.9-1.5,0-1.8.6-3.1,3.2-.6,1.1-3.3,5.5-7.4,8.6-1.7,1.2-1.9,1.4-1.9,2.4s1.1,2.4,2.4,2.4c2.4,0,6.8-5,8.6-7.4h10.5c.9,0,1.3,0,1.3.7s-1.1,3.9-2,5.7c-3.7,7.2-9.8,9.6-15.6,11-2.6.6-3.3.8-3.3,2.4s.2,2.5,2.4,2.5,8.7-1.4,14.4-5.9c8.1-6.4,9.6-16.2,9.6-17.6-.2-1.5-1.2-2.8-3.8-2.8h0Z"/>
                <path class="cls-13" d="M395.1,83.8v-15.4c0-1.7-.9-2.2-2.5-2.2s-2.5,1.2-2.5,2.2v15.4c0,1.7.9,2.2,2.5,2.2s2.5-1.2,2.5-2.2Z"/>
                <path class="cls-13" d="M410.7,65.7c-2.1,0-2.5,1.2-2.5,2.4v13.4c0,2.2-.2,4.2-2,6.4-1.9,2.1-4.6,3.3-10.3,3.8-2.4.2-3.5.4-3.5,2.2s2.2,2.5,2.7,2.5c.8,0,3.4,0,6.7-.9,10.7-2.9,11.4-10,11.4-14.1v-13.3c0-1.7-1.1-2.2-2.6-2.2h0Z"/>
                <path class="cls-13" d="M426.7,73.1h21.5c1.3,0,2.4-.5,2.4-2.4s-1.8-2.4-2.4-2.4h-21.5c-1.1,0-2.4.4-2.4,2.4-.1,2.4,1.8,2.4,2.4,2.4Z"/>
                <path class="cls-13" d="M450.7,89h-26.6c-1.4,0-2.4.6-2.4,2.4s1.8,2.4,2.4,2.4h26.6c1.4,0,2.4-.6,2.4-2.4s-1.8-2.4-2.4-2.4Z"/>
                <path class="cls-13" d="M470.2,81.1c.2,1.1.6,2.4,1.8,2.4s2.7,0,2.7-2.1-1.4-5.7-2.2-7.4c-.5-.9-.8-1.7-2.1-1.7s-2.4.7-2.4,1.9.1.8.2,1.2c.9,1.5,1.4,2.9,2,5.8h0Z"/>
                <path class="cls-13" d="M482.8,73.2h-.7c-1.7,0-2,1.3-2.1,2.2-.7,3.5-.8,3.9-1.3,5.3-2.8,8.4-9.3,10.5-12.1,11.3-2.5.7-3.2.9-3.2,2.2s.5,2.4,2.1,2.4,9.1-1.3,14.4-8.8c3.9-5.7,4.6-12.4,4.6-12.5,0-.7-.2-1.7-1.7-2h0Z"/>
                <path class="cls-13" d="M467,83c0-.6-.1-.9-.4-1.8-2-5.7-2.7-7.3-4.4-7.3s-2.4.7-2.4,1.9.2.9.4,1.3c.7,1.5,1.3,2.8,2.1,5.7.4,1.3.7,2.2,2,2.2s2.6-.2,2.6-2Z"/>
                <path class="cls-13" d="M515.2,70.2h-10.7c.9-1.8,1.2-2.4,1.2-3.1,0-1.3-1.4-1.9-2.5-1.9-1.5,0-1.8.6-3.1,3.2-.5,1.1-3.3,5.5-7.4,8.6-1.7,1.2-1.9,1.4-1.9,2.4s1.1,2.4,2.4,2.4c2.4,0,6.8-5,8.6-7.4h10.5c.9,0,1.3,0,1.3.7s-1.1,3.9-2,5.7c-3.7,7.2-9.8,9.6-15.6,11-2.6.6-3.3.8-3.3,2.4s.2,2.5,2.4,2.5,8.7-1.4,14.4-5.9c8.1-6.4,9.6-16.2,9.6-17.6-.2-1.5-1.2-2.8-3.8-2.8h0Z"/>
              </g>
            </g>
            <g>
              <g>
                <path class="cls-30" d="M217.6,22.6c.4,0,1.5,0,1.5,1.4s-1.2,1.4-1.5,1.4h-15.9c-.6,0-.9.2-.9.9v13.9c0,.7.4.9.9.9h16.4c.4,0,1.5,0,1.5,1.4s-1.2,1.4-1.5,1.4h-17.1c-2.1,0-3.3-.7-3.3-3.3v-15c0-2.5,1.1-3.3,3.3-3.3h16.6ZM217.1,32.3c.4,0,1.3,0,1.3,1.3s-.9,1.3-1.3,1.3h-5.1c1.4,1.5,2.4,2.4,5.3,3.2.5,0,1.1.4,1.1,1.2s-.2,1.5-1.4,1.5-5.1-1.4-7.1-4.8c-2.4,4-6,4.8-6.6,4.8-1.1,0-1.4-1.1-1.4-1.5,0-.8.6-1.1,1.1-1.2,1.5-.5,3.4-1.1,4.7-3.2h-4.8c-.4,0-1.3,0-1.3-1.2s.8-1.3,1.3-1.3h5.7s.1-.6.1-.8v-1.5h-2.6c-1.3,1.9-1.9,2.1-2.4,2.1-.7,0-1.5-.6-1.5-1.4s.1-.6,1.2-1.8c.7-.7,1.2-1.5,1.8-2.6.2-.6.7-.9,1.3-.9s1.4.4,1.4,1.3-.1.6-.2.9h8.8c.4,0,1.3,0,1.3,1.2s-.9,1.3-1.3,1.3h-5v1.5c0,.4,0,.7-.1.8h5.8v-.2h0Z"/>
                <path class="cls-30" d="M244.4,36.8c0,.5,0,1.2-.6,1.8s-1.4.6-1.9.6h-2.5v2.5c0,2.5-.7,2.7-3.2,2.7s-2.5,0-2.5-1.3.4-1.2,1.2-1.2h.9c.5,0,.6,0,.6-.7v-2.1h-2.6c-2.2,0-2.4-1.5-2.4-2.4v-1.7c-.1.1-.5.2-.7.2-.7,0-1.2-.6-1.2-1.3-.1,2.4-.5,5.7-1.8,8.3-.9,1.8-1.3,2-2,2s-1.5-.6-1.5-1.3.2-.8.4-1.3c1.3-2.5,1.7-3.2,2-5.5-.5.4-1.4.9-2,.9-1.1,0-1.2-1.3-1.2-1.8,0-.9.6-1.2,1.1-1.3.6-.2,1.4-.6,2.4-1.2v-2.1c-.1.1-.5.2-.9.2-.7,0-.8-.4-1.2-1.4-.4-.8-.5-1.2-.9-2,0-.1-.1-.4-.1-.7,0-.7.8-1.3,1.4-1.3s.9.6,1.8,2.4v-1.5c0-2.1.9-2.8,2.8-2.8h5.2v-.7c0-1.1.9-1.2,1.4-1.2.7,0,1.5.2,1.5,1.2v.8h7.2c.6,0,1.4.1,1.4,1.2s-.6,1.2-1.4,1.2h-7.5c.5.2.8.5.7,1.2h7c.5,0,1.2,0,1.2,1.2s-.7,1.2-1.2,1.2h-4c1.1,1.2,1.2,1.3,1.7,1.7.1-.2.8-1.1,1.1-1.3s.4-.2.6-.2c.6,0,1.3.5,1.3.9s-.8,1.3-1.2,1.8c.2.1,1.3.7,1.5.8.5.2.5.6.5.8,0,.7-.5,1.5-1.3,1.5s-.7-.1-1.1-.4v1.7h.1ZM232.6,42.8c-.7.5-2.1,1.3-2.7,1.3-.9,0-1.2-.8-1.2-1.3,0-.7.2-.7,1.7-1.5.9-.5,1.3-.7,2.2-1.4.4-.2.6-.4.9-.4.7,0,1.3.6,1.3,1.3s-.6.9-2.2,2ZM229.6,33.8c.1-.4.4-.7.5-.7.4-.2.9-.7,1.4-.9-.2-.4-.6-.7-.9-.9-.2-.2-.4-.5-.4-.7,0-.6.7-1.1,1.3-1.1s.6.1,1.7,1.4c.5-.5.9-.9,1.3-1.5h-3.3c-.7,0-1.2-.2-1.2-1.2s.7-1.1,1.2-1.1h4.6c.2-.6.5-1.1.6-1.2h-5.8c-.6,0-.8.2-.8.8v7.1h-.1ZM234.5,34.5h7.2v-.5c0-.4-.1-.6-.6-.6h-6c-.5,0-.6.2-.6.6v.5ZM234.5,36.3v.5c0,.4.1.6.6.6h6c.5,0,.6-.4.6-.6v-.5h-7.2ZM240.2,31.6c-1.1-1.1-1.3-1.7-1.5-2.1h-1.3c-.4.6-.7,1.2-1.5,2.1h4.4ZM242.1,39.5c.4,0,.5,0,1.2.6.9.7,1.8,1.1,2.7,1.7.2,0,.6.4.6.9s-.5,1.4-1.4,1.4-1.9-.8-2.6-1.3c-.7-.5-1.9-1.3-1.9-2s.8-1.3,1.4-1.3Z"/>
                <path class="cls-30" d="M255.8,40.2c-2.1,4.1-2.5,4.1-3.1,4.1s-1.7-.6-1.7-1.4.2-.8,1.2-2.5c.9-1.5,1.7-3.1,2.5-4.8.1-.4.4-.8,1.2-.8s1.4.5,1.4,1.3c.1.8-1.1,3.2-1.5,4.1ZM252.6,28.2c.7,0,2,.8,2.8,1.4,1.4.9,1.7,1.3,1.7,1.8,0,.7-.7,1.7-1.5,1.7s-.6-.1-2-1.2c-.2-.2-1.4-.9-1.7-1.2-.5-.2-.6-.5-.6-1.2s.6-1.3,1.3-1.3ZM253.3,21.9c.7,0,2,.8,2.8,1.3,1.4.8,1.8,1.2,1.8,1.8s-.7,1.7-1.4,1.7-.5-.1-2-1.1c-.4-.2-1.8-1.1-2-1.2s-.6-.4-.6-1.1.6-1.4,1.4-1.4ZM259,34.3c-.5,0-1.5,0-1.5-1.4s.7-1.4,1.5-1.4h5.3v-3.7h-4.2c-.4,0-1.5,0-1.5-1.4s.5-1.5,1.5-1.5h4.2v-1.8c0-.6.1-1.5,1.4-1.5s1.7.4,1.7,1.5v1.8h4.5c.4,0,1.5,0,1.5,1.4s-.6,1.5-1.5,1.5h-4.5v3.7h5.3c.4,0,1.5,0,1.5,1.3s-.5,1.5-1.5,1.5h-7.3c-.9,2.6-2.2,5.3-2.7,6.5,2.7,0,3.4-.2,6.6-.5-.5-.8-.6-1.1-1.5-2.4-.4-.5-.4-.7-.4-.9,0-.8.9-1.3,1.5-1.3s.9.2,2,1.8c.6.9,1.5,2.1,2.4,3.8.6.9.7,1.4.7,1.9,0,.8-.8,1.4-1.7,1.4s-1.1-.6-1.2-.8c-.1,0-.4-.7-.4-.8-5.2.7-11.7,1.1-11.9,1.1s-1.4,0-1.4-1.5.2-.9.7-1.3h1.4c1.1-2.1,2-4.4,2.7-6.6h-3.3v-.2Z"/>
                <path class="cls-30" d="M288.1,23.3c0-.5,0-1.5,1.7-1.5s1.7,1.1,1.7,1.5v2.4c0,1.9.2,7,3.2,10.8,1.4,1.9,3.3,3.4,5.3,4.6.6.4,1.2.7,1.2,1.5s-.6,1.9-1.8,1.9-4.1-2.5-5.8-4.2c-1.9-2.1-3.2-4.8-3.9-7.5-1.2,4.4-2.8,6.5-4.4,8.1-1.4,1.4-4,3.7-5.2,3.7s-1.8-.9-1.8-1.9.5-1.1.9-1.3c3.2-1.8,6.7-4.2,8.3-10.7.2-1.1.5-4.4.5-4.7v-2.6h.1Z"/>
                <path class="cls-30" d="M311,25.4c1.2,0,2.2.5,2.2,2s-.4,2.1-2.1,4.7c.6.6,1.1,1.1,1.9,1.9.9.9,1.2,1.1,1.2,1.5,0,.7-.6,1.5-1.4,1.5s-1.7-1.1-2.2-2v8.3c0,1.2-.6,1.5-1.7,1.5s-1.4-.8-1.4-1.5v-7.2c-.9.8-1.5,1.2-2.1,1.2s-1.5-.8-1.5-1.8.4-1.1,2.1-2.4c2.7-1.9,4-4.4,4-4.6,0-.4-.4-.4-.6-.4h-3.9c-.7,0-1.5-.2-1.5-1.4s1.1-1.4,1.5-1.4h2v-2.1c0-1.1.5-1.5,1.7-1.5s1.4,1.1,1.4,1.5v2.1h.5,0ZM324.7,28.1c.4,0,1.5,0,1.5,1.4s-.5,1.7-1.5,1.7h-3.4v9.8h3.9c.4,0,1.5,0,1.5,1.4s-.5,1.7-1.5,1.7h-11.2c-.5,0-1.8,0-1.8-1.4s.6-1.5,1.8-1.5h4.1v-9.8h-3.3c-.4,0-1.5,0-1.5-1.4s.5-1.7,1.5-1.7h3.3v-5c0-.6.1-1.5,1.4-1.5s1.7.4,1.7,1.5v5h3.5Z"/>
                <path class="cls-30" d="M352.4,40.8c0,2.5-1.1,3.3-3.3,3.3h-14.4c-2.1,0-3.3-.7-3.3-3.3v-15c0-2.5,1.1-3.3,3.3-3.3h14.4c2.1,0,3.3.7,3.3,3.3v15ZM349.4,26.4c0-.7-.4-.9-.9-.9h-13c-.7,0-.9.4-.9.9v13.8c0,.7.4.9.9.9h13c.6,0,.9-.4.9-.9v-13.8ZM346.7,38.1c0,2.7-.8,2.7-4.2,2.7s-1.9,0-1.9-1.3.9-1.3,1.2-1.3h1.2c.8,0,.8-.4.8-.8v-6.5h-7.8c-.5,0-1.4,0-1.4-1.2s.5-1.4,1.4-1.4h7.8v-1.5c0-.9.4-1.4,1.3-1.4s1.5.2,1.5,1.4v1.5h1.3c.5,0,1.4,0,1.4,1.3s-.5,1.4-1.4,1.4h-1.3v7.1h.1ZM340,34c.5.7,1.2,1.8,1.2,2.5s-1.1,1.4-1.7,1.4-.8-.4-1.5-1.5-.6-.9-1.4-2c-.2-.2-.5-.7-.5-1.2,0-.7.8-1.2,1.4-1.2s.9,0,2.5,2h0Z"/>
              </g>
              <path class="cls-21" d="M389.6,23.7c.4,0,1.5,0,1.5,1.3s-.4,1.4-1.5,1.4h-8.5v5.3c0,3.2.9,5.5,3.5,7.5,1.5,1.2,3.5,1.8,5.2,2.1.8.2,1.2.5,1.2,1.3s-.2,1.8-1.5,1.8-7.8-2.4-9.8-7.1c-.4.8-.9,2.4-3.3,4.2-2.5,1.9-5.3,2.9-6.4,2.9s-1.5-1.4-1.5-1.8c0-.9.6-1.2,1.2-1.3,5-1.3,8.6-3.3,8.6-10.3v-4.7h-8.6c-.5,0-1.4-.1-1.4-1.4s.7-1.4,1.4-1.4h8.6v-.9c0-.8.4-1.2,1.4-1.2s1.7.2,1.7,1.2v.9h8.3,0ZM377,33.7c0,.6-.6,1.2-1.8,2.1.7.7.9.9.9,1.4,0,.8-.8,1.4-1.4,1.4s-.7-.2-.9-.6c-.1,0-.2-.4-.7-.7-1.2.7-2.8,1.4-3.4,1.4-.9,0-1.2-.9-1.2-1.4,0-.7.5-.9.9-1.1,1.2-.5,1.3-.5,1.8-.7-.2-.1-1.2-.8-1.3-.9-.1-.1-.4-.4-.4-.7,0-.6.6-1.2,1.3-1.2s.6,0,2.6,1.5c.4-.2.7-.6,1.4-1.2.2-.1.4-.4.8-.5-.2,0-.5,0-.7-.1s-1.3-1.1-1.5-1.3c-1.4.8-3.2,1.7-3.7,1.7-.8,0-1.1-.8-1.1-1.3s.5-.8.8-.9c1.4-.6,1.5-.6,1.9-.8-1.5-.9-1.8-1.2-1.8-1.7,0-.7.6-1.2,1.2-1.2s.6.1,1.1.4c.5.2,1.2.7,1.8,1.1.2-.1.9-.7,1.4-1.2.2-.2.5-.4.8-.4.7,0,1.2.6,1.2,1.1s-.4.9-1.4,1.7c1.3.9,1.4,1.2,1.4,1.7s-.5,1.2-1.2,1.3c.5,0,1.1.6,1.1,1.2h0ZM390,31c0,.7-.6,1.3-1.3,1.3s-.6-.1-.8-.4c-.7-.7-.8-.7-1.2-.9-1.3.8-3.2,1.8-3.8,1.8-.9,0-1.2-.9-1.2-1.3,0-.7.6-.9.9-1.1,1.1-.5,1.2-.5,1.9-.8-.2-.1-1.4-.8-1.7-.9-.1-.1-.5-.4-.5-.7s.5-1.1,1.3-1.1,2.2.9,2.9,1.4c.4-.2.4-.4,1.3-1.1.2-.2.6-.4.8-.4.7,0,1.2.6,1.2,1.2s-.4.8-1.3,1.7c1.1.6,1.3.8,1.3,1.3ZM388.3,32.8c.2-.2.6-.4.8-.4.7,0,1.3.6,1.3,1.2s-.5.9-1.5,2c1.3,1.1,1.5,1.3,1.5,1.9s-.8,1.3-1.4,1.3-.6,0-.9-.5c-.5-.5-.9-.8-1.4-1.2-.6.4-2.1,1.3-2.7,1.3s-1.2-.8-1.2-1.4.4-.8.6-.9c.2-.1,1.1-.5,1.2-.6-.2-.1-.4-.2-1.2-.8-.2-.1-.6-.5-.6-.9s.6-1.2,1.3-1.2,2.1,1.1,2.8,1.5c.5-.4.6-.5,1.4-1.3h0ZM398.5,30.3c-.4-.6-.8-.9-1.8-2-.9-.9-1.1-1.1-1.1-1.8s.5-1.4,1.2-1.4.4.1.6.1c.4-.7.9-1.5,1.3-2.5.4-.8.6-1.3,1.2-1.3s1.5.5,1.5,1.2-1.4,3.1-2.2,4.2c.4.4.5.5.7.8.7-1.2.8-1.2,1.9-3.2.2-.4.6-.7.9-.7.7,0,1.5.6,1.5,1.3s-.8,1.7-1.2,2.2c-1.3,2-2.1,2.9-3.2,4.4.5,0,.7,0,2.2-.1-.4-1.1-.4-1.2-.4-1.4,0-.6.6-.8.9-.8.6,0,.8.5,1.1,1.1.4.8.8,2.6.9,2.9.5-.7.9-.7,1.1-.7.4,0,.6.1,1.8,1.2.4.4,1.2,1.2,1.2,1.9s-.5,1.2-1.3,1.2-.5-.1-1.2-.8c-.2-.2-1.3-1.3-1.5-1.7-.2.4-.6.5-1.1.5-.7,0-.8-.5-.9-1.2-.2,0-.4,0-1.4.1v9.1c0,.4,0,1.3-1.2,1.3s-1.2-.9-1.2-1.3v-8.8c-1.4.1-1.9.2-2.5.2s-1.3-.4-1.3-1.4.7-1.2,1.9-1.3l1.4-1.3h0ZM398.5,36.8c0,.5-.2,3.8-.7,5.4-.1.4-.2.8-.9.8s-1.3,0-1.3-1.1.4-1.8.4-2c.2-1.3.2-2.1.4-3.4,0-.6.1-1.1,1.1-1.1s1.2.8,1.2,1.3h0ZM406.9,38.2c.8-.6,1.1-.6,1.3-.6.7,0,1.2.7,1.2,1.4s-.2.8-1.8,1.9c-.7.5-2.4,1.7-2.9,1.7s-1.2-.7-1.2-1.5,0-.4.1-.5c-.8,0-.8-.4-1.1-1.9,0-.4-.2-2-.2-2.1,0-.7.8-.8,1.1-.8.8,0,.9.4,1.2,1.8,0,.1.2,1.5.2,2.1.7-.5,1.8-1.2,2.1-1.4ZM412.5,41.7c0,2.4-.5,2.7-2.8,2.7h-1.8c-.7,0-1.1-.8-1.1-1.4s.2-1.4,1.3-1.4h1.1c.4,0,.6-.2.6-.7v-8.6h-4c-.4,0-1.2,0-1.2-1.2s.4-1.3,1.2-1.3h8v-1.3h-6.8c-.4,0-1.2,0-1.2-1.1s.6-1.1,1.2-1.1h6.8v-.7c0-.2-.1-.6-.6-.6h-6.7c-.4,0-1.2,0-1.2-1.2s.2-1.3,1.2-1.3h7.5c1.7,0,2.6.6,2.6,2.6v4.8h.7c.7,0,1.1.5,1.1,1.2,0,1.2-.8,1.2-1.2,1.2h-4.6v1.3c.2.7.8,1.7,1.1,2,.4-.4,1.1-1.1,1.8-1.9.6-.7.8-.9,1.3-.9.8,0,1.4.7,1.4,1.3s-.1.8-.6,1.3c-.9,1.1-1.8,1.9-2.4,2.4.6.7,1.1,1.2,1.7,1.7,1.3,1.1,1.7,1.4,1.7,2s-.7,1.5-1.5,1.5-3.1-2.2-4.4-4.6v3.3h-.1ZM429.3,30.9c-.9,0-1.4-.4-1.4-1.2-.9.6-2.7,1.5-3.5,1.5s-1.5-.8-1.5-1.8.6-1.2,1.3-1.5c3.7-1.4,5.8-3.4,7.5-5.2.9-.9,1.4-1.3,2.6-1.3s1.5.4,2.9,1.7c1.3,1.3,3.3,3.2,7.3,4.8.7.2,1.2.6,1.2,1.4s-.7,1.8-1.5,1.8-2.5-.9-3.4-1.5c-.1,1.1-.8,1.2-1.5,1.2h-9.9ZM432.6,36c-.6,1.4-1.1,2.6-2.4,4.8,3.4,0,4,0,9.1-.5-.4-.5-.5-.6-1.4-1.7-.6-.6-.6-.8-.6-1.2,0-.7.9-1.4,1.7-1.4s.8.1,1.2.6c.9.9,2.1,2.1,3.2,3.7,1.2,1.4,1.4,1.9,1.4,2.5s-1.1,1.7-1.9,1.7-.8-.4-.9-.6c-.1,0-.6-.9-.7-1.1-2.5.2-5.2.5-7.7.7-1.2,0-7.4.5-8.5.5s-1.5,0-1.5-1.5,0-1.3,1.1-1.4h2.2c.8-1.7,1.8-3.2,2.4-5h-4.4c-1.1,0-1.5-.5-1.5-1.5s1.2-1.4,1.5-1.4h18.9c.9,0,1.5.4,1.5,1.5s-1.2,1.4-1.5,1.4h-11.1ZM438.5,28.2c-.7-.6-2.1-1.7-3.5-3.2-.4-.4-.5-.5-.7-.5s-.4.1-.7.5c-1.1,1.2-2.2,2.2-3.5,3.2h8.5Z"/>
            </g>
            <path class="cls-32" d="M14.7,14c.7,17.7,14.7,32,32.4,32.8-.7-17.7-14.7-32-32.4-32.8"/>
            <path class="cls-2" d="M98.1,0c-26.3,1.9-56.4,24.2-46.3,81.1,0-18.3,2.7-29.4,5-34.8,22.8-3.4,40.4-22.8,41.4-46.3"/>
            <path class="cls-30" d="M26.4,101.6h1.2c.4.2.6.6.6,1.1s-.2.9-.6,1.1h-5.3v4.1c0,.7,0,.9-.2,1.3-.2.4-.7.7-1.3.7s-1.1-.2-1.3-.7c-.1-.4-.2-.6-.2-1.3v-11.1c0-.5,0-.9.4-1.3.4-.4.9-.4,1.3-.4h7.4c.4.2.6.6.6,1.1s-.2.9-.6,1.1h-6.4v3.7h4.5v.7Z"/>
            <path class="cls-30" d="M35.2,110.2c-1.1,0-1.9-.4-2.6-.9-.8-.8-1.1-1.9-1.1-3.1v-6.2c.2-.4.6-.6,1.2-.6s.9.2,1.2.6v5.9c0,1.4.9,1.9,1.8,1.9s1.8-.5,1.8-1.9v-5.9c.2-.4.6-.6,1.2-.6s.9.2,1.2.6v8.5c0,.7,0,.9-.2,1.2-.2.4-.7.6-1.2.6s-.7,0-.8-.4c-.2-.2-.4-.5-.4-.8-.5.8-1.5,1.2-2.5,1.2"/>
            <path class="cls-30" d="M45,101.8h-1.2c-.4,0-.5-.5-.5-.9s0-.7.5-.9h1.2v-2.6c.2-.4.6-.6,1.2-.6s.9.2,1.2.6v2.6h1.8c.4,0,.5.5.5.9s0,.7-.5.9h-1.8v5.2c0,.5.2.9.8.9h.8c.4,0,.6.5.6.9s-.2.8-.6.9c-.2,0-.6.2-1.1.2h0c-2.2,0-3.1-1.5-3.1-3.1v-5.3h.1Z"/>
            <path class="cls-30" d="M54.8,102.1c-.4.2-.7.2-.9.2s-.6,0-.7-.4c-.2-.2-.4-.5-.4-.8,0-.6.5-1.1.9-1.3.8-.5,1.7-.6,2.7-.6,2.9,0,4.5,1.3,4.5,3.8v5.4c0,.7,0,.9-.2,1.2-.2.4-.7.6-1.2.6s-.7,0-.8-.4c-.2-.2-.4-.4-.4-.7-.8.7-1.4,1.1-2.7,1.1s-2.1-.4-2.7-.9-.9-1.4-.9-2.4c0-1.8,1.2-3.1,3.7-3.1h2.5v-.6c0-1.2-.6-1.7-1.9-1.7s-.8,0-1.4.5M58.4,105.6h-2c-1.1,0-1.5.5-1.5,1.2s.5,1.2,1.7,1.2,1.2,0,1.5-.5.5-.7.5-1.4v-.5h-.1Z"/>
            <path class="cls-30" d="M65.1,97.3v-1.2c.2-.4.6-.6,1.2-.6s.9.2,1.2.6v4.4c.7-.8,1.5-1.1,2.6-1.1s2,.4,2.6.9c1.1,1.1,1.1,2.7,1.1,4.5s0,3.5-1.1,4.5-1.5.9-2.6.9-1.9-.4-2.7-1.1c0,.4-.2.6-.4.7-.2.2-.5.4-.8.4s-.9-.2-1.2-.6c0-.4-.2-.5-.2-1.2v-11.2h.4ZM69.5,101.8c-1.7,0-1.8,1.3-1.8,3.1s.2,3.1,1.9,3.1,1.8-1.3,1.8-3.1-.4-3.1-1.9-3.1"/>
            <path class="cls-30" d="M79.4,102.1c-.4.2-.7.2-.9.2s-.6,0-.7-.4c-.2-.2-.4-.5-.4-.8,0-.6.5-1.1.9-1.3.8-.5,1.7-.6,2.7-.6,2.9,0,4.5,1.3,4.5,3.8v5.4c0,.7,0,.9-.2,1.2-.2.4-.7.6-1.2.6s-.7,0-.8-.4c-.2-.2-.4-.4-.4-.7-.8.7-1.4,1.1-2.7,1.1s-2.1-.4-2.7-.9-.9-1.4-.9-2.4c0-1.8,1.2-3.1,3.7-3.1h2.5v-.6c0-1.2-.6-1.7-1.9-1.7s-.8,0-1.4.5M83,105.6h-2c-1.1,0-1.5.5-1.5,1.2s.5,1.2,1.7,1.2,1.2,0,1.5-.5.4-.7.4-1.4v-.5Z"/>
            <g class="cls-35">
              <polygon class="cls-20" points="60.5 102.1 112.1 93 101 30.2 49.4 39.4 60.5 102.1"/>
            </g>
            <g class="cls-25">
              <polygon class="cls-19" points="2.2 30.2 54.1 39.6 43.2 102.1 -8.6 92.8 2.2 30.2"/>
            </g>
            <g id="_レイヤー_4のコピー">
              <circle class="cls-2" cx="584.6" cy="55.1" r="55.1"/>
              <g class="cls-34">
                <path class="cls-18" d="M653.5,69.2h-77.1c-3.4,0-6.1-2.7-6.1-6.1v-17.9c0-3.4,2.7-6.1,6.1-6.1h77.1c3.4,0,6.1,2.7,6.1,6.1v17.9c0,3.4-2.7,6.1-6.1,6.1Z"/>
                <g>
                  <path class="cls-16" d="M590.9,49.3v14.4c0,1.8-.4.9-1.3.9s-.9-.2-.9-.7v-5c-.9.8-2.6,1.9-4.2,2.8,0,.5-.2.7-.4.7-.4,0-.4-.2-1.3-2.6.4,0,.8,0,1.2-.2,1.3-.4,2.9-.8,4.7-1.7v-6.1h-5.2l-.2-.8h5.5v-1.9c0-2.8,0-3.4-.2-4.4,2.7.2,2.9.4,2.9.6s0,.4-.7.6v2.8h0l.4.4h-.2ZM595.9,53.3c1.1-.8,2.1-2,2.8-2.8.5-.6.9-1.2,1.2-1.9,1.8,1.1,2.5,1.7,2.5,2s-.2.4-1.1.4c-1.7,1.3-3.5,2.6-5.4,3.4v7c0,.8.2.9,2.5.9s1.4,0,2-.4.8-1.2,1.4-3.3h.4c0,.8-.2,2.2-.2,2.7s0,.4.4.5c.5.2.6.4.6.8s-.4,1.1-1.4,1.2c-.7.2-1.9.2-3.1.2-3.7,0-4.4-.4-4.4-2.5v-16.4c2.6.2,2.8.4,2.8.6s-.2.4-.6.6v6.7h-.2v.2Z"/>
                  <path class="cls-16" d="M616.4,57.5v6.1c0,.7-.4.9-1.3.9s-.9-.2-.9-.8v-9.8h-8.4l-.2-.8c.7,0,1.2.2,1.8.2h6.7v-5c-2.1.4-4.4.5-6.7.5s0-.2,0-.4c3.9-.6,7.2-1.7,9.7-2.6,1.2-.5,2.4-1.1,3.1-1.8,1.9,1.2,2.4,1.8,2.4,2s-.2.4-1.2.2c-1.4.6-3.2,1.1-5,1.4v5.3h5.4c1.2-1.3,1.4-1.7,1.7-1.7s.4.2,1.4,1.1c.5.4.6.6.6.7s0,.2-.4.2h-9v3.5h0l.5.2v.2Z"/>
                  <path class="cls-16" d="M630.9,53.1c-.7.9-1.7,1.9-2.7,2.7,0,0-.4,0-.2-.2,1.7-2,2.9-4.8,3.8-7.5.4-1.2.6-2.2.7-3.3,2,.5,2.8.9,2.8,1.2s-.2.4-.7.5c-.8,2-1.8,3.7-2.7,5.2,1.2.2,1.3.2,1.3.5s0,.4-.6.5v11.3c0,.6-.4.9-1.2.9s-.9-.2-.9-.7v-11h.5,0ZM639.4,56.4h-4.2l-.2-.8c.6,0,1.2.2,1.7.2h2.9v-5.3h-5l-.2-.8c.6,0,1.2.2,1.7.2h8.5c1.1-1.3,1.2-1.4,1.4-1.4s.4.2,1.4,1.1c.5.4.6.6.6.7s0,.2-.4.2h-6.1v5.3h2.4c1.1-1.3,1.2-1.4,1.4-1.4s.4.2,1.3,1.1c.4.4.6.6.6.7s0,.2-.4.2h-5.5v6.6h3.3c1.2-1.7,1.3-1.9,1.7-1.9s.4.2,1.7,1.2c.5.5.6.6.6.8s0,.2-.4.2h-14.7l-.2-.8c.7,0,1.2.2,1.9.2h4.2v-6.5h.2,0ZM640.9,48.8c-.6,0-.8-.2-1.2-1.2s-.8-1.7-1.7-2.2v-.2c2.8.4,3.9,1.2,3.9,2.6s-.5,1.2-1.2,1.2h.1Z"/>
                </g>
                <path class="cls-17" d="M653.7,104.4h-77.1c-3.4,0-6.1-2.7-6.1-6.1v-17.9c0-3.4,2.7-6.1,6.1-6.1h77.1c3.4,0,6.1,2.7,6.1,6.1v17.9c0,3.4-2.8,6.1-6.1,6.1Z"/>
                <g>
                  <path class="cls-16" d="M588.8,84.9v5.3c0,.6-.4.8-1.2.8s-.8-.2-.8-.7,0-2.6.2-4.7c-1.4,2-2.5,2.7-4.4,3.7,0,0-.2,0,0-.2,2-2.1,3.2-3.8,4.1-6.4h-3.4l-.2-.8c.6,0,1.1.2,1.4.2h2.5v-2.4c1.9,0,2.6.4,2.6.6s0,.4-.6.5v1.2h1.4c.7-.9,1.1-1.1,1.2-1.1.2,0,.4.2,1.2.7.4.2.5.4.5.6s0,.2-.4.2h-4.1v1.1c2.1.4,3.2,1.2,3.2,2.2s-.4,1.1-.9,1.1-.7-.2-1.1-1.1-.7-1.4-1.2-2v.7h.2v.2l-.2.2ZM588.5,78.9c.4-1.1.6-1.9.8-2.7,0-.4.2-.9.2-1.4,1.8.5,2.4.8,2.4,1.2s-.2.4-.7.4c-.8,1.2-1.2,1.8-2.1,2.7h1.3c.8-1.1,1.2-1.2,1.2-1.2.2,0,.4.2,1.2.8.4.4.5.5.5.6s0,.2-.4.2h-9.9l-.2-.8c.6,0,1.1.2,1.4.2h4.4ZM587.2,72.5v-1.7c2.4.2,2.7.4,2.7.6s-.2.4-.6.5v2h1.4c.6-.9.9-1.1,1.1-1.1.2,0,.4.2,1.2.7.4.2.5.4.5.6s0,.2-.4.2h-9l-.2-.8c.6,0,1.1.2,1.4.2h2v-1.4h-.2.1ZM586.2,78.4c-.6,0-.7-.2-.8-1.4,0-.7-.2-1.2-.5-1.9v-.2c1.4.5,2.4,1.3,2.4,2.4s-.4,1.2-1.1,1.2h.1-.1ZM595.9,78.8c0,2-.2,3.3-.4,4.5-.7,3.5-2.1,5.7-4.4,7.3,0,0-.4,0-.2-.2,1.9-2.2,2.7-4.4,3.1-8.4.2-1.8.2-3.7.2-6.1v-2.8c1.1.4,1.2.5,2.4.9.9-.4,2-1.2,2.8-2,.4-.4.8-.7,1.2-1.2,1.4.8,2.2,1.3,2.2,1.8s0,.4-.9.2c-1.8.7-4,1.4-5.4,1.8v3.5h4.4c.8-1.2,1.2-1.2,1.2-1.2.2,0,.4.2,1.2.9.4.4.5.5.5.6s0,.2-.4.2h-2.9v11.6c0,.5-.4.7-1.2.7s-.8-.2-.8-.6v-11.6h-2.5Z"/>
                  <path class="cls-16" d="M611.9,78.4c-1.4,4.1-3.2,6.8-6,9.1,0,0-.4,0-.2-.2,1.4-2,2.7-4.8,3.4-7.4.4-1.1.5-2.1.6-3.2,2.7.6,3.2.8,3.2,1.2s-.4.4-1.1.6h.1ZM614.9,74.3v-3.1c2.8.4,3.2.4,3.2.7s-.2.4-.8.6v15.8c0,1.2-.2,1.3-.7,1.9-.4.4-1.2.5-2,.5s-.6,0-.6-.5c0-.8-.6-1.3-2.6-2v-.4c1.1,0,2.4.2,3.2.2s.4,0,.4-.4v-13.6h0ZM623.9,86.7c-.8,0-1.1-.5-1.3-2.6-.4-2.8-1.8-5.3-3.2-7.2,0,0,0-.2.2-.2,3.3,2.6,5.8,6,5.8,8.3s-.5,1.9-1.3,1.9h-.2Z"/>
                  <path class="cls-16" d="M637.3,80.1c-.5,1.2-1.3,2.5-2.2,3.5,0,0,.2,0,.5.2h8.1c.8-.9,1.1-1.1,1.2-1.1.2,0,.4,0,1.2.8.4.4.5.5.5.7s0,.4-.6.7v5.2c0,.6-.4.9-1.2.9s-.9-.2-.9-.7v-.6h-8.5v.6c0,.6-.5.8-1.3.8s-.8-.2-.8-.6v-5c-1.3,1.2-2.9,2.2-4.7,2.8,0,0-.2,0,0-.2,2.8-2,5.2-4.8,6.2-7.9h-5.7l-.2-.8c.7,0,1.3.2,2,.2h14c1.2-1.2,1.3-1.4,1.7-1.4s.4.2,1.4.9c.5.4.6.5.6.7s0,.2-.4.2h-11v-.2h.1,0ZM632.9,76.5v.4c0,.6-.4.8-1.2.8s-.8-.2-.8-.7v-5.3c2.5.4,2.8.4,2.8.6s-.2.4-.6.5v2.9h4.4v-5.3c2.6.2,2.8.5,2.8.7s-.2.4-.6.5v4h5v-4.2c2.5.2,2.8.4,2.8.6s-.2.4-.6.5v3.8c0,.7-.4.9-1.2.9s-.8-.2-.8-.7v-.4h-11.6l-.2.2-.2.2ZM643.9,84.4h-8.5v4.7h8.5v-4.7Z"/>
                </g>
                <path class="cls-22" d="M653.3,35h-77.1c-3.4,0-6.1-2.7-6.1-6.1V11c0-3.4,2.7-6.1,6.1-6.1h77.1c3.4,0,6.1,2.7,6.1,6.1v17.9c0,3.4-2.7,6.1-6.1,6.1Z"/>
                <g>
                  <path class="cls-14" d="M600.1,29.9c.9-1.2,1.1-1.2,1.2-1.2s.4,0,1.4.9c.6.5.7.6.7.8s0,.4-.6.7v4.4c0,.9-.5,1.8-1.3,2.1-.5.2-.9.4-1.3.4s-.4,0-.5-.5c0-.7-.4-1.2-.9-1.4v2.1c0,.6-.5,1.1-1.9,1.1s-.9-.4-.9-.8v-8.1h-1.1s-.2,0-.4.4v6.2c0,.6-.5,1.1-1.3,1.1s-.9-.2-.9-.7v-2.2c-2.5,1.2-4.5,2.2-7.1,3.3-.2.6-.4.8-.5.8-.4,0-.5-.2-1.4-3.3h1.3c.6,0,1.3,0,2.1-.2v-5.9h-2.8l-.2-.7h3.1v-2.8h-1.1v-.4c-.9.9-2,2-2.8,2.7h-.2c1.2-1.8,2.8-5.1,3.5-8.5,0-.2,0-.6.2-1.2,2.8.7,3.3,1.1,3.3,1.4s-.2.4-.7.5h0c2.4.4,3.5,1.2,3.5,2.5s-.6,1.3-1.2,1.3-.9-.4-1.2-1.1c-.2-1.1-.6-1.9-1.2-2.4-.8,1.8-1.9,3.2-2.8,4.4h2.9c.7-.8,1.1-1.2,1.1-1.2,0,0,.4.2.8.6.6.6.7.7.7.8s-.1.2-.4.2h-2s0,.2-.4.4v2.5h.4c.7-.9,1.1-1.3,1.2-1.3s.5.2.8.6c.7.7.7.8.7.9s-.1.2-.4.2h-2.8v4.2c.2-.6.5-1.3.9-2.7,0-.2,0-.5.2-.9,2.1,1.2,2.2,1.3,2.2,1.7s0,.4-.7.4c-1.2,1.1-1.9,1.7-2.7,2.4v.5c1.2-.2,2.4-.4,3.5-.6v-5.7c2,.5,2.6.7,2.8.9h1.1v-2.7h-1.1c0,.7-.4,1.1-1.7,1.1s-.7,0-.7-.7v-6.7c2,.4,2.6.6,2.8.8h.2c0-.8.2-1.3.2-2.1v-.9c3.2.4,3.5.6,3.5.9s0,.4-.9.6c-.5.5-1.1,1.1-1.7,1.4h2.7c.9-1.1,1.1-1.2,1.2-1.2.2,0,.4,0,1.2.7.8.6.9.8.9,1.1s0,.2-.5.6v4.4c0,.5-.5.8-1.7.8s-1.1,0-1.1-.7h-.7c0,.2,0,.4-.4.5v2.2h1.7-.4v.5ZM584.3,33.1c0-.9,0-1.9-.5-2.2,0,0,0-.2,0,0,1.8.4,2.6,1.7,2.6,2.7s-.6,1.4-1.2,1.4-.9-.4-.9-1.1v-.7h.1-.1ZM595.4,22h-.4v2h4.7v-2.1h-4.4.1-.1ZM595.1,26.9h4.7v-2.1h-4.7v2.1ZM598.6,30.8v5.2h.7c.6,0,.7-.4.7-.9v-4.5h-1.8v.4h.4Z"/>
                  <path class="cls-14" d="M613.5,33.5c0,.2-.2.4-.8.5-1.8,2.2-4.7,4.2-7.2,5.1,0,0-.2,0,0-.2,1.7-.9,3.5-3.4,4.4-5.4.2-.5.4-.8.5-1.3,3.1,1.1,3.3,1.2,3.3,1.4h-.1ZM616.8,33.6v4.7c0,.6-.4,1.1-2,1.1s-1.2-.2-1.2-.8v-7.8c-2.1.4-4.1.7-5.7,1.1-.2.4-.4.5-.6.5s-.4-.2-1.4-3.8h7.5c1.2-2,2-2.8,3.2-5.2.7-1.2.9-1.9,1.2-2.2,3.4,1.8,3.5,1.9,3.5,2.2s-.2.5-1.1.5c-1.9,1.7-3.2,2.8-5.2,4.5h5.2c-.4-.9-1.1-1.8-1.9-2v-.2c3.5.2,5.2,2.1,5.2,3.8s-.6,1.7-1.7,1.7-1.2-.4-1.3-1.3c0-.4,0-.6-.2-1.1-1.1.2-2.4.5-3.5.7v.2c0,.2-.2.4-.5.5v2.7h0l.4.2h0ZM609.1,23c1.2,0,2.4.2,3.1.5.4-1.2.6-2.7.8-3.5,0-.7,0-.9.2-1.4,3.8,1.2,4,1.3,4,1.8s-.2.5-.9.6c-.9.9-2.1,2.2-3.2,3.2.7.5,1.2,1.2,1.2,2s-.7,1.9-1.7,1.9-1.2-.4-1.3-1.4c-.4-1.7-1.1-2.7-2.2-3.3h-.1v-.2ZM624.3,36.4c0,1.1-.7,1.8-1.7,1.8s-1.2-.4-1.4-1.2c-.5-2-1.9-3.5-3.4-4.2v-.2c4.4,0,6.4,2.2,6.4,4h.1Z"/>
                  <path class="cls-14" d="M644.2,21.8c1.4-2,1.7-2,1.9-2s.4,0,1.2.9.9.9.9,1.2,0,.2-.4.2h-2.4c0,.2,0,.4-.5.6v13.4c0,1.1-.6,2.2-1.7,2.7-.4.2-.8.4-1.4.4s-.5-.2-.6-.6c-.2-.6-.7-1.2-2.5-1.9v-.2h2.2c.5,0,.9-.4.9-.9v-13.3h-3.9v11.9c0,.5-.4.9-2,.9s-.7,0-.7-.7v-1.1h-5.2v1.3c0,.6-.5.9-1.8.9s-.8-.2-.8-.7v-15.6c2,.5,2.7.8,2.9,1.2h4.4c.9-1.2,1.1-1.2,1.2-1.2s.4,0,1.3.8c.8.6.8.7.8.9s0,.4-.6.7v.4h6.1v-.6l.4.2ZM631,20.8s-.2.2-.5.4v5.3h1.3v-5.7h-.8,0ZM630.4,32.9h1.3v-6h-1.3v6ZM635.7,20.8h-1.2s0,.2-.4.4v5.2h1.4v-5.7h.1ZM635.7,32.9v-6h-1.4v6h1.4Z"/>
                </g>
              </g>
              <g id="_錦糸町" data-name="錦糸町">
                <g class="cls-7">
                  <g class="cls-7">
                    <path class="cls-15" d="M557.4,30.4v5c1.1-.2,2.1-.3,3.2-.4v2.2c-2.8.5-5.9,1-7.9,1.3,0,.2-.2.3-.4.4l-.8-2.8c1-.1,2.2-.3,3.5-.4v-5.3h-3.1v-2.3h3.1v-1.7h-1.9v-.2h0c-.4-.5-1.2-1.4-1.8-1.7,1.8-1.8,3.2-4.2,3.9-6l2.9.5c0,.2-.2.3-.5.3h0c1.3,1.1,2.9,2.3,3.7,3.2l-1.5,2.2-.2-.2v1.9h-2.2v1.7h2.9v2.3h-2.9ZM553,35.4c-.1-1.1-.5-2.7-.9-3.9l1.7-.5c.4,1.2.8,2.8,1,3.9l-1.8.6ZM559.3,24.2c-.8-.8-1.9-1.8-2.9-2.6-.5.9-1.1,1.7-1.7,2.6h4.6ZM560.8,31.6c0,.2-.3.2-.6.2-.2.9-.7,2.3-1.1,3.2l-1.6-.6c.3-1,.7-2.5.9-3.6l2.4.7ZM572,30.2v5.3c0,2-.7,2.5-3.2,2.5,0-.7-.4-1.7-.7-2.3.6,0,1.1,0,1.3,0s.2,0,.2-.2v-3h-1.9v7.1h-2.5v-7.1h-1.7v5.5h-2.4v-7.8h4.1v-1.5h-3.8v-8h3.4c.2-.7.4-1.6.6-2.2l3.1.6c0,.2-.2.3-.6.3-.2.4-.4.9-.6,1.3h4.4v8h-3.5c0,.1-.2.2-.5.2v1.3h4.4ZM563.8,22.8v1h5.4v-1h-5.4ZM563.8,25.7v1.1h5.4v-1.1h-5.4Z"/>
                    <path class="cls-15" d="M589.9,25.5c1.9,1.8,4.2,4.3,5.3,6l-2.5,1.6c-.3-.5-.6-1.1-1.1-1.7l-5.8.2v8h-2.9v-8c-2.8,0-5.4.1-7.4.1,0,.2-.3.4-.5.4l-.8-3.2c1.4,0,3.1,0,5,0,.5-.4,1-.8,1.6-1.2-1.4-1.3-3.5-2.8-5.2-3.8l1.8-2c.4.2.9.5,1.3.8,1.3-1.3,2.6-3,3.4-4.4l3,1.6c-.1.2-.4.2-.7.2-.9,1.2-2.4,2.8-3.7,4,.8.6,1.6,1.1,2.2,1.6,1.9-1.8,3.8-3.7,5.2-5.4l3,1.7c-.1.2-.4.2-.7.2-1.9,2.1-4.7,4.6-7.3,6.7,2.1,0,4.3,0,6.5,0-.7-.8-1.3-1.5-2-2.1l2.3-1.4ZM581.7,34c-.1.2-.3.3-.6.2-1.2,1.7-3,3.6-4.5,5-.6-.5-1.6-1.3-2.3-1.6,1.6-1.2,3.3-3.1,4.3-4.7l3.2,1.2ZM592.1,39.1c-.9-1.4-3-3.5-4.7-5.1l2.3-1.4c1.7,1.4,3.9,3.5,4.9,4.9l-2.5,1.5Z"/>
                    <path class="cls-15" d="M607.1,19.6v15.9h-7.7v1.7h-2.3v-17.6h10ZM601,21.9h-1.6v4.3h1.6v-4.3ZM599.4,28.5v4.6h1.6v-4.6h-1.6ZM604.8,26.2v-4.3h-1.7v4.3h1.7ZM603.1,33.1h1.7v-4.6h-1.7v4.6ZM617.5,21v2.6h-2.8v12.9c0,2.7-1.2,3.1-5.7,3.1-.1-.8-.5-2-.9-2.7.8,0,1.6,0,2.3,0,1.4,0,1.5,0,1.5-.5v-12.9h-4.3v-2.6h9.9Z"/>
                  </g>
                </g>
                <g class="cls-7">
                  <g class="cls-7">
                    <path class="cls-15" d="M558.3,58.1v.3c.7.4,2.8,1.9,3.3,2.3l-1.5,1.9c-.4-.4-1.1-1.1-1.8-1.8v4.7h-2.6v-4.3c-.9,1.2-1.8,2.2-2.7,2.9-.4-.6-1.2-1.5-1.7-1.9,1.5-.9,3-2.6,4.1-4.2h-3.5v-2.3h3.9v-1.6h-4.2v-2.2h2.2c-.1-.8-.4-1.8-.8-2.6l1.5-.4h-2.5v-2.2h3.7v-2.3l3.2.2c0,.2-.2.4-.6.4v1.7h3.7v2.2h-2.2l1.8.5c0,.2-.2.2-.6.3-.2.7-.6,1.5-1.1,2.3h2.5v2.2h-3.6c0,0-.2.2-.5.2v1.4h3.8v2.3h-3.8ZM557.6,52c.3-.8.7-2,1-3h-3.5c.4,1,.8,2.1.9,3h-.1s1.8,0,1.8,0h0ZM572.6,52v2.5h-2.2v11.2h-2.6v-11.2h-2.2c0,3.3-.5,8.1-3.5,11.2-.3-.6-1.3-1.5-1.9-1.8,2.6-2.7,2.9-6.5,2.9-9.5v-7.7l1.4.4c2.1-.7,4.2-1.6,5.5-2.4l2.5,1.9c-.1.1-.4.1-.6.1-1.6.8-3.9,1.7-6.2,2.3v3h7Z"/>
                    <path class="cls-15" d="M580.7,50.7c0,.2-.3.4-.6.3-.7,2.9-1.9,7.1-3.7,9.6-.6-.4-1.9-1.1-2.6-1.4,1.8-2.3,3-6.2,3.4-9.2l3.5.7ZM583.1,44.8l3.6.2c0,.2-.2.4-.6.5v16.8c0,2.8-1,3.4-6.2,3.4-.2-.8-.7-2.1-1.1-2.8,1.1,0,2.3,0,3,0s1.3,0,1.3-.6v-17.4ZM592.4,61c-.5-2.7-2.2-7-4-10.3l2.6-1c1.8,3.2,3.7,7.3,4.3,10.1l-2.9,1.2Z"/>
                    <path class="cls-15" d="M617,54.9h-11.6c-.4.8-.9,1.5-1.4,2.3h11.6v8.4h-2.8v-.8h-9.1v.9h-2.7v-5.2c-1,.9-2.2,1.8-3.4,2.5-.4-.6-1.2-1.7-1.7-2.2,2.6-1.3,4.8-3.5,6.2-5.9h-5.4v-2.5h20.2v2.5ZM616.2,45.6c0,.2-.2.4-.6.4v4.8h-17.2v-5.5l3.3.2c0,.2-.2.4-.6.4v2.4h4.4v-4l3.4.2c0,.2-.2.4-.6.4v3.4h4.5v-3l3.5.2ZM612.8,62.4v-2.8h-9.1v2.8h9.1Z"/>
                  </g>
                </g>
                <g class="cls-7">
                  <g class="cls-7">
                    <path class="cls-15" d="M557.4,75.8v-5l3.4.2c0,.2-.2.4-.6.4v19.9h-2.8v-4.7c-1.7.7-3.3,1.4-4.5,1.9,0,.2-.2.4-.3.4l-1.3-3c1.5-.4,3.8-1.3,6.1-2.1v-5.5h-5.3v-2.7h5.3ZM565.9,87c0,1.3.1,1.4.9,1.4h2.4c.9,0,1-.9,1.2-4.5.6.5,1.8,1.1,2.6,1.2-.3,4.3-.9,6-3.5,6h-3c-2.6,0-3.3-.9-3.3-4.1v-16.2l3.4.2c0,.2-.2.4-.6.4v6.2c1.7-1.1,3.4-2.4,4.6-3.4l2.1,2.5c0,0-.3.2-.6.1-1.6,1.2-3.9,2.5-6.1,3.7v6.6Z"/>
                    <path class="cls-15" d="M594.7,79.2v2.7h-8.9v9.6h-2.9v-9.6h-8.7v-2.7h8.7v-4.4c-2.2.3-4.5.5-6.6.7,0-.7-.5-1.9-.8-2.5,5.4-.4,11.3-1.3,14.9-2.4l2.2,2.5c0,0-.2,0-.4,0s-.2,0-.3,0c-1.7.5-3.7.9-5.8,1.2h.3c0,.2-.2.4-.6.5v4.4h8.9Z"/>
                    <path class="cls-15" d="M599.1,80.1c-.6.9-1.3,1.8-1.9,2.5-.2-.7-.9-2.1-1.3-2.7,2-2.1,4-5.8,5.2-9.4l3,1c0,.2-.3.3-.6.3-.6,1.4-1.2,2.9-1.9,4.3l.8.2c0,.2-.2.4-.6.4v14.9h-2.6v-11.5ZM611.6,88.3h5.8v2.6h-14.6v-2.6h6v-4.5h-4.8v-2.5h4.8v-3.9h-5.5v-2.6h6.4c-1.1-.9-2.6-1.8-3.8-2.5l1.8-1.9c1.7.9,4,2.3,5.1,3.3l-1,1.1h5.2v2.6h-5.5v3.9h4.9v2.5h-4.9v4.5Z"/>
                  </g>
                </g>
              </g>
              <g id="_新小岩" data-name="新小岩" class="cls-34">
                <g class="cls-7">
                  <text class="cls-12" transform="translate(581.9 37.6)"><tspan x="0" y="0">新小岩</tspan></text>
                </g>
                <g class="cls-7">
                  <text class="cls-12" transform="translate(581.9 63.6)"><tspan x="0" y="0">北千住</tspan></text>
                </g>
                <g class="cls-7">
                  <text class="cls-12" transform="translate(581.9 89.5)"><tspan x="0" y="0">錦糸町</tspan></text>
                </g>
              </g>
              <g id="_北千住" data-name="北千住" class="cls-34">
                <g class="cls-7">
                  <text class="cls-12" transform="translate(581.9 37.6)"><tspan x="0" y="0">北千住</tspan></text>
                </g>
                <g class="cls-7">
                  <text class="cls-12" transform="translate(581.9 63.6)"><tspan x="0" y="0">新小岩</tspan></text>
                </g>
                <g class="cls-7">
                  <text class="cls-12" transform="translate(581.9 89.5)"><tspan x="0" y="0">錦糸町</tspan></text>
                </g>
              </g>
              <g id="_埼玉" data-name="埼玉" class="cls-34">
                <g class="cls-7">
                  <text class="cls-11" transform="translate(588.4 65.1)"><tspan x="0" y="0">埼玉</tspan></text>
                </g>
              </g>
              <g id="_佐倉" data-name="佐倉" class="cls-34">
                <g class="cls-7">
                  <text class="cls-11" transform="translate(588.4 48.6)"><tspan x="0" y="0">佐倉</tspan></text>
                </g>
                <g class="cls-7">
                  <text class="cls-11" transform="translate(574.8 82.4)"><tspan x="0" y="0">八千代</tspan></text>
                </g>
              </g>
              <g id="_八千代" data-name="八千代" class="cls-34">
                <g class="cls-7">
                  <text class="cls-11" transform="translate(574.8 48.6)"><tspan x="0" y="0">八千代</tspan></text>
                </g>
                <g class="cls-7">
                  <text class="cls-11" transform="translate(588.4 82.4)"><tspan x="0" y="0">佐倉</tspan></text>
                </g>
              </g>
            </g>
          </g>
        </g>
      </g>
      <g id="_レイヤー_1-3" data-name="_レイヤー_1">
        <g id="_レイヤー_1-2-2" data-name="_レイヤー_1-2">
          <path class="cls-23" d="M126.9,76.2c0,2.1-2.7,11.1-4,14.5-1.1,2.8-2.1,5.1-4.5,5.1s-4.4-1.4-4.4-3.7.2-1.7,1.3-3.4c1.7-3.1,3.1-8,3.7-10.4.7-3.2,1.2-5.3,3.9-5.3s.8,0,1.3,0c1.1.4,2.7,1.1,2.7,3.1M155,77.7c-1.5-3.3-4.4-6.1-8-6.1s-3.2,1.8-3.4,2.7c0,.2-.1.6-.1.9,0,1.1.5,1.7.7,1.9.2.2,1.9,1.3,2.2,1.5,2.5,2.1,3,8.6,3.3,12.6.1,1.2.4,3.8,3.9,3.8s2.5-.4,3.3-1.3c.5-.6.8-1.4.8-3s-.7-9-2.7-13.1M145.4,65.6c2.1-.2,4-.7,4-3.8s-2.6-3.4-5.2-3.7c-5.7-.4-11-1.2-13.6-1.7-.9,0-5.3-1.2-6.4-1.2-2.4,0-3,2.1-3.2,3.2-.4,3,1.7,3.5,3.7,4s5,1.1,8,1.5c-2.5,1.4-4.1,3.8-3.9,7.2.2,4.5,3.1,8.2,4.4,9.6,2.6,3.1,3.7,4.3,3.7,6.4s-.1,3.3-3.4,3.3-2.1-.2-2.7-.5c-1.8-.6-2-.7-2.7-.7-3.4,0-3.4,3.7-3.4,3.9,0,1.3.5,2.4,2,3.2,2.8,1.5,6.3,1.9,8,1.9,8,0,10.4-6.1,10.4-9.9s-1.5-7-5.2-10.9c-6.3-6.6-5-10.5,5.6-11.9M177.9,56.3c.7-.9,1.9-1.2,2.8-1.2,1.9,0,4.1.6,4.1,3.2s-.1,1.4-.4,2.8c3.9,0,8.5-.2,11.6-.4.6,0,3.2-.2,3.7-.2.9,0,3.8,0,3.8,3.7s-2.4,3.4-3.9,3.5c-5,.2-11.1.5-16.5.6-1.3,6.1-7.1,26.7-9.1,28.8-.4.4-1.1.9-2.4.9s-4.5-.7-4.5-3.4.8-2.8,1.3-3.8c1.9-4.4,4.3-11.6,5.6-16.5.5-2.1,1.1-4.6,1.4-5.8-2.7,0-5.6,0-6.5-.5-1.3-.7-1.4-2.1-1.4-3.1,0-3,1.5-3.7,3.9-3.7h5.2c.7-4,.7-4.5,1.3-5.1M199.3,97.8c-11.5,0-16.4-1.9-16.4-8.2s0-5.9,4.7-5.9,3.7.7,3.7,2.5-.1.8-.2,1.1c-.2.8-.4.9-.4,1.4,0,.8.6,1.4,2.2,1.8,1.3.2,3,.2,4,.2s3.9,0,7.1-.5c.6,0,1.7-.2,2.1-.2,2.1,0,3.4,1.2,3.4,3.4,0,3.5-1.7,4.4-10.3,4.4M207.1,78.6c-.6.5-1.3.6-2.4.6s-4.5-.2-5.2-.2c-3.1,0-4.4,0-8.9.5h-1.8c-3.2,0-3.2-3.2-3.2-3.7,0-1.5.6-2.8,2.8-3.4,3.1-.7,8.6-.8,11.9-.8,7.3,0,7.8,1.2,7.8,4.1s-.4,2.1-1.2,2.8M229.7,59c0,.6-.9,6.6-1.1,7.9-.4,3.9-.6,7.8-.6,11.7s.2,8.6.8,12.9c.1,1.1.2,2.5.2,3.1,0,2.4-1.4,3.3-3.7,3.3s-3,0-3.7-2.4c-.7-2.5-1.2-10.4-1.2-17.3,0-10.5,1.3-18.8,1.7-20,.4-1.3,1.2-3,4.5-2.6,2.4.5,3,1.7,3,3.3M245.7,59.7c0-1.3,0-4,3.9-4s3.9,2.6,3.9,4v4.1c.8,0,4.7-.2,5-.2.9,0,3.7,0,3.7,3.7s-1.3,3.2-2,3.3c-.8.2-1.1.2-6.5.5v9.7c4,2.1,6.1,3.8,7.6,5.1.9.9,1.5,2.1,1.5,3.3,0,2.1-1.8,4.3-3.9,4.3s-1.9-.6-3.4-2.4c-.2-.2-1.9-1.7-2.1-1.9-.1,2.6-.5,8.6-10.2,8.6s-11.7-5-11.7-9.8,4.5-9.7,11.3-9.7,2.6.2,3.4.2l-.2-7.2h-10.8c-3.3,0-3.9,0-3.9-3.7s1.8-3.3,2.8-3.4c.6,0,9.6-.2,11.7-.2v-4.4h-.1ZM242.7,84.6c-1.2,0-4.7.2-4.7,3.7s3.7,3.4,4.4,3.4c1.1,0,3.1-.2,3.7-1.9.2-.7.2-1.1.2-4.4-.9-.5-1.9-.8-3.5-.8M254.3,56.4c-.1-.4-.1-.7-.1-.8,0-1.3,1.3-1.5,1.9-1.5s1.4.6,1.8,1.5c.8,2.1,1.4,3.9,1.4,5,0,1.5-1.5,1.7-1.8,1.7-.7,0-1.2-.2-1.5-1.2-.1-.4-.7-2.1-.8-2.4,0-.4-.7-1.8-.8-2.2M259.8,55.6c-.1-.4-.1-.7-.1-.8,0-1.3,1.4-1.5,1.9-1.5,1.1,0,1.4.8,1.9,2.1.5,1.3,1.2,3.4,1.2,4.5,0,1.5-1.7,1.7-1.9,1.7-.5,0-1.1,0-1.5-1.2-.1-.4-.6-2-.7-2.4,0-.5-.7-2-.7-2.4"/>
          <g>
            <g>
              <path class="cls-36" d="M305.7,68.6h-15.2c.7-1.9.7-2.1.7-2.4,0-1.4-1.7-1.8-2.6-1.8-1.9,0-2.2.8-3.1,4.1h-8.9c-1.4,0-2.2.8-2.2,2.2s.7,2.1,2.2,2.1h7.1c-.9,2.1-3.1,5.8-6.3,8.5-3.2,2.7-3.3,2.7-3.3,3.8,0,1.5,1.1,2.7,2.4,2.7s1.1-.2,2.8-1.8v10c0,1.3.5,2.1,2.4,2.1s2.1-1.7,2.1-2.1v-15c2.6-3.4,4.3-7,4.7-8.2h16.9c1.4,0,2.2-.8,2.2-2.2.2-1.5-.7-2.2-2-2.2h0Z"/>
              <path class="cls-36" d="M305.7,92.7h-6.9v-8.7h5.9c1.4,0,2.2-.7,2.2-2.1s-.8-2.1-2.2-2.1h-5.9v-3.8c0-1.5-.8-2.1-2.5-2.1s-2.1,1.1-2.1,2.1v3.7h-5.9c-1.4,0-2.2.7-2.2,2.1s.9,2.1,2.2,2.1h5.9v8.7h-7.1c-1.4,0-2.2.7-2.2,2.2s.8,2.1,2.2,2.1h18.4c1.4,0,2.2-.8,2.2-2.2s-.9-2-2.1-2h0Z"/>
              <path class="cls-36" d="M345.3,85.3c.9,0,1.7-.5,1.7-2,0-2.2-1.5-2.1-2.1-2l-14.7,1.3v-3.9c3.8-.5,5.7-.8,8.9-1.5.9-.2,1.9-.6,1.9-1.8s-.4-2.4-1.9-2.4-1.1,0-1.4.2c-7.1,1.7-12.3,2-17.7,2.4-.2,0-.8,0-1.3.4.1-.2.1-.5.1-1.2v-2c0-.8.5-1.2,1.2-1.2h20.6c.8,0,1.2.5,1.2,1.2v1.9c0,1.4.5,2.1,2.4,2.1s2.1-1.2,2.1-2.1v-3c0-3.2-1.3-4.1-4.1-4.1h-9.5v-1.2c0-1.4-1.1-1.8-2.6-1.8s-2.1.5-2.1,1.8v1.3h-9.3c-2.7,0-4.1.9-4.1,4.1v3c0,1.3.5,2.1,2.2,2.1s1.2,0,1.4-.4c-.2.4-.2.7-.2.9,0,.6.1,2.2,2,2.2s2.7,0,5.8-.5v3.8l-10.3.9c-1.1,0-1.8.5-1.8,1.9,0,2.4,1.7,2.2,2.1,2.1l9.9-.9v6.5c0,1.2,0,3.9,3.3,4h11.5c9.7,0,5.3,0,5.3-7.1s0-2.2-2.4-2.2-2.1,1.4-2.1,2.1c-.1,2.5-.2,3-1.1,3.2h-9.3c-.2,0-.6-.4-.6-1.3v-5.6l15.1-1.5h0Z"/>
            </g>
            <g>
              <path class="cls-13" d="M381,70.6h-10.8c.9-1.8,1.2-2.4,1.2-3.1,0-1.3-1.4-1.9-2.5-1.9-1.5,0-1.8.6-3.1,3.2-.6,1.1-3.3,5.6-7.4,8.6-1.7,1.2-1.9,1.4-1.9,2.4s1.1,2.4,2.4,2.4c2.4,0,6.9-5,8.6-7.4h10.5c.9,0,1.3,0,1.3.7s-1.1,3.9-2,5.7c-3.7,7.2-9.8,9.6-15.6,11-2.6.6-3.3.8-3.3,2.4s.2,2.5,2.4,2.5,8.7-1.4,14.4-5.9c8.2-6.4,9.6-16.2,9.6-17.6-.2-1.5-1.2-2.8-3.8-2.8h0Z"/>
              <path class="cls-13" d="M399.2,84.3v-15.5c0-1.7-.9-2.2-2.5-2.2s-2.5,1.2-2.5,2.2v15.5c0,1.7.9,2.2,2.5,2.2s2.5-1.2,2.5-2.2Z"/>
              <path class="cls-13" d="M414.9,66.1c-2.1,0-2.5,1.2-2.5,2.4v13.5c0,2.2-.2,4.3-2,6.4-1.9,2.1-4.6,3.3-10.3,3.8-2.4.2-3.5.4-3.5,2.2s2.2,2.5,2.7,2.5c.8,0,3.4,0,6.7-.9,10.8-3,11.5-10,11.5-14.2v-13.4c0-1.7-1.1-2.2-2.6-2.2h0Z"/>
              <path class="cls-13" d="M430.8,73.5h21.5c1.3,0,2.4-.5,2.4-2.4s-1.8-2.4-2.4-2.4h-21.5c-1.1,0-2.4.4-2.4,2.4-.1,2.4,1.8,2.4,2.4,2.4Z"/>
              <path class="cls-13" d="M455,89.5h-26.7c-1.4,0-2.4.6-2.4,2.4s1.8,2.4,2.4,2.4h26.7c1.4,0,2.4-.6,2.4-2.4s-1.8-2.4-2.4-2.4Z"/>
              <path class="cls-13" d="M474.5,81.6c.2,1.1.6,2.4,1.8,2.4s2.7,0,2.7-2.1-1.4-5.7-2.2-7.4c-.5-.9-.8-1.7-2.1-1.7s-2.4.7-2.4,1.9.1.8.2,1.2c.9,1.5,1.4,3,2,5.8h0Z"/>
              <path class="cls-13" d="M487.1,73.6h-.7c-1.7,0-2,1.3-2.1,2.2-.7,3.5-.8,3.9-1.3,5.3-2.8,8.4-9.3,10.5-12.2,11.3-2.5.7-3.2.9-3.2,2.2s.5,2.4,2.1,2.4,9.1-1.3,14.4-8.9c3.9-5.7,4.6-12.4,4.6-12.5,0-.7-.2-1.7-1.7-2h0Z"/>
              <path class="cls-13" d="M471.3,83.5c0-.6-.1-.9-.4-1.8-2-5.7-2.7-7.3-4.4-7.3s-2.4.7-2.4,1.9.2.9.4,1.3c.7,1.5,1.3,2.8,2.1,5.7.4,1.3.7,2.2,2,2.2s2.6-.2,2.6-2Z"/>
              <path class="cls-13" d="M519.6,70.6h-10.8c.9-1.8,1.2-2.4,1.2-3.1,0-1.3-1.4-1.9-2.5-1.9-1.5,0-1.8.6-3.1,3.2-.5,1.1-3.3,5.6-7.4,8.6-1.7,1.2-1.9,1.4-1.9,2.4s1.1,2.4,2.4,2.4c2.4,0,6.9-5,8.6-7.4h10.5c.9,0,1.3,0,1.3.7s-1.1,3.9-2,5.7c-3.7,7.2-9.8,9.6-15.6,11-2.6.6-3.3.8-3.3,2.4s.2,2.5,2.4,2.5,8.7-1.4,14.4-5.9c8.2-6.4,9.6-16.2,9.6-17.6-.2-1.5-1.2-2.8-3.8-2.8h0Z"/>
            </g>
          </g>
          <g id="_爽緑会" data-name="爽緑会" class="cls-34">
            <g>
              <path class="cls-30" d="M221.3,22.9c.4,0,1.5,0,1.5,1.4s-1.2,1.4-1.5,1.4h-16c-.6,0-.9.2-.9.9v13.9c0,.7.4.9.9.9h16.4c.4,0,1.5,0,1.5,1.4s-1.2,1.4-1.5,1.4h-17.1c-2.1,0-3.3-.7-3.3-3.3v-15c0-2.5,1.1-3.3,3.3-3.3h16.7ZM220.8,32.6c.4,0,1.3,0,1.3,1.3s-.9,1.3-1.3,1.3h-5.1c1.4,1.5,2.4,2.4,5.3,3.2.5,0,1.1.4,1.1,1.2s-.2,1.5-1.4,1.5-5.1-1.4-7.1-4.8c-2.4,4-6,4.8-6.6,4.8-1.1,0-1.4-1.1-1.4-1.5,0-.8.6-1.1,1.1-1.2,1.5-.5,3.4-1.1,4.7-3.2h-4.8c-.4,0-1.3,0-1.3-1.2s.8-1.3,1.3-1.3h5.7s.1-.6.1-.8v-1.5h-2.6c-1.3,1.9-1.9,2.1-2.4,2.1-.7,0-1.5-.6-1.5-1.4s.1-.6,1.2-1.8c.7-.7,1.2-1.5,1.8-2.6.2-.6.7-.9,1.3-.9s1.4.4,1.4,1.3-.1.6-.2.9h8.9c.4,0,1.3,0,1.3,1.2s-.9,1.3-1.3,1.3h-5v1.5c0,.4,0,.7-.1.8h5.8v-.2h0Z"/>
              <path class="cls-30" d="M248.1,37.1c0,.5,0,1.2-.6,1.8s-1.4.6-1.9.6h-2.5v2.5c0,2.5-.7,2.7-3.2,2.7s-2.5,0-2.5-1.3.4-1.2,1.2-1.2h.9c.5,0,.6,0,.6-.7v-2.1h-2.6c-2.2,0-2.4-1.5-2.4-2.4v-1.7c-.1.1-.5.2-.7.2-.7,0-1.2-.6-1.2-1.3-.1,2.4-.5,5.7-1.8,8.3-.9,1.8-1.3,2-2,2s-1.5-.6-1.5-1.3.2-.8.4-1.3c1.3-2.5,1.7-3.2,2-5.6-.5.4-1.4.9-2,.9-1.1,0-1.2-1.3-1.2-1.8,0-.9.6-1.2,1.1-1.3.6-.2,1.4-.6,2.4-1.2v-2.1c-.1.1-.5.2-.9.2-.7,0-.8-.4-1.2-1.4-.4-.8-.5-1.2-.9-2,0-.1-.1-.4-.1-.7,0-.7.8-1.3,1.4-1.3s.9.6,1.8,2.4v-1.5c0-2.1.9-2.8,2.8-2.8h5.2v-.7c0-1.1.9-1.2,1.4-1.2.7,0,1.5.2,1.5,1.2v.8h7.2c.6,0,1.4.1,1.4,1.2s-.6,1.2-1.4,1.2h-7.6c.5.2.8.5.7,1.2h7c.5,0,1.2,0,1.2,1.2s-.7,1.2-1.2,1.2h-4c1.1,1.2,1.2,1.3,1.7,1.7.1-.2.8-1.1,1.1-1.3s.4-.2.6-.2c.6,0,1.3.5,1.3.9s-.8,1.3-1.2,1.8c.2.1,1.3.7,1.5.8.5.2.5.6.5.8,0,.7-.5,1.5-1.3,1.5s-.7-.1-1.1-.4v1.7h.1ZM236.3,43.2c-.7.5-2.1,1.3-2.7,1.3-.9,0-1.2-.8-1.2-1.3,0-.7.2-.7,1.7-1.5.9-.5,1.3-.7,2.2-1.4.4-.2.6-.4.9-.4.7,0,1.3.6,1.3,1.3s-.6.9-2.2,2ZM233.4,34.2c.1-.4.4-.7.5-.7.4-.2.9-.7,1.4-.9-.2-.4-.6-.7-.9-.9-.2-.2-.4-.5-.4-.7,0-.6.7-1.1,1.3-1.1s.6.1,1.7,1.4c.5-.5.9-.9,1.3-1.5h-3.3c-.7,0-1.2-.2-1.2-1.2s.7-1.1,1.2-1.1h4.6c.2-.6.5-1.1.6-1.2h-5.8c-.6,0-.8.2-.8.8v7.1h-.1ZM238.2,34.9h7.2v-.5c0-.4-.1-.6-.6-.6h-6c-.5,0-.6.2-.6.6v.5ZM238.2,36.7v.5c0,.4.1.6.6.6h6c.5,0,.6-.4.6-.6v-.5h-7.2ZM244,31.9c-1.1-1.1-1.3-1.7-1.5-2.1h-1.3c-.4.6-.7,1.2-1.5,2.1h4.4ZM245.9,39.8c.4,0,.5,0,1.2.6.9.7,1.8,1.1,2.7,1.7.2,0,.6.4.6.9s-.5,1.4-1.4,1.4-1.9-.8-2.6-1.3c-.7-.5-1.9-1.3-1.9-2s.8-1.3,1.4-1.3Z"/>
              <path class="cls-30" d="M259.6,40.6c-2.1,4.1-2.5,4.1-3.1,4.1s-1.7-.6-1.7-1.4.2-.8,1.2-2.5c.9-1.5,1.7-3.1,2.5-4.8.1-.4.4-.8,1.2-.8s1.4.5,1.4,1.3c.1.8-1.1,3.2-1.5,4.1ZM256.4,28.5c.7,0,2,.8,2.8,1.4,1.4.9,1.7,1.3,1.7,1.8,0,.7-.7,1.7-1.5,1.7s-.6-.1-2-1.2c-.2-.2-1.4-.9-1.7-1.2-.5-.2-.6-.5-.6-1.2s.6-1.3,1.3-1.3ZM257.1,22.2c.7,0,2,.8,2.8,1.3,1.4.8,1.8,1.2,1.8,1.8s-.7,1.7-1.4,1.7-.5-.1-2-1.1c-.4-.2-1.8-1.1-2-1.2s-.6-.4-.6-1.1.6-1.4,1.4-1.4ZM262.8,34.6c-.5,0-1.5,0-1.5-1.4s.7-1.4,1.5-1.4h5.3v-3.7h-4.3c-.4,0-1.5,0-1.5-1.4s.5-1.5,1.5-1.5h4.3v-1.8c0-.6.1-1.5,1.4-1.5s1.7.4,1.7,1.5v1.8h4.5c.4,0,1.5,0,1.5,1.4s-.6,1.5-1.5,1.5h-4.5v3.7h5.3c.4,0,1.5,0,1.5,1.3s-.5,1.5-1.5,1.5h-7.3c-.9,2.6-2.2,5.3-2.7,6.5,2.7,0,3.4-.2,6.6-.5-.5-.8-.6-1.1-1.5-2.4-.4-.5-.4-.7-.4-.9,0-.8.9-1.3,1.5-1.3s.9.2,2,1.8c.6.9,1.5,2.1,2.4,3.8.6.9.7,1.4.7,1.9,0,.8-.8,1.4-1.7,1.4s-1.1-.6-1.2-.8c-.1,0-.4-.7-.4-.8-5.2.7-11.7,1.1-11.9,1.1s-1.4,0-1.4-1.5.2-.9.7-1.3h1.4c1.1-2.1,2-4.4,2.7-6.6h-3.3v-.2Z"/>
              <path class="cls-30" d="M292,23.7c0-.5,0-1.5,1.7-1.5s1.7,1.1,1.7,1.5v2.4c0,1.9.2,7,3.2,10.9,1.4,1.9,3.3,3.4,5.3,4.6.6.4,1.2.7,1.2,1.5s-.6,1.9-1.8,1.9-4.1-2.5-5.8-4.3c-1.9-2.1-3.2-4.8-3.9-7.6-1.2,4.4-2.8,6.5-4.4,8.2-1.4,1.4-4,3.7-5.2,3.7s-1.8-.9-1.8-1.9.5-1.1.9-1.3c3.2-1.8,6.7-4.3,8.3-10.8.2-1.1.5-4.4.5-4.7v-2.6h.1Z"/>
              <path class="cls-30" d="M314.9,25.7c1.2,0,2.2.5,2.2,2s-.4,2.1-2.1,4.7c.6.6,1.1,1.1,1.9,1.9.9.9,1.2,1.1,1.2,1.5,0,.7-.6,1.5-1.4,1.5s-1.7-1.1-2.2-2v8.3c0,1.2-.6,1.5-1.7,1.5s-1.4-.8-1.4-1.5v-7.2c-.9.8-1.5,1.2-2.1,1.2s-1.5-.8-1.5-1.8.4-1.1,2.1-2.4c2.7-1.9,4-4.4,4-4.6,0-.4-.4-.4-.6-.4h-3.9c-.7,0-1.5-.2-1.5-1.4s1.1-1.4,1.5-1.4h2v-2.1c0-1.1.5-1.5,1.7-1.5s1.4,1.1,1.4,1.5v2.1h.5,0ZM328.6,28.4c.4,0,1.5,0,1.5,1.4s-.5,1.7-1.5,1.7h-3.4v9.8h3.9c.4,0,1.5,0,1.5,1.4s-.5,1.7-1.5,1.7h-11.2c-.5,0-1.8,0-1.8-1.4s.6-1.5,1.8-1.5h4.1v-9.8h-3.3c-.4,0-1.5,0-1.5-1.4s.5-1.7,1.5-1.7h3.3v-5c0-.6.1-1.5,1.4-1.5s1.7.4,1.7,1.5v5h3.5Z"/>
              <path class="cls-30" d="M356.4,41.1c0,2.5-1.1,3.3-3.3,3.3h-14.4c-2.1,0-3.3-.7-3.3-3.3v-15c0-2.5,1.1-3.3,3.3-3.3h14.4c2.1,0,3.3.7,3.3,3.3v15ZM353.4,26.7c0-.7-.4-.9-.9-.9h-13c-.7,0-.9.4-.9.9v13.8c0,.7.4.9.9.9h13c.6,0,.9-.4.9-.9v-13.8ZM350.7,38.4c0,2.7-.8,2.7-4.3,2.7s-1.9,0-1.9-1.3.9-1.3,1.2-1.3h1.2c.8,0,.8-.4.8-.8v-6.5h-7.8c-.5,0-1.4,0-1.4-1.2s.5-1.4,1.4-1.4h7.8v-1.5c0-.9.4-1.4,1.3-1.4s1.5.2,1.5,1.4v1.5h1.3c.5,0,1.4,0,1.4,1.3s-.5,1.4-1.4,1.4h-1.3v7.1h.1ZM344,34.3c.5.7,1.2,1.8,1.2,2.5s-1.1,1.4-1.7,1.4-.8-.4-1.5-1.5-.6-.9-1.4-2c-.2-.2-.5-.7-.5-1.2,0-.7.8-1.2,1.4-1.2s.9,0,2.5,2h0Z"/>
            </g>
            <path class="cls-24" d="M393.7,24c.4,0,1.5,0,1.5,1.3s-.4,1.4-1.5,1.4h-8.5v5.3c0,3.2.9,5.6,3.5,7.6,1.5,1.2,3.5,1.8,5.2,2.1.8.2,1.2.5,1.2,1.3s-.2,1.8-1.5,1.8-7.8-2.4-9.8-7.1c-.4.8-.9,2.4-3.3,4.3-2.5,1.9-5.3,3-6.4,3s-1.5-1.4-1.5-1.8c0-.9.6-1.2,1.2-1.3,5-1.3,8.6-3.3,8.6-10.3v-4.7h-8.6c-.5,0-1.4-.1-1.4-1.4s.7-1.4,1.4-1.4h8.6v-.9c0-.8.4-1.2,1.4-1.2s1.7.2,1.7,1.2v.9h8.3,0ZM381.1,34.1c0,.6-.6,1.2-1.8,2.1.7.7.9.9.9,1.4,0,.8-.8,1.4-1.4,1.4s-.7-.2-.9-.6c-.1,0-.2-.4-.7-.7-1.2.7-2.8,1.4-3.4,1.4-.9,0-1.2-.9-1.2-1.4,0-.7.5-.9.9-1.1,1.2-.5,1.3-.5,1.8-.7-.2-.1-1.2-.8-1.3-.9-.1-.1-.4-.4-.4-.7,0-.6.6-1.2,1.3-1.2s.6,0,2.6,1.5c.4-.2.7-.6,1.4-1.2.2-.1.4-.4.8-.5-.2,0-.5,0-.7-.1s-1.3-1.1-1.5-1.3c-1.4.8-3.2,1.7-3.7,1.7-.8,0-1.1-.8-1.1-1.3s.5-.8.8-.9c1.4-.6,1.5-.6,1.9-.8-1.5-.9-1.8-1.2-1.8-1.7,0-.7.6-1.2,1.2-1.2s.6.1,1.1.4c.5.2,1.2.7,1.8,1.1.2-.1.9-.7,1.4-1.2.2-.2.5-.4.8-.4.7,0,1.2.6,1.2,1.1s-.4.9-1.4,1.7c1.3.9,1.4,1.2,1.4,1.7s-.5,1.2-1.2,1.3c.5,0,1.1.6,1.1,1.2h0ZM394.1,31.3c0,.7-.6,1.3-1.3,1.3s-.6-.1-.8-.4c-.7-.7-.8-.7-1.2-.9-1.3.8-3.2,1.8-3.8,1.8-.9,0-1.2-.9-1.2-1.3,0-.7.6-.9.9-1.1,1.1-.5,1.2-.5,1.9-.8-.2-.1-1.4-.8-1.7-.9-.1-.1-.5-.4-.5-.7s.5-1.1,1.3-1.1,2.2.9,3,1.4c.4-.2.4-.4,1.3-1.1.2-.2.6-.4.8-.4.7,0,1.2.6,1.2,1.2s-.4.8-1.3,1.7c1.1.6,1.3.8,1.3,1.3ZM392.4,33.1c.2-.2.6-.4.8-.4.7,0,1.3.6,1.3,1.2s-.5.9-1.5,2c1.3,1.1,1.5,1.3,1.5,1.9s-.8,1.3-1.4,1.3-.6,0-.9-.5c-.5-.5-.9-.8-1.4-1.2-.6.4-2.1,1.3-2.7,1.3s-1.2-.8-1.2-1.4.4-.8.6-.9c.2-.1,1.1-.5,1.2-.6-.2-.1-.4-.2-1.2-.8-.2-.1-.6-.5-.6-.9s.6-1.2,1.3-1.2,2.1,1.1,2.8,1.5c.5-.4.6-.5,1.4-1.3h0ZM402.6,30.6c-.4-.6-.8-.9-1.8-2-.9-.9-1.1-1.1-1.1-1.8s.5-1.4,1.2-1.4.4.1.6.1c.4-.7.9-1.5,1.3-2.5.4-.8.6-1.3,1.2-1.3s1.5.5,1.5,1.2-1.4,3.1-2.2,4.3c.4.4.5.5.7.8.7-1.2.8-1.2,1.9-3.2.2-.4.6-.7.9-.7.7,0,1.5.6,1.5,1.3s-.8,1.7-1.2,2.2c-1.3,2-2.1,3-3.2,4.4.5,0,.7,0,2.2-.1-.4-1.1-.4-1.2-.4-1.4,0-.6.6-.8.9-.8.6,0,.8.5,1.1,1.1.4.8.8,2.6.9,3,.5-.7.9-.7,1.1-.7.4,0,.6.1,1.8,1.2.4.4,1.2,1.2,1.2,1.9s-.5,1.2-1.3,1.2-.5-.1-1.2-.8c-.2-.2-1.3-1.3-1.5-1.7-.2.4-.6.5-1.1.5-.7,0-.8-.5-.9-1.2-.2,0-.4,0-1.4.1v9.1c0,.4,0,1.3-1.2,1.3s-1.2-.9-1.2-1.3v-8.9c-1.4.1-1.9.2-2.5.2s-1.3-.4-1.3-1.4.7-1.2,1.9-1.3l1.4-1.3h0ZM402.6,37.1c0,.5-.2,3.8-.7,5.4-.1.4-.2.8-.9.8s-1.3,0-1.3-1.1.4-1.8.4-2c.2-1.3.2-2.1.4-3.4,0-.6.1-1.1,1.1-1.1s1.2.8,1.2,1.3h0ZM411,38.5c.8-.6,1.1-.6,1.3-.6.7,0,1.2.7,1.2,1.4s-.2.8-1.8,1.9c-.7.5-2.4,1.7-3,1.7s-1.2-.7-1.2-1.5,0-.4.1-.5c-.8,0-.8-.4-1.1-1.9,0-.4-.2-2-.2-2.1,0-.7.8-.8,1.1-.8.8,0,.9.4,1.2,1.8,0,.1.2,1.5.2,2.1.7-.5,1.8-1.2,2.1-1.4ZM416.7,42.1c0,2.4-.5,2.7-2.8,2.7h-1.8c-.7,0-1.1-.8-1.1-1.4s.2-1.4,1.3-1.4h1.1c.4,0,.6-.2.6-.7v-8.6h-4c-.4,0-1.2,0-1.2-1.2s.4-1.3,1.2-1.3h8v-1.3h-6.9c-.4,0-1.2,0-1.2-1.1s.6-1.1,1.2-1.1h6.9v-.7c0-.2-.1-.6-.6-.6h-6.7c-.4,0-1.2,0-1.2-1.2s.2-1.3,1.2-1.3h7.6c1.7,0,2.6.6,2.6,2.6v4.8h.7c.7,0,1.1.5,1.1,1.2,0,1.2-.8,1.2-1.2,1.2h-4.6v1.3c.2.7.8,1.7,1.1,2,.4-.4,1.1-1.1,1.8-1.9.6-.7.8-.9,1.3-.9.8,0,1.4.7,1.4,1.3s-.1.8-.6,1.3c-.9,1.1-1.8,1.9-2.4,2.4.6.7,1.1,1.2,1.7,1.7,1.3,1.1,1.7,1.4,1.7,2s-.7,1.5-1.5,1.5-3.1-2.2-4.4-4.6v3.3h-.1ZM433.4,31.2c-.9,0-1.4-.4-1.4-1.2-.9.6-2.7,1.5-3.5,1.5s-1.5-.8-1.5-1.8.6-1.2,1.3-1.5c3.7-1.4,5.8-3.4,7.6-5.2.9-.9,1.4-1.3,2.6-1.3s1.5.4,3,1.7c1.3,1.3,3.3,3.2,7.3,4.8.7.2,1.2.6,1.2,1.4s-.7,1.8-1.5,1.8-2.5-.9-3.4-1.5c-.1,1.1-.8,1.2-1.5,1.2h-9.9ZM436.8,36.3c-.6,1.4-1.1,2.6-2.4,4.8,3.4,0,4,0,9.1-.5-.4-.5-.5-.6-1.4-1.7-.6-.6-.6-.8-.6-1.2,0-.7.9-1.4,1.7-1.4s.8.1,1.2.6c.9.9,2.1,2.1,3.2,3.7,1.2,1.4,1.4,1.9,1.4,2.5s-1.1,1.7-1.9,1.7-.8-.4-.9-.6c-.1,0-.6-.9-.7-1.1-2.5.2-5.2.5-7.7.7-1.2,0-7.4.5-8.5.5s-1.5,0-1.5-1.5,0-1.3,1.1-1.4h2.2c.8-1.7,1.8-3.2,2.4-5h-4.4c-1.1,0-1.5-.5-1.5-1.5s1.2-1.4,1.5-1.4h18.9c.9,0,1.5.4,1.5,1.5s-1.2,1.4-1.5,1.4h-11.1ZM442.7,28.5c-.7-.6-2.1-1.7-3.5-3.2-.4-.4-.5-.5-.7-.5s-.4.1-.7.5c-1.1,1.2-2.2,2.2-3.5,3.2h8.5Z"/>
          </g>
          <g id="_千葉爽緑会" data-name="千葉爽緑会">
            <g>
              <path class="cls-30" d="M188.4,22.8c.3,0,1.5,0,1.5,1.4s-1.2,1.4-1.5,1.4h-15.9c-.6,0-1,.3-1,1v13.9c0,.7.3,1,1,1h16.4c.3,0,1.5,0,1.5,1.4s-1.2,1.4-1.5,1.4h-17.1c-2.2,0-3.2-.8-3.2-3.2v-14.9c0-2.5,1.1-3.2,3.2-3.2h16.6ZM187.9,32.6c.3,0,1.3,0,1.3,1.3s-1,1.3-1.3,1.3h-5.1c1.4,1.5,2.3,2.3,5.3,3.2.5.1,1,.3,1,1.2s-.3,1.6-1.4,1.6-5.1-1.4-7.1-4.9c-2.3,4-6,4.8-6.6,4.8-1.1,0-1.4-1-1.4-1.6,0-.8.6-1,1-1.2,1.5-.5,3.4-1.1,4.7-3.2h-4.9c-.4,0-1.3,0-1.3-1.2s.8-1.3,1.3-1.3h5.7s0-.6,0-.8v-1.5h-2.6c-1.3,1.9-1.9,2.1-2.4,2.1-.7,0-1.5-.6-1.5-1.5s.1-.6,1.2-1.7c.7-.7,1.2-1.6,1.8-2.6.3-.5.7-.9,1.3-.9s1.5.3,1.5,1.3,0,.6-.3.9h8.8c.3,0,1.3,0,1.3,1.2s-1,1.3-1.3,1.3h-5v1.5c0,.3,0,.7,0,.8h6Z"/>
              <path class="cls-30" d="M215.1,37.1c0,.5,0,1.2-.5,1.8-.6.6-1.4.6-1.9.6h-2.5v2.5c0,2.5-.7,2.7-3.2,2.7s-2.4,0-2.4-1.3.4-1.2,1.2-1.2.9,0,1,0c.5,0,.6-.2.6-.7v-2.1h-2.6c-2.3,0-2.4-1.5-2.4-2.4v-1.6c-.2,0-.4.2-.7.2-.7,0-1.1-.6-1.2-1.3,0,2.3-.5,5.6-1.8,8.2-.9,1.8-1.3,2-2,2s-1.6-.6-1.6-1.3.2-.8.4-1.3c1.3-2.5,1.6-3.2,2-5.5-.5.3-1.4,1-2,1-1,0-1.2-1.3-1.2-1.7,0-.9.6-1.1,1.1-1.3.6-.2,1.5-.6,2.4-1.2v-2.4c-.2,0-.5.3-.9.3-.7,0-.8-.4-1.2-1.5-.3-.9-.5-1.2-.9-2,0-.1-.2-.4-.2-.8,0-.8.8-1.3,1.4-1.3s1,.6,1.8,2.4v-1.5c0-2.2,1-2.8,2.8-2.8h5.2v-.8c0-1.1,1-1.2,1.4-1.2.7,0,1.6.2,1.6,1.2v.8h7.2c.6,0,1.4.1,1.4,1.2s-.6,1.2-1.4,1.2h-7.5c.5.2.8.4.7,1.1h7c.5,0,1.2,0,1.2,1.1s-.7,1.2-1.2,1.2h-4c1.1,1.2,1.2,1.3,1.6,1.6.2-.2.8-1.1,1-1.3.2-.2.4-.2.6-.2.6,0,1.3.4,1.3,1s-.8,1.3-1.2,1.7c.2.1,1.3.7,1.5.8.5.3.5.5.5.8,0,.7-.5,1.5-1.3,1.5s-.7-.1-1.1-.4v1.8ZM203.4,43c-.8.5-2.1,1.3-2.8,1.3s-1.2-.9-1.2-1.3c0-.7.2-.8,1.7-1.5.9-.5,1.3-.7,2.3-1.4.3-.2.6-.3.9-.3.7,0,1.3.6,1.3,1.3s-.5.9-2.1,2ZM200.5,34.1c0-.4.4-.7.5-.7.4-.3,1-.7,1.4-.9-.3-.3-.6-.7-.9-1-.2-.3-.3-.4-.3-.7,0-.6.7-1.1,1.3-1.1s.6.1,1.7,1.4c.5-.5.9-.9,1.3-1.5h-3.3c-.7,0-1.2-.2-1.2-1.2s.7-1.1,1.2-1.1h4.6c.3-.9.4-1,.6-1.1h-5.8c-.6,0-.8.3-.8.8v7.1ZM205.2,34.7h7.1v-.5c0-.3-.1-.6-.6-.6h-6c-.5,0-.6.3-.6.6v.5ZM205.2,36.5v.5c0,.3.1.6.6.6h6c.5,0,.6-.3.6-.6v-.5h-7.1ZM211,31.8c-1-1.1-1.3-1.7-1.6-2.2h-1.3c-.3.6-.8,1.2-1.5,2.2h4.4ZM212.9,39.7c.3,0,.4,0,1.2.6.9.7,1.8,1.1,2.8,1.6.3.2.6.4.6.9s-.4,1.4-1.4,1.4-1.9-.8-2.5-1.3c-.7-.4-1.9-1.3-1.9-2s.7-1.3,1.3-1.3Z"/>
              <path class="cls-30" d="M226.6,40.4c-2.1,4.2-2.4,4.2-3,4.2s-1.6-.6-1.6-1.4.2-.8,1.2-2.5c1-1.5,1.7-3.1,2.5-4.8.2-.4.4-.9,1.2-.9s1.5.4,1.5,1.3-1.2,3.2-1.6,4.1ZM223.4,28.5c.7,0,2,.8,2.8,1.5,1.4,1,1.6,1.3,1.6,1.8,0,.7-.7,1.6-1.5,1.6s-.6-.1-2-1.2c-.3-.2-1.5-1-1.7-1.1-.4-.3-.6-.5-.6-1.1s.6-1.4,1.4-1.4ZM224.1,22.2c.7,0,2,.8,2.8,1.3,1.4.9,1.8,1.1,1.8,1.8s-.7,1.7-1.5,1.7-.5,0-2-1.1c-.3-.2-1.7-1-2-1.2-.2-.1-.6-.4-.6-1s.6-1.5,1.4-1.5ZM229.8,34.6c-.4,0-1.5,0-1.5-1.4s.8-1.4,1.5-1.4h5.3v-3.7h-4.3c-.4,0-1.5,0-1.5-1.4s.5-1.5,1.5-1.5h4.3v-1.8c0-.6,0-1.5,1.4-1.5s1.6.3,1.6,1.5v1.8h4.5c.4,0,1.5,0,1.5,1.4s-.5,1.5-1.5,1.5h-4.5v3.7h5.3c.4,0,1.5,0,1.5,1.3s-.5,1.5-1.5,1.5h-7.3c-.9,2.5-2.2,5.3-2.8,6.5,2.7-.1,3.4-.2,6.6-.5-.5-.8-.6-1-1.5-2.4-.3-.5-.4-.7-.4-1,0-.8.9-1.3,1.5-1.3s1,.2,2,1.7c.6.9,1.5,2.2,2.3,3.8.5,1,.7,1.4.7,1.9,0,.8-.8,1.5-1.7,1.5s-1.1-.5-1.2-.8c0-.1-.4-.7-.4-.8-5.2.8-11.7,1.1-11.9,1.1s-1.5,0-1.5-1.5.2-1,.7-1.3c.2-.1.4-.1,1.4-.2,1-2.2,2.1-4.4,2.8-6.6h-3Z"/>
              <path class="cls-30" d="M258.9,23.6c0-.4,0-1.6,1.7-1.6s1.7,1.1,1.7,1.6v2.3c0,1.8.3,7,3.2,10.8,1.4,1.9,3.3,3.4,5.4,4.6.6.3,1.2.7,1.2,1.5s-.6,1.8-1.8,1.8-4.1-2.4-5.7-4.2c-1.9-2.1-3.1-4.8-3.9-7.6-1.1,4.4-2.8,6.5-4.4,8.1-1.4,1.4-4,3.7-5.2,3.7s-1.7-1-1.7-1.9.4-1.1.9-1.3c3.2-1.8,6.7-4.2,8.3-10.8.2-1,.5-4.4.5-4.7v-2.3Z"/>
              <path class="cls-30" d="M281.8,25.6c1.2,0,2.2.5,2.2,2s-.3,2.2-2.2,4.7c.6.6,1,1.1,1.8,1.8,1,.9,1.2,1.1,1.2,1.6s-.6,1.5-1.4,1.5-1.6-1.1-2.3-2v8.2c0,1.2-.6,1.5-1.6,1.5s-1.4-.8-1.4-1.5v-7.1c-1,.8-1.5,1.2-2.2,1.2s-1.6-.8-1.6-1.7.4-1.1,2.2-2.4c2.7-1.9,4-4.4,4-4.7s-.4-.4-.6-.4h-3.9c-.7,0-1.5-.2-1.5-1.4s1.1-1.4,1.5-1.4h2v-2.2c0-1.1.5-1.5,1.6-1.5s1.4,1,1.4,1.5v2.2h.7ZM295.4,28.3c.4,0,1.6,0,1.6,1.4s-.4,1.6-1.6,1.6h-3.5v9.8h3.9c.4,0,1.6,0,1.6,1.4s-.4,1.6-1.6,1.6h-11.1c-.4,0-1.7,0-1.7-1.4s.6-1.6,1.7-1.6h4.1v-9.8h-3.3c-.4,0-1.5,0-1.5-1.4s.5-1.6,1.5-1.6h3.3v-4.9c0-.6,0-1.5,1.4-1.5s1.7.4,1.7,1.5v4.9h3.5Z"/>
              <path class="cls-30" d="M323.2,41c0,2.5-1.1,3.2-3.2,3.2h-14.4c-2.2,0-3.2-.7-3.2-3.2v-14.9c0-2.5,1.1-3.2,3.2-3.2h14.4c2.2,0,3.2.8,3.2,3.2v14.9ZM320.2,26.6c0-.7-.4-1-1-1h-13c-.7,0-1,.4-1,1v13.8c0,.7.3,1,1,1h13c.6,0,1-.3,1-1v-13.8ZM317.5,38.3c0,2.7-.8,2.7-4.2,2.7s-1.9,0-1.9-1.3.9-1.3,1.2-1.3,1,0,1.2,0c.8,0,.9-.3.9-.8v-6.5h-7.8c-.5,0-1.4,0-1.4-1.2s.5-1.4,1.4-1.4h7.8v-1.6c0-1,.4-1.4,1.3-1.4s1.5.2,1.5,1.4v1.6h1.3c.5,0,1.4,0,1.4,1.3s-.5,1.4-1.4,1.4h-1.3v7.1ZM310.7,34.1c.5.7,1.2,1.8,1.2,2.4,0,1-1.1,1.4-1.6,1.4s-.8-.3-1.5-1.5c-.3-.6-.6-.9-1.4-2-.2-.3-.5-.7-.5-1.1,0-.7.8-1.2,1.5-1.2s.8,0,2.3,2.1Z"/>
            </g>
            <g>
              <path class="cls-31" d="M352,30.9h8.4c.4,0,1.5,0,1.5,1.4s-.4,1.6-1.5,1.6h-8.4v9.3c0,.8-.2,1.5-1.5,1.5s-1.8-.3-1.8-1.5v-9.3h-8.3c-.6,0-1.5,0-1.5-1.4s.4-1.6,1.5-1.6h8.3v-4.7c-2,0-6.7.2-6.9.2-.5,0-1.5,0-1.5-1.5s.9-1.4,2.2-1.5c1,0,7.6-.2,11.7-.7.7,0,3.9-.6,4.1-.6,1.5,0,1.5,1.5,1.5,1.7,0,.9-.5,1.2-1,1.3-1.3.4-5.2.7-6.9.9v4.9Z"/>
              <path class="cls-4" d="M380,23.3c0-.6,0-1.4,1.4-1.4s1.6.7,1.6,1.4h4.2c.3,0,1.4,0,1.4,1.2s-.7,1.2-1.4,1.2h-4.2c0,.4,0,.4,0,.6.1,0,.4,0,.7,0,.9,0,1.5.2,1.5.9v.6h2.2c.6,0,1.3.1,1.3,1.1s-.6,1.1-1.3,1.1h-2.2v.6c0,2.1-1,2.2-2.5,2.2h-4.4c-1.5,0-2.5,0-2.5-2.2v-.6h-3.7v2.8c0,.4.2.7.7.7h13.5c.3,0,1.2,0,1.2,1.1s-.4,1.2-1.2,1.2h-7.5v.9h8.7c.3,0,1.3,0,1.3,1.1s-.3,1.3-1.3,1.3h-6.2c1.7,1.1,3.6,1.8,4.7,2.1,1.7.4,2.4.6,2.4,1.5s-.5,1.5-1.3,1.5c-1.3,0-5.5-1.4-8.4-4.1v3.1c0,.6,0,1.5-1.4,1.5s-1.6-.3-1.6-1.5v-3.1c-3,2.9-7.5,4.1-8.3,4.1s-1.4-1-1.4-1.5c0-.9.7-1.1,2.5-1.6.8-.2,3.1-.9,4.7-2.1h-6.2c-.4,0-1.3,0-1.3-1.2s.7-1.2,1.3-1.2h8.7v-.9h-3.9c-1.7,0-2.6-.5-2.6-2.6v-3.2h-2.1c-.5,0-1.3,0-1.3-1.1s.4-1.1,1.3-1.1h2.1v-.6c0-.8.7-1,1.4-1s.6,0,1,.1c0-.1,0-.2,0-.3v-.3h-4.2c-.4,0-1.5,0-1.5-1.2s.7-1.2,1.5-1.2h4.2c0-.6,0-1.4,1.4-1.4s1.6.7,1.6,1.4h5.7ZM380,25.7h-5.7c0,.6,0,1.4-1.6,1.4s-.6,0-.8-.2c0,.1,0,.2,0,.3v.6h3.7v-.6c0-.7.3-1,1.6-1s1.3.3,1.3,1v.6h3.6v-.7c0,0,0-.1,0-.2-.2,0-.4,0-.7,0-.9,0-1.4-.3-1.4-1v-.3ZM378.5,30.1v.5c0,.3.1.5.5.5h2.7c.3,0,.5-.2.5-.5v-.5h-3.6Z"/>
              <path class="cls-5" d="M414.5,23.9c.4,0,1.5,0,1.5,1.3s-.4,1.4-1.5,1.4h-8.5v5.3c0,3.1.9,5.6,3.5,7.5,1.6,1.2,3.6,1.7,5.2,2.2.8.2,1.2.5,1.2,1.3s-.2,1.8-1.5,1.8-7.7-2.4-9.8-7.1c-.3.8-.9,2.3-3.3,4.2-2.4,1.9-5.4,2.9-6.4,2.9s-1.6-1.4-1.6-1.8c0-.9.6-1.2,1.2-1.3,5-1.3,8.6-3.3,8.6-10.2v-4.7h-8.6c-.5,0-1.5,0-1.5-1.4s.7-1.4,1.5-1.4h8.6v-.9c0-.8.4-1.2,1.4-1.2s1.6.2,1.6,1.2v.9h8.5ZM402,33.9c0,.6-.6,1.1-1.8,2.1.7.7.9.9.9,1.4,0,.8-.9,1.4-1.5,1.4s-.7-.3-.9-.6c-.1-.2-.3-.3-.7-.8-1.2.7-2.9,1.4-3.5,1.4-.9,0-1.2-.9-1.2-1.4,0-.7.4-.9.9-1.1,1.1-.5,1.3-.5,1.7-.7-.2-.2-1.1-.8-1.3-1-.2-.1-.3-.3-.3-.7,0-.6.6-1.2,1.3-1.2s.6,0,2.6,1.5c.4-.3.8-.6,1.5-1.2.2-.2.4-.4.8-.4-.3,0-.5,0-.7-.2-.3-.2-1.3-1.1-1.6-1.3-1.4.9-3.1,1.7-3.7,1.7s-1.1-.8-1.1-1.3.5-.8.8-1c1.4-.6,1.6-.6,1.9-.8-1.5-.9-1.8-1.1-1.8-1.6,0-.7.6-1.2,1.2-1.2s.6,0,1.1.4c.4.3,1.1.7,1.7,1.1.2-.2.9-.8,1.4-1.2.3-.2.5-.3.8-.3.7,0,1.2.6,1.2,1.1s-.4.9-1.4,1.7c1.3.9,1.4,1.1,1.4,1.6s-.4,1.2-1.2,1.3c.8,0,1.5.6,1.5,1.2ZM415,31.2c0,.7-.6,1.3-1.3,1.3s-.5-.1-.8-.4c-.7-.7-.8-.7-1.2-1-1.3.8-3.2,1.7-3.8,1.7-.9,0-1.2-.9-1.2-1.3,0-.7.6-.9.9-1.1,1.1-.4,1.2-.5,1.9-.8-.3-.1-1.4-.8-1.6-.9-.1,0-.5-.3-.5-.8s.5-1.1,1.3-1.1,2.3,1,3,1.5c.3-.2.4-.3,1.3-1.1.3-.3.6-.3.8-.3.7,0,1.2.6,1.2,1.1s-.4.8-1.3,1.6c1,.8,1.3,1,1.3,1.5ZM413.3,32.9c.3-.3.6-.4.9-.4.7,0,1.3.6,1.3,1.2s-.4,1-1.6,2c1.3,1,1.6,1.3,1.6,1.9s-.8,1.3-1.4,1.3-.5-.1-.9-.4c-.7-.7-.8-.7-1.4-1.2-.6.4-2.1,1.3-2.7,1.3s-1.2-.8-1.2-1.4.4-.8.6-.9c.2,0,1.1-.5,1.2-.6-.2-.1-.3-.2-1.2-.8-.3-.2-.6-.5-.6-1s.6-1.2,1.3-1.2,2.1,1,2.8,1.5c.4-.3.5-.4,1.4-1.3Z"/>
              <path class="cls-3" d="M423.5,30.5c-.4-.5-.8-1-1.8-2-1-1-1.1-1.1-1.1-1.7s.5-1.4,1.2-1.4.4,0,.6.2c.4-.7.9-1.5,1.3-2.4.4-.8.6-1.3,1.2-1.3s1.6.5,1.6,1.2-1.5,3.1-2.3,4.3c.4.4.4.5.8.8.7-1.1.8-1.2,1.9-3.2.2-.4.5-.7,1-.7.7,0,1.6.6,1.6,1.3s-.8,1.6-1.2,2.2c-1.3,2-2.1,3-3.2,4.3.5,0,.7,0,2.2-.1-.4-1.1-.4-1.2-.4-1.4,0-.6.5-.8.9-.8.6,0,.8.5,1,1,.3.8.9,2.6,1,3,.5-.7,1-.7,1.1-.7.3,0,.6,0,1.8,1.2.3.3,1.2,1.2,1.2,1.9s-.5,1.2-1.3,1.2-.4,0-1.2-.8c-.2-.2-1.3-1.3-1.6-1.6-.2.3-.6.5-1,.5-.7,0-.8-.5-1-1.1-.2,0-.3,0-1.4.2v9.1c0,.3,0,1.3-1.2,1.3s-1.2-1-1.2-1.3v-8.9c-1.5.1-1.9.2-2.5.2s-1.3-.3-1.3-1.4.8-1.2,1.8-1.3l1.2-1.7ZM423.5,36.9c0,.5-.2,3.8-.7,5.4,0,.4-.3.8-1,.8s-1.3,0-1.3-1.1.3-1.7.4-2c.2-1.3.3-2.1.4-3.4,0-.6.2-1.1,1-1.1s1.1.8,1.1,1.2ZM431.8,38.4c.8-.6,1.1-.6,1.3-.6.7,0,1.1.7,1.1,1.4s-.3.8-1.7,1.9c-.7.5-2.4,1.7-3,1.7s-1.2-.8-1.2-1.5,0-.3,0-.4c-.8,0-.9-.4-1-1.9,0-.3-.3-2.1-.3-2.1,0-.8.8-.9,1.1-.9.8,0,.9.4,1.2,1.7,0,.1.3,1.5.3,2.1.8-.4,1.8-1.2,2.2-1.4ZM437.5,41.9c0,2.3-.5,2.7-2.9,2.7s-1.7,0-1.8,0c-.7-.1-1.1-.8-1.1-1.4s.2-1.4,1.3-1.4,1,0,1.1,0c.4,0,.5-.2.5-.8v-8.6h-4c-.3,0-1.2,0-1.2-1.2s.3-1.3,1.2-1.3h8v-1.3h-6.9c-.4,0-1.2,0-1.2-1.1s.6-1.1,1.2-1.1h6.9v-.7c0-.2,0-.6-.6-.6h-6.7c-.3,0-1.2,0-1.2-1.2s.3-1.3,1.2-1.3h7.6c1.7,0,2.5.6,2.5,2.6v4.8h.7c.7,0,1.1.4,1.1,1.2,0,1.2-.8,1.2-1.2,1.2h-4.6v1.3c.3.7.8,1.6,1,2,.4-.4,1.1-1,1.8-1.9.6-.7.8-.9,1.3-.9.8,0,1.4.7,1.4,1.3s-.2.8-.6,1.3c-.9,1.1-1.7,1.8-2.3,2.3.6.7,1.1,1.2,1.6,1.6,1.3,1.1,1.6,1.4,1.6,2s-.7,1.6-1.5,1.6-3-2.3-4.3-4.7v3.4Z"/>
              <path class="cls-6" d="M454.3,31.1c-.9,0-1.4-.3-1.5-1.2-.9.6-2.7,1.6-3.6,1.6s-1.5-.8-1.5-1.8.6-1.2,1.3-1.5c3.7-1.4,5.8-3.4,7.6-5.1,1-.9,1.4-1.3,2.6-1.3s1.6.3,3,1.7c1.3,1.3,3.3,3.2,7.3,4.8.7.3,1.2.6,1.2,1.4s-.7,1.8-1.6,1.8-2.5-1-3.4-1.6c-.1,1-.8,1.2-1.5,1.2h-10.1ZM457.6,36.1c-.6,1.4-1.1,2.5-2.4,4.8,3.4-.1,4-.2,9.1-.5-.4-.5-.5-.6-1.4-1.6-.5-.6-.6-.9-.6-1.2,0-.7.9-1.4,1.7-1.4s.8.2,1.2.6c1,.9,2.1,2.2,3.2,3.6,1.2,1.5,1.4,1.9,1.4,2.4,0,.8-1,1.6-1.9,1.6s-.8-.3-1-.5c0-.1-.6-.9-.7-1.1-2.5.3-5.1.5-7.7.7-1.2,0-7.5.5-8.4.5s-1.5,0-1.5-1.6,0-1.3,1.1-1.4c.2,0,1.9,0,2.3,0,.9-1.6,1.7-3.2,2.3-4.9h-4.5c-1,0-1.5-.5-1.5-1.5s1.1-1.4,1.5-1.4h18.9c1,0,1.5.4,1.5,1.5s-1.1,1.4-1.5,1.4h-11.1ZM463.5,28.4c-.8-.6-2.2-1.6-3.6-3.2-.4-.4-.5-.5-.7-.5s-.3,0-.7.5c-1.1,1.2-2.3,2.3-3.6,3.2h8.5Z"/>
            </g>
          </g>
          <path class="cls-32" d="M10.9,14.3c.7,17.7,14.8,32,32.5,32.9-.7-17.7-14.8-32-32.5-32.9"/>
          <path class="cls-2" d="M94.5.3c-26.4,1.9-56.5,24.2-46.4,81.3,0-18.3,2.7-29.4,5-34.9,22.8-3.4,40.5-22.8,41.5-46.4"/>
          <path class="cls-30" d="M22.6,102.1h1.2c.4.2.6.6.6,1.1s-.2.9-.6,1.1h-5.3v4.1c0,.7,0,.9-.2,1.3-.2.4-.7.7-1.3.7s-1.1-.2-1.3-.7c-.1-.4-.2-.6-.2-1.3v-11.1c0-.5,0-.9.4-1.3.4-.4.9-.4,1.3-.4h7.4c.4.2.6.6.6,1.1s-.2.9-.6,1.1h-6.4v3.7h4.5v.7Z"/>
          <path class="cls-30" d="M31.5,110.8c-1.1,0-1.9-.4-2.6-.9-.8-.8-1.1-1.9-1.1-3.1v-6.3c.2-.4.6-.6,1.2-.6s.9.2,1.2.6v5.9c0,1.4.9,1.9,1.8,1.9s1.8-.5,1.8-1.9v-5.9c.2-.4.6-.6,1.2-.6s.9.2,1.2.6v8.5c0,.7,0,.9-.2,1.2-.2.4-.7.6-1.2.6s-.7,0-.8-.4c-.2-.2-.4-.5-.4-.8-.5.8-1.5,1.2-2.5,1.2"/>
          <path class="cls-30" d="M41.3,102.2h-1.2c-.4,0-.5-.5-.5-.9s0-.7.5-.9h1.2v-2.6c.2-.4.6-.6,1.2-.6s.9.2,1.2.6v2.6h1.8c.4,0,.5.5.5.9s0,.7-.5.9h-1.8v5.2c0,.5.2.9.8.9h.8c.4,0,.6.5.6.9s-.2.8-.6.9c-.2,0-.6.2-1.1.2h0c-2.2,0-3.1-1.5-3.1-3.1v-5.3h.1Z"/>
          <path class="cls-30" d="M51.1,102.6c-.4.2-.7.2-.9.2s-.6,0-.7-.4c-.2-.2-.4-.5-.4-.8,0-.6.5-1.1.9-1.3.8-.5,1.7-.6,2.7-.6,3,0,4.5,1.3,4.5,3.8v5.4c0,.7,0,.9-.2,1.2-.2.4-.7.6-1.2.6s-.7,0-.8-.4c-.2-.2-.4-.4-.4-.7-.8.7-1.4,1.1-2.7,1.1s-2.1-.4-2.7-.9-.9-1.4-.9-2.4c0-1.8,1.2-3.1,3.7-3.1h2.5v-.6c0-1.2-.6-1.7-1.9-1.7s-.8,0-1.4.5M54.8,106.1h-2c-1.1,0-1.5.5-1.5,1.2s.5,1.2,1.7,1.2,1.2,0,1.5-.5.5-.7.5-1.4v-.5h-.1Z"/>
          <path class="cls-30" d="M61.4,97.8v-1.2c.2-.4.6-.6,1.2-.6s.9.2,1.2.6v4.4c.7-.8,1.5-1.1,2.6-1.1s2,.4,2.6.9c1.1,1.1,1.1,2.7,1.1,4.5s0,3.5-1.1,4.5-1.5.9-2.6.9-1.9-.4-2.7-1.1c0,.4-.2.6-.4.7-.2.2-.5.4-.8.4s-.9-.2-1.2-.6c0-.4-.2-.5-.2-1.2v-11.2h.4ZM65.9,102.2c-1.7,0-1.8,1.3-1.8,3.1s.2,3.1,1.9,3.1,1.8-1.3,1.8-3.1-.4-3.1-1.9-3.1"/>
          <path class="cls-30" d="M75.8,102.6c-.4.2-.7.2-.9.2s-.6,0-.7-.4c-.2-.2-.4-.5-.4-.8,0-.6.5-1.1.9-1.3.8-.5,1.7-.6,2.7-.6,3,0,4.5,1.3,4.5,3.8v5.4c0,.7,0,.9-.2,1.2-.2.4-.7.6-1.2.6s-.7,0-.8-.4c-.2-.2-.4-.4-.4-.7-.8.7-1.4,1.1-2.7,1.1s-2.1-.4-2.7-.9-.9-1.4-.9-2.4c0-1.8,1.2-3.1,3.7-3.1h2.5v-.6c0-1.2-.6-1.7-1.9-1.7s-.8,0-1.4.5M79.3,106.1h-2c-1.1,0-1.5.5-1.5,1.2s.5,1.2,1.7,1.2,1.2,0,1.5-.5.4-.7.4-1.4v-.5Z"/>
          <g class="cls-27">
            <polygon class="cls-28" points="56.8 102.6 108.5 93.5 97.4 30.5 45.7 39.7 56.8 102.6"/>
          </g>
          <g class="cls-26">
            <polygon class="cls-29" points="-1.6 30.5 50.4 40 39.5 102.6 -12.5 93.3 -1.6 30.5"/>
          </g>
          <g id="_レイヤー_4のコピー-2" data-name="_レイヤー_4のコピー">
            <circle class="cls-2" cx="593.1" cy="55.4" r="55.2"/>
            <g id="_錦糸町-2" data-name="錦糸町" class="cls-34">
              <g class="cls-7">
                <text class="cls-10" transform="translate(559.3 38)"><tspan x="0" y="0">錦糸町</tspan></text>
              </g>
              <g class="cls-7">
                <text class="cls-10" transform="translate(559.3 64)"><tspan x="0" y="0">新小岩</tspan></text>
              </g>
              <g class="cls-7">
                <text class="cls-10" transform="translate(559.3 90)"><tspan x="0" y="0">北千住</tspan></text>
              </g>
            </g>
            <g id="_新小岩-2" data-name="新小岩" class="cls-34">
              <g class="cls-7">
                <text class="cls-10" transform="translate(559.5 38)"><tspan x="0" y="0">新小岩</tspan></text>
              </g>
              <g class="cls-7">
                <text class="cls-10" transform="translate(559.2 64)"><tspan x="0" y="0">北千住</tspan></text>
              </g>
              <g class="cls-7">
                <text class="cls-10" transform="translate(559.2 90)"><tspan x="0" y="0">錦糸町</tspan></text>
              </g>
            </g>
            <g id="_北千住-2" data-name="北千住" class="cls-34">
              <g class="cls-7">
                <text class="cls-10" transform="translate(559.5 38)"><tspan x="0" y="0">北千住</tspan></text>
              </g>
              <g class="cls-7">
                <text class="cls-10" transform="translate(559.2 64)"><tspan x="0" y="0">新小岩</tspan></text>
              </g>
              <g class="cls-7">
                <text class="cls-10" transform="translate(559.2 90)"><tspan x="0" y="0">錦糸町</tspan></text>
              </g>
            </g>
            <g id="_埼玉本院" data-name="埼玉本院" class="cls-34">
              <g class="cls-7">
                <text class="cls-9" transform="translate(565.7 50.9)"><tspan x="0" y="0">埼玉</tspan></text>
                <text/>
              </g>
              <g class="cls-7">
                <text class="cls-9" transform="translate(565.7 84.8)"><tspan x="0" y="0">本院</tspan></text>
              </g>
            </g>
            <g id="_佐倉-2" data-name="佐倉" class="cls-34">
              <g class="cls-7">
                <text class="cls-9" transform="translate(565.7 48.9)"><tspan x="0" y="0">佐倉</tspan></text>
              </g>
              <g class="cls-7">
                <text class="cls-9" transform="translate(552.1 82.8)"><tspan x="0" y="0">八千代</tspan></text>
              </g>
            </g>
            <g id="_八千代-2" data-name="八千代" class="cls-34">
              <g class="cls-7">
                <text class="cls-9" transform="translate(552.1 48.9)"><tspan x="0" y="0">八千代</tspan></text>
              </g>
              <g class="cls-7">
                <text class="cls-9" transform="translate(565.4 82.8)"><tspan x="0" y="0">佐倉</tspan></text>
              </g>
            </g>
            <g id="_北習志野" data-name="北習志野" class="cls-34">
              <g class="cls-7">
                <text class="cls-8" transform="translate(552 38)"><tspan x="0" y="0">北習志野</tspan></text>
              </g>
              <g class="cls-7">
                <text class="cls-8" transform="translate(572.5 64)"><tspan x="0" y="0">佐倉</tspan></text>
              </g>
              <g class="cls-7">
                <text class="cls-8" transform="translate(562.3 90)"><tspan x="0" y="0">八千代</tspan></text>
              </g>
            </g>
            <g id="_佐倉_x5F_new" data-name="佐倉_x5F_new" class="cls-34">
              <g class="cls-7">
                <text class="cls-8" transform="translate(572.5 38)"><tspan x="0" y="0">佐倉</tspan></text>
              </g>
              <g class="cls-7">
                <text class="cls-8" transform="translate(552 64)"><tspan x="0" y="0">北習志野</tspan></text>
              </g>
              <g class="cls-7">
                <text class="cls-8" transform="translate(562.3 90)"><tspan x="0" y="0">八千代</tspan></text>
              </g>
            </g>
            <g id="_八千代_x5F_new" data-name="八千代_x5F_new" class="cls-34">
              <g class="cls-7">
                <text class="cls-8" transform="translate(562.3 38)"><tspan x="0" y="0">八千代</tspan></text>
              </g>
              <g class="cls-7">
                <text class="cls-8" transform="translate(552 64)"><tspan x="0" y="0">北習志野</tspan></text>
              </g>
              <g class="cls-7">
                <text class="cls-8" transform="translate(572.5 90)"><tspan x="0" y="0">佐倉</tspan></text>
              </g>
            </g>
            <g id="_本八幡" data-name="本八幡">
              <g class="cls-7">
                <g class="cls-7">
                  <path class="cls-15" d="M582.7,19.1h-5.5c1.4,2.7,3.7,5.2,6.3,6.5-.5.4-1.3,1.3-1.7,1.9-1-.6-2-1.5-2.9-2.4v2h-3v3h-2.3v-3h-3.1v-1.9c-.9.9-1.8,1.7-2.8,2.3-.4-.5-1.1-1.4-1.6-1.8,2.5-1.4,4.8-3.9,6.2-6.7h-5.5v-2.2h6.7v-3.5h2.8c0,.3-.2.4-.5.5v3h6.8v2.2ZM573.7,21.1c-.8,1.4-1.8,2.8-2.8,3.9h2.8v-3.9ZM575.9,25h2.9c-1.1-1.2-2-2.5-2.9-3.9v3.9Z"/>
                  <path class="cls-15" d="M591.3,19c0,.2-.2.3-.5.3-.6,3.7-1.9,8.3-4.8,10.9-.4-.5-1.3-1.2-1.8-1.6,2.7-2.3,3.8-6.6,4.3-10.2l2.9.5ZM588,14.7h8.2c.4,5.6,1.5,11,4.8,13.7-.6.4-1.6,1.2-2.1,1.8-3.2-2.9-4.3-8-4.8-13.2h-6.1v-2.3Z"/>
                  <path class="cls-15" d="M618.5,19.8h-2.4c.8.9,1.8,1.8,2.9,2.3-.4.3-.8.8-1.2,1.3v6.7h-1.9v-.4h-4.6v.5h-1.8v-6.4c-.2-.3-.5-.7-.8-1v1.6c0,1.2-.2,1.9-1.9,1.9,0-.5-.2-1.3-.5-1.7v5.7h-1.8v-11.6h-.8v7.9h-1.6v-9.8h2.3v-3.3h2.2c0,.3-.1.4-.4.4v2.8h2.3v5.4c.9-.6,1.8-1.4,2.4-2.2h-2.2v-1.8h1.5c-.2-.6-.5-1.3-.8-1.9l1.2-.4h-1.5c0-.4-.3-1.1-.5-1.5,2.8-.1,5.9-.4,7.9-.9l1.3,1.6c0,0-.1,0-.2,0s-.1,0-.2,0c-.8.2-1.9.3-3,.4v2.5h1.2l-.8-.4c.4-.6,1-1.5,1.3-2.2l1.9.9c0,.1-.2.2-.5.2-.3.4-.8,1-1.2,1.5h2v1.8ZM606.4,24.5h.7c0,0,.1,0,.1-.2v-5.7h-.8v5.9ZM612.7,23v-2.4c-.7,1.1-1.5,2.1-2.5,2.8h6.8c-.9-.7-1.8-1.7-2.5-2.8v2.4h-1.9ZM612.7,18v-2.4c-.5,0-.9,0-1.4,0,.4.6.8,1.4.9,1.9l-1.1.4h1.6ZM612.7,25.8v-.8h-1.3v.8h1.3ZM611.3,27.2v.9h1.3v-.9h-1.3ZM615.9,25.8v-.8h-1.4v.8h1.4ZM614.5,28.1h1.4v-.9h-1.4v.9Z"/>
                </g>
              </g>
              <g class="cls-7">
                <g class="cls-7">
                  <path class="cls-15" d="M562.2,41.1v-3.9l2.7.2c0,.2-.2.3-.5.3v15.8h-2.2v-3.7c-1.3.6-2.6,1.1-3.6,1.5,0,.2-.1.3-.3.4l-1-2.4c1.2-.4,3-1,4.9-1.6v-4.3h-4.2v-2.1h4.2ZM568.9,50c0,1,.1,1.1.7,1.1h1.9c.7,0,.8-.7.9-3.6.5.4,1.5.8,2,1-.2,3.4-.7,4.7-2.8,4.7h-2.4c-2,0-2.6-.7-2.6-3.3v-12.8h2.7c0,.3-.2.4-.5.5v4.9c1.4-.9,2.7-1.9,3.7-2.7l1.6,2c0,0-.2.1-.5,0-1.3.9-3.1,2-4.9,2.9v5.2Z"/>
                  <path class="cls-15" d="M575.4,43c1.2-.3,3-.9,4.7-1.5l.3,1.5c-1.4.6-2.8,1.2-3.8,1.5,0,.2,0,.3-.2.3l-.9-1.9ZM591.2,37.6v5.9c0,1.6-.7,1.9-3.4,1.8,0-.5-.3-1.2-.6-1.6.7,0,1.5,0,1.7,0,.2,0,.3,0,.3-.3v-4.2h-3.4c.7.4,1.6.9,2,1.3l-1,1.3,1.7-.6.3,1.6c-1.5.6-3.1,1.2-4.1,1.6,0,.1,0,.2-.2.3h.6c0,.2-.2.3-.5.3-.2.3-.4.7-.6,1.1h5.7v7.6h-2.2v-.6h-7.6v.6h-2.1v-7.6h4c.1-.3.3-.7.4-1-.6.2-1.3.2-2.4.2,0-.5-.3-1.1-.5-1.5.6,0,1.3,0,1.5,0s.3,0,.3-.2v-4.3h-3.5c.7.4,1.6.9,2,1.4l-1.1,1.4c-.5-.5-1.5-1.2-2.3-1.6l.9-1.1h-1.4v-1.7h7.2v5.9c0,.3,0,.6,0,.8l1.4.3-.9-1.8c.8-.2,1.9-.6,3.1-1-.5-.5-1.5-1.1-2.3-1.6l.9-1h-1.2v-1.7h7.1ZM587.6,48.7v-1h-7.6v1h7.6ZM580,51.4h7.6v-1h-7.6v1Z"/>
                  <path class="cls-15" d="M597.3,48.5c-.4,1.7-1.1,3.4-2.5,4.4l-1.8-1.2c1.2-.9,2-2.3,2.4-3.8l1.9.6ZM600.3,43.7v-2.2h-6.8v-2h6.8v-2.6h2.6c0,.3-.1.4-.5.5v2.1h7v2h-7v2.2h5.9v2h-7.4c1,.6,2.1,1.4,2.7,2.1l-1.5,1.4c-.6-.8-2-1.8-3.2-2.5l1.1-1h-5.4v-2h5.7ZM599.8,50.8c0,.5.1.6.9.6h2.4c.7,0,.8-.2.9-1.8.4.3,1.3.6,1.9.8-.2,2.3-.8,2.9-2.6,2.9h-2.8c-2.3,0-2.8-.6-2.8-2.5v-3.1h2.6c0,.3-.2.4-.5.5v2.6ZM608,52.7c-.5-1.2-1.8-3-3.1-4.2l1.8-1c1.3,1.2,2.6,2.9,3.2,4.1l-1.9,1Z"/>
                  <path class="cls-15" d="M626.6,43.5h1.1c-.4,2.1-.6,3.1-1.3,4.8-1.7-.3-1.7-.4-1.7-.4.2-.6.4-1.5.6-2.4h-1.2v5.7c0,2-.8,2.3-3.8,2.3,0-.6-.3-1.5-.6-2v.3c-2.9.5-6,.9-7.9,1.2,0,.2-.2.3-.3.3l-.6-2.3c.9,0,2.2-.2,3.5-.3v-2h-2.9v-1.9h2.9v-1.4h-2.9v-7.7h8v5.8h4.2c-1-.7-2.3-1.5-3.5-2.1l1.4-1.4c.5.2,1,.5,1.6.8.4-.4.7-.9,1-1.3h-4.3v-1.9h6.2c0-.1,1.6.8,1.6.8,0,.1-.2.2-.4.2-.6.9-1.6,2.2-2.6,3.1.5.3,1,.7,1.4,1l-.6.7h1.1ZM613.1,39.4v1.4h1.3v-1.4h-1.3ZM613.1,42.3v1.4h1.3v-1.4h-1.3ZM616.3,40.7h1.4v-1.4h-1.4v1.4ZM616.3,43.7h1.4v-1.4h-1.4v1.4ZM619.7,51.5c.5,0,1.1,0,1.5,0,.8,0,.9,0,.9-.3v-5.7h-2.6v-.2h-3v1.4h3.1v1.9h-3.1v1.7l3.3-.4v1.4Z"/>
                </g>
              </g>
              <g class="cls-7">
                <g class="cls-7">
                  <path class="cls-15" d="M588.5,73.6h3.6v2h-9.6v-2h3.9v-4h-2.4c-.8,2-1.8,3.8-3.2,5.1-.2-.4-.8-1-1.2-1.4v2.8h-2.1v-9.1c-.5.7-1,1.4-1.5,2-.2-.5-.7-1.6-1-2.2,1.5-1.7,3.1-4.6,4.1-7.4l2.4.8c0,.1-.2.2-.5.2-.4,1.1-1,2.3-1.5,3.4l.7.2c0,.2-.2.3-.5.3v8.5c1.7-1.8,2.9-4.7,3.6-8.1h-2.8v-2h3.2c.2-1,.3-2.1.4-3.2l2.6.4c0,.2-.2.3-.5.3-.1.9-.2,1.7-.4,2.5h6.3v2h-6.7c-.2,1-.5,2-.7,2.9h7v2h-3.1v4Z"/>
                  <path class="cls-15" d="M606.9,70.5h-9.1c0,.2,0,.5-.1.7h9.9v4.9h-2.2v-.5h-5.9v.5h-2.1v-4.2c-.5,1.5-1.3,3-2.6,4.1-.3-.4-1.2-1.2-1.7-1.5,2.4-2,2.7-4.9,2.7-7v-2.3c-.6.3-1.2.6-1.8.9-.2-.5-.8-1.3-1.2-1.7,3-1.2,6-3.3,7.4-5.2h2.8c0,.3-.2.4-.5.4,1.7,1.9,4.8,3.6,7.4,4.5-.5.5-1,1.2-1.3,1.8-.6-.2-1.2-.6-1.8-.9v5.3ZM598.3,64.5v-.6c-.7.5-1.4.9-2.2,1.3h10.7c-.8-.4-1.6-.9-2.3-1.4v.7h-6.3ZM598,69.1h6.8v-.7h-6.8v.7ZM598.1,66.5v.6h6.8v-.6h-6.8ZM603.5,63c-.8-.6-1.5-1.2-2.1-1.8-.5.6-1.2,1.2-2,1.8h4.1ZM605.4,72.7h-5.9v1.3h5.9v-1.3Z"/>
                </g>
              </g>
              <g class="cls-7">
                <g class="cls-7">
                  <path class="cls-15" d="M573.5,87.5c0,.2-.2.3-.5.3-.6,3.7-1.9,8.3-4.8,10.9-.4-.5-1.3-1.2-1.8-1.6,2.7-2.3,3.8-6.6,4.3-10.2l2.9.5ZM570.2,83.2h8.2c.4,5.6,1.5,11,4.8,13.7-.6.4-1.6,1.2-2.1,1.8-3.2-2.9-4.3-8-4.8-13.2h-6.1v-2.3Z"/>
                  <path class="cls-15" d="M600.7,88.9v2.2h-7.1v7.6h-2.3v-7.6h-6.9v-2.2h6.9v-3.5c-1.8.2-3.6.4-5.3.5,0-.6-.4-1.5-.6-2,4.2-.4,9-1,11.9-1.9l1.8,2c0,0-.2,0-.3,0s-.1,0-.2,0c-1.3.4-2.9.7-4.6,1h.2c0,.2-.2.3-.5.4v3.5h7.1Z"/>
                  <path class="cls-15" d="M604.6,89.6c-.6.8-1.2,1.5-1.8,2.2-.2-.6-.8-1.7-1.1-2.2,1.7-1.7,3.5-4.7,4.5-7.6l2.5.9c-.1.2-.3.2-.5.2-.5,1.1-1,2.3-1.6,3.4l.7.2c0,.2-.2.3-.5.3v11.7h-2.2v-9.1ZM618.8,88.7l-5.1.5c.6,4,1.6,7.3,2.7,7.3.4,0,.6-.9.7-3.1.5.5,1.2,1,1.8,1.3-.4,3.3-1.1,4.1-2.7,4.1-2.6,0-4-4.2-4.7-9.3l-3.8.4-.2-2,3.8-.4c-.2-1.8-.2-3.6-.2-5.3h2.8c0,.4-.2.5-.5.5,0,1.5,0,3.1.2,4.6l5.1-.5.2,2ZM615.9,82.1c1,.9,2.2,2.1,2.7,3l-1.7,1.1c-.5-.8-1.6-2.2-2.6-3.1l1.6-1Z"/>
                </g>
              </g>
            </g>
          </g>
        </g>
      </g>
    </g>
  </g>
</svg>