<?xml version="1.0" encoding="utf-8"?>
<!-- Generator: Adobe Illustrator 26.3.1, SVG Export Plug-In . SVG Version: 6.00 Build 0)  -->
<svg version="1.1" id="レイヤー_1" xmlns="http://www.w3.org/2000/svg" xmlns:xlink="http://www.w3.org/1999/xlink" x="0px"
	 y="0px" width="270px" height="55px" viewBox="0 0 270 55" style="enable-background:new 0 0 270 55;" xml:space="preserve">
<style type="text/css">
	.st0{fill:url(#SVGID_1_);}
	.st1{fill:#E798A2;}
	.st2{fill:#F0BD58;}
	.st3{fill:#A8977F;}
	.st4{fill:url(#SVGID_00000062895852613553717590000006353309544621881252_);}
	.st5{fill:url(#SVGID_00000061466973751188232360000017447421216653271684_);}
	.st6{fill:url(#SVGID_00000025426668898892971170000001461685564225336970_);}
	.st7{fill:url(#SVGID_00000148626344288326609160000013715675241894464445_);}
	.st8{fill:url(#SVGID_00000092428570445815640200000006373288532262892680_);}
	.st9{fill:url(#SVGID_00000131365420795914900730000012338266707274557374_);}
	.st10{fill:url(#SVGID_00000062897885537458869020000014221411583485693372_);}
	.st11{fill:#86B943;}
	.st12{fill:#32A44A;}
	.st13{fill:#A6957E;}
	
		.st14{clip-path:url(#SVGID_00000002347018011100799340000000841247155569679287_);fill:url(#SVGID_00000119800274345319930220000018120744650502245018_);}
	
		.st15{clip-path:url(#SVGID_00000132789388299551362770000012771758090345988258_);fill:url(#SVGID_00000099662777198273154070000011176268367263588773_);}
</style>
<linearGradient id="SVGID_1_" gradientUnits="userSpaceOnUse" x1="66.5128" y1="17.523" x2="141.2791" y2="17.523" gradientTransform="matrix(1 0 0 -1 0 55)">
	<stop  offset="0" style="stop-color:#86B943"/>
	<stop  offset="1" style="stop-color:#32A44A"/>
</linearGradient>
<path class="st0" d="M72.905,37.709c0,1.079-1.366,5.524-2.012,7.225c-0.528,1.437-1.056,2.533-2.229,2.533
	c-0.909,0-2.152-0.715-2.152-1.795c0-0.551,0.141-0.839,0.622-1.724c0.815-1.507,1.531-3.97,1.795-5.167
	c0.358-1.601,0.575-2.633,1.912-2.633c0.194,0,0.405,0.023,0.622,0.07C72.043,36.342,72.905,36.706,72.905,37.709 M86.851,38.401
	c-0.792-1.648-2.176-3.038-3.97-3.038c-1.243,0-1.601,0.862-1.724,1.366c-0.023,0.141-0.047,0.287-0.047,0.475
	c0,0.528,0.217,0.815,0.358,0.956c0.147,0.147,0.956,0.645,1.126,0.792c1.22,1.026,1.484,4.281,1.624,6.269
	c0.047,0.598,0.17,1.888,1.935,1.888c0.551,0,1.243-0.194,1.63-0.622c0.264-0.287,0.405-0.715,0.405-1.46
	C88.194,44.793,87.86,40.459,86.851,38.401 M82.083,32.436c1.038-0.135,1.97-0.34,1.97-1.906c0-1.595-1.29-1.712-2.586-1.795
	c-2.821-0.176-5.454-0.575-6.721-0.815c-0.457-0.07-2.657-0.598-3.155-0.598c-1.196,0-1.484,1.026-1.554,1.601
	c-0.17,1.484,0.815,1.748,1.795,1.982c0.997,0.258,2.463,0.522,3.988,0.757c-1.202,0.715-2.029,1.888-1.929,3.577
	c0.135,2.258,1.507,4.017,2.152,4.762c1.29,1.507,1.795,2.082,1.795,3.184c0,0.264-0.047,1.624-1.701,1.624
	c-0.575,0-1.026-0.117-1.366-0.217c-0.886-0.287-0.979-0.334-1.343-0.334c-1.701,0-1.701,1.818-1.701,1.912
	c0,0.669,0.264,1.173,1.003,1.578c1.413,0.768,3.137,0.909,3.97,0.909c3.976,0,5.143-3.038,5.143-4.932
	c0-1.841-0.768-3.437-2.586-5.407C76.254,35.052,76.864,33.117,82.083,32.436 M98.204,27.78c0.358-0.481,0.909-0.598,1.437-0.598
	c0.932,0,2.035,0.287,2.035,1.601c0,0.334-0.07,0.715-0.194,1.437c1.912-0.047,4.234-0.094,5.741-0.164
	c0.287,0,1.578-0.094,1.841-0.094c0.481,0,1.888,0.023,1.888,1.795c0,1.624-1.196,1.724-1.935,1.771
	c-2.463,0.117-5.507,0.217-8.234,0.287c-0.622,3.038-3.542,13.283-4.522,14.309c-0.17,0.194-0.551,0.481-1.196,0.481
	c-0.669,0-2.199-0.358-2.199-1.724c0-0.528,0.381-1.39,0.622-1.888c0.956-2.152,2.129-5.741,2.774-8.204
	c0.264-1.026,0.551-2.299,0.692-2.897c-1.366,0.047-2.75,0.047-3.208-0.217c-0.622-0.358-0.721-1.079-0.721-1.531
	c0-1.484,0.768-1.818,1.965-1.818h2.586C97.917,28.331,97.941,28.114,98.204,27.78 M108.825,48.405
	c-5.671,0-8.157-0.909-8.157-4.041c0-0.311,0.023-2.921,2.369-2.921c0.862,0,1.795,0.358,1.795,1.22c0,0.24-0.07,0.428-0.117,0.551
	c-0.141,0.381-0.17,0.481-0.17,0.692c0,0.434,0.264,0.715,1.126,0.862c0.645,0.117,1.46,0.141,2.012,0.141
	c0.669,0,1.941-0.047,3.519-0.24c0.287-0.023,0.815-0.094,1.079-0.094c1.073,0,1.677,0.598,1.677,1.724
	C113.945,47.995,113.112,48.405,108.825,48.405 M112.678,38.858c-0.311,0.264-0.645,0.311-1.196,0.311
	c-0.405,0-2.199-0.094-2.563-0.094c-1.507,0-2.152,0.047-4.428,0.217c-0.141,0.023-0.528,0.047-0.862,0.047
	c-1.578,0-1.578-1.554-1.578-1.795c0-0.745,0.311-1.437,1.437-1.701c1.507-0.334,4.305-0.405,5.911-0.405
	c3.613,0,3.876,0.598,3.876,2.082C113.276,37.879,113.112,38.524,112.678,38.858 M123.909,29.164c0,0.287-0.475,3.278-0.551,3.9
	c-0.194,1.912-0.287,3.876-0.287,5.812c0,2.105,0.117,4.305,0.405,6.41c0.07,0.528,0.141,1.22,0.141,1.507
	c0,1.149-0.692,1.654-1.818,1.654c-0.452,0-1.484-0.023-1.818-1.196c-0.358-1.22-0.598-5.143-0.598-8.545
	c0-5.19,0.669-9.307,0.839-9.882c0.17-0.645,0.575-1.484,2.205-1.267C123.598,27.733,123.909,28.308,123.909,29.164 M131.831,29.504
	c-0.023-0.669,0.023-2.012,1.912-2.012c1.912,0,1.965,1.267,1.965,2.012l0.023,2.058c0.381-0.023,2.322-0.094,2.44-0.094
	c0.475,0,1.841,0,1.841,1.818c0,1.196-0.669,1.554-0.979,1.654c-0.381,0.094-0.551,0.117-3.255,0.24l0.047,4.785
	c1.912,1.026,3.014,1.888,3.683,2.533c0.481,0.481,0.792,1.026,0.792,1.654c0,1.056-0.862,2.105-1.912,2.105
	c-0.669,0-0.909-0.264-1.724-1.173c-0.1-0.094-0.932-0.815-1.056-0.909c-0.07,1.314-0.217,4.305-5.049,4.305
	c-4.258,0-5.818-2.463-5.818-4.879c0-2.874,2.199-4.832,5.647-4.832c0.768,0,1.29,0.094,1.677,0.147l-0.094-3.589
	c-1.648,0.07-3.683,0.07-5.36,0.07c-0.598,0-1.935,0-1.935-1.818c0-1.413,0.862-1.648,1.384-1.724
	c0.287-0.023,4.762-0.117,5.812-0.117L131.831,29.504z M130.371,41.872c-0.575,0-2.369,0.117-2.369,1.795
	c0,1.654,1.795,1.701,2.152,1.701c0.528,0,1.531-0.117,1.841-0.932c0.117-0.334,0.141-0.528,0.117-2.176
	C131.638,42.037,131.21,41.872,130.371,41.872 M136.113,27.85c-0.07-0.17-0.07-0.334-0.07-0.405c0-0.622,0.645-0.768,0.932-0.768
	c0.405,0,0.692,0.311,0.862,0.792c0.405,1.056,0.715,1.912,0.715,2.44c0,0.792-0.768,0.839-0.909,0.839
	c-0.334,0-0.575-0.117-0.745-0.598c-0.047-0.17-0.334-1.026-0.381-1.196C136.447,28.783,136.183,28.067,136.113,27.85
	 M138.839,27.469c-0.07-0.17-0.07-0.358-0.07-0.405c0-0.622,0.692-0.768,0.956-0.768c0.504,0,0.692,0.405,0.956,1.032
	c0.264,0.645,0.598,1.701,0.598,2.199c0,0.792-0.815,0.815-0.932,0.815c-0.24,0-0.551-0.07-0.739-0.598
	c-0.047-0.164-0.311-1.003-0.358-1.173C139.197,28.402,138.886,27.633,138.839,27.469"/>
<g>
	<g>
		<path class="st1" d="M161.617,33.926h-7.548c0.334-0.915,0.334-1.038,0.334-1.161c0-0.721-0.85-0.862-1.29-0.862
			c-0.921,0-1.097,0.422-1.536,2.029h-4.375c-0.721,0-1.114,0.387-1.114,1.091c0,0.669,0.369,1.079,1.114,1.079h3.525
			c-0.493,1.073-1.519,2.891-3.102,4.217c-1.572,1.325-1.642,1.378-1.642,1.888c0,0.739,0.528,1.325,1.196,1.325
			c0.352,0,0.545-0.088,1.431-0.862v4.973c0,0.651,0.264,1.044,1.161,1.044c1.056,0,1.056-0.792,1.056-1.044v-7.477
			c1.29-1.695,2.117-3.472,2.363-4.076h8.41c0.721,0,1.108-0.387,1.108-1.091C162.726,34.26,162.268,33.926,161.617,33.926z"/>
		<path class="st1" d="M161.6,45.866h-3.419v-4.357h2.926c0.686,0,1.091-0.352,1.091-1.079c0-0.721-0.422-1.056-1.091-1.056h-2.926
			v-1.818c0-0.774-0.422-1.056-1.214-1.056c-0.85,0-1.038,0.545-1.038,1.056v1.818h-2.944c-0.704,0-1.114,0.369-1.114,1.073
			c0,0.739,0.457,1.056,1.114,1.056h2.944v4.357h-3.495c-0.721,0-1.108,0.369-1.108,1.091s0.422,1.073,1.108,1.073h9.172
			c0.721,0,1.114-0.405,1.114-1.091C162.708,46.13,162.18,45.866,161.6,45.866z"/>
		<path class="st1" d="M181.257,42.23c0.493-0.053,0.844-0.229,0.844-0.974c0-1.126-0.757-1.038-1.044-1.02l-7.248,0.669v-1.941
			c1.871-0.211,2.821-0.405,4.393-0.774c0.493-0.106,0.915-0.281,0.915-0.897c0-0.369-0.194-1.144-0.95-1.144
			c-0.211,0-0.545,0.07-0.692,0.106c-3.525,0.844-6.099,1.003-8.803,1.179c-0.123,0-0.44,0.035-0.651,0.158
			c0.053-0.141,0.088-0.246,0.088-0.598v-1.02c0-0.405,0.211-0.598,0.598-0.598H178.9c0.405,0,0.598,0.211,0.598,0.598v1.003
			c0,0.686,0.211,1.079,1.149,1.079c0.985,0,1.056-0.598,1.056-1.079v-1.466c0-1.572-0.669-2.047-2.029-2.047h-4.709v-0.651
			c0-0.721-0.528-0.88-1.273-0.88c-0.616,0-1.073,0.229-1.073,0.88v0.651h-4.656c-1.343,0-2.047,0.457-2.047,2.047v1.484
			c0,0.633,0.211,1.073,1.114,1.073c0.405,0,0.581-0.088,0.721-0.158c-0.088,0.176-0.088,0.369-0.088,0.44
			c0,0.281,0.053,1.108,0.991,1.108c0.686,0,1.337-0.053,2.874-0.211v1.871l-5.096,0.475c-0.51,0.053-0.88,0.246-0.88,0.932
			c0,1.179,0.792,1.108,1.073,1.079l4.903-0.457v3.19c0,0.581,0,1.924,1.624,2.012c0.475,0.035,0.897,0.035,5.659,0.035
			c1.66,0,2.645,0,2.645-3.548c0-0.317,0-1.126-1.161-1.126c-1.02,0-1.056,0.721-1.073,1.038c-0.07,1.214-0.088,1.484-0.528,1.589
			c-0.194,0.035-2.645,0.035-3.179,0.035c-1.302,0-1.337,0-1.449-0.053c-0.141-0.07-0.264-0.194-0.264-0.616v-2.768L181.257,42.23z"
			/>
	</g>
	<g>
		<path class="st2" d="M198.974,34.876h-5.343c0.475-0.897,0.563-1.196,0.563-1.519c0-0.633-0.721-0.915-1.255-0.915
			c-0.739,0-0.862,0.299-1.519,1.607c-0.264,0.545-1.642,2.768-3.683,4.287c-0.809,0.598-0.956,0.704-0.956,1.185
			c0,0.581,0.528,1.179,1.149,1.179c1.196,0,3.419-2.469,4.305-3.671h5.202c0.44,0,0.669,0,0.669,0.334
			c0,0.457-0.545,1.924-1.003,2.838c-1.836,3.583-4.85,4.744-7.759,5.466c-1.308,0.317-1.642,0.422-1.642,1.185
			c0,0.264,0.106,1.214,1.167,1.214c0.563,0,4.34-0.721,7.143-2.926c4.041-3.19,4.727-8.04,4.727-8.715
			C200.739,35.509,200.258,34.876,198.974,34.876z"/>
		<path class="st2" d="M208.029,41.685v-7.671c0-0.844-0.457-1.132-1.255-1.132c-1.038,0-1.214,0.581-1.214,1.132v7.671
			c0,0.844,0.457,1.126,1.255,1.126C207.853,42.811,208.029,42.23,208.029,41.685z"/>
		<path class="st2" d="M215.787,32.653c-1.056,0-1.232,0.598-1.232,1.149v6.703c0,1.091-0.106,2.117-1.009,3.173
			c-0.932,1.079-2.275,1.642-5.079,1.906c-1.185,0.123-1.765,0.176-1.765,1.132c0,1.214,1.097,1.214,1.361,1.214
			c0.387,0,1.73-0.035,3.313-0.475c5.36-1.484,5.659-4.991,5.659-7.02v-6.633C217.042,32.953,216.561,32.653,215.787,32.653z"/>
		<path class="st2" d="M223.699,36.36h10.685c0.616,0,1.161-0.246,1.161-1.161c0-1.149-0.897-1.149-1.161-1.149h-10.685
			c-0.545,0-1.185,0.158-1.185,1.161C222.52,36.36,223.435,36.36,223.699,36.36z"/>
		<path class="st2" d="M235.691,44.259h-13.242c-0.704,0-1.185,0.299-1.185,1.161c0,1.144,0.88,1.144,1.185,1.144h13.242
			c0.704,0,1.167-0.299,1.167-1.161C236.858,44.277,235.973,44.259,235.691,44.259z"/>
		<path class="st2" d="M245.385,40.324c0.123,0.545,0.282,1.185,0.897,1.185c0.369,0,1.372-0.035,1.372-1.044
			c0-0.422-0.704-2.838-1.108-3.7c-0.211-0.475-0.387-0.827-1.038-0.827c-0.563,0-1.149,0.334-1.149,0.915
			c0,0.229,0.07,0.405,0.141,0.598C244.822,38.26,245.051,38.952,245.385,40.324z"/>
		<path class="st2" d="M251.643,36.448c-0.123-0.035-0.246-0.053-0.352-0.053c-0.827,0-0.973,0.616-1.079,1.097
			c-0.369,1.765-0.405,1.959-0.651,2.645c-1.431,4.146-4.604,5.202-6.017,5.624c-1.237,0.369-1.589,0.475-1.589,1.126
			c0,0.352,0.229,1.144,1.038,1.144c0.282,0,4.533-0.633,7.161-4.41c1.924-2.786,2.311-6.134,2.311-6.205
			C252.476,37.064,252.352,36.589,251.643,36.448z"/>
		<path class="st2" d="M243.761,41.262c0-0.264-0.053-0.457-0.194-0.862c-1.026-2.803-1.325-3.613-2.152-3.613
			c-0.545,0-1.179,0.334-1.179,0.95c0,0.246,0.088,0.44,0.176,0.633c0.352,0.757,0.651,1.431,1.073,2.803
			c0.194,0.616,0.352,1.132,0.968,1.132C242.846,42.301,243.761,42.142,243.761,41.262z"/>
		<path class="st2" d="M267.776,34.876h-5.343c0.475-0.897,0.563-1.196,0.563-1.519c0-0.633-0.721-0.915-1.249-0.915
			c-0.739,0-0.862,0.299-1.519,1.607c-0.264,0.545-1.636,2.768-3.683,4.287c-0.809,0.598-0.95,0.704-0.95,1.185
			c0,0.581,0.528,1.179,1.144,1.179c1.202,0,3.425-2.469,4.305-3.671h5.202c0.44,0,0.669,0,0.669,0.334
			c0,0.457-0.545,1.924-1.003,2.838c-1.836,3.583-4.85,4.744-7.759,5.466c-1.308,0.317-1.642,0.422-1.642,1.185
			c0,0.264,0.106,1.214,1.161,1.214c0.563,0,4.34-0.721,7.143-2.926c4.041-3.19,4.727-8.04,4.727-8.715
			C269.535,35.509,269.06,34.876,267.776,34.876z"/>
	</g>
</g>
<g>
	<g>
		<path class="st3" d="M85.856,11.158c0.146,0,0.686,0,0.686,0.629c0,0.641-0.539,0.641-0.686,0.641h-7.373
			c-0.292,0-0.461,0.135-0.461,0.461v6.462c0,0.315,0.157,0.45,0.461,0.45h7.597c0.146,0,0.697,0.011,0.697,0.641
			c0,0.641-0.539,0.641-0.697,0.641h-7.912c-1,0-1.506-0.348-1.506-1.506v-6.912c0-1.169,0.506-1.506,1.506-1.506H85.856z
			 M85.643,15.676c0.157,0,0.607,0,0.607,0.584c0,0.584-0.45,0.584-0.607,0.584h-2.371c0.663,0.708,1.079,1.068,2.45,1.495
			c0.225,0.068,0.472,0.157,0.472,0.562c0,0.247-0.135,0.719-0.629,0.719c-0.393,0-2.36-0.629-3.304-2.259
			c-1.079,1.843-2.776,2.237-3.079,2.237c-0.494,0-0.641-0.472-0.641-0.719c0-0.393,0.292-0.483,0.483-0.54
			c0.697-0.214,1.596-0.506,2.169-1.495h-2.259c-0.169,0-0.596,0-0.596-0.573c0-0.562,0.36-0.596,0.596-0.596h2.63
			c0-0.011,0.034-0.281,0.034-0.393v-0.686h-1.214c-0.618,0.899-0.865,0.978-1.101,0.978c-0.337,0-0.708-0.292-0.708-0.674
			c0-0.236,0.056-0.281,0.54-0.798c0.326-0.337,0.551-0.73,0.832-1.225c0.135-0.247,0.304-0.438,0.596-0.438
			c0.259,0,0.674,0.157,0.674,0.584c0,0.157-0.045,0.27-0.124,0.416h4.091c0.146,0,0.607,0,0.607,0.573
			c0,0.584-0.45,0.584-0.607,0.584h-2.304v0.686c0,0.157-0.022,0.315-0.034,0.393H85.643z"/>
		<path class="st3" d="M98.258,17.766c0,0.236,0,0.562-0.247,0.82c-0.281,0.292-0.629,0.292-0.865,0.292h-1.158v1.169
			c0,1.169-0.303,1.27-1.495,1.27c-0.719,0-1.124,0-1.124-0.618c0-0.36,0.191-0.562,0.551-0.562c0.045,0,0.427,0.011,0.461,0.011
			c0.214,0,0.258-0.079,0.258-0.303v-0.967h-1.191c-1.045,0-1.101-0.686-1.101-1.101v-0.753c-0.079,0.045-0.202,0.101-0.337,0.101
			c-0.303,0-0.528-0.292-0.562-0.596c-0.045,1.079-0.236,2.607-0.843,3.821c-0.416,0.832-0.618,0.922-0.91,0.922
			c-0.371,0-0.731-0.292-0.731-0.618c0-0.202,0.09-0.382,0.191-0.584c0.584-1.146,0.764-1.495,0.933-2.551
			c-0.214,0.157-0.641,0.45-0.922,0.45c-0.472,0-0.562-0.618-0.562-0.798c0-0.416,0.281-0.528,0.517-0.618
			c0.292-0.112,0.674-0.292,1.09-0.54v-1.124c-0.079,0.045-0.225,0.124-0.427,0.124c-0.337,0-0.393-0.191-0.573-0.674
			c-0.146-0.405-0.214-0.539-0.416-0.944c-0.022-0.056-0.079-0.191-0.079-0.348c0-0.348,0.371-0.584,0.663-0.584
			c0.337,0,0.461,0.27,0.832,1.113v-0.686c0-1.011,0.45-1.292,1.304-1.292h2.416v-0.348c0-0.494,0.461-0.551,0.663-0.551
			c0.337,0,0.719,0.09,0.719,0.551v0.348h3.36c0.259,0,0.663,0.056,0.663,0.539c0,0.416-0.258,0.562-0.663,0.562h-3.495
			c0.214,0.09,0.36,0.202,0.315,0.528h3.226c0.225,0,0.562,0.011,0.562,0.528c0,0.506-0.303,0.551-0.562,0.551h-1.877
			c0.506,0.539,0.562,0.596,0.753,0.753c0.079-0.09,0.393-0.506,0.472-0.584c0.09-0.09,0.191-0.101,0.292-0.101
			c0.27,0,0.607,0.202,0.607,0.461c0,0.214-0.371,0.607-0.551,0.798c0.112,0.056,0.607,0.326,0.708,0.393
			c0.214,0.135,0.236,0.247,0.236,0.393c0,0.326-0.214,0.686-0.607,0.686c-0.18,0-0.315-0.056-0.494-0.169V17.766z M92.797,20.508
			c-0.348,0.236-0.967,0.618-1.281,0.618c-0.427,0-0.573-0.405-0.573-0.607c0-0.304,0.101-0.348,0.787-0.708
			c0.438-0.225,0.584-0.337,1.045-0.663c0.146-0.112,0.258-0.157,0.416-0.157c0.315,0,0.584,0.258,0.584,0.596
			C93.774,19.8,93.549,20.014,92.797,20.508z M91.459,16.384c0.034-0.191,0.191-0.315,0.225-0.337
			c0.169-0.135,0.461-0.303,0.629-0.427c-0.135-0.146-0.292-0.315-0.427-0.45c-0.112-0.124-0.157-0.202-0.157-0.315
			c0-0.258,0.326-0.495,0.584-0.495c0.157,0,0.281,0.068,0.787,0.641c0.225-0.214,0.427-0.438,0.607-0.697h-1.551
			c-0.337,0-0.562-0.101-0.562-0.562c0-0.461,0.303-0.517,0.562-0.517h2.124c0.157-0.416,0.18-0.461,0.27-0.528h-2.697
			c-0.27,0-0.393,0.135-0.393,0.382V16.384z M93.662,16.676h3.315v-0.225c0-0.157-0.067-0.27-0.27-0.27h-2.776
			c-0.225,0-0.27,0.124-0.27,0.27V16.676z M93.662,17.496v0.236c0,0.157,0.056,0.281,0.27,0.281h2.776
			c0.225,0,0.27-0.146,0.27-0.281v-0.236H93.662z M96.348,15.316c-0.472-0.517-0.618-0.787-0.73-1.011h-0.596
			c-0.157,0.258-0.348,0.573-0.708,1.011H96.348z M97.236,18.991c0.157,0,0.202,0.022,0.573,0.292
			c0.427,0.303,0.832,0.517,1.281,0.753c0.135,0.079,0.27,0.191,0.27,0.427c0,0.258-0.202,0.652-0.629,0.652
			c-0.27,0-0.888-0.393-1.18-0.584c-0.315-0.202-0.899-0.584-0.899-0.933C96.651,19.238,96.955,18.991,97.236,18.991z"/>
		<path class="st3" d="M103.574,19.328c-0.967,1.933-1.135,1.933-1.405,1.933c-0.36,0-0.753-0.292-0.753-0.663
			c0-0.258,0.09-0.393,0.562-1.146c0.45-0.697,0.775-1.427,1.146-2.237c0.079-0.18,0.191-0.405,0.539-0.405
			c0.281,0,0.674,0.202,0.674,0.607C104.338,17.8,103.798,18.89,103.574,19.328z M102.09,13.776c0.337,0,0.91,0.393,1.315,0.674
			c0.652,0.45,0.742,0.618,0.742,0.832c0,0.326-0.303,0.764-0.697,0.764c-0.191,0-0.27-0.056-0.933-0.551
			c-0.124-0.09-0.674-0.45-0.787-0.528c-0.202-0.135-0.27-0.225-0.27-0.528C101.461,14.158,101.753,13.776,102.09,13.776z
			 M102.405,10.854c0.315,0,0.944,0.393,1.304,0.618c0.663,0.405,0.82,0.528,0.82,0.843c0,0.371-0.315,0.787-0.674,0.787
			c-0.191,0-0.236-0.034-0.922-0.494c-0.146-0.09-0.798-0.472-0.922-0.562c-0.112-0.067-0.258-0.169-0.258-0.483
			C101.753,11.259,102.045,10.854,102.405,10.854z M105.046,16.608c-0.202,0-0.686-0.011-0.686-0.652
			c0-0.551,0.348-0.652,0.686-0.652h2.439v-1.708h-1.989c-0.169,0-0.697,0-0.697-0.629c0-0.506,0.225-0.697,0.697-0.697h1.989
			v-0.832c0-0.258,0.045-0.686,0.652-0.686c0.495,0,0.742,0.146,0.742,0.686v0.832h2.09c0.169,0,0.686,0,0.686,0.629
			c0,0.528-0.247,0.697-0.686,0.697h-2.09v1.708h2.461c0.169,0,0.686,0,0.686,0.618c0,0.506-0.236,0.686-0.686,0.686h-3.383
			c-0.427,1.18-1.023,2.472-1.281,3.012c1.247-0.067,1.585-0.09,3.079-0.236c-0.236-0.393-0.281-0.472-0.708-1.101
			c-0.146-0.214-0.169-0.337-0.169-0.45c0-0.393,0.416-0.607,0.697-0.607c0.292,0,0.461,0.112,0.944,0.798
			c0.281,0.416,0.686,1.011,1.09,1.742c0.247,0.45,0.337,0.663,0.337,0.865c0,0.382-0.382,0.674-0.787,0.674
			c-0.382,0-0.517-0.247-0.573-0.371c-0.034-0.056-0.169-0.337-0.191-0.393c-2.428,0.348-5.406,0.506-5.541,0.506
			c-0.135,0-0.674,0-0.674-0.697c0-0.247,0.101-0.461,0.315-0.584c0.101-0.056,0.169-0.067,0.652-0.079
			c0.483-1,0.955-2.023,1.281-3.079H105.046z"/>
		<path class="st3" d="M118.575,11.506c0-0.202,0-0.73,0.776-0.73c0.775,0,0.787,0.506,0.787,0.73v1.079
			c0,0.854,0.135,3.226,1.461,5.012c0.652,0.888,1.517,1.596,2.484,2.113c0.27,0.146,0.54,0.304,0.54,0.697
			c0,0.315-0.258,0.854-0.82,0.854c-0.551,0-1.922-1.135-2.652-1.944c-0.899-0.989-1.461-2.225-1.787-3.518
			c-0.528,2.023-1.315,3.023-2.034,3.765c-0.641,0.663-1.866,1.697-2.428,1.697c-0.472,0-0.809-0.461-0.809-0.865
			c0-0.36,0.202-0.495,0.416-0.618c1.461-0.832,3.102-1.955,3.832-4.99c0.112-0.483,0.236-2.023,0.236-2.203V11.506z"/>
		<path class="st3" d="M129.174,12.428c0.573,0,1.023,0.214,1.023,0.933c0,0.483-0.146,1-1,2.169
			c0.258,0.292,0.472,0.494,0.854,0.854c0.45,0.416,0.539,0.494,0.539,0.731c0,0.315-0.292,0.697-0.663,0.697
			c-0.393,0-0.764-0.517-1.056-0.922v3.81c0,0.551-0.258,0.686-0.764,0.686c-0.584,0-0.641-0.393-0.641-0.686v-3.315
			c-0.461,0.371-0.686,0.562-1.011,0.562c-0.36,0-0.719-0.393-0.719-0.798c0-0.382,0.169-0.494,1.011-1.09
			c1.236-0.865,1.877-2.023,1.877-2.158c0-0.169-0.169-0.18-0.27-0.18h-1.821c-0.326,0-0.686-0.09-0.686-0.652
			c0-0.641,0.506-0.641,0.686-0.641h0.922v-1.011c0-0.517,0.236-0.697,0.753-0.697c0.629,0,0.663,0.472,0.663,0.697v1.011H129.174z
			 M135.491,13.72c0.191,0,0.73,0,0.73,0.652c0,0.528-0.202,0.753-0.73,0.753h-1.607v4.529h1.798c0.18,0,0.719,0,0.719,0.641
			c0,0.517-0.202,0.742-0.719,0.742h-5.159c-0.202,0-0.798,0-0.798-0.652c0-0.551,0.258-0.73,0.798-0.73h1.922v-4.529h-1.529
			c-0.18,0-0.708,0-0.708-0.663c0-0.551,0.236-0.742,0.708-0.742h1.529v-2.281c0-0.258,0.034-0.697,0.663-0.697
			c0.562,0,0.776,0.191,0.776,0.697v2.281H135.491z"/>
		<path class="st3" d="M148.382,19.575c0,1.158-0.506,1.506-1.506,1.506h-6.676c-1,0-1.506-0.337-1.506-1.506v-6.912
			c0-1.158,0.495-1.506,1.506-1.506h6.676c1,0,1.506,0.348,1.506,1.506V19.575z M147.011,12.922c0-0.326-0.18-0.461-0.45-0.461
			h-6.024c-0.326,0-0.45,0.191-0.45,0.461v6.395c0,0.303,0.146,0.461,0.45,0.461h6.024c0.292,0,0.45-0.146,0.45-0.461V12.922z
			 M145.719,18.339c0,1.27-0.36,1.27-1.955,1.27c-0.517,0-0.899,0-0.899-0.596c0-0.584,0.416-0.584,0.573-0.584
			c0.09,0,0.483,0.022,0.562,0.022c0.36,0,0.404-0.157,0.404-0.36v-3.034h-3.619c-0.236,0-0.641,0-0.641-0.573
			c0-0.539,0.236-0.641,0.641-0.641h3.619v-0.731c0-0.45,0.191-0.641,0.618-0.641c0.45,0,0.697,0.112,0.697,0.641v0.731h0.584
			c0.236,0,0.641,0.011,0.641,0.584c0,0.539-0.225,0.629-0.641,0.629h-0.584V18.339z M142.595,16.406
			c0.214,0.303,0.573,0.82,0.573,1.124c0,0.461-0.506,0.652-0.753,0.652c-0.292,0-0.382-0.157-0.708-0.708
			c-0.157-0.27-0.281-0.438-0.629-0.933c-0.101-0.135-0.236-0.326-0.236-0.528c0-0.337,0.371-0.573,0.674-0.573
			C141.763,15.439,141.909,15.439,142.595,16.406z"/>
	</g>
	
		<linearGradient id="SVGID_00000062177252285508176060000009597495088881480359_" gradientUnits="userSpaceOnUse" x1="194.0105" y1="16.0724" x2="195.6875" y2="16.0724">
		<stop  offset="0" style="stop-color:#8AC23E"/>
		<stop  offset="1" style="stop-color:#28AC4B"/>
	</linearGradient>
	<circle style="fill:url(#SVGID_00000062177252285508176060000009597495088881480359_);" cx="194.849" cy="16.072" r="0.838"/>
	
		<linearGradient id="SVGID_00000139265891750090476320000005501913622705477768_" gradientUnits="userSpaceOnUse" x1="154.8851" y1="38.8482" x2="191.4723" y2="38.8482" gradientTransform="matrix(1 0 0 -1 0 55)">
		<stop  offset="0" style="stop-color:#86B943"/>
		<stop  offset="1" style="stop-color:#32A44A"/>
	</linearGradient>
	<path style="fill:url(#SVGID_00000139265891750090476320000005501913622705477768_);" d="M165.006,11.742
		c0.172,0,0.695,0,0.695,0.606c0,0.456-0.195,0.672-0.695,0.672h-3.996v2.479c0,1.473,0.434,2.629,1.645,3.551
		c0.745,0.561,1.69,0.823,2.434,1.017c0.378,0.106,0.561,0.228,0.561,0.606c0,0.228-0.1,0.845-0.723,0.845
		c-0.778,0-3.646-1.117-4.602-3.346c-0.15,0.378-0.434,1.084-1.578,2.001c-1.145,0.9-2.523,1.373-3.029,1.373
		c-0.65,0-0.734-0.65-0.734-0.834c0-0.445,0.283-0.561,0.561-0.628c2.34-0.617,4.057-1.578,4.057-4.83v-2.229h-4.035
		c-0.228,0-0.684-0.033-0.684-0.639c0-0.511,0.306-0.639,0.684-0.639h4.035v-0.422c0-0.367,0.195-0.572,0.65-0.572
		c0.434,0,0.756,0.089,0.756,0.572v0.422h3.996V11.742z M159.098,16.449c0,0.295-0.283,0.539-0.856,0.984
		c0.333,0.311,0.445,0.434,0.445,0.65c0,0.378-0.411,0.672-0.684,0.672c-0.195,0-0.306-0.128-0.445-0.283
		c-0.067-0.078-0.139-0.15-0.333-0.356c-0.572,0.322-1.351,0.661-1.634,0.661c-0.445,0-0.572-0.434-0.572-0.65
		c0-0.306,0.206-0.422,0.434-0.511c0.539-0.217,0.595-0.239,0.823-0.345c-0.1-0.078-0.539-0.4-0.628-0.467
		c-0.078-0.067-0.161-0.161-0.161-0.322c0-0.272,0.261-0.561,0.617-0.561c0.15,0,0.283,0,1.212,0.723
		c0.183-0.128,0.356-0.272,0.684-0.572c0.089-0.078,0.195-0.183,0.4-0.206c-0.139,0.011-0.228-0.011-0.345-0.078
		c-0.128-0.078-0.628-0.511-0.734-0.606c-0.639,0.411-1.473,0.8-1.745,0.8c-0.378,0-0.528-0.4-0.528-0.628
		c0-0.295,0.217-0.389,0.378-0.456c0.661-0.272,0.734-0.295,0.911-0.4c-0.706-0.434-0.856-0.539-0.856-0.756
		c0-0.306,0.261-0.55,0.584-0.55c0.172,0,0.283,0.044,0.511,0.172c0.206,0.128,0.539,0.322,0.811,0.5
		c0.106-0.078,0.434-0.356,0.65-0.55c0.139-0.117,0.217-0.161,0.367-0.161c0.322,0,0.561,0.272,0.561,0.528
		c0,0.261-0.195,0.422-0.661,0.8c0.595,0.445,0.672,0.539,0.672,0.767c0,0.25-0.206,0.561-0.572,0.617
		C158.815,15.843,159.098,16.155,159.098,16.449z M165.2,15.171c0,0.311-0.295,0.628-0.606,0.628c-0.161,0-0.25-0.067-0.389-0.183
		c-0.345-0.322-0.4-0.345-0.55-0.456c-0.617,0.389-1.495,0.823-1.795,0.823c-0.422,0-0.55-0.445-0.55-0.628
		c0-0.322,0.261-0.434,0.445-0.5c0.5-0.206,0.561-0.217,0.889-0.389c-0.128-0.067-0.673-0.367-0.778-0.434
		c-0.056-0.044-0.217-0.15-0.217-0.356c0-0.217,0.217-0.511,0.595-0.511c0.306,0,1.062,0.467,1.395,0.684
		c0.15-0.106,0.195-0.15,0.628-0.511c0.139-0.128,0.261-0.15,0.367-0.15c0.333,0,0.584,0.295,0.584,0.539s-0.195,0.4-0.617,0.756
		C165.084,14.826,165.2,14.954,165.2,15.171z M164.411,15.993c0.139-0.139,0.261-0.195,0.411-0.195c0.333,0,0.606,0.272,0.606,0.561
		c0,0.261-0.206,0.456-0.745,0.939c0.595,0.489,0.745,0.617,0.745,0.911c0,0.378-0.4,0.606-0.639,0.606
		c-0.161,0-0.25-0.056-0.422-0.206c-0.345-0.306-0.356-0.322-0.661-0.572c-0.295,0.195-1.006,0.595-1.289,0.595
		c-0.356,0-0.584-0.378-0.584-0.661c0-0.272,0.183-0.378,0.283-0.434c0.089-0.044,0.5-0.228,0.584-0.261
		c-0.089-0.067-0.15-0.117-0.584-0.378c-0.128-0.078-0.295-0.217-0.295-0.456c0-0.272,0.283-0.572,0.617-0.572
		c0.272,0,0.995,0.478,1.339,0.717C163.967,16.427,164.011,16.394,164.411,15.993z M169.208,14.854
		c-0.195-0.25-0.367-0.456-0.834-0.923c-0.456-0.456-0.511-0.528-0.511-0.811s0.239-0.639,0.584-0.639
		c0.128,0,0.195,0.033,0.261,0.078c0.195-0.333,0.422-0.695,0.617-1.145c0.183-0.4,0.261-0.606,0.584-0.606
		c0.283,0,0.745,0.217,0.745,0.55c0,0.367-0.684,1.451-1.062,2.012c0.183,0.195,0.206,0.217,0.356,0.389
		c0.345-0.539,0.367-0.584,0.878-1.517c0.1-0.172,0.25-0.333,0.456-0.333c0.322,0,0.734,0.261,0.734,0.595
		c0,0.206-0.378,0.778-0.55,1.05c-0.628,0.962-0.995,1.406-1.495,2.045c0.217-0.011,0.306-0.011,1.05-0.067
		c-0.172-0.5-0.183-0.561-0.183-0.661c0-0.272,0.25-0.389,0.445-0.389c0.295,0,0.378,0.228,0.478,0.478
		c0.15,0.378,0.411,1.234,0.456,1.395c0.217-0.306,0.456-0.306,0.5-0.306c0.15,0,0.272,0.033,0.845,0.584
		c0.161,0.161,0.572,0.561,0.572,0.878c0,0.239-0.228,0.584-0.617,0.584c-0.172,0-0.206-0.033-0.561-0.4
		c-0.106-0.106-0.628-0.617-0.734-0.756c-0.106,0.161-0.295,0.228-0.478,0.228c-0.322,0-0.378-0.239-0.456-0.539
		c-0.1,0.011-0.161,0.022-0.661,0.078v4.296c0,0.161,0,0.606-0.55,0.606c-0.55,0-0.55-0.456-0.55-0.606v-4.179
		c-0.684,0.067-0.889,0.089-1.167,0.089c-0.322,0-0.606-0.161-0.606-0.661c0-0.572,0.356-0.572,0.867-0.595L169.208,14.854z
		 M169.185,17.878c0,0.217-0.089,1.784-0.306,2.557c-0.044,0.172-0.139,0.4-0.456,0.4c-0.056,0-0.606,0-0.606-0.5
		c0-0.15,0.15-0.811,0.172-0.939c0.106-0.595,0.139-1.006,0.183-1.601c0.022-0.261,0.078-0.5,0.478-0.5
		C169.185,17.294,169.185,17.683,169.185,17.878z M173.126,18.578c0.4-0.272,0.5-0.295,0.606-0.295c0.306,0,0.539,0.322,0.539,0.65
		c0,0.295-0.128,0.4-0.811,0.911c-0.306,0.228-1.106,0.789-1.395,0.789c-0.322,0-0.584-0.356-0.584-0.706
		c0-0.089,0.011-0.15,0.033-0.206c-0.4-0.033-0.411-0.172-0.489-0.9c-0.011-0.161-0.128-0.973-0.128-0.995
		c0-0.356,0.389-0.411,0.528-0.411c0.4,0,0.434,0.183,0.55,0.811c0.011,0.056,0.139,0.706,0.139,1.006
		C172.487,19.022,172.981,18.678,173.126,18.578z M175.788,20.245c0,1.084-0.228,1.278-1.351,1.278c-0.734,0-0.789,0-0.856-0.011
		c-0.333-0.056-0.5-0.367-0.5-0.672c0-0.295,0.1-0.661,0.595-0.661c0.089,0,0.456,0.022,0.528,0.011
		c0.172-0.022,0.25-0.089,0.25-0.356v-4.068h-1.895c-0.161,0-0.584,0-0.584-0.561c0-0.434,0.161-0.617,0.584-0.617h3.79V13.97
		h-3.246c-0.172,0-0.561-0.011-0.561-0.528c0-0.467,0.295-0.528,0.561-0.528h3.246V12.57c0-0.117-0.033-0.272-0.272-0.272h-3.14
		c-0.161,0-0.572,0-0.572-0.55c0-0.422,0.139-0.617,0.572-0.617h3.574c0.789,0,1.201,0.272,1.201,1.234v2.262h0.333
		c0.333,0,0.511,0.206,0.511,0.561c0,0.55-0.378,0.572-0.584,0.572h-2.184v0.606c0.139,0.333,0.378,0.756,0.489,0.95
		c0.195-0.172,0.528-0.478,0.856-0.878c0.261-0.333,0.367-0.422,0.595-0.422c0.367,0,0.639,0.322,0.639,0.606
		c0,0.217-0.078,0.378-0.272,0.617c-0.434,0.511-0.823,0.867-1.095,1.106c0.283,0.345,0.528,0.584,0.767,0.778
		c0.606,0.5,0.778,0.639,0.778,0.95c0,0.345-0.322,0.745-0.706,0.745c-0.456,0-1.428-1.073-2.045-2.195v1.623H175.788z
		 M183.675,15.115c-0.422,0-0.65-0.15-0.684-0.572c-0.445,0.261-1.278,0.745-1.678,0.745c-0.367,0-0.695-0.378-0.695-0.856
		c0-0.434,0.272-0.572,0.617-0.695c1.723-0.65,2.729-1.612,3.574-2.423c0.456-0.445,0.639-0.617,1.234-0.617
		c0.595,0,0.745,0.161,1.406,0.8c0.628,0.628,1.567,1.517,3.451,2.284c0.345,0.139,0.572,0.261,0.572,0.672
		c0,0.456-0.333,0.845-0.734,0.845c-0.367,0-1.189-0.467-1.612-0.734c-0.056,0.489-0.389,0.55-0.695,0.55H183.675z M185.248,17.511
		c-0.272,0.661-0.528,1.2-1.128,2.273c1.623-0.056,1.895-0.078,4.285-0.217c-0.172-0.217-0.228-0.272-0.673-0.767
		c-0.25-0.272-0.295-0.411-0.295-0.561c0-0.345,0.422-0.65,0.789-0.65c0.195,0,0.367,0.078,0.584,0.295
		c0.456,0.445,0.984,1.017,1.517,1.701c0.55,0.684,0.672,0.9,0.672,1.156c0,0.4-0.489,0.756-0.889,0.756
		c-0.261,0-0.389-0.15-0.456-0.25c-0.044-0.067-0.283-0.434-0.345-0.511c-1.189,0.139-2.423,0.228-3.635,0.306
		c-0.572,0.044-3.518,0.217-3.974,0.217c-0.183,0-0.706,0-0.706-0.734c0-0.1,0-0.617,0.511-0.661c0.106-0.011,0.9-0.033,1.073-0.033
		c0.411-0.756,0.823-1.506,1.095-2.318h-2.112c-0.478,0-0.695-0.217-0.695-0.717c0-0.639,0.539-0.639,0.695-0.639h8.931
		c0.467,0,0.695,0.195,0.695,0.706c0,0.65-0.539,0.65-0.695,0.65H185.248z M188.049,13.848c-0.356-0.261-1.028-0.778-1.678-1.506
		c-0.172-0.183-0.217-0.228-0.322-0.228c-0.106,0-0.15,0.044-0.322,0.228c-0.511,0.561-1.073,1.062-1.678,1.506H188.049z"/>
	<g>
		<g>
			<g>
				
					<linearGradient id="SVGID_00000111875084477774366720000001894852527219974049_" gradientUnits="userSpaceOnUse" x1="198.2257" y1="16.1454" x2="208.8981" y2="16.1454">
					<stop  offset="0" style="stop-color:#8AC23E"/>
					<stop  offset="1" style="stop-color:#28AC4B"/>
				</linearGradient>
				<path style="fill:url(#SVGID_00000111875084477774366720000001894852527219974049_);" d="M204.315,14.977h3.887
					c0.202,0,0.697,0.011,0.697,0.663c0,0.55-0.202,0.764-0.697,0.764h-3.887v4.314c0,0.348-0.101,0.696-0.685,0.696
					c-0.618,0-0.843-0.157-0.843-0.696v-4.314h-3.853c-0.27,0-0.708-0.045-0.708-0.663c0-0.528,0.169-0.764,0.708-0.764h3.853
					v-2.191c-0.944,0.034-3.123,0.079-3.179,0.079c-0.213,0-0.685,0-0.685-0.697c0-0.663,0.438-0.663,1.022-0.674
					c0.46,0,3.516-0.09,5.404-0.337c0.303-0.045,1.786-0.281,1.898-0.281c0.707,0,0.707,0.708,0.707,0.809
					c0,0.438-0.247,0.55-0.46,0.618c-0.595,0.202-2.392,0.337-3.179,0.405V14.977z"/>
			</g>
			<g>
				
					<linearGradient id="SVGID_00000077322324921516764250000012077983039305303723_" gradientUnits="userSpaceOnUse" x1="210.6384" y1="16.1175" x2="221.2769" y2="16.1175">
					<stop  offset="0" style="stop-color:#8AC23E"/>
					<stop  offset="1" style="stop-color:#28AC4B"/>
				</linearGradient>
				<path style="fill:url(#SVGID_00000077322324921516764250000012077983039305303723_);" d="M217.3,11.45
					c0-0.27,0-0.663,0.629-0.663c0.719,0,0.731,0.314,0.731,0.663h1.954c0.146,0,0.663,0,0.663,0.562
					c0,0.461-0.337,0.562-0.663,0.562h-1.954c0,0.191,0,0.202-0.022,0.292c0.067-0.012,0.169-0.023,0.326-0.023
					c0.427,0,0.707,0.101,0.707,0.438v0.292h1.012c0.281,0,0.584,0.068,0.584,0.517c0,0.438-0.27,0.528-0.584,0.528h-1.012v0.269
					c0,0.978-0.483,1.022-1.168,1.022h-2.056c-0.697,0-1.179-0.045-1.179-1.022v-0.269h-1.719v1.281c0,0.191,0.09,0.326,0.326,0.326
					h6.246c0.146,0,0.573,0,0.573,0.516c0,0.427-0.179,0.573-0.573,0.573h-3.483v0.405h4.044c0.157,0,0.584,0,0.584,0.528
					c0,0.405-0.146,0.595-0.584,0.595h-2.876c0.775,0.528,1.651,0.854,2.202,0.989c0.809,0.191,1.124,0.258,1.124,0.696
					c0,0.371-0.214,0.686-0.607,0.686c-0.618,0-2.55-0.652-3.887-1.888v1.438c0,0.27-0.045,0.686-0.64,0.686
					c-0.494,0-0.741-0.146-0.741-0.686v-1.46c-1.393,1.326-3.471,1.91-3.864,1.91c-0.517,0-0.629-0.461-0.629-0.674
					c0-0.427,0.303-0.517,1.145-0.719c0.349-0.09,1.427-0.438,2.191-0.978h-2.864c-0.169,0-0.596,0-0.596-0.562
					c0-0.506,0.337-0.562,0.596-0.562h4.021v-0.405h-1.831c-0.775,0-1.224-0.247-1.224-1.225v-1.471h-0.978
					c-0.213,0-0.584-0.023-0.584-0.517c0-0.393,0.202-0.528,0.584-0.528h0.978v-0.292c0-0.382,0.326-0.45,0.651-0.45
					c0.068,0,0.281,0,0.45,0.056c-0.022-0.067-0.022-0.09-0.022-0.157v-0.157h-1.966c-0.169,0-0.674-0.011-0.674-0.562
					c0-0.449,0.326-0.562,0.674-0.562h1.966c0-0.281,0-0.663,0.629-0.663c0.73,0,0.73,0.314,0.73,0.663H217.3z M217.3,12.573h-2.663
					c0,0.292,0,0.629-0.719,0.629c-0.135,0-0.258-0.022-0.393-0.078c0.022,0.056,0.022,0.09,0.022,0.157v0.292h1.719v-0.292
					c0-0.315,0.145-0.45,0.73-0.45c0.438,0,0.596,0.157,0.596,0.45v0.292h1.685v-0.303c0-0.045,0-0.056,0.011-0.112
					c-0.078,0.023-0.169,0.045-0.326,0.045c-0.416,0-0.663-0.146-0.663-0.483V12.573z M216.593,14.618v0.247
					c0,0.146,0.067,0.225,0.225,0.225h1.246c0.158,0,0.214-0.09,0.214-0.225v-0.247H216.593z"/>
			</g>
			<g>
				
					<linearGradient id="SVGID_00000000930951399509211600000007641698790204253885_" gradientUnits="userSpaceOnUse" x1="223.3544" y1="16.0611" x2="233.9937" y2="16.0611">
					<stop  offset="0" style="stop-color:#8AC23E"/>
					<stop  offset="1" style="stop-color:#28AC4B"/>
				</linearGradient>
				<path style="fill:url(#SVGID_00000000930951399509211600000007641698790204253885_);" d="M233.309,11.731
					c0.168,0,0.685,0,0.685,0.595c0,0.449-0.191,0.663-0.685,0.663h-3.932v2.437c0,1.45,0.426,2.584,1.617,3.494
					c0.731,0.55,1.663,0.809,2.393,1c0.37,0.101,0.55,0.225,0.55,0.595c0,0.225-0.102,0.831-0.708,0.831
					c-0.764,0-3.583-1.101-4.527-3.292c-0.146,0.371-0.426,1.067-1.55,1.966c-1.123,0.888-2.483,1.348-2.977,1.348
					c-0.64,0-0.719-0.64-0.719-0.82c0-0.438,0.281-0.55,0.55-0.618c2.303-0.607,3.988-1.55,3.988-4.752v-2.19h-3.966
					c-0.225,0-0.674-0.034-0.674-0.629c0-0.505,0.303-0.629,0.674-0.629h3.966v-0.416c0-0.359,0.191-0.562,0.64-0.562
					c0.427,0,0.742,0.09,0.742,0.562v0.416H233.309z M227.501,16.359c0,0.292-0.281,0.528-0.843,0.966
					c0.326,0.303,0.438,0.427,0.438,0.64c0,0.371-0.404,0.663-0.673,0.663c-0.192,0-0.303-0.124-0.439-0.281
					c-0.067-0.078-0.135-0.146-0.326-0.348c-0.562,0.315-1.326,0.652-1.607,0.652c-0.438,0-0.561-0.427-0.561-0.64
					c0-0.303,0.202-0.415,0.426-0.505c0.528-0.214,0.584-0.236,0.809-0.337c-0.101-0.079-0.528-0.393-0.618-0.46
					c-0.078-0.067-0.157-0.157-0.157-0.315c0-0.269,0.259-0.55,0.607-0.55c0.146,0,0.281,0,1.191,0.708
					c0.179-0.124,0.348-0.269,0.674-0.562c0.089-0.079,0.191-0.18,0.393-0.202c-0.135,0.012-0.225-0.011-0.337-0.078
					c-0.123-0.078-0.617-0.505-0.719-0.595c-0.629,0.405-1.449,0.786-1.718,0.786c-0.371,0-0.517-0.393-0.517-0.618
					c0-0.292,0.214-0.382,0.371-0.45c0.651-0.269,0.719-0.292,0.898-0.393c-0.696-0.427-0.842-0.528-0.842-0.742
					c0-0.303,0.259-0.539,0.573-0.539c0.169,0,0.281,0.045,0.506,0.169c0.202,0.124,0.528,0.315,0.797,0.494
					c0.101-0.078,0.427-0.348,0.64-0.539c0.135-0.112,0.213-0.157,0.359-0.157c0.315,0,0.55,0.269,0.55,0.517
					c0,0.258-0.191,0.415-0.651,0.786c0.583,0.438,0.663,0.528,0.663,0.752c0,0.247-0.202,0.55-0.562,0.607
					C227.22,15.764,227.501,16.067,227.501,16.359z M233.5,15.101c0,0.303-0.293,0.618-0.596,0.618c-0.157,0-0.247-0.067-0.382-0.18
					c-0.337-0.314-0.393-0.337-0.54-0.449c-0.607,0.382-1.471,0.809-1.764,0.809c-0.416,0-0.539-0.438-0.539-0.618
					c0-0.314,0.258-0.427,0.438-0.494c0.494-0.202,0.55-0.214,0.876-0.382c-0.123-0.067-0.663-0.359-0.764-0.427
					c-0.056-0.045-0.213-0.146-0.213-0.348c0-0.213,0.213-0.505,0.583-0.505c0.303,0,1.045,0.461,1.371,0.674
					c0.146-0.101,0.191-0.146,0.618-0.505c0.135-0.124,0.258-0.146,0.359-0.146c0.326,0,0.574,0.292,0.574,0.528
					s-0.191,0.393-0.607,0.741C233.387,14.764,233.5,14.887,233.5,15.101z M232.724,15.909c0.135-0.135,0.258-0.191,0.404-0.191
					c0.326,0,0.595,0.27,0.595,0.55c0,0.259-0.202,0.45-0.73,0.921c0.584,0.483,0.73,0.607,0.73,0.899
					c0,0.371-0.393,0.595-0.629,0.595c-0.157,0-0.247-0.056-0.416-0.202c-0.337-0.303-0.348-0.314-0.651-0.562
					c-0.293,0.191-0.988,0.584-1.269,0.584c-0.349,0-0.574-0.371-0.574-0.652c0-0.27,0.18-0.371,0.281-0.427
					c0.09-0.045,0.494-0.225,0.574-0.259c-0.09-0.067-0.146-0.112-0.574-0.371c-0.123-0.078-0.292-0.213-0.292-0.449
					c0-0.27,0.281-0.562,0.607-0.562c0.269,0,0.978,0.472,1.314,0.708C232.285,16.336,232.331,16.303,232.724,15.909z"/>
			</g>
			<g>
				
					<linearGradient id="SVGID_00000171695770005079581890000003341258970404061095_" gradientUnits="userSpaceOnUse" x1="236.0463" y1="16.1173" x2="246.6633" y2="16.1173">
					<stop  offset="0" style="stop-color:#8AC23E"/>
					<stop  offset="1" style="stop-color:#28AC4B"/>
				</linearGradient>
				<path style="fill:url(#SVGID_00000171695770005079581890000003341258970404061095_);" d="M237.474,14.786
					c-0.191-0.248-0.359-0.45-0.82-0.91c-0.45-0.449-0.506-0.516-0.506-0.797s0.235-0.629,0.573-0.629
					c0.124,0,0.191,0.033,0.259,0.078c0.191-0.326,0.416-0.685,0.607-1.124c0.179-0.393,0.258-0.595,0.573-0.595
					c0.281,0,0.731,0.214,0.731,0.539c0,0.359-0.674,1.427-1.045,1.977c0.18,0.191,0.202,0.214,0.349,0.382
					c0.337-0.528,0.359-0.573,0.865-1.494c0.101-0.169,0.247-0.326,0.449-0.326c0.315,0,0.719,0.259,0.719,0.584
					c0,0.202-0.37,0.764-0.539,1.033c-0.618,0.944-0.978,1.382-1.472,2.011c0.213-0.011,0.303-0.011,1.034-0.067
					c-0.169-0.495-0.18-0.551-0.18-0.652c0-0.27,0.247-0.382,0.438-0.382c0.293,0,0.371,0.225,0.472,0.472
					c0.146,0.371,0.405,1.214,0.45,1.371c0.213-0.303,0.45-0.303,0.494-0.303c0.146,0,0.269,0.034,0.831,0.573
					c0.157,0.157,0.562,0.55,0.562,0.865c0,0.236-0.225,0.573-0.607,0.573c-0.169,0-0.202-0.034-0.55-0.393
					c-0.102-0.101-0.618-0.607-0.719-0.741c-0.102,0.157-0.293,0.224-0.472,0.224c-0.315,0-0.371-0.235-0.45-0.528
					c-0.101,0.011-0.157,0.022-0.652,0.078v4.224c0,0.157,0,0.595-0.539,0.595c-0.54,0-0.54-0.449-0.54-0.595v-4.112
					c-0.673,0.067-0.876,0.09-1.145,0.09c-0.315,0-0.596-0.157-0.596-0.651c0-0.562,0.349-0.562,0.855-0.584L237.474,14.786z
					 M237.451,17.763c0,0.214-0.09,1.753-0.303,2.516c-0.045,0.169-0.136,0.393-0.45,0.393c-0.056,0-0.596,0-0.596-0.494
					c0-0.146,0.146-0.798,0.169-0.921c0.102-0.584,0.135-0.988,0.18-1.573c0.022-0.258,0.079-0.494,0.472-0.494
					C237.451,17.19,237.451,17.572,237.451,17.763z M241.326,18.449c0.393-0.27,0.495-0.292,0.596-0.292
					c0.303,0,0.528,0.314,0.528,0.64c0,0.292-0.124,0.393-0.797,0.899c-0.303,0.224-1.09,0.775-1.371,0.775
					c-0.314,0-0.573-0.348-0.573-0.697c0-0.09,0.012-0.146,0.034-0.202c-0.393-0.033-0.405-0.168-0.483-0.887
					c-0.011-0.157-0.123-0.955-0.123-0.978c0-0.348,0.382-0.404,0.516-0.404c0.393,0,0.427,0.18,0.54,0.797
					c0.011,0.056,0.135,0.697,0.135,0.988C240.697,18.887,241.181,18.549,241.326,18.449z M243.944,20.089
					c0,1.067-0.225,1.258-1.326,1.258c-0.719,0-0.775,0-0.843-0.011c-0.326-0.056-0.494-0.359-0.494-0.663
					c0-0.292,0.101-0.652,0.584-0.652c0.09,0,0.45,0.022,0.516,0.011c0.169-0.022,0.247-0.09,0.247-0.348v-3.999h-1.864
					c-0.158,0-0.573,0-0.573-0.551c0-0.427,0.157-0.607,0.573-0.607h3.73v-0.607h-3.191c-0.169,0-0.55-0.011-0.55-0.516
					c0-0.461,0.293-0.517,0.55-0.517h3.191V12.55c0-0.112-0.034-0.269-0.269-0.269h-3.09c-0.157,0-0.561,0-0.561-0.539
					c0-0.416,0.135-0.607,0.561-0.607h3.516c0.775,0,1.18,0.269,1.18,1.213v2.224h0.326c0.326,0,0.506,0.202,0.506,0.55
					c0,0.539-0.371,0.562-0.574,0.562h-2.145v0.595c0.135,0.326,0.37,0.741,0.483,0.932c0.191-0.169,0.517-0.472,0.843-0.865
					c0.259-0.326,0.359-0.416,0.584-0.416c0.359,0,0.629,0.314,0.629,0.595c0,0.213-0.079,0.371-0.269,0.607
					c-0.427,0.505-0.809,0.854-1.078,1.09c0.281,0.337,0.516,0.573,0.753,0.764c0.595,0.494,0.764,0.629,0.764,0.932
					c0,0.337-0.315,0.73-0.697,0.73c-0.45,0-1.404-1.056-2.011-2.157V20.089z"/>
			</g>
			<g>
				
					<linearGradient id="SVGID_00000139985408136473688240000008153790091390570935_" gradientUnits="userSpaceOnUse" x1="248.7186" y1="16.0107" x2="259.3909" y2="16.0107">
					<stop  offset="0" style="stop-color:#8AC23E"/>
					<stop  offset="1" style="stop-color:#28AC4B"/>
				</linearGradient>
				<path style="fill:url(#SVGID_00000139985408136473688240000008153790091390570935_);" d="M251.729,15.045
					c-0.416,0-0.64-0.146-0.674-0.562c-0.438,0.258-1.258,0.73-1.651,0.73c-0.359,0-0.685-0.371-0.685-0.843
					c0-0.427,0.269-0.562,0.607-0.686c1.697-0.64,2.685-1.584,3.516-2.382c0.449-0.438,0.629-0.607,1.213-0.607
					c0.584,0,0.73,0.157,1.382,0.787c0.618,0.618,1.539,1.494,3.392,2.247c0.337,0.135,0.562,0.258,0.562,0.663
					c0,0.45-0.326,0.831-0.719,0.831c-0.359,0-1.169-0.461-1.584-0.719c-0.056,0.483-0.382,0.539-0.685,0.539H251.729z
					 M253.28,17.404c-0.269,0.652-0.516,1.18-1.112,2.236c1.595-0.056,1.865-0.079,4.213-0.214
					c-0.169-0.214-0.225-0.269-0.663-0.752c-0.247-0.27-0.293-0.405-0.293-0.551c0-0.337,0.416-0.64,0.775-0.64
					c0.191,0,0.359,0.078,0.574,0.292c0.449,0.438,0.966,1,1.494,1.674c0.539,0.674,0.663,0.888,0.663,1.135
					c0,0.393-0.483,0.742-0.877,0.742c-0.258,0-0.382-0.146-0.45-0.247c-0.045-0.068-0.28-0.427-0.336-0.506
					c-1.169,0.135-2.382,0.225-3.573,0.303c-0.562,0.045-3.46,0.214-3.91,0.214c-0.179,0-0.697,0-0.697-0.719
					c0-0.101,0-0.607,0.506-0.652c0.101-0.011,0.888-0.034,1.056-0.034c0.404-0.741,0.809-1.483,1.078-2.28h-2.078
					c-0.472,0-0.685-0.213-0.685-0.708c0-0.629,0.528-0.629,0.685-0.629h8.785c0.461,0,0.686,0.191,0.686,0.697
					c0,0.64-0.528,0.64-0.686,0.64H253.28z M256.032,13.798c-0.348-0.258-1.011-0.764-1.651-1.483
					c-0.169-0.18-0.213-0.224-0.315-0.224c-0.101,0-0.145,0.045-0.314,0.224c-0.506,0.551-1.056,1.045-1.651,1.483H256.032z"/>
			</g>
		</g>
	</g>
</g>
<g>
	<path class="st11" d="M10.366,6.979c0.328,8.791,7.36,15.869,16.133,16.28C26.171,14.462,19.145,7.383,10.366,6.979"/>
	<path class="st12" d="M51.834,0C38.756,0.956,23.819,12.04,28.775,40.33c0-9.09,1.361-14.614,2.44-17.318
		C42.597,21.335,51.394,11.741,51.834,0"/>
	<path class="st13" d="M16.166,50.564c0.305,0,0.422,0.012,0.557,0.082c0.182,0.094,0.305,0.305,0.305,0.551
		c0,0.252-0.123,0.463-0.305,0.551c-0.135,0.07-0.258,0.082-0.557,0.082h-2.07v2.041c0,0.334-0.012,0.452-0.1,0.627
		c-0.106,0.199-0.34,0.34-0.622,0.34c-0.281,0-0.516-0.141-0.622-0.34c-0.088-0.176-0.1-0.293-0.1-0.627v-5.507
		c0-0.211,0-0.469,0.199-0.674c0.199-0.199,0.463-0.199,0.674-0.199h3.132c0.305,0,0.422,0.012,0.557,0.082
		c0.182,0.094,0.305,0.305,0.305,0.551c0,0.252-0.123,0.463-0.305,0.551c-0.141,0.07-0.258,0.082-0.557,0.082H14.09v1.795h2.076
		V50.564z"/>
	<path class="st13" d="M20.559,54.856c-0.534,0-0.962-0.176-1.261-0.469c-0.428-0.434-0.545-0.932-0.545-1.519v-2.545
		c0-0.323,0.018-0.452,0.088-0.598c0.1-0.194,0.305-0.317,0.581-0.317c0.27,0,0.481,0.123,0.581,0.317
		c0.07,0.147,0.088,0.27,0.088,0.598v2.358c0,0.721,0.463,0.962,0.88,0.962c0.422,0,0.891-0.24,0.891-0.962v-2.358
		c0-0.323,0.018-0.452,0.088-0.598c0.1-0.194,0.311-0.317,0.581-0.317c0.27,0,0.481,0.123,0.581,0.317
		c0.07,0.147,0.088,0.27,0.088,0.598v3.607c0,0.34-0.018,0.446-0.1,0.598c-0.1,0.188-0.323,0.305-0.575,0.305
		c-0.182,0-0.323-0.059-0.428-0.152c-0.106-0.1-0.158-0.211-0.199-0.387C21.562,54.669,21.051,54.856,20.559,54.856"/>
	<path class="st13" d="M25.467,50.634h-0.135c-0.252,0-0.346-0.018-0.452-0.07c-0.158-0.082-0.246-0.24-0.246-0.44
		s0.088-0.358,0.246-0.44c0.106-0.059,0.199-0.07,0.452-0.07h0.135v-0.71c0-0.323,0.018-0.452,0.088-0.598
		c0.1-0.194,0.311-0.317,0.581-0.317c0.27,0,0.481,0.123,0.581,0.317c0.07,0.147,0.088,0.27,0.088,0.598v0.71h0.399
		c0.252,0,0.346,0.018,0.452,0.07c0.158,0.082,0.246,0.24,0.246,0.44s-0.088,0.358-0.246,0.44c-0.106,0.059-0.199,0.07-0.452,0.07
		h-0.399v2.563c0,0.252,0.094,0.452,0.428,0.475c0.17,0.012,0.287,0.023,0.399,0.082c0.164,0.082,0.264,0.235,0.264,0.475
		c0,0.235-0.106,0.393-0.264,0.475c-0.117,0.059-0.293,0.094-0.551,0.094h-0.07c-1.108,0-1.542-0.751-1.542-1.531
		C25.467,53.267,25.467,50.634,25.467,50.634z"/>
	<path class="st13" d="M30.317,50.775c-0.176,0.106-0.323,0.141-0.44,0.141c-0.135,0-0.281-0.059-0.381-0.182
		c-0.106-0.129-0.147-0.246-0.147-0.399c0-0.299,0.252-0.51,0.498-0.633c0.387-0.205,0.809-0.311,1.349-0.311
		c1.49,0,2.252,0.633,2.252,1.888v2.651c0,0.346-0.018,0.446-0.1,0.598c-0.1,0.182-0.323,0.311-0.575,0.311
		c-0.182,0-0.323-0.059-0.428-0.152c-0.1-0.094-0.152-0.194-0.194-0.352c-0.387,0.381-0.715,0.528-1.325,0.528
		c-0.604,0-1.056-0.17-1.366-0.481c-0.281-0.281-0.44-0.727-0.44-1.202c0-0.85,0.586-1.548,1.847-1.548h1.243v-0.264
		c0-0.586-0.305-0.839-0.938-0.839C30.857,50.523,30.61,50.599,30.317,50.775 M32.112,52.54h-1.015
		c-0.534,0-0.792,0.217-0.792,0.616c0,0.369,0.258,0.604,0.809,0.604c0.328,0,0.563-0.041,0.792-0.258
		c0.158-0.147,0.205-0.334,0.205-0.674V52.54z"/>
	<path class="st13" d="M35.396,48.364c0-0.323,0.018-0.452,0.088-0.592c0.1-0.194,0.305-0.317,0.581-0.317
		c0.27,0,0.481,0.123,0.581,0.317c0.07,0.147,0.088,0.27,0.088,0.592v1.56c0.34-0.393,0.751-0.534,1.29-0.534
		c0.534,0,0.997,0.176,1.29,0.481c0.51,0.522,0.551,1.355,0.551,2.246c0,0.903-0.041,1.736-0.551,2.258
		c-0.299,0.305-0.774,0.481-1.296,0.481c-0.569,0-0.962-0.147-1.325-0.551c-0.041,0.176-0.094,0.287-0.194,0.381
		c-0.106,0.1-0.246,0.152-0.428,0.152c-0.252,0-0.475-0.123-0.575-0.311c-0.082-0.152-0.1-0.258-0.1-0.598V48.364z M37.63,50.599
		c-0.798,0-0.903,0.663-0.903,1.519c0,0.856,0.1,1.531,0.915,1.531c0.792,0,0.891-0.674,0.891-1.531
		C38.533,51.261,38.434,50.599,37.63,50.599"/>
	<path class="st13" d="M42.551,50.775c-0.176,0.106-0.323,0.141-0.44,0.141c-0.135,0-0.281-0.059-0.381-0.182
		c-0.106-0.129-0.147-0.246-0.147-0.399c0-0.299,0.252-0.51,0.498-0.633c0.387-0.205,0.809-0.311,1.349-0.311
		c1.49,0,2.252,0.633,2.252,1.888v2.651c0,0.346-0.018,0.446-0.1,0.598c-0.1,0.182-0.323,0.311-0.575,0.311
		c-0.182,0-0.323-0.059-0.428-0.152s-0.152-0.194-0.194-0.352c-0.393,0.381-0.715,0.528-1.325,0.528
		c-0.604,0-1.056-0.17-1.366-0.481c-0.281-0.281-0.44-0.727-0.44-1.202c0-0.85,0.586-1.548,1.847-1.548h1.243v-0.264
		c0-0.586-0.305-0.839-0.938-0.839C43.09,50.523,42.844,50.599,42.551,50.775 M44.345,52.54h-1.015
		c-0.534,0-0.792,0.217-0.792,0.616c0,0.369,0.258,0.604,0.809,0.604c0.328,0,0.563-0.041,0.792-0.258
		c0.158-0.147,0.205-0.334,0.205-0.674L44.345,52.54z"/>
	<g>
		<g>
			<defs>
				<path id="SVGID_00000155115775988295007780000006610743393811957659_" d="M48.233,21.599c-1.015-2.891-2.533-0.915-2.451,0.985
					c-0.974-1.542-1.759-0.047-1.759,1.841c-1.707-1.959-1.243,2.926-1.243,4.281c3.308-3.466,6.146-2.897,6.809-1.472
					c1.155,2.475-3.296,7.331-5.237,9.119c-1.261,1.161-3.026,1.261-0.528-1.114c0.375-0.358,1.29-1.237,2.557-2.762
					c4.955-5.947,0.369-6.205-2.223-3.683c-2.193,2.129-3.331,3.9-8.357,6.199c-2.17,0.991-3.407,2.569-3.272,5.501
					c0.088,1.965,2.897,6.633,8.738,2.874c5.601-3.607,8.081-5.876,10.316-9.87c2.27-4.052-0.088-9.753-0.469-10.92
					c-0.604-1.841-1.296-2.551-1.859-2.551C48.726,20.021,48.315,20.672,48.233,21.599"/>
			</defs>
			<clipPath id="SVGID_00000103963917371218996920000007176373447354498726_">
				<use xlink:href="#SVGID_00000155115775988295007780000006610743393811957659_"  style="overflow:visible;"/>
			</clipPath>
			
				<linearGradient id="SVGID_00000106864272031959865120000018144570171336188041_" gradientUnits="userSpaceOnUse" x1="-123.3883" y1="-414.9431" x2="-122.7981" y2="-414.9431" gradientTransform="matrix(40.7752 -7.1898 -7.1898 -40.7752 2076.5808 -17771.0664)">
				<stop  offset="0" style="stop-color:#FEF2E0"/>
				<stop  offset="0.1296" style="stop-color:#FDEFD8"/>
				<stop  offset="0.341" style="stop-color:#FBE6C2"/>
				<stop  offset="0.6078" style="stop-color:#F7D79D"/>
				<stop  offset="0.9169" style="stop-color:#F2C368"/>
				<stop  offset="1" style="stop-color:#F0BD58"/>
			</linearGradient>
			
				<polygon style="clip-path:url(#SVGID_00000103963917371218996920000007176373447354498726_);fill:url(#SVGID_00000106864272031959865120000018144570171336188041_);" points="
				33.12,50.786 58.795,46.259 53.288,15.037 27.614,19.564 			"/>
		</g>
	</g>
	<g>
		<g>
			<defs>
				<path id="SVGID_00000022547091998971100900000005534345770353635007_" d="M9.322,21.599c1.015-2.891,2.533-0.915,2.451,0.985
					c0.974-1.542,1.759-0.047,1.759,1.841c1.707-1.959,1.243,2.926,1.243,4.281c-3.302-3.472-6.146-2.903-6.809-1.478
					c-1.155,2.475,3.296,7.331,5.237,9.119c1.261,1.161,3.026,1.261,0.528-1.114c-0.375-0.358-1.29-1.237-2.557-2.762
					c-4.955-5.947-0.369-6.205,2.223-3.683c2.193,2.129,3.331,3.9,8.357,6.199c2.17,0.991,3.407,2.569,3.272,5.501
					c-0.088,1.965-2.897,6.633-8.738,2.874c-5.601-3.607-8.081-5.876-10.316-9.87c-2.27-4.052,0.088-9.753,0.469-10.92
					c0.604-1.841,1.296-2.551,1.859-2.551C8.83,20.021,9.24,20.672,9.322,21.599"/>
			</defs>
			<clipPath id="SVGID_00000015314582002301869980000004457716698631100091_">
				<use xlink:href="#SVGID_00000022547091998971100900000005534345770353635007_"  style="overflow:visible;"/>
			</clipPath>
			
				<linearGradient id="SVGID_00000153706241419043325330000017907366947095883153_" gradientUnits="userSpaceOnUse" x1="-121.4953" y1="-408.0947" x2="-120.8854" y2="-408.0947" gradientTransform="matrix(36.5262 6.4406 -6.4406 36.5262 1813.7627 15719.8027)">
				<stop  offset="0" style="stop-color:#E798A2"/>
				<stop  offset="0.2301" style="stop-color:#EDB2B8"/>
				<stop  offset="0.567" style="stop-color:#F5D3D5"/>
				<stop  offset="0.8354" style="stop-color:#FAE6E6"/>
				<stop  offset="1" style="stop-color:#FBEDED"/>
			</linearGradient>
			
				<polygon style="clip-path:url(#SVGID_00000015314582002301869980000004457716698631100091_);fill:url(#SVGID_00000153706241419043325330000017907366947095883153_);" points="
				4.132,15.037 29.936,19.681 24.57,50.786 -1.24,46.142 			"/>
		</g>
	</g>
</g>
</svg>
