<?xml version="1.0" encoding="utf-8"?>
<!-- Generator: Adobe Illustrator 26.3.1, SVG Export Plug-In . SVG Version: 6.00 Build 0)  -->
<svg version="1.1" id="レイヤー_1" xmlns="http://www.w3.org/2000/svg" xmlns:xlink="http://www.w3.org/1999/xlink" x="0px"
	 y="0px" width="357px" height="57px" viewBox="0 0 357 57" style="enable-background:new 0 0 357 57;" xml:space="preserve">
<style type="text/css">
	.st0{fill:url(#SVGID_00000094594657012635695720000010497646795100972700_);}
	.st1{fill:#F09BA7;}
	.st2{fill:#F9C258;}
	.st3{fill:#A8977F;}
	.st4{fill:url(#SVGID_00000027583838775710855580000003577027510382807683_);}
	.st5{fill:url(#SVGID_00000085233208807467606150000003985141746738815660_);}
	.st6{fill:url(#SVGID_00000158010917997687516930000015815678656877101222_);}
	.st7{fill:url(#SVGID_00000010281591192733777600000003009947876063694747_);}
	.st8{fill:url(#SVGID_00000080202381263803111940000001460259937692259225_);}
	.st9{fill:#8AC23E;}
	.st10{fill:#28AC4B;}
	.st11{display:none;fill:#A8977F;}
	
		.st12{clip-path:url(#SVGID_00000096036573277290390990000002644127144744595112_);fill:url(#SVGID_00000147900341674373731280000000272467674409670285_);}
	
		.st13{clip-path:url(#SVGID_00000163055132959916991610000009462851207402868353_);fill:url(#SVGID_00000010308625955288007190000008306122287138308235_);}
	.st14{fill:url(#SVGID_00000040568997419198994570000014534108471953620404_);}
	.st15{fill:#FFFFFF;}
	.st16{fill:url(#SVGID_00000016755495907548139010000014680529495256163247_);}
	.st17{display:none;}
	.st18{display:inline;}
	.st19{font-family:'YuMinStdN-ExtraBold';}
	.st20{font-size:18.5118px;}
	.st21{letter-spacing:6;}
	.st22{fill:none;stroke:#FFFFFF;stroke-width:0.1417;stroke-miterlimit:10;}
</style>
<g>
	
		<linearGradient id="SVGID_00000145043676017091044060000004389833902237379469_" gradientUnits="userSpaceOnUse" x1="69.993" y1="38.7567" x2="146.3073" y2="38.7567">
		<stop  offset="0" style="stop-color:#8AC23E"/>
		<stop  offset="1" style="stop-color:#28AC4B"/>
	</linearGradient>
	<path style="fill:url(#SVGID_00000145043676017091044060000004389833902237379469_);" d="M76.5,39c0,1.1-1.4,5.6-2.1,7.4
		c-0.5,1.5-1.1,2.6-2.3,2.6c-0.9,0-2.2-0.7-2.2-1.8c0-0.6,0.1-0.9,0.6-1.8c0.8-1.5,1.6-4.1,1.8-5.3c0.4-1.6,0.6-2.7,2-2.7
		c0.2,0,0.4,0,0.6,0.1C75.6,37.6,76.5,38,76.5,39 M90.8,39.7c-0.8-1.7-2.2-3.1-4.1-3.1c-1.3,0-1.6,0.9-1.8,1.4c0,0.1,0,0.3,0,0.5
		c0,0.5,0.2,0.8,0.4,1c0.1,0.1,1,0.7,1.1,0.8c1.2,1.1,1.5,4.4,1.7,6.4c0,0.6,0.2,1.9,2,1.9c0.6,0,1.3-0.2,1.7-0.6
		c0.3-0.3,0.4-0.7,0.4-1.5C92.1,46.2,91.8,41.8,90.8,39.7 M85.9,33.6c1.1-0.1,2-0.3,2-1.9c0-1.6-1.3-1.7-2.6-1.8
		c-2.9-0.2-5.6-0.6-6.9-0.8c-0.5-0.1-2.7-0.6-3.2-0.6c-1.2,0-1.5,1-1.6,1.6c-0.2,1.5,0.8,1.8,1.8,2c1,0.3,2.5,0.5,4.1,0.8
		c-1.2,0.7-2.1,1.9-2,3.7c0.1,2.3,1.5,4.1,2.2,4.9c1.3,1.5,1.8,2.1,1.8,3.2c0,0.3,0,1.7-1.7,1.7c-0.6,0-1-0.1-1.4-0.2
		c-0.9-0.3-1-0.3-1.4-0.3c-1.7,0-1.7,1.9-1.7,2c0,0.7,0.3,1.2,1,1.6c1.4,0.8,3.2,0.9,4.1,0.9c4.1,0,5.3-3.1,5.3-5
		c0-1.9-0.8-3.5-2.6-5.5C79.9,36.3,80.6,34.3,85.9,33.6 M102.3,28.9c0.4-0.5,0.9-0.6,1.5-0.6c1,0,2.1,0.3,2.1,1.6
		c0,0.3-0.1,0.7-0.2,1.5c2,0,4.3-0.1,5.9-0.2c0.3,0,1.6-0.1,1.9-0.1c0.5,0,1.9,0,1.9,1.8c0,1.7-1.2,1.8-2,1.8
		c-2.5,0.1-5.6,0.2-8.4,0.3c-0.6,3.1-3.6,13.6-4.6,14.6c-0.2,0.2-0.6,0.5-1.2,0.5c-0.7,0-2.2-0.4-2.2-1.8c0-0.5,0.4-1.4,0.6-1.9
		c1-2.2,2.2-5.9,2.8-8.4c0.3-1.1,0.6-2.3,0.7-3c-1.4,0-2.8,0-3.3-0.2c-0.6-0.4-0.7-1.1-0.7-1.6c0-1.5,0.8-1.9,2-1.9h2.6
		C102,29.4,102.1,29.2,102.3,28.9 M113.2,49.9c-5.8,0-8.3-0.9-8.3-4.1c0-0.3,0-3,2.4-3c0.9,0,1.8,0.4,1.8,1.2c0,0.2-0.1,0.4-0.1,0.6
		c-0.1,0.4-0.2,0.5-0.2,0.7c0,0.4,0.3,0.7,1.1,0.9c0.7,0.1,1.5,0.1,2.1,0.1c0.7,0,2,0,3.6-0.2c0.3,0,0.8-0.1,1.1-0.1
		c1.1,0,1.7,0.6,1.7,1.8C118.4,49.5,117.6,49.9,113.2,49.9 M117.1,40.2c-0.3,0.3-0.7,0.3-1.2,0.3c-0.4,0-2.2-0.1-2.6-0.1
		c-1.5,0-2.2,0-4.5,0.2c-0.1,0-0.5,0-0.9,0c-1.6,0-1.6-1.6-1.6-1.8c0-0.8,0.3-1.5,1.5-1.7c1.5-0.3,4.4-0.4,6-0.4c3.7,0,4,0.6,4,2.1
		C117.7,39.2,117.6,39.8,117.1,40.2 M128.6,30.3c0,0.3-0.5,3.3-0.6,4c-0.2,2-0.3,4-0.3,5.9c0,2.1,0.1,4.4,0.4,6.5
		c0.1,0.5,0.1,1.2,0.1,1.5c0,1.2-0.7,1.7-1.9,1.7c-0.5,0-1.5,0-1.9-1.2c-0.4-1.2-0.6-5.3-0.6-8.7c0-5.3,0.7-9.5,0.9-10.1
		c0.2-0.7,0.6-1.5,2.2-1.3C128.3,28.8,128.6,29.4,128.6,30.3 M136.7,30.6c0-0.7,0-2.1,2-2.1c2,0,2,1.3,2,2.1l0,2.1
		c0.4,0,2.4-0.1,2.5-0.1c0.5,0,1.9,0,1.9,1.9c0,1.2-0.7,1.6-1,1.7c-0.4,0.1-0.6,0.1-3.3,0.2l0,4.9c2,1,3.1,1.9,3.8,2.6
		c0.5,0.5,0.8,1.1,0.8,1.7c0,1.1-0.9,2.2-2,2.2c-0.7,0-0.9-0.3-1.8-1.2c-0.1-0.1-1-0.8-1.1-0.9c-0.1,1.3-0.2,4.4-5.2,4.4
		c-4.3,0-5.9-2.5-5.9-5c0-2.9,2.2-4.9,5.8-4.9c0.8,0,1.3,0.1,1.7,0.1l-0.1-3.7c-1.7,0.1-3.8,0.1-5.5,0.1c-0.6,0-2,0-2-1.9
		c0-1.4,0.9-1.7,1.4-1.8c0.3,0,4.9-0.1,5.9-0.1L136.7,30.6z M135.2,43.2c-0.6,0-2.4,0.1-2.4,1.8c0,1.7,1.8,1.7,2.2,1.7
		c0.5,0,1.6-0.1,1.9-1c0.1-0.3,0.1-0.5,0.1-2.2C136.5,43.4,136,43.2,135.2,43.2 M141,28.9c-0.1-0.2-0.1-0.3-0.1-0.4
		c0-0.6,0.7-0.8,1-0.8c0.4,0,0.7,0.3,0.9,0.8c0.4,1.1,0.7,2,0.7,2.5c0,0.8-0.8,0.9-0.9,0.9c-0.3,0-0.6-0.1-0.8-0.6
		c0-0.2-0.3-1.1-0.4-1.2C141.4,29.9,141.1,29.1,141,28.9 M143.8,28.5c-0.1-0.2-0.1-0.4-0.1-0.4c0-0.6,0.7-0.8,1-0.8
		c0.5,0,0.7,0.4,1,1.1c0.3,0.7,0.6,1.7,0.6,2.2c0,0.8-0.8,0.8-1,0.8c-0.2,0-0.6-0.1-0.8-0.6c0-0.2-0.3-1-0.4-1.2
		C144.2,29.5,143.9,28.7,143.8,28.5"/>
	<g>
		<g>
			<path class="st1" d="M167.1,35.1h-7.7c0.3-0.9,0.3-1.1,0.3-1.2c0-0.7-0.9-0.9-1.3-0.9c-0.9,0-1.1,0.4-1.6,2.1h-4.5
				c-0.7,0-1.1,0.4-1.1,1.1c0,0.7,0.4,1.1,1.1,1.1h3.6c-0.5,1.1-1.5,3-3.2,4.3c-1.6,1.3-1.7,1.4-1.7,1.9c0,0.8,0.5,1.4,1.2,1.4
				c0.4,0,0.6-0.1,1.5-0.9v5.1c0,0.7,0.3,1.1,1.2,1.1c1.1,0,1.1-0.8,1.1-1.1v-7.6c1.3-1.7,2.2-3.5,2.4-4.2h8.6
				c0.7,0,1.1-0.4,1.1-1.1C168.2,35.5,167.7,35.1,167.1,35.1z"/>
			<path class="st1" d="M167,47.3h-3.5v-4.4h3c0.7,0,1.1-0.4,1.1-1.1c0-0.7-0.4-1.1-1.1-1.1h-3v-1.9c0-0.8-0.4-1.1-1.2-1.1
				c-0.9,0-1.1,0.6-1.1,1.1v1.9h-3c-0.7,0-1.1,0.4-1.1,1.1c0,0.8,0.5,1.1,1.1,1.1h3v4.4h-3.6c-0.7,0-1.1,0.4-1.1,1.1
				c0,0.7,0.4,1.1,1.1,1.1h9.4c0.7,0,1.1-0.4,1.1-1.1C168.2,47.6,167.6,47.3,167,47.3z"/>
			<path class="st1" d="M187.1,43.6c0.5-0.1,0.9-0.2,0.9-1c0-1.2-0.8-1.1-1.1-1l-7.4,0.7v-2c1.9-0.2,2.9-0.4,4.5-0.8
				c0.5-0.1,0.9-0.3,0.9-0.9c0-0.4-0.2-1.2-1-1.2c-0.2,0-0.6,0.1-0.7,0.1c-3.6,0.9-6.2,1-9,1.2c-0.1,0-0.4,0-0.7,0.2
				c0.1-0.1,0.1-0.3,0.1-0.6v-1c0-0.4,0.2-0.6,0.6-0.6h10.4c0.4,0,0.6,0.2,0.6,0.6v1c0,0.7,0.2,1.1,1.2,1.1c1,0,1.1-0.6,1.1-1.1
				v-1.5c0-1.6-0.7-2.1-2.1-2.1h-4.8V34c0-0.7-0.5-0.9-1.3-0.9c-0.6,0-1.1,0.2-1.1,0.9v0.7h-4.8c-1.4,0-2.1,0.5-2.1,2.1v1.5
				c0,0.6,0.2,1.1,1.1,1.1c0.4,0,0.6-0.1,0.7-0.2c-0.1,0.2-0.1,0.4-0.1,0.5c0,0.3,0.1,1.1,1,1.1c0.7,0,1.4-0.1,2.9-0.2v1.9L172,43
				c-0.5,0.1-0.9,0.3-0.9,1c0,1.2,0.8,1.1,1.1,1.1l5-0.5v3.3c0,0.6,0,2,1.7,2.1c0.5,0,0.9,0,5.8,0c1.7,0,2.7,0,2.7-3.6
				c0-0.3,0-1.2-1.2-1.2c-1,0-1.1,0.7-1.1,1.1c-0.1,1.2-0.1,1.5-0.5,1.6c-0.2,0-2.7,0-3.2,0c-1.3,0-1.4,0-1.5-0.1
				c-0.1-0.1-0.3-0.2-0.3-0.6v-2.8L187.1,43.6z"/>
		</g>
		<g>
			<path class="st2" d="M205.2,36.1h-5.5c0.5-0.9,0.6-1.2,0.6-1.5c0-0.6-0.7-0.9-1.3-0.9c-0.8,0-0.9,0.3-1.5,1.6
				c-0.3,0.6-1.7,2.8-3.8,4.4c-0.8,0.6-1,0.7-1,1.2c0,0.6,0.5,1.2,1.2,1.2c1.2,0,3.5-2.5,4.4-3.7h5.3c0.4,0,0.7,0,0.7,0.3
				c0,0.5-0.6,2-1,2.9c-1.9,3.7-4.9,4.8-7.9,5.6c-1.3,0.3-1.7,0.4-1.7,1.2c0,0.3,0.1,1.2,1.2,1.2c0.6,0,4.4-0.7,7.3-3
				c4.1-3.3,4.8-8.2,4.8-8.9C207,36.7,206.5,36.1,205.2,36.1z"/>
			<path class="st2" d="M214.4,43v-7.8c0-0.9-0.5-1.2-1.3-1.2c-1.1,0-1.2,0.6-1.2,1.2V43c0,0.9,0.5,1.2,1.3,1.2
				C214.3,44.2,214.4,43.6,214.4,43z"/>
			<path class="st2" d="M222.4,33.8c-1.1,0-1.3,0.6-1.3,1.2v6.8c0,1.1-0.1,2.2-1,3.2c-1,1.1-2.3,1.7-5.2,1.9
				c-1.2,0.1-1.8,0.2-1.8,1.2c0,1.2,1.1,1.2,1.4,1.2c0.4,0,1.8,0,3.4-0.5c5.5-1.5,5.8-5.1,5.8-7.2V35
				C223.6,34.1,223.1,33.8,222.4,33.8z"/>
			<path class="st2" d="M230.4,37.6h10.9c0.6,0,1.2-0.3,1.2-1.2c0-1.2-0.9-1.2-1.2-1.2h-10.9c-0.6,0-1.2,0.2-1.2,1.2
				C229.2,37.6,230.2,37.6,230.4,37.6z"/>
			<path class="st2" d="M242.7,45.7h-13.5c-0.7,0-1.2,0.3-1.2,1.2c0,1.2,0.9,1.2,1.2,1.2h13.5c0.7,0,1.2-0.3,1.2-1.2
				C243.9,45.7,243,45.7,242.7,45.7z"/>
			<path class="st2" d="M252.6,41.7c0.1,0.6,0.3,1.2,0.9,1.2c0.4,0,1.4,0,1.4-1.1c0-0.4-0.7-2.9-1.1-3.8c-0.2-0.5-0.4-0.8-1.1-0.8
				c-0.6,0-1.2,0.3-1.2,0.9c0,0.2,0.1,0.4,0.1,0.6C252,39.6,252.2,40.3,252.6,41.7z"/>
			<path class="st2" d="M259,37.7c-0.1,0-0.3-0.1-0.4-0.1c-0.8,0-1,0.6-1.1,1.1c-0.4,1.8-0.4,2-0.7,2.7c-1.5,4.2-4.7,5.3-6.1,5.7
				c-1.3,0.4-1.6,0.5-1.6,1.2c0,0.4,0.2,1.2,1.1,1.2c0.3,0,4.6-0.6,7.3-4.5c2-2.8,2.4-6.3,2.4-6.3C259.8,38.3,259.7,37.8,259,37.7z"
				/>
			<path class="st2" d="M250.9,42.6c0-0.3-0.1-0.5-0.2-0.9c-1-2.9-1.4-3.7-2.2-3.7c-0.6,0-1.2,0.3-1.2,1c0,0.3,0.1,0.5,0.2,0.6
				c0.4,0.8,0.7,1.5,1.1,2.9c0.2,0.6,0.4,1.2,1,1.2C250,43.7,250.9,43.5,250.9,42.6z"/>
			<path class="st2" d="M275.4,36.1H270c0.5-0.9,0.6-1.2,0.6-1.5c0-0.6-0.7-0.9-1.3-0.9c-0.8,0-0.9,0.3-1.5,1.6
				c-0.3,0.6-1.7,2.8-3.8,4.4c-0.8,0.6-1,0.7-1,1.2c0,0.6,0.5,1.2,1.2,1.2c1.2,0,3.5-2.5,4.4-3.7h5.3c0.5,0,0.7,0,0.7,0.3
				c0,0.5-0.6,2-1,2.9c-1.9,3.7-5,4.8-7.9,5.6c-1.3,0.3-1.7,0.4-1.7,1.2c0,0.3,0.1,1.2,1.2,1.2c0.6,0,4.4-0.7,7.3-3
				c4.1-3.3,4.8-8.2,4.8-8.9C277.2,36.7,276.7,36.1,275.4,36.1z"/>
		</g>
	</g>
</g>
<g>
	<g>
		<path class="st3" d="M106.9,12c0.2,0,0.8,0,0.8,0.7c0,0.7-0.6,0.7-0.8,0.7h-8.1c-0.3,0-0.5,0.1-0.5,0.5v7.1c0,0.3,0.2,0.5,0.5,0.5
			h8.3c0.2,0,0.8,0,0.8,0.7c0,0.7-0.6,0.7-0.8,0.7h-8.7c-1.1,0-1.6-0.4-1.6-1.6v-7.6c0-1.3,0.6-1.6,1.6-1.6H106.9z M106.7,16.9
			c0.2,0,0.7,0,0.7,0.6c0,0.6-0.5,0.6-0.7,0.6h-2.6c0.7,0.8,1.2,1.2,2.7,1.6c0.2,0.1,0.5,0.2,0.5,0.6c0,0.3-0.1,0.8-0.7,0.8
			c-0.4,0-2.6-0.7-3.6-2.5c-1.2,2-3,2.4-3.4,2.4c-0.5,0-0.7-0.5-0.7-0.8c0-0.4,0.3-0.5,0.5-0.6c0.8-0.2,1.7-0.6,2.4-1.6h-2.5
			c-0.2,0-0.7,0-0.7-0.6c0-0.6,0.4-0.7,0.7-0.7h2.9c0,0,0-0.3,0-0.4v-0.8H101c-0.7,1-0.9,1.1-1.2,1.1c-0.4,0-0.8-0.3-0.8-0.7
			c0-0.3,0.1-0.3,0.6-0.9c0.4-0.4,0.6-0.8,0.9-1.3c0.1-0.3,0.3-0.5,0.7-0.5c0.3,0,0.7,0.2,0.7,0.6c0,0.2,0,0.3-0.1,0.5h4.5
			c0.2,0,0.7,0,0.7,0.6c0,0.6-0.5,0.6-0.7,0.6h-2.5v0.8c0,0.2,0,0.3,0,0.4H106.7z"/>
		<path class="st3" d="M120.5,19.2c0,0.3,0,0.6-0.3,0.9c-0.3,0.3-0.7,0.3-0.9,0.3H118v1.3c0,1.3-0.3,1.4-1.6,1.4
			c-0.8,0-1.2,0-1.2-0.7c0-0.4,0.2-0.6,0.6-0.6c0,0,0.5,0,0.5,0c0.2,0,0.3-0.1,0.3-0.3v-1.1h-1.3c-1.1,0-1.2-0.8-1.2-1.2v-0.8
			c-0.1,0-0.2,0.1-0.4,0.1c-0.3,0-0.6-0.3-0.6-0.7c0,1.2-0.3,2.9-0.9,4.2c-0.5,0.9-0.7,1-1,1c-0.4,0-0.8-0.3-0.8-0.7
			c0-0.2,0.1-0.4,0.2-0.6c0.6-1.3,0.8-1.6,1-2.8c-0.2,0.2-0.7,0.5-1,0.5c-0.5,0-0.6-0.7-0.6-0.9c0-0.5,0.3-0.6,0.6-0.7
			c0.3-0.1,0.7-0.3,1.2-0.6v-1.2c-0.1,0-0.2,0.1-0.5,0.1c-0.4,0-0.4-0.2-0.6-0.7c-0.2-0.4-0.2-0.6-0.5-1c0-0.1-0.1-0.2-0.1-0.4
			c0-0.4,0.4-0.6,0.7-0.6c0.4,0,0.5,0.3,0.9,1.2v-0.8c0-1.1,0.5-1.4,1.4-1.4h2.6v-0.4c0-0.5,0.5-0.6,0.7-0.6c0.4,0,0.8,0.1,0.8,0.6
			v0.4h3.7c0.3,0,0.7,0.1,0.7,0.6c0,0.5-0.3,0.6-0.7,0.6h-3.8c0.2,0.1,0.4,0.2,0.3,0.6h3.5c0.2,0,0.6,0,0.6,0.6
			c0,0.6-0.3,0.6-0.6,0.6H119c0.6,0.6,0.6,0.7,0.8,0.8c0.1-0.1,0.4-0.6,0.5-0.6c0.1-0.1,0.2-0.1,0.3-0.1c0.3,0,0.7,0.2,0.7,0.5
			c0,0.2-0.4,0.7-0.6,0.9c0.1,0.1,0.7,0.4,0.8,0.4c0.2,0.1,0.3,0.3,0.3,0.4c0,0.4-0.2,0.8-0.7,0.8c-0.2,0-0.3-0.1-0.5-0.2V19.2z
			 M114.5,22.2c-0.4,0.3-1.1,0.7-1.4,0.7c-0.5,0-0.6-0.4-0.6-0.7c0-0.3,0.1-0.4,0.9-0.8c0.5-0.2,0.6-0.4,1.1-0.7
			c0.2-0.1,0.3-0.2,0.5-0.2c0.3,0,0.6,0.3,0.6,0.7C115.6,21.4,115.4,21.7,114.5,22.2z M113.1,17.7c0-0.2,0.2-0.3,0.2-0.4
			c0.2-0.1,0.5-0.3,0.7-0.5c-0.1-0.2-0.3-0.3-0.5-0.5c-0.1-0.1-0.2-0.2-0.2-0.3c0-0.3,0.4-0.5,0.6-0.5c0.2,0,0.3,0.1,0.9,0.7
			c0.2-0.2,0.5-0.5,0.7-0.8h-1.7c-0.4,0-0.6-0.1-0.6-0.6c0-0.5,0.3-0.6,0.6-0.6h2.3c0.2-0.5,0.2-0.5,0.3-0.6h-3
			c-0.3,0-0.4,0.1-0.4,0.4V17.7z M115.5,18h3.6v-0.2c0-0.2-0.1-0.3-0.3-0.3h-3c-0.2,0-0.3,0.1-0.3,0.3V18z M115.5,18.9v0.3
			c0,0.2,0.1,0.3,0.3,0.3h3c0.2,0,0.3-0.2,0.3-0.3v-0.3H115.5z M118.4,16.5c-0.5-0.6-0.7-0.9-0.8-1.1H117c-0.2,0.3-0.4,0.6-0.8,1.1
			H118.4z M119.4,20.5c0.2,0,0.2,0,0.6,0.3c0.5,0.3,0.9,0.6,1.4,0.8c0.1,0.1,0.3,0.2,0.3,0.5c0,0.3-0.2,0.7-0.7,0.7
			c-0.3,0-1-0.4-1.3-0.6c-0.3-0.2-1-0.6-1-1C118.8,20.8,119.1,20.5,119.4,20.5z"/>
		<path class="st3" d="M126.3,20.9c-1.1,2.1-1.2,2.1-1.5,2.1c-0.4,0-0.8-0.3-0.8-0.7c0-0.3,0.1-0.4,0.6-1.3c0.5-0.8,0.8-1.6,1.3-2.4
			c0.1-0.2,0.2-0.4,0.6-0.4c0.3,0,0.7,0.2,0.7,0.7C127.2,19.2,126.6,20.4,126.3,20.9z M124.7,14.8c0.4,0,1,0.4,1.4,0.7
			c0.7,0.5,0.8,0.7,0.8,0.9c0,0.4-0.3,0.8-0.8,0.8c-0.2,0-0.3-0.1-1-0.6c-0.1-0.1-0.7-0.5-0.9-0.6c-0.2-0.1-0.3-0.2-0.3-0.6
			C124,15.3,124.3,14.8,124.7,14.8z M125.1,11.6c0.3,0,1,0.4,1.4,0.7c0.7,0.4,0.9,0.6,0.9,0.9c0,0.4-0.3,0.9-0.7,0.9
			c-0.2,0-0.3,0-1-0.5c-0.2-0.1-0.9-0.5-1-0.6c-0.1-0.1-0.3-0.2-0.3-0.5C124.3,12.1,124.7,11.6,125.1,11.6z M128,17.9
			c-0.2,0-0.8,0-0.8-0.7c0-0.6,0.4-0.7,0.8-0.7h2.7v-1.9h-2.2c-0.2,0-0.8,0-0.8-0.7c0-0.6,0.2-0.8,0.8-0.8h2.2v-0.9
			c0-0.3,0-0.8,0.7-0.8c0.5,0,0.8,0.2,0.8,0.8v0.9h2.3c0.2,0,0.8,0,0.8,0.7c0,0.6-0.3,0.8-0.8,0.8h-2.3v1.9h2.7c0.2,0,0.8,0,0.8,0.7
			c0,0.6-0.3,0.8-0.8,0.8h-3.7c-0.5,1.3-1.1,2.7-1.4,3.3c1.4-0.1,1.7-0.1,3.4-0.3c-0.3-0.4-0.3-0.5-0.8-1.2
			c-0.2-0.2-0.2-0.4-0.2-0.5c0-0.4,0.5-0.7,0.8-0.7c0.3,0,0.5,0.1,1,0.9c0.3,0.5,0.8,1.1,1.2,1.9c0.3,0.5,0.4,0.7,0.4,0.9
			c0,0.4-0.4,0.7-0.9,0.7c-0.4,0-0.6-0.3-0.6-0.4c0-0.1-0.2-0.4-0.2-0.4c-2.7,0.4-5.9,0.6-6.1,0.6c-0.1,0-0.7,0-0.7-0.8
			c0-0.3,0.1-0.5,0.3-0.6c0.1-0.1,0.2-0.1,0.7-0.1c0.5-1.1,1-2.2,1.4-3.4H128z"/>
		<path class="st3" d="M142.8,12.3c0-0.2,0-0.8,0.8-0.8c0.8,0,0.9,0.6,0.9,0.8v1.2c0,0.9,0.1,3.5,1.6,5.5c0.7,1,1.7,1.7,2.7,2.3
			c0.3,0.2,0.6,0.3,0.6,0.8c0,0.3-0.3,0.9-0.9,0.9c-0.6,0-2.1-1.2-2.9-2.1c-1-1.1-1.6-2.4-2-3.9c-0.6,2.2-1.4,3.3-2.2,4.1
			c-0.7,0.7-2,1.9-2.7,1.9c-0.5,0-0.9-0.5-0.9-0.9c0-0.4,0.2-0.5,0.5-0.7c1.6-0.9,3.4-2.1,4.2-5.5c0.1-0.5,0.3-2.2,0.3-2.4V12.3z"/>
		<path class="st3" d="M154.4,13.4c0.6,0,1.1,0.2,1.1,1c0,0.5-0.2,1.1-1.1,2.4c0.3,0.3,0.5,0.5,0.9,0.9c0.5,0.5,0.6,0.5,0.6,0.8
			c0,0.3-0.3,0.8-0.7,0.8c-0.4,0-0.8-0.6-1.2-1v4.2c0,0.6-0.3,0.8-0.8,0.8c-0.6,0-0.7-0.4-0.7-0.8v-3.6c-0.5,0.4-0.8,0.6-1.1,0.6
			c-0.4,0-0.8-0.4-0.8-0.9c0-0.4,0.2-0.5,1.1-1.2c1.4-0.9,2.1-2.2,2.1-2.4c0-0.2-0.2-0.2-0.3-0.2h-2c-0.4,0-0.8-0.1-0.8-0.7
			c0-0.7,0.6-0.7,0.8-0.7h1v-1.1c0-0.6,0.3-0.8,0.8-0.8c0.7,0,0.7,0.5,0.7,0.8v1.1H154.4z M161.3,14.8c0.2,0,0.8,0,0.8,0.7
			c0,0.6-0.2,0.8-0.8,0.8h-1.8v5h2c0.2,0,0.8,0,0.8,0.7c0,0.6-0.2,0.8-0.8,0.8h-5.6c-0.2,0-0.9,0-0.9-0.7c0-0.6,0.3-0.8,0.9-0.8h2.1
			v-5h-1.7c-0.2,0-0.8,0-0.8-0.7c0-0.6,0.3-0.8,0.8-0.8h1.7v-2.5c0-0.3,0-0.8,0.7-0.8c0.6,0,0.8,0.2,0.8,0.8v2.5H161.3z"/>
		<path class="st3" d="M175.4,21.2c0,1.3-0.6,1.6-1.6,1.6h-7.3c-1.1,0-1.6-0.4-1.6-1.6v-7.6c0-1.3,0.5-1.6,1.6-1.6h7.3
			c1.1,0,1.6,0.4,1.6,1.6V21.2z M173.9,13.9c0-0.4-0.2-0.5-0.5-0.5h-6.6c-0.4,0-0.5,0.2-0.5,0.5v7c0,0.3,0.2,0.5,0.5,0.5h6.6
			c0.3,0,0.5-0.2,0.5-0.5V13.9z M172.5,19.8c0,1.4-0.4,1.4-2.1,1.4c-0.6,0-1,0-1-0.7c0-0.6,0.5-0.6,0.6-0.6c0.1,0,0.5,0,0.6,0
			c0.4,0,0.4-0.2,0.4-0.4v-3.3h-4c-0.3,0-0.7,0-0.7-0.6c0-0.6,0.3-0.7,0.7-0.7h4v-0.8c0-0.5,0.2-0.7,0.7-0.7c0.5,0,0.8,0.1,0.8,0.7
			v0.8h0.6c0.3,0,0.7,0,0.7,0.6c0,0.6-0.2,0.7-0.7,0.7h-0.6V19.8z M169.1,17.7c0.2,0.3,0.6,0.9,0.6,1.2c0,0.5-0.6,0.7-0.8,0.7
			c-0.3,0-0.4-0.2-0.8-0.8c-0.2-0.3-0.3-0.5-0.7-1c-0.1-0.1-0.3-0.4-0.3-0.6c0-0.4,0.4-0.6,0.7-0.6
			C168.1,16.7,168.3,16.7,169.1,17.7z"/>
	</g>
	<g>
		<g>
			<g>
				
					<linearGradient id="SVGID_00000036228276033247511920000010937649067422064539_" gradientUnits="userSpaceOnUse" x1="183.3689" y1="17.3589" x2="195.0525" y2="17.3589">
					<stop  offset="0" style="stop-color:#8AC23E"/>
					<stop  offset="1" style="stop-color:#28AC4B"/>
				</linearGradient>
				<path style="fill:url(#SVGID_00000036228276033247511920000010937649067422064539_);" d="M190,16.1h4.3c0.2,0,0.8,0,0.8,0.7
					c0,0.6-0.2,0.8-0.8,0.8H190v4.7c0,0.4-0.1,0.8-0.8,0.8c-0.7,0-0.9-0.2-0.9-0.8v-4.7h-4.2c-0.3,0-0.8,0-0.8-0.7
					c0-0.6,0.2-0.8,0.8-0.8h4.2v-2.4c-1,0-3.4,0.1-3.5,0.1c-0.2,0-0.8,0-0.8-0.8c0-0.7,0.5-0.7,1.1-0.7c0.5,0,3.8-0.1,5.9-0.4
					c0.3,0,2-0.3,2.1-0.3c0.8,0,0.8,0.8,0.8,0.9c0,0.5-0.3,0.6-0.5,0.7c-0.7,0.2-2.6,0.4-3.5,0.4V16.1z"/>
			</g>
			<g>
				
					<linearGradient id="SVGID_00000069375210698307399460000002126435451172609725_" gradientUnits="userSpaceOnUse" x1="196.9578" y1="17.3284" x2="208.6043" y2="17.3284">
					<stop  offset="0" style="stop-color:#8AC23E"/>
					<stop  offset="1" style="stop-color:#28AC4B"/>
				</linearGradient>
				<path style="fill:url(#SVGID_00000069375210698307399460000002126435451172609725_);" d="M204.3,12.2c0-0.3,0-0.7,0.7-0.7
					c0.8,0,0.8,0.3,0.8,0.7h2.1c0.2,0,0.7,0,0.7,0.6c0,0.5-0.4,0.6-0.7,0.6h-2.1c0,0.2,0,0.2,0,0.3c0.1,0,0.2,0,0.4,0
					c0.5,0,0.8,0.1,0.8,0.5v0.3h1.1c0.3,0,0.6,0.1,0.6,0.6c0,0.5-0.3,0.6-0.6,0.6h-1.1V16c0,1.1-0.5,1.1-1.3,1.1h-2.3
					c-0.8,0-1.3,0-1.3-1.1v-0.3h-1.9v1.4c0,0.2,0.1,0.4,0.4,0.4h6.8c0.2,0,0.6,0,0.6,0.6c0,0.5-0.2,0.6-0.6,0.6h-3.8v0.4h4.4
					c0.2,0,0.6,0,0.6,0.6c0,0.4-0.2,0.7-0.6,0.7h-3.1c0.8,0.6,1.8,0.9,2.4,1.1c0.9,0.2,1.2,0.3,1.2,0.8c0,0.4-0.2,0.8-0.7,0.8
					c-0.7,0-2.8-0.7-4.3-2.1v1.6c0,0.3,0,0.8-0.7,0.8c-0.5,0-0.8-0.2-0.8-0.8v-1.6c-1.5,1.5-3.8,2.1-4.2,2.1c-0.6,0-0.7-0.5-0.7-0.7
					c0-0.5,0.3-0.6,1.3-0.8c0.4-0.1,1.6-0.5,2.4-1.1h-3.1c-0.2,0-0.7,0-0.7-0.6c0-0.6,0.4-0.6,0.7-0.6h4.4v-0.4h-2
					c-0.8,0-1.3-0.3-1.3-1.3v-1.6h-1.1c-0.2,0-0.6,0-0.6-0.6c0-0.4,0.2-0.6,0.6-0.6h1.1v-0.3c0-0.4,0.4-0.5,0.7-0.5
					c0.1,0,0.3,0,0.5,0.1c0-0.1,0-0.1,0-0.2v-0.2h-2.2c-0.2,0-0.7,0-0.7-0.6c0-0.5,0.4-0.6,0.7-0.6h2.2c0-0.3,0-0.7,0.7-0.7
					c0.8,0,0.8,0.3,0.8,0.7H204.3z M204.3,13.4h-2.9c0,0.3,0,0.7-0.8,0.7c-0.1,0-0.3,0-0.4-0.1c0,0.1,0,0.1,0,0.2v0.3h1.9v-0.3
					c0-0.3,0.2-0.5,0.8-0.5c0.5,0,0.7,0.2,0.7,0.5v0.3h1.8v-0.3c0,0,0-0.1,0-0.1c-0.1,0-0.2,0-0.4,0c-0.5,0-0.7-0.2-0.7-0.5V13.4z
					 M203.5,15.7V16c0,0.2,0.1,0.2,0.2,0.2h1.4c0.2,0,0.2-0.1,0.2-0.2v-0.3H203.5z"/>
			</g>
			<g>
				
					<linearGradient id="SVGID_00000070834772253521359670000017086318109883662253_" gradientUnits="userSpaceOnUse" x1="210.8787" y1="17.2666" x2="222.5261" y2="17.2666">
					<stop  offset="0" style="stop-color:#8AC23E"/>
					<stop  offset="1" style="stop-color:#28AC4B"/>
				</linearGradient>
				<path style="fill:url(#SVGID_00000070834772253521359670000017086318109883662253_);" d="M221.8,12.5c0.2,0,0.8,0,0.8,0.7
					c0,0.5-0.2,0.7-0.8,0.7h-4.3v2.7c0,1.6,0.5,2.8,1.8,3.8c0.8,0.6,1.8,0.9,2.6,1.1c0.4,0.1,0.6,0.2,0.6,0.7c0,0.2-0.1,0.9-0.8,0.9
					c-0.8,0-3.9-1.2-5-3.6c-0.2,0.4-0.5,1.2-1.7,2.2c-1.2,1-2.7,1.5-3.3,1.5c-0.7,0-0.8-0.7-0.8-0.9c0-0.5,0.3-0.6,0.6-0.7
					c2.5-0.7,4.4-1.7,4.4-5.2v-2.4h-4.3c-0.2,0-0.7,0-0.7-0.7c0-0.6,0.3-0.7,0.7-0.7h4.3v-0.5c0-0.4,0.2-0.6,0.7-0.6
					c0.5,0,0.8,0.1,0.8,0.6v0.5H221.8z M215.4,17.6c0,0.3-0.3,0.6-0.9,1.1c0.4,0.3,0.5,0.5,0.5,0.7c0,0.4-0.4,0.7-0.7,0.7
					c-0.2,0-0.3-0.1-0.5-0.3c-0.1-0.1-0.1-0.2-0.4-0.4c-0.6,0.3-1.5,0.7-1.8,0.7c-0.5,0-0.6-0.5-0.6-0.7c0-0.3,0.2-0.5,0.5-0.6
					c0.6-0.2,0.6-0.3,0.9-0.4c-0.1-0.1-0.6-0.4-0.7-0.5c-0.1-0.1-0.2-0.2-0.2-0.3c0-0.3,0.3-0.6,0.7-0.6c0.2,0,0.3,0,1.3,0.8
					c0.2-0.1,0.4-0.3,0.7-0.6c0.1-0.1,0.2-0.2,0.4-0.2c-0.1,0-0.2,0-0.4-0.1c-0.1-0.1-0.7-0.6-0.8-0.7c-0.7,0.4-1.6,0.9-1.9,0.9
					c-0.4,0-0.6-0.4-0.6-0.7c0-0.3,0.2-0.4,0.4-0.5c0.7-0.3,0.8-0.3,1-0.4c-0.8-0.5-0.9-0.6-0.9-0.8c0-0.3,0.3-0.6,0.6-0.6
					c0.2,0,0.3,0,0.6,0.2c0.2,0.1,0.6,0.3,0.9,0.5c0.1-0.1,0.5-0.4,0.7-0.6c0.1-0.1,0.2-0.2,0.4-0.2c0.3,0,0.6,0.3,0.6,0.6
					c0,0.3-0.2,0.5-0.7,0.9c0.6,0.5,0.7,0.6,0.7,0.8c0,0.3-0.2,0.6-0.6,0.7C215.1,16.9,215.4,17.3,215.4,17.6z M222,16.2
					c0,0.3-0.3,0.7-0.7,0.7c-0.2,0-0.3-0.1-0.4-0.2c-0.4-0.3-0.4-0.4-0.6-0.5c-0.7,0.4-1.6,0.9-1.9,0.9c-0.5,0-0.6-0.5-0.6-0.7
					c0-0.3,0.3-0.5,0.5-0.5c0.5-0.2,0.6-0.2,1-0.4c-0.1-0.1-0.7-0.4-0.8-0.5c-0.1,0-0.2-0.2-0.2-0.4c0-0.2,0.2-0.6,0.6-0.6
					c0.3,0,1.1,0.5,1.5,0.7c0.2-0.1,0.2-0.2,0.7-0.6c0.1-0.1,0.3-0.2,0.4-0.2c0.4,0,0.6,0.3,0.6,0.6s-0.2,0.4-0.7,0.8
					C221.9,15.8,222,16,222,16.2z M221.1,17.1c0.1-0.1,0.3-0.2,0.4-0.2c0.4,0,0.7,0.3,0.7,0.6c0,0.3-0.2,0.5-0.8,1
					c0.6,0.5,0.8,0.7,0.8,1c0,0.4-0.4,0.7-0.7,0.7c-0.2,0-0.3-0.1-0.5-0.2c-0.4-0.3-0.4-0.3-0.7-0.6c-0.3,0.2-1.1,0.6-1.4,0.6
					c-0.4,0-0.6-0.4-0.6-0.7c0-0.3,0.2-0.4,0.3-0.5c0.1,0,0.5-0.2,0.6-0.3c-0.1-0.1-0.2-0.1-0.6-0.4c-0.1-0.1-0.3-0.2-0.3-0.5
					c0-0.3,0.3-0.6,0.7-0.6c0.3,0,1.1,0.5,1.4,0.8C220.7,17.6,220.7,17.5,221.1,17.1z"/>
			</g>
			<g>
				
					<linearGradient id="SVGID_00000125578085562269232410000003347316837862696321_" gradientUnits="userSpaceOnUse" x1="224.7732" y1="17.3281" x2="236.3963" y2="17.3281">
					<stop  offset="0" style="stop-color:#8AC23E"/>
					<stop  offset="1" style="stop-color:#28AC4B"/>
				</linearGradient>
				<path style="fill:url(#SVGID_00000125578085562269232410000003347316837862696321_);" d="M226.3,15.9c-0.2-0.3-0.4-0.5-0.9-1
					c-0.5-0.5-0.6-0.6-0.6-0.9s0.3-0.7,0.6-0.7c0.1,0,0.2,0,0.3,0.1c0.2-0.4,0.5-0.8,0.7-1.2c0.2-0.4,0.3-0.7,0.6-0.7
					c0.3,0,0.8,0.2,0.8,0.6c0,0.4-0.7,1.6-1.1,2.2c0.2,0.2,0.2,0.2,0.4,0.4c0.4-0.6,0.4-0.6,0.9-1.6c0.1-0.2,0.3-0.4,0.5-0.4
					c0.3,0,0.8,0.3,0.8,0.6c0,0.2-0.4,0.8-0.6,1.1c-0.7,1-1.1,1.5-1.6,2.2c0.2,0,0.3,0,1.1-0.1c-0.2-0.5-0.2-0.6-0.2-0.7
					c0-0.3,0.3-0.4,0.5-0.4c0.3,0,0.4,0.2,0.5,0.5c0.2,0.4,0.4,1.3,0.5,1.5c0.2-0.3,0.5-0.3,0.5-0.3c0.2,0,0.3,0,0.9,0.6
					c0.2,0.2,0.6,0.6,0.6,0.9c0,0.3-0.2,0.6-0.7,0.6c-0.2,0-0.2,0-0.6-0.4c-0.1-0.1-0.7-0.7-0.8-0.8c-0.1,0.2-0.3,0.2-0.5,0.2
					c-0.3,0-0.4-0.3-0.5-0.6c-0.1,0-0.2,0-0.7,0.1v4.6c0,0.2,0,0.7-0.6,0.7c-0.6,0-0.6-0.5-0.6-0.7V18c-0.7,0.1-1,0.1-1.3,0.1
					c-0.3,0-0.7-0.2-0.7-0.7c0-0.6,0.4-0.6,0.9-0.6L226.3,15.9z M226.3,19.1c0,0.2-0.1,1.9-0.3,2.8c0,0.2-0.1,0.4-0.5,0.4
					c-0.1,0-0.7,0-0.7-0.5c0-0.2,0.2-0.9,0.2-1c0.1-0.6,0.1-1.1,0.2-1.7c0-0.3,0.1-0.5,0.5-0.5C226.3,18.5,226.3,18.9,226.3,19.1z
					 M230.6,19.9c0.4-0.3,0.5-0.3,0.7-0.3c0.3,0,0.6,0.3,0.6,0.7c0,0.3-0.1,0.4-0.9,1c-0.3,0.2-1.2,0.8-1.5,0.8
					c-0.3,0-0.6-0.4-0.6-0.8c0-0.1,0-0.2,0-0.2c-0.4,0-0.4-0.2-0.5-1c0-0.2-0.1-1-0.1-1.1c0-0.4,0.4-0.4,0.6-0.4
					c0.4,0,0.5,0.2,0.6,0.9c0,0.1,0.1,0.8,0.1,1.1C229.9,20.4,230.4,20,230.6,19.9z M233.4,21.7c0,1.2-0.2,1.4-1.5,1.4
					c-0.8,0-0.8,0-0.9,0c-0.4-0.1-0.5-0.4-0.5-0.7c0-0.3,0.1-0.7,0.6-0.7c0.1,0,0.5,0,0.6,0c0.2,0,0.3-0.1,0.3-0.4v-4.4h-2
					c-0.2,0-0.6,0-0.6-0.6c0-0.5,0.2-0.7,0.6-0.7h4.1v-0.7h-3.5c-0.2,0-0.6,0-0.6-0.6c0-0.5,0.3-0.6,0.6-0.6h3.5v-0.4
					c0-0.1,0-0.3-0.3-0.3h-3.4c-0.2,0-0.6,0-0.6-0.6c0-0.5,0.1-0.7,0.6-0.7h3.8c0.8,0,1.3,0.3,1.3,1.3v2.4h0.4
					c0.4,0,0.6,0.2,0.6,0.6c0,0.6-0.4,0.6-0.6,0.6h-2.3v0.7c0.1,0.4,0.4,0.8,0.5,1c0.2-0.2,0.6-0.5,0.9-0.9c0.3-0.4,0.4-0.5,0.6-0.5
					c0.4,0,0.7,0.3,0.7,0.7c0,0.2-0.1,0.4-0.3,0.7c-0.5,0.6-0.9,0.9-1.2,1.2c0.3,0.4,0.6,0.6,0.8,0.8c0.7,0.5,0.8,0.7,0.8,1
					c0,0.4-0.3,0.8-0.8,0.8c-0.5,0-1.5-1.2-2.2-2.4V21.7z"/>
			</g>
			<g>
				
					<linearGradient id="SVGID_00000073699975658802477830000014749335724080657579_" gradientUnits="userSpaceOnUse" x1="238.6463" y1="17.2114" x2="250.3298" y2="17.2114">
					<stop  offset="0" style="stop-color:#8AC23E"/>
					<stop  offset="1" style="stop-color:#28AC4B"/>
				</linearGradient>
				<path style="fill:url(#SVGID_00000073699975658802477830000014749335724080657579_);" d="M241.9,16.2c-0.5,0-0.7-0.2-0.7-0.6
					c-0.5,0.3-1.4,0.8-1.8,0.8c-0.4,0-0.8-0.4-0.8-0.9c0-0.5,0.3-0.6,0.7-0.8c1.9-0.7,2.9-1.7,3.8-2.6c0.5-0.5,0.7-0.7,1.3-0.7
					s0.8,0.2,1.5,0.9c0.7,0.7,1.7,1.6,3.7,2.5c0.4,0.1,0.6,0.3,0.6,0.7c0,0.5-0.4,0.9-0.8,0.9c-0.4,0-1.3-0.5-1.7-0.8
					c-0.1,0.5-0.4,0.6-0.8,0.6H241.9z M243.6,18.7c-0.3,0.7-0.6,1.3-1.2,2.4c1.7-0.1,2-0.1,4.6-0.2c-0.2-0.2-0.2-0.3-0.7-0.8
					c-0.3-0.3-0.3-0.4-0.3-0.6c0-0.4,0.5-0.7,0.8-0.7c0.2,0,0.4,0.1,0.6,0.3c0.5,0.5,1.1,1.1,1.6,1.8c0.6,0.7,0.7,1,0.7,1.2
					c0,0.4-0.5,0.8-1,0.8c-0.3,0-0.4-0.2-0.5-0.3c0-0.1-0.3-0.5-0.4-0.6c-1.3,0.1-2.6,0.2-3.9,0.3c-0.6,0-3.8,0.2-4.3,0.2
					c-0.2,0-0.8,0-0.8-0.8c0-0.1,0-0.7,0.6-0.7c0.1,0,1,0,1.2,0c0.4-0.8,0.9-1.6,1.2-2.5h-2.3c-0.5,0-0.8-0.2-0.8-0.8
					c0-0.7,0.6-0.7,0.8-0.7h9.6c0.5,0,0.8,0.2,0.8,0.8c0,0.7-0.6,0.7-0.8,0.7H243.6z M246.7,14.8c-0.4-0.3-1.1-0.8-1.8-1.6
					c-0.2-0.2-0.2-0.2-0.3-0.2c-0.1,0-0.2,0-0.3,0.2c-0.6,0.6-1.2,1.1-1.8,1.6H246.7z"/>
			</g>
		</g>
	</g>
</g>
<path class="st9" d="M12.7,7.6c0.3,9,7.5,16.2,16.5,16.6C28.8,15.3,21.6,8,12.7,7.6"/>
<path class="st10" d="M55,0.5c-13.3,1-28.6,12.3-23.5,41.2c0-9.3,1.4-14.9,2.5-17.7C45.6,22.3,54.6,12.5,55,0.5"/>
<path class="st11" d="M18.6,52.1c0.3,0,0.4,0,0.6,0.1c0.2,0.1,0.3,0.3,0.3,0.6c0,0.3-0.1,0.5-0.3,0.6c-0.1,0.1-0.3,0.1-0.6,0.1h-2.1
	v2.1c0,0.3,0,0.5-0.1,0.6c-0.1,0.2-0.3,0.3-0.6,0.3c-0.3,0-0.5-0.1-0.6-0.3C15,55.9,15,55.8,15,55.5v-5.6c0-0.2,0-0.5,0.2-0.7
	c0.2-0.2,0.5-0.2,0.7-0.2h3.2c0.3,0,0.4,0,0.6,0.1c0.2,0.1,0.3,0.3,0.3,0.6c0,0.3-0.1,0.5-0.3,0.6c-0.1,0.1-0.3,0.1-0.6,0.1h-2.6
	v1.8H18.6z"/>
<path class="st3" d="M23.1,56.5c-0.5,0-1-0.2-1.3-0.5c-0.4-0.4-0.6-1-0.6-1.6v-2.6c0-0.3,0-0.5,0.1-0.6c0.1-0.2,0.3-0.3,0.6-0.3
	c0.3,0,0.5,0.1,0.6,0.3c0.1,0.1,0.1,0.3,0.1,0.6v2.4c0,0.7,0.5,1,0.9,1c0.4,0,0.9-0.2,0.9-1v-2.4c0-0.3,0-0.5,0.1-0.6
	c0.1-0.2,0.3-0.3,0.6-0.3c0.3,0,0.5,0.1,0.6,0.3c0.1,0.1,0.1,0.3,0.1,0.6v3.7c0,0.3,0,0.5-0.1,0.6c-0.1,0.2-0.3,0.3-0.6,0.3
	c-0.2,0-0.3-0.1-0.4-0.2c-0.1-0.1-0.2-0.2-0.2-0.4C24.1,56.3,23.6,56.5,23.1,56.5"/>
<path class="st3" d="M28.1,52.2H28c-0.3,0-0.4,0-0.5-0.1c-0.2-0.1-0.3-0.2-0.3-0.5c0-0.2,0.1-0.4,0.3-0.5c0.1-0.1,0.2-0.1,0.5-0.1
	h0.1v-0.7c0-0.3,0-0.5,0.1-0.6c0.1-0.2,0.3-0.3,0.6-0.3c0.3,0,0.5,0.1,0.6,0.3c0.1,0.1,0.1,0.3,0.1,0.6v0.7h0.4c0.3,0,0.4,0,0.5,0.1
	c0.2,0.1,0.3,0.2,0.3,0.5c0,0.2-0.1,0.4-0.3,0.5c-0.1,0.1-0.2,0.1-0.5,0.1h-0.4v2.6c0,0.3,0.1,0.5,0.4,0.5c0.2,0,0.3,0,0.4,0.1
	c0.2,0.1,0.3,0.2,0.3,0.5c0,0.2-0.1,0.4-0.3,0.5c-0.1,0.1-0.3,0.1-0.6,0.1h-0.1c-1.1,0-1.6-0.8-1.6-1.6V52.2z"/>
<path class="st3" d="M33,52.3c-0.2,0.1-0.3,0.1-0.4,0.1c-0.1,0-0.3-0.1-0.4-0.2c-0.1-0.1-0.2-0.3-0.2-0.4c0-0.3,0.3-0.5,0.5-0.6
	c0.4-0.2,0.8-0.3,1.4-0.3c1.5,0,2.3,0.6,2.3,1.9v2.7c0,0.4,0,0.5-0.1,0.6c-0.1,0.2-0.3,0.3-0.6,0.3c-0.2,0-0.3-0.1-0.4-0.2
	C35,56.2,35,56.1,34.9,56c-0.4,0.4-0.7,0.5-1.4,0.5c-0.6,0-1.1-0.2-1.4-0.5c-0.3-0.3-0.5-0.7-0.5-1.2c0-0.9,0.6-1.6,1.9-1.6h1.3
	v-0.3c0-0.6-0.3-0.9-1-0.9C33.6,52.1,33.3,52.1,33,52.3 M34.9,54.1h-1c-0.5,0-0.8,0.2-0.8,0.6c0,0.4,0.3,0.6,0.8,0.6
	c0.3,0,0.6,0,0.8-0.3c0.2-0.2,0.2-0.3,0.2-0.7V54.1z"/>
<path class="st3" d="M38.2,49.9c0-0.3,0-0.5,0.1-0.6c0.1-0.2,0.3-0.3,0.6-0.3c0.3,0,0.5,0.1,0.6,0.3c0.1,0.1,0.1,0.3,0.1,0.6v1.6
	c0.3-0.4,0.8-0.5,1.3-0.5c0.5,0,1,0.2,1.3,0.5c0.5,0.5,0.6,1.4,0.6,2.3c0,0.9,0,1.8-0.6,2.3c-0.3,0.3-0.8,0.5-1.3,0.5
	c-0.6,0-1-0.2-1.4-0.6c0,0.2-0.1,0.3-0.2,0.4c-0.1,0.1-0.3,0.2-0.4,0.2c-0.3,0-0.5-0.1-0.6-0.3c-0.1-0.2-0.1-0.3-0.1-0.6V49.9z
	 M40.5,52.1c-0.8,0-0.9,0.7-0.9,1.5c0,0.9,0.1,1.6,0.9,1.6c0.8,0,0.9-0.7,0.9-1.6C41.4,52.8,41.3,52.1,40.5,52.1"/>
<path class="st3" d="M45.5,52.3c-0.2,0.1-0.3,0.1-0.4,0.1c-0.1,0-0.3-0.1-0.4-0.2c-0.1-0.1-0.2-0.3-0.2-0.4c0-0.3,0.3-0.5,0.5-0.6
	c0.4-0.2,0.8-0.3,1.4-0.3c1.5,0,2.3,0.6,2.3,1.9v2.7c0,0.4,0,0.5-0.1,0.6c-0.1,0.2-0.3,0.3-0.6,0.3c-0.2,0-0.3-0.1-0.4-0.2
	c-0.1-0.1-0.2-0.2-0.2-0.4c-0.4,0.4-0.7,0.5-1.4,0.5c-0.6,0-1.1-0.2-1.4-0.5c-0.3-0.3-0.5-0.7-0.5-1.2c0-0.9,0.6-1.6,1.9-1.6h1.3
	v-0.3c0-0.6-0.3-0.9-1-0.9C46.1,52.1,45.8,52.1,45.5,52.3 M47.4,54.1h-1c-0.5,0-0.8,0.2-0.8,0.6c0,0.4,0.3,0.6,0.8,0.6
	c0.3,0,0.6,0,0.8-0.3c0.2-0.2,0.2-0.3,0.2-0.7V54.1z"/>
<g>
	<defs>
		<path id="SVGID_2_" d="M51.3,22.5c-1-3-2.6-0.9-2.5,1c-1-1.6-1.8,0-1.8,1.9c-1.7-2-1.3,3-1.3,4.4c3.4-3.5,6.3-3,6.9-1.5
			c1.2,2.5-3.4,7.5-5.3,9.3c-1.3,1.2-3.1,1.3-0.5-1.1c0.4-0.4,1.3-1.3,2.6-2.8c5.1-6.1,0.4-6.3-2.3-3.8c-2.2,2.2-3.4,4-8.5,6.3
			c-2.2,1-3.5,2.6-3.3,5.6c0.1,2,3,6.8,8.9,2.9c5.7-3.7,8.2-6,10.5-10.1c2.3-4.1-0.1-10-0.5-11.1c-0.6-1.9-1.3-2.6-1.9-2.6
			C51.8,20.9,51.4,21.6,51.3,22.5"/>
	</defs>
	<clipPath id="SVGID_00000095321794541285107830000004673044942786691261_">
		<use xlink:href="#SVGID_2_"  style="overflow:visible;"/>
	</clipPath>
	
		<linearGradient id="SVGID_00000068663991079003867170000011304113675082461080_" gradientUnits="userSpaceOnUse" x1="-125.5904" y1="461.8642" x2="-124.9881" y2="461.8642" gradientTransform="matrix(40.7752 -7.1898 7.1898 40.7752 1831.719 -19698.8828)">
		<stop  offset="0" style="stop-color:#FFF3E1"/>
		<stop  offset="0.1341" style="stop-color:#FFF0D8"/>
		<stop  offset="0.3527" style="stop-color:#FEE7C0"/>
		<stop  offset="0.6287" style="stop-color:#FCD998"/>
		<stop  offset="0.9484" style="stop-color:#F9C562"/>
		<stop  offset="1" style="stop-color:#F9C258"/>
	</linearGradient>
	
		<polygon style="clip-path:url(#SVGID_00000095321794541285107830000004673044942786691261_);fill:url(#SVGID_00000068663991079003867170000011304113675082461080_);" points="
		35.9,52.3 62.1,47.7 56.5,15.8 30.3,20.5 	"/>
</g>
<g>
	<defs>
		<path id="SVGID_1_" d="M11.6,22.5c1-3,2.6-0.9,2.5,1c1-1.6,1.8,0,1.8,1.9c1.7-2,1.3,3,1.3,4.4c-3.4-3.5-6.3-3-6.9-1.5
			c-1.2,2.5,3.4,7.5,5.3,9.3c1.3,1.2,3.1,1.3,0.5-1.1c-0.4-0.4-1.3-1.3-2.6-2.8c-5.1-6.1-0.4-6.3,2.3-3.8c2.2,2.2,3.4,4,8.5,6.3
			c2.2,1,3.5,2.6,3.3,5.6c-0.1,2-3,6.8-8.9,2.9c-5.7-3.7-8.2-6-10.5-10.1c-2.3-4.1,0.1-10,0.5-11.1c0.6-1.9,1.3-2.6,1.9-2.6
			C11.1,20.9,11.5,21.6,11.6,22.5"/>
	</defs>
	<clipPath id="SVGID_00000016038733347003207290000005778858100169009585_">
		<use xlink:href="#SVGID_1_"  style="overflow:visible;"/>
	</clipPath>
	
		<linearGradient id="SVGID_00000039846630522746701260000004951114370962299323_" gradientUnits="userSpaceOnUse" x1="-123.6127" y1="454.5369" x2="-122.9901" y2="454.5369" gradientTransform="matrix(36.5262 6.4406 6.4406 -36.5262 1594.1783 17430.9414)">
		<stop  offset="0" style="stop-color:#F09BA7"/>
		<stop  offset="9.345013e-02" style="stop-color:#F1A5B0"/>
		<stop  offset="0.4902" style="stop-color:#F7CDD2"/>
		<stop  offset="0.8062" style="stop-color:#FBE5E6"/>
		<stop  offset="1" style="stop-color:#FCEEEE"/>
	</linearGradient>
	
		<polygon style="clip-path:url(#SVGID_00000016038733347003207290000005778858100169009585_);fill:url(#SVGID_00000039846630522746701260000004951114370962299323_);" points="
		6.3,15.8 32.7,20.6 27.2,52.3 0.8,47.6 	"/>
</g>
<linearGradient id="SVGID_00000174594044704691329950000005015614750336018603_" gradientUnits="userSpaceOnUse" x1="284.4837" y1="41.699" x2="350.2" y2="41.699">
	<stop  offset="0" style="stop-color:#8AC23E"/>
	<stop  offset="1" style="stop-color:#28AC4B"/>
</linearGradient>
<path style="fill:url(#SVGID_00000174594044704691329950000005015614750336018603_);" d="M345.2,52.8h-55.7c-2.8,0-5-2.2-5-5V35.6
	c0-2.8,2.2-5,5-5h55.7c2.8,0,5,2.2,5,5v12.2C350.2,50.6,348,52.8,345.2,52.8z"/>
<g>
	<path class="st15" d="M310.2,48.9c1.2-1.5,1.2-1.5,1.4-1.5c0.2,0,0.3,0.1,1,0.7c0.7,0.7,0.8,0.8,0.8,1s-0.1,0.2-0.3,0.2H304
		c-0.6,0-1.3,0-2.3,0.1l-0.2-0.6c1.2,0.1,1.9,0.1,2.5,0.1h2.4V44c0-0.3,0-0.7-0.1-1h-1.5c-1.2,2.1-2.6,3.7-4,4.8c0,1.2,0,1.6,0,1.9
		c0,0.5-0.6,0.8-1.5,0.8c-0.7,0-0.8-0.1-0.8-0.6c0-0.5,0.1-1.7,0.1-4.2l0.1-5.2c-0.8,0.9-1.6,1.7-2.4,2.4c-0.1,0.1-0.2-0.1-0.2-0.1
		c1.2-1.7,2.5-4.6,3.5-7.8c0.1-0.4,0.2-0.8,0.3-1.3c2.4,1,2.8,1.2,2.8,1.4c0,0.3-0.2,0.4-0.8,0.6c-0.5,1-1.1,2-1.8,2.9
		c1,0.4,1.2,0.6,1.2,0.8c0,0.2-0.1,0.3-0.6,0.5v4c0,1.6,0,2.8,0,3.6c0.9-1.3,1.8-2.9,2.6-5.2c0.5-1.3,0.8-2.7,1.1-4.1h-0.7
		c-0.6,0-1.3,0-2.4,0.1l-0.2-0.6c1.2,0.1,1.9,0.1,2.5,0.1h0.8c0.2-1,0.3-2.1,0.4-2.9c0.1-0.5,0.1-0.8,0.1-1.3c2.8,0.5,3.2,0.7,3.2,1
		c0,0.3-0.2,0.4-0.7,0.6c-0.2,0.9-0.4,1.8-0.6,2.6h2.9c1.2-1.5,1.3-1.6,1.5-1.6c0.2,0,0.3,0,1.1,0.8c0.7,0.7,0.8,0.8,0.8,0.9
		S313.1,38,313,38h-6.1c-0.5,1.6-1,3.1-1.6,4.3l-0.1,0.3h4.1c1.1-1.4,1.2-1.5,1.4-1.5c0.2,0,0.3,0.1,1,0.7c0.6,0.6,0.7,0.7,0.7,0.9
		c0,0.1-0.1,0.2-0.2,0.2h-2.8c0,0.2-0.1,0.3-0.4,0.5v5.5H310.2z"/>
	<path class="st15" d="M325.9,46.6c-1,1.4-2.7,3-4.4,3.6c-0.1,0-0.2-0.1-0.1-0.2c1.2-0.7,2.4-2.2,3.1-3.9c0.6-1.5,0.8-3.1,0.8-5
		c0-0.6,0-1,0-1.3c-1.1,0.8-2.4,1.4-3.6,1.8c-0.1,0-0.2-0.1-0.1-0.2c1.9-1,4.8-4,6.2-7c0.1-0.3,0.3-0.6,0.4-1.1c3,0.6,3,0.8,3,1.1
		c0,0.1-0.1,0.3-0.6,0.4c0.7,0.7,1.8,1.5,3.3,2.3c1.4,0.7,3.3,1.2,4.6,1.4c0.1,0,0.1,0.1,0,0.2c-0.6,0.3-1.1,1-1.4,1.7
		c-0.1,0.3-0.2,0.4-0.4,0.4c-0.2,0-0.3,0-0.5-0.1c-1-0.4-2.3-1.2-3.2-2c-0.8-0.8-2-2.1-2.7-3.8c-0.7,1.1-1.7,2.2-2.9,3.3
		c0.6,0.1,1,0.1,1.3,0.1h1.5c0.8-1.1,0.8-1.1,1-1.1c0.1,0,0.2,0,0.8,0.6c0.5,0.5,0.5,0.5,0.5,0.6c0,0.1-0.1,0.2-0.2,0.2h-3.5
		c-0.3,0-0.7,0-1.4,0.1l-0.1-0.4c-0.4,0.3-0.8,0.6-1.2,0.9c1.2,0.3,1.7,0.5,1.8,0.7h4.2c0.8-0.8,0.8-0.8,1-0.8c0.1,0,0.2,0,1.1,0.7
		c0.7,0.5,0.7,0.6,0.7,0.7c0,0.1,0,0.2-0.4,0.5v0.7c0,1,0.1,1.9,0.1,2.2c0,0.5-0.5,0.8-1.5,0.8c-0.7,0-0.8-0.1-0.8-0.6H327
		c-0.1,0.4-0.2,0.8-0.3,1.2c1.1,0.3,1.6,0.4,1.8,0.5h4.4c0.8-0.9,0.9-0.9,1-0.9c0.2,0,0.3,0,1.2,0.7c0.7,0.5,0.7,0.6,0.7,0.7
		c0,0.2-0.1,0.2-0.5,0.6v0.7c0,0.8,0.1,1.6,0.1,1.9c0,0.5-0.5,0.8-1.5,0.8c-0.7,0-0.8-0.1-0.8-0.6v-0.5h-4.8v0.4
		c0,0.5-0.5,0.8-1.4,0.8c-0.7,0-0.8-0.2-0.8-0.6c0-0.1,0.1-0.5,0.1-2.2V46.6z M332.2,43.7v-1.5h-4.9c0,0.6-0.1,1.1-0.2,1.5H332.2z
		 M327.6,40.3c-0.1,0.1-0.2,0.1-0.3,0.2V41c0,0.3,0,0.5,0,0.8h4.9v-1.5H327.6z M332.9,48.8v-2.6h-4.5c-0.1,0.1-0.2,0.1-0.3,0.2v2.4
		H332.9z"/>
</g>
<linearGradient id="SVGID_00000059276100818905306460000009444633328211838853_" gradientUnits="userSpaceOnUse" x1="284.4837" y1="15.301" x2="350.2" y2="15.301">
	<stop  offset="0" style="stop-color:#8AC23E"/>
	<stop  offset="1" style="stop-color:#28AC4B"/>
</linearGradient>
<path style="fill:url(#SVGID_00000059276100818905306460000009444633328211838853_);" d="M345.2,26.4h-55.7c-2.8,0-5-2.2-5-5V9.2
	c0-2.8,2.2-5,5-5h55.7c2.8,0,5,2.2,5,5v12.2C350.2,24.2,348,26.4,345.2,26.4z"/>
<g>
	<path class="st15" d="M290.9,23.2c2.1-1.5,4.1-5.3,4.7-9.4c0.1-0.3,0.2-1.1,0.2-1.7c3,0.8,3.3,1,3.3,1.3c0,0.2-0.1,0.4-0.8,0.6
		c-1.1,4.4-4.1,8-7.3,9.4C290.9,23.4,290.8,23.2,290.9,23.2z M295.9,9.1c0.7,0.1,1.5,0,2.2-0.1l1.2-0.1c1-1.3,1.1-1.3,1.2-1.3
		c0.3,0,0.4,0.1,1.2,0.7c0.7,0.5,0.8,0.7,0.8,0.9c0,0.2-0.3,0.4-1.6,0.9c0.1,2.1,0.8,4.2,2.1,6.1c1.3,1.9,3.3,3.8,5,4.7
		c0.1,0.1,0.1,0.2,0,0.2c-1,0.3-1.8,0.9-2.4,1.9c-0.2,0.3-0.3,0.4-0.4,0.4c-0.1,0-0.2,0-0.3-0.1c-1.4-1-2.9-3.3-3.6-5.7
		c-0.7-2.2-1.1-5-1-8.2l-2,0.2c-0.6,0.1-1.5,0.1-1.9,0.3L295.9,9.1z"/>
	<path class="st15" d="M321.7,14.7c1.4-1.8,1.6-1.9,1.7-1.9c0.2,0,0.3,0.1,1.5,1.1c0.6,0.6,0.8,0.8,0.8,0.9c0,0.1-0.1,0.2-0.2,0.2
		h-7.2v0.7c0,3.9,0.1,6.7,0.1,7.3c0,0.5-0.6,0.8-1.7,0.8c-0.7,0-0.9-0.1-0.9-0.7c0-0.5,0.1-3.3,0.1-7.4v-0.7h-4.3
		c-0.6,0-1.3,0-2.4,0.1l-0.2-0.6c1.2,0.1,1.9,0.1,2.5,0.1h4.3c0-2.8,0-3.9-0.1-4.6c-1.7,0.1-3.5,0.1-5.9,0.1c-0.1,0-0.1-0.2,0-0.2
		c3.7-0.5,7.3-1.5,9.6-2.5c0.4-0.2,0.9-0.4,1.2-0.6c2.4,1.8,2.5,2,2.5,2.3c0,0.2-0.3,0.4-1.2,0.2c-1.1,0.2-2.1,0.3-3.2,0.5
		c0,0.1-0.2,0.3-0.5,0.5v4.4H321.7z"/>
	<path class="st15" d="M331.9,17.3c0,4.3,0,5.5,0,5.9c0,0.5-0.6,0.8-1.6,0.8c-0.7,0-0.8-0.1-0.8-0.6c0-0.5,0.1-1.7,0.1-4.2l0.1-5.3
		c-1,1-2,1.9-2.9,2.4c-0.1,0.1-0.2-0.1-0.1-0.1c1.3-1.5,3.1-4.8,4.1-7.8c0.1-0.4,0.3-0.8,0.3-1.3c2.5,1,2.8,1.2,2.8,1.4
		c0,0.3-0.2,0.4-0.8,0.6c-0.5,1-1.1,2-1.9,3c1,0.4,1.2,0.5,1.2,0.7c0,0.2-0.1,0.3-0.6,0.5V17.3z M340.3,12.9c1-2,1.1-2.1,1.2-2.1
		c0.2,0,0.3,0,1.2,0.6c0.9,0.6,1,0.7,1,0.8c0,0.1,0,0.2-0.2,0.3l-5.8,1.3c0.1,1,0.4,1.8,0.6,2.6c0.6,1.7,1.7,3,2.7,3.8
		c0.2,0.1,0.3,0.2,0.5,0.2c0.3,0,0.9-0.9,1.9-2.6c0.1-0.1,0.2,0,0.1,0.1c-0.3,1.3-0.6,2.6-0.6,2.8c0,0.2,0.1,0.5,0.2,0.8
		c0.1,0.3,0.3,0.5,0.3,0.9c0,0.7-0.5,1.2-1.3,1.2c-0.6,0-1.2-0.2-1.7-0.5c-2-1.2-3.4-3.2-4.1-5.5c-0.3-1-0.6-2.1-0.8-3.3l-0.8,0.2
		c-0.6,0.1-1.4,0.4-2.4,0.6l-0.3-0.6c1-0.1,1.9-0.3,2.6-0.5l0.8-0.2c-0.2-1.4-0.3-2.9-0.4-4.3c0-1.3-0.1-1.6-0.1-2.3
		c2.8,0.4,3,0.5,3,0.9c0,0.2-0.1,0.3-0.6,0.6c0,1.9,0.1,3.4,0.2,4.7L340.3,12.9z M338.3,8.1c2.1,0.1,3,1,3,2.1
		c0,0.6-0.5,1.2-1.3,1.2c-0.6,0-1-0.4-1.1-1.2c0-1.2-0.3-1.6-0.8-1.9C338.2,8.3,338.2,8.1,338.3,8.1z"/>
</g>
<g id="ol前" class="st17">
	<g class="st18">
		<text transform="matrix(1 0 0 1 295.5418 47.875)" class="st15 st19 st20 st21">佐倉</text>
		<g>
			<path class="st22" d="M301.9,32.9c-0.1,0.1-0.2,0.2-0.4,0.2c-0.5,1.3-1.1,2.6-1.7,3.8l0.5,0.1c0,0.1-0.1,0.2-0.4,0.2v12.3h-1.2
				V38.8c-0.7,1.1-1.5,2.2-2.3,3.1c-0.1-0.3-0.4-0.9-0.6-1.2c1.8-1.9,3.6-5.1,4.6-8.3L301.9,32.9z M313.5,37.3h-7.6
				c-0.3,1.3-0.7,2.6-1.1,3.8h8.1v1.2h-4v5.5h4.5v1.2H303v-1.2h4.7v-5.5h-3.3V42c-0.9,2.3-2,4.2-3.5,5.7c-0.2-0.3-0.6-0.7-0.9-0.9
				c2.2-2.1,3.6-5.5,4.5-9.5H301v-1.2h3.9c0.2-1.2,0.4-2.4,0.6-3.7l1.6,0.3c0,0.2-0.2,0.2-0.4,0.2c-0.2,1.1-0.4,2.2-0.6,3.2h7.3
				V37.3z"/>
			<path class="st22" d="M326.3,36.3c-1.4,1-2.9,1.9-4.5,2.6c-0.1-0.3-0.5-0.7-0.7-1c3.2-1.4,6.4-3.8,8-5.8l1.8,0.1
				c0,0.1-0.2,0.2-0.4,0.2c1.8,2,5.2,4.2,8,5.3c-0.3,0.3-0.6,0.7-0.8,1.1c-1.5-0.6-3.1-1.6-4.5-2.6v0.8h-6.9V36.3z M335.3,43.4
				h-10.1c-0.3,2.1-1.1,4.3-3,6c-0.2-0.3-0.7-0.7-0.9-0.9c2.5-2.2,2.8-5.3,2.8-7.6v-2.7h11.2V43.4z M325.4,41.2c0,0.4,0,0.8-0.1,1.3
				h8.8v-1.3H325.4z M334.1,39.1h-8.7v1.2h8.7V39.1z M325.6,49.5v-5H336v4.9h-1.2v-0.6h-8v0.6H325.6z M333,36.1
				c-1.3-0.9-2.4-1.9-3.3-2.8c-0.7,0.9-1.8,1.9-3,2.8H333z M334.8,45.5h-8v2.4h8V45.5z"/>
		</g>
		<text transform="matrix(1 0 0 1 295.5418 47.875)" class="st15 st19 st20 st21">佐倉</text>
	</g>
	<g class="st18">
		<g>
			<path d="M227.7,16.1h4.3c0.2,0,0.8,0,0.8,0.7c0,0.6-0.2,0.8-0.8,0.8h-4.3v4.7c0,0.4-0.1,0.8-0.8,0.8c-0.7,0-0.9-0.2-0.9-0.8v-4.7
				h-4.2c-0.3,0-0.8,0-0.8-0.7c0-0.6,0.2-0.8,0.8-0.8h4.2v-2.4c-1,0-3.4,0.1-3.5,0.1c-0.2,0-0.8,0-0.8-0.8c0-0.7,0.5-0.7,1.1-0.7
				c0.5,0,3.8-0.1,5.9-0.4c0.3,0,2-0.3,2.1-0.3c0.8,0,0.8,0.8,0.8,0.9c0,0.5-0.3,0.6-0.5,0.7c-0.7,0.2-2.6,0.4-3.5,0.4V16.1z"/>
			<path d="M241.9,12.2c0-0.3,0-0.7,0.7-0.7c0.8,0,0.8,0.3,0.8,0.7h2.1c0.2,0,0.7,0,0.7,0.6c0,0.5-0.4,0.6-0.7,0.6h-2.1
				c0,0.2,0,0.2,0,0.3c0.1,0,0.2,0,0.4,0c0.5,0,0.8,0.1,0.8,0.5v0.3h1.1c0.3,0,0.6,0.1,0.6,0.6c0,0.5-0.3,0.6-0.6,0.6h-1.1V16
				c0,1.1-0.5,1.1-1.3,1.1H241c-0.8,0-1.3,0-1.3-1.1v-0.3h-1.9v1.4c0,0.2,0.1,0.4,0.4,0.4h6.8c0.2,0,0.6,0,0.6,0.6
				c0,0.5-0.2,0.6-0.6,0.6h-3.8v0.4h4.4c0.2,0,0.6,0,0.6,0.6c0,0.4-0.2,0.7-0.6,0.7h-3.1c0.8,0.6,1.8,0.9,2.4,1.1
				c0.9,0.2,1.2,0.3,1.2,0.8c0,0.4-0.2,0.8-0.7,0.8c-0.7,0-2.8-0.7-4.3-2.1v1.6c0,0.3,0,0.8-0.7,0.8c-0.5,0-0.8-0.2-0.8-0.8v-1.6
				c-1.5,1.5-3.8,2.1-4.2,2.1c-0.6,0-0.7-0.5-0.7-0.7c0-0.5,0.3-0.6,1.3-0.8c0.4-0.1,1.6-0.5,2.4-1.1h-3.1c-0.2,0-0.7,0-0.7-0.6
				c0-0.6,0.4-0.6,0.7-0.6h4.4v-0.4h-2c-0.8,0-1.3-0.3-1.3-1.3v-1.6h-1.1c-0.2,0-0.6,0-0.6-0.6c0-0.4,0.2-0.6,0.6-0.6h1.1v-0.3
				c0-0.4,0.4-0.5,0.7-0.5c0.1,0,0.3,0,0.5,0.1c0-0.1,0-0.1,0-0.2v-0.2h-2.2c-0.2,0-0.7,0-0.7-0.6c0-0.5,0.4-0.6,0.7-0.6h2.2
				c0-0.3,0-0.7,0.7-0.7c0.8,0,0.8,0.3,0.8,0.7H241.9z M241.9,13.4H239c0,0.3,0,0.7-0.8,0.7c-0.1,0-0.3,0-0.4-0.1c0,0.1,0,0.1,0,0.2
				v0.3h1.9v-0.3c0-0.3,0.2-0.5,0.8-0.5c0.5,0,0.7,0.2,0.7,0.5v0.3h1.8v-0.3c0,0,0-0.1,0-0.1c-0.1,0-0.2,0-0.4,0
				c-0.5,0-0.7-0.2-0.7-0.5V13.4z M241.1,15.7V16c0,0.2,0.1,0.2,0.2,0.2h1.4c0.2,0,0.2-0.1,0.2-0.2v-0.3H241.1z"/>
			<path d="M259,12.5c0.2,0,0.8,0,0.8,0.7c0,0.5-0.2,0.7-0.8,0.7h-4.3v2.7c0,1.6,0.5,2.8,1.8,3.8c0.8,0.6,1.8,0.9,2.6,1.1
				c0.4,0.1,0.6,0.2,0.6,0.7c0,0.2-0.1,0.9-0.8,0.9c-0.8,0-3.9-1.2-5-3.6c-0.2,0.4-0.5,1.2-1.7,2.2c-1.2,1-2.7,1.5-3.3,1.5
				c-0.7,0-0.8-0.7-0.8-0.9c0-0.5,0.3-0.6,0.6-0.7c2.5-0.7,4.4-1.7,4.4-5.2v-2.4h-4.3c-0.2,0-0.7,0-0.7-0.7c0-0.6,0.3-0.7,0.7-0.7
				h4.3v-0.5c0-0.4,0.2-0.6,0.7-0.6c0.5,0,0.8,0.1,0.8,0.6v0.5H259z M252.7,17.6c0,0.3-0.3,0.6-0.9,1.1c0.4,0.3,0.5,0.5,0.5,0.7
				c0,0.4-0.4,0.7-0.7,0.7c-0.2,0-0.3-0.1-0.5-0.3c-0.1-0.1-0.1-0.2-0.4-0.4c-0.6,0.3-1.5,0.7-1.8,0.7c-0.5,0-0.6-0.5-0.6-0.7
				c0-0.3,0.2-0.5,0.5-0.6c0.6-0.2,0.6-0.3,0.9-0.4c-0.1-0.1-0.6-0.4-0.7-0.5c-0.1-0.1-0.2-0.2-0.2-0.3c0-0.3,0.3-0.6,0.7-0.6
				c0.2,0,0.3,0,1.3,0.8c0.2-0.1,0.4-0.3,0.7-0.6c0.1-0.1,0.2-0.2,0.4-0.2c-0.1,0-0.2,0-0.4-0.1c-0.1-0.1-0.7-0.6-0.8-0.7
				c-0.7,0.4-1.6,0.9-1.9,0.9c-0.4,0-0.6-0.4-0.6-0.7c0-0.3,0.2-0.4,0.4-0.5c0.7-0.3,0.8-0.3,1-0.4c-0.8-0.5-0.9-0.6-0.9-0.8
				c0-0.3,0.3-0.6,0.6-0.6c0.2,0,0.3,0,0.6,0.2c0.2,0.1,0.6,0.3,0.9,0.5c0.1-0.1,0.5-0.4,0.7-0.6c0.1-0.1,0.2-0.2,0.4-0.2
				c0.3,0,0.6,0.3,0.6,0.6c0,0.3-0.2,0.5-0.7,0.9c0.6,0.5,0.7,0.6,0.7,0.8c0,0.3-0.2,0.6-0.6,0.7C252.4,16.9,252.7,17.3,252.7,17.6z
				 M259.2,16.2c0,0.3-0.3,0.7-0.7,0.7c-0.2,0-0.3-0.1-0.4-0.2c-0.4-0.3-0.4-0.4-0.6-0.5c-0.7,0.4-1.6,0.9-1.9,0.9
				c-0.5,0-0.6-0.5-0.6-0.7c0-0.3,0.3-0.5,0.5-0.5c0.5-0.2,0.6-0.2,1-0.4c-0.1-0.1-0.7-0.4-0.8-0.5c-0.1,0-0.2-0.2-0.2-0.4
				c0-0.2,0.2-0.6,0.6-0.6c0.3,0,1.1,0.5,1.5,0.7c0.2-0.1,0.2-0.2,0.7-0.6c0.1-0.1,0.3-0.2,0.4-0.2c0.4,0,0.6,0.3,0.6,0.6
				s-0.2,0.4-0.7,0.8C259.1,15.8,259.2,16,259.2,16.2z M258.4,17.1c0.1-0.1,0.3-0.2,0.4-0.2c0.4,0,0.7,0.3,0.7,0.6
				c0,0.3-0.2,0.5-0.8,1c0.6,0.5,0.8,0.7,0.8,1c0,0.4-0.4,0.7-0.7,0.7c-0.2,0-0.3-0.1-0.5-0.2c-0.4-0.3-0.4-0.3-0.7-0.6
				c-0.3,0.2-1.1,0.6-1.4,0.6c-0.4,0-0.6-0.4-0.6-0.7c0-0.3,0.2-0.4,0.3-0.5c0.1,0,0.5-0.2,0.6-0.3c-0.1-0.1-0.2-0.1-0.6-0.4
				c-0.1-0.1-0.3-0.2-0.3-0.5c0-0.3,0.3-0.6,0.7-0.6c0.3,0,1.1,0.5,1.4,0.8C257.9,17.6,258,17.5,258.4,17.1z"/>
			<path d="M263.2,15.9c-0.2-0.3-0.4-0.5-0.9-1c-0.5-0.5-0.6-0.6-0.6-0.9s0.3-0.7,0.6-0.7c0.1,0,0.2,0,0.3,0.1
				c0.2-0.4,0.5-0.8,0.7-1.2c0.2-0.4,0.3-0.7,0.6-0.7c0.3,0,0.8,0.2,0.8,0.6c0,0.4-0.7,1.6-1.1,2.2c0.2,0.2,0.2,0.2,0.4,0.4
				c0.4-0.6,0.4-0.6,0.9-1.6c0.1-0.2,0.3-0.4,0.5-0.4c0.3,0,0.8,0.3,0.8,0.6c0,0.2-0.4,0.8-0.6,1.1c-0.7,1-1.1,1.5-1.6,2.2
				c0.2,0,0.3,0,1.1-0.1c-0.2-0.5-0.2-0.6-0.2-0.7c0-0.3,0.3-0.4,0.5-0.4c0.3,0,0.4,0.2,0.5,0.5c0.2,0.4,0.4,1.3,0.5,1.5
				c0.2-0.3,0.5-0.3,0.5-0.3c0.2,0,0.3,0,0.9,0.6c0.2,0.2,0.6,0.6,0.6,0.9c0,0.3-0.2,0.6-0.7,0.6c-0.2,0-0.2,0-0.6-0.4
				c-0.1-0.1-0.7-0.7-0.8-0.8c-0.1,0.2-0.3,0.2-0.5,0.2c-0.3,0-0.4-0.3-0.5-0.6c-0.1,0-0.2,0-0.7,0.1v4.6c0,0.2,0,0.7-0.6,0.7
				c-0.6,0-0.6-0.5-0.6-0.7V18c-0.7,0.1-1,0.1-1.3,0.1c-0.3,0-0.7-0.2-0.7-0.7c0-0.6,0.4-0.6,0.9-0.6L263.2,15.9z M263.2,19.1
				c0,0.2-0.1,1.9-0.3,2.8c0,0.2-0.1,0.4-0.5,0.4c-0.1,0-0.7,0-0.7-0.5c0-0.2,0.2-0.9,0.2-1c0.1-0.6,0.1-1.1,0.2-1.7
				c0-0.3,0.1-0.5,0.5-0.5C263.2,18.5,263.2,18.9,263.2,19.1z M267.4,19.9c0.4-0.3,0.5-0.3,0.7-0.3c0.3,0,0.6,0.3,0.6,0.7
				c0,0.3-0.1,0.4-0.9,1c-0.3,0.2-1.2,0.8-1.5,0.8c-0.3,0-0.6-0.4-0.6-0.8c0-0.1,0-0.2,0-0.2c-0.4,0-0.4-0.2-0.5-1
				c0-0.2-0.1-1-0.1-1.1c0-0.4,0.4-0.4,0.6-0.4c0.4,0,0.5,0.2,0.6,0.9c0,0.1,0.1,0.8,0.1,1.1C266.7,20.4,267.3,20,267.4,19.9z
				 M270.3,21.7c0,1.2-0.2,1.4-1.5,1.4c-0.8,0-0.8,0-0.9,0c-0.4-0.1-0.5-0.4-0.5-0.7c0-0.3,0.1-0.7,0.6-0.7c0.1,0,0.5,0,0.6,0
				c0.2,0,0.3-0.1,0.3-0.4v-4.4h-2c-0.2,0-0.6,0-0.6-0.6c0-0.5,0.2-0.7,0.6-0.7h4.1v-0.7h-3.5c-0.2,0-0.6,0-0.6-0.6
				c0-0.5,0.3-0.6,0.6-0.6h3.5v-0.4c0-0.1,0-0.3-0.3-0.3h-3.4c-0.2,0-0.6,0-0.6-0.6c0-0.5,0.1-0.7,0.6-0.7h3.8
				c0.8,0,1.3,0.3,1.3,1.3v2.4h0.4c0.4,0,0.6,0.2,0.6,0.6c0,0.6-0.4,0.6-0.6,0.6h-2.3v0.7c0.1,0.4,0.4,0.8,0.5,1
				c0.2-0.2,0.6-0.5,0.9-0.9c0.3-0.4,0.4-0.5,0.6-0.5c0.4,0,0.7,0.3,0.7,0.7c0,0.2-0.1,0.4-0.3,0.7c-0.5,0.6-0.9,0.9-1.2,1.2
				c0.3,0.4,0.6,0.6,0.8,0.8c0.7,0.5,0.8,0.7,0.8,1c0,0.4-0.3,0.8-0.8,0.8c-0.5,0-1.5-1.2-2.2-2.4V21.7z"/>
			<path d="M278.5,16.2c-0.5,0-0.7-0.2-0.7-0.6c-0.5,0.3-1.4,0.8-1.8,0.8c-0.4,0-0.8-0.4-0.8-0.9c0-0.5,0.3-0.6,0.7-0.8
				c1.9-0.7,2.9-1.7,3.8-2.6c0.5-0.5,0.7-0.7,1.3-0.7s0.8,0.2,1.5,0.9c0.7,0.7,1.7,1.6,3.7,2.5c0.4,0.1,0.6,0.3,0.6,0.7
				c0,0.5-0.4,0.9-0.8,0.9c-0.4,0-1.3-0.5-1.7-0.8c-0.1,0.5-0.4,0.6-0.8,0.6H278.5z M280.2,18.7c-0.3,0.7-0.6,1.3-1.2,2.4
				c1.7-0.1,2-0.1,4.6-0.2c-0.2-0.2-0.2-0.3-0.7-0.8c-0.3-0.3-0.3-0.4-0.3-0.6c0-0.4,0.5-0.7,0.8-0.7c0.2,0,0.4,0.1,0.6,0.3
				c0.5,0.5,1.1,1.1,1.6,1.8c0.6,0.7,0.7,1,0.7,1.2c0,0.4-0.5,0.8-1,0.8c-0.3,0-0.4-0.2-0.5-0.3c0-0.1-0.3-0.5-0.4-0.6
				c-1.3,0.1-2.6,0.2-3.9,0.3c-0.6,0-3.8,0.2-4.3,0.2c-0.2,0-0.8,0-0.8-0.8c0-0.1,0-0.7,0.6-0.7c0.1,0,1,0,1.2,0
				c0.4-0.8,0.9-1.6,1.2-2.5h-2.3c-0.5,0-0.8-0.2-0.8-0.8c0-0.7,0.6-0.7,0.8-0.7h9.6c0.5,0,0.8,0.2,0.8,0.8c0,0.7-0.6,0.7-0.8,0.7
				H280.2z M283.2,14.8c-0.4-0.3-1.1-0.8-1.8-1.6c-0.2-0.2-0.2-0.2-0.3-0.2c-0.1,0-0.2,0-0.3,0.2c-0.6,0.6-1.2,1.1-1.8,1.6H283.2z"
				/>
		</g>
	</g>
</g>
</svg>
