<?xml version="1.0" encoding="utf-8"?>
<!-- Generator: Adobe Illustrator 26.3.1, SVG Export Plug-In . SVG Version: 6.00 Build 0)  -->
<svg version="1.1" id="レイヤー_1" xmlns="http://www.w3.org/2000/svg" xmlns:xlink="http://www.w3.org/1999/xlink" x="0px"
	 y="0px" width="270px" height="55px" viewBox="0 0 270 55" style="enable-background:new 0 0 270 55;" xml:space="preserve">
<style type="text/css">
	.st0{fill:url(#SVGID_1_);}
	.st1{fill:#E798A2;}
	.st2{fill:#F0BD58;}
	.st3{display:none;}
	.st4{display:inline;}
	.st5{fill:#A6957E;}
	.st6{display:inline;fill:url(#SVGID_00000145758512178874303250000002186740762475206573_);}
	.st7{fill:#A8977F;}
	.st8{fill:url(#SVGID_00000084529917321724980370000008008598208892115605_);}
	.st9{fill:url(#SVGID_00000104700442596977230190000012537306590803195523_);}
	.st10{fill:url(#SVGID_00000067933876874003284000000013403609564179608767_);}
	.st11{fill:url(#SVGID_00000013893478142769441140000000852988442040908470_);}
	.st12{fill:url(#SVGID_00000034780861534093977710000007455365811277180078_);}
	.st13{fill:#86B943;}
	.st14{fill:#32A44A;}
	
		.st15{clip-path:url(#SVGID_00000031902048132505669880000007282762600303276456_);fill:url(#SVGID_00000051350280901051295570000003001030733969611190_);}
	
		.st16{clip-path:url(#SVGID_00000065755315838556147600000008995122090083598232_);fill:url(#SVGID_00000145031780217397166520000017178862950630717080_);}
</style>
<linearGradient id="SVGID_1_" gradientUnits="userSpaceOnUse" x1="65.3759" y1="17.3022" x2="139.9758" y2="17.3022" gradientTransform="matrix(1 0 0 -1 0 55)">
	<stop  offset="0" style="stop-color:#86B943"/>
	<stop  offset="1" style="stop-color:#32A44A"/>
</linearGradient>
<path class="st0" d="M71.754,37.929c0,1.077-1.363,5.512-2.007,7.209c-0.527,1.434-1.053,2.528-2.224,2.528
	c-0.907,0-2.147-0.714-2.147-1.791c0-0.55,0.14-0.837,0.62-1.72c0.813-1.504,1.527-3.961,1.791-5.155
	c0.357-1.597,0.573-2.627,1.908-2.627c0.193,0,0.404,0.023,0.62,0.07C70.894,36.565,71.754,36.928,71.754,37.929 M85.669,38.619
	c-0.79-1.644-2.171-3.031-3.961-3.031c-1.241,0-1.597,0.86-1.72,1.363c-0.023,0.14-0.047,0.287-0.047,0.474
	c0,0.527,0.216,0.813,0.357,0.954c0.146,0.146,0.954,0.644,1.123,0.79c1.217,1.024,1.48,4.272,1.621,6.255
	c0.047,0.597,0.17,1.884,1.931,1.884c0.55,0,1.241-0.193,1.627-0.62c0.263-0.287,0.404-0.714,0.404-1.457
	C87.009,44.997,86.675,40.673,85.669,38.619 M80.911,32.668c1.036-0.135,1.966-0.339,1.966-1.902c0-1.592-1.287-1.709-2.58-1.791
	c-2.815-0.176-5.442-0.573-6.706-0.813c-0.456-0.07-2.651-0.597-3.148-0.597c-1.194,0-1.48,1.024-1.551,1.597
	c-0.17,1.48,0.813,1.744,1.791,1.978c0.995,0.257,2.458,0.521,3.979,0.755c-1.2,0.714-2.025,1.884-1.925,3.569
	c0.135,2.253,1.504,4.008,2.147,4.751c1.287,1.504,1.791,2.077,1.791,3.177c0,0.263-0.047,1.621-1.697,1.621
	c-0.573,0-1.024-0.117-1.363-0.217c-0.884-0.287-0.977-0.334-1.34-0.334c-1.697,0-1.697,1.814-1.697,1.908
	c0,0.667,0.263,1.17,1.001,1.574c1.41,0.767,3.131,0.907,3.961,0.907c3.967,0,5.132-3.031,5.132-4.921
	c0-1.837-0.767-3.429-2.58-5.395C75.095,35.278,75.704,33.347,80.911,32.668 M96.997,28.022c0.357-0.48,0.907-0.597,1.434-0.597
	c0.93,0,2.03,0.287,2.03,1.597c0,0.334-0.07,0.714-0.193,1.434c1.908-0.047,4.225-0.094,5.729-0.164
	c0.287,0,1.574-0.094,1.837-0.094c0.48,0,1.884,0.023,1.884,1.791c0,1.621-1.194,1.72-1.931,1.767
	c-2.458,0.117-5.494,0.217-8.215,0.287c-0.62,3.031-3.534,13.253-4.511,14.277c-0.17,0.193-0.55,0.48-1.194,0.48
	c-0.667,0-2.194-0.357-2.194-1.72c0-0.527,0.38-1.387,0.62-1.884c0.954-2.147,2.124-5.729,2.768-8.186
	c0.263-1.024,0.55-2.294,0.69-2.891c-1.363,0.047-2.744,0.047-3.201-0.217c-0.62-0.357-0.72-1.077-0.72-1.527
	c0-1.48,0.767-1.814,1.96-1.814h2.58C96.71,28.572,96.734,28.356,96.997,28.022 M107.594,48.602c-5.658,0-8.139-0.907-8.139-4.032
	c0-0.31,0.023-2.914,2.364-2.914c0.86,0,1.791,0.357,1.791,1.217c0,0.24-0.07,0.427-0.117,0.55c-0.14,0.38-0.17,0.48-0.17,0.69
	c0,0.433,0.263,0.714,1.123,0.86c0.644,0.117,1.457,0.14,2.007,0.14c0.667,0,1.937-0.047,3.511-0.24
	c0.287-0.023,0.813-0.094,1.077-0.094c1.071,0,1.674,0.597,1.674,1.72C112.702,48.192,111.871,48.602,107.594,48.602
	 M111.438,39.076c-0.31,0.263-0.644,0.31-1.194,0.31c-0.404,0-2.194-0.094-2.557-0.094c-1.504,0-2.147,0.047-4.418,0.217
	c-0.14,0.023-0.527,0.047-0.86,0.047c-1.574,0-1.574-1.551-1.574-1.791c0-0.743,0.31-1.434,1.434-1.697
	c1.504-0.334,4.295-0.404,5.898-0.404c3.604,0,3.868,0.597,3.868,2.077C112.035,38.099,111.871,38.742,111.438,39.076
	 M122.644,29.403c0,0.287-0.474,3.271-0.55,3.891c-0.193,1.908-0.287,3.868-0.287,5.799c0,2.101,0.117,4.295,0.404,6.396
	c0.07,0.527,0.14,1.217,0.14,1.504c0,1.147-0.69,1.65-1.814,1.65c-0.451,0-1.48-0.023-1.814-1.194
	c-0.357-1.217-0.597-5.132-0.597-8.526c0-5.179,0.667-9.286,0.837-9.86c0.17-0.644,0.573-1.48,2.2-1.264
	C122.334,27.976,122.644,28.549,122.644,29.403 M130.549,29.743c-0.023-0.667,0.023-2.007,1.908-2.007
	c1.908,0,1.96,1.264,1.96,2.007l0.023,2.054c0.38-0.023,2.317-0.094,2.434-0.094c0.474,0,1.837,0,1.837,1.814
	c0,1.194-0.667,1.551-0.977,1.65c-0.38,0.094-0.55,0.117-3.248,0.24l0.047,4.775c1.908,1.024,3.008,1.884,3.675,2.528
	c0.48,0.48,0.79,1.024,0.79,1.65c0,1.053-0.86,2.101-1.908,2.101c-0.667,0-0.907-0.263-1.72-1.17
	c-0.099-0.094-0.93-0.813-1.053-0.907c-0.07,1.311-0.217,4.295-5.038,4.295c-4.248,0-5.805-2.458-5.805-4.868
	c0-2.867,2.194-4.822,5.635-4.822c0.767,0,1.287,0.094,1.674,0.146l-0.094-3.581c-1.644,0.07-3.675,0.07-5.348,0.07
	c-0.597,0-1.931,0-1.931-1.814c0-1.41,0.86-1.644,1.381-1.72c0.287-0.023,4.751-0.117,5.799-0.117L130.549,29.743z M129.092,42.083
	c-0.573,0-2.364,0.117-2.364,1.791c0,1.65,1.791,1.697,2.147,1.697c0.527,0,1.527-0.117,1.837-0.93
	c0.117-0.334,0.14-0.527,0.117-2.171C130.356,42.247,129.929,42.083,129.092,42.083 M134.821,28.093
	c-0.07-0.17-0.07-0.334-0.07-0.404c0-0.62,0.644-0.767,0.93-0.767c0.404,0,0.69,0.31,0.86,0.79c0.404,1.053,0.714,1.908,0.714,2.434
	c0,0.79-0.767,0.837-0.907,0.837c-0.334,0-0.573-0.117-0.743-0.597c-0.047-0.17-0.334-1.024-0.38-1.194
	C135.154,29.023,134.891,28.309,134.821,28.093 M137.542,27.712c-0.07-0.17-0.07-0.357-0.07-0.404c0-0.62,0.69-0.767,0.954-0.767
	c0.503,0,0.69,0.404,0.954,1.03c0.263,0.644,0.597,1.697,0.597,2.194c0,0.79-0.813,0.813-0.93,0.813c-0.24,0-0.55-0.07-0.737-0.597
	c-0.047-0.164-0.31-1.001-0.357-1.17C137.899,28.643,137.588,27.876,137.542,27.712"/>
<g>
	<g>
		<path class="st1" d="M160.269,34.155h-7.531c0.334-0.913,0.334-1.036,0.334-1.159c0-0.72-0.848-0.86-1.287-0.86
			c-0.919,0-1.094,0.421-1.533,2.025h-4.365c-0.72,0-1.112,0.386-1.112,1.088c0,0.667,0.369,1.077,1.112,1.077h3.517
			c-0.492,1.071-1.516,2.885-3.095,4.207c-1.568,1.322-1.638,1.375-1.638,1.884c0,0.737,0.527,1.322,1.194,1.322
			c0.351,0,0.544-0.088,1.428-0.86v4.962c0,0.65,0.263,1.042,1.159,1.042c1.053,0,1.053-0.79,1.053-1.042v-7.461
			c1.287-1.691,2.112-3.464,2.358-4.067h8.391c0.72,0,1.106-0.386,1.106-1.088C161.374,34.488,160.918,34.155,160.269,34.155z"/>
		<path class="st1" d="M160.251,46.068h-3.411v-4.348h2.92c0.685,0,1.088-0.351,1.088-1.077c0-0.72-0.421-1.053-1.088-1.053h-2.92
			v-1.814c0-0.772-0.421-1.053-1.211-1.053c-0.848,0-1.036,0.544-1.036,1.053v1.814h-2.937c-0.702,0-1.112,0.369-1.112,1.071
			c0,0.737,0.456,1.053,1.112,1.053h2.937v4.348h-3.487c-0.72,0-1.106,0.369-1.106,1.088s0.421,1.071,1.106,1.071h9.152
			c0.72,0,1.112-0.404,1.112-1.088C161.357,46.332,160.83,46.068,160.251,46.068z"/>
		<path class="st1" d="M179.865,42.44c0.492-0.053,0.843-0.228,0.843-0.971c0-1.123-0.755-1.036-1.042-1.018l-7.232,0.667v-1.937
			c1.867-0.211,2.815-0.404,4.383-0.772c0.492-0.105,0.913-0.281,0.913-0.895c0-0.369-0.193-1.141-0.948-1.141
			c-0.211,0-0.544,0.07-0.69,0.105c-3.517,0.843-6.085,1.001-8.783,1.176c-0.123,0-0.439,0.035-0.649,0.158
			c0.053-0.14,0.088-0.246,0.088-0.597v-1.018c0-0.404,0.211-0.597,0.597-0.597h10.17c0.404,0,0.597,0.211,0.597,0.597v1.001
			c0,0.685,0.211,1.077,1.147,1.077c0.983,0,1.053-0.597,1.053-1.077v-1.463c0-1.568-0.667-2.042-2.025-2.042h-4.699v-0.65
			c0-0.72-0.527-0.878-1.27-0.878c-0.614,0-1.071,0.228-1.071,0.878v0.65H166.6c-1.34,0-2.042,0.456-2.042,2.042v1.48
			c0,0.632,0.211,1.071,1.112,1.071c0.404,0,0.579-0.088,0.72-0.158c-0.088,0.176-0.088,0.369-0.088,0.439
			c0,0.281,0.053,1.106,0.989,1.106c0.685,0,1.334-0.053,2.867-0.211v1.867l-5.085,0.474c-0.509,0.053-0.878,0.246-0.878,0.93
			c0,1.176,0.79,1.106,1.071,1.077l4.892-0.456v3.183c0,0.579,0,1.919,1.621,2.007c0.474,0.035,0.895,0.035,5.647,0.035
			c1.656,0,2.639,0,2.639-3.54c0-0.316,0-1.123-1.159-1.123c-1.018,0-1.053,0.72-1.071,1.036c-0.07,1.211-0.088,1.48-0.527,1.586
			c-0.193,0.035-2.639,0.035-3.171,0.035c-1.299,0-1.334,0-1.445-0.053c-0.14-0.07-0.263-0.193-0.263-0.614v-2.762L179.865,42.44z"
			/>
	</g>
	<g>
		<path class="st2" d="M197.542,35.103h-5.331c0.474-0.895,0.562-1.194,0.562-1.516c0-0.632-0.72-0.913-1.252-0.913
			c-0.737,0-0.86,0.298-1.516,1.603c-0.263,0.544-1.638,2.762-3.675,4.277c-0.807,0.597-0.954,0.702-0.954,1.182
			c0,0.579,0.527,1.176,1.147,1.176c1.194,0,3.411-2.463,4.295-3.663h5.19c0.439,0,0.667,0,0.667,0.334
			c0,0.456-0.544,1.919-1.001,2.832c-1.832,3.575-4.839,4.734-7.741,5.454c-1.305,0.316-1.638,0.421-1.638,1.182
			c0,0.263,0.105,1.211,1.164,1.211c0.562,0,4.33-0.72,7.127-2.92c4.032-3.183,4.716-8.022,4.716-8.695
			C199.303,35.735,198.824,35.103,197.542,35.103z"/>
		<path class="st2" d="M206.577,41.896v-7.654c0-0.843-0.456-1.129-1.252-1.129c-1.036,0-1.211,0.579-1.211,1.129v7.654
			c0,0.843,0.456,1.123,1.252,1.123C206.401,43.02,206.577,42.44,206.577,41.896z"/>
		<path class="st2" d="M214.318,32.885c-1.053,0-1.229,0.597-1.229,1.147v6.688c0,1.088-0.105,2.112-1.006,3.166
			c-0.93,1.077-2.27,1.638-5.067,1.902c-1.182,0.123-1.761,0.176-1.761,1.129c0,1.211,1.094,1.211,1.358,1.211
			c0.386,0,1.726-0.035,3.306-0.474c5.348-1.48,5.647-4.98,5.647-7.004v-6.618C215.57,33.183,215.091,32.885,214.318,32.885z"/>
		<path class="st2" d="M222.212,36.583h10.661c0.614,0,1.159-0.246,1.159-1.159c0-1.147-0.895-1.147-1.159-1.147h-10.661
			c-0.544,0-1.182,0.158-1.182,1.159C221.036,36.583,221.948,36.583,222.212,36.583z"/>
		<path class="st2" d="M234.178,44.465h-13.213c-0.702,0-1.182,0.298-1.182,1.159c0,1.141,0.878,1.141,1.182,1.141h13.213
			c0.702,0,1.164-0.298,1.164-1.159C235.342,44.482,234.459,44.465,234.178,44.465z"/>
		<path class="st2" d="M243.85,40.539c0.123,0.544,0.281,1.182,0.895,1.182c0.369,0,1.369-0.035,1.369-1.042
			c0-0.421-0.702-2.832-1.106-3.692c-0.211-0.474-0.386-0.825-1.036-0.825c-0.562,0-1.147,0.334-1.147,0.913
			c0,0.228,0.07,0.404,0.14,0.597C243.289,38.479,243.517,39.169,243.85,40.539z"/>
		<path class="st2" d="M250.094,36.671c-0.123-0.035-0.246-0.053-0.351-0.053c-0.825,0-0.971,0.614-1.077,1.094
			c-0.369,1.761-0.404,1.954-0.65,2.639c-1.428,4.137-4.593,5.19-6.004,5.612c-1.235,0.369-1.586,0.474-1.586,1.123
			c0,0.351,0.228,1.141,1.036,1.141c0.281,0,4.523-0.632,7.145-4.4c1.919-2.779,2.305-6.121,2.305-6.191
			C250.925,37.285,250.802,36.811,250.094,36.671z"/>
		<path class="st2" d="M242.229,41.475c0-0.263-0.053-0.456-0.193-0.86c-1.024-2.797-1.322-3.604-2.147-3.604
			c-0.544,0-1.176,0.334-1.176,0.948c0,0.246,0.088,0.439,0.176,0.632c0.351,0.755,0.65,1.428,1.071,2.797
			c0.193,0.614,0.351,1.129,0.965,1.129C241.317,42.511,242.229,42.353,242.229,41.475z"/>
		<path class="st2" d="M266.191,35.103h-5.331c0.474-0.895,0.562-1.194,0.562-1.516c0-0.632-0.72-0.913-1.246-0.913
			c-0.737,0-0.86,0.298-1.516,1.603c-0.263,0.544-1.633,2.762-3.675,4.277c-0.807,0.597-0.948,0.702-0.948,1.182
			c0,0.579,0.527,1.176,1.141,1.176c1.2,0,3.417-2.463,4.295-3.663h5.19c0.439,0,0.667,0,0.667,0.334
			c0,0.456-0.544,1.919-1.001,2.832c-1.831,3.575-4.839,4.734-7.741,5.454c-1.305,0.316-1.638,0.421-1.638,1.182
			c0,0.263,0.105,1.211,1.159,1.211c0.562,0,4.33-0.72,7.127-2.92c4.032-3.183,4.716-8.022,4.716-8.695
			C267.947,35.735,267.473,35.103,266.191,35.103z"/>
	</g>
</g>
<g class="st3">
	<g class="st4">
		<path class="st5" d="M119.483,11.516c0.158,0,0.731,0,0.731,0.673c0,0.685-0.579,0.685-0.731,0.685h-7.894
			c-0.31,0-0.492,0.146-0.492,0.492v6.916c0,0.339,0.17,0.48,0.492,0.48h8.128c0.158,0,0.743,0.012,0.743,0.685
			c0,0.685-0.579,0.685-0.743,0.685h-8.467c-1.071,0-1.609-0.374-1.609-1.609v-7.396c0-1.252,0.538-1.609,1.609-1.609H119.483z
			 M119.255,16.349c0.17,0,0.65,0,0.65,0.626s-0.48,0.626-0.65,0.626h-2.54c0.708,0.755,1.153,1.141,2.621,1.597
			c0.24,0.07,0.503,0.17,0.503,0.603c0,0.263-0.146,0.772-0.673,0.772c-0.421,0-2.528-0.673-3.534-2.417
			c-1.153,1.972-2.973,2.393-3.294,2.393c-0.527,0-0.685-0.503-0.685-0.772c0-0.421,0.31-0.515,0.515-0.579
			c0.743-0.228,1.709-0.538,2.323-1.597h-2.417c-0.181,0-0.638,0-0.638-0.614c0-0.603,0.386-0.638,0.638-0.638h2.815
			c0-0.012,0.035-0.298,0.035-0.421v-0.731h-1.299c-0.661,0.96-0.925,1.047-1.176,1.047c-0.363,0-0.761-0.31-0.761-0.72
			c0-0.252,0.059-0.298,0.579-0.854c0.351-0.363,0.591-0.784,0.889-1.311c0.146-0.263,0.328-0.468,0.638-0.468
			c0.275,0,0.72,0.17,0.72,0.626c0,0.17-0.047,0.287-0.135,0.445h4.377c0.158,0,0.65,0,0.65,0.614c0,0.626-0.48,0.626-0.65,0.626
			h-2.463v0.731c0,0.17-0.023,0.339-0.035,0.421h2.996V16.349z"/>
		<path class="st5" d="M132.755,18.584c0,0.252,0,0.603-0.263,0.878c-0.298,0.31-0.673,0.31-0.925,0.31h-1.24v1.252
			c0,1.252-0.322,1.358-1.597,1.358c-0.772,0-1.205,0-1.205-0.661c0-0.386,0.205-0.603,0.591-0.603c0.047,0,0.456,0.012,0.492,0.012
			c0.228,0,0.275-0.082,0.275-0.322v-1.036h-1.276c-1.118,0-1.176-0.731-1.176-1.176v-0.807c-0.082,0.047-0.216,0.111-0.363,0.111
			c-0.322,0-0.568-0.31-0.603-0.638c-0.047,1.153-0.252,2.791-0.901,4.09c-0.445,0.889-0.661,0.989-0.971,0.989
			c-0.398,0-0.784-0.31-0.784-0.661c0-0.217,0.094-0.41,0.205-0.626c0.626-1.229,0.819-1.597,1.001-2.733
			c-0.228,0.17-0.685,0.48-0.989,0.48c-0.503,0-0.603-0.661-0.603-0.854c0-0.445,0.298-0.568,0.556-0.661
			c0.31-0.123,0.72-0.31,1.164-0.579V15.5c-0.082,0.047-0.24,0.135-0.456,0.135c-0.363,0-0.421-0.205-0.614-0.72
			c-0.158-0.433-0.228-0.579-0.445-1.012c-0.023-0.059-0.082-0.205-0.082-0.374c0-0.374,0.398-0.626,0.708-0.626
			c0.363,0,0.492,0.287,0.889,1.188v-0.731c0-1.083,0.48-1.381,1.393-1.381h2.586v-0.374c0-0.527,0.492-0.591,0.708-0.591
			c0.363,0,0.772,0.094,0.772,0.591v0.374h3.599c0.275,0,0.708,0.059,0.708,0.579c0,0.445-0.275,0.603-0.708,0.603h-3.739
			c0.228,0.094,0.386,0.217,0.339,0.568h3.452c0.24,0,0.603,0.012,0.603,0.568c0,0.538-0.322,0.591-0.603,0.591h-2.007
			c0.538,0.579,0.603,0.638,0.807,0.807c0.082-0.094,0.421-0.538,0.503-0.626c0.094-0.094,0.205-0.111,0.31-0.111
			c0.287,0,0.65,0.217,0.65,0.492c0,0.228-0.398,0.65-0.591,0.854c0.123,0.059,0.65,0.351,0.761,0.421
			c0.228,0.146,0.252,0.263,0.252,0.421c0,0.351-0.228,0.731-0.65,0.731c-0.193,0-0.339-0.059-0.527-0.181v0.889H132.755z
			 M126.909,21.521c-0.374,0.252-1.036,0.661-1.369,0.661c-0.456,0-0.614-0.433-0.614-0.65c0-0.328,0.111-0.374,0.843-0.761
			c0.468-0.24,0.626-0.363,1.118-0.708c0.158-0.123,0.275-0.17,0.445-0.17c0.339,0,0.626,0.275,0.626,0.638
			C127.956,20.761,127.716,20.995,126.909,21.521z M125.475,17.11c0.035-0.205,0.205-0.339,0.24-0.363
			c0.181-0.146,0.492-0.322,0.673-0.456c-0.146-0.158-0.31-0.339-0.456-0.48c-0.123-0.135-0.17-0.217-0.17-0.339
			c0-0.275,0.351-0.527,0.626-0.527c0.17,0,0.298,0.07,0.843,0.685c0.24-0.228,0.456-0.468,0.65-0.743h-1.662
			c-0.363,0-0.603-0.111-0.603-0.603c0-0.492,0.322-0.556,0.603-0.556h2.27c0.17-0.445,0.193-0.492,0.287-0.568h-2.885
			c-0.287,0-0.421,0.146-0.421,0.41v3.54H125.475z M127.833,17.42h3.546v-0.24c0-0.17-0.07-0.287-0.287-0.287h-2.973
			c-0.24,0-0.287,0.135-0.287,0.287L127.833,17.42L127.833,17.42z M127.833,18.297v0.252c0,0.17,0.059,0.298,0.287,0.298h2.973
			c0.24,0,0.287-0.158,0.287-0.298v-0.252H127.833z M130.712,15.963c-0.503-0.556-0.661-0.843-0.784-1.083h-0.638
			c-0.17,0.275-0.374,0.614-0.761,1.083H130.712z M131.66,19.895c0.17,0,0.217,0.023,0.614,0.31
			c0.456,0.322,0.889,0.556,1.369,0.807c0.146,0.082,0.287,0.205,0.287,0.456c0,0.275-0.216,0.696-0.673,0.696
			c-0.287,0-0.948-0.421-1.264-0.626c-0.339-0.217-0.96-0.626-0.96-1.001C131.034,20.164,131.362,19.895,131.66,19.895z"/>
		<path class="st5" d="M138.442,20.258c-1.036,2.071-1.217,2.071-1.504,2.071c-0.386,0-0.807-0.31-0.807-0.708
			c0-0.275,0.094-0.421,0.603-1.229c0.48-0.743,0.831-1.527,1.229-2.393c0.082-0.193,0.205-0.433,0.579-0.433
			c0.298,0,0.72,0.217,0.72,0.65C139.261,18.625,138.682,19.789,138.442,20.258z M136.856,14.318c0.363,0,0.971,0.421,1.404,0.72
			c0.696,0.48,0.796,0.661,0.796,0.889c0,0.351-0.322,0.819-0.743,0.819c-0.205,0-0.287-0.059-1.001-0.591
			c-0.135-0.094-0.72-0.48-0.843-0.568c-0.217-0.146-0.287-0.24-0.287-0.568C136.183,14.728,136.494,14.318,136.856,14.318z
			 M137.19,11.188c0.339,0,1.012,0.421,1.393,0.661c0.708,0.433,0.878,0.568,0.878,0.901c0,0.398-0.339,0.843-0.72,0.843
			c-0.205,0-0.252-0.035-0.989-0.527c-0.158-0.094-0.854-0.503-0.989-0.603c-0.123-0.07-0.275-0.181-0.275-0.515
			C136.494,11.621,136.81,11.188,137.19,11.188z M140.016,17.349c-0.216,0-0.731-0.012-0.731-0.696c0-0.591,0.374-0.696,0.731-0.696
			h2.61v-1.826h-2.13c-0.181,0-0.743,0-0.743-0.673c0-0.538,0.24-0.743,0.743-0.743h2.13v-0.889c0-0.275,0.047-0.731,0.696-0.731
			c0.527,0,0.796,0.158,0.796,0.731v0.889h2.235c0.181,0,0.731,0,0.731,0.673c0,0.568-0.263,0.743-0.731,0.743h-2.235v1.826h2.633
			c0.181,0,0.731,0,0.731,0.661c0,0.538-0.252,0.731-0.731,0.731h-3.622c-0.456,1.264-1.094,2.645-1.369,3.224
			c1.334-0.07,1.697-0.094,3.294-0.252c-0.252-0.421-0.298-0.503-0.755-1.176c-0.158-0.228-0.181-0.363-0.181-0.48
			c0-0.421,0.445-0.65,0.743-0.65c0.31,0,0.492,0.123,1.012,0.854c0.298,0.445,0.731,1.083,1.164,1.867
			c0.263,0.48,0.363,0.708,0.363,0.925c0,0.41-0.41,0.72-0.843,0.72c-0.41,0-0.556-0.263-0.614-0.398
			c-0.035-0.059-0.181-0.363-0.205-0.421c-2.598,0.374-5.787,0.538-5.927,0.538c-0.146,0-0.72,0-0.72-0.743
			c0-0.263,0.111-0.492,0.339-0.626c0.111-0.059,0.181-0.07,0.696-0.082c0.515-1.071,1.024-2.165,1.369-3.294h-1.48V17.349z"/>
		<path class="st5" d="M154.498,11.89c0-0.217,0-0.784,0.831-0.784c0.831,0,0.843,0.538,0.843,0.784v1.153
			c0,0.913,0.146,3.452,1.562,5.366c0.696,0.948,1.621,1.709,2.657,2.259c0.287,0.158,0.579,0.328,0.579,0.743
			c0,0.339-0.275,0.913-0.878,0.913c-0.591,0-2.054-1.217-2.838-2.083c-0.96-1.059-1.562-2.382-1.913-3.762
			c-0.568,2.165-1.41,3.236-2.177,4.032c-0.685,0.708-1.995,1.814-2.598,1.814c-0.503,0-0.866-0.492-0.866-0.925
			c0-0.386,0.217-0.527,0.445-0.661c1.562-0.889,3.318-2.095,4.102-5.342c0.123-0.515,0.252-2.165,0.252-2.358L154.498,11.89
			L154.498,11.89z"/>
		<path class="st5" d="M165.838,12.873c0.614,0,1.094,0.228,1.094,1.001c0,0.515-0.158,1.071-1.071,2.323
			c0.275,0.31,0.503,0.527,0.913,0.913c0.48,0.445,0.579,0.527,0.579,0.784c0,0.339-0.31,0.743-0.708,0.743
			c-0.421,0-0.819-0.556-1.129-0.989v4.078c0,0.591-0.275,0.731-0.819,0.731c-0.626,0-0.685-0.421-0.685-0.731V18.18
			c-0.492,0.398-0.731,0.603-1.083,0.603c-0.386,0-0.772-0.421-0.772-0.854c0-0.41,0.181-0.527,1.083-1.164
			c1.322-0.925,2.007-2.165,2.007-2.311c0-0.181-0.181-0.193-0.287-0.193h-1.949c-0.351,0-0.731-0.094-0.731-0.696
			c0-0.685,0.538-0.685,0.731-0.685h0.989v-1.083c0-0.556,0.252-0.743,0.808-0.743c0.673,0,0.708,0.503,0.708,0.743v1.083h0.322
			V12.873z M172.597,14.254c0.205,0,0.784,0,0.784,0.696c0,0.568-0.216,0.807-0.784,0.807h-1.72v4.845h1.925
			c0.193,0,0.772,0,0.772,0.685c0,0.556-0.217,0.796-0.772,0.796h-5.518c-0.216,0-0.854,0-0.854-0.696
			c0-0.591,0.275-0.784,0.854-0.784h2.054v-4.845h-1.638c-0.193,0-0.755,0-0.755-0.708c0-0.591,0.252-0.796,0.755-0.796h1.638v-2.44
			c0-0.275,0.035-0.743,0.708-0.743c0.603,0,0.831,0.205,0.831,0.743v2.44H172.597z"/>
		<path class="st5" d="M186.395,20.521c0,1.241-0.538,1.609-1.609,1.609h-7.145c-1.071,0-1.609-0.363-1.609-1.609v-7.396
			c0-1.241,0.527-1.609,1.609-1.609h7.145c1.071,0,1.609,0.374,1.609,1.609V20.521z M184.926,13.406c0-0.351-0.193-0.492-0.48-0.492
			h-6.442c-0.351,0-0.48,0.205-0.48,0.492v6.846c0,0.322,0.158,0.492,0.48,0.492h6.448c0.31,0,0.48-0.158,0.48-0.492v-6.846H184.926
			z M183.545,19.198c0,1.358-0.386,1.358-2.095,1.358c-0.556,0-0.96,0-0.96-0.638c0-0.626,0.445-0.626,0.614-0.626
			c0.094,0,0.515,0.023,0.603,0.023c0.386,0,0.433-0.17,0.433-0.386v-3.248h-3.874c-0.252,0-0.685,0-0.685-0.614
			c0-0.579,0.252-0.685,0.685-0.685h3.874v-0.784c0-0.48,0.205-0.685,0.661-0.685c0.48,0,0.743,0.123,0.743,0.685v0.784h0.626
			c0.252,0,0.685,0.012,0.685,0.626c0,0.579-0.24,0.673-0.685,0.673h-0.626L183.545,19.198L183.545,19.198z M180.204,17.133
			c0.228,0.322,0.614,0.878,0.614,1.205c0,0.492-0.538,0.696-0.808,0.696c-0.31,0-0.41-0.17-0.755-0.755
			c-0.17-0.287-0.298-0.468-0.673-1.001c-0.111-0.146-0.252-0.351-0.252-0.568c0-0.363,0.398-0.614,0.72-0.614
			C179.314,16.097,179.466,16.097,180.204,17.133z"/>
	</g>
	
		<linearGradient id="SVGID_00000027581722908270828570000013612872813515051650_" gradientUnits="userSpaceOnUse" x1="194.1945" y1="38.2796" x2="232.7144" y2="38.2796" gradientTransform="matrix(1 0 0 -1 0 55)">
		<stop  offset="0" style="stop-color:#86B943"/>
		<stop  offset="1" style="stop-color:#32A44A"/>
	</linearGradient>
	<path style="display:inline;fill:url(#SVGID_00000027581722908270828570000013612872813515051650_);" d="M204.85,12.077
		c0.181,0,0.731,0,0.731,0.638c0,0.48-0.205,0.708-0.731,0.708h-4.207v2.61c0,1.551,0.456,2.768,1.732,3.739
		c0.784,0.591,1.779,0.866,2.563,1.071c0.398,0.111,0.591,0.24,0.591,0.638c0,0.24-0.105,0.889-0.761,0.889
		c-0.819,0-3.839-1.176-4.845-3.523c-0.158,0.398-0.456,1.141-1.662,2.107c-1.205,0.948-2.657,1.445-3.189,1.445
		c-0.685,0-0.772-0.685-0.772-0.878c0-0.468,0.298-0.591,0.591-0.661c2.463-0.65,4.272-1.662,4.272-5.085v-2.346h-4.248
		c-0.24,0-0.72-0.035-0.72-0.673c0-0.538,0.322-0.673,0.72-0.673h4.248v-0.445c0-0.386,0.205-0.603,0.685-0.603
		c0.456,0,0.796,0.094,0.796,0.603v0.445h4.207V12.077z M198.63,17.033c0,0.31-0.298,0.568-0.901,1.036
		c0.351,0.328,0.468,0.456,0.468,0.685c0,0.398-0.433,0.708-0.72,0.708c-0.205,0-0.322-0.135-0.468-0.298
		c-0.07-0.082-0.146-0.158-0.351-0.374c-0.603,0.339-1.422,0.696-1.72,0.696c-0.468,0-0.603-0.456-0.603-0.685
		c0-0.322,0.216-0.445,0.456-0.538c0.568-0.228,0.626-0.252,0.866-0.363c-0.105-0.082-0.568-0.421-0.661-0.492
		c-0.082-0.07-0.17-0.17-0.17-0.339c0-0.287,0.275-0.591,0.65-0.591c0.158,0,0.298,0,1.276,0.761
		c0.193-0.135,0.374-0.287,0.72-0.603c0.094-0.082,0.205-0.193,0.421-0.217c-0.146,0.012-0.24-0.012-0.363-0.082
		c-0.135-0.082-0.661-0.538-0.772-0.638c-0.673,0.433-1.551,0.843-1.837,0.843c-0.398,0-0.556-0.421-0.556-0.661
		c0-0.31,0.228-0.41,0.398-0.48c0.696-0.287,0.772-0.31,0.96-0.421c-0.743-0.456-0.901-0.568-0.901-0.796
		c0-0.322,0.275-0.579,0.614-0.579c0.181,0,0.298,0.047,0.538,0.181c0.217,0.135,0.568,0.339,0.854,0.527
		c0.111-0.082,0.456-0.374,0.685-0.579c0.146-0.123,0.228-0.17,0.386-0.17c0.339,0,0.591,0.287,0.591,0.556
		c0,0.275-0.205,0.445-0.696,0.843c0.626,0.468,0.708,0.568,0.708,0.807c0,0.263-0.217,0.591-0.603,0.65
		C198.331,16.396,198.63,16.723,198.63,17.033z M205.055,15.688c0,0.328-0.31,0.661-0.638,0.661c-0.17,0-0.263-0.07-0.41-0.193
		c-0.363-0.339-0.421-0.363-0.579-0.48c-0.65,0.41-1.574,0.866-1.89,0.866c-0.445,0-0.579-0.468-0.579-0.661
		c0-0.339,0.275-0.456,0.468-0.527c0.527-0.217,0.591-0.228,0.936-0.41c-0.135-0.07-0.708-0.386-0.819-0.456
		c-0.059-0.047-0.228-0.158-0.228-0.374c0-0.228,0.228-0.538,0.626-0.538c0.322,0,1.118,0.492,1.469,0.72
		c0.158-0.111,0.205-0.158,0.661-0.538c0.146-0.135,0.275-0.158,0.386-0.158c0.351,0,0.614,0.31,0.614,0.568
		c0,0.257-0.205,0.421-0.649,0.796C204.932,15.325,205.055,15.459,205.055,15.688z M204.224,16.554
		c0.146-0.146,0.275-0.205,0.433-0.205c0.351,0,0.638,0.287,0.638,0.591c0,0.275-0.217,0.48-0.784,0.989
		c0.626,0.515,0.784,0.65,0.784,0.96c0,0.398-0.421,0.638-0.673,0.638c-0.17,0-0.263-0.059-0.445-0.217
		c-0.363-0.322-0.374-0.339-0.696-0.603c-0.31,0.205-1.059,0.626-1.358,0.626c-0.374,0-0.614-0.398-0.614-0.696
		c0-0.287,0.193-0.398,0.298-0.456c0.094-0.047,0.527-0.24,0.614-0.275c-0.094-0.07-0.158-0.123-0.614-0.398
		c-0.135-0.082-0.31-0.228-0.31-0.48c0-0.287,0.298-0.603,0.65-0.603c0.287,0,1.047,0.503,1.41,0.755
		C203.756,17.01,203.803,16.975,204.224,16.554z M209.274,15.354c-0.205-0.263-0.386-0.48-0.878-0.971
		c-0.48-0.48-0.538-0.556-0.538-0.854s0.252-0.673,0.614-0.673c0.135,0,0.205,0.035,0.275,0.082c0.205-0.351,0.445-0.731,0.65-1.205
		c0.193-0.421,0.275-0.638,0.614-0.638c0.298,0,0.784,0.228,0.784,0.579c0,0.386-0.72,1.527-1.118,2.118
		c0.193,0.205,0.217,0.228,0.374,0.41c0.363-0.568,0.386-0.614,0.925-1.597c0.105-0.181,0.263-0.351,0.48-0.351
		c0.339,0,0.772,0.275,0.772,0.626c0,0.217-0.398,0.819-0.579,1.106c-0.661,1.012-1.047,1.48-1.574,2.153
		c0.228-0.012,0.322-0.012,1.106-0.07c-0.181-0.527-0.193-0.591-0.193-0.696c0-0.287,0.263-0.41,0.468-0.41
		c0.31,0,0.398,0.24,0.503,0.503c0.158,0.398,0.433,1.299,0.48,1.469c0.228-0.322,0.48-0.322,0.527-0.322
		c0.158,0,0.287,0.035,0.889,0.614c0.17,0.17,0.603,0.591,0.603,0.925c0,0.252-0.24,0.614-0.65,0.614
		c-0.181,0-0.216-0.035-0.591-0.421c-0.111-0.111-0.661-0.65-0.772-0.796c-0.111,0.17-0.31,0.24-0.503,0.24
		c-0.339,0-0.398-0.252-0.48-0.568c-0.105,0.012-0.17,0.023-0.696,0.082v4.523c0,0.17,0,0.638-0.579,0.638s-0.579-0.48-0.579-0.638
		v-4.4c-0.72,0.07-0.936,0.094-1.229,0.094c-0.339,0-0.638-0.17-0.638-0.696c0-0.603,0.374-0.603,0.913-0.626L209.274,15.354z
		 M209.25,18.537c0,0.228-0.094,1.878-0.322,2.692c-0.047,0.181-0.146,0.421-0.48,0.421c-0.059,0-0.638,0-0.638-0.527
		c0-0.158,0.158-0.854,0.181-0.989c0.111-0.626,0.146-1.059,0.193-1.685c0.023-0.275,0.082-0.527,0.503-0.527
		C209.25,17.923,209.25,18.332,209.25,18.537z M213.399,19.275c0.421-0.287,0.527-0.31,0.638-0.31c0.322,0,0.568,0.339,0.568,0.685
		c0,0.31-0.135,0.421-0.854,0.96c-0.322,0.24-1.164,0.831-1.469,0.831c-0.339,0-0.614-0.374-0.614-0.743
		c0-0.094,0.012-0.158,0.035-0.217c-0.421-0.035-0.433-0.181-0.515-0.948c-0.012-0.17-0.135-1.024-0.135-1.047
		c0-0.374,0.41-0.433,0.556-0.433c0.421,0,0.456,0.193,0.579,0.854c0.012,0.059,0.146,0.743,0.146,1.059
		C212.726,19.743,213.247,19.38,213.399,19.275z M216.202,21.03c0,1.141-0.24,1.346-1.422,1.346c-0.772,0-0.831,0-0.901-0.012
		c-0.351-0.059-0.527-0.386-0.527-0.708c0-0.31,0.105-0.696,0.626-0.696c0.094,0,0.48,0.023,0.556,0.012
		c0.181-0.023,0.263-0.094,0.263-0.374v-4.283h-1.995c-0.17,0-0.614,0-0.614-0.591c0-0.456,0.17-0.65,0.614-0.65h3.991v-0.65h-3.417
		c-0.181,0-0.591-0.012-0.591-0.556c0-0.492,0.31-0.556,0.591-0.556h3.417v-0.363c0-0.123-0.035-0.287-0.287-0.287H213.2
		c-0.17,0-0.603,0-0.603-0.579c0-0.445,0.146-0.65,0.603-0.65h3.762c0.831,0,1.264,0.287,1.264,1.299v2.382h0.351
		c0.351,0,0.538,0.217,0.538,0.591c0,0.579-0.398,0.603-0.614,0.603h-2.3v0.638c0.146,0.351,0.398,0.796,0.515,1.001
		c0.205-0.181,0.556-0.503,0.901-0.925c0.275-0.351,0.386-0.445,0.626-0.445c0.386,0,0.673,0.339,0.673,0.638
		c0,0.228-0.082,0.398-0.287,0.65c-0.456,0.538-0.866,0.913-1.153,1.164c0.298,0.363,0.556,0.614,0.808,0.819
		c0.638,0.527,0.819,0.673,0.819,1.001c0,0.363-0.339,0.784-0.743,0.784c-0.48,0-1.504-1.129-2.153-2.311v1.709H216.202z
		 M224.505,15.629c-0.445,0-0.685-0.158-0.72-0.603c-0.468,0.275-1.346,0.784-1.767,0.784c-0.386,0-0.731-0.398-0.731-0.901
		c0-0.456,0.287-0.603,0.65-0.731c1.814-0.685,2.873-1.697,3.762-2.551c0.48-0.468,0.673-0.65,1.299-0.65
		c0.626,0,0.784,0.17,1.48,0.843c0.661,0.661,1.65,1.597,3.634,2.405c0.363,0.146,0.603,0.275,0.603,0.708
		c0,0.48-0.351,0.889-0.772,0.889c-0.386,0-1.252-0.492-1.697-0.772c-0.059,0.515-0.41,0.579-0.731,0.579H224.505z M226.161,18.151
		c-0.287,0.696-0.556,1.264-1.188,2.393c1.709-0.059,1.995-0.082,4.511-0.228c-0.181-0.228-0.24-0.287-0.708-0.807
		c-0.263-0.287-0.31-0.433-0.31-0.591c0-0.363,0.445-0.685,0.831-0.685c0.205,0,0.386,0.082,0.614,0.31
		c0.48,0.468,1.036,1.071,1.597,1.791c0.579,0.72,0.708,0.948,0.708,1.217c0,0.421-0.515,0.796-0.936,0.796
		c-0.275,0-0.41-0.158-0.48-0.263c-0.047-0.07-0.298-0.456-0.363-0.538c-1.252,0.146-2.551,0.24-3.827,0.322
		c-0.603,0.047-3.704,0.228-4.184,0.228c-0.193,0-0.743,0-0.743-0.772c0-0.105,0-0.65,0.538-0.696
		c0.111-0.012,0.948-0.035,1.129-0.035c0.433-0.796,0.866-1.586,1.153-2.44h-2.224c-0.503,0-0.731-0.228-0.731-0.755
		c0-0.673,0.568-0.673,0.731-0.673h9.403c0.492,0,0.731,0.205,0.731,0.743c0,0.685-0.568,0.685-0.731,0.685H226.161z M229.11,14.295
		c-0.375-0.275-1.083-0.819-1.767-1.586c-0.181-0.193-0.228-0.24-0.339-0.24s-0.158,0.047-0.339,0.24
		c-0.538,0.591-1.129,1.118-1.767,1.586H229.11z"/>
</g>
<g>
	<g>
		<path class="st7" d="M101.338,11.529c0.154,0,0.722,0,0.722,0.663c0,0.674-0.568,0.674-0.722,0.674h-7.762
			c-0.308,0-0.485,0.142-0.485,0.485v6.804c0,0.331,0.166,0.473,0.485,0.473h7.999c0.154,0,0.734,0.012,0.734,0.674
			c0,0.674-0.568,0.674-0.734,0.674h-8.33c-1.053,0-1.586-0.367-1.586-1.586v-7.277c0-1.231,0.532-1.586,1.586-1.586H101.338z
			 M101.114,16.286c0.166,0,0.639,0,0.639,0.615c0,0.615-0.473,0.615-0.639,0.615h-2.497c0.698,0.745,1.136,1.124,2.579,1.574
			c0.237,0.071,0.497,0.166,0.497,0.592c0,0.26-0.142,0.757-0.663,0.757c-0.414,0-2.485-0.663-3.479-2.378
			c-1.136,1.94-2.923,2.355-3.242,2.355c-0.521,0-0.674-0.497-0.674-0.757c0-0.414,0.308-0.509,0.509-0.568
			c0.734-0.225,1.68-0.532,2.284-1.574H94.05c-0.177,0-0.627,0-0.627-0.603c0-0.592,0.379-0.627,0.627-0.627h2.769
			c0-0.012,0.035-0.296,0.035-0.414V15.15h-1.278c-0.651,0.947-0.911,1.029-1.16,1.029c-0.355,0-0.745-0.308-0.745-0.71
			c0-0.248,0.059-0.296,0.568-0.84c0.343-0.355,0.58-0.769,0.876-1.29c0.142-0.26,0.32-0.461,0.627-0.461
			c0.272,0,0.71,0.166,0.71,0.615c0,0.166-0.047,0.284-0.13,0.438h4.307c0.154,0,0.639,0,0.639,0.603
			c0,0.615-0.473,0.615-0.639,0.615h-2.426v0.722c0,0.166-0.024,0.331-0.036,0.414H101.114z"/>
		<path class="st7" d="M114.396,18.487c0,0.248,0,0.592-0.26,0.864c-0.296,0.308-0.663,0.308-0.911,0.308h-1.219v1.231
			c0,1.231-0.319,1.337-1.574,1.337c-0.757,0-1.183,0-1.183-0.651c0-0.379,0.201-0.592,0.58-0.592c0.047,0,0.45,0.012,0.485,0.012
			c0.225,0,0.272-0.083,0.272-0.319v-1.018h-1.254c-1.1,0-1.16-0.722-1.16-1.16v-0.793c-0.083,0.047-0.213,0.107-0.355,0.107
			c-0.319,0-0.556-0.308-0.592-0.627c-0.047,1.136-0.248,2.745-0.887,4.023c-0.438,0.876-0.651,0.97-0.958,0.97
			c-0.391,0-0.769-0.308-0.769-0.651c0-0.213,0.095-0.402,0.201-0.615c0.615-1.207,0.805-1.574,0.982-2.686
			c-0.225,0.166-0.675,0.473-0.97,0.473c-0.497,0-0.592-0.651-0.592-0.84c0-0.438,0.296-0.556,0.544-0.651
			c0.308-0.118,0.71-0.308,1.148-0.568v-1.183c-0.083,0.047-0.237,0.13-0.45,0.13c-0.355,0-0.414-0.201-0.603-0.71
			c-0.154-0.426-0.225-0.568-0.438-0.994c-0.024-0.059-0.083-0.201-0.083-0.367c0-0.367,0.39-0.615,0.698-0.615
			c0.355,0,0.485,0.284,0.876,1.171v-0.722c0-1.065,0.473-1.361,1.373-1.361h2.544v-0.367c0-0.521,0.485-0.58,0.698-0.58
			c0.355,0,0.757,0.095,0.757,0.58v0.367h3.538c0.272,0,0.698,0.059,0.698,0.568c0,0.438-0.272,0.592-0.698,0.592h-3.68
			c0.225,0.095,0.379,0.213,0.331,0.556h3.396c0.237,0,0.592,0.012,0.592,0.556c0,0.532-0.319,0.58-0.592,0.58h-1.976
			c0.532,0.568,0.592,0.627,0.793,0.793c0.083-0.095,0.414-0.532,0.497-0.615c0.095-0.095,0.201-0.107,0.308-0.107
			c0.284,0,0.639,0.213,0.639,0.485c0,0.225-0.39,0.639-0.58,0.84c0.118,0.059,0.639,0.343,0.745,0.414
			c0.225,0.142,0.248,0.26,0.248,0.414c0,0.343-0.225,0.722-0.639,0.722c-0.189,0-0.331-0.059-0.521-0.177V18.487z M108.645,21.374
			c-0.367,0.248-1.018,0.651-1.349,0.651c-0.45,0-0.603-0.426-0.603-0.639c0-0.32,0.107-0.367,0.828-0.745
			c0.461-0.237,0.615-0.355,1.1-0.698c0.154-0.118,0.272-0.166,0.438-0.166c0.331,0,0.615,0.272,0.615,0.627
			C109.675,20.628,109.438,20.853,108.645,21.374z M107.237,17.031c0.036-0.201,0.201-0.331,0.237-0.355
			c0.177-0.142,0.485-0.319,0.663-0.45c-0.142-0.154-0.308-0.331-0.45-0.473c-0.118-0.13-0.166-0.213-0.166-0.331
			c0-0.272,0.343-0.521,0.615-0.521c0.166,0,0.296,0.071,0.828,0.675c0.237-0.225,0.45-0.461,0.639-0.734h-1.633
			c-0.355,0-0.592-0.107-0.592-0.592c0-0.485,0.319-0.544,0.592-0.544h2.236c0.166-0.438,0.189-0.485,0.284-0.556h-2.84
			c-0.284,0-0.414,0.142-0.414,0.402V17.031z M109.556,17.339h3.49v-0.237c0-0.166-0.071-0.284-0.284-0.284h-2.923
			c-0.237,0-0.284,0.13-0.284,0.284V17.339z M109.556,18.203v0.248c0,0.166,0.059,0.296,0.284,0.296h2.923
			c0.237,0,0.284-0.154,0.284-0.296v-0.248H109.556z M112.384,15.907c-0.497-0.544-0.651-0.828-0.769-1.065h-0.627
			c-0.166,0.272-0.367,0.603-0.745,1.065H112.384z M113.319,19.776c0.166,0,0.213,0.024,0.604,0.308
			c0.45,0.319,0.876,0.544,1.349,0.793c0.142,0.083,0.284,0.201,0.284,0.45c0,0.272-0.213,0.686-0.663,0.686
			c-0.284,0-0.935-0.414-1.242-0.615c-0.331-0.213-0.947-0.615-0.947-0.982C112.704,20.037,113.023,19.776,113.319,19.776z"/>
		<path class="st7" d="M119.992,20.131c-1.018,2.035-1.195,2.035-1.479,2.035c-0.379,0-0.793-0.308-0.793-0.698
			c0-0.272,0.095-0.414,0.592-1.207c0.473-0.734,0.816-1.503,1.207-2.355c0.083-0.189,0.201-0.426,0.568-0.426
			c0.296,0,0.71,0.213,0.71,0.639C120.796,18.522,120.228,19.67,119.992,20.131z M118.43,14.286c0.355,0,0.958,0.414,1.384,0.71
			c0.686,0.473,0.781,0.651,0.781,0.876c0,0.343-0.319,0.805-0.734,0.805c-0.201,0-0.284-0.059-0.982-0.58
			c-0.13-0.095-0.71-0.473-0.828-0.556c-0.213-0.142-0.284-0.237-0.284-0.556C117.767,14.688,118.075,14.286,118.43,14.286z
			 M118.761,11.21c0.331,0,0.994,0.414,1.372,0.651c0.698,0.426,0.864,0.556,0.864,0.887c0,0.39-0.331,0.828-0.71,0.828
			c-0.201,0-0.248-0.036-0.97-0.521c-0.154-0.095-0.84-0.497-0.97-0.592c-0.118-0.071-0.272-0.177-0.272-0.509
			C118.075,11.636,118.382,11.21,118.761,11.21z M121.542,17.268c-0.213,0-0.722-0.012-0.722-0.686c0-0.58,0.367-0.686,0.722-0.686
			h2.568v-1.799h-2.094c-0.177,0-0.734,0-0.734-0.663c0-0.532,0.237-0.733,0.734-0.733h2.094v-0.876
			c0-0.272,0.047-0.722,0.686-0.722c0.521,0,0.781,0.154,0.781,0.722v0.876h2.201c0.177,0,0.722,0,0.722,0.663
			c0,0.556-0.26,0.734-0.722,0.734h-2.201v1.799h2.591c0.177,0,0.722,0,0.722,0.651c0,0.532-0.248,0.722-0.722,0.722h-3.562
			c-0.45,1.242-1.077,2.603-1.349,3.171c1.313-0.071,1.668-0.095,3.242-0.248c-0.248-0.414-0.296-0.497-0.745-1.16
			c-0.154-0.225-0.177-0.355-0.177-0.473c0-0.414,0.438-0.639,0.733-0.639c0.308,0,0.485,0.118,0.994,0.84
			c0.296,0.438,0.722,1.065,1.148,1.834c0.26,0.473,0.355,0.698,0.355,0.911c0,0.402-0.402,0.71-0.828,0.71
			c-0.402,0-0.544-0.26-0.604-0.391c-0.036-0.059-0.177-0.355-0.201-0.414c-2.556,0.367-5.691,0.532-5.833,0.532
			c-0.142,0-0.71,0-0.71-0.733c0-0.26,0.107-0.485,0.331-0.615c0.107-0.059,0.177-0.071,0.686-0.083
			c0.509-1.053,1.006-2.13,1.349-3.242H121.542z"/>
		<path class="st7" d="M135.786,11.896c0-0.213,0-0.769,0.817-0.769c0.816,0,0.828,0.532,0.828,0.769v1.136
			c0,0.899,0.142,3.396,1.538,5.277c0.686,0.935,1.597,1.68,2.615,2.224c0.284,0.154,0.568,0.32,0.568,0.734
			c0,0.331-0.272,0.899-0.864,0.899c-0.58,0-2.023-1.195-2.792-2.047c-0.947-1.041-1.538-2.343-1.881-3.704
			c-0.556,2.13-1.384,3.183-2.142,3.964c-0.674,0.698-1.964,1.787-2.556,1.787c-0.497,0-0.852-0.485-0.852-0.911
			c0-0.379,0.213-0.521,0.438-0.651c1.538-0.876,3.266-2.059,4.035-5.253c0.118-0.509,0.248-2.13,0.248-2.319V11.896z"/>
		<path class="st7" d="M146.945,12.866c0.604,0,1.077,0.225,1.077,0.982c0,0.509-0.154,1.053-1.053,2.284
			c0.272,0.308,0.497,0.521,0.899,0.899c0.473,0.438,0.568,0.521,0.568,0.769c0,0.331-0.308,0.733-0.698,0.733
			c-0.414,0-0.805-0.544-1.112-0.97v4.011c0,0.58-0.272,0.722-0.805,0.722c-0.615,0-0.674-0.414-0.674-0.722v-3.491
			c-0.485,0.391-0.722,0.592-1.065,0.592c-0.379,0-0.757-0.414-0.757-0.84c0-0.402,0.177-0.521,1.065-1.148
			c1.301-0.911,1.976-2.13,1.976-2.272c0-0.177-0.177-0.189-0.284-0.189h-1.917c-0.343,0-0.722-0.095-0.722-0.686
			c0-0.674,0.532-0.674,0.722-0.674h0.97v-1.065c0-0.544,0.248-0.734,0.793-0.734c0.663,0,0.698,0.497,0.698,0.734v1.065H146.945z
			 M153.595,14.227c0.201,0,0.769,0,0.769,0.686c0,0.556-0.213,0.793-0.769,0.793h-1.692v4.769h1.893c0.189,0,0.757,0,0.757,0.674
			c0,0.544-0.213,0.781-0.757,0.781h-5.431c-0.213,0-0.84,0-0.84-0.686c0-0.58,0.272-0.769,0.84-0.769h2.023v-4.769h-1.609
			c-0.189,0-0.745,0-0.745-0.698c0-0.58,0.248-0.781,0.745-0.781h1.609v-2.402c0-0.272,0.035-0.734,0.698-0.734
			c0.592,0,0.817,0.201,0.817,0.734v2.402H153.595z"/>
		<path class="st7" d="M167.168,20.392c0,1.219-0.532,1.586-1.585,1.586h-7.028c-1.053,0-1.586-0.355-1.586-1.586v-7.277
			c0-1.219,0.521-1.586,1.586-1.586h7.028c1.053,0,1.585,0.367,1.585,1.586V20.392z M165.724,13.387
			c0-0.343-0.189-0.485-0.473-0.485h-6.342c-0.343,0-0.473,0.201-0.473,0.485v6.733c0,0.319,0.154,0.485,0.473,0.485h6.342
			c0.308,0,0.473-0.154,0.473-0.485V13.387z M164.364,19.09c0,1.337-0.379,1.337-2.059,1.337c-0.544,0-0.947,0-0.947-0.627
			c0-0.615,0.438-0.615,0.603-0.615c0.095,0,0.509,0.024,0.592,0.024c0.379,0,0.426-0.166,0.426-0.379v-3.195h-3.81
			c-0.249,0-0.674,0-0.674-0.603c0-0.568,0.248-0.674,0.674-0.674h3.81v-0.769c0-0.473,0.201-0.674,0.651-0.674
			c0.473,0,0.733,0.118,0.733,0.674v0.769h0.615c0.249,0,0.674,0.012,0.674,0.615c0,0.568-0.237,0.663-0.674,0.663h-0.615V19.09z
			 M161.074,17.055c0.225,0.319,0.603,0.864,0.603,1.183c0,0.485-0.532,0.686-0.793,0.686c-0.308,0-0.402-0.166-0.745-0.745
			c-0.166-0.284-0.296-0.461-0.663-0.982c-0.107-0.142-0.249-0.343-0.249-0.556c0-0.355,0.391-0.603,0.71-0.603
			C160.199,16.037,160.352,16.037,161.074,17.055z"/>
	</g>
	<g>
		<g>
			<g>
				
					<linearGradient id="SVGID_00000074431024223886227390000011534750966498765966_" gradientUnits="userSpaceOnUse" x1="174.8372" y1="16.7136" x2="186.0733" y2="16.7136">
					<stop  offset="0" style="stop-color:#8AC23E"/>
					<stop  offset="1" style="stop-color:#28AC4B"/>
				</linearGradient>
				<path style="fill:url(#SVGID_00000074431024223886227390000011534750966498765966_);" d="M181.248,15.484h4.092
					c0.213,0,0.733,0.012,0.733,0.698c0,0.579-0.212,0.804-0.733,0.804h-4.092v4.542c0,0.366-0.106,0.733-0.721,0.733
					c-0.651,0-0.888-0.165-0.888-0.733v-4.542h-4.056c-0.285,0-0.746-0.047-0.746-0.698c0-0.556,0.178-0.804,0.746-0.804h4.056
					v-2.307c-0.994,0.036-3.288,0.083-3.347,0.083c-0.224,0-0.721,0-0.721-0.733c0-0.698,0.461-0.698,1.076-0.71
					c0.485,0,3.702-0.095,5.689-0.355c0.319-0.047,1.88-0.296,1.999-0.296c0.745,0,0.745,0.745,0.745,0.852
					c0,0.461-0.26,0.579-0.485,0.65c-0.626,0.213-2.519,0.355-3.347,0.426V15.484z"/>
			</g>
			<g>
				
					<linearGradient id="SVGID_00000018206178554624615950000010865362459118552742_" gradientUnits="userSpaceOnUse" x1="187.9056" y1="16.6843" x2="199.106" y2="16.6843">
					<stop  offset="0" style="stop-color:#8AC23E"/>
					<stop  offset="1" style="stop-color:#28AC4B"/>
				</linearGradient>
				<path style="fill:url(#SVGID_00000018206178554624615950000010865362459118552742_);" d="M194.919,11.77
					c0-0.284,0-0.698,0.662-0.698c0.757,0,0.769,0.331,0.769,0.698h2.058c0.154,0,0.698,0,0.698,0.591
					c0,0.485-0.355,0.592-0.698,0.592h-2.058c0,0.201,0,0.213-0.023,0.308c0.07-0.012,0.177-0.024,0.343-0.024
					c0.45,0,0.745,0.107,0.745,0.462v0.307h1.065c0.296,0,0.615,0.071,0.615,0.544c0,0.461-0.285,0.556-0.615,0.556h-1.065v0.284
					c0,1.029-0.508,1.076-1.229,1.076h-2.165c-0.733,0-1.242-0.047-1.242-1.076v-0.284h-1.81v1.348c0,0.201,0.095,0.343,0.343,0.343
					h6.576c0.154,0,0.603,0,0.603,0.544c0,0.449-0.189,0.603-0.603,0.603h-3.666v0.426h4.258c0.165,0,0.615,0,0.615,0.556
					c0,0.426-0.154,0.627-0.615,0.627h-3.028c0.816,0.556,1.738,0.899,2.318,1.041c0.852,0.201,1.183,0.272,1.183,0.733
					c0,0.391-0.225,0.722-0.639,0.722c-0.651,0-2.685-0.686-4.093-1.987v1.514c0,0.284-0.047,0.722-0.674,0.722
					c-0.52,0-0.78-0.154-0.78-0.722v-1.537c-1.467,1.396-3.654,2.011-4.068,2.011c-0.545,0-0.662-0.485-0.662-0.71
					c0-0.449,0.319-0.544,1.206-0.757c0.367-0.095,1.503-0.462,2.307-1.029h-3.016c-0.177,0-0.627,0-0.627-0.591
					c0-0.533,0.355-0.591,0.627-0.591h4.234v-0.426h-1.928c-0.816,0-1.289-0.26-1.289-1.289v-1.549h-1.029
					c-0.224,0-0.615-0.024-0.615-0.544c0-0.414,0.213-0.556,0.615-0.556h1.029v-0.307c0-0.402,0.343-0.473,0.686-0.473
					c0.071,0,0.296,0,0.473,0.059c-0.023-0.071-0.023-0.095-0.023-0.166v-0.165h-2.07c-0.178,0-0.71-0.012-0.71-0.592
					c0-0.473,0.343-0.591,0.71-0.591h2.07c0-0.296,0-0.698,0.662-0.698c0.768,0,0.768,0.331,0.768,0.698H194.919z M194.919,12.953
					h-2.803c0,0.308,0,0.662-0.757,0.662c-0.142,0-0.271-0.023-0.413-0.083c0.023,0.059,0.023,0.094,0.023,0.166v0.307h1.81v-0.307
					c0-0.332,0.153-0.473,0.768-0.473c0.461,0,0.627,0.166,0.627,0.473v0.307h1.774v-0.319c0-0.047,0-0.059,0.011-0.118
					c-0.083,0.024-0.178,0.047-0.343,0.047c-0.438,0-0.698-0.154-0.698-0.509V12.953z M194.174,15.105v0.26
					c0,0.154,0.07,0.237,0.237,0.237h1.312c0.166,0,0.225-0.095,0.225-0.237v-0.26H194.174z"/>
			</g>
			<g>
				
					<linearGradient id="SVGID_00000047046002800055158360000008418874464778135997_" gradientUnits="userSpaceOnUse" x1="201.2933" y1="16.6249" x2="212.4947" y2="16.6249">
					<stop  offset="0" style="stop-color:#8AC23E"/>
					<stop  offset="1" style="stop-color:#28AC4B"/>
				</linearGradient>
				<path style="fill:url(#SVGID_00000047046002800055158360000008418874464778135997_);" d="M211.773,12.066
					c0.177,0,0.721,0,0.721,0.627c0,0.473-0.201,0.698-0.721,0.698h-4.14v2.566c0,1.526,0.449,2.72,1.703,3.679
					c0.769,0.579,1.751,0.851,2.52,1.052c0.39,0.107,0.579,0.237,0.579,0.627c0,0.237-0.107,0.875-0.746,0.875
					c-0.804,0-3.773-1.159-4.766-3.466c-0.154,0.39-0.449,1.124-1.632,2.07c-1.182,0.934-2.614,1.419-3.134,1.419
					c-0.674,0-0.757-0.674-0.757-0.863c0-0.461,0.296-0.579,0.579-0.651c2.425-0.639,4.199-1.632,4.199-5.003V13.39h-4.176
					c-0.237,0-0.71-0.036-0.71-0.663c0-0.532,0.319-0.662,0.71-0.662h4.176v-0.438c0-0.378,0.201-0.592,0.673-0.592
					c0.45,0,0.781,0.095,0.781,0.592v0.438H211.773z M205.659,16.939c0,0.308-0.296,0.556-0.887,1.017
					c0.343,0.319,0.461,0.449,0.461,0.674c0,0.39-0.425,0.698-0.709,0.698c-0.202,0-0.319-0.13-0.462-0.296
					c-0.07-0.083-0.142-0.154-0.343-0.367c-0.592,0.332-1.396,0.686-1.691,0.686c-0.461,0-0.591-0.449-0.591-0.674
					c0-0.319,0.212-0.437,0.449-0.532c0.556-0.225,0.615-0.248,0.852-0.355c-0.106-0.083-0.556-0.414-0.651-0.485
					c-0.083-0.071-0.165-0.166-0.165-0.332c0-0.284,0.272-0.579,0.639-0.579c0.154,0,0.296,0,1.254,0.745
					c0.189-0.13,0.366-0.284,0.71-0.591c0.094-0.083,0.201-0.189,0.413-0.213c-0.142,0.012-0.237-0.012-0.355-0.083
					c-0.13-0.083-0.65-0.532-0.757-0.627c-0.662,0.426-1.525,0.828-1.809,0.828c-0.391,0-0.545-0.414-0.545-0.65
					c0-0.308,0.225-0.402,0.391-0.473c0.686-0.284,0.757-0.308,0.946-0.414c-0.733-0.449-0.887-0.556-0.887-0.781
					c0-0.319,0.272-0.568,0.603-0.568c0.178,0,0.296,0.047,0.533,0.178c0.213,0.13,0.556,0.332,0.84,0.52
					c0.106-0.083,0.45-0.366,0.674-0.567c0.142-0.118,0.224-0.166,0.378-0.166c0.332,0,0.579,0.284,0.579,0.544
					c0,0.272-0.201,0.437-0.686,0.828c0.614,0.461,0.698,0.556,0.698,0.792c0,0.26-0.213,0.579-0.592,0.639
					C205.363,16.312,205.659,16.631,205.659,16.939z M211.974,15.614c0,0.319-0.308,0.65-0.627,0.65
					c-0.165,0-0.26-0.071-0.402-0.189c-0.355-0.331-0.414-0.355-0.568-0.473c-0.639,0.402-1.549,0.851-1.857,0.851
					c-0.438,0-0.567-0.461-0.567-0.65c0-0.331,0.271-0.449,0.461-0.52c0.52-0.213,0.579-0.225,0.922-0.402
					c-0.13-0.071-0.698-0.378-0.804-0.449c-0.059-0.047-0.224-0.154-0.224-0.367c0-0.224,0.224-0.532,0.614-0.532
					c0.319,0,1.101,0.485,1.443,0.71c0.154-0.107,0.201-0.154,0.651-0.532c0.142-0.13,0.271-0.154,0.378-0.154
					c0.344,0,0.604,0.308,0.604,0.556s-0.201,0.414-0.639,0.78C211.856,15.259,211.974,15.389,211.974,15.614z M211.158,16.465
					c0.142-0.142,0.271-0.201,0.425-0.201c0.343,0,0.626,0.284,0.626,0.579c0,0.272-0.212,0.473-0.768,0.97
					c0.615,0.509,0.768,0.639,0.768,0.946c0,0.39-0.413,0.627-0.662,0.627c-0.165,0-0.26-0.059-0.438-0.213
					c-0.355-0.319-0.366-0.331-0.686-0.591c-0.308,0.201-1.041,0.615-1.336,0.615c-0.367,0-0.604-0.391-0.604-0.686
					c0-0.284,0.19-0.39,0.296-0.449c0.095-0.047,0.52-0.237,0.604-0.272c-0.095-0.071-0.154-0.118-0.604-0.39
					c-0.13-0.083-0.307-0.224-0.307-0.473c0-0.284,0.296-0.592,0.639-0.592c0.284,0,1.029,0.497,1.383,0.745
					C210.696,16.915,210.744,16.879,211.158,16.465z"/>
			</g>
			<g>
				
					<linearGradient id="SVGID_00000183240692640891377580000004153647518285931187_" gradientUnits="userSpaceOnUse" x1="214.6557" y1="16.684" x2="225.8336" y2="16.684">
					<stop  offset="0" style="stop-color:#8AC23E"/>
					<stop  offset="1" style="stop-color:#28AC4B"/>
				</linearGradient>
				<path style="fill:url(#SVGID_00000183240692640891377580000004153647518285931187_);" d="M216.158,15.283
					c-0.201-0.261-0.378-0.473-0.863-0.958c-0.473-0.473-0.533-0.544-0.533-0.84c0-0.296,0.248-0.662,0.603-0.662
					c0.131,0,0.201,0.035,0.272,0.083c0.201-0.343,0.438-0.721,0.639-1.183c0.189-0.414,0.271-0.627,0.603-0.627
					c0.296,0,0.769,0.225,0.769,0.568c0,0.378-0.71,1.502-1.101,2.082c0.19,0.201,0.213,0.225,0.367,0.402
					c0.355-0.556,0.378-0.603,0.911-1.573c0.106-0.178,0.26-0.343,0.472-0.343c0.332,0,0.757,0.272,0.757,0.615
					c0,0.213-0.39,0.804-0.567,1.088c-0.651,0.994-1.029,1.455-1.55,2.117c0.224-0.012,0.319-0.012,1.088-0.071
					c-0.177-0.521-0.19-0.58-0.19-0.686c0-0.284,0.26-0.402,0.461-0.402c0.308,0,0.391,0.237,0.497,0.497
					c0.154,0.39,0.426,1.278,0.473,1.443c0.224-0.319,0.473-0.319,0.52-0.319c0.154,0,0.284,0.036,0.875,0.603
					c0.165,0.165,0.592,0.579,0.592,0.911c0,0.248-0.237,0.603-0.639,0.603c-0.178,0-0.213-0.036-0.579-0.414
					c-0.107-0.107-0.651-0.639-0.757-0.78c-0.107,0.165-0.308,0.236-0.497,0.236c-0.332,0-0.391-0.248-0.473-0.556
					c-0.106,0.012-0.165,0.023-0.687,0.083v4.447c0,0.165,0,0.626-0.567,0.626c-0.568,0-0.568-0.473-0.568-0.626v-4.329
					c-0.709,0.071-0.922,0.094-1.206,0.094c-0.332,0-0.627-0.165-0.627-0.686c0-0.592,0.367-0.592,0.9-0.615L216.158,15.283z
					 M216.135,18.417c0,0.225-0.095,1.845-0.319,2.649c-0.048,0.178-0.143,0.414-0.473,0.414c-0.059,0-0.627,0-0.627-0.52
					c0-0.154,0.154-0.84,0.178-0.97c0.107-0.615,0.142-1.041,0.19-1.656c0.023-0.272,0.083-0.52,0.497-0.52
					C216.135,17.814,216.135,18.216,216.135,18.417z M220.215,19.139c0.414-0.284,0.521-0.308,0.627-0.308
					c0.319,0,0.556,0.331,0.556,0.674c0,0.307-0.131,0.414-0.84,0.946c-0.319,0.236-1.148,0.816-1.443,0.816
					c-0.331,0-0.603-0.367-0.603-0.733c0-0.095,0.012-0.154,0.036-0.213c-0.414-0.035-0.426-0.177-0.509-0.934
					c-0.011-0.166-0.13-1.005-0.13-1.029c0-0.366,0.402-0.425,0.544-0.425c0.414,0,0.45,0.189,0.568,0.84
					c0.011,0.059,0.142,0.733,0.142,1.041C219.553,19.6,220.062,19.245,220.215,19.139z M222.971,20.865
					c0,1.124-0.237,1.325-1.396,1.325c-0.757,0-0.816,0-0.888-0.012c-0.343-0.059-0.52-0.378-0.52-0.698
					c0-0.308,0.106-0.686,0.615-0.686c0.095,0,0.473,0.023,0.544,0.012c0.177-0.023,0.26-0.094,0.26-0.367v-4.21h-1.963
					c-0.166,0-0.603,0-0.603-0.58c0-0.449,0.165-0.639,0.603-0.639h3.927v-0.639h-3.359c-0.178,0-0.579-0.012-0.579-0.544
					c0-0.485,0.308-0.544,0.579-0.544h3.359v-0.355c0-0.118-0.036-0.284-0.284-0.284h-3.253c-0.165,0-0.591,0-0.591-0.568
					c0-0.438,0.142-0.639,0.591-0.639h3.702c0.816,0,1.243,0.284,1.243,1.277v2.342h0.343c0.343,0,0.533,0.213,0.533,0.579
					c0,0.568-0.391,0.592-0.604,0.592h-2.259v0.627c0.142,0.343,0.39,0.78,0.508,0.981c0.201-0.178,0.545-0.497,0.887-0.911
					c0.272-0.343,0.378-0.438,0.615-0.438c0.378,0,0.662,0.331,0.662,0.627c0,0.224-0.083,0.39-0.284,0.639
					c-0.45,0.532-0.852,0.899-1.135,1.147c0.296,0.355,0.544,0.603,0.793,0.804c0.626,0.52,0.804,0.662,0.804,0.981
					c0,0.355-0.332,0.769-0.733,0.769c-0.473,0-1.478-1.111-2.117-2.271V20.865z"/>
			</g>
			<g>
				
					<linearGradient id="SVGID_00000098942297717511669360000008265390601833605280_" gradientUnits="userSpaceOnUse" x1="227.9975" y1="16.5718" x2="239.2336" y2="16.5718">
					<stop  offset="0" style="stop-color:#8AC23E"/>
					<stop  offset="1" style="stop-color:#28AC4B"/>
				</linearGradient>
				<path style="fill:url(#SVGID_00000098942297717511669360000008265390601833605280_);" d="M231.167,15.555
					c-0.438,0-0.674-0.154-0.71-0.591c-0.461,0.272-1.324,0.769-1.738,0.769c-0.378,0-0.721-0.39-0.721-0.887
					c0-0.449,0.284-0.592,0.639-0.722c1.786-0.674,2.827-1.667,3.702-2.508c0.472-0.461,0.662-0.639,1.277-0.639
					c0.615,0,0.768,0.166,1.455,0.828c0.651,0.65,1.62,1.573,3.572,2.365c0.355,0.142,0.592,0.272,0.592,0.698
					c0,0.473-0.343,0.875-0.757,0.875c-0.378,0-1.23-0.485-1.668-0.757c-0.059,0.509-0.402,0.568-0.721,0.568H231.167z
					 M232.799,18.038c-0.284,0.686-0.544,1.242-1.171,2.354c1.679-0.059,1.964-0.083,4.436-0.225
					c-0.178-0.225-0.237-0.284-0.698-0.792c-0.26-0.284-0.308-0.426-0.308-0.58c0-0.355,0.438-0.674,0.816-0.674
					c0.201,0,0.378,0.083,0.604,0.307c0.472,0.462,1.017,1.053,1.573,1.762c0.567,0.71,0.698,0.934,0.698,1.195
					c0,0.414-0.509,0.781-0.923,0.781c-0.271,0-0.402-0.154-0.473-0.26c-0.047-0.071-0.295-0.45-0.354-0.533
					c-1.23,0.142-2.508,0.237-3.761,0.319c-0.592,0.047-3.643,0.225-4.116,0.225c-0.189,0-0.733,0-0.733-0.757
					c0-0.107,0-0.639,0.533-0.686c0.106-0.012,0.934-0.036,1.112-0.036c0.425-0.78,0.852-1.561,1.135-2.401h-2.188
					c-0.497,0-0.721-0.224-0.721-0.745c0-0.662,0.556-0.662,0.721-0.662h9.249c0.486,0,0.722,0.201,0.722,0.733
					c0,0.674-0.556,0.674-0.722,0.674H232.799z M235.697,14.242c-0.366-0.272-1.064-0.804-1.738-1.561
					c-0.178-0.189-0.224-0.236-0.332-0.236c-0.106,0-0.153,0.047-0.331,0.236c-0.533,0.58-1.112,1.1-1.738,1.561H235.697z"/>
			</g>
		</g>
	</g>
</g>
<path class="st13" d="M10.354,7.267c0.328,8.771,7.344,15.834,16.097,16.244C26.124,14.734,19.114,7.671,10.354,7.267"/>
<path class="st14" d="M51.73,0.304c-13.049,0.954-27.952,12.013-23.008,40.24c0-9.07,1.358-14.582,2.434-17.279
	C42.514,21.592,51.291,12.019,51.73,0.304"/>
<path class="st5" d="M16.141,50.755c0.304,0,0.421,0.012,0.556,0.082c0.181,0.094,0.304,0.304,0.304,0.55
	c0,0.252-0.123,0.462-0.304,0.55c-0.135,0.07-0.257,0.082-0.556,0.082h-2.066v2.036c0,0.334-0.012,0.451-0.099,0.626
	c-0.105,0.199-0.339,0.339-0.62,0.339s-0.515-0.14-0.62-0.339c-0.088-0.176-0.099-0.293-0.099-0.626v-5.494
	c0-0.211,0-0.468,0.199-0.673c0.199-0.199,0.462-0.199,0.673-0.199h3.125c0.304,0,0.421,0.012,0.556,0.082
	c0.181,0.094,0.304,0.304,0.304,0.55c0,0.252-0.123,0.462-0.304,0.55c-0.14,0.07-0.257,0.082-0.556,0.082H14.07v1.791h2.071V50.755z
	"/>
<path class="st5" d="M20.524,55.038c-0.532,0-0.96-0.176-1.258-0.468c-0.427-0.433-0.544-0.93-0.544-1.516v-2.54
	c0-0.322,0.018-0.451,0.088-0.597c0.099-0.193,0.304-0.316,0.579-0.316c0.269,0,0.48,0.123,0.579,0.316
	c0.07,0.146,0.088,0.269,0.088,0.597v2.352c0,0.72,0.462,0.96,0.878,0.96c0.421,0,0.889-0.24,0.889-0.96v-2.352
	c0-0.322,0.018-0.451,0.088-0.597c0.099-0.193,0.31-0.316,0.579-0.316c0.269,0,0.48,0.123,0.579,0.316
	c0.07,0.146,0.088,0.269,0.088,0.597v3.599c0,0.339-0.018,0.445-0.099,0.597c-0.099,0.187-0.322,0.304-0.573,0.304
	c-0.181,0-0.322-0.059-0.427-0.152c-0.105-0.099-0.158-0.211-0.199-0.386C21.525,54.851,21.016,55.038,20.524,55.038"/>
<path class="st5" d="M25.422,50.825h-0.135c-0.252,0-0.345-0.018-0.451-0.07c-0.158-0.082-0.246-0.24-0.246-0.439
	c0-0.199,0.088-0.357,0.246-0.439c0.105-0.059,0.199-0.07,0.451-0.07h0.135v-0.708c0-0.322,0.018-0.451,0.088-0.597
	c0.099-0.193,0.31-0.316,0.579-0.316c0.269,0,0.48,0.123,0.579,0.316c0.07,0.146,0.088,0.269,0.088,0.597v0.708h0.398
	c0.252,0,0.345,0.018,0.451,0.07c0.158,0.082,0.246,0.24,0.246,0.439c0,0.199-0.088,0.357-0.246,0.439
	c-0.105,0.059-0.199,0.07-0.451,0.07h-0.398v2.557c0,0.252,0.094,0.451,0.427,0.474c0.17,0.012,0.287,0.023,0.398,0.082
	c0.164,0.082,0.263,0.234,0.263,0.474c0,0.234-0.105,0.392-0.263,0.474c-0.117,0.059-0.293,0.094-0.55,0.094h-0.07
	c-1.106,0-1.539-0.749-1.539-1.527L25.422,50.825z"/>
<path class="st5" d="M30.261,50.966c-0.176,0.105-0.322,0.14-0.439,0.14c-0.135,0-0.281-0.059-0.38-0.181
	c-0.105-0.129-0.146-0.246-0.146-0.398c0-0.298,0.252-0.509,0.497-0.632c0.386-0.205,0.807-0.31,1.346-0.31
	c1.486,0,2.247,0.632,2.247,1.884v2.645c0,0.345-0.018,0.445-0.099,0.597c-0.099,0.181-0.322,0.31-0.573,0.31
	c-0.181,0-0.322-0.059-0.427-0.152c-0.099-0.094-0.152-0.193-0.193-0.351c-0.386,0.38-0.714,0.527-1.322,0.527
	c-0.603,0-1.053-0.17-1.363-0.48c-0.281-0.281-0.439-0.726-0.439-1.2c0-0.848,0.585-1.545,1.843-1.545h1.241v-0.263
	c0-0.585-0.304-0.837-0.936-0.837C30.799,50.714,30.553,50.79,30.261,50.966 M32.051,52.727h-1.012c-0.532,0-0.79,0.217-0.79,0.614
	c0,0.369,0.257,0.603,0.807,0.603c0.328,0,0.562-0.041,0.79-0.257c0.158-0.146,0.205-0.334,0.205-0.673V52.727z"/>
<path class="st5" d="M35.328,48.561c0-0.322,0.018-0.451,0.088-0.591c0.099-0.193,0.304-0.316,0.579-0.316
	c0.269,0,0.48,0.123,0.579,0.316c0.07,0.146,0.088,0.269,0.088,0.591v1.556c0.339-0.392,0.749-0.532,1.287-0.532
	c0.532,0,0.995,0.176,1.287,0.48c0.509,0.521,0.55,1.352,0.55,2.241c0,0.901-0.041,1.732-0.55,2.253
	c-0.298,0.304-0.772,0.48-1.293,0.48c-0.568,0-0.96-0.146-1.322-0.55c-0.041,0.176-0.094,0.287-0.193,0.38
	c-0.105,0.099-0.246,0.152-0.427,0.152c-0.252,0-0.474-0.123-0.573-0.31c-0.082-0.152-0.099-0.257-0.099-0.597V48.561z
	 M37.558,50.79c-0.796,0-0.901,0.661-0.901,1.516c0,0.854,0.099,1.527,0.913,1.527c0.79,0,0.889-0.673,0.889-1.527
	C38.459,51.452,38.359,50.79,37.558,50.79"/>
<path class="st5" d="M42.467,50.966c-0.176,0.105-0.322,0.14-0.439,0.14c-0.135,0-0.281-0.059-0.38-0.181
	c-0.105-0.129-0.146-0.246-0.146-0.398c0-0.298,0.252-0.509,0.497-0.632c0.386-0.205,0.807-0.31,1.346-0.31
	c1.486,0,2.247,0.632,2.247,1.884v2.645c0,0.345-0.018,0.445-0.099,0.597c-0.099,0.181-0.322,0.31-0.573,0.31
	c-0.181,0-0.322-0.059-0.427-0.152c-0.105-0.094-0.152-0.193-0.193-0.351c-0.392,0.38-0.714,0.527-1.322,0.527
	c-0.603,0-1.053-0.17-1.363-0.48c-0.281-0.281-0.439-0.726-0.439-1.2c0-0.848,0.585-1.545,1.843-1.545h1.241v-0.263
	c0-0.585-0.304-0.837-0.936-0.837C43.005,50.714,42.76,50.79,42.467,50.966 M44.258,52.727h-1.012c-0.532,0-0.79,0.217-0.79,0.614
	c0,0.369,0.257,0.603,0.807,0.603c0.328,0,0.562-0.041,0.79-0.257c0.158-0.146,0.205-0.334,0.205-0.673L44.258,52.727z"/>
<g>
	<g>
		<defs>
			<path id="SVGID_00000017477875213509921230000015476841061526063772_" d="M48.137,21.855c-1.012-2.885-2.528-0.913-2.446,0.983
				c-0.971-1.539-1.755-0.047-1.755,1.837c-1.703-1.954-1.241,2.92-1.241,4.272c3.3-3.458,6.132-2.891,6.794-1.469
				c1.153,2.469-3.289,7.314-5.225,9.099c-1.258,1.159-3.019,1.258-0.527-1.112c0.374-0.357,1.287-1.235,2.551-2.756
				c4.944-5.933,0.369-6.191-2.218-3.675c-2.188,2.124-3.324,3.891-8.338,6.185c-2.165,0.989-3.4,2.563-3.265,5.489
				c0.088,1.96,2.891,6.618,8.719,2.867c5.588-3.599,8.063-5.863,10.293-9.848c2.265-4.043-0.088-9.731-0.468-10.895
				c-0.603-1.837-1.293-2.545-1.855-2.545C48.629,20.281,48.219,20.93,48.137,21.855"/>
		</defs>
		<clipPath id="SVGID_00000023998354410838904420000007839993626771176079_">
			<use xlink:href="#SVGID_00000017477875213509921230000015476841061526063772_"  style="overflow:visible;"/>
		</clipPath>
		
			<linearGradient id="SVGID_00000031189729718817720700000009451160190061559990_" gradientUnits="userSpaceOnUse" x1="-123.3905" y1="-414.9483" x2="-122.8016" y2="-414.9483" gradientTransform="matrix(40.7752 -7.1898 -7.1898 -40.7752 2076.5808 -17771.0664)">
			<stop  offset="0" style="stop-color:#FEF2E0"/>
			<stop  offset="0.1296" style="stop-color:#FDEFD8"/>
			<stop  offset="0.341" style="stop-color:#FBE6C2"/>
			<stop  offset="0.6078" style="stop-color:#F7D79D"/>
			<stop  offset="0.9169" style="stop-color:#F2C368"/>
			<stop  offset="1" style="stop-color:#F0BD58"/>
		</linearGradient>
		
			<polygon style="clip-path:url(#SVGID_00000023998354410838904420000007839993626771176079_);fill:url(#SVGID_00000031189729718817720700000009451160190061559990_);" points="
			33.058,50.978 58.675,46.46 53.181,15.307 27.563,19.825 		"/>
	</g>
</g>
<g>
	<g>
		<defs>
			<path id="SVGID_00000067927038326014059170000011502084020114241978_" d="M9.313,21.855c1.012-2.885,2.528-0.913,2.446,0.983
				c0.971-1.539,1.755-0.047,1.755,1.837c1.703-1.954,1.241,2.92,1.241,4.272c-3.294-3.464-6.132-2.896-6.794-1.475
				c-1.153,2.469,3.289,7.314,5.225,9.099c1.258,1.159,3.019,1.258,0.527-1.112c-0.374-0.357-1.287-1.235-2.551-2.756
				c-4.944-5.933-0.369-6.191,2.218-3.675c2.188,2.124,3.324,3.891,8.338,6.185c2.165,0.989,3.4,2.563,3.265,5.489
				c-0.088,1.96-2.891,6.618-8.719,2.867c-5.588-3.599-8.063-5.863-10.293-9.848c-2.265-4.043,0.088-9.731,0.468-10.895
				c0.603-1.837,1.293-2.545,1.855-2.545C8.821,20.281,9.231,20.93,9.313,21.855"/>
		</defs>
		<clipPath id="SVGID_00000076602027134442405640000006379116606878581382_">
			<use xlink:href="#SVGID_00000067927038326014059170000011502084020114241978_"  style="overflow:visible;"/>
		</clipPath>
		
			<linearGradient id="SVGID_00000178902487904656392630000004710269632327756717_" gradientUnits="userSpaceOnUse" x1="-121.4942" y1="-408.0884" x2="-120.8856" y2="-408.0884" gradientTransform="matrix(36.5262 6.4406 -6.4406 36.5262 1813.7627 15719.8027)">
			<stop  offset="0" style="stop-color:#E798A2"/>
			<stop  offset="0.2301" style="stop-color:#EDB2B8"/>
			<stop  offset="0.567" style="stop-color:#F5D3D5"/>
			<stop  offset="0.8354" style="stop-color:#FAE6E6"/>
			<stop  offset="1" style="stop-color:#FBEDED"/>
		</linearGradient>
		
			<polygon style="clip-path:url(#SVGID_00000076602027134442405640000006379116606878581382_);fill:url(#SVGID_00000178902487904656392630000004710269632327756717_);" points="
			4.134,15.307 29.881,19.942 24.526,50.978 -1.226,46.343 		"/>
	</g>
</g>
</svg>
