<?xml version="1.0" encoding="utf-8"?>
<!-- Generator: Adobe Illustrator 26.3.1, SVG Export Plug-In . SVG Version: 6.00 Build 0)  -->
<svg version="1.1" id="レイヤー_1" xmlns="http://www.w3.org/2000/svg" xmlns:xlink="http://www.w3.org/1999/xlink" x="0px"
	 y="0px" width="357px" height="57px" viewBox="0 0 357 57" style="enable-background:new 0 0 357 57;" xml:space="preserve">
<style type="text/css">
	.st0{fill:url(#SVGID_00000125598025323744375060000008430968770070862745_);}
	.st1{fill:#F09BA7;}
	.st2{fill:#F9C258;}
	.st3{fill:#A8977F;}
	.st4{fill:url(#SVGID_00000067952897561285513370000008571774435912476819_);}
	.st5{fill:url(#SVGID_00000139998259998220018170000002722307864878263682_);}
	.st6{fill:url(#SVGID_00000141455103836086993850000016969550259355846061_);}
	.st7{fill:url(#SVGID_00000034788319133927152410000014146225094435799997_);}
	.st8{fill:url(#SVGID_00000121969484582887650740000014776992118026759850_);}
	.st9{fill:#8AC23E;}
	.st10{fill:#28AC4B;}
	
		.st11{clip-path:url(#SVGID_00000132086830634973371160000011386746776766533797_);fill:url(#SVGID_00000029020346933383968900000005417871514495338930_);}
	
		.st12{clip-path:url(#SVGID_00000001643271293512856760000005486171914610564025_);fill:url(#SVGID_00000010292578806776566990000012020214729043788699_);}
	.st13{fill:url(#SVGID_00000166646444409581208290000010125554719773320353_);}
	.st14{fill:#FFFFFF;}
	.st15{fill:none;stroke:#FFFFFF;stroke-width:0.1417;stroke-miterlimit:10;}
	.st16{display:none;}
	.st17{display:inline;}
	.st18{font-family:'YuMinStdN-ExtraBold';}
	.st19{font-size:18.5118px;}
	.st20{letter-spacing:6;}
</style>
<g>
	
		<linearGradient id="SVGID_00000131352893876996886130000007195532510660719548_" gradientUnits="userSpaceOnUse" x1="69.993" y1="38.7567" x2="146.3073" y2="38.7567">
		<stop  offset="0" style="stop-color:#8AC23E"/>
		<stop  offset="1" style="stop-color:#28AC4B"/>
	</linearGradient>
	<path style="fill:url(#SVGID_00000131352893876996886130000007195532510660719548_);" d="M76.514,38.989
		c0,1.099-1.392,5.642-2.051,7.375c-0.538,1.465-1.075,2.589-2.272,2.589c-0.927,0-2.197-0.733-2.197-1.832
		c0-0.561,0.147-0.854,0.634-1.758c0.83-1.538,1.563-4.054,1.831-5.275c0.367-1.636,0.587-2.686,1.954-2.686
		c0.196,0,0.415,0.025,0.635,0.073C75.635,37.597,76.514,37.963,76.514,38.989 M90.752,39.696c-0.806-1.684-2.222-3.1-4.055-3.1
		c-1.269,0-1.635,0.879-1.758,1.392c-0.025,0.145-0.049,0.292-0.049,0.487c0,0.538,0.22,0.831,0.365,0.977
		c0.148,0.147,0.978,0.66,1.148,0.806c1.245,1.05,1.515,4.372,1.661,6.399c0.049,0.61,0.171,1.93,1.978,1.93
		c0.562,0,1.27-0.195,1.661-0.635c0.268-0.293,0.415-0.733,0.415-1.49C92.119,46.218,91.777,41.798,90.752,39.696 M85.884,33.606
		c1.06-0.138,2.011-0.347,2.011-1.944c0-1.627-1.318-1.749-2.638-1.831c-2.879-0.18-5.568-0.586-6.863-0.831
		c-0.464-0.073-2.71-0.61-3.223-0.61c-1.222,0-1.515,1.049-1.588,1.636c-0.171,1.514,0.83,1.782,1.833,2.026
		c1.017,0.261,2.512,0.532,4.07,0.77c-1.228,0.732-2.073,1.93-1.97,3.651c0.139,2.304,1.538,4.103,2.199,4.86
		c1.318,1.538,1.831,2.125,1.831,3.248c0,0.269-0.049,1.66-1.734,1.66c-0.586,0-1.05-0.122-1.392-0.22
		c-0.904-0.293-1.001-0.342-1.368-0.342c-1.734,0-1.734,1.856-1.734,1.954c0,0.684,0.268,1.196,1.026,1.612
		c1.441,0.781,3.2,0.928,4.053,0.928c4.056,0,5.251-3.101,5.251-5.031c0-1.88-0.787-3.507-2.638-5.519
		C79.933,36.28,80.555,34.301,85.884,33.606 M102.338,28.853c0.367-0.489,0.929-0.61,1.466-0.61c0.952,0,2.076,0.293,2.076,1.636
		c0,0.342-0.074,0.733-0.196,1.466c1.954-0.049,4.323-0.098,5.861-0.171c0.294,0,1.612-0.099,1.881-0.099
		c0.489,0,1.929,0.024,1.929,1.832c0,1.66-1.221,1.759-1.977,1.807c-2.516,0.122-5.619,0.22-8.402,0.293
		c-0.635,3.102-3.614,13.555-4.615,14.605c-0.171,0.195-0.563,0.489-1.222,0.489c-0.684,0-2.247-0.366-2.247-1.758
		c0-0.537,0.391-1.416,0.634-1.93c0.978-2.198,2.175-5.861,2.834-8.376c0.268-1.05,0.562-2.345,0.707-2.956
		c-1.392,0.049-2.809,0.049-3.272-0.22c-0.636-0.366-0.734-1.099-0.734-1.563c0-1.514,0.783-1.857,2.003-1.857h2.638
		C102.046,29.416,102.069,29.196,102.338,28.853 M113.181,49.905c-5.788,0-8.328-0.928-8.328-4.127c0-0.317,0.025-2.98,2.418-2.98
		c0.879,0,1.831,0.367,1.831,1.247c0,0.244-0.074,0.439-0.122,0.561c-0.146,0.39-0.171,0.488-0.171,0.708
		c0,0.44,0.27,0.733,1.148,0.88c0.66,0.121,1.489,0.146,2.051,0.146c0.685,0,1.979-0.049,3.59-0.244
		c0.293-0.024,0.831-0.098,1.099-0.098c1.098,0,1.709,0.611,1.709,1.759C118.407,49.491,117.553,49.905,113.181,49.905
		 M117.114,40.161c-0.319,0.268-0.661,0.317-1.222,0.317c-0.415,0-2.246-0.098-2.613-0.098c-1.538,0-2.197,0.049-4.518,0.22
		c-0.147,0.024-0.537,0.048-0.88,0.048c-1.611,0-1.611-1.587-1.611-1.831c0-0.757,0.317-1.466,1.465-1.734
		c1.538-0.342,4.396-0.415,6.032-0.415c3.687,0,3.957,0.611,3.957,2.124C117.725,39.16,117.553,39.819,117.114,40.161
		 M128.577,30.27c0,0.294-0.488,3.346-0.562,3.981c-0.196,1.954-0.293,3.957-0.293,5.935c0,2.149,0.122,4.396,0.415,6.545
		c0.073,0.537,0.146,1.246,0.146,1.538c0,1.172-0.708,1.685-1.857,1.685c-0.462,0-1.514-0.024-1.855-1.221
		c-0.368-1.245-0.612-5.251-0.612-8.719c0-5.299,0.684-9.5,0.855-10.086c0.171-0.659,0.587-1.514,2.248-1.294
		C128.259,28.804,128.577,29.391,128.577,30.27 M136.66,30.612c-0.025-0.684,0.025-2.051,1.954-2.051
		c1.954,0,2.003,1.294,2.003,2.051l0.025,2.1c0.39-0.024,2.368-0.098,2.49-0.098c0.488,0,1.88,0,1.88,1.856
		c0,1.222-0.682,1.588-1.001,1.685c-0.391,0.098-0.561,0.122-3.321,0.245l0.049,4.884c1.954,1.049,3.077,1.928,3.761,2.588
		c0.489,0.489,0.805,1.05,0.805,1.685c0,1.075-0.879,2.15-1.954,2.15c-0.684,0-0.928-0.27-1.758-1.198
		c-0.099-0.098-0.952-0.831-1.075-0.928c-0.074,1.343-0.22,4.395-5.154,4.395c-4.347,0-5.935-2.516-5.935-4.981
		c0-2.931,2.247-4.934,5.764-4.934c0.781,0,1.319,0.098,1.71,0.147l-0.098-3.664c-1.685,0.074-3.76,0.074-5.471,0.074
		c-0.611,0-1.977,0-1.977-1.857c0-1.44,0.879-1.684,1.416-1.758c0.293-0.024,4.86-0.122,5.935-0.122L136.66,30.612z M135.172,43.239
		c-0.588,0-2.418,0.121-2.418,1.831c0,1.686,1.83,1.734,2.198,1.734c0.537,0,1.563-0.122,1.88-0.952
		c0.122-0.343,0.146-0.538,0.122-2.223C136.465,43.409,136.025,43.239,135.172,43.239 M141.032,28.927
		c-0.073-0.171-0.073-0.342-0.073-0.415c0-0.635,0.659-0.781,0.953-0.781c0.413,0,0.707,0.318,0.879,0.805
		c0.415,1.075,0.732,1.954,0.732,2.492c0,0.805-0.781,0.855-0.927,0.855c-0.342,0-0.587-0.122-0.758-0.611
		c-0.049-0.171-0.342-1.05-0.391-1.221C141.375,29.879,141.105,29.146,141.032,28.927 M143.817,28.536
		c-0.074-0.171-0.074-0.365-0.074-0.415c0-0.635,0.708-0.781,0.977-0.781c0.512,0,0.708,0.415,0.976,1.051
		c0.269,0.659,0.611,1.734,0.611,2.246c0,0.806-0.831,0.83-0.953,0.83c-0.244,0-0.562-0.073-0.757-0.611
		c-0.048-0.171-0.319-1.025-0.367-1.196C144.182,29.488,143.865,28.707,143.817,28.536"/>
	<g>
		<g>
			<path class="st1" d="M167.063,35.125h-7.705c0.343-0.935,0.343-1.062,0.343-1.188c0-0.738-0.866-0.882-1.314-0.882
				c-0.937,0-1.117,0.433-1.567,2.07h-4.464c-0.738,0-1.135,0.395-1.135,1.116c0,0.684,0.378,1.099,1.135,1.099h3.6
				c-0.505,1.098-1.548,2.952-3.168,4.302c-1.602,1.35-1.674,1.404-1.674,1.926c0,0.757,0.54,1.35,1.224,1.35
				c0.361,0,0.558-0.09,1.459-0.881v5.075c0,0.667,0.268,1.063,1.187,1.063c1.079,0,1.079-0.809,1.079-1.063v-7.614
				c1.314-1.728,2.16-3.546,2.414-4.158h8.586c0.737,0,1.133-0.396,1.133-1.116C168.196,35.468,167.728,35.125,167.063,35.125z"/>
			<path class="st1" d="M167.044,47.312h-3.491v-4.446h2.988c0.702,0,1.116-0.361,1.116-1.099c0-0.738-0.432-1.08-1.116-1.08h-2.988
				v-1.854c0-0.792-0.432-1.08-1.242-1.08c-0.865,0-1.062,0.557-1.062,1.08v1.854h-3.005c-0.721,0-1.134,0.377-1.134,1.098
				c0,0.755,0.467,1.08,1.134,1.08h3.005v4.446h-3.565c-0.737,0-1.132,0.377-1.132,1.116c0,0.738,0.43,1.097,1.132,1.097h9.361
				c0.739,0,1.134-0.414,1.134-1.115C168.179,47.582,167.638,47.312,167.044,47.312z"/>
			<path class="st1" d="M187.109,43.604c0.503-0.054,0.864-0.234,0.864-0.991c0-1.151-0.774-1.061-1.063-1.043l-7.398,0.684v-1.98
				c1.909-0.216,2.88-0.414,4.482-0.792c0.505-0.108,0.936-0.288,0.936-0.919c0-0.378-0.197-1.169-0.971-1.169
				c-0.217,0-0.56,0.072-0.704,0.108c-3.598,0.865-6.228,1.026-8.983,1.206c-0.125,0-0.449,0.036-0.664,0.162
				c0.054-0.144,0.089-0.252,0.089-0.612v-1.043c0-0.414,0.218-0.612,0.613-0.612h10.404c0.415,0,0.612,0.215,0.612,0.612v1.025
				c0,0.702,0.216,1.099,1.171,1.099c1.007,0,1.08-0.612,1.08-1.099v-1.494c0-1.602-0.684-2.088-2.07-2.088H180.7v-0.665
				c0-0.739-0.54-0.9-1.296-0.9c-0.629,0-1.097,0.234-1.097,0.9v0.665h-4.753c-1.368,0-2.087,0.468-2.087,2.088v1.512
				c0,0.649,0.216,1.098,1.134,1.098c0.413,0,0.592-0.089,0.736-0.161c-0.09,0.18-0.09,0.377-0.09,0.451
				c0,0.287,0.055,1.133,1.009,1.133c0.701,0,1.368-0.053,2.933-0.215v1.907l-5.2,0.486c-0.522,0.055-0.901,0.253-0.901,0.954
				c0,1.206,0.81,1.134,1.098,1.099l5.003-0.469v3.258c0,0.595,0,1.963,1.657,2.053c0.485,0.036,0.918,0.036,5.777,0.036
				c1.692,0,2.7,0,2.7-3.619c0-0.323,0-1.152-1.187-1.152c-1.044,0-1.08,0.739-1.098,1.062c-0.072,1.242-0.091,1.512-0.54,1.62
				c-0.199,0.036-2.701,0.036-3.242,0.036c-1.331,0-1.367,0-1.476-0.053c-0.145-0.072-0.27-0.198-0.27-0.63v-2.825L187.109,43.604z"
				/>
		</g>
		<g>
			<path class="st2" d="M205.192,36.098h-5.455c0.487-0.919,0.577-1.223,0.577-1.549c0-0.647-0.738-0.936-1.279-0.936
				c-0.756,0-0.881,0.306-1.548,1.638c-0.27,0.558-1.674,2.826-3.762,4.374c-0.828,0.612-0.973,0.72-0.973,1.207
				c0,0.593,0.54,1.206,1.172,1.206c1.223,0,3.491-2.52,4.392-3.744h5.31c0.45,0,0.683,0,0.683,0.342
				c0,0.468-0.557,1.962-1.027,2.898c-1.871,3.655-4.95,4.842-7.92,5.58c-1.332,0.325-1.674,0.433-1.674,1.207
				c0,0.27,0.109,1.242,1.189,1.242c0.575,0,4.428-0.738,7.29-2.988c4.123-3.258,4.825-8.207,4.825-8.892
				C206.993,36.746,206.505,36.098,205.192,36.098z"/>
			<path class="st2" d="M214.436,43.045v-7.829c0-0.865-0.468-1.153-1.279-1.153c-1.062,0-1.242,0.594-1.242,1.153v7.829
				c0,0.865,0.468,1.152,1.279,1.152C214.255,44.197,214.436,43.604,214.436,43.045z"/>
			<path class="st2" d="M222.356,33.829c-1.08,0-1.259,0.613-1.259,1.171v6.84c0,1.116-0.11,2.16-1.028,3.239
				c-0.954,1.099-2.322,1.675-5.184,1.944c-1.207,0.126-1.801,0.181-1.801,1.153c0,1.242,1.117,1.242,1.386,1.242
				c0.396,0,1.764-0.036,3.384-0.486c5.473-1.512,5.779-5.095,5.779-7.165V35C223.634,34.135,223.148,33.829,222.356,33.829z"/>
			<path class="st2" d="M230.431,37.61h10.908c0.63,0,1.188-0.252,1.188-1.188c0-1.171-0.919-1.171-1.188-1.171h-10.908
				c-0.56,0-1.207,0.163-1.207,1.188C229.224,37.61,230.16,37.61,230.431,37.61z"/>
			<path class="st2" d="M242.671,45.674h-13.519c-0.719,0-1.206,0.306-1.206,1.188c0,1.17,0.901,1.17,1.206,1.17h13.519
				c0.719,0,1.189-0.306,1.189-1.188C243.859,45.692,242.959,45.674,242.671,45.674z"/>
			<path class="st2" d="M252.564,41.659c0.127,0.559,0.288,1.207,0.919,1.207c0.377,0,1.403-0.036,1.403-1.063
				c0-0.431-0.719-2.898-1.133-3.779c-0.216-0.486-0.397-0.847-1.061-0.847c-0.577,0-1.172,0.342-1.172,0.936
				c0,0.234,0.072,0.414,0.144,0.612C251.989,39.554,252.222,40.256,252.564,41.659z"/>
			<path class="st2" d="M258.954,37.699c-0.125-0.036-0.252-0.054-0.359-0.054c-0.846,0-0.991,0.63-1.099,1.117
				c-0.378,1.8-0.413,1.997-0.664,2.699c-1.459,4.23-4.7,5.31-6.139,5.743c-1.261,0.378-1.62,0.485-1.62,1.152
				c0,0.359,0.234,1.169,1.061,1.169c0.288,0,4.628-0.648,7.31-4.5c1.961-2.843,2.357-6.264,2.357-6.336
				C259.8,38.33,259.675,37.843,258.954,37.699z"/>
			<path class="st2" d="M250.907,42.613c0-0.27-0.053-0.468-0.197-0.881c-1.045-2.862-1.351-3.69-2.196-3.69
				c-0.557,0-1.205,0.342-1.205,0.971c0,0.252,0.09,0.451,0.179,0.649c0.361,0.773,0.667,1.458,1.098,2.862
				c0.199,0.63,0.36,1.153,0.99,1.153C249.971,43.676,250.907,43.514,250.907,42.613z"/>
			<path class="st2" d="M275.417,36.098h-5.454c0.485-0.919,0.575-1.223,0.575-1.549c0-0.647-0.737-0.936-1.277-0.936
				c-0.757,0-0.882,0.306-1.549,1.638c-0.269,0.558-1.673,2.826-3.762,4.374c-0.827,0.612-0.971,0.72-0.971,1.207
				c0,0.593,0.54,1.206,1.17,1.206c1.224,0,3.493-2.52,4.392-3.744h5.31c0.45,0,0.685,0,0.685,0.342
				c0,0.468-0.558,1.962-1.026,2.898c-1.871,3.655-4.951,4.842-7.919,5.58c-1.334,0.325-1.674,0.433-1.674,1.207
				c0,0.27,0.107,1.242,1.187,1.242c0.577,0,4.429-0.738,7.291-2.988c4.123-3.258,4.824-8.207,4.824-8.892
				C277.216,36.746,276.731,36.098,275.417,36.098z"/>
		</g>
	</g>
</g>
<g>
	<g>
		<path class="st3" d="M106.943,11.968c0.16,0,0.75,0,0.75,0.689c0,0.701-0.591,0.701-0.75,0.701h-8.071
			c-0.32,0-0.504,0.148-0.504,0.504v7.074c0,0.345,0.172,0.492,0.504,0.492h8.317c0.16,0,0.763,0.012,0.763,0.701
			c0,0.701-0.591,0.701-0.763,0.701h-8.662c-1.095,0-1.649-0.381-1.649-1.649v-7.567c0-1.28,0.554-1.649,1.649-1.649H106.943z
			 M106.71,16.914c0.172,0,0.664,0,0.664,0.64c0,0.64-0.492,0.64-0.664,0.64h-2.596c0.726,0.775,1.181,1.169,2.682,1.636
			c0.246,0.074,0.517,0.172,0.517,0.615c0,0.271-0.148,0.787-0.689,0.787c-0.431,0-2.584-0.689-3.617-2.473
			c-1.181,2.018-3.039,2.448-3.371,2.448c-0.541,0-0.701-0.517-0.701-0.787c0-0.431,0.32-0.529,0.529-0.591
			c0.763-0.234,1.747-0.554,2.375-1.636h-2.473c-0.185,0-0.652,0-0.652-0.627c0-0.615,0.394-0.652,0.652-0.652h2.879
			c0-0.012,0.037-0.308,0.037-0.431v-0.75h-1.329c-0.677,0.984-0.947,1.07-1.206,1.07c-0.369,0-0.775-0.32-0.775-0.738
			c0-0.258,0.062-0.308,0.591-0.874c0.357-0.369,0.603-0.8,0.91-1.341c0.148-0.271,0.332-0.48,0.652-0.48
			c0.283,0,0.738,0.172,0.738,0.64c0,0.172-0.049,0.295-0.135,0.455h4.479c0.16,0,0.664,0,0.664,0.627c0,0.64-0.492,0.64-0.664,0.64
			h-2.522v0.75c0,0.172-0.025,0.345-0.037,0.431H106.71z"/>
		<path class="st3" d="M120.521,19.202c0,0.258,0,0.615-0.271,0.898c-0.308,0.32-0.689,0.32-0.947,0.32h-1.267v1.28
			c0,1.28-0.332,1.39-1.636,1.39c-0.787,0-1.23,0-1.23-0.677c0-0.394,0.209-0.615,0.603-0.615c0.049,0,0.468,0.012,0.504,0.012
			c0.234,0,0.283-0.086,0.283-0.332v-1.058h-1.304c-1.144,0-1.206-0.75-1.206-1.206V18.39c-0.086,0.049-0.221,0.111-0.369,0.111
			c-0.332,0-0.578-0.32-0.615-0.652c-0.049,1.181-0.258,2.854-0.923,4.183c-0.455,0.91-0.677,1.009-0.997,1.009
			c-0.406,0-0.8-0.32-0.8-0.677c0-0.222,0.099-0.418,0.209-0.64c0.64-1.255,0.837-1.636,1.021-2.793
			c-0.234,0.172-0.701,0.492-1.009,0.492c-0.517,0-0.615-0.677-0.615-0.874c0-0.455,0.308-0.578,0.566-0.677
			c0.32-0.123,0.738-0.32,1.193-0.591v-1.23c-0.086,0.049-0.246,0.135-0.468,0.135c-0.369,0-0.431-0.209-0.627-0.738
			c-0.16-0.443-0.234-0.591-0.455-1.033c-0.025-0.062-0.086-0.209-0.086-0.381c0-0.381,0.406-0.64,0.726-0.64
			c0.369,0,0.504,0.295,0.91,1.218v-0.75c0-1.107,0.492-1.415,1.427-1.415h2.645v-0.381c0-0.541,0.504-0.603,0.726-0.603
			c0.369,0,0.787,0.098,0.787,0.603v0.381h3.679c0.283,0,0.726,0.061,0.726,0.591c0,0.455-0.283,0.615-0.726,0.615h-3.826
			c0.234,0.098,0.394,0.221,0.345,0.578h3.531c0.246,0,0.615,0.012,0.615,0.578c0,0.554-0.332,0.603-0.615,0.603h-2.055
			c0.554,0.591,0.615,0.652,0.824,0.824c0.086-0.098,0.431-0.554,0.517-0.64c0.098-0.099,0.209-0.111,0.32-0.111
			c0.295,0,0.664,0.221,0.664,0.504c0,0.234-0.406,0.664-0.603,0.873c0.123,0.062,0.664,0.357,0.775,0.431
			c0.234,0.148,0.258,0.271,0.258,0.431c0,0.357-0.234,0.75-0.664,0.75c-0.197,0-0.345-0.062-0.541-0.185V19.202z M114.541,22.205
			c-0.381,0.258-1.058,0.677-1.403,0.677c-0.468,0-0.627-0.443-0.627-0.664c0-0.332,0.111-0.381,0.861-0.775
			c0.48-0.246,0.64-0.369,1.144-0.726c0.16-0.123,0.283-0.172,0.455-0.172c0.345,0,0.64,0.283,0.64,0.652
			C115.611,21.429,115.365,21.663,114.541,22.205z M113.077,17.689c0.037-0.209,0.209-0.345,0.246-0.369
			c0.185-0.148,0.504-0.332,0.689-0.468c-0.148-0.16-0.32-0.345-0.468-0.492c-0.123-0.135-0.172-0.222-0.172-0.345
			c0-0.283,0.357-0.541,0.64-0.541c0.172,0,0.308,0.074,0.861,0.701c0.246-0.234,0.468-0.48,0.664-0.763h-1.698
			c-0.369,0-0.615-0.111-0.615-0.615c0-0.504,0.332-0.566,0.615-0.566h2.325c0.172-0.455,0.197-0.504,0.295-0.578h-2.953
			c-0.295,0-0.431,0.148-0.431,0.418V17.689z M115.488,18.009h3.629v-0.246c0-0.172-0.074-0.295-0.295-0.295h-3.039
			c-0.246,0-0.295,0.135-0.295,0.295V18.009z M115.488,18.907v0.258c0,0.172,0.061,0.308,0.295,0.308h3.039
			c0.246,0,0.295-0.16,0.295-0.308v-0.258H115.488z M118.429,16.52c-0.517-0.566-0.677-0.861-0.8-1.107h-0.652
			c-0.172,0.283-0.381,0.627-0.775,1.107H118.429z M119.401,20.544c0.172,0,0.222,0.025,0.628,0.32
			c0.468,0.332,0.91,0.566,1.403,0.824c0.148,0.086,0.295,0.209,0.295,0.468c0,0.283-0.222,0.714-0.689,0.714
			c-0.295,0-0.972-0.431-1.292-0.64c-0.345-0.222-0.984-0.64-0.984-1.021C118.761,20.814,119.093,20.544,119.401,20.544z"/>
		<path class="st3" d="M126.339,20.913c-1.058,2.116-1.243,2.116-1.538,2.116c-0.394,0-0.824-0.32-0.824-0.726
			c0-0.283,0.098-0.431,0.615-1.255c0.492-0.763,0.849-1.562,1.255-2.448c0.086-0.197,0.209-0.443,0.591-0.443
			c0.308,0,0.738,0.222,0.738,0.664C127.176,19.239,126.585,20.433,126.339,20.913z M124.715,14.835
			c0.369,0,0.997,0.431,1.439,0.738c0.714,0.492,0.812,0.677,0.812,0.91c0,0.357-0.332,0.837-0.763,0.837
			c-0.209,0-0.295-0.062-1.021-0.603c-0.135-0.098-0.738-0.492-0.861-0.578c-0.222-0.148-0.295-0.246-0.295-0.578
			C124.026,15.253,124.346,14.835,124.715,14.835z M125.06,11.636c0.344,0,1.033,0.431,1.427,0.677
			c0.726,0.443,0.898,0.578,0.898,0.923c0,0.406-0.345,0.861-0.738,0.861c-0.209,0-0.258-0.037-1.009-0.541
			c-0.16-0.099-0.873-0.517-1.009-0.615c-0.123-0.074-0.283-0.185-0.283-0.529C124.346,12.079,124.666,11.636,125.06,11.636z
			 M127.951,17.935c-0.221,0-0.75-0.012-0.75-0.714c0-0.603,0.381-0.714,0.75-0.714h2.67v-1.87h-2.178c-0.185,0-0.763,0-0.763-0.689
			c0-0.554,0.246-0.763,0.763-0.763h2.178v-0.911c0-0.283,0.049-0.75,0.714-0.75c0.541,0,0.812,0.16,0.812,0.75v0.911h2.288
			c0.185,0,0.75,0,0.75,0.689c0,0.578-0.27,0.763-0.75,0.763h-2.288v1.87h2.694c0.185,0,0.75,0,0.75,0.677
			c0,0.554-0.258,0.751-0.75,0.751h-3.703c-0.467,1.292-1.12,2.707-1.403,3.297c1.366-0.074,1.735-0.098,3.371-0.258
			c-0.258-0.431-0.307-0.517-0.775-1.206c-0.16-0.234-0.185-0.369-0.185-0.492c0-0.431,0.455-0.664,0.763-0.664
			c0.32,0,0.504,0.123,1.034,0.874c0.307,0.455,0.75,1.107,1.193,1.907c0.271,0.492,0.369,0.726,0.369,0.947
			c0,0.418-0.418,0.738-0.861,0.738c-0.418,0-0.566-0.271-0.628-0.406c-0.037-0.062-0.185-0.369-0.209-0.431
			c-2.658,0.381-5.918,0.554-6.066,0.554c-0.148,0-0.738,0-0.738-0.763c0-0.271,0.111-0.504,0.345-0.64
			c0.111-0.062,0.185-0.074,0.714-0.086c0.529-1.095,1.046-2.215,1.403-3.371H127.951z"/>
		<path class="st3" d="M142.762,12.349c0-0.221,0-0.8,0.849-0.8c0.849,0,0.861,0.554,0.861,0.8v1.181c0,0.935,0.148,3.531,1.6,5.487
			c0.714,0.972,1.661,1.747,2.719,2.313c0.295,0.16,0.591,0.332,0.591,0.763c0,0.345-0.283,0.935-0.898,0.935
			c-0.603,0-2.104-1.243-2.904-2.129c-0.984-1.083-1.599-2.436-1.956-3.851c-0.578,2.215-1.44,3.31-2.227,4.122
			c-0.701,0.726-2.042,1.858-2.658,1.858c-0.517,0-0.886-0.504-0.886-0.947c0-0.394,0.222-0.541,0.455-0.677
			c1.6-0.91,3.396-2.141,4.196-5.463c0.123-0.529,0.258-2.215,0.258-2.412V12.349z"/>
		<path class="st3" d="M154.366,13.358c0.628,0,1.12,0.234,1.12,1.021c0,0.529-0.16,1.095-1.095,2.375
			c0.283,0.32,0.517,0.541,0.935,0.935c0.492,0.455,0.591,0.541,0.591,0.8c0,0.344-0.32,0.763-0.726,0.763
			c-0.431,0-0.837-0.566-1.157-1.009v4.171c0,0.603-0.283,0.75-0.837,0.75c-0.64,0-0.701-0.431-0.701-0.75v-3.63
			c-0.504,0.406-0.75,0.615-1.107,0.615c-0.394,0-0.787-0.431-0.787-0.874c0-0.418,0.185-0.541,1.107-1.193
			c1.353-0.947,2.055-2.215,2.055-2.362c0-0.185-0.185-0.197-0.295-0.197h-1.993c-0.357,0-0.75-0.098-0.75-0.714
			c0-0.701,0.554-0.701,0.75-0.701h1.009v-1.107c0-0.566,0.258-0.763,0.824-0.763c0.689,0,0.726,0.517,0.726,0.763v1.107H154.366z
			 M161.281,14.773c0.209,0,0.8,0,0.8,0.714c0,0.578-0.222,0.824-0.8,0.824h-1.759v4.958h1.968c0.197,0,0.787,0,0.787,0.701
			c0,0.566-0.222,0.812-0.787,0.812h-5.647c-0.222,0-0.874,0-0.874-0.714c0-0.603,0.283-0.8,0.874-0.8h2.104v-4.958h-1.673
			c-0.197,0-0.775,0-0.775-0.726c0-0.603,0.258-0.812,0.775-0.812h1.673v-2.498c0-0.283,0.037-0.763,0.726-0.763
			c0.615,0,0.849,0.209,0.849,0.763v2.498H161.281z"/>
		<path class="st3" d="M175.394,21.183c0,1.267-0.554,1.649-1.649,1.649h-7.308c-1.095,0-1.649-0.369-1.649-1.649v-7.567
			c0-1.267,0.541-1.649,1.649-1.649h7.308c1.095,0,1.649,0.381,1.649,1.649V21.183z M173.893,13.9c0-0.357-0.197-0.504-0.492-0.504
			h-6.595c-0.357,0-0.492,0.209-0.492,0.504V20.9c0,0.332,0.16,0.504,0.492,0.504h6.595c0.32,0,0.492-0.16,0.492-0.504V13.9z
			 M172.478,19.83c0,1.39-0.394,1.39-2.141,1.39c-0.566,0-0.984,0-0.984-0.652c0-0.64,0.455-0.64,0.627-0.64
			c0.099,0,0.529,0.025,0.615,0.025c0.394,0,0.443-0.172,0.443-0.394v-3.322h-3.962c-0.258,0-0.701,0-0.701-0.627
			c0-0.591,0.258-0.701,0.701-0.701h3.962v-0.8c0-0.492,0.209-0.701,0.677-0.701c0.492,0,0.763,0.123,0.763,0.701v0.8h0.64
			c0.258,0,0.701,0.012,0.701,0.64c0,0.591-0.246,0.689-0.701,0.689h-0.64V19.83z M169.058,17.714
			c0.234,0.332,0.627,0.898,0.627,1.23c0,0.504-0.554,0.714-0.824,0.714c-0.32,0-0.418-0.172-0.775-0.775
			c-0.172-0.295-0.308-0.48-0.689-1.021c-0.111-0.148-0.258-0.357-0.258-0.578c0-0.369,0.406-0.627,0.738-0.627
			C168.148,16.656,168.307,16.656,169.058,17.714z"/>
	</g>
	<g>
		<g>
			<g>
				
					<linearGradient id="SVGID_00000153669428865691020070000006127767041807492280_" gradientUnits="userSpaceOnUse" x1="183.3689" y1="17.3589" x2="195.0525" y2="17.3589">
					<stop  offset="0" style="stop-color:#8AC23E"/>
					<stop  offset="1" style="stop-color:#28AC4B"/>
				</linearGradient>
				<path style="fill:url(#SVGID_00000153669428865691020070000006127767041807492280_);" d="M190.035,16.08h4.255
					c0.222,0,0.763,0.012,0.763,0.726c0,0.603-0.221,0.836-0.763,0.836h-4.255v4.723c0,0.381-0.11,0.762-0.75,0.762
					c-0.677,0-0.923-0.172-0.923-0.762v-4.723h-4.218c-0.296,0-0.775-0.049-0.775-0.726c0-0.578,0.185-0.836,0.775-0.836h4.218
					v-2.398c-1.033,0.037-3.419,0.086-3.48,0.086c-0.233,0-0.75,0-0.75-0.763c0-0.726,0.479-0.726,1.119-0.738
					c0.504,0,3.85-0.099,5.916-0.369c0.332-0.049,1.955-0.308,2.078-0.308c0.774,0,0.774,0.775,0.774,0.886
					c0,0.479-0.271,0.603-0.504,0.676c-0.651,0.222-2.619,0.369-3.48,0.443V16.08z"/>
			</g>
			<g>
				
					<linearGradient id="SVGID_00000088825113406994291810000000071088245410828167_" gradientUnits="userSpaceOnUse" x1="196.9578" y1="17.3284" x2="208.6043" y2="17.3284">
					<stop  offset="0" style="stop-color:#8AC23E"/>
					<stop  offset="1" style="stop-color:#28AC4B"/>
				</linearGradient>
				<path style="fill:url(#SVGID_00000088825113406994291810000000071088245410828167_);" d="M204.251,12.218
					c0-0.295,0-0.726,0.688-0.726c0.787,0,0.8,0.344,0.8,0.726h2.14c0.16,0,0.726,0,0.726,0.615c0,0.504-0.369,0.615-0.726,0.615
					h-2.14c0,0.209,0,0.221-0.024,0.32c0.073-0.013,0.185-0.025,0.356-0.025c0.468,0,0.774,0.111,0.774,0.48v0.319h1.107
					c0.308,0,0.64,0.074,0.64,0.566c0,0.479-0.296,0.578-0.64,0.578h-1.107v0.295c0,1.07-0.528,1.119-1.278,1.119h-2.251
					c-0.763,0-1.291-0.049-1.291-1.119v-0.295h-1.882v1.402c0,0.209,0.099,0.357,0.356,0.357h6.838c0.16,0,0.627,0,0.627,0.565
					c0,0.467-0.196,0.627-0.627,0.627h-3.812v0.443h4.428c0.172,0,0.64,0,0.64,0.578c0,0.443-0.16,0.652-0.64,0.652h-3.148
					c0.849,0.578,1.808,0.935,2.41,1.083c0.886,0.209,1.23,0.283,1.23,0.762c0,0.406-0.234,0.75-0.664,0.75
					c-0.677,0-2.792-0.713-4.256-2.066v1.574c0,0.295-0.049,0.75-0.701,0.75c-0.541,0-0.812-0.16-0.812-0.75v-1.599
					c-1.525,1.451-3.8,2.091-4.23,2.091c-0.566,0-0.688-0.504-0.688-0.738c0-0.467,0.332-0.566,1.254-0.787
					c0.382-0.099,1.562-0.48,2.398-1.07h-3.136c-0.185,0-0.652,0-0.652-0.615c0-0.554,0.369-0.615,0.652-0.615h4.402v-0.443h-2.005
					c-0.849,0-1.34-0.271-1.34-1.341v-1.611h-1.07c-0.233,0-0.64-0.025-0.64-0.566c0-0.43,0.222-0.578,0.64-0.578h1.07v-0.319
					c0-0.418,0.356-0.492,0.713-0.492c0.074,0,0.308,0,0.492,0.062c-0.024-0.074-0.024-0.099-0.024-0.172v-0.172h-2.152
					c-0.185,0-0.738-0.012-0.738-0.615c0-0.492,0.356-0.615,0.738-0.615h2.152c0-0.308,0-0.726,0.688-0.726
					c0.799,0,0.799,0.344,0.799,0.726H204.251z M204.251,13.448h-2.915c0,0.32,0,0.688-0.787,0.688c-0.147,0-0.282-0.024-0.43-0.086
					c0.024,0.062,0.024,0.098,0.024,0.172v0.319h1.882v-0.319c0-0.345,0.159-0.492,0.799-0.492c0.479,0,0.652,0.172,0.652,0.492
					v0.319h1.845V14.21c0-0.049,0-0.062,0.012-0.123c-0.086,0.025-0.185,0.049-0.356,0.049c-0.455,0-0.726-0.16-0.726-0.529V13.448z
					 M203.476,15.687v0.271c0,0.16,0.073,0.246,0.246,0.246h1.364c0.173,0,0.234-0.099,0.234-0.246v-0.271H203.476z"/>
			</g>
			<g>
				
					<linearGradient id="SVGID_00000145742452421398932980000011602327787055862417_" gradientUnits="userSpaceOnUse" x1="210.8787" y1="17.2666" x2="222.5261" y2="17.2666">
					<stop  offset="0" style="stop-color:#8AC23E"/>
					<stop  offset="1" style="stop-color:#28AC4B"/>
				</linearGradient>
				<path style="fill:url(#SVGID_00000145742452421398932980000011602327787055862417_);" d="M221.776,12.526
					c0.184,0,0.75,0,0.75,0.652c0,0.492-0.209,0.726-0.75,0.726h-4.305v2.668c0,1.587,0.467,2.829,1.771,3.825
					c0.8,0.603,1.82,0.885,2.62,1.094c0.405,0.111,0.603,0.246,0.603,0.652c0,0.246-0.111,0.91-0.775,0.91
					c-0.836,0-3.923-1.205-4.956-3.604c-0.16,0.406-0.467,1.168-1.697,2.152c-1.229,0.972-2.718,1.476-3.259,1.476
					c-0.701,0-0.787-0.701-0.787-0.897c0-0.479,0.308-0.603,0.603-0.677c2.521-0.664,4.366-1.697,4.366-5.202v-2.398h-4.342
					c-0.246,0-0.738-0.037-0.738-0.689c0-0.553,0.332-0.688,0.738-0.688h4.342v-0.455c0-0.394,0.209-0.615,0.7-0.615
					c0.468,0,0.812,0.099,0.812,0.615v0.455H221.776z M215.418,17.593c0,0.32-0.308,0.578-0.923,1.058
					c0.356,0.332,0.479,0.467,0.479,0.701c0,0.406-0.442,0.726-0.737,0.726c-0.21,0-0.332-0.135-0.48-0.308
					c-0.073-0.086-0.147-0.16-0.356-0.381c-0.615,0.345-1.451,0.713-1.759,0.713c-0.479,0-0.614-0.467-0.614-0.701
					c0-0.332,0.221-0.455,0.467-0.553c0.578-0.234,0.64-0.258,0.886-0.369c-0.11-0.086-0.578-0.43-0.677-0.504
					c-0.086-0.074-0.172-0.172-0.172-0.345c0-0.295,0.283-0.603,0.664-0.603c0.16,0,0.308,0,1.304,0.775
					c0.196-0.135,0.381-0.295,0.738-0.615c0.098-0.086,0.209-0.197,0.43-0.222c-0.147,0.013-0.246-0.012-0.369-0.086
					c-0.135-0.086-0.676-0.553-0.787-0.652c-0.688,0.443-1.586,0.861-1.881,0.861c-0.406,0-0.566-0.43-0.566-0.676
					c0-0.32,0.234-0.418,0.406-0.492c0.713-0.295,0.787-0.32,0.983-0.43c-0.762-0.467-0.922-0.578-0.922-0.812
					c0-0.332,0.283-0.59,0.627-0.59c0.185,0,0.308,0.049,0.554,0.185c0.222,0.135,0.578,0.345,0.873,0.541
					c0.11-0.086,0.468-0.381,0.701-0.59c0.147-0.123,0.233-0.172,0.394-0.172c0.345,0,0.603,0.295,0.603,0.566
					c0,0.283-0.209,0.455-0.713,0.861c0.639,0.479,0.726,0.578,0.726,0.824c0,0.271-0.222,0.603-0.615,0.664
					C215.11,16.941,215.418,17.273,215.418,17.593z M221.985,16.215c0,0.332-0.32,0.676-0.652,0.676
					c-0.172,0-0.271-0.074-0.418-0.197c-0.369-0.344-0.431-0.369-0.591-0.492c-0.664,0.418-1.61,0.885-1.931,0.885
					c-0.455,0-0.59-0.479-0.59-0.676c0-0.344,0.282-0.467,0.479-0.541c0.541-0.222,0.603-0.234,0.959-0.418
					c-0.135-0.074-0.726-0.394-0.836-0.467c-0.062-0.049-0.233-0.16-0.233-0.381c0-0.233,0.233-0.553,0.639-0.553
					c0.332,0,1.145,0.504,1.501,0.738c0.16-0.111,0.209-0.16,0.677-0.553c0.147-0.135,0.282-0.16,0.393-0.16
					c0.357,0,0.628,0.32,0.628,0.578s-0.209,0.431-0.664,0.812C221.862,15.846,221.985,15.981,221.985,16.215z M221.136,17.101
					c0.147-0.147,0.282-0.209,0.442-0.209c0.356,0,0.651,0.295,0.651,0.603c0,0.283-0.221,0.492-0.799,1.009
					c0.64,0.529,0.799,0.664,0.799,0.984c0,0.406-0.43,0.652-0.688,0.652c-0.172,0-0.271-0.062-0.455-0.222
					c-0.369-0.332-0.381-0.344-0.713-0.615c-0.32,0.209-1.082,0.64-1.39,0.64c-0.382,0-0.628-0.406-0.628-0.713
					c0-0.295,0.197-0.406,0.308-0.467c0.099-0.049,0.541-0.246,0.628-0.283c-0.099-0.074-0.16-0.123-0.628-0.406
					c-0.135-0.086-0.319-0.233-0.319-0.492c0-0.295,0.308-0.615,0.664-0.615c0.295,0,1.07,0.517,1.438,0.775
					C220.656,17.568,220.706,17.531,221.136,17.101z"/>
			</g>
			<g>
				
					<linearGradient id="SVGID_00000006679070371400994330000018186951377626334106_" gradientUnits="userSpaceOnUse" x1="224.7732" y1="17.3281" x2="236.3963" y2="17.3281">
					<stop  offset="0" style="stop-color:#8AC23E"/>
					<stop  offset="1" style="stop-color:#28AC4B"/>
				</linearGradient>
				<path style="fill:url(#SVGID_00000006679070371400994330000018186951377626334106_);" d="M226.336,15.871
					c-0.209-0.271-0.394-0.492-0.897-0.997c-0.492-0.492-0.554-0.565-0.554-0.873s0.258-0.688,0.627-0.688
					c0.136,0,0.209,0.037,0.283,0.086c0.209-0.356,0.455-0.75,0.664-1.23c0.196-0.43,0.282-0.652,0.627-0.652
					c0.308,0,0.8,0.234,0.8,0.59c0,0.394-0.738,1.562-1.145,2.165c0.197,0.209,0.222,0.234,0.382,0.418
					c0.369-0.578,0.394-0.627,0.947-1.636c0.11-0.185,0.271-0.357,0.491-0.357c0.345,0,0.787,0.283,0.787,0.64
					c0,0.221-0.405,0.836-0.59,1.131c-0.677,1.033-1.07,1.513-1.611,2.202c0.233-0.012,0.332-0.012,1.132-0.074
					c-0.185-0.542-0.197-0.603-0.197-0.713c0-0.295,0.271-0.418,0.479-0.418c0.32,0,0.406,0.246,0.517,0.517
					c0.16,0.406,0.443,1.329,0.492,1.5c0.233-0.332,0.492-0.332,0.541-0.332c0.16,0,0.295,0.037,0.91,0.627
					c0.172,0.172,0.615,0.603,0.615,0.947c0,0.258-0.246,0.627-0.664,0.627c-0.185,0-0.222-0.037-0.603-0.431
					c-0.111-0.111-0.677-0.664-0.787-0.812c-0.111,0.172-0.32,0.246-0.517,0.246c-0.345,0-0.406-0.258-0.492-0.578
					c-0.11,0.012-0.172,0.024-0.714,0.086v4.625c0,0.172,0,0.651-0.59,0.651c-0.591,0-0.591-0.492-0.591-0.651v-4.501
					c-0.737,0.074-0.959,0.098-1.254,0.098c-0.345,0-0.652-0.172-0.652-0.713c0-0.615,0.382-0.615,0.936-0.64L226.336,15.871z
					 M226.311,19.13c0,0.234-0.099,1.919-0.332,2.755c-0.05,0.185-0.148,0.431-0.492,0.431c-0.062,0-0.652,0-0.652-0.541
					c0-0.16,0.16-0.874,0.185-1.009c0.111-0.639,0.147-1.082,0.197-1.722c0.024-0.283,0.086-0.541,0.517-0.541
					C226.311,18.503,226.311,18.921,226.311,19.13z M230.553,19.88c0.431-0.295,0.542-0.32,0.652-0.32
					c0.332,0,0.578,0.344,0.578,0.701c0,0.319-0.136,0.43-0.873,0.984c-0.332,0.246-1.193,0.849-1.501,0.849
					c-0.344,0-0.627-0.381-0.627-0.763c0-0.099,0.013-0.16,0.037-0.222c-0.431-0.037-0.443-0.184-0.529-0.971
					c-0.012-0.172-0.135-1.045-0.135-1.07c0-0.381,0.418-0.442,0.565-0.442c0.431,0,0.468,0.197,0.591,0.873
					c0.012,0.062,0.147,0.763,0.147,1.082C229.865,20.36,230.394,19.991,230.553,19.88z M233.42,21.676
					c0,1.168-0.246,1.377-1.451,1.377c-0.787,0-0.849,0-0.923-0.012c-0.356-0.062-0.541-0.394-0.541-0.726
					c0-0.32,0.11-0.713,0.64-0.713c0.099,0,0.492,0.024,0.565,0.012c0.185-0.024,0.271-0.098,0.271-0.381v-4.378h-2.041
					c-0.173,0-0.627,0-0.627-0.603c0-0.467,0.172-0.664,0.627-0.664h4.083v-0.664h-3.493c-0.185,0-0.603-0.012-0.603-0.565
					c0-0.504,0.32-0.566,0.603-0.566h3.493v-0.369c0-0.123-0.037-0.295-0.295-0.295h-3.383c-0.172,0-0.614,0-0.614-0.59
					c0-0.455,0.147-0.664,0.614-0.664h3.85c0.849,0,1.292,0.295,1.292,1.328v2.435h0.356c0.356,0,0.554,0.221,0.554,0.603
					c0,0.59-0.406,0.615-0.628,0.615h-2.349v0.652c0.147,0.356,0.405,0.812,0.528,1.021c0.209-0.185,0.566-0.517,0.923-0.947
					c0.283-0.357,0.394-0.455,0.64-0.455c0.394,0,0.688,0.344,0.688,0.652c0,0.233-0.086,0.406-0.295,0.664
					c-0.468,0.553-0.886,0.935-1.181,1.193c0.308,0.369,0.565,0.627,0.824,0.836c0.651,0.541,0.836,0.688,0.836,1.021
					c0,0.369-0.345,0.799-0.763,0.799c-0.492,0-1.537-1.156-2.201-2.361V21.676z"/>
			</g>
			<g>
				
					<linearGradient id="SVGID_00000017510854203610323120000013722723590559525029_" gradientUnits="userSpaceOnUse" x1="238.6463" y1="17.2114" x2="250.3298" y2="17.2114">
					<stop  offset="0" style="stop-color:#8AC23E"/>
					<stop  offset="1" style="stop-color:#28AC4B"/>
				</linearGradient>
				<path style="fill:url(#SVGID_00000017510854203610323120000013722723590559525029_);" d="M241.942,16.154
					c-0.455,0-0.701-0.16-0.738-0.615c-0.479,0.283-1.377,0.799-1.808,0.799c-0.394,0-0.75-0.406-0.75-0.922
					c0-0.467,0.295-0.615,0.664-0.75c1.857-0.701,2.939-1.734,3.85-2.607c0.491-0.479,0.688-0.664,1.328-0.664
					s0.799,0.172,1.513,0.861c0.677,0.676,1.685,1.635,3.714,2.459c0.369,0.147,0.615,0.283,0.615,0.726
					c0,0.492-0.356,0.91-0.787,0.91c-0.394,0-1.279-0.504-1.734-0.787c-0.062,0.529-0.418,0.59-0.75,0.59H241.942z M243.639,18.736
					c-0.295,0.713-0.565,1.292-1.218,2.448c1.746-0.062,2.042-0.086,4.612-0.234c-0.185-0.234-0.246-0.295-0.726-0.824
					c-0.271-0.295-0.32-0.443-0.32-0.603c0-0.369,0.455-0.701,0.849-0.701c0.209,0,0.394,0.086,0.628,0.319
					c0.491,0.48,1.058,1.095,1.636,1.833c0.59,0.738,0.726,0.972,0.726,1.242c0,0.431-0.529,0.812-0.96,0.812
					c-0.282,0-0.418-0.16-0.492-0.271c-0.049-0.074-0.307-0.468-0.368-0.554c-1.279,0.147-2.607,0.246-3.911,0.332
					c-0.615,0.049-3.788,0.234-4.28,0.234c-0.196,0-0.763,0-0.763-0.787c0-0.111,0-0.664,0.554-0.713
					c0.11-0.012,0.972-0.037,1.156-0.037c0.442-0.812,0.886-1.623,1.181-2.497h-2.275c-0.517,0-0.75-0.233-0.75-0.775
					c0-0.688,0.578-0.688,0.75-0.688h9.617c0.505,0,0.751,0.209,0.751,0.763c0,0.701-0.578,0.701-0.751,0.701H243.639z
					 M246.652,14.789c-0.381-0.283-1.106-0.836-1.808-1.624c-0.185-0.197-0.233-0.246-0.345-0.246c-0.11,0-0.159,0.049-0.344,0.246
					c-0.554,0.603-1.156,1.144-1.808,1.624H246.652z"/>
			</g>
		</g>
	</g>
</g>
<path class="st9" d="M12.686,7.622c0.338,8.976,7.51,16.2,16.465,16.617C28.813,15.263,21.641,8.039,12.686,7.622"/>
<path class="st10" d="M55.008,0.5C41.66,1.478,26.412,12.791,31.474,41.667c0-9.279,1.39-14.918,2.488-17.675
	C45.578,22.274,54.557,12.483,55.008,0.5"/>
<path class="st3" d="M18.604,52.107c0.309,0,0.429,0.01,0.57,0.084c0.184,0.095,0.309,0.309,0.309,0.566
	c0,0.256-0.125,0.471-0.309,0.565c-0.14,0.073-0.261,0.084-0.57,0.084h-2.115v2.084c0,0.341-0.011,0.46-0.1,0.638
	c-0.11,0.204-0.346,0.346-0.632,0.346c-0.289,0-0.524-0.142-0.634-0.346c-0.089-0.178-0.1-0.298-0.1-0.638v-5.622
	c0-0.215,0-0.482,0.204-0.686c0.205-0.204,0.472-0.204,0.686-0.204h3.199c0.309,0,0.429,0.011,0.57,0.084
	c0.183,0.095,0.309,0.309,0.309,0.565c0,0.256-0.126,0.471-0.309,0.566c-0.141,0.073-0.261,0.084-0.57,0.084h-2.623v1.832H18.604z"
	/>
<path class="st3" d="M23.088,56.493c-0.545,0-0.984-0.178-1.288-0.481c-0.44-0.44-0.555-0.954-0.555-1.55v-2.596
	c0-0.33,0.016-0.461,0.089-0.608c0.099-0.199,0.314-0.324,0.592-0.324c0.276,0,0.491,0.125,0.591,0.324
	c0.074,0.147,0.089,0.278,0.089,0.608v2.408c0,0.738,0.472,0.984,0.9,0.984c0.431,0,0.911-0.246,0.911-0.984v-2.408
	c0-0.33,0.016-0.461,0.089-0.608c0.099-0.199,0.314-0.324,0.592-0.324c0.277,0,0.491,0.125,0.591,0.324
	c0.073,0.147,0.09,0.278,0.09,0.608v3.68c0,0.35-0.017,0.455-0.101,0.612c-0.099,0.189-0.33,0.314-0.586,0.314
	c-0.183,0-0.33-0.057-0.435-0.157c-0.11-0.099-0.162-0.214-0.204-0.397C24.109,56.299,23.591,56.493,23.088,56.493"/>
<path class="st3" d="M28.096,52.18H27.96c-0.256,0-0.351-0.016-0.461-0.074c-0.161-0.084-0.251-0.246-0.251-0.451
	c0-0.203,0.089-0.366,0.251-0.45c0.11-0.058,0.204-0.074,0.461-0.074h0.136v-0.727c0-0.33,0.016-0.461,0.089-0.608
	c0.099-0.199,0.315-0.325,0.592-0.325c0.278,0,0.491,0.126,0.592,0.325c0.074,0.147,0.089,0.278,0.089,0.608v0.727h0.408
	c0.257,0,0.351,0.016,0.461,0.074c0.162,0.084,0.251,0.247,0.251,0.45c0,0.205-0.089,0.367-0.251,0.451
	c-0.11,0.058-0.204,0.074-0.461,0.074h-0.408v2.617c0,0.257,0.093,0.461,0.439,0.482c0.173,0.01,0.293,0.026,0.408,0.084
	c0.168,0.083,0.272,0.241,0.272,0.487c0,0.24-0.11,0.402-0.272,0.486c-0.12,0.063-0.299,0.094-0.56,0.094h-0.074
	c-1.131,0-1.576-0.764-1.576-1.56V52.18z"/>
<path class="st3" d="M33.045,52.326c-0.178,0.105-0.33,0.142-0.449,0.142c-0.137,0-0.288-0.058-0.388-0.183
	c-0.109-0.131-0.152-0.251-0.152-0.409c0-0.303,0.257-0.518,0.509-0.648c0.397-0.21,0.826-0.314,1.376-0.314
	c1.518,0,2.299,0.649,2.299,1.926v2.706c0,0.351-0.016,0.456-0.101,0.613c-0.099,0.189-0.33,0.314-0.586,0.314
	c-0.184,0-0.33-0.058-0.435-0.157c-0.105-0.094-0.157-0.199-0.199-0.361c-0.398,0.388-0.728,0.539-1.35,0.539
	c-0.618,0-1.078-0.171-1.393-0.491c-0.288-0.289-0.451-0.744-0.451-1.225c0-0.869,0.598-1.581,1.885-1.581h1.267v-0.272
	c0-0.598-0.313-0.859-0.958-0.859C33.595,52.065,33.343,52.149,33.045,52.326 M34.877,54.127h-1.036
	c-0.545,0-0.807,0.22-0.807,0.628c0,0.376,0.261,0.617,0.828,0.617c0.335,0,0.576-0.042,0.805-0.262
	c0.163-0.151,0.21-0.339,0.21-0.69V54.127z"/>
<path class="st3" d="M38.231,49.866c0-0.329,0.016-0.46,0.089-0.607c0.099-0.199,0.313-0.325,0.591-0.325
	c0.278,0,0.492,0.126,0.591,0.325c0.074,0.147,0.089,0.278,0.089,0.607v1.591c0.345-0.398,0.764-0.544,1.319-0.544
	c0.545,0,1.015,0.178,1.319,0.491c0.524,0.534,0.566,1.382,0.566,2.293c0,0.922-0.042,1.77-0.566,2.304
	c-0.304,0.313-0.79,0.491-1.324,0.491c-0.581,0-0.984-0.152-1.355-0.565c-0.042,0.178-0.095,0.293-0.199,0.387
	c-0.105,0.099-0.251,0.157-0.435,0.157c-0.256,0-0.487-0.125-0.585-0.314c-0.084-0.156-0.099-0.262-0.099-0.612V49.866z
	 M40.513,52.149c-0.816,0-0.921,0.675-0.921,1.549c0,0.874,0.105,1.56,0.931,1.56c0.807,0,0.911-0.686,0.911-1.56
	C41.434,52.823,41.33,52.149,40.513,52.149"/>
<path class="st3" d="M45.531,52.326c-0.178,0.105-0.33,0.142-0.449,0.142c-0.137,0-0.288-0.058-0.388-0.183
	c-0.11-0.131-0.152-0.251-0.152-0.409c0-0.303,0.257-0.518,0.509-0.648c0.398-0.21,0.826-0.314,1.376-0.314
	c1.518,0,2.299,0.649,2.299,1.926v2.706c0,0.351-0.016,0.456-0.101,0.613c-0.099,0.189-0.33,0.314-0.586,0.314
	c-0.184,0-0.33-0.058-0.435-0.157c-0.105-0.094-0.157-0.199-0.199-0.361c-0.398,0.388-0.728,0.539-1.351,0.539
	c-0.618,0-1.078-0.171-1.393-0.491c-0.288-0.289-0.451-0.744-0.451-1.225c0-0.869,0.598-1.581,1.885-1.581h1.267v-0.272
	c0-0.598-0.313-0.859-0.958-0.859C46.081,52.065,45.83,52.149,45.531,52.326 M47.363,54.127h-1.036c-0.545,0-0.807,0.22-0.807,0.628
	c0,0.376,0.261,0.617,0.828,0.617c0.335,0,0.576-0.042,0.806-0.262c0.163-0.151,0.209-0.339,0.209-0.69V54.127z"/>
<g>
	<defs>
		<path id="SVGID_2_" d="M51.333,22.544c-1.035-2.95-2.584-0.932-2.501,1.003c-0.996-1.576-1.798-0.049-1.798,1.88
			c-1.742-1.997-1.271,2.987-1.271,4.369c3.373-3.54,6.272-2.956,6.95-1.505c1.179,2.527-3.365,7.484-5.346,9.306
			c-1.286,1.184-3.09,1.288-0.539-1.139c0.382-0.363,1.316-1.263,2.612-2.82c5.058-6.071,0.378-6.332-2.267-3.761
			c-2.237,2.174-3.401,3.981-8.529,6.325c-2.216,1.012-3.477,2.621-3.343,5.617c0.091,2.007,2.954,6.772,8.92,2.935
			c5.719-3.679,8.247-5.995,10.531-10.075c2.319-4.138-0.089-9.956-0.478-11.145c-0.615-1.881-1.324-2.603-1.895-2.603
			C51.833,20.933,51.414,21.601,51.333,22.544"/>
	</defs>
	<clipPath id="SVGID_00000005953290640603376690000011877887374513447553_">
		<use xlink:href="#SVGID_2_"  style="overflow:visible;"/>
	</clipPath>
	
		<linearGradient id="SVGID_00000000940138807405906320000010279313310614917534_" gradientUnits="userSpaceOnUse" x1="-125.5904" y1="461.8642" x2="-124.9881" y2="461.8642" gradientTransform="matrix(40.7752 -7.1898 7.1898 40.7752 1831.719 -19698.8828)">
		<stop  offset="0" style="stop-color:#FFF3E1"/>
		<stop  offset="0.1341" style="stop-color:#FFF0D8"/>
		<stop  offset="0.3527" style="stop-color:#FEE7C0"/>
		<stop  offset="0.6287" style="stop-color:#FCD998"/>
		<stop  offset="0.9484" style="stop-color:#F9C562"/>
		<stop  offset="1" style="stop-color:#F9C258"/>
	</linearGradient>
	
		<polygon style="clip-path:url(#SVGID_00000005953290640603376690000011877887374513447553_);fill:url(#SVGID_00000000940138807405906320000010279313310614917534_);" points="
		35.909,52.339 62.112,47.718 56.492,15.848 30.289,20.469 	"/>
</g>
<g>
	<defs>
		<path id="SVGID_1_" d="M11.616,22.544c1.035-2.95,2.584-0.932,2.501,1.003c0.996-1.576,1.798-0.049,1.798,1.88
			c1.742-1.997,1.271,2.987,1.271,4.369c-3.373-3.54-6.272-2.956-6.95-1.505c-1.179,2.527,3.365,7.484,5.346,9.306
			c1.286,1.184,3.09,1.288,0.539-1.139c-0.382-0.363-1.316-1.263-2.612-2.82c-5.058-6.071-0.378-6.332,2.267-3.761
			c2.237,2.174,3.401,3.981,8.529,6.325c2.216,1.012,3.477,2.621,3.343,5.617c-0.091,2.007-2.954,6.772-8.92,2.935
			c-5.719-3.679-8.247-5.995-10.531-10.075c-2.319-4.138,0.089-9.956,0.478-11.145c0.615-1.881,1.324-2.603,1.895-2.603
			C11.116,20.933,11.534,21.601,11.616,22.544"/>
	</defs>
	<clipPath id="SVGID_00000006681109069716574700000014320969540613408415_">
		<use xlink:href="#SVGID_1_"  style="overflow:visible;"/>
	</clipPath>
	
		<linearGradient id="SVGID_00000109727348021889739220000005875440716191292852_" gradientUnits="userSpaceOnUse" x1="-123.6127" y1="454.5369" x2="-122.9901" y2="454.5369" gradientTransform="matrix(36.5262 6.4406 6.4406 -36.5262 1594.1783 17430.9414)">
		<stop  offset="0" style="stop-color:#F09BA7"/>
		<stop  offset="0.0935" style="stop-color:#F1A5B0"/>
		<stop  offset="0.4902" style="stop-color:#F7CDD2"/>
		<stop  offset="0.8062" style="stop-color:#FBE5E6"/>
		<stop  offset="1" style="stop-color:#FCEEEE"/>
	</linearGradient>
	
		<polygon style="clip-path:url(#SVGID_00000006681109069716574700000014320969540613408415_);fill:url(#SVGID_00000109727348021889739220000005875440716191292852_);" points="
		6.319,15.848 32.66,20.591 27.178,52.339 0.837,47.596 	"/>
</g>
<linearGradient id="SVGID_00000106847806036977404610000006763693582714961582_" gradientUnits="userSpaceOnUse" x1="284.4837" y1="40.8784" x2="350.2" y2="40.8784">
	<stop  offset="0" style="stop-color:#8AC23E"/>
	<stop  offset="1" style="stop-color:#28AC4B"/>
</linearGradient>
<path style="fill:url(#SVGID_00000106847806036977404610000006763693582714961582_);" d="M345.2,51.975h-55.716
	c-2.761,0-5-2.239-5-5V34.781c0-2.761,2.239-5,5-5H345.2c2.761,0,5,2.239,5,5v12.194C350.2,49.737,347.961,51.975,345.2,51.975z"/>
<g>
	<g>
		<path class="st14" d="M310.257,48.061c1.222-1.5,1.277-1.573,1.462-1.573c0.167,0,0.259,0.055,0.981,0.759
			c0.703,0.703,0.851,0.851,0.851,0.98s-0.11,0.204-0.259,0.204h-9.421c-0.647,0-1.314,0.036-2.369,0.129l-0.186-0.629
			c1.222,0.093,1.907,0.13,2.555,0.13h2.499v-5.072c0-0.333-0.019-0.722-0.056-1.073h-1.518c-1.185,2.11-2.703,3.812-4.091,4.905
			c0,1.185,0.019,1.665,0.019,1.925c0,0.518-0.574,0.796-1.573,0.796c-0.703,0-0.814-0.148-0.814-0.63
			c0-0.48,0.074-1.739,0.111-4.312l0.055-5.386c-0.795,0.926-1.628,1.758-2.424,2.425c-0.093,0.074-0.223-0.056-0.167-0.148
			c1.222-1.703,2.536-4.683,3.591-7.978c0.13-0.426,0.24-0.869,0.333-1.332c2.518,0.98,2.851,1.222,2.851,1.462
			c0,0.259-0.167,0.407-0.833,0.61c-0.537,1.037-1.166,2.055-1.851,3.018c1.055,0.407,1.259,0.573,1.259,0.777
			c0,0.166-0.111,0.296-0.574,0.481v4.146c0,1.647,0,2.851,0.019,3.721c0.962-1.296,1.813-2.98,2.628-5.312
			c0.463-1.332,0.833-2.813,1.11-4.238h-0.759c-0.647,0-1.369,0.037-2.424,0.13l-0.186-0.63c1.222,0.093,1.962,0.13,2.609,0.13
			h0.814c0.204-1.073,0.352-2.11,0.444-3.017c0.056-0.556,0.056-0.87,0.074-1.389c2.888,0.5,3.295,0.685,3.295,1.018
			c0,0.278-0.186,0.426-0.759,0.667c-0.186,0.925-0.407,1.851-0.648,2.721h2.962c1.24-1.573,1.313-1.629,1.518-1.629
			c0.203,0,0.259,0.037,1.129,0.87c0.703,0.685,0.814,0.796,0.814,0.925c0,0.13-0.093,0.204-0.24,0.204h-6.293
			c-0.481,1.685-1.037,3.202-1.647,4.405L305,41.545h4.165c1.147-1.425,1.221-1.518,1.406-1.518c0.185,0,0.277,0.056,0.999,0.759
			c0.667,0.666,0.741,0.759,0.741,0.926c0,0.129-0.093,0.203-0.241,0.203h-2.888c0,0.167-0.11,0.296-0.425,0.463v5.683H310.257z"/>
		<path class="st14" d="M325.846,45.728c-0.981,1.444-2.813,3.036-4.572,3.665c-0.111,0.037-0.185-0.13-0.093-0.185
			c1.203-0.704,2.518-2.314,3.146-3.979c0.574-1.518,0.777-3.184,0.777-5.127c0-0.63,0-1-0.019-1.333
			c-1.166,0.777-2.424,1.425-3.72,1.832c-0.111,0.037-0.186-0.147-0.093-0.203c1.999-1,4.887-4.091,6.404-7.219
			c0.13-0.277,0.296-0.629,0.444-1.129c3.072,0.647,3.109,0.833,3.109,1.166c0,0.148-0.111,0.277-0.611,0.426
			c0.686,0.722,1.889,1.573,3.406,2.332c1.443,0.722,3.35,1.259,4.738,1.48c0.111,0.019,0.093,0.13,0,0.186
			c-0.593,0.277-1.147,1.073-1.462,1.758c-0.13,0.278-0.223,0.389-0.407,0.389c-0.204,0-0.334-0.036-0.519-0.092
			c-1.055-0.37-2.332-1.222-3.239-2.092c-0.87-0.814-2.018-2.202-2.813-3.868c-0.722,1.092-1.776,2.258-3.017,3.35
			c0.61,0.074,1.036,0.093,1.369,0.093h1.519c0.832-1.129,0.851-1.166,0.98-1.166c0.111,0,0.167,0.037,0.796,0.666
			c0.519,0.519,0.556,0.556,0.556,0.667c0,0.129-0.056,0.203-0.204,0.203h-3.646c-0.314,0-0.759,0.019-1.443,0.13l-0.13-0.407
			c-0.37,0.314-0.777,0.647-1.203,0.943c1.277,0.334,1.703,0.519,1.814,0.686h4.35c0.777-0.833,0.833-0.852,0.98-0.852
			c0.148,0,0.204,0,1.147,0.722c0.704,0.537,0.759,0.593,0.759,0.74c0,0.148-0.036,0.223-0.389,0.5v0.685
			c0,1.037,0.074,1.943,0.074,2.24c0,0.518-0.481,0.795-1.518,0.795c-0.703,0-0.852-0.147-0.852-0.629h-5.33
			c-0.093,0.407-0.204,0.796-0.352,1.185c1.166,0.277,1.629,0.426,1.813,0.556h4.498c0.814-0.907,0.888-0.963,1.055-0.963
			c0.186,0,0.277,0.019,1.277,0.74c0.685,0.5,0.74,0.574,0.74,0.74c0,0.186-0.056,0.241-0.556,0.63v0.722
			c0,0.777,0.074,1.647,0.074,1.906c0,0.519-0.555,0.796-1.592,0.796c-0.703,0-0.852-0.148-0.852-0.647v-0.463h-4.979v0.444
			c0,0.518-0.556,0.796-1.48,0.796c-0.686,0-0.796-0.167-0.796-0.611c0-0.147,0.056-0.555,0.056-2.258V45.728z M332.268,42.729
			v-1.592h-5.053c-0.037,0.574-0.093,1.092-0.185,1.592H332.268z M327.566,39.269c-0.074,0.056-0.166,0.129-0.314,0.203v0.519
			c0,0.277,0,0.537-0.019,0.777h5.034v-1.499H327.566z M333.045,47.931V45.21h-4.627c-0.074,0.074-0.185,0.147-0.352,0.203v2.518
			H333.045z"/>
	</g>
	<g>
		<path class="st15" d="M310.257,48.061c1.222-1.5,1.277-1.573,1.462-1.573c0.167,0,0.259,0.055,0.981,0.759
			c0.703,0.703,0.851,0.851,0.851,0.98s-0.11,0.204-0.259,0.204h-9.421c-0.647,0-1.314,0.036-2.369,0.129l-0.186-0.629
			c1.222,0.093,1.907,0.13,2.555,0.13h2.499v-5.072c0-0.333-0.019-0.722-0.056-1.073h-1.518c-1.185,2.11-2.703,3.812-4.091,4.905
			c0,1.185,0.019,1.665,0.019,1.925c0,0.518-0.574,0.796-1.573,0.796c-0.703,0-0.814-0.148-0.814-0.63
			c0-0.48,0.074-1.739,0.111-4.312l0.055-5.386c-0.795,0.926-1.628,1.758-2.424,2.425c-0.093,0.074-0.223-0.056-0.167-0.148
			c1.222-1.703,2.536-4.683,3.591-7.978c0.13-0.426,0.24-0.869,0.333-1.332c2.518,0.98,2.851,1.222,2.851,1.462
			c0,0.259-0.167,0.407-0.833,0.61c-0.537,1.037-1.166,2.055-1.851,3.018c1.055,0.407,1.259,0.573,1.259,0.777
			c0,0.166-0.111,0.296-0.574,0.481v4.146c0,1.647,0,2.851,0.019,3.721c0.962-1.296,1.813-2.98,2.628-5.312
			c0.463-1.332,0.833-2.813,1.11-4.238h-0.759c-0.647,0-1.369,0.037-2.424,0.13l-0.186-0.63c1.222,0.093,1.962,0.13,2.609,0.13
			h0.814c0.204-1.073,0.352-2.11,0.444-3.017c0.056-0.556,0.056-0.87,0.074-1.389c2.888,0.5,3.295,0.685,3.295,1.018
			c0,0.278-0.186,0.426-0.759,0.667c-0.186,0.925-0.407,1.851-0.648,2.721h2.962c1.24-1.573,1.313-1.629,1.518-1.629
			c0.203,0,0.259,0.037,1.129,0.87c0.703,0.685,0.814,0.796,0.814,0.925c0,0.13-0.093,0.204-0.24,0.204h-6.293
			c-0.481,1.685-1.037,3.202-1.647,4.405L305,41.545h4.165c1.147-1.425,1.221-1.518,1.406-1.518c0.185,0,0.277,0.056,0.999,0.759
			c0.667,0.666,0.741,0.759,0.741,0.926c0,0.129-0.093,0.203-0.241,0.203h-2.888c0,0.167-0.11,0.296-0.425,0.463v5.683H310.257z"/>
		<path class="st15" d="M325.846,45.728c-0.981,1.444-2.813,3.036-4.572,3.665c-0.111,0.037-0.185-0.13-0.093-0.185
			c1.203-0.704,2.518-2.314,3.146-3.979c0.574-1.518,0.777-3.184,0.777-5.127c0-0.63,0-1-0.019-1.333
			c-1.166,0.777-2.424,1.425-3.72,1.832c-0.111,0.037-0.186-0.147-0.093-0.203c1.999-1,4.887-4.091,6.404-7.219
			c0.13-0.277,0.296-0.629,0.444-1.129c3.072,0.647,3.109,0.833,3.109,1.166c0,0.148-0.111,0.277-0.611,0.426
			c0.686,0.722,1.889,1.573,3.406,2.332c1.443,0.722,3.35,1.259,4.738,1.48c0.111,0.019,0.093,0.13,0,0.186
			c-0.593,0.277-1.147,1.073-1.462,1.758c-0.13,0.278-0.223,0.389-0.407,0.389c-0.204,0-0.334-0.036-0.519-0.092
			c-1.055-0.37-2.332-1.222-3.239-2.092c-0.87-0.814-2.018-2.202-2.813-3.868c-0.722,1.092-1.776,2.258-3.017,3.35
			c0.61,0.074,1.036,0.093,1.369,0.093h1.519c0.832-1.129,0.851-1.166,0.98-1.166c0.111,0,0.167,0.037,0.796,0.666
			c0.519,0.519,0.556,0.556,0.556,0.667c0,0.129-0.056,0.203-0.204,0.203h-3.646c-0.314,0-0.759,0.019-1.443,0.13l-0.13-0.407
			c-0.37,0.314-0.777,0.647-1.203,0.943c1.277,0.334,1.703,0.519,1.814,0.686h4.35c0.777-0.833,0.833-0.852,0.98-0.852
			c0.148,0,0.204,0,1.147,0.722c0.704,0.537,0.759,0.593,0.759,0.74c0,0.148-0.036,0.223-0.389,0.5v0.685
			c0,1.037,0.074,1.943,0.074,2.24c0,0.518-0.481,0.795-1.518,0.795c-0.703,0-0.852-0.147-0.852-0.629h-5.33
			c-0.093,0.407-0.204,0.796-0.352,1.185c1.166,0.277,1.629,0.426,1.813,0.556h4.498c0.814-0.907,0.888-0.963,1.055-0.963
			c0.186,0,0.277,0.019,1.277,0.74c0.685,0.5,0.74,0.574,0.74,0.74c0,0.186-0.056,0.241-0.556,0.63v0.722
			c0,0.777,0.074,1.647,0.074,1.906c0,0.519-0.555,0.796-1.592,0.796c-0.703,0-0.852-0.148-0.852-0.647v-0.463h-4.979v0.444
			c0,0.518-0.556,0.796-1.48,0.796c-0.686,0-0.796-0.167-0.796-0.611c0-0.147,0.056-0.555,0.056-2.258V45.728z M332.268,42.729
			v-1.592h-5.053c-0.037,0.574-0.093,1.092-0.185,1.592H332.268z M327.566,39.269c-0.074,0.056-0.166,0.129-0.314,0.203v0.519
			c0,0.277,0,0.537-0.019,0.777h5.034v-1.499H327.566z M333.045,47.931V45.21h-4.627c-0.074,0.074-0.185,0.147-0.352,0.203v2.518
			H333.045z"/>
	</g>
	<g>
		<path class="st14" d="M310.257,48.061c1.222-1.5,1.277-1.573,1.462-1.573c0.167,0,0.259,0.055,0.981,0.759
			c0.703,0.703,0.851,0.851,0.851,0.98s-0.11,0.204-0.259,0.204h-9.421c-0.647,0-1.314,0.036-2.369,0.129l-0.186-0.629
			c1.222,0.093,1.907,0.13,2.555,0.13h2.499v-5.072c0-0.333-0.019-0.722-0.056-1.073h-1.518c-1.185,2.11-2.703,3.812-4.091,4.905
			c0,1.185,0.019,1.665,0.019,1.925c0,0.518-0.574,0.796-1.573,0.796c-0.703,0-0.814-0.148-0.814-0.63
			c0-0.48,0.074-1.739,0.111-4.312l0.055-5.386c-0.795,0.926-1.628,1.758-2.424,2.425c-0.093,0.074-0.223-0.056-0.167-0.148
			c1.222-1.703,2.536-4.683,3.591-7.978c0.13-0.426,0.24-0.869,0.333-1.332c2.518,0.98,2.851,1.222,2.851,1.462
			c0,0.259-0.167,0.407-0.833,0.61c-0.537,1.037-1.166,2.055-1.851,3.018c1.055,0.407,1.259,0.573,1.259,0.777
			c0,0.166-0.111,0.296-0.574,0.481v4.146c0,1.647,0,2.851,0.019,3.721c0.962-1.296,1.813-2.98,2.628-5.312
			c0.463-1.332,0.833-2.813,1.11-4.238h-0.759c-0.647,0-1.369,0.037-2.424,0.13l-0.186-0.63c1.222,0.093,1.962,0.13,2.609,0.13
			h0.814c0.204-1.073,0.352-2.11,0.444-3.017c0.056-0.556,0.056-0.87,0.074-1.389c2.888,0.5,3.295,0.685,3.295,1.018
			c0,0.278-0.186,0.426-0.759,0.667c-0.186,0.925-0.407,1.851-0.648,2.721h2.962c1.24-1.573,1.313-1.629,1.518-1.629
			c0.203,0,0.259,0.037,1.129,0.87c0.703,0.685,0.814,0.796,0.814,0.925c0,0.13-0.093,0.204-0.24,0.204h-6.293
			c-0.481,1.685-1.037,3.202-1.647,4.405L305,41.545h4.165c1.147-1.425,1.221-1.518,1.406-1.518c0.185,0,0.277,0.056,0.999,0.759
			c0.667,0.666,0.741,0.759,0.741,0.926c0,0.129-0.093,0.203-0.241,0.203h-2.888c0,0.167-0.11,0.296-0.425,0.463v5.683H310.257z"/>
		<path class="st14" d="M325.846,45.728c-0.981,1.444-2.813,3.036-4.572,3.665c-0.111,0.037-0.185-0.13-0.093-0.185
			c1.203-0.704,2.518-2.314,3.146-3.979c0.574-1.518,0.777-3.184,0.777-5.127c0-0.63,0-1-0.019-1.333
			c-1.166,0.777-2.424,1.425-3.72,1.832c-0.111,0.037-0.186-0.147-0.093-0.203c1.999-1,4.887-4.091,6.404-7.219
			c0.13-0.277,0.296-0.629,0.444-1.129c3.072,0.647,3.109,0.833,3.109,1.166c0,0.148-0.111,0.277-0.611,0.426
			c0.686,0.722,1.889,1.573,3.406,2.332c1.443,0.722,3.35,1.259,4.738,1.48c0.111,0.019,0.093,0.13,0,0.186
			c-0.593,0.277-1.147,1.073-1.462,1.758c-0.13,0.278-0.223,0.389-0.407,0.389c-0.204,0-0.334-0.036-0.519-0.092
			c-1.055-0.37-2.332-1.222-3.239-2.092c-0.87-0.814-2.018-2.202-2.813-3.868c-0.722,1.092-1.776,2.258-3.017,3.35
			c0.61,0.074,1.036,0.093,1.369,0.093h1.519c0.832-1.129,0.851-1.166,0.98-1.166c0.111,0,0.167,0.037,0.796,0.666
			c0.519,0.519,0.556,0.556,0.556,0.667c0,0.129-0.056,0.203-0.204,0.203h-3.646c-0.314,0-0.759,0.019-1.443,0.13l-0.13-0.407
			c-0.37,0.314-0.777,0.647-1.203,0.943c1.277,0.334,1.703,0.519,1.814,0.686h4.35c0.777-0.833,0.833-0.852,0.98-0.852
			c0.148,0,0.204,0,1.147,0.722c0.704,0.537,0.759,0.593,0.759,0.74c0,0.148-0.036,0.223-0.389,0.5v0.685
			c0,1.037,0.074,1.943,0.074,2.24c0,0.518-0.481,0.795-1.518,0.795c-0.703,0-0.852-0.147-0.852-0.629h-5.33
			c-0.093,0.407-0.204,0.796-0.352,1.185c1.166,0.277,1.629,0.426,1.813,0.556h4.498c0.814-0.907,0.888-0.963,1.055-0.963
			c0.186,0,0.277,0.019,1.277,0.74c0.685,0.5,0.74,0.574,0.74,0.74c0,0.186-0.056,0.241-0.556,0.63v0.722
			c0,0.777,0.074,1.647,0.074,1.906c0,0.519-0.555,0.796-1.592,0.796c-0.703,0-0.852-0.148-0.852-0.647v-0.463h-4.979v0.444
			c0,0.518-0.556,0.796-1.48,0.796c-0.686,0-0.796-0.167-0.796-0.611c0-0.147,0.056-0.555,0.056-2.258V45.728z M332.268,42.729
			v-1.592h-5.053c-0.037,0.574-0.093,1.092-0.185,1.592H332.268z M327.566,39.269c-0.074,0.056-0.166,0.129-0.314,0.203v0.519
			c0,0.277,0,0.537-0.019,0.777h5.034v-1.499H327.566z M333.045,47.931V45.21h-4.627c-0.074,0.074-0.185,0.147-0.352,0.203v2.518
			H333.045z"/>
	</g>
</g>
<g id="ol前" class="st16">
	<g class="st17">
		<text transform="matrix(1 0 0 1 295.5418 47.875)" class="st14 st18 st19 st20">佐倉</text>
		<g>
			<path class="st15" d="M301.891,32.883c-0.056,0.13-0.186,0.186-0.407,0.167c-0.481,1.295-1.055,2.591-1.703,3.831l0.481,0.13
				c-0.019,0.11-0.13,0.203-0.352,0.222v12.271h-1.222V38.806c-0.703,1.147-1.48,2.202-2.258,3.072
				c-0.111-0.296-0.444-0.87-0.648-1.166c1.777-1.925,3.554-5.127,4.628-8.329L301.891,32.883z M313.459,37.288h-7.589
				c-0.296,1.332-0.666,2.609-1.073,3.794h8.106v1.166h-3.961v5.497h4.461v1.185H303.02v-1.185h4.701v-5.497h-3.276v-0.222
				c-0.888,2.258-2.017,4.201-3.479,5.719c-0.185-0.259-0.61-0.703-0.888-0.925c2.184-2.129,3.59-5.516,4.516-9.532h-3.628v-1.203
				h3.887c0.241-1.185,0.444-2.425,0.63-3.702l1.629,0.26c-0.019,0.166-0.167,0.24-0.407,0.24c-0.167,1.092-0.352,2.165-0.574,3.202
				h7.33V37.288z"/>
			<path class="st15" d="M326.326,36.344c-1.369,0.981-2.942,1.925-4.534,2.646c-0.148-0.277-0.463-0.722-0.685-0.962
				c3.22-1.407,6.44-3.812,7.958-5.849l1.796,0.093c-0.037,0.147-0.186,0.222-0.352,0.24c1.832,1.999,5.164,4.164,8.014,5.275
				c-0.277,0.296-0.573,0.722-0.759,1.073c-1.462-0.648-3.072-1.555-4.534-2.555v0.759h-6.904V36.344z M335.341,43.396h-10.088
				c-0.314,2.073-1.11,4.312-2.961,5.979c-0.186-0.259-0.686-0.703-0.944-0.852c2.48-2.221,2.832-5.293,2.832-7.606v-2.721h11.161
				V43.396z M325.42,41.212c0,0.407-0.019,0.814-0.056,1.259h8.755v-1.259H325.42z M334.119,39.12h-8.699v1.222h8.699V39.12z
				 M325.604,49.467v-4.979h10.439v4.941h-1.24v-0.592h-7.996v0.629H325.604z M332.953,36.104c-1.277-0.907-2.425-1.869-3.258-2.776
				c-0.722,0.889-1.796,1.851-3.036,2.776H332.953z M334.804,45.469h-7.996v2.369h7.996V45.469z"/>
		</g>
		<text transform="matrix(1 0 0 1 295.5418 47.875)" class="st14 st18 st19 st20">佐倉</text>
	</g>
	<g class="st17">
		<g>
			<path d="M227.709,16.08h4.256c0.221,0,0.762,0.012,0.762,0.726c0,0.603-0.221,0.836-0.762,0.836h-4.256v4.723
				c0,0.381-0.11,0.762-0.75,0.762c-0.677,0-0.923-0.172-0.923-0.762v-4.723h-4.218c-0.296,0-0.775-0.049-0.775-0.726
				c0-0.578,0.185-0.836,0.775-0.836h4.218v-2.398c-1.033,0.037-3.419,0.086-3.48,0.086c-0.233,0-0.75,0-0.75-0.763
				c0-0.726,0.479-0.726,1.119-0.738c0.504,0,3.85-0.099,5.916-0.369c0.332-0.049,1.955-0.308,2.078-0.308
				c0.774,0,0.774,0.775,0.774,0.886c0,0.479-0.271,0.603-0.504,0.676c-0.651,0.222-2.619,0.369-3.48,0.443V16.08z"/>
			<path d="M241.903,12.218c0-0.295,0-0.726,0.688-0.726c0.787,0,0.8,0.344,0.8,0.726h2.14c0.16,0,0.726,0,0.726,0.615
				c0,0.504-0.368,0.615-0.726,0.615h-2.14c0,0.209,0,0.221-0.024,0.32c0.073-0.013,0.185-0.025,0.356-0.025
				c0.468,0,0.774,0.111,0.774,0.48v0.319h1.107c0.308,0,0.64,0.074,0.64,0.566c0,0.479-0.296,0.578-0.64,0.578h-1.107v0.295
				c0,1.07-0.528,1.119-1.278,1.119h-2.251c-0.763,0-1.291-0.049-1.291-1.119v-0.295h-1.882v1.402c0,0.209,0.099,0.357,0.356,0.357
				h6.838c0.16,0,0.627,0,0.627,0.565c0,0.467-0.196,0.627-0.627,0.627h-3.812v0.443h4.428c0.172,0,0.64,0,0.64,0.578
				c0,0.443-0.16,0.652-0.64,0.652h-3.148c0.849,0.578,1.808,0.935,2.41,1.083c0.886,0.209,1.23,0.283,1.23,0.762
				c0,0.406-0.234,0.75-0.664,0.75c-0.677,0-2.792-0.713-4.256-2.066v1.574c0,0.295-0.049,0.75-0.701,0.75
				c-0.541,0-0.812-0.16-0.812-0.75v-1.599c-1.525,1.451-3.8,2.091-4.23,2.091c-0.565,0-0.688-0.504-0.688-0.738
				c0-0.467,0.332-0.566,1.254-0.787c0.382-0.099,1.562-0.48,2.398-1.07h-3.137c-0.184,0-0.651,0-0.651-0.615
				c0-0.554,0.369-0.615,0.651-0.615h4.403v-0.443h-2.005c-0.849,0-1.34-0.271-1.34-1.341v-1.611h-1.07
				c-0.233,0-0.64-0.025-0.64-0.566c0-0.43,0.222-0.578,0.64-0.578h1.07v-0.319c0-0.418,0.356-0.492,0.713-0.492
				c0.074,0,0.308,0,0.492,0.062c-0.024-0.074-0.024-0.099-0.024-0.172v-0.172h-2.152c-0.185,0-0.738-0.012-0.738-0.615
				c0-0.492,0.356-0.615,0.738-0.615h2.152c0-0.308,0-0.726,0.688-0.726c0.799,0,0.799,0.344,0.799,0.726H241.903z M241.903,13.448
				h-2.915c0,0.32,0,0.688-0.787,0.688c-0.147,0-0.282-0.024-0.43-0.086c0.024,0.062,0.024,0.098,0.024,0.172v0.319h1.882v-0.319
				c0-0.345,0.159-0.492,0.799-0.492c0.479,0,0.652,0.172,0.652,0.492v0.319h1.845V14.21c0-0.049,0-0.062,0.012-0.123
				c-0.086,0.025-0.185,0.049-0.356,0.049c-0.455,0-0.726-0.16-0.726-0.529V13.448z M241.129,15.687v0.271
				c0,0.16,0.073,0.246,0.246,0.246h1.365c0.172,0,0.233-0.099,0.233-0.246v-0.271H241.129z"/>
			<path d="M259.023,12.526c0.185,0,0.751,0,0.751,0.652c0,0.492-0.209,0.726-0.751,0.726h-4.304v2.668
				c0,1.587,0.467,2.829,1.771,3.825c0.8,0.603,1.82,0.885,2.62,1.094c0.405,0.111,0.603,0.246,0.603,0.652
				c0,0.246-0.111,0.91-0.775,0.91c-0.836,0-3.923-1.205-4.956-3.604c-0.16,0.406-0.468,1.168-1.697,2.152
				c-1.229,0.972-2.718,1.476-3.259,1.476c-0.701,0-0.787-0.701-0.787-0.897c0-0.479,0.308-0.603,0.603-0.677
				c2.521-0.664,4.366-1.697,4.366-5.202v-2.398h-4.342c-0.246,0-0.738-0.037-0.738-0.689c0-0.553,0.332-0.688,0.738-0.688h4.342
				v-0.455c0-0.394,0.209-0.615,0.701-0.615c0.467,0,0.812,0.099,0.812,0.615v0.455H259.023z M252.666,17.593
				c0,0.32-0.308,0.578-0.923,1.058c0.356,0.332,0.479,0.467,0.479,0.701c0,0.406-0.442,0.726-0.737,0.726
				c-0.21,0-0.333-0.135-0.48-0.308c-0.073-0.086-0.147-0.16-0.356-0.381c-0.615,0.345-1.451,0.713-1.759,0.713
				c-0.479,0-0.614-0.467-0.614-0.701c0-0.332,0.221-0.455,0.467-0.553c0.578-0.234,0.64-0.258,0.886-0.369
				c-0.11-0.086-0.578-0.43-0.677-0.504c-0.086-0.074-0.172-0.172-0.172-0.345c0-0.295,0.283-0.603,0.664-0.603
				c0.16,0,0.308,0,1.304,0.775c0.196-0.135,0.381-0.295,0.738-0.615c0.098-0.086,0.209-0.197,0.43-0.222
				c-0.147,0.013-0.246-0.012-0.368-0.086c-0.136-0.086-0.677-0.553-0.787-0.652c-0.689,0.443-1.587,0.861-1.882,0.861
				c-0.406,0-0.566-0.43-0.566-0.676c0-0.32,0.234-0.418,0.406-0.492c0.713-0.295,0.787-0.32,0.983-0.43
				c-0.762-0.467-0.922-0.578-0.922-0.812c0-0.332,0.283-0.59,0.627-0.59c0.185,0,0.308,0.049,0.554,0.185
				c0.222,0.135,0.578,0.345,0.873,0.541c0.11-0.086,0.468-0.381,0.701-0.59c0.147-0.123,0.233-0.172,0.394-0.172
				c0.345,0,0.603,0.295,0.603,0.566c0,0.283-0.209,0.455-0.713,0.861c0.639,0.479,0.726,0.578,0.726,0.824
				c0,0.271-0.222,0.603-0.615,0.664C252.358,16.941,252.666,17.273,252.666,17.593z M259.233,16.215
				c0,0.332-0.32,0.676-0.652,0.676c-0.172,0-0.271-0.074-0.418-0.197c-0.369-0.344-0.431-0.369-0.591-0.492
				c-0.664,0.418-1.61,0.885-1.931,0.885c-0.455,0-0.59-0.479-0.59-0.676c0-0.344,0.282-0.467,0.479-0.541
				c0.541-0.222,0.603-0.234,0.959-0.418c-0.135-0.074-0.726-0.394-0.836-0.467c-0.062-0.049-0.233-0.16-0.233-0.381
				c0-0.233,0.233-0.553,0.639-0.553c0.332,0,1.145,0.504,1.501,0.738c0.16-0.111,0.209-0.16,0.676-0.553
				c0.148-0.135,0.283-0.16,0.395-0.16c0.356,0,0.627,0.32,0.627,0.578s-0.209,0.431-0.664,0.812
				C259.11,15.846,259.233,15.981,259.233,16.215z M258.385,17.101c0.147-0.147,0.282-0.209,0.442-0.209
				c0.356,0,0.651,0.295,0.651,0.603c0,0.283-0.221,0.492-0.799,1.009c0.64,0.529,0.799,0.664,0.799,0.984
				c0,0.406-0.43,0.652-0.688,0.652c-0.172,0-0.271-0.062-0.455-0.222c-0.369-0.332-0.381-0.344-0.713-0.615
				c-0.32,0.209-1.082,0.64-1.39,0.64c-0.382,0-0.628-0.406-0.628-0.713c0-0.295,0.197-0.406,0.308-0.467
				c0.099-0.049,0.541-0.246,0.628-0.283c-0.099-0.074-0.16-0.123-0.628-0.406c-0.135-0.086-0.319-0.233-0.319-0.492
				c0-0.295,0.308-0.615,0.664-0.615c0.295,0,1.07,0.517,1.438,0.775C257.904,17.568,257.954,17.531,258.385,17.101z"/>
			<path d="M263.22,15.871c-0.209-0.271-0.394-0.492-0.897-0.997c-0.492-0.492-0.554-0.565-0.554-0.873s0.258-0.688,0.627-0.688
				c0.136,0,0.209,0.037,0.283,0.086c0.209-0.356,0.455-0.75,0.664-1.23c0.196-0.43,0.282-0.652,0.627-0.652
				c0.308,0,0.8,0.234,0.8,0.59c0,0.394-0.738,1.562-1.145,2.165c0.197,0.209,0.222,0.234,0.382,0.418
				c0.369-0.578,0.394-0.627,0.947-1.636c0.11-0.185,0.271-0.357,0.491-0.357c0.345,0,0.787,0.283,0.787,0.64
				c0,0.221-0.405,0.836-0.59,1.131c-0.677,1.033-1.07,1.513-1.611,2.202c0.233-0.012,0.332-0.012,1.132-0.074
				c-0.185-0.542-0.197-0.603-0.197-0.713c0-0.295,0.271-0.418,0.479-0.418c0.32,0,0.406,0.246,0.517,0.517
				c0.16,0.406,0.443,1.329,0.492,1.5c0.233-0.332,0.492-0.332,0.541-0.332c0.16,0,0.295,0.037,0.91,0.627
				c0.172,0.172,0.615,0.603,0.615,0.947c0,0.258-0.246,0.627-0.664,0.627c-0.185,0-0.222-0.037-0.603-0.431
				c-0.111-0.111-0.677-0.664-0.787-0.812c-0.111,0.172-0.32,0.246-0.517,0.246c-0.345,0-0.406-0.258-0.492-0.578
				c-0.11,0.012-0.172,0.024-0.714,0.086v4.625c0,0.172,0,0.651-0.59,0.651c-0.591,0-0.591-0.492-0.591-0.651v-4.501
				c-0.737,0.074-0.959,0.098-1.254,0.098c-0.345,0-0.652-0.172-0.652-0.713c0-0.615,0.382-0.615,0.936-0.64L263.22,15.871z
				 M263.195,19.13c0,0.234-0.099,1.919-0.332,2.755c-0.05,0.185-0.148,0.431-0.492,0.431c-0.062,0-0.652,0-0.652-0.541
				c0-0.16,0.16-0.874,0.185-1.009c0.111-0.639,0.147-1.082,0.197-1.722c0.024-0.283,0.086-0.541,0.517-0.541
				C263.195,18.503,263.195,18.921,263.195,19.13z M267.438,19.88c0.431-0.295,0.542-0.32,0.652-0.32
				c0.332,0,0.578,0.344,0.578,0.701c0,0.319-0.136,0.43-0.873,0.984c-0.332,0.246-1.193,0.849-1.501,0.849
				c-0.344,0-0.627-0.381-0.627-0.763c0-0.099,0.013-0.16,0.037-0.222c-0.431-0.037-0.443-0.184-0.529-0.971
				c-0.012-0.172-0.135-1.045-0.135-1.07c0-0.381,0.418-0.442,0.565-0.442c0.431,0,0.468,0.197,0.591,0.873
				c0.012,0.062,0.147,0.763,0.147,1.082C266.749,20.36,267.278,19.991,267.438,19.88z M270.304,21.676
				c0,1.168-0.246,1.377-1.451,1.377c-0.787,0-0.849,0-0.923-0.012c-0.356-0.062-0.541-0.394-0.541-0.726
				c0-0.32,0.11-0.713,0.64-0.713c0.099,0,0.492,0.024,0.565,0.012c0.185-0.024,0.271-0.098,0.271-0.381v-4.378h-2.041
				c-0.173,0-0.627,0-0.627-0.603c0-0.467,0.172-0.664,0.627-0.664h4.083v-0.664h-3.493c-0.185,0-0.603-0.012-0.603-0.565
				c0-0.504,0.32-0.566,0.603-0.566h3.493v-0.369c0-0.123-0.037-0.295-0.295-0.295h-3.383c-0.172,0-0.614,0-0.614-0.59
				c0-0.455,0.147-0.664,0.614-0.664h3.85c0.849,0,1.292,0.295,1.292,1.328v2.435h0.356c0.356,0,0.554,0.221,0.554,0.603
				c0,0.59-0.406,0.615-0.628,0.615h-2.349v0.652c0.147,0.356,0.405,0.812,0.528,1.021c0.209-0.185,0.566-0.517,0.923-0.947
				c0.283-0.357,0.394-0.455,0.64-0.455c0.394,0,0.688,0.344,0.688,0.652c0,0.233-0.086,0.406-0.295,0.664
				c-0.468,0.553-0.886,0.935-1.181,1.193c0.308,0.369,0.565,0.627,0.824,0.836c0.651,0.541,0.836,0.688,0.836,1.021
				c0,0.369-0.345,0.799-0.763,0.799c-0.492,0-1.537-1.156-2.201-2.361V21.676z"/>
			<path d="M278.471,16.154c-0.455,0-0.701-0.16-0.738-0.615c-0.479,0.283-1.377,0.799-1.808,0.799c-0.394,0-0.75-0.406-0.75-0.922
				c0-0.467,0.295-0.615,0.664-0.75c1.857-0.701,2.939-1.734,3.85-2.607c0.491-0.479,0.688-0.664,1.328-0.664
				s0.799,0.172,1.513,0.861c0.677,0.676,1.685,1.635,3.714,2.459c0.369,0.147,0.615,0.283,0.615,0.726
				c0,0.492-0.356,0.91-0.787,0.91c-0.394,0-1.279-0.504-1.734-0.787c-0.062,0.529-0.418,0.59-0.75,0.59H278.471z M280.168,18.736
				c-0.295,0.713-0.565,1.292-1.218,2.448c1.746-0.062,2.042-0.086,4.612-0.234c-0.185-0.234-0.246-0.295-0.726-0.824
				c-0.271-0.295-0.32-0.443-0.32-0.603c0-0.369,0.455-0.701,0.849-0.701c0.209,0,0.394,0.086,0.628,0.319
				c0.491,0.48,1.058,1.095,1.636,1.833c0.59,0.738,0.726,0.972,0.726,1.242c0,0.431-0.529,0.812-0.96,0.812
				c-0.282,0-0.418-0.16-0.492-0.271c-0.049-0.074-0.307-0.468-0.368-0.554c-1.279,0.147-2.607,0.246-3.911,0.332
				c-0.615,0.049-3.788,0.234-4.28,0.234c-0.196,0-0.763,0-0.763-0.787c0-0.111,0-0.664,0.554-0.713
				c0.11-0.012,0.972-0.037,1.156-0.037c0.442-0.812,0.886-1.623,1.181-2.497h-2.275c-0.517,0-0.75-0.233-0.75-0.775
				c0-0.688,0.578-0.688,0.75-0.688h9.617c0.505,0,0.751,0.209,0.751,0.763c0,0.701-0.578,0.701-0.751,0.701H280.168z
				 M283.181,14.789c-0.381-0.283-1.106-0.836-1.808-1.624c-0.185-0.197-0.233-0.246-0.345-0.246c-0.11,0-0.159,0.049-0.344,0.246
				c-0.554,0.603-1.156,1.144-1.808,1.624H283.181z"/>
		</g>
	</g>
</g>
</svg>
