<?xml version="1.0" encoding="utf-8"?>
<!-- Generator: Adobe Illustrator 25.4.1, SVG Export Plug-In . SVG Version: 6.00 Build 0)  -->
<svg version="1.1" id="レイヤー_1" xmlns="http://www.w3.org/2000/svg" xmlns:xlink="http://www.w3.org/1999/xlink" x="0px"
	 y="0px" viewBox="0 0 583.65 93.54" style="enable-background:new 0 0 583.65 93.54;" xml:space="preserve">
<style type="text/css">
	.st0{fill:#8AC23E;}
	.st1{fill:#28AC4B;}
	.st2{fill:#A8977F;}
	
		.st3{clip-path:url(#SVGID_00000104684501363661615450000010884016872401348541_);fill:url(#SVGID_00000044179342580391429120000005888589688684395189_);}
	
		.st4{clip-path:url(#SVGID_00000041269495995878547660000000564510650016014210_);fill:url(#SVGID_00000162310516858678386820000017478261861904679086_);}
	.st5{fill:url(#SVGID_00000068663312476871589230000010922129198619665563_);}
	.st6{fill:#FFFFFF;stroke:#FFFFFF;stroke-miterlimit:10;}
	.st7{fill:url(#SVGID_00000009574738861512806340000015739756128200820625_);}
	.st8{fill:#E596A1;}
	.st9{fill:#EFBC58;}
	.st10{fill:#A5947E;}
	.st11{fill:url(#SVGID_00000157994148677826859010000015535473650291315634_);}
</style>
<path class="st0" d="M19.79,11.9c0.56,14.99,12.55,27.06,27.51,27.76C46.74,24.66,34.76,12.59,19.79,11.9"/>
<path class="st1" d="M90.5,0C68.2,1.63,42.73,20.53,51.18,68.77c0-15.5,2.32-24.92,4.16-29.53C74.75,36.38,89.75,20.02,90.5,0"/>
<path class="st2" d="M29.68,86.22c0.52,0,0.72,0.02,0.95,0.14c0.31,0.16,0.52,0.52,0.52,0.94c0,0.43-0.21,0.79-0.52,0.94
	c-0.23,0.12-0.44,0.14-0.95,0.14h-3.53v3.48c0,0.57-0.02,0.77-0.17,1.07c-0.18,0.34-0.58,0.58-1.06,0.58s-0.88-0.24-1.06-0.58
	c-0.15-0.3-0.17-0.5-0.17-1.07v-9.39c0-0.36,0-0.8,0.34-1.15c0.34-0.34,0.79-0.34,1.15-0.34h5.34c0.52,0,0.72,0.02,0.95,0.14
	c0.31,0.16,0.52,0.52,0.52,0.94c0,0.43-0.21,0.79-0.52,0.94c-0.24,0.12-0.44,0.14-0.95,0.14h-4.38v3.06h3.54V86.22z"/>
<path class="st2" d="M37.17,93.54c-0.91,0-1.64-0.3-2.15-0.8c-0.73-0.74-0.93-1.59-0.93-2.59v-4.34c0-0.55,0.03-0.77,0.15-1.02
	c0.17-0.33,0.52-0.54,0.99-0.54c0.46,0,0.82,0.21,0.99,0.54c0.12,0.25,0.15,0.46,0.15,1.02v4.02c0,1.23,0.79,1.64,1.5,1.64
	c0.72,0,1.52-0.41,1.52-1.64v-4.02c0-0.55,0.03-0.77,0.15-1.02c0.17-0.33,0.53-0.54,0.99-0.54c0.46,0,0.82,0.21,0.99,0.54
	c0.12,0.25,0.15,0.46,0.15,1.02v6.15c0,0.58-0.03,0.76-0.17,1.02c-0.17,0.32-0.55,0.52-0.98,0.52c-0.31,0-0.55-0.1-0.73-0.26
	c-0.18-0.17-0.27-0.36-0.34-0.66C38.88,93.22,38.01,93.54,37.17,93.54"/>
<path class="st2" d="M45.54,86.34h-0.23c-0.43,0-0.59-0.03-0.77-0.12c-0.27-0.14-0.42-0.41-0.42-0.75s0.15-0.61,0.42-0.75
	c0.18-0.1,0.34-0.12,0.77-0.12h0.23v-1.21c0-0.55,0.03-0.77,0.15-1.02c0.17-0.33,0.53-0.54,0.99-0.54c0.46,0,0.82,0.21,0.99,0.54
	c0.12,0.25,0.15,0.46,0.15,1.02v1.21h0.68c0.43,0,0.59,0.03,0.77,0.12c0.27,0.14,0.42,0.41,0.42,0.75s-0.15,0.61-0.42,0.75
	c-0.18,0.1-0.34,0.12-0.77,0.12h-0.68v4.37c0,0.43,0.16,0.77,0.73,0.81c0.29,0.02,0.49,0.04,0.68,0.14c0.28,0.14,0.45,0.4,0.45,0.81
	c0,0.4-0.18,0.67-0.45,0.81c-0.2,0.1-0.5,0.16-0.94,0.16h-0.12c-1.89,0-2.63-1.28-2.63-2.61C45.54,90.83,45.54,86.34,45.54,86.34z"
	/>
<path class="st2" d="M53.81,86.58c-0.3,0.18-0.55,0.24-0.75,0.24c-0.23,0-0.48-0.1-0.65-0.31c-0.18-0.22-0.25-0.42-0.25-0.68
	c0-0.51,0.43-0.87,0.85-1.08c0.66-0.35,1.38-0.53,2.3-0.53c2.54,0,3.84,1.08,3.84,3.22v4.52c0,0.59-0.03,0.76-0.17,1.02
	c-0.17,0.31-0.55,0.53-0.98,0.53c-0.31,0-0.55-0.1-0.73-0.26c-0.17-0.16-0.26-0.33-0.33-0.6c-0.66,0.65-1.22,0.9-2.26,0.9
	c-1.03,0-1.8-0.29-2.33-0.82c-0.48-0.48-0.75-1.24-0.75-2.05c0-1.45,1-2.64,3.15-2.64h2.12v-0.45c0-1-0.52-1.43-1.6-1.43
	C54.73,86.15,54.31,86.28,53.81,86.58 M56.87,89.59h-1.73c-0.91,0-1.35,0.37-1.35,1.05c0,0.63,0.44,1.03,1.38,1.03
	c0.56,0,0.96-0.07,1.35-0.44c0.27-0.25,0.35-0.57,0.35-1.15V89.59z"/>
<path class="st2" d="M62.47,82.47c0-0.55,0.03-0.77,0.15-1.01c0.17-0.33,0.52-0.54,0.99-0.54c0.46,0,0.82,0.21,0.99,0.54
	c0.12,0.25,0.15,0.46,0.15,1.01v2.66c0.58-0.67,1.28-0.91,2.2-0.91c0.91,0,1.7,0.3,2.2,0.82c0.87,0.89,0.94,2.31,0.94,3.83
	c0,1.54-0.07,2.96-0.94,3.85c-0.51,0.52-1.32,0.82-2.21,0.82c-0.97,0-1.64-0.25-2.26-0.94c-0.07,0.3-0.16,0.49-0.33,0.65
	c-0.18,0.17-0.42,0.26-0.73,0.26c-0.43,0-0.81-0.21-0.98-0.53c-0.14-0.26-0.17-0.44-0.17-1.02V82.47z M66.28,86.28
	c-1.36,0-1.54,1.13-1.54,2.59s0.17,2.61,1.56,2.61c1.35,0,1.52-1.15,1.52-2.61C67.82,87.41,67.65,86.28,66.28,86.28"/>
<path class="st2" d="M74.67,86.58c-0.3,0.18-0.55,0.24-0.75,0.24c-0.23,0-0.48-0.1-0.65-0.31c-0.18-0.22-0.25-0.42-0.25-0.68
	c0-0.51,0.43-0.87,0.85-1.08c0.66-0.35,1.38-0.53,2.3-0.53c2.54,0,3.84,1.08,3.84,3.22v4.52c0,0.59-0.03,0.76-0.17,1.02
	c-0.17,0.31-0.55,0.53-0.98,0.53c-0.31,0-0.55-0.1-0.73-0.26s-0.26-0.33-0.33-0.6c-0.67,0.65-1.22,0.9-2.26,0.9
	c-1.03,0-1.8-0.29-2.33-0.82c-0.48-0.48-0.75-1.24-0.75-2.05c0-1.45,1-2.64,3.15-2.64h2.12v-0.45c0-1-0.52-1.43-1.6-1.43
	C75.59,86.15,75.17,86.28,74.67,86.58 M77.73,89.59H76c-0.91,0-1.35,0.37-1.35,1.05c0,0.63,0.44,1.03,1.38,1.03
	c0.56,0,0.96-0.07,1.35-0.44c0.27-0.25,0.35-0.57,0.35-1.15C77.73,90.08,77.73,89.59,77.73,89.59z"/>
<g>
	<g>
		<defs>
			<path id="SVGID_1_" d="M84.36,36.83c-1.73-4.93-4.32-1.56-4.18,1.68c-1.66-2.63-3-0.08-3,3.14c-2.91-3.34-2.12,4.99-2.12,7.3
				c5.64-5.91,10.48-4.94,11.61-2.51c1.97,4.22-5.62,12.5-8.93,15.55c-2.15,1.98-5.16,2.15-0.9-1.9c0.64-0.61,2.2-2.11,4.36-4.71
				c8.45-10.14,0.63-10.58-3.79-6.28c-3.74,3.63-5.68,6.65-14.25,10.57c-3.7,1.69-5.81,4.38-5.58,9.38
				c0.15,3.35,4.94,11.31,14.9,4.9c9.55-6.15,13.78-10.02,17.59-16.83c3.87-6.91-0.15-16.63-0.8-18.62
				c-1.03-3.14-2.21-4.35-3.17-4.35C85.2,34.14,84.5,35.25,84.36,36.83"/>
		</defs>
		<clipPath id="SVGID_00000110437593053529163870000004910324834672870842_">
			<use xlink:href="#SVGID_1_"  style="overflow:visible;"/>
		</clipPath>
		
			<linearGradient id="SVGID_00000114052179410310194620000002598741610155466373_" gradientUnits="userSpaceOnUse" x1="-85.6661" y1="-135.5831" x2="-84.6598" y2="-135.5831" gradientTransform="matrix(40.7752 -7.1898 -7.1898 -40.7752 2569.3894 -6083.8867)">
			<stop  offset="0" style="stop-color:#FFF3E1"/>
			<stop  offset="0.1341" style="stop-color:#FFF0D8"/>
			<stop  offset="0.3527" style="stop-color:#FEE7C0"/>
			<stop  offset="0.6287" style="stop-color:#FCD998"/>
			<stop  offset="0.9484" style="stop-color:#F9C562"/>
			<stop  offset="1" style="stop-color:#F9C258"/>
		</linearGradient>
		
			<polygon style="clip-path:url(#SVGID_00000110437593053529163870000004910324834672870842_);fill:url(#SVGID_00000114052179410310194620000002598741610155466373_);" points="
			58.59,86.6 102.37,78.88 92.98,25.64 49.2,33.36 		"/>
	</g>
</g>
<g>
	<g>
		<defs>
			<path id="SVGID_00000098909897906681000240000002309966265940607384_" d="M18.01,36.83c1.73-4.93,4.32-1.56,4.18,1.68
				c1.66-2.63,3-0.08,3,3.14c2.91-3.34,2.12,4.99,2.12,7.3C21.68,43.03,16.83,44,15.7,46.43c-1.97,4.22,5.62,12.5,8.93,15.55
				c2.15,1.98,5.16,2.15,0.9-1.9c-0.64-0.61-2.2-2.11-4.36-4.71c-8.45-10.14-0.63-10.58,3.79-6.28c3.74,3.63,5.68,6.65,14.25,10.57
				c3.7,1.69,5.81,4.38,5.58,9.38c-0.15,3.35-4.94,11.31-14.9,4.9c-9.55-6.15-13.78-10.02-17.59-16.83
				c-3.87-6.91,0.15-16.63,0.8-18.62c1.03-3.14,2.21-4.35,3.17-4.35C17.17,34.14,17.87,35.25,18.01,36.83"/>
		</defs>
		<clipPath id="SVGID_00000023279089641482550020000016710433869806824331_">
			<use xlink:href="#SVGID_00000098909897906681000240000002309966265940607384_"  style="overflow:visible;"/>
		</clipPath>
		
			<linearGradient id="SVGID_00000143601226437069301390000005777252953989973127_" gradientUnits="userSpaceOnUse" x1="-81.8859" y1="-115.0882" x2="-80.8458" y2="-115.0882" gradientTransform="matrix(36.5262 6.4406 -6.4406 36.5262 2259.314 4784.25)">
			<stop  offset="0" style="stop-color:#F09BA7"/>
			<stop  offset="0.0935" style="stop-color:#F1A5B0"/>
			<stop  offset="0.4902" style="stop-color:#F7CDD2"/>
			<stop  offset="0.8062" style="stop-color:#FBE5E6"/>
			<stop  offset="1" style="stop-color:#FCEEEE"/>
		</linearGradient>
		
			<polygon style="clip-path:url(#SVGID_00000023279089641482550020000016710433869806824331_);fill:url(#SVGID_00000143601226437069301390000005777252953989973127_);" points="
			9.16,25.64 53.16,33.56 44.01,86.6 0,78.68 		"/>
	</g>
</g>
<g id="レイヤー_5">
</g>
<linearGradient id="SVGID_00000110449224817862833120000012002653667394430865_" gradientUnits="userSpaceOnUse" x1="473.86" y1="27.3401" x2="583.65" y2="27.3401" gradientTransform="matrix(1 0 0 -1 0 94.8001)">
	<stop  offset="0" style="stop-color:#8AC23E"/>
	<stop  offset="1" style="stop-color:#28AC4B"/>
</linearGradient>
<path style="fill:url(#SVGID_00000110449224817862833120000012002653667394430865_);" d="M578.65,86h-99.79c-2.76,0-5-2.24-5-5
	V53.92c0-2.76,2.24-5,5-5h99.79c2.76,0,5,2.24,5,5V81C583.65,83.76,581.41,86,578.65,86z"/>
<g id="レイヤー_4のコピー">
	<g>
		<path class="st6" d="M547.66,67.1h-5.25c-0.8,0-1.6,0.06-2.69,0.19l-0.34-1.14c1.17,0.19,2.04,0.25,2.93,0.25h5.34v-9.23h-6.61
			c-0.86,0-1.7,0.06-2.84,0.19l-0.34-1.14c1.3,0.19,2.25,0.25,3.21,0.25h15.84c1.7-2.07,2.07-2.32,2.28-2.32
			c0.28,0,0.62,0.25,2.32,1.61c0.77,0.62,1.02,0.9,1.02,1.11s-0.09,0.31-0.4,0.31h-11.45v9.23h4.69c1.61-2.07,1.98-2.32,2.19-2.32
			c0.28,0,0.62,0.25,2.25,1.61c0.74,0.62,0.99,0.9,0.99,1.11s-0.09,0.31-0.4,0.31h-9.72v11.76h7.59c1.79-2.25,2.16-2.5,2.38-2.5
			c0.28,0,0.62,0.25,2.47,1.73c0.83,0.68,1.08,0.96,1.08,1.17s-0.09,0.31-0.4,0.31h-24.51c-0.93,0-1.82,0.06-3.06,0.19l-0.34-1.14
			c1.3,0.19,2.28,0.25,3.27,0.25h8.49V67.1H547.66z M557.69,75.71c-0.83,0-0.99-0.22-1.91-2.32c-0.65-1.42-1.3-2.35-2.56-3.58
			c-0.12-0.09,0-0.28,0.15-0.25c3.61,0.89,5.96,2.62,5.96,4.38C559.33,74.91,558.62,75.71,557.69,75.71z"/>
	</g>
	<g>
		<path class="st6" d="M499.22,72.01c1.17-0.46,2.31-0.96,3.3-1.45c0.12-0.06,0.28,0.31,0.15,0.4c-2.59,2.35-4.82,3.92-7.78,5.53
			c-0.06,0.96-0.25,1.33-0.68,1.33s-0.9-0.9-1.88-3.77c0.56-0.06,1.33-0.22,2.22-0.46c0.59-0.15,1.2-0.34,1.88-0.56V62.84h-1.57
			c-0.53,0-1.02,0.06-1.7,0.19l-0.34-1.14c0.74,0.19,1.33,0.25,1.88,0.25h1.73v-4.26c0-2.04-0.03-2.38-0.15-3.77
			c3.67,0.37,4.04,0.71,4.04,1.05c0,0.31-0.25,0.49-1.11,0.9v6.08h0.65c1.02-1.33,1.39-1.57,1.6-1.57c0.28,0,0.59,0.25,1.64,1.11
			c0.43,0.37,0.68,0.65,0.68,0.86s-0.09,0.31-0.4,0.31h-4.17L499.22,72.01L499.22,72.01z M518.3,74.35c0,1.48,0.09,3.43,0.09,4.63
			c0,1.23-0.25,1.76-1.02,2.28c-0.62,0.46-1.57,0.71-2.28,0.71c-0.59,0-0.74-0.06-0.9-0.77c-0.25-1.14-0.86-1.48-3.18-2.07
			c-0.16-0.03-0.16-0.4,0-0.4c1.36,0.06,2.84,0.12,3.92,0.12c0.4,0,0.49-0.12,0.49-0.52V66.26h-11.48c-0.71,0-1.39,0.06-2.32,0.18
			l-0.34-1.14c1.02,0.18,1.79,0.25,2.56,0.25H517c1.27-1.61,1.64-1.85,1.85-1.85c0.28,0,0.62,0.25,1.85,1.3
			c0.56,0.46,0.8,0.74,0.8,0.96s-0.09,0.31-0.4,0.31h-2.81v8.08H518.3z M511.54,58.36c-0.12,0.4-0.28,0.77-0.46,1.17
			c5.28,0.49,6.76,1.7,6.76,3.36c0,0.77-0.56,1.48-1.17,1.48c-0.46,0-0.83-0.18-1.3-0.74c-1.27-1.54-2.53-2.72-4.51-3.67
			c-1.39,2.53-4.04,3.98-8.3,4.82c-0.16,0.03-0.28-0.34-0.12-0.4c3.58-1.73,5.46-3.46,6.27-6.02h-3.21c-0.68,0-1.36,0.06-2.28,0.18
			l-0.34-1.14c1.02,0.18,1.76,0.25,2.53,0.25h3.49c0.16-0.71,0.28-1.82,0.28-2.5c0-0.37-0.03-0.77-0.09-1.6
			c3.49,0.46,3.92,0.56,3.92,0.99c0,0.28-0.19,0.43-0.93,0.77c-0.06,0.83-0.15,1.64-0.34,2.35h3.86c1.33-1.64,1.7-1.88,1.91-1.88
			c0.28,0,0.59,0.25,1.79,1.3c0.52,0.49,0.77,0.77,0.77,0.99s-0.09,0.31-0.4,0.31h-8.13V58.36z M506.23,75.12v1.51
			c0,0.83-0.49,1.17-1.57,1.17c-0.83,0-1.23-0.25-1.23-0.96c0-0.9,0.12-1.88,0.12-5.59c0-1.11-0.03-2.28-0.09-3.4
			c1.42,0.56,1.67,0.71,3.03,1.42h3.27c0.96-1.08,1.2-1.27,1.45-1.27c0.31,0,0.56,0.19,1.51,0.99c0.43,0.37,0.62,0.59,0.62,0.83
			s-0.12,0.4-0.71,0.8v0.77c0,2.22,0.03,3.92,0.03,4.42c0,0.86-0.49,1.17-1.61,1.17c-0.8,0-1.14-0.31-1.14-0.9v-0.99h-3.68V75.12z
			 M509.9,70h-3.67v4.41h3.67V70z"/>
	</g>
</g>
<linearGradient id="SVGID_00000036220373957232804450000008913165381055072426_" gradientUnits="userSpaceOnUse" x1="110.0677" y1="63.8472" x2="237.559" y2="63.8472">
	<stop  offset="0" style="stop-color:#84B842"/>
	<stop  offset="1" style="stop-color:#30A24A"/>
</linearGradient>
<path style="fill:url(#SVGID_00000036220373957232804450000008913165381055072426_);" d="M120.96,64.24c0,1.84-2.33,9.42-3.43,12.32
	c-0.9,2.45-1.8,4.32-3.8,4.32c-1.55,0-3.67-1.22-3.67-3.06c0-0.94,0.24-1.43,1.06-2.94c1.39-2.57,2.61-6.77,3.06-8.81
	c0.61-2.73,0.98-4.49,3.26-4.49c0.33,0,0.69,0.04,1.06,0.12C119.49,61.91,120.96,62.52,120.96,64.24 M144.75,65.42
	c-1.35-2.81-3.71-5.18-6.77-5.18c-2.12,0-2.73,1.47-2.94,2.33c-0.04,0.24-0.08,0.49-0.08,0.81c0,0.9,0.37,1.39,0.61,1.63
	c0.25,0.25,1.63,1.1,1.92,1.35c2.08,1.75,2.53,7.3,2.77,10.69c0.08,1.02,0.29,3.22,3.3,3.22c0.94,0,2.12-0.33,2.78-1.06
	c0.45-0.49,0.69-1.22,0.69-2.49C147.03,76.31,146.46,68.93,144.75,65.42 M136.62,55.24c1.77-0.23,3.36-0.58,3.36-3.25
	c0-2.72-2.2-2.92-4.41-3.06c-4.81-0.3-9.3-0.98-11.46-1.39c-0.78-0.12-4.53-1.02-5.38-1.02c-2.04,0-2.53,1.75-2.65,2.73
	c-0.29,2.53,1.39,2.98,3.06,3.38c1.7,0.44,4.2,0.89,6.8,1.29c-2.05,1.22-3.46,3.22-3.29,6.1c0.23,3.85,2.57,6.85,3.67,8.12
	c2.2,2.57,3.06,3.55,3.06,5.43c0,0.45-0.08,2.77-2.9,2.77c-0.98,0-1.75-0.2-2.33-0.37c-1.51-0.49-1.67-0.57-2.29-0.57
	c-2.9,0-2.9,3.1-2.9,3.26c0,1.14,0.45,2,1.71,2.69c2.41,1.31,5.35,1.55,6.77,1.55c6.78,0,8.77-5.18,8.77-8.41
	c0-3.14-1.31-5.86-4.41-9.22C126.67,59.71,127.71,56.4,136.62,55.24 M164.1,47.3c0.61-0.82,1.55-1.02,2.45-1.02
	c1.59,0,3.47,0.49,3.47,2.73c0,0.57-0.12,1.22-0.33,2.45c3.26-0.08,7.22-0.16,9.79-0.28c0.49,0,2.69-0.16,3.14-0.16
	c0.82,0,3.22,0.04,3.22,3.06c0,2.77-2.04,2.94-3.3,3.02c-4.2,0.2-9.39,0.37-14.04,0.49c-1.06,5.18-6.04,22.65-7.71,24.4
	c-0.29,0.33-0.94,0.82-2.04,0.82c-1.14,0-3.75-0.61-3.75-2.94c0-0.9,0.65-2.37,1.06-3.22c1.63-3.67,3.63-9.79,4.73-13.99
	c0.45-1.75,0.94-3.92,1.18-4.94c-2.33,0.08-4.69,0.08-5.47-0.37c-1.06-0.61-1.23-1.84-1.23-2.61c0-2.53,1.31-3.1,3.35-3.1h4.41
	C163.62,48.24,163.65,47.88,164.1,47.3 M182.22,82.47c-9.67,0-13.91-1.55-13.91-6.89c0-0.53,0.04-4.98,4.04-4.98
	c1.47,0,3.06,0.61,3.06,2.08c0,0.41-0.12,0.73-0.2,0.94c-0.24,0.65-0.29,0.82-0.29,1.18c0,0.74,0.45,1.22,1.92,1.47
	c1.1,0.2,2.49,0.24,3.43,0.24c1.14,0,3.31-0.08,6-0.41c0.49-0.04,1.39-0.16,1.84-0.16c1.83,0,2.86,1.02,2.86,2.94
	C190.95,81.78,189.52,82.47,182.22,82.47 M188.79,66.19c-0.53,0.45-1.1,0.53-2.04,0.53c-0.69,0-3.75-0.16-4.37-0.16
	c-2.57,0-3.67,0.08-7.55,0.37c-0.24,0.04-0.9,0.08-1.47,0.08c-2.69,0-2.69-2.65-2.69-3.06c0-1.27,0.53-2.45,2.45-2.9
	c2.57-0.57,7.34-0.69,10.08-0.69c6.16,0,6.61,1.02,6.61,3.55C189.81,64.52,189.52,65.62,188.79,66.19 M207.94,49.67
	c0,0.49-0.81,5.59-0.94,6.65c-0.33,3.26-0.49,6.61-0.49,9.91c0,3.59,0.2,7.34,0.69,10.93c0.12,0.9,0.24,2.08,0.24,2.57
	c0,1.96-1.18,2.82-3.1,2.82c-0.77,0-2.53-0.04-3.1-2.04c-0.61-2.08-1.02-8.77-1.02-14.57c0-8.85,1.14-15.87,1.43-16.85
	c0.29-1.1,0.98-2.53,3.76-2.16C207.41,47.22,207.94,48.2,207.94,49.67 M221.44,50.24c-0.04-1.14,0.04-3.43,3.26-3.43
	c3.26,0,3.35,2.16,3.35,3.43l0.04,3.51c0.65-0.04,3.96-0.16,4.16-0.16c0.81,0,3.14,0,3.14,3.1c0,2.04-1.14,2.65-1.67,2.82
	c-0.65,0.16-0.94,0.2-5.55,0.41l0.08,8.16c3.26,1.75,5.14,3.22,6.28,4.32c0.82,0.82,1.35,1.75,1.35,2.82c0,1.8-1.47,3.59-3.26,3.59
	c-1.14,0-1.55-0.45-2.94-2c-0.17-0.16-1.59-1.39-1.8-1.55c-0.12,2.24-0.37,7.34-8.61,7.34c-7.26,0-9.92-4.2-9.92-8.32
	c0-4.9,3.75-8.24,9.63-8.24c1.31,0,2.2,0.16,2.86,0.25l-0.16-6.12c-2.81,0.12-6.28,0.12-9.14,0.12c-1.02,0-3.3,0-3.3-3.1
	c0-2.41,1.47-2.81,2.36-2.94c0.49-0.04,8.12-0.2,9.91-0.2L221.44,50.24z M218.96,71.34c-0.98,0-4.04,0.2-4.04,3.06
	c0,2.82,3.06,2.9,3.67,2.9c0.9,0,2.61-0.2,3.14-1.59c0.2-0.57,0.24-0.9,0.2-3.71C221.12,71.62,220.38,71.34,218.96,71.34
	 M228.75,47.43c-0.12-0.29-0.12-0.57-0.12-0.69c0-1.06,1.1-1.31,1.59-1.31c0.69,0,1.18,0.53,1.47,1.35c0.69,1.8,1.22,3.26,1.22,4.16
	c0,1.35-1.31,1.43-1.55,1.43c-0.57,0-0.98-0.2-1.27-1.02c-0.08-0.29-0.57-1.75-0.65-2.04C229.32,49.02,228.87,47.79,228.75,47.43
	 M233.4,46.77c-0.12-0.29-0.12-0.61-0.12-0.69c0-1.06,1.18-1.31,1.63-1.31c0.86,0,1.18,0.69,1.63,1.76c0.45,1.1,1.02,2.9,1.02,3.75
	c0,1.35-1.39,1.39-1.59,1.39c-0.41,0-0.94-0.12-1.26-1.02c-0.08-0.28-0.53-1.71-0.61-2C234.01,48.36,233.48,47.06,233.4,46.77"/>
<g>
	<g>
		<path class="st8" d="M272.23,57.78h-12.87c0.57-1.56,0.57-1.77,0.57-1.98c0-1.23-1.45-1.47-2.2-1.47c-1.57,0-1.87,0.72-2.62,3.46
			h-7.46c-1.23,0-1.9,0.66-1.9,1.86c0,1.14,0.63,1.84,1.9,1.84h6.01c-0.84,1.83-2.59,4.93-5.29,7.19c-2.68,2.26-2.8,2.35-2.8,3.22
			c0,1.26,0.9,2.26,2.04,2.26c0.6,0,0.93-0.15,2.44-1.47v8.48c0,1.11,0.45,1.78,1.98,1.78c1.8,0,1.8-1.35,1.8-1.78V68.43
			c2.2-2.89,3.61-5.92,4.03-6.95h14.34c1.23,0,1.89-0.66,1.89-1.86C274.13,58.35,273.35,57.78,272.23,57.78z"/>
		<path class="st8" d="M272.2,78.14h-5.83v-7.43h4.99c1.17,0,1.86-0.6,1.86-1.84c0-1.23-0.72-1.8-1.86-1.8h-4.99v-3.1
			c0-1.32-0.72-1.8-2.07-1.8c-1.45,0-1.77,0.93-1.77,1.8v3.1h-5.02c-1.2,0-1.9,0.63-1.9,1.83c0,1.26,0.78,1.8,1.9,1.8h5.02v7.43
			h-5.96c-1.23,0-1.89,0.63-1.89,1.86c0,1.23,0.72,1.83,1.89,1.83h15.64c1.23,0,1.9-0.69,1.9-1.86
			C274.1,78.59,273.19,78.14,272.2,78.14z"/>
		<path class="st8" d="M305.72,71.94c0.84-0.09,1.44-0.39,1.44-1.66c0-1.92-1.29-1.77-1.78-1.74l-12.36,1.14v-3.31
			c3.19-0.36,4.81-0.69,7.49-1.32c0.84-0.18,1.56-0.48,1.56-1.53c0-0.63-0.33-1.95-1.62-1.95c-0.36,0-0.93,0.12-1.18,0.18
			c-6.01,1.44-10.4,1.71-15.01,2.01c-0.21,0-0.75,0.06-1.11,0.27c0.09-0.24,0.15-0.42,0.15-1.02v-1.74c0-0.69,0.36-1.02,1.02-1.02
			h17.38c0.69,0,1.02,0.36,1.02,1.02v1.71c0,1.17,0.36,1.84,1.96,1.84c1.68,0,1.8-1.02,1.8-1.84v-2.5c0-2.68-1.14-3.49-3.46-3.49
			h-8.03v-1.11c0-1.23-0.9-1.5-2.17-1.5c-1.05,0-1.83,0.39-1.83,1.5V57h-7.94c-2.29,0-3.49,0.78-3.49,3.49v2.53
			c0,1.08,0.36,1.83,1.9,1.83c0.69,0,0.99-0.15,1.23-0.27c-0.15,0.3-0.15,0.63-0.15,0.75c0,0.48,0.09,1.89,1.68,1.89
			c1.17,0,2.28-0.09,4.9-0.36v3.19l-8.69,0.81c-0.87,0.09-1.5,0.42-1.5,1.59c0,2.01,1.35,1.89,1.83,1.84l8.36-0.78v5.44
			c0,0.99,0,3.28,2.77,3.43c0.81,0.06,1.53,0.06,9.65,0.06c2.83,0,4.51,0,4.51-6.05c0-0.54,0-1.92-1.98-1.92
			c-1.74,0-1.8,1.23-1.83,1.77c-0.12,2.07-0.15,2.53-0.9,2.71c-0.33,0.06-4.51,0.06-5.42,0.06c-2.22,0-2.28,0-2.47-0.09
			c-0.24-0.12-0.45-0.33-0.45-1.05v-4.72L305.72,71.94z"/>
	</g>
	<g>
		<path class="st9" d="M335.93,59.41h-9.11c0.81-1.53,0.96-2.04,0.96-2.59c0-1.08-1.23-1.56-2.14-1.56c-1.26,0-1.47,0.51-2.59,2.74
			c-0.45,0.93-2.8,4.72-6.28,7.31c-1.38,1.02-1.63,1.2-1.63,2.02c0,0.99,0.9,2.01,1.96,2.01c2.04,0,5.83-4.21,7.34-6.26h8.87
			c0.75,0,1.14,0,1.14,0.57c0,0.78-0.93,3.28-1.71,4.84c-3.13,6.11-8.27,8.09-13.23,9.32c-2.23,0.54-2.8,0.72-2.8,2.02
			c0,0.45,0.18,2.07,1.99,2.07c0.96,0,7.4-1.23,12.18-4.99c6.89-5.44,8.06-13.71,8.06-14.86C338.94,60.49,338.13,59.41,335.93,59.41
			z"/>
		<path class="st9" d="M351.38,71.01V57.93c0-1.44-0.78-1.93-2.14-1.93c-1.77,0-2.07,0.99-2.07,1.93v13.08
			c0,1.44,0.78,1.92,2.14,1.92C351.07,72.94,351.38,71.94,351.38,71.01z"/>
		<path class="st9" d="M364.61,55.61c-1.8,0-2.1,1.02-2.1,1.96V69c0,1.86-0.18,3.61-1.72,5.41c-1.59,1.84-3.88,2.8-8.66,3.25
			c-2.02,0.21-3.01,0.3-3.01,1.93c0,2.07,1.87,2.07,2.32,2.07c0.66,0,2.95-0.06,5.65-0.81c9.14-2.53,9.65-8.51,9.65-11.97V57.57
			C366.74,56.13,365.93,55.61,364.61,55.61z"/>
		<path class="st9" d="M378.1,61.93h18.22c1.05,0,1.98-0.42,1.98-1.98c0-1.96-1.53-1.96-1.98-1.96H378.1
			c-0.93,0-2.02,0.27-2.02,1.98C376.08,61.93,377.64,61.93,378.1,61.93z"/>
		<path class="st9" d="M398.54,75.4h-22.58c-1.2,0-2.02,0.51-2.02,1.98c0,1.95,1.5,1.95,2.02,1.95h22.58c1.2,0,1.99-0.51,1.99-1.98
			C400.53,75.43,399.03,75.4,398.54,75.4z"/>
		<path class="st9" d="M415.07,68.7c0.21,0.93,0.48,2.02,1.53,2.02c0.63,0,2.34-0.06,2.34-1.78c0-0.72-1.2-4.84-1.89-6.31
			c-0.36-0.81-0.66-1.41-1.77-1.41c-0.96,0-1.96,0.57-1.96,1.56c0,0.39,0.12,0.69,0.24,1.02C414.11,65.18,414.5,66.35,415.07,68.7z"
			/>
		<path class="st9" d="M425.75,62.08c-0.21-0.06-0.42-0.09-0.6-0.09c-1.41,0-1.66,1.05-1.84,1.87c-0.63,3.01-0.69,3.34-1.11,4.51
			c-2.44,7.07-7.85,8.87-10.26,9.59c-2.11,0.63-2.71,0.81-2.71,1.92c0,0.6,0.39,1.95,1.77,1.95c0.48,0,7.73-1.08,12.21-7.52
			c3.28-4.75,3.94-10.46,3.94-10.58C427.16,63.13,426.95,62.32,425.75,62.08z"/>
		<path class="st9" d="M412.3,70.29c0-0.45-0.09-0.78-0.33-1.47c-1.75-4.78-2.26-6.16-3.67-6.16c-0.93,0-2.01,0.57-2.01,1.62
			c0,0.42,0.15,0.75,0.3,1.08c0.6,1.29,1.11,2.44,1.83,4.78c0.33,1.05,0.6,1.93,1.65,1.93C410.74,72.07,412.3,71.79,412.3,70.29z"/>
		<path class="st9" d="M453.25,59.41h-9.11c0.81-1.53,0.96-2.04,0.96-2.59c0-1.08-1.23-1.56-2.13-1.56c-1.26,0-1.47,0.51-2.59,2.74
			c-0.45,0.93-2.79,4.72-6.28,7.31c-1.38,1.02-1.62,1.2-1.62,2.02c0,0.99,0.9,2.01,1.95,2.01c2.05,0,5.84-4.21,7.34-6.26h8.87
			c0.75,0,1.14,0,1.14,0.57c0,0.78-0.93,3.28-1.71,4.84c-3.13,6.11-8.27,8.09-13.23,9.32c-2.23,0.54-2.8,0.72-2.8,2.02
			c0,0.45,0.18,2.07,1.98,2.07c0.96,0,7.4-1.23,12.18-4.99c6.89-5.44,8.06-13.71,8.06-14.86C456.26,60.49,455.45,59.41,453.25,59.41
			z"/>
	</g>
</g>
<g>
	<g>
		<path class="st10" d="M200.82,19.09c0.27,0,1.25,0,1.25,1.15c0,1.17-0.99,1.17-1.25,1.17h-13.48c-0.53,0-0.84,0.25-0.84,0.84
			v11.82c0,0.58,0.29,0.82,0.84,0.82h13.89c0.27,0,1.27,0.02,1.27,1.17c0,1.17-0.99,1.17-1.27,1.17h-14.47
			c-1.83,0-2.75-0.64-2.75-2.75V21.85c0-2.14,0.92-2.75,2.75-2.75H200.82z M200.43,27.36c0.29,0,1.11,0,1.11,1.07
			c0,1.07-0.82,1.07-1.11,1.07h-4.34c1.21,1.29,1.97,1.95,4.48,2.73c0.41,0.12,0.86,0.29,0.86,1.03c0,0.45-0.25,1.32-1.15,1.32
			c-0.72,0-4.32-1.15-6.04-4.13c-1.97,3.37-5.08,4.09-5.63,4.09c-0.9,0-1.17-0.86-1.17-1.32c0-0.72,0.53-0.88,0.88-0.99
			c1.27-0.39,2.92-0.92,3.97-2.73h-4.13c-0.31,0-1.09,0-1.09-1.05c0-1.03,0.66-1.09,1.09-1.09h4.81c0-0.02,0.06-0.51,0.06-0.72
			v-1.25h-2.22c-1.13,1.64-1.58,1.79-2.01,1.79c-0.62,0-1.3-0.53-1.3-1.23c0-0.43,0.1-0.51,0.99-1.46c0.6-0.62,1.01-1.34,1.52-2.24
			c0.25-0.45,0.56-0.8,1.09-0.8c0.47,0,1.23,0.29,1.23,1.07c0,0.29-0.08,0.49-0.23,0.76h7.48c0.27,0,1.11,0,1.11,1.05
			c0,1.07-0.82,1.07-1.11,1.07h-4.21v1.25c0,0.29-0.04,0.58-0.06,0.72H200.43z"/>
		<path class="st10" d="M223.5,31.18c0,0.43,0,1.03-0.45,1.5c-0.51,0.53-1.15,0.53-1.58,0.53h-2.12v2.14c0,2.14-0.55,2.32-2.73,2.32
			c-1.32,0-2.06,0-2.06-1.13c0-0.66,0.35-1.03,1.01-1.03c0.08,0,0.78,0.02,0.84,0.02c0.39,0,0.47-0.14,0.47-0.55v-1.77h-2.18
			c-1.91,0-2.01-1.25-2.01-2.01v-1.38c-0.14,0.08-0.37,0.19-0.62,0.19c-0.55,0-0.97-0.53-1.03-1.09c-0.08,1.97-0.43,4.77-1.54,6.99
			c-0.76,1.52-1.13,1.69-1.66,1.69c-0.68,0-1.34-0.53-1.34-1.13c0-0.37,0.16-0.7,0.35-1.07c1.07-2.1,1.4-2.73,1.71-4.67
			c-0.39,0.29-1.17,0.82-1.69,0.82c-0.86,0-1.03-1.13-1.03-1.46c0-0.76,0.51-0.97,0.95-1.13c0.53-0.21,1.23-0.53,1.99-0.99v-2.06
			c-0.14,0.08-0.41,0.23-0.78,0.23c-0.62,0-0.72-0.35-1.05-1.23c-0.27-0.74-0.39-0.99-0.76-1.73c-0.04-0.1-0.14-0.35-0.14-0.64
			c0-0.64,0.68-1.07,1.21-1.07c0.62,0,0.84,0.49,1.52,2.03v-1.25c0-1.85,0.82-2.36,2.38-2.36h4.42v-0.64c0-0.9,0.84-1.01,1.21-1.01
			c0.62,0,1.32,0.16,1.32,1.01v0.64h6.15c0.47,0,1.21,0.1,1.21,0.99c0,0.76-0.47,1.03-1.21,1.03h-6.39
			c0.39,0.16,0.66,0.37,0.58,0.97h5.9c0.41,0,1.03,0.02,1.03,0.97c0,0.92-0.55,1.01-1.03,1.01h-3.43c0.92,0.99,1.03,1.09,1.38,1.38
			c0.14-0.16,0.72-0.92,0.86-1.07c0.16-0.16,0.35-0.19,0.53-0.19c0.49,0,1.11,0.37,1.11,0.84c0,0.39-0.68,1.11-1.01,1.46
			c0.21,0.1,1.11,0.6,1.3,0.72c0.39,0.25,0.43,0.45,0.43,0.72c0,0.6-0.39,1.25-1.11,1.25c-0.33,0-0.58-0.1-0.9-0.31V31.18z
			 M213.52,36.2c-0.64,0.43-1.77,1.13-2.34,1.13c-0.78,0-1.05-0.74-1.05-1.11c0-0.56,0.19-0.64,1.44-1.3
			c0.8-0.41,1.07-0.62,1.91-1.21c0.27-0.21,0.47-0.29,0.76-0.29c0.58,0,1.07,0.47,1.07,1.09C215.3,34.9,214.89,35.29,213.52,36.2z
			 M211.07,28.65c0.06-0.35,0.35-0.58,0.41-0.62c0.31-0.25,0.84-0.55,1.15-0.78c-0.25-0.27-0.53-0.58-0.78-0.82
			c-0.21-0.23-0.29-0.37-0.29-0.58c0-0.47,0.6-0.9,1.07-0.9c0.29,0,0.51,0.12,1.44,1.17c0.41-0.39,0.78-0.8,1.11-1.27h-2.84
			c-0.62,0-1.03-0.19-1.03-1.03s0.55-0.95,1.03-0.95h3.88c0.29-0.76,0.33-0.84,0.49-0.97h-4.93c-0.49,0-0.72,0.25-0.72,0.7V28.65z
			 M215.1,29.19h6.06v-0.41c0-0.29-0.12-0.49-0.49-0.49h-5.08c-0.41,0-0.49,0.23-0.49,0.49V29.19z M215.1,30.69v0.43
			c0,0.29,0.1,0.51,0.49,0.51h5.08c0.41,0,0.49-0.27,0.49-0.51v-0.43H215.1z M220.01,26.7c-0.86-0.95-1.13-1.44-1.34-1.85h-1.09
			c-0.29,0.47-0.64,1.05-1.3,1.85H220.01z M221.63,33.42c0.29,0,0.37,0.04,1.05,0.53c0.78,0.55,1.52,0.95,2.34,1.38
			c0.25,0.14,0.49,0.35,0.49,0.78c0,0.47-0.37,1.19-1.15,1.19c-0.49,0-1.62-0.72-2.16-1.07c-0.58-0.37-1.64-1.07-1.64-1.71
			C220.57,33.87,221.12,33.42,221.63,33.42z"/>
		<path class="st10" d="M233.23,34.04c-1.77,3.54-2.08,3.54-2.57,3.54c-0.66,0-1.38-0.53-1.38-1.21c0-0.47,0.16-0.72,1.03-2.1
			c0.82-1.27,1.42-2.61,2.1-4.09c0.14-0.33,0.35-0.74,0.99-0.74c0.51,0,1.23,0.37,1.23,1.11C234.62,31.24,233.64,33.24,233.23,34.04
			z M230.51,23.88c0.62,0,1.66,0.72,2.4,1.23c1.19,0.82,1.36,1.13,1.36,1.52c0,0.6-0.55,1.4-1.27,1.4c-0.35,0-0.49-0.1-1.71-1.01
			c-0.23-0.16-1.23-0.82-1.44-0.97c-0.37-0.25-0.49-0.41-0.49-0.97C229.36,24.58,229.9,23.88,230.51,23.88z M231.09,18.54
			c0.58,0,1.73,0.72,2.38,1.13c1.21,0.74,1.5,0.97,1.5,1.54c0,0.68-0.58,1.44-1.23,1.44c-0.35,0-0.43-0.06-1.69-0.9
			c-0.27-0.16-1.46-0.86-1.69-1.03c-0.21-0.12-0.47-0.31-0.47-0.88C229.9,19.28,230.43,18.54,231.09,18.54z M235.92,29.06
			c-0.37,0-1.25-0.02-1.25-1.19c0-1.01,0.64-1.19,1.25-1.19h4.46v-3.12h-3.64c-0.31,0-1.27,0-1.27-1.15c0-0.92,0.41-1.27,1.27-1.27
			h3.64v-1.52c0-0.47,0.08-1.25,1.19-1.25c0.9,0,1.36,0.27,1.36,1.25v1.52h3.82c0.31,0,1.25,0,1.25,1.15c0,0.97-0.45,1.27-1.25,1.27
			h-3.82v3.12h4.5c0.31,0,1.25,0,1.25,1.13c0,0.92-0.43,1.25-1.25,1.25h-6.19c-0.78,2.16-1.87,4.52-2.34,5.51
			c2.28-0.12,2.9-0.16,5.63-0.43c-0.43-0.72-0.51-0.86-1.29-2.01c-0.27-0.39-0.31-0.62-0.31-0.82c0-0.72,0.76-1.11,1.27-1.11
			c0.53,0,0.84,0.21,1.73,1.46c0.51,0.76,1.25,1.85,1.99,3.19c0.45,0.82,0.62,1.21,0.62,1.58c0,0.7-0.7,1.23-1.44,1.23
			c-0.7,0-0.95-0.45-1.05-0.68c-0.06-0.1-0.31-0.62-0.35-0.72c-4.44,0.64-9.89,0.92-10.13,0.92c-0.25,0-1.23,0-1.23-1.27
			c0-0.45,0.19-0.84,0.58-1.07c0.19-0.1,0.31-0.12,1.19-0.14c0.88-1.83,1.75-3.7,2.34-5.63H235.92z"/>
		<path class="st10" d="M260.66,19.73c0-0.37,0-1.34,1.42-1.34c1.42,0,1.44,0.92,1.44,1.34v1.97c0,1.56,0.25,5.9,2.67,9.17
			c1.19,1.62,2.77,2.92,4.54,3.86c0.49,0.27,0.99,0.56,0.99,1.27c0,0.58-0.47,1.56-1.5,1.56c-1.01,0-3.52-2.08-4.85-3.56
			c-1.64-1.81-2.67-4.07-3.27-6.43c-0.97,3.7-2.4,5.53-3.72,6.89c-1.17,1.21-3.41,3.1-4.44,3.1c-0.86,0-1.48-0.84-1.48-1.58
			c0-0.66,0.37-0.9,0.76-1.13c2.67-1.52,5.67-3.58,7.01-9.13c0.21-0.88,0.43-3.7,0.43-4.03V19.73z"/>
		<path class="st10" d="M280.05,21.42c1.05,0,1.87,0.39,1.87,1.71c0,0.88-0.27,1.83-1.83,3.97c0.47,0.53,0.86,0.9,1.56,1.56
			c0.82,0.76,0.99,0.9,0.99,1.34c0,0.58-0.53,1.27-1.21,1.27c-0.72,0-1.4-0.95-1.93-1.69v6.97c0,1.01-0.47,1.25-1.4,1.25
			c-1.07,0-1.17-0.72-1.17-1.25v-6.06c-0.84,0.68-1.25,1.03-1.85,1.03c-0.66,0-1.32-0.72-1.32-1.46c0-0.7,0.31-0.9,1.85-1.99
			c2.26-1.58,3.43-3.7,3.43-3.95c0-0.31-0.31-0.33-0.49-0.33h-3.33c-0.6,0-1.25-0.16-1.25-1.19c0-1.17,0.92-1.17,1.25-1.17h1.69
			v-1.85c0-0.95,0.43-1.27,1.38-1.27c1.15,0,1.21,0.86,1.21,1.27v1.85H280.05z M291.6,23.78c0.35,0,1.34,0,1.34,1.19
			c0,0.97-0.37,1.38-1.34,1.38h-2.94v8.28h3.29c0.33,0,1.32,0,1.32,1.17c0,0.95-0.37,1.36-1.32,1.36h-9.43c-0.37,0-1.46,0-1.46-1.19
			c0-1.01,0.47-1.34,1.46-1.34h3.52v-8.28h-2.8c-0.33,0-1.29,0-1.29-1.21c0-1.01,0.43-1.36,1.29-1.36h2.8v-4.17
			c0-0.47,0.06-1.27,1.21-1.27c1.03,0,1.42,0.35,1.42,1.27v4.17H291.6z"/>
		<path class="st10" d="M315.18,34.49c0,2.12-0.92,2.75-2.75,2.75h-12.21c-1.83,0-2.75-0.62-2.75-2.75V21.85
			c0-2.12,0.9-2.75,2.75-2.75h12.21c1.83,0,2.75,0.64,2.75,2.75V34.49z M312.67,22.32c0-0.6-0.33-0.84-0.82-0.84h-11.02
			c-0.6,0-0.82,0.35-0.82,0.84v11.7c0,0.55,0.27,0.84,0.82,0.84h11.02c0.53,0,0.82-0.27,0.82-0.84V22.32z M310.31,32.23
			c0,2.32-0.66,2.32-3.58,2.32c-0.95,0-1.64,0-1.64-1.09c0-1.07,0.76-1.07,1.05-1.07c0.16,0,0.88,0.04,1.03,0.04
			c0.66,0,0.74-0.29,0.74-0.66v-5.55h-6.62c-0.43,0-1.17,0-1.17-1.05c0-0.99,0.43-1.17,1.17-1.17h6.62v-1.34
			c0-0.82,0.35-1.17,1.13-1.17c0.82,0,1.27,0.21,1.27,1.17v1.34h1.07c0.43,0,1.17,0.02,1.17,1.07c0,0.99-0.41,1.15-1.17,1.15h-1.07
			V32.23z M304.59,28.69c0.39,0.55,1.05,1.5,1.05,2.06c0,0.84-0.92,1.19-1.38,1.19c-0.53,0-0.7-0.29-1.29-1.29
			c-0.29-0.49-0.51-0.8-1.15-1.71c-0.19-0.25-0.43-0.6-0.43-0.97c0-0.62,0.68-1.05,1.23-1.05
			C303.07,26.92,303.34,26.92,304.59,28.69z"/>
	</g>
	
		<linearGradient id="SVGID_00000141444804619966614150000007351424258948137899_" gradientUnits="userSpaceOnUse" x1="328.4996" y1="27.9835" x2="394.32" y2="27.9835">
		<stop  offset="0" style="stop-color:#84B842"/>
		<stop  offset="1" style="stop-color:#30A24A"/>
	</linearGradient>
	<path style="fill:url(#SVGID_00000141444804619966614150000007351424258948137899_);" d="M346.71,20.06c0.31,0,1.25,0,1.25,1.09
		c0,0.82-0.35,1.21-1.25,1.21h-7.19v4.46c0,2.65,0.78,4.73,2.96,6.39c1.34,1.01,3.04,1.48,4.38,1.83c0.68,0.19,1.01,0.41,1.01,1.09
		c0,0.41-0.18,1.52-1.3,1.52c-1.4,0-6.56-2.01-8.28-6.02c-0.27,0.68-0.78,1.95-2.84,3.6c-2.06,1.62-4.54,2.47-5.45,2.47
		c-1.17,0-1.32-1.17-1.32-1.5c0-0.8,0.51-1.01,1.01-1.13c4.21-1.11,7.3-2.84,7.3-8.69v-4.01h-7.26c-0.41,0-1.23-0.06-1.23-1.15
		c0-0.92,0.55-1.15,1.23-1.15h7.26V19.3c0-0.66,0.35-1.03,1.17-1.03c0.78,0,1.36,0.16,1.36,1.03v0.76H346.71z M336.08,28.53
		c0,0.53-0.51,0.97-1.54,1.77c0.6,0.56,0.8,0.78,0.8,1.17c0,0.68-0.74,1.21-1.23,1.21c-0.35,0-0.55-0.23-0.8-0.51
		c-0.12-0.14-0.25-0.27-0.6-0.64c-1.03,0.58-2.43,1.19-2.94,1.19c-0.8,0-1.03-0.78-1.03-1.17c0-0.55,0.37-0.76,0.78-0.92
		c0.97-0.39,1.07-0.43,1.48-0.62c-0.18-0.14-0.97-0.72-1.13-0.84c-0.14-0.12-0.29-0.29-0.29-0.58c0-0.49,0.47-1.01,1.11-1.01
		c0.27,0,0.51,0,2.18,1.3c0.33-0.23,0.64-0.49,1.23-1.03c0.16-0.14,0.35-0.33,0.72-0.37c-0.25,0.02-0.41-0.02-0.62-0.14
		c-0.23-0.14-1.13-0.92-1.32-1.09c-1.15,0.74-2.65,1.44-3.14,1.44c-0.68,0-0.95-0.72-0.95-1.13c0-0.53,0.39-0.7,0.68-0.82
		c1.19-0.49,1.32-0.53,1.64-0.72c-1.27-0.78-1.54-0.97-1.54-1.36c0-0.55,0.47-0.99,1.05-0.99c0.31,0,0.51,0.08,0.92,0.31
		c0.37,0.23,0.97,0.58,1.46,0.9c0.19-0.14,0.78-0.64,1.17-0.99c0.25-0.21,0.39-0.29,0.66-0.29c0.58,0,1.01,0.49,1.01,0.95
		c0,0.47-0.35,0.76-1.19,1.44c1.07,0.8,1.21,0.97,1.21,1.38c0,0.45-0.37,1.01-1.03,1.11C335.57,27.44,336.08,27.99,336.08,28.53z
		 M347.06,26.23c0,0.56-0.53,1.13-1.09,1.13c-0.29,0-0.45-0.12-0.7-0.33c-0.62-0.58-0.72-0.62-0.99-0.82
		c-1.11,0.7-2.69,1.48-3.23,1.48c-0.76,0-0.99-0.8-0.99-1.13c0-0.58,0.47-0.78,0.8-0.9c0.9-0.37,1.01-0.39,1.6-0.7
		c-0.23-0.12-1.21-0.66-1.4-0.78c-0.1-0.08-0.39-0.27-0.39-0.64c0-0.39,0.39-0.92,1.07-0.92c0.55,0,1.91,0.84,2.51,1.23
		c0.27-0.19,0.35-0.27,1.13-0.92c0.25-0.23,0.47-0.27,0.66-0.27c0.6,0,1.05,0.53,1.05,0.97c0,0.43-0.35,0.72-1.11,1.36
		C346.85,25.61,347.06,25.84,347.06,26.23z M345.64,27.71c0.25-0.25,0.47-0.35,0.74-0.35c0.6,0,1.09,0.49,1.09,1.01
		c0,0.47-0.37,0.82-1.34,1.69c1.07,0.88,1.34,1.11,1.34,1.64c0,0.68-0.72,1.09-1.15,1.09c-0.29,0-0.45-0.1-0.76-0.37
		c-0.62-0.55-0.64-0.58-1.19-1.03c-0.53,0.35-1.81,1.07-2.32,1.07c-0.64,0-1.05-0.68-1.05-1.19c0-0.49,0.33-0.68,0.51-0.78
		c0.16-0.08,0.9-0.41,1.05-0.47c-0.16-0.12-0.27-0.21-1.05-0.68c-0.23-0.14-0.53-0.39-0.53-0.82c0-0.49,0.51-1.03,1.11-1.03
		c0.49,0,1.79,0.86,2.41,1.29C344.84,28.49,344.92,28.43,345.64,27.71z M354.28,25.65c-0.35-0.45-0.66-0.82-1.5-1.66
		c-0.82-0.82-0.92-0.95-0.92-1.46c0-0.51,0.43-1.15,1.05-1.15c0.23,0,0.35,0.06,0.47,0.14c0.35-0.6,0.76-1.25,1.11-2.06
		c0.33-0.72,0.47-1.09,1.05-1.09c0.51,0,1.34,0.39,1.34,0.99c0,0.66-1.23,2.61-1.91,3.62c0.33,0.35,0.37,0.39,0.64,0.7
		c0.62-0.97,0.66-1.05,1.58-2.73c0.18-0.31,0.45-0.6,0.82-0.6c0.58,0,1.32,0.47,1.32,1.07c0,0.37-0.68,1.4-0.99,1.89
		c-1.13,1.73-1.79,2.53-2.69,3.68c0.39-0.02,0.55-0.02,1.89-0.12c-0.31-0.9-0.33-1.01-0.33-1.19c0-0.49,0.45-0.7,0.8-0.7
		c0.53,0,0.68,0.41,0.86,0.86c0.27,0.68,0.74,2.22,0.82,2.51c0.39-0.55,0.82-0.55,0.9-0.55c0.27,0,0.49,0.06,1.52,1.05
		c0.29,0.29,1.03,1.01,1.03,1.58c0,0.43-0.41,1.05-1.11,1.05c-0.31,0-0.37-0.06-1.01-0.72c-0.19-0.19-1.13-1.11-1.32-1.36
		c-0.19,0.29-0.53,0.41-0.86,0.41c-0.58,0-0.68-0.43-0.82-0.97c-0.18,0.02-0.29,0.04-1.19,0.14v7.73c0,0.29,0,1.09-0.99,1.09
		c-0.99,0-0.99-0.82-0.99-1.09v-7.52c-1.23,0.12-1.6,0.16-2.1,0.16c-0.58,0-1.09-0.29-1.09-1.19c0-1.03,0.64-1.03,1.56-1.07
		L354.28,25.65z M354.24,31.1c0,0.39-0.16,3.21-0.55,4.6c-0.08,0.31-0.25,0.72-0.82,0.72c-0.1,0-1.09,0-1.09-0.9
		c0-0.27,0.27-1.46,0.31-1.69c0.19-1.07,0.25-1.81,0.33-2.88c0.04-0.47,0.14-0.9,0.86-0.9C354.24,30.05,354.24,30.75,354.24,31.1z
		 M361.33,32.35c0.72-0.49,0.9-0.53,1.09-0.53c0.55,0,0.97,0.58,0.97,1.17c0,0.53-0.23,0.72-1.46,1.64
		c-0.55,0.41-1.99,1.42-2.51,1.42c-0.58,0-1.05-0.64-1.05-1.27c0-0.16,0.02-0.27,0.06-0.37c-0.72-0.06-0.74-0.31-0.88-1.62
		c-0.02-0.29-0.23-1.75-0.23-1.79c0-0.64,0.7-0.74,0.95-0.74c0.72,0,0.78,0.33,0.99,1.46c0.02,0.1,0.25,1.27,0.25,1.81
		C360.18,33.15,361.06,32.54,361.33,32.35z M366.12,35.35c0,1.95-0.41,2.3-2.43,2.3c-1.32,0-1.42,0-1.54-0.02
		c-0.6-0.1-0.9-0.66-0.9-1.21c0-0.53,0.18-1.19,1.07-1.19c0.16,0,0.82,0.04,0.95,0.02c0.31-0.04,0.45-0.16,0.45-0.64V27.3h-3.41
		c-0.29,0-1.05,0-1.05-1.01c0-0.78,0.29-1.11,1.05-1.11h6.82v-1.11h-5.84c-0.31,0-1.01-0.02-1.01-0.95c0-0.84,0.53-0.95,1.01-0.95
		h5.84v-0.62c0-0.21-0.06-0.49-0.49-0.49h-5.65c-0.29,0-1.03,0-1.03-0.99c0-0.76,0.25-1.11,1.03-1.11h6.43
		c1.42,0,2.16,0.49,2.16,2.22v4.07h0.6c0.6,0,0.92,0.37,0.92,1.01c0,0.99-0.68,1.03-1.05,1.03h-3.93v1.09
		c0.25,0.6,0.68,1.36,0.88,1.71c0.35-0.31,0.95-0.86,1.54-1.58c0.47-0.6,0.66-0.76,1.07-0.76c0.66,0,1.15,0.58,1.15,1.09
		c0,0.39-0.14,0.68-0.49,1.11c-0.78,0.92-1.48,1.56-1.97,1.99c0.51,0.62,0.95,1.05,1.38,1.4c1.09,0.9,1.4,1.15,1.4,1.71
		c0,0.62-0.58,1.34-1.27,1.34c-0.82,0-2.57-1.93-3.68-3.95V35.35z M380.3,26.12c-0.76,0-1.17-0.27-1.23-1.03
		c-0.8,0.47-2.3,1.34-3.02,1.34c-0.66,0-1.25-0.68-1.25-1.54c0-0.78,0.49-1.03,1.11-1.25c3.1-1.17,4.91-2.9,6.43-4.36
		c0.82-0.8,1.15-1.11,2.22-1.11c1.07,0,1.34,0.29,2.53,1.44c1.13,1.13,2.82,2.73,6.21,4.11c0.62,0.25,1.03,0.47,1.03,1.21
		c0,0.82-0.6,1.52-1.32,1.52c-0.66,0-2.14-0.84-2.9-1.32c-0.1,0.88-0.7,0.99-1.25,0.99H380.3z M383.14,30.44
		c-0.49,1.19-0.95,2.16-2.03,4.09c2.92-0.1,3.41-0.14,7.71-0.39c-0.31-0.39-0.41-0.49-1.21-1.38c-0.45-0.49-0.53-0.74-0.53-1.01
		c0-0.62,0.76-1.17,1.42-1.17c0.35,0,0.66,0.14,1.05,0.53c0.82,0.8,1.77,1.83,2.73,3.06c0.99,1.23,1.21,1.62,1.21,2.08
		c0,0.72-0.88,1.36-1.6,1.36c-0.47,0-0.7-0.27-0.82-0.45c-0.08-0.12-0.51-0.78-0.62-0.92c-2.14,0.25-4.36,0.41-6.54,0.55
		c-1.03,0.08-6.33,0.39-7.15,0.39c-0.33,0-1.27,0-1.27-1.32c0-0.18,0-1.11,0.92-1.19c0.19-0.02,1.62-0.06,1.93-0.06
		c0.74-1.36,1.48-2.71,1.97-4.17h-3.8c-0.86,0-1.25-0.39-1.25-1.29c0-1.15,0.97-1.15,1.25-1.15h16.07c0.84,0,1.25,0.35,1.25,1.27
		c0,1.17-0.97,1.17-1.25,1.17H383.14z M388.17,23.84c-0.64-0.47-1.85-1.4-3.02-2.71c-0.31-0.33-0.39-0.41-0.58-0.41
		s-0.27,0.08-0.58,0.41c-0.92,1.01-1.93,1.91-3.02,2.71H388.17z"/>
</g>
</svg>
