<?xml version="1.0" encoding="utf-8"?>
<!-- Generator: Adobe Illustrator 26.3.1, SVG Export Plug-In . SVG Version: 6.00 Build 0)  -->
<svg version="1.1" id="レイヤー_1" xmlns="http://www.w3.org/2000/svg" xmlns:xlink="http://www.w3.org/1999/xlink" x="0px"
	 y="0px" width="220px" height="45px" viewBox="0 0 220 45" style="enable-background:new 0 0 220 45;" xml:space="preserve">
<style type="text/css">
	.st0{fill:url(#SVGID_1_);}
	.st1{fill:#E798A2;}
	.st2{fill:#F0BD58;}
	.st3{display:none;}
	.st4{display:inline;}
	.st5{fill:#A6957E;}
	.st6{display:inline;fill:url(#SVGID_00000063613265287944732100000003412480438774169015_);}
	.st7{fill:#A8977F;}
	.st8{fill:url(#SVGID_00000147929564717106324890000005312017828690513069_);}
	.st9{fill:url(#SVGID_00000141423606707214809890000002315403041875666836_);}
	.st10{fill:url(#SVGID_00000091708539498263234620000016425099488044478644_);}
	.st11{fill:url(#SVGID_00000003802976345000145060000014626567137631345825_);}
	.st12{fill:url(#SVGID_00000070818542717179729340000012192557123539633800_);}
	.st13{fill:#86B943;}
	.st14{fill:#32A44A;}
	
		.st15{clip-path:url(#SVGID_00000059303933856219874850000002413542799245173398_);fill:url(#SVGID_00000153704141256880072140000015951258779721134730_);}
	
		.st16{clip-path:url(#SVGID_00000037693631950577322830000014373360768424221350_);fill:url(#SVGID_00000161608719744507853900000011180352886550389937_);}
</style>
<linearGradient id="SVGID_1_" gradientUnits="userSpaceOnUse" x1="53.4231" y1="14.3636" x2="114.7103" y2="14.3636" gradientTransform="matrix(1 0 0 -1 0 45)">
	<stop  offset="0" style="stop-color:#86B943"/>
	<stop  offset="1" style="stop-color:#32A44A"/>
</linearGradient>
<path class="st0" d="M58.663,30.825c0,0.879-1.12,4.501-1.649,5.886c-0.433,1.171-0.865,2.064-1.827,2.064
	c-0.745,0-1.764-0.583-1.764-1.462c0-0.449,0.115-0.683,0.51-1.405c0.668-1.228,1.255-3.235,1.471-4.209
	c0.293-1.304,0.471-2.145,1.567-2.145c0.159,0,0.332,0.019,0.51,0.057C57.956,29.712,58.663,30.008,58.663,30.825 M70.095,31.389
	c-0.649-1.343-1.783-2.475-3.254-2.475c-1.019,0-1.312,0.702-1.413,1.113c-0.019,0.115-0.038,0.234-0.038,0.387
	c0,0.43,0.178,0.664,0.293,0.779c0.12,0.119,0.784,0.526,0.923,0.645c1,0.836,1.216,3.488,1.332,5.107
	c0.038,0.487,0.139,1.538,1.586,1.538c0.452,0,1.019-0.158,1.336-0.506c0.216-0.234,0.332-0.583,0.332-1.19
	C71.195,36.597,70.921,33.066,70.095,31.389 M66.186,26.53c0.851-0.11,1.615-0.277,1.615-1.553c0-1.3-1.058-1.395-2.12-1.462
	c-2.312-0.143-4.471-0.468-5.509-0.664c-0.375-0.057-2.178-0.487-2.586-0.487c-0.981,0-1.216,0.836-1.274,1.304
	c-0.139,1.209,0.668,1.424,1.471,1.615c0.817,0.21,2.019,0.425,3.269,0.616c-0.985,0.583-1.663,1.538-1.582,2.914
	c0.111,1.839,1.235,3.273,1.764,3.88c1.058,1.228,1.471,1.696,1.471,2.594c0,0.215-0.038,1.323-1.394,1.323
	c-0.471,0-0.841-0.096-1.12-0.177c-0.726-0.234-0.803-0.272-1.101-0.272c-1.394,0-1.394,1.481-1.394,1.558
	c0,0.545,0.216,0.956,0.822,1.285c1.159,0.626,2.572,0.741,3.254,0.741c3.259,0,4.216-2.475,4.216-4.018c0-1.5-0.63-2.8-2.12-4.405
	C61.408,28.661,61.908,27.084,66.186,26.53 M79.401,22.736c0.293-0.392,0.745-0.487,1.178-0.487c0.764,0,1.668,0.234,1.668,1.304
	c0,0.272-0.058,0.583-0.159,1.171c1.567-0.038,3.471-0.076,4.706-0.134c0.236,0,1.293-0.076,1.509-0.076
	c0.394,0,1.548,0.019,1.548,1.462c0,1.323-0.981,1.405-1.586,1.443c-2.019,0.096-4.514,0.177-6.749,0.234
	c-0.51,2.475-2.904,10.822-3.706,11.658c-0.139,0.158-0.452,0.392-0.981,0.392c-0.548,0-1.803-0.291-1.803-1.405
	c0-0.43,0.312-1.132,0.51-1.538c0.784-1.753,1.745-4.677,2.274-6.684c0.216-0.836,0.452-1.873,0.567-2.36
	c-1.12,0.038-2.255,0.038-2.63-0.177c-0.51-0.291-0.591-0.879-0.591-1.247c0-1.209,0.63-1.481,1.61-1.481h2.12
	C79.166,23.185,79.185,23.009,79.401,22.736 M88.107,39.54c-4.649,0-6.687-0.741-6.687-3.292c0-0.253,0.019-2.379,1.942-2.379
	c0.707,0,1.471,0.291,1.471,0.994c0,0.196-0.058,0.349-0.096,0.449c-0.115,0.311-0.139,0.392-0.139,0.564
	c0,0.354,0.216,0.583,0.923,0.702c0.529,0.096,1.197,0.115,1.649,0.115c0.548,0,1.591-0.038,2.884-0.196
	c0.236-0.019,0.668-0.076,0.885-0.076c0.88,0,1.375,0.487,1.375,1.405C92.304,39.205,91.621,39.54,88.107,39.54 M91.265,31.762
	c-0.255,0.215-0.529,0.253-0.981,0.253c-0.332,0-1.803-0.076-2.101-0.076c-1.235,0-1.764,0.038-3.629,0.177
	c-0.115,0.019-0.433,0.038-0.707,0.038c-1.293,0-1.293-1.266-1.293-1.462c0-0.607,0.255-1.171,1.178-1.386
	c1.235-0.272,3.528-0.33,4.846-0.33c2.961,0,3.178,0.487,3.178,1.696C91.756,30.964,91.621,31.489,91.265,31.762 M100.471,23.864
	c0,0.234-0.389,2.671-0.452,3.177c-0.159,1.558-0.236,3.158-0.236,4.735c0,1.715,0.096,3.507,0.332,5.222
	c0.058,0.43,0.115,0.994,0.115,1.228c0,0.936-0.567,1.347-1.49,1.347c-0.37,0-1.216-0.019-1.49-0.975
	c-0.293-0.994-0.49-4.19-0.49-6.961c0-4.228,0.548-7.582,0.687-8.05c0.139-0.526,0.471-1.209,1.808-1.032
	C100.217,22.698,100.471,23.166,100.471,23.864 M106.966,24.141c-0.019-0.545,0.019-1.639,1.567-1.639
	c1.567,0,1.61,1.032,1.61,1.639l0.019,1.677c0.312-0.019,1.904-0.076,2-0.076c0.389,0,1.509,0,1.509,1.481
	c0,0.975-0.548,1.266-0.803,1.347c-0.312,0.076-0.452,0.096-2.668,0.196l0.038,3.899c1.567,0.836,2.471,1.538,3.019,2.064
	c0.394,0.392,0.649,0.836,0.649,1.347c0,0.86-0.707,1.715-1.567,1.715c-0.548,0-0.745-0.215-1.413-0.956
	c-0.082-0.076-0.764-0.664-0.865-0.741c-0.058,1.07-0.178,3.507-4.139,3.507c-3.49,0-4.769-2.007-4.769-3.975
	c0-2.341,1.803-3.937,4.629-3.937c0.63,0,1.058,0.076,1.375,0.119l-0.077-2.924c-1.351,0.057-3.019,0.057-4.394,0.057
	c-0.49,0-1.586,0-1.586-1.481c0-1.151,0.707-1.343,1.135-1.405c0.236-0.019,3.903-0.096,4.764-0.096L106.966,24.141z
	 M105.769,34.217c-0.471,0-1.942,0.096-1.942,1.462c0,1.347,1.471,1.386,1.764,1.386c0.433,0,1.255-0.096,1.509-0.76
	c0.096-0.272,0.115-0.43,0.096-1.773C106.807,34.351,106.456,34.217,105.769,34.217 M110.475,22.794
	c-0.058-0.139-0.058-0.272-0.058-0.33c0-0.506,0.529-0.626,0.764-0.626c0.332,0,0.567,0.253,0.707,0.645
	c0.332,0.86,0.586,1.558,0.586,1.988c0,0.645-0.63,0.683-0.745,0.683c-0.274,0-0.471-0.096-0.611-0.487
	c-0.038-0.139-0.274-0.836-0.312-0.975C110.749,23.553,110.533,22.97,110.475,22.794 M112.71,22.483
	c-0.058-0.139-0.058-0.291-0.058-0.33c0-0.506,0.567-0.626,0.784-0.626c0.413,0,0.567,0.33,0.784,0.841
	c0.216,0.526,0.49,1.386,0.49,1.792c0,0.645-0.668,0.664-0.764,0.664c-0.197,0-0.452-0.057-0.606-0.487
	c-0.038-0.134-0.255-0.817-0.293-0.956C113.004,23.243,112.749,22.617,112.71,22.483"/>
<g>
	<g>
		<path class="st1" d="M131.382,27.743h-6.187c0.274-0.745,0.274-0.846,0.274-0.946c0-0.588-0.697-0.702-1.058-0.702
			c-0.755,0-0.899,0.344-1.259,1.653h-3.586c-0.591,0-0.913,0.315-0.913,0.889c0,0.545,0.303,0.879,0.913,0.879h2.889
			c-0.404,0.874-1.245,2.355-2.543,3.435c-1.288,1.08-1.346,1.123-1.346,1.538c0,0.602,0.433,1.08,0.981,1.08
			c0.288,0,0.447-0.072,1.173-0.702v4.052c0,0.53,0.216,0.85,0.952,0.85c0.865,0,0.865-0.645,0.865-0.85v-6.092
			c1.058-1.381,1.735-2.828,1.937-3.321h6.894c0.591,0,0.909-0.315,0.909-0.889C132.29,28.016,131.915,27.743,131.382,27.743z"/>
		<path class="st1" d="M131.367,37.471h-2.803v-3.55h2.399c0.562,0,0.894-0.287,0.894-0.879c0-0.588-0.346-0.86-0.894-0.86h-2.399
			v-1.481c0-0.631-0.346-0.86-0.995-0.86c-0.697,0-0.851,0.444-0.851,0.86v1.481h-2.413c-0.577,0-0.913,0.301-0.913,0.874
			c0,0.602,0.375,0.86,0.913,0.86h2.413v3.55h-2.865c-0.591,0-0.909,0.301-0.909,0.889c0,0.588,0.346,0.874,0.909,0.874h7.518
			c0.591,0,0.913-0.33,0.913-0.889C132.276,37.686,131.843,37.471,131.367,37.471z"/>
		<path class="st1" d="M147.481,34.509c0.404-0.043,0.692-0.186,0.692-0.793c0-0.917-0.62-0.846-0.856-0.831l-5.942,0.545v-1.581
			c1.533-0.172,2.312-0.33,3.601-0.631c0.404-0.086,0.75-0.229,0.75-0.731c0-0.301-0.159-0.932-0.779-0.932
			c-0.173,0-0.447,0.057-0.567,0.086c-2.889,0.688-4.999,0.817-7.216,0.96c-0.101,0-0.361,0.029-0.534,0.129
			c0.043-0.115,0.072-0.201,0.072-0.487v-0.831c0-0.33,0.173-0.487,0.49-0.487h8.355c0.332,0,0.49,0.172,0.49,0.487v0.817
			c0,0.559,0.173,0.879,0.942,0.879c0.808,0,0.865-0.487,0.865-0.879v-1.194c0-1.28-0.548-1.667-1.663-1.667h-3.86v-0.53
			c0-0.588-0.433-0.717-1.043-0.717c-0.505,0-0.88,0.186-0.88,0.717v0.53h-3.817c-1.101,0-1.678,0.373-1.678,1.667v1.209
			c0,0.516,0.173,0.874,0.913,0.874c0.332,0,0.476-0.072,0.591-0.129c-0.072,0.143-0.072,0.301-0.072,0.358
			c0,0.229,0.043,0.903,0.812,0.903c0.562,0,1.096-0.043,2.356-0.172v1.524l-4.177,0.387c-0.418,0.043-0.721,0.201-0.721,0.76
			c0,0.96,0.649,0.903,0.88,0.879l4.019-0.373v2.599c0,0.473,0,1.567,1.332,1.639c0.389,0.029,0.736,0.029,4.639,0.029
			c1.36,0,2.168,0,2.168-2.891c0-0.258,0-0.917-0.952-0.917c-0.836,0-0.865,0.588-0.88,0.846c-0.058,0.989-0.072,1.209-0.433,1.295
			c-0.159,0.029-2.168,0.029-2.606,0.029c-1.067,0-1.096,0-1.187-0.043c-0.115-0.057-0.216-0.158-0.216-0.502v-2.255L147.481,34.509
			z"/>
	</g>
	<g>
		<path class="st2" d="M162.004,28.517h-4.379c0.389-0.731,0.462-0.975,0.462-1.237c0-0.516-0.591-0.745-1.029-0.745
			c-0.606,0-0.707,0.244-1.245,1.309c-0.216,0.444-1.346,2.255-3.019,3.493c-0.663,0.487-0.784,0.573-0.784,0.965
			c0,0.473,0.433,0.96,0.942,0.96c0.981,0,2.803-2.011,3.528-2.991h4.264c0.361,0,0.548,0,0.548,0.272
			c0,0.373-0.447,1.567-0.822,2.312c-1.505,2.919-3.976,3.865-6.36,4.453c-1.072,0.258-1.346,0.344-1.346,0.965
			c0,0.215,0.087,0.989,0.957,0.989c0.461,0,3.557-0.588,5.855-2.384c3.312-2.599,3.875-6.55,3.875-7.1
			C163.451,29.033,163.056,28.517,162.004,28.517z"/>
		<path class="st2" d="M169.426,34.064v-6.249c0-0.688-0.375-0.922-1.029-0.922c-0.851,0-0.995,0.473-0.995,0.922v6.249
			c0,0.688,0.375,0.917,1.029,0.917C169.282,34.982,169.426,34.509,169.426,34.064z"/>
		<path class="st2" d="M175.786,26.707c-0.865,0-1.01,0.487-1.01,0.936v5.461c0,0.889-0.087,1.725-0.827,2.585
			c-0.764,0.879-1.865,1.338-4.163,1.553c-0.971,0.1-1.447,0.143-1.447,0.922c0,0.989,0.899,0.989,1.115,0.989
			c0.317,0,1.418-0.029,2.716-0.387c4.394-1.209,4.639-4.066,4.639-5.719v-5.404C176.815,26.95,176.421,26.707,175.786,26.707z"/>
		<path class="st2" d="M182.271,29.726h8.759c0.505,0,0.952-0.201,0.952-0.946c0-0.936-0.736-0.936-0.952-0.936h-8.759
			c-0.447,0-0.971,0.129-0.971,0.946C181.305,29.726,182.055,29.726,182.271,29.726z"/>
		<path class="st2" d="M192.102,36.162h-10.855c-0.577,0-0.971,0.244-0.971,0.946c0,0.932,0.721,0.932,0.971,0.932h10.855
			c0.577,0,0.957-0.244,0.957-0.946C193.058,36.176,192.332,36.162,192.102,36.162z"/>
		<path class="st2" d="M200.048,32.956c0.101,0.444,0.231,0.965,0.736,0.965c0.303,0,1.125-0.029,1.125-0.85
			c0-0.344-0.577-2.312-0.909-3.015c-0.173-0.387-0.317-0.674-0.851-0.674c-0.462,0-0.942,0.272-0.942,0.745
			c0,0.186,0.058,0.33,0.115,0.487C199.586,31.274,199.774,31.838,200.048,32.956z"/>
		<path class="st2" d="M205.177,29.798c-0.101-0.029-0.202-0.043-0.288-0.043c-0.678,0-0.798,0.502-0.885,0.893
			c-0.303,1.438-0.332,1.596-0.534,2.155c-1.173,3.378-3.774,4.238-4.932,4.582c-1.014,0.301-1.303,0.387-1.303,0.917
			c0,0.287,0.187,0.932,0.851,0.932c0.231,0,3.716-0.516,5.87-3.593c1.577-2.269,1.894-4.998,1.894-5.055
			C205.86,30.3,205.759,29.913,205.177,29.798z"/>
		<path class="st2" d="M198.716,33.72c0-0.215-0.043-0.373-0.159-0.702c-0.841-2.284-1.086-2.943-1.764-2.943
			c-0.447,0-0.966,0.272-0.966,0.774c0,0.201,0.072,0.358,0.144,0.516c0.288,0.616,0.534,1.166,0.88,2.284
			c0.159,0.502,0.288,0.922,0.793,0.922C197.966,34.566,198.716,34.437,198.716,33.72z"/>
		<path class="st2" d="M218.402,28.517h-4.379c0.389-0.731,0.461-0.975,0.461-1.237c0-0.516-0.591-0.745-1.024-0.745
			c-0.606,0-0.707,0.244-1.245,1.309c-0.216,0.444-1.341,2.255-3.019,3.493c-0.663,0.487-0.779,0.573-0.779,0.965
			c0,0.473,0.433,0.96,0.937,0.96c0.985,0,2.807-2.011,3.528-2.991h4.264c0.361,0,0.548,0,0.548,0.272
			c0,0.373-0.447,1.567-0.822,2.312c-1.505,2.919-3.976,3.865-6.36,4.453c-1.072,0.258-1.346,0.344-1.346,0.965
			c0,0.215,0.087,0.989,0.952,0.989c0.461,0,3.557-0.588,5.855-2.384c3.312-2.599,3.875-6.55,3.875-7.1
			C219.844,29.033,219.455,28.517,218.402,28.517z"/>
	</g>
</g>
<g class="st3">
	<g class="st4">
		<path class="st5" d="M97.053,9.258c0.13,0,0.601,0,0.601,0.549c0,0.559-0.476,0.559-0.601,0.559h-6.485
			c-0.255,0-0.404,0.119-0.404,0.401v5.647c0,0.277,0.139,0.392,0.404,0.392h6.677c0.13,0,0.611,0.01,0.611,0.559
			c0,0.559-0.476,0.559-0.611,0.559H90.29c-0.88,0-1.322-0.306-1.322-1.314v-6.039c0-1.022,0.442-1.314,1.322-1.314H97.053z
			 M96.866,13.205c0.139,0,0.534,0,0.534,0.511c0,0.511-0.394,0.511-0.534,0.511H94.78c0.582,0.616,0.947,0.932,2.154,1.304
			c0.197,0.057,0.413,0.139,0.413,0.492c0,0.215-0.12,0.631-0.553,0.631c-0.346,0-2.077-0.549-2.904-1.973
			c-0.947,1.61-2.442,1.954-2.706,1.954c-0.433,0-0.562-0.411-0.562-0.631c0-0.344,0.255-0.42,0.423-0.473
			c0.611-0.186,1.404-0.44,1.908-1.304h-1.985c-0.149,0-0.524,0-0.524-0.502c0-0.492,0.317-0.521,0.524-0.521h2.312
			c0-0.01,0.029-0.244,0.029-0.344v-0.597h-1.067c-0.543,0.784-0.76,0.855-0.966,0.855c-0.298,0-0.625-0.253-0.625-0.588
			c0-0.205,0.048-0.244,0.476-0.698c0.288-0.296,0.486-0.64,0.731-1.07c0.12-0.215,0.269-0.382,0.524-0.382
			c0.226,0,0.591,0.139,0.591,0.511c0,0.139-0.038,0.234-0.111,0.363h3.596c0.13,0,0.534,0,0.534,0.502
			c0,0.511-0.394,0.511-0.534,0.511h-2.024v0.597c0,0.139-0.019,0.277-0.029,0.344h2.461V13.205z"/>
		<path class="st5" d="M107.956,15.03c0,0.205,0,0.492-0.216,0.717C107.495,16,107.187,16,106.98,16h-1.019v1.022
			c0,1.022-0.264,1.108-1.312,1.108c-0.635,0-0.99,0-0.99-0.54c0-0.315,0.168-0.492,0.486-0.492c0.038,0,0.375,0.01,0.404,0.01
			c0.187,0,0.226-0.067,0.226-0.263V16h-1.048c-0.918,0-0.966-0.597-0.966-0.96V14.38c-0.067,0.038-0.178,0.091-0.298,0.091
			c-0.264,0-0.466-0.253-0.495-0.521c-0.038,0.941-0.207,2.279-0.74,3.34c-0.365,0.726-0.543,0.807-0.798,0.807
			c-0.327,0-0.644-0.253-0.644-0.54c0-0.177,0.077-0.334,0.168-0.511c0.514-1.003,0.673-1.304,0.822-2.231
			c-0.187,0.139-0.562,0.392-0.812,0.392c-0.413,0-0.495-0.54-0.495-0.698c0-0.363,0.245-0.463,0.457-0.54
			c0.255-0.1,0.591-0.253,0.957-0.473v-0.984c-0.067,0.038-0.197,0.11-0.375,0.11c-0.298,0-0.346-0.167-0.505-0.588
			c-0.13-0.354-0.187-0.473-0.365-0.827c-0.019-0.048-0.067-0.167-0.067-0.306c0-0.306,0.327-0.511,0.582-0.511
			c0.298,0,0.404,0.234,0.731,0.97v-0.597c0-0.884,0.394-1.128,1.144-1.128h2.125V9.33c0-0.43,0.404-0.483,0.582-0.483
			c0.298,0,0.635,0.076,0.635,0.483v0.306h2.956c0.226,0,0.582,0.048,0.582,0.473c0,0.363-0.226,0.492-0.582,0.492h-3.072
			c0.187,0.076,0.317,0.177,0.279,0.463h2.836c0.197,0,0.495,0.01,0.495,0.463c0,0.44-0.264,0.483-0.495,0.483h-1.649
			c0.442,0.473,0.495,0.521,0.663,0.659c0.067-0.076,0.346-0.44,0.413-0.511c0.077-0.076,0.168-0.091,0.255-0.091
			c0.236,0,0.534,0.177,0.534,0.401c0,0.186-0.327,0.53-0.486,0.698c0.101,0.048,0.534,0.287,0.625,0.344
			c0.187,0.119,0.207,0.215,0.207,0.344c0,0.287-0.187,0.597-0.534,0.597c-0.159,0-0.279-0.048-0.433-0.148v0.726H107.956z
			 M103.154,17.428c-0.308,0.205-0.851,0.54-1.125,0.54c-0.375,0-0.505-0.354-0.505-0.53c0-0.268,0.091-0.306,0.692-0.621
			c0.385-0.196,0.514-0.296,0.918-0.578c0.13-0.1,0.226-0.139,0.365-0.139c0.279,0,0.514,0.225,0.514,0.521
			C104.014,16.807,103.817,16.998,103.154,17.428z M101.976,13.826c0.029-0.167,0.168-0.277,0.197-0.296
			c0.149-0.119,0.404-0.263,0.553-0.373c-0.12-0.129-0.255-0.277-0.375-0.392c-0.101-0.11-0.139-0.177-0.139-0.277
			c0-0.225,0.288-0.43,0.514-0.43c0.139,0,0.245,0.057,0.692,0.559c0.197-0.186,0.375-0.382,0.534-0.607h-1.365
			c-0.298,0-0.495-0.091-0.495-0.492c0-0.401,0.264-0.454,0.495-0.454h1.865c0.139-0.363,0.159-0.401,0.236-0.463h-2.37
			c-0.236,0-0.346,0.119-0.346,0.334v2.891H101.976z M103.913,14.079h2.913v-0.196c0-0.139-0.058-0.234-0.236-0.234h-2.442
			c-0.197,0-0.236,0.11-0.236,0.234L103.913,14.079L103.913,14.079z M103.913,14.796v0.205c0,0.139,0.048,0.244,0.236,0.244h2.442
			c0.197,0,0.236-0.129,0.236-0.244v-0.205H103.913z M106.278,12.889c-0.413-0.454-0.543-0.688-0.644-0.884h-0.524
			c-0.139,0.225-0.308,0.502-0.625,0.884H106.278z M107.057,16.1c0.139,0,0.178,0.019,0.505,0.253
			c0.375,0.263,0.731,0.454,1.125,0.659c0.12,0.067,0.236,0.167,0.236,0.373c0,0.225-0.178,0.569-0.553,0.569
			c-0.236,0-0.779-0.344-1.038-0.511c-0.279-0.177-0.788-0.511-0.788-0.817C106.543,16.32,106.812,16.1,107.057,16.1z"/>
		<path class="st5" d="M112.629,16.396c-0.851,1.691-1,1.691-1.235,1.691c-0.317,0-0.663-0.253-0.663-0.578
			c0-0.225,0.077-0.344,0.495-1.003c0.394-0.607,0.683-1.247,1.01-1.954c0.067-0.158,0.168-0.354,0.476-0.354
			c0.245,0,0.591,0.177,0.591,0.53C113.302,15.063,112.826,16.014,112.629,16.396z M111.326,11.547c0.298,0,0.798,0.344,1.154,0.588
			c0.572,0.392,0.654,0.54,0.654,0.726c0,0.287-0.264,0.669-0.611,0.669c-0.168,0-0.236-0.048-0.822-0.483
			c-0.111-0.076-0.591-0.392-0.692-0.463c-0.178-0.119-0.236-0.196-0.236-0.463C110.773,11.881,111.028,11.547,111.326,11.547z
			 M111.6,8.991c0.279,0,0.832,0.344,1.144,0.54c0.582,0.354,0.721,0.463,0.721,0.736c0,0.325-0.279,0.688-0.591,0.688
			c-0.168,0-0.207-0.029-0.812-0.43c-0.13-0.076-0.702-0.411-0.812-0.492c-0.101-0.057-0.226-0.148-0.226-0.42
			C111.028,9.344,111.288,8.991,111.6,8.991z M113.922,14.022c-0.178,0-0.601-0.01-0.601-0.569c0-0.483,0.308-0.569,0.601-0.569
			h2.144v-1.491h-1.75c-0.149,0-0.611,0-0.611-0.549c0-0.44,0.197-0.607,0.611-0.607h1.75V9.512c0-0.225,0.038-0.597,0.572-0.597
			c0.433,0,0.654,0.129,0.654,0.597v0.726h1.836c0.149,0,0.601,0,0.601,0.549c0,0.463-0.216,0.607-0.601,0.607h-1.836v1.491h2.163
			c0.149,0,0.601,0,0.601,0.54c0,0.44-0.207,0.597-0.601,0.597h-2.976c-0.375,1.032-0.899,2.16-1.125,2.633
			c1.096-0.057,1.394-0.076,2.706-0.205c-0.207-0.344-0.245-0.411-0.62-0.96c-0.13-0.186-0.149-0.296-0.149-0.392
			c0-0.344,0.365-0.53,0.611-0.53c0.255,0,0.404,0.1,0.832,0.698c0.245,0.363,0.601,0.884,0.957,1.524
			c0.216,0.392,0.298,0.578,0.298,0.755c0,0.334-0.337,0.588-0.692,0.588c-0.337,0-0.457-0.215-0.505-0.325
			c-0.029-0.048-0.149-0.296-0.168-0.344c-2.134,0.306-4.754,0.44-4.87,0.44c-0.12,0-0.591,0-0.591-0.607
			c0-0.215,0.091-0.401,0.279-0.511c0.091-0.048,0.149-0.057,0.572-0.067c0.423-0.874,0.841-1.768,1.125-2.69h-1.216V14.022z"/>
		<path class="st5" d="M125.82,9.564c0-0.177,0-0.64,0.683-0.64s0.692,0.44,0.692,0.64v0.941c0,0.745,0.12,2.819,1.284,4.381
			c0.572,0.774,1.332,1.395,2.182,1.844c0.236,0.129,0.476,0.268,0.476,0.607c0,0.277-0.226,0.745-0.721,0.745
			c-0.486,0-1.687-0.994-2.331-1.701c-0.788-0.865-1.284-1.945-1.572-3.072c-0.466,1.768-1.159,2.642-1.788,3.292
			c-0.562,0.578-1.639,1.481-2.134,1.481c-0.413,0-0.711-0.401-0.711-0.755c0-0.315,0.178-0.43,0.365-0.54
			c1.284-0.726,2.726-1.71,3.37-4.362c0.101-0.42,0.207-1.768,0.207-1.925L125.82,9.564L125.82,9.564z"/>
		<path class="st5" d="M135.136,10.367c0.505,0,0.899,0.186,0.899,0.817c0,0.42-0.13,0.874-0.88,1.897
			c0.226,0.253,0.413,0.43,0.75,0.745c0.394,0.363,0.476,0.43,0.476,0.64c0,0.277-0.255,0.607-0.582,0.607
			c-0.346,0-0.673-0.454-0.928-0.807v3.33c0,0.483-0.226,0.597-0.673,0.597c-0.514,0-0.562-0.344-0.562-0.597V14.7
			c-0.404,0.325-0.601,0.492-0.889,0.492c-0.317,0-0.635-0.344-0.635-0.698c0-0.334,0.149-0.43,0.889-0.951
			c1.086-0.755,1.649-1.768,1.649-1.887c0-0.148-0.149-0.158-0.236-0.158h-1.601c-0.288,0-0.601-0.076-0.601-0.569
			c0-0.559,0.442-0.559,0.601-0.559h0.812V9.488c0-0.454,0.207-0.607,0.663-0.607c0.553,0,0.582,0.411,0.582,0.607v0.884h0.264
			V10.367z M140.688,11.494c0.168,0,0.644,0,0.644,0.569c0,0.463-0.178,0.659-0.644,0.659h-1.413v3.956h1.582
			c0.159,0,0.635,0,0.635,0.559c0,0.454-0.178,0.65-0.635,0.65h-4.533c-0.178,0-0.702,0-0.702-0.569c0-0.483,0.226-0.64,0.702-0.64
			h1.687v-3.956h-1.346c-0.159,0-0.62,0-0.62-0.578c0-0.483,0.207-0.65,0.62-0.65h1.346V9.502c0-0.225,0.029-0.607,0.582-0.607
			c0.495,0,0.683,0.167,0.683,0.607v1.992H140.688z"/>
		<path class="st5" d="M152.024,16.611c0,1.013-0.442,1.314-1.322,1.314h-5.87c-0.88,0-1.322-0.296-1.322-1.314v-6.039
			c0-1.013,0.433-1.314,1.322-1.314h5.87c0.88,0,1.322,0.306,1.322,1.314V16.611z M150.817,10.802c0-0.287-0.159-0.401-0.394-0.401
			h-5.293c-0.288,0-0.394,0.167-0.394,0.401v5.59c0,0.263,0.13,0.401,0.394,0.401h5.298c0.255,0,0.394-0.129,0.394-0.401v-5.59
			H150.817z M149.683,15.532c0,1.108-0.317,1.108-1.721,1.108c-0.457,0-0.788,0-0.788-0.521c0-0.511,0.365-0.511,0.505-0.511
			c0.077,0,0.423,0.019,0.495,0.019c0.317,0,0.356-0.139,0.356-0.315V12.66h-3.182c-0.207,0-0.562,0-0.562-0.502
			c0-0.473,0.207-0.559,0.562-0.559h3.182v-0.64c0-0.392,0.168-0.559,0.543-0.559c0.394,0,0.611,0.1,0.611,0.559v0.64h0.514
			c0.207,0,0.562,0.01,0.562,0.511c0,0.473-0.197,0.549-0.562,0.549h-0.514L149.683,15.532L149.683,15.532z M146.938,13.845
			c0.187,0.263,0.505,0.717,0.505,0.984c0,0.401-0.442,0.569-0.663,0.569c-0.255,0-0.337-0.139-0.62-0.616
			c-0.139-0.234-0.245-0.382-0.553-0.817c-0.091-0.119-0.207-0.287-0.207-0.463c0-0.296,0.327-0.502,0.591-0.502
			C146.207,12.999,146.332,12.999,146.938,13.845z"/>
	</g>
	
		<linearGradient id="SVGID_00000075120528604323556610000017293425069198525842_" gradientUnits="userSpaceOnUse" x1="158.4319" y1="31.4918" x2="190.0778" y2="31.4918" gradientTransform="matrix(1 0 0 -1 0 45)">
		<stop  offset="0" style="stop-color:#86B943"/>
		<stop  offset="1" style="stop-color:#32A44A"/>
	</linearGradient>
	<path style="display:inline;fill:url(#SVGID_00000075120528604323556610000017293425069198525842_);" d="M167.186,9.717
		c0.149,0,0.601,0,0.601,0.521c0,0.392-0.168,0.578-0.601,0.578h-3.456v2.131c0,1.266,0.375,2.26,1.423,3.053
		c0.644,0.483,1.461,0.707,2.106,0.874c0.327,0.091,0.486,0.196,0.486,0.521c0,0.196-0.087,0.726-0.625,0.726
		c-0.673,0-3.154-0.96-3.98-2.876c-0.13,0.325-0.375,0.932-1.365,1.72c-0.99,0.774-2.182,1.18-2.62,1.18
		c-0.562,0-0.635-0.559-0.635-0.717c0-0.382,0.245-0.483,0.486-0.54c2.024-0.53,3.509-1.357,3.509-4.152v-1.916h-3.49
		c-0.197,0-0.591-0.029-0.591-0.549c0-0.44,0.264-0.549,0.591-0.549h3.49V9.359c0-0.315,0.168-0.492,0.562-0.492
		c0.375,0,0.654,0.076,0.654,0.492v0.363h3.456V9.717z M162.076,13.764c0,0.253-0.245,0.463-0.74,0.846
		c0.288,0.268,0.385,0.373,0.385,0.559c0,0.325-0.356,0.578-0.591,0.578c-0.168,0-0.264-0.11-0.385-0.244
		c-0.058-0.067-0.12-0.129-0.288-0.306c-0.495,0.277-1.168,0.569-1.413,0.569c-0.385,0-0.495-0.373-0.495-0.559
		c0-0.263,0.178-0.363,0.375-0.44c0.466-0.186,0.514-0.205,0.711-0.296c-0.087-0.067-0.466-0.344-0.543-0.401
		c-0.067-0.057-0.139-0.139-0.139-0.277c0-0.234,0.226-0.483,0.534-0.483c0.13,0,0.245,0,1.048,0.621
		c0.159-0.11,0.308-0.234,0.591-0.492c0.077-0.067,0.168-0.158,0.346-0.177c-0.12,0.01-0.197-0.01-0.298-0.067
		c-0.111-0.067-0.543-0.44-0.635-0.521c-0.553,0.354-1.274,0.688-1.509,0.688c-0.327,0-0.457-0.344-0.457-0.54
		c0-0.253,0.187-0.334,0.327-0.392c0.572-0.234,0.635-0.253,0.788-0.344c-0.611-0.373-0.74-0.463-0.74-0.65
		c0-0.263,0.226-0.473,0.505-0.473c0.149,0,0.245,0.038,0.442,0.148c0.178,0.11,0.466,0.277,0.702,0.43
		c0.091-0.067,0.375-0.306,0.562-0.473c0.12-0.1,0.187-0.139,0.317-0.139c0.279,0,0.486,0.234,0.486,0.454
		c0,0.225-0.168,0.363-0.572,0.688c0.514,0.382,0.582,0.463,0.582,0.659c0,0.215-0.178,0.483-0.495,0.53
		C161.831,13.243,162.076,13.511,162.076,13.764z M167.354,12.665c0,0.268-0.255,0.54-0.524,0.54c-0.139,0-0.216-0.057-0.337-0.158
		c-0.298-0.277-0.346-0.296-0.476-0.392c-0.534,0.334-1.293,0.707-1.553,0.707c-0.365,0-0.476-0.382-0.476-0.54
		c0-0.277,0.226-0.373,0.385-0.43c0.433-0.177,0.486-0.186,0.769-0.334c-0.111-0.057-0.582-0.315-0.673-0.373
		c-0.048-0.038-0.187-0.129-0.187-0.306c0-0.186,0.187-0.44,0.514-0.44c0.264,0,0.918,0.401,1.207,0.588
		c0.13-0.091,0.168-0.129,0.543-0.44c0.12-0.11,0.226-0.129,0.317-0.129c0.288,0,0.505,0.253,0.505,0.463
		c0,0.21-0.168,0.344-0.534,0.65C167.253,12.369,167.354,12.479,167.354,12.665z M166.671,13.372
		c0.12-0.119,0.226-0.167,0.356-0.167c0.288,0,0.524,0.234,0.524,0.483c0,0.225-0.178,0.392-0.644,0.807
		c0.514,0.42,0.644,0.53,0.644,0.784c0,0.325-0.346,0.521-0.553,0.521c-0.139,0-0.216-0.048-0.365-0.177
		c-0.298-0.263-0.308-0.277-0.572-0.492c-0.255,0.167-0.87,0.511-1.115,0.511c-0.308,0-0.505-0.325-0.505-0.569
		c0-0.234,0.159-0.325,0.245-0.373c0.077-0.038,0.433-0.196,0.505-0.225c-0.077-0.057-0.13-0.1-0.505-0.325
		c-0.111-0.067-0.255-0.186-0.255-0.392c0-0.234,0.245-0.492,0.534-0.492c0.236,0,0.86,0.411,1.159,0.616
		C166.287,13.745,166.325,13.716,166.671,13.372z M170.82,12.393c-0.168-0.215-0.317-0.392-0.721-0.793
		c-0.394-0.392-0.442-0.454-0.442-0.698c0-0.244,0.207-0.549,0.505-0.549c0.111,0,0.168,0.029,0.226,0.067
		c0.168-0.287,0.365-0.597,0.534-0.984c0.159-0.344,0.226-0.521,0.505-0.521c0.245,0,0.644,0.186,0.644,0.473
		c0,0.315-0.591,1.247-0.918,1.73c0.159,0.167,0.178,0.186,0.308,0.334c0.298-0.463,0.317-0.502,0.76-1.304
		c0.087-0.148,0.216-0.287,0.394-0.287c0.279,0,0.635,0.225,0.635,0.511c0,0.177-0.327,0.669-0.476,0.903
		c-0.543,0.827-0.861,1.209-1.293,1.758c0.187-0.01,0.264-0.01,0.909-0.057c-0.149-0.43-0.159-0.483-0.159-0.569
		c0-0.234,0.216-0.334,0.385-0.334c0.255,0,0.327,0.196,0.413,0.411c0.13,0.325,0.356,1.061,0.394,1.199
		c0.187-0.263,0.394-0.263,0.433-0.263c0.13,0,0.236,0.029,0.731,0.502c0.139,0.139,0.495,0.483,0.495,0.755
		c0,0.205-0.197,0.502-0.534,0.502c-0.149,0-0.178-0.029-0.486-0.344c-0.091-0.091-0.543-0.53-0.635-0.65
		c-0.091,0.139-0.255,0.196-0.413,0.196c-0.279,0-0.327-0.205-0.394-0.463c-0.087,0.01-0.139,0.019-0.572,0.067v3.693
		c0,0.139,0,0.521-0.476,0.521s-0.476-0.392-0.476-0.521v-3.593c-0.591,0.057-0.769,0.076-1.01,0.076
		c-0.279,0-0.524-0.139-0.524-0.569c0-0.492,0.308-0.492,0.75-0.511L170.82,12.393z M170.801,14.992
		c0,0.186-0.077,1.534-0.264,2.198c-0.038,0.148-0.12,0.344-0.394,0.344c-0.048,0-0.524,0-0.524-0.43
		c0-0.129,0.13-0.698,0.149-0.807c0.091-0.511,0.12-0.865,0.159-1.376c0.019-0.225,0.067-0.43,0.413-0.43
		C170.801,14.49,170.801,14.824,170.801,14.992z M174.209,15.594c0.346-0.234,0.433-0.253,0.524-0.253
		c0.264,0,0.466,0.277,0.466,0.559c0,0.253-0.111,0.344-0.702,0.784c-0.264,0.196-0.957,0.678-1.207,0.678
		c-0.279,0-0.505-0.306-0.505-0.607c0-0.076,0.01-0.129,0.029-0.177c-0.346-0.029-0.356-0.148-0.423-0.774
		c-0.01-0.139-0.111-0.836-0.111-0.855c0-0.306,0.337-0.354,0.457-0.354c0.346,0,0.375,0.158,0.476,0.698
		c0.01,0.048,0.12,0.607,0.12,0.865C173.656,15.976,174.084,15.68,174.209,15.594z M176.512,17.027c0,0.932-0.197,1.099-1.168,1.099
		c-0.635,0-0.683,0-0.74-0.01c-0.288-0.048-0.433-0.315-0.433-0.578c0-0.253,0.087-0.569,0.514-0.569
		c0.077,0,0.394,0.019,0.457,0.01c0.149-0.019,0.216-0.076,0.216-0.306v-3.497h-1.639c-0.139,0-0.505,0-0.505-0.483
		c0-0.373,0.139-0.53,0.505-0.53h3.279v-0.53h-2.807c-0.149,0-0.486-0.01-0.486-0.454c0-0.401,0.255-0.454,0.486-0.454h2.807v-0.296
		c0-0.1-0.029-0.234-0.236-0.234h-2.716c-0.139,0-0.495,0-0.495-0.473c0-0.363,0.12-0.53,0.495-0.53h3.091
		c0.683,0,1.038,0.234,1.038,1.061v1.945h0.288c0.288,0,0.442,0.177,0.442,0.483c0,0.473-0.327,0.492-0.505,0.492h-1.889v0.521
		c0.12,0.287,0.327,0.65,0.423,0.817c0.168-0.148,0.457-0.411,0.74-0.755c0.226-0.287,0.317-0.363,0.514-0.363
		c0.317,0,0.553,0.277,0.553,0.521c0,0.186-0.067,0.325-0.236,0.53c-0.375,0.44-0.711,0.745-0.947,0.951
		c0.245,0.296,0.457,0.502,0.663,0.669c0.524,0.43,0.673,0.549,0.673,0.817c0,0.296-0.279,0.64-0.611,0.64
		c-0.394,0-1.235-0.922-1.769-1.887v1.395H176.512z M183.333,12.617c-0.365,0-0.562-0.129-0.591-0.492
		c-0.385,0.225-1.106,0.64-1.452,0.64c-0.317,0-0.601-0.325-0.601-0.736c0-0.373,0.236-0.492,0.534-0.597
		c1.49-0.559,2.36-1.386,3.091-2.083c0.394-0.382,0.553-0.53,1.067-0.53c0.514,0,0.644,0.139,1.216,0.688
		c0.543,0.54,1.356,1.304,2.985,1.964c0.298,0.119,0.495,0.225,0.495,0.578c0,0.392-0.288,0.726-0.635,0.726
		c-0.317,0-1.029-0.401-1.394-0.631c-0.048,0.42-0.337,0.473-0.601,0.473H183.333z M184.694,14.676
		c-0.236,0.569-0.457,1.032-0.976,1.954c1.404-0.048,1.639-0.067,3.706-0.186c-0.149-0.186-0.197-0.234-0.582-0.659
		c-0.216-0.234-0.255-0.354-0.255-0.483c0-0.296,0.365-0.559,0.683-0.559c0.168,0,0.317,0.067,0.505,0.253
		c0.394,0.382,0.851,0.874,1.312,1.462c0.476,0.588,0.582,0.774,0.582,0.994c0,0.344-0.423,0.65-0.769,0.65
		c-0.226,0-0.337-0.129-0.394-0.215c-0.038-0.057-0.245-0.373-0.298-0.44c-1.029,0.119-2.096,0.196-3.144,0.263
		c-0.495,0.038-3.043,0.186-3.437,0.186c-0.159,0-0.611,0-0.611-0.631c0-0.086,0-0.53,0.442-0.569
		c0.091-0.01,0.779-0.029,0.928-0.029c0.356-0.65,0.711-1.295,0.947-1.992h-1.827c-0.413,0-0.601-0.186-0.601-0.616
		c0-0.549,0.466-0.549,0.601-0.549h7.725c0.404,0,0.601,0.167,0.601,0.607c0,0.559-0.466,0.559-0.601,0.559H184.694z
		 M187.117,11.528c-0.308-0.225-0.889-0.669-1.452-1.295c-0.149-0.158-0.187-0.196-0.279-0.196s-0.13,0.038-0.279,0.196
		c-0.442,0.483-0.928,0.913-1.452,1.295H187.117z"/>
</g>
<g>
	<g>
		<path class="st7" d="M82.968,9.27c0.126,0,0.593,0,0.593,0.541c0,0.551-0.467,0.551-0.593,0.551h-6.377
			c-0.253,0-0.399,0.116-0.399,0.396v5.555c0,0.271,0.136,0.387,0.399,0.387h6.571c0.126,0,0.603,0.01,0.603,0.551
			c0,0.551-0.467,0.551-0.603,0.551h-6.843c-0.865,0-1.303-0.299-1.303-1.295v-5.942c0-1.005,0.437-1.295,1.303-1.295H82.968z
			 M82.783,13.153c0.136,0,0.525,0,0.525,0.502c0,0.502-0.389,0.502-0.525,0.502h-2.051c0.574,0.609,0.933,0.918,2.119,1.285
			c0.194,0.058,0.408,0.135,0.408,0.483c0,0.213-0.117,0.618-0.544,0.618c-0.34,0-2.041-0.541-2.858-1.942
			c-0.933,1.584-2.401,1.923-2.664,1.923c-0.428,0-0.554-0.406-0.554-0.618c0-0.338,0.253-0.415,0.418-0.464
			c0.603-0.184,1.38-0.435,1.876-1.285H76.98c-0.146,0-0.515,0-0.515-0.493c0-0.483,0.311-0.512,0.515-0.512h2.275
			c0-0.01,0.029-0.242,0.029-0.338v-0.589h-1.05c-0.535,0.773-0.749,0.841-0.953,0.841c-0.292,0-0.612-0.251-0.612-0.58
			c0-0.203,0.049-0.242,0.467-0.686c0.282-0.29,0.476-0.628,0.719-1.053c0.117-0.212,0.263-0.377,0.515-0.377
			c0.224,0,0.583,0.135,0.583,0.502c0,0.135-0.039,0.232-0.107,0.357h3.538c0.126,0,0.525,0,0.525,0.493
			c0,0.502-0.389,0.502-0.525,0.502h-1.993v0.589c0,0.135-0.019,0.271-0.029,0.338H82.783z"/>
		<path class="st7" d="M93.695,14.95c0,0.203,0,0.483-0.214,0.705c-0.243,0.251-0.544,0.251-0.749,0.251h-1.001v1.005
			c0,1.005-0.262,1.092-1.293,1.092c-0.622,0-0.972,0-0.972-0.531c0-0.309,0.165-0.483,0.476-0.483c0.039,0,0.369,0.01,0.399,0.01
			c0.185,0,0.224-0.068,0.224-0.261v-0.831h-1.03c-0.904,0-0.953-0.589-0.953-0.947v-0.647c-0.068,0.039-0.175,0.087-0.292,0.087
			c-0.262,0-0.457-0.251-0.486-0.512c-0.039,0.927-0.204,2.241-0.729,3.285c-0.36,0.715-0.535,0.792-0.787,0.792
			c-0.321,0-0.632-0.251-0.632-0.531c0-0.174,0.078-0.328,0.165-0.502c0.506-0.985,0.661-1.285,0.807-2.193
			c-0.185,0.135-0.554,0.386-0.797,0.386c-0.408,0-0.486-0.531-0.486-0.686c0-0.357,0.243-0.454,0.447-0.531
			c0.253-0.097,0.583-0.251,0.943-0.464v-0.966c-0.068,0.039-0.194,0.106-0.369,0.106c-0.292,0-0.34-0.164-0.496-0.58
			c-0.126-0.348-0.185-0.464-0.36-0.811c-0.019-0.048-0.068-0.164-0.068-0.3c0-0.299,0.321-0.502,0.573-0.502
			c0.292,0,0.399,0.232,0.719,0.956v-0.589c0-0.87,0.389-1.111,1.128-1.111h2.09v-0.3c0-0.425,0.399-0.473,0.574-0.473
			c0.292,0,0.622,0.077,0.622,0.473v0.3h2.906c0.224,0,0.574,0.048,0.574,0.464c0,0.357-0.224,0.483-0.574,0.483h-3.023
			c0.185,0.077,0.311,0.174,0.272,0.454h2.79c0.194,0,0.486,0.01,0.486,0.454c0,0.435-0.262,0.473-0.486,0.473H92.47
			c0.437,0.464,0.486,0.512,0.651,0.647c0.068-0.077,0.34-0.435,0.408-0.502c0.078-0.077,0.165-0.087,0.253-0.087
			c0.233,0,0.525,0.174,0.525,0.396c0,0.184-0.321,0.522-0.476,0.686c0.097,0.048,0.525,0.28,0.612,0.338
			c0.185,0.116,0.204,0.213,0.204,0.338c0,0.28-0.185,0.589-0.525,0.589c-0.155,0-0.272-0.048-0.428-0.145V14.95z M88.971,17.308
			c-0.301,0.203-0.836,0.531-1.108,0.531c-0.369,0-0.496-0.348-0.496-0.522c0-0.261,0.088-0.3,0.68-0.609
			c0.379-0.193,0.506-0.29,0.904-0.57c0.126-0.097,0.224-0.135,0.36-0.135c0.272,0,0.506,0.222,0.506,0.512
			C89.817,16.699,89.622,16.883,88.971,17.308z M87.814,13.762c0.029-0.164,0.165-0.271,0.194-0.29
			c0.146-0.116,0.399-0.261,0.544-0.367c-0.117-0.126-0.253-0.271-0.369-0.386c-0.097-0.106-0.136-0.174-0.136-0.271
			c0-0.222,0.282-0.425,0.506-0.425c0.136,0,0.243,0.058,0.68,0.551c0.194-0.184,0.369-0.377,0.525-0.599h-1.342
			c-0.292,0-0.486-0.087-0.486-0.483s0.262-0.444,0.486-0.444h1.837c0.136-0.357,0.155-0.396,0.233-0.454h-2.333
			c-0.233,0-0.34,0.116-0.34,0.328V13.762z M89.719,14.013h2.868V13.82c0-0.135-0.058-0.232-0.233-0.232h-2.401
			c-0.194,0-0.233,0.106-0.233,0.232V14.013z M89.719,14.718v0.203c0,0.135,0.049,0.242,0.233,0.242h2.401
			c0.194,0,0.233-0.126,0.233-0.242v-0.203H89.719z M92.043,12.844c-0.408-0.444-0.535-0.676-0.632-0.87h-0.515
			c-0.136,0.222-0.301,0.493-0.612,0.87H92.043z M92.811,16.003c0.136,0,0.175,0.019,0.496,0.251
			c0.369,0.261,0.719,0.444,1.108,0.647c0.117,0.068,0.233,0.164,0.233,0.367c0,0.222-0.175,0.56-0.544,0.56
			c-0.233,0-0.768-0.338-1.021-0.502c-0.272-0.174-0.778-0.502-0.778-0.802C92.305,16.216,92.568,16.003,92.811,16.003z"/>
		<path class="st7" d="M98.292,16.293c-0.836,1.662-0.982,1.662-1.215,1.662c-0.311,0-0.651-0.251-0.651-0.57
			c0-0.222,0.078-0.338,0.486-0.985c0.389-0.599,0.671-1.227,0.992-1.923c0.068-0.155,0.165-0.348,0.467-0.348
			c0.243,0,0.583,0.174,0.583,0.522C98.953,14.979,98.487,15.916,98.292,16.293z M97.009,11.521c0.292,0,0.787,0.338,1.137,0.58
			c0.564,0.386,0.642,0.531,0.642,0.715c0,0.28-0.262,0.657-0.603,0.657c-0.165,0-0.233-0.048-0.807-0.473
			c-0.107-0.077-0.583-0.386-0.68-0.454c-0.175-0.116-0.233-0.193-0.233-0.454C96.465,11.849,96.718,11.521,97.009,11.521z
			 M97.282,9.009c0.272,0,0.816,0.338,1.128,0.531c0.573,0.348,0.71,0.454,0.71,0.725c0,0.319-0.272,0.676-0.583,0.676
			c-0.165,0-0.204-0.029-0.797-0.425c-0.126-0.077-0.69-0.406-0.797-0.483c-0.097-0.058-0.224-0.145-0.224-0.415
			C96.718,9.357,96.97,9.009,97.282,9.009z M99.566,13.955c-0.175,0-0.593-0.01-0.593-0.56c0-0.473,0.301-0.56,0.593-0.56h2.109
			v-1.469h-1.721c-0.146,0-0.603,0-0.603-0.541c0-0.435,0.194-0.599,0.603-0.599h1.721V9.511c0-0.222,0.039-0.589,0.564-0.589
			c0.428,0,0.642,0.126,0.642,0.589v0.715h1.808c0.146,0,0.593,0,0.593,0.541c0,0.454-0.214,0.599-0.593,0.599h-1.808v1.469h2.129
			c0.146,0,0.593,0,0.593,0.531c0,0.435-0.204,0.589-0.593,0.589h-2.926c-0.369,1.014-0.885,2.125-1.108,2.589
			c1.079-0.058,1.371-0.077,2.663-0.203c-0.204-0.338-0.243-0.406-0.612-0.947c-0.126-0.184-0.146-0.29-0.146-0.386
			c0-0.338,0.36-0.522,0.603-0.522c0.253,0,0.399,0.097,0.817,0.686c0.243,0.357,0.593,0.869,0.943,1.497
			c0.214,0.386,0.292,0.57,0.292,0.744c0,0.328-0.33,0.58-0.68,0.58c-0.33,0-0.447-0.213-0.496-0.319
			c-0.029-0.048-0.146-0.29-0.165-0.338c-2.1,0.299-4.676,0.435-4.792,0.435c-0.117,0-0.583,0-0.583-0.599
			c0-0.213,0.088-0.396,0.272-0.502c0.088-0.048,0.146-0.058,0.564-0.068c0.418-0.86,0.826-1.739,1.108-2.647H99.566z"/>
		<path class="st7" d="M111.268,9.569c0-0.174,0-0.628,0.671-0.628c0.671,0,0.68,0.435,0.68,0.628v0.927
			c0,0.734,0.117,2.773,1.264,4.309c0.564,0.763,1.312,1.372,2.148,1.816c0.233,0.126,0.467,0.261,0.467,0.599
			c0,0.271-0.224,0.734-0.71,0.734c-0.476,0-1.662-0.976-2.294-1.671c-0.778-0.85-1.264-1.913-1.546-3.024
			c-0.457,1.739-1.137,2.599-1.76,3.236c-0.554,0.57-1.614,1.459-2.1,1.459c-0.408,0-0.7-0.396-0.7-0.744
			c0-0.309,0.175-0.425,0.36-0.531c1.264-0.715,2.683-1.681,3.315-4.289c0.097-0.415,0.204-1.739,0.204-1.894V9.569z"/>
		<path class="st7" d="M120.436,10.361c0.496,0,0.885,0.184,0.885,0.802c0,0.415-0.126,0.86-0.865,1.865
			c0.224,0.251,0.408,0.425,0.739,0.734c0.389,0.357,0.467,0.425,0.467,0.628c0,0.27-0.253,0.599-0.574,0.599
			c-0.34,0-0.661-0.444-0.914-0.792v3.275c0,0.473-0.224,0.589-0.661,0.589c-0.506,0-0.554-0.338-0.554-0.589v-2.85
			c-0.399,0.319-0.593,0.483-0.875,0.483c-0.311,0-0.622-0.338-0.622-0.686c0-0.328,0.146-0.425,0.875-0.937
			c1.069-0.744,1.623-1.739,1.623-1.855c0-0.145-0.146-0.155-0.233-0.155h-1.575c-0.282,0-0.593-0.077-0.593-0.56
			c0-0.551,0.437-0.551,0.593-0.551h0.797v-0.87c0-0.444,0.204-0.599,0.651-0.599c0.544,0,0.574,0.406,0.574,0.599v0.87H120.436z
			 M125.899,11.472c0.165,0,0.632,0,0.632,0.56c0,0.454-0.175,0.647-0.632,0.647h-1.39v3.894h1.555c0.155,0,0.622,0,0.622,0.551
			c0,0.444-0.175,0.638-0.622,0.638h-4.462c-0.175,0-0.69,0-0.69-0.56c0-0.473,0.224-0.628,0.69-0.628h1.662V12.68h-1.322
			c-0.155,0-0.612,0-0.612-0.57c0-0.473,0.204-0.638,0.612-0.638h1.322V9.511c0-0.222,0.029-0.599,0.573-0.599
			c0.486,0,0.671,0.164,0.671,0.599v1.961H125.899z"/>
		<path class="st7" d="M137.05,16.506c0,0.995-0.437,1.295-1.302,1.295h-5.774c-0.865,0-1.303-0.29-1.303-1.295v-5.942
			c0-0.995,0.428-1.295,1.303-1.295h5.774c0.865,0,1.302,0.299,1.302,1.295V16.506z M135.864,10.786c0-0.28-0.155-0.396-0.389-0.396
			h-5.21c-0.282,0-0.389,0.164-0.389,0.396v5.497c0,0.261,0.126,0.396,0.389,0.396h5.21c0.253,0,0.389-0.126,0.389-0.396V10.786z
			 M134.746,15.443c0,1.092-0.311,1.092-1.691,1.092c-0.447,0-0.778,0-0.778-0.512c0-0.502,0.36-0.502,0.496-0.502
			c0.078,0,0.418,0.019,0.486,0.019c0.311,0,0.35-0.135,0.35-0.309v-2.609h-3.13c-0.204,0-0.554,0-0.554-0.493
			c0-0.464,0.204-0.551,0.554-0.551h3.13v-0.628c0-0.386,0.165-0.551,0.535-0.551c0.389,0,0.603,0.097,0.603,0.551v0.628h0.506
			c0.204,0,0.554,0.01,0.554,0.502c0,0.464-0.194,0.541-0.554,0.541h-0.506V15.443z M132.044,13.781
			c0.185,0.261,0.496,0.705,0.496,0.966c0,0.396-0.437,0.56-0.651,0.56c-0.253,0-0.331-0.135-0.612-0.609
			c-0.136-0.232-0.243-0.377-0.544-0.802c-0.088-0.116-0.204-0.28-0.204-0.454c0-0.29,0.321-0.493,0.583-0.493
			C131.324,12.95,131.451,12.95,132.044,13.781z"/>
	</g>
	<g>
		<g>
			<g>
				
					<linearGradient id="SVGID_00000042736234205210609710000009692055916946743204_" gradientUnits="userSpaceOnUse" x1="143.3505" y1="13.5026" x2="152.5815" y2="13.5026">
					<stop  offset="0" style="stop-color:#8AC23E"/>
					<stop  offset="1" style="stop-color:#28AC4B"/>
				</linearGradient>
				<path style="fill:url(#SVGID_00000042736234205210609710000009692055916946743204_);" d="M148.617,12.498h3.362
					c0.175,0,0.603,0.01,0.603,0.57c0,0.473-0.174,0.657-0.603,0.657h-3.362v3.708c0,0.299-0.087,0.599-0.593,0.599
					c-0.535,0-0.729-0.135-0.729-0.599v-3.708h-3.332c-0.234,0-0.613-0.039-0.613-0.57c0-0.454,0.146-0.657,0.613-0.657h3.332
					v-1.883c-0.816,0.029-2.701,0.068-2.75,0.068c-0.184,0-0.593,0-0.593-0.599c0-0.57,0.379-0.57,0.884-0.579
					c0.398,0,3.042-0.077,4.674-0.29c0.262-0.039,1.545-0.242,1.642-0.242c0.612,0,0.612,0.608,0.612,0.696
					c0,0.377-0.214,0.473-0.398,0.531c-0.515,0.174-2.069,0.29-2.75,0.348V12.498z"/>
			</g>
			<g>
				
					<linearGradient id="SVGID_00000116918340240217935180000018288786391699406471_" gradientUnits="userSpaceOnUse" x1="154.0868" y1="13.4787" x2="163.2885" y2="13.4787">
					<stop  offset="0" style="stop-color:#8AC23E"/>
					<stop  offset="1" style="stop-color:#28AC4B"/>
				</linearGradient>
				<path style="fill:url(#SVGID_00000116918340240217935180000018288786391699406471_);" d="M159.849,9.466
					c0-0.232,0-0.57,0.544-0.57c0.622,0,0.632,0.27,0.632,0.57h1.69c0.127,0,0.573,0,0.573,0.483c0,0.396-0.292,0.483-0.573,0.483
					h-1.69c0,0.164,0,0.174-0.019,0.251c0.058-0.01,0.146-0.02,0.282-0.02c0.37,0,0.612,0.087,0.612,0.377v0.251h0.875
					c0.243,0,0.505,0.058,0.505,0.444c0,0.377-0.234,0.454-0.505,0.454h-0.875v0.232c0,0.84-0.417,0.879-1.01,0.879h-1.778
					c-0.603,0-1.02-0.038-1.02-0.879v-0.232h-1.487v1.101c0,0.164,0.078,0.28,0.282,0.28h5.402c0.127,0,0.495,0,0.495,0.444
					c0,0.367-0.155,0.493-0.495,0.493h-3.012v0.348h3.498c0.136,0,0.505,0,0.505,0.454c0,0.348-0.127,0.512-0.505,0.512h-2.488
					c0.67,0.454,1.428,0.734,1.904,0.85c0.7,0.164,0.972,0.222,0.972,0.599c0,0.319-0.185,0.589-0.525,0.589
					c-0.535,0-2.206-0.56-3.362-1.623v1.236c0,0.232-0.039,0.589-0.554,0.589c-0.427,0-0.641-0.126-0.641-0.589v-1.255
					c-1.205,1.14-3.002,1.642-3.342,1.642c-0.448,0-0.544-0.396-0.544-0.579c0-0.367,0.262-0.444,0.991-0.618
					c0.302-0.077,1.234-0.377,1.895-0.84h-2.477c-0.146,0-0.515,0-0.515-0.483c0-0.435,0.292-0.483,0.515-0.483h3.478v-0.348h-1.584
					c-0.67,0-1.059-0.212-1.059-1.053v-1.265h-0.846c-0.184,0-0.505-0.02-0.505-0.444c0-0.338,0.175-0.454,0.505-0.454h0.846V11.04
					c0-0.329,0.282-0.386,0.563-0.386c0.059,0,0.243,0,0.389,0.048c-0.019-0.058-0.019-0.077-0.019-0.135v-0.135h-1.701
					c-0.146,0-0.583-0.01-0.583-0.483c0-0.386,0.282-0.483,0.583-0.483h1.701c0-0.242,0-0.57,0.544-0.57
					c0.631,0,0.631,0.27,0.631,0.57H159.849z M159.849,10.432h-2.303c0,0.251,0,0.541-0.622,0.541c-0.117,0-0.223-0.019-0.339-0.067
					c0.019,0.048,0.019,0.077,0.019,0.135v0.251h1.487V11.04c0-0.271,0.126-0.386,0.631-0.386c0.379,0,0.515,0.135,0.515,0.386
					v0.251h1.457V11.03c0-0.038,0-0.048,0.009-0.097c-0.068,0.02-0.146,0.039-0.282,0.039c-0.36,0-0.573-0.125-0.573-0.415V10.432z
					 M159.237,12.189v0.212c0,0.125,0.058,0.193,0.194,0.193h1.078c0.137,0,0.185-0.077,0.185-0.193v-0.212H159.237z"/>
			</g>
			<g>
				
					<linearGradient id="SVGID_00000111156793272476435530000018036074832252870019_" gradientUnits="userSpaceOnUse" x1="165.0855" y1="13.4302" x2="174.2879" y2="13.4302">
					<stop  offset="0" style="stop-color:#8AC23E"/>
					<stop  offset="1" style="stop-color:#28AC4B"/>
				</linearGradient>
				<path style="fill:url(#SVGID_00000111156793272476435530000018036074832252870019_);" d="M173.695,9.708
					c0.145,0,0.593,0,0.593,0.512c0,0.386-0.165,0.57-0.593,0.57h-3.401v2.095c0,1.246,0.369,2.221,1.399,3.004
					c0.632,0.473,1.438,0.695,2.07,0.859c0.32,0.087,0.476,0.193,0.476,0.512c0,0.193-0.088,0.715-0.613,0.715
					c-0.66,0-3.099-0.946-3.916-2.83c-0.127,0.319-0.369,0.918-1.341,1.69c-0.971,0.763-2.147,1.159-2.575,1.159
					c-0.554,0-0.622-0.55-0.622-0.705c0-0.377,0.243-0.473,0.476-0.531c1.992-0.521,3.45-1.332,3.45-4.085v-1.883h-3.43
					c-0.194,0-0.583-0.029-0.583-0.541c0-0.434,0.262-0.541,0.583-0.541h3.43V9.35c0-0.309,0.165-0.483,0.553-0.483
					c0.37,0,0.642,0.077,0.642,0.483v0.357H173.695z M168.672,13.686c0,0.251-0.243,0.454-0.729,0.83
					c0.282,0.261,0.379,0.367,0.379,0.551c0,0.319-0.35,0.57-0.583,0.57c-0.166,0-0.262-0.106-0.38-0.242
					c-0.058-0.067-0.117-0.125-0.282-0.299c-0.486,0.271-1.147,0.56-1.39,0.56c-0.379,0-0.485-0.367-0.485-0.551
					c0-0.261,0.174-0.357,0.369-0.434c0.457-0.184,0.505-0.203,0.7-0.29c-0.087-0.067-0.457-0.338-0.535-0.396
					c-0.068-0.058-0.136-0.135-0.136-0.271c0-0.232,0.224-0.473,0.525-0.473c0.127,0,0.243,0,1.03,0.608
					c0.155-0.106,0.301-0.232,0.583-0.483c0.077-0.068,0.165-0.155,0.339-0.174c-0.117,0.01-0.194-0.01-0.292-0.067
					c-0.106-0.067-0.534-0.434-0.622-0.512c-0.544,0.348-1.253,0.676-1.486,0.676c-0.321,0-0.447-0.338-0.447-0.531
					c0-0.251,0.185-0.329,0.321-0.386c0.563-0.232,0.622-0.251,0.777-0.338c-0.602-0.367-0.728-0.454-0.728-0.638
					c0-0.261,0.224-0.464,0.495-0.464c0.146,0,0.243,0.039,0.437,0.145c0.175,0.106,0.457,0.271,0.69,0.425
					c0.087-0.067,0.37-0.299,0.554-0.463c0.117-0.097,0.184-0.135,0.311-0.135c0.272,0,0.476,0.232,0.476,0.444
					c0,0.222-0.165,0.357-0.563,0.676c0.505,0.377,0.573,0.454,0.573,0.647c0,0.212-0.175,0.473-0.486,0.521
					C168.429,13.174,168.672,13.435,168.672,13.686z M173.86,12.605c0,0.261-0.253,0.531-0.515,0.531
					c-0.136,0-0.214-0.058-0.33-0.155c-0.292-0.27-0.34-0.289-0.467-0.386c-0.525,0.328-1.272,0.695-1.525,0.695
					c-0.36,0-0.466-0.377-0.466-0.531c0-0.27,0.223-0.367,0.379-0.425c0.427-0.174,0.476-0.184,0.758-0.329
					c-0.106-0.058-0.573-0.309-0.66-0.367c-0.049-0.039-0.184-0.125-0.184-0.299c0-0.183,0.184-0.434,0.505-0.434
					c0.262,0,0.904,0.396,1.186,0.579c0.127-0.087,0.165-0.125,0.535-0.434c0.117-0.106,0.223-0.126,0.31-0.126
					c0.282,0,0.496,0.251,0.496,0.454c0,0.203-0.165,0.338-0.525,0.637C173.763,12.315,173.86,12.421,173.86,12.605z M173.19,13.3
					c0.117-0.116,0.223-0.164,0.35-0.164c0.282,0,0.515,0.232,0.515,0.473c0,0.222-0.174,0.386-0.631,0.792
					c0.505,0.415,0.631,0.521,0.631,0.773c0,0.319-0.339,0.512-0.544,0.512c-0.136,0-0.214-0.048-0.36-0.174
					c-0.292-0.261-0.301-0.27-0.563-0.483c-0.253,0.164-0.855,0.502-1.098,0.502c-0.302,0-0.496-0.319-0.496-0.56
					c0-0.232,0.156-0.319,0.243-0.367c0.078-0.039,0.427-0.193,0.496-0.222c-0.078-0.058-0.127-0.097-0.496-0.319
					c-0.106-0.067-0.252-0.183-0.252-0.386c0-0.232,0.243-0.483,0.525-0.483c0.233,0,0.846,0.406,1.137,0.608
					C172.81,13.667,172.85,13.638,173.19,13.3z"/>
			</g>
			<g>
				
					<linearGradient id="SVGID_00000168086303126534697130000003564527408147629486_" gradientUnits="userSpaceOnUse" x1="176.0633" y1="13.4785" x2="185.2464" y2="13.4785">
					<stop  offset="0" style="stop-color:#8AC23E"/>
					<stop  offset="1" style="stop-color:#28AC4B"/>
				</linearGradient>
				<path style="fill:url(#SVGID_00000168086303126534697130000003564527408147629486_);" d="M177.298,12.334
					c-0.165-0.213-0.311-0.386-0.709-0.783c-0.389-0.386-0.437-0.444-0.437-0.686c0-0.242,0.204-0.541,0.495-0.541
					c0.107,0,0.165,0.029,0.224,0.067c0.165-0.28,0.36-0.589,0.525-0.966c0.155-0.338,0.223-0.512,0.495-0.512
					c0.243,0,0.632,0.184,0.632,0.464c0,0.309-0.583,1.227-0.904,1.7c0.156,0.164,0.175,0.184,0.302,0.329
					c0.292-0.454,0.311-0.493,0.748-1.284c0.087-0.145,0.214-0.28,0.388-0.28c0.272,0,0.622,0.222,0.622,0.502
					c0,0.174-0.32,0.657-0.466,0.888c-0.535,0.811-0.846,1.188-1.273,1.729c0.184-0.01,0.262-0.01,0.894-0.058
					c-0.146-0.425-0.156-0.474-0.156-0.56c0-0.232,0.214-0.329,0.379-0.329c0.253,0,0.321,0.193,0.408,0.406
					c0.127,0.319,0.35,1.043,0.389,1.178c0.184-0.261,0.389-0.261,0.427-0.261c0.127,0,0.233,0.029,0.719,0.493
					c0.136,0.135,0.486,0.473,0.486,0.743c0,0.203-0.194,0.493-0.525,0.493c-0.146,0-0.175-0.029-0.476-0.338
					c-0.088-0.087-0.535-0.521-0.622-0.637c-0.088,0.135-0.253,0.193-0.408,0.193c-0.272,0-0.321-0.202-0.389-0.454
					c-0.087,0.01-0.136,0.019-0.564,0.067v3.631c0,0.135,0,0.511-0.466,0.511c-0.467,0-0.467-0.386-0.467-0.511v-3.535
					c-0.583,0.058-0.758,0.077-0.991,0.077c-0.272,0-0.515-0.135-0.515-0.56c0-0.483,0.302-0.483,0.739-0.502L177.298,12.334z
					 M177.278,14.893c0,0.184-0.078,1.507-0.262,2.163c-0.039,0.145-0.117,0.338-0.389,0.338c-0.049,0-0.515,0-0.515-0.425
					c0-0.126,0.127-0.686,0.146-0.792c0.088-0.502,0.117-0.85,0.156-1.352c0.019-0.222,0.068-0.425,0.408-0.425
					C177.278,14.401,177.278,14.729,177.278,14.893z M180.63,15.483c0.34-0.232,0.428-0.251,0.515-0.251
					c0.262,0,0.457,0.27,0.457,0.551c0,0.251-0.107,0.338-0.69,0.773c-0.262,0.193-0.943,0.666-1.186,0.666
					c-0.272,0-0.495-0.299-0.495-0.599c0-0.077,0.01-0.126,0.029-0.174c-0.34-0.029-0.35-0.145-0.418-0.763
					c-0.009-0.135-0.106-0.821-0.106-0.84c0-0.299,0.33-0.347,0.447-0.347c0.34,0,0.37,0.155,0.467,0.686
					c0.009,0.048,0.117,0.599,0.117,0.85C180.086,15.859,180.504,15.569,180.63,15.483z M182.895,16.892
					c0,0.918-0.194,1.082-1.147,1.082c-0.622,0-0.67,0-0.729-0.01c-0.282-0.048-0.427-0.309-0.427-0.57
					c0-0.251,0.087-0.56,0.505-0.56c0.078,0,0.389,0.019,0.447,0.01c0.146-0.019,0.214-0.077,0.214-0.299v-3.438h-1.613
					c-0.137,0-0.495,0-0.495-0.474c0-0.367,0.136-0.521,0.495-0.521h3.226v-0.521h-2.76c-0.146,0-0.476-0.01-0.476-0.444
					c0-0.396,0.253-0.444,0.476-0.444h2.76v-0.29c0-0.097-0.029-0.232-0.233-0.232h-2.673c-0.136,0-0.485,0-0.485-0.464
					c0-0.357,0.117-0.521,0.485-0.521h3.042c0.67,0,1.021,0.232,1.021,1.043v1.912h0.282c0.282,0,0.437,0.174,0.437,0.473
					c0,0.464-0.321,0.483-0.496,0.483h-1.856v0.512c0.117,0.28,0.32,0.637,0.417,0.801c0.165-0.145,0.448-0.406,0.729-0.743
					c0.224-0.28,0.311-0.357,0.505-0.357c0.311,0,0.544,0.27,0.544,0.512c0,0.183-0.068,0.319-0.233,0.521
					c-0.37,0.434-0.7,0.734-0.933,0.937c0.243,0.29,0.447,0.493,0.651,0.657c0.515,0.425,0.66,0.541,0.66,0.801
					c0,0.29-0.272,0.628-0.603,0.628c-0.389,0-1.214-0.908-1.739-1.854V16.892z"/>
			</g>
			<g>
				
					<linearGradient id="SVGID_00000064324200724920468950000000286535675844959628_" gradientUnits="userSpaceOnUse" x1="187.0241" y1="13.3868" x2="196.2551" y2="13.3868">
					<stop  offset="0" style="stop-color:#8AC23E"/>
					<stop  offset="1" style="stop-color:#28AC4B"/>
				</linearGradient>
				<path style="fill:url(#SVGID_00000064324200724920468950000000286535675844959628_);" d="M189.628,12.556
					c-0.36,0-0.554-0.126-0.583-0.483c-0.379,0.222-1.088,0.628-1.428,0.628c-0.311,0-0.593-0.319-0.593-0.724
					c0-0.367,0.233-0.483,0.525-0.589c1.468-0.55,2.322-1.362,3.042-2.047c0.388-0.377,0.544-0.521,1.049-0.521
					s0.631,0.135,1.195,0.676c0.535,0.531,1.331,1.284,2.934,1.931c0.292,0.116,0.486,0.222,0.486,0.57
					c0,0.386-0.282,0.715-0.622,0.715c-0.311,0-1.011-0.396-1.37-0.618c-0.049,0.415-0.33,0.464-0.593,0.464H189.628z
					 M190.969,14.584c-0.233,0.56-0.447,1.014-0.962,1.922c1.38-0.048,1.613-0.068,3.644-0.184
					c-0.146-0.184-0.194-0.232-0.573-0.647c-0.214-0.232-0.253-0.348-0.253-0.474c0-0.289,0.36-0.55,0.671-0.55
					c0.165,0,0.311,0.067,0.496,0.251c0.388,0.377,0.836,0.86,1.292,1.439c0.466,0.58,0.573,0.763,0.573,0.975
					c0,0.338-0.418,0.638-0.758,0.638c-0.223,0-0.33-0.126-0.389-0.212c-0.039-0.058-0.242-0.367-0.291-0.435
					c-1.011,0.116-2.06,0.193-3.09,0.261c-0.486,0.039-2.993,0.184-3.382,0.184c-0.155,0-0.603,0-0.603-0.618
					c0-0.087,0-0.521,0.437-0.56c0.087-0.01,0.768-0.029,0.914-0.029c0.35-0.637,0.7-1.274,0.933-1.96h-1.798
					c-0.408,0-0.593-0.183-0.593-0.608c0-0.541,0.457-0.541,0.593-0.541h7.598c0.399,0,0.593,0.164,0.593,0.599
					c0,0.55-0.457,0.55-0.593,0.55H190.969z M193.349,11.484c-0.301-0.222-0.874-0.657-1.428-1.275
					c-0.146-0.155-0.184-0.193-0.272-0.193c-0.087,0-0.126,0.038-0.272,0.193c-0.437,0.474-0.914,0.898-1.428,1.275H193.349z"/>
			</g>
		</g>
	</g>
</g>
<path class="st13" d="M9.399,5.79c0.269,7.162,6.033,12.929,13.225,13.263C22.354,11.886,16.595,6.119,9.399,5.79"/>
<path class="st14" d="M43.391,0.104c-10.72,0.779-22.964,9.809-18.902,32.857c0-7.406,1.115-11.906,2-14.109
	C35.819,17.486,43.03,9.669,43.391,0.104"/>
<path class="st5" d="M14.153,41.298c0.25,0,0.346,0.01,0.457,0.067c0.149,0.076,0.25,0.248,0.25,0.449
	c0,0.205-0.101,0.377-0.25,0.449c-0.111,0.057-0.212,0.067-0.457,0.067h-1.697v1.663c0,0.272-0.01,0.368-0.082,0.511
	c-0.087,0.162-0.279,0.277-0.51,0.277s-0.423-0.115-0.51-0.277c-0.072-0.143-0.082-0.239-0.082-0.511v-4.486
	c0-0.172,0-0.382,0.163-0.549c0.163-0.162,0.38-0.162,0.553-0.162h2.567c0.25,0,0.346,0.01,0.457,0.067
	c0.149,0.076,0.25,0.248,0.25,0.449c0,0.205-0.101,0.377-0.25,0.449c-0.115,0.057-0.212,0.067-0.457,0.067h-2.106v1.462h1.702
	V41.298z"/>
<path class="st5" d="M17.754,44.795c-0.437,0-0.788-0.143-1.034-0.382c-0.351-0.354-0.447-0.76-0.447-1.237v-2.074
	c0-0.263,0.014-0.368,0.072-0.487c0.082-0.158,0.25-0.258,0.476-0.258c0.221,0,0.394,0.1,0.476,0.258
	c0.058,0.119,0.072,0.22,0.072,0.487v1.921c0,0.588,0.38,0.784,0.721,0.784c0.346,0,0.731-0.196,0.731-0.784v-1.921
	c0-0.263,0.014-0.368,0.072-0.487c0.082-0.158,0.255-0.258,0.476-0.258c0.221,0,0.394,0.1,0.476,0.258
	c0.058,0.119,0.072,0.22,0.072,0.487v2.938c0,0.277-0.014,0.363-0.082,0.487c-0.082,0.153-0.264,0.248-0.471,0.248
	c-0.149,0-0.264-0.048-0.351-0.124c-0.087-0.081-0.13-0.172-0.163-0.315C18.576,44.642,18.158,44.795,17.754,44.795"/>
<path class="st5" d="M21.777,41.355h-0.111c-0.207,0-0.284-0.014-0.37-0.057c-0.13-0.067-0.202-0.196-0.202-0.358
	s0.072-0.291,0.202-0.358c0.087-0.048,0.163-0.057,0.37-0.057h0.111v-0.578c0-0.263,0.014-0.368,0.072-0.487
	c0.082-0.158,0.255-0.258,0.476-0.258s0.394,0.1,0.476,0.258c0.058,0.119,0.072,0.22,0.072,0.487v0.578H23.2
	c0.207,0,0.284,0.014,0.37,0.057c0.13,0.067,0.202,0.196,0.202,0.358s-0.072,0.291-0.202,0.358c-0.087,0.048-0.163,0.057-0.37,0.057
	h-0.327v2.088c0,0.205,0.077,0.368,0.351,0.387c0.139,0.01,0.236,0.019,0.327,0.067c0.135,0.067,0.216,0.191,0.216,0.387
	c0,0.191-0.087,0.32-0.216,0.387c-0.096,0.048-0.24,0.076-0.452,0.076h-0.058c-0.909,0-1.264-0.612-1.264-1.247L21.777,41.355z"/>
<path class="st5" d="M25.753,41.47c-0.144,0.086-0.264,0.115-0.361,0.115c-0.111,0-0.231-0.048-0.312-0.148
	c-0.087-0.105-0.12-0.201-0.12-0.325c0-0.244,0.207-0.416,0.409-0.516c0.317-0.167,0.663-0.253,1.106-0.253
	c1.221,0,1.846,0.516,1.846,1.538v2.16c0,0.282-0.014,0.363-0.082,0.487c-0.082,0.148-0.264,0.253-0.471,0.253
	c-0.149,0-0.264-0.048-0.351-0.124c-0.082-0.076-0.125-0.158-0.159-0.287c-0.317,0.311-0.586,0.43-1.086,0.43
	c-0.495,0-0.865-0.139-1.12-0.392c-0.231-0.229-0.361-0.592-0.361-0.979c0-0.693,0.481-1.261,1.514-1.261h1.019v-0.215
	c0-0.478-0.25-0.683-0.769-0.683C26.195,41.264,25.993,41.327,25.753,41.47 M27.224,42.908h-0.832c-0.437,0-0.649,0.177-0.649,0.502
	c0,0.301,0.212,0.492,0.663,0.492c0.269,0,0.461-0.033,0.649-0.21c0.13-0.119,0.168-0.272,0.168-0.549V42.908z"/>
<path class="st5" d="M29.916,39.506c0-0.263,0.014-0.368,0.072-0.483c0.082-0.158,0.25-0.258,0.476-0.258
	c0.221,0,0.394,0.1,0.476,0.258c0.058,0.119,0.072,0.22,0.072,0.483v1.271c0.279-0.32,0.615-0.435,1.058-0.435
	c0.437,0,0.817,0.143,1.058,0.392c0.418,0.425,0.452,1.104,0.452,1.83c0,0.736-0.034,1.414-0.452,1.839
	c-0.245,0.248-0.635,0.392-1.062,0.392c-0.466,0-0.788-0.119-1.086-0.449c-0.034,0.143-0.077,0.234-0.159,0.311
	c-0.087,0.081-0.202,0.124-0.351,0.124c-0.207,0-0.389-0.1-0.471-0.253c-0.067-0.124-0.082-0.21-0.082-0.487V39.506z M31.748,41.327
	c-0.654,0-0.74,0.54-0.74,1.237c0,0.698,0.082,1.247,0.75,1.247c0.649,0,0.731-0.549,0.731-1.247
	C32.488,41.866,32.406,41.327,31.748,41.327"/>
<path class="st5" d="M35.781,41.47c-0.144,0.086-0.264,0.115-0.361,0.115c-0.111,0-0.231-0.048-0.312-0.148
	c-0.087-0.105-0.12-0.201-0.12-0.325c0-0.244,0.207-0.416,0.409-0.516c0.317-0.167,0.663-0.253,1.106-0.253
	c1.221,0,1.846,0.516,1.846,1.538v2.16c0,0.282-0.014,0.363-0.082,0.487c-0.082,0.148-0.264,0.253-0.471,0.253
	c-0.149,0-0.264-0.048-0.351-0.124c-0.087-0.076-0.125-0.158-0.159-0.287c-0.322,0.311-0.586,0.43-1.086,0.43
	c-0.495,0-0.865-0.139-1.12-0.392c-0.231-0.229-0.361-0.592-0.361-0.979c0-0.693,0.481-1.261,1.514-1.261h1.019v-0.215
	c0-0.478-0.25-0.683-0.769-0.683C36.223,41.264,36.021,41.327,35.781,41.47 M37.252,42.908H36.42c-0.437,0-0.649,0.177-0.649,0.502
	c0,0.301,0.212,0.492,0.663,0.492c0.269,0,0.461-0.033,0.649-0.21c0.13-0.119,0.168-0.272,0.168-0.549L37.252,42.908z"/>
<g>
	<g>
		<defs>
			<path id="SVGID_00000073682849072214580870000008939165076903952025_" d="M40.439,17.701c-0.832-2.355-2.077-0.745-2.009,0.803
				c-0.798-1.257-1.442-0.038-1.442,1.5c-1.399-1.596-1.019,2.384-1.019,3.488c2.711-2.824,5.038-2.36,5.581-1.199
				c0.947,2.016-2.702,5.972-4.293,7.429c-1.034,0.946-2.481,1.027-0.433-0.908c0.308-0.291,1.058-1.008,2.096-2.25
				c4.062-4.845,0.303-5.055-1.822-3c-1.798,1.734-2.73,3.177-6.85,5.05c-1.779,0.807-2.793,2.093-2.682,4.482
				c0.072,1.601,2.375,5.404,7.163,2.341c4.591-2.938,6.624-4.787,8.456-8.041c1.86-3.301-0.072-7.945-0.385-8.896
				c-0.495-1.5-1.062-2.078-1.524-2.078C40.843,16.415,40.506,16.946,40.439,17.701"/>
		</defs>
		<clipPath id="SVGID_00000028301584528224037520000010564709227538107015_">
			<use xlink:href="#SVGID_00000073682849072214580870000008939165076903952025_"  style="overflow:visible;"/>
		</clipPath>
		
			<linearGradient id="SVGID_00000077301561115401684890000001080346166265051270_" gradientUnits="userSpaceOnUse" x1="-147.8897" y1="-419.9955" x2="-147.4054" y2="-419.9955" gradientTransform="matrix(40.7752 -7.1898 -7.1898 -40.7752 3035.012 -18159.6875)">
			<stop  offset="0" style="stop-color:#FEF2E0"/>
			<stop  offset="0.1296" style="stop-color:#FDEFD8"/>
			<stop  offset="0.341" style="stop-color:#FBE6C2"/>
			<stop  offset="0.6078" style="stop-color:#F7D79D"/>
			<stop  offset="0.9169" style="stop-color:#F2C368"/>
			<stop  offset="1" style="stop-color:#F0BD58"/>
		</linearGradient>
		
			<polygon style="clip-path:url(#SVGID_00000028301584528224037520000010564709227538107015_);fill:url(#SVGID_00000077301561115401684890000001080346166265051270_);" points="
			28.051,41.479 49.097,37.791 44.583,12.354 23.537,16.043 		"/>
	</g>
</g>
<g>
	<g>
		<defs>
			<path id="SVGID_00000049181392862857094680000009170790433246307458_" d="M8.543,17.701c0.832-2.355,2.077-0.745,2.009,0.803
				c0.798-1.257,1.442-0.038,1.442,1.5c1.399-1.596,1.019,2.384,1.019,3.488c-2.706-2.828-5.038-2.365-5.581-1.204
				c-0.947,2.016,2.702,5.972,4.293,7.429c1.034,0.946,2.481,1.027,0.433-0.908c-0.308-0.291-1.058-1.008-2.096-2.25
				c-4.062-4.845-0.303-5.055,1.822-3c1.798,1.734,2.73,3.177,6.85,5.05c1.779,0.807,2.793,2.093,2.682,4.482
				c-0.072,1.601-2.375,5.404-7.163,2.341c-4.591-2.938-6.624-4.787-8.456-8.041c-1.86-3.301,0.072-7.945,0.385-8.896
				c0.495-1.5,1.062-2.078,1.524-2.078C8.139,16.415,8.476,16.946,8.543,17.701"/>
		</defs>
		<clipPath id="SVGID_00000106838980312141277550000010070650683294887298_">
			<use xlink:href="#SVGID_00000049181392862857094680000009170790433246307458_"  style="overflow:visible;"/>
		</clipPath>
		
			<linearGradient id="SVGID_00000118382857734206429810000002512789875358880660_" gradientUnits="userSpaceOnUse" x1="-145.8314" y1="-413.2303" x2="-145.3321" y2="-413.2303" gradientTransform="matrix(36.5262 6.4406 -6.4406 36.5262 2669.7146 16058.4492)">
			<stop  offset="0" style="stop-color:#E798A2"/>
			<stop  offset="0.2301" style="stop-color:#EDB2B8"/>
			<stop  offset="0.567" style="stop-color:#F5D3D5"/>
			<stop  offset="0.8354" style="stop-color:#FAE6E6"/>
			<stop  offset="1" style="stop-color:#FBEDED"/>
		</linearGradient>
		
			<polygon style="clip-path:url(#SVGID_00000106838980312141277550000010070650683294887298_);fill:url(#SVGID_00000118382857734206429810000002512789875358880660_);" points="
			4.289,12.354 25.441,16.138 21.042,41.479 -0.115,37.695 		"/>
	</g>
</g>
</svg>
