<?xml version="1.0" encoding="utf-8"?>
<!-- Generator: Adobe Illustrator 26.3.1, SVG Export Plug-In . SVG Version: 6.00 Build 0)  -->
<svg version="1.1" id="レイヤー_1" xmlns="http://www.w3.org/2000/svg" xmlns:xlink="http://www.w3.org/1999/xlink" x="0px"
	 y="0px" width="220px" height="45px" viewBox="0 0 220 45" style="enable-background:new 0 0 220 45;" xml:space="preserve">
<style type="text/css">
	.st0{fill:url(#SVGID_1_);}
	.st1{fill:#E798A2;}
	.st2{fill:#F0BD58;}
	.st3{fill:#A8977F;}
	.st4{fill:url(#SVGID_00000057143474632684631760000008319315548964328087_);}
	.st5{fill:url(#SVGID_00000012450430210210148930000014241848290227198853_);}
	.st6{fill:url(#SVGID_00000039848471580953679290000001274660861411755921_);}
	.st7{fill:url(#SVGID_00000161627759755463572470000016674262315974985348_);}
	.st8{fill:url(#SVGID_00000074432769435558765490000015004759008295886979_);}
	.st9{fill:url(#SVGID_00000103967980496434723180000004210171620170587820_);}
	.st10{fill:url(#SVGID_00000083054016630484415330000009780848170645479605_);}
	.st11{fill:#86B943;}
	.st12{fill:#32A44A;}
	.st13{fill:#A6957E;}
	
		.st14{clip-path:url(#SVGID_00000119087220748918391690000007953529886796528268_);fill:url(#SVGID_00000107560484195052613770000006231902429657779587_);}
	
		.st15{clip-path:url(#SVGID_00000041282685091246758630000009045785126446338473_);fill:url(#SVGID_00000141456593355677516920000012565589823483782847_);}
</style>
<linearGradient id="SVGID_1_" gradientUnits="userSpaceOnUse" x1="53.3471" y1="14.3258" x2="114.5419" y2="14.3258" gradientTransform="matrix(1 0 0 -1 0 45)">
	<stop  offset="0" style="stop-color:#86B943"/>
	<stop  offset="1" style="stop-color:#32A44A"/>
</linearGradient>
<path class="st0" d="M58.579,30.864c0,0.883-1.118,4.522-1.646,5.914c-0.432,1.176-0.864,2.074-1.824,2.074
	c-0.744,0-1.762-0.586-1.762-1.469c0-0.451,0.115-0.686,0.509-1.411c0.667-1.234,1.253-3.25,1.469-4.229
	c0.293-1.31,0.47-2.155,1.565-2.155c0.158,0,0.331,0.019,0.509,0.058C57.873,29.745,58.579,30.043,58.579,30.864 M69.993,31.43
	c-0.648-1.349-1.781-2.486-3.25-2.486c-1.018,0-1.31,0.706-1.411,1.118c-0.019,0.115-0.038,0.235-0.038,0.389
	c0,0.432,0.178,0.667,0.293,0.782c0.12,0.12,0.782,0.528,0.922,0.648c0.998,0.84,1.214,3.504,1.33,5.131
	c0.038,0.49,0.139,1.546,1.584,1.546c0.451,0,1.018-0.158,1.334-0.509c0.216-0.235,0.331-0.586,0.331-1.195
	C71.093,36.662,70.819,33.115,69.993,31.43 M66.091,26.549c0.85-0.11,1.613-0.278,1.613-1.56c0-1.306-1.056-1.402-2.117-1.469
	c-2.309-0.144-4.464-0.47-5.501-0.667c-0.374-0.058-2.174-0.49-2.582-0.49c-0.979,0-1.214,0.84-1.272,1.31
	c-0.139,1.214,0.667,1.43,1.469,1.622c0.816,0.211,2.016,0.427,3.264,0.619c-0.984,0.586-1.661,1.546-1.579,2.928
	c0.11,1.848,1.234,3.288,1.762,3.898c1.056,1.234,1.469,1.704,1.469,2.606c0,0.216-0.038,1.33-1.392,1.33
	c-0.47,0-0.84-0.096-1.118-0.178c-0.725-0.235-0.802-0.274-1.099-0.274c-1.392,0-1.392,1.488-1.392,1.565
	c0,0.547,0.216,0.96,0.821,1.291c1.157,0.629,2.568,0.744,3.25,0.744c3.254,0,4.21-2.486,4.21-4.037
	c0-1.507-0.629-2.813-2.117-4.426C61.32,28.689,61.819,27.105,66.091,26.549 M79.286,22.737c0.293-0.394,0.744-0.49,1.176-0.49
	c0.763,0,1.666,0.235,1.666,1.31c0,0.274-0.058,0.586-0.158,1.176c1.565-0.038,3.466-0.077,4.699-0.134
	c0.235,0,1.291-0.077,1.507-0.077c0.394,0,1.546,0.019,1.546,1.469c0,1.33-0.979,1.411-1.584,1.45
	c-2.016,0.096-4.507,0.178-6.739,0.235c-0.509,2.486-2.899,10.872-3.701,11.712c-0.139,0.158-0.451,0.394-0.979,0.394
	c-0.547,0-1.8-0.293-1.8-1.411c0-0.432,0.312-1.138,0.509-1.546c0.782-1.762,1.742-4.699,2.27-6.715
	c0.216-0.84,0.451-1.882,0.566-2.371c-1.118,0.038-2.251,0.038-2.626-0.178c-0.509-0.293-0.59-0.883-0.59-1.253
	c0-1.214,0.629-1.488,1.608-1.488h2.117C79.051,23.189,79.07,23.011,79.286,22.737 M87.979,39.619c-4.642,0-6.677-0.744-6.677-3.307
	c0-0.254,0.019-2.39,1.939-2.39c0.706,0,1.469,0.293,1.469,0.998c0,0.197-0.058,0.35-0.096,0.451
	c-0.115,0.312-0.139,0.394-0.139,0.566c0,0.355,0.216,0.586,0.922,0.706c0.528,0.096,1.195,0.115,1.646,0.115
	c0.547,0,1.589-0.038,2.88-0.197c0.235-0.019,0.667-0.077,0.883-0.077c0.878,0,1.373,0.49,1.373,1.411
	C92.169,39.283,91.488,39.619,87.979,39.619 M91.132,31.805c-0.254,0.216-0.528,0.254-0.979,0.254c-0.331,0-1.8-0.077-2.098-0.077
	c-1.234,0-1.762,0.038-3.624,0.178c-0.115,0.019-0.432,0.038-0.706,0.038c-1.291,0-1.291-1.272-1.291-1.469
	c0-0.61,0.254-1.176,1.176-1.392c1.234-0.274,3.523-0.331,4.838-0.331c2.957,0,3.173,0.49,3.173,1.704
	C91.622,31.003,91.488,31.531,91.132,31.805 M100.324,23.87c0,0.235-0.389,2.683-0.451,3.192c-0.158,1.565-0.235,3.173-0.235,4.757
	c0,1.723,0.096,3.523,0.331,5.246c0.058,0.432,0.115,0.998,0.115,1.234c0,0.941-0.566,1.354-1.488,1.354
	c-0.37,0-1.214-0.019-1.488-0.979c-0.293-0.998-0.49-4.21-0.49-6.994c0-4.248,0.547-7.618,0.686-8.088
	c0.139-0.528,0.47-1.214,1.805-1.037C100.07,22.699,100.324,23.169,100.324,23.87 M106.809,24.149
	c-0.019-0.547,0.019-1.646,1.565-1.646c1.565,0,1.608,1.037,1.608,1.646l0.019,1.685c0.312-0.019,1.901-0.077,1.997-0.077
	c0.389,0,1.507,0,1.507,1.488c0,0.979-0.547,1.272-0.802,1.354c-0.312,0.077-0.451,0.096-2.664,0.197l0.038,3.917
	c1.565,0.84,2.467,1.546,3.014,2.074c0.394,0.394,0.648,0.84,0.648,1.354c0,0.864-0.706,1.723-1.565,1.723
	c-0.547,0-0.744-0.216-1.411-0.96c-0.082-0.077-0.763-0.667-0.864-0.744c-0.058,1.075-0.178,3.523-4.133,3.523
	c-3.485,0-4.762-2.016-4.762-3.994c0-2.352,1.8-3.955,4.622-3.955c0.629,0,1.056,0.077,1.373,0.12l-0.077-2.938
	c-1.349,0.058-3.014,0.058-4.387,0.058c-0.49,0-1.584,0-1.584-1.488c0-1.157,0.706-1.349,1.133-1.411
	c0.235-0.019,3.898-0.096,4.757-0.096L106.809,24.149z M105.614,34.272c-0.47,0-1.939,0.096-1.939,1.469
	c0,1.354,1.469,1.392,1.762,1.392c0.432,0,1.253-0.096,1.507-0.763c0.096-0.274,0.115-0.432,0.096-1.781
	C106.651,34.406,106.3,34.272,105.614,34.272 M110.313,22.795c-0.058-0.139-0.058-0.274-0.058-0.331
	c0-0.509,0.528-0.629,0.763-0.629c0.331,0,0.566,0.254,0.706,0.648c0.331,0.864,0.586,1.565,0.586,1.997
	c0,0.648-0.629,0.686-0.744,0.686c-0.274,0-0.47-0.096-0.61-0.49c-0.038-0.139-0.274-0.84-0.312-0.979
	C110.587,23.558,110.371,22.973,110.313,22.795 M112.545,22.483c-0.058-0.139-0.058-0.293-0.058-0.331
	c0-0.509,0.566-0.629,0.782-0.629c0.413,0,0.566,0.331,0.782,0.845c0.216,0.528,0.49,1.392,0.49,1.8
	c0,0.648-0.667,0.667-0.763,0.667c-0.197,0-0.451-0.058-0.605-0.49c-0.038-0.134-0.254-0.821-0.293-0.96
	C112.838,23.246,112.583,22.617,112.545,22.483"/>
<g>
	<g>
		<path class="st1" d="M131.188,27.768h-6.178c0.274-0.749,0.274-0.85,0.274-0.95c0-0.59-0.696-0.706-1.056-0.706
			c-0.754,0-0.898,0.346-1.258,1.661h-3.581c-0.59,0-0.912,0.317-0.912,0.893c0,0.547,0.302,0.883,0.912,0.883h2.885
			c-0.403,0.878-1.243,2.366-2.539,3.451c-1.286,1.085-1.344,1.128-1.344,1.546c0,0.605,0.432,1.085,0.979,1.085
			c0.288,0,0.446-0.072,1.171-0.706v4.07c0,0.533,0.216,0.854,0.95,0.854c0.864,0,0.864-0.648,0.864-0.854v-6.12
			c1.056-1.387,1.733-2.842,1.934-3.336h6.883c0.59,0,0.907-0.317,0.907-0.893C132.095,28.041,131.721,27.768,131.188,27.768z"/>
		<path class="st1" d="M131.174,37.541h-2.798v-3.566h2.395c0.562,0,0.893-0.288,0.893-0.883c0-0.59-0.346-0.864-0.893-0.864h-2.395
			v-1.488c0-0.634-0.346-0.864-0.994-0.864c-0.696,0-0.85,0.446-0.85,0.864v1.488h-2.41c-0.576,0-0.912,0.302-0.912,0.878
			c0,0.605,0.374,0.864,0.912,0.864h2.41v3.566h-2.861c-0.59,0-0.907,0.302-0.907,0.893c0,0.59,0.346,0.878,0.907,0.878h7.507
			c0.59,0,0.912-0.331,0.912-0.893C132.081,37.757,131.649,37.541,131.174,37.541z"/>
		<path class="st1" d="M147.263,34.565c0.403-0.043,0.691-0.187,0.691-0.797c0-0.922-0.619-0.85-0.854-0.835l-5.933,0.547v-1.589
			c1.531-0.173,2.309-0.331,3.595-0.634c0.403-0.086,0.749-0.23,0.749-0.734c0-0.302-0.158-0.936-0.778-0.936
			c-0.173,0-0.446,0.058-0.566,0.086c-2.885,0.691-4.992,0.821-7.205,0.965c-0.101,0-0.36,0.029-0.533,0.13
			c0.043-0.115,0.072-0.202,0.072-0.49v-0.835c0-0.331,0.173-0.49,0.49-0.49h8.342c0.331,0,0.49,0.173,0.49,0.49v0.821
			c0,0.562,0.173,0.883,0.941,0.883c0.806,0,0.864-0.49,0.864-0.883v-1.2c0-1.286-0.547-1.675-1.661-1.675h-3.854v-0.533
			c0-0.59-0.432-0.72-1.042-0.72c-0.504,0-0.878,0.187-0.878,0.72v0.533h-3.811c-1.099,0-1.675,0.374-1.675,1.675v1.214
			c0,0.518,0.173,0.878,0.912,0.878c0.331,0,0.475-0.072,0.59-0.13c-0.072,0.144-0.072,0.302-0.072,0.36
			c0,0.23,0.043,0.907,0.811,0.907c0.562,0,1.094-0.043,2.352-0.173v1.531l-4.171,0.389c-0.418,0.043-0.72,0.202-0.72,0.763
			c0,0.965,0.648,0.907,0.878,0.883l4.013-0.374v2.611c0,0.475,0,1.574,1.33,1.646c0.389,0.029,0.734,0.029,4.632,0.029
			c1.358,0,2.165,0,2.165-2.904c0-0.259,0-0.922-0.95-0.922c-0.835,0-0.864,0.59-0.878,0.85c-0.058,0.994-0.072,1.214-0.432,1.301
			c-0.158,0.029-2.165,0.029-2.602,0.029c-1.066,0-1.094,0-1.186-0.043c-0.115-0.058-0.216-0.158-0.216-0.504v-2.266L147.263,34.565
			z"/>
	</g>
	<g>
		<path class="st2" d="M161.764,28.545h-4.373c0.389-0.734,0.461-0.979,0.461-1.243c0-0.518-0.59-0.749-1.027-0.749
			c-0.605,0-0.706,0.245-1.243,1.315c-0.216,0.446-1.344,2.266-3.014,3.509c-0.662,0.49-0.782,0.576-0.782,0.97
			c0,0.475,0.432,0.965,0.941,0.965c0.979,0,2.798-2.021,3.523-3.005h4.258c0.36,0,0.547,0,0.547,0.274
			c0,0.374-0.446,1.574-0.821,2.323c-1.502,2.933-3.97,3.883-6.35,4.474c-1.07,0.259-1.344,0.346-1.344,0.97
			c0,0.216,0.086,0.994,0.955,0.994c0.461,0,3.552-0.59,5.846-2.395c3.307-2.611,3.869-6.581,3.869-7.133
			C163.209,29.064,162.815,28.545,161.764,28.545z"/>
		<path class="st2" d="M169.175,34.118V27.84c0-0.691-0.374-0.926-1.027-0.926c-0.85,0-0.994,0.475-0.994,0.926v6.278
			c0,0.691,0.374,0.922,1.027,0.922C169.031,35.04,169.175,34.565,169.175,34.118z"/>
		<path class="st2" d="M175.525,26.726c-0.864,0-1.008,0.49-1.008,0.941v5.486c0,0.893-0.086,1.733-0.826,2.597
			c-0.763,0.883-1.862,1.344-4.157,1.56c-0.97,0.101-1.445,0.144-1.445,0.926c0,0.994,0.898,0.994,1.114,0.994
			c0.317,0,1.416-0.029,2.712-0.389c4.387-1.214,4.632-4.085,4.632-5.746v-5.429C176.553,26.971,176.159,26.726,175.525,26.726z"/>
		<path class="st2" d="M182.001,29.76h8.746c0.504,0,0.95-0.202,0.95-0.95c0-0.941-0.734-0.941-0.95-0.941h-8.746
			c-0.446,0-0.97,0.13-0.97,0.95C181.036,29.76,181.785,29.76,182.001,29.76z"/>
		<path class="st2" d="M191.817,36.225h-10.838c-0.576,0-0.97,0.245-0.97,0.95c0,0.936,0.72,0.936,0.97,0.936h10.838
			c0.576,0,0.955-0.245,0.955-0.95C192.772,36.24,192.047,36.225,191.817,36.225z"/>
		<path class="st2" d="M199.751,33.005c0.101,0.446,0.23,0.97,0.734,0.97c0.302,0,1.123-0.029,1.123-0.854
			c0-0.346-0.576-2.323-0.907-3.029c-0.173-0.389-0.317-0.677-0.85-0.677c-0.461,0-0.941,0.274-0.941,0.749
			c0,0.187,0.058,0.331,0.115,0.49C199.29,31.315,199.477,31.881,199.751,33.005z"/>
		<path class="st2" d="M204.872,29.832c-0.101-0.029-0.202-0.043-0.288-0.043c-0.677,0-0.797,0.504-0.883,0.898
			c-0.302,1.445-0.331,1.603-0.533,2.165c-1.171,3.394-3.768,4.258-4.925,4.603c-1.013,0.302-1.301,0.389-1.301,0.922
			c0,0.288,0.187,0.936,0.85,0.936c0.23,0,3.71-0.518,5.861-3.61c1.574-2.28,1.891-5.021,1.891-5.078
			C205.554,30.336,205.453,29.947,204.872,29.832z"/>
		<path class="st2" d="M198.421,33.773c0-0.216-0.043-0.374-0.158-0.706c-0.84-2.294-1.085-2.957-1.762-2.957
			c-0.446,0-0.965,0.274-0.965,0.778c0,0.202,0.072,0.36,0.144,0.518c0.288,0.619,0.533,1.171,0.878,2.294
			c0.158,0.504,0.288,0.926,0.792,0.926C197.673,34.622,198.421,34.493,198.421,33.773z"/>
		<path class="st2" d="M218.077,28.545h-4.373c0.389-0.734,0.461-0.979,0.461-1.243c0-0.518-0.59-0.749-1.022-0.749
			c-0.605,0-0.706,0.245-1.243,1.315c-0.216,0.446-1.339,2.266-3.014,3.509c-0.662,0.49-0.778,0.576-0.778,0.97
			c0,0.475,0.432,0.965,0.936,0.965c0.984,0,2.803-2.021,3.523-3.005h4.258c0.36,0,0.547,0,0.547,0.274
			c0,0.374-0.446,1.574-0.821,2.323c-1.502,2.933-3.97,3.883-6.35,4.474c-1.07,0.259-1.344,0.346-1.344,0.97
			c0,0.216,0.086,0.994,0.95,0.994c0.461,0,3.552-0.59,5.846-2.395c3.307-2.611,3.869-6.581,3.869-7.133
			C219.517,29.064,219.128,28.545,218.077,28.545z"/>
	</g>
</g>
<g>
	<g>
		<path class="st3" d="M69.179,9.132c0.12,0,0.561,0,0.561,0.515c0,0.524-0.441,0.524-0.561,0.524h-6.034
			c-0.239,0-0.377,0.11-0.377,0.377v5.289c0,0.258,0.129,0.368,0.377,0.368h6.218c0.12,0,0.57,0.009,0.57,0.524
			c0,0.524-0.441,0.524-0.57,0.524h-6.476c-0.819,0-1.233-0.285-1.233-1.233v-5.657c0-0.957,0.414-1.233,1.233-1.233H69.179z
			 M69.005,12.83c0.129,0,0.497,0,0.497,0.478c0,0.478-0.368,0.478-0.497,0.478h-1.941c0.543,0.579,0.883,0.874,2.005,1.223
			c0.184,0.055,0.386,0.129,0.386,0.46c0,0.202-0.11,0.589-0.515,0.589c-0.322,0-1.932-0.515-2.704-1.849
			c-0.883,1.509-2.272,1.831-2.52,1.831c-0.405,0-0.524-0.386-0.524-0.589c0-0.322,0.239-0.396,0.396-0.442
			c0.57-0.175,1.306-0.414,1.775-1.223h-1.849c-0.138,0-0.488,0-0.488-0.469c0-0.46,0.294-0.488,0.488-0.488h2.153
			c0-0.009,0.028-0.23,0.028-0.322v-0.561H64.7c-0.506,0.736-0.708,0.8-0.901,0.8c-0.276,0-0.58-0.239-0.58-0.552
			c0-0.193,0.046-0.23,0.442-0.653c0.267-0.276,0.451-0.598,0.681-1.003c0.11-0.202,0.248-0.359,0.488-0.359
			c0.212,0,0.552,0.129,0.552,0.478c0,0.129-0.037,0.221-0.101,0.34h3.348c0.12,0,0.497,0,0.497,0.469
			c0,0.478-0.368,0.478-0.497,0.478h-1.886v0.561c0,0.129-0.018,0.258-0.028,0.322H69.005z"/>
		<path class="st3" d="M79.33,14.541c0,0.193,0,0.46-0.202,0.672c-0.23,0.239-0.515,0.239-0.708,0.239h-0.947v0.957
			c0,0.957-0.248,1.039-1.223,1.039c-0.589,0-0.92,0-0.92-0.506c0-0.294,0.156-0.46,0.451-0.46c0.037,0,0.35,0.009,0.377,0.009
			c0.175,0,0.212-0.064,0.212-0.248v-0.791h-0.975c-0.855,0-0.901-0.561-0.901-0.901v-0.616c-0.064,0.037-0.166,0.083-0.276,0.083
			c-0.248,0-0.432-0.239-0.46-0.488c-0.037,0.883-0.193,2.134-0.69,3.128c-0.34,0.681-0.506,0.754-0.745,0.754
			c-0.304,0-0.598-0.239-0.598-0.506c0-0.166,0.074-0.313,0.156-0.478c0.478-0.938,0.626-1.223,0.764-2.088
			c-0.175,0.129-0.524,0.368-0.754,0.368c-0.386,0-0.46-0.506-0.46-0.653c0-0.34,0.23-0.432,0.423-0.506
			c0.239-0.092,0.552-0.239,0.892-0.442v-0.92c-0.064,0.037-0.184,0.101-0.35,0.101c-0.276,0-0.322-0.156-0.469-0.552
			c-0.12-0.331-0.175-0.441-0.34-0.773c-0.018-0.046-0.064-0.156-0.064-0.285c0-0.285,0.304-0.478,0.543-0.478
			c0.276,0,0.377,0.221,0.681,0.911v-0.561c0-0.828,0.368-1.058,1.067-1.058h1.978V9.206c0-0.405,0.377-0.451,0.543-0.451
			c0.276,0,0.589,0.074,0.589,0.451v0.285h2.75c0.212,0,0.543,0.046,0.543,0.441c0,0.34-0.212,0.46-0.543,0.46H76.81
			c0.175,0.074,0.294,0.166,0.258,0.432h2.64c0.184,0,0.46,0.009,0.46,0.432c0,0.414-0.248,0.451-0.46,0.451h-1.536
			c0.414,0.441,0.46,0.488,0.616,0.616c0.064-0.074,0.322-0.414,0.386-0.478c0.074-0.074,0.156-0.083,0.239-0.083
			c0.221,0,0.497,0.166,0.497,0.377c0,0.175-0.304,0.497-0.451,0.653c0.092,0.046,0.497,0.267,0.58,0.322
			c0.175,0.11,0.193,0.202,0.193,0.322c0,0.267-0.175,0.561-0.497,0.561c-0.147,0-0.258-0.046-0.405-0.138V14.541z M74.86,16.785
			c-0.285,0.193-0.791,0.506-1.049,0.506c-0.35,0-0.469-0.331-0.469-0.497c0-0.248,0.083-0.285,0.644-0.58
			c0.359-0.184,0.478-0.276,0.856-0.543c0.119-0.092,0.212-0.129,0.34-0.129c0.258,0,0.478,0.212,0.478,0.488
			C75.66,16.206,75.476,16.381,74.86,16.785z M73.765,13.41c0.028-0.156,0.156-0.258,0.184-0.276c0.138-0.11,0.377-0.248,0.515-0.35
			c-0.11-0.12-0.239-0.258-0.35-0.368c-0.092-0.101-0.129-0.166-0.129-0.258c0-0.212,0.267-0.405,0.478-0.405
			c0.129,0,0.23,0.055,0.644,0.524c0.184-0.175,0.35-0.359,0.497-0.57h-1.269c-0.276,0-0.46-0.083-0.46-0.46s0.248-0.423,0.46-0.423
			h1.739c0.129-0.34,0.147-0.377,0.221-0.432h-2.208c-0.221,0-0.322,0.11-0.322,0.313V13.41z M75.568,13.649h2.714v-0.184
			c0-0.129-0.055-0.221-0.221-0.221h-2.272c-0.184,0-0.221,0.101-0.221,0.221V13.649z M75.568,14.32v0.193
			c0,0.129,0.046,0.23,0.221,0.23h2.272c0.184,0,0.221-0.12,0.221-0.23V14.32H75.568z M77.766,12.536
			c-0.386-0.423-0.506-0.644-0.598-0.828h-0.488c-0.129,0.212-0.285,0.469-0.58,0.828H77.766z M78.493,15.544
			c0.129,0,0.166,0.018,0.469,0.239c0.35,0.248,0.681,0.423,1.049,0.616c0.11,0.064,0.221,0.156,0.221,0.35
			c0,0.212-0.166,0.534-0.515,0.534c-0.221,0-0.727-0.322-0.966-0.478c-0.258-0.166-0.736-0.478-0.736-0.763
			C78.015,15.746,78.263,15.544,78.493,15.544z"/>
		<path class="st3" d="M83.681,15.82c-0.791,1.582-0.929,1.582-1.15,1.582c-0.294,0-0.616-0.239-0.616-0.543
			c0-0.212,0.074-0.322,0.46-0.938c0.368-0.57,0.635-1.168,0.938-1.831c0.064-0.147,0.156-0.331,0.441-0.331
			c0.23,0,0.552,0.166,0.552,0.497C84.306,14.569,83.864,15.461,83.681,15.82z M82.466,11.276c0.276,0,0.745,0.322,1.076,0.552
			c0.534,0.368,0.607,0.506,0.607,0.681c0,0.267-0.248,0.625-0.57,0.625c-0.156,0-0.221-0.046-0.763-0.451
			c-0.101-0.074-0.552-0.368-0.644-0.432c-0.166-0.11-0.221-0.184-0.221-0.432C81.951,11.588,82.19,11.276,82.466,11.276z
			 M82.724,8.884c0.257,0,0.773,0.322,1.067,0.506c0.543,0.331,0.672,0.432,0.672,0.69c0,0.304-0.258,0.644-0.552,0.644
			c-0.156,0-0.193-0.028-0.754-0.405c-0.12-0.074-0.653-0.386-0.754-0.46C82.31,9.804,82.19,9.721,82.19,9.463
			C82.19,9.215,82.43,8.884,82.724,8.884z M84.886,13.594c-0.166,0-0.561-0.009-0.561-0.534c0-0.451,0.285-0.534,0.561-0.534h1.996
			v-1.398h-1.628c-0.138,0-0.57,0-0.57-0.515c0-0.414,0.184-0.57,0.57-0.57h1.628V9.362c0-0.212,0.037-0.561,0.533-0.561
			c0.405,0,0.607,0.12,0.607,0.561v0.681h1.711c0.138,0,0.561,0,0.561,0.515c0,0.432-0.202,0.57-0.561,0.57h-1.711v1.398h2.014
			c0.138,0,0.561,0,0.561,0.506c0,0.414-0.193,0.561-0.561,0.561h-2.769c-0.35,0.966-0.837,2.024-1.049,2.465
			c1.021-0.055,1.297-0.074,2.52-0.193c-0.193-0.322-0.23-0.386-0.579-0.901c-0.12-0.175-0.138-0.276-0.138-0.368
			c0-0.322,0.34-0.497,0.57-0.497c0.239,0,0.377,0.092,0.773,0.653c0.23,0.34,0.561,0.828,0.892,1.426
			c0.202,0.368,0.276,0.543,0.276,0.708c0,0.313-0.313,0.552-0.644,0.552c-0.313,0-0.423-0.202-0.469-0.304
			c-0.028-0.046-0.138-0.276-0.156-0.322c-1.987,0.285-4.425,0.414-4.535,0.414c-0.11,0-0.552,0-0.552-0.57
			c0-0.202,0.083-0.377,0.258-0.478c0.083-0.046,0.138-0.055,0.534-0.064c0.396-0.819,0.782-1.656,1.049-2.52H84.886z"/>
		<path class="st3" d="M95.959,9.417c0-0.166,0-0.598,0.635-0.598c0.635,0,0.644,0.414,0.644,0.598V10.3
			c0,0.699,0.11,2.64,1.196,4.103c0.533,0.727,1.242,1.306,2.033,1.729c0.221,0.12,0.442,0.248,0.442,0.57
			c0,0.258-0.212,0.699-0.671,0.699c-0.451,0-1.573-0.929-2.171-1.591c-0.736-0.809-1.196-1.821-1.463-2.879
			c-0.433,1.656-1.076,2.474-1.665,3.082c-0.524,0.543-1.527,1.389-1.987,1.389c-0.386,0-0.662-0.377-0.662-0.708
			c0-0.294,0.166-0.405,0.34-0.506c1.196-0.681,2.539-1.601,3.137-4.084c0.092-0.396,0.193-1.656,0.193-1.803V9.417z"/>
		<path class="st3" d="M104.634,10.172c0.469,0,0.837,0.175,0.837,0.763c0,0.396-0.12,0.819-0.819,1.775
			c0.212,0.239,0.386,0.405,0.699,0.699c0.368,0.34,0.442,0.405,0.442,0.598c0,0.257-0.239,0.57-0.543,0.57
			c-0.322,0-0.625-0.423-0.865-0.754v3.118c0,0.451-0.212,0.561-0.625,0.561c-0.478,0-0.524-0.322-0.524-0.561v-2.714
			c-0.377,0.304-0.561,0.46-0.828,0.46c-0.294,0-0.589-0.322-0.589-0.653c0-0.313,0.138-0.405,0.828-0.892
			c1.012-0.708,1.536-1.656,1.536-1.766c0-0.138-0.138-0.147-0.221-0.147h-1.49c-0.267,0-0.561-0.074-0.561-0.534
			c0-0.524,0.414-0.524,0.561-0.524h0.754V9.344c0-0.423,0.193-0.57,0.616-0.57c0.515,0,0.543,0.386,0.543,0.57v0.828H104.634z
			 M109.804,11.23c0.156,0,0.598,0,0.598,0.534c0,0.432-0.166,0.616-0.598,0.616h-1.315v3.707h1.472c0.147,0,0.589,0,0.589,0.524
			c0,0.423-0.166,0.607-0.589,0.607h-4.222c-0.166,0-0.653,0-0.653-0.534c0-0.451,0.212-0.598,0.653-0.598h1.573v-3.707h-1.251
			c-0.147,0-0.579,0-0.579-0.543c0-0.451,0.193-0.607,0.579-0.607h1.251V9.362c0-0.212,0.027-0.57,0.543-0.57
			c0.46,0,0.635,0.156,0.635,0.57v1.867H109.804z"/>
		<path class="st3" d="M120.356,16.022c0,0.947-0.414,1.233-1.233,1.233h-5.464c-0.819,0-1.233-0.276-1.233-1.233v-5.657
			c0-0.947,0.405-1.233,1.233-1.233h5.464c0.819,0,1.233,0.285,1.233,1.233V16.022z M119.234,10.576
			c0-0.267-0.147-0.377-0.368-0.377h-4.93c-0.267,0-0.368,0.156-0.368,0.377v5.234c0,0.248,0.12,0.377,0.368,0.377h4.93
			c0.239,0,0.368-0.12,0.368-0.377V10.576z M118.176,15.01c0,1.039-0.294,1.039-1.601,1.039c-0.423,0-0.736,0-0.736-0.488
			c0-0.478,0.34-0.478,0.469-0.478c0.074,0,0.396,0.018,0.46,0.018c0.294,0,0.331-0.129,0.331-0.294v-2.484h-2.962
			c-0.193,0-0.524,0-0.524-0.469c0-0.441,0.193-0.524,0.524-0.524h2.962v-0.598c0-0.368,0.156-0.524,0.506-0.524
			c0.368,0,0.57,0.092,0.57,0.524v0.598h0.478c0.193,0,0.524,0.009,0.524,0.478c0,0.441-0.184,0.515-0.524,0.515h-0.478V15.01z
			 M115.619,13.428c0.175,0.248,0.469,0.672,0.469,0.92c0,0.377-0.414,0.534-0.616,0.534c-0.239,0-0.313-0.129-0.579-0.579
			c-0.129-0.221-0.23-0.359-0.515-0.764c-0.083-0.11-0.193-0.267-0.193-0.432c0-0.276,0.304-0.469,0.552-0.469
			C114.938,12.637,115.058,12.637,115.619,13.428z"/>
	</g>
	
		<linearGradient id="SVGID_00000070103992847690701330000000890211973164824503_" gradientUnits="userSpaceOnUse" x1="157.7016" y1="13.155" x2="159.0741" y2="13.155">
		<stop  offset="0" style="stop-color:#8AC23E"/>
		<stop  offset="1" style="stop-color:#28AC4B"/>
	</linearGradient>
	<circle style="fill:url(#SVGID_00000070103992847690701330000000890211973164824503_);" cx="158.388" cy="13.155" r="0.686"/>
	
		<linearGradient id="SVGID_00000133514081526592096100000016890528481089702537_" gradientUnits="userSpaceOnUse" x1="125.6782" y1="31.78" x2="155.624" y2="31.78" gradientTransform="matrix(1 0 0 -1 0 45)">
		<stop  offset="0" style="stop-color:#86B943"/>
		<stop  offset="1" style="stop-color:#32A44A"/>
	</linearGradient>
	<path style="fill:url(#SVGID_00000133514081526592096100000016890528481089702537_);" d="M133.962,9.61
		c0.141,0,0.569,0,0.569,0.496c0,0.373-0.159,0.55-0.569,0.55h-3.271v2.029c0,1.205,0.355,2.152,1.346,2.907
		c0.61,0.459,1.383,0.673,1.992,0.832c0.309,0.086,0.459,0.187,0.459,0.496c0,0.187-0.082,0.691-0.591,0.691
		c-0.637,0-2.984-0.914-3.767-2.738c-0.123,0.309-0.355,0.887-1.292,1.638c-0.937,0.737-2.065,1.124-2.479,1.124
		c-0.532,0-0.6-0.532-0.6-0.682c0-0.364,0.232-0.459,0.459-0.514c1.915-0.505,3.321-1.292,3.321-3.953v-1.824h-3.303
		c-0.187,0-0.56-0.027-0.56-0.523c0-0.419,0.25-0.523,0.56-0.523h3.303V9.269c0-0.3,0.159-0.469,0.532-0.469
		c0.355,0,0.619,0.073,0.619,0.469v0.346h3.271V9.61z M129.126,13.463c0,0.241-0.232,0.441-0.701,0.805
		c0.273,0.255,0.364,0.355,0.364,0.532c0,0.309-0.337,0.55-0.56,0.55c-0.159,0-0.25-0.105-0.364-0.232
		c-0.055-0.064-0.114-0.123-0.273-0.291c-0.469,0.264-1.105,0.541-1.337,0.541c-0.364,0-0.469-0.355-0.469-0.532
		c0-0.25,0.168-0.346,0.355-0.419c0.441-0.177,0.487-0.196,0.673-0.282c-0.082-0.064-0.441-0.328-0.514-0.382
		c-0.064-0.055-0.132-0.132-0.132-0.264c0-0.223,0.214-0.459,0.505-0.459c0.123,0,0.232,0,0.992,0.591
		c0.15-0.105,0.291-0.223,0.56-0.469c0.073-0.064,0.159-0.15,0.328-0.168c-0.114,0.009-0.187-0.009-0.282-0.064
		c-0.105-0.064-0.514-0.419-0.6-0.496c-0.523,0.337-1.205,0.655-1.428,0.655c-0.309,0-0.432-0.328-0.432-0.514
		c0-0.241,0.177-0.318,0.309-0.373c0.541-0.223,0.6-0.241,0.746-0.328c-0.578-0.355-0.701-0.441-0.701-0.619
		c0-0.25,0.214-0.45,0.478-0.45c0.141,0,0.232,0.036,0.419,0.141c0.168,0.105,0.441,0.264,0.664,0.409
		c0.086-0.064,0.355-0.291,0.532-0.45c0.114-0.096,0.177-0.132,0.3-0.132c0.264,0,0.459,0.223,0.459,0.432
		c0,0.214-0.159,0.346-0.541,0.655c0.487,0.364,0.55,0.441,0.55,0.628c0,0.205-0.168,0.459-0.469,0.505
		C128.894,12.967,129.126,13.222,129.126,13.463z M134.121,12.417c0,0.255-0.241,0.514-0.496,0.514c-0.132,0-0.205-0.055-0.318-0.15
		c-0.282-0.264-0.328-0.282-0.45-0.373c-0.505,0.318-1.224,0.673-1.469,0.673c-0.346,0-0.45-0.364-0.45-0.514
		c0-0.264,0.214-0.355,0.364-0.409c0.409-0.168,0.459-0.177,0.728-0.318c-0.105-0.055-0.55-0.3-0.637-0.355
		c-0.046-0.036-0.177-0.123-0.177-0.291c0-0.177,0.177-0.419,0.487-0.419c0.25,0,0.869,0.382,1.142,0.56
		c0.123-0.086,0.159-0.123,0.514-0.419c0.114-0.105,0.214-0.123,0.3-0.123c0.273,0,0.478,0.241,0.478,0.441
		s-0.159,0.328-0.505,0.619C134.026,12.135,134.121,12.24,134.121,12.417z M133.475,13.09c0.114-0.114,0.214-0.159,0.337-0.159
		c0.273,0,0.496,0.223,0.496,0.459c0,0.214-0.168,0.373-0.61,0.769c0.487,0.4,0.61,0.505,0.61,0.746
		c0,0.309-0.328,0.496-0.523,0.496c-0.132,0-0.205-0.045-0.346-0.168c-0.282-0.25-0.291-0.264-0.541-0.469
		c-0.241,0.159-0.823,0.487-1.055,0.487c-0.291,0-0.478-0.309-0.478-0.541c0-0.223,0.15-0.309,0.232-0.355
		c0.073-0.036,0.409-0.187,0.478-0.214c-0.073-0.055-0.123-0.096-0.478-0.309c-0.105-0.064-0.241-0.177-0.241-0.373
		c0-0.223,0.232-0.469,0.505-0.469c0.223,0,0.814,0.391,1.096,0.587C133.111,13.445,133.148,13.418,133.475,13.09z M137.401,12.158
		c-0.159-0.205-0.3-0.373-0.682-0.755c-0.373-0.373-0.419-0.432-0.419-0.664s0.196-0.523,0.478-0.523
		c0.105,0,0.159,0.027,0.214,0.064c0.159-0.273,0.346-0.569,0.505-0.937c0.15-0.328,0.214-0.496,0.478-0.496
		c0.232,0,0.61,0.177,0.61,0.45c0,0.3-0.56,1.187-0.869,1.647c0.15,0.159,0.168,0.177,0.291,0.318
		c0.282-0.441,0.3-0.478,0.719-1.242c0.082-0.141,0.205-0.273,0.373-0.273c0.264,0,0.6,0.214,0.6,0.487
		c0,0.168-0.309,0.637-0.45,0.86c-0.514,0.787-0.814,1.151-1.224,1.674c0.177-0.009,0.25-0.009,0.86-0.055
		c-0.141-0.409-0.15-0.459-0.15-0.541c0-0.223,0.205-0.318,0.364-0.318c0.241,0,0.309,0.187,0.391,0.391
		c0.123,0.309,0.337,1.01,0.373,1.142c0.177-0.25,0.373-0.25,0.409-0.25c0.123,0,0.223,0.027,0.691,0.478
		c0.132,0.132,0.469,0.459,0.469,0.719c0,0.196-0.187,0.478-0.505,0.478c-0.141,0-0.168-0.027-0.459-0.328
		c-0.086-0.086-0.514-0.505-0.6-0.619c-0.086,0.132-0.241,0.187-0.391,0.187c-0.264,0-0.309-0.196-0.373-0.441
		c-0.082,0.009-0.132,0.018-0.541,0.064v3.516c0,0.132,0,0.496-0.45,0.496s-0.45-0.373-0.45-0.496v-3.421
		c-0.56,0.055-0.728,0.073-0.955,0.073c-0.264,0-0.496-0.132-0.496-0.541c0-0.469,0.291-0.469,0.71-0.487L137.401,12.158z
		 M137.383,14.632c0,0.177-0.073,1.46-0.25,2.093c-0.036,0.141-0.114,0.328-0.373,0.328c-0.046,0-0.496,0-0.496-0.409
		c0-0.123,0.123-0.664,0.141-0.769c0.086-0.487,0.114-0.823,0.15-1.31c0.018-0.214,0.064-0.409,0.391-0.409
		C137.383,14.155,137.383,14.473,137.383,14.632z M140.608,15.206c0.328-0.223,0.409-0.241,0.496-0.241
		c0.25,0,0.441,0.264,0.441,0.532c0,0.241-0.105,0.328-0.664,0.746c-0.25,0.187-0.905,0.646-1.142,0.646
		c-0.264,0-0.478-0.291-0.478-0.578c0-0.073,0.009-0.123,0.027-0.168c-0.328-0.027-0.337-0.141-0.4-0.737
		c-0.009-0.132-0.105-0.796-0.105-0.814c0-0.291,0.318-0.337,0.432-0.337c0.328,0,0.355,0.15,0.45,0.664
		c0.009,0.045,0.114,0.578,0.114,0.823C140.085,15.57,140.49,15.287,140.608,15.206z M142.787,16.57
		c0,0.887-0.187,1.046-1.105,1.046c-0.6,0-0.646,0-0.701-0.009c-0.273-0.045-0.409-0.3-0.409-0.55c0-0.241,0.082-0.541,0.487-0.541
		c0.073,0,0.373,0.018,0.432,0.009c0.141-0.018,0.205-0.073,0.205-0.291v-3.33h-1.551c-0.132,0-0.478,0-0.478-0.459
		c0-0.355,0.132-0.505,0.478-0.505h3.102v-0.505h-2.657c-0.141,0-0.459-0.009-0.459-0.432c0-0.382,0.241-0.432,0.459-0.432h2.657
		v-0.282c0-0.096-0.027-0.223-0.223-0.223h-2.57c-0.132,0-0.469,0-0.469-0.45c0-0.346,0.114-0.505,0.469-0.505h2.925
		c0.646,0,0.983,0.223,0.983,1.01v1.851h0.273c0.273,0,0.419,0.168,0.419,0.459c0,0.45-0.309,0.469-0.478,0.469h-1.788v0.496
		c0.114,0.273,0.309,0.619,0.4,0.778c0.159-0.141,0.432-0.391,0.701-0.719c0.214-0.273,0.3-0.346,0.487-0.346
		c0.3,0,0.523,0.264,0.523,0.496c0,0.177-0.064,0.309-0.223,0.505c-0.355,0.419-0.673,0.71-0.896,0.905
		c0.232,0.282,0.432,0.478,0.628,0.637c0.496,0.409,0.637,0.523,0.637,0.778c0,0.282-0.264,0.61-0.578,0.61
		c-0.373,0-1.169-0.878-1.674-1.797v1.328H142.787z M149.242,12.372c-0.346,0-0.532-0.123-0.56-0.469
		c-0.364,0.214-1.046,0.61-1.374,0.61c-0.3,0-0.569-0.309-0.569-0.701c0-0.355,0.223-0.469,0.505-0.569
		c1.41-0.532,2.234-1.319,2.925-1.983c0.373-0.364,0.523-0.505,1.01-0.505s0.61,0.132,1.151,0.655
		c0.514,0.514,1.283,1.242,2.825,1.87c0.282,0.114,0.469,0.214,0.469,0.55c0,0.373-0.273,0.691-0.6,0.691
		c-0.3,0-0.973-0.382-1.319-0.6c-0.046,0.4-0.318,0.45-0.569,0.45H149.242z M150.529,14.332c-0.223,0.541-0.432,0.983-0.923,1.861
		c1.328-0.045,1.551-0.064,3.507-0.177c-0.141-0.177-0.187-0.223-0.55-0.628c-0.205-0.223-0.241-0.337-0.241-0.459
		c0-0.282,0.346-0.532,0.646-0.532c0.159,0,0.3,0.064,0.478,0.241c0.373,0.364,0.805,0.832,1.242,1.392
		c0.45,0.56,0.55,0.737,0.55,0.946c0,0.328-0.4,0.619-0.728,0.619c-0.214,0-0.318-0.123-0.373-0.205
		c-0.036-0.055-0.232-0.355-0.282-0.419c-0.973,0.114-1.983,0.187-2.975,0.25c-0.469,0.036-2.88,0.177-3.253,0.177
		c-0.15,0-0.578,0-0.578-0.6c0-0.082,0-0.505,0.419-0.541c0.086-0.009,0.737-0.027,0.878-0.027c0.337-0.619,0.673-1.233,0.896-1.897
		h-1.729c-0.391,0-0.569-0.177-0.569-0.587c0-0.523,0.441-0.523,0.569-0.523h7.31c0.382,0,0.569,0.159,0.569,0.578
		c0,0.532-0.441,0.532-0.569,0.532H150.529z M152.822,11.334c-0.291-0.214-0.842-0.637-1.374-1.233
		c-0.141-0.15-0.177-0.187-0.264-0.187c-0.086,0-0.123,0.036-0.264,0.187c-0.419,0.459-0.878,0.869-1.374,1.233H152.822z"/>
	<g>
		<g>
			<g>
				
					<linearGradient id="SVGID_00000170975512758115455870000012722239648718883259_" gradientUnits="userSpaceOnUse" x1="161.1516" y1="13.2147" x2="169.8867" y2="13.2147">
					<stop  offset="0" style="stop-color:#8AC23E"/>
					<stop  offset="1" style="stop-color:#28AC4B"/>
				</linearGradient>
				<path style="fill:url(#SVGID_00000170975512758115455870000012722239648718883259_);" d="M166.135,12.259h3.181
					c0.166,0,0.57,0.009,0.57,0.542c0,0.45-0.165,0.625-0.57,0.625h-3.181v3.531c0,0.285-0.083,0.57-0.561,0.57
					c-0.506,0-0.69-0.128-0.69-0.57v-3.531h-3.153c-0.221,0-0.58-0.037-0.58-0.542c0-0.432,0.138-0.625,0.58-0.625h3.153v-1.793
					c-0.772,0.028-2.556,0.065-2.602,0.065c-0.174,0-0.561,0-0.561-0.57c0-0.542,0.358-0.542,0.837-0.552
					c0.377,0,2.878-0.074,4.423-0.276c0.248-0.037,1.462-0.23,1.554-0.23c0.579,0,0.579,0.579,0.579,0.662
					c0,0.358-0.202,0.45-0.377,0.506c-0.487,0.166-1.958,0.276-2.602,0.331V12.259z"/>
			</g>
			<g>
				
					<linearGradient id="SVGID_00000170984472156010315300000001253824906435124118_" gradientUnits="userSpaceOnUse" x1="171.3112" y1="13.1919" x2="180.0185" y2="13.1919">
					<stop  offset="0" style="stop-color:#8AC23E"/>
					<stop  offset="1" style="stop-color:#28AC4B"/>
				</linearGradient>
				<path style="fill:url(#SVGID_00000170984472156010315300000001253824906435124118_);" d="M176.764,9.371
					c0-0.221,0-0.542,0.515-0.542c0.588,0,0.598,0.257,0.598,0.542h1.6c0.12,0,0.542,0,0.542,0.46c0,0.377-0.276,0.46-0.542,0.46
					h-1.6c0,0.156,0,0.165-0.018,0.239c0.055-0.009,0.138-0.019,0.266-0.019c0.35,0,0.579,0.083,0.579,0.359v0.239h0.828
					c0.23,0,0.478,0.055,0.478,0.423c0,0.358-0.221,0.432-0.478,0.432h-0.828v0.22c0,0.8-0.395,0.837-0.956,0.837h-1.683
					c-0.57,0-0.965-0.037-0.965-0.837v-0.22h-1.407v1.048c0,0.156,0.074,0.267,0.266,0.267h5.112c0.12,0,0.469,0,0.469,0.423
					c0,0.349-0.147,0.469-0.469,0.469h-2.85v0.331h3.31c0.128,0,0.478,0,0.478,0.432c0,0.331-0.12,0.487-0.478,0.487h-2.354
					c0.634,0.432,1.351,0.699,1.802,0.809c0.662,0.156,0.92,0.211,0.92,0.57c0,0.304-0.175,0.561-0.496,0.561
					c-0.506,0-2.087-0.533-3.182-1.545v1.177c0,0.221-0.036,0.561-0.524,0.561c-0.404,0-0.607-0.12-0.607-0.561v-1.195
					c-1.14,1.085-2.841,1.563-3.163,1.563c-0.423,0-0.515-0.377-0.515-0.552c0-0.349,0.248-0.423,0.937-0.588
					c0.285-0.074,1.168-0.359,1.793-0.8h-2.344c-0.138,0-0.488,0-0.488-0.46c0-0.414,0.276-0.46,0.488-0.46h3.291v-0.331h-1.499
					c-0.634,0-1.002-0.202-1.002-1.002v-1.204h-0.8c-0.174,0-0.478-0.019-0.478-0.423c0-0.322,0.166-0.432,0.478-0.432h0.8V10.87
					c0-0.313,0.266-0.368,0.533-0.368c0.055,0,0.23,0,0.368,0.046c-0.018-0.055-0.018-0.074-0.018-0.129v-0.129h-1.609
					c-0.138,0-0.552-0.009-0.552-0.46c0-0.368,0.266-0.46,0.552-0.46h1.609c0-0.23,0-0.542,0.515-0.542
					c0.597,0,0.597,0.257,0.597,0.542H176.764z M176.764,10.291h-2.179c0,0.239,0,0.515-0.588,0.515
					c-0.11,0-0.211-0.018-0.321-0.064c0.018,0.046,0.018,0.073,0.018,0.129v0.239h1.407V10.87c0-0.258,0.119-0.368,0.597-0.368
					c0.358,0,0.488,0.129,0.488,0.368v0.239h1.379v-0.248c0-0.037,0-0.046,0.009-0.092c-0.064,0.019-0.138,0.037-0.266,0.037
					c-0.34,0-0.542-0.119-0.542-0.395V10.291z M176.185,11.964v0.202c0,0.119,0.055,0.184,0.184,0.184h1.02
					c0.129,0,0.175-0.074,0.175-0.184v-0.202H176.185z"/>
			</g>
			<g>
				
					<linearGradient id="SVGID_00000118391510068779830420000017379869149231688383_" gradientUnits="userSpaceOnUse" x1="181.719" y1="13.1457" x2="190.4271" y2="13.1457">
					<stop  offset="0" style="stop-color:#8AC23E"/>
					<stop  offset="1" style="stop-color:#28AC4B"/>
				</linearGradient>
				<path style="fill:url(#SVGID_00000118391510068779830420000017379869149231688383_);" d="M189.866,9.601
					c0.137,0,0.561,0,0.561,0.487c0,0.368-0.156,0.542-0.561,0.542h-3.218v1.995c0,1.186,0.349,2.115,1.324,2.86
					c0.598,0.45,1.361,0.662,1.959,0.818c0.303,0.083,0.45,0.184,0.45,0.487c0,0.184-0.083,0.68-0.58,0.68
					c-0.625,0-2.933-0.901-3.705-2.694c-0.12,0.303-0.349,0.874-1.269,1.609c-0.919,0.726-2.032,1.103-2.436,1.103
					c-0.524,0-0.588-0.524-0.588-0.671c0-0.358,0.23-0.45,0.45-0.506c1.885-0.496,3.264-1.269,3.264-3.889v-1.793h-3.246
					c-0.184,0-0.552-0.028-0.552-0.515c0-0.414,0.248-0.515,0.552-0.515h3.246v-0.34c0-0.294,0.156-0.46,0.523-0.46
					c0.35,0,0.607,0.074,0.607,0.46v0.34H189.866z M185.113,13.39c0,0.239-0.23,0.432-0.69,0.791
					c0.266,0.248,0.358,0.349,0.358,0.524c0,0.303-0.331,0.542-0.551,0.542c-0.157,0-0.248-0.101-0.359-0.23
					c-0.055-0.064-0.11-0.119-0.266-0.285c-0.46,0.258-1.085,0.533-1.315,0.533c-0.358,0-0.459-0.349-0.459-0.524
					c0-0.248,0.165-0.34,0.349-0.414c0.432-0.175,0.478-0.193,0.662-0.276c-0.083-0.064-0.432-0.322-0.506-0.377
					c-0.064-0.055-0.129-0.129-0.129-0.258c0-0.22,0.212-0.45,0.496-0.45c0.12,0,0.23,0,0.975,0.579
					c0.147-0.101,0.285-0.22,0.552-0.46c0.073-0.065,0.156-0.147,0.321-0.166c-0.11,0.009-0.184-0.009-0.276-0.064
					c-0.101-0.064-0.505-0.414-0.588-0.487c-0.515,0.331-1.186,0.644-1.406,0.644c-0.304,0-0.423-0.322-0.423-0.506
					c0-0.239,0.175-0.313,0.304-0.368c0.533-0.22,0.588-0.239,0.735-0.322c-0.569-0.349-0.689-0.432-0.689-0.607
					c0-0.248,0.212-0.441,0.469-0.441c0.138,0,0.23,0.037,0.414,0.138c0.166,0.101,0.432,0.258,0.653,0.404
					c0.083-0.064,0.35-0.285,0.524-0.441c0.11-0.092,0.174-0.129,0.294-0.129c0.258,0,0.45,0.22,0.45,0.423
					c0,0.211-0.156,0.34-0.533,0.644c0.477,0.358,0.542,0.432,0.542,0.616c0,0.202-0.166,0.45-0.46,0.496
					C184.883,12.902,185.113,13.15,185.113,13.39z M190.023,12.36c0,0.248-0.239,0.506-0.488,0.506
					c-0.128,0-0.202-0.055-0.312-0.147c-0.276-0.257-0.322-0.276-0.442-0.368c-0.496,0.312-1.204,0.662-1.443,0.662
					c-0.34,0-0.441-0.358-0.441-0.506c0-0.257,0.211-0.349,0.358-0.404c0.404-0.166,0.45-0.175,0.717-0.313
					c-0.101-0.055-0.542-0.294-0.625-0.349c-0.046-0.037-0.174-0.119-0.174-0.285c0-0.174,0.174-0.414,0.477-0.414
					c0.248,0,0.856,0.377,1.122,0.552c0.12-0.083,0.156-0.119,0.506-0.414c0.11-0.101,0.211-0.12,0.294-0.12
					c0.267,0,0.469,0.239,0.469,0.432s-0.156,0.322-0.496,0.607C189.931,12.084,190.023,12.185,190.023,12.36z M189.388,13.022
					c0.11-0.11,0.211-0.156,0.331-0.156c0.266,0,0.487,0.221,0.487,0.45c0,0.212-0.165,0.368-0.597,0.754
					c0.478,0.395,0.597,0.496,0.597,0.736c0,0.303-0.321,0.487-0.515,0.487c-0.129,0-0.202-0.046-0.34-0.166
					c-0.276-0.248-0.285-0.257-0.533-0.46c-0.239,0.156-0.809,0.478-1.039,0.478c-0.285,0-0.469-0.304-0.469-0.533
					c0-0.221,0.147-0.303,0.23-0.349c0.074-0.037,0.404-0.184,0.469-0.212c-0.074-0.055-0.12-0.092-0.469-0.303
					c-0.101-0.064-0.239-0.174-0.239-0.368c0-0.221,0.23-0.46,0.496-0.46c0.22,0,0.8,0.386,1.075,0.579
					C189.029,13.371,189.066,13.344,189.388,13.022z"/>
			</g>
			<g>
				
					<linearGradient id="SVGID_00000119797352284878756340000013759421362784010417_" gradientUnits="userSpaceOnUse" x1="192.1071" y1="13.1917" x2="200.7969" y2="13.1917">
					<stop  offset="0" style="stop-color:#8AC23E"/>
					<stop  offset="1" style="stop-color:#28AC4B"/>
				</linearGradient>
				<path style="fill:url(#SVGID_00000119797352284878756340000013759421362784010417_);" d="M193.275,12.102
					c-0.156-0.203-0.294-0.368-0.671-0.745c-0.368-0.368-0.414-0.423-0.414-0.653s0.193-0.515,0.469-0.515
					c0.101,0,0.156,0.027,0.212,0.064c0.156-0.266,0.34-0.561,0.496-0.92c0.147-0.322,0.211-0.487,0.469-0.487
					c0.23,0,0.598,0.175,0.598,0.441c0,0.294-0.552,1.168-0.856,1.618c0.147,0.156,0.166,0.175,0.285,0.313
					c0.276-0.432,0.294-0.469,0.708-1.223c0.083-0.138,0.202-0.267,0.367-0.267c0.258,0,0.588,0.212,0.588,0.478
					c0,0.165-0.303,0.625-0.441,0.846c-0.506,0.772-0.8,1.131-1.205,1.646c0.174-0.009,0.248-0.009,0.846-0.055
					c-0.138-0.405-0.147-0.451-0.147-0.533c0-0.221,0.202-0.313,0.358-0.313c0.239,0,0.304,0.184,0.386,0.386
					c0.12,0.303,0.331,0.993,0.368,1.122c0.174-0.248,0.368-0.248,0.404-0.248c0.12,0,0.22,0.028,0.68,0.469
					c0.128,0.128,0.46,0.45,0.46,0.708c0,0.193-0.184,0.469-0.496,0.469c-0.138,0-0.166-0.028-0.45-0.322
					c-0.083-0.083-0.506-0.496-0.588-0.607c-0.083,0.128-0.239,0.184-0.386,0.184c-0.258,0-0.304-0.193-0.368-0.432
					c-0.082,0.009-0.128,0.018-0.534,0.064v3.457c0,0.128,0,0.487-0.441,0.487c-0.442,0-0.442-0.368-0.442-0.487v-3.365
					c-0.551,0.055-0.717,0.073-0.937,0.073c-0.258,0-0.488-0.128-0.488-0.533c0-0.46,0.285-0.46,0.699-0.478L193.275,12.102z
					 M193.257,14.539c0,0.175-0.074,1.435-0.248,2.06c-0.037,0.138-0.111,0.322-0.368,0.322c-0.046,0-0.488,0-0.488-0.404
					c0-0.12,0.12-0.653,0.138-0.754c0.083-0.478,0.11-0.809,0.147-1.287c0.018-0.211,0.064-0.404,0.386-0.404
					C193.257,14.07,193.257,14.383,193.257,14.539z M196.429,15.1c0.322-0.221,0.405-0.239,0.488-0.239
					c0.248,0,0.432,0.257,0.432,0.524c0,0.239-0.101,0.322-0.653,0.736c-0.248,0.184-0.892,0.634-1.122,0.634
					c-0.257,0-0.469-0.285-0.469-0.57c0-0.074,0.009-0.12,0.028-0.166c-0.322-0.027-0.331-0.138-0.396-0.726
					c-0.009-0.129-0.101-0.782-0.101-0.8c0-0.285,0.312-0.331,0.423-0.331c0.322,0,0.35,0.147,0.442,0.653
					c0.009,0.046,0.11,0.57,0.11,0.809C195.914,15.458,196.31,15.182,196.429,15.1z M198.572,16.442c0,0.874-0.184,1.03-1.085,1.03
					c-0.588,0-0.634,0-0.69-0.009c-0.266-0.046-0.404-0.294-0.404-0.542c0-0.239,0.083-0.533,0.478-0.533
					c0.074,0,0.368,0.018,0.423,0.009c0.138-0.018,0.202-0.073,0.202-0.285v-3.273h-1.526c-0.129,0-0.469,0-0.469-0.451
					c0-0.349,0.129-0.496,0.469-0.496h3.053v-0.496h-2.612c-0.138,0-0.45-0.009-0.45-0.423c0-0.377,0.239-0.423,0.45-0.423h2.612
					v-0.276c0-0.092-0.028-0.22-0.22-0.22h-2.529c-0.128,0-0.459,0-0.459-0.441c0-0.34,0.11-0.496,0.459-0.496h2.878
					c0.634,0,0.966,0.22,0.966,0.993v1.821h0.266c0.266,0,0.414,0.165,0.414,0.45c0,0.441-0.304,0.46-0.469,0.46h-1.756v0.487
					c0.11,0.266,0.303,0.607,0.395,0.763c0.156-0.138,0.423-0.386,0.69-0.708c0.212-0.267,0.294-0.34,0.478-0.34
					c0.294,0,0.515,0.257,0.515,0.487c0,0.174-0.064,0.303-0.22,0.496c-0.35,0.414-0.662,0.699-0.883,0.892
					c0.23,0.276,0.423,0.469,0.616,0.625c0.487,0.404,0.625,0.515,0.625,0.763c0,0.276-0.258,0.598-0.57,0.598
					c-0.368,0-1.149-0.864-1.646-1.765V16.442z"/>
			</g>
			<g>
				
					<linearGradient id="SVGID_00000109015939888832297830000011623908856466833792_" gradientUnits="userSpaceOnUse" x1="202.4791" y1="13.1044" x2="211.2142" y2="13.1044">
					<stop  offset="0" style="stop-color:#8AC23E"/>
					<stop  offset="1" style="stop-color:#28AC4B"/>
				</linearGradient>
				<path style="fill:url(#SVGID_00000109015939888832297830000011623908856466833792_);" d="M204.943,12.314
					c-0.34,0-0.524-0.12-0.552-0.46c-0.358,0.211-1.029,0.598-1.351,0.598c-0.294,0-0.561-0.303-0.561-0.69
					c0-0.349,0.22-0.46,0.496-0.561c1.389-0.524,2.198-1.296,2.878-1.949c0.367-0.358,0.515-0.496,0.993-0.496
					s0.597,0.129,1.131,0.644c0.506,0.506,1.259,1.223,2.777,1.839c0.276,0.11,0.46,0.211,0.46,0.542c0,0.368-0.266,0.68-0.588,0.68
					c-0.294,0-0.956-0.377-1.297-0.588c-0.046,0.395-0.312,0.441-0.561,0.441H204.943z M206.212,14.245
					c-0.221,0.533-0.423,0.966-0.91,1.83c1.305-0.046,1.527-0.065,3.448-0.175c-0.138-0.175-0.184-0.22-0.542-0.616
					c-0.202-0.221-0.239-0.331-0.239-0.451c0-0.276,0.34-0.524,0.634-0.524c0.156,0,0.294,0.064,0.469,0.239
					c0.367,0.359,0.791,0.818,1.223,1.37c0.441,0.552,0.542,0.726,0.542,0.929c0,0.322-0.396,0.607-0.718,0.607
					c-0.211,0-0.312-0.12-0.368-0.202c-0.036-0.055-0.229-0.35-0.275-0.414c-0.956,0.11-1.949,0.184-2.924,0.248
					c-0.46,0.037-2.832,0.175-3.2,0.175c-0.147,0-0.57,0-0.57-0.588c0-0.083,0-0.496,0.414-0.533
					c0.083-0.009,0.726-0.028,0.864-0.028c0.331-0.607,0.662-1.213,0.883-1.867h-1.701c-0.386,0-0.561-0.174-0.561-0.579
					c0-0.515,0.432-0.515,0.561-0.515h7.19c0.377,0,0.561,0.156,0.561,0.57c0,0.524-0.432,0.524-0.561,0.524H206.212z
					 M208.465,11.293c-0.285-0.211-0.827-0.625-1.351-1.214c-0.138-0.147-0.174-0.184-0.258-0.184c-0.083,0-0.119,0.037-0.257,0.184
					c-0.414,0.451-0.864,0.855-1.351,1.214H208.465z"/>
			</g>
		</g>
	</g>
</g>
<g>
	<path class="st11" d="M7.392,5.712c0.269,7.195,6.024,12.989,13.205,13.325C20.328,11.837,14.578,6.043,7.392,5.712"/>
	<path class="st12" d="M41.333,0C30.629,0.782,18.403,9.854,22.459,33.009c0-7.44,1.114-11.962,1.997-14.174
		C33.773,17.462,40.973,9.61,41.333,0"/>
	<path class="st13" d="M12.139,41.385c0.25,0,0.346,0.01,0.456,0.067c0.149,0.077,0.25,0.25,0.25,0.451
		c0,0.206-0.101,0.379-0.25,0.451c-0.11,0.058-0.211,0.067-0.456,0.067h-1.694v1.67c0,0.274-0.01,0.37-0.082,0.514
		c-0.086,0.163-0.278,0.278-0.509,0.278s-0.422-0.115-0.509-0.278c-0.072-0.144-0.082-0.24-0.082-0.514v-4.507
		c0-0.173,0-0.384,0.163-0.552c0.163-0.163,0.379-0.163,0.552-0.163h2.563c0.25,0,0.346,0.01,0.456,0.067
		c0.149,0.077,0.25,0.25,0.25,0.451c0,0.206-0.101,0.379-0.25,0.451c-0.115,0.058-0.211,0.067-0.456,0.067H10.44v1.469h1.699V41.385
		z"/>
	<path class="st13" d="M15.735,44.899c-0.437,0-0.787-0.144-1.032-0.384c-0.35-0.355-0.446-0.763-0.446-1.243v-2.083
		c0-0.264,0.014-0.37,0.072-0.49c0.082-0.158,0.25-0.259,0.475-0.259c0.221,0,0.394,0.101,0.475,0.259
		c0.058,0.12,0.072,0.221,0.072,0.49v1.93c0,0.59,0.379,0.787,0.72,0.787c0.346,0,0.73-0.197,0.73-0.787v-1.93
		c0-0.264,0.014-0.37,0.072-0.49c0.082-0.158,0.254-0.259,0.475-0.259c0.221,0,0.394,0.101,0.475,0.259
		c0.058,0.12,0.072,0.221,0.072,0.49v2.952c0,0.278-0.014,0.365-0.082,0.49c-0.082,0.154-0.264,0.25-0.47,0.25
		c-0.149,0-0.264-0.048-0.35-0.125c-0.086-0.082-0.13-0.173-0.163-0.317C16.555,44.745,16.138,44.899,15.735,44.899"/>
	<path class="st13" d="M19.752,41.443h-0.11c-0.206,0-0.283-0.014-0.37-0.058c-0.13-0.067-0.202-0.197-0.202-0.36
		s0.072-0.293,0.202-0.36c0.086-0.048,0.163-0.058,0.37-0.058h0.11v-0.581c0-0.264,0.014-0.37,0.072-0.49
		c0.082-0.158,0.254-0.259,0.475-0.259s0.394,0.101,0.475,0.259c0.058,0.12,0.072,0.221,0.072,0.49v0.581h0.326
		c0.206,0,0.283,0.014,0.37,0.058c0.13,0.067,0.202,0.197,0.202,0.36s-0.072,0.293-0.202,0.36c-0.086,0.048-0.163,0.058-0.37,0.058
		h-0.326v2.098c0,0.206,0.077,0.37,0.35,0.389c0.139,0.01,0.235,0.019,0.326,0.067c0.134,0.067,0.216,0.192,0.216,0.389
		c0,0.192-0.086,0.322-0.216,0.389c-0.096,0.048-0.24,0.077-0.451,0.077h-0.058c-0.907,0-1.262-0.614-1.262-1.253
		C19.752,43.598,19.752,41.443,19.752,41.443z"/>
	<path class="st13" d="M23.722,41.558c-0.144,0.086-0.264,0.115-0.36,0.115c-0.11,0-0.23-0.048-0.312-0.149
		c-0.086-0.106-0.12-0.202-0.12-0.326c0-0.245,0.206-0.418,0.408-0.518c0.317-0.168,0.662-0.254,1.104-0.254
		c1.219,0,1.843,0.518,1.843,1.546v2.17c0,0.283-0.014,0.365-0.082,0.49c-0.082,0.149-0.264,0.254-0.47,0.254
		c-0.149,0-0.264-0.048-0.35-0.125c-0.082-0.077-0.125-0.158-0.158-0.288c-0.317,0.312-0.586,0.432-1.085,0.432
		c-0.494,0-0.864-0.139-1.118-0.394c-0.23-0.23-0.36-0.595-0.36-0.984c0-0.696,0.48-1.267,1.512-1.267h1.018v-0.216
		c0-0.48-0.25-0.686-0.768-0.686C24.163,41.352,23.962,41.414,23.722,41.558 M25.19,43.003h-0.83c-0.437,0-0.648,0.178-0.648,0.504
		c0,0.302,0.211,0.494,0.662,0.494c0.269,0,0.461-0.034,0.648-0.211c0.13-0.12,0.168-0.274,0.168-0.552V43.003z"/>
	<path class="st13" d="M27.878,39.585c0-0.264,0.014-0.37,0.072-0.485c0.082-0.158,0.25-0.259,0.475-0.259
		c0.221,0,0.394,0.101,0.475,0.259c0.058,0.12,0.072,0.221,0.072,0.485v1.277c0.278-0.322,0.614-0.437,1.056-0.437
		c0.437,0,0.816,0.144,1.056,0.394c0.418,0.427,0.451,1.109,0.451,1.838c0,0.739-0.034,1.421-0.451,1.848
		c-0.245,0.25-0.634,0.394-1.061,0.394c-0.466,0-0.787-0.12-1.085-0.451c-0.034,0.144-0.077,0.235-0.158,0.312
		c-0.086,0.082-0.202,0.125-0.35,0.125c-0.206,0-0.389-0.101-0.47-0.254c-0.067-0.125-0.082-0.211-0.082-0.49V39.585z
		 M29.707,41.414c-0.653,0-0.739,0.542-0.739,1.243c0,0.701,0.082,1.253,0.749,1.253c0.648,0,0.73-0.552,0.73-1.253
		C30.446,41.957,30.365,41.414,29.707,41.414"/>
	<path class="st13" d="M33.734,41.558c-0.144,0.086-0.264,0.115-0.36,0.115c-0.11,0-0.23-0.048-0.312-0.149
		c-0.086-0.106-0.12-0.202-0.12-0.326c0-0.245,0.206-0.418,0.408-0.518c0.317-0.168,0.662-0.254,1.104-0.254
		c1.219,0,1.843,0.518,1.843,1.546v2.17c0,0.283-0.014,0.365-0.082,0.49c-0.082,0.149-0.264,0.254-0.47,0.254
		c-0.149,0-0.264-0.048-0.35-0.125s-0.125-0.158-0.158-0.288c-0.322,0.312-0.586,0.432-1.085,0.432
		c-0.494,0-0.864-0.139-1.118-0.394c-0.23-0.23-0.36-0.595-0.36-0.984c0-0.696,0.48-1.267,1.512-1.267h1.018v-0.216
		c0-0.48-0.25-0.686-0.768-0.686C34.176,41.352,33.974,41.414,33.734,41.558 M35.203,43.003h-0.83c-0.437,0-0.648,0.178-0.648,0.504
		c0,0.302,0.211,0.494,0.662,0.494c0.269,0,0.461-0.034,0.648-0.211c0.13-0.12,0.168-0.274,0.168-0.552L35.203,43.003z"/>
	<g>
		<g>
			<defs>
				<path id="SVGID_00000138537124621648109610000007865660093520828576_" d="M38.386,17.678c-0.83-2.366-2.074-0.749-2.006,0.806
					c-0.797-1.262-1.44-0.038-1.44,1.507c-1.397-1.603-1.018,2.395-1.018,3.504c2.707-2.837,5.03-2.371,5.573-1.205
					c0.946,2.026-2.698,6-4.286,7.464c-1.032,0.95-2.477,1.032-0.432-0.912c0.307-0.293,1.056-1.013,2.093-2.261
					c4.056-4.867,0.302-5.078-1.819-3.014c-1.795,1.742-2.726,3.192-6.84,5.074c-1.776,0.811-2.789,2.102-2.678,4.502
					c0.072,1.608,2.371,5.429,7.152,2.352c4.584-2.952,6.614-4.81,8.443-8.078c1.858-3.317-0.072-7.982-0.384-8.938
					c-0.494-1.507-1.061-2.088-1.522-2.088C38.789,16.387,38.453,16.92,38.386,17.678"/>
			</defs>
			<clipPath id="SVGID_00000158749331308653369970000001264748988297525179_">
				<use xlink:href="#SVGID_00000138537124621648109610000007865660093520828576_"  style="overflow:visible;"/>
			</clipPath>
			
				<linearGradient id="SVGID_00000000197013486591504680000018191686907411338641_" gradientUnits="userSpaceOnUse" x1="-147.9377" y1="-419.9873" x2="-147.4547" y2="-419.9873" gradientTransform="matrix(40.7752 -7.1898 -7.1898 -40.7752 3035.012 -18159.6875)">
				<stop  offset="0" style="stop-color:#FEF2E0"/>
				<stop  offset="0.1296" style="stop-color:#FDEFD8"/>
				<stop  offset="0.341" style="stop-color:#FBE6C2"/>
				<stop  offset="0.6078" style="stop-color:#F7D79D"/>
				<stop  offset="0.9169" style="stop-color:#F2C368"/>
				<stop  offset="1" style="stop-color:#F0BD58"/>
			</linearGradient>
			
				<polygon style="clip-path:url(#SVGID_00000158749331308653369970000001264748988297525179_);fill:url(#SVGID_00000000197013486591504680000018191686907411338641_);" points="
				26.016,41.568 47.03,37.862 42.523,12.307 21.509,16.013 			"/>
		</g>
	</g>
	<g>
		<g>
			<defs>
				<path id="SVGID_00000070821120913283762010000003508587766118534591_" d="M6.538,17.678c0.83-2.366,2.074-0.749,2.006,0.806
					c0.797-1.262,1.44-0.038,1.44,1.507c1.397-1.603,1.018,2.395,1.018,3.504c-2.702-2.842-5.03-2.376-5.573-1.21
					c-0.946,2.026,2.698,6,4.286,7.464c1.032,0.95,2.477,1.032,0.432-0.912c-0.307-0.293-1.056-1.013-2.093-2.261
					c-4.056-4.867-0.302-5.078,1.819-3.014c1.795,1.742,2.726,3.192,6.84,5.074c1.776,0.811,2.789,2.102,2.678,4.502
					c-0.072,1.608-2.371,5.429-7.152,2.352c-4.584-2.952-6.614-4.81-8.443-8.078c-1.858-3.317,0.072-7.982,0.384-8.938
					c0.494-1.507,1.061-2.088,1.522-2.088C6.135,16.387,6.471,16.92,6.538,17.678"/>
			</defs>
			<clipPath id="SVGID_00000169535609303781630570000005383741287609949595_">
				<use xlink:href="#SVGID_00000070821120913283762010000003508587766118534591_"  style="overflow:visible;"/>
			</clipPath>
			
				<linearGradient id="SVGID_00000147926357265262776330000004341876548587852172_" gradientUnits="userSpaceOnUse" x1="-145.8847" y1="-413.2203" x2="-145.3855" y2="-413.2203" gradientTransform="matrix(36.5262 6.4406 -6.4406 36.5262 2669.7146 16058.4492)">
				<stop  offset="0" style="stop-color:#E798A2"/>
				<stop  offset="0.2301" style="stop-color:#EDB2B8"/>
				<stop  offset="0.567" style="stop-color:#F5D3D5"/>
				<stop  offset="0.8354" style="stop-color:#FAE6E6"/>
				<stop  offset="1" style="stop-color:#FBEDED"/>
			</linearGradient>
			
				<polygon style="clip-path:url(#SVGID_00000169535609303781630570000005383741287609949595_);fill:url(#SVGID_00000147926357265262776330000004341876548587852172_);" points="
				2.29,12.307 23.41,16.109 19.018,41.568 -2.107,37.766 			"/>
		</g>
	</g>
</g>
</svg>
