<?xml version="1.0" encoding="utf-8"?>
<!-- Generator: Adobe Illustrator 28.1.0, SVG Export Plug-In . SVG Version: 6.00 Build 0)  -->
<svg version="1.1" id="レイヤー_1" xmlns="http://www.w3.org/2000/svg" xmlns:xlink="http://www.w3.org/1999/xlink" x="0px"
	 y="0px" viewBox="0 0 431 66" style="enable-background:new 0 0 431 66;" xml:space="preserve">
<style type="text/css">
	.st0{display:none;}
	.st1{display:inline;}
	.st2{font-family:'STXingkaiTC-Bold';}
	.st3{font-size:37.3444px;}
	.st4{font-size:32.0095px;}
	.st5{font-family:'STXingkaiSC-Bold';}
	.st6{font-size:64.0191px;}
</style>
<g>
	<path d="M26.6,17.4c-0.1,0.4-0.2,0.8-0.3,1.2c-0.1,0.4-0.2,0.7-0.3,1.1c0.1-0.1,0.3-0.2,0.4-0.3c0.1-0.1,0.3-0.2,0.4-0.3
		c0.3-0.2,0.5-0.3,0.7-0.4c0.2,0,0.4,0,0.8,0c0.7,0.2,1.3,0.4,1.7,0.6c0.4,0.2,0.6,0.4,0.6,0.6c0,0.2-0.1,0.5-0.4,0.8
		C30,21,29.6,21.4,29,21.8c-1.1,0.8-2,1.6-2.9,2.3s-1.6,1.4-2.2,2.1c-0.6,0.6-1.1,1.2-1.4,1.7c-0.3,0.5-0.5,0.9-0.6,1.1
		c0.4-0.1,0.7-0.3,1-0.4c0.3-0.1,0.6-0.4,0.9-0.7c0.4-0.4,0.7-0.8,1-1.2c0.3-0.4,0.5-0.8,0.7-1c0.1-0.1,0.3-0.2,0.6-0.2
		c0.3,0,0.9,0.1,1.7,0.3c0.4,0.1,0.7,0.3,0.9,0.6c0.2,0.3,0.3,0.6,0.3,0.9c0,0.3-0.1,0.7-0.3,1c-0.2,0.3-0.6,0.7-1.1,1
		c-0.4,0.2-0.9,0.6-1.3,0.9s-0.9,0.8-1.4,1.3c1.1,0.6,1.6,1,1.8,1.4c0.1,0.4-0.1,0.8-0.6,1.3c-0.4,0.5-0.9,1.3-1.5,2.5
		s-1.1,2.4-1.5,3.9c-0.2,0.6-0.3,1-0.2,1.2s0.4,0.5,0.9,0.6c0.3,0.1,0.7,0.2,1.3,0.2c0.5,0,1.1,0,1.8,0c0.7,0,1.3-0.1,2-0.1
		s1.3-0.2,1.8-0.3c0.4-0.1,0.7-0.3,1-0.7c0.3-0.4,0.6-0.8,0.8-1.3c0.2-0.5,0.4-1,0.6-1.6c0.1-0.6,0.2-1.1,0.2-1.6
		c0-0.7,0-1.1,0.1-1.2c0.1-0.1,0.2,0.1,0.3,0.5c0.2,0.8,0.5,1.6,0.7,2.5s0.4,1.8,0.6,2.5c0.1,0.7,0.1,1.3-0.1,1.7
		c-0.2,0.5-0.7,0.8-1.4,1.1c-1.7,0.5-3.3,0.8-4.9,0.9c-1.6,0.1-3.3-0.1-5-0.5c-1.6-0.4-2.5-1.1-2.7-2s0-2.2,0.7-3.9
		c0.5-1.1,0.9-2,1.1-2.7c0.3-0.7,0.5-1.2,0.6-1.6c0.1-0.4,0.2-0.6,0.1-0.8c0-0.1-0.1-0.3-0.1-0.4c-0.8,0.9-1.5,1.8-2.1,2.5
		c-0.6,0.7-1.2,1.5-1.8,2.2c-0.6,0.7-1.2,1.4-1.8,2.1c-0.6,0.7-1.3,1.5-2,2.3c-0.7,0.8-1.2,1.2-1.5,1.1s-0.5-0.7-0.5-1.7
		c0-0.7,0-1.2,0.1-1.6c0.1-0.4,0.3-0.6,0.6-0.7c0.2-0.1,0.4-0.3,0.8-0.6s0.8-0.8,1.3-1.3c0.5-0.6,1.1-1.2,1.7-1.9
		c0.6-0.7,1.2-1.5,1.9-2.4c-0.2,0-0.4,0.1-0.7,0.2c-0.2,0.1-0.6,0.3-1.1,0.6c-0.8,0.5-1.4,0.6-2,0.3s-0.8-1.1-0.8-2.4
		c0-1.1,0.5-1.7,1.4-1.8c0.2,0,0.4,0,0.5-0.1c0.1-0.1,0.3-0.2,0.5-0.5c0.5-0.6,1-1.1,1.3-1.5c0.3-0.4,0.5-0.7,0.7-0.9
		c0.1-0.2,0.2-0.4,0.3-0.5c0-0.1,0-0.2,0-0.3c-1.3,0.4-2.2,0.4-3-0.1C16.6,25.8,16.1,25,16,24c0-0.2,0-0.4,0-0.5
		c-0.5,0.5-1.1,1.2-1.8,2c-0.7,0.8-1.3,1.6-1.9,2.4c0.3,0.2,0.6,0.4,0.9,0.6c0.2,0.2,0.5,0.4,0.6,0.6c0.2,0.2,0.3,0.4,0.5,0.7
		c0.1,0.3,0.3,0.6,0.5,1c0,0.7-0.1,1.2-0.2,1.6c-0.1,0.4-0.3,0.7-0.5,0.8c-0.2,0.2-0.4,0.2-0.6,0.2c-0.2,0-0.3-0.2-0.4-0.4
		c-0.2,0-0.4,0.1-0.6,0.2c-0.2,0.1-0.4,0.1-0.5,0.2c-0.7,0.7-1.3,1.3-1.7,1.7c-0.4,0.4-0.9,0.7-1.3,1c0.1-0.2,0.2-0.5,0.4-0.7
		c0.2-0.2,0.5-0.6,0.9-1.2c-0.4,0.2-0.8,0.4-1.2,0.6c-0.4,0.2-0.8,0.5-1.1,0.7c-0.3,0.2-0.7,0.5-0.9,0.7c-0.3,0.2-0.5,0.4-0.7,0.6
		c-0.1,0.1-0.3,0.3-0.4,0.3c-0.1,0.1-0.3,0.1-0.4,0c-0.2-0.1-0.3-0.2-0.5-0.4c-0.2-0.2-0.4-0.6-0.7-1c-0.8-1.4-0.6-2,0.8-1.8
		c0.2,0,0.4,0,0.6-0.1c0.2-0.1,0.5-0.4,0.8-0.8s0.7-1,1.3-1.8c0.5-0.8,1.1-1.8,1.9-3.1c-0.3,0-0.6,0.1-0.9,0.3
		c-0.4,0.1-0.7,0.3-1.1,0.5c-0.4,0.2-0.8,0.4-1.1,0.6s-0.7,0.4-1,0.6c-0.5,0.4-0.9,0.5-1.1,0.5c-0.2-0.1-0.5-0.4-0.8-1.2
		c-0.3-0.5-0.5-0.9-0.6-1.2s-0.2-0.5-0.2-0.7c0-0.2,0.1-0.3,0.2-0.3c0.1-0.1,0.4-0.1,0.6-0.2c0.3-0.1,0.6-0.2,0.9-0.4
		c0.3-0.2,0.6-0.5,1.1-1c0.4-0.5,1-1.3,1.7-2.3c0.7-1,1.6-2.4,2.8-4.1c0.2-0.3,0.3-0.6,0.3-0.8c0-0.2-0.1-0.5-0.4-0.8
		c-0.3-0.4-0.4-0.7-0.3-0.8c0.1-0.1,0.4-0.2,0.9-0.1c1,0.2,1.7,0.6,2.3,1.1s0.8,1,0.8,1.6c0.8,0.4,1.4,0.7,1.8,1.1
		c0.4,0.3,0.7,0.6,0.9,0.9c0.2,0.3,0.3,0.6,0.2,0.9c0,0.3-0.1,0.6-0.3,0.9c0,0-0.1,0.1-0.2,0.2c-0.1,0.1-0.2,0.2-0.3,0.3
		c0.1-0.1,0.3,0,0.6,0.2c0.1,0.1,0.3,0.2,0.7,0.1c0.4,0,0.8-0.1,1.4-0.3c0.5-0.2,1.1-0.4,1.8-0.6c0.7-0.3,1.4-0.6,2.1-0.9
		c0.4-1.1,0.7-2.3,0.9-3.6c0.1-0.8-0.1-1.3-0.7-1.7c-0.2-0.1-0.4-0.3-0.3-0.4c0-0.1,0.2-0.1,0.4-0.1c0.2,0,0.5-0.1,0.8-0.1
		c0.3-0.1,0.5-0.1,0.8-0.2c0.8-0.2,1.4-0.1,1.8,0.4C26.6,16.4,26.7,16.9,26.6,17.4z M6,39.3c0-0.5,0-0.8,0.2-0.8
		c0.2-0.1,0.3,0.1,0.4,0.5c0.4,1.2,0.6,2.2,0.6,2.9c0.1,0.7,0,1.2-0.1,1.5c-0.1,0.3-0.3,0.4-0.5,0.4c-0.2,0-0.4-0.1-0.6-0.3
		c-0.6-0.5-0.9-1-1.1-1.3c-0.2-0.4-0.3-0.7-0.3-1.1c0-0.2-0.1-0.4-0.2-0.6c-0.1-0.2-0.2-0.5-0.4-0.8c-0.1-0.1-0.1-0.2-0.1-0.3
		c0-0.1,0.1-0.1,0.2-0.2c0.1,0,0.2,0,0.3,0c0.1,0,0.3,0.1,0.4,0.3C5.7,39.9,6,39.9,6,39.3z M13.8,22.3c0.1-0.2,0.2-0.4,0.3-0.5
		s0.1-0.3,0-0.5c0-0.2-0.1-0.3-0.2-0.5c-0.1-0.2-0.3-0.4-0.5-0.7c-0.5,0.5-1,1.1-1.5,1.6c-0.5,0.6-1,1.1-1.5,1.7
		c-0.5,0.6-1,1.1-1.4,1.6c-0.4,0.5-0.8,1-1.1,1.4c0.6-0.1,1.1-0.2,1.7-0.3s1.2-0.3,1.9-0.5c0.3-0.4,0.6-0.8,1-1.4
		C12.9,23.6,13.3,22.9,13.8,22.3z M10,36.9c0.1-0.2,0.2-0.3,0.3-0.2c0,0,0.2,0.2,0.4,0.4c0.3,0.4,0.5,1,0.7,1.5
		c0.2,0.6,0.3,1.2,0.3,1.7c0,0.5-0.2,0.8-0.5,0.9c-0.3,0.1-0.6,0-0.8-0.4c-0.5-0.7-0.9-1.2-1.1-1.5C9,39,9,38.7,9,38.3
		c0-0.3,0-0.6,0-0.7c-0.1-0.1-0.2-0.3-0.4-0.4c-0.2-0.2-0.2-0.4,0-0.5C8.8,36.7,9.3,36.7,10,36.9z M12.4,30.9c0-0.5,0-0.9-0.1-1.3
		c0-0.3,0-0.6-0.1-0.8c0-0.2,0-0.3-0.1-0.4c0-0.1-0.1-0.2-0.1-0.3c-0.3,0.3-0.6,0.6-0.9,1.1c-0.3,0.4-0.6,0.8-1,1.2
		c-0.3,0.4-0.6,0.8-0.9,1.2c-0.3,0.4-0.5,0.7-0.6,0.9c0.8-0.2,1.4-0.4,1.8-0.6c0.4-0.1,0.8-0.3,1-0.4c0.2-0.1,0.4-0.2,0.5-0.3
		C12.2,31.2,12.3,31.1,12.4,30.9z M14.9,34.9c0,0.2,0,0.4,0.1,0.6c0,0.2,0.1,0.5,0.3,0.8c0.2,0.5,0.3,1.1,0.2,1.8
		c0,0.5-0.2,0.8-0.6,0.9c-0.3,0.1-0.6,0-0.9-0.3c-0.3-0.4-0.6-0.8-0.9-1.2c-0.2-0.4-0.4-0.8-0.4-1.2c0-0.3-0.1-0.6-0.1-0.8
		s-0.2-0.4-0.4-0.6c-0.1-0.1-0.1-0.3,0.1-0.4c0.2-0.1,0.4-0.1,0.6-0.1c0.2,0.1,0.5,0.2,0.7,0.3c0.2,0.1,0.5,0.2,0.8,0.4
		c0.2-0.5,0.3-0.7,0.4-0.7S14.9,34.6,14.9,34.9z"/>
	<path d="M70.3,25.5c0.3,0.7,0.3,1.2,0,1.6c-0.3,0.4-1.1,0.5-2.3,0.3c-0.5-0.1-1-0.1-1.5-0.1s-1.1,0-1.6,0.1c-0.5,0.1-1,0.1-1.5,0.2
		c-0.5,0.1-0.8,0.2-1.1,0.4c-0.2,1.6-0.4,2.9-0.6,3.8c-0.2,0.9-0.4,1.6-0.6,1.9c1-0.5,1.8-0.9,2.5-1.1c0.7-0.2,1.3-0.3,1.8-0.3
		c0.6,0,1.1,0.2,1.7,0.4c0.6,0.3,1.2,0.7,1.9,1.2c0.1,0.1,0.2,0.3,0.3,0.6c0,0.3,0.1,0.5,0,0.8c0,0.3-0.1,0.6-0.2,0.9
		c-0.1,0.3-0.2,0.6-0.4,0.8c-0.4,0.6-0.7,1-1,1.4c-0.2,0.4-0.4,0.7-0.5,0.9c-0.1,0.2-0.1,0.5-0.1,0.6c0,0.2,0.1,0.4,0.2,0.6
		c1,2.1,0.3,2.8-2,2.1c-0.4-0.1-1-0.2-1.8-0.2c-0.7,0-1.5,0-2.2,0.1c-0.8,0.1-1.4,0.2-2,0.4c-0.6,0.2-1,0.4-1.2,0.6
		c-0.3,0.3-0.5,0.5-0.6,0.6c-0.1,0.1-0.3,0-0.5-0.1c-0.9-0.4-1.5-1.2-2.1-2.4s-0.9-2.6-1.3-4.3c0-0.1-0.1-0.3-0.1-0.6
		c-0.1-0.2-0.1-0.4-0.2-0.7s-0.1-0.4-0.2-0.6c-0.1-0.2-0.1-0.3-0.1-0.4c-0.1-0.3-0.1-0.6,0.2-0.8c0.2-0.2,0.5-0.2,0.8,0
		c0.3,0.2,0.6,0.4,0.8,0.6c0.3,0.2,0.5,0.5,0.7,0.7c0.1-0.1,0.4-0.2,0.7-0.2c0.3-0.1,0.7-0.2,1.1-0.3c0.4-0.1,0.8-0.2,1.2-0.4
		c0.4-0.1,0.8-0.3,1.1-0.4c-0.8,0.1-1.5-0.1-1.9-0.4c-0.1,0-0.1-0.1-0.1-0.3c0-0.1,0.1-0.2,0.2-0.3c0.6-0.3,1-0.8,1.2-1.4
		c0.2-0.7,0.3-1.5,0.3-2.5c-0.1,0.1-0.3,0.2-0.7,0.3c-0.4,0.1-0.8,0.3-1.2,0.4c-0.4,0.2-0.9,0.3-1.3,0.5c-0.4,0.2-0.7,0.3-1,0.5
		c-0.1,0.1-0.4,0.2-0.7,0.2c-0.3,0-0.7,0-1.2-0.1c-0.4-0.1-0.9-0.2-1.4-0.4c-0.5-0.2-1-0.5-1.5-1c-0.1,0.2-0.3,0.5-0.4,0.8
		s-0.4,0.6-0.6,1c-0.1,1.3-0.2,2.6-0.1,3.9c0.1,1.3,0.2,2.4,0.4,3.4c0.2,1,0.3,1.9,0.4,2.9c0.1,1,0,1.9-0.2,2.8
		c-0.2,0.8-0.4,1.2-0.7,1.3c-0.2,0.1-0.5-0.1-0.7-0.4c-0.6-0.9-1.3-1.9-2.1-2.8c-0.8-0.9-1.6-1.8-2.4-2.5c-0.2-0.2-0.3-0.4-0.3-0.5
		c0-0.1,0.2-0.1,0.5,0.1c1.3,0.7,2.1,1.1,2.5,1.1c0.4,0,0.5-0.2,0.5-0.8c0-0.3,0-0.7-0.1-1.2c0-0.5,0-1.1,0-1.7c0-0.6,0-1.2,0-1.8
		c0-0.6,0-1.1,0-1.5c-0.5,0.5-1.1,1.1-1.8,1.7c-0.7,0.6-1.3,1.1-1.9,1.6c-0.3,0.3-0.6,0.5-0.9,0.6c-0.2,0.1-0.5,0.1-0.7,0.1
		c-0.2-0.1-0.5-0.2-0.7-0.5c-0.2-0.2-0.5-0.6-0.8-1.1c-0.2-0.3-0.4-0.7-0.4-1c0-0.3,0-0.5,0.1-0.7c0.1-0.2,0.2-0.3,0.4-0.4
		c0.2-0.1,0.4-0.1,0.6-0.1c0.4,0.1,0.8,0,1.2-0.4c0.1,0,0.3-0.2,0.5-0.4c0.3-0.2,0.6-0.4,1.1-0.7c0.4-0.3,0.9-0.6,1.5-1
		c0.6-0.4,1.1-0.7,1.8-1.1c0-0.4,0.1-1,0.1-1.7c0-0.7,0.1-1.4,0.1-2c-0.6,0.5-1.1,0.9-1.5,1.2c-0.4,0.3-0.8,0.5-1.1,0.6
		c-0.3,0.1-0.6,0.2-0.8,0.1c-0.3,0-0.5-0.1-0.8-0.3c-0.5-0.3-1-0.6-1.6-1.1c-0.6-0.5-1.1-1-1.6-1.5c-0.4-0.4-0.3-0.6,0.2-0.5
		c0.6,0.1,1,0.2,1.4,0.1c0.4,0,0.8-0.2,1.4-0.4c0.3-0.1,0.6-0.3,1-0.5c0.4-0.2,0.9-0.5,1.3-0.8c0.5-0.3,0.9-0.6,1.4-0.8
		c0.5-0.3,0.8-0.5,1.2-0.7c0.1-0.5,0.2-0.9,0.2-1.4c0.1-0.5,0.2-1,0.2-1.4c0.1-0.9,0.1-1.6,0-2c-0.2-0.5-0.5-0.9-0.9-1.3
		C47,16,47,15.8,47,15.6c0.1-0.2,0.3-0.3,0.8-0.3c0.2,0,0.4,0,0.7,0.1c0.3,0.1,0.7,0.2,1,0.3c0.3,0.1,0.7,0.3,1,0.4s0.5,0.3,0.6,0.4
		c0.3,0.3,0.5,0.7,0.6,1.4c0.1,0.7,0,1.5-0.3,2.4c0,0.2,0,0.4,0.1,0.7s0.2,0.5,0.4,0.7c0.3,0.3,0.5,0.5,0.6,0.7
		c0.1,0.2,0.1,0.4,0,0.6c-0.1,0.2-0.3,0.5-0.7,0.8c-0.4,0.3-0.9,0.6-1.5,1.1c-0.1,0.6-0.3,1.2-0.4,1.9c-0.1,0.7-0.3,1.5-0.4,2.3
		c0.6-0.5,1-0.7,1.1-0.7c0.2,0,0.2,0.2,0.1,0.5c0.3,0.1,0.6,0.1,1.1,0c0.4-0.1,0.8-0.2,1.2-0.4c0.4-0.2,0.9-0.4,1.5-0.6
		c0.6-0.2,1.2-0.4,1.9-0.6c0.6-0.2,1.2-0.4,1.8-0.6c0.6-0.2,1-0.3,1.2-0.4c0-0.9,0-1.5,0-1.8c-0.1-0.3-0.2-0.5-0.4-0.6
		c-0.3-0.1-0.5-0.3-0.8-0.5c-0.3-0.2-0.5-0.4-0.8-0.6c-0.7,0.2-1.3,0.4-1.7,0.4c-0.4,0-0.6,0-0.7-0.1c-0.1-0.1-0.1-0.2,0-0.4
		c0.1-0.2,0.2-0.3,0.4-0.4c0.3-0.2,0.7-0.4,1.2-0.8c0.5-0.3,1.1-0.7,1.6-1.1s1.1-0.8,1.6-1.2c0.5-0.4,0.9-0.7,1.1-1
		c0.2-0.2,0.2-0.4,0.2-0.6c0-0.2-0.2-0.5-0.7-0.8c0.2-0.1,0.6-0.2,1.2-0.1c0.6,0.1,1.2,0.2,1.8,0.4c0.4,0.1,0.8,0.2,1.1,0.4
		c0.3,0.1,0.5,0.3,0.7,0.4c0.2,0.1,0.3,0.3,0.3,0.5c0,0.2,0.1,0.5,0.1,0.8c0,1.2-0.5,1.8-1.7,1.8c-0.6,0-1.1,0.1-1.7,0.3
		c-0.6,0.2-1.3,0.4-2,0.8c0.5,0.2,1,0.4,1.3,0.6c0.3,0.2,0.6,0.4,0.8,0.6c0.2,0.2,0.3,0.5,0.3,0.8c0,0.3,0,0.7-0.1,1.2
		c1.1-0.4,2.1-0.7,3-0.8c0.9-0.1,1.6-0.2,2.3-0.1c0.6,0,1.2,0.2,1.5,0.4C69.9,24.9,70.1,25.2,70.3,25.5z M65.1,36.8
		c0.2-0.5,0.2-0.8,0.1-0.9s-0.4,0-1,0.2c-0.4,0.2-0.9,0.3-1.6,0.5c-0.7,0.1-1.4,0.3-2.1,0.4c-0.7,0.1-1.5,0.2-2.2,0.3
		s-1.2,0.1-1.6,0.1c0.2,0.5,0.5,1,0.7,1.5c0.2,0.5,0.4,1,0.5,1.4c0.4,0,0.8-0.1,1.4-0.2c0.6-0.1,1.1-0.1,1.7-0.2
		c0.6-0.1,1.1-0.1,1.6-0.2c0.5-0.1,0.8-0.1,1-0.2c0.1,0,0.2-0.1,0.3-0.2c0.1-0.1,0.2-0.2,0.3-0.4c0.1-0.2,0.2-0.5,0.4-0.8
		C64.7,37.9,64.9,37.4,65.1,36.8z"/>
	<path d="M107.4,42.5c0,0.2,0,0.4,0.1,0.6c0,0.1,0,0.3-0.1,0.4c-0.1,0.1-0.2,0.2-0.4,0.2c-0.2,0.1-0.4,0.1-0.7,0.2
		c-1,0.3-2,0.5-3.1,0.6c-1,0.2-2.1,0.2-3,0.2c-1,0-1.9-0.1-2.8-0.2c-0.9-0.2-1.7-0.4-2.4-0.8c-1.3-0.6-1.9-1.5-2-2.8
		c-0.1-1.2,0.5-2.8,1.8-4.7c0.5-0.6,0.7-1.1,0.6-1.2s-0.2-0.3-0.5-0.3c-0.4,0.3-0.9,0.8-1.5,1.3c-0.6,0.6-1.3,1.2-2,1.8
		c-0.7,0.7-1.5,1.3-2.2,2c-0.8,0.7-1.5,1.4-2.2,2c-0.4,0.4-0.8,0.6-1.1,0.5c-0.3-0.1-0.4-0.3-0.4-0.8c0-0.6,0.1-1.1,0.3-1.5
		c0.1-0.5,0.4-0.8,0.6-0.9c0.4-0.2,1-0.6,1.7-1.2c0.7-0.6,1.3-1.2,1.9-1.8c0.4-0.4,0.7-0.8,0.9-1.1s0.3-0.4,0.4-0.6
		c0-0.1,0-0.2,0-0.2c0,0-0.1,0-0.2,0c-0.7,0.2-1.3,0.4-1.7,0.5c-0.4,0.1-0.7,0.1-1,0c-0.2-0.1-0.4-0.2-0.4-0.3
		c-0.1-0.2-0.1-0.3-0.1-0.5c-0.1-0.9-0.1-1.6,0.1-1.9c0.1-0.3,0.4-0.5,0.9-0.6c0.3,0,0.7-0.2,1.1-0.5c0.4-0.3,1.1-0.9,2-1.7
		c-0.6-0.3-1-0.7-1.3-1s-0.4-0.6-0.4-0.8c0-0.2,0.1-0.4,0.3-0.6c0.2-0.1,0.5-0.2,0.9-0.2c0.3,0,0.7,0,1.1-0.1
		c0.4-0.1,0.7-0.3,1.1-0.6c1-0.8,2.3-0.8,3.8-0.2c0.6-0.5,1.1-0.9,1.5-1.3c0.4-0.4,0.7-0.7,1-1c0.3-0.3,0.5-0.6,0.6-0.8
		s0.3-0.5,0.4-0.8c0.2-0.3,0.2-0.6,0-0.7c-0.2-0.1-0.4-0.1-0.7,0c-1.6,0.6-3.2,1.2-4.7,1.7c-1.5,0.5-3,1-4.6,1.4
		c-0.3,0.4-0.6,0.8-0.9,1.2c-0.3,0.4-0.6,0.9-0.9,1.3c-0.3,0.4-0.5,0.9-0.7,1.3c-0.2,0.4-0.3,0.7-0.4,1c-0.1,0.5-0.3,0.7-0.5,0.8
		c-0.2,0-0.3-0.2-0.5-0.8c-0.1-0.4-0.2-0.6-0.3-0.6c-0.1,0-0.2,0.1-0.2,0.3c-0.2,0.9-0.5,1.5-0.6,2c-0.2,0.5-0.4,0.8-0.5,1
		S85.2,32,85,31.9c-0.2-0.1-0.4-0.2-0.6-0.5c-0.4,1.5-0.7,3.2-1,5.3c-0.3,2.1-0.6,4.4-0.8,6.9c0,0.2-0.1,0.4-0.2,0.6
		c-0.1,0.2-0.2,0.3-0.3,0.4c-0.1,0.1-0.3,0.1-0.5,0c-0.2-0.1-0.4-0.3-0.7-0.6c-0.7-0.8-1.2-1.7-1.6-2.7c-0.4-1-0.6-2-0.4-2.9
		c0-0.4,0.1-0.9,0.1-1.5c0-0.6,0.1-1.3,0.1-2s0.1-1.5,0.1-2.2c0-0.8,0.1-1.5,0.1-2.1c0-0.7,0-1.2,0-1.7c0-0.5,0-0.8,0-1
		c0-0.6,0-1.2,0.1-1.8c0.1-0.6,0.3-1.1,0.6-1.4c0.1-0.2,0.3-0.3,0.6-0.3c0.2,0,0.5,0,0.7,0.1s0.4,0.3,0.6,0.6c0.2,0.3,0.3,0.6,0.3,1
		c0.2,0.3,0.4,0.7,0.6,0.9c0.2,0.3,0.5,0.5,0.7,0.6c0.2,0.1,0.4,0.2,0.6,0.1c0.1-0.1,0.3-0.2,0.3-0.3c0.1-0.2,0.1-0.3,0.1-0.5
		c0-0.2,0-0.3-0.1-0.4c-0.4-0.6-0.7-1.1-0.9-1.7c-0.2-0.6-0.3-1.1-0.3-1.5c0-0.3-0.1-0.5-0.3-0.6c-0.2-0.1-0.4-0.2-0.6-0.1
		c-0.4,0.1-1.1-0.3-2.2-1.2c-0.3-0.2-0.4-0.4-0.4-0.5c0-0.1,0.1-0.2,0.4-0.2c0.3-0.1,0.7-0.2,1-0.4c0.4-0.2,0.7-0.4,1.1-0.7
		c0.3-0.2,0.6-0.5,0.9-0.8c0.3-0.3,0.4-0.5,0.5-0.7c0.1-0.2,0.3-0.4,0.6-0.6c0.3-0.1,0.6-0.2,1-0.2c0.4,0,0.7,0,1.1,0.2
		c0.4,0.1,0.7,0.4,1,0.7c0.4,0.5,0.6,1,0.5,1.5c-0.1,0.5-0.3,1-0.7,1.6c-0.3,0.4-0.5,0.7-0.6,1c-0.1,0.3-0.2,0.6-0.2,0.8
		c0,0.3,0.1,0.6,0.2,0.9c0.1,0.3,0.3,0.7,0.6,1.1c0.3-0.3,0.6-0.7,0.6-1.1c0.1-0.4,0.1-0.8-0.1-1.3c-0.1-0.4,0-0.6,0.1-0.7
		c0.2-0.1,0.7,0,1.4,0.4c0.3,0.1,0.6,0.2,0.8,0.2s0.4-0.1,0.6-0.3c0.1-0.1,0.3-0.2,0.5-0.3c0.2-0.1,0.5-0.2,0.8-0.3
		c0.3-0.1,0.6-0.2,1-0.4c0.3-0.1,0.7-0.2,1-0.3c-0.4-0.1-0.7-0.3-0.9-0.3c-0.2-0.1-0.4-0.1-0.6-0.1c-0.3,0-0.4-0.1-0.4-0.2
		c0-0.1,0.3-0.3,0.8-0.5c0.5-0.2,0.7-0.5,0.6-0.9c-0.1-0.4-0.5-1-1.4-1.8c-0.3-0.3-0.4-0.5-0.4-0.8c0-0.2,0.2-0.4,0.5-0.4
		c0.7,0,1.3,0,1.9,0s1.1,0.2,1.6,0.3c0.5,0.1,0.9,0.5,1.3,1c0.4,0.6,0.5,1.5,0.6,2.7c0.6,0,1.3-0.1,1.9-0.2c0.6-0.1,1-0.1,1.3-0.2
		c0.2-0.1,0.4-0.1,0.7-0.1c0.3,0,0.5,0,0.8,0.1c0.3,0,0.5,0.1,0.8,0.2c0.2,0.1,0.4,0.2,0.5,0.3c1.4,1,2,1.9,2,2.7
		c0,0.8-0.5,1.2-1.5,1.5c-0.4,0.1-1.1,0.3-2.1,0.7c-1,0.4-2.3,1-4,1.7c0,0.3-0.1,0.7-0.4,1c-0.3,0.3-0.7,0.6-1.2,0.7
		c-0.9,0.5-1.8,0.9-2.7,1.3c-0.9,0.4-1.7,1-2.4,1.7c-0.3,0.4-0.3,0.5,0,0.4c1.4-0.4,2.4-0.8,3-1.1c0.6-0.3,1-0.6,1.1-0.9
		c0.1-0.3,0.3-0.5,0.6-0.6c0.3-0.1,0.7-0.2,1.1-0.1c0.4,0,0.8,0.1,1.2,0.3c0.4,0.1,0.6,0.3,0.8,0.6c0.3,0.5,0.4,1,0.4,1.5
		c0,0.5-0.2,0.8-0.6,0.9c-0.1,0-0.3,0.1-0.5,0.2c-0.2,0.1-0.4,0.3-0.8,0.6c0.6,0.3,1,0.7,1.2,1.1c0.1,0.4,0.1,0.7-0.1,1
		c-0.2,0.3-0.5,0.7-0.8,1.1c-0.3,0.4-0.6,0.8-0.8,1.2c-0.3,0.4-0.5,0.8-0.7,1.2c-0.2,0.4-0.4,0.7-0.5,0.9c-0.3,0.8-0.1,1.4,0.4,1.8
		c0.5,0.4,1.6,0.6,3.3,0.6c1.5,0,2.7-0.2,3.6-0.5c0.8-0.3,1.4-0.8,1.8-1.5c0.3-0.5,0.5-1.2,0.7-1.9c0.2-0.7,0.3-1.4,0.2-2
		c0-0.4,0-0.6,0.1-0.6c0.1,0,0.2,0.1,0.2,0.3c0.3,1.1,0.5,2.2,0.7,3.4C107.1,40.4,107.2,41.5,107.4,42.5z M84,31.1
		c-0.2-0.6-0.4-1.1-0.7-1.6c-0.2-0.5-0.5-1-0.7-1.4c-0.3-0.5-0.5-0.6-0.6-0.1c0,0.3-0.1,0.8-0.2,1.4c-0.1,0.6-0.2,1.1-0.4,1.5
		c-0.1,0.5-0.3,1.1-0.4,1.7c-0.1,0.6-0.2,1.3-0.3,2c-0.1,0.7-0.1,1.3-0.1,1.9c0,0.6,0,1.2,0,1.6c0.1,0.6,0.2,0.9,0.4,0.9
		c0.2,0,0.3-0.2,0.5-0.5c0.3-0.6,0.6-1.6,1.1-2.8C83,34.6,83.4,33,84,31.1z"/>
	<path d="M144.7,41.3c0.4,0.3,0.5,0.6,0.5,0.7c0,0.1-0.3,0.2-0.7,0.3c-1,0.1-1.9,0.2-2.7,0.2c-0.8,0-1.4,0-2,0
		c-0.6-0.1-1.2-0.2-1.7-0.4c-0.5-0.2-1.1-0.5-1.6-0.9c-0.6-0.4-1.2-0.9-1.9-1.5c-0.7-0.6-1.5-1.4-2.4-2.2c-0.3,0.5-0.7,1-1.2,1.5
		c-0.4,0.5-0.9,1.1-1.3,1.6c-0.4,0.5-0.8,1-1.2,1.4c-0.4,0.4-0.7,0.8-0.9,1c-0.6,0.5-1.1,1.1-1.5,1.6c-0.4,0.5-0.7,1-0.9,1.3
		c-0.1,0.3-0.3,0.4-0.4,0.4c-0.1,0-0.4-0.1-0.8-0.4c-0.4-0.4-0.8-0.7-1.1-1c-0.3-0.3-0.6-0.6-0.8-0.9c-0.2-0.3-0.3-0.6-0.4-1
		c-0.1-0.4-0.2-0.8-0.2-1.3c-0.1-1-0.1-1.9-0.1-2.8c0-0.9,0-1.7,0.1-2.5s0.2-1.5,0.3-2c0.1-0.6,0.3-1.1,0.6-1.4
		c-1.1,0.3-2.2,0.7-3.2,1c-1,0.3-2.1,0.7-3.1,1c-0.8,0.3-1.3,0.3-1.5,0.1c-0.2-0.2-0.3-0.9-0.3-2c0-0.3,0.2-0.6,0.5-0.7
		c0.3-0.1,0.5-0.1,0.7,0.1c0.1,0.1,0.2,0.1,0.5,0.1c0.2,0,0.7-0.1,1.3-0.3c0.6-0.2,1.4-0.4,2.5-0.8c1.1-0.3,2.6-0.8,4.5-1.3
		c-0.2-0.1-0.4-0.2-0.6-0.4c-0.1-0.2-0.2-0.6-0.3-1.1c0-0.5,0-1.3,0.1-2.2s0.2-2.3,0.4-3.9c0.1-0.7,0.1-1.2,0.1-1.7
		c0-0.4,0-0.8,0-1.1s0-0.4-0.1-0.6c0-0.1-0.1-0.2-0.2-0.3c-0.5-0.4-0.8-0.9-1-1.5c-0.1-0.4-0.1-0.7,0.1-0.8c0.2-0.1,0.6,0,1.2,0.3
		c0.7-0.1,1.5-0.4,2.5-0.7c1-0.3,2-0.7,2.9-1.1c0.7-0.3,1.3-0.4,1.9-0.4c0.5,0,1.1,0.2,1.6,0.6c0.5,0.4,0.8,0.7,0.7,0.9
		c0,0.2-0.4,0.4-1,0.6c-0.2,0-0.5,0.1-0.8,0.2c-0.3,0.1-0.7,0.2-1,0.3c-0.3,0.1-0.7,0.2-1,0.4c-0.3,0.1-0.5,0.2-0.7,0.3
		c-0.4,0.2-1,0.3-1.5,0.3c-0.6,0-1.1,0-1.7-0.1c0.2,0.2,0.4,0.5,0.4,0.8c0,0.3,0,0.6,0,0.8c-0.1,0.2-0.2,0.5-0.2,0.7
		c0,0.2-0.1,0.5-0.1,0.8c0.6-0.1,1.1-0.3,1.6-0.5c0.5-0.2,1.1-0.5,1.7-0.8c0.9-0.4,1.5-0.6,2-0.6c0.5,0,0.9,0.1,1.3,0.5
		c0.7,0.5,1.1,0.9,1.1,1.1s-0.4,0.5-1.1,0.7c-1.1,0.4-2,0.7-2.7,0.9c-0.7,0.2-1.3,0.5-1.8,0.6c-0.5,0.2-0.9,0.4-1.3,0.5
		s-0.8,0.4-1.3,0.6c0,0.2,0,0.4-0.1,0.7c0,0.2,0,0.5-0.1,0.7c0.1,0,0.3,0,0.5,0c0.2,0,0.4-0.1,0.6-0.1c0.2-0.1,0.6-0.2,1-0.3
		c0.4-0.1,0.9-0.4,1.5-0.6c0.6-0.3,1.2-0.5,1.5-0.6c0.4-0.1,0.7-0.2,1-0.2s0.6,0.1,0.8,0.2c0.2,0.1,0.5,0.3,0.8,0.5
		c0.6,0.4,0.9,0.7,0.8,1c0,0.3-0.5,0.5-1.2,0.8c-0.5,0.1-0.9,0.3-1.3,0.5c-0.4,0.2-0.8,0.4-1.3,0.6c-0.6,0.3-1.2,0.5-2,0.8
		c-0.8,0.3-1.8,0.6-3,1c0,0.2,0,0.3,0,0.5c0,0.1,0,0.3,0,0.4c1.1-0.3,2.3-0.7,3.4-1c1.2-0.3,2.5-0.7,3.8-1c1.3-0.4,2.4-0.6,3.3-0.8
		c0.9-0.2,1.7-0.2,2.3-0.2c0.6,0,1.1,0.1,1.5,0.2c0.4,0.1,0.7,0.4,1.1,0.6c0.6,0.5,0.8,0.9,0.6,1.2c-0.2,0.3-1.1,0.4-2.6,0.3
		c-0.8,0-1.4-0.1-1.9-0.1c-0.5,0-1,0.1-1.7,0.2c0.7,0.8,1.1,1.4,1.2,1.6c0.1,0.3-0.1,0.5-0.5,0.6c-0.1,0.1-0.4,0.2-0.7,0.4
		c-0.3,0.2-0.6,0.5-0.9,0.8c-0.1,0.4-0.2,0.8-0.3,1.2c-0.1,0.4-0.3,0.9-0.6,1.5c1.3,1,2.6,1.8,3.8,2.4c1.2,0.6,2.4,1.1,3.7,1.4
		c1,0.3,1.8,0.6,2.4,0.9C143.6,40.4,144.2,40.8,144.7,41.3z M132.5,29.8c-1.2,0.3-2.3,0.6-3.2,0.9c-0.9,0.3-1.7,0.5-2.4,0.7
		s-1.3,0.4-1.9,0.6c-0.5,0.2-1,0.4-1.5,0.5c0.3,0.3,0.5,0.7,0.6,1.2c1.1-0.4,2.1-0.6,3-0.7c0.9,0,1.8,0.1,2.8,0.4
		c0.8-0.8,1.4-1.4,1.8-1.8c0.4-0.4,0.7-0.8,0.9-1c0.2-0.2,0.2-0.4,0.2-0.5C132.7,30,132.6,29.9,132.5,29.8z M131.2,36.7
		c-0.5-0.3-1-0.6-1.5-0.8c-0.8,0.4-1.4,0.7-1.9,0.9c-0.5,0.2-0.9,0.4-1.2,0.5c-0.3,0.1-0.6,0.1-0.8,0.1s-0.4,0-0.7-0.1
		c-0.5-0.1-0.7-0.2-0.7-0.3c0-0.1,0.2-0.2,0.6-0.2c0.4-0.1,0.8-0.2,1.2-0.4c0.4-0.2,1-0.5,1.7-1.1c-0.8-0.1-1.4-0.2-2-0.4
		c-0.5-0.1-1.1-0.4-1.8-0.6c0.1,0.2,0.1,0.5,0.1,0.8c0,0.3-0.1,0.6-0.3,0.9c-0.2,0.4-0.4,1-0.4,1.7c-0.1,0.7-0.1,1.9,0,3.5
		c0,0.3,0.2,0.6,0.4,0.7s0.6,0.1,1-0.1c0.3-0.1,0.7-0.4,1.3-0.8c0.5-0.4,1.1-0.8,1.7-1.3c0.6-0.5,1.2-1,1.7-1.5
		C130.3,37.6,130.8,37.2,131.2,36.7z M127.1,27.4c-0.5,0-1.1-0.2-1.8-0.4c0,0.3,0,0.6,0,0.8s0,0.5,0,0.7c0.3-0.1,0.6-0.2,0.8-0.4
		c0.3-0.1,0.6-0.2,0.9-0.3c0.2,0,0.4-0.1,0.4-0.2C127.4,27.5,127.3,27.5,127.1,27.4z M126.8,23.1c-0.2-0.1-0.4-0.2-0.6-0.2
		s-0.4-0.1-0.5-0.1c0,0.2-0.1,0.5-0.1,0.7c0,0.2-0.1,0.4-0.1,0.6c0.2-0.1,0.4-0.2,0.6-0.3c0.2-0.1,0.4-0.2,0.6-0.4
		C127.2,23.3,127.2,23.2,126.8,23.1z M133.6,33.1c-0.3,0.2-0.6,0.5-0.9,0.7c-0.3,0.2-0.6,0.4-0.8,0.6c0.1,0,0.3,0.1,0.4,0.2
		c0.1,0.1,0.2,0.2,0.3,0.3c0.3-0.4,0.5-0.7,0.7-1C133.5,33.6,133.6,33.3,133.6,33.1z"/>
	<path d="M228.8,38.8c-1.3,2.1-2.4,3.7-3.3,5c-0.9,1.2-1.6,2.1-2.1,2.7c-0.3,0.3-0.4,0.5-0.3,0.9c0,0.3,0.1,0.8,0.3,1.5
		c0.3,0.7,0.3,1.3,0.2,1.9c-0.1,0.6-0.3,1-0.7,1.3c-0.4,0.3-0.9,0.5-1.6,0.6c-0.7,0.1-1.5-0.1-2.3-0.4c-1.2-0.5-2.7-0.7-4.3-0.6
		c-1.6,0.1-3.3,0.5-4.9,1.3c-1.4,0.7-2.4,1.1-2.9,1.2c-0.6,0.1-1-0.1-1.4-0.5c-0.5-0.5-1-1.2-1.5-1.9c-0.4-0.7-0.8-1.6-1.1-2.6
		c-0.3-1.1-0.6-2.3-0.9-3.8c-0.3-1.5-0.5-3.2-0.8-5.3c-1.3,1.4-2.6,2.8-4,4.3c-1.4,1.5-2.7,2.9-3.9,4.2c-1.2,1.3-2.3,2.5-3.3,3.5
		c-0.9,1-1.6,1.8-2.1,2.2c-0.7,0.8-1.3,1-1.7,0.9s-0.6-1.1-0.6-2.6c0-1.3,0.2-2.4,0.3-3.1c0.2-0.7,0.6-1.3,1.1-1.7
		c1-0.9,2-1.8,3-2.8c1-1,2.1-2.3,3.5-3.9c1.3-1.6,3-3.7,4.9-6.2c1.9-2.5,4.3-5.8,7.1-9.9c0.8-1.2,1.5-2.2,2-2.9
		c0.5-0.7,0.9-1.3,1.1-1.6c0.2-0.4,0.3-0.6,0.3-0.7c0-0.1-0.1-0.1-0.3-0.1c-1.3,0.3-2.4,0.3-3.3,0.3c-0.9-0.1-1.7-0.3-2.4-0.7
		c-0.7-0.4-1.3-0.9-1.9-1.6c-0.5-0.7-1.1-1.5-1.6-2.4c-0.5-0.9-0.7-1.6-0.4-1.9c0.3-0.4,0.7-0.4,1.3-0.2c0.7,0.3,1.5,0.4,2.4,0.5
		c0.9,0.1,1.9,0.1,3,0c1.1-0.1,2.1-0.2,3.2-0.4c1.1-0.2,2-0.4,2.9-0.7c0.9-0.3,1.6-0.6,2.2-0.9c0.6-0.3,1-0.7,1.2-1.1
		c0.4-0.8,0.8-1.2,1.2-1.3c0.4-0.1,0.7-0.1,1.2,0.1c1.5,0.6,2.7,1.1,3.4,1.6c0.8,0.5,1.4,1,1.9,1.6c0.7,0.8,0.8,1.7,0.3,2.6
		c-0.5,0.9-1.6,1.8-3.4,2.7c-1.3,0.6-3.1,2.2-5.5,4.8c-2.3,2.6-5.4,6.5-9.1,11.7c0.3,0.4,0.5,0.8,0.7,1.1c0.2,0.3,0.4,0.7,0.7,1.1
		c0.8-0.6,1.7-1.2,2.4-1.6c0.8-0.4,1.7-0.8,2.6-1.1c1-0.3,2.1-0.7,3.3-1c1.2-0.4,2.7-0.8,4.5-1.3c1.1-0.3,2.1-0.3,3.2,0
		s2.3,1,3.6,2.1c1.4,1.1,2.2,2.1,2.6,3C229.2,37.4,229.2,38.1,228.8,38.8z M221.1,39c0.1-0.4,0.1-0.7-0.1-1
		c-0.2-0.3-0.4-0.5-0.8-0.6c-0.4-0.1-0.9-0.1-1.4,0.1c-0.6,0.2-1.2,0.5-1.9,1.1c-0.6,0.5-1.7,0.9-3.4,1.1c-1.7,0.2-3.7,0.3-6,0.2
		c-0.5,1.8-0.6,3.4-0.3,4.8c0.2,1.4,0.6,2.5,1,3.2c3.2-0.2,5.6-0.4,7.2-0.8c1.6-0.3,2.5-0.8,2.9-1.3c0.2-0.3,0.4-0.7,0.6-1.3
		c0.3-0.6,0.5-1.2,0.8-1.9c0.3-0.7,0.5-1.3,0.8-2C220.7,39.9,220.9,39.4,221.1,39z"/>
	<path d="M294,34.5c-1.8-0.3-3.6-0.4-5.5-0.4c-1.9,0-3.6,0.1-5.1,0.2c0,2.4,0,5,0.1,7.7c0,2.7,0.1,5.6,0.2,8.5c0,1.6,0.1,3,0,4.1
		c0,1.1-0.1,2.2-0.2,3.1c-0.1,0.9-0.3,1.7-0.5,2.5c-0.2,0.8-0.5,1.5-0.8,2.3c-0.1,0.4-0.3,0.6-0.5,0.8c-0.2,0.1-0.5,0.1-0.8-0.1
		c-0.3-0.2-0.6-0.6-0.9-1.2s-0.6-1.5-0.9-2.7c-0.4-1.5-0.7-2.5-0.7-3c0-0.5,0-0.9,0.1-1.1c0.1-0.2,0.2-0.4,0.3-0.7
		c0.1-0.3,0.2-0.6,0.2-1.1c0.1-0.5,0.1-1.1,0.1-2c0-0.8,0-2,0-3.3c0-1.4-0.1-3.1-0.1-5.2c-0.1-2.1-0.2-4.6-0.3-7.5
		c-1.2,0.4-2.6,0.8-4.2,1.3c-1.6,0.4-3,0.9-4.2,1.3c0,1.3,0,2.7-0.2,4.3c-0.2,1.6-0.5,3.1-0.9,4.6c-0.4,1.5-0.9,2.9-1.5,4.1
		c-0.6,1.2-1.3,2.2-2,2.7c-1,0.8-1.6,1.1-1.9,1c-0.3-0.1-0.5-0.5-0.7-1.4c-0.2-1.3-0.3-2.4-0.2-3.2c0.1-0.8,0.3-1.5,0.7-2.2
		c0.7-1.5,1.2-2.8,1.5-4.1c0.3-1.2,0.4-2.3,0.3-3.3c-1.5,0.6-3.1,1.4-4.7,2.2c-1.6,0.8-2.9,1.6-3.8,2.2c-1,0.7-2,1.1-3,1.3
		c-1,0.1-2,0.1-2.9-0.3c-0.9-0.3-1.6-0.9-2.3-1.7s-1-1.9-1.2-3.1c-0.1-0.5,0.1-0.7,0.4-0.6c0.4,0.1,0.8,0.2,1.3,0.3
		c0.7,0.1,1.3,0.1,1.8-0.1c0.5-0.1,1.1-0.4,1.7-0.9c0.2-0.2,0.5-0.4,0.9-0.6c0.4-0.2,1.1-0.6,2-1c0.9-0.4,2.1-0.9,3.5-1.6
		s3.3-1.4,5.7-2.4c0-0.3,0-0.8,0.1-1.4c0-0.6,0.1-1.3,0.2-2c0.1-0.7,0.1-1.4,0.2-2c0.1-0.6,0.1-1.1,0.2-1.4
		c-0.6,0.4-1.2,0.8-1.8,1.2c-0.6,0.4-1.2,0.8-1.9,1.3c-0.7,0.5-1.4,1-2.2,1.5c-0.8,0.6-1.7,1.3-2.8,2.1c-0.4,0.3-0.6,0.4-0.7,0.3
		c-0.1-0.1,0-0.2,0.4-0.5c0.7-0.6,1.4-1.3,2.2-2c0.8-0.7,1.6-1.4,2.4-2.1c0.8-0.7,1.6-1.4,2.4-2c0.8-0.6,1.5-1.2,2.1-1.7
		c0-0.3,0.1-0.4,0-0.5c0-0.1,0-0.2-0.1-0.3c0-0.1,0-0.2-0.1-0.3c0-0.1,0-0.3,0-0.7c-0.5-0.2-0.9-0.4-1.3-0.4
		c-0.4-0.1-0.9-0.2-1.3-0.5c-0.5-0.2-0.9-0.6-1.4-1.1c-0.5-0.5-1-1.3-1.5-2.4c-0.2-0.3-0.2-0.6,0-0.8c0.2-0.2,0.4-0.2,0.8-0.2
		c0.5,0.1,0.9,0.2,1.3,0.3c0.3,0.1,0.7,0.1,1,0c0.3,0,0.7-0.2,1.2-0.3c0.4-0.2,1-0.5,1.6-0.8c0.2-0.8,0.4-1.5,0.4-2.1
		c0.1-0.5,0.1-1-0.1-1.4c-0.1-0.4-0.4-0.8-0.7-1.1c-0.3-0.4-0.8-0.8-1.4-1.3c-0.9-0.8-0.7-1.1,0.5-1.1c1,0,2,0.1,3,0.3
		c1,0.2,1.9,0.4,2.6,0.8c1,0.4,1.6,1.1,1.8,2c0.3,0.9,0.2,1.9-0.3,2.8c1.1-0.4,2.3-0.7,3.6-1c1.3-0.3,2.5-0.5,3.7-0.8
		c0.1-0.8,0.2-1.8,0.3-2.9c0.1-1.1,0.3-1.9,0.5-2.4c0.3-0.8,0.4-1.6,0.3-2.4s-0.5-1.7-1.3-3c-0.3-0.6-0.4-1-0.1-1.3
		c0.3-0.3,0.8-0.2,1.5,0.3c1.3,0.9,2.4,1.6,3.2,2.2c0.8,0.6,1.3,1.1,1.7,1.6c0.4,0.4,0.6,0.8,0.6,1.2c0,0.3,0,0.7-0.1,1.1
		c-0.3,0.8-0.6,1.6-0.8,2.4c-0.2,0.8-0.4,1.6-0.6,2.4c0.8,0.2,1.6,0.4,2.2,0.7c0.6,0.3,1,0.8,1.1,1.5c0,0.4,0,0.7,0,0.9
		c0,0.3-0.2,0.5-0.5,0.8c-0.3,0.3-0.7,0.5-1.3,0.9c-0.6,0.3-1.3,0.7-2.3,1.2c-0.1,1.5-0.2,3-0.3,4.7c-0.1,1.7-0.1,3.2-0.2,4.6
		c1.2-0.2,2.7-0.3,4.3-0.4c1.6-0.1,3.2-0.2,4.7-0.3c0.8,0,1.5,0.1,2.2,0.4c0.7,0.3,1.4,0.9,2.1,1.8c1.2,1.5,1.6,2.5,1.3,3.1
		C297.3,34.4,296.1,34.6,294,34.5z M278.6,29.8c0-0.6,0-1.4,0-2.3c0-0.9,0-1.9-0.1-2.8c0-0.9,0-1.9-0.1-2.7c0-0.9-0.1-1.6-0.1-2.1
		c-1.5,0.8-2.9,1.6-4.1,2.2c-1.2,0.6-2.4,1.3-3.6,2.1c0,0.4-0.1,0.9-0.1,1.6c0,0.7,0,1.5-0.1,2.3c0,0.8,0,1.6-0.1,2.4
		c0,0.8,0,1.3,0,1.8c1.3-0.5,2.7-0.9,4-1.3C275.7,30.5,277.1,30.1,278.6,29.8z"/>
	<path d="M361.9,58.5c0.3,1.6,0.3,2.6-0.3,2.7c-0.5,0.2-1.6-0.2-3.3-1.3c-1.3-0.8-2.7-2-4-3.3c-1.3-1.4-2.6-2.9-3.8-4.6
		s-2.4-3.5-3.5-5.4s-2.1-3.8-3-5.6c-0.8,1.2-1.9,2-3.3,2.5c-1.4,0.4-3.3,0.6-5.9,0.5c-0.3,0.7-0.5,1.3-0.8,1.8s-0.5,1-0.8,1.4
		c-0.3,0.4-0.6,0.9-1,1.4c-0.4,0.5-0.9,1-1.5,1.6c-0.3,0.3-0.6,0.5-0.9,0.4c-0.3-0.1-0.7-0.4-1.2-1c-0.5-0.5-1.1-1.5-1.8-2.7
		c-0.7-1.3-1.6-2.9-2.6-4.8c-0.3-0.8-0.6-1.4-0.8-1.8c-0.2-0.5-0.4-1.1-0.6-1.8c-0.1-0.5-0.2-0.7-0.3-0.9c-0.1-0.1-0.2-0.1-0.4,0
		c0.1,1.3,0.2,2.4,0.3,3.2s0.1,1.5,0.1,2c0,0.5,0,0.9,0,1.3c0,0.3-0.1,0.6-0.1,1c-0.2,1.4-0.5,2.6-1,3.6c-0.5,1-1,1.6-1.6,1.8
		c-0.3,0.1-0.5,0.2-0.6,0.4c-0.1,0.2-0.4,0.5-0.7,0.9c-0.2,0.3-0.5,0.4-0.8,0.4c-0.3,0-0.6-0.2-0.9-0.4c-0.3-0.3-0.5-0.6-0.7-1
		c-0.2-0.4-0.3-0.8-0.4-1.2c-0.1-0.5-0.2-0.9-0.3-1.4c-0.1-0.4-0.2-0.8-0.3-1c-0.5-1.1-0.8-2.1-0.9-2.8c0-0.7,0-1.6,0.1-2.8
		c0.2-1.3,0.5-2.6,0.9-3.8c0.4-1.2,0.7-2.2,1.2-3.1c-0.3-0.7-0.5-1.5-0.8-2.5s-0.4-1.8-0.4-2.7c0-0.3,0-0.7,0.1-1.3
		c0.1-0.5,0.1-1.2,0.3-1.9c0.1-0.7,0.2-1.4,0.4-2.2c0.2-0.8,0.4-1.5,0.6-2.1c0.3-0.9,0.5-1.5,0.6-1.9c0.1-0.4,0.1-0.7,0.1-0.9
		c-0.1-0.5,0-0.7,0.4-0.6c0.3,0,0.9,0.6,1.6,1.8c0.3,0.6,0.8,1.3,1.3,2.1c0.5,0.8,1.1,1.7,1.6,2.7c2.2-1.8,4.3-3.2,6.3-4.4
		c2-1.2,3.7-2.1,5.2-2.8c-0.4-0.9-1-1.8-1.7-2.9c-0.7-1-1.9-2.1-3.6-3.1c-0.8-0.5-1.6-1-2.3-1.5c-0.7-0.5-1.4-1.1-2-1.6
		s-1-1-1.4-1.4c-0.3-0.4-0.5-0.7-0.5-0.8c0-0.6,0.2-1,0.7-1.1c0.4-0.1,1,0,1.7,0.4c0.5,0.3,1,0.6,1.3,0.7c0.3,0.1,0.7,0.2,1.3,0.3
		c2.5,0.3,4.4,0.8,5.6,1.6s2.2,1.9,2.8,3.3c0.3,0.5,0.5,1,0.6,1.4c0.2,0.4,0.3,0.7,0.5,1s0.3,0.6,0.4,0.9c0.1,0.3,0.3,0.6,0.4,1
		c1.2-0.9,2-1.5,2.6-1.6c0.5-0.2,1.1,0,1.7,0.4c0.4,0.2,0.7,0.4,1.1,0.6c0.3,0.2,0.6,0.3,0.9,0.4c1.3,0.7,2.1,1.5,2.1,2.4
		c0.1,0.9-0.4,1.5-1.3,1.9c-1.6,0.7-2.7,1.2-3.3,1.5s-1,0.7-1.3,1c0.1,0.5,0.4,1.2,0.8,2.1c0.4,0.9,0.8,1.9,1.2,2.9
		c0.4,1,0.8,1.9,1.1,2.8c0.4,0.9,0.6,1.4,0.7,1.7c0.5-1.1,1-2,1.2-2.7c0.3-0.7,0.5-1.2,0.6-1.6c0.1-0.4,0.2-0.7,0.2-0.9
		c0-0.2-0.1-0.5-0.1-0.7c-0.3-0.9-0.4-1.5-0.2-1.7c0.2-0.2,0.6-0.3,1.1-0.3c0.5,0,0.9,0,1.2,0.1c0.3,0,0.6,0.1,0.9,0.3
		s0.5,0.3,0.8,0.6c0.3,0.3,0.5,0.6,0.9,0.9c0.7,1,1.1,1.9,1.2,2.8c0.1,0.9-0.1,1.6-0.7,2.2c-0.8,1-1.5,2-2.2,3
		c-0.7,1-1.4,2.1-2.2,3.2c0.5,1.2,1.3,2.5,2.1,4c0.9,1.5,1.8,3,2.8,4.5c1,1.5,1.9,2.9,2.9,4.1c1,1.3,1.9,2.3,2.7,3
		c0.5,0.5,1.1,0.3,1.5-0.5c0.5-0.8,0.9-2.5,1.3-5.1c0.1-0.9,0.3-1.3,0.5-1.3s0.4,0.5,0.5,1.5c0,0.4,0.1,1.1,0.2,2.2
		c0.1,1,0.1,2.1,0.2,3.3c0.1,1.1,0.2,2.2,0.3,3.2C361.7,57.4,361.8,58.1,361.9,58.5z M318.2,41.6c0-0.7,0-1.5-0.2-2.6
		c-0.1-1-0.5-2-0.9-2.9c-0.2,0.3-0.4,0.8-0.5,1.5c-0.1,0.6-0.3,1.3-0.3,1.9c-0.1,0.7-0.1,1.3-0.1,1.9c0,0.6,0.1,1,0.2,1.3
		c0.4,1.4,0.8,2,1.2,1.8C317.9,44.1,318.1,43.2,318.2,41.6z M341.7,36.4c-0.5-1-1-2.1-1.6-3.3c-0.5-1.3-1.1-2.5-1.6-3.7
		c-0.5-1.2-1-2.3-1.4-3.3c-0.4-1-0.7-1.8-0.9-2.3c-1.3,0.9-2.3,1.5-3.1,2s-1.5,0.7-2,0.9c-0.5,0.1-1,0.1-1.5,0
		c-0.4-0.1-1-0.4-1.5-0.7c-0.9-0.5-1.9-0.7-3-0.7c-1.1,0-2,0.4-2.7,1.1c0.3,1.3,0.4,2.3,0.2,2.8c-0.1,0.5-0.6,1.2-1.2,1.8
		c-0.3,0.3-0.5,0.8-0.5,1.5c0,0.7,0.2,1.5,0.8,2.4c0.6,0,1.1-0.1,1.4-0.3c0.4-0.2,0.9-0.5,1.5-1c1.7-1.2,2.9-2.1,3.8-2.8
		c0.8-0.7,1.3-1.2,1.4-1.3c0.3-0.6,0.8-1,1.6-1c0.8,0,1.9,0.3,3.3,1.1c0.5,0.3,0.8,0.5,1,0.7c0.2,0.2,0.5,0.7,0.9,1.4
		c0.6,1.1,0.9,1.9,1,2.2c0.1,0.3,0,0.7-0.2,0.9c-0.1,0.1-0.2,0.2-0.3,0.4c-0.1,0.2-0.2,0.6-0.4,1.1c-0.1,0.5-0.3,1.3-0.6,2.2
		c-0.3,0.9-0.6,2.2-1,3.8c0.7,0,1.5-0.4,2.5-1.2C338.7,40.4,340,38.8,341.7,36.4z M331.2,37.1c0.3-0.5,0.3-0.8,0.1-0.9
		s-0.5,0-0.9,0.4c-0.5,0.5-1,0.9-1.4,1.2c-0.4,0.3-0.9,0.5-1.4,0.6c-0.5,0.1-1.1,0.1-1.7,0c-0.7-0.1-1.4-0.3-2.4-0.5
		c0.5,0.8,0.9,1.5,1.4,2.1c0.5,0.6,1.1,1.1,1.8,1.6c2.1,1.6,3.2,1.7,3.3,0.2c0.1-0.9,0.3-1.7,0.5-2.5
		C330.8,38.5,331,37.8,331.2,37.1z M352.8,13.3c0.3,0.3,0.4,0.6,0.5,1c0.1,0.4,0,0.8-0.1,1.2c-0.2,0.4-0.5,0.7-0.9,1
		c-0.4,0.3-1.1,0.4-1.9,0.3c-0.8,0-1.3-0.1-1.8-0.3c-0.4-0.2-1-0.5-1.7-1.1c-0.5-0.4-1.2-1-2.2-1.6c-1-0.7-1.9-1.3-2.8-1.8
		c-0.4-0.2-0.6-0.5-0.5-0.7c0.1-0.3,0.4-0.5,0.9-0.5c1.6-0.3,2.8-0.4,3.8-0.5c1-0.1,1.7-0.1,2.3,0c0.6,0.1,1,0.2,1.3,0.3
		c0.3,0.1,0.5,0.3,0.7,0.5c0.3,0.4,0.7,0.8,1.1,1.2C352,12.6,352.4,13,352.8,13.3z"/>
	<path d="M391.3,16.5c0,0.8-0.1,1.5-0.3,2c-0.1,0.5-0.4,0.9-0.8,1.2c-0.4,0.3-0.7,0.6-1,0.9c-0.3,0.3-0.7,0.7-1.1,1.3
		c-0.4,0.5-0.9,1.3-1.6,2.1c-0.6,0.9-1.5,2-2.5,3.4c-0.3,0.5-0.5,1.3-0.4,2.2c0.1,1,0.5,2.1,1.4,3.4c0.2-0.6,0.4-1.4,0.6-2.4
		c0.2-1,0.4-1.8,0.4-2.3c0.2-0.8,0.3-1.1,0.5-1c0.2,0.1,0.2,0.7,0.2,1.9c-0.1,2.2-0.2,4.1-0.2,5.8c-0.1,1.7-0.1,3.3-0.1,4.9
		c0,1.6,0,3.2,0,4.9c0,1.7,0,3.6,0.1,5.9c0,1.1-0.3,1.8-0.8,2.2c-0.5,0.4-1.1,0.4-1.5-0.1c-0.5-0.5-1.1-1.2-1.5-2
		c-0.5-0.8-0.9-1.6-1.2-2.5c-0.3-0.8-0.5-1.7-0.6-2.5c-0.1-0.8,0-1.6,0.3-2.2c0-0.2,0.1-0.6,0.1-1.3c0-0.7,0.1-1.5,0.1-2.3
		c0-0.9,0-1.8,0-2.7c0-0.9,0-1.8-0.1-2.5c-0.1-0.8-0.3-1.2-0.7-1.2c-0.4-0.1-0.9,0.2-1.7,0.9c-0.6,0.5-1.1,0.9-1.5,1.1
		c-0.4,0.3-0.7,0.3-1,0.2c-0.3-0.1-0.5-0.4-0.7-0.9c-0.2-0.5-0.4-1.1-0.6-2c-0.5-2-0.8-3.4-0.8-4.2c0-0.8,0.2-1.5,0.7-1.9
		c1.8-1.6,3.3-3.3,4.6-5.2c1.3-1.9,2.7-4.1,4.2-6.8c0.3-0.6,0.5-1.3,0.5-2.2c0-0.9-0.1-1.7-0.4-2.4c-0.3-0.7-0.4-1.1-0.3-1.1
		c0.1-0.1,0.5,0.1,1.3,0.6c1.3,0.8,2.3,1.4,3.1,2c0.8,0.6,1.5,1.1,2,1.6c0.5,0.5,0.8,1,1,1.5C391.2,15.3,391.3,15.9,391.3,16.5z
		 M425.2,23.7c-0.4,0.5-0.8,1.1-1.1,1.5c-0.3,0.5-0.6,0.9-0.9,1.5c-0.3,0.5-0.5,1.1-0.8,1.7c-0.3,0.6-0.6,1.4-1,2.3
		c-1,2.1-2,3.8-3,5.2c-1,1.4-2.2,2.3-3.4,2.9c-0.1,0-0.3,0-0.6,0c-0.3-0.1-0.6-0.2-1-0.3c-0.4-0.1-0.8-0.4-1.1-0.6
		c-0.4-0.3-0.7-0.6-0.8-1c-0.3-0.2-0.5-0.3-0.6-0.3c-0.2,0-0.4,0.1-0.8,0.3c-0.1,2.5-0.2,4.8-0.3,6.8c-0.1,2-0.2,3.8-0.3,5.4
		c-0.1,1.6-0.3,3-0.4,4.3c-0.2,1.3-0.3,2.5-0.5,3.7c-0.3,1.5-0.5,2.3-0.8,2.5c-0.3,0.1-0.6-0.3-1-1.4c-0.3-0.8-0.5-1.6-0.8-2.5
		c-0.2-0.9-0.4-2-0.6-3.4c-0.2-1.4-0.3-3.1-0.5-5.3c-0.1-2.1-0.3-4.8-0.4-8.1c-1.1,0.5-2.1,0.8-2.9,0.8c-0.8,0-1.9-0.1-3-0.4
		c-0.5,1.2-1.1,1.3-1.9,0.3c-0.6-0.8-1.1-1.5-1.4-2.1c-0.4-0.6-0.7-1.3-0.9-2.1c-0.3-0.8-0.5-1.8-0.7-3.1c-0.2-1.2-0.4-2.9-0.7-5.1
		c-0.1-0.6-0.2-1.2-0.2-1.6c-0.1-0.4-0.2-0.8-0.3-1.1c-0.1-0.3-0.3-0.6-0.5-0.9c-0.2-0.3-0.6-0.5-1-0.9c-1.2-1.1-1.2-1.4,0-1
		c0.6,0.2,1.2,0.5,1.9,0.8c0.7,0.3,1.6,0.9,2.7,1.6c0.3-1,0.6-1.8,1-2.4s0.9-1.2,1.6-1.7c0.7-0.5,1.6-1.1,2.7-1.6
		c1.1-0.6,2.4-1.3,4.1-2.1c0.1-1.3,0.2-2.3,0.3-3c0-0.7,0.1-1.3,0.1-1.7c0-0.4,0-0.7-0.1-0.9c0-0.2-0.1-0.4-0.1-0.5
		c-0.2-0.7-0.4-1-0.6-0.7c-0.2,0.2-0.3,1.2-0.2,3c0,1.3,0,2-0.1,2.1c-0.1,0.1-0.2-0.2-0.3-0.8c-0.3-2.1-0.6-3.6-0.8-4.4
		c-0.2-0.8-0.3-1.5-0.5-1.8c-0.4-1-0.5-1.6-0.2-2c0.3-0.4,1.1-0.7,2.4-0.9c0.7-0.1,1.4,0,2.1,0.4c0.7,0.4,1.4,1.1,2.3,2.2
		c0.1,0.3,0.3,0.5,0.4,0.8c0.1,0.3,0.3,0.7,0.4,1.2c0.1,0.5,0.2,1.3,0.3,2.2c0.1,0.9,0.1,2.2,0.1,3.7c0.9-0.1,1.7-0.1,2.3-0.1
		c0.6,0,1.2,0.1,1.8,0.2c0.6,0.1,1.2,0.3,1.8,0.6c0.6,0.3,1.4,0.6,2.3,1.1c3.1,1.6,5.1,3,6,4.1C425.6,22,425.7,23,425.2,23.7z
		 M404.8,21c-1.3,0.5-2.4,1-3.3,1.4c-0.9,0.4-1.6,0.8-2.1,1.2c-0.5,0.4-0.9,0.8-1.2,1.3c-0.3,0.5-0.5,1-0.6,1.7
		c-0.3,1.4-0.3,2.7-0.3,4c0.1,1.3,0.3,2.9,0.6,4.7c6.1-2.7,7.7-4.2,4.7-4.5c-0.7-0.1-1.3-0.2-1.9-0.3c-0.6-0.1-1.3-0.6-2-1.2
		c-0.6-0.5-0.9-0.9-0.8-1.3c0-0.4,0.5-0.7,1.3-1c0.8-0.3,1.7-0.7,2.6-1c0.9-0.3,1.9-0.7,3-1.2c0-0.6,0.1-1.2,0.1-1.9
		C404.8,22.2,404.8,21.6,404.8,21z M418.2,22.6c0.2-0.6,0-1.4-0.5-2.4s-1.5-1.7-2.9-2.2c-0.5-0.2-1.1-0.3-1.8-0.2
		c-0.7,0.1-1.6,0.4-2.8,0.9c0,0.7,0,1.4,0,2.2c0,0.8,0,1.6,0,2.5c1.2,0.3,2,0.7,2.4,1.1c0.4,0.4,0.4,0.9,0.2,1.6
		c-0.1,0.4-0.2,0.7-0.3,0.9c-0.1,0.3-0.3,0.5-0.4,0.7s-0.4,0.4-0.8,0.6c-0.3,0.2-0.7,0.5-1.2,0.8c-0.1,0.7-0.1,1.2,0.1,1.6
		s0.4,0.7,0.7,0.9c0.3,0.2,0.7,0.4,1.3,0.5s1.2,0.3,1.9,0.4c0.3-0.3,0.6-0.7,0.9-1.3c0.4-0.6,0.7-1.4,1.1-2.3c0.4-0.9,0.8-1.9,1.1-3
		C417.5,24.9,417.8,23.7,418.2,22.6z"/>
</g>
<text transform="matrix(1 -4.492936e-03 4.492936e-03 1 33.881 42.4408)" class="st0"><tspan x="0" y="0" class="st1 st2 st3">理事長</tspan><tspan x="111.8" y="-1.9" class="st1 st2 st4">　</tspan><tspan x="143.8" y="9.6" class="st1 st5 st6">石井英世</tspan></text>
</svg>
