<?xml version="1.0" encoding="utf-8"?>
<!-- Generator: Adobe Illustrator 18.1.1, SVG Export Plug-In . SVG Version: 6.00 Build 0)  -->
<!DOCTYPE svg PUBLIC "-//W3C//DTD SVG 1.1//EN" "http://www.w3.org/Graphics/SVG/1.1/DTD/svg11.dtd">
<svg version="1.1" id="レイヤー_1" xmlns="http://www.w3.org/2000/svg" xmlns:xlink="http://www.w3.org/1999/xlink" x="0px"
	 y="0px" viewBox="0 0 290.6 343.6" enable-background="new 0 0 290.6 343.6" xml:space="preserve">
<path fill="#C2C2C1" d="M238.4,2.4H47.3c-7.6,0-13.7,6.1-13.7,13.7v313.8c0,7.6,6.1,13.7,13.7,13.7h229.6c7.6,0,13.7-6.1,13.7-13.7
	V54.5L238.4,2.4z"/>
<path fill="#EAEAEA" d="M236.7,0H45.6C38,0,31.9,6.1,31.9,13.7v313.8c0,7.6,6.1,13.7,13.7,13.7h229.5c7.6,0,13.7-6.1,13.7-13.7V52.2
	L236.7,0z"/>
<path fill="#D3D4D5" d="M236.7,38.5c0,7.6,6.1,13.7,13.7,13.7h38.5L236.7,0V38.5z"/>
<rect x="0" y="32.4" fill="#CE1A22" width="175.7" height="68.9"/>
<text transform="matrix(1 0 0 1 37.8777 86.591)"><tspan x="0" y="0" fill="#FFFFFF" font-family="'KozGoPro-Bold-83pv-RKSJ-H'" font-size="51.0285" letter-spacing="2">P</tspan><tspan x="32.7" y="0" fill="#FFFFFF" font-family="'KozGoPro-Bold-83pv-RKSJ-H'" font-size="51.0285" letter-spacing="3">D</tspan><tspan x="71.7" y="0" fill="#FFFFFF" font-family="'KozGoPro-Bold-83pv-RKSJ-H'" font-size="51.0285">F</tspan></text>
<text transform="matrix(1 0 0 1 132.3499 321.8257)"><tspan x="0" y="0" font-family="'KozGoPro-Bold-83pv-RKSJ-H'" font-size="45.7388">Ad</tspan><tspan x="58.4" y="0" font-family="'KozGoPro-Bold-83pv-RKSJ-H'" font-size="45.7388" letter-spacing="-1">o</tspan><tspan x="83.7" y="0" font-family="'KozGoPro-Bold-83pv-RKSJ-H'" font-size="45.7388">be</tspan></text>
<path fill="#E60012" d="M200,234.3c0,0,61.3-12.8,61.8,11.9c0.4,24.7-48.5,7.5-65.3-3.5c0,0-45.9,5.3-77.7,16.8
	c0,0-25.2,53.4-47.7,50.3s3.1-36.2,36.6-48.5c0,0,29.9-49.5,38.7-76.5c0,0-21.2-67.8,1-70c26.5-2.6,8.8,65.2,8.8,65.2
	S173.5,224.2,200,234.3z M187.3,236.5c0,0-22.8-13.6-36.4-42c0,0-15.9,37.4-29.5,60.2C121.5,254.7,152.9,239.2,187.3,236.5z
	 M68.1,305.3c9.7,5.3,38.8-40.6,38.8-40.6C100.7,264.8,58.4,300.1,68.1,305.3z M210.6,240c0,0,45.9,20.7,49.4,7.9
	C263.5,235.2,210.6,240,210.6,240z M152.3,169.9c0,0,9.3-30.4,6.6-41.9c-2.6-11.5-10.5-12.3-11-3.5
	C147.1,139.4,152.3,169.9,152.3,169.9z"/>
</svg>
