<?xml version="1.0" encoding="utf-8"?>
<!-- Generator: Adobe Illustrator 26.3.1, SVG Export Plug-In . SVG Version: 6.00 Build 0)  -->
<svg version="1.1" id="レイヤー_1" xmlns="http://www.w3.org/2000/svg" xmlns:xlink="http://www.w3.org/1999/xlink" x="0px"
	 y="0px" width="580px" height="118px" viewBox="0 0 580 118" style="enable-background:new 0 0 580 118;" xml:space="preserve">
<style type="text/css">
	.st0{fill:url(#SVGID_1_);}
	.st1{fill:#E798A2;}
	.st2{fill:#F0BD58;}
	.st3{fill:#A8977F;}
	.st4{fill:url(#SVGID_00000068639363859020406820000005204292759758044052_);}
	.st5{fill:url(#SVGID_00000177457953460143181660000000785174110190073482_);}
	.st6{fill:url(#SVGID_00000114752352648300075370000011876139455348248494_);}
	.st7{fill:url(#SVGID_00000016782437751600358800000001906957808394032572_);}
	.st8{fill:url(#SVGID_00000049221314701294061170000010042661952349830815_);}
	.st9{fill:url(#SVGID_00000130647802013464047760000012301982187039078066_);}
	.st10{fill:url(#SVGID_00000060008414899914524030000010515768726662390147_);}
	.st11{fill:#86B943;}
	.st12{fill:#32A44A;}
	.st13{fill:#A6957E;}
	
		.st14{clip-path:url(#SVGID_00000066489843575057670660000002816377349922317952_);fill:url(#SVGID_00000049194645892911477110000013412126580857093504_);}
	
		.st15{clip-path:url(#SVGID_00000107565851797547847580000015706969683020468140_);fill:url(#SVGID_00000181789973473912507960000012512929653167126685_);}
</style>
<linearGradient id="SVGID_1_" gradientUnits="userSpaceOnUse" x1="138.8964" y1="37.7108" x2="297.9956" y2="37.7108" gradientTransform="matrix(1 0 0 -1 0 117.46)">
	<stop  offset="0" style="stop-color:#86B943"/>
	<stop  offset="1" style="stop-color:#32A44A"/>
</linearGradient>
<path class="st0" d="M152.499,80.242c0,2.296-2.908,11.756-4.28,15.375c-1.123,3.057-2.246,5.391-4.742,5.391
	c-1.934,0-4.58-1.522-4.58-3.819c0-1.173,0.299-1.785,1.323-3.669c1.735-3.207,3.257-8.449,3.819-10.994
	c0.761-3.407,1.223-5.603,4.068-5.603c0.412,0,0.861,0.05,1.323,0.15C150.664,77.334,152.499,78.108,152.499,80.242 M182.175,81.715
	c-1.685-3.507-4.63-6.464-8.449-6.464c-2.646,0-3.407,1.834-3.669,2.908c-0.05,0.3-0.1,0.611-0.1,1.011
	c0,1.123,0.462,1.735,0.761,2.034c0.312,0.312,2.034,1.373,2.396,1.685c2.596,2.184,3.157,9.11,3.457,13.34
	c0.1,1.273,0.362,4.018,4.118,4.018c1.173,0,2.646-0.412,3.469-1.323c0.562-0.611,0.861-1.522,0.861-3.107
	C185.033,95.317,184.321,86.095,182.175,81.715 M172.029,69.023c2.209-0.287,4.193-0.724,4.193-4.056
	c0-3.394-2.745-3.644-5.503-3.819c-6.003-0.374-11.606-1.223-14.301-1.735c-0.973-0.15-5.653-1.273-6.714-1.273
	c-2.546,0-3.157,2.184-3.307,3.407c-0.362,3.157,1.735,3.719,3.819,4.218c2.121,0.549,5.241,1.111,8.486,1.61
	c-2.558,1.522-4.318,4.018-4.106,7.612c0.287,4.805,3.207,8.548,4.58,10.133c2.745,3.207,3.819,4.43,3.819,6.776
	c0,0.562-0.1,3.457-3.619,3.457c-1.223,0-2.184-0.25-2.908-0.462c-1.884-0.611-2.084-0.711-2.858-0.711
	c-3.619,0-3.619,3.869-3.619,4.068c0,1.423,0.562,2.496,2.134,3.357c3.008,1.635,6.676,1.934,8.449,1.934
	c8.461,0,10.944-6.464,10.944-10.495c0-3.919-1.635-7.313-5.503-11.506C159.625,74.589,160.922,70.471,172.029,69.023
	 M206.335,59.115c0.761-1.023,1.934-1.273,3.057-1.273c1.984,0,4.33,0.611,4.33,3.407c0,0.711-0.15,1.522-0.412,3.057
	c4.068-0.1,9.01-0.2,12.217-0.349c0.611,0,3.357-0.2,3.919-0.2c1.023,0,4.018,0.05,4.018,3.819c0,3.457-2.546,3.669-4.118,3.769
	c-5.241,0.25-11.718,0.462-17.521,0.611c-1.323,6.464-7.538,28.266-9.622,30.45c-0.362,0.412-1.173,1.023-2.546,1.023
	c-1.423,0-4.68-0.761-4.68-3.669c0-1.123,0.811-2.958,1.323-4.018c2.034-4.58,4.53-12.217,5.903-17.459
	c0.562-2.184,1.173-4.892,1.473-6.165c-2.908,0.1-5.853,0.1-6.826-0.462c-1.323-0.761-1.535-2.296-1.535-3.257
	c0-3.157,1.635-3.869,4.181-3.869H205C205.723,60.288,205.773,59.826,206.335,59.115 M228.935,103.005
	c-12.068,0-17.359-1.934-17.359-8.598c0-0.661,0.05-6.215,5.042-6.215c1.834,0,3.819,0.761,3.819,2.596
	c0,0.512-0.15,0.911-0.25,1.173c-0.3,0.811-0.362,1.023-0.362,1.473c0,0.923,0.562,1.522,2.396,1.834
	c1.373,0.25,3.107,0.299,4.28,0.299c1.423,0,4.131-0.1,7.488-0.512c0.611-0.05,1.735-0.2,2.296-0.2c2.284,0,3.569,1.273,3.569,3.669
	C239.829,102.131,238.057,103.005,228.935,103.005 M237.134,82.688c-0.661,0.562-1.373,0.661-2.546,0.661
	c-0.861,0-4.68-0.2-5.453-0.2c-3.207,0-4.58,0.1-9.422,0.462c-0.3,0.05-1.123,0.1-1.834,0.1c-3.357,0-3.357-3.307-3.357-3.819
	c0-1.585,0.661-3.057,3.057-3.619c3.207-0.711,9.16-0.861,12.579-0.861c7.687,0,8.249,1.273,8.249,4.43
	C238.407,80.604,238.057,81.977,237.134,82.688 M261.032,62.06c0,0.611-1.011,6.976-1.173,8.299
	c-0.412,4.068-0.611,8.249-0.611,12.367c0,4.48,0.25,9.16,0.861,13.64c0.15,1.123,0.3,2.596,0.3,3.207
	c0,2.446-1.473,3.519-3.869,3.519c-0.961,0-3.157-0.05-3.869-2.546c-0.761-2.596-1.273-10.944-1.273-18.182
	c0-11.044,1.423-19.805,1.785-21.028c0.362-1.373,1.223-3.157,4.692-2.696C260.37,59.015,261.032,60.238,261.032,62.06
	 M277.891,62.784c-0.05-1.423,0.05-4.28,4.068-4.28c4.068,0,4.181,2.696,4.181,4.28l0.05,4.38c0.811-0.05,4.942-0.2,5.191-0.2
	c1.011,0,3.919,0,3.919,3.869c0,2.546-1.423,3.307-2.084,3.519c-0.811,0.2-1.173,0.25-6.926,0.512l0.1,10.183
	c4.068,2.184,6.414,4.018,7.837,5.391c1.023,1.023,1.685,2.184,1.685,3.519c0,2.246-1.834,4.48-4.068,4.48
	c-1.423,0-1.934-0.562-3.669-2.496c-0.212-0.2-1.984-1.735-2.246-1.934c-0.15,2.795-0.462,9.16-10.745,9.16
	c-9.06,0-12.379-5.241-12.379-10.383c0-6.115,4.68-10.283,12.018-10.283c1.635,0,2.745,0.2,3.569,0.312l-0.2-7.637
	c-3.507,0.15-7.837,0.15-11.406,0.15c-1.273,0-4.118,0-4.118-3.869c0-3.008,1.834-3.507,2.945-3.669
	c0.612-0.05,10.133-0.25,12.367-0.25L277.891,62.784z M274.784,89.103c-1.223,0-5.042,0.25-5.042,3.819
	c0,3.519,3.819,3.619,4.58,3.619c1.123,0,3.257-0.25,3.919-1.984c0.25-0.711,0.3-1.123,0.25-4.63
	C277.48,89.452,276.569,89.103,274.784,89.103 M287.001,59.264c-0.15-0.362-0.15-0.711-0.15-0.861c0-1.323,1.373-1.635,1.984-1.635
	c0.861,0,1.473,0.661,1.834,1.685c0.861,2.246,1.522,4.068,1.522,5.191c0,1.685-1.635,1.785-1.934,1.785
	c-0.711,0-1.223-0.25-1.585-1.273c-0.1-0.362-0.711-2.184-0.811-2.546C287.713,61.249,287.151,59.726,287.001,59.264
	 M292.804,58.453c-0.15-0.362-0.15-0.761-0.15-0.861c0-1.323,1.473-1.635,2.034-1.635c1.073,0,1.473,0.861,2.034,2.196
	c0.562,1.373,1.273,3.619,1.273,4.68c0,1.685-1.735,1.735-1.984,1.735c-0.512,0-1.173-0.15-1.572-1.273
	c-0.1-0.349-0.661-2.134-0.761-2.496C293.565,60.437,292.904,58.803,292.804,58.453"/>
<g>
	<g>
		<path class="st1" d="M341.274,72.193h-16.061c0.711-1.947,0.711-2.209,0.711-2.471c0-1.535-1.81-1.834-2.745-1.834
			c-1.959,0-2.334,0.899-3.27,4.318h-9.31c-1.535,0-2.371,0.824-2.371,2.321c0,1.423,0.786,2.296,2.371,2.296h7.5
			c-1.048,2.284-3.232,6.152-6.602,8.973c-3.344,2.82-3.494,2.933-3.494,4.018c0,1.572,1.123,2.82,2.546,2.82
			c0.749,0,1.161-0.187,3.045-1.834v10.582c0,1.385,0.562,2.221,2.471,2.221c2.246,0,2.246-1.685,2.246-2.221V85.471
			c2.745-3.607,4.505-7.388,5.029-8.673h17.895c1.535,0,2.359-0.824,2.359-2.321C343.633,72.904,342.659,72.193,341.274,72.193z"/>
		<path class="st1" d="M341.237,97.601h-7.275v-9.272h6.227c1.46,0,2.321-0.749,2.321-2.296c0-1.535-0.898-2.246-2.321-2.246h-6.227
			v-3.869c0-1.647-0.898-2.246-2.583-2.246c-1.81,0-2.209,1.161-2.209,2.246v3.869h-6.265c-1.498,0-2.371,0.786-2.371,2.284
			c0,1.572,0.973,2.246,2.371,2.246h6.265v9.272h-7.438c-1.535,0-2.359,0.786-2.359,2.321c0,1.535,0.898,2.284,2.359,2.284h19.518
			c1.535,0,2.371-0.861,2.371-2.321C343.595,98.163,342.472,97.601,341.237,97.601z"/>
		<path class="st1" d="M383.067,89.864c1.048-0.112,1.797-0.487,1.797-2.072c0-2.396-1.61-2.209-2.221-2.171l-15.424,1.423v-4.131
			c3.981-0.449,6.003-0.861,9.347-1.647c1.048-0.225,1.947-0.599,1.947-1.909c0-0.786-0.412-2.433-2.022-2.433
			c-0.449,0-1.161,0.15-1.473,0.225c-7.5,1.797-12.979,2.134-18.732,2.508c-0.262,0-0.936,0.075-1.385,0.337
			c0.112-0.3,0.187-0.524,0.187-1.273v-2.171c0-0.861,0.449-1.273,1.273-1.273h21.689c0.861,0,1.273,0.449,1.273,1.273v2.134
			c0,1.46,0.449,2.296,2.446,2.296c2.097,0,2.246-1.273,2.246-2.296v-3.12c0-3.344-1.423-4.355-4.318-4.355h-10.021v-1.385
			c0-1.535-1.123-1.872-2.708-1.872c-1.31,0-2.284,0.487-2.284,1.872v1.385h-9.909c-2.858,0-4.355,0.973-4.355,4.355v3.157
			c0,1.348,0.449,2.284,2.371,2.284c0.861,0,1.235-0.187,1.535-0.337c-0.187,0.374-0.187,0.786-0.187,0.936
			c0,0.599,0.112,2.359,2.109,2.359c1.46,0,2.845-0.112,6.115-0.449v3.981l-10.845,1.011c-1.086,0.112-1.872,0.524-1.872,1.984
			c0,2.508,1.685,2.359,2.284,2.296l10.433-0.973v6.789c0,1.235,0,4.093,3.457,4.28c1.011,0.075,1.909,0.075,12.043,0.075
			c3.532,0,5.628,0,5.628-7.55c0-0.674,0-2.396-2.471-2.396c-2.171,0-2.246,1.535-2.284,2.209c-0.15,2.583-0.187,3.157-1.123,3.382
			c-0.412,0.075-5.628,0.075-6.764,0.075c-2.77,0-2.845,0-3.082-0.112c-0.299-0.15-0.562-0.412-0.562-1.31v-5.89L383.067,89.864z"/>
	</g>
	<g>
		<path class="st2" d="M420.767,74.215h-11.369c1.011-1.909,1.198-2.546,1.198-3.232c0-1.348-1.535-1.947-2.671-1.947
			c-1.572,0-1.834,0.636-3.232,3.419c-0.562,1.161-3.494,5.89-7.837,9.122c-1.722,1.273-2.034,1.498-2.034,2.521
			c0,1.235,1.123,2.508,2.446,2.508c2.546,0,7.275-5.254,9.16-7.812h11.069c0.936,0,1.423,0,1.423,0.711
			c0,0.973-1.161,4.093-2.134,6.04c-3.906,7.625-10.32,10.096-16.51,11.631c-2.783,0.674-3.494,0.899-3.494,2.521
			c0,0.562,0.225,2.583,2.483,2.583c1.198,0,9.235-1.535,15.2-6.227c8.598-6.789,10.058-17.109,10.058-18.544
			C424.524,75.562,423.5,74.215,420.767,74.215z"/>
		<path class="st2" d="M440.035,88.703V72.38c0-1.797-0.973-2.409-2.671-2.409c-2.209,0-2.583,1.235-2.583,2.409v16.323
			c0,1.797,0.973,2.396,2.671,2.396C439.661,91.099,440.035,89.864,440.035,88.703z"/>
		<path class="st2" d="M456.546,69.485c-2.246,0-2.621,1.273-2.621,2.446v14.264c0,2.321-0.225,4.505-2.146,6.751
			c-1.984,2.296-4.842,3.494-10.807,4.056c-2.521,0.262-3.756,0.374-3.756,2.409c0,2.583,2.334,2.583,2.895,2.583
			c0.824,0,3.681-0.075,7.051-1.011c11.406-3.157,12.043-10.62,12.043-14.938V71.931C459.216,70.121,458.193,69.485,456.546,69.485z
			"/>
		<path class="st2" d="M473.38,77.372h22.737c1.31,0,2.471-0.524,2.471-2.471c0-2.446-1.909-2.446-2.471-2.446H473.38
			c-1.161,0-2.521,0.337-2.521,2.471C470.872,77.372,472.819,77.372,473.38,77.372z"/>
		<path class="st2" d="M498.901,94.182h-28.178c-1.498,0-2.521,0.636-2.521,2.471c0,2.433,1.872,2.433,2.521,2.433h28.178
			c1.498,0,2.483-0.636,2.483-2.471C501.384,94.219,499.5,94.182,498.901,94.182z"/>
		<path class="st2" d="M519.529,85.808c0.262,1.161,0.599,2.521,1.909,2.521c0.786,0,2.92-0.075,2.92-2.221
			c0-0.899-1.497-6.04-2.359-7.874c-0.449-1.011-0.824-1.76-2.209-1.76c-1.198,0-2.446,0.711-2.446,1.947
			c0,0.487,0.15,0.861,0.299,1.273C518.331,81.415,518.818,82.888,519.529,85.808z"/>
		<path class="st2" d="M532.844,77.559c-0.262-0.075-0.524-0.112-0.749-0.112c-1.76,0-2.072,1.31-2.296,2.334
			c-0.786,3.756-0.861,4.168-1.385,5.628c-3.045,8.823-9.796,11.069-12.804,11.968c-2.633,0.786-3.382,1.011-3.382,2.396
			c0,0.749,0.487,2.433,2.209,2.433c0.599,0,9.647-1.348,15.237-9.384c4.093-5.928,4.917-13.053,4.917-13.203
			C534.616,78.869,534.354,77.859,532.844,77.559z"/>
		<path class="st2" d="M516.072,87.805c0-0.562-0.112-0.973-0.412-1.834c-2.184-5.965-2.82-7.687-4.58-7.687
			c-1.161,0-2.508,0.711-2.508,2.022c0,0.524,0.187,0.936,0.374,1.348c0.749,1.61,1.385,3.045,2.284,5.965
			c0.412,1.31,0.749,2.409,2.059,2.409C514.125,90.014,516.072,89.677,516.072,87.805z"/>
		<path class="st2" d="M567.175,74.215h-11.369c1.011-1.909,1.198-2.546,1.198-3.232c0-1.348-1.535-1.947-2.658-1.947
			c-1.572,0-1.834,0.636-3.232,3.419c-0.562,1.161-3.482,5.89-7.837,9.122c-1.722,1.273-2.022,1.498-2.022,2.521
			c0,1.235,1.123,2.508,2.434,2.508c2.558,0,7.288-5.254,9.16-7.812h11.069c0.936,0,1.423,0,1.423,0.711
			c0,0.973-1.161,4.093-2.134,6.04c-3.906,7.625-10.32,10.096-16.51,11.631c-2.783,0.674-3.494,0.899-3.494,2.521
			c0,0.562,0.225,2.583,2.471,2.583c1.198,0,9.235-1.535,15.2-6.227c8.598-6.789,10.058-17.109,10.058-18.544
			C570.919,75.562,569.908,74.215,567.175,74.215z"/>
	</g>
</g>
<g>
	<g>
		<path class="st3" d="M180.058,23.743c0.311,0,1.459,0,1.459,1.339c0,1.363-1.148,1.363-1.459,1.363H164.37
			c-0.622,0-0.981,0.287-0.981,0.981v13.751c0,0.67,0.335,0.957,0.981,0.957h16.167c0.311,0,1.483,0.024,1.483,1.363
			c0,1.363-1.148,1.363-1.483,1.363H163.7c-2.128,0-3.205-0.741-3.205-3.205V26.947c0-2.487,1.076-3.205,3.205-3.205H180.058z
			 M179.604,33.357c0.335,0,1.291,0,1.291,1.243c0,1.244-0.957,1.244-1.291,1.244h-5.046c1.411,1.507,2.296,2.272,5.214,3.181
			c0.478,0.144,1.005,0.335,1.005,1.196c0,0.526-0.287,1.531-1.339,1.531c-0.837,0-5.022-1.339-7.031-4.807
			c-2.296,3.922-5.907,4.759-6.553,4.759c-1.052,0-1.363-1.004-1.363-1.531c0-0.837,0.622-1.028,1.028-1.148
			c1.483-0.454,3.396-1.076,4.616-3.181h-4.807c-0.359,0-1.267,0-1.267-1.22c0-1.196,0.765-1.267,1.267-1.267h5.596
			c0-0.024,0.072-0.598,0.072-0.837v-1.459h-2.583c-1.315,1.913-1.841,2.081-2.344,2.081c-0.717,0-1.507-0.622-1.507-1.435
			c0-0.502,0.12-0.598,1.148-1.698c0.693-0.717,1.172-1.554,1.77-2.607c0.287-0.526,0.646-0.933,1.267-0.933
			c0.55,0,1.435,0.335,1.435,1.243c0,0.335-0.096,0.574-0.263,0.885h8.705c0.311,0,1.291,0,1.291,1.22
			c0,1.244-0.957,1.244-1.291,1.244h-4.903v1.459c0,0.335-0.048,0.67-0.072,0.837H179.604z"/>
		<path class="st3" d="M206.45,37.805c0,0.502,0,1.196-0.526,1.746c-0.598,0.622-1.339,0.622-1.841,0.622h-2.463v2.487
			c0,2.487-0.646,2.702-3.181,2.702c-1.531,0-2.391,0-2.391-1.315c0-0.765,0.407-1.196,1.172-1.196c0.096,0,0.909,0.024,0.981,0.024
			c0.454,0,0.55-0.167,0.55-0.646v-2.057h-2.535c-2.224,0-2.344-1.459-2.344-2.344v-1.602c-0.167,0.096-0.43,0.215-0.717,0.215
			c-0.646,0-1.124-0.622-1.196-1.267c-0.096,2.296-0.502,5.548-1.794,8.131c-0.885,1.77-1.315,1.961-1.937,1.961
			c-0.789,0-1.555-0.622-1.555-1.315c0-0.431,0.191-0.813,0.407-1.244c1.244-2.439,1.626-3.181,1.985-5.429
			c-0.455,0.335-1.363,0.957-1.961,0.957c-1.004,0-1.196-1.315-1.196-1.698c0-0.885,0.598-1.124,1.1-1.315
			c0.622-0.239,1.435-0.622,2.32-1.148v-2.391c-0.167,0.096-0.478,0.263-0.909,0.263c-0.717,0-0.837-0.407-1.22-1.435
			c-0.311-0.861-0.454-1.148-0.885-2.009c-0.048-0.12-0.167-0.407-0.167-0.741c0-0.741,0.789-1.243,1.411-1.243
			c0.717,0,0.981,0.574,1.77,2.367v-1.459c0-2.152,0.957-2.75,2.774-2.75h5.142v-0.741c0-1.052,0.981-1.172,1.411-1.172
			c0.717,0,1.531,0.191,1.531,1.172v0.741h7.15c0.55,0,1.411,0.119,1.411,1.148c0,0.885-0.55,1.196-1.411,1.196h-7.438
			c0.454,0.191,0.765,0.43,0.67,1.124h6.864c0.478,0,1.196,0.024,1.196,1.124c0,1.076-0.646,1.172-1.196,1.172h-3.994
			c1.076,1.148,1.196,1.267,1.602,1.602c0.167-0.191,0.837-1.076,1.005-1.243c0.191-0.191,0.407-0.215,0.622-0.215
			c0.574,0,1.291,0.43,1.291,0.981c0,0.454-0.789,1.291-1.172,1.698c0.239,0.12,1.291,0.694,1.507,0.837
			c0.454,0.287,0.502,0.526,0.502,0.837c0,0.693-0.454,1.459-1.291,1.459c-0.383,0-0.67-0.12-1.052-0.359V37.805z M194.827,43.64
			c-0.742,0.502-2.057,1.315-2.726,1.315c-0.909,0-1.22-0.861-1.22-1.291c0-0.646,0.215-0.741,1.674-1.507
			c0.933-0.478,1.244-0.717,2.224-1.411c0.311-0.239,0.55-0.335,0.885-0.335c0.67,0,1.244,0.55,1.244,1.267
			C196.907,42.134,196.429,42.588,194.827,43.64z M191.981,34.863c0.072-0.407,0.407-0.67,0.478-0.717
			c0.359-0.287,0.981-0.646,1.339-0.909c-0.287-0.311-0.622-0.67-0.909-0.957c-0.239-0.263-0.335-0.431-0.335-0.67
			c0-0.55,0.694-1.052,1.244-1.052c0.335,0,0.598,0.144,1.674,1.363c0.478-0.454,0.909-0.933,1.291-1.483h-3.3
			c-0.717,0-1.196-0.215-1.196-1.196c0-0.981,0.646-1.1,1.196-1.1h4.52c0.335-0.885,0.383-0.981,0.574-1.124h-5.74
			c-0.574,0-0.837,0.287-0.837,0.813V34.863z M196.668,35.485h7.055v-0.478c0-0.335-0.143-0.574-0.574-0.574h-5.907
			c-0.478,0-0.574,0.263-0.574,0.574V35.485z M196.668,37.231v0.502c0,0.335,0.119,0.598,0.574,0.598h5.907
			c0.478,0,0.574-0.311,0.574-0.598v-0.502H196.668z M202.384,32.592c-1.004-1.1-1.315-1.674-1.554-2.152h-1.267
			c-0.335,0.55-0.741,1.22-1.507,2.152H202.384z M204.273,40.412c0.335,0,0.431,0.048,1.22,0.622c0.909,0.646,1.77,1.1,2.726,1.602
			c0.287,0.167,0.574,0.407,0.574,0.909c0,0.55-0.431,1.387-1.339,1.387c-0.574,0-1.889-0.837-2.511-1.244
			c-0.67-0.431-1.913-1.244-1.913-1.985C203.03,40.938,203.675,40.412,204.273,40.412z"/>
		<path class="st3" d="M217.76,41.129c-2.057,4.114-2.416,4.114-2.99,4.114c-0.765,0-1.602-0.622-1.602-1.411
			c0-0.55,0.191-0.837,1.196-2.439c0.957-1.483,1.65-3.037,2.44-4.759c0.167-0.383,0.407-0.861,1.148-0.861
			c0.598,0,1.435,0.431,1.435,1.291C219.386,37.877,218.238,40.196,217.76,41.129z M214.603,29.315c0.717,0,1.937,0.837,2.798,1.435
			c1.387,0.957,1.578,1.315,1.578,1.77c0,0.693-0.646,1.626-1.483,1.626c-0.407,0-0.574-0.12-1.985-1.172
			c-0.263-0.191-1.435-0.957-1.674-1.124c-0.431-0.287-0.574-0.478-0.574-1.124C213.264,30.128,213.886,29.315,214.603,29.315z
			 M215.273,23.097c0.669,0,2.009,0.837,2.774,1.315c1.411,0.861,1.746,1.124,1.746,1.794c0,0.789-0.67,1.674-1.435,1.674
			c-0.407,0-0.502-0.072-1.961-1.052c-0.311-0.191-1.698-1.005-1.961-1.196c-0.239-0.143-0.55-0.359-0.55-1.028
			C213.886,23.958,214.507,23.097,215.273,23.097z M220.893,35.342c-0.43,0-1.459-0.024-1.459-1.387
			c0-1.172,0.741-1.387,1.459-1.387h5.19v-3.635h-4.233c-0.359,0-1.483,0-1.483-1.339c0-1.076,0.478-1.483,1.483-1.483h4.233v-1.77
			c0-0.55,0.096-1.459,1.387-1.459c1.052,0,1.579,0.311,1.579,1.459v1.77h4.448c0.359,0,1.459,0,1.459,1.339
			c0,1.124-0.526,1.483-1.459,1.483h-4.448v3.635h5.237c0.359,0,1.459,0,1.459,1.315c0,1.076-0.502,1.459-1.459,1.459h-7.198
			c-0.909,2.511-2.176,5.261-2.726,6.409c2.655-0.143,3.372-0.191,6.553-0.502c-0.502-0.837-0.598-1.004-1.506-2.344
			c-0.311-0.454-0.359-0.717-0.359-0.957c0-0.837,0.885-1.291,1.483-1.291c0.622,0,0.981,0.239,2.009,1.698
			c0.598,0.885,1.459,2.152,2.319,3.707c0.526,0.957,0.717,1.411,0.717,1.841c0,0.813-0.813,1.435-1.674,1.435
			c-0.813,0-1.1-0.526-1.22-0.789c-0.072-0.12-0.359-0.717-0.406-0.837c-5.166,0.741-11.503,1.076-11.79,1.076
			c-0.287,0-1.435,0-1.435-1.483c0-0.526,0.215-0.981,0.67-1.244c0.215-0.12,0.359-0.143,1.387-0.167
			c1.028-2.128,2.033-4.305,2.726-6.553H220.893z"/>
		<path class="st3" d="M249.682,24.484c0-0.43,0-1.554,1.651-1.554c1.65,0,1.674,1.076,1.674,1.554v2.296
			c0,1.818,0.287,6.864,3.109,10.666c1.387,1.889,3.229,3.396,5.285,4.496c0.574,0.311,1.148,0.646,1.148,1.483
			c0,0.67-0.55,1.818-1.746,1.818c-1.172,0-4.09-2.416-5.644-4.137c-1.913-2.105-3.109-4.735-3.802-7.486
			c-1.124,4.305-2.798,6.433-4.329,8.012c-1.363,1.411-3.97,3.611-5.166,3.611c-1.004,0-1.722-0.981-1.722-1.841
			c0-0.765,0.431-1.052,0.885-1.316c3.109-1.77,6.6-4.161,8.155-10.618c0.239-1.028,0.502-4.305,0.502-4.688V24.484z"/>
		<path class="st3" d="M272.237,26.445c1.22,0,2.177,0.454,2.177,1.985c0,1.028-0.311,2.128-2.129,4.616
			c0.55,0.622,1.004,1.052,1.817,1.817c0.957,0.885,1.148,1.052,1.148,1.555c0,0.669-0.622,1.483-1.411,1.483
			c-0.837,0-1.626-1.1-2.248-1.961v8.107c0,1.172-0.55,1.459-1.626,1.459c-1.244,0-1.363-0.837-1.363-1.459v-7.055
			c-0.981,0.789-1.459,1.196-2.152,1.196c-0.765,0-1.531-0.837-1.531-1.698c0-0.813,0.359-1.052,2.152-2.32
			c2.631-1.841,3.994-4.305,3.994-4.592c0-0.359-0.359-0.383-0.574-0.383h-3.874c-0.694,0-1.459-0.191-1.459-1.387
			c0-1.363,1.076-1.363,1.459-1.363h1.961v-2.152c0-1.1,0.502-1.483,1.602-1.483c1.339,0,1.411,1.005,1.411,1.483v2.152H272.237z
			 M285.678,29.196c0.406,0,1.554,0,1.554,1.387c0,1.124-0.431,1.602-1.554,1.602h-3.42v9.638h3.826c0.383,0,1.531,0,1.531,1.363
			c0,1.1-0.431,1.578-1.531,1.578h-10.977c-0.431,0-1.698,0-1.698-1.387c0-1.172,0.55-1.554,1.698-1.554h4.09v-9.638h-3.253
			c-0.383,0-1.506,0-1.506-1.411c0-1.172,0.502-1.578,1.506-1.578h3.253v-4.855c0-0.55,0.071-1.483,1.411-1.483
			c1.196,0,1.65,0.407,1.65,1.483v4.855H285.678z"/>
		<path class="st3" d="M313.111,41.655c0,2.463-1.076,3.205-3.204,3.205h-14.206c-2.129,0-3.205-0.717-3.205-3.205V26.947
			c0-2.463,1.052-3.205,3.205-3.205h14.206c2.128,0,3.204,0.741,3.204,3.205V41.655z M310.194,27.497c0-0.693-0.383-0.98-0.957-0.98
			h-12.818c-0.694,0-0.957,0.407-0.957,0.98v13.608c0,0.646,0.311,0.98,0.957,0.98h12.818c0.622,0,0.957-0.311,0.957-0.98V27.497z
			 M307.443,39.025c0,2.702-0.765,2.702-4.161,2.702c-1.1,0-1.913,0-1.913-1.267c0-1.243,0.885-1.243,1.219-1.243
			c0.192,0,1.029,0.048,1.196,0.048c0.765,0,0.861-0.335,0.861-0.765v-6.457h-7.7c-0.502,0-1.363,0-1.363-1.22
			c0-1.148,0.502-1.363,1.363-1.363h7.7v-1.555c0-0.957,0.407-1.363,1.316-1.363c0.957,0,1.483,0.239,1.483,1.363v1.555h1.244
			c0.502,0,1.363,0.024,1.363,1.244c0,1.148-0.478,1.339-1.363,1.339h-1.244V39.025z M300.795,34.911
			c0.454,0.646,1.219,1.746,1.219,2.391c0,0.981-1.076,1.387-1.602,1.387c-0.622,0-0.813-0.335-1.506-1.507
			c-0.335-0.574-0.598-0.933-1.339-1.985c-0.216-0.287-0.502-0.693-0.502-1.124c0-0.717,0.789-1.22,1.435-1.22
			C299.025,32.854,299.336,32.854,300.795,34.911z"/>
	</g>
	
		<linearGradient id="SVGID_00000136413078505731144450000011819448718675095194_" gradientUnits="userSpaceOnUse" x1="410.2056" y1="34.2014" x2="413.774" y2="34.2014">
		<stop  offset="0" style="stop-color:#8AC23E"/>
		<stop  offset="1" style="stop-color:#28AC4B"/>
	</linearGradient>
	<circle style="fill:url(#SVGID_00000136413078505731144450000011819448718675095194_);" cx="411.99" cy="34.201" r="1.784"/>
	
		<linearGradient id="SVGID_00000064320831374453929660000008820787241343872170_" gradientUnits="userSpaceOnUse" x1="326.9486" y1="83.0897" x2="404.8043" y2="83.0897" gradientTransform="matrix(1 0 0 -1 0 117.46)">
		<stop  offset="0" style="stop-color:#86B943"/>
		<stop  offset="1" style="stop-color:#32A44A"/>
	</linearGradient>
	<path style="fill:url(#SVGID_00000064320831374453929660000008820787241343872170_);" d="M348.485,24.986
		c0.367,0,1.478,0,1.478,1.289c0,0.97-0.414,1.431-1.478,1.431h-8.503v5.275c0,3.134,0.922,5.594,3.501,7.557
		c1.585,1.194,3.595,1.75,5.18,2.164c0.804,0.225,1.195,0.485,1.195,1.289c0,0.485-0.213,1.798-1.537,1.798
		c-1.656,0-7.758-2.377-9.793-7.12c-0.319,0.804-0.922,2.306-3.359,4.258c-2.436,1.916-5.369,2.921-6.446,2.921
		c-1.384,0-1.561-1.384-1.561-1.774c0-0.946,0.603-1.195,1.195-1.336c4.979-1.313,8.634-3.359,8.634-10.277v-4.743h-8.586
		c-0.485,0-1.455-0.071-1.455-1.36c0-1.088,0.65-1.36,1.455-1.36h8.586v-0.899c0-0.781,0.414-1.218,1.384-1.218
		c0.922,0,1.608,0.189,1.608,1.218v0.899h8.503V24.986z M335.913,35.003c0,0.627-0.603,1.147-1.821,2.093
		c0.71,0.662,0.946,0.922,0.946,1.384c0,0.804-0.875,1.431-1.455,1.431c-0.414,0-0.65-0.272-0.946-0.603
		c-0.142-0.166-0.296-0.319-0.71-0.757c-1.218,0.686-2.874,1.407-3.477,1.407c-0.946,0-1.218-0.922-1.218-1.384
		c0-0.65,0.438-0.899,0.923-1.088c1.147-0.461,1.265-0.509,1.75-0.733c-0.213-0.166-1.147-0.852-1.336-0.993
		c-0.166-0.142-0.343-0.343-0.343-0.686c0-0.58,0.556-1.195,1.313-1.195c0.319,0,0.603,0,2.578,1.537
		c0.39-0.272,0.757-0.58,1.455-1.218c0.189-0.166,0.414-0.39,0.852-0.438c-0.296,0.024-0.485-0.024-0.733-0.166
		c-0.272-0.166-1.336-1.088-1.561-1.289c-1.36,0.875-3.134,1.703-3.714,1.703c-0.804,0-1.124-0.852-1.124-1.336
		c0-0.627,0.461-0.828,0.804-0.97c1.407-0.58,1.561-0.627,1.94-0.852c-1.502-0.922-1.821-1.147-1.821-1.608
		c0-0.65,0.556-1.171,1.242-1.171c0.367,0,0.603,0.095,1.088,0.367c0.438,0.272,1.147,0.686,1.727,1.064
		c0.225-0.166,0.922-0.757,1.384-1.171c0.296-0.248,0.461-0.343,0.781-0.343c0.686,0,1.195,0.58,1.195,1.124
		c0,0.556-0.414,0.899-1.407,1.703c1.265,0.946,1.431,1.147,1.431,1.632c0,0.532-0.438,1.195-1.218,1.313
		C335.31,33.714,335.913,34.376,335.913,35.003z M348.899,32.283c0,0.662-0.627,1.336-1.289,1.336c-0.343,0-0.532-0.142-0.828-0.39
		c-0.733-0.686-0.852-0.733-1.171-0.97c-1.313,0.828-3.181,1.75-3.82,1.75c-0.899,0-1.171-0.946-1.171-1.336
		c0-0.686,0.556-0.922,0.946-1.064c1.064-0.438,1.195-0.461,1.892-0.828c-0.272-0.142-1.431-0.781-1.656-0.922
		c-0.118-0.095-0.461-0.319-0.461-0.757c0-0.461,0.461-1.088,1.265-1.088c0.65,0,2.259,0.993,2.969,1.455
		c0.319-0.225,0.414-0.319,1.336-1.088c0.296-0.272,0.556-0.319,0.781-0.319c0.71,0,1.242,0.627,1.242,1.147
		c0,0.52-0.414,0.852-1.313,1.608C348.651,31.55,348.899,31.822,348.899,32.283z M347.22,34.033
		c0.296-0.296,0.556-0.414,0.875-0.414c0.71,0,1.289,0.58,1.289,1.195c0,0.556-0.438,0.97-1.585,1.999
		c1.265,1.041,1.585,1.313,1.585,1.94c0,0.804-0.852,1.289-1.36,1.289c-0.343,0-0.532-0.118-0.899-0.438
		c-0.733-0.65-0.757-0.686-1.407-1.218c-0.627,0.414-2.141,1.265-2.744,1.265c-0.757,0-1.242-0.804-1.242-1.407
		c0-0.58,0.39-0.804,0.603-0.922c0.189-0.095,1.064-0.485,1.242-0.556c-0.189-0.142-0.319-0.248-1.242-0.804
		c-0.272-0.166-0.627-0.461-0.627-0.97c0-0.58,0.603-1.218,1.313-1.218c0.579,0,2.117,1.017,2.85,1.526
		C346.274,34.956,346.368,34.885,347.22,34.033z M357.426,31.609c-0.414-0.532-0.781-0.97-1.774-1.963
		c-0.97-0.97-1.088-1.124-1.088-1.727s0.509-1.36,1.242-1.36c0.272,0,0.414,0.071,0.556,0.166c0.414-0.71,0.899-1.478,1.313-2.436
		c0.39-0.852,0.556-1.289,1.242-1.289c0.603,0,1.585,0.461,1.585,1.171c0,0.781-1.455,3.087-2.259,4.281
		c0.39,0.414,0.438,0.461,0.757,0.828c0.733-1.147,0.781-1.242,1.869-3.229c0.213-0.367,0.532-0.71,0.97-0.71
		c0.686,0,1.561,0.556,1.561,1.265c0,0.438-0.804,1.656-1.171,2.235c-1.336,2.046-2.117,2.992-3.181,4.352
		c0.461-0.024,0.65-0.024,2.235-0.142c-0.367-1.064-0.39-1.195-0.39-1.407c0-0.58,0.532-0.828,0.946-0.828
		c0.627,0,0.804,0.485,1.017,1.017c0.319,0.804,0.875,2.626,0.97,2.969c0.461-0.65,0.97-0.65,1.064-0.65
		c0.319,0,0.58,0.071,1.798,1.242c0.343,0.343,1.218,1.195,1.218,1.869c0,0.509-0.485,1.242-1.313,1.242
		c-0.367,0-0.438-0.071-1.195-0.852c-0.225-0.225-1.336-1.313-1.561-1.608c-0.225,0.343-0.627,0.485-1.017,0.485
		c-0.686,0-0.804-0.509-0.97-1.147c-0.213,0.024-0.343,0.047-1.407,0.166v9.142c0,0.343,0,1.289-1.171,1.289
		s-1.171-0.97-1.171-1.289v-8.894c-1.455,0.142-1.892,0.189-2.484,0.189c-0.686,0-1.289-0.343-1.289-1.407
		c0-1.218,0.757-1.218,1.845-1.265L357.426,31.609z M357.379,38.043c0,0.461-0.189,3.796-0.65,5.44
		c-0.095,0.367-0.296,0.852-0.97,0.852c-0.118,0-1.289,0-1.289-1.064c0-0.319,0.319-1.727,0.367-1.999
		c0.225-1.265,0.296-2.141,0.39-3.406c0.047-0.556,0.166-1.064,1.017-1.064C357.379,36.801,357.379,37.629,357.379,38.043z
		 M365.764,39.533c0.852-0.58,1.064-0.627,1.289-0.627c0.65,0,1.147,0.686,1.147,1.384c0,0.627-0.272,0.852-1.727,1.94
		c-0.65,0.485-2.354,1.679-2.969,1.679c-0.686,0-1.242-0.757-1.242-1.502c0-0.189,0.024-0.319,0.071-0.438
		c-0.852-0.071-0.875-0.367-1.041-1.916c-0.024-0.343-0.272-2.07-0.272-2.117c0-0.757,0.828-0.875,1.124-0.875
		c0.852,0,0.922,0.39,1.171,1.727c0.024,0.118,0.296,1.502,0.296,2.141C364.404,40.479,365.457,39.746,365.764,39.533z
		 M371.429,43.081c0,2.306-0.485,2.72-2.874,2.72c-1.561,0-1.679,0-1.821-0.024c-0.71-0.118-1.064-0.781-1.064-1.431
		c0-0.627,0.213-1.407,1.265-1.407c0.189,0,0.97,0.047,1.124,0.024c0.367-0.047,0.532-0.189,0.532-0.757v-8.657h-4.033
		c-0.343,0-1.242,0-1.242-1.195c0-0.922,0.343-1.313,1.242-1.313h8.066v-1.313h-6.907c-0.367,0-1.195-0.024-1.195-1.124
		c0-0.993,0.627-1.124,1.195-1.124h6.907v-0.733c0-0.248-0.071-0.58-0.58-0.58h-6.682c-0.343,0-1.218,0-1.218-1.171
		c0-0.899,0.296-1.313,1.218-1.313h7.605c1.679,0,2.555,0.58,2.555,2.626v4.814h0.71c0.71,0,1.088,0.438,1.088,1.195
		c0,1.171-0.804,1.218-1.242,1.218h-4.648v1.289c0.296,0.71,0.804,1.608,1.041,2.022c0.414-0.367,1.124-1.017,1.821-1.869
		c0.556-0.71,0.781-0.899,1.265-0.899c0.781,0,1.36,0.686,1.36,1.289c0,0.461-0.166,0.804-0.579,1.313
		c-0.922,1.088-1.75,1.845-2.33,2.354c0.603,0.733,1.124,1.242,1.632,1.656c1.289,1.064,1.656,1.36,1.656,2.022
		c0,0.733-0.686,1.585-1.502,1.585c-0.97,0-3.04-2.283-4.352-4.672v3.453H371.429z M388.211,32.165
		c-0.899,0-1.384-0.319-1.455-1.218c-0.946,0.556-2.72,1.585-3.572,1.585c-0.781,0-1.478-0.804-1.478-1.821
		c0-0.922,0.579-1.218,1.313-1.478c3.666-1.384,5.807-3.43,7.605-5.156c0.97-0.946,1.36-1.313,2.626-1.313s1.585,0.343,2.992,1.703
		c1.336,1.336,3.335,3.229,7.344,4.861c0.733,0.296,1.218,0.556,1.218,1.431c0,0.97-0.71,1.798-1.561,1.798
		c-0.781,0-2.531-0.993-3.43-1.561c-0.118,1.041-0.828,1.171-1.478,1.171H388.211z M391.558,37.262
		c-0.579,1.407-1.124,2.555-2.401,4.837c3.453-0.118,4.033-0.166,9.118-0.461c-0.367-0.461-0.485-0.58-1.431-1.632
		c-0.532-0.58-0.627-0.875-0.627-1.195c0-0.733,0.899-1.384,1.679-1.384c0.414,0,0.781,0.166,1.242,0.627
		c0.97,0.946,2.093,2.164,3.229,3.619c1.171,1.455,1.431,1.916,1.431,2.46c0,0.852-1.041,1.608-1.892,1.608
		c-0.556,0-0.828-0.319-0.97-0.532c-0.095-0.142-0.603-0.922-0.733-1.088c-2.531,0.296-5.156,0.485-7.735,0.65
		c-1.218,0.095-7.486,0.461-8.456,0.461c-0.39,0-1.502,0-1.502-1.561c0-0.213,0-1.313,1.088-1.407
		c0.225-0.024,1.916-0.071,2.283-0.071c0.875-1.608,1.75-3.205,2.33-4.932h-4.494c-1.017,0-1.478-0.461-1.478-1.526
		c0-1.36,1.147-1.36,1.478-1.36h19.006c0.993,0,1.478,0.414,1.478,1.502c0,1.384-1.147,1.384-1.478,1.384H391.558z M397.519,29.468
		c-0.757-0.556-2.188-1.656-3.572-3.205c-0.367-0.39-0.461-0.485-0.686-0.485c-0.225,0-0.319,0.095-0.686,0.485
		c-1.088,1.195-2.283,2.259-3.572,3.205H397.519z"/>
	<g>
		<g>
			<g>
				
					<linearGradient id="SVGID_00000132790586093534556980000015962419610176720314_" gradientUnits="userSpaceOnUse" x1="419.1754" y1="34.3566" x2="441.8856" y2="34.3566">
					<stop  offset="0" style="stop-color:#8AC23E"/>
					<stop  offset="1" style="stop-color:#28AC4B"/>
				</linearGradient>
				<path style="fill:url(#SVGID_00000132790586093534556980000015962419610176720314_);" d="M432.133,31.871h8.271
					c0.431,0,1.483,0.024,1.483,1.41c0,1.171-0.429,1.626-1.483,1.626h-8.271v9.18c0,0.74-0.215,1.482-1.458,1.482
					c-1.315,0-1.794-0.334-1.794-1.482v-9.18h-8.198c-0.575,0-1.507-0.096-1.507-1.41c0-1.124,0.359-1.626,1.507-1.626h8.198v-4.662
					c-2.008,0.072-6.646,0.168-6.765,0.168c-0.454,0-1.458,0-1.458-1.483c0-1.41,0.932-1.41,2.175-1.434
					c0.979,0,7.483-0.192,11.499-0.718c0.645-0.096,3.8-0.598,4.039-0.598c1.505,0,1.505,1.506,1.505,1.722
					c0,0.932-0.526,1.171-0.979,1.315c-1.266,0.431-5.091,0.718-6.765,0.861V31.871z"/>
			</g>
			<g>
				
					<linearGradient id="SVGID_00000131344944658462402410000012018520644335402653_" gradientUnits="userSpaceOnUse" x1="445.589" y1="34.2973" x2="468.2271" y2="34.2973">
					<stop  offset="0" style="stop-color:#8AC23E"/>
					<stop  offset="1" style="stop-color:#28AC4B"/>
				</linearGradient>
				<path style="fill:url(#SVGID_00000131344944658462402410000012018520644335402653_);" d="M459.765,24.364
					c0-0.574,0-1.41,1.338-1.41c1.53,0,1.555,0.669,1.555,1.41h4.159c0.311,0,1.41,0,1.41,1.195c0,0.98-0.718,1.196-1.41,1.196
					h-4.159c0,0.406,0,0.43-0.047,0.622c0.142-0.025,0.359-0.048,0.693-0.048c0.909,0,1.505,0.215,1.505,0.933v0.621h2.153
					c0.598,0,1.243,0.144,1.243,1.1c0,0.932-0.575,1.124-1.243,1.124h-2.153v0.573c0,2.08-1.027,2.175-2.485,2.175h-4.375
					c-1.483,0-2.509-0.095-2.509-2.175v-0.573h-3.658v2.725c0,0.406,0.192,0.694,0.693,0.694h13.291c0.311,0,1.219,0,1.219,1.099
					c0,0.908-0.382,1.22-1.219,1.22h-7.411v0.861h8.606c0.334,0,1.243,0,1.243,1.123c0,0.861-0.311,1.267-1.243,1.267h-6.12
					c1.65,1.124,3.514,1.818,4.685,2.104c1.722,0.406,2.392,0.55,2.392,1.482c0,0.79-0.456,1.459-1.291,1.459
					c-1.315,0-5.427-1.387-8.272-4.017v3.06c0,0.574-0.095,1.459-1.363,1.459c-1.052,0-1.577-0.311-1.577-1.459v-3.107
					c-2.965,2.821-7.386,4.064-8.223,4.064c-1.101,0-1.338-0.98-1.338-1.434c0-0.908,0.645-1.1,2.437-1.53
					c0.742-0.192,3.037-0.933,4.662-2.08h-6.095c-0.359,0-1.268,0-1.268-1.195c0-1.076,0.718-1.195,1.268-1.195h8.557v-0.861h-3.897
					c-1.65,0-2.604-0.526-2.604-2.606v-3.131h-2.08c-0.454,0-1.243-0.048-1.243-1.1c0-0.836,0.431-1.124,1.243-1.124h2.08v-0.621
					c0-0.813,0.693-0.957,1.386-0.957c0.144,0,0.598,0,0.957,0.12c-0.047-0.143-0.047-0.192-0.047-0.335v-0.334h-4.184
					c-0.359,0-1.435-0.024-1.435-1.196c0-0.956,0.693-1.195,1.435-1.195h4.184c0-0.598,0-1.41,1.338-1.41
					c1.553,0,1.553,0.669,1.553,1.41H459.765z M459.765,26.755h-5.666c0,0.622,0,1.338-1.53,1.338c-0.287,0-0.549-0.047-0.835-0.167
					c0.047,0.12,0.047,0.191,0.047,0.335v0.621h3.658v-0.621c0-0.67,0.309-0.957,1.553-0.957c0.932,0,1.268,0.335,1.268,0.957v0.621
					h3.586v-0.645c0-0.095,0-0.12,0.023-0.239c-0.167,0.048-0.359,0.096-0.693,0.096c-0.885,0-1.41-0.31-1.41-1.028V26.755z
					 M458.26,31.106v0.526c0,0.31,0.142,0.478,0.478,0.478h2.652c0.336,0,0.456-0.192,0.456-0.478v-0.526H458.26z"/>
			</g>
			<g>
				
					<linearGradient id="SVGID_00000137814367218878611190000003560819611166675859_" gradientUnits="userSpaceOnUse" x1="472.648" y1="34.1772" x2="495.288" y2="34.1772">
					<stop  offset="0" style="stop-color:#8AC23E"/>
					<stop  offset="1" style="stop-color:#28AC4B"/>
				</linearGradient>
				<path style="fill:url(#SVGID_00000137814367218878611190000003560819611166675859_);" d="M493.83,24.962
					c0.357,0,1.458,0,1.458,1.267c0,0.956-0.406,1.41-1.458,1.41h-8.367v5.187c0,3.085,0.907,5.498,3.441,7.435
					c1.555,1.171,3.538,1.721,5.093,2.127c0.788,0.215,1.171,0.478,1.171,1.267c0,0.478-0.216,1.769-1.507,1.769
					c-1.625,0-7.625-2.342-9.633-7.004c-0.311,0.789-0.907,2.271-3.299,4.184c-2.39,1.889-5.283,2.868-6.334,2.868
					c-1.363,0-1.53-1.362-1.53-1.744c0-0.932,0.598-1.171,1.171-1.315c4.901-1.291,8.487-3.298,8.487-10.112V27.64h-8.439
					c-0.478,0-1.435-0.072-1.435-1.339c0-1.075,0.645-1.338,1.435-1.338h8.439v-0.885c0-0.765,0.406-1.196,1.361-1.196
					c0.909,0,1.579,0.192,1.579,1.196v0.885H493.83z M481.471,34.811c0,0.622-0.598,1.124-1.794,2.056
					c0.693,0.645,0.932,0.908,0.932,1.363c0,0.789-0.86,1.41-1.433,1.41c-0.408,0-0.645-0.263-0.934-0.598
					c-0.142-0.167-0.287-0.31-0.693-0.741c-1.196,0.67-2.821,1.387-3.419,1.387c-0.932,0-1.194-0.908-1.194-1.363
					c0-0.645,0.429-0.884,0.907-1.075c1.124-0.455,1.243-0.502,1.722-0.718c-0.215-0.167-1.124-0.836-1.315-0.979
					c-0.167-0.143-0.334-0.335-0.334-0.67c0-0.573,0.55-1.171,1.291-1.171c0.311,0,0.598,0,2.534,1.506
					c0.382-0.263,0.74-0.573,1.435-1.195c0.19-0.168,0.406-0.382,0.835-0.431c-0.287,0.025-0.478-0.024-0.718-0.167
					c-0.262-0.167-1.314-1.075-1.53-1.267c-1.338,0.861-3.083,1.673-3.656,1.673c-0.79,0-1.101-0.836-1.101-1.315
					c0-0.622,0.456-0.813,0.79-0.957c1.386-0.573,1.53-0.622,1.911-0.836c-1.481-0.908-1.792-1.124-1.792-1.578
					c0-0.645,0.55-1.147,1.219-1.147c0.359,0,0.598,0.096,1.076,0.359c0.431,0.263,1.124,0.67,1.697,1.052
					c0.214-0.167,0.909-0.74,1.363-1.147c0.287-0.239,0.454-0.335,0.765-0.335c0.67,0,1.171,0.573,1.171,1.1
					c0,0.55-0.406,0.884-1.386,1.673c1.241,0.932,1.41,1.123,1.41,1.601c0,0.526-0.431,1.171-1.196,1.291
					C480.873,33.544,481.471,34.19,481.471,34.811z M494.236,32.134c0,0.645-0.623,1.315-1.268,1.315
					c-0.334,0-0.526-0.143-0.812-0.382c-0.718-0.669-0.837-0.717-1.148-0.956c-1.291,0.812-3.13,1.721-3.753,1.721
					c-0.885,0-1.147-0.932-1.147-1.315c0-0.669,0.549-0.908,0.932-1.052c1.052-0.431,1.171-0.455,1.864-0.813
					c-0.262-0.143-1.41-0.765-1.625-0.908c-0.12-0.096-0.454-0.31-0.454-0.741c0-0.454,0.454-1.075,1.241-1.075
					c0.645,0,2.225,0.98,2.918,1.434c0.311-0.215,0.406-0.31,1.315-1.075c0.287-0.263,0.549-0.311,0.763-0.311
					c0.695,0,1.221,0.622,1.221,1.124s-0.406,0.837-1.291,1.577C493.997,31.416,494.236,31.679,494.236,32.134z M492.587,33.855
					c0.287-0.287,0.549-0.406,0.86-0.406c0.693,0,1.266,0.574,1.266,1.171c0,0.55-0.429,0.957-1.553,1.961
					c1.243,1.028,1.553,1.291,1.553,1.912c0,0.789-0.835,1.267-1.338,1.267c-0.334,0-0.526-0.12-0.885-0.431
					c-0.718-0.645-0.74-0.669-1.386-1.195c-0.623,0.406-2.103,1.243-2.701,1.243c-0.742,0-1.221-0.79-1.221-1.387
					c0-0.574,0.383-0.789,0.598-0.908c0.192-0.096,1.052-0.478,1.221-0.55c-0.192-0.143-0.311-0.239-1.221-0.789
					c-0.262-0.167-0.621-0.454-0.621-0.956c0-0.574,0.598-1.196,1.291-1.196c0.573,0,2.08,1.004,2.796,1.506
					C491.653,34.763,491.75,34.692,492.587,33.855z"/>
			</g>
			<g>
				
					<linearGradient id="SVGID_00000181795706930753492750000005901755295927084690_" gradientUnits="userSpaceOnUse" x1="499.6558" y1="34.2968" x2="522.2484" y2="34.2968">
					<stop  offset="0" style="stop-color:#8AC23E"/>
					<stop  offset="1" style="stop-color:#28AC4B"/>
				</linearGradient>
				<path style="fill:url(#SVGID_00000181795706930753492750000005901755295927084690_);" d="M502.693,31.465
					c-0.406-0.527-0.765-0.957-1.744-1.937c-0.957-0.956-1.076-1.099-1.076-1.697s0.501-1.338,1.219-1.338
					c0.264,0,0.406,0.071,0.551,0.167c0.406-0.693,0.885-1.458,1.291-2.391c0.382-0.836,0.549-1.267,1.219-1.267
					c0.598,0,1.555,0.455,1.555,1.147c0,0.765-1.435,3.036-2.225,4.207c0.383,0.406,0.431,0.455,0.742,0.813
					c0.718-1.124,0.765-1.22,1.841-3.18c0.215-0.359,0.526-0.694,0.955-0.694c0.67,0,1.53,0.55,1.53,1.243
					c0,0.43-0.788,1.626-1.147,2.199c-1.315,2.008-2.08,2.94-3.132,4.28c0.454-0.024,0.645-0.024,2.2-0.143
					c-0.359-1.053-0.383-1.172-0.383-1.387c0-0.574,0.526-0.813,0.932-0.813c0.623,0,0.79,0.478,1.004,1.004
					c0.311,0.789,0.862,2.583,0.957,2.917c0.454-0.645,0.957-0.645,1.052-0.645c0.311,0,0.573,0.072,1.769,1.22
					c0.334,0.334,1.196,1.171,1.196,1.84c0,0.502-0.478,1.22-1.291,1.22c-0.359,0-0.431-0.072-1.171-0.837
					c-0.216-0.215-1.315-1.291-1.53-1.577c-0.216,0.334-0.623,0.477-1.004,0.477c-0.67,0-0.79-0.501-0.957-1.123
					c-0.215,0.024-0.334,0.047-1.388,0.167v8.989c0,0.334,0,1.266-1.147,1.266c-1.148,0-1.148-0.956-1.148-1.266v-8.75
					c-1.433,0.143-1.864,0.191-2.437,0.191c-0.67,0-1.268-0.334-1.268-1.386c0-1.196,0.742-1.196,1.818-1.243L502.693,31.465z
					 M502.646,37.799c0,0.455-0.192,3.73-0.645,5.355c-0.097,0.359-0.289,0.837-0.957,0.837c-0.12,0-1.268,0-1.268-1.052
					c0-0.311,0.311-1.698,0.359-1.961c0.216-1.242,0.287-2.103,0.383-3.347c0.047-0.55,0.167-1.052,1.004-1.052
					C502.646,36.58,502.646,37.393,502.646,37.799z M510.891,39.258c0.837-0.574,1.054-0.622,1.268-0.622
					c0.645,0,1.124,0.669,1.124,1.363c0,0.621-0.264,0.836-1.697,1.912c-0.645,0.477-2.32,1.65-2.918,1.65
					c-0.668,0-1.219-0.741-1.219-1.483c0-0.192,0.025-0.311,0.072-0.431c-0.837-0.071-0.862-0.358-1.029-1.888
					c-0.023-0.335-0.262-2.032-0.262-2.08c0-0.74,0.812-0.86,1.099-0.86c0.837,0,0.909,0.382,1.148,1.697
					c0.023,0.12,0.287,1.483,0.287,2.103C509.553,40.19,510.582,39.472,510.891,39.258z M516.463,42.748
					c0,2.271-0.478,2.677-2.821,2.677c-1.53,0-1.65,0-1.794-0.024c-0.693-0.12-1.052-0.765-1.052-1.41
					c0-0.622,0.215-1.387,1.243-1.387c0.192,0,0.957,0.047,1.099,0.024c0.359-0.047,0.526-0.191,0.526-0.741v-8.51h-3.967
					c-0.336,0-1.219,0-1.219-1.172c0-0.908,0.334-1.291,1.219-1.291h7.936v-1.291h-6.79c-0.359,0-1.171-0.024-1.171-1.099
					c0-0.98,0.623-1.1,1.171-1.1h6.79v-0.718c0-0.239-0.072-0.573-0.573-0.573h-6.575c-0.334,0-1.194,0-1.194-1.147
					c0-0.885,0.287-1.291,1.194-1.291h7.483c1.65,0,2.511,0.573,2.511,2.582v4.733h0.693c0.693,0,1.076,0.43,1.076,1.171
					c0,1.147-0.79,1.196-1.221,1.196h-4.565v1.267c0.287,0.693,0.788,1.577,1.027,1.984c0.406-0.359,1.101-1.004,1.794-1.84
					c0.55-0.694,0.765-0.885,1.243-0.885c0.765,0,1.338,0.669,1.338,1.267c0,0.454-0.167,0.789-0.573,1.291
					c-0.909,1.075-1.722,1.817-2.295,2.319c0.598,0.718,1.099,1.22,1.602,1.626c1.266,1.052,1.625,1.338,1.625,1.984
					c0,0.718-0.67,1.554-1.483,1.554c-0.957,0-2.988-2.247-4.279-4.59V42.748z"/>
			</g>
			<g>
				
					<linearGradient id="SVGID_00000021829041215450992300000013999007791429589692_" gradientUnits="userSpaceOnUse" x1="526.6218" y1="34.07" x2="549.332" y2="34.07">
					<stop  offset="0" style="stop-color:#8AC23E"/>
					<stop  offset="1" style="stop-color:#28AC4B"/>
				</linearGradient>
				<path style="fill:url(#SVGID_00000021829041215450992300000013999007791429589692_);" d="M533.028,32.014
					c-0.885,0-1.363-0.311-1.435-1.195c-0.932,0.55-2.677,1.554-3.514,1.554c-0.765,0-1.458-0.789-1.458-1.793
					c0-0.908,0.573-1.196,1.291-1.459c3.61-1.362,5.714-3.37,7.483-5.068c0.955-0.932,1.338-1.291,2.582-1.291
					c1.243,0,1.553,0.335,2.94,1.674c1.315,1.315,3.274,3.179,7.219,4.781c0.718,0.287,1.196,0.55,1.196,1.41
					c0,0.957-0.693,1.769-1.53,1.769c-0.765,0-2.487-0.98-3.371-1.53c-0.12,1.028-0.812,1.147-1.458,1.147H533.028z M536.327,37.034
					c-0.573,1.387-1.099,2.51-2.367,4.758c3.394-0.12,3.969-0.168,8.965-0.455c-0.359-0.455-0.478-0.573-1.41-1.601
					c-0.526-0.574-0.623-0.861-0.623-1.172c0-0.717,0.885-1.362,1.65-1.362c0.406,0,0.765,0.167,1.221,0.621
					c0.955,0.933,2.056,2.128,3.18,3.562c1.147,1.435,1.41,1.889,1.41,2.415c0,0.837-1.029,1.578-1.866,1.578
					c-0.549,0-0.812-0.311-0.957-0.526c-0.095-0.144-0.596-0.909-0.716-1.076c-2.487,0.287-5.068,0.478-7.602,0.645
					c-1.196,0.096-7.363,0.455-8.32,0.455c-0.382,0-1.482,0-1.482-1.53c0-0.215,0-1.291,1.076-1.387
					c0.214-0.024,1.889-0.072,2.247-0.072c0.86-1.577,1.722-3.155,2.295-4.853h-4.423c-1.004,0-1.458-0.454-1.458-1.506
					c0-1.338,1.124-1.338,1.458-1.338h18.694c0.981,0,1.46,0.406,1.46,1.483c0,1.362-1.124,1.362-1.46,1.362H536.327z
					 M542.183,29.361c-0.74-0.55-2.151-1.626-3.514-3.156c-0.359-0.382-0.454-0.477-0.67-0.477c-0.214,0-0.309,0.095-0.668,0.477
					c-1.076,1.172-2.247,2.224-3.514,3.156H542.183z"/>
			</g>
		</g>
	</g>
</g>
<g>
	<path class="st11" d="M19.419,14.85C20.118,33.557,35.081,48.62,53.75,49.493C53.051,30.774,38.101,15.711,19.419,14.85"/>
	<path class="st12" d="M107.661,0C79.832,2.034,48.047,25.62,58.592,85.82c0-19.343,2.895-31.099,5.191-36.852
		C88.006,45.4,106.725,24.984,107.661,0"/>
	<path class="st13" d="M31.761,107.597c0.649,0,0.899,0.025,1.186,0.175c0.387,0.2,0.649,0.649,0.649,1.173
		c0,0.537-0.262,0.986-0.649,1.173c-0.287,0.15-0.549,0.175-1.186,0.175h-4.405v4.343c0,0.711-0.025,0.961-0.212,1.335
		c-0.225,0.424-0.724,0.724-1.323,0.724s-1.098-0.3-1.323-0.724c-0.187-0.374-0.212-0.624-0.212-1.335v-11.718
		c0-0.449,0-0.998,0.424-1.435c0.424-0.424,0.986-0.424,1.435-0.424h6.664c0.649,0,0.899,0.025,1.186,0.175
		c0.387,0.2,0.649,0.649,0.649,1.173c0,0.537-0.262,0.986-0.649,1.173c-0.3,0.15-0.549,0.175-1.186,0.175h-5.466v3.819h4.418
		V107.597z"/>
	<path class="st13" d="M41.108,116.732c-1.136,0-2.047-0.374-2.683-0.998c-0.911-0.923-1.161-1.984-1.161-3.232v-5.416
		c0-0.686,0.037-0.961,0.187-1.273c0.212-0.412,0.649-0.674,1.235-0.674c0.574,0,1.023,0.262,1.235,0.674
		c0.15,0.312,0.187,0.574,0.187,1.273v5.017c0,1.535,0.986,2.047,1.872,2.047c0.899,0,1.897-0.512,1.897-2.047v-5.017
		c0-0.686,0.037-0.961,0.187-1.273c0.212-0.412,0.661-0.674,1.235-0.674c0.574,0,1.023,0.262,1.235,0.674
		c0.15,0.312,0.187,0.574,0.187,1.273v7.675c0,0.724-0.037,0.948-0.212,1.273c-0.212,0.399-0.686,0.649-1.223,0.649
		c-0.387,0-0.686-0.125-0.911-0.324c-0.225-0.212-0.337-0.449-0.424-0.824C43.242,116.332,42.157,116.732,41.108,116.732"/>
	<path class="st13" d="M51.554,107.747h-0.287c-0.537,0-0.736-0.037-0.961-0.15c-0.337-0.175-0.524-0.512-0.524-0.936
		s0.187-0.761,0.524-0.936c0.225-0.125,0.424-0.15,0.961-0.15h0.287v-1.51c0-0.686,0.037-0.961,0.187-1.273
		c0.212-0.412,0.661-0.674,1.235-0.674c0.574,0,1.023,0.262,1.235,0.674c0.15,0.312,0.187,0.574,0.187,1.273v1.51h0.849
		c0.537,0,0.736,0.037,0.961,0.15c0.337,0.175,0.524,0.512,0.524,0.936s-0.187,0.761-0.524,0.936
		c-0.225,0.125-0.424,0.15-0.961,0.15h-0.849v5.453c0,0.537,0.2,0.961,0.911,1.011c0.362,0.025,0.611,0.05,0.849,0.175
		c0.349,0.175,0.562,0.499,0.562,1.011c0,0.499-0.225,0.836-0.562,1.011c-0.25,0.125-0.624,0.2-1.173,0.2h-0.15
		c-2.359,0-3.282-1.597-3.282-3.257C51.554,113.35,51.554,107.747,51.554,107.747z"/>
	<path class="st13" d="M61.874,108.046c-0.374,0.225-0.686,0.3-0.936,0.3c-0.287,0-0.599-0.125-0.811-0.387
		c-0.225-0.275-0.312-0.524-0.312-0.849c0-0.636,0.537-1.086,1.061-1.348c0.824-0.437,1.722-0.661,2.87-0.661
		c3.17,0,4.792,1.348,4.792,4.018v5.641c0,0.736-0.037,0.948-0.212,1.273c-0.212,0.387-0.686,0.661-1.223,0.661
		c-0.387,0-0.686-0.125-0.911-0.324c-0.212-0.2-0.324-0.412-0.412-0.749c-0.824,0.811-1.522,1.123-2.82,1.123
		c-1.285,0-2.246-0.362-2.908-1.023c-0.599-0.599-0.936-1.547-0.936-2.558c0-1.81,1.248-3.295,3.931-3.295h2.646v-0.562
		c0-1.248-0.649-1.785-1.997-1.785C63.022,107.51,62.498,107.672,61.874,108.046 M65.693,111.802h-2.159
		c-1.136,0-1.685,0.462-1.685,1.31c0,0.786,0.549,1.285,1.722,1.285c0.699,0,1.198-0.087,1.685-0.549
		c0.337-0.312,0.437-0.711,0.437-1.435V111.802z"/>
	<path class="st13" d="M72.681,102.917c0-0.686,0.037-0.961,0.187-1.26c0.212-0.412,0.649-0.674,1.235-0.674
		c0.574,0,1.023,0.262,1.235,0.674c0.15,0.312,0.187,0.574,0.187,1.26v3.32c0.724-0.836,1.597-1.136,2.745-1.136
		c1.136,0,2.121,0.374,2.745,1.023c1.086,1.111,1.173,2.883,1.173,4.78c0,1.922-0.087,3.694-1.173,4.805
		c-0.636,0.649-1.647,1.023-2.758,1.023c-1.21,0-2.047-0.312-2.82-1.173c-0.087,0.374-0.2,0.611-0.412,0.811
		c-0.225,0.212-0.524,0.324-0.911,0.324c-0.537,0-1.011-0.262-1.223-0.661c-0.175-0.324-0.212-0.549-0.212-1.273V102.917z
		 M77.436,107.672c-1.697,0-1.922,1.41-1.922,3.232s0.212,3.257,1.947,3.257c1.685,0,1.897-1.435,1.897-3.257
		C79.357,109.082,79.145,107.672,77.436,107.672"/>
	<path class="st13" d="M87.906,108.046c-0.374,0.225-0.686,0.3-0.936,0.3c-0.287,0-0.599-0.125-0.811-0.387
		c-0.225-0.275-0.312-0.524-0.312-0.849c0-0.636,0.537-1.086,1.061-1.348c0.824-0.437,1.722-0.661,2.87-0.661
		c3.17,0,4.792,1.348,4.792,4.018v5.641c0,0.736-0.037,0.948-0.212,1.273c-0.212,0.387-0.686,0.661-1.223,0.661
		c-0.387,0-0.686-0.125-0.911-0.324c-0.225-0.2-0.324-0.412-0.412-0.749c-0.836,0.811-1.522,1.123-2.82,1.123
		c-1.285,0-2.246-0.362-2.908-1.023c-0.599-0.599-0.936-1.547-0.936-2.558c0-1.81,1.248-3.295,3.931-3.295h2.646v-0.562
		c0-1.248-0.649-1.785-1.997-1.785C89.054,107.51,88.53,107.672,87.906,108.046 M91.725,111.802h-2.159
		c-1.136,0-1.685,0.462-1.685,1.31c0,0.786,0.549,1.285,1.722,1.285c0.699,0,1.198-0.087,1.685-0.549
		c0.337-0.312,0.437-0.711,0.437-1.435L91.725,111.802z"/>
	<g>
		<g>
			<defs>
				<path id="SVGID_00000119832287724316934530000011350241631687259806_" d="M99.998,45.961c-2.159-6.152-5.391-1.947-5.216,2.097
					c-2.072-3.282-3.744-0.1-3.744,3.919c-3.631-4.168-2.646,6.227-2.646,9.11c7.038-7.375,13.078-6.165,14.489-3.132
					c2.458,5.266-7.013,15.599-11.144,19.405c-2.683,2.471-6.439,2.683-1.123-2.371c0.799-0.761,2.745-2.633,5.441-5.878
					c10.545-12.654,0.786-13.203-4.73-7.837c-4.667,4.53-7.088,8.299-17.783,13.191c-4.617,2.109-7.25,5.466-6.963,11.706
					c0.187,4.181,6.165,14.114,18.594,6.115c11.918-7.675,17.197-12.504,21.951-21.003c4.83-8.623-0.187-20.753-0.998-23.237
					c-1.285-3.919-2.758-5.429-3.956-5.429C101.047,42.604,100.173,43.99,99.998,45.961"/>
			</defs>
			<clipPath id="SVGID_00000110432176167750051490000017198256076617804965_">
				<use xlink:href="#SVGID_00000119832287724316934530000011350241631687259806_"  style="overflow:visible;"/>
			</clipPath>
			
				<linearGradient id="SVGID_00000026861241292884478110000015355959372819077799_" gradientUnits="userSpaceOnUse" x1="27.7575" y1="-383.4001" x2="29.0133" y2="-383.4001" gradientTransform="matrix(40.7752 -7.1898 -7.1898 -40.7752 -3829.8311 -15358.1924)">
				<stop  offset="0" style="stop-color:#FEF2E0"/>
				<stop  offset="0.1296" style="stop-color:#FDEFD8"/>
				<stop  offset="0.341" style="stop-color:#FBE6C2"/>
				<stop  offset="0.6078" style="stop-color:#F7D79D"/>
				<stop  offset="0.9169" style="stop-color:#F2C368"/>
				<stop  offset="1" style="stop-color:#F0BD58"/>
			</linearGradient>
			
				<polygon style="clip-path:url(#SVGID_00000110432176167750051490000017198256076617804965_);fill:url(#SVGID_00000026861241292884478110000015355959372819077799_);" points="
				67.839,108.071 122.474,98.437 110.756,31.997 56.121,41.631 			"/>
		</g>
	</g>
	<g>
		<g>
			<defs>
				<path id="SVGID_00000002350236883755262580000006056449250619915173_" d="M17.198,45.961c2.159-6.152,5.391-1.947,5.216,2.097
					c2.072-3.282,3.744-0.1,3.744,3.919c3.631-4.168,2.646,6.227,2.646,9.11c-7.026-7.388-13.078-6.177-14.489-3.145
					c-2.458,5.266,7.013,15.599,11.144,19.405c2.683,2.471,6.439,2.683,1.123-2.371c-0.799-0.761-2.745-2.633-5.441-5.878
					c-10.545-12.654-0.786-13.203,4.73-7.837c4.667,4.53,7.088,8.299,17.783,13.191c4.617,2.109,7.251,5.466,6.963,11.706
					c-0.187,4.181-6.165,14.114-18.594,6.115C20.106,84.597,14.827,79.768,10.072,71.27c-4.83-8.623,0.187-20.753,0.998-23.237
					c1.285-3.919,2.758-5.429,3.956-5.429C16.15,42.604,17.023,43.99,17.198,45.961"/>
			</defs>
			<clipPath id="SVGID_00000042700304869747519860000004452652680708194440_">
				<use xlink:href="#SVGID_00000002350236883755262580000006056449250619915173_"  style="overflow:visible;"/>
			</clipPath>
			
				<linearGradient id="SVGID_00000071560753842239829280000016649342342010882445_" gradientUnits="userSpaceOnUse" x1="28.6312" y1="-376.05" x2="29.929" y2="-376.05" gradientTransform="matrix(36.5262 6.4406 -6.4406 36.5262 -3461.1057 13617.5654)">
				<stop  offset="0" style="stop-color:#E798A2"/>
				<stop  offset="0.2301" style="stop-color:#EDB2B8"/>
				<stop  offset="0.567" style="stop-color:#F5D3D5"/>
				<stop  offset="0.8354" style="stop-color:#FAE6E6"/>
				<stop  offset="1" style="stop-color:#FBEDED"/>
			</linearGradient>
			
				<polygon style="clip-path:url(#SVGID_00000042700304869747519860000004452652680708194440_);fill:url(#SVGID_00000071560753842239829280000016649342342010882445_);" points="
				6.154,31.997 61.063,41.881 49.644,108.071 -5.277,98.187 			"/>
		</g>
	</g>
</g>
</svg>
