<?xml version="1.0" encoding="utf-8"?>
<!-- Generator: Adobe Illustrator 24.0.0, SVG Export Plug-In . SVG Version: 6.00 Build 0)  -->
<svg version="1.1" id="レイヤー_1" xmlns="http://www.w3.org/2000/svg" xmlns:xlink="http://www.w3.org/1999/xlink" x="0px"
	 y="0px" width="212.705px" height="47.807px" viewBox="0 0 212.7 47.8" style="enable-background:new 0 0 212.7 47.8;" xml:space="preserve">
<style type="text/css">
	.st0{fill:#FFFFFF;}
	.st1{fill:#808080;}
	.st2{fill:url(#SVGID_1_);}
	.st3{enable-background:new    ;}
</style>
<g>
	<rect x="0.3" y="0.3" class="st0" width="212.1" height="47.2"/>
	<path class="st1" d="M212.1,0.6v46.6H0.6V0.6H212.1 M212.7,0H0v47.8h212.7V0L212.7,0z"/>
</g>
<g>
	<g>
		<g>
			
				<linearGradient id="SVGID_1_" gradientUnits="userSpaceOnUse" x1="27.8" y1="825.066" x2="27.8" y2="799.666" gradientTransform="matrix(1 0 0 1 0 -794)">
				<stop  offset="0" style="stop-color:#FFBBC7"/>
				<stop  offset="1" style="stop-color:#E16F80"/>
			</linearGradient>
			<rect x="15.1" y="5.7" class="st2" width="25.4" height="25.4"/>
			<g>
				<g>
					<path class="st0" d="M31.9,25.8c-0.8,0-1.6-0.2-2.5-0.7c-1.6-0.8-2.7-1.5-4.8-3.5c-2-2-2.7-3.1-3.5-4.8c-1.5-2.9-0.1-4.5,0.3-5
						l0.5-0.5c0.2-0.2,0.5-0.4,0.8-0.4s0.6,0.1,0.9,0.4c0.5,0.5,1.4,1.9,1.7,2.5c0.4,0.6,0.3,1.4-0.2,1.9l-1,1
						c0.7,1.2,1.4,2.1,2.3,3s1.9,1.6,3,2.3l1-1c0.3-0.3,0.7-0.5,1.1-0.5c0.3,0,0.6,0.1,0.8,0.2c0.6,0.3,1.9,1.3,2.5,1.7
						c0.3,0.2,0.4,0.5,0.4,0.8s-0.1,0.6-0.4,0.8l-0.5,0.5C34.1,25.1,33.2,25.8,31.9,25.8L31.9,25.8z"/>
				</g>
				<g>
					<path class="st0" d="M33.9,19.2c-0.1,0-0.1,0-0.2,0c-0.3-0.1-0.4-0.4-0.3-0.7c0.2-0.5,0.3-1.1,0.3-1.7c0-2.4-2-4.4-4.4-4.4
						c-0.5,0-1,0.1-1.4,0.2c-0.1,0-0.1,0-0.2,0c-0.2,0-0.4-0.1-0.5-0.3c-0.1-0.3,0-0.6,0.3-0.7c0.6-0.2,1.2-0.3,1.8-0.3
						c1.4,0,2.8,0.6,3.8,1.6s1.6,2.4,1.6,3.8c0,0.7-0.1,1.4-0.4,2.1C34.3,19.1,34.1,19.2,33.9,19.2z"/>
				</g>
				<g>
					<path class="st0" d="M32,18.6c-0.1,0-0.1,0-0.2,0c-0.3-0.1-0.4-0.4-0.3-0.7c0.1-0.3,0.2-0.6,0.2-1c0-1.4-1.1-2.5-2.5-2.5
						c-0.3,0-0.6,0-0.8,0.1c-0.1,0-0.1,0-0.2,0c-0.2,0-0.4-0.1-0.5-0.3c0-0.1,0-0.3,0-0.4c0.1-0.1,0.2-0.2,0.3-0.3
						c0.4-0.1,0.8-0.2,1.2-0.2c2,0,3.5,1.6,3.5,3.5c0,0.5-0.1,0.9-0.3,1.4C32.4,18.5,32.2,18.6,32,18.6L32,18.6z"/>
				</g>
			</g>
		</g>
	</g>
</g>
<g class="st3">
	<path class="st1" d="M49.5,18.7c0-6.4,2.7-8.9,5.3-8.9c2.7,0,5,2.5,5,8.6c0,6.3-2.1,9.1-5.3,9.1C50.3,27.4,49.5,21.4,49.5,18.7z
		 M58.9,18.5c0-4.7-1.3-8-4.2-8c-2.6,0-4.4,3.4-4.4,8c0,3.1,0.9,8.3,4.3,8.3C57.7,26.7,58.9,23,58.9,18.5z"/>
	<path class="st1" d="M68.4,17.8c2.1,0.4,3.8,2.1,3.8,4.6c0,2.5-1.6,5-5.4,5c-1.6,0-3.1-0.6-3.8-1.2l0.5-0.7
		c0.6,0.4,1.9,1.2,3.5,1.2c3.6,0,4.5-2.7,4.5-4.3c0-3-2.6-4.3-5.1-4.3h-1v-0.7h1.1c1.9,0,4.4-1.2,4.4-3.7c0-1.7-0.9-3.4-3.4-3.4
		c-1.3,0-2.5,0.6-3.2,1.3l-0.4-0.6c0.8-0.7,2.2-1.3,3.7-1.3c3.1,0,4.2,2,4.2,3.9C71.5,15.5,70.4,16.9,68.4,17.8L68.4,17.8z"/>
	<path class="st1" d="M75.9,19.6h6v0.9h-6V19.6z"/>
	<path class="st1" d="M93.8,10v0.7h-6.2l-0.9,6c0.4,0,0.8-0.1,1.6-0.1c2.5,0,5.6,1.3,5.6,5.1c0,3.5-2.5,5.7-5.4,5.7
		c-1.7,0-3.1-0.6-3.8-1.2l0.4-0.7c0.4,0.3,2,1.2,3.4,1.2c2.6,0,4.5-2.1,4.5-4.8c0-2.6-1.5-4.6-4.9-4.6c-1,0-1.8,0.1-2.4,0.2l1.1-7.5
		H93.8z"/>
	<path class="st1" d="M101.7,17.9c-1.6-0.7-3-2-3-3.8c0-2.8,2.2-4.3,4.6-4.3c2.7,0,4.3,1.8,4.3,4c0,1.4-0.7,3.1-3.1,4.2v0.1
		c2.5,1,3.7,2.6,3.7,4.5c0,2.9-2.4,4.8-5.1,4.8c-2.8,0-5.1-1.9-5.1-4.5c0-2.2,1.4-3.9,3.7-4.9V17.9z M107.3,22.8
		c0-2.5-1.6-3.6-4.6-4.5c-2,0.6-3.9,2.1-3.9,4.4c0,2.4,1.9,4.1,4.2,4.1C105.7,26.7,107.3,24.9,107.3,22.8z M99.5,13.9
		c0,2.1,1.5,3.3,3.9,3.9c1.9-0.7,3.3-1.9,3.3-3.9c0-1.5-0.8-3.4-3.5-3.4C101.3,10.4,99.5,11.7,99.5,13.9z"/>
	<path class="st1" d="M119.3,27.1h-0.8v-5.2h-8.1v-0.6l8.4-11.3h0.4v11.2h2.6v0.7h-2.6V27.1z M111.5,21.2h7v-7.4
		c0-0.8,0-1.5,0.1-2.2l-0.1,0c-0.5,0.9-0.9,1.4-1.3,2L111.5,21.2L111.5,21.2z"/>
	<path class="st1" d="M130.1,17.8c2.1,0.4,3.8,2.1,3.8,4.6c0,2.5-1.6,5-5.5,5c-1.6,0-3.1-0.6-3.8-1.2l0.5-0.7
		c0.6,0.4,1.9,1.2,3.5,1.2c3.6,0,4.5-2.7,4.5-4.3c0-3-2.6-4.3-5.1-4.3h-1v-0.7h1.1c1.9,0,4.4-1.2,4.4-3.7c0-1.7-0.9-3.4-3.4-3.4
		c-1.3,0-2.5,0.6-3.2,1.3l-0.4-0.6c0.8-0.7,2.2-1.3,3.7-1.3c3.1,0,4.2,2,4.2,3.9C133.3,15.5,132.2,16.9,130.1,17.8L130.1,17.8z"/>
	<path class="st1" d="M137.6,19.6h6v0.9h-6V19.6z"/>
	<path class="st1" d="M146.4,18.7c0-6.4,2.7-8.9,5.3-8.9c2.7,0,5,2.5,5,8.6c0,6.3-2.1,9.1-5.3,9.1C147.2,27.4,146.4,21.4,146.4,18.7
		z M155.8,18.5c0-4.7-1.3-8-4.2-8c-2.6,0-4.4,3.4-4.4,8c0,3.1,0.9,8.3,4.3,8.3C154.6,26.7,155.8,23,155.8,18.5z"/>
	<path class="st1" d="M164.8,27.1V10.9h0l-2.6,1.7l-0.3-0.6l3-1.9h0.8v17.1H164.8z"/>
	<path class="st1" d="M182.1,10v0.7h-6.2l-0.9,6c0.4,0,0.8-0.1,1.6-0.1c2.5,0,5.6,1.3,5.6,5.1c0,3.5-2.5,5.7-5.4,5.7
		c-1.7,0-3.1-0.6-3.8-1.2l0.4-0.7c0.4,0.3,2,1.2,3.4,1.2c2.6,0,4.5-2.1,4.5-4.8c0-2.6-1.5-4.6-4.9-4.6c-1,0-1.8,0.1-2.4,0.2l1.1-7.5
		H182.1z"/>
	<path class="st1" d="M191.3,27.1V10.9h0l-2.6,1.7l-0.3-0.6l3-1.9h0.8v17.1H191.3z"/>
</g>
<g class="st3">
	<path class="st1" d="M56.5,40.3l0.2,0.1c0,0-0.1,0-0.1,0.1c-0.5,1-1.3,1.7-2.2,2.3c1,0.6,2.2,0.9,3.5,1.1c-0.1,0.1-0.1,0.2-0.2,0.2
		c-1.3-0.2-2.6-0.6-3.6-1.2c-1.1,0.6-2.3,1-3.6,1.2c0-0.1-0.1-0.2-0.1-0.2c1.2-0.2,2.4-0.6,3.5-1.1c-0.9-0.5-1.5-1.2-2-2l0.2-0.1
		c0.5,0.8,1.1,1.5,2,2c0.9-0.5,1.6-1.2,2.1-2h-4.9v-0.3L56.5,40.3L56.5,40.3z M50.7,39v1.4h-0.3v-1.6h5.2c0.3-0.5,0.8-1.2,1.1-1.7
		l0.3,0.2c0,0-0.1,0.1-0.1,0.1c-0.2,0.4-0.6,1-1,1.4h1.8v1.6h-0.3V39H50.7z M57.1,36.5C57.1,36.5,57.1,36.5,57.1,36.5
		c-0.1,0-0.1,0-0.1,0c-1.4,0.3-4.1,0.6-6.3,0.7c0-0.1,0-0.2-0.1-0.2c2.2-0.1,4.9-0.4,6.3-0.7L57.1,36.5z M51.5,37.3
		c0.3,0.4,0.6,0.9,0.7,1.3L52,38.7c-0.1-0.3-0.4-0.9-0.7-1.3L51.5,37.3z M53.8,37.2c0.2,0.4,0.5,1,0.5,1.4L54,38.7
		c-0.1-0.4-0.3-1-0.5-1.4L53.8,37.2z"/>
	<path class="st1" d="M60,38.8c-0.4,0.7-0.8,1.3-1.3,1.8c0-0.1-0.1-0.1-0.2-0.2c0.9-0.9,1.8-2.5,2.3-4.1l0.4,0.1
		c0,0.1-0.1,0.1-0.2,0.1c-0.2,0.7-0.5,1.3-0.9,1.9l0.2,0.1c0,0,0,0.1-0.1,0.1v5.5H60V38.8z M66.5,38.3v0.3h-1.3v5
		c0,0.3-0.1,0.5-0.4,0.5c-0.3,0.1-0.8,0.1-1.7,0c0-0.1-0.1-0.2-0.1-0.3c0.4,0,0.8,0,1.1,0c0.8,0,0.9,0,0.9-0.3v-5.1h-3.8v-0.3h3.8
		v-1.9l0.4,0c0,0.1,0,0.1-0.1,0.1v1.8H66.5z M61.9,39.7c0.6,0.7,1.2,1.6,1.4,2.2L63.1,42c-0.2-0.6-0.8-1.6-1.4-2.2L61.9,39.7z"/>
	<path class="st1" d="M69.8,36.9v5.5h-2V43h-0.3v-6.1H69.8z M69.5,37.1h-1.7v2.3h1.7V37.1z M67.8,42.1h1.7v-2.4h-1.7V42.1z
		 M72.6,39.1H75v0.3h-5.1v-0.3h2.4v-1.4h-2v-0.3h2v-1.1l0.4,0c0,0,0,0.1-0.1,0.1v1h2v0.3h-2V39.1z M73.9,39.7c0,0,0,0.1-0.1,0.1v0.9
		H75v0.3h-1.1v2.7c0,0.2-0.1,0.3-0.3,0.4c-0.2,0-0.6,0-1.4,0c0-0.1-0.1-0.2-0.1-0.2c0.3,0,0.5,0,0.7,0c0.7,0,0.8,0,0.8-0.2v-2.7H70
		v-0.3h3.6v-1L73.9,39.7z M71.9,43.2c-0.2-0.4-0.7-1.1-1.2-1.6l0.2-0.1c0.5,0.5,1,1.1,1.2,1.6L71.9,43.2z"/>
	<path class="st1" d="M79.1,39.5h-2.7v4.6h-0.3v-7.4h3V39.5z M78.8,36.9h-2.4v1h2.4V36.9z M76.4,39.2h2.4v-1h-2.4V39.2z M81.1,40.3
		v3h-2.9v0.5H78v-3.5H81.1z M80.9,40.5h-2.6v1.1h2.6V40.5z M78.2,43h2.6v-1.2h-2.6V43z M83.1,36.7v6.9c0,0.3-0.1,0.4-0.3,0.4
		s-0.6,0.1-1.4,0.1c0-0.1-0.1-0.2-0.1-0.3c0.3,0,0.5,0,0.7,0c0.8,0,0.8,0,0.8-0.2v-4.1h-2.8v-2.8H83.1z M82.8,36.9h-2.5v1h2.5V36.9z
		 M80.3,39.2h2.5v-1h-2.5V39.2z"/>
	<path class="st1" d="M88.1,43.4v-6h0l-1,0.6L87,37.8l1.1-0.7h0.3v6.3H88.1z"/>
	<path class="st1" d="M90.7,40.3c0-2.4,1-3.3,2-3.3c1,0,1.8,0.9,1.8,3.2c0,2.3-0.8,3.4-2,3.4C91,43.5,90.7,41.3,90.7,40.3z
		 M94.2,40.2c0-1.8-0.5-3-1.6-3c-0.9,0-1.6,1.2-1.6,3c0,1.2,0.3,3.1,1.6,3.1C93.7,43.3,94.2,41.9,94.2,40.2z"/>
	<path class="st1" d="M95.4,39.6c0-0.2,0.1-0.4,0.3-0.4c0.2,0,0.3,0.2,0.3,0.4c0,0.2-0.1,0.4-0.3,0.4C95.5,39.9,95.4,39.7,95.4,39.6
		z M95.4,43.2c0-0.2,0.1-0.4,0.3-0.4c0.2,0,0.3,0.2,0.3,0.4c0,0.2-0.1,0.3-0.3,0.3C95.5,43.5,95.4,43.3,95.4,43.2z"/>
	<path class="st1" d="M96.8,40.3c0-2.4,1-3.3,2-3.3c1,0,1.8,0.9,1.8,3.2c0,2.3-0.8,3.4-2,3.4C97.1,43.5,96.8,41.3,96.8,40.3z
		 M100.3,40.2c0-1.8-0.5-3-1.6-3c-0.9,0-1.6,1.2-1.6,3c0,1.2,0.3,3.1,1.6,3.1C99.8,43.3,100.3,41.9,100.3,40.2z"/>
	<path class="st1" d="M101.3,40.3c0-2.4,1-3.3,2-3.3c1,0,1.8,0.9,1.8,3.2c0,2.3-0.8,3.4-2,3.4C101.6,43.5,101.3,41.3,101.3,40.3z
		 M104.8,40.2c0-1.8-0.5-3-1.6-3c-0.9,0-1.6,1.2-1.6,3c0,1.2,0.3,3.1,1.6,3.1C104.4,43.3,104.8,41.9,104.8,40.2z"/>
	<path class="st1" d="M110.7,40.1c0.1,0.8-0.5,1.1-0.9,1.1c-0.3,0-0.6-0.1-1.4-0.4c-0.5-0.2-0.9-0.4-1.4-0.4c-0.4,0-0.7,0.3-0.7,0.8
		H106c0-0.7,0.4-1.1,1-1.1c0.3,0,0.6,0.1,1.4,0.4c0.5,0.2,1,0.4,1.4,0.4c0.4,0,0.6-0.3,0.6-0.8H110.7z"/>
	<path class="st1" d="M113.4,43.4v-6h0l-1,0.6l-0.1-0.2l1.1-0.7h0.3v6.3H113.4z"/>
	<path class="st1" d="M119.6,40.2c-0.4,0.6-1,0.9-1.7,0.9c-1.2,0-1.7-1-1.7-1.9c0-1.2,0.7-2.2,1.9-2.2c1,0,1.8,0.8,1.8,2.6
		c0,2.4-1.5,4-3.2,3.9v-0.3c0.2,0,0.4,0,0.7-0.1C118.4,43,119.3,42.2,119.6,40.2L119.6,40.2z M116.5,39.2c0,1,0.6,1.7,1.5,1.7
		c1,0,1.6-0.9,1.6-1.2c0-1.2-0.4-2.4-1.6-2.4C117.1,37.2,116.5,38.1,116.5,39.2z"/>
	<path class="st1" d="M120.8,39.6c0-0.2,0.1-0.4,0.3-0.4c0.2,0,0.3,0.2,0.3,0.4c0,0.2-0.1,0.4-0.3,0.4
		C120.9,39.9,120.8,39.7,120.8,39.6z M120.8,43.2c0-0.2,0.1-0.4,0.3-0.4c0.2,0,0.3,0.2,0.3,0.4c0,0.2-0.1,0.3-0.3,0.3
		C120.9,43.5,120.8,43.3,120.8,43.2z"/>
	<path class="st1" d="M122.2,40.3c0-2.4,1-3.3,2-3.3c1,0,1.8,0.9,1.8,3.2c0,2.3-0.8,3.4-2,3.4C122.5,43.5,122.2,41.3,122.2,40.3z
		 M125.7,40.2c0-1.8-0.5-3-1.6-3c-0.9,0-1.6,1.2-1.6,3c0,1.2,0.3,3.1,1.6,3.1C125.2,43.3,125.7,41.9,125.7,40.2z"/>
	<path class="st1" d="M126.7,40.3c0-2.4,1-3.3,2-3.3c1,0,1.8,0.9,1.8,3.2c0,2.3-0.8,3.4-2,3.4C127,43.5,126.7,41.3,126.7,40.3z
		 M130.2,40.2c0-1.8-0.5-3-1.6-3c-0.9,0-1.6,1.2-1.6,3c0,1.2,0.3,3.1,1.6,3.1C129.8,43.3,130.2,41.9,130.2,40.2z"/>
	<path class="st1" d="M136.1,40.4l-1.2,0.4v2.9c0,0.2-0.1,0.3-0.3,0.4s-0.5,0.1-1.1,0.1c0-0.1-0.1-0.2-0.1-0.3c0.2,0,0.4,0,0.6,0
		c0.6,0,0.6,0,0.6-0.2v-2.8c-0.4,0.1-0.8,0.3-1.1,0.4c0,0.1,0,0.1-0.1,0.1l-0.2-0.3c0.4-0.1,0.9-0.2,1.4-0.4v-2.2h-1.3v-0.3h1.3
		v-1.9l0.4,0c0,0.1,0,0.1-0.1,0.1v1.7h1.2v0.3h-1.2v2.1c0.4-0.1,0.8-0.2,1.2-0.4L136.1,40.4z M141,40.8h-2.1
		c0.5,1.1,1.5,2.1,2.3,2.6c-0.1,0.1-0.1,0.1-0.2,0.2c-0.9-0.6-1.9-1.7-2.4-2.9h0v3.3h-0.3v-3.3h0c-0.5,1.2-1.6,2.3-2.6,2.9
		c-0.1-0.1-0.1-0.2-0.2-0.2c1-0.5,2-1.5,2.5-2.6h-2v-0.3h2.3v-1l0.4,0c0,0,0,0.1-0.1,0.1v0.9h2.4V40.8z M140.6,36.5c0,0,0,0-0.1,0
		c-1,0.3-2.8,0.6-4.4,0.7c0-0.1-0.1-0.2-0.1-0.2c1.5-0.2,3.4-0.4,4.3-0.8L140.6,36.5z M136.5,37.7c0.3,0.5,0.6,1.2,0.7,1.6l-0.2,0.1
		c-0.1-0.4-0.4-1.1-0.7-1.6L136.5,37.7z M138.2,37.5c0.3,0.5,0.5,1.2,0.5,1.6l-0.3,0.1c0-0.4-0.2-1.1-0.5-1.6L138.2,37.5z
		 M140.9,37.6c0,0-0.1,0.1-0.1,0.1c-0.3,0.6-0.7,1.5-1.1,2.1c0,0-0.2-0.1-0.2-0.1c0.4-0.6,0.9-1.6,1.1-2.2L140.9,37.6z"/>
	<path class="st1" d="M148.8,36.9v6.6c0,0.3-0.1,0.4-0.3,0.5s-0.7,0.1-1.6,0c0-0.1-0.1-0.2-0.1-0.3c0.3,0,0.6,0,0.8,0
		c0.9,0,0.9,0,0.9-0.2v-2.2h-2.8V44h-0.3v-2.7h-2.6c-0.1,1-0.4,2-1.1,2.8c0-0.1-0.1-0.2-0.2-0.2c1-1.1,1.1-2.6,1.1-3.9v-3.2H148.8z
		 M143,40.1c0,0.3,0,0.6,0,1h2.6v-1.8H143V40.1z M145.5,37.2H143V39h2.5V37.2z M148.6,37.2h-2.8V39h2.8V37.2z M145.7,41.1h2.8v-1.8
		h-2.8V41.1z"/>
	<path class="st1" d="M153,40.3l-1.1,0.4v2.9c0,0.2-0.1,0.3-0.2,0.4c-0.2,0-0.5,0.1-1,0c0-0.1-0.1-0.2-0.1-0.2c0.2,0,0.4,0,0.6,0
		c0.5,0,0.5,0,0.5-0.2v-2.8c-0.5,0.2-0.9,0.3-1.3,0.5c0,0.1,0,0.1-0.1,0.1l-0.2-0.3c0.4-0.1,0.9-0.3,1.5-0.5v-2.3h-1.4v-0.3h1.4
		v-1.8l0.4,0c0,0.1,0,0.1-0.1,0.1v1.7h1.1v0.3h-1.1v2.2l1.1-0.4L153,40.3z M152.7,43.3h5.4v0.3h-5.4V43.3z M154,41.7v0.6h-0.3v-5.5
		h3.7v5.5h-0.3v-0.6H154z M157.1,37H154v2.1h3.2V37z M154,41.4h3.2v-2.1H154V41.4z"/>
	<path class="st1" d="M162.8,36.3c0,0,0,0.1-0.1,0.1v3h2.9v4.7h-0.3v-0.4h-6.1v-0.3h6.1v-1.8h-5.6v-0.3h5.6v-1.7h-5.9v-0.3h3v-3.1
		L162.8,36.3z M159.7,36.7c0.5,0.6,1,1.4,1.2,2l-0.2,0.1c-0.2-0.6-0.7-1.4-1.2-2L159.7,36.7z M165.8,36.8c0,0-0.1,0.1-0.1,0.1
		c-0.3,0.6-0.8,1.5-1.2,2c0,0-0.2-0.1-0.2-0.1c0.4-0.6,1-1.5,1.3-2.2L165.8,36.8z"/>
</g>
</svg>
