<?xml version="1.0" encoding="utf-8"?>
<!-- Generator: Adobe Illustrator 16.0.0, SVG Export Plug-In . SVG Version: 6.00 Build 0)  -->
<!DOCTYPE svg PUBLIC "-//W3C//DTD SVG 1.1//EN" "http://www.w3.org/Graphics/SVG/1.1/DTD/svg11.dtd">
<svg version="1.1" id="レイヤー_1" xmlns="http://www.w3.org/2000/svg" xmlns:xlink="http://www.w3.org/1999/xlink" x="0px"
	 y="0px" width="26.279px" height="27.048px" viewBox="0 0 26.279 27.048" enable-background="new 0 0 26.279 27.048"
	 xml:space="preserve">
<g>
	<path fill="#42A137" d="M11.827,22.018c-0.064,0.002-0.125-0.024-0.166-0.073l-8.324-9.663c-0.066-0.08-0.068-0.195-0.002-0.273
		c0.041-0.051,0.098-0.076,0.156-0.079c0.039,0,0.078,0.011,0.113,0.03l7.75,4.5L25.907,0.073c0.041-0.046,0.098-0.07,0.154-0.073
		c0.045-0.001,0.096,0.014,0.135,0.044c0.088,0.068,0.109,0.193,0.047,0.285L11.997,21.923c-0.037,0.056-0.098,0.09-0.164,0.095
		C11.831,22.018,11.829,22.018,11.827,22.018L11.827,22.018z"/>
</g>
</svg>
