<?xml version="1.0" encoding="utf-8"?>
<!-- Generator: Adobe Illustrator 24.0.0, SVG Export Plug-In . SVG Version: 6.00 Build 0)  -->
<svg version="1.1" id="レイヤー_1" xmlns="http://www.w3.org/2000/svg" xmlns:xlink="http://www.w3.org/1999/xlink" x="0px"
	 y="0px" width="172.98px" height="58.024px" viewBox="0 0 173 58" style="enable-background:new 0 0 173 58;" xml:space="preserve">
<style type="text/css">
	.st0{fill:#808080;}
	.st1{fill:#FFFFFF;}
	.st2{fill:#606060;}
</style>
<rect y="0" class="st0" width="173" height="16.5"/>
<g>
	<g>
		<g>
			<path class="st1" d="M37,6.2c0-0.6,0-1,0-1.1c0-0.4,0-0.8-0.1-1c0.4,0,0.7,0.1,0.9,0.2c0.1,0,0.1,0.1,0.1,0.2c0,0,0,0.1-0.1,0.1
				c-0.1,0.2-0.1,0.4-0.1,0.6c0,0.2,0,0.6,0,1c0.6-0.1,1.1-0.3,1.6-0.5c0,0,0.1,0,0.1,0c0,0,0.1,0,0.1,0.1c0,0.2,0,0.4,0,0.5
				c0,0.1,0,0.1-0.1,0.1c-0.6,0.2-1.1,0.3-1.7,0.5c0,0.4,0,0.9,0,1.3c0,0.3,0,0.6,0,0.9c1.2-0.6,2.1-0.8,2.9-0.8
				c0.7,0,1.3,0.2,1.7,0.6c0.3,0.4,0.5,0.8,0.5,1.3c0,0.7-0.2,1.2-0.7,1.6c-0.4,0.3-0.9,0.5-1.6,0.5c-0.3,0-0.6,0-0.9-0.1
				c-0.1,0-0.1-0.1-0.2-0.3c0-0.2-0.1-0.3-0.2-0.5c0.3,0.2,0.7,0.2,1.2,0.2c0.5,0,0.9-0.1,1.2-0.4c0.3-0.2,0.4-0.6,0.4-1
				c0-0.4-0.2-0.8-0.5-1c-0.3-0.2-0.6-0.3-1.1-0.3c-0.7,0-1.6,0.3-2.8,0.9c0,0.4,0,0.9,0.1,1.7c0,0.2,0,0.4,0,0.7c0,0.2,0,0.3,0,0.4
				c0,0.1,0,0.2-0.1,0.3c-0.2,0.1-0.4,0.1-0.5,0.1c0,0-0.1,0-0.2-0.1c0,0,0-0.1-0.1-0.1c0-0.1-0.1-0.1-0.1-0.2
				c-0.3-0.3-0.9-0.8-1.6-1.2c-0.1,0-0.2,0.1-0.4,0.2c-0.1,0.1-0.1,0.1-0.2,0.1c-0.1,0-0.1,0-0.2-0.1c-0.1-0.1-0.2-0.4-0.3-0.7
				c0.4-0.1,0.7-0.2,1.1-0.4c0.4-0.2,1-0.5,1.8-1c0-0.5,0-1.3,0-2.4c-0.7,0.1-1.4,0.1-2,0.1c-0.1,0-0.2-0.1-0.2-0.2
				c0-0.1-0.1-0.3-0.1-0.5c0.2,0,0.4,0,0.6,0C35.8,6.3,36.4,6.2,37,6.2z M37,10c-0.1,0-0.5,0.3-1.4,0.9c0.9,0.5,1.3,0.8,1.4,0.8
				c0,0,0,0,0.1,0c0,0,0,0,0-0.1c0-0.1,0-0.4,0-0.8C37,10.5,37,10.2,37,10z M40.8,5.8c0.1-0.1,0.1-0.3,0.3-0.5
				c0-0.1,0.1-0.1,0.1-0.1c0,0,0,0,0,0c1,0.2,1.7,0.6,2.2,1.2c0,0,0,0.1,0,0.1c0,0,0,0,0,0.1c-0.1,0.2-0.3,0.4-0.4,0.5
				c0,0,0,0-0.1,0c0,0,0,0-0.1,0C42.3,6.4,41.6,6,40.8,5.8z"/>
			<path class="st1" d="M54.6,7.1c0,0.1,0,0.1-0.1,0.1H54c-0.1,0-0.1,0-0.1-0.1V5.4h-3.8v1.2l0,1.1c0,0.1,0,0.1-0.1,0.1h-0.5
				c-0.1,0-0.1,0-0.1-0.1l0-1.1V5.4h-3.6v1.6c0,0.1,0,0.1-0.1,0.1h-0.5c-0.1,0-0.1,0-0.1-0.1l0-1.1V5.6l0-0.6c0-0.1,0-0.1,0.1-0.1
				l1.5,0h2.7V4.2h-1.9l-1.6,0c-0.1,0-0.1,0-0.1-0.1V3.7c0-0.1,0-0.1,0.1-0.1l1.6,0h4.7l1.6,0c0.1,0,0.1,0,0.1,0.1v0.4
				c0,0.1,0,0.1-0.1,0.1l-1.6,0h-2.1v0.7H53l1.5,0c0.1,0,0.1,0,0.1,0.1l0,0.5v0.4L54.6,7.1z M54.8,11.4c0,0.4-0.1,0.7-0.2,0.9
				c-0.1,0.2-0.2,0.3-0.4,0.4c-0.3,0.2-1.1,0.3-2.2,0.3c-1,0-1.6,0-2-0.1c-0.4-0.1-0.6-0.4-0.6-1v-0.5H47v0.5c0,0.1,0,0.1-0.1,0.1
				h-0.5c-0.1,0-0.1,0-0.1-0.1l0-1V9.3l0-1c0-0.1,0-0.1,0.1-0.1l1.7,0h3.6l1.6,0c0.1,0,0.1,0,0.1,0.1l0,1v1.1l0,1
				c0,0.1,0,0.1-0.1,0.1l-1.6,0h-1.5v0.4c0,0.2,0,0.4,0.1,0.5c0.1,0.1,0.2,0.1,0.3,0.1c0.3,0,0.8,0.1,1.5,0.1c1,0,1.6-0.1,1.8-0.3
				c0.1-0.1,0.2-0.2,0.2-0.4c0.1-0.2,0.1-0.5,0.1-0.9c0.1,0.1,0.3,0.2,0.5,0.2c0.1,0,0.2,0.1,0.2,0.2C54.8,11.3,54.8,11.3,54.8,11.4
				z M48.7,6.4C48.7,6.5,48.7,6.5,48.7,6.4l-0.8,0.1h-0.5l-0.7,0c-0.1,0-0.1,0-0.1-0.1V6.1c0-0.1,0-0.1,0.1-0.1l0.7,0h0.5l0.7,0
				c0.1,0,0.1,0,0.1,0.1V6.4z M48.7,7.4C48.7,7.5,48.7,7.5,48.7,7.4l-0.8,0.1h-0.5l-0.7,0c-0.1,0-0.1,0-0.1-0.1V7.1
				c0-0.1,0-0.1,0.1-0.1l0.7,0h0.5l0.7,0c0.1,0,0.1,0,0.1,0.1V7.4z M49.4,9.5V8.7H47v0.8H49.4z M49.4,10.9V10H47v0.9H49.4z
				 M52.7,9.5V8.7h-2.6v0.8H52.7z M52.7,10.9V10h-2.6v0.9H52.7z M53.1,6.4C53.1,6.5,53.1,6.5,53.1,6.4l-0.8,0.1h-0.6l-0.7,0
				c-0.1,0-0.1,0-0.1-0.1V6.1C50.9,6,50.9,6,51,6l0.7,0h0.6l0.8,0c0.1,0,0.1,0,0.1,0.1V6.4z M53.1,7.4C53.1,7.5,53.1,7.5,53.1,7.4
				l-0.8,0.1h-0.6l-0.7,0c-0.1,0-0.1,0-0.1-0.1V7.1C50.9,7,50.9,7,51,7l0.7,0h0.6l0.8,0c0.1,0,0.1,0,0.1,0.1V7.4z"/>
			<path class="st1" d="M60,5.8C60,5.9,60,5.9,60,5.8l-1.3,0.1h-1.4l-1.2,0c-0.1,0-0.1,0-0.1-0.1V5.4c0-0.1,0-0.1,0.1-0.1l1.2,0h1.4
				l1.2,0c0.1,0,0.1,0,0.1,0.1V5.8z M59.7,13C59.7,13,59.7,13.1,59.7,13l-0.5,0.1c-0.1,0-0.1,0-0.1-0.1v-0.4h-1.8v0.6
				c0,0.1,0,0.1-0.1,0.1h-0.5c-0.1,0-0.1,0-0.1-0.1l0-1.6v-0.7l0-1c0-0.1,0-0.1,0.1-0.1l1,0h0.9l1,0c0.1,0,0.1,0,0.1,0.1l0,0.8v0.7
				L59.7,13z M59.7,4.3C59.7,4.3,59.7,4.4,59.7,4.3l-1.1,0.1h-1l-1,0c-0.1,0-0.1,0-0.1-0.1V3.8c0-0.1,0-0.1,0.1-0.1l1,0h1l1,0
				c0.1,0,0.1,0,0.1,0.1V4.3z M59.6,7.3c0,0.1,0,0.1-0.1,0.1l-0.9,0h-0.8l-0.9,0c-0.1,0-0.1,0-0.1-0.1V6.9c0-0.1,0-0.1,0.1-0.1
				l0.9,0h0.8l0.9,0c0.1,0,0.1,0,0.1,0.1V7.3z M59.6,8.8c0,0.1,0,0.1-0.1,0.1l-0.9,0h-0.8l-0.9,0c-0.1,0-0.1,0-0.1-0.1V8.4
				c0-0.1,0-0.1,0.1-0.1l0.9,0h0.8l0.9,0c0.1,0,0.1,0,0.1,0.1V8.8z M59.1,12.1v-1.7h-1.8v1.7H59.1z M66,7.3C66,7.3,66,7.4,66,7.3
				l-1.6,0.1h-1.2v1.8h0.6l1.3,0c0.1,0,0.1,0,0.1,0.1l0,1v0.9l0,1.8c0,0.1,0,0.1-0.1,0.1h-0.5c-0.1,0-0.1,0-0.1-0.1v-0.5h-3.3v0.6
				c0,0.1,0,0.1-0.1,0.1h-0.5c-0.1,0-0.1,0-0.1-0.1l0-1.9v-0.8l0-1.2c0-0.1,0-0.1,0.1-0.1l1.3,0h0.5V7.3h-0.9l-1.5,0
				c-0.1,0-0.1,0-0.1-0.1V6.8c0-0.1,0-0.1,0.1-0.1l1.5,0h0.9V4.8C62,5,61.4,5.1,60.8,5.2c-0.1,0-0.1,0-0.1,0c-0.1,0-0.1-0.1-0.1-0.2
				c-0.1-0.2-0.2-0.3-0.3-0.4c1.6-0.1,2.9-0.4,4-0.9c0.3-0.1,0.5-0.2,0.7-0.4c0.2,0.2,0.3,0.3,0.5,0.5c0.1,0.1,0.1,0.1,0.1,0.2
				c0,0.1-0.1,0.1-0.2,0.1c-0.1,0-0.2,0-0.3,0.1c-0.6,0.2-1.1,0.4-1.6,0.5v2.1h1.2l1.5,0c0.1,0,0.1,0,0.1,0.1C66,6.8,66,7.3,66,7.3z
				 M64.7,12V9.8h-3.3V12H64.7z"/>
			<path class="st1" d="M67.7,5.9c0.3,0,0.8,0,1.4-0.1c2.1-0.3,4.4-0.7,6.9-1c0,0,0,0,0,0c0.1,0,0.1,0,0.2,0.1
				c0,0.2,0.1,0.4,0.1,0.6c0,0.1,0,0.1-0.1,0.1c-0.6,0-1.2,0.1-1.6,0.3c-0.9,0.4-1.6,0.9-2.1,1.6c-0.5,0.6-0.7,1.3-0.7,1.9
				c0,1.5,1.1,2.4,3.2,2.5c0.1,0,0.2,0.1,0.2,0.1c0,0.1,0,0.3-0.1,0.5c0,0.1-0.1,0.2-0.1,0.2c0,0,0,0,0,0c-1.2-0.1-2.1-0.4-2.8-0.9
				c-0.7-0.6-1.1-1.3-1.1-2.3c0-1.6,0.9-2.8,2.7-3.8l0,0c-2,0.3-3.5,0.6-4.5,0.8c-0.3,0.1-0.5,0.1-0.7,0.2c-0.1,0.1-0.2,0.1-0.2,0.1
				c-0.1,0-0.1,0-0.2-0.1C67.9,6.5,67.8,6.2,67.7,5.9z M74.5,7.6l0.4-0.3c0,0,0,0,0,0c0,0,0,0,0.1,0c0.5,0.3,0.9,0.8,1.3,1.3
				c0,0,0,0,0,0c0,0,0,0.1,0,0.1l-0.3,0.3c0,0-0.1,0-0.1,0c0,0-0.1,0-0.1,0C75.4,8.4,75,8,74.5,7.6z M75.5,6.9l0.4-0.3
				c0,0,0.1,0,0.1,0c0,0,0,0,0.1,0c0.5,0.4,1,0.8,1.3,1.3c0,0,0,0,0,0.1c0,0,0,0.1-0.1,0.1l-0.3,0.3c0,0,0,0-0.1,0
				c0,0-0.1,0-0.1-0.1C76.4,7.7,76,7.2,75.5,6.9z"/>
			<path class="st1" d="M83.7,5.4c-0.1,1-0.3,2-0.6,2.9c-0.2,0.8-0.5,1.5-0.9,2c-0.4,0.8-1,1.1-1.6,1.1c-0.5,0-0.9-0.2-1.2-0.7
				C79.1,10.2,79,9.6,79,8.9c0-0.6,0.1-1.1,0.4-1.6c0.2-0.5,0.5-0.9,0.9-1.2c0.9-0.8,2-1.2,3.3-1.2c1.3,0,2.3,0.4,3.1,1.1
				c0.6,0.6,0.9,1.5,0.9,2.5c0,1-0.3,1.8-1,2.5C86,11.5,85.1,12,84,12.2c0,0-0.1,0-0.1,0c-0.1,0-0.1,0-0.2-0.1
				c-0.1-0.2-0.2-0.3-0.4-0.4c1.2-0.2,2.1-0.7,2.7-1.3c0.5-0.6,0.8-1.3,0.8-2.2c0-0.9-0.3-1.6-0.9-2.1c-0.5-0.5-1.2-0.7-1.9-0.7
				L83.7,5.4L83.7,5.4z M82.9,5.5c-0.9,0.1-1.6,0.5-2.2,1C80,7.2,79.7,8,79.7,8.9c0,0.6,0.1,1.1,0.3,1.4c0.2,0.2,0.4,0.4,0.6,0.4
				c0.4,0,0.7-0.3,1-0.8c0.3-0.6,0.6-1.3,0.9-2.1C82.7,6.9,82.9,6.2,82.9,5.5z"/>
			<path class="st1" d="M92.7,6.2c0-0.6,0-1,0-1.1c0-0.4,0-0.8-0.1-1c0.4,0,0.7,0.1,0.9,0.2c0.1,0,0.1,0.1,0.1,0.2
				c0,0,0,0.1-0.1,0.1c-0.1,0.2-0.1,0.4-0.1,0.6c0,0.2,0,0.6,0,1C94,5.9,94.5,5.8,95,5.6c0,0,0.1,0,0.1,0c0,0,0.1,0,0.1,0.1
				c0,0.2,0,0.4,0,0.5c0,0.1,0,0.1-0.1,0.1c-0.6,0.2-1.1,0.3-1.7,0.5c0,0.4,0,0.9,0,1.3c0,0.3,0,0.6,0,0.9c1.2-0.6,2.1-0.8,2.9-0.8
				c0.7,0,1.3,0.2,1.7,0.6c0.3,0.4,0.5,0.8,0.5,1.3c0,0.7-0.2,1.2-0.7,1.6c-0.4,0.3-0.9,0.5-1.6,0.5c-0.3,0-0.6,0-0.9-0.1
				c-0.1,0-0.1-0.1-0.2-0.3c0-0.2-0.1-0.3-0.2-0.5c0.3,0.2,0.7,0.2,1.2,0.2c0.5,0,0.9-0.1,1.2-0.4c0.3-0.2,0.4-0.6,0.4-1
				c0-0.4-0.2-0.8-0.5-1c-0.3-0.2-0.6-0.3-1.1-0.3c-0.7,0-1.6,0.3-2.8,0.9c0,0.4,0,0.9,0.1,1.7c0,0.2,0,0.4,0,0.7c0,0.2,0,0.3,0,0.4
				c0,0.1,0,0.2-0.1,0.3c-0.2,0.1-0.4,0.1-0.5,0.1c0,0-0.1,0-0.2-0.1c0,0,0-0.1-0.1-0.1c0-0.1-0.1-0.1-0.1-0.2
				c-0.3-0.3-0.9-0.8-1.6-1.2c-0.1,0-0.2,0.1-0.4,0.2c-0.1,0.1-0.1,0.1-0.2,0.1c-0.1,0-0.1,0-0.2-0.1c-0.1-0.1-0.2-0.4-0.3-0.7
				c0.4-0.1,0.7-0.2,1.1-0.4c0.4-0.2,1-0.5,1.8-1c0-0.5,0-1.3,0-2.4c-0.7,0.1-1.4,0.1-2,0.1c-0.1,0-0.2-0.1-0.2-0.2
				c0-0.1-0.1-0.3-0.1-0.5c0.2,0,0.4,0,0.6,0C91.5,6.3,92.1,6.2,92.7,6.2z M92.7,10c-0.1,0-0.5,0.3-1.4,0.9c0.9,0.5,1.3,0.8,1.4,0.8
				c0,0,0,0,0.1,0c0,0,0.1,0,0.1-0.1c0-0.1,0-0.4,0-0.8C92.7,10.5,92.7,10.2,92.7,10z M96.4,5.8c0.1-0.1,0.1-0.3,0.3-0.5
				c0-0.1,0.1-0.1,0.1-0.1c0,0,0,0,0,0c0.9,0.2,1.7,0.6,2.2,1.2c0,0,0,0.1,0,0.1c0,0,0,0,0,0.1c-0.1,0.2-0.3,0.4-0.4,0.5
				c0,0,0,0-0.1,0c0,0,0,0-0.1,0C98,6.4,97.2,6,96.4,5.8z"/>
			<path class="st1" d="M105,7.1C105,7.1,104.9,7.1,105,7.1l-1.2,0.1h-1.9v3.7l0,2.3c0,0.1,0,0.1-0.1,0.1h-0.5c-0.1,0-0.1,0-0.1-0.1
				l0-2.3V6l0-2.3c0-0.1,0-0.1,0.1-0.1l1.3,0h1.3l1.1,0c0.1,0,0.1,0,0.1,0.1l0,1V6L105,7.1z M104.3,5.1V4.2h-2.5v0.9H104.3z
				 M104.3,6.6v-1h-2.5v1H104.3z M107.4,11.7C107.4,11.8,107.3,11.8,107.4,11.7l-0.6,0.1c-0.1,0-0.1,0-0.1-0.1v-0.5h-2.4v0.7
				c0,0.1,0,0.1-0.1,0.1h-0.5c-0.1,0-0.1,0-0.1-0.1l0-1.8V9.4l0-1.1c0-0.1,0-0.1,0.1-0.1l1.1,0h1.3l1.1,0c0.1,0,0.1,0,0.1,0.1l0,0.9
				V10L107.4,11.7z M106.7,10.6V8.8h-2.4v1.9H106.7z M110,12c0,0.4-0.1,0.7-0.3,0.8c-0.1,0.1-0.3,0.2-0.5,0.2c-0.2,0-0.5,0-0.9,0
				c-0.1,0-0.2,0-0.2,0c0,0,0-0.1-0.1-0.2c-0.1-0.2-0.1-0.4-0.2-0.5c0.3,0,0.5,0,0.8,0c0.3,0,0.4,0,0.5-0.1c0.1-0.1,0.1-0.2,0.1-0.4
				V7.1h-2l-1.2,0c-0.1,0-0.1,0-0.1-0.1l0-1V4.7l0-1c0-0.1,0-0.1,0.1-0.1l1.2,0h1.4l1.2,0c0.1,0,0.1,0,0.1,0.1l0,1.6v5.1L110,12z
				 M109.3,5.1V4.2h-2.6v0.9H109.3z M109.3,6.6v-1h-2.6v1H109.3z"/>
			<path class="st1" d="M112.7,4.8c0.3,0,0.6,0.1,0.9,0.2c0.1,0,0.1,0.1,0.1,0.1c0,0,0,0.1,0,0.2c-0.1,0.2-0.1,0.5-0.1,1
				c0,0.9,0.1,1.7,0.2,2.5c0.1,0.7,0.3,1.3,0.5,1.7c0.2,0.4,0.4,0.6,0.7,0.6c0.4,0,0.8-0.6,1.2-1.7c0.1,0.2,0.2,0.4,0.4,0.6
				c0.1,0.1,0.1,0.1,0.1,0.2c0,0,0,0.1,0,0.1c-0.2,0.5-0.4,1-0.7,1.3c-0.3,0.3-0.6,0.5-0.9,0.5c-0.5,0-0.9-0.3-1.3-1
				c-0.3-0.5-0.5-1.2-0.6-2.1c-0.1-1-0.2-2-0.2-3.1C112.8,5.5,112.7,5.1,112.7,4.8z M118.4,6.2c0.2-0.1,0.4-0.2,0.5-0.3
				c0,0,0.1,0,0.1,0c0,0,0,0,0.1,0c1.2,1,1.9,2.3,2.2,3.9c0,0,0,0,0,0c0,0,0,0.1-0.1,0.1c-0.2,0.1-0.3,0.2-0.5,0.3c0,0,0,0,0,0
				c-0.1,0-0.1,0-0.1-0.1C120.2,8.5,119.5,7.2,118.4,6.2z"/>
			<path class="st1" d="M133.1,7.3c-0.1,0.1-0.2,0.3-0.3,0.4c-0.1,0.1-0.1,0.2-0.1,0.2c0,0-0.1,0-0.2-0.1c-2-0.8-3.5-2.1-4.7-3.8
				c-1.1,1.6-2.6,2.9-4.5,3.9c-0.1,0-0.1,0.1-0.2,0.1c0,0-0.1-0.1-0.1-0.2c-0.1-0.1-0.2-0.3-0.3-0.4c2-0.9,3.5-2.2,4.6-3.8
				c0.1-0.2,0.2-0.4,0.3-0.6c0.3,0,0.5,0.1,0.7,0.1c0.1,0,0.2,0.1,0.2,0.1c0,0,0,0.1-0.1,0.1l-0.1,0.1
				C129.4,5.3,131.1,6.6,133.1,7.3z M131,13C131,13.1,131,13.1,131,13l-0.6,0.1c-0.1,0-0.1,0-0.1-0.1v-0.5h-4.9v0.5
				c0,0.1,0,0.1-0.1,0.1h-0.5c-0.1,0-0.1,0-0.1-0.1l0-1.9v-0.9l0-1.2c0-0.1,0-0.1,0.1-0.1l1.5,0h3.1l1.5,0c0.1,0,0.1,0,0.1,0.1
				l0,1.1v1L131,13z M130.3,12V9.5h-4.9V12H130.3z M130.1,7.4C130.1,7.5,130.1,7.5,130.1,7.4l-1.4,0.1H127l-1.3,0
				c-0.1,0-0.1,0-0.1-0.1V6.9c0-0.1,0-0.1,0.1-0.1l1.3,0h1.8l1.3,0c0.1,0,0.1,0,0.1,0.1V7.4z"/>
			<path class="st1" d="M136.8,3.6c0.4,0,0.7,0.1,0.9,0.1c0.1,0,0.1,0.1,0.1,0.1c0,0,0,0.1,0,0.1c0,0.1-0.1,0.2-0.1,0.4
				c0,0.2,0,0.4,0,0.6c0,0.3,0,0.5,0,0.7c0.1,0,0.2-0.1,0.2-0.1c0,0,0.1,0,0.1,0c0,0,0.1,0,0.2,0.1c0.1,0.1,0.1,0.2,0.1,0.2
				c0,0,0,0.1-0.1,0.2c-0.2,0.2-0.4,0.5-0.5,0.8c0,0.2,0,0.4,0,0.6c1.1-0.9,2.2-1.4,3.4-1.4c0.9,0,1.6,0.3,2,0.9
				c0.4,0.5,0.6,1.1,0.6,1.8c0,0.8-0.3,1.5-0.8,2.1c-0.5,0.6-1.2,1-2.1,1.3c0,0-0.1,0-0.1,0c-0.1,0-0.1,0-0.2-0.1
				c-0.2-0.2-0.3-0.3-0.5-0.4c1-0.2,1.8-0.7,2.3-1.2c0.5-0.5,0.7-1,0.7-1.7c0-0.6-0.2-1.1-0.6-1.5c-0.3-0.3-0.8-0.5-1.3-0.5
				c-1.1,0-2.2,0.5-3.4,1.5c0,0.3,0,0.5,0,0.8c0,0.7,0,1.8,0,3.4c0,0.1,0,0.1-0.1,0.1c-0.1,0-0.3,0-0.6,0c-0.1,0-0.1,0-0.1-0.1
				c0-1.1,0-2.4,0-4c-0.2,0.3-0.6,0.8-1,1.5c-0.4,0.6-0.7,1-0.9,1.2c0,0-0.1,0.1-0.1,0.1c0,0,0,0-0.1,0c-0.2-0.2-0.4-0.3-0.4-0.4
				c0,0,0,0,0-0.1s0-0.1,0-0.1c0.7-0.9,1.6-2,2.5-3.3c0-0.1,0-0.2,0-0.6c0-0.2,0-0.3,0-0.4c-0.4,0.1-0.9,0.3-1.3,0.4
				c-0.1,0-0.2,0.1-0.3,0.2c-0.1,0.1-0.1,0.1-0.1,0.1c0,0,0,0,0,0c0,0-0.1,0-0.2-0.1c-0.1-0.2-0.2-0.4-0.3-0.6
				c0.3,0,0.5-0.1,0.7-0.1c0,0,0.3-0.1,0.8-0.2c0.3-0.1,0.6-0.2,0.8-0.2c0-0.2,0-0.4,0-0.7c0-0.3,0-0.5,0-0.7
				C136.9,4.1,136.8,3.8,136.8,3.6z"/>
			<path class="st1" d="M151.6,6.5c0-0.5,0-1.1,0-1.9c0-0.4,0-0.7-0.1-0.9c0.4,0.1,0.7,0.1,0.9,0.2c0.1,0,0.1,0.1,0.1,0.1
				c0,0.1,0,0.1-0.1,0.2c0,0.1-0.1,0.2-0.1,0.4c0,0.8,0,1.4,0,1.9c1-0.1,1.8-0.1,2.3-0.1c0.1,0,0.1,0,0.1,0.1c0,0.1,0,0.2,0,0.2
				s0,0.2,0,0.2c0,0.1,0,0.1-0.1,0.1c-0.7,0-1.5,0-2.3,0.1c0,1.2-0.1,1.9-0.1,2.3c-0.1,0.7-0.5,1.1-1.2,1.1c-0.2,0-0.5,0-0.8-0.1
				c-0.1,0-0.1-0.1-0.1-0.2c0-0.2-0.1-0.4-0.2-0.6c0.4,0.1,0.8,0.2,1.1,0.2c0.2,0,0.3-0.1,0.4-0.2c0.1-0.1,0.1-0.3,0.1-0.5
				c0.1-0.5,0.1-1.1,0.1-2c-1.1,0.1-2.1,0.2-3.2,0.4c0,1,0,1.6,0,2c0,0.6,0,1,0,1.3c0,0.5,0.2,0.8,0.5,1c0.3,0.1,0.8,0.2,1.5,0.2
				c0.9,0,1.8-0.1,2.7-0.2c0,0,0,0,0.1,0c0.1,0,0.1,0,0.1,0.1c0,0.1,0,0.3,0,0.5c0,0.1,0,0.1-0.1,0.2c-0.8,0.1-1.7,0.2-2.7,0.2
				c-1.1,0-1.9-0.1-2.2-0.4c-0.3-0.2-0.5-0.7-0.6-1.3c0-0.3-0.1-1.4-0.1-3.4c-0.7,0.1-1.2,0.2-1.6,0.3c-0.2,0-0.3,0.1-0.5,0.1
				c0,0-0.1,0-0.1,0c-0.1,0-0.1,0-0.1-0.1c-0.1-0.3-0.2-0.5-0.2-0.7c0.2,0,0.5,0,0.8-0.1c0.2,0,0.5-0.1,0.9-0.1
				c0.4-0.1,0.7-0.1,0.8-0.1c0-0.3,0-0.7,0-1.3c0-0.4-0.1-0.8-0.1-1.1c0.3,0,0.6,0.1,0.9,0.1c0.1,0,0.2,0.1,0.2,0.2c0,0,0,0.1,0,0.1
				c0,0.1,0,0.1,0,0.1c0,0.1-0.1,0.3-0.1,0.5c0,0,0,0.4,0,1.2C149.6,6.7,150.7,6.6,151.6,6.5z"/>
		</g>
	</g>
	<g>
		<g>
			<path class="st1" d="M28.8,13.6c-0.5,0-1-0.1-1.5-0.4c-1-0.5-1.7-0.9-2.9-2.2c-1.2-1.2-1.6-1.9-2.2-2.9c-0.9-1.8-0.1-2.8,0.2-3.1
				l0.3-0.3c0.1-0.1,0.3-0.2,0.5-0.2c0.2,0,0.4,0.1,0.5,0.3c0.3,0.3,0.9,1.2,1.1,1.5c0.2,0.4,0.2,0.9-0.1,1.2L24,8
				c0.4,0.7,0.9,1.3,1.4,1.9c0.6,0.6,1.1,1,1.9,1.4l0.6-0.6c0.2-0.2,0.4-0.3,0.7-0.3c0.2,0,0.4,0,0.5,0.1c0.4,0.2,1.2,0.8,1.5,1.1
				c0.2,0.1,0.3,0.3,0.3,0.5c0,0.2-0.1,0.4-0.2,0.5L30.3,13C30.1,13.1,29.6,13.6,28.8,13.6L28.8,13.6z"/>
		</g>
		<g>
			<path class="st1" d="M30,9.5c0,0-0.1,0-0.1,0c-0.2-0.1-0.2-0.3-0.2-0.4c0.1-0.3,0.2-0.7,0.2-1c0-1.5-1.2-2.7-2.7-2.7
				c-0.3,0-0.6,0.1-0.9,0.2c0,0-0.1,0-0.1,0c-0.1,0-0.3-0.1-0.3-0.2c-0.1-0.2,0-0.3,0.2-0.4c0.4-0.1,0.7-0.2,1.1-0.2
				c0.9,0,1.7,0.3,2.3,1c0.6,0.6,1,1.5,1,2.3c0,0.4-0.1,0.9-0.3,1.3C30.2,9.4,30.1,9.5,30,9.5z"/>
		</g>
		<g>
			<path class="st1" d="M28.9,9.2c0,0-0.1,0-0.1,0c-0.2-0.1-0.2-0.3-0.2-0.4c0.1-0.2,0.1-0.4,0.1-0.6c0-0.9-0.7-1.5-1.5-1.5
				c-0.2,0-0.3,0-0.5,0.1c0,0-0.1,0-0.1,0c-0.1,0-0.3-0.1-0.3-0.2c0-0.1,0-0.2,0-0.2c0-0.1,0.1-0.1,0.2-0.2C26.7,6,26.9,6,27.2,6
				c1.2,0,2.2,1,2.2,2.2c0,0.3-0.1,0.6-0.2,0.8C29.1,9.1,29,9.2,28.9,9.2L28.9,9.2z"/>
		</g>
	</g>
</g>
<g>
	<path class="st2" d="M18.9,33.2c0-6.3,2.5-9,5.5-9s5.1,2.8,5.1,8.7c0,6.1-2.1,9.1-5.4,9.1C21.2,42,18.9,39.2,18.9,33.2z M28,33
		c0-4.4-1.1-7.6-3.8-7.6c-2.2,0-3.9,2.9-3.9,7.6c0,4.7,1.4,7.8,3.8,7.8C26.9,40.8,28,37.3,28,33z"/>
	<path class="st2" d="M37.4,32.4c2.1,0.3,3.8,2,3.8,4.5c0,2.6-1.8,5.1-5.7,5.1c-1.7,0-3.2-0.6-4-1.1l0.5-1.1c0.6,0.4,2,1.1,3.5,1.1
		c3.2,0,4.1-2.3,4.1-3.9c0-2.8-2.4-4-4.8-4h-1.1v-1.1H35c1.8,0,4.1-1.1,4.1-3.4c0-1.6-0.9-3-3.2-3c-1.3,0-2.5,0.7-3.2,1.2l-0.5-1
		c0.8-0.6,2.3-1.3,3.9-1.3c3.1,0,4.4,2,4.4,4C40.6,30,39.4,31.6,37.4,32.4L37.4,32.4z"/>
	<path class="st2" d="M43.8,34H50v1.2h-6.2V34z"/>
	<path class="st2" d="M61.2,24.5v1.2H55l-0.8,5.4C54.6,31,55,31,55.7,31c3.2,0,5.7,1.9,5.7,5.2c0,3.4-2.5,5.7-5.7,5.7
		c-1.7,0-3.1-0.5-3.9-1.1l0.5-1.1c0.6,0.4,1.9,1,3.4,1c2.3,0,4.3-1.8,4.2-4.4c0-2.5-1.5-4.3-4.8-4.3c-1,0-1.7,0.1-2.3,0.2l1.1-7.8
		H61.2z"/>
	<path class="st2" d="M67.8,32.5c-2-0.9-2.8-2.4-2.8-3.9c0-2.6,2-4.4,4.7-4.4c3,0,4.5,2,4.5,4.1c0,1.5-0.8,3.1-2.9,4.1v0.1
		c2.3,0.9,3.5,2.5,3.5,4.6c0,2.9-2.4,4.9-5.3,4.9c-3.1,0-5.2-2-5.2-4.5C64.3,35.2,65.7,33.6,67.8,32.5L67.8,32.5z M73.3,37.3
		c0-2.3-1.6-3.4-4.1-4.2c-2.3,0.7-3.4,2.3-3.4,4.1c0,2.1,1.4,3.7,3.7,3.7C72,40.8,73.3,39.2,73.3,37.3z M66.3,28.5
		c0,2,1.4,3.1,3.5,3.6c1.7-0.6,2.9-1.8,2.9-3.6c0-1.5-0.9-3.1-3.1-3.1C67.3,25.3,66.3,27,66.3,28.5z"/>
	<path class="st2" d="M85.3,41.7h-1.4v-5h-7.7v-0.9L84,24.5h1.3v11.1h2.5v1.1h-2.5V41.7z M77.8,35.6h6.2v-6.8c0-0.9,0-1.7,0.1-2.5
		l-0.1,0c-0.5,1-0.9,1.6-1.3,2.3L77.8,35.6L77.8,35.6z"/>
	<path class="st2" d="M95.3,32.4c2.1,0.3,3.8,2,3.8,4.5c0,2.6-1.8,5.1-5.7,5.1c-1.7,0-3.2-0.6-4-1.1l0.5-1.1c0.6,0.4,2,1.1,3.5,1.1
		c3.2,0,4.1-2.3,4.1-3.9c0-2.8-2.4-4-4.8-4h-1.1v-1.1h1.1c1.8,0,4.1-1.1,4.1-3.4c0-1.6-0.9-3-3.2-3c-1.3,0-2.5,0.7-3.2,1.2l-0.5-1
		c0.8-0.6,2.3-1.3,3.9-1.3c3.1,0,4.4,2,4.4,4C98.5,30,97.3,31.6,95.3,32.4L95.3,32.4z"/>
	<path class="st2" d="M101.7,34h6.2v1.2h-6.2V34z"/>
	<path class="st2" d="M109.6,33.2c0-6.3,2.5-9,5.5-9s5.1,2.8,5.1,8.7c0,6.1-2.1,9.1-5.4,9.1C111.9,42,109.6,39.2,109.6,33.2z
		 M118.7,33c0-4.4-1.1-7.6-3.8-7.6c-2.2,0-3.9,2.9-3.9,7.6c0,4.7,1.4,7.8,3.8,7.8C117.6,40.8,118.7,37.3,118.7,33z"/>
	<path class="st2" d="M127.2,41.7V25.9h0l-2.8,1.7l-0.4-1.1l3.3-2h1.3v17.2H127.2z"/>
	<path class="st2" d="M144.2,24.5v1.2h-6.3l-0.8,5.4c0.4-0.1,0.8-0.1,1.5-0.1c3.2,0,5.7,1.9,5.7,5.2c0,3.4-2.5,5.7-5.7,5.7
		c-1.7,0-3.1-0.5-3.9-1.1l0.5-1.1c0.6,0.4,1.9,1,3.4,1c2.3,0,4.3-1.8,4.2-4.4c0-2.5-1.5-4.3-4.8-4.3c-1,0-1.7,0.1-2.3,0.2l1.1-7.8
		H144.2z"/>
	<path class="st2" d="M152.3,41.7V25.9h0l-2.8,1.7l-0.4-1.1l3.3-2h1.3v17.2H152.3z"/>
</g>
<g>
	<path class="st0" d="M46.3,51l0.5,0.3c0,0-0.1,0.1-0.1,0.1c-0.5,1-1.3,1.9-2.3,2.5c1.1,0.5,2.4,0.9,3.8,1c-0.1,0.2-0.3,0.5-0.4,0.7
		c-1.5-0.2-2.9-0.7-4.1-1.3c-1.2,0.6-2.5,1-4,1.3c-0.1-0.2-0.3-0.5-0.4-0.6c1.3-0.2,2.6-0.5,3.7-1.1c-0.8-0.6-1.5-1.2-2-2.1l0.5-0.2
		h-1V51h5.7L46.3,51z M40,49.8v1.5h-0.6v-2.1H41c-0.1-0.4-0.4-0.9-0.7-1.3l0.6-0.2c0.3,0.4,0.6,1,0.7,1.4l-0.4,0.1h4.2
		c0.3-0.5,0.8-1.3,1-1.8l0.8,0.3c0,0.1-0.1,0.1-0.2,0.1c-0.2,0.4-0.6,0.9-0.9,1.4H48v2.1h-0.7v-1.5H40z M47.4,46.9c0,0-0.1,0-0.1,0
		c0,0-0.1,0-0.1,0c-1.8,0.4-5,0.6-7.6,0.8c0-0.2-0.1-0.4-0.2-0.6c2.6-0.1,5.7-0.4,7.5-0.8L47.4,46.9z M41.6,51.6
		c0.5,0.8,1.2,1.4,2.1,1.9c0.8-0.5,1.6-1.1,2-1.9H41.6z M43.5,47.6c0.2,0.5,0.5,1.1,0.6,1.5l-0.6,0.2c-0.1-0.4-0.3-1-0.5-1.5
		L43.5,47.6z"/>
	<path class="st0" d="M50.5,49.8c-0.4,0.7-0.8,1.2-1.3,1.7c-0.1-0.2-0.2-0.5-0.4-0.6c1-1,2-2.8,2.6-4.6l0.8,0.3
		c0,0.1-0.1,0.1-0.2,0.1c-0.3,0.7-0.6,1.4-0.9,2.1l0.3,0.1c0,0.1-0.1,0.1-0.2,0.1v6.5h-0.7V49.8z M58.3,48.5v0.7h-1.4v5.4
		c0,0.5-0.1,0.7-0.5,0.8c-0.4,0.1-1,0.1-2,0.1c0-0.2-0.2-0.5-0.3-0.7c0.4,0,0.8,0,1.1,0c0.9,0,1,0,1-0.3v-5.4H52v-0.7h4.2v-2.1
		l0.9,0c0,0.1-0.1,0.1-0.2,0.1v1.9H58.3z M53.2,50.3c0.6,0.8,1.3,1.8,1.6,2.5l-0.6,0.3c-0.2-0.7-0.9-1.8-1.5-2.5L53.2,50.3z"/>
	<path class="st0" d="M62.2,47v6.6H60v0.8h-0.6V47H62.2z M61.6,47.6H60v2.3h1.6V47.6z M60,52.9h1.6v-2.4H60V52.9z M65.7,49.5h2.6
		v0.6h-5.9v-0.6H65v-1.4h-2.2v-0.6H65v-1.2l0.9,0.1c0,0.1-0.1,0.1-0.2,0.1v1h2.2v0.6h-2.2V49.5z M67.3,50.4c0,0.1-0.1,0.1-0.2,0.1
		v0.9h1.2V52h-1.2v2.8c0,0.4-0.1,0.6-0.4,0.7c-0.3,0.1-0.8,0.1-1.6,0.1c0-0.2-0.1-0.4-0.2-0.6c0.4,0,0.7,0,1,0c0.6,0,0.6,0,0.6-0.2
		V52h-4v-0.6h4v-1L67.3,50.4z M64.4,54.5c-0.2-0.5-0.8-1.3-1.3-1.8l0.5-0.3c0.5,0.5,1.1,1.3,1.3,1.8L64.4,54.5z"/>
	<path class="st0" d="M73.2,50.2h-3v5.4h-0.7v-8.9h3.6V50.2z M72.5,47.3h-2.3v0.9h2.3V47.3z M70.2,49.6h2.3v-1h-2.3V49.6z
		 M75.5,54.6h-3.1v0.5h-0.6V51h3.8V54.6z M74.9,51.5h-2.5v1h2.5V51.5z M72.4,54.1h2.5v-1h-2.5V54.1z M77.8,46.7v7.9
		c0,0.9-0.4,0.9-2.1,0.9c0-0.2-0.1-0.5-0.2-0.7c0.3,0,0.6,0,0.9,0c0.7,0,0.8,0,0.8-0.2v-4.5h-3.1v-3.5H77.8z M77.2,47.3h-2.4v0.9
		h2.4V47.3z M74.8,49.7h2.4v-1h-2.4V49.7z"/>
	<path class="st0" d="M81.3,54.7V48h0L80,48.7l-0.2-0.6l1.5-0.9h0.7v7.5H81.3z"/>
	<path class="st0" d="M84.6,51c0-2.6,1-3.9,2.4-3.9c1.4,0,2.3,1.3,2.3,3.8c0,2.6-0.9,3.9-2.4,3.9C85.5,54.8,84.6,53.5,84.6,51z
		 M88.4,50.9c0-1.9-0.4-3.2-1.5-3.2c-0.9,0-1.5,1.2-1.5,3.2c0,2,0.5,3.2,1.5,3.2C88,54.2,88.4,52.7,88.4,50.9z"/>
	<path class="st0" d="M90.3,50.1c0-0.4,0.2-0.6,0.6-0.6c0.4,0,0.6,0.3,0.6,0.6c0,0.4-0.2,0.6-0.6,0.6C90.5,50.8,90.3,50.5,90.3,50.1
		z M90.3,54.2c0-0.4,0.2-0.6,0.6-0.6c0.4,0,0.6,0.3,0.6,0.6c0,0.3-0.2,0.6-0.6,0.6C90.5,54.8,90.3,54.5,90.3,54.2z"/>
	<path class="st0" d="M92.3,51c0-2.6,1-3.9,2.4-3.9c1.4,0,2.3,1.3,2.3,3.8c0,2.6-0.9,3.9-2.4,3.9C93.2,54.8,92.3,53.5,92.3,51z
		 M96.1,50.9c0-1.9-0.5-3.2-1.5-3.2c-0.9,0-1.5,1.2-1.5,3.2c0,2,0.5,3.2,1.5,3.2C95.7,54.2,96.1,52.7,96.1,50.9z"/>
	<path class="st0" d="M97.8,51c0-2.6,1-3.9,2.4-3.9c1.4,0,2.3,1.3,2.3,3.8c0,2.6-0.9,3.9-2.4,3.9C98.7,54.8,97.8,53.5,97.8,51z
		 M101.6,50.9c0-1.9-0.5-3.2-1.5-3.2c-0.9,0-1.5,1.2-1.5,3.2c0,2,0.5,3.2,1.5,3.2C101.2,54.2,101.6,52.7,101.6,50.9z"/>
	<path class="st0" d="M109,50.7c0.1,1.2-0.5,1.6-1.2,1.6c-0.4,0-0.8-0.1-1.6-0.5c-0.5-0.3-1-0.5-1.4-0.5s-0.7,0.3-0.7,1h-0.6
		c0-1,0.5-1.6,1.3-1.6c0.4,0,0.8,0.2,1.6,0.5c0.6,0.3,1,0.5,1.4,0.5c0.4,0,0.6-0.4,0.6-0.9H109z"/>
	<path class="st0" d="M112.2,54.7V48h0l-1.2,0.7l-0.2-0.6l1.5-0.9h0.7v7.5H112.2z"/>
	<path class="st0" d="M119.4,51.2c-0.4,0.5-1,0.8-1.7,0.8c-1.3,0-2.1-1-2.1-2.3c0-1.4,0.9-2.6,2.4-2.6c1.4,0,2.3,1.2,2.3,3.1
		c0,2.5-1.3,4.2-3.2,4.5c-0.3,0.1-0.7,0.1-0.9,0.1v-0.7c0.2,0,0.5,0,0.8,0C118.2,53.9,119.2,52.9,119.4,51.2L119.4,51.2z
		 M116.4,49.7c0,1,0.6,1.7,1.4,1.7c0.8,0,1.5-0.6,1.5-1.2c0-1.4-0.5-2.4-1.5-2.4C117,47.8,116.4,48.6,116.4,49.7z"/>
	<path class="st0" d="M121.2,50.1c0-0.4,0.2-0.6,0.6-0.6c0.4,0,0.6,0.3,0.6,0.6c0,0.4-0.2,0.6-0.6,0.6
		C121.5,50.8,121.2,50.5,121.2,50.1z M121.2,54.2c0-0.4,0.2-0.6,0.6-0.6c0.4,0,0.6,0.3,0.6,0.6c0,0.3-0.2,0.6-0.6,0.6
		C121.5,54.8,121.2,54.5,121.2,54.2z"/>
	<path class="st0" d="M123.2,51c0-2.6,1-3.9,2.4-3.9c1.4,0,2.3,1.3,2.3,3.8c0,2.6-0.9,3.9-2.4,3.9C124.2,54.8,123.2,53.5,123.2,51z
		 M127.1,50.9c0-1.9-0.4-3.2-1.5-3.2c-0.9,0-1.5,1.2-1.5,3.2c0,2,0.5,3.2,1.5,3.2C126.7,54.2,127.1,52.7,127.1,50.9z"/>
	<path class="st0" d="M128.7,51c0-2.6,1-3.9,2.4-3.9c1.4,0,2.3,1.3,2.3,3.8c0,2.6-0.9,3.9-2.4,3.9C129.7,54.8,128.7,53.5,128.7,51z
		 M132.6,50.9c0-1.9-0.4-3.2-1.5-3.2c-0.9,0-1.5,1.2-1.5,3.2c0,2,0.5,3.2,1.5,3.2C132.2,54.2,132.6,52.7,132.6,50.9z"/>
</g>
</svg>
