<?xml version="1.0" encoding="utf-8"?>
<!-- Generator: Adobe Illustrator 16.0.0, SVG Export Plug-In . SVG Version: 6.00 Build 0)  -->
<!DOCTYPE svg PUBLIC "-//W3C//DTD SVG 1.1//EN" "http://www.w3.org/Graphics/SVG/1.1/DTD/svg11.dtd">
<svg version="1.1" id="レイヤー_1" xmlns="http://www.w3.org/2000/svg" xmlns:xlink="http://www.w3.org/1999/xlink" x="0px"
	 y="0px" width="128.423px" height="29.048px" viewBox="0 0 128.423 29.048" enable-background="new 0 0 128.423 29.048"
	 xml:space="preserve">
<g>
	<defs>
		<rect id="SVGID_1_" width="128.423" height="29.048"/>
	</defs>
	<clipPath id="SVGID_2_">
		<use xlink:href="#SVGID_1_"  overflow="visible"/>
	</clipPath>
	
		<linearGradient id="SVGID_3_" gradientUnits="userSpaceOnUse" x1="-316.4072" y1="4716.1367" x2="-315.4072" y2="4716.1367" gradientTransform="matrix(0 -29.0474 -29.0474 0 137055.7031 -9161.7764)">
		<stop  offset="0" style="stop-color:#FFBBC7"/>
		<stop  offset="1" style="stop-color:#E16F80"/>
	</linearGradient>
	<rect clip-path="url(#SVGID_2_)" fill="url(#SVGID_3_)" width="128.423" height="29.048"/>
</g>
<g>
	<defs>
		<path id="SVGID_4_" d="M2.215,2.216h123.992v24.618H2.215V2.216z M0,29.048h128.423V0H0V29.048z"/>
	</defs>
	<clipPath id="SVGID_5_">
		<use xlink:href="#SVGID_4_"  overflow="visible"/>
	</clipPath>
	
		<linearGradient id="SVGID_6_" gradientUnits="userSpaceOnUse" x1="-316.415" y1="4716.1201" x2="-315.415" y2="4716.1201" gradientTransform="matrix(0 -29.0474 -29.0474 0 137055.2031 -9161.9951)">
		<stop  offset="0" style="stop-color:#E16F80"/>
		<stop  offset="1" style="stop-color:#FFFFFF"/>
	</linearGradient>
	<rect clip-path="url(#SVGID_5_)" fill="url(#SVGID_6_)" width="128.423" height="29.048"/>
</g>
<g>
	<path fill="#FFFFFF" d="M54.325,13.779v4.51c0.98,1.541,2.899,1.541,5.099,1.541c1.597,0,3.558-0.056,4.819-0.14
		c-0.154,0.322-0.364,0.952-0.435,1.358c-0.966,0.042-2.381,0.07-3.698,0.07c-3.18,0-4.987,0-6.374-1.681
		c-0.658,0.588-1.345,1.162-1.905,1.61c0,0.154-0.042,0.21-0.168,0.267l-0.7-1.472c0.63-0.405,1.387-0.924,2.059-1.471v-3.361
		h-1.835v-1.232H54.325z M52.266,8.568c0.91,0.603,1.961,1.499,2.451,2.185l-1.05,0.869c-0.448-0.673-1.485-1.625-2.381-2.256
		L52.266,8.568z M63.99,14.97h-3.558c0.602,1.568,1.793,2.661,3.6,3.138c-0.294,0.266-0.672,0.784-0.854,1.12
		c-1.737-0.588-2.885-1.694-3.6-3.306c-0.519,1.177-1.555,2.354-3.614,3.264c-0.168-0.28-0.574-0.729-0.882-0.966
		c2.311-0.911,3.152-2.115,3.446-3.25h-3.502v-1.19h3.656v-1.751h-3.18v-1.191h1.625c-0.196-0.616-0.672-1.456-1.148-2.101
		l1.121-0.477c0.546,0.673,1.093,1.597,1.275,2.228l-0.799,0.35h3.264l-0.63-0.279c0.462-0.631,1.036-1.625,1.358-2.34l1.541,0.589
		c-0.056,0.098-0.182,0.14-0.364,0.14c-0.322,0.546-0.869,1.331-1.331,1.891h2.129v1.191h-3.53v1.751h3.978V14.97z"/>
	<path fill="#FFFFFF" d="M66.868,13.779c-0.463,0.7-0.953,1.345-1.443,1.904c-0.126-0.322-0.462-0.994-0.645-1.316
		c1.275-1.373,2.563-3.726,3.349-6.065l1.513,0.519c-0.057,0.112-0.168,0.154-0.364,0.154c-0.351,0.938-0.771,1.877-1.232,2.773
		l0.434,0.126c-0.014,0.112-0.112,0.182-0.308,0.21v9.287h-1.303V13.779z M69.025,10.837h9.16v1.093h-9.16V10.837z M70.006,21.357
		v-4.539h7.298v4.482h-1.331v-0.574H71.28v0.631H70.006z M77.149,12.841v1.064h-6.976v-1.064H77.149z M70.174,15.895v-1.065h6.934
		v1.065H70.174z M76.897,8.849v1.064H70.37V8.849H76.897z M75.973,17.869H71.28v1.779h4.692V17.869z"/>
</g>
</svg>
