<?xml version="1.0" encoding="utf-8"?>
<!-- Generator: Adobe Illustrator 27.3.1, SVG Export Plug-In . SVG Version: 6.00 Build 0)  -->
<svg version="1.1" id="レイヤー_1" xmlns="http://www.w3.org/2000/svg" xmlns:xlink="http://www.w3.org/1999/xlink" x="0px"
	 y="0px" width="122.5px" height="49.9px" viewBox="0 0 122.5 49.9" style="enable-background:new 0 0 122.5 49.9;"
	 xml:space="preserve">
<style type="text/css">
	.st0{fill:#89C13F;}
	.st1{fill:#F0FFE5;}
	.st2{fill:#4D4D4D;}
	.st3{enable-background:new    ;}
</style>
<ellipse class="st0" cx="59.8" cy="26.5" rx="59.8" ry="23.5"/>
<path class="st0" d="M5.9,49.1C10.6,45,13,39,10.2,37.9l19.1,6.7c-3.3-1-9.8,6-23.1,5.2C5.8,49.9,5.6,49.4,5.9,49.1z"/>
<ellipse class="st1" cx="62.8" cy="23.5" rx="59.8" ry="23.5"/>
<path class="st1" d="M9.9,46.1C14.6,42,17,36,14.2,34.9l19.1,6.7c-3.3-1-9.8,6-23.1,5.2C9.8,46.9,9.6,46.4,9.9,46.1z"/>
<g>
	<g>
		<path class="st2" d="M26.5,17.6c0,0.2-0.2,0.3-0.4,0.3c-0.1,1.6-0.3,5.3-0.3,7.4s1,3.1,2.8,3.1c1.7,0,3.4-0.9,5-2.7
			c0.1,0.2,0.5,0.7,0.6,0.8c-1.6,1.9-3.6,2.8-5.7,2.8c-2.5,0-3.9-1.5-3.9-4.1c0-1.8,0.1-6.1,0.2-7.8L26.5,17.6z"/>
		<path class="st2" d="M35,22.5c0.3-0.1,0.8-0.2,1.2-0.3c1.7-0.5,3.8-1,5.1-1c1.9,0,3.6,1,3.6,3.3c0,3.1-3.1,4.2-6.8,4.5
			c-0.1-0.2-0.2-0.7-0.3-0.9c3.3-0.2,6.1-1.2,6.1-3.6c0-1.8-1.2-2.5-2.7-2.5c-1.1,0-2.9,0.4-4.7,1c-0.3,0.1-0.7,0.2-0.9,0.3
			c0,0.1-0.1,0.2-0.2,0.2L35,22.5z"/>
		<path class="st2" d="M51.6,17.6c0,0.2-0.2,0.2-0.5,0.3c-0.2,0.8-0.4,2.1-0.6,3c0.6-0.1,1.2-0.1,1.6-0.1c2.1,0,2.9,1.4,2.9,3.5
			c0,1-0.2,2.3-0.5,3.1c-0.4,1.4-1.3,2.1-2.5,2.1c-0.6,0-1.3-0.2-2.5-1.2c0.2-0.3,0.3-0.6,0.4-0.9c1.1,0.9,1.7,1.1,2.1,1.1
			c0.8,0,1.3-0.5,1.6-1.4s0.4-2.2,0.4-2.9c0-1.6-0.5-2.5-1.9-2.5c-0.4,0-1,0.1-1.7,0.1c-0.7,2.9-1.5,5.3-2.9,7.6L46.6,29
			c1.4-2.2,2.1-4.3,2.8-7c-0.7,0.1-1.7,0.2-2.5,0.3l-0.1-1c0.7-0.1,1.8-0.2,2.8-0.3c0.2-1,0.4-2.3,0.6-3.5L51.6,17.6z M58.1,24.4
			c-0.4-2-1.8-3.8-3.2-4.8l0.8-0.6c1.5,1.1,3,3,3.4,5L58.1,24.4z"/>
		<path class="st2" d="M61.9,25.2c-0.3-0.8-0.4-1.8-0.4-2.6c0-1.3,0.1-2.8,0.5-4.6l1.4,0.2c-0.1,0.2-0.2,0.2-0.4,0.2
			c-0.3,1.2-0.5,2.9-0.5,4.1c0,0.3,0,0.6,0,0.8c0.3-0.7,0.8-1.6,1.1-2.2c0.1,0.2,0.4,0.5,0.5,0.6c-1,1.9-1.3,2.4-1.3,3
			c0,0.1,0,0.2,0,0.4L61.9,25.2z M69.4,17.6c0,0.2-0.1,0.2-0.4,0.3c0.1,1.2,0.2,3.2,0.2,4.9c0,2.7-1,5.1-5.2,6.9
			c-0.2-0.2-0.5-0.6-0.7-0.8c3.8-1.5,4.8-3.8,4.8-6.1c0-1.7-0.2-3.8-0.3-5.3L69.4,17.6z"/>
		<path class="st2" d="M73.7,21.9c-0.5,0.9-1.1,1.7-1.7,2.3c-0.1-0.2-0.3-0.7-0.5-0.9c1.3-1.5,2.7-3.9,3.5-6.3l1.1,0.4
			c-0.1,0.1-0.2,0.1-0.3,0.1c-0.4,1-0.8,2-1.3,2.9l0.4,0.1c0,0.1-0.1,0.2-0.3,0.2V30h-0.9L73.7,21.9L73.7,21.9z M84.7,21.5h-3.6
			c0.9,2.3,2.5,4.7,3.9,5.9c-0.2,0.2-0.5,0.5-0.7,0.8c-1.4-1.3-2.9-3.6-3.8-5.9V30h-0.9v-7.6c-1,2.3-2.4,4.5-3.9,5.8
			c-0.2-0.2-0.5-0.6-0.7-0.7c1.6-1.2,3.1-3.6,4-5.9h-3.5v-0.9h4.1v-3.5l1.2,0.1c0,0.1-0.1,0.2-0.3,0.2v3.2h4.2L84.7,21.5L84.7,21.5z
			"/>
		<path class="st2" d="M89.6,18v9.3H87v1.1h-0.8V18H89.6z M88.8,18.8H87v3.3h1.8V18.8z M87,26.4h1.8V23H87V26.4z M94.2,27.2h-2.7V30
			h-0.9V17.6h3.6v4.1h-2.7v1.8H94v0.8h-2.5v2h2.7C94.1,26.4,94.1,27.2,94.2,27.2z M93.3,18.4h-1.9v2.5h1.9V18.4z M98,23.2l0.6,0.2
			c0,0.1-0.1,0.1-0.1,0.2c-0.3,1.6-0.9,2.9-1.6,3.9c0.6,0.8,1.3,1.4,2.1,1.8c-0.2,0.2-0.5,0.5-0.6,0.7c-0.8-0.4-1.5-1.1-2-1.8
			c-0.7,0.8-1.6,1.4-2.5,1.9c-0.1-0.2-0.3-0.5-0.5-0.7c1-0.4,1.8-1,2.5-1.9c-0.5-0.9-0.9-2-1.2-3.2l0.7-0.2c0.2,0.9,0.6,1.8,1,2.6
			c0.5-0.8,0.9-1.7,1.1-2.7h-3.1v-0.8H98L98,23.2z M98.3,17.6v4.1h-3.6v-0.8h2.7v-2.5h-2.7v-0.8L98.3,17.6L98.3,17.6z"/>
		<path class="st2" d="M102.5,28.1c0-0.5,0.4-0.9,0.9-0.9s0.9,0.4,0.9,0.9s-0.4,0.9-0.9,0.9C102.8,29,102.5,28.5,102.5,28.1z
			 M102.9,25.8l-0.2-7.7h1.3l-0.2,7.7H102.9z"/>
	</g>
</g>
<rect x="22.9" y="15.9" class="st1" width="83.7" height="16.2"/>
<g class="st3">
	<path class="st2" d="M32,28.6h-3.8v0.7h-0.7v-4.4c-0.2,0.2-0.3,0.5-0.5,0.7l-0.3-0.3c-0.1,1.4-0.4,2.9-0.9,4
		c-0.2-0.2-0.5-0.4-0.7-0.5c0.8-1.8,0.9-4.4,0.9-6.2v-3.7h5.7v2.9h-4.9v0.8c0,0.7,0,1.4-0.1,2.2c0.5-0.7,1-1.8,1.3-2.9l0.9,0.3
		c0,0.1-0.1,0.1-0.3,0.1c-0.1,0.3-0.2,0.6-0.3,0.9h1.1c0.2-0.4,0.3-0.9,0.5-1.2l0.9,0.3c0,0.1-0.1,0.1-0.3,0.1
		c-0.1,0.2-0.2,0.5-0.4,0.8h1.7v0.7h-1.7v0.9h1.6v0.6h-1.6v0.9h1.6v0.6h-1.6v1H32V28.6z M31.8,17.1v0.8h-6.4v-0.8H31.8z M30.8,19.6
		h-4v1.5h4V19.6z M29.5,24.8v-0.9h-1.3v0.9H29.5z M29.5,26.3v-0.9h-1.3v0.9H29.5z M29.5,27.9v-1h-1.3v1H29.5z M34.9,27.6
		c0,0.1-0.1,0.1-0.3,0.1c-0.5,0.6-1.5,1.3-2.4,1.8c-0.1-0.2-0.4-0.4-0.6-0.6c0.9-0.4,1.9-1.1,2.3-1.7L34.9,27.6z M32.9,19.4h1.7
		c0.1-0.4,0.2-1,0.2-1.4h-2.4v-0.8h5.9v0.8h-2.6c-0.1,0.4-0.2,1-0.3,1.4h2.5v7.4h-5V19.4z M37,21.6v-1.5h-3.4v1.5H37z M37,23.8v-1.5
		h-3.4v1.5H37z M37,26v-1.5h-3.4V26H37z M37.7,29.5c-0.4-0.5-1.2-1.3-1.9-1.8l0.7-0.4c0.7,0.5,1.5,1.3,1.9,1.8L37.7,29.5z"/>
	<path class="st2" d="M45,22h-4.1v7.5H40V17H45V22z M44.1,17.8h-3.2v1.3h3.2V17.8z M40.9,21.2h3.2v-1.4h-3.2V21.2z M48.3,27.4h-4.4
		v0.9H43v-5h5.3V27.4z M47.4,24.1h-3.5v2.5h3.5V24.1z M51.6,17v11.1c0,0.7-0.2,1-0.6,1.1c-0.5,0.2-1.3,0.2-2.5,0.2
		c0-0.3-0.2-0.7-0.3-1c0.5,0,1,0,1.3,0c1.1,0,1.2,0,1.2-0.4V22h-4.3V17H51.6z M50.6,17.8h-3.3v1.3h3.3V17.8z M47.3,21.2h3.3v-1.4
		h-3.3V21.2z"/>
	<path class="st2" d="M63.1,21c0,0.1-0.1,0.2-0.3,0.2v1.9h3.3v0.9h-3.3v5.4h-1v-5.4h-4.1c-0.2,1.9-0.9,3.9-3.6,5.4
		c-0.1-0.2-0.5-0.5-0.7-0.7c2.5-1.3,3.2-3.1,3.4-4.7h-3.4v-0.9h3.4v-2.1l1.2,0.1c0,0.1-0.1,0.2-0.3,0.2v1.8h4.1V21L63.1,21z
		 M65.3,21.6c-0.3-0.3-0.6-0.7-1.1-1.1c-3.6,0.1-7.5,0.2-9.9,0.3c0,0.1-0.1,0.2-0.2,0.2l-0.4-1.1c0.6,0,1.4,0,2.2,0
		c0.7-1,1.4-2.4,1.9-3.4l1.2,0.3c-0.1,0.1-0.2,0.2-0.3,0.2c-0.4,0.8-1.1,2-1.7,2.9c1.9,0,4.1-0.1,6.3-0.1c-0.7-0.6-1.6-1.3-2.3-1.8
		l0.7-0.5c1.5,1.1,3.4,2.6,4.3,3.7L65.3,21.6z"/>
	<path class="st2" d="M71.8,18.8v0.8h-4.6v-0.8H71.8z M71.4,24.5v4.1h-2.8v0.7h-0.8v-4.8H71.4z M67.8,21.5v-0.8h3.6v0.8H67.8z
		 M67.8,23.4v-0.8h3.6v0.8H67.8z M71.4,16.9v0.8h-3.5v-0.8H71.4z M70.6,25.3h-2v2.5h2V25.3z M73,24.6v-3.5c-0.3,0.4-0.6,0.7-1,1
		c-0.1-0.2-0.4-0.4-0.6-0.6c0.8-0.7,1.6-1.8,2.1-2.9l0.5,0.2v-0.7H72v-0.7h2.1v-0.9l1.1,0.1c0,0.1-0.1,0.2-0.3,0.2v0.7h2.2v-0.9
		l1.1,0.1c0,0.1-0.1,0.2-0.3,0.2v0.7h2.1v0.7h-2.1v0.8h-0.9v-0.8H75v0.8h-0.6l0.2,0.1c0,0.1-0.1,0.1-0.3,0.1
		c-0.1,0.3-0.3,0.5-0.4,0.8h1.8c0.2-0.4,0.4-0.9,0.5-1.2l1.1,0.3c0,0.1-0.1,0.1-0.3,0.1c-0.1,0.2-0.3,0.5-0.4,0.7h3.2v0.7h-3v0.7
		h2.7v0.6h-2.7v0.7h2.7v0.6h-2.7v0.8h3.4v0.7H73z M72.3,25.2h6.6c0.1,0,0.1,0,0.2,0c0.1,0,0.1,0.1,0.6,0.3c0,0.1-0.1,0.1-0.1,0.1
		c-0.5,0.9-1.4,1.7-2.4,2.2c1,0.4,2.1,0.7,3.3,0.8c-0.2,0.2-0.4,0.5-0.5,0.8c-1.3-0.2-2.5-0.6-3.6-1.1c-1.3,0.6-2.7,0.9-4.2,1.1
		c-0.1-0.2-0.3-0.5-0.4-0.7c1.3-0.2,2.6-0.4,3.8-0.9c-0.8-0.5-1.4-1-1.9-1.7L74,26h-1.7V25.2z M75.9,21.2v-0.7h-2v0.7H75.9z
		 M75.9,22.5v-0.7h-2v0.7H75.9z M75.9,23.9v-0.8h-2v0.8H75.9z M74.3,26c0.5,0.6,1.1,1.1,1.9,1.5c0.8-0.4,1.5-0.9,2-1.5H74.3z"/>
	<path class="st2" d="M94.1,21.9h-5.9v5.9h5.1v0.9H82.2v-0.9h5v-5.9h-5.8V21h5.8v-4.5l1.3,0.1c0,0.1-0.1,0.2-0.3,0.2V21h5.9V21.9z"
		/>
	<path class="st2" d="M96.9,27.5c0-0.5,0.4-0.9,0.9-0.9c0.5,0,0.9,0.4,0.9,0.9c0,0.5-0.4,0.9-0.9,0.9C97.3,28.4,96.9,28,96.9,27.5z
		 M97.3,25.2l-0.2-7.7h1.3l-0.2,7.7H97.3z"/>
</g>
</svg>
