<?xml version="1.0" encoding="utf-8"?>
<!-- Generator: Adobe Illustrator 16.0.0, SVG Export Plug-In . SVG Version: 6.00 Build 0)  -->
<!DOCTYPE svg PUBLIC "-//W3C//DTD SVG 1.1//EN" "http://www.w3.org/Graphics/SVG/1.1/DTD/svg11.dtd">
<svg version="1.1" id="レイヤー_1" xmlns="http://www.w3.org/2000/svg" xmlns:xlink="http://www.w3.org/1999/xlink" x="0px"
	 y="0px" width="122.492px" height="49.936px" viewBox="0 0 122.492 49.936" enable-background="new 0 0 122.492 49.936"
	 xml:space="preserve">
<ellipse fill="#89C13F" cx="59.769" cy="26.469" rx="59.769" ry="23.467"/>
<path fill="#89C13F" d="M5.867,49.14c4.703-4.122,7.125-10.08,4.325-11.211l19.055,6.725c-3.271-1.032-9.751,6.029-23.112,5.217
	C5.802,49.856,5.623,49.367,5.867,49.14z"/>
<ellipse fill="#F0FFE5" cx="62.849" cy="23.469" rx="59.769" ry="23.467"/>
<path fill="#F0FFE5" d="M9.867,46.14c4.703-4.122,7.125-10.08,4.325-11.211l19.055,6.725c-3.271-1.032-9.751,6.029-23.112,5.217
	C9.802,46.856,9.623,46.367,9.867,46.14z"/>
<g>
	<g>
		<path fill="#4D4D4D" d="M26.515,17.578c-0.028,0.168-0.154,0.266-0.435,0.308c-0.112,1.625-0.252,5.337-0.252,7.41
			c0,2.087,1.036,3.096,2.802,3.096c1.709,0,3.445-0.855,5.042-2.662c0.141,0.225,0.463,0.672,0.631,0.826
			c-1.639,1.863-3.628,2.844-5.688,2.844c-2.549,0-3.852-1.471-3.852-4.118c0-1.765,0.126-6.107,0.224-7.83L26.515,17.578z"/>
		<path fill="#4D4D4D" d="M35.048,22.508c0.253-0.056,0.771-0.196,1.247-0.336c1.737-0.519,3.769-0.995,5.07-0.995
			c1.892,0,3.586,1.009,3.586,3.292c0,3.082-3.053,4.215-6.793,4.51c-0.057-0.21-0.196-0.687-0.28-0.854
			c3.292-0.238,6.079-1.19,6.079-3.6c0-1.751-1.246-2.507-2.731-2.493c-1.12,0.014-2.928,0.42-4.692,1.022
			c-0.322,0.112-0.673,0.238-0.896,0.308c-0.028,0.112-0.126,0.21-0.225,0.238L35.048,22.508z"/>
		<path fill="#4D4D4D" d="M51.641,17.648c-0.027,0.168-0.195,0.238-0.462,0.252c-0.154,0.785-0.406,2.143-0.574,2.984
			c0.63-0.07,1.205-0.126,1.555-0.126c2.129-0.028,2.857,1.387,2.857,3.488c0,1.05-0.196,2.297-0.476,3.138
			c-0.435,1.429-1.331,2.114-2.494,2.114c-0.574,0-1.33-0.237-2.535-1.218c0.154-0.253,0.267-0.561,0.378-0.854
			c1.121,0.868,1.709,1.064,2.144,1.064c0.799,0,1.274-0.504,1.555-1.4c0.294-0.869,0.448-2.158,0.448-2.872
			c-0.014-1.597-0.532-2.549-1.933-2.535c-0.421,0-0.995,0.056-1.709,0.14c-0.7,2.857-1.527,5.308-2.872,7.564l-0.924-0.448
			c1.358-2.171,2.129-4.342,2.787-7.004c-0.714,0.084-1.737,0.21-2.493,0.336l-0.084-0.98c0.687-0.084,1.835-0.21,2.773-0.322
			c0.21-1.022,0.435-2.283,0.603-3.516L51.641,17.648z M58.127,24.385c-0.448-2.045-1.779-3.782-3.152-4.791l0.757-0.588
			c1.484,1.051,2.955,2.984,3.403,4.987L58.127,24.385z"/>
		<path fill="#4D4D4D" d="M61.874,25.24c-0.267-0.756-0.393-1.849-0.406-2.633c0-1.316,0.14-2.843,0.476-4.623l1.401,0.238
			c-0.057,0.182-0.225,0.224-0.406,0.238c-0.28,1.163-0.477,2.941-0.477,4.076c0,0.308,0.014,0.56,0.042,0.756
			c0.28-0.687,0.799-1.639,1.093-2.171c0.126,0.182,0.406,0.477,0.546,0.617c-1.036,1.863-1.345,2.395-1.345,2.983
			c0,0.112,0.015,0.224,0.042,0.35L61.874,25.24z M69.382,17.62c-0.015,0.168-0.126,0.238-0.364,0.308
			c0.098,1.219,0.238,3.25,0.238,4.861c-0.015,2.704-0.995,5.141-5.211,6.892c-0.154-0.224-0.49-0.603-0.7-0.813
			c3.823-1.456,4.847-3.768,4.847-6.065c0-1.723-0.169-3.754-0.322-5.253L69.382,17.62z"/>
		<path fill="#4D4D4D" d="M73.703,21.92c-0.532,0.883-1.121,1.667-1.709,2.339c-0.099-0.224-0.336-0.658-0.49-0.882
			c1.345-1.457,2.689-3.88,3.502-6.303l1.12,0.378c-0.056,0.098-0.154,0.14-0.322,0.126c-0.364,0.98-0.798,1.961-1.288,2.9
			l0.378,0.098c-0.028,0.084-0.098,0.154-0.28,0.168v9.287h-0.91V21.92z M84.699,21.542h-3.601c0.925,2.311,2.451,4.651,3.95,5.855
			c-0.224,0.169-0.546,0.505-0.714,0.757c-1.429-1.303-2.872-3.6-3.839-5.925v7.774h-0.938v-7.578
			c-0.98,2.339-2.409,4.511-3.865,5.785c-0.169-0.224-0.477-0.56-0.687-0.729c1.555-1.204,3.096-3.572,4.006-5.939h-3.544v-0.911
			h4.09v-3.474l1.205,0.084c-0.014,0.098-0.084,0.168-0.267,0.196v3.194h4.203V21.542z"/>
		<path fill="#4D4D4D" d="M89.584,17.97v9.314h-2.549v1.135H86.25V17.97H89.584z M88.786,18.824h-1.751v3.306h1.751V18.824z
			 M87.035,26.431h1.751v-3.46h-1.751V26.431z M94.15,27.173h-2.731v2.76h-0.882V17.606h3.628v4.132h-2.746v1.821h2.493v0.813
			h-2.493v1.989h2.731V27.173z M93.296,18.418h-1.877v2.507h1.877V18.418z M97.975,23.153l0.561,0.196
			c-0.014,0.07-0.057,0.112-0.084,0.168c-0.309,1.597-0.854,2.899-1.597,3.936c0.574,0.799,1.274,1.43,2.087,1.821
			c-0.196,0.169-0.463,0.49-0.589,0.714c-0.798-0.42-1.471-1.064-2.045-1.848c-0.714,0.813-1.555,1.414-2.479,1.862
			c-0.111-0.224-0.35-0.546-0.546-0.729c0.952-0.392,1.821-1.036,2.535-1.905c-0.532-0.938-0.938-2.031-1.219-3.193l0.743-0.168
			c0.224,0.938,0.56,1.835,0.994,2.633c0.477-0.756,0.854-1.652,1.106-2.661h-3.138v-0.799h3.516L97.975,23.153z M98.311,17.606
			v4.132h-3.586v-0.813h2.704v-2.507h-2.704v-0.813H98.311z"/>
		<path fill="#4D4D4D" d="M102.484,28.056c0-0.505,0.393-0.911,0.869-0.911c0.476,0,0.868,0.406,0.868,0.911
			c0,0.504-0.393,0.91-0.868,0.91C102.849,28.966,102.484,28.532,102.484,28.056z M102.905,25.8l-0.211-7.676h1.345l-0.21,7.676
			H102.905z"/>
	</g>
</g>
</svg>
