<?xml version="1.0" encoding="utf-8"?>
<!-- Generator: Adobe Illustrator 24.0.1, SVG Export Plug-In . SVG Version: 6.00 Build 0)  -->
<svg version="1.1" id="レイヤー_1" xmlns="http://www.w3.org/2000/svg" xmlns:xlink="http://www.w3.org/1999/xlink" x="0px"
	 y="0px" viewBox="0 0 122.5 49.9" style="enable-background:new 0 0 122.5 49.9;" xml:space="preserve">
<style type="text/css">
	.st0{fill:#89C13F;}
	.st1{fill:#F0FFE5;}
	.st2{fill:#4D4D4D;}
</style>
<ellipse class="st0" cx="59.8" cy="26.5" rx="59.8" ry="23.5"/>
<path class="st0" d="M5.9,49.1c4.7-4.1,7.1-10.1,4.3-11.2l19.1,6.7c-3.3-1-9.8,6-23.1,5.2C5.8,49.9,5.6,49.4,5.9,49.1z"/>
<ellipse class="st1" cx="62.8" cy="23.5" rx="59.8" ry="23.5"/>
<path class="st1" d="M9.9,46.1c4.7-4.1,7.1-10.1,4.3-11.2l19.1,6.7c-3.3-1-9.8,6-23.1,5.2C9.8,46.9,9.6,46.4,9.9,46.1z"/>
<g>
	<g>
		<path class="st2" d="M61.9,19.5c-0.1,0.1-0.2,0.2-0.4,0.2c-0.5,4.4-2,8.2-4.3,8.2c-1.2,0-2.2-1.2-2.2-3.4c0-3.4,2.6-6.2,6.3-6.2
			c4,0,5.8,2.6,5.8,5.3c0,3.3-1.9,4.9-5.3,5.7c-0.1-0.2-0.4-0.6-0.6-0.9c3.2-0.6,4.9-2.2,4.9-4.8c0-2.3-1.5-4.4-4.8-4.4
			c-0.1,0-0.3,0-0.4,0L61.9,19.5z M60.6,19.3C57.8,19.7,56,22,56,24.5c0,1.5,0.6,2.4,1.3,2.4C59,26.9,60.2,23.2,60.6,19.3z"/>
		<path class="st2" d="M31.4,28.6c1.1,0.3,2.2,0.5,3.1,0.7l-0.4,1c-1.3-0.4-2.7-0.8-3.8-1.2c-0.2-0.1-0.4-0.2-0.6-0.2
			c-2.4-0.1-4.5-1.9-4.5-5.4s2-5.6,4.7-5.6s4.5,2.2,4.5,5.4C34.4,26.2,33.2,27.9,31.4,28.6L31.4,28.6L31.4,28.6z M26.5,23.5
			c0,2.3,1.2,4.5,3.3,4.5c2.2,0,3.4-2.1,3.4-4.6c0-2.2-1-4.5-3.3-4.5C27.5,18.9,26.5,21.3,26.5,23.5z"/>
		<path class="st2" d="M44.7,23.3c0,3.8-2.1,5.6-4.6,5.6c-2.6,0-4.5-2.1-4.5-5.4c0-3.5,2-5.6,4.7-5.6C42.9,17.9,44.7,20.1,44.7,23.3
			z M36.8,23.5c0,2.3,1.2,4.5,3.3,4.5c2.2,0,3.4-2.1,3.4-4.6c0-2.1-1.1-4.5-3.3-4.5C37.8,18.9,36.8,21.2,36.8,23.5z"/>
		<path class="st2" d="M52.9,28.8h-5.6V18.1h1.2v9.7h4.4V28.8z"/>
		<path class="st2" d="M80.6,19.4v9.2c0,0.7-0.2,1-0.6,1.1C79.4,30,78.5,30,77.2,30c-0.1-0.3-0.2-0.7-0.4-1c0.5,0,1.1,0,1.5,0
			s0.7,0,0.9,0c0.3,0,0.4-0.1,0.4-0.4v-8.3h-9.5V30h-0.9V19.4H73c0.4-0.8,0.8-1.8,1-2.5l1.3,0.3c0,0.1-0.1,0.2-0.3,0.2
			c-0.2,0.6-0.6,1.4-0.9,2.1h6.5V19.4z M77.6,27h-4.7v1H72v-5.7h5.6V27L77.6,27z M76.7,23.2h-3.8v3h3.8V23.2z"/>
		<path class="st2" d="M88.4,28.3h6.4v1H82.1v-1h5.4V17.2l1.3,0.1c0,0.1-0.1,0.2-0.3,0.2v4.1h5.4v1h-5.4L88.4,28.3L88.4,28.3z"/>
		<path class="st2" d="M98.7,28c0-0.5,0.4-0.9,0.9-0.9s0.9,0.4,0.9,0.9s-0.4,0.9-0.9,0.9S98.7,28.5,98.7,28z M99.1,25.8l-0.2-7.7
			h1.3l-0.2,7.7H99.1z"/>
	</g>
</g>
</svg>
