<svg xmlns="http://www.w3.org/2000/svg" viewBox="0 0 26.279 27.048"><defs><style>.a{fill:none;stroke:#fad6dc;stroke-miterlimit:10;stroke-width:2.33px;}.b{fill:#4fd1fb;}</style></defs><title>アセット 3</title><path class="a" d="M5.564,4.522H18.13a4.4,4.4,0,0,1,4.4,4.4V21.484a4.4,4.4,0,0,1-4.4,4.4H5.563a4.4,4.4,0,0,1-4.4-4.4V8.92A4.4,4.4,0,0,1,5.564,4.522Z"/><path class="b" d="M11.827,22.018a.207.207,0,0,1-.166-.074L3.337,12.281a.215.215,0,0,1,.154-.352.234.234,0,0,1,.114.03l7.75,4.5L25.907.073A.223.223,0,0,1,26.062,0,.219.219,0,0,1,26.2.044a.211.211,0,0,1,.047.285L12,21.923a.215.215,0,0,1-.164.1Z"/></svg>