<?xml version="1.0" encoding="utf-8"?>
<!-- Generator: Adobe Illustrator 16.0.0, SVG Export Plug-In . SVG Version: 6.00 Build 0)  -->
<!DOCTYPE svg PUBLIC "-//W3C//DTD SVG 1.1//EN" "http://www.w3.org/Graphics/SVG/1.1/DTD/svg11.dtd">
<svg version="1.1" id="レイヤー_1" xmlns="http://www.w3.org/2000/svg" xmlns:xlink="http://www.w3.org/1999/xlink" x="0px"
	 y="0px" width="381.268px" height="213.278px" viewBox="0 0 381.268 213.278" enable-background="new 0 0 381.268 213.278"
	 xml:space="preserve">
<g>
	<linearGradient id="SVGID_1_" gradientUnits="userSpaceOnUse" x1="190.6343" y1="213.0635" x2="190.6343" y2="0.2153">
		<stop  offset="0" style="stop-color:#FFFFFF"/>
		<stop  offset="0.1114" style="stop-color:#FAFAFA"/>
		<stop  offset="0.2505" style="stop-color:#EAEAEA"/>
		<stop  offset="0.36" style="stop-color:#D9D9D9"/>
		<stop  offset="0.6283" style="stop-color:#E6E6E6"/>
		<stop  offset="1" style="stop-color:#FFFFFF"/>
	</linearGradient>
	<rect x="0.215" y="0.215" fill="url(#SVGID_1_)" width="380.838" height="212.849"/>
	<path fill="#D6A87C" d="M380.838,0.43v212.418H0.43V0.43H380.838 M381.268,0H0v213.278h381.268V0L381.268,0z"/>
</g>
<g>
	<defs>
		<filter id="Adobe_OpacityMaskFilter" filterUnits="userSpaceOnUse" x="28.742" y="176.155" width="96.246" height="10.32">
			<feFlood  style="flood-color:white;flood-opacity:1" result="back"/>
			<feBlend  in="SourceGraphic" in2="back" mode="normal"/>
		</filter>
	</defs>
	<mask maskUnits="userSpaceOnUse" x="28.742" y="176.155" width="96.246" height="10.32" id="SVGID_2_">
		<g filter="url(#Adobe_OpacityMaskFilter)">
			
				<image overflow="visible" width="418" height="60" xlink:href="208B15D7.jpg"  transform="matrix(0.24 0 0 0.24 26.7422 174.1553)">
			</image>
		</g>
	</mask>
	<g mask="url(#SVGID_2_)">
		<polygon fill="#BABABA" points="113.521,186.476 28.742,186.476 40.209,176.155 124.988,176.155 		"/>
	</g>
</g>
<linearGradient id="SVGID_3_" gradientUnits="userSpaceOnUse" x1="71.1318" y1="186.4756" x2="71.1318" y2="146.7739">
	<stop  offset="0" style="stop-color:#679CAF"/>
	<stop  offset="1" style="stop-color:#86B1C0"/>
</linearGradient>
<rect x="28.742" y="146.773" fill="url(#SVGID_3_)" width="84.779" height="39.702"/>
<g>
	<defs>
		<filter id="Adobe_OpacityMaskFilter_1_" filterUnits="userSpaceOnUse" x="147.852" y="161.536" width="119.112" height="24.939">
			<feFlood  style="flood-color:white;flood-opacity:1" result="back"/>
			<feBlend  in="SourceGraphic" in2="back" mode="normal"/>
		</filter>
	</defs>
	<mask maskUnits="userSpaceOnUse" x="147.852" y="161.536" width="119.112" height="24.939" id="SVGID_4_">
		<g filter="url(#Adobe_OpacityMaskFilter_1_)">
			
				<image overflow="visible" width="513" height="121" xlink:href="208B15D5.jpg"  transform="matrix(0.24 0 0 0.24 145.8516 159.5361)">
			</image>
		</g>
	</mask>
	<g mask="url(#SVGID_4_)">
		<polygon fill="#BABABA" points="232.633,186.476 147.852,186.476 182.184,161.536 266.963,161.536 		"/>
	</g>
</g>
<defs>
	<filter id="Adobe_OpacityMaskFilter_2_" filterUnits="userSpaceOnUse" x="266.963" y="152.937" width="134.086" height="33.539">
		<feColorMatrix  type="matrix" values="1 0 0 0 0  0 1 0 0 0  0 0 1 0 0  0 0 0 1 0"/>
	</filter>
</defs>
<mask maskUnits="userSpaceOnUse" x="266.963" y="152.937" width="134.086" height="33.539" id="SVGID_5_">
	<g filter="url(#Adobe_OpacityMaskFilter_2_)">
		<linearGradient id="SVGID_6_" gradientUnits="userSpaceOnUse" x1="190.6343" y1="213.2783" x2="190.6343" y2="4.882813e-004">
			<stop  offset="0" style="stop-color:#FFFFFF"/>
			<stop  offset="0.1114" style="stop-color:#FAFAFA"/>
			<stop  offset="0.2505" style="stop-color:#EAEAEA"/>
			<stop  offset="0.36" style="stop-color:#D9D9D9"/>
			<stop  offset="0.6283" style="stop-color:#E6E6E6"/>
			<stop  offset="1" style="stop-color:#FFFFFF"/>
		</linearGradient>
		<rect fill="url(#SVGID_6_)" stroke="#D6A87C" stroke-width="0.43" stroke-miterlimit="10" width="381.268" height="213.278"/>
	</g>
</mask>
<g mask="url(#SVGID_5_)">
	<defs>
		<filter id="Adobe_OpacityMaskFilter_3_" filterUnits="userSpaceOnUse" x="266.963" y="152.937" width="134.086" height="33.539">
			<feFlood  style="flood-color:white;flood-opacity:1" result="back"/>
			<feBlend  in="SourceGraphic" in2="back" mode="normal"/>
		</filter>
	</defs>
	<mask maskUnits="userSpaceOnUse" x="266.963" y="152.937" width="134.086" height="33.539" id="SVGID_5_">
		<g filter="url(#Adobe_OpacityMaskFilter_3_)">
			
				<image overflow="visible" width="576" height="157" xlink:href="208B15DB.jpg"  transform="matrix(0.24 0 0 0.24 264.9634 150.9365)">
			</image>
		</g>
	</mask>
	<g>
		<polygon fill="#BABABA" points="351.743,186.476 266.963,186.476 316.27,152.937 401.049,152.937 		"/>
	</g>
</g>
<linearGradient id="SVGID_7_" gradientUnits="userSpaceOnUse" x1="190.2422" y1="186.4756" x2="190.2422" y2="81.8428">
	<stop  offset="0" style="stop-color:#679CAF"/>
	<stop  offset="1" style="stop-color:#86B1C0"/>
</linearGradient>
<rect x="147.852" y="81.842" fill="url(#SVGID_7_)" width="84.782" height="104.634"/>
<linearGradient id="SVGID_8_" gradientUnits="userSpaceOnUse" x1="309.3521" y1="186.4756" x2="309.3521" y2="50.1675">
	<stop  offset="0" style="stop-color:#679CAF"/>
	<stop  offset="1" style="stop-color:#86B1C0"/>
</linearGradient>
<rect x="266.963" y="50.167" fill="url(#SVGID_8_)" width="84.779" height="136.309"/>
<g>
	<path fill="#4D4D4D" d="M102.184,19.321c0.673,0.936,1.389,2.178,1.651,2.982l-0.774,0.38c-0.073-0.249-0.189-0.526-0.321-0.833
		c-0.497,0.029-0.979,0.058-1.447,0.073v6.257h-0.877v-6.213c-0.805,0.029-1.535,0.059-2.105,0.088
		c-0.029,0.117-0.116,0.161-0.219,0.19l-0.264-1.096h1.009c0.321-0.395,0.658-0.863,1.009-1.345
		c-0.438-0.688-1.198-1.535-1.871-2.178l0.526-0.628l0.468,0.438c0.497-0.848,1.053-2.003,1.374-2.836l1.053,0.424
		c-0.044,0.088-0.146,0.131-0.308,0.131c-0.395,0.833-1.037,2.032-1.578,2.851c0.321,0.351,0.628,0.716,0.848,1.038
		c0.629-0.95,1.213-1.959,1.637-2.777l1.038,0.482c-0.059,0.073-0.16,0.117-0.321,0.117c-0.746,1.257-1.93,2.997-2.953,4.269
		l2.588-0.044c-0.264-0.497-0.585-1.009-0.892-1.447L102.184,19.321z M99.845,23.283c-0.029,0.102-0.117,0.161-0.292,0.161
		c-0.19,1.228-0.526,2.631-0.965,3.494c-0.19-0.117-0.512-0.263-0.731-0.365c0.424-0.819,0.731-2.222,0.921-3.552L99.845,23.283z
		 M102.827,26.075c-0.132-0.775-0.526-1.959-0.936-2.851l0.745-0.249c0.438,0.892,0.833,2.046,0.979,2.821L102.827,26.075z
		 M105.034,24.204c-0.132,1.271-0.541,2.587-1.345,3.333l-0.702-0.468c0.702-0.628,1.111-1.813,1.243-3.011L105.034,24.204z
		 M106.7,14.936c-0.044,0.117-0.175,0.146-0.307,0.132c-0.556,1.447-1.521,2.923-2.529,3.83c-0.175-0.175-0.497-0.453-0.716-0.584
		c0.979-0.833,1.886-2.251,2.412-3.713L106.7,14.936z M105.063,20.695c0.497-0.994,1.067-2.5,1.389-3.567l1.169,0.365
		c-0.044,0.103-0.16,0.146-0.321,0.146c-0.321,0.877-0.848,2.09-1.315,3.011c0.994-0.029,2.104-0.073,3.216-0.117
		c-0.365-0.497-0.774-0.994-1.17-1.418l0.717-0.424c0.892,0.921,1.886,2.193,2.324,3.011l-0.774,0.512
		c-0.132-0.278-0.337-0.599-0.57-0.936c-1.959,0.132-3.947,0.249-5.263,0.322c-0.015,0.117-0.103,0.175-0.204,0.19l-0.366-1.067
		L105.063,20.695z M106.569,26.762c0,0.336,0.072,0.395,0.482,0.395h1.359c0.351,0,0.424-0.205,0.468-1.579
		c0.189,0.146,0.541,0.278,0.789,0.336c-0.088,1.623-0.336,2.032-1.155,2.032h-1.578c-1.023,0-1.271-0.249-1.271-1.169v-3.128
		l1.184,0.073c-0.015,0.102-0.088,0.175-0.277,0.205V26.762z M108.191,24.116c-0.482-0.599-1.506-1.374-2.427-1.813l0.614-0.556
		c0.936,0.424,1.959,1.169,2.456,1.754L108.191,24.116z M109.068,14.6c0.585,1.359,1.696,2.763,2.792,3.464
		c-0.233,0.175-0.526,0.497-0.687,0.731c-1.111-0.833-2.28-2.412-2.909-3.903L109.068,14.6z M110.954,27.624
		c-0.219-0.936-0.95-2.339-1.739-3.377l0.76-0.38c0.805,1.023,1.564,2.383,1.798,3.318L110.954,27.624z"/>
	<path fill="#4D4D4D" d="M125.939,20.11h-8.361c-0.204,0.366-0.424,0.731-0.657,1.082h7.558v7.017h-0.979v-0.6h-6.681v0.6h-0.95
		v-5.657c-0.76,0.877-1.666,1.652-2.704,2.28c-0.132-0.234-0.424-0.585-0.629-0.775c1.682-0.979,2.968-2.368,3.918-3.947h-3.567
		v-0.818h4.035c0.204-0.395,0.395-0.804,0.556-1.228h-3.494V17.26h3.801c0.132-0.365,0.233-0.745,0.336-1.111
		c-1.403,0.059-2.836,0.103-4.151,0.103c-0.015-0.219-0.103-0.556-0.205-0.775c3.611-0.029,8.172-0.263,10.511-0.76l0.688,0.775
		c-0.029,0.029-0.073,0.029-0.132,0.029c-0.044,0-0.103,0-0.161-0.015c-1.301,0.249-3.201,0.438-5.219,0.57
		c-0.059,0.059-0.146,0.088-0.292,0.088c-0.103,0.366-0.205,0.731-0.336,1.096h6.256v0.804h-6.549
		c-0.16,0.409-0.336,0.818-0.526,1.228h7.938V20.11z M123.499,23.078v-1.082h-6.681v1.082H123.499z M116.818,23.794v1.126h6.681
		v-1.126H116.818z M116.818,26.806h6.681v-1.184h-6.681V26.806z"/>
	<path fill="#4D4D4D" d="M134.771,16.251h-1.359V28.18h-0.95v-3.011c-1.755,0.307-3.494,0.614-4.634,0.789
		c-0.029,0.117-0.117,0.19-0.22,0.205l-0.38-1.125c0.38-0.044,0.818-0.102,1.301-0.175v-8.61h-1.271v-0.921h7.514V16.251z
		 M132.462,18.371v-2.12h-2.997v2.12H132.462z M132.462,21.426v-2.149h-2.997v2.149H132.462z M129.465,22.333v2.412
		c0.936-0.131,1.974-0.292,2.997-0.438v-1.973H129.465z M139.741,16.719l0.614,0.205c-0.015,0.073-0.073,0.146-0.117,0.19
		c-0.395,2.953-1.213,5.365-2.354,7.25c0.804,1.301,1.813,2.339,3.056,3.026c-0.234,0.175-0.556,0.556-0.702,0.804
		c-1.184-0.716-2.148-1.696-2.938-2.924c-0.877,1.228-1.9,2.193-3.04,2.909c-0.146-0.234-0.438-0.6-0.658-0.79
		c1.17-0.672,2.237-1.71,3.129-3.07c-0.921-1.754-1.564-3.888-2.003-6.286l0.906-0.175c0.365,2.032,0.906,3.903,1.695,5.481
		c0.834-1.549,1.477-3.45,1.842-5.628h-4.896v-0.964h5.292L139.741,16.719z"/>
	<path fill="#4D4D4D" d="M144.947,23.224c-0.277-0.79-0.409-1.93-0.424-2.748c0-1.375,0.146-2.968,0.497-4.824l1.462,0.249
		c-0.059,0.19-0.233,0.234-0.424,0.249c-0.292,1.213-0.497,3.07-0.497,4.254c0,0.322,0.015,0.584,0.044,0.79
		c0.292-0.716,0.833-1.71,1.14-2.266c0.132,0.19,0.425,0.497,0.57,0.643c-1.081,1.944-1.403,2.5-1.403,3.114
		c0,0.117,0.015,0.234,0.044,0.366L144.947,23.224z M152.783,15.272c-0.015,0.175-0.132,0.249-0.381,0.322
		c0.103,1.271,0.249,3.391,0.249,5.072c-0.015,2.821-1.038,5.365-5.438,7.192c-0.16-0.234-0.511-0.628-0.73-0.848
		c3.99-1.521,5.058-3.932,5.058-6.33c0-1.798-0.175-3.918-0.336-5.482L152.783,15.272z"/>
	<path fill="#4D4D4D" d="M159.654,21.119v-1.915c-0.745,0.906-1.739,1.754-2.689,2.266c-0.117-0.219-0.351-0.555-0.541-0.745
		c1.082-0.468,2.266-1.447,2.968-2.471h-2.88v-0.833h3.143v-2.807l1.199,0.073c-0.015,0.103-0.088,0.176-0.278,0.19v2.543h3.1v0.833
		h-3.1v0.336c0.6,0.351,2.164,1.359,2.559,1.652l-0.57,0.716c-0.351-0.336-1.286-1.067-1.988-1.579v1.74H159.654z M163.732,23.414
		h-1.315c-0.219,0.906-0.556,1.667-1.038,2.324c0.658,0.351,1.243,0.702,1.696,1.038l-0.658,0.731
		c-0.438-0.351-1.023-0.716-1.666-1.067c-0.862,0.775-2.032,1.345-3.625,1.74c-0.073-0.263-0.278-0.629-0.468-0.833
		c1.389-0.278,2.44-0.716,3.23-1.359c-0.556-0.278-1.126-0.541-1.696-0.775l-0.292,0.526l-0.862-0.321
		c0.321-0.541,0.716-1.257,1.096-2.003h-1.651v-0.862h2.09c0.234-0.482,0.468-0.965,0.658-1.403l1.155,0.263
		c-0.044,0.102-0.132,0.146-0.322,0.131c-0.146,0.307-0.307,0.658-0.482,1.009h4.151V23.414z M157.871,15.023
		c0.438,0.599,0.862,1.403,1.023,1.944l-0.775,0.365c-0.146-0.526-0.569-1.359-0.993-1.974L157.871,15.023z M159.157,23.414
		c-0.189,0.365-0.38,0.731-0.57,1.082c0.658,0.249,1.316,0.526,1.944,0.819c0.424-0.526,0.717-1.155,0.921-1.9H159.157z
		 M161.204,16.982c0.395-0.526,0.906-1.389,1.184-1.974l1.023,0.453c-0.044,0.103-0.161,0.117-0.292,0.103
		c-0.308,0.526-0.834,1.271-1.243,1.769L161.204,16.982z M170.077,18.283h-0.979c-0.351,2.412-0.921,4.415-1.842,6.037
		c0.745,1.33,1.71,2.383,2.938,3.026c-0.234,0.205-0.541,0.57-0.702,0.848c-1.169-0.687-2.09-1.696-2.836-2.938
		c-0.892,1.228-2.046,2.208-3.566,2.938c-0.103-0.234-0.365-0.644-0.541-0.833c1.564-0.716,2.733-1.739,3.596-3.084
		c-0.599-1.242-1.053-2.675-1.389-4.239c-0.292,0.673-0.6,1.272-0.95,1.769c-0.16-0.19-0.512-0.482-0.745-0.628
		c1.038-1.462,1.783-4.035,2.207-6.578l1.242,0.263c-0.028,0.117-0.131,0.175-0.321,0.175c-0.146,0.775-0.321,1.564-0.526,2.324
		h4.415V18.283z M165.399,18.283l-0.044,0.146c0.292,1.754,0.73,3.392,1.359,4.81c0.673-1.374,1.097-3.026,1.389-4.956H165.399z"/>
	<path fill="#4D4D4D" d="M184.697,14.658c-1.594,1.33-2.895,3.771-2.895,6.724c0,3.026,1.345,5.438,2.895,6.724v0.073h-0.877
		c-1.477-1.331-2.792-3.786-2.792-6.797s1.315-5.467,2.792-6.797h0.877V14.658z"/>
	<path fill="#4D4D4D" d="M192.403,26.937h-6.477v-0.746l1.067-1.125c2.603-2.631,3.918-4.225,3.918-6.008
		c0-1.169-0.512-2.251-2.091-2.251c-0.877,0-1.666,0.482-2.192,0.906l-0.409-0.848c0.672-0.599,1.666-1.067,2.836-1.067
		c2.207,0,3.084,1.608,3.084,3.113c0,2.061-1.447,3.815-3.713,6.096l-0.862,0.906v0.029h4.839V26.937z"/>
	<path fill="#4D4D4D" d="M193.852,21.499c0-3.83,1.491-5.686,3.537-5.686c2.076,0,3.348,1.958,3.348,5.54
		c0,3.801-1.33,5.759-3.508,5.759C195.24,27.112,193.852,25.154,193.852,21.499z M199.509,21.412c0-2.734-0.658-4.62-2.193-4.62
		c-1.301,0-2.222,1.74-2.222,4.62c0,2.879,0.804,4.707,2.178,4.707C198.895,26.118,199.509,24.014,199.509,21.412z"/>
	<path fill="#4D4D4D" d="M208.514,26.937h-6.477v-0.746l1.068-1.125c2.602-2.631,3.918-4.225,3.918-6.008
		c0-1.169-0.512-2.251-2.092-2.251c-0.877,0-1.666,0.482-2.191,0.906l-0.41-0.848c0.672-0.599,1.666-1.067,2.836-1.067
		c2.207,0,3.084,1.608,3.084,3.113c0,2.061-1.447,3.815-3.713,6.096l-0.861,0.906v0.029h4.838V26.937z"/>
	<path fill="#4D4D4D" d="M209.963,21.499c0-3.83,1.49-5.686,3.537-5.686c2.076,0,3.348,1.958,3.348,5.54
		c0,3.801-1.33,5.759-3.508,5.759C211.352,27.112,209.963,25.154,209.963,21.499z M215.62,21.412c0-2.734-0.658-4.62-2.193-4.62
		c-1.301,0-2.221,1.74-2.221,4.62c0,2.879,0.803,4.707,2.178,4.707C215.006,26.118,215.62,24.014,215.62,21.412z"/>
	<path fill="#4D4D4D" d="M218.295,26.191c0-0.555,0.365-0.95,0.877-0.95s0.863,0.395,0.863,0.95c0,0.526-0.336,0.921-0.877,0.921
		C218.604,27.112,218.295,26.674,218.295,26.191z"/>
	<path fill="#4D4D4D" d="M224.42,26.937v-9.809h-0.029l-1.797,1.038l-0.293-0.906l2.266-1.271h1.037v10.949H224.42z"/>
	<path fill="#4D4D4D" d="M229.538,26.191c0-0.555,0.365-0.95,0.877-0.95s0.863,0.395,0.863,0.95c0,0.526-0.336,0.921-0.877,0.921
		C229.846,27.112,229.538,26.674,229.538,26.191z"/>
	<path fill="#4D4D4D" d="M235.665,26.937v-9.809h-0.029l-1.799,1.038l-0.293-0.906l2.268-1.271h1.037v10.949H235.665z"/>
	<path fill="#4D4D4D" d="M245.737,23.385l0.115,0.848c-1.797,0.555-3.713,1.125-4.91,1.461c-0.016,0.117-0.088,0.205-0.176,0.234
		l-0.453-1.082c0.643-0.161,1.461-0.365,2.367-0.614v-3.771h-1.93v-0.906h1.93v-3.274h-2.119v-0.921h5.072v0.921h-2.002v3.274h1.885
		v0.906h-1.885v3.508L245.737,23.385z M248.805,23.882c-0.029,0.088-0.117,0.175-0.291,0.19c-0.367,1.886-1.127,3.318-3.947,4.108
		c-0.104-0.234-0.381-0.644-0.57-0.819c2.588-0.614,3.318-1.813,3.582-3.61L248.805,23.882z M251.217,26.791
		c0,0.351,0.059,0.424,0.453,0.424h1.258c0.35,0,0.424-0.234,0.453-1.769c0.205,0.161,0.584,0.322,0.848,0.38
		c-0.088,1.798-0.336,2.236-1.199,2.236h-1.506c-1.008,0-1.256-0.278-1.256-1.271v-3.392h-3.918v-8.142h6.914v8.142h-2.047V26.791z
		 M247.286,16.105v1.593h5.014v-1.593H247.286z M247.286,18.502v1.608h5.014v-1.608H247.286z M247.286,20.929v1.623h5.014v-1.623
		H247.286z"/>
	<path fill="#4D4D4D" d="M261.569,14.936c-0.043,0.103-0.16,0.161-0.336,0.161c-0.189,0.599-0.395,1.228-0.643,1.842h7.732v0.95
		h-8.156c-0.482,1.038-1.053,2.061-1.754,3.011l0.16,0.044c-0.029,0.102-0.117,0.175-0.293,0.19v7.061h-0.979v-5.935
		c-0.527,0.57-1.098,1.082-1.725,1.549c-0.117-0.263-0.381-0.672-0.541-0.892c0.848-0.614,1.607-1.359,2.266-2.192v-0.103
		l0.059,0.015c0.658-0.848,1.227-1.783,1.695-2.748h-3.67v-0.95h4.107c0.322-0.775,0.586-1.564,0.805-2.339L261.569,14.936z
		 M264.288,22.537v4.371h4.035v0.921h-8.975v-0.921h3.945v-4.371h-3.361v-0.921h3.361v-2.938l1.273,0.088
		c-0.016,0.103-0.088,0.161-0.279,0.19v2.661h3.451v0.921H264.288z"/>
	<path fill="#4D4D4D" d="M269.67,28.106c1.594-1.33,2.895-3.771,2.895-6.724c0-3.026-1.346-5.438-2.895-6.724v-0.073h0.877
		c1.49,1.33,2.791,3.786,2.791,6.797s-1.301,5.467-2.791,6.797h-0.877V28.106z"/>
</g>
<g>
	<path fill="#4D4D4D" d="M58.638,200.534c0.062,1.206-0.567,1.66-1.279,1.66c-0.434,0-0.846-0.135-1.661-0.506
		c-0.557-0.268-1.021-0.516-1.454-0.516c-0.433,0-0.69,0.33-0.701,0.99h-0.608c-0.041-1.072,0.547-1.66,1.33-1.66
		c0.454,0,0.846,0.154,1.63,0.516c0.599,0.278,1.063,0.495,1.496,0.495c0.443,0,0.649-0.372,0.649-0.979H58.638z"/>
	<path fill="#4D4D4D" d="M64.346,204.67h-4.569v-0.526l0.753-0.794c1.836-1.856,2.764-2.981,2.764-4.239
		c0-0.825-0.36-1.589-1.475-1.589c-0.619,0-1.176,0.341-1.547,0.64l-0.289-0.598c0.475-0.424,1.176-0.754,2.001-0.754
		c1.558,0,2.177,1.135,2.177,2.197c0,1.455-1.021,2.692-2.62,4.302l-0.608,0.64v0.021h3.414V204.67z"/>
	<path fill="#4D4D4D" d="M65.369,200.833c0-2.703,1.052-4.013,2.496-4.013c1.465,0,2.361,1.382,2.361,3.909
		c0,2.682-0.938,4.064-2.476,4.064C66.349,204.794,65.369,203.411,65.369,200.833z M69.36,200.771c0-1.929-0.464-3.26-1.547-3.26
		c-0.918,0-1.568,1.229-1.568,3.26c0,2.032,0.567,3.322,1.537,3.322C68.928,204.093,69.36,202.606,69.36,200.771z"/>
	<path fill="#4D4D4D" d="M73.324,204.67v-6.921h-0.021l-1.269,0.732l-0.206-0.641l1.599-0.896h0.732v7.726H73.324z"/>
	<path fill="#4D4D4D" d="M78.269,200.575c-0.836-0.402-1.207-1.084-1.207-1.744c0-1.195,0.938-2.011,2.187-2.011
		c1.403,0,2.073,0.948,2.073,1.878c0,0.66-0.351,1.381-1.269,1.825v0.041c0.949,0.402,1.537,1.094,1.537,2.022
		c0,1.31-1.073,2.207-2.435,2.207c-1.475,0-2.383-0.939-2.383-2.053c0-1.001,0.599-1.723,1.496-2.125V200.575z M80.713,202.679
		c0-0.969-0.649-1.465-1.671-1.795c-0.908,0.3-1.393,0.96-1.393,1.723c0,0.877,0.588,1.548,1.517,1.548
		C80.156,204.154,80.713,203.483,80.713,202.679z M77.876,198.749c-0.01,0.825,0.578,1.279,1.435,1.537
		c0.67-0.258,1.176-0.784,1.176-1.517c0-0.649-0.361-1.32-1.27-1.32C78.32,197.449,77.876,198.079,77.876,198.749z"/>
	<path fill="#4D4D4D" d="M82.624,204.144c0-0.392,0.258-0.67,0.619-0.67s0.608,0.278,0.608,0.67c0,0.371-0.237,0.65-0.619,0.65
		C82.841,204.794,82.624,204.484,82.624,204.144z"/>
	<path fill="#4D4D4D" d="M85.564,200.575c0.351-0.516,0.979-0.949,1.805-0.949c1.311,0,2.188,0.98,2.188,2.465
		c0,1.414-0.867,2.703-2.373,2.703s-2.517-1.248-2.517-3.25c0-2.072,0.97-4.238,3.476-4.651c0.289-0.042,0.547-0.072,0.723-0.072
		l0.01,0.712c-2.146,0-3.166,1.557-3.342,3.043H85.564z M88.689,202.153c0-1.187-0.64-1.877-1.567-1.877
		c-0.908,0-1.599,0.887-1.599,1.464c0.01,1.413,0.608,2.383,1.681,2.383C88.102,204.123,88.689,203.319,88.689,202.153z"/>
</g>
<g>
	<path fill="#4D4D4D" d="M177.742,200.534c0.062,1.206-0.567,1.66-1.279,1.66c-0.434,0-0.846-0.135-1.66-0.506
		c-0.558-0.268-1.021-0.516-1.455-0.516c-0.433,0-0.691,0.33-0.701,0.99h-0.608c-0.042-1.072,0.547-1.66,1.33-1.66
		c0.454,0,0.846,0.154,1.63,0.516c0.599,0.278,1.063,0.495,1.496,0.495c0.443,0,0.649-0.372,0.649-0.979H177.742z"/>
	<path fill="#4D4D4D" d="M183.45,204.67h-4.569v-0.526l0.753-0.794c1.836-1.856,2.764-2.981,2.764-4.239
		c0-0.825-0.36-1.589-1.475-1.589c-0.619,0-1.176,0.341-1.547,0.64l-0.289-0.598c0.475-0.424,1.176-0.754,2.001-0.754
		c1.558,0,2.177,1.135,2.177,2.197c0,1.455-1.021,2.692-2.62,4.302l-0.608,0.64v0.021h3.414V204.67z"/>
	<path fill="#4D4D4D" d="M184.473,200.833c0-2.703,1.053-4.013,2.497-4.013c1.464,0,2.361,1.382,2.361,3.909
		c0,2.682-0.938,4.064-2.476,4.064C185.453,204.794,184.473,203.411,184.473,200.833z M188.465,200.771
		c0-1.929-0.464-3.26-1.547-3.26c-0.918,0-1.568,1.229-1.568,3.26c0,2.032,0.567,3.322,1.537,3.322
		C188.032,204.093,188.465,202.606,188.465,200.771z"/>
	<path fill="#4D4D4D" d="M192.429,204.67v-6.921h-0.021l-1.269,0.732l-0.206-0.641l1.599-0.896h0.732v7.726H192.429z"/>
	<path fill="#4D4D4D" d="M199.828,201.019c-0.423,0.536-1.021,0.855-1.774,0.855c-1.32,0-2.136-1.031-2.136-2.341
		c0-1.413,0.929-2.713,2.445-2.713c1.443,0,2.362,1.259,2.362,3.229c0,2.568-1.3,4.353-3.28,4.662
		c-0.361,0.062-0.691,0.083-0.918,0.072v-0.712c0.216,0.021,0.464-0.01,0.794-0.051c1.3-0.186,2.279-1.238,2.537-3.002H199.828z
		 M196.785,199.481c0,1.042,0.588,1.743,1.475,1.743c0.836,0,1.599-0.64,1.599-1.259c0-1.484-0.546-2.485-1.567-2.485
		C197.394,197.48,196.785,198.326,196.785,199.481z"/>
	<path fill="#4D4D4D" d="M201.739,204.144c0-0.392,0.258-0.67,0.619-0.67s0.607,0.278,0.607,0.67c0,0.371-0.236,0.65-0.619,0.65
		C201.956,204.794,201.739,204.484,201.739,204.144z"/>
	<path fill="#4D4D4D" d="M204.68,200.575c0.35-0.516,0.979-0.949,1.805-0.949c1.311,0,2.188,0.98,2.188,2.465
		c0,1.414-0.867,2.703-2.373,2.703s-2.518-1.248-2.518-3.25c0-2.072,0.971-4.238,3.477-4.651c0.289-0.042,0.547-0.072,0.723-0.072
		l0.01,0.712c-2.146,0-3.166,1.557-3.342,3.043H204.68z M207.805,202.153c0-1.187-0.641-1.877-1.568-1.877
		c-0.908,0-1.598,0.887-1.598,1.464c0.01,1.413,0.607,2.383,1.68,2.383C207.217,204.123,207.805,203.319,207.805,202.153z"/>
</g>
<g>
	<path fill="#4D4D4D" d="M294.008,200.534c0.063,1.206-0.566,1.66-1.279,1.66c-0.434,0-0.846-0.135-1.66-0.506
		c-0.557-0.268-1.021-0.516-1.455-0.516c-0.432,0-0.689,0.33-0.701,0.99h-0.607c-0.041-1.072,0.547-1.66,1.33-1.66
		c0.453,0,0.846,0.154,1.629,0.516c0.6,0.278,1.063,0.495,1.496,0.495c0.443,0,0.65-0.372,0.65-0.979H294.008z"/>
	<path fill="#4D4D4D" d="M299.717,204.67h-4.57v-0.526l0.754-0.794c1.836-1.856,2.764-2.981,2.764-4.239
		c0-0.825-0.361-1.589-1.475-1.589c-0.619,0-1.176,0.341-1.547,0.64l-0.289-0.598c0.475-0.424,1.176-0.754,2-0.754
		c1.559,0,2.178,1.135,2.178,2.197c0,1.455-1.021,2.692-2.621,4.302l-0.607,0.64v0.021h3.414V204.67z"/>
	<path fill="#4D4D4D" d="M300.741,200.833c0-2.703,1.051-4.013,2.496-4.013c1.465,0,2.361,1.382,2.361,3.909
		c0,2.682-0.939,4.064-2.477,4.064C301.719,204.794,300.741,203.411,300.741,200.833z M304.731,200.771
		c0-1.929-0.463-3.26-1.547-3.26c-0.918,0-1.568,1.229-1.568,3.26c0,2.032,0.568,3.322,1.537,3.322
		C304.299,204.093,304.731,202.606,304.731,200.771z"/>
	<path fill="#4D4D4D" d="M308.696,204.67v-6.921h-0.021l-1.268,0.732l-0.207-0.641l1.6-0.896h0.732v7.726H308.696z"/>
	<path fill="#4D4D4D" d="M316.094,201.019c-0.422,0.536-1.021,0.855-1.773,0.855c-1.32,0-2.137-1.031-2.137-2.341
		c0-1.413,0.93-2.713,2.445-2.713c1.445,0,2.363,1.259,2.363,3.229c0,2.568-1.301,4.353-3.281,4.662
		c-0.361,0.062-0.691,0.083-0.918,0.072v-0.712c0.217,0.021,0.465-0.01,0.795-0.051c1.299-0.186,2.279-1.238,2.537-3.002H316.094z
		 M313.051,199.481c0,1.042,0.588,1.743,1.475,1.743c0.836,0,1.6-0.64,1.6-1.259c0-1.484-0.547-2.485-1.568-2.485
		C313.661,197.48,313.051,198.326,313.051,199.481z"/>
	<path fill="#4D4D4D" d="M318.004,204.144c0-0.392,0.258-0.67,0.619-0.67s0.609,0.278,0.609,0.67c0,0.371-0.238,0.65-0.619,0.65
		C318.221,204.794,318.004,204.484,318.004,204.144z"/>
	<path fill="#4D4D4D" d="M322.329,204.67v-6.921h-0.021l-1.268,0.732l-0.207-0.641l1.6-0.896h0.732v7.726H322.329z"/>
	<path fill="#4D4D4D" d="M330.407,204.67h-4.568v-0.526l0.752-0.794c1.836-1.856,2.764-2.981,2.764-4.239
		c0-0.825-0.359-1.589-1.475-1.589c-0.619,0-1.176,0.341-1.547,0.64l-0.289-0.598c0.475-0.424,1.176-0.754,2.002-0.754
		c1.557,0,2.176,1.135,2.176,2.197c0,1.455-1.021,2.692-2.619,4.302l-0.609,0.64v0.021h3.414V204.67z"/>
</g>
<g>
	<path fill="#FFFFFF" d="M303.174,64.485c1.061,0.181,1.963,1.036,1.963,2.336c0,1.433-1.035,2.685-3.059,2.685
		c-0.902,0-1.721-0.289-2.131-0.578l0.301-0.771c0.326,0.217,1.049,0.542,1.844,0.542c1.516,0,2.01-1.06,2.01-1.89
		c0-1.324-1.119-1.926-2.299-1.926h-0.59v-0.747h0.59c0.865,0,1.986-0.542,1.986-1.673c0-0.783-0.471-1.457-1.555-1.457
		c-0.662,0-1.287,0.325-1.648,0.59l-0.301-0.734c0.434-0.337,1.275-0.674,2.143-0.674c1.65,0,2.385,1.047,2.385,2.131
		c0,0.927-0.59,1.758-1.639,2.131V64.485z"/>
	<path fill="#FFFFFF" d="M311.157,65.1c-0.494,0.626-1.191,0.999-2.07,0.999c-1.541,0-2.492-1.204-2.492-2.733
		c0-1.649,1.084-3.166,2.854-3.166c1.686,0,2.756,1.469,2.756,3.768c0,2.998-1.516,5.081-3.828,5.442
		c-0.42,0.072-0.807,0.096-1.07,0.084v-0.831c0.252,0.024,0.541-0.012,0.926-0.06c1.518-0.217,2.662-1.445,2.963-3.503H311.157z
		 M307.606,63.306c0,1.216,0.686,2.035,1.721,2.035c0.975,0,1.867-0.747,1.867-1.469c0-1.734-0.639-2.901-1.83-2.901
		C308.315,60.97,307.606,61.957,307.606,63.306z"/>
	<path fill="#FFFFFF" d="M318.598,69.361h-5.334v-0.614l0.879-0.927c2.143-2.167,3.227-3.479,3.227-4.948
		c0-0.963-0.422-1.854-1.721-1.854c-0.723,0-1.373,0.397-1.807,0.747l-0.336-0.698c0.553-0.494,1.371-0.879,2.334-0.879
		c1.818,0,2.541,1.324,2.541,2.564c0,1.697-1.191,3.142-3.059,5.02l-0.709,0.747v0.024h3.984V69.361z"/>
</g>
<g>
	<path fill="#FFFFFF" d="M186.208,101.038h-5.333v-0.614l0.879-0.927c2.143-2.167,3.227-3.479,3.227-4.948
		c0-0.963-0.422-1.854-1.722-1.854c-0.723,0-1.372,0.397-1.806,0.747l-0.337-0.698c0.554-0.494,1.372-0.879,2.335-0.879
		c1.818,0,2.541,1.324,2.541,2.564c0,1.697-1.192,3.142-3.059,5.02l-0.71,0.747v0.024h3.984V101.038z"/>
	<path fill="#FFFFFF" d="M192.048,96.776c-0.494,0.626-1.192,0.999-2.071,0.999c-1.541,0-2.492-1.204-2.492-2.733
		c0-1.649,1.084-3.166,2.854-3.166c1.686,0,2.757,1.469,2.757,3.768c0,2.998-1.517,5.081-3.828,5.442
		c-0.421,0.072-0.807,0.096-1.071,0.084v-0.831c0.253,0.024,0.542-0.012,0.927-0.06c1.517-0.217,2.661-1.445,2.962-3.503H192.048z
		 M188.496,94.982c0,1.216,0.687,2.035,1.722,2.035c0.975,0,1.866-0.747,1.866-1.469c0-1.734-0.639-2.901-1.83-2.901
		C189.206,92.646,188.496,93.633,188.496,94.982z"/>
	<path fill="#FFFFFF" d="M194.047,96.559c0-3.154,1.229-4.683,2.914-4.683c1.709,0,2.757,1.613,2.757,4.563
		c0,3.13-1.096,4.744-2.89,4.744C195.19,101.182,194.047,99.569,194.047,96.559z M198.706,96.487c0-2.251-0.542-3.804-1.806-3.804
		c-1.071,0-1.83,1.433-1.83,3.804s0.662,3.876,1.794,3.876C198.2,100.363,198.706,98.63,198.706,96.487z"/>
</g>
<g>
	<path fill="#FFFFFF" d="M64.312,165.968v-8.078h-0.023l-1.481,0.855l-0.24-0.746l1.866-1.049h0.854v9.018H64.312z"/>
	<path fill="#FFFFFF" d="M68.297,161.489c0-3.154,1.229-4.683,2.914-4.683c1.709,0,2.757,1.613,2.757,4.563
		c0,3.13-1.096,4.743-2.89,4.743C69.44,166.112,68.297,164.499,68.297,161.489z M72.956,161.417c0-2.251-0.542-3.804-1.806-3.804
		c-1.071,0-1.83,1.433-1.83,3.804c0,2.372,0.662,3.877,1.794,3.877C72.45,165.294,72.956,163.561,72.956,161.417z"/>
	<path fill="#FFFFFF" d="M75.208,156.95h5.285v0.639l-3.769,8.379h-1.023l3.769-8.162v-0.023h-4.262V156.95z"/>
</g>
</svg>
