<?xml version="1.0" encoding="utf-8"?>
<!-- Generator: Adobe Illustrator 16.0.0, SVG Export Plug-In . SVG Version: 6.00 Build 0)  -->
<!DOCTYPE svg PUBLIC "-//W3C//DTD SVG 1.1//EN" "http://www.w3.org/Graphics/SVG/1.1/DTD/svg11.dtd">
<svg version="1.1" id="レイヤー_1" xmlns="http://www.w3.org/2000/svg" xmlns:xlink="http://www.w3.org/1999/xlink" x="0px"
	 y="0px" width="401.442px" height="292.117px" viewBox="0 0 401.442 292.117" enable-background="new 0 0 401.442 292.117"
	 xml:space="preserve">
<pattern  x="-299.57" y="-348.557" width="4.136" height="4.136" patternUnits="userSpaceOnUse" id="新規パターンスウォッチ_2" viewBox="0 -4.136 4.136 4.136" overflow="visible">
	<g>
		<polygon fill="none" points="0,0 4.136,0 4.136,-4.136 0,-4.136 		"/>
		<path fill="none" d="M3.469,0H0.667c0-0.368-0.299-0.667-0.667-0.667v-2.802c0.368,0,0.667-0.299,0.667-0.667h2.802
			c0,0.368,0.299,0.667,0.667,0.667v2.802C3.768-0.667,3.469-0.368,3.469,0z M2.734-2.068c0-0.368-0.299-0.667-0.667-0.667
			S1.4-2.436,1.4-2.068s0.299,0.667,0.667,0.667S2.734-1.7,2.734-2.068z"/>
		<path fill="#C58445" d="M4.136-3.469v-0.667H3.469C3.469-3.768,3.768-3.469,4.136-3.469z"/>
		<path fill="#C58445" d="M0.667-4.136H0v0.667C0.368-3.469,0.667-3.768,0.667-4.136z"/>
		<path fill="#C58445" d="M4.136-0.667C3.768-0.667,3.469-0.368,3.469,0h0.667V-0.667z"/>
		<path fill="#C58445" d="M2.067-2.735C1.699-2.735,1.4-2.436,1.4-2.068s0.299,0.667,0.667,0.667S2.734-1.7,2.734-2.068
			S2.436-2.735,2.067-2.735z"/>
		<path fill="#C58445" d="M0-0.667V0h0.667C0.667-0.368,0.368-0.667,0-0.667z"/>
	</g>
</pattern>
<g>
	<linearGradient id="SVGID_1_" gradientUnits="userSpaceOnUse" x1="0" y1="146.0586" x2="401.4419" y2="146.0586">
		<stop  offset="0" style="stop-color:#C1C1C1"/>
		<stop  offset="0.5" style="stop-color:#FFFFFF"/>
		<stop  offset="1" style="stop-color:#C1C1C1"/>
	</linearGradient>
	<rect fill="url(#SVGID_1_)" width="401.442" height="292.117"/>
	<g>
		<g>
			<g>
				
					<text transform="matrix(1 0 0 1 103.8262 32.1021)" fill="#4D4D4D" font-family="'KozGoPr6N-Regular-90ms-RKSJ-H'" font-size="25.8">疾患内訳</text>
			</g>
		</g>
		<g>
			<g>
				
					<text transform="matrix(1 0 0 1 201.3164 32.1021)" fill="#4D4D4D" font-family="'KozGoPr6N-Regular-90ms-RKSJ-H'" font-size="11.18">（2020年1月1日現在）</text>
			</g>
		</g>
	</g>
	<g>
		<g>
			<g>
				<g>
					<path fill="#4D4D4D" d="M209.157,273.42l3.404,3.404l3.404-3.404l0.299,0.299l-3.404,3.404l3.404,3.404l-0.299,0.299
						l-3.404-3.404l-3.414,3.415l-0.299-0.3l3.414-3.414l-3.404-3.404L209.157,273.42z M209.622,277.896
						c-0.424,0-0.773-0.35-0.773-0.773c0-0.423,0.35-0.773,0.773-0.773c0.422,0,0.773,0.351,0.773,0.773
						C210.395,277.566,210.024,277.896,209.622,277.896z M211.788,274.184c0-0.423,0.35-0.773,0.773-0.773
						c0.422,0,0.773,0.351,0.773,0.773s-0.352,0.773-0.773,0.773C212.118,274.957,211.788,274.586,211.788,274.184z
						 M213.334,280.063c0,0.424-0.352,0.774-0.773,0.774c-0.424,0-0.773-0.351-0.773-0.774c0-0.422,0.35-0.773,0.773-0.773
						C213.004,279.289,213.334,279.66,213.334,280.063z M215.5,276.35c0.424,0,0.773,0.351,0.773,0.773
						c0,0.424-0.35,0.773-0.773,0.773c-0.422,0-0.773-0.35-0.773-0.773C214.727,276.68,215.098,276.35,215.5,276.35z"/>
					<path fill="#4D4D4D" d="M220.354,277.855v-1.361c-0.547,0.536-1.258,1.063-1.846,1.361c-0.094-0.145-0.279-0.351-0.414-0.464
						c0.66-0.269,1.465-0.805,2.002-1.341h-1.486v-1.908h1.744v-0.567h-2.104v-0.517h2.104v-0.732l0.824,0.053
						c-0.01,0.072-0.061,0.123-0.195,0.145v0.535h2.146v0.517h-2.146v0.567h1.795v1.908h-1.795v0.031
						c0.412,0.186,1.568,0.773,1.889,0.948l-0.33,0.454c-0.311-0.207-1.033-0.619-1.559-0.908v1.279H220.354z M223.211,280.156
						v0.918h4.414v0.598h-9.469v-0.598h1.754v-1.847l0.867,0.052c-0.012,0.072-0.063,0.123-0.197,0.145v1.65h1.949v-2.342h-3.662
						v-0.578h8.078v0.578h-3.734v0.866h3.063v0.558H223.211z M219.188,274.627v0.939h1.166v-0.939H219.188z M222.18,274.627h-1.197
						v0.939h1.197V274.627z M227.594,274.225h-0.67c-0.227,0.825-0.607,1.517-1.113,2.094c0.506,0.443,1.145,0.815,1.908,1.063
						c-0.135,0.124-0.32,0.382-0.402,0.547c-0.773-0.289-1.414-0.701-1.939-1.186c-0.609,0.535-1.361,0.938-2.238,1.227
						c-0.082-0.134-0.258-0.371-0.381-0.494c0.865-0.258,1.607-0.641,2.195-1.177c-0.412-0.474-0.732-0.979-0.969-1.475
						c-0.227,0.36-0.465,0.701-0.723,0.97c-0.104-0.124-0.309-0.341-0.443-0.443c0.65-0.682,1.229-1.836,1.568-3.013l0.783,0.217
						c-0.02,0.062-0.082,0.103-0.205,0.103c-0.104,0.33-0.238,0.66-0.371,0.99h3V274.225z M224.315,274.225
						c0.227,0.557,0.566,1.135,1.053,1.661c0.391-0.464,0.691-1.011,0.887-1.661H224.315z"/>
					<path fill="#4D4D4D" d="M234.139,277.082h-1.104v4.838h-0.682v-4.838h-2.072c-0.053,1.732-0.32,3.466-1.518,4.879
						c-0.102-0.154-0.34-0.393-0.494-0.484c1.053-1.289,1.299-2.848,1.352-4.395h-1.207v-0.65h1.217v-2.805h-1.063v-0.65h5.416v0.65
						h-0.949v2.805h1.104V277.082z M230.292,276.432h2.063v-2.805h-2.063V276.432z M238.235,278.742
						c-0.031,0.063-0.104,0.094-0.207,0.094c-0.814,1.196-2.27,2.383-3.785,3.094c-0.125-0.164-0.33-0.402-0.506-0.557
						c1.455-0.608,2.92-1.732,3.693-2.93L238.235,278.742z M237.553,272.822c-0.041,0.072-0.113,0.104-0.195,0.093
						c-0.65,0.814-1.764,1.764-2.744,2.362c-0.123-0.155-0.33-0.361-0.516-0.496c0.938-0.516,2.043-1.423,2.65-2.248
						L237.553,272.822z M237.934,275.71c-0.029,0.062-0.102,0.104-0.195,0.104c-0.742,0.876-2,1.888-3.115,2.517
						c-0.113-0.154-0.33-0.361-0.506-0.495c1.063-0.558,2.332-1.526,3.033-2.424L237.934,275.71z"/>
					<path fill="#4D4D4D" d="M241.086,274.184v2.486c0,1.619-0.207,3.826-1.65,5.271c-0.094-0.134-0.361-0.372-0.506-0.464
						c0.887-0.898,1.26-2.043,1.402-3.146c-0.484,0.268-0.938,0.537-1.268,0.712c0,0.083-0.053,0.145-0.104,0.175l-0.309-0.711
						c0.463-0.207,1.092-0.537,1.742-0.888c0.021-0.33,0.031-0.649,0.031-0.959v-3.104h3.26v-1.218l0.928,0.062
						c-0.01,0.072-0.072,0.125-0.205,0.145v1.012h3.918v0.629H241.086z M239.354,274.4c0.371,0.598,0.742,1.402,0.855,1.908
						l-0.566,0.299c-0.113-0.516-0.455-1.341-0.816-1.96L239.354,274.4z M248.245,278.64h-2.836
						c0.465,1.413,1.424,2.311,3.002,2.702c-0.156,0.135-0.352,0.402-0.443,0.599c-1.578-0.475-2.539-1.393-3.064-2.878
						c-0.33,1.042-1.186,2.094-3.363,2.889c-0.092-0.155-0.287-0.393-0.453-0.537c2.248-0.753,2.98-1.795,3.219-2.774h-2.889v-0.63
						h2.98c0.012-0.133,0.012-0.268,0.012-0.402v-1.371h-1.465c-0.248,0.588-0.537,1.113-0.846,1.516
						c-0.125-0.103-0.383-0.268-0.547-0.35c0.557-0.691,1.021-1.857,1.289-3.002l0.836,0.227c-0.031,0.063-0.094,0.104-0.217,0.104
						c-0.084,0.299-0.176,0.598-0.279,0.887h4.662v0.619h-2.744v1.382c0,0.124,0,0.259-0.01,0.392h3.156V278.64z"/>
					<path fill="#4D4D4D" d="M251.118,279.434c-0.236,0.908-0.639,1.733-1.516,2.188l-0.557-0.402
						c0.805-0.413,1.258-1.146,1.453-1.98L251.118,279.434z M250.561,278.124v0.351h-0.66v-2.465h3.568v-0.713h-3.074v-2.072h3.074
						v-0.898l0.887,0.053c-0.01,0.072-0.072,0.123-0.205,0.145v0.701h3.156v2.072h-3.156v0.713h3.641v2.444h-0.68v-0.33h-2.961
						v0.763h-0.506c0.453,0.289,0.887,0.619,1.135,0.898l-0.484,0.422c-0.352-0.412-1.115-0.959-1.785-1.31l0.465-0.392
						c0.164,0.082,0.33,0.175,0.494,0.268v-0.649H250.561z M253.469,276.546h-2.908v1.042h2.908V276.546z M251.055,274.771h2.414
						v-1.011h-2.414V274.771z M252.5,280.837c0,0.258,0.082,0.299,0.639,0.299h1.92c0.443,0,0.516-0.124,0.557-1.063
						c0.154,0.114,0.443,0.217,0.629,0.258c-0.082,1.166-0.311,1.435-1.125,1.435h-2.021c-1.031,0-1.289-0.187-1.289-0.929v-1.579
						l0.887,0.053c-0.01,0.072-0.063,0.123-0.195,0.145V280.837z M256.616,273.761h-2.465v1.011h2.465V273.761z M257.112,276.546
						h-2.961v1.042h2.961V276.546z M258.03,281.568c-0.33-0.629-1.125-1.495-1.898-2.083l0.557-0.33
						c0.773,0.567,1.588,1.403,1.939,2.042L258.03,281.568z"/>
					<path fill="#4D4D4D" d="M260.766,275.979c-0.391,0.649-0.824,1.228-1.258,1.723c-0.072-0.165-0.248-0.484-0.361-0.65
						c0.99-1.072,1.98-2.857,2.58-4.642l0.824,0.278c-0.041,0.072-0.113,0.104-0.236,0.094c-0.27,0.722-0.588,1.443-0.949,2.135
						l0.277,0.072c-0.02,0.062-0.072,0.113-0.205,0.123v6.84h-0.672V275.979z M268.999,277.412v0.67h-1.785v3.838h-0.691v-3.838
						h-2.012c-0.102,1.342-0.516,2.868-2.072,3.91c-0.104-0.145-0.32-0.382-0.475-0.495c1.424-0.897,1.785-2.249,1.867-3.415h-1.785
						v-0.67h1.816v-2.207h-1.518v-0.66h6.428v0.66h-1.559v2.207H268.999z M263.809,272.379c0.402,0.566,0.816,1.33,0.949,1.825
						l-0.629,0.289c-0.135-0.506-0.525-1.29-0.918-1.867L263.809,272.379z M264.542,277.412h1.98v-2.207h-1.98V277.412z
						 M266.286,274.246c0.34-0.517,0.783-1.352,1.01-1.939l0.826,0.34c-0.031,0.063-0.113,0.093-0.227,0.093
						c-0.258,0.517-0.701,1.279-1.063,1.765L266.286,274.246z"/>
					<path fill="#4D4D4D" d="M279.049,274.369h-5.693c-0.35,0.795-0.783,1.588-1.299,2.32l0.113,0.031
						c-0.021,0.072-0.082,0.124-0.207,0.135v5.064h-0.691v-4.26c-0.391,0.433-0.814,0.824-1.289,1.176
						c-0.082-0.186-0.268-0.475-0.371-0.629c0.629-0.455,1.176-1.012,1.66-1.631v-0.082l0.053,0.01
						c0.494-0.66,0.908-1.382,1.258-2.135h-2.66v-0.66h2.939c0.176-0.453,0.33-0.918,0.453-1.372l0.898,0.237
						c-0.031,0.072-0.104,0.113-0.238,0.113c-0.104,0.341-0.217,0.682-0.35,1.021h5.424V274.369z M279.256,278.34v0.65h-2.848v2.073
						c0,0.434-0.092,0.64-0.422,0.743c-0.33,0.103-0.908,0.113-1.826,0.113c-0.031-0.207-0.123-0.475-0.227-0.671
						c0.371,0.011,0.711,0.021,0.98,0.021c0.764,0,0.793-0.01,0.793-0.206v-2.073h-2.98v-0.65h2.98v-0.99l0.27,0.011
						c0.475-0.288,0.99-0.701,1.393-1.104h-3.734v-0.64h4.383l0.125-0.041l0.535,0.351c-0.029,0.052-0.092,0.083-0.154,0.083
						c-0.525,0.566-1.361,1.268-2.115,1.732v0.598H279.256z"/>
					<path fill="#4D4D4D" d="M281.036,281.342c-0.318-0.742-0.443-2.279-0.443-3.631c0-1.371,0.217-3.094,0.557-4.816l1.002,0.195
						c-0.021,0.104-0.125,0.176-0.27,0.186c-0.371,1.414-0.598,3.25-0.598,4.446c0,0.784,0.01,1.567,0.094,1.949
						c0.227-0.618,0.639-1.608,0.855-2.094l0.465,0.433c-0.342,0.702-1.063,2.27-1.063,2.755c0,0.144,0.029,0.299,0.102,0.495
						L281.036,281.342z M283.657,275.267c0.865,0.011,1.732,0.021,2.6-0.041c-0.043-0.888-0.072-1.65-0.094-2.414l1.041,0.031
						c-0.01,0.103-0.102,0.186-0.268,0.216c0.01,0.66,0.031,1.331,0.053,2.115c0.814-0.082,1.475-0.227,2.021-0.412l0.092,0.722
						c-0.494,0.154-1.207,0.299-2.084,0.371c0.041,1.146,0.094,2.353,0.125,3.013c0.783,0.319,1.566,0.824,2.104,1.31l-0.402,0.66
						c-0.422-0.423-1.031-0.877-1.67-1.177c-0.012,0.877-0.176,1.857-1.723,1.857c-1.207,0-2.012-0.578-2.012-1.485
						c0-1.052,1.063-1.517,2.012-1.517c0.318,0,0.66,0.041,0.979,0.135c-0.031-0.65-0.092-1.733-0.145-2.744
						c-0.318,0.021-0.752,0.031-1.051,0.031h-1.568L283.657,275.267z M286.483,279.32c-0.33-0.104-0.682-0.186-1.021-0.186
						c-0.629,0-1.383,0.227-1.383,0.877c0,0.577,0.619,0.866,1.373,0.866c0.762,0,1.041-0.371,1.041-1.196L286.483,279.32z"/>
					<path fill="#4D4D4D" d="M295.719,272.348c-0.021,0.082-0.104,0.134-0.207,0.154c1,1.361,2.857,2.92,4.457,3.744
						c-0.176,0.166-0.342,0.402-0.465,0.609c-1.619-0.949-3.467-2.518-4.426-3.848c-0.846,1.279-2.547,2.867-4.332,3.92
						c-0.092-0.155-0.289-0.402-0.434-0.547c1.807-1.012,3.59-2.713,4.395-4.085L295.719,272.348z M295.45,279.176v1.805h4.158
						v0.641h-8.924v-0.641h4.045v-1.805h-3.178v-0.629h3.178v-1.713h-2.725v-0.629h6.283v0.629h-2.838v1.713h3.219v0.629H295.45z"/>
					<path fill="#4D4D4D" d="M303.833,272.688c-0.043,0.072-0.115,0.104-0.238,0.094c-0.268,0.722-0.588,1.443-0.949,2.135
						l0.279,0.072c-0.021,0.062-0.072,0.113-0.207,0.123v6.84h-0.67v-5.973c-0.393,0.649-0.826,1.228-1.258,1.723
						c-0.072-0.165-0.248-0.484-0.361-0.65c0.99-1.072,1.98-2.857,2.578-4.642L303.833,272.688z M310.174,275.359h-2.701
						c0.629,1.713,1.732,3.425,2.889,4.281c-0.166,0.123-0.402,0.371-0.527,0.547c-1.123-0.949-2.186-2.713-2.846-4.529v3.61h1.67
						v0.64h-1.67v2.043h-0.672v-2.043h-1.701v-0.64h1.701v-3.569c-0.68,1.826-1.764,3.559-2.898,4.519
						c-0.113-0.165-0.34-0.402-0.494-0.526c1.145-0.877,2.27-2.609,2.93-4.332h-2.549v-0.66h3.012v-2.259l0.877,0.062
						c-0.01,0.072-0.061,0.124-0.205,0.135v2.063h3.186V275.359z"/>
					<path fill="#4D4D4D" d="M316.36,274.215c-0.041,0.092-0.125,0.164-0.258,0.164c-0.371,3.209-1.445,6.004-3.156,6.004
						c-0.867,0-1.65-0.866-1.65-2.496c0-2.476,1.928-4.549,4.641-4.549c2.98,0,4.271,1.888,4.271,3.898
						c0,2.455-1.424,3.642-3.92,4.219c-0.094-0.164-0.27-0.443-0.434-0.629c2.373-0.453,3.59-1.609,3.59-3.559
						c0-1.701-1.094-3.249-3.508-3.249c-0.104,0-0.217,0.011-0.309,0.021L316.36,274.215z M315.37,274.08
						c-2.084,0.258-3.373,1.98-3.373,3.786c0,1.104,0.475,1.794,0.969,1.794C314.213,279.66,315.112,276.906,315.37,274.08z"/>
					<path fill="#4D4D4D" d="M322.223,276.947c0.352-0.516,0.98-0.948,1.805-0.948c1.311,0,2.188,0.979,2.188,2.466
						c0,1.412-0.867,2.702-2.373,2.702s-2.516-1.249-2.516-3.249c0-2.074,0.969-4.24,3.477-4.652
						c0.287-0.041,0.545-0.072,0.721-0.072l0.01,0.712c-2.145,0-3.166,1.558-3.342,3.042H322.223z M325.348,278.526
						c0-1.187-0.639-1.878-1.566-1.878c-0.908,0-1.6,0.888-1.6,1.465c0.01,1.414,0.609,2.383,1.682,2.383
						C324.76,280.496,325.348,279.691,325.348,278.526z"/>
					<path fill="#4D4D4D" d="M331.407,273.316v0.713h-2.775l-0.32,2.187c0.166-0.021,0.33-0.042,0.598-0.042
						c1.373,0,2.6,0.815,2.6,2.373c0,1.526-1.135,2.62-2.66,2.62c-0.773,0-1.424-0.228-1.775-0.454l0.248-0.67
						c0.289,0.195,0.857,0.433,1.527,0.433c0.969,0,1.805-0.712,1.795-1.825c0-1.063-0.682-1.806-2.125-1.806
						c-0.412,0-0.732,0.031-0.99,0.072l0.484-3.601H331.407z"/>
					<path fill="#4D4D4D" d="M336.04,275.597c0,1.609-0.793,2.383-1.711,2.383c-0.889,0-1.672-0.753-1.672-2.28
						c0-1.547,0.805-2.352,1.723-2.352C335.42,273.348,336.04,274.193,336.04,275.597z M333.358,275.699
						c0,0.939,0.342,1.744,0.99,1.744c0.701,0,0.99-0.815,0.99-1.795c0-0.929-0.258-1.764-0.99-1.764
						C333.647,273.885,333.358,274.813,333.358,275.699z M334.782,281.188h-0.588l4.414-7.86h0.588L334.782,281.188z
						 M340.754,278.753c0,1.599-0.795,2.372-1.713,2.372c-0.887,0-1.67-0.752-1.67-2.279c0-1.547,0.805-2.361,1.723-2.361
						C340.135,276.484,340.754,277.34,340.754,278.753z M338.073,278.805c0,0.98,0.34,1.773,0.99,1.773
						c0.711,0,0.99-0.804,0.99-1.794c0-0.918-0.248-1.765-0.98-1.765C338.381,277.02,338.073,277.918,338.073,278.805z"/>
					<path fill="#4D4D4D" d="M350.588,276.752c-0.02,0.01-0.041,0.021-0.063,0.021c-0.061,0-0.113-0.03-0.154-0.062
						c-0.783,0.258-1.928,0.681-2.785,1.052c0.021,0.237,0.031,0.505,0.031,0.805c0,0.33-0.01,0.701-0.031,1.104l-0.752,0.042
						c0.031-0.372,0.051-0.846,0.051-1.248c0-0.155,0-0.3-0.01-0.413c-1.166,0.567-2.115,1.259-2.115,1.877
						c0,0.599,0.713,0.888,2.135,0.888c1.002,0,1.93-0.021,2.59-0.104l0.01,0.691c-0.607,0.062-1.537,0.082-2.6,0.082
						c-1.98,0-2.855-0.475-2.855-1.526c0-0.907,1.195-1.784,2.742-2.558c-0.061-0.65-0.35-0.971-0.762-0.971
						c-0.754,0-1.537,0.424-2.467,1.455c-0.289,0.32-0.689,0.722-1.135,1.124l-0.504-0.505c1.031-0.908,2-1.774,2.6-3.807
						l-0.578,0.01h-1.723v-0.67c0.629,0.01,1.361,0.01,1.783,0.01l0.703-0.01c0.113-0.475,0.205-0.918,0.277-1.475l1.012,0.123
						c-0.021,0.104-0.104,0.166-0.258,0.186c-0.072,0.413-0.166,0.773-0.258,1.146c0.701-0.011,2.207-0.175,3.547-0.599l0.125,0.691
						c-1.289,0.402-2.848,0.547-3.869,0.578c-0.246,0.773-0.504,1.393-0.742,1.742h0.01c0.455-0.402,1.135-0.67,1.662-0.67
						c0.701,0,1.145,0.506,1.279,1.341c0.865-0.392,1.959-0.815,2.783-1.135L350.588,276.752z"/>
					<path fill="#4D4D4D" d="M354.618,274.596c-0.754,0.496-1.6,0.949-2.455,1.301c-0.084-0.155-0.248-0.413-0.383-0.547
						c1.795-0.691,3.57-1.878,4.436-2.981l1,0.052c-0.02,0.072-0.102,0.113-0.195,0.134c1.031,1.083,2.879,2.136,4.457,2.661
						c-0.145,0.165-0.32,0.412-0.414,0.599c-0.762-0.289-1.607-0.712-2.383-1.187v0.526h-4.063V274.596z M359.258,275.999
						l0.496,0.237c-0.021,0.041-0.063,0.093-0.104,0.134c-0.268,0.495-0.701,1.237-1.115,1.897h1.342v3.662h-0.701v-0.422h-5.086
						v0.422h-0.691v-3.662h4.344c0.309-0.494,0.66-1.113,0.928-1.608h-5.467v-0.619h5.91L359.258,275.999z M359.176,280.889v-2.002
						h-5.086v2.002H359.176z M358.557,274.555c-0.773-0.484-1.475-1.031-1.99-1.568c-0.455,0.517-1.115,1.063-1.877,1.568H358.557z"
						/>
					<path fill="#4D4D4D" d="M369.299,272.791c-0.02,0.093-0.135,0.135-0.268,0.154c-0.113,0.712-0.258,1.393-0.424,2.002
						c1.805,0.34,2.807,1.65,2.807,3.238c0,1.836-1.393,3.012-4.002,3.383c-0.104-0.216-0.217-0.443-0.33-0.629
						c2.279-0.299,3.578-1.227,3.578-2.732c0-1.249-0.793-2.301-2.258-2.58c-0.486,1.59-1.146,2.816-1.867,3.673
						c0.133,0.186,0.309,0.351,0.475,0.505l-0.527,0.506c-0.154-0.154-0.299-0.32-0.443-0.506c-0.67,0.641-1.402,0.96-2.094,0.96
						c-0.908,0-1.465-0.774-1.465-1.897c0-1.403,0.773-2.486,1.816-3.168c-0.197-0.783-0.361-1.64-0.506-2.568l0.99-0.02
						c-0.01,0.092-0.072,0.195-0.217,0.227c0.104,0.711,0.217,1.402,0.361,2.042c1.135-0.567,2.229-0.567,2.691-0.567
						c0.082,0,0.176,0,0.248,0.011c0.164-0.681,0.309-1.444,0.412-2.259L369.299,272.791z M365.649,279.258
						c-0.465-0.752-0.848-1.711-1.156-2.856c-0.65,0.454-1.33,1.269-1.33,2.413c0,0.732,0.277,1.259,0.836,1.259
						C364.637,280.073,365.184,279.702,365.649,279.258z M366.112,278.691c0.619-0.754,1.156-1.805,1.568-3.197
						c-0.113-0.011-0.248-0.011-0.361-0.011c-0.795,0.011-1.568,0.186-2.238,0.557C365.348,277.072,365.678,277.99,366.112,278.691z
						"/>
					<path fill="#4D4D4D" d="M373.286,273.936c0.641,0.041,1.496,0.041,2.197,0.041c0.465,0,0.99-0.01,1.424-0.02
						c-0.01-0.496-0.02-1.073-0.02-1.434l1.041,0.051c-0.01,0.124-0.104,0.186-0.279,0.217c-0.01,0.165,0,0.959,0,1.135
						c1.207-0.063,2.404-0.165,3.426-0.402l0.092,0.681c-1.01,0.228-2.207,0.33-3.518,0.392c0.012,0.619,0.021,1.259,0.041,1.898
						c1.002-0.063,2.074-0.196,2.91-0.402l0.082,0.67c-0.867,0.186-1.949,0.311-2.98,0.361l0.082,1.723
						c0.949,0.31,1.959,0.846,3.033,1.609l-0.455,0.629c-0.928-0.732-1.805-1.227-2.557-1.516c0,0.164,0.01,0.35,0.01,0.484
						c-0.01,0.98-0.598,1.547-1.846,1.547c-1.311,0-2.27-0.536-2.27-1.506c0-0.99,1.123-1.537,2.279-1.537
						c0.34,0,0.701,0.031,1.082,0.124c-0.01-0.443-0.031-0.979-0.041-1.536c-0.33,0.01-0.701,0.02-1,0.02
						c-1.764,0-2.26-0.277-2.26-0.877c0-0.391,0.299-0.711,0.959-1.134l0.496,0.319c-0.465,0.258-0.711,0.484-0.711,0.691
						c0,0.31,0.484,0.371,1.795,0.371c0.227,0,0.463,0,0.689-0.01l-0.061-1.908c-0.443,0.02-0.959,0.02-1.424,0.02
						c-0.66,0-1.6,0-2.219-0.02V273.936z M377.102,279.311c-0.412-0.113-0.793-0.166-1.154-0.166c-0.783,0-1.578,0.32-1.578,0.939
						c0,0.608,0.723,0.907,1.619,0.907c0.814,0,1.125-0.36,1.125-1.083L377.102,279.311z"/>
					<path fill="#4D4D4D" d="M387.877,274.039c-0.01-0.227-0.041-1.352-0.063-1.609l1.063,0.041
						c-0.01,0.083-0.082,0.186-0.268,0.217c0,0.124,0,0.248,0.02,1.331c1.27-0.042,2.6-0.072,3.373-0.083v0.712
						c-0.877-0.021-2.125,0-3.352,0.042c0.02,0.805,0.041,1.547,0.072,2.114c0.104,0.341,0.123,0.649,0.123,1.083
						c0,0.33-0.031,0.711-0.104,1c-0.268,1.207-1.154,2.27-2.971,2.992c-0.133-0.176-0.359-0.434-0.525-0.588
						c1.578-0.568,2.424-1.424,2.682-2.404h-0.01c-0.217,0.311-0.598,0.547-1.063,0.547c-0.918,0-1.732-0.753-1.732-1.805
						c-0.012-1.094,0.877-1.93,1.855-1.93c0.371,0,0.754,0.135,0.961,0.32c0-0.176-0.021-0.866-0.043-1.311
						c-1.072,0.021-4.332,0.135-4.754,0.155l-0.021-0.681l2.352-0.063L387.877,274.039z M388.073,277.66
						c0-0.402,0-1.342-1.053-1.342c-0.711,0.011-1.217,0.558-1.227,1.311c0,0.722,0.547,1.196,1.145,1.196
						C387.67,278.825,388.073,278.258,388.073,277.66z"/>
					<path fill="#4D4D4D" d="M395.979,280.476c0,0.794-0.65,1.444-1.445,1.444c-0.793,0-1.443-0.65-1.443-1.444
						s0.65-1.444,1.443-1.444C395.35,279.031,395.979,279.702,395.979,280.476z M395.608,280.476c0-0.599-0.475-1.073-1.074-1.073
						c-0.588,0-1.061,0.475-1.061,1.073c0,0.588,0.473,1.063,1.061,1.063C395.153,281.538,395.608,281.043,395.608,280.476z"/>
				</g>
			</g>
		</g>
	</g>
	<g>
		
			<image overflow="visible" opacity="0.79" width="1129" height="1129" xlink:href="313BBE05.png"  transform="matrix(0.24 0 0 0.24 -7.7139 33.0088)">
		</image>
		<g>
			<circle fill="#FFFFFF" cx="127.736" cy="168.459" r="104.49"/>
		</g>
	</g>
	<g>
		<g>
			<g>
				<g>
					<path fill="#DAECF0" d="M128.436,168.146L94.291,63.06c11.607-3.771,21.939-5.407,34.145-5.407V168.146z"/>
				</g>
			</g>
			<g>
				<g>
					<path fill="#D1DEE4" d="M128.436,168.146L63.488,78.754c9.874-7.174,19.194-11.922,30.803-15.694L128.436,168.146z"/>
				</g>
			</g>
			<g>
				<g>
					<path fill="#BFD2DA" d="M128.436,168.146l-93.706-58.553c7.763-12.422,16.909-22.23,28.759-30.84L128.436,168.146z"/>
				</g>
			</g>
			<g>
				<g>
					<path fill="#A2BBC4" d="M128.436,168.146l-110.344-5.783c1.021-19.5,6.29-36.209,16.638-52.77L128.436,168.146z"/>
				</g>
			</g>
			<g>
				<g>
					<path fill="#93B8C5" d="M128.436,168.146l-79.484,76.756c-22.043-22.826-32.52-50.85-30.859-82.539L128.436,168.146z"/>
				</g>
			</g>
			<g>
				<g>
					<path fill="#81AAB9" d="M128.436,168.146l7.707,110.227c-34.09,2.383-63.451-8.887-87.191-33.471L128.436,168.146z"/>
				</g>
			</g>
			<g>
				<g>
					<path fill="#789CAA" d="M128.436,168.146l89.391,64.947c-20.086,27.646-47.593,42.895-81.684,45.279L128.436,168.146z"/>
				</g>
			</g>
			<g>
				<g>
					<path fill="#6C8D99" d="M128.436,168.146l102.45-41.392c14.629,36.212,9.898,74.742-13.059,106.339L128.436,168.146z"/>
				</g>
			</g>
			<g>
				<g>
					<path fill="#5E7C85" d="M128.436,168.146V57.652c46.379,0,85.075,26.1,102.45,69.103L128.436,168.146z"/>
				</g>
			</g>
		</g>
		<g>
			<g>
			</g>
			<g>
			</g>
			<g>
			</g>
			<g>
			</g>
			<g>
			</g>
			<g>
			</g>
			<g>
			</g>
			<g>
			</g>
			<g>
			</g>
		</g>
	</g>
	<g>
		<g>
			<g opacity="0.39">
				<rect x="156.905" y="94.81" width="31.297" height="19.686"/>
				<rect x="156.905" y="94.81" width="31.297" height="19.686"/>
				<rect x="156.905" y="94.81" width="31.297" height="19.686"/>
			</g>
			<g>
				<g>
					<rect x="155.177" y="93.945" fill="#AF7436" width="31.297" height="19.686"/>
					<rect x="155.177" y="93.945" fill="#AF7436" width="31.297" height="19.686"/>
					
						<pattern  id="SVGID_2_" xlink:href="#譁ｰ隕上ヱ繧ｿ繝ｼ繝ｳ繧ｹ繧ｦ繧ｩ繝メ_2" patternTransform="matrix(0.9855 0 0 0.9421 -102.8335 -417.8325)">
					</pattern>
					<rect x="155.177" y="93.945" fill="url(#SVGID_2_)" width="31.297" height="19.686"/>
				</g>
			</g>
		</g>
		<g>
			<g>
				<g>
					<g>
						<path fill="#FFFFFF" d="M160.154,109.04V99.6h-0.028l-1.73,0.999l-0.281-0.872l2.181-1.224h0.999v10.538H160.154z"/>
						<path fill="#FFFFFF" d="M170.236,104.06c-0.577,0.732-1.393,1.168-2.42,1.168c-1.801,0-2.912-1.407-2.912-3.194
							c0-1.927,1.267-3.7,3.334-3.7c1.97,0,3.222,1.716,3.222,4.403c0,3.503-1.772,5.937-4.474,6.359
							c-0.492,0.084-0.942,0.113-1.252,0.099v-0.971c0.296,0.028,0.633-0.014,1.083-0.07c1.773-0.253,3.109-1.688,3.461-4.094
							H170.236z M166.086,101.963c0,1.421,0.802,2.378,2.012,2.378c1.14,0,2.181-0.873,2.181-1.716c0-2.026-0.745-3.391-2.138-3.391
							C166.916,99.234,166.086,100.388,166.086,101.963z"/>
						<path fill="#FFFFFF" d="M177.111,101.612c0,2.195-1.083,3.25-2.335,3.25c-1.21,0-2.279-1.027-2.279-3.109
							c0-2.11,1.098-3.208,2.35-3.208C176.268,98.545,177.111,99.698,177.111,101.612z M173.454,101.752
							c0,1.28,0.464,2.377,1.351,2.377c0.956,0,1.351-1.111,1.351-2.448c0-1.266-0.352-2.406-1.351-2.406
							C173.848,99.276,173.454,100.542,173.454,101.752z M175.396,109.237h-0.802l6.021-10.72h0.802L175.396,109.237z
							 M183.541,105.917c0,2.181-1.083,3.235-2.335,3.235c-1.21,0-2.279-1.027-2.279-3.109c0-2.11,1.098-3.222,2.35-3.222
							C182.697,102.822,183.541,103.989,183.541,105.917z M179.884,105.987c0,1.336,0.464,2.419,1.35,2.419
							c0.972,0,1.352-1.097,1.352-2.448c0-1.252-0.338-2.406-1.337-2.406C180.306,103.553,179.884,104.777,179.884,105.987z"/>
					</g>
				</g>
			</g>
		</g>
	</g>
	<g>
		<g>
			<g opacity="0.39">
				<rect x="187.801" y="166.239" width="31.297" height="19.685"/>
				<rect x="187.801" y="166.239" width="31.297" height="19.685"/>
				<rect x="187.801" y="166.239" width="31.297" height="19.685"/>
			</g>
			<g>
				<g>
					<rect x="186.072" y="165.375" fill="#AF7436" width="31.297" height="19.685"/>
					<rect x="186.072" y="165.375" fill="#AF7436" width="31.297" height="19.685"/>
					
						<pattern  id="SVGID_3_" xlink:href="#譁ｰ隕上ヱ繧ｿ繝ｼ繝ｳ繧ｹ繧ｦ繧ｩ繝メ_2" patternTransform="matrix(0.9855 0 0 0.9421 -101.1323 -415.3462)">
					</pattern>
					<rect x="186.072" y="165.375" fill="url(#SVGID_3_)" width="31.297" height="19.685"/>
				</g>
			</g>
		</g>
		<g>
			<g>
				<g>
					<g>
						<path fill="#FFFFFF" d="M191.058,180.469v-9.439h-0.028l-1.73,0.998l-0.281-0.872l2.181-1.224h0.999v10.537H191.058z"/>
						<path fill="#FFFFFF" d="M196.919,174.883c0.479-0.703,1.337-1.293,2.462-1.293c1.787,0,2.983,1.336,2.983,3.361
							c0,1.928-1.182,3.687-3.236,3.687s-3.433-1.702-3.433-4.432c0-2.828,1.322-5.782,4.741-6.345
							c0.394-0.057,0.745-0.099,0.984-0.099l0.015,0.971c-2.927,0-4.32,2.124-4.559,4.149H196.919z M201.182,177.036
							c0-1.618-0.872-2.561-2.138-2.561c-1.238,0-2.181,1.21-2.181,1.997c0.014,1.928,0.83,3.25,2.293,3.25
							C200.38,179.723,201.182,178.626,201.182,177.036z"/>
						<path fill="#FFFFFF" d="M208,173.041c0,2.194-1.082,3.25-2.334,3.25c-1.211,0-2.279-1.027-2.279-3.109
							c0-2.111,1.098-3.208,2.35-3.208C207.157,169.974,208,171.127,208,173.041z M204.344,173.182c0,1.279,0.463,2.377,1.35,2.377
							c0.957,0,1.352-1.111,1.352-2.447c0-1.267-0.352-2.406-1.352-2.406C204.737,170.705,204.344,171.971,204.344,173.182z
							 M206.286,180.666h-0.803l6.021-10.721h0.803L206.286,180.666z M214.43,177.346c0,2.181-1.082,3.235-2.334,3.235
							c-1.211,0-2.279-1.026-2.279-3.108c0-2.111,1.098-3.223,2.35-3.223C213.586,174.25,214.43,175.418,214.43,177.346z
							 M210.774,177.416c0,1.336,0.463,2.42,1.35,2.42c0.971,0,1.352-1.098,1.352-2.448c0-1.252-0.338-2.405-1.338-2.405
							C211.196,174.982,210.774,176.206,210.774,177.416z"/>
					</g>
				</g>
			</g>
		</g>
	</g>
	<g>
		<g>
			<g opacity="0.39">
				<rect x="151.505" y="224.298" width="31.299" height="19.686"/>
				<rect x="151.505" y="224.298" width="31.299" height="19.686"/>
				<rect x="151.505" y="224.298" width="31.299" height="19.686"/>
			</g>
			<g>
				<g>
					<rect x="149.776" y="223.434" fill="#AF7436" width="31.299" height="19.686"/>
					<rect x="149.776" y="223.434" fill="#AF7436" width="31.299" height="19.686"/>
					
						<pattern  id="SVGID_4_" xlink:href="#譁ｰ隕上ヱ繧ｿ繝ｼ繝ｳ繧ｹ繧ｦ繧ｩ繝メ_2" patternTransform="matrix(0.9855 0 0 0.9421 -102.7891 -416.1694)">
					</pattern>
					<rect x="149.776" y="223.434" fill="url(#SVGID_4_)" width="31.299" height="19.686"/>
				</g>
			</g>
		</g>
		<g>
			<g>
				<g>
					<g>
						<path fill="#FFFFFF" d="M154.763,238.527v-9.439h-0.028l-1.73,0.998l-0.281-0.872l2.181-1.224h0.999v10.537H154.763z"/>
						<path fill="#FFFFFF" d="M164.845,238.527h-1.111v-2.955h-4.601v-0.745l4.502-6.837h1.21v6.682h1.436v0.9h-1.436V238.527z
							 M160.314,234.672h3.419v-3.742c0-0.576,0.028-1.139,0.057-1.688h-0.057c-0.323,0.646-0.577,1.098-0.844,1.576l-2.575,3.826
							V234.672z"/>
						<path fill="#FFFFFF" d="M171.706,231.1c0,2.194-1.083,3.25-2.335,3.25c-1.21,0-2.279-1.027-2.279-3.109
							c0-2.111,1.098-3.208,2.35-3.208C170.862,228.032,171.706,229.186,171.706,231.1z M168.049,231.24
							c0,1.279,0.464,2.377,1.351,2.377c0.956,0,1.351-1.111,1.351-2.447c0-1.267-0.352-2.406-1.351-2.406
							C168.442,228.764,168.049,230.029,168.049,231.24z M169.99,238.725h-0.802l6.021-10.721h0.802L169.99,238.725z
							 M178.136,235.404c0,2.181-1.083,3.235-2.335,3.235c-1.21,0-2.279-1.026-2.279-3.108c0-2.111,1.098-3.223,2.35-3.223
							C177.292,232.309,178.136,233.477,178.136,235.404z M174.478,235.475c0,1.336,0.465,2.42,1.352,2.42
							c0.971,0,1.35-1.098,1.35-2.448c0-1.252-0.337-2.405-1.336-2.405C174.9,233.041,174.478,234.265,174.478,235.475z"/>
					</g>
				</g>
			</g>
		</g>
	</g>
	<g>
		<g>
			<g opacity="0.39">
				<rect x="88.859" y="224.687" width="31.298" height="19.687"/>
				<rect x="88.859" y="224.687" width="31.298" height="19.687"/>
				<rect x="88.859" y="224.687" width="31.298" height="19.687"/>
			</g>
			<g>
				<g>
					<rect x="87.131" y="223.822" fill="#AF7436" width="31.298" height="19.687"/>
					<rect x="87.131" y="223.822" fill="#AF7436" width="31.298" height="19.687"/>
					
						<pattern  id="SVGID_5_" xlink:href="#譁ｰ隕上ヱ繧ｿ繝ｼ繝ｳ繧ｹ繧ｦ繧ｩ繝メ_2" patternTransform="matrix(0.9855 0 0 0.9421 -102.7891 -416.1694)">
					</pattern>
					<rect x="87.131" y="223.822" fill="url(#SVGID_5_)" width="31.298" height="19.687"/>
				</g>
			</g>
		</g>
		<g>
			<g>
				<g>
					<g>
						<path fill="#FFFFFF" d="M92.117,238.918v-9.439h-0.028l-1.73,0.998l-0.281-0.872l2.181-1.224h0.999v10.537H92.117z"/>
						<path fill="#FFFFFF" d="M102.199,238.918h-1.111v-2.955h-4.601v-0.745l4.502-6.837h1.21v6.682h1.435v0.9h-1.435V238.918z
							 M97.669,235.063h3.419v-3.742c0-0.576,0.028-1.139,0.057-1.688h-0.057c-0.323,0.646-0.577,1.098-0.844,1.576l-2.575,3.826
							V235.063z"/>
						<path fill="#FFFFFF" d="M109.061,231.49c0,2.194-1.083,3.25-2.335,3.25c-1.21,0-2.279-1.027-2.279-3.109
							c0-2.111,1.098-3.208,2.35-3.208C108.217,228.423,109.061,229.576,109.061,231.49z M105.403,231.631
							c0,1.279,0.464,2.377,1.351,2.377c0.956,0,1.351-1.111,1.351-2.447c0-1.267-0.352-2.406-1.351-2.406
							C105.797,229.154,105.403,230.42,105.403,231.631z M107.345,239.115h-0.802l6.021-10.721h0.802L107.345,239.115z
							 M115.49,235.795c0,2.181-1.083,3.235-2.335,3.235c-1.21,0-2.279-1.026-2.279-3.108c0-2.111,1.098-3.223,2.35-3.223
							C114.646,232.699,115.49,233.867,115.49,235.795z M111.833,235.865c0,1.336,0.464,2.42,1.35,2.42
							c0.972,0,1.352-1.098,1.352-2.448c0-1.252-0.338-2.405-1.337-2.405C112.255,233.432,111.833,234.655,111.833,235.865z"/>
					</g>
				</g>
			</g>
		</g>
	</g>
	<g>
		<g>
			<g opacity="0.39">
				<rect x="43.147" y="182.031" width="31.297" height="19.686"/>
				<rect x="43.147" y="182.031" width="31.297" height="19.686"/>
				<rect x="43.147" y="182.031" width="31.297" height="19.686"/>
			</g>
			<g>
				<g>
					<rect x="41.419" y="181.167" fill="#AF7436" width="31.297" height="19.686"/>
					<rect x="41.419" y="181.167" fill="#AF7436" width="31.297" height="19.686"/>
					
						<pattern  id="SVGID_6_" xlink:href="#譁ｰ隕上ヱ繧ｿ繝ｼ繝ｳ繧ｹ繧ｦ繧ｩ繝メ_2" patternTransform="matrix(0.9855 0 0 0.9421 -102.7891 -416.1694)">
					</pattern>
					<rect x="41.419" y="181.167" fill="url(#SVGID_6_)" width="31.297" height="19.686"/>
				</g>
			</g>
		</g>
		<g>
			<g>
				<g>
					<g>
						<path fill="#FFFFFF" d="M46.404,196.177v-9.44h-0.028l-1.73,0.999l-0.281-0.872l2.181-1.225h0.999v10.538H46.404z"/>
						<path fill="#FFFFFF" d="M54.911,190.479c1.237,0.211,2.293,1.211,2.293,2.73c0,1.674-1.21,3.137-3.573,3.137
							c-1.056,0-2.013-0.338-2.49-0.676l0.352-0.9c0.38,0.254,1.224,0.633,2.152,0.633c1.772,0,2.35-1.237,2.35-2.208
							c0-1.548-1.309-2.251-2.688-2.251h-0.689v-0.873h0.689c1.013,0,2.321-0.633,2.321-1.955c0-0.914-0.549-1.702-1.814-1.702
							c-0.773,0-1.506,0.38-1.928,0.689l-0.352-0.858c0.507-0.394,1.491-0.787,2.504-0.787c1.928,0,2.786,1.224,2.786,2.49
							c0,1.082-0.689,2.053-1.913,2.489V190.479z"/>
						<path fill="#FFFFFF" d="M63.348,188.748c0,2.195-1.083,3.25-2.335,3.25c-1.21,0-2.279-1.027-2.279-3.109
							c0-2.109,1.098-3.207,2.35-3.207C62.504,185.682,63.348,186.835,63.348,188.748z M59.69,188.889
							c0,1.281,0.464,2.378,1.351,2.378c0.956,0,1.351-1.111,1.351-2.448c0-1.266-0.352-2.405-1.351-2.405
							C60.084,186.413,59.69,187.68,59.69,188.889z M61.632,196.373H60.83l6.021-10.72h0.802L61.632,196.373z M69.777,193.054
							c0,2.181-1.083,3.235-2.335,3.235c-1.21,0-2.279-1.027-2.279-3.109c0-2.109,1.098-3.221,2.35-3.221
							C68.934,189.959,69.777,191.126,69.777,193.054z M66.12,193.124c0,1.337,0.464,2.419,1.35,2.419
							c0.972,0,1.352-1.097,1.352-2.447c0-1.252-0.338-2.406-1.337-2.406C66.542,190.689,66.12,191.914,66.12,193.124z"/>
					</g>
				</g>
			</g>
		</g>
	</g>
	<g>
		<g>
			<g opacity="0.39">
				<rect x="58.521" y="106.736" width="23.197" height="19.687"/>
				<rect x="58.521" y="106.736" width="23.197" height="19.687"/>
				<rect x="58.521" y="106.736" width="23.197" height="19.687"/>
			</g>
			<g>
				<g>
					<rect x="57.032" y="105.992" fill="#AF7436" width="23.197" height="19.687"/>
					<rect x="57.032" y="105.992" fill="#AF7436" width="23.197" height="19.687"/>
					
						<pattern  id="SVGID_7_" xlink:href="#譁ｰ隕上ヱ繧ｿ繝ｼ繝ｳ繧ｹ繧ｦ繧ｩ繝メ_2" patternTransform="matrix(0.9855 0 0 0.9421 -106.6064 -421.0532)">
					</pattern>
					<rect x="57.032" y="105.992" fill="url(#SVGID_7_)" width="23.197" height="19.687"/>
				</g>
			</g>
		</g>
		<g>
			<g>
				<g>
					<g>
						<path fill="#FFFFFF" d="M60.49,115.501c0.479-0.703,1.337-1.294,2.462-1.294c1.787,0,2.982,1.336,2.982,3.362
							c0,1.927-1.182,3.686-3.235,3.686s-3.433-1.703-3.433-4.432c0-2.828,1.322-5.782,4.741-6.345
							c0.394-0.056,0.745-0.098,0.984-0.098l0.015,0.971c-2.927,0-4.319,2.124-4.559,4.15H60.49z M64.753,117.654
							c0-1.618-0.872-2.561-2.138-2.561c-1.238,0-2.181,1.21-2.181,1.998c0.014,1.928,0.83,3.25,2.293,3.25
							C63.951,120.341,64.753,119.244,64.753,117.654z"/>
						<path fill="#FFFFFF" d="M71.571,113.659c0,2.195-1.083,3.25-2.335,3.25c-1.21,0-2.279-1.027-2.279-3.109
							c0-2.11,1.098-3.208,2.35-3.208C70.728,110.592,71.571,111.745,71.571,113.659z M67.914,113.799
							c0,1.28,0.464,2.377,1.351,2.377c0.956,0,1.351-1.111,1.351-2.448c0-1.266-0.352-2.406-1.351-2.406
							C68.308,111.323,67.914,112.589,67.914,113.799z M69.855,121.284h-0.802l6.021-10.72h0.802L69.855,121.284z M78.001,117.964
							c0,2.181-1.083,3.235-2.335,3.235c-1.21,0-2.279-1.027-2.279-3.109c0-2.11,1.098-3.222,2.35-3.222
							C77.157,114.869,78.001,116.036,78.001,117.964z M74.344,118.034c0,1.336,0.464,2.419,1.35,2.419
							c0.972,0,1.352-1.097,1.352-2.448c0-1.252-0.338-2.406-1.337-2.406C74.766,115.6,74.344,116.824,74.344,118.034z"/>
					</g>
				</g>
			</g>
		</g>
	</g>
	<g>
		<g>
			<g opacity="0.39">
				<rect x="45.401" y="136.039" width="23.197" height="19.687"/>
				<rect x="45.401" y="136.039" width="23.197" height="19.687"/>
				<rect x="45.401" y="136.039" width="23.197" height="19.687"/>
			</g>
			<g>
				<g>
					<rect x="43.913" y="135.295" fill="#AF7436" width="23.197" height="19.687"/>
					<rect x="43.913" y="135.295" fill="#AF7436" width="23.197" height="19.687"/>
					
						<pattern  id="SVGID_8_" xlink:href="#譁ｰ隕上ヱ繧ｿ繝ｼ繝ｳ繧ｹ繧ｦ繧ｩ繝メ_2" patternTransform="matrix(0.9855 0 0 0.9421 -106.6064 -421.0532)">
					</pattern>
					<rect x="43.913" y="135.295" fill="url(#SVGID_8_)" width="23.197" height="19.687"/>
				</g>
			</g>
		</g>
		<g>
			<g>
				<g>
					<g>
						<path fill="#FFFFFF" d="M48.243,144.804c-1.14-0.548-1.646-1.477-1.646-2.377c0-1.632,1.28-2.743,2.982-2.743
							c1.913,0,2.828,1.294,2.828,2.561c0,0.9-0.479,1.885-1.73,2.49v0.057c1.294,0.548,2.096,1.491,2.096,2.757
							c0,1.787-1.463,3.011-3.32,3.011c-2.012,0-3.25-1.28-3.25-2.8c0-1.365,0.816-2.35,2.04-2.898V144.804z M51.578,147.674
							c0-1.322-0.887-1.998-2.279-2.448c-1.238,0.408-1.899,1.308-1.899,2.35c0,1.196,0.802,2.11,2.068,2.11
							C50.818,149.686,51.578,148.772,51.578,147.674z M47.709,142.314c-0.014,1.125,0.788,1.744,1.955,2.096
							c0.915-0.352,1.604-1.069,1.604-2.068c0-0.886-0.493-1.801-1.73-1.801C48.313,140.542,47.709,141.4,47.709,142.314z"/>
						<path fill="#FFFFFF" d="M58.452,142.961c0,2.195-1.083,3.25-2.335,3.25c-1.21,0-2.279-1.027-2.279-3.109
							c0-2.11,1.098-3.208,2.35-3.208C57.608,139.895,58.452,141.048,58.452,142.961z M54.795,143.102
							c0,1.28,0.464,2.377,1.351,2.377c0.956,0,1.351-1.111,1.351-2.448c0-1.266-0.352-2.406-1.351-2.406
							C55.188,140.626,54.795,141.892,54.795,143.102z M56.736,150.586h-0.802l6.021-10.72h0.802L56.736,150.586z M64.882,147.267
							c0,2.181-1.083,3.235-2.335,3.235c-1.21,0-2.279-1.027-2.279-3.109c0-2.11,1.098-3.222,2.35-3.222
							C64.038,144.171,64.882,145.339,64.882,147.267z M61.225,147.337c0,1.336,0.464,2.419,1.35,2.419
							c0.972,0,1.352-1.097,1.352-2.448c0-1.252-0.338-2.406-1.337-2.406C61.646,144.903,61.225,146.127,61.225,147.337z"/>
					</g>
				</g>
			</g>
		</g>
	</g>
	<g>
		<g>
			<g opacity="0.39">
				<rect x="79.06" y="82.542" width="23.196" height="19.687"/>
				<rect x="79.06" y="82.542" width="23.196" height="19.687"/>
				<rect x="79.06" y="82.542" width="23.196" height="19.687"/>
			</g>
			<g>
				<g>
					<rect x="77.571" y="81.798" fill="#AF7436" width="23.196" height="19.687"/>
					<rect x="77.571" y="81.798" fill="#AF7436" width="23.196" height="19.687"/>
					
						<pattern  id="SVGID_9_" xlink:href="#譁ｰ隕上ヱ繧ｿ繝ｼ繝ｳ繧ｹ繧ｦ繧ｩ繝メ_2" patternTransform="matrix(0.9855 0 0 0.9421 -106.6064 -421.0532)">
					</pattern>
					<rect x="77.571" y="81.798" fill="url(#SVGID_9_)" width="23.196" height="19.687"/>
				</g>
			</g>
		</g>
		<g>
			<g>
				<g>
					<g>
						<path fill="#FFFFFF" d="M85.756,86.271v0.971h-3.784l-0.437,2.982c0.226-0.028,0.45-0.057,0.816-0.057
							c1.871,0,3.545,1.112,3.545,3.236c0,2.083-1.548,3.574-3.63,3.574c-1.055,0-1.941-0.31-2.42-0.619l0.338-0.915
							c0.394,0.268,1.168,0.591,2.082,0.591c1.322,0,2.462-0.971,2.448-2.49c0-1.449-0.929-2.462-2.898-2.462
							c-0.563,0-0.999,0.042-1.351,0.099l0.661-4.91H85.756z"/>
						<path fill="#FFFFFF" d="M92.067,89.38c0,2.195-1.083,3.25-2.335,3.25c-1.21,0-2.279-1.027-2.279-3.109
							c0-2.11,1.098-3.208,2.35-3.208C91.224,86.313,92.067,87.467,92.067,89.38z M88.41,89.521c0,1.28,0.464,2.377,1.351,2.377
							c0.956,0,1.351-1.111,1.351-2.448c0-1.266-0.352-2.406-1.351-2.406C88.804,87.045,88.41,88.311,88.41,89.521z M90.352,97.005
							H89.55l6.021-10.72h0.802L90.352,97.005z M98.497,93.686c0,2.181-1.083,3.235-2.335,3.235c-1.21,0-2.279-1.027-2.279-3.109
							c0-2.11,1.098-3.222,2.35-3.222C97.653,90.59,98.497,91.758,98.497,93.686z M94.84,93.756c0,1.336,0.464,2.419,1.35,2.419
							c0.972,0,1.352-1.097,1.352-2.448c0-1.252-0.338-2.406-1.337-2.406C95.262,91.322,94.84,92.546,94.84,93.756z"/>
					</g>
				</g>
			</g>
		</g>
	</g>
	<g>
		<g>
			<g opacity="0.39">
				<rect x="105.744" y="67.699" width="23.197" height="19.686"/>
				<rect x="105.744" y="67.699" width="23.197" height="19.686"/>
				<rect x="105.744" y="67.699" width="23.197" height="19.686"/>
			</g>
			<g>
				<g>
					<rect x="104.256" y="66.955" fill="#AF7436" width="23.197" height="19.686"/>
					<rect x="104.256" y="66.955" fill="#AF7436" width="23.197" height="19.686"/>
					
						<pattern  id="SVGID_10_" xlink:href="#譁ｰ隕上ヱ繧ｿ繝ｼ繝ｳ繧ｹ繧ｦ繧ｩ繝メ_2" patternTransform="matrix(0.9855 0 0 0.9421 -106.6064 -421.0532)">
					</pattern>
					<rect x="104.256" y="66.955" fill="url(#SVGID_10_)" width="23.197" height="19.686"/>
				</g>
			</g>
		</g>
		<g>
			<g>
				<g>
					<g>
						<path fill="#FFFFFF" d="M112.441,71.427v0.971h-3.784l-0.437,2.982c0.226-0.028,0.45-0.057,0.816-0.057
							c1.871,0,3.545,1.112,3.545,3.236c0,2.083-1.548,3.574-3.63,3.574c-1.055,0-1.941-0.31-2.42-0.619l0.338-0.915
							c0.394,0.268,1.168,0.591,2.082,0.591c1.322,0,2.462-0.971,2.448-2.49c0-1.449-0.929-2.462-2.898-2.462
							c-0.563,0-0.999,0.042-1.351,0.099l0.661-4.91H112.441z"/>
						<path fill="#FFFFFF" d="M118.753,74.537c0,2.195-1.083,3.25-2.335,3.25c-1.21,0-2.279-1.027-2.279-3.109
							c0-2.11,1.098-3.208,2.35-3.208C117.909,71.47,118.753,72.623,118.753,74.537z M115.096,74.677
							c0,1.28,0.464,2.377,1.351,2.377c0.956,0,1.351-1.111,1.351-2.448c0-1.266-0.352-2.406-1.351-2.406
							C115.489,72.201,115.096,73.467,115.096,74.677z M117.037,82.162h-0.802l6.021-10.72h0.802L117.037,82.162z M125.183,78.842
							c0,2.181-1.083,3.235-2.335,3.235c-1.21,0-2.279-1.027-2.279-3.109c0-2.11,1.098-3.222,2.35-3.222
							C124.339,75.747,125.183,76.914,125.183,78.842z M121.525,78.912c0,1.336,0.464,2.419,1.35,2.419
							c0.972,0,1.352-1.097,1.352-2.448c0-1.252-0.338-2.406-1.337-2.406C121.947,76.478,121.525,77.702,121.525,78.912z"/>
					</g>
				</g>
			</g>
		</g>
	</g>
	<rect x="280.141" y="84.171" opacity="0.33" fill="#FFFFFF" width="110.654" height="171.615"/>
	<g>
		<g>
			<g>
				<g>
					<path fill="#4D4D4D" d="M303.971,92.083h3.939v0.608h-7.438v2.765c0,1.588-0.195,3.785-1.475,5.229
						c-0.104-0.145-0.361-0.382-0.494-0.464c0.834-0.938,1.145-2.146,1.258-3.301c-0.434,0.268-0.836,0.505-1.145,0.681
						c0.01,0.072-0.031,0.144-0.104,0.175l-0.299-0.702c0.422-0.196,0.99-0.495,1.598-0.825c0.012-0.278,0.012-0.536,0.012-0.794
						v-3.373h3.424v-1.001l0.928,0.062c-0.01,0.072-0.072,0.124-0.205,0.145V92.083z M298.917,92.98
						c0.33,0.649,0.629,1.485,0.701,2.011c-0.424,0.196-0.496,0.216-0.568,0.248c-0.072-0.537-0.35-1.393-0.67-2.053L298.917,92.98z
						 M301,97.643v-1.97h2.898v1.97H301z M306.694,99.675v-1.393l0.855,0.051c-0.01,0.072-0.072,0.124-0.205,0.134v2.197h-0.65
						v-0.392h-4.92v0.392h-0.65v-2.383l0.855,0.051c-0.01,0.072-0.072,0.124-0.205,0.134v1.207h2.104v-1.898l0.867,0.062
						c-0.012,0.062-0.063,0.114-0.197,0.134v1.702H306.694z M301.545,96.167v0.97h1.785v-0.97H301.545z M306.282,93.249v1.98h-4.004
						v-1.98H306.282z M305.651,94.734v-0.99h-2.773v0.99H305.651z M304.588,97.643v-1.97h3.002v1.97H304.588z M305.135,96.167v0.97
						h1.879v-0.97H305.135z"/>
				</g>
			</g>
		</g>
	</g>
	<g>
		<g>
			<g>
				<g>
					<path fill="#4D4D4D" d="M298.112,117.023c0.723-0.918,1.072-2.476,1.217-3.827l0.67,0.145
						c-0.164,1.382-0.504,3.063-1.258,4.064L298.112,117.023z M301.061,112.341l0.908,0.062c-0.01,0.072-0.063,0.124-0.195,0.134
						v5.106c0,0.485,0.113,0.578,0.711,0.578h2.031c0.641,0,0.744-0.382,0.816-2.228c0.174,0.134,0.453,0.258,0.66,0.32
						c-0.104,1.97-0.33,2.558-1.455,2.558h-2.104c-1.074,0-1.373-0.268-1.373-1.238V112.341z M304.764,111.814
						c-0.814-0.588-2.352-1.361-3.619-1.805l0.432-0.537c1.26,0.433,2.797,1.186,3.621,1.733L304.764,111.814z M307.374,117.096
						c-0.246-1.104-1.031-2.733-1.928-3.93l0.619-0.299c0.938,1.197,1.732,2.795,2,3.91L307.374,117.096z"/>
					<path fill="#4D4D4D" d="M310.969,111.278v2.486c0,1.62-0.207,3.827-1.65,5.271c-0.094-0.134-0.361-0.372-0.506-0.464
						c0.887-0.897,1.26-2.042,1.402-3.146c-0.484,0.268-0.938,0.537-1.268,0.712c0,0.083-0.053,0.145-0.104,0.175l-0.309-0.712
						c0.463-0.206,1.092-0.536,1.742-0.887c0.021-0.33,0.031-0.649,0.031-0.959v-3.105h3.26v-1.217l0.928,0.062
						c-0.01,0.072-0.072,0.124-0.205,0.145v1.011h3.918v0.629H310.969z M309.237,111.495c0.371,0.598,0.742,1.402,0.855,1.908
						l-0.566,0.299c-0.113-0.516-0.455-1.341-0.816-1.96L309.237,111.495z M318.127,115.734h-2.836
						c0.465,1.413,1.424,2.311,3.002,2.703c-0.156,0.134-0.352,0.402-0.443,0.598c-1.578-0.475-2.539-1.393-3.064-2.878
						c-0.33,1.042-1.186,2.094-3.363,2.888c-0.092-0.155-0.287-0.392-0.453-0.537c2.248-0.753,2.98-1.794,3.219-2.774h-2.889v-0.629
						h2.98c0.012-0.134,0.012-0.268,0.012-0.402v-1.372h-1.465c-0.248,0.588-0.537,1.114-0.846,1.516
						c-0.125-0.103-0.383-0.268-0.547-0.351c0.557-0.691,1.021-1.857,1.289-3.001l0.836,0.227c-0.031,0.062-0.094,0.104-0.217,0.104
						c-0.084,0.299-0.176,0.598-0.279,0.887h4.662v0.619h-2.744v1.382c0,0.124,0,0.258-0.01,0.392h3.156V115.734z"/>
					<path fill="#4D4D4D" d="M321,116.528c-0.238,0.908-0.641,1.733-1.518,2.187l-0.557-0.402c0.805-0.413,1.258-1.145,1.455-1.98
						L321,116.528z M320.442,115.219v0.351h-0.66v-2.465h3.57v-0.712h-3.074v-2.073h3.074v-0.897l0.887,0.052
						c-0.01,0.072-0.072,0.124-0.207,0.145v0.701h3.156v2.073h-3.156v0.712h3.643v2.445h-0.682v-0.33h-2.961v0.763h-0.504
						c0.453,0.289,0.887,0.619,1.133,0.897l-0.484,0.423c-0.35-0.413-1.113-0.959-1.783-1.31l0.463-0.392
						c0.166,0.083,0.33,0.175,0.496,0.268v-0.649H320.442z M323.352,113.641h-2.91v1.042h2.91V113.641z M320.938,111.866h2.414
						v-1.011h-2.414V111.866z M322.381,117.932c0,0.258,0.084,0.299,0.641,0.299h1.918c0.443,0,0.516-0.124,0.557-1.063
						c0.154,0.114,0.443,0.217,0.629,0.258c-0.082,1.166-0.309,1.434-1.123,1.434h-2.021c-1.031,0-1.291-0.186-1.291-0.928v-1.579
						l0.889,0.052c-0.012,0.072-0.063,0.124-0.197,0.145V117.932z M326.499,110.855h-2.467v1.011h2.467V110.855z M326.993,113.641
						h-2.961v1.042h2.961V113.641z M327.911,118.664c-0.33-0.629-1.125-1.496-1.898-2.083l0.559-0.33
						c0.773,0.567,1.588,1.403,1.938,2.042L327.911,118.664z"/>
				</g>
			</g>
		</g>
	</g>
	<g>
		<g>
			<g>
				<g>
					<path fill="#4D4D4D" d="M301.991,129.535v0.578h-3.715v-0.578H301.991z M301.702,133.743v3.032h-2.373v0.485h-0.598v-3.517
						H301.702z M301.69,130.938v0.567h-2.949v-0.567H301.69z M298.741,132.907v-0.567h2.949v0.567H298.741z M301.649,128.163v0.567
						h-2.857v-0.567H301.649z M301.092,134.331h-1.764v1.856h1.764V134.331z M303.239,134.3c-0.125,0.897-0.352,1.877-0.908,2.455
						l-0.525-0.351c0.504-0.505,0.752-1.413,0.855-2.259L303.239,134.3z M305.043,128.792c-0.082,0.443-0.186,0.918-0.34,1.382
						c0.494,0.248,0.947,0.506,1.268,0.732l-0.35,0.547c-0.289-0.217-0.703-0.464-1.156-0.712c-0.371,0.784-0.949,1.496-1.918,1.98
						c-0.082-0.145-0.289-0.381-0.434-0.495c0.887-0.423,1.434-1.063,1.785-1.774c-0.465-0.227-0.949-0.433-1.393-0.588l0.34-0.495
						c0.412,0.144,0.846,0.32,1.279,0.516c0.123-0.361,0.205-0.732,0.268-1.093h-1.805v-0.599h4.342l0.299-0.01l0.373,0.042
						c-0.063,0.402-0.063,3.476-0.486,3.951c-0.246,0.299-0.504,0.299-0.99,0.299c-0.258,0-0.576-0.01-0.896-0.031
						c-0.01-0.186-0.072-0.443-0.186-0.608c0.547,0.041,0.773,0.041,1.238,0.041c0.123,0,0.195-0.021,0.268-0.103
						c0.176-0.207,0.277-0.959,0.361-2.981H305.043z M304.342,136.312c0,0.237,0.041,0.278,0.34,0.278h1.012
						c0.268,0,0.318-0.134,0.34-1.166c0.145,0.103,0.412,0.207,0.588,0.258c-0.063,1.228-0.248,1.527-0.867,1.527H304.6
						c-0.732,0-0.908-0.196-0.908-0.897v-2.476l0.846,0.062c-0.01,0.062-0.072,0.114-0.195,0.134V136.312z M305.641,134.217
						c-0.371-0.443-1.154-1.062-1.836-1.464l0.443-0.402c0.67,0.392,1.475,0.98,1.857,1.423L305.641,134.217z M307.405,136.734
						c-0.133-0.702-0.598-1.743-1.145-2.507l0.566-0.227c0.568,0.753,1.043,1.774,1.207,2.476L307.405,136.734z"/>
					<path fill="#4D4D4D" d="M311.579,129.854v1.764c0,0.165,0,0.351-0.012,0.526h1.889v0.66h-1.939
						c-0.031,0.31-0.094,0.629-0.166,0.959c0.496,0.485,1.682,1.784,1.98,2.114l-0.463,0.567c-0.33-0.454-1.156-1.423-1.703-2.032
						c-0.35,1.031-0.99,2.032-2.104,2.826c-0.094-0.145-0.33-0.413-0.465-0.505c1.568-1.104,2.094-2.579,2.25-3.93h-2.209v-0.66
						h2.26c0.01-0.186,0.01-0.361,0.01-0.536v-1.753h-0.918c-0.236,0.691-0.525,1.331-0.855,1.794
						c-0.123-0.103-0.361-0.278-0.516-0.361c0.557-0.794,0.99-2.156,1.238-3.507l0.824,0.207c-0.02,0.072-0.092,0.103-0.217,0.103
						c-0.072,0.372-0.164,0.743-0.268,1.114h3.002v0.65H311.579z M313.918,128.699h3.818v8.262h-0.703v-0.732H314.6v0.846h-0.682
						V128.699z M314.6,135.569h2.434v-6.209H314.6V135.569z"/>
					<path fill="#4D4D4D" d="M324.61,129.008h3.92v0.629h-7.24v2.486c0,1.62-0.207,3.827-1.65,5.271
						c-0.094-0.134-0.361-0.372-0.506-0.464c0.887-0.897,1.258-2.042,1.402-3.146c-0.484,0.268-0.939,0.537-1.27,0.712
						c0,0.083-0.051,0.145-0.102,0.175l-0.311-0.712c0.465-0.206,1.094-0.536,1.744-0.887c0.02-0.33,0.031-0.649,0.031-0.959v-3.105
						h3.258v-1.217l0.93,0.062c-0.012,0.072-0.072,0.124-0.207,0.145V129.008z M319.555,129.854
						c0.371,0.598,0.744,1.402,0.857,1.908l-0.568,0.299c-0.113-0.516-0.453-1.341-0.814-1.96L319.555,129.854z M325.424,133.98
						v2.486h3.105v0.619h-7.344v-0.619h1.299v-3.662l0.836,0.062c-0.01,0.062-0.063,0.113-0.195,0.134v3.466h1.629v-5.065h-2.785
						v-0.608h6.24v0.608h-2.785v1.96h2.59v0.619H325.424z"/>
				</g>
			</g>
		</g>
	</g>
	<g>
		<g>
			<g>
				<g>
					<path fill="#4D4D4D" d="M301.661,146.522v8.345c0,0.784-0.34,0.867-1.66,0.846c-0.021-0.176-0.125-0.475-0.207-0.66
						c0.248,0.011,0.475,0.011,0.65,0.011c0.516,0,0.578,0,0.578-0.196v-2.702h-1.496c-0.082,1.248-0.289,2.568-0.764,3.579
						c-0.123-0.113-0.402-0.268-0.566-0.33c0.711-1.485,0.762-3.59,0.762-5.126v-3.765H301.661z M299.588,150.277
						c0,0.381-0.012,0.804-0.021,1.238h1.455v-1.877h-1.434V150.277z M301.022,147.172h-1.434v1.826h1.434V147.172z
						 M307.881,148.348h-2.467c-0.02,0.062-0.072,0.103-0.195,0.124v1.155h2.176v4.012c0,0.712-0.318,0.774-1.494,0.774
						c-0.021-0.187-0.113-0.455-0.207-0.641c0.424,0.011,0.783,0.011,0.898,0.011c0.113-0.011,0.143-0.041,0.143-0.145v-3.362
						h-1.516v5.446h-0.66v-5.446h-1.443v4.146h-0.65v-4.796h2.094v-1.279h-2.588v-0.65h2.568v-1.558l0.896,0.052
						c-0.01,0.083-0.063,0.124-0.207,0.145v1.361h2.652V148.348z"/>
					<path fill="#4D4D4D" d="M310.971,147.987v2.486c0,1.62-0.207,3.827-1.65,5.271c-0.094-0.135-0.361-0.371-0.506-0.465
						c0.887-0.896,1.258-2.042,1.402-3.146c-0.484,0.268-0.939,0.536-1.27,0.712c0,0.082-0.051,0.145-0.102,0.176l-0.311-0.712
						c0.465-0.206,1.094-0.536,1.744-0.887c0.02-0.33,0.031-0.649,0.031-0.959v-3.105h3.258v-1.217l0.93,0.062
						c-0.012,0.072-0.072,0.124-0.207,0.145v1.011h3.92v0.629H310.971z M309.237,148.204c0.371,0.598,0.744,1.402,0.857,1.908
						l-0.568,0.299c-0.113-0.516-0.453-1.341-0.814-1.96L309.237,148.204z M318.129,152.443h-2.838
						c0.465,1.413,1.424,2.311,3.002,2.703c-0.154,0.133-0.35,0.401-0.443,0.598c-1.578-0.475-2.537-1.393-3.063-2.878
						c-0.33,1.042-1.188,2.094-3.363,2.888c-0.094-0.154-0.289-0.392-0.453-0.536c2.248-0.753,2.98-1.794,3.217-2.774h-2.887v-0.629
						h2.98c0.01-0.134,0.01-0.268,0.01-0.402v-1.372h-1.465c-0.248,0.588-0.535,1.114-0.846,1.516
						c-0.123-0.103-0.381-0.268-0.547-0.351c0.557-0.691,1.021-1.857,1.289-3.001l0.836,0.227c-0.031,0.062-0.092,0.104-0.217,0.104
						c-0.082,0.299-0.176,0.598-0.277,0.887h4.662v0.619h-2.744v1.382c0,0.124,0,0.258-0.01,0.392h3.156V152.443z"/>
					<path fill="#4D4D4D" d="M321,153.237c-0.236,0.908-0.639,1.733-1.516,2.187l-0.557-0.402c0.805-0.412,1.258-1.145,1.453-1.98
						L321,153.237z M320.444,151.928v0.351h-0.66v-2.465h3.568v-0.712h-3.074v-2.073h3.074v-0.897l0.887,0.052
						c-0.01,0.072-0.072,0.124-0.205,0.145v0.701h3.156v2.073h-3.156v0.712h3.641v2.445h-0.68v-0.33h-2.961v0.764h-0.506
						c0.453,0.288,0.887,0.618,1.135,0.896l-0.484,0.424c-0.352-0.413-1.115-0.96-1.785-1.311l0.465-0.392
						c0.164,0.083,0.33,0.175,0.494,0.268v-0.649H320.444z M323.352,150.35h-2.908v1.042h2.908V150.35z M320.938,148.575h2.414
						v-1.011h-2.414V148.575z M322.383,154.641c0,0.258,0.082,0.299,0.639,0.299h1.92c0.443,0,0.516-0.123,0.557-1.063
						c0.154,0.113,0.443,0.217,0.629,0.258c-0.082,1.166-0.311,1.434-1.125,1.434h-2.021c-1.031,0-1.289-0.186-1.289-0.928v-1.578
						l0.887,0.051c-0.01,0.072-0.063,0.124-0.195,0.145V154.641z M326.499,147.564h-2.465v1.011h2.465V147.564z M326.995,150.35
						h-2.961v1.042h2.961V150.35z M327.913,155.373c-0.33-0.629-1.125-1.496-1.898-2.084l0.557-0.33
						c0.773,0.567,1.588,1.402,1.939,2.043L327.913,155.373z"/>
				</g>
			</g>
		</g>
	</g>
	<g>
		<g>
			<g>
				<g>
					<path fill="#4D4D4D" d="M301.598,164.893v8.366c0,0.753-0.34,0.846-1.639,0.825c-0.021-0.165-0.113-0.465-0.207-0.64
						c0.248,0,0.475,0.011,0.65,0.011c0.547,0,0.566,0,0.566-0.207v-2.713h-1.475c-0.082,1.238-0.289,2.559-0.742,3.559
						c-0.125-0.113-0.393-0.268-0.557-0.33c0.689-1.475,0.742-3.579,0.742-5.115v-3.756H301.598z M299.557,168.648
						c0,0.381-0.012,0.793-0.021,1.237h1.434v-1.878h-1.412V168.648z M300.969,165.543h-1.412v1.826h1.412V165.543z
						 M302.569,164.903c0.361,0.743,0.701,1.712,0.783,2.311l-0.67,0.228c-0.072-0.619-0.381-1.6-0.732-2.353L302.569,164.903z
						 M306.807,172.887v-4.363l0.877,0.063c-0.01,0.072-0.061,0.123-0.195,0.134v5.364h-0.682v-0.537h-3.857v0.537h-0.66v-5.58
						l0.857,0.062c-0.012,0.072-0.063,0.124-0.197,0.134v4.188H306.807z M306.272,168.39c-0.021,0.062-0.094,0.083-0.197,0.093
						c-0.186,0.599-0.432,1.217-0.732,1.826c0.506,0.423,0.961,0.836,1.26,1.186l-0.412,0.526c-0.279-0.33-0.691-0.722-1.156-1.134
						c-0.381,0.66-0.814,1.289-1.311,1.836c-0.102-0.113-0.318-0.279-0.463-0.383c0.475-0.525,0.918-1.165,1.289-1.855
						c-0.424-0.341-0.877-0.682-1.301-0.96l0.393-0.464c0.381,0.248,0.805,0.547,1.197,0.855c0.289-0.598,0.525-1.227,0.701-1.825
						L306.272,168.39z M304.786,164.584c0.258,0.783,0.443,1.773,0.465,2.383l-0.701,0.154c-0.021-0.619-0.186-1.641-0.424-2.424
						L304.786,164.584z M307.954,165.018c-0.031,0.061-0.113,0.103-0.229,0.092c-0.381,1.031-0.928,2.249-1.412,3.043
						c-0.145-0.104-0.424-0.247-0.609-0.33c0.475-0.753,1.021-1.98,1.383-3.074L307.954,165.018z"/>
					<path fill="#4D4D4D" d="M314.467,169.298c0,0.588-0.475,1.062-1.063,1.062s-1.063-0.474-1.063-1.062
						c0-0.589,0.475-1.063,1.063-1.063C314.012,168.235,314.467,168.73,314.467,169.298z"/>
					<path fill="#4D4D4D" d="M322.352,166.398l0.453,0.279c-0.02,0.041-0.072,0.072-0.133,0.093
						c-0.33,0.835-0.826,1.661-1.393,2.403c0.443,0.34,1.352,1.114,1.588,1.32l-0.393,0.588c-0.246-0.278-0.805-0.814-1.258-1.228
						v4.25h-0.682v-4.033c-0.463,0.505-0.959,0.959-1.434,1.31c-0.072-0.186-0.258-0.494-0.381-0.619
						c1.186-0.793,2.445-2.228,3.135-3.682h-2.814v-0.64h1.494v-1.929l0.877,0.051c-0.01,0.072-0.061,0.125-0.195,0.145v1.733h1.012
						L322.352,166.398z M325.942,166.327h2.383v5.198h-0.66v-0.412h-1.723v2.98h-0.67v-2.98h-1.631v0.464h-0.639v-5.25h2.27v-1.826
						l0.865,0.062c-0.01,0.072-0.061,0.114-0.195,0.135V166.327z M325.272,166.967h-1.631v1.434h1.631V166.967z M323.641,170.484
						h1.631v-1.476h-1.631V170.484z M327.665,166.967h-1.723v1.434h1.723V166.967z M325.942,170.484h1.723v-1.476h-1.723V170.484z"
						/>
					<path fill="#4D4D4D" d="M332.198,167.844c0.475,0.66,0.969,1.557,1.145,2.135l-0.557,0.268
						c-0.051-0.186-0.135-0.392-0.236-0.618c-0.32,0.021-0.65,0.03-0.961,0.052v4.414h-0.617v-4.384
						c-0.578,0.031-1.094,0.052-1.506,0.062c-0.012,0.083-0.072,0.114-0.145,0.135l-0.186-0.773h0.721
						c0.227-0.279,0.465-0.599,0.713-0.949c-0.32-0.475-0.857-1.083-1.332-1.526l0.361-0.444c0.104,0.094,0.217,0.196,0.33,0.311
						c0.352-0.599,0.754-1.424,0.98-2.012l0.732,0.309c-0.031,0.063-0.104,0.094-0.217,0.094c-0.268,0.577-0.723,1.424-1.113,2.001
						c0.236,0.247,0.453,0.505,0.617,0.732c0.445-0.671,0.857-1.372,1.156-1.96l0.723,0.34c-0.031,0.052-0.113,0.094-0.229,0.094
						c-0.525,0.877-1.35,2.104-2.072,3.001l1.785-0.03c-0.186-0.352-0.393-0.713-0.609-1.021L332.198,167.844z M330.569,170.648
						c-0.031,0.063-0.094,0.104-0.207,0.104c-0.145,0.877-0.381,1.867-0.691,2.476c-0.145-0.093-0.371-0.196-0.516-0.269
						c0.299-0.577,0.516-1.567,0.65-2.506L330.569,170.648z M332.704,172.65c-0.094-0.558-0.383-1.414-0.682-2.053l0.537-0.176
						c0.309,0.65,0.607,1.485,0.711,2.032L332.704,172.65z M336.241,171.34v1.805h2.609v0.641h-5.889v-0.641h2.6v-1.805h-2.021
						v-0.64h2.021v-1.558l0.887,0.052c-0.01,0.072-0.063,0.124-0.207,0.145v1.361h2.115v0.64H336.241z M337.913,165.027l0.484,0.227
						c-0.02,0.041-0.063,0.083-0.104,0.104c-0.402,1.104-1.051,1.99-1.867,2.691c0.713,0.496,1.568,0.857,2.527,1.063
						c-0.145,0.145-0.34,0.413-0.434,0.599c-1.01-0.258-1.887-0.671-2.629-1.228c-0.732,0.516-1.559,0.918-2.424,1.217
						c-0.084-0.175-0.27-0.422-0.402-0.557c0.814-0.247,1.609-0.619,2.299-1.104c-0.639-0.608-1.145-1.341-1.494-2.197l0.463-0.145
						h-1.104v-0.639h4.559L337.913,165.027z M334.487,165.697c0.32,0.743,0.795,1.393,1.404,1.93
						c0.629-0.526,1.145-1.176,1.496-1.93H334.487z"/>
					<path fill="#4D4D4D" d="M341.93,166.357v2.486c0,1.619-0.207,3.826-1.65,5.271c-0.094-0.135-0.361-0.372-0.506-0.465
						c0.887-0.897,1.26-2.042,1.402-3.146c-0.484,0.269-0.938,0.537-1.268,0.713c0,0.082-0.053,0.144-0.104,0.175l-0.309-0.712
						c0.463-0.206,1.092-0.536,1.742-0.887c0.021-0.33,0.031-0.65,0.031-0.959v-3.105h3.26v-1.217l0.928,0.062
						c-0.01,0.072-0.072,0.124-0.205,0.145v1.011h3.918v0.629H341.93z M340.198,166.574c0.371,0.599,0.742,1.403,0.855,1.908
						l-0.566,0.299c-0.113-0.516-0.455-1.34-0.816-1.959L340.198,166.574z M349.088,170.814h-2.836
						c0.465,1.412,1.424,2.311,3.002,2.702c-0.156,0.134-0.352,0.402-0.443,0.599c-1.578-0.475-2.539-1.393-3.064-2.879
						c-0.33,1.043-1.186,2.094-3.363,2.889c-0.092-0.154-0.287-0.393-0.453-0.536c2.248-0.753,2.98-1.795,3.219-2.774h-2.889v-0.63
						h2.98c0.012-0.134,0.012-0.269,0.012-0.402v-1.372h-1.465c-0.248,0.588-0.537,1.114-0.846,1.517
						c-0.125-0.103-0.383-0.269-0.547-0.351c0.557-0.691,1.021-1.857,1.289-3.002l0.836,0.227c-0.031,0.063-0.094,0.104-0.217,0.104
						c-0.084,0.299-0.176,0.599-0.279,0.887h4.662v0.619h-2.744v1.383c0,0.123,0,0.258-0.01,0.392h3.156V170.814z"/>
					<path fill="#4D4D4D" d="M351.961,171.608c-0.238,0.907-0.641,1.732-1.518,2.187l-0.557-0.402
						c0.805-0.412,1.258-1.145,1.455-1.98L351.961,171.608z M351.403,170.299v0.35h-0.66v-2.465h3.57v-0.712h-3.074v-2.073h3.074
						v-0.897l0.887,0.052c-0.01,0.072-0.072,0.124-0.207,0.145v0.701h3.156v2.073h-3.156v0.712h3.643v2.445h-0.682v-0.33h-2.961
						v0.763h-0.504c0.453,0.288,0.887,0.618,1.133,0.897l-0.484,0.423c-0.35-0.413-1.113-0.96-1.783-1.31l0.463-0.393
						c0.166,0.082,0.33,0.176,0.496,0.269v-0.649H351.403z M354.313,168.72h-2.91v1.042h2.91V168.72z M351.899,166.945h2.414v-1.01
						h-2.414V166.945z M353.342,173.011c0,0.259,0.084,0.3,0.641,0.3h1.918c0.443,0,0.516-0.124,0.557-1.063
						c0.154,0.113,0.443,0.217,0.629,0.258c-0.082,1.165-0.309,1.434-1.123,1.434h-2.021c-1.031,0-1.291-0.186-1.291-0.929v-1.578
						l0.889,0.052c-0.012,0.072-0.063,0.124-0.197,0.145V173.011z M357.459,165.936h-2.467v1.01h2.467V165.936z M357.954,168.72
						h-2.961v1.042h2.961V168.72z M358.872,173.743c-0.33-0.629-1.125-1.495-1.898-2.083l0.559-0.33
						c0.773,0.566,1.588,1.402,1.938,2.042L358.872,173.743z"/>
				</g>
			</g>
		</g>
	</g>
	<g>
		<g>
			<g>
				<g>
					<path fill="#4D4D4D" d="M298.567,185.781c0.682,0.258,1.527,0.722,1.949,1.072l-0.393,0.578
						c-0.412-0.361-1.248-0.846-1.928-1.135L298.567,185.781z M298.526,191.846c0.525-0.814,1.299-2.196,1.877-3.383l0.516,0.443
						c-0.516,1.094-1.207,2.394-1.701,3.197c0.031,0.053,0.041,0.104,0.041,0.145c0,0.042-0.01,0.083-0.031,0.125L298.526,191.846z
						 M300.629,184.678c-0.391-0.382-1.207-0.897-1.887-1.217l0.391-0.496c0.672,0.289,1.496,0.773,1.908,1.156L300.629,184.678z
						 M302.116,183.326c0.484,0.619,1.01,1.444,1.207,2.001l-0.609,0.33c-0.186-0.557-0.691-1.403-1.176-2.032L302.116,183.326z
						 M307.17,186.049v5.55c0,0.835-0.393,0.846-2.012,0.846c-0.031-0.186-0.135-0.464-0.229-0.66
						c0.311,0.011,0.609,0.021,0.848,0.021c0.648,0,0.711,0,0.711-0.206v-1.382h-3.857v2.238h-0.682v-6.406h2.229v-3.188
						l0.896,0.053c-0.01,0.082-0.061,0.123-0.205,0.145v2.99H307.17z M306.489,186.699h-3.857v1.145h3.857V186.699z
						 M302.631,189.607h3.857v-1.154h-3.857V189.607z M307.737,183.636c-0.041,0.062-0.104,0.093-0.227,0.083
						c-0.299,0.588-0.836,1.402-1.248,1.938c0-0.011-0.557-0.278-0.568-0.278c0.424-0.567,0.971-1.455,1.26-2.104L307.737,183.636z"
						/>
					<path fill="#4D4D4D" d="M310.145,192.455v-5.952c-0.443,0.671-0.906,1.279-1.393,1.784c-0.082-0.175-0.268-0.494-0.391-0.66
						c1.072-1.072,2.166-2.877,2.826-4.683l0.846,0.289c-0.041,0.093-0.135,0.113-0.238,0.093c-0.299,0.742-0.648,1.475-1.041,2.176
						l0.299,0.083c-0.021,0.072-0.072,0.124-0.207,0.134v6.736H310.145z M313.879,190.918c0,0.578,0.123,0.712,0.723,0.712h2.156
						c0.588,0,0.68-0.392,0.752-1.929c0.176,0.134,0.453,0.268,0.66,0.309c-0.113,1.692-0.32,2.28-1.383,2.28h-2.227
						c-1.063,0-1.373-0.289-1.373-1.393V183.1l0.898,0.062c-0.012,0.072-0.063,0.124-0.207,0.145v3.827
						c1.217-0.682,2.477-1.517,3.25-2.249l0.566,0.66c-0.041,0.03-0.113,0.052-0.195,0.03c-0.867,0.732-2.291,1.559-3.621,2.26
						V190.918z"/>
					<path fill="#4D4D4D" d="M328.325,187.658h-3.012c0.814,0.754,2.072,1.372,3.301,1.672c-0.154,0.144-0.34,0.392-0.443,0.566
						c-0.248-0.072-0.484-0.145-0.732-0.236v2.784h-0.641v-0.371h-2.031v0.413h-0.619v-3.404h2.074
						c-0.691-0.393-1.311-0.887-1.775-1.424h-1.609c-0.494,0.547-1.104,1.021-1.814,1.424h2.104v3.362h-0.648v-0.371h-1.992v0.413
						h-0.619v-2.848c-0.227,0.094-0.453,0.186-0.689,0.269c-0.084-0.145-0.301-0.402-0.434-0.516
						c1.258-0.423,2.342-1.001,3.156-1.733h-2.93v-0.629h3.527c0.217-0.258,0.393-0.537,0.547-0.825h-3.32v-2.857h3.352v2.796
						l0.092-0.207l0.826,0.237c-0.021,0.062-0.104,0.104-0.238,0.114c-0.123,0.258-0.258,0.505-0.422,0.742h4.992V187.658z
						 M322.405,185.627v-1.703h-2.043v1.703H322.405z M322.477,191.465v-1.774h-1.992v1.774H322.477z M327.624,183.347v2.857h-3.373
						v-2.857H327.624z M324.766,191.465h2.031v-1.774h-2.031V191.465z M326.954,185.627v-1.703h-2.064v1.703H326.954z"/>
					<path fill="#4D4D4D" d="M331.528,184.719v2.486c0,1.619-0.207,3.826-1.65,5.271c-0.094-0.134-0.361-0.372-0.506-0.464
						c0.887-0.898,1.26-2.043,1.402-3.146c-0.484,0.268-0.938,0.537-1.268,0.712c0,0.083-0.053,0.145-0.104,0.175l-0.309-0.711
						c0.463-0.207,1.092-0.537,1.742-0.888c0.021-0.33,0.031-0.649,0.031-0.959v-3.104h3.26v-1.218l0.928,0.062
						c-0.01,0.072-0.072,0.125-0.205,0.145v1.012h3.918v0.629H331.528z M329.795,184.936c0.371,0.598,0.742,1.402,0.855,1.908
						l-0.566,0.299c-0.113-0.516-0.455-1.341-0.816-1.96L329.795,184.936z M338.686,189.175h-2.836
						c0.465,1.413,1.424,2.311,3.002,2.702c-0.156,0.135-0.352,0.402-0.443,0.599c-1.578-0.475-2.539-1.393-3.064-2.878
						c-0.33,1.042-1.186,2.094-3.363,2.889c-0.092-0.155-0.287-0.393-0.453-0.537c2.248-0.753,2.98-1.795,3.219-2.774h-2.889v-0.63
						h2.98c0.012-0.133,0.012-0.268,0.012-0.402v-1.371h-1.465c-0.248,0.588-0.537,1.113-0.846,1.516
						c-0.125-0.103-0.383-0.268-0.547-0.35c0.557-0.691,1.021-1.857,1.289-3.002l0.836,0.227c-0.031,0.063-0.094,0.104-0.217,0.104
						c-0.084,0.299-0.176,0.598-0.279,0.887h4.662v0.619h-2.744v1.382c0,0.124,0,0.259-0.01,0.392h3.156V189.175z"/>
					<path fill="#4D4D4D" d="M341.559,189.969c-0.236,0.908-0.639,1.733-1.516,2.188l-0.557-0.402
						c0.805-0.413,1.258-1.146,1.453-1.98L341.559,189.969z M341.002,188.659v0.351h-0.66v-2.465h3.568v-0.713h-3.074v-2.072h3.074
						v-0.898l0.887,0.053c-0.01,0.072-0.072,0.123-0.205,0.145v0.701h3.156v2.072h-3.156v0.713h3.641v2.444h-0.68v-0.33h-2.961
						v0.763h-0.506c0.453,0.289,0.887,0.619,1.135,0.898l-0.484,0.422c-0.352-0.412-1.115-0.959-1.785-1.31l0.465-0.392
						c0.164,0.082,0.33,0.175,0.494,0.268v-0.649H341.002z M343.911,187.081h-2.908v1.042h2.908V187.081z M341.497,185.307h2.414
						v-1.011h-2.414V185.307z M342.942,191.372c0,0.258,0.082,0.299,0.639,0.299h1.92c0.443,0,0.516-0.124,0.557-1.063
						c0.154,0.114,0.443,0.217,0.629,0.258c-0.082,1.166-0.311,1.435-1.125,1.435h-2.021c-1.031,0-1.289-0.187-1.289-0.929v-1.579
						l0.887,0.053c-0.01,0.072-0.063,0.123-0.195,0.145V191.372z M347.057,184.296h-2.465v1.011h2.465V184.296z M347.553,187.081
						h-2.961v1.042h2.961V187.081z M348.471,192.104c-0.33-0.629-1.125-1.495-1.898-2.083l0.557-0.33
						c0.773,0.567,1.588,1.403,1.939,2.042L348.471,192.104z"/>
				</g>
			</g>
		</g>
	</g>
	<g>
		<g>
			<g>
				<g>
					<path fill="#4D4D4D" d="M307.282,203.022v6.849c0,0.485-0.113,0.713-0.463,0.836c-0.352,0.113-0.99,0.124-1.93,0.124
						c-0.031-0.206-0.145-0.516-0.248-0.712c0.383,0.01,0.754,0.021,1.053,0.021c0.855,0,0.898,0,0.898-0.269v-6.168h-3.23
						c-0.02,0.424-0.07,0.867-0.174,1.32c1.072,0.939,2.361,2.188,3.012,2.981l-0.568,0.443c-0.566-0.712-1.65-1.836-2.65-2.754
						c-0.381,1.042-1.145,2.073-2.631,2.939c-0.102-0.155-0.33-0.402-0.494-0.526c2.352-1.269,2.744-3.012,2.805-4.404h-3.063v7.128
						h-0.691v-7.809h3.766v-1.806l0.906,0.063c-0.01,0.072-0.061,0.124-0.205,0.145v1.599H307.282z"/>
					<path fill="#4D4D4D" d="M312.487,201.754c-0.041,0.072-0.113,0.104-0.248,0.093c-0.723,1.63-1.918,3.156-3.229,4.085
						c-0.123-0.135-0.371-0.371-0.547-0.495c1.279-0.866,2.465-2.362,3.137-3.981L312.487,201.754z M316.096,205.199l0.166-0.011
						l0.391,0.042c0,0.072-0.01,0.164-0.01,0.247c-0.164,3.331-0.32,4.528-0.68,4.921c-0.289,0.33-0.6,0.36-1.229,0.36
						c-0.35,0-0.793-0.011-1.238-0.041c-0.01-0.206-0.102-0.495-0.227-0.691c0.701,0.062,1.373,0.072,1.619,0.072
						c0.217,0,0.342-0.021,0.443-0.134c0.27-0.269,0.434-1.342,0.568-4.085h-2.836c-0.279,1.98-0.857,3.981-3.621,4.972
						c-0.094-0.176-0.279-0.443-0.443-0.588c2.496-0.836,3.084-2.568,3.332-4.384h-2.219v-0.681H316.096z M315.19,201.434
						c0.68,1.424,2.031,3.023,3.176,3.807c-0.186,0.145-0.443,0.423-0.578,0.619c-1.154-0.918-2.484-2.609-3.258-4.157
						L315.19,201.434z"/>
					<path fill="#4D4D4D" d="M319.299,204.137c0.648,0.268,1.453,0.722,1.855,1.072l-0.402,0.578
						c-0.381-0.361-1.176-0.836-1.836-1.135L319.299,204.137z M319.155,210.254c0.412-0.795,0.98-2.136,1.393-3.301l0.578,0.381
						c-0.373,1.073-0.889,2.311-1.25,3.084c0.053,0.063,0.063,0.113,0.063,0.166c0,0.041-0.01,0.072-0.02,0.103L319.155,210.254z
						 M319.866,201.331c0.641,0.288,1.434,0.773,1.805,1.155c-0.215,0.289-0.309,0.423-0.402,0.557
						c-0.371-0.381-1.154-0.896-1.793-1.217L319.866,201.331z M324.178,209.438c0,0.423,0.082,0.505,0.516,0.505h1.475
						c0.424,0,0.496-0.309,0.547-1.742c0.164,0.134,0.443,0.258,0.639,0.299c-0.092,1.619-0.287,2.094-1.135,2.094h-1.598
						c-0.887,0-1.135-0.248-1.135-1.155v-0.31c-0.588,0.557-1.217,1.053-1.898,1.496c-0.104-0.145-0.32-0.361-0.475-0.496
						c0.867-0.535,1.662-1.186,2.373-1.949v-4.508l0.896,0.063c-0.01,0.072-0.061,0.123-0.205,0.145v3.507
						c1.248-1.548,2.229-3.435,2.939-5.56l0.846,0.278c-0.031,0.072-0.113,0.113-0.258,0.103c-0.855,2.425-2.012,4.529-3.527,6.211
						V209.438z M322.95,205.344c-0.133,1.104-0.402,2.444-0.99,3.238l-0.566-0.33c0.547-0.742,0.824-1.99,0.949-3.053
						L322.95,205.344z M323.723,201.259c0.877,0.382,1.92,1.031,2.414,1.548l-0.443,0.588c-0.484-0.527-1.506-1.207-2.383-1.62
						L323.723,201.259z M327.881,208.418c-0.186-0.847-0.732-2.146-1.32-3.115l0.648-0.217c0.609,0.959,1.156,2.228,1.352,3.084
						L327.881,208.418z"/>
					<path fill="#4D4D4D" d="M331.61,203.074v2.486c0,1.619-0.207,3.826-1.65,5.271c-0.094-0.134-0.361-0.372-0.506-0.464
						c0.887-0.898,1.26-2.043,1.402-3.146c-0.484,0.268-0.938,0.537-1.268,0.712c0,0.083-0.053,0.145-0.104,0.175l-0.309-0.711
						c0.463-0.207,1.092-0.537,1.742-0.888c0.021-0.33,0.031-0.649,0.031-0.959v-3.104h3.26v-1.218l0.928,0.062
						c-0.01,0.072-0.072,0.125-0.205,0.145v1.012h3.918v0.629H331.61z M329.877,203.291c0.371,0.598,0.742,1.402,0.855,1.908
						l-0.566,0.299c-0.113-0.516-0.455-1.341-0.816-1.96L329.877,203.291z M338.768,207.53h-2.836
						c0.465,1.413,1.424,2.311,3.002,2.702c-0.156,0.135-0.352,0.402-0.443,0.599c-1.578-0.475-2.539-1.393-3.064-2.878
						c-0.33,1.042-1.186,2.094-3.363,2.889c-0.092-0.155-0.287-0.393-0.453-0.537c2.248-0.753,2.98-1.795,3.219-2.774h-2.889v-0.63
						h2.98c0.012-0.133,0.012-0.268,0.012-0.402v-1.371h-1.465c-0.248,0.588-0.537,1.113-0.846,1.516
						c-0.125-0.103-0.383-0.268-0.547-0.35c0.557-0.691,1.021-1.857,1.289-3.002l0.836,0.227c-0.031,0.063-0.094,0.104-0.217,0.104
						c-0.084,0.299-0.176,0.598-0.279,0.887h4.662v0.619h-2.744v1.382c0,0.124,0,0.259-0.01,0.392h3.156V207.53z"/>
					<path fill="#4D4D4D" d="M341.641,208.324c-0.236,0.908-0.639,1.733-1.516,2.188l-0.557-0.402
						c0.805-0.413,1.258-1.146,1.453-1.98L341.641,208.324z M341.084,207.015v0.351h-0.66V204.9h3.568v-0.713h-3.074v-2.072h3.074
						v-0.898l0.887,0.053c-0.01,0.072-0.072,0.123-0.205,0.145v0.701h3.156v2.072h-3.156v0.713h3.641v2.444h-0.68v-0.33h-2.961
						v0.763h-0.506c0.453,0.289,0.887,0.619,1.135,0.898l-0.484,0.422c-0.352-0.412-1.115-0.959-1.785-1.31l0.465-0.392
						c0.164,0.082,0.33,0.175,0.494,0.268v-0.649H341.084z M343.993,205.437h-2.908v1.042h2.908V205.437z M341.579,203.662h2.414
						v-1.011h-2.414V203.662z M343.024,209.728c0,0.258,0.082,0.299,0.639,0.299h1.92c0.443,0,0.516-0.124,0.557-1.063
						c0.154,0.114,0.443,0.217,0.629,0.258c-0.082,1.166-0.311,1.435-1.125,1.435h-2.021c-1.031,0-1.289-0.187-1.289-0.929v-1.579
						l0.887,0.053c-0.01,0.072-0.063,0.123-0.195,0.145V209.728z M347.139,202.651h-2.465v1.011h2.465V202.651z M347.635,205.437
						h-2.961v1.042h2.961V205.437z M348.553,210.459c-0.33-0.629-1.125-1.495-1.898-2.083l0.557-0.33
						c0.773,0.567,1.588,1.403,1.939,2.042L348.553,210.459z"/>
				</g>
			</g>
		</g>
	</g>
	<rect x="288.071" y="111.295" fill="#6C8D99" width="5.877" height="5.877"/>
	<rect x="288.071" y="92.947" fill="#5E7C85" width="5.877" height="5.875"/>
	<rect x="288.071" y="129.65" fill="#789CAA" width="5.877" height="5.877"/>
	<rect x="288.071" y="148.01" fill="#81AAB9" width="5.877" height="5.877"/>
	<rect x="288.071" y="166.375" fill="#93B8C5" width="5.877" height="5.877"/>
	<rect x="288.071" y="184.742" fill="#A2BBC4" width="5.877" height="5.875"/>
	<rect x="288.071" y="203.096" fill="#BFD2DA" width="5.877" height="5.877"/>
	<rect x="288.071" y="221.398" fill="#D1DEE4" width="5.877" height="5.877"/>
	<g>
		<g>
			<g>
				<g>
					<path fill="#4D4D4D" d="M307.766,223.795h-3.992c-0.578,0.443-1.186,0.855-1.814,1.237v1.218
						c1.443-0.383,2.98-0.888,3.857-1.362l0.65,0.516c-0.031,0.042-0.053,0.042-0.207,0.042c-1.041,0.484-2.744,1-4.301,1.393v0.969
						c0,0.382,0.145,0.475,0.949,0.475h2.846c0.691,0,0.805-0.217,0.877-1.485c0.166,0.124,0.465,0.228,0.66,0.278
						c-0.113,1.465-0.361,1.836-1.516,1.836h-2.879c-1.279,0-1.65-0.217-1.65-1.104v-2.352c-0.824,0.454-1.67,0.867-2.547,1.228
						c-0.104-0.145-0.289-0.392-0.443-0.526c1.537-0.608,3.043-1.402,4.404-2.361h-4.25v-0.63h3.621v-1.526h-2.713v-0.629h2.713
						v-1.476l0.887,0.062c-0.01,0.072-0.063,0.125-0.195,0.145v1.27h2.682v0.443c0.453-0.484,0.877-0.98,1.248-1.506l0.752,0.434
						c-0.031,0.041-0.092,0.061-0.176,0.061c-0.029,0-0.061,0-0.102-0.01c-0.744,0.99-1.609,1.908-2.58,2.733h3.219V223.795z
						 M302.723,223.165h0.793c0.609-0.474,1.188-0.99,1.713-1.526h-2.506V223.165z"/>
					<path fill="#4D4D4D" d="M314.084,225.311c0.248,0.567,0.578,1.063,0.98,1.496c0.67-0.361,1.475-0.918,1.959-1.32l0.65,0.475
						c-0.041,0.051-0.125,0.072-0.217,0.051c-0.516,0.352-1.342,0.836-2.012,1.166c0.742,0.65,1.691,1.114,2.816,1.361
						c-0.145,0.145-0.34,0.413-0.434,0.599c-2.166-0.558-3.652-1.856-4.436-3.827h-0.041c-0.424,0.412-0.969,0.805-1.568,1.155
						l0.238,0.062c-0.012,0.053-0.072,0.114-0.207,0.125v1.547c0.814-0.083,1.713-0.166,2.578-0.258l0.012,0.547
						c-1.549,0.195-3.188,0.381-4.209,0.475c-0.021,0.082-0.072,0.123-0.145,0.144l-0.289-0.732l1.383-0.113v-1.444
						c-0.701,0.361-1.445,0.66-2.135,0.856c-0.094-0.165-0.279-0.423-0.434-0.558c1.34-0.33,2.857-1.021,3.867-1.805h-1.98v-1.352
						h-1.732v-0.577h1.732v-1.32h5.91v1.32h1.713v0.577h-1.713v1.352H314.084z M318.086,220.68v0.577h-9.314v-0.577h4.271v-1.146
						l0.887,0.052c-0.012,0.072-0.063,0.124-0.207,0.145v0.949H318.086z M311.124,222.619v0.763h4.561v-0.763H311.124z
						 M311.124,223.959v0.795h4.561v-0.795H311.124z"/>
				</g>
			</g>
		</g>
	</g>
	<g>
		<g>
			<g>
				<g>
					<path fill="#4D4D4D" d="M300.051,238.575c1.918,0,4.332-0.196,5.043-0.434l0.248,0.649c-0.113,0.031-0.268,0.166-0.484,0.352
						c-1.043,0.866-2.549,1.949-3.775,2.795c1.434-0.299,4.363-0.742,6.291-0.711v0.732c-0.145-0.011-0.309-0.011-0.463-0.011
						c-0.557,0-1.145,0.041-1.578,0.154c-0.887,0.248-3.033,1.517-3.033,2.93c0,0.64,0.393,0.856,0.537,0.929
						c0.463,0.258,1.588,0.443,2.557,0.505l-0.227,0.722c-2.496-0.195-3.641-0.773-3.641-2.094c0-1.33,1.443-2.455,2.455-2.991
						c-1.764,0.187-3.508,0.547-5.219,0.99l-0.135-0.701c0.598-0.124,1.021-0.269,1.352-0.464c0.773-0.454,3.053-2.125,3.908-2.939
						c-0.639,0.103-1.928,0.205-2.516,0.236c-0.299,0.021-0.713,0.031-0.98,0.052c-0.041,0.052-0.166,0.124-0.268,0.124
						L300.051,238.575z"/>
					<path fill="#4D4D4D" d="M314.002,239.689c-0.041,0.092-0.125,0.164-0.258,0.164c-0.371,3.209-1.445,6.004-3.156,6.004
						c-0.867,0-1.65-0.866-1.65-2.496c0-2.476,1.928-4.549,4.641-4.549c2.98,0,4.271,1.888,4.271,3.898
						c0,2.455-1.424,3.642-3.92,4.219c-0.094-0.164-0.27-0.443-0.434-0.629c2.373-0.453,3.59-1.609,3.59-3.559
						c0-1.701-1.094-3.249-3.508-3.249c-0.104,0-0.217,0.011-0.309,0.021L314.002,239.689z M313.012,239.555
						c-2.084,0.258-3.373,1.98-3.373,3.786c0,1.104,0.475,1.794,0.969,1.794C311.856,245.135,312.754,242.381,313.012,239.555z"/>
					<path fill="#4D4D4D" d="M320.215,241.484c-0.371,0.629-0.764,1.207-1.176,1.691c-0.082-0.165-0.248-0.495-0.361-0.65
						c0.949-1.072,1.879-2.867,2.455-4.652l0.816,0.269c-0.021,0.072-0.104,0.114-0.229,0.104c-0.246,0.69-0.535,1.382-0.865,2.042
						l0.236,0.072c-0.01,0.063-0.072,0.113-0.205,0.135v6.91h-0.672V241.484z M323.258,245.775c0,0.607,0.145,0.752,0.918,0.752
						h2.838c0.701,0,0.814-0.33,0.918-1.65c0.164,0.125,0.443,0.238,0.639,0.279c-0.135,1.516-0.371,2.012-1.537,2.012h-2.857
						c-1.227,0-1.598-0.279-1.598-1.403v-3.486l-1.156,0.402l-0.217-0.608l1.373-0.475v-2.857l0.877,0.062
						c-0.012,0.072-0.063,0.114-0.197,0.134v2.436l1.713-0.589v-2.837l0.867,0.063c-0.012,0.072-0.072,0.113-0.197,0.134v2.403
						l1.877-0.639c0.053-0.053,0.072-0.072,0.145-0.125l0.559,0.217c-0.012,0.031-0.063,0.072-0.104,0.104
						c-0.012,1.867-0.041,3.414-0.125,3.827c-0.113,0.712-0.535,0.804-1.732,0.763c-0.02-0.195-0.082-0.484-0.176-0.649
						c0.33,0.021,0.764,0.021,0.898,0.021c0.195,0,0.299-0.041,0.361-0.31c0.072-0.258,0.102-1.454,0.102-3.156l-1.805,0.63v3.765
						h-0.67v-3.538l-1.713,0.598V245.775z"/>
				</g>
			</g>
		</g>
	</g>
	<rect x="288.071" y="221.398" fill="#D1DEE4" width="5.877" height="5.877"/>
	<rect x="288.071" y="239.701" fill="#DAECF0" width="5.877" height="5.877"/>
</g>
</svg>
