<?xml version="1.0" encoding="utf-8"?>
<!-- Generator: Adobe Illustrator 16.0.0, SVG Export Plug-In . SVG Version: 6.00 Build 0)  -->
<!DOCTYPE svg PUBLIC "-//W3C//DTD SVG 1.1//EN" "http://www.w3.org/Graphics/SVG/1.1/DTD/svg11.dtd">
<svg version="1.1" id="レイヤー_1" xmlns="http://www.w3.org/2000/svg" xmlns:xlink="http://www.w3.org/1999/xlink" x="0px"
	 y="0px" width="381.268px" height="213.278px" viewBox="0 0 381.268 213.278" enable-background="new 0 0 381.268 213.278"
	 xml:space="preserve">
<g>
	<linearGradient id="SVGID_1_" gradientUnits="userSpaceOnUse" x1="190.6343" y1="213.0635" x2="190.6343" y2="0.2153">
		<stop  offset="0" style="stop-color:#FFFFFF"/>
		<stop  offset="0.1114" style="stop-color:#FAFAFA"/>
		<stop  offset="0.2505" style="stop-color:#EAEAEA"/>
		<stop  offset="0.36" style="stop-color:#D9D9D9"/>
		<stop  offset="0.6283" style="stop-color:#E6E6E6"/>
		<stop  offset="1" style="stop-color:#FFFFFF"/>
	</linearGradient>
	<rect x="0.215" y="0.215" fill="url(#SVGID_1_)" width="380.838" height="212.849"/>
	<path fill="#D6A87C" d="M380.838,0.43v212.418H0.43V0.43H380.838 M381.268,0H0v213.278h381.268V0L381.268,0z"/>
</g>
<g>
	<defs>
		<filter id="Adobe_OpacityMaskFilter" filterUnits="userSpaceOnUse" x="14.24" y="180.939" width="58.266" height="5.536">
			<feFlood  style="flood-color:white;flood-opacity:1" result="back"/>
			<feBlend  in="SourceGraphic" in2="back" mode="normal"/>
		</filter>
	</defs>
	<mask maskUnits="userSpaceOnUse" x="14.24" y="180.939" width="58.266" height="5.536" id="SVGID_2_">
		<g filter="url(#Adobe_OpacityMaskFilter)">
			
				<image overflow="visible" width="260" height="40" xlink:href="C43ACDEF.jpg"  transform="matrix(0.24 0 0 0.24 12.2402 178.9395)">
			</image>
		</g>
	</mask>
	<g mask="url(#SVGID_2_)">
		<polygon fill="#BABABA" points="65.84,186.476 14.24,186.476 20.906,180.939 72.506,180.939 		"/>
	</g>
</g>
<g>
	<defs>
		<filter id="Adobe_OpacityMaskFilter_1_" filterUnits="userSpaceOnUse" x="87.627" y="175.403" width="67.008" height="11.072">
			<feFlood  style="flood-color:white;flood-opacity:1" result="back"/>
			<feBlend  in="SourceGraphic" in2="back" mode="normal"/>
		</filter>
	</defs>
	<mask maskUnits="userSpaceOnUse" x="87.627" y="175.403" width="67.008" height="11.072" id="SVGID_3_">
		<g filter="url(#Adobe_OpacityMaskFilter_1_)">
			
				<image overflow="visible" width="296" height="63" xlink:href="C43ACDED.jpg"  transform="matrix(0.24 0 0 0.24 85.627 173.4033)">
			</image>
		</g>
	</mask>
	<g mask="url(#SVGID_3_)">
		<polygon fill="#BABABA" points="139.229,186.476 87.627,186.476 103.035,175.403 154.635,175.403 		"/>
	</g>
</g>
<g>
	<defs>
		<filter id="Adobe_OpacityMaskFilter_2_" filterUnits="userSpaceOnUse" x="161.016" y="168.416" width="77.399" height="18.06">
			<feFlood  style="flood-color:white;flood-opacity:1" result="back"/>
			<feBlend  in="SourceGraphic" in2="back" mode="normal"/>
		</filter>
	</defs>
	<mask maskUnits="userSpaceOnUse" x="161.016" y="168.416" width="77.399" height="18.06" id="SVGID_4_">
		<g filter="url(#Adobe_OpacityMaskFilter_2_)">
			
				<image overflow="visible" width="340" height="92" xlink:href="C43ACDF3.jpg"  transform="matrix(0.24 0 0 0.24 159.0156 166.416)">
			</image>
		</g>
	</mask>
	<g mask="url(#SVGID_4_)">
		<polygon fill="#BABABA" points="212.616,186.476 161.016,186.476 186.814,168.416 238.415,168.416 		"/>
	</g>
</g>
<g>
	<defs>
		<filter id="Adobe_OpacityMaskFilter_3_" filterUnits="userSpaceOnUse" x="234.403" y="164.331" width="80.193" height="22.145">
			<feFlood  style="flood-color:white;flood-opacity:1" result="back"/>
			<feBlend  in="SourceGraphic" in2="back" mode="normal"/>
		</filter>
	</defs>
	<mask maskUnits="userSpaceOnUse" x="234.403" y="164.331" width="80.193" height="22.145" id="SVGID_5_">
		<g filter="url(#Adobe_OpacityMaskFilter_3_)">
			
				<image overflow="visible" width="351" height="109" xlink:href="C43ACDF5.jpg"  transform="matrix(0.24 0 0 0.24 232.4028 162.3311)">
			</image>
		</g>
	</mask>
	<g mask="url(#SVGID_5_)">
		<polygon fill="#BABABA" points="286.002,186.476 234.403,186.476 262.997,164.331 314.596,164.331 		"/>
	</g>
</g>
<defs>
	<filter id="Adobe_OpacityMaskFilter_4_" filterUnits="userSpaceOnUse" x="307.79" y="158.096" width="94.957" height="28.38">
		<feColorMatrix  type="matrix" values="1 0 0 0 0  0 1 0 0 0  0 0 1 0 0  0 0 0 1 0"/>
	</filter>
</defs>
<mask maskUnits="userSpaceOnUse" x="307.79" y="158.096" width="94.957" height="28.38" id="SVGID_6_">
	<g filter="url(#Adobe_OpacityMaskFilter_4_)">
		<linearGradient id="SVGID_7_" gradientUnits="userSpaceOnUse" x1="190.6343" y1="213.2783" x2="190.6343" y2="4.882813e-004">
			<stop  offset="0" style="stop-color:#FFFFFF"/>
			<stop  offset="0.1114" style="stop-color:#FAFAFA"/>
			<stop  offset="0.2505" style="stop-color:#EAEAEA"/>
			<stop  offset="0.36" style="stop-color:#D9D9D9"/>
			<stop  offset="0.6283" style="stop-color:#E6E6E6"/>
			<stop  offset="1" style="stop-color:#FFFFFF"/>
		</linearGradient>
		<rect fill="url(#SVGID_7_)" stroke="#D6A87C" stroke-width="0.43" stroke-miterlimit="10" width="381.268" height="213.278"/>
	</g>
</mask>
<g mask="url(#SVGID_6_)">
	<defs>
		<filter id="Adobe_OpacityMaskFilter_5_" filterUnits="userSpaceOnUse" x="307.79" y="158.096" width="94.957" height="28.38">
			<feFlood  style="flood-color:white;flood-opacity:1" result="back"/>
			<feBlend  in="SourceGraphic" in2="back" mode="normal"/>
		</filter>
	</defs>
	<mask maskUnits="userSpaceOnUse" x="307.79" y="158.096" width="94.957" height="28.38" id="SVGID_6_">
		<g filter="url(#Adobe_OpacityMaskFilter_5_)">
			
				<image overflow="visible" width="413" height="135" xlink:href="C43ACDF7.jpg"  transform="matrix(0.24 0 0 0.24 305.7896 156.0957)">
			</image>
		</g>
	</mask>
	<g>
		<polygon fill="#BABABA" points="359.389,186.476 307.79,186.476 351.147,158.096 402.747,158.096 		"/>
	</g>
</g>
<linearGradient id="SVGID_8_" gradientUnits="userSpaceOnUse" x1="40.04" y1="186.4756" x2="40.04" y2="164.9756">
	<stop  offset="0" style="stop-color:#679CAF"/>
	<stop  offset="1" style="stop-color:#86B1C0"/>
</linearGradient>
<rect x="14.24" y="164.976" fill="url(#SVGID_8_)" width="51.6" height="21.5"/>
<linearGradient id="SVGID_9_" gradientUnits="userSpaceOnUse" x1="113.4277" y1="186.4756" x2="113.4277" y2="142.188">
	<stop  offset="0" style="stop-color:#679CAF"/>
	<stop  offset="1" style="stop-color:#86B1C0"/>
</linearGradient>
<rect x="87.627" y="142.188" fill="url(#SVGID_9_)" width="51.602" height="44.288"/>
<linearGradient id="SVGID_10_" gradientUnits="userSpaceOnUse" x1="186.8154" y1="186.4756" x2="186.8154" y2="108.4033">
	<stop  offset="0" style="stop-color:#679CAF"/>
	<stop  offset="1" style="stop-color:#86B1C0"/>
</linearGradient>
<rect x="161.016" y="108.402" fill="url(#SVGID_10_)" width="51.6" height="78.073"/>
<linearGradient id="SVGID_11_" gradientUnits="userSpaceOnUse" x1="260.2017" y1="186.4756" x2="260.2017" y2="87.7676">
	<stop  offset="0" style="stop-color:#679CAF"/>
	<stop  offset="1" style="stop-color:#86B1C0"/>
</linearGradient>
<rect x="234.403" y="87.768" fill="url(#SVGID_11_)" width="51.6" height="98.708"/>
<linearGradient id="SVGID_12_" gradientUnits="userSpaceOnUse" x1="333.5884" y1="186.4756" x2="333.5884" y2="62.2075">
	<stop  offset="0" style="stop-color:#679CAF"/>
	<stop  offset="1" style="stop-color:#86B1C0"/>
</linearGradient>
<rect x="307.79" y="62.207" fill="url(#SVGID_12_)" width="51.6" height="124.269"/>
<g>
	<path fill="#4D4D4D" d="M109.492,19.321c0.673,0.936,1.389,2.178,1.651,2.982l-0.774,0.38c-0.073-0.249-0.189-0.526-0.321-0.833
		c-0.497,0.029-0.979,0.058-1.447,0.073v6.257h-0.877v-6.213c-0.805,0.029-1.535,0.059-2.105,0.088
		c-0.029,0.117-0.116,0.161-0.219,0.19l-0.264-1.096h1.009c0.321-0.395,0.658-0.863,1.009-1.345
		c-0.438-0.688-1.198-1.535-1.871-2.178l0.526-0.628l0.468,0.438c0.497-0.848,1.053-2.003,1.374-2.836l1.053,0.424
		c-0.044,0.088-0.146,0.131-0.308,0.131c-0.395,0.833-1.037,2.032-1.578,2.851c0.321,0.351,0.628,0.716,0.848,1.038
		c0.629-0.95,1.213-1.959,1.637-2.777l1.038,0.482c-0.059,0.073-0.16,0.117-0.321,0.117c-0.746,1.257-1.93,2.997-2.953,4.269
		l2.588-0.044c-0.264-0.497-0.585-1.009-0.892-1.447L109.492,19.321z M107.153,23.283c-0.029,0.102-0.117,0.161-0.292,0.161
		c-0.19,1.228-0.526,2.631-0.965,3.494c-0.19-0.117-0.512-0.263-0.731-0.365c0.424-0.819,0.731-2.222,0.921-3.552L107.153,23.283z
		 M110.136,26.075c-0.132-0.775-0.526-1.959-0.936-2.851l0.745-0.249c0.438,0.892,0.833,2.046,0.979,2.821L110.136,26.075z
		 M112.343,24.204c-0.132,1.271-0.541,2.587-1.345,3.333l-0.702-0.468c0.702-0.628,1.111-1.813,1.243-3.011L112.343,24.204z
		 M114.009,14.936c-0.044,0.117-0.175,0.146-0.307,0.132c-0.556,1.447-1.521,2.923-2.529,3.83c-0.175-0.175-0.497-0.453-0.716-0.584
		c0.979-0.833,1.886-2.251,2.412-3.713L114.009,14.936z M112.372,20.695c0.497-0.994,1.067-2.5,1.389-3.567l1.169,0.365
		c-0.044,0.103-0.16,0.146-0.321,0.146c-0.321,0.877-0.848,2.09-1.315,3.011c0.994-0.029,2.104-0.073,3.216-0.117
		c-0.365-0.497-0.774-0.994-1.17-1.418l0.717-0.424c0.892,0.921,1.886,2.193,2.324,3.011l-0.774,0.512
		c-0.132-0.278-0.337-0.599-0.57-0.936c-1.959,0.132-3.947,0.249-5.263,0.322c-0.015,0.117-0.103,0.175-0.204,0.19l-0.366-1.067
		L112.372,20.695z M113.878,26.762c0,0.336,0.072,0.395,0.482,0.395h1.359c0.351,0,0.424-0.205,0.468-1.579
		c0.189,0.146,0.541,0.278,0.789,0.336c-0.088,1.623-0.336,2.032-1.155,2.032h-1.578c-1.023,0-1.271-0.249-1.271-1.169v-3.128
		l1.184,0.073c-0.015,0.102-0.088,0.175-0.277,0.205V26.762z M115.5,24.116c-0.482-0.599-1.506-1.374-2.427-1.813l0.614-0.556
		c0.936,0.424,1.959,1.169,2.456,1.754L115.5,24.116z M116.377,14.6c0.585,1.359,1.696,2.763,2.792,3.464
		c-0.233,0.175-0.526,0.497-0.687,0.731c-1.111-0.833-2.28-2.412-2.909-3.903L116.377,14.6z M118.263,27.624
		c-0.219-0.936-0.95-2.339-1.739-3.377l0.76-0.38c0.805,1.023,1.564,2.383,1.798,3.318L118.263,27.624z"/>
	<path fill="#4D4D4D" d="M122.87,24.657c-0.337,1.286-0.906,2.456-2.149,3.099l-0.789-0.57c1.14-0.585,1.783-1.623,2.061-2.807
		L122.87,24.657z M122.08,22.8v0.497h-0.936v-3.494h5.059v-1.009h-4.356v-2.938h4.356v-1.271l1.257,0.073
		c-0.015,0.102-0.103,0.175-0.293,0.205v0.994h4.474v2.938h-4.474v1.009h5.16v3.464h-0.965V22.8h-4.195v1.082h-0.716
		c0.644,0.409,1.257,0.877,1.608,1.272l-0.688,0.599c-0.497-0.584-1.579-1.359-2.529-1.856l0.658-0.556
		c0.233,0.117,0.468,0.249,0.702,0.38V22.8H122.08z M126.203,20.563h-4.123v1.477h4.123V20.563z M122.782,18.049h3.421v-1.433
		h-3.421V18.049z M124.828,26.645c0,0.366,0.117,0.424,0.906,0.424h2.72c0.628,0,0.73-0.175,0.789-1.505
		c0.22,0.161,0.629,0.307,0.892,0.365c-0.117,1.652-0.438,2.032-1.594,2.032h-2.864c-1.462,0-1.827-0.263-1.827-1.316v-2.236
		l1.257,0.073c-0.015,0.102-0.088,0.175-0.278,0.205V26.645z M130.661,16.617h-3.494v1.433h3.494V16.617z M131.362,20.563h-4.195
		v1.477h4.195V20.563z M132.664,27.683c-0.468-0.892-1.594-2.12-2.69-2.953l0.79-0.468c1.096,0.804,2.251,1.988,2.748,2.895
		L132.664,27.683z"/>
	<path fill="#4D4D4D" d="M148,20.315h-5.687c-0.804,0.585-1.637,1.125-2.499,1.623h6.125v6.184h-0.979v-0.438h-6.037v0.497h-0.95
		v-5.263c-0.936,0.468-1.915,0.892-2.895,1.272c-0.132-0.205-0.38-0.57-0.585-0.76c2.163-0.79,4.283-1.842,6.228-3.114h-6.008
		v-0.862h5.218v-1.974h-3.844v-0.862h3.844v-2.032l1.258,0.087c-0.015,0.103-0.103,0.176-0.293,0.205v1.739h3.801v0.497
		c0.629-0.614,1.199-1.272,1.711-1.944l1.037,0.6c-0.044,0.058-0.131,0.087-0.248,0.087c-0.044,0-0.088,0-0.146-0.015
		c-1.038,1.316-2.251,2.515-3.596,3.611H148V20.315z M144.96,24.364V22.8h-6.037v1.564H144.96z M138.923,26.82h6.037v-1.652h-6.037
		V26.82z M140.896,19.453h1.067c0.833-0.614,1.638-1.272,2.368-1.974h-3.436V19.453z"/>
	<path fill="#4D4D4D" d="M152.344,21.119v-1.915c-0.745,0.906-1.739,1.754-2.689,2.266c-0.117-0.219-0.351-0.555-0.541-0.745
		c1.082-0.468,2.266-1.447,2.968-2.471h-2.88v-0.833h3.143v-2.807l1.199,0.073c-0.015,0.103-0.088,0.176-0.278,0.19v2.543h3.1v0.833
		h-3.1v0.336c0.6,0.351,2.164,1.359,2.559,1.652l-0.57,0.716c-0.351-0.336-1.286-1.067-1.988-1.579v1.74H152.344z M156.422,23.414
		h-1.315c-0.219,0.906-0.556,1.667-1.038,2.324c0.658,0.351,1.243,0.702,1.696,1.038l-0.658,0.731
		c-0.438-0.351-1.023-0.716-1.666-1.067c-0.862,0.775-2.032,1.345-3.625,1.74c-0.073-0.263-0.278-0.629-0.468-0.833
		c1.389-0.278,2.44-0.716,3.23-1.359c-0.556-0.278-1.126-0.541-1.696-0.775l-0.292,0.526l-0.862-0.321
		c0.321-0.541,0.716-1.257,1.096-2.003h-1.651v-0.862h2.09c0.234-0.482,0.468-0.965,0.658-1.403l1.155,0.263
		c-0.044,0.102-0.132,0.146-0.322,0.131c-0.146,0.307-0.307,0.658-0.482,1.009h4.151V23.414z M150.561,15.023
		c0.438,0.599,0.862,1.403,1.023,1.944l-0.775,0.365c-0.146-0.526-0.569-1.359-0.993-1.974L150.561,15.023z M151.847,23.414
		c-0.189,0.365-0.38,0.731-0.57,1.082c0.658,0.249,1.316,0.526,1.944,0.819c0.424-0.526,0.717-1.155,0.921-1.9H151.847z
		 M153.894,16.982c0.395-0.526,0.906-1.389,1.184-1.974l1.023,0.453c-0.044,0.103-0.161,0.117-0.292,0.103
		c-0.308,0.526-0.834,1.271-1.243,1.769L153.894,16.982z M162.767,18.283h-0.979c-0.351,2.412-0.921,4.415-1.842,6.037
		c0.745,1.33,1.71,2.383,2.938,3.026c-0.234,0.205-0.541,0.57-0.702,0.848c-1.169-0.687-2.09-1.696-2.836-2.938
		c-0.892,1.228-2.046,2.208-3.566,2.938c-0.103-0.234-0.365-0.644-0.541-0.833c1.564-0.716,2.733-1.739,3.596-3.084
		c-0.599-1.242-1.053-2.675-1.389-4.239c-0.292,0.673-0.6,1.272-0.95,1.769c-0.16-0.19-0.512-0.482-0.745-0.628
		c1.038-1.462,1.783-4.035,2.207-6.578l1.242,0.263c-0.028,0.117-0.131,0.175-0.321,0.175c-0.146,0.775-0.321,1.564-0.526,2.324
		h4.415V18.283z M158.089,18.283l-0.044,0.146c0.292,1.754,0.73,3.392,1.359,4.81c0.673-1.374,1.097-3.026,1.389-4.956H158.089z"/>
	<path fill="#4D4D4D" d="M177.386,14.658c-1.594,1.33-2.895,3.771-2.895,6.724c0,3.026,1.345,5.438,2.895,6.724v0.073h-0.877
		c-1.477-1.331-2.792-3.786-2.792-6.797s1.315-5.467,2.792-6.797h0.877V14.658z"/>
	<path fill="#4D4D4D" d="M185.092,26.937h-6.477v-0.746l1.067-1.125c2.603-2.631,3.918-4.225,3.918-6.008
		c0-1.169-0.512-2.251-2.091-2.251c-0.877,0-1.666,0.482-2.192,0.906l-0.409-0.848c0.672-0.599,1.666-1.067,2.836-1.067
		c2.207,0,3.084,1.608,3.084,3.113c0,2.061-1.447,3.815-3.713,6.096l-0.862,0.906v0.029h4.839V26.937z"/>
	<path fill="#4D4D4D" d="M186.54,21.499c0-3.83,1.491-5.686,3.537-5.686c2.076,0,3.348,1.958,3.348,5.54
		c0,3.801-1.33,5.759-3.508,5.759C187.929,27.112,186.54,25.154,186.54,21.499z M192.197,21.412c0-2.734-0.658-4.62-2.193-4.62
		c-1.301,0-2.222,1.74-2.222,4.62c0,2.879,0.804,4.707,2.178,4.707C191.583,26.118,192.197,24.014,192.197,21.412z"/>
	<path fill="#4D4D4D" d="M201.203,26.937h-6.477v-0.746l1.067-1.125c2.603-2.631,3.918-4.225,3.918-6.008
		c0-1.169-0.512-2.251-2.091-2.251c-0.877,0-1.666,0.482-2.192,0.906l-0.409-0.848c0.672-0.599,1.666-1.067,2.836-1.067
		c2.207,0,3.084,1.608,3.084,3.113c0,2.061-1.447,3.815-3.713,6.096l-0.862,0.906v0.029h4.839V26.937z"/>
	<path fill="#4D4D4D" d="M202.651,21.499c0-3.83,1.492-5.686,3.537-5.686c2.076,0,3.348,1.958,3.348,5.54
		c0,3.801-1.33,5.759-3.508,5.759C204.04,27.112,202.651,25.154,202.651,21.499z M208.309,21.412c0-2.734-0.658-4.62-2.193-4.62
		c-1.301,0-2.223,1.74-2.223,4.62c0,2.879,0.805,4.707,2.178,4.707C207.694,26.118,208.309,24.014,208.309,21.412z"/>
	<path fill="#4D4D4D" d="M210.985,26.191c0-0.555,0.365-0.95,0.877-0.95s0.861,0.395,0.861,0.95c0,0.526-0.336,0.921-0.877,0.921
		C211.292,27.112,210.985,26.674,210.985,26.191z"/>
	<path fill="#4D4D4D" d="M217.11,26.937v-9.809h-0.029l-1.799,1.038l-0.293-0.906l2.268-1.271h1.037v10.949H217.11z"/>
	<path fill="#4D4D4D" d="M222.227,26.191c0-0.555,0.365-0.95,0.877-0.95s0.861,0.395,0.861,0.95c0,0.526-0.336,0.921-0.877,0.921
		C222.534,27.112,222.227,26.674,222.227,26.191z"/>
	<path fill="#4D4D4D" d="M228.352,26.937v-9.809h-0.029l-1.797,1.038l-0.293-0.906l2.266-1.271h1.037v10.949H228.352z"/>
	<path fill="#4D4D4D" d="M238.426,23.385l0.115,0.848c-1.797,0.555-3.713,1.125-4.91,1.461c-0.016,0.117-0.088,0.205-0.176,0.234
		l-0.453-1.082c0.643-0.161,1.461-0.365,2.367-0.614v-3.771h-1.93v-0.906h1.93v-3.274h-2.119v-0.921h5.072v0.921h-2.002v3.274h1.885
		v0.906h-1.885v3.508L238.426,23.385z M241.495,23.882c-0.029,0.088-0.117,0.175-0.291,0.19c-0.367,1.886-1.127,3.318-3.947,4.108
		c-0.104-0.234-0.381-0.644-0.57-0.819c2.588-0.614,3.318-1.813,3.582-3.61L241.495,23.882z M243.907,26.791
		c0,0.351,0.059,0.424,0.453,0.424h1.258c0.35,0,0.424-0.234,0.453-1.769c0.205,0.161,0.584,0.322,0.848,0.38
		c-0.088,1.798-0.336,2.236-1.199,2.236h-1.506c-1.008,0-1.256-0.278-1.256-1.271v-3.392h-3.918v-8.142h6.914v8.142h-2.047V26.791z
		 M239.975,16.105v1.593h5.014v-1.593H239.975z M239.975,18.502v1.608h5.014v-1.608H239.975z M239.975,20.929v1.623h5.014v-1.623
		H239.975z"/>
	<path fill="#4D4D4D" d="M254.258,14.936c-0.045,0.103-0.162,0.161-0.336,0.161c-0.191,0.599-0.395,1.228-0.645,1.842h7.734v0.95
		h-8.158c-0.482,1.038-1.053,2.061-1.754,3.011l0.16,0.044c-0.029,0.102-0.115,0.175-0.291,0.19v7.061h-0.98v-5.935
		c-0.525,0.57-1.096,1.082-1.725,1.549c-0.117-0.263-0.379-0.672-0.541-0.892c0.848-0.614,1.609-1.359,2.266-2.192v-0.103
		l0.059,0.015c0.658-0.848,1.229-1.783,1.695-2.748h-3.668v-0.95h4.107c0.322-0.775,0.584-1.564,0.805-2.339L254.258,14.936z
		 M256.977,22.537v4.371h4.035v0.921h-8.977v-0.921h3.947v-4.371h-3.363v-0.921h3.363v-2.938l1.271,0.088
		c-0.014,0.103-0.088,0.161-0.277,0.19v2.661h3.449v0.921H256.977z"/>
	<path fill="#4D4D4D" d="M262.358,28.106c1.594-1.33,2.895-3.771,2.895-6.724c0-3.026-1.344-5.438-2.895-6.724v-0.073h0.877
		c1.492,1.33,2.793,3.786,2.793,6.797s-1.301,5.467-2.793,6.797h-0.877V28.106z"/>
</g>
<g>
	<path fill="#FFFFFF" d="M252.516,102.182c-0.977-0.469-1.41-1.264-1.41-2.034c0-1.397,1.096-2.348,2.553-2.348
		c1.637,0,2.42,1.107,2.42,2.191c0,0.771-0.408,1.613-1.48,2.131v0.048c1.107,0.469,1.793,1.276,1.793,2.359
		c0,1.529-1.252,2.577-2.84,2.577c-1.723,0-2.781-1.096-2.781-2.396c0-1.167,0.697-2.01,1.746-2.48V102.182z M255.368,104.638
		c0-1.131-0.758-1.709-1.949-2.095c-1.061,0.349-1.625,1.12-1.625,2.011c0,1.023,0.686,1.806,1.77,1.806
		C254.719,106.359,255.368,105.577,255.368,104.638z M252.057,100.051c-0.012,0.963,0.676,1.493,1.674,1.794
		c0.783-0.301,1.373-0.915,1.373-1.77c0-0.759-0.422-1.541-1.48-1.541C252.575,98.534,252.057,99.269,252.057,100.051z"/>
	<path fill="#FFFFFF" d="M260.016,106.961v-8.078h-0.023l-1.482,0.854l-0.24-0.746l1.867-1.048h0.854v9.018H260.016z"/>
	<path fill="#FFFFFF" d="M264,102.483c0-3.154,1.229-4.683,2.914-4.683c1.709,0,2.758,1.613,2.758,4.563
		c0,3.13-1.096,4.744-2.891,4.744C265.145,107.106,264,105.493,264,102.483z M268.661,102.411c0-2.251-0.543-3.804-1.807-3.804
		c-1.07,0-1.83,1.433-1.83,3.804s0.662,3.876,1.795,3.876C268.155,106.287,268.661,104.554,268.661,102.411z"/>
</g>
<g>
	<path fill="#FFFFFF" d="M178.381,122.817c0.41-0.602,1.145-1.107,2.107-1.107c1.528,0,2.552,1.145,2.552,2.878
		c0,1.649-1.011,3.154-2.769,3.154s-2.938-1.457-2.938-3.792c0-2.42,1.132-4.949,4.057-5.43c0.338-0.049,0.639-0.084,0.843-0.084
		l0.013,0.83c-2.505,0-3.696,1.818-3.901,3.551H178.381z M182.029,124.66c0-1.385-0.747-2.191-1.83-2.191
		c-1.06,0-1.866,1.036-1.866,1.71c0.012,1.649,0.71,2.781,1.963,2.781C181.343,126.96,182.029,126.021,182.029,124.66z"/>
	<path fill="#FFFFFF" d="M188.627,127.598h-0.951v-2.528h-3.937v-0.639l3.853-5.851h1.035v5.719h1.228v0.771h-1.228V127.598z
		 M184.75,124.299h2.926v-3.202c0-0.494,0.024-0.976,0.048-1.445h-0.048c-0.277,0.555-0.494,0.939-0.723,1.349l-2.203,3.274V124.299
		z"/>
	<path fill="#FFFFFF" d="M193.912,122.722c1.06,0.181,1.963,1.035,1.963,2.336c0,1.433-1.036,2.685-3.059,2.685
		c-0.902,0-1.722-0.289-2.131-0.578l0.301-0.771c0.325,0.217,1.048,0.542,1.842,0.542c1.518,0,2.011-1.06,2.011-1.89
		c0-1.324-1.119-1.927-2.299-1.927h-0.59v-0.747h0.59c0.866,0,1.986-0.541,1.986-1.673c0-0.782-0.47-1.456-1.554-1.456
		c-0.662,0-1.288,0.324-1.649,0.59l-0.301-0.734c0.434-0.338,1.276-0.675,2.144-0.675c1.649,0,2.384,1.048,2.384,2.131
		c0,0.927-0.59,1.758-1.638,2.131V122.722z"/>
</g>
<g>
	<path fill="#FFFFFF" d="M107.257,156.505c1.06,0.182,1.963,1.036,1.963,2.336c0,1.434-1.036,2.686-3.059,2.686
		c-0.902,0-1.722-0.289-2.131-0.578l0.301-0.771c0.325,0.217,1.048,0.543,1.843,0.543c1.517,0,2.01-1.061,2.01-1.891
		c0-1.324-1.119-1.926-2.299-1.926h-0.59v-0.747h0.59c0.866,0,1.986-0.542,1.986-1.673c0-0.783-0.47-1.457-1.554-1.457
		c-0.662,0-1.288,0.324-1.649,0.59l-0.301-0.734c0.434-0.338,1.276-0.674,2.144-0.674c1.649,0,2.384,1.047,2.384,2.131
		c0,0.927-0.59,1.758-1.638,2.131V156.505z"/>
	<path fill="#FFFFFF" d="M111.627,156.602c0.41-0.602,1.145-1.107,2.107-1.107c1.528,0,2.552,1.144,2.552,2.878
		c0,1.648-1.011,3.154-2.769,3.154s-2.938-1.457-2.938-3.793c0-2.42,1.132-4.948,4.057-5.43c0.338-0.048,0.639-0.084,0.843-0.084
		l0.013,0.83c-2.505,0-3.696,1.818-3.901,3.552H111.627z M115.275,158.444c0-1.385-0.747-2.191-1.83-2.191
		c-1.06,0-1.866,1.035-1.866,1.709c0.012,1.65,0.71,2.781,1.963,2.781C114.589,160.743,115.275,159.804,115.275,158.444z"/>
	<path fill="#FFFFFF" d="M122.343,152.364v0.83h-3.239l-0.373,2.553c0.192-0.023,0.386-0.049,0.698-0.049
		c1.602,0,3.034,0.951,3.034,2.77c0,1.781-1.324,3.059-3.106,3.059c-0.902,0-1.661-0.266-2.07-0.53l0.289-0.782
		c0.337,0.229,0.999,0.506,1.781,0.506c1.132,0,2.107-0.831,2.095-2.131c0-1.24-0.794-2.107-2.479-2.107
		c-0.481,0-0.855,0.036-1.156,0.084l0.566-4.201H122.343z"/>
</g>
<g>
	<path fill="#FFFFFF" d="M33.22,179.871v-8.078h-0.023l-1.481,0.854l-0.24-0.746l1.866-1.048h0.854v9.018H33.22z"/>
	<path fill="#FFFFFF" d="M37.482,170.854h5.285v0.638l-3.769,8.38h-1.023l3.769-8.163v-0.023h-4.262V170.854z"/>
	<path fill="#FFFFFF" d="M44.874,175.091c0.409-0.602,1.145-1.107,2.107-1.107c1.528,0,2.552,1.145,2.552,2.878
		c0,1.649-1.011,3.154-2.769,3.154s-2.938-1.457-2.938-3.792c0-2.42,1.132-4.949,4.057-5.43c0.338-0.049,0.639-0.084,0.843-0.084
		l0.013,0.83c-2.505,0-3.696,1.818-3.901,3.551H44.874z M48.522,176.934c0-1.385-0.747-2.191-1.83-2.191
		c-1.06,0-1.866,1.036-1.866,1.71c0.012,1.649,0.71,2.781,1.963,2.781C47.836,179.233,48.522,178.294,48.522,176.934z"/>
</g>
<g>
	<path fill="#FFFFFF" d="M323.452,81.401v-8.078h-0.023l-1.482,0.854l-0.24-0.746l1.867-1.048h0.854v9.018H323.452z"/>
	<path fill="#FFFFFF" d="M327.436,76.923c0-3.154,1.229-4.683,2.914-4.683c1.709,0,2.758,1.613,2.758,4.563
		c0,3.13-1.096,4.744-2.891,4.744C328.581,81.546,327.436,79.933,327.436,76.923z M332.096,76.851c0-2.251-0.543-3.804-1.807-3.804
		c-1.07,0-1.83,1.433-1.83,3.804s0.662,3.876,1.795,3.876C331.59,80.727,332.096,78.994,332.096,76.851z"/>
	<path fill="#FFFFFF" d="M338.717,81.401h-0.951v-2.528h-3.936v-0.638l3.852-5.851h1.035v5.719h1.229v0.771h-1.229V81.401z
		 M334.84,78.103h2.926V74.9c0-0.494,0.025-0.976,0.049-1.445h-0.049c-0.277,0.554-0.494,0.939-0.723,1.348l-2.203,3.275V78.103z"/>
	<path fill="#FFFFFF" d="M342.487,76.622c-0.975-0.469-1.408-1.264-1.408-2.034c0-1.397,1.096-2.348,2.553-2.348
		c1.637,0,2.42,1.107,2.42,2.191c0,0.771-0.41,1.613-1.482,2.131v0.048c1.109,0.469,1.795,1.276,1.795,2.359
		c0,1.529-1.252,2.577-2.842,2.577c-1.721,0-2.781-1.096-2.781-2.396c0-1.167,0.699-2.01,1.746-2.48V76.622z M345.34,79.078
		c0-1.131-0.758-1.709-1.951-2.095c-1.059,0.349-1.625,1.12-1.625,2.011c0,1.023,0.688,1.806,1.77,1.806
		C344.69,80.799,345.34,80.017,345.34,79.078z M342.03,74.491c-0.012,0.963,0.674,1.493,1.674,1.794
		c0.781-0.301,1.371-0.915,1.371-1.77c0-0.759-0.42-1.541-1.48-1.541C342.547,72.974,342.03,73.708,342.03,74.491z"/>
</g>
<g>
	<path fill="#4D4D4D" d="M100.933,200.534c0.062,1.206-0.567,1.66-1.279,1.66c-0.434,0-0.846-0.135-1.661-0.506
		c-0.557-0.268-1.021-0.516-1.454-0.516c-0.433,0-0.69,0.33-0.701,0.99h-0.608c-0.041-1.072,0.547-1.66,1.33-1.66
		c0.454,0,0.846,0.154,1.63,0.516c0.599,0.278,1.063,0.495,1.496,0.495c0.443,0,0.649-0.372,0.649-0.979H100.933z"/>
	<path fill="#4D4D4D" d="M106.641,204.67h-4.569v-0.526l0.753-0.794c1.836-1.856,2.764-2.981,2.764-4.239
		c0-0.825-0.36-1.589-1.475-1.589c-0.619,0-1.176,0.341-1.547,0.64l-0.289-0.598c0.475-0.424,1.176-0.754,2.001-0.754
		c1.558,0,2.177,1.135,2.177,2.197c0,1.455-1.021,2.692-2.62,4.302l-0.608,0.64v0.021h3.414V204.67z"/>
	<path fill="#4D4D4D" d="M107.664,200.833c0-2.703,1.052-4.013,2.496-4.013c1.465,0,2.361,1.382,2.361,3.909
		c0,2.682-0.938,4.064-2.476,4.064C108.644,204.794,107.664,203.411,107.664,200.833z M111.655,200.771
		c0-1.929-0.464-3.26-1.547-3.26c-0.918,0-1.568,1.229-1.568,3.26c0,2.032,0.567,3.322,1.537,3.322
		C111.223,204.093,111.655,202.606,111.655,200.771z"/>
	<path fill="#4D4D4D" d="M115.619,204.67v-6.921h-0.021l-1.269,0.732l-0.206-0.641l1.599-0.896h0.732v7.726H115.619z"/>
	<path fill="#4D4D4D" d="M120.563,200.575c-0.836-0.402-1.207-1.084-1.207-1.744c0-1.195,0.938-2.011,2.187-2.011
		c1.403,0,2.073,0.948,2.073,1.878c0,0.66-0.351,1.381-1.269,1.825v0.041c0.949,0.402,1.537,1.094,1.537,2.022
		c0,1.31-1.073,2.207-2.435,2.207c-1.475,0-2.383-0.939-2.383-2.053c0-1.001,0.599-1.723,1.496-2.125V200.575z M123.008,202.679
		c0-0.969-0.649-1.465-1.671-1.795c-0.908,0.3-1.393,0.96-1.393,1.723c0,0.877,0.588,1.548,1.517,1.548
		C122.451,204.154,123.008,203.483,123.008,202.679z M120.171,198.749c-0.01,0.825,0.578,1.279,1.435,1.537
		c0.67-0.258,1.176-0.784,1.176-1.517c0-0.649-0.361-1.32-1.27-1.32C120.615,197.449,120.171,198.079,120.171,198.749z"/>
	<path fill="#4D4D4D" d="M124.919,204.144c0-0.392,0.258-0.67,0.619-0.67s0.608,0.278,0.608,0.67c0,0.371-0.237,0.65-0.619,0.65
		C125.136,204.794,124.919,204.484,124.919,204.144z"/>
	<path fill="#4D4D4D" d="M127.859,200.575c0.351-0.516,0.979-0.949,1.805-0.949c1.311,0,2.188,0.98,2.188,2.465
		c0,1.414-0.867,2.703-2.373,2.703s-2.517-1.248-2.517-3.25c0-2.072,0.97-4.238,3.476-4.651c0.289-0.042,0.547-0.072,0.723-0.072
		l0.01,0.712c-2.146,0-3.166,1.557-3.342,3.043H127.859z M130.984,202.153c0-1.187-0.64-1.877-1.567-1.877
		c-0.908,0-1.599,0.887-1.599,1.464c0.01,1.413,0.608,2.383,1.681,2.383C130.396,204.123,130.984,203.319,130.984,202.153z"/>
</g>
<g>
	<path fill="#4D4D4D" d="M171.477,200.534c0.062,1.206-0.567,1.66-1.279,1.66c-0.434,0-0.846-0.135-1.66-0.506
		c-0.558-0.268-1.021-0.516-1.455-0.516c-0.433,0-0.691,0.33-0.701,0.99h-0.608c-0.042-1.072,0.547-1.66,1.33-1.66
		c0.454,0,0.846,0.154,1.63,0.516c0.599,0.278,1.063,0.495,1.496,0.495c0.443,0,0.649-0.372,0.649-0.979H171.477z"/>
	<path fill="#4D4D4D" d="M177.185,204.67h-4.569v-0.526l0.753-0.794c1.836-1.856,2.764-2.981,2.764-4.239
		c0-0.825-0.36-1.589-1.475-1.589c-0.619,0-1.176,0.341-1.547,0.64l-0.289-0.598c0.475-0.424,1.176-0.754,2.001-0.754
		c1.558,0,2.177,1.135,2.177,2.197c0,1.455-1.021,2.692-2.62,4.302l-0.608,0.64v0.021h3.414V204.67z"/>
	<path fill="#4D4D4D" d="M178.207,200.833c0-2.703,1.053-4.013,2.497-4.013c1.464,0,2.361,1.382,2.361,3.909
		c0,2.682-0.938,4.064-2.476,4.064C179.188,204.794,178.207,203.411,178.207,200.833z M182.199,200.771
		c0-1.929-0.464-3.26-1.547-3.26c-0.918,0-1.568,1.229-1.568,3.26c0,2.032,0.567,3.322,1.537,3.322
		C181.767,204.093,182.199,202.606,182.199,200.771z"/>
	<path fill="#4D4D4D" d="M186.163,204.67v-6.921h-0.021l-1.269,0.732l-0.206-0.641l1.599-0.896h0.732v7.726H186.163z"/>
	<path fill="#4D4D4D" d="M191.107,200.575c-0.836-0.402-1.207-1.084-1.207-1.744c0-1.195,0.938-2.011,2.187-2.011
		c1.403,0,2.073,0.948,2.073,1.878c0,0.66-0.351,1.381-1.269,1.825v0.041c0.949,0.402,1.537,1.094,1.537,2.022
		c0,1.31-1.073,2.207-2.435,2.207c-1.475,0-2.383-0.939-2.383-2.053c0-1.001,0.599-1.723,1.496-2.125V200.575z M193.552,202.679
		c0-0.969-0.649-1.465-1.671-1.795c-0.908,0.3-1.393,0.96-1.393,1.723c0,0.877,0.588,1.548,1.517,1.548
		C192.995,204.154,193.552,203.483,193.552,202.679z M190.715,198.749c-0.01,0.825,0.578,1.279,1.435,1.537
		c0.67-0.258,1.176-0.784,1.176-1.517c0-0.649-0.361-1.32-1.269-1.32C191.159,197.449,190.715,198.079,190.715,198.749z"/>
	<path fill="#4D4D4D" d="M195.463,204.144c0-0.392,0.258-0.67,0.619-0.67s0.608,0.278,0.608,0.67c0,0.371-0.237,0.65-0.619,0.65
		C195.68,204.794,195.463,204.484,195.463,204.144z"/>
	<path fill="#4D4D4D" d="M199.785,204.67v-6.921h-0.021l-1.269,0.732l-0.206-0.641l1.599-0.896h0.732v7.726H199.785z"/>
	<path fill="#4D4D4D" d="M207.866,204.67h-4.57v-0.526l0.754-0.794c1.836-1.856,2.764-2.981,2.764-4.239
		c0-0.825-0.361-1.589-1.475-1.589c-0.619,0-1.176,0.341-1.547,0.64l-0.289-0.598c0.475-0.424,1.176-0.754,2-0.754
		c1.559,0,2.178,1.135,2.178,2.197c0,1.455-1.021,2.692-2.621,4.302l-0.607,0.64v0.021h3.414V204.67z"/>
</g>
<g>
	<path fill="#4D4D4D" d="M24.702,200.534c0.062,1.206-0.567,1.66-1.279,1.66c-0.434,0-0.846-0.135-1.661-0.506
		c-0.557-0.268-1.021-0.516-1.454-0.516c-0.433,0-0.69,0.33-0.701,0.99h-0.608c-0.041-1.072,0.547-1.66,1.33-1.66
		c0.454,0,0.846,0.154,1.63,0.516c0.599,0.278,1.063,0.495,1.496,0.495c0.443,0,0.649-0.372,0.649-0.979H24.702z"/>
	<path fill="#4D4D4D" d="M30.41,204.67h-4.569v-0.526l0.753-0.794c1.836-1.856,2.764-2.981,2.764-4.239
		c0-0.825-0.36-1.589-1.475-1.589c-0.619,0-1.176,0.341-1.547,0.64l-0.289-0.598c0.475-0.424,1.176-0.754,2.001-0.754
		c1.558,0,2.177,1.135,2.177,2.197c0,1.455-1.021,2.692-2.62,4.302l-0.608,0.64v0.021h3.414V204.67z"/>
	<path fill="#4D4D4D" d="M31.434,200.833c0-2.703,1.052-4.013,2.496-4.013c1.465,0,2.361,1.382,2.361,3.909
		c0,2.682-0.938,4.064-2.476,4.064C32.413,204.794,31.434,203.411,31.434,200.833z M35.425,200.771c0-1.929-0.464-3.26-1.547-3.26
		c-0.918,0-1.568,1.229-1.568,3.26c0,2.032,0.567,3.322,1.537,3.322C34.992,204.093,35.425,202.606,35.425,200.771z"/>
	<path fill="#4D4D4D" d="M39.389,204.67v-6.921h-0.021l-1.269,0.732l-0.206-0.641l1.599-0.896h0.732v7.726H39.389z"/>
	<path fill="#4D4D4D" d="M43.043,196.944h4.528v0.547l-3.229,7.179h-0.876l3.229-6.993v-0.021h-3.652V196.944z"/>
	<path fill="#4D4D4D" d="M48.688,204.144c0-0.392,0.258-0.67,0.619-0.67s0.608,0.278,0.608,0.67c0,0.371-0.237,0.65-0.619,0.65
		C48.905,204.794,48.688,204.484,48.688,204.144z"/>
	<path fill="#4D4D4D" d="M53.011,204.67v-6.921H52.99l-1.269,0.732l-0.206-0.641l1.599-0.896h0.732v7.726H53.011z"/>
	<path fill="#4D4D4D" d="M61.091,204.67h-4.569v-0.526l0.753-0.794c1.836-1.856,2.764-2.981,2.764-4.239
		c0-0.825-0.36-1.589-1.475-1.589c-0.619,0-1.176,0.341-1.547,0.64l-0.289-0.598c0.475-0.424,1.176-0.754,2.001-0.754
		c1.558,0,2.177,1.135,2.177,2.197c0,1.455-1.021,2.692-2.62,4.302l-0.608,0.64v0.021h3.414V204.67z"/>
</g>
<g>
	<path fill="#4D4D4D" d="M247.702,200.534c0.063,1.206-0.566,1.66-1.279,1.66c-0.434,0-0.846-0.135-1.66-0.506
		c-0.557-0.268-1.021-0.516-1.455-0.516c-0.432,0-0.689,0.33-0.701,0.99h-0.607c-0.041-1.072,0.547-1.66,1.33-1.66
		c0.453,0,0.846,0.154,1.629,0.516c0.6,0.278,1.063,0.495,1.496,0.495c0.443,0,0.65-0.372,0.65-0.979H247.702z"/>
	<path fill="#4D4D4D" d="M253.411,204.67h-4.57v-0.526l0.754-0.794c1.836-1.856,2.764-2.981,2.764-4.239
		c0-0.825-0.361-1.589-1.475-1.589c-0.619,0-1.176,0.341-1.547,0.64l-0.289-0.598c0.475-0.424,1.176-0.754,2-0.754
		c1.559,0,2.178,1.135,2.178,2.197c0,1.455-1.021,2.692-2.621,4.302l-0.607,0.64v0.021h3.414V204.67z"/>
	<path fill="#4D4D4D" d="M254.434,200.833c0-2.703,1.051-4.013,2.496-4.013c1.465,0,2.361,1.382,2.361,3.909
		c0,2.682-0.939,4.064-2.477,4.064C255.413,204.794,254.434,203.411,254.434,200.833z M258.424,200.771
		c0-1.929-0.463-3.26-1.547-3.26c-0.918,0-1.568,1.229-1.568,3.26c0,2.032,0.568,3.322,1.537,3.322
		C257.993,204.093,258.424,202.606,258.424,200.771z"/>
	<path fill="#4D4D4D" d="M262.389,204.67v-6.921h-0.021l-1.268,0.732l-0.207-0.641l1.6-0.896h0.732v7.726H262.389z"/>
	<path fill="#4D4D4D" d="M269.788,201.019c-0.422,0.536-1.021,0.855-1.773,0.855c-1.32,0-2.137-1.031-2.137-2.341
		c0-1.413,0.93-2.713,2.445-2.713c1.445,0,2.363,1.259,2.363,3.229c0,2.568-1.301,4.353-3.281,4.662
		c-0.361,0.062-0.691,0.083-0.918,0.072v-0.712c0.217,0.021,0.465-0.01,0.795-0.051c1.299-0.186,2.279-1.238,2.537-3.002H269.788z
		 M266.745,199.481c0,1.042,0.588,1.743,1.475,1.743c0.836,0,1.6-0.64,1.6-1.259c0-1.484-0.547-2.485-1.568-2.485
		C267.354,197.48,266.745,198.326,266.745,199.481z"/>
	<path fill="#4D4D4D" d="M271.698,204.144c0-0.392,0.258-0.67,0.619-0.67s0.609,0.278,0.609,0.67c0,0.371-0.238,0.65-0.619,0.65
		C271.915,204.794,271.698,204.484,271.698,204.144z"/>
	<path fill="#4D4D4D" d="M274.639,200.575c0.352-0.516,0.98-0.949,1.805-0.949c1.311,0,2.188,0.98,2.188,2.465
		c0,1.414-0.867,2.703-2.373,2.703s-2.516-1.248-2.516-3.25c0-2.072,0.969-4.238,3.477-4.651c0.287-0.042,0.545-0.072,0.721-0.072
		l0.01,0.712c-2.145,0-3.166,1.557-3.342,3.043H274.639z M277.764,202.153c0-1.187-0.639-1.877-1.566-1.877
		c-0.908,0-1.6,0.887-1.6,1.464c0.01,1.413,0.609,2.383,1.682,2.383C277.176,204.123,277.764,203.319,277.764,202.153z"/>
</g>
<g>
	<path fill="#4D4D4D" d="M318.247,200.534c0.061,1.206-0.568,1.66-1.279,1.66c-0.434,0-0.846-0.135-1.66-0.506
		c-0.559-0.268-1.021-0.516-1.455-0.516s-0.691,0.33-0.701,0.99h-0.609c-0.041-1.072,0.547-1.66,1.33-1.66
		c0.455,0,0.846,0.154,1.631,0.516c0.598,0.278,1.063,0.495,1.496,0.495c0.443,0,0.648-0.372,0.648-0.979H318.247z"/>
	<path fill="#4D4D4D" d="M323.954,204.67h-4.568v-0.526l0.752-0.794c1.836-1.856,2.764-2.981,2.764-4.239
		c0-0.825-0.359-1.589-1.475-1.589c-0.619,0-1.176,0.341-1.547,0.64l-0.289-0.598c0.475-0.424,1.176-0.754,2.002-0.754
		c1.557,0,2.176,1.135,2.176,2.197c0,1.455-1.021,2.692-2.619,4.302l-0.609,0.64v0.021h3.414V204.67z"/>
	<path fill="#4D4D4D" d="M324.977,200.833c0-2.703,1.053-4.013,2.496-4.013c1.465,0,2.361,1.382,2.361,3.909
		c0,2.682-0.938,4.064-2.475,4.064C325.958,204.794,324.977,203.411,324.977,200.833z M328.969,200.771
		c0-1.929-0.465-3.26-1.547-3.26c-0.918,0-1.568,1.229-1.568,3.26c0,2.032,0.566,3.322,1.537,3.322
		C328.536,204.093,328.969,202.606,328.969,200.771z"/>
	<path fill="#4D4D4D" d="M332.932,204.67v-6.921h-0.02l-1.27,0.732l-0.205-0.641l1.598-0.896h0.732v7.726H332.932z"/>
	<path fill="#4D4D4D" d="M340.333,201.019c-0.424,0.536-1.021,0.855-1.775,0.855c-1.32,0-2.135-1.031-2.135-2.341
		c0-1.413,0.928-2.713,2.445-2.713c1.443,0,2.361,1.259,2.361,3.229c0,2.568-1.299,4.353-3.279,4.662
		c-0.361,0.062-0.691,0.083-0.918,0.072v-0.712c0.215,0.021,0.463-0.01,0.793-0.051c1.301-0.186,2.279-1.238,2.537-3.002H340.333z
		 M337.29,199.481c0,1.042,0.588,1.743,1.475,1.743c0.836,0,1.598-0.64,1.598-1.259c0-1.484-0.545-2.485-1.566-2.485
		C337.897,197.48,337.29,198.326,337.29,199.481z"/>
	<path fill="#4D4D4D" d="M342.243,204.144c0-0.392,0.258-0.67,0.619-0.67s0.607,0.278,0.607,0.67c0,0.371-0.236,0.65-0.619,0.65
		C342.459,204.794,342.243,204.484,342.243,204.144z"/>
	<path fill="#4D4D4D" d="M346.565,204.67v-6.921h-0.02l-1.27,0.732l-0.205-0.641l1.598-0.896h0.732v7.726H346.565z"/>
	<path fill="#4D4D4D" d="M354.645,204.67h-4.57v-0.526l0.754-0.794c1.836-1.856,2.764-2.981,2.764-4.239
		c0-0.825-0.361-1.589-1.475-1.589c-0.619,0-1.176,0.341-1.547,0.64l-0.289-0.598c0.475-0.424,1.176-0.754,2-0.754
		c1.559,0,2.178,1.135,2.178,2.197c0,1.455-1.021,2.692-2.621,4.302l-0.607,0.64v0.021h3.414V204.67z"/>
</g>
</svg>
