<svg xmlns="http://www.w3.org/2000/svg" viewBox="0 0 66.639 57.188"><defs><style>.a{opacity:0.78;}.b{fill:#f3b3bc;}.c{fill:#fff;}</style></defs><title>header_mail</title><g class="a"><rect class="b" width="66.812" height="57.203"/></g><path class="c" d="M3.516,46.189c.015-.573.022-.955.022-1.148A5.069,5.069,0,0,0,3.451,44a3.619,3.619,0,0,1,.892.162.182.182,0,0,1,.137.169.364.364,0,0,1-.055.147,1.31,1.31,0,0,0-.136.564c-.019.222-.033.563-.044,1.023a10.849,10.849,0,0,0,1.632-.469.286.286,0,0,1,.076-.016c.039,0,.063.031.07.092a3.786,3.786,0,0,1,.043.474c0,.065-.041.112-.125.142a11.755,11.755,0,0,1-1.734.457q-.016.624-.017,1.337,0,.4.006.913a7.06,7.06,0,0,1,2.909-.848,2.2,2.2,0,0,1,1.675.637,2.083,2.083,0,0,1-.207,2.93,2.607,2.607,0,0,1-1.6.452,2.7,2.7,0,0,1-.892-.136c-.091-.025-.142-.121-.152-.289a1.62,1.62,0,0,0-.18-.511,2.849,2.849,0,0,0,1.19.233,1.676,1.676,0,0,0,1.175-.386,1.4,1.4,0,0,0-.055-2.007,1.7,1.7,0,0,0-1.087-.32,6.712,6.712,0,0,0-2.773.936q0,.56.06,1.7c.008.189.022.42.044.691.015.188.021.312.021.369,0,.146-.042.23-.125.256a2.137,2.137,0,0,1-.468.076c-.043,0-.1-.035-.157-.1,0-.008-.046-.057-.125-.146-.048-.055-.093-.105-.137-.152A9.117,9.117,0,0,0,1.694,51.13c-.063.036-.188.118-.381.245a.288.288,0,0,1-.158.076c-.051,0-.106-.042-.168-.125a4.116,4.116,0,0,1-.343-.675,5.808,5.808,0,0,0,1.082-.392q.566-.273,1.8-.979-.01-.794-.011-2.437a17.536,17.536,0,0,1-2.034.12.194.194,0,0,1-.212-.169,3.105,3.105,0,0,1-.07-.522c.195.012.4.017.6.017A14.2,14.2,0,0,0,3.516,46.189ZM3.527,50q-.108.06-1.425.859,1.289.745,1.387.8a.112.112,0,0,0,.06.021c.033,0,.05-.033.05-.1,0-.092-.015-.355-.033-.8C3.554,50.482,3.542,50.221,3.527,50Zm3.758-4.132a4.331,4.331,0,0,1,.267-.469c.032-.061.072-.092.119-.092H7.7a3.916,3.916,0,0,1,2.208,1.169.137.137,0,0,1,.033.076.119.119,0,0,1-.033.071,3.155,3.155,0,0,1-.358.456.084.084,0,0,1-.141,0A4.011,4.011,0,0,0,7.285,45.863Z"/><path class="c" d="M15.844,47.08a.077.077,0,0,1-.087.088l-1.114-.021H12.7V50.8l.021,2.316a.077.077,0,0,1-.087.087H12.1a.077.077,0,0,1-.087-.087l.021-2.316V46.065l-.021-2.339a.077.077,0,0,1,.087-.087l1.262.021h1.278l1.114-.021a.077.077,0,0,1,.087.087l-.021,1.022v1.3Zm-.659-1.973v-.9H12.7v.9Zm0,1.506V45.64H12.7v.974h2.49Zm3.057,5.122a.082.082,0,0,1-.093.093h-.468c-.065,0-.1-.031-.1-.093v-.544h-2.4v.745q0,.093-.087.093h-.479a.082.082,0,0,1-.093-.093l.021-1.767v-.783l-.021-1.1a.077.077,0,0,1,.087-.087l1.147.021h1.251l1.147-.021a.077.077,0,0,1,.087.087l-.022.913v.838Zm-.658-1.1V48.772h-2.4v1.865Zm3.3,1.353a1.039,1.039,0,0,1-.288.85.932.932,0,0,1-.479.184,7.485,7.485,0,0,1-.9.039.328.328,0,0,1-.19-.033.485.485,0,0,1-.065-.18,1.8,1.8,0,0,0-.2-.488,7.913,7.913,0,0,0,.843.043.713.713,0,0,0,.5-.119.656.656,0,0,0,.093-.42V47.147H18.2l-1.207.021c-.065,0-.1-.029-.1-.088l.021-.962V44.682l-.021-.957c0-.058.032-.087.1-.087l1.207.021h1.376l1.207-.021a.077.077,0,0,1,.087.087l-.021,1.593v5.058Zm-.691-6.883v-.9H17.551v.9Zm0,1.506V45.64H17.551v.974h2.637Z"/><path class="c" d="M23.6,44.852a2.736,2.736,0,0,1,.881.233c.065.032.1.074.1.125a1.021,1.021,0,0,1-.043.2,3.866,3.866,0,0,0-.087,1.022,19.963,19.963,0,0,0,.157,2.528,4.6,4.6,0,0,0,.495,1.7q.315.566.686.565.642,0,1.19-1.745a1.522,1.522,0,0,0,.364.555.27.27,0,0,1,.1.2.342.342,0,0,1-.011.081,3.524,3.524,0,0,1-.729,1.272,1.28,1.28,0,0,1-.936.473q-.729,0-1.262-.973a6.212,6.212,0,0,1-.62-2.066,22.358,22.358,0,0,1-.2-3.105A5.4,5.4,0,0,0,23.6,44.852Zm5.7,1.391a5.272,5.272,0,0,1,.489-.3.211.211,0,0,1,.1-.027.085.085,0,0,1,.064.027A6.6,6.6,0,0,1,32.13,49.8v.027a.139.139,0,0,1-.082.12,2.439,2.439,0,0,1-.511.255.167.167,0,0,1-.044.006c-.059,0-.092-.032-.1-.1A6.7,6.7,0,0,0,29.3,46.243Z"/><path class="c" d="M44.033,47.357a1.674,1.674,0,0,0-.31.446q-.082.18-.147.18a.4.4,0,0,1-.174-.065,10.616,10.616,0,0,1-4.714-3.834,12.122,12.122,0,0,1-4.53,3.9.6.6,0,0,1-.168.065c-.033,0-.082-.053-.147-.158a1.46,1.46,0,0,0-.343-.4,10.043,10.043,0,0,0,4.568-3.769,2.837,2.837,0,0,0,.31-.631c.279.044.51.087.69.13.105.033.158.075.158.126a.163.163,0,0,1-.082.13l-.1.093A10.493,10.493,0,0,0,44.033,47.357Zm-2.105,5.694c0,.059-.032.088-.1.088H41.3a.077.077,0,0,1-.087-.088v-.457H36.273v.512c0,.055-.028.082-.088.082h-.537c-.058,0-.088-.027-.088-.082l.021-1.936v-.9l-.021-1.251a.077.077,0,0,1,.088-.087l1.539.021H40.3l1.529-.021c.065,0,.1.029.1.087l-.021,1.093v1.022Zm-.711-1.061V49.554H36.274V51.99Zm-.2-4.551a.077.077,0,0,1-.087.087l-1.306-.021H37.844l-1.3.021a.077.077,0,0,1-.087-.087v-.484a.076.076,0,0,1,.087-.086l1.3.021h1.778l1.306-.021a.076.076,0,0,1,.087.086Z"/><path class="c" d="M47.714,43.628a4.906,4.906,0,0,1,.887.146.142.142,0,0,1,.108.142.364.364,0,0,1-.032.136,1.844,1.844,0,0,0-.1.407c-.007.152-.02.365-.038.637s-.03.5-.038.68a.946.946,0,0,0,.174-.092.128.128,0,0,1,.082-.033c.043,0,.114.049.212.146a.387.387,0,0,1,.142.245c0,.048-.047.125-.142.233a6.488,6.488,0,0,0-.549.8c-.008.16-.011.367-.011.621a5.21,5.21,0,0,1,3.388-1.426,2.537,2.537,0,0,1,2.039.854A2.64,2.64,0,0,1,54.44,48.9a3.044,3.044,0,0,1-.815,2.088,4.5,4.5,0,0,1-2.132,1.272.348.348,0,0,1-.13.027.241.241,0,0,1-.2-.1,1.805,1.805,0,0,0-.532-.4,4.753,4.753,0,0,0,2.327-1.234,2.4,2.4,0,0,0,.68-1.69,1.92,1.92,0,0,0-.571-1.479,1.8,1.8,0,0,0-1.289-.468,5.1,5.1,0,0,0-3.376,1.545v.777q0,1.048.038,3.426a.094.094,0,0,1-.088.1q-.207.021-.6.021c-.058,0-.087-.033-.087-.1q.027-1.642.043-3.98-.369.522-1.021,1.457-.594.853-.87,1.24a.161.161,0,0,1-.114.07.146.146,0,0,1-.076-.027,4.5,4.5,0,0,1-.408-.4.1.1,0,0,1-.038-.076.159.159,0,0,1,.049-.1q1.12-1.347,2.479-3.263c0-.051.013-.237.027-.56.008-.182.011-.321.011-.419q-.63.174-1.326.424a1.821,1.821,0,0,0-.311.152.6.6,0,0,1-.144.079l-.03,0c-.04,0-.1-.049-.174-.146a4.155,4.155,0,0,1-.31-.614,5.72,5.72,0,0,0,.733-.108l.772-.213q.429-.118.8-.223c.007-.166.014-.406.021-.718.007-.271.015-.5.021-.68A3.74,3.74,0,0,0,47.714,43.628Z"/><path class="c" d="M63.021,46.488q.021-.68.021-1.936a3.818,3.818,0,0,0-.1-.925,4.816,4.816,0,0,1,.864.169c.1.028.146.076.146.141a.3.3,0,0,1-.064.18.954.954,0,0,0-.093.4q-.016,1.187-.044,1.9,1.556-.12,2.3-.142c.075,0,.114.036.114.109s0,.166,0,.25,0,.162,0,.238c0,.092-.039.137-.114.137q-1.094,0-2.328.1-.06,1.728-.136,2.3a1.1,1.1,0,0,1-1.169,1.114,5.452,5.452,0,0,1-.832-.076c-.08-.019-.125-.085-.137-.2a2.416,2.416,0,0,0-.179-.626,3.992,3.992,0,0,0,1.082.18.443.443,0,0,0,.386-.168,1,1,0,0,0,.146-.468,17.122,17.122,0,0,0,.114-2q-1.583.135-3.187.381-.017,1.463-.016,1.99,0,.875.038,1.337a1.089,1.089,0,0,0,.479.962,3.733,3.733,0,0,0,1.527.207,17.588,17.588,0,0,0,2.692-.207h.054a.113.113,0,0,1,.125.1,3.418,3.418,0,0,1,.033.522c0,.1-.033.15-.1.157a19.935,19.935,0,0,1-2.7.158,3.956,3.956,0,0,1-2.246-.44,1.857,1.857,0,0,1-.57-1.332q-.054-.49-.055-3.35c-.655.1-1.184.2-1.583.282a4.245,4.245,0,0,0-.511.142.277.277,0,0,1-.087.017.144.144,0,0,1-.136-.1,3.721,3.721,0,0,1-.2-.69,5.881,5.881,0,0,0,.826-.065q.364-.05.919-.146c.442-.076.7-.121.772-.137.007-.285.011-.7.011-1.256a4.582,4.582,0,0,0-.136-1.093,4.145,4.145,0,0,1,.881.147c.1.025.157.081.157.168a.392.392,0,0,1-.027.125.566.566,0,0,0-.038.109,1.664,1.664,0,0,0-.081.488q0,.028-.033,1.213C61.006,46.705,62.075,46.582,63.021,46.488Z"/><path class="c" d="M45.025,12.781H21.786a.749.749,0,0,0-.745.748V15L33.4,23.28,45.77,15V13.529A.749.749,0,0,0,45.025,12.781Z"/><path class="c" d="M21.041,18.054v9.825a2.984,2.984,0,0,0,2.985,2.984H42.785a2.984,2.984,0,0,0,2.985-2.984V18.054L33.4,26.341Z"/></svg>