<?xml version="1.0" encoding="utf-8"?>
<!-- Generator: Adobe Illustrator 24.0.1, SVG Export Plug-In . SVG Version: 6.00 Build 0)  -->
<svg version="1.1" id="レイヤー_1" xmlns="http://www.w3.org/2000/svg" xmlns:xlink="http://www.w3.org/1999/xlink" x="0px"
	 y="0px" viewBox="0 0 66.8 57.2" style="enable-background:new 0 0 66.8 57.2;" xml:space="preserve">
<style type="text/css">
	.st0{fill:#F3B3BC;}
	.st1{fill:#FFFFFF;}
</style>
<title>header_mail</title>
<rect y="0" class="st0" width="66.8" height="57.2"/>
<path d="M7.5,45.7C6.7,45.9,6,46,5.3,46.1c0,0.7,0,1.5,0,2.2c0.8-0.3,1.7-0.5,2.6-0.5c1.9,0,3.1,1,3.1,2.6C11,51.8,10,53,8.6,53.1
	c-0.1,0-0.2,0-0.4,0c-0.9,0-1.7-0.4-2.2-1.1c0.1-0.2,0.3-0.4,0.4-0.6c0.4,0.6,1.1,0.9,1.8,0.9c1,0,1.8-0.7,1.8-1.7
	c0-0.1,0-0.1,0-0.2c0-1.1-0.8-2-2.3-1.9c-0.9,0-1.7,0.2-2.5,0.5c0,0.8,0,2.2,0,2.5c0.1,0.9-0.7,1.7-1.6,1.8c-0.1,0-0.1,0-0.2,0
	c-1,0.1-1.8-0.6-1.9-1.6c0,0,0-0.1,0-0.1c0.1-0.9,0.6-1.7,1.4-2.2c0.5-0.3,1-0.6,1.5-0.8v-2.4c-0.9,0.1-1.8,0.1-2.7,0.1l0-0.8
	c1,0,1.9,0,2.7-0.1v-2.1l1.1,0.1c0,0.1-0.1,0.2-0.3,0.2c0,0.4,0,1.1,0,1.7c0.7-0.1,1.4-0.2,2-0.5L7.5,45.7z M4.5,51.5
	c0-0.3,0-1.2,0-2.1c-0.4,0.2-0.8,0.4-1.2,0.7c-0.6,0.3-0.9,0.9-1,1.6c0,0.6,0.4,1.1,1,1.1c0,0,0.1,0,0.1,0c0.6,0,1-0.4,1-1
	C4.5,51.6,4.5,51.5,4.5,51.5L4.5,51.5z M10.9,47c-0.8-0.7-1.6-1.2-2.6-1.6l0.4-0.7c1,0.4,1.9,1,2.7,1.6L10.9,47z"/>
<path d="M16.7,47.6h-3.3v6h-0.7v-10h4.1V47.6z M15.9,44.2h-2.6v1h2.6V44.2z M13.3,46.9h2.6v-1.1h-2.6L13.3,46.9z M19.3,51.9h-3.6
	v0.7H15v-4h4.3L19.3,51.9z M18.6,49.3h-2.8v2h2.8V49.3z M21.9,43.6v8.9c0,0.5-0.1,0.8-0.5,0.9c-0.7,0.1-1.3,0.2-2,0.1
	c-0.1-0.3-0.2-0.5-0.3-0.8c0.4,0,0.8,0,1.1,0c0.9,0,1,0,1-0.3v-4.9h-3.4v-4L21.9,43.6z M21.2,44.2h-2.7v1h2.7V44.2z M18.5,46.9h2.7
	v-1.1h-2.7L18.5,46.9z"/>
<path d="M24.5,44.6c0,0.1-0.1,0.2-0.3,0.2c-0.1,0.9-0.2,1.9-0.2,2.8c0,0.4,0,0.8,0,1.2c0.1,1.9,0.9,3.1,1.8,3.1c0.5,0,1-1.2,1.4-2.4
	c0.2,0.2,0.4,0.3,0.7,0.5c-0.5,1.5-1.2,2.8-2.1,2.8c-1.4,0-2.4-1.7-2.6-3.9c0-0.4,0-0.9,0-1.4c0-1,0.1-2,0.2-3L24.5,44.6z M32,49.9
	c-0.2-1.8-1.3-3.4-2.8-4.3l0.5-0.6c1.7,0.9,2.9,2.6,3.2,4.6L32,49.9z"/>
<path d="M39.6,43.1c0,0.1-0.1,0.2-0.2,0.2c1.3,1.7,3,3,5,3.9c-0.2,0.2-0.4,0.4-0.5,0.7c-1.9-1-3.6-2.4-4.9-4
	C37.6,45.6,36,47,34.1,48c-0.1-0.2-0.3-0.4-0.5-0.6c2-1,3.6-2.5,4.9-4.3L39.6,43.1z M35.5,53.6V49h7v4.6h-0.8v-0.5h-5.4v0.5
	L35.5,53.6z M36,46.8h5.8v0.7H36V46.8z M41.7,49.7h-5.5v2.7h5.5V49.7z"/>
<path d="M47.4,43.3l1.1,0.1c0,0.1-0.1,0.2-0.3,0.2c0,0.5-0.1,1.2-0.1,1.6c0.1,0,0.2,0.1,0.4,0.2c-0.2,0.4-0.4,0.9-0.5,1.4
	c0,0.2,0,0.3,0,0.5c1.1-0.8,2.4-1.3,3.7-1.4c2,0,3,1.3,3,3.2c0,2.4-1.9,3.4-4.9,3.7c-0.1-0.3-0.2-0.5-0.3-0.7c2.8-0.3,4.4-1.1,4.4-3
	c0.2-1.2-0.7-2.3-1.9-2.5c-0.1,0-0.2,0-0.3,0c-1.4,0.1-2.6,0.6-3.7,1.5c0,1.6,0,3.6,0,5.1h-0.8c0-0.7,0-4,0-4.8
	c-0.6,1-1.3,1.9-2.1,2.6l-0.4-0.7c1.1-0.9,2-2.1,2.6-3.4l0-0.9c-0.7,0.1-1.5,0.2-2.2,0.2l0-0.8c0.8,0,1.5,0,2.3-0.2L47.4,43.3z"/>
<path d="M63.1,43.5c0,0.1-0.1,0.2-0.2,0.2c0,0.8,0.1,1.7,0.1,2.6c0.9-0.1,1.8-0.3,2.4-0.4l0.1,0.8c-0.7,0.1-1.6,0.2-2.5,0.3
	c0,0.8,0,1.7-0.1,2.5c-0.1,0.6-0.6,1.1-1.3,1.1c-0.6,0-1.2-0.2-1.7-0.5c0.1-0.2,0.1-0.4,0.1-0.7c0.5,0.3,1,0.4,1.5,0.4
	c0.7,0,0.8-0.7,0.7-2.7c-1.3,0.2-2.7,0.4-3.7,0.6c0,1.1,0,2.1,0.1,2.7c0.1,1.7,1,1.8,2.6,1.8c1,0,2-0.1,3-0.2l0,0.8
	C63.4,53,62.3,53,61.3,53c-1.8,0-3.3,0-3.5-2.5c-0.1-0.6-0.1-1.6-0.1-2.7c-0.7,0.1-1.6,0.3-2.2,0.4l-0.1-0.8
	c0.6-0.1,1.5-0.3,2.3-0.4c0-1,0-2,0-2.9l1.1,0.1c0,0.1-0.1,0.2-0.3,0.2c0,0.7,0,1.6,0,2.4l3.7-0.6c0-1-0.1-2.1-0.1-3L63.1,43.5z"/>
<path class="st1" d="M45,12.8H21.8c-0.4,0-0.7,0.3-0.7,0.7c0,0,0,0,0,0V15l12.4,8.3L45.8,15v-1.5C45.8,13.1,45.4,12.8,45,12.8z"/>
<path class="st1" d="M21,18.1v9.8c0,1.7,1.3,3,3,3h18.8c1.6,0,3-1.3,3-2.9c0,0,0-0.1,0-0.1v-9.8l-12.4,8.3L21,18.1z"/>
</svg>
