<?xml version="1.0" encoding="utf-8"?>
<!-- Generator: Adobe Illustrator 25.4.1, SVG Export Plug-In . SVG Version: 6.00 Build 0)  -->
<svg version="1.1" id="レイヤー_1" xmlns="http://www.w3.org/2000/svg" xmlns:xlink="http://www.w3.org/1999/xlink" x="0px"
	 y="0px" viewBox="0 0 251.3 125.6" style="enable-background:new 0 0 251.3 125.6;" xml:space="preserve">
<style type="text/css">
	.st0{fill:#FFFFFF;}
	.st1{fill:#4D4D4D;}
	.st2{fill:none;stroke:#92D050;stroke-width:2.6937;stroke-miterlimit:10;}
	.st3{fill:#92D050;}
</style>
<g>
	<path class="st0" d="M10.6,124.8c-5.5,0-9.9-5-9.9-11.2V12c0-6.2,4.4-11.2,9.9-11.2h230.1c5.5,0,9.9,5,9.9,11.2v101.6
		c0,6.2-4.4,11.2-9.9,11.2C240.7,124.8,10.6,124.8,10.6,124.8z"/>
</g>
<g>
	<path class="st1" d="M20.4,75.9c0,0.6-0.5,1-1,1s-1-0.5-1-1s0.5-1,1-1C20,74.8,20.4,75.3,20.4,75.9z"/>
	<path class="st1" d="M34,74.8h-4c0.7,2.4,2,4.3,4.1,5.1c-0.2,0.2-0.4,0.4-0.5,0.6c-2.1-0.9-3.4-2.7-4.1-5.1c-0.5,2-1.6,4-4.2,5.1
		c-0.1-0.2-0.3-0.4-0.5-0.6c2.7-1.1,3.7-3.1,4.1-5.1H25v-0.7h4c0.1-1.1,0.1-2.1,0.1-3l1,0.1c0,0.1-0.1,0.1-0.2,0.2
		c0,0.8,0,1.8-0.1,2.7H34V74.8z"/>
	<path class="st1" d="M39.9,72.3h4v2.4h-0.7V73H36v1.7h-0.7v-2.4h3.9v-1.2l0.9,0.1c0,0.1-0.1,0.1-0.2,0.1V72.3z M42.1,76.4h-2.3
		c0,0.3-0.1,0.6-0.2,0.9H43v3.2h-0.7v-0.4H37v0.4h-0.7v-3.2h2.8c0-0.3,0.1-0.6,0.1-0.9H37v-2.6h5.1V76.4z M42.3,79.6V78H37v1.6H42.3
		z M37.7,74.4v1.5h3.8v-1.5H37.7z"/>
	<path class="st1" d="M49.6,79.7v-6.8l0,0l-1.2,0.7L48.2,73l1.6-0.9h0.7v7.6H49.6z"/>
	<path class="st1" d="M57.3,72.1v0.7h-2.7L54.3,75c0.2,0,0.3,0,0.6,0c1.3,0,2.5,0.8,2.5,2.3s-1.1,2.6-2.6,2.6
		c-0.8,0-1.4-0.2-1.7-0.4l0.2-0.7c0.3,0.2,0.8,0.4,1.5,0.4c1,0,1.8-0.7,1.8-1.8c0-1-0.7-1.8-2.1-1.8c-0.4,0-0.7,0-1,0.1l0.5-3.5
		L57.3,72.1L57.3,72.1z"/>
	<path class="st1" d="M62.3,71.7c0,0.1-0.1,0.1-0.2,0.1c-0.7,1.6-1.9,3.1-3.2,4c-0.1-0.1-0.4-0.4-0.5-0.5c1.3-0.8,2.4-2.3,3.1-3.9
		L62.3,71.7z M65.9,75.1h0.2h0.4c0,0.1,0,0.2,0,0.2c-0.2,3.3-0.3,4.4-0.7,4.8c-0.3,0.3-0.6,0.4-1.2,0.4c-0.3,0-0.8,0-1.2,0
		c0-0.2-0.1-0.5-0.2-0.7c0.7,0.1,1.3,0.1,1.6,0.1c0.2,0,0.3,0,0.4-0.1c0.3-0.3,0.4-1.3,0.6-4H63c-0.3,1.9-0.8,3.9-3.6,4.9
		c-0.1-0.2-0.3-0.4-0.4-0.6c2.4-0.8,3-2.5,3.3-4.3H60v-0.7C60,75.1,65.9,75.1,65.9,75.1z M65,71.4c0.7,1.4,2,3,3.1,3.7
		c-0.2,0.1-0.4,0.4-0.6,0.6c-1.1-0.9-2.4-2.6-3.2-4.1L65,71.4z"/>
	<path class="st1" d="M20.4,94.6c0,0.6-0.5,1-1,1s-1-0.5-1-1s0.5-1,1-1C20,93.6,20.4,94.1,20.4,94.6z"/>
	<path class="st1" d="M25.1,92.8c0.7,0.3,1.5,0.7,1.9,1l-0.4,0.6c-0.4-0.3-1.2-0.8-1.9-1.1L25.1,92.8z M25.1,98.8
		c0.5-0.8,1.3-2.2,1.8-3.3l0.5,0.4c-0.5,1.1-1.2,2.4-1.7,3.2c0,0.1,0.1,0.1,0.1,0.1v0.1L25.1,98.8z M25.7,90
		c0.6,0.3,1.4,0.7,1.8,1.1l-0.4,0.6c-0.4-0.4-1.2-0.9-1.8-1.2L25.7,90z M29.2,97.8c0,0.6,0.1,0.7,0.9,0.7h2.7c0.6,0,0.7-0.3,0.8-1.4
		c0.2,0.1,0.4,0.2,0.6,0.3c-0.1,1.4-0.3,1.8-1.4,1.8h-2.7c-1.2,0-1.5-0.3-1.5-1.3v-3.3l-1,0.4l-0.3-0.6l1.3-0.5V91l0.9,0.1
		c0,0.1-0.1,0.1-0.2,0.1v2.2l1.5-0.6V90l0.8,0.1c0,0.1-0.1,0.1-0.2,0.1v2.4l1.7-0.7c0,0,0.2-0.1,0.2-0.2l0.6,0.2L33.8,92
		c0,1.9,0,3.5-0.1,3.9c-0.1,0.6-0.4,0.8-1.6,0.8c0-0.2-0.1-0.5-0.2-0.6c0.2,0,0.3,0,0.5,0c0.6,0,0.6,0,0.7-0.3
		c0.1-0.3,0.1-1.5,0.1-3.2l-1.7,0.7v3.9h-0.6v-3.6l-1.5,0.6L29.2,97.8L29.2,97.8z"/>
	<path class="st1" d="M36.5,94.8v-2.4c-0.4,0.4-0.7,0.8-1.1,1.1c-0.1-0.1-0.3-0.4-0.5-0.5c0.9-0.7,1.9-1.9,2.5-3l0.8,0.3
		c0,0.1-0.1,0.1-0.2,0.1c-0.2,0.4-0.5,0.9-0.9,1.3l0.2,0.1c0,0.1-0.1,0.1-0.2,0.1v3L36.5,94.8L36.5,94.8z M40.3,95.8
		c0.2,0.5,0.6,1,0.9,1.4c0.6-0.3,1.4-0.8,1.8-1.2l0.6,0.5c0,0.1-0.1,0.1-0.2,0.1c-0.5,0.3-1.2,0.7-1.9,1c0.7,0.6,1.6,1,2.7,1.2
		c-0.2,0.1-0.3,0.4-0.4,0.6c-2.1-0.5-3.5-1.7-4.3-3.6l0,0c-0.4,0.4-1,0.7-1.6,1h0.2c0,0.1-0.1,0.1-0.2,0.1v1.5
		c0.8-0.1,1.7-0.1,2.5-0.2v0.5c-1.4,0.2-3,0.3-3.9,0.4c0,0.1-0.1,0.1-0.1,0.1l-0.3-0.7l1.1-0.1V97c-0.7,0.3-1.4,0.5-2,0.7
		c-0.1-0.2-0.3-0.4-0.4-0.5c1.3-0.3,2.8-0.8,3.8-1.5H35v-0.6h4.2V94l0.9,0.1c0,0.1-0.1,0.1-0.2,0.1v0.9h4.3v0.6L40.3,95.8L40.3,95.8
		z M37.8,91.8l2.1-0.2c-0.2-0.5-0.2-1.1-0.3-1.7h0.9c0,0.1-0.1,0.1-0.2,0.2c0,0.5,0.1,1,0.3,1.5l3.5-0.3l0.1,0.6l-3.3,0.3
		c0.5,1.2,1.4,2,2.4,2c0.3,0,0.4-0.3,0.5-1c0.2,0.1,0.4,0.3,0.5,0.3c-0.1,1.1-0.4,1.4-1,1.4c-1.3,0-2.4-1.1-3-2.6l-2.2,0.2
		L37.8,91.8z M41.7,90c0.6,0.2,1.4,0.5,1.8,0.7l-0.3,0.5c-0.4-0.3-1.2-0.6-1.8-0.8L41.7,90z"/>
	<path class="st1" d="M47.7,98.9H47l3.2-8.3h0.7L47.7,98.9z"/>
	<path class="st1" d="M55.9,98.2h4.6v0.7h-9.2v-0.7h3.9v-8.1l0.9,0.1c0,0.1-0.1,0.1-0.2,0.1v3h3.9V94h-3.9V98.2z"/>
	<path class="st1" d="M70.5,93.8h0.4c-0.1,0.5-0.6,1.9-1,2.5c-0.4-0.1-0.5-0.1-0.6-0.2c0.2-0.4,0.5-1.1,0.7-1.7h-1.3v4.1
		c0,0.8-0.4,0.8-2,0.8c0-0.2-0.1-0.5-0.2-0.7c0.4,0,0.8,0,1,0c0.5,0,0.5,0,0.5-0.2v-4h-1.8v0.2h-1.9v1.1h1.9v0.6h-1.9v1.5l2.1-0.3
		v0.6c-1.7,0.3-3.6,0.6-4.7,0.8c0,0.1-0.1,0.1-0.2,0.1l-0.2-0.8c0.6-0.1,1.4-0.2,2.2-0.3v-1.6h-1.9v-0.6h1.9v-1.1h-1.9v-4.2h4.5v3.3
		H69c-0.6-0.5-1.4-1.2-2.2-1.6l0.4-0.4c0.4,0.2,0.8,0.4,1.1,0.7c0.4-0.4,0.9-0.8,1.2-1.3h-3.2v-0.6H70h0.1l0.5,0.3l-0.1,0.1
		c-0.4,0.6-1.1,1.4-1.8,1.9c0.3,0.3,0.6,0.5,0.8,0.7l-0.3,0.3h0.9L70.5,93.8z M62.3,91v1.2h1.3V91H62.3z M62.3,92.8v1.3h1.3v-1.3
		H62.3z M65.5,92.3V91h-1.3v1.2h1.3V92.3z M65.5,94.1v-1.3h-1.3v1.3H65.5z"/>
	<path class="st1" d="M77.8,98.5H77v-2.1h-3.3v-0.5l3.2-4.9h0.9v4.8h1v0.6h-1C77.8,96.4,77.8,98.5,77.8,98.5z M74.5,95.7H77V93
		c0-0.4,0-0.8,0-1.2l0,0c-0.2,0.5-0.4,0.8-0.6,1.1L74.5,95.7L74.5,95.7z"/>
	<path class="st1" d="M83.7,90.9v0.7H81l-0.3,2.1c0.2,0,0.3,0,0.6,0c1.3,0,2.5,0.8,2.5,2.3s-1.1,2.6-2.6,2.6c-0.8,0-1.4-0.2-1.7-0.4
		l0.2-0.7c0.3,0.2,0.8,0.4,1.5,0.4c1,0,1.8-0.7,1.8-1.8c0-1-0.7-1.8-2.1-1.8c-0.4,0-0.7,0-1,0.1l0.5-3.5
		C80.4,90.9,83.7,90.9,83.7,90.9z"/>
	<path class="st1" d="M88.7,90.5c0,0.1-0.1,0.1-0.2,0.1c-0.7,1.6-1.9,3.1-3.2,4c-0.1-0.1-0.4-0.4-0.5-0.5c1.3-0.9,2.4-2.3,3.1-3.9
		L88.7,90.5z M92.3,93.8h0.2h0.4c0,0.1,0,0.2,0,0.2c-0.2,3.3-0.3,4.4-0.7,4.8c-0.3,0.3-0.6,0.4-1.2,0.4c-0.3,0-0.8,0-1.2,0
		c0-0.2-0.1-0.5-0.2-0.7c0.7,0.1,1.3,0.1,1.6,0.1c0.2,0,0.3,0,0.4-0.1c0.3-0.3,0.4-1.3,0.6-4h-2.8c-0.3,1.9-0.8,3.9-3.6,4.9
		c-0.1-0.2-0.3-0.4-0.4-0.6c2.4-0.8,3-2.5,3.3-4.3h-2.2v-0.7L92.3,93.8L92.3,93.8z M91.4,90.1c0.7,1.4,2,3,3.1,3.7
		c-0.2,0.1-0.4,0.4-0.6,0.6c-1.1-0.9-2.4-2.6-3.2-4.1L91.4,90.1z"/>
</g>
<g>
	<g>
		<path class="st1" d="M41.9,57.8h-0.8v-2.1h-3.3v-0.5l3.2-4.9h0.9V55h1v0.6h-1C41.9,55.6,41.9,57.8,41.9,57.8z M38.6,55h2.5v-2.7
			c0-0.4,0-0.8,0-1.2l0,0c-0.2,0.5-0.4,0.8-0.6,1.1L38.6,55L38.6,55z"/>
		<path class="st1" d="M47.8,50.2v0.7h-2.7L44.8,53c0.2,0,0.3,0,0.6,0c1.3,0,2.5,0.8,2.5,2.3s-1.1,2.6-2.6,2.6
			c-0.8,0-1.4-0.2-1.7-0.4l0.2-0.7c0.3,0.2,0.8,0.4,1.5,0.4c1,0,1.8-0.7,1.8-1.8c0-1-0.7-1.8-2.1-1.8c-0.4,0-0.7,0-1,0.1l0.5-3.5
			C44.5,50.2,47.8,50.2,47.8,50.2z"/>
		<path class="st1" d="M52.8,49.8c0,0.1-0.1,0.1-0.2,0.1c-0.7,1.6-1.9,3.1-3.2,4c-0.1-0.1-0.4-0.4-0.5-0.5c1.3-0.8,2.4-2.3,3.1-3.9
			L52.8,49.8z M56.4,53.2h0.2H57c0,0.1,0,0.2,0,0.2c-0.2,3.3-0.3,4.4-0.7,4.8c-0.3,0.3-0.6,0.4-1.2,0.4c-0.3,0-0.8,0-1.2,0
			c0-0.2-0.1-0.5-0.2-0.7C54.3,58,55,58,55.2,58s0.3,0,0.4-0.1c0.3-0.3,0.4-1.3,0.6-4h-2.8c-0.3,1.9-0.8,3.9-3.6,4.9
			c-0.1-0.2-0.3-0.4-0.4-0.6c2.4-0.8,3-2.5,3.3-4.3h-2.2v-0.7C50.5,53.2,56.4,53.2,56.4,53.2z M55.5,49.5c0.7,1.4,2,3,3.1,3.7
			c-0.2,0.1-0.4,0.4-0.6,0.6c-1.1-0.9-2.4-2.6-3.2-4.1L55.5,49.5z"/>
	</g>
</g>
<g>
	<g>
		<path class="st1" d="M152.7,57.8V51l0,0l-1.2,0.7l-0.2-0.6l1.6-0.9h0.7v7.6H152.7z"/>
		<path class="st1" d="M160.3,50.2v0.7h-2.7l-0.3,2.1c0.2,0,0.3,0,0.6,0c1.3,0,2.5,0.8,2.5,2.3s-1.1,2.6-2.6,2.6
			c-0.8,0-1.4-0.2-1.7-0.4l0.2-0.7c0.3,0.2,0.8,0.4,1.5,0.4c1,0,1.8-0.7,1.8-1.8c0-1-0.7-1.8-2.1-1.8c-0.4,0-0.7,0-1,0.1l0.5-3.5
			C157,50.2,160.3,50.2,160.3,50.2z"/>
		<path class="st1" d="M165.4,49.8c0,0.1-0.1,0.1-0.2,0.1c-0.7,1.6-1.9,3.1-3.2,4c-0.1-0.1-0.4-0.4-0.5-0.5c1.3-0.8,2.4-2.3,3.1-3.9
			L165.4,49.8z M168.9,53.2h0.2h0.4c0,0.1,0,0.2,0,0.2c-0.2,3.3-0.3,4.4-0.7,4.8c-0.3,0.3-0.6,0.4-1.2,0.4c-0.3,0-0.8,0-1.2,0
			c0-0.2-0.1-0.5-0.2-0.7c0.7,0.1,1.3,0.1,1.6,0.1c0.2,0,0.3,0,0.4-0.1c0.3-0.3,0.4-1.3,0.6-4H166c-0.3,1.9-0.8,3.9-3.6,4.9
			c-0.1-0.2-0.3-0.4-0.4-0.6c2.4-0.8,3-2.5,3.3-4.3H163v-0.7C163,53.2,168.9,53.2,168.9,53.2z M168,49.5c0.7,1.4,2,3,3.1,3.7
			c-0.2,0.1-0.4,0.4-0.6,0.6c-1.1-0.9-2.4-2.6-3.2-4.1L168,49.5z"/>
	</g>
</g>
<g>
	<g>
		<path class="st1" d="M25.6,15.3c0.7,0.3,1.5,0.7,1.9,1l-0.4,0.6c-0.4-0.3-1.2-0.8-1.9-1.1L25.6,15.3z M25.5,21.2
			c0.5-0.8,1.3-2.2,1.8-3.3l0.5,0.4c-0.5,1.1-1.2,2.4-1.7,3.2l0.1,0.1v0.1L25.5,21.2z M26.1,12.5c0.6,0.3,1.4,0.7,1.8,1.1l-0.4,0.6
			c-0.4-0.4-1.2-0.9-1.8-1.2L26.1,12.5z M29.6,20.2c0,0.6,0.1,0.7,0.9,0.7h2.7c0.6,0,0.7-0.3,0.8-1.4c0.2,0.1,0.4,0.2,0.6,0.3
			c-0.1,1.4-0.3,1.8-1.4,1.8h-2.7c-1.2,0-1.5-0.3-1.5-1.3V17l-1,0.4l-0.3-0.6l1.3-0.5v-2.7l0.9,0.1c0,0.1-0.1,0.1-0.2,0.1V16
			l1.5-0.6v-2.8l0.8,0.1c0,0.1-0.1,0.1-0.2,0.1V15l1.7-0.7c0,0,0.2-0.1,0.2-0.2l0.6,0.2l-0.1,0.1c0,1.9,0,3.5-0.1,3.9
			c-0.1,0.6-0.4,0.8-1.6,0.8c0-0.2-0.1-0.5-0.2-0.6c0.2,0,0.3,0,0.5,0c0.6,0,0.6,0,0.7-0.3c0.1-0.3,0.1-1.5,0.1-3.2l-1.7,0.7v3.9
			h-0.6V16l-1.5,0.6L29.6,20.2L29.6,20.2z"/>
		<path class="st1" d="M36.9,17.3v-2.4c-0.4,0.4-0.7,0.8-1.1,1.1c-0.1-0.1-0.3-0.4-0.5-0.5c0.9-0.7,1.9-1.9,2.5-3l0.8,0.3
			c0,0.1-0.1,0.1-0.2,0.1c-0.2,0.4-0.5,0.9-0.9,1.3l0.2,0.1c0,0.1-0.1,0.1-0.2,0.1v3L36.9,17.3L36.9,17.3z M40.7,18.3
			c0.2,0.5,0.6,1,0.9,1.4c0.6-0.3,1.4-0.8,1.8-1.2L44,19c0,0.1-0.1,0.1-0.2,0.1c-0.5,0.3-1.2,0.7-1.9,1c0.7,0.6,1.6,1,2.7,1.2
			c-0.2,0.1-0.3,0.4-0.4,0.6c-2.1-0.5-3.5-1.7-4.3-3.6l0,0c-0.4,0.4-1,0.7-1.6,1h0.2c0,0.1-0.1,0.1-0.2,0.1V21
			c0.8-0.1,1.7-0.1,2.5-0.2v0.5c-1.4,0.2-3,0.3-3.9,0.4c0,0.1-0.1,0.1-0.1,0.1l-0.3-0.7l1.1-0.1v-1.4c-0.7,0.3-1.4,0.5-2,0.7
			c-0.1-0.2-0.3-0.4-0.4-0.5c1.3-0.3,2.8-0.9,3.8-1.5h-3.7v-0.6h4.2v-1.1l0.9,0.1c0,0.1-0.1,0.1-0.2,0.1v0.9h4.3v0.6H40.7L40.7,18.3
			z M38.2,14.3l2.1-0.2c-0.2-0.5-0.2-1.1-0.3-1.7h0.9c0,0.1-0.1,0.1-0.2,0.2c0,0.5,0.1,1,0.3,1.5l3.5-0.3l0.1,0.6l-3.3,0.3
			c0.5,1.2,1.4,2,2.4,2c0.3,0,0.4-0.3,0.5-1c0.2,0.1,0.4,0.3,0.5,0.3c-0.1,1.1-0.4,1.4-1,1.4c-1.3,0-2.4-1.1-3-2.6L38.5,15
			L38.2,14.3z M42.1,12.5c0.6,0.2,1.4,0.5,1.8,0.7l-0.3,0.5c-0.4-0.3-1.2-0.6-1.8-0.8L42.1,12.5z"/>
		<path class="st1" d="M48.1,21.4h-0.7l3.2-8.3h0.7L48.1,21.4z"/>
		<path class="st1" d="M56.3,20.7h4.6v0.7h-9.2v-0.7h3.9v-8.1l0.9,0.1c0,0.1-0.1,0.1-0.2,0.1v3h3.9v0.7h-3.9
			C56.3,16.5,56.3,20.7,56.3,20.7z"/>
		<path class="st1" d="M70.9,16.2h0.4c-0.1,0.5-0.6,1.9-1,2.5c-0.4-0.1-0.5-0.1-0.6-0.2c0.2-0.4,0.5-1.1,0.7-1.7H69V21
			c0,0.8-0.4,0.8-2,0.8c0-0.2-0.1-0.5-0.2-0.7c0.4,0,0.8,0,1,0c0.5,0,0.5,0,0.5-0.2v-4h-1.8v0.2h-1.9v1.1h1.9v0.6h-1.9v1.5l2.1-0.3
			v0.6c-1.7,0.3-3.6,0.6-4.7,0.8c0,0.1-0.1,0.1-0.2,0.1l-0.2-0.8c0.6-0.1,1.4-0.2,2.2-0.3v-1.6h-1.9v-0.6H64v-1.1h-1.9v-4.2h4.5v3.3
			h2.9c-0.6-0.5-1.4-1.2-2.2-1.6l0.4-0.4c0.4,0.2,0.8,0.4,1.1,0.7c0.4-0.4,0.9-0.8,1.2-1.3h-3.2V13h3.7h0.1l0.5,0.3L71,13.4
			c-0.4,0.6-1.1,1.4-1.8,1.9c0.3,0.3,0.6,0.5,0.8,0.7l-0.3,0.3h0.9L70.9,16.2z M62.7,13.5v1.2H64v-1.2H62.7z M62.7,15.3v1.3H64v-1.3
			H62.7z M65.9,14.8v-1.2h-1.3v1.2H65.9z M65.9,16.6v-1.3h-1.3v1.3H65.9z"/>
	</g>
</g>
<g>
	<g>
		<path class="st1" d="M211.5,14.1l0.5,0.3c0,0.1-0.1,0.1-0.1,0.1c-0.2,0.9-0.5,1.7-0.9,2.5c0.7,1.9,2.1,3.6,3.9,4.4
			c-0.2,0.1-0.4,0.4-0.5,0.6c-1.7-0.8-3-2.3-3.8-4.2c-1.2,2-2.8,3.4-4.6,4.2c-0.1-0.2-0.3-0.5-0.5-0.6c2.5-1.1,4.7-3.2,5.6-6.5h-2.8
			c-0.6,1.2-1.4,2.3-2.3,3.1c-0.1-0.1-0.4-0.4-0.5-0.5c1.3-1.1,2.4-3,3.1-5l0.9,0.3c0,0.1-0.1,0.1-0.2,0.1c-0.2,0.4-0.3,0.9-0.5,1.3
			h2.8L211.5,14.1z"/>
		<path class="st1" d="M222.7,17.5c0,0.1-0.1,0.1-0.2,0.1c-0.1,0.2-0.2,0.4-0.4,0.6h2.8v0.6h-9.3v-0.6h2.7c-0.1-0.2-0.2-0.5-0.4-0.7
			l0.4-0.1h-1.1v-1.9h6.1v1.9h-1L222.7,17.5z M219.9,14.5v-0.7H216v-0.5h3.9v-0.8l0.9,0.1c0,0.1-0.1,0.1-0.2,0.1v0.6h4v0.5h-4v0.7
			h3.3V15h-7.2v-0.5H219.9z M217,21.8v-2.5h6.5v2.5h-0.7v-0.3h-5.1v0.3H217z M222.8,19.9h-5.1V21h5.1V19.9z M217.8,16v0.9h4.8V16
			H217.8z M221.4,18.2c0.1-0.2,0.3-0.5,0.4-0.8h-3.3c0.2,0.2,0.3,0.6,0.4,0.8H221.4z"/>
	</g>
</g>
<line class="st2" x1="26" y1="36.3" x2="215.2" y2="36.3"/>
<circle class="st3" cx="215.2" cy="36.3" r="7"/>
<circle class="st3" cx="48.2" cy="36.3" r="7"/>
<circle class="st3" cx="161.7" cy="36.3" r="7"/>
<circle class="st3" cx="101.6" cy="36.7" r="7"/>
<g>
	<path class="st1" d="M20.6,113.5c0,0.6-0.5,1-1,1c-0.6,0-1-0.5-1-1s0.5-1,1-1S20.6,113,20.6,113.5z"/>
	<path class="st1" d="M27.4,111.5v-2.4l0.9,0.1c0,0.1-0.1,0.1-0.2,0.1v8.8h-0.7v-2.3c-0.9,0.4-1.8,0.8-2.5,1c0,0.1-0.1,0.1-0.1,0.2
		l-0.4-0.8c0.7-0.2,1.8-0.7,2.9-1.1v-2.9h-2.6v-0.7C24.7,111.5,27.4,111.5,27.4,111.5z M30.6,116.6c0,0.5,0.1,0.6,0.5,0.6h1.6
		c0.5,0,0.6-0.4,0.6-2.1c0.2,0.1,0.4,0.3,0.6,0.3c-0.1,1.8-0.3,2.5-1.2,2.5H31c-0.9,0-1.2-0.3-1.2-1.3V109l0.9,0.1
		c0,0.1-0.1,0.1-0.2,0.1v3.2c1-0.6,2-1.3,2.6-1.9l0.6,0.6h-0.1h-0.1c-0.7,0.6-1.9,1.3-3,1.9v3.6C30.5,116.6,30.6,116.6,30.6,116.6z"
		/>
	<path class="st1" d="M44.5,112.9v0.7h-4.2v4.6h-0.7v-4.6h-4.1v-0.7h4.1v-2.5c-1.1,0.2-2.3,0.3-3.4,0.4c0-0.2-0.1-0.4-0.2-0.6
		c2.4-0.2,5.3-0.7,6.9-1.2l0.6,0.6h-0.1h-0.1c-0.8,0.2-1.7,0.4-2.8,0.6h0.1c0,0.1-0.1,0.1-0.2,0.1v2.5L44.5,112.9L44.5,112.9z"/>
	<path class="st1" d="M47.5,112.4c-0.4,0.6-0.8,1.2-1.2,1.7c-0.1-0.2-0.2-0.5-0.3-0.6c1-1,1.9-2.8,2.5-4.5l0.8,0.3
		c0,0.1-0.1,0.1-0.2,0.1c-0.3,0.7-0.6,1.4-0.9,2.1l0.3,0.1c0,0.1-0.1,0.1-0.2,0.1v6.6h-0.6v-5.9C47.7,112.4,47.5,112.4,47.5,112.4z
		 M52.5,117.2h2.9v0.6h-6.6v-0.6h3v-2.7h-2.4v-0.6h2.4v-2.3h-2.7V111h3.6c-0.5-0.5-1.4-1.1-2.2-1.6l0.4-0.5c0.8,0.4,1.8,1.1,2.2,1.5
		l-0.4,0.5h2.5v0.6h-2.8v2.3H55v0.6h-2.4L52.5,117.2L52.5,117.2z"/>
	<path class="st1" d="M61.7,113.3c0.9,0.2,1.6,0.9,1.6,1.9c0,1.2-0.9,2.2-2.5,2.2c-0.8,0-1.4-0.2-1.8-0.5l0.2-0.6
		c0.3,0.2,0.9,0.4,1.5,0.4c1.3,0,1.7-0.9,1.7-1.6c0-1.1-0.9-1.6-1.9-1.6H60V113h0.5c0.7,0,1.6-0.4,1.6-1.4c0-0.7-0.4-1.2-1.3-1.2
		c-0.5,0-1.1,0.3-1.4,0.5l-0.2-0.6c0.4-0.3,1.1-0.6,1.8-0.6c1.4,0,2,0.9,2,1.8C63.1,112.2,62.6,112.9,61.7,113.3L61.7,113.3z"/>
	<path class="st1" d="M65.3,113.6c0-2.6,1-3.9,2.4-3.9s2.3,1.3,2.3,3.8c0,2.6-0.9,3.9-2.4,3.9C66.2,117.4,65.3,116.1,65.3,113.6z
		 M69.2,113.5c0-1.9-0.4-3.2-1.5-3.2c-0.9,0-1.5,1.2-1.5,3.2s0.5,3.2,1.5,3.2C68.7,116.8,69.2,115.3,69.2,113.5z"/>
	<path class="st1" d="M75.3,109.4c0,0.1-0.1,0.1-0.2,0.1c-0.7,1.6-1.9,3.1-3.1,4c-0.1-0.1-0.4-0.4-0.5-0.5c1.2-0.8,2.4-2.3,3-3.9
		L75.3,109.4z M78.8,112.7H79h0.4c0,0.1,0,0.2,0,0.2c-0.2,3.2-0.3,4.4-0.7,4.8c-0.3,0.3-0.6,0.3-1.2,0.3c-0.3,0-0.8,0-1.2,0
		c0-0.2-0.1-0.5-0.2-0.7c0.7,0.1,1.3,0.1,1.6,0.1c0.2,0,0.3,0,0.4-0.1c0.3-0.3,0.4-1.3,0.5-4h-2.7c-0.3,1.9-0.8,3.9-3.5,4.8
		c-0.1-0.2-0.3-0.4-0.4-0.6c2.4-0.8,3-2.5,3.2-4.2H73v-0.7L78.8,112.7L78.8,112.7z M77.9,109.1c0.7,1.4,2,2.9,3.1,3.7
		c-0.2,0.1-0.4,0.4-0.6,0.6c-1.1-0.9-2.4-2.5-3.2-4L77.9,109.1z"/>
	<path class="st1" d="M122.2,109.9l3.3,3.3l3.3-3.3l0.3,0.3l-3.3,3.3l3.3,3.3l-0.3,0.3l-3.3-3.3l-3.3,3.3l-0.3-0.3l3.3-3.3l-3.3-3.3
		L122.2,109.9z M122.6,114.3c-0.4,0-0.7-0.3-0.7-0.8s0.3-0.8,0.7-0.8s0.7,0.3,0.7,0.8C123.4,113.9,123,114.3,122.6,114.3z
		 M124.7,110.7c0-0.4,0.3-0.7,0.8-0.7c0.4,0,0.7,0.3,0.7,0.7c0,0.4-0.3,0.8-0.7,0.8C125.1,111.4,124.7,111.1,124.7,110.7z
		 M126.2,116.4c0,0.4-0.3,0.7-0.7,0.7c-0.4,0-0.8-0.3-0.8-0.7c0-0.4,0.3-0.8,0.8-0.8C125.9,115.6,126.2,116,126.2,116.4z
		 M128.3,112.8c0.4,0,0.8,0.3,0.8,0.8s-0.3,0.8-0.8,0.8c-0.4,0-0.7-0.3-0.7-0.8C127.6,113.1,127.9,112.8,128.3,112.8z"/>
	<path class="st1" d="M140.6,115.3h-3.3c0.9,0.9,2.4,1.7,3.8,2c-0.2,0.1-0.4,0.4-0.5,0.6c-1.3-0.5-2.9-1.3-3.9-2.3v2.6H136v-2.6
		c-1,1-2.5,1.8-3.8,2.3c-0.1-0.2-0.3-0.4-0.5-0.6c1.3-0.4,2.8-1.1,3.7-2h-3.1v-0.6h1.5v-1.2H132v-0.6h1.9v-1.2h-1.4v-0.6h3.6v-1
		c-1.1,0.1-2.3,0.2-3.3,0.2c0-0.2-0.1-0.4-0.2-0.6c2.4-0.1,5.4-0.3,7-0.7l0.5,0.6H140h-0.1c-0.8,0.2-1.9,0.3-3.1,0.4v1h3.7v0.6H139
		v1.2h1.9v0.6H139v1.2h1.6V115.3z M134.5,111.7v1.2h1.5v-1.2H134.5z M134.5,113.5v1.2h1.5v-1.2H134.5z M138.4,111.7h-1.6v1.2h1.6
		V111.7z M138.4,114.7v-1.2h-1.6v1.2H138.4z"/>
	<path class="st1" d="M143.8,114.8c-0.2-0.5-0.3-1.3-0.3-1.9c0-0.9,0.1-2,0.3-3.3l1,0.2c0,0.1-0.2,0.2-0.3,0.2
		c-0.2,0.8-0.3,2.1-0.3,2.9c0,0.2,0,0.4,0,0.5c0.2-0.5,0.6-1.2,0.8-1.5c0.1,0.1,0.3,0.3,0.4,0.4c-0.7,1.3-1,1.7-1,2.1
		c0,0.1,0,0.2,0,0.2L143.8,114.8z M149.1,109.3c0,0.1-0.1,0.2-0.3,0.2c0.1,0.9,0.2,2.3,0.2,3.5c0,1.9-0.7,3.7-3.7,4.9
		c-0.1-0.2-0.3-0.4-0.5-0.6c2.7-1,3.5-2.7,3.5-4.3c0-1.2-0.1-2.7-0.2-3.7H149.1z"/>
	<path class="st1" d="M154.7,114l-1.2,0.4v3c0,0.7-0.3,0.8-1.6,0.8c0-0.2-0.1-0.4-0.2-0.6c0.3,0,0.5,0,0.7,0c0.4,0,0.5,0,0.5-0.2
		v-2.8l-1,0.3c0,0.1-0.1,0.1-0.1,0.2l-0.2-0.8c0.4-0.1,0.9-0.2,1.4-0.4v-2.3h-1.3V111h1.3v-2.1h0.8c0,0.1-0.1,0.1-0.2,0.1v1.9h1v0.6
		c0.9-0.8,1.5-1.8,1.8-2.7l0.8,0.1c0,0.1-0.1,0.1-0.2,0.1c-0.1,0.2-0.2,0.4-0.2,0.6h1.8h0.1l0.5,0.3l-0.1,0.1
		c-0.2,0.4-0.4,0.8-0.7,1.3h1.9v3.4h-0.6v-1.2c-0.1,0.1-0.2,0.2-0.4,0.2h-0.6c-0.5,0-0.6-0.1-0.6-0.7v-1.2h-0.8
		c-0.1,0.9-0.3,1.7-1.1,2.1c-0.1-0.1-0.2-0.3-0.3-0.4c0.7-0.3,0.9-0.9,0.9-1.7h-0.9v2.9h-0.6v-2.9c-0.1,0.1-0.2,0.2-0.4,0.3
		c-0.1-0.1-0.3-0.3-0.5-0.4c0.1-0.1,0.1-0.1,0.2-0.2h-1v2.1l1.1-0.3L154.7,114z M160.7,115.6h-2.6c0.5,1,1.4,1.7,2.8,2
		c-0.1,0.1-0.3,0.4-0.4,0.6c-1.4-0.3-2.4-1.1-2.9-2.3c-0.4,1.1-1.1,1.9-2.9,2.3c-0.1-0.1-0.2-0.4-0.3-0.5c1.6-0.4,2.3-1.1,2.7-2.1
		h-2.5V115h2.6c0-0.3,0.1-0.6,0.1-0.9l0.8,0.1c0,0.1-0.1,0.1-0.2,0.1c0,0.2-0.1,0.5-0.1,0.7h2.9L160.7,115.6L160.7,115.6z
		 M157.7,111.3c0.2-0.3,0.4-0.7,0.6-1.1h-1.8c-0.2,0.3-0.4,0.7-0.7,1.1H157.7z M159.1,113.2c0.1,0,0.2,0,0.2-0.4
		c0.1,0.1,0.2,0.1,0.3,0.1v-1.1h-1.1v1.2c0,0.2,0,0.2,0.2,0.2C158.7,113.2,159.1,113.2,159.1,113.2z"/>
	<path class="st1" d="M166.2,114.5c0.3-0.2,0.7-0.2,1-0.2c0.5,0,0.9,0.4,0.9,1c0,0.3,0,0.6,0,0.8c0,1,0.6,1,1.5,1
		c0.4,0,0.9,0,1.3-0.1c0,0.5,0,0.7,0,0.7c-0.4,0-0.9,0.1-1.3,0.1c-0.4,0-0.8,0-1-0.1c-0.7-0.1-1.1-0.6-1.1-1.2c0-0.2,0-0.7,0-1
		c0-0.4-0.2-0.7-0.5-0.7c-0.5,0-1.2,0.3-1.8,0.8c-0.6,0.6-1.7,1.7-2,2.1c0,0-0.1-0.1-0.5-0.5c0.9-1,4.1-4,5.1-5
		c-0.7,0.1-3,0.2-4.1,0.3c0,0.1-0.1,0.1-0.2,0.1l-0.1-0.8c1.4,0,4-0.2,5-0.3l0.1-0.1l0.6,0.5c-0.1,0-0.1,0.1-0.2,0.1
		C168.2,112.7,166.9,113.8,166.2,114.5L166.2,114.5z M168.7,110.5c-1.1-0.3-2.9-0.6-4.3-0.7l0.1-0.7c1.4,0.1,3.2,0.3,4.3,0.7
		L168.7,110.5z"/>
	<path class="st1" d="M176.2,109.2c0,0.1-0.1,0.2-0.3,0.2c-0.1,0.4-0.2,1-0.2,1.3c1-0.1,2.1-0.2,2.9-0.5l0.1,0.7
		c-0.9,0.2-2,0.4-3.2,0.5c-0.5,1.9-1.1,3.5-2.1,4.9l-0.7-0.3c0.9-1.3,1.6-2.8,2-4.6h-2v-0.6h1.2c0.3,0,0.6,0,0.9,0
		c0.1-0.5,0.2-1.1,0.3-1.7L176.2,109.2z M178.8,113.4c0,0.8,0.1,1.4,0.1,2c0.6,0.2,1.5,0.7,2.1,1.2l-0.4,0.6c-0.5-0.4-1.2-0.8-1.8-1
		c0,1-0.4,1.8-1.9,1.8c-1.1,0-2-0.5-1.9-1.4c0-1,1-1.5,2-1.5c0.4,0,0.7,0.1,1.1,0.2c0-0.6-0.1-1.3-0.1-1.8L178.8,113.4z
		 M178.3,115.9c-0.4-0.2-0.8-0.2-1.2-0.2c-0.6,0-1.3,0.2-1.3,0.9c0,0.6,0.6,0.8,1.3,0.8s1.2-0.3,1.2-1
		C178.3,116.2,178.3,116.1,178.3,115.9z M181,112.4c-1.1,0-2.5,0.2-3.5,0.5l-0.1-0.6c1.1-0.3,2.5-0.5,3.6-0.5V112.4z"/>
	<path class="st1" d="M185.5,109.3c0,0.1-0.1,0.2-0.3,0.2c-0.1,1.2-0.2,3.8-0.2,5.3s0.7,2.2,2,2.2c1.2,0,2.5-0.6,3.6-1.9
		c0.1,0.2,0.3,0.5,0.4,0.6c-1.2,1.3-2.6,2-4.1,2c-1.8,0-2.7-1-2.7-2.9c0-1.3,0.1-4.4,0.2-5.6L185.5,109.3z"/>
	<path class="st1" d="M193.1,115.4c0.7,0.6,1.7,1.6,2.3,2.2l-0.6,0.5c-0.5-0.6-1.5-1.7-2.2-2.3L193.1,115.4z"/>
	<path class="st1" d="M201.3,111.3h1.6c0-0.3,0.1-0.6,0.1-0.9h-4.1v-0.6h4.2c0-0.3,0.1-0.7,0.1-1l0.9,0.1c0,0.1-0.1,0.1-0.2,0.1
		c0,0.2,0,0.5-0.1,0.7h4v0.6h-4.1c0,0.3-0.1,0.6-0.1,0.9h3.1v4.7h-5.3L201.3,111.3L201.3,111.3z M207.9,117v0.6h-7.8v0.5h-0.7v-6.5
		h0.9c0,0.1-0.1,0.1-0.2,0.1v5.2h7.8V117z M206,112.8v-0.9h-4v0.9H206z M206,114.1v-0.9h-4v0.9H206z M206,115.6v-0.9h-4v0.9H206z"/>
	<path class="st1" d="M211.8,112.9v3.3c0.8,1.2,2.2,1.2,4.1,1.2c1.1,0,2.4,0,3.1-0.1c-0.1,0.2-0.2,0.5-0.2,0.7c-0.7,0-1.8,0-2.8,0
		c-2.2,0-3.6,0-4.5-1.2c-0.5,0.5-1.1,0.9-1.5,1.2c0,0.1,0,0.1-0.1,0.2l-0.4-0.7c0.5-0.3,1.1-0.8,1.6-1.2v-2.7h-1.5V113L211.8,112.9
		L211.8,112.9L211.8,112.9z M210.3,109.1c0.6,0.5,1.4,1.1,1.7,1.7l-0.5,0.5c-0.3-0.5-1-1.2-1.7-1.7L210.3,109.1z M216,111.4
		c-0.6-0.3-1.4-0.7-2-0.9l0.4-0.4c0.4,0.2,0.9,0.4,1.4,0.6c0.5-0.2,1.1-0.5,1.5-0.9h-4.4v-0.5h5.1h0.1l0.5,0.3c0,0-0.1,0.1-0.2,0.1
		c-0.5,0.4-1.3,0.9-2,1.3c0.3,0.1,0.6,0.3,0.8,0.4h1.3v4.5c0,0.7-0.2,0.7-1.7,0.7c0-0.2-0.1-0.4-0.2-0.6c0.3,0,0.6,0,0.8,0
		c0.4,0,0.5,0,0.5-0.2v-1H216v1.7h-0.6v-1.7h-1.8v1.7H213v-5.3h3V111.4z M215.4,112h-1.8v1h1.8V112z M213.6,114.4h1.8v-1h-1.8V114.4
		z M217.9,112.9v-1H216v1H217.9z M216,114.4h1.9v-1H216V114.4z"/>
	<path class="st1" d="M222.9,117.3v-6.7l0,0l-1.2,0.7l-0.2-0.6l1.5-0.9h0.7v7.5H222.9z"/>
	<path class="st1" d="M236.2,111.7h-3.6c0.9,1.8,2.4,3.4,4,4.2c-0.2,0.1-0.4,0.4-0.5,0.6c-1.6-0.8-3-2.4-3.9-4.3v3.3h2v0.7h-2v1.9
		h-0.7v-1.9h-2v-0.7h2v-3.3c-1,1.8-2.4,3.4-3.9,4.3c-0.1-0.2-0.3-0.4-0.5-0.5c1.6-0.8,3.1-2.5,3.9-4.3h-3.6V111h4v-2.2l0.9,0.1
		c0,0.1-0.1,0.1-0.2,0.1v2h4.1V111.7z"/>
</g>
<g>
	<path class="st1" d="M161.6,15.6h-3.9c0.7,2.4,1.9,4.2,4.1,5c-0.2,0.1-0.4,0.4-0.5,0.6c-2.1-0.9-3.4-2.6-4.1-5
		c-0.5,2-1.5,3.9-4.1,5c-0.1-0.2-0.3-0.4-0.5-0.6c2.6-1.1,3.6-3.1,4-5.1h-3.9v-0.7h4c0.1-1,0.1-2.1,0.1-2.9l0.9,0.1
		c0,0.1-0.1,0.1-0.2,0.2c0,0.8,0,1.7-0.1,2.7h4.2V15.6z"/>
	<path class="st1" d="M167.4,13.1h3.9v2.3h-0.7v-1.7h-7.1v1.7h-0.7v-2.3h3.8v-1.2l0.9,0.1c0,0.1-0.1,0.1-0.2,0.1v1
		C167.3,13.1,167.4,13.1,167.4,13.1z M169.6,17.2h-2.2c0,0.3-0.1,0.6-0.2,0.9h3.3v3.1h-0.7v-0.3h-5.3v0.4h-0.7v-3.2h2.7
		c0-0.3,0.1-0.6,0.1-0.9h-2.1v-2.6h5.1L169.6,17.2L169.6,17.2z M169.8,20.3v-1.6h-5.3v1.6H169.8z M165.2,15.2v1.4h3.8v-1.4
		C169,15.2,165.2,15.2,165.2,15.2z"/>
</g>
<g>
	<path class="st1" d="M90.5,14.6v-2.4l0.9,0.1c0,0.1-0.1,0.1-0.2,0.1v8.8h-0.7v-2.3c-0.9,0.4-1.8,0.8-2.5,1c0,0.1,0,0.1-0.1,0.1
		l-0.4-0.8c0.7-0.2,1.8-0.7,2.9-1.1v-2.9h-2.6v-0.7L90.5,14.6L90.5,14.6z M93.6,19.7c0,0.5,0.1,0.6,0.5,0.6h1.6
		c0.5,0,0.6-0.4,0.6-2.1c0.2,0.1,0.4,0.3,0.6,0.3c0.1,1.9-0.1,2.5-1.1,2.5h-1.7c-0.9,0-1.2-0.3-1.2-1.3v-7.6l0.9,0.1
		c0,0.1-0.1,0.1-0.2,0.1v3.2c1-0.6,2-1.3,2.6-1.9l0.6,0.6h-0.1h-0.1c-0.7,0.6-1.9,1.3-3,1.9L93.6,19.7L93.6,19.7z"/>
	<path class="st1" d="M106.8,16v0.7h-4.2v4.6h-0.7v-4.6h-4.1V16h4.1v-2.5c-1.1,0.2-2.3,0.3-3.4,0.4c0-0.2-0.1-0.4-0.2-0.6
		c2.4-0.2,5.3-0.7,6.9-1.2l0.6,0.6h-0.1h-0.1c-0.8,0.2-1.7,0.4-2.8,0.6h0.1c0,0.1-0.1,0.1-0.2,0.1V16H106.8z"/>
	<path class="st1" d="M109,15.5c-0.4,0.6-0.8,1.2-1.2,1.7c-0.1-0.2-0.2-0.5-0.3-0.6c1-1,1.9-2.8,2.5-4.5l0.8,0.3
		c0,0.1-0.1,0.1-0.2,0.1c-0.3,0.7-0.6,1.4-0.9,2.1l0.3,0.1c0,0.1-0.1,0.1-0.2,0.1v6.6H109V15.5z M114,20.2h2.9v0.6h-6.6v-0.6h3v-2.7
		h-2.4V17h2.4v-2.3h-2.7V14h3.6c-0.5-0.5-1.4-1.1-2.2-1.6l0.4-0.5c0.8,0.4,1.8,1.1,2.2,1.5l-0.4,0.5h2.5v0.6H114V17h2.4v0.6H114
		V20.2z"/>
</g>
<g>
	<path class="st1" d="M93.8,53.8c0.9,0.2,1.6,0.9,1.6,1.9c0,1.2-0.9,2.2-2.5,2.2c-0.8,0-1.4-0.2-1.8-0.5l0.2-0.6
		c0.3,0.2,0.9,0.4,1.5,0.4c1.3,0,1.7-0.9,1.7-1.6c0-1.1-0.9-1.6-1.9-1.6h-0.5v-0.6h0.5c0.7,0,1.6-0.5,1.6-1.4c0-0.6-0.4-1.2-1.3-1.2
		c-0.5,0-1.1,0.3-1.4,0.5l-0.2-0.6c0.4-0.3,1.1-0.6,1.8-0.6c1.4,0,2,0.9,2,1.8C95.2,52.7,94.7,53.4,93.8,53.8L93.8,53.8z"/>
	<path class="st1" d="M96.6,54.1c0-2.6,1-3.9,2.4-3.9s2.3,1.3,2.3,3.8c0,2.6-0.9,3.9-2.4,3.9C97.6,57.9,96.6,56.6,96.6,54.1z
		 M100.5,54c0-1.9-0.4-3.2-1.5-3.2c-0.9,0-1.5,1.2-1.5,3.2s0.5,3.2,1.5,3.2C100.1,57.2,100.5,55.8,100.5,54z"/>
	<path class="st1" d="M105.8,49.9c0,0.1-0.1,0.1-0.2,0.1c-0.7,1.6-1.9,3.1-3.1,4c-0.1-0.1-0.4-0.4-0.5-0.5c1.2-0.8,2.4-2.3,3-3.9
		L105.8,49.9z M109.3,53.2h0.2h0.4c0,0.1,0,0.2,0,0.2c-0.2,3.2-0.3,4.4-0.7,4.8c-0.3,0.3-0.6,0.3-1.2,0.3c-0.3,0-0.8,0-1.2,0
		c0-0.2-0.1-0.5-0.2-0.7c0.7,0.1,1.3,0.1,1.6,0.1c0.2,0,0.3,0,0.4-0.1c0.3-0.3,0.4-1.3,0.5-4h-2.7c-0.3,1.9-0.8,3.9-3.5,4.8
		c-0.1-0.2-0.3-0.4-0.4-0.6c2.4-0.8,3-2.5,3.2-4.2h-2.1v-0.7h5.7C109.3,53.1,109.3,53.2,109.3,53.2z M108.4,49.6
		c0.7,1.4,2,2.9,3.1,3.7c-0.2,0.1-0.4,0.4-0.6,0.6c-1.1-0.9-2.4-2.5-3.2-4L108.4,49.6z"/>
</g>
</svg>
