<?xml version="1.0" encoding="utf-8"?>
<!-- Generator: Adobe Illustrator 16.2.0, SVG Export Plug-In . SVG Version: 6.00 Build 0)  -->
<!DOCTYPE svg PUBLIC "-//W3C//DTD SVG 1.1//EN" "http://www.w3.org/Graphics/SVG/1.1/DTD/svg11.dtd">
<svg version="1.1" id="_x32_" xmlns="http://www.w3.org/2000/svg" xmlns:xlink="http://www.w3.org/1999/xlink" x="0px" y="0px"
	 width="10px" height="10px" viewBox="0 0 10 10" enable-background="new 0 0 10 10" xml:space="preserve">
<g>
	<path fill="#6EB92B" d="M8.393,3.198V1.537L6.854,0H6.759H3.26v2.904C3.011,2.696,2.693,2.569,2.343,2.569H2.019
		c-0.398,0-0.757,0.162-1.015,0.424C0.747,3.255,0.589,3.617,0.589,4.015v4.321C0.589,9.254,1.336,10,2.254,10h5.492
		C8.664,10,9.41,9.254,9.41,8.336V4.731C9.41,4.042,8.99,3.45,8.393,3.198z M3.724,0.464h2.938l0.024,0.023v1.228h1.228l0.015,0.015
		v1.348c-0.06-0.007-0.121-0.011-0.183-0.011H3.724V0.464z M1.099,4.015c0-0.508,0.412-0.92,0.92-0.92h0.324
		c0.508,0,0.92,0.412,0.92,0.92v2.342c0,0.508-0.412,0.92-0.92,0.92H2.019c-0.508,0-0.92-0.412-0.92-0.92V4.015z M8.885,8.336
		c0,0.629-0.51,1.139-1.139,1.139H2.254c-0.629,0-1.139-0.51-1.139-1.139V7.401C1.357,7.611,1.673,7.74,2.019,7.74h0.324
		c0.763,0,1.384-0.621,1.384-1.384V5.979V4.471V3.592h4.019c0.629,0,1.139,0.51,1.139,1.139V8.336z"/>
	<path fill="#6EB92B" d="M4.628,7.557c-0.166,0-0.3,0.135-0.3,0.301s0.134,0.301,0.3,0.301s0.301-0.135,0.301-0.301
		S4.794,7.557,4.628,7.557z"/>
	<path fill="#6EB92B" d="M6.174,7.557c-0.166,0-0.3,0.135-0.3,0.301s0.134,0.301,0.3,0.301s0.301-0.135,0.301-0.301
		S6.34,7.557,6.174,7.557z"/>
	<path fill="#6EB92B" d="M7.721,7.557c-0.166,0-0.301,0.135-0.301,0.301s0.135,0.301,0.301,0.301s0.301-0.135,0.301-0.301
		S7.887,7.557,7.721,7.557z"/>
	<path fill="#6EB92B" d="M4.628,6.578c-0.166,0-0.3,0.135-0.3,0.3c0,0.166,0.134,0.301,0.3,0.301s0.301-0.135,0.301-0.301
		C4.929,6.713,4.794,6.578,4.628,6.578z"/>
	<path fill="#6EB92B" d="M6.174,6.578c-0.166,0-0.3,0.135-0.3,0.3c0,0.166,0.134,0.301,0.3,0.301s0.301-0.135,0.301-0.301
		C6.475,6.713,6.34,6.578,6.174,6.578z"/>
	<path fill="#6EB92B" d="M7.721,6.578c-0.166,0-0.301,0.135-0.301,0.3c0,0.166,0.135,0.301,0.301,0.301s0.301-0.135,0.301-0.301
		C8.021,6.713,7.887,6.578,7.721,6.578z"/>
	<path fill="#6EB92B" d="M4.628,5.599c-0.166,0-0.3,0.135-0.3,0.301c0,0.165,0.134,0.3,0.3,0.3s0.301-0.135,0.301-0.3
		C4.929,5.733,4.794,5.599,4.628,5.599z"/>
	<path fill="#6EB92B" d="M6.174,5.599c-0.166,0-0.3,0.135-0.3,0.301c0,0.165,0.134,0.3,0.3,0.3s0.301-0.135,0.301-0.3
		C6.475,5.733,6.34,5.599,6.174,5.599z"/>
	<path fill="#6EB92B" d="M7.721,5.599c-0.166,0-0.301,0.135-0.301,0.301c0,0.165,0.135,0.3,0.301,0.3s0.301-0.135,0.301-0.3
		C8.021,5.733,7.887,5.599,7.721,5.599z"/>
	<path fill="#6EB92B" d="M7.735,4.525H4.644c-0.171,0-0.309,0.138-0.309,0.309s0.138,0.309,0.309,0.309h3.091
		c0.171,0,0.31-0.138,0.31-0.309S7.906,4.525,7.735,4.525z"/>
</g>
</svg>
