<?xml version="1.0" encoding="utf-8"?>
<!-- Generator: Adobe Illustrator 18.1.1, SVG Export Plug-In . SVG Version: 6.00 Build 0)  -->
<!DOCTYPE svg PUBLIC "-//W3C//DTD SVG 1.1//EN" "http://www.w3.org/Graphics/SVG/1.1/DTD/svg11.dtd">
<svg version="1.1" id="_x32_" xmlns="http://www.w3.org/2000/svg" xmlns:xlink="http://www.w3.org/1999/xlink" x="0px" y="0px"
	 viewBox="-286 -279 606.7 606.7" enable-background="new -286 -279 606.7 606.7" xml:space="preserve">
<circle fill="#F48A9D" cx="17.4" cy="24.4" r="303.4"/>
<g>
	<path fill="#FFFFFF" d="M84.7-139.2c0-22.5-18.2-40.7-40.7-40.7c-22.5,0-40.7,18.2-40.7,40.7c0,22.5,18.2,40.7,40.7,40.7
		C66.5-98.5,84.7-116.7,84.7-139.2z"/>
	<path fill="#FFFFFF" d="M-151.3,189.2l0.3,0.6c4.8,8.6,15.7,11.9,24.4,7.4l62.8-34.3c7.3-4,14.1-9.1,19.9-15l42.3-42.6l90.3-2.9
		L83,165.8c-0.9,9.8,6,18.7,15.8,20.1l0.7,0.1c9.9,1.5,19.2-5.1,21.1-14.9l17.2-88.5c1.6-8.5-0.6-17.2-6.1-23.8
		c-5.5-6.6-13.7-10.5-22.3-10.4l-64.9,0.3l15.4-62l46.2,17.5c7.4,2.8,15.7,2.1,22.5-2l54.7-32.7c3.5-2.1,6-5.4,7-9.4
		c1-3.9,0.3-8.1-1.8-11.5l-0.6-0.9c-4.2-7-13.2-9.3-20.4-5.4L121.7-32l-72.9-44c-5.4-4.2-11.9-7.2-19.1-8.4
		c-1.3-0.2-2.6-0.4-3.9-0.5c0,0-2.8-0.2-5.9-0.1l-99.2,5.5c-5.7,0.2-11.2,2.4-15.5,6.2L-134.5-38c-5.9,5.2-6.4,14.2-1.2,20.1
		l0.3,0.3c4.7,5.3,12.6,6.4,18.5,2.6l44.4-28.7l51.6,4.8l-15.9,89.5L-85,126.3l-59.8,38.2C-153.2,169.7-156.1,180.6-151.3,189.2z"/>
</g>
</svg>
