<?xml version="1.0" encoding="utf-8"?>
<!-- Generator: Adobe Illustrator 24.0.0, SVG Export Plug-In . SVG Version: 6.00 Build 0)  -->
<svg version="1.1" id="レイヤー_1" xmlns="http://www.w3.org/2000/svg" xmlns:xlink="http://www.w3.org/1999/xlink" x="0px"
	 y="0px" viewBox="0 0 102.37 86.6" style="enable-background:new 0 0 102.37 86.6;" xml:space="preserve">
<style type="text/css">
	.st0{fill:#8AC23E;}
	.st1{fill:#28AC4B;}
	.st2{clip-path:url(#SVGID_5_);fill:url(#SVGID_6_);}
	.st3{clip-path:url(#SVGID_7_);fill:url(#SVGID_8_);}
	.st4{clip-path:url(#SVGID_9_);fill:url(#SVGID_10_);}
	.st5{clip-path:url(#SVGID_11_);fill:url(#SVGID_12_);}
</style>
<path class="st0" d="M19.79,11.9c0.56,14.99,12.55,27.06,27.51,27.76C46.74,24.66,34.76,12.59,19.79,11.9"/>
<path class="st1" d="M90.5,0C68.2,1.63,42.73,20.53,51.18,68.77c0-15.5,2.32-24.92,4.16-29.53C74.75,36.38,89.75,20.02,90.5,0"/>
<g>
	<defs>
		<path id="SVGID_2_" d="M84.36,36.83c-1.73-4.93-4.32-1.56-4.18,1.68c-1.66-2.63-3-0.08-3,3.14c-2.91-3.34-2.12,4.99-2.12,7.3
			c5.64-5.91,10.48-4.94,11.61-2.51c1.97,4.22-5.62,12.5-8.93,15.55c-2.15,1.98-5.16,2.15-0.9-1.9c0.64-0.61,2.2-2.11,4.36-4.71
			c8.45-10.14,0.63-10.58-3.79-6.28c-3.74,3.63-5.68,6.65-14.25,10.57c-3.7,1.69-5.81,4.38-5.58,9.38c0.15,3.35,4.94,11.31,14.9,4.9
			c9.55-6.15,13.78-10.02,17.59-16.83c3.87-6.91-0.15-16.63-0.8-18.62c-1.03-3.14-2.21-4.35-3.17-4.35
			C85.2,34.14,84.5,35.25,84.36,36.83"/>
	</defs>
	<clipPath id="SVGID_5_">
		<use xlink:href="#SVGID_2_"  style="overflow:visible;"/>
	</clipPath>
	
		<linearGradient id="SVGID_6_" gradientUnits="userSpaceOnUse" x1="-249.0339" y1="477.7313" x2="-248.0276" y2="477.7313" gradientTransform="matrix(40.7752 -7.1898 7.1898 40.7752 6770.7676 -21209.627)">
		<stop  offset="0" style="stop-color:#FFF3E1"/>
		<stop  offset="0.1341" style="stop-color:#FFF0D8"/>
		<stop  offset="0.3527" style="stop-color:#FEE7C0"/>
		<stop  offset="0.6287" style="stop-color:#FCD998"/>
		<stop  offset="0.9484" style="stop-color:#F9C562"/>
		<stop  offset="1" style="stop-color:#F9C258"/>
	</linearGradient>
	<polygon class="st2" points="58.59,86.6 102.37,78.88 92.98,25.64 49.2,33.36 	"/>
</g>
<g>
	<defs>
		<path id="SVGID_1_" d="M18.01,36.83c1.73-4.93,4.32-1.56,4.18,1.68c1.66-2.63,3-0.08,3,3.14c2.91-3.34,2.12,4.99,2.12,7.3
			C21.68,43.03,16.83,44,15.7,46.43c-1.97,4.22,5.62,12.5,8.93,15.55c2.15,1.98,5.16,2.15,0.9-1.9c-0.64-0.61-2.2-2.11-4.36-4.71
			c-8.45-10.14-0.63-10.58,3.79-6.28c3.74,3.63,5.68,6.65,14.25,10.57c3.7,1.69,5.81,4.38,5.58,9.38c-0.15,3.35-4.94,11.31-14.9,4.9
			c-9.55-6.15-13.78-10.02-17.59-16.83c-3.87-6.91,0.15-16.63,0.8-18.62c1.03-3.14,2.21-4.35,3.17-4.35
			C17.17,34.14,17.87,35.25,18.01,36.83"/>
	</defs>
	<clipPath id="SVGID_7_">
		<use xlink:href="#SVGID_1_"  style="overflow:visible;"/>
	</clipPath>
	
		<linearGradient id="SVGID_8_" gradientUnits="userSpaceOnUse" x1="-247.0301" y1="470.0363" x2="-245.9901" y2="470.0363" gradientTransform="matrix(36.5262 6.4406 6.4406 -36.5262 6005.3281 18812.7832)">
		<stop  offset="0" style="stop-color:#F09BA7"/>
		<stop  offset="0.0935" style="stop-color:#F1A5B0"/>
		<stop  offset="0.4902" style="stop-color:#F7CDD2"/>
		<stop  offset="0.8062" style="stop-color:#FBE5E6"/>
		<stop  offset="1" style="stop-color:#FCEEEE"/>
	</linearGradient>
	<polygon class="st3" points="9.16,25.64 53.16,33.56 44.01,86.6 0,78.68 	"/>
</g>
<path class="st0" d="M19.79,11.9c0.56,14.99,12.55,27.06,27.51,27.76C46.74,24.66,34.76,12.59,19.79,11.9"/>
<path class="st1" d="M90.5,0C68.2,1.63,42.73,20.53,51.18,68.77c0-15.5,2.32-24.92,4.16-29.53C74.75,36.38,89.75,20.02,90.5,0"/>
<g>
	<defs>
		<path id="SVGID_4_" d="M84.36,36.83c-1.73-4.93-4.32-1.56-4.18,1.68c-1.66-2.63-3-0.08-3,3.14c-2.91-3.34-2.12,4.99-2.12,7.3
			c5.64-5.91,10.48-4.94,11.61-2.51c1.97,4.22-5.62,12.5-8.93,15.55c-2.15,1.98-5.16,2.15-0.9-1.9c0.64-0.61,2.2-2.11,4.36-4.71
			c8.45-10.14,0.63-10.58-3.79-6.28c-3.74,3.63-5.68,6.65-14.25,10.57c-3.7,1.69-5.81,4.38-5.58,9.38c0.15,3.35,4.94,11.31,14.9,4.9
			c9.55-6.15,13.78-10.02,17.59-16.83c3.87-6.91-0.15-16.63-0.8-18.62c-1.03-3.14-2.21-4.35-3.17-4.35
			C85.2,34.14,84.5,35.25,84.36,36.83"/>
	</defs>
	<clipPath id="SVGID_9_">
		<use xlink:href="#SVGID_4_"  style="overflow:visible;"/>
	</clipPath>
	
		<linearGradient id="SVGID_10_" gradientUnits="userSpaceOnUse" x1="-249.0339" y1="477.7313" x2="-248.0276" y2="477.7313" gradientTransform="matrix(40.7752 -7.1898 7.1898 40.7752 6770.7676 -21209.627)">
		<stop  offset="0" style="stop-color:#FFF3E1"/>
		<stop  offset="0.1341" style="stop-color:#FFF0D8"/>
		<stop  offset="0.3527" style="stop-color:#FEE7C0"/>
		<stop  offset="0.6287" style="stop-color:#FCD998"/>
		<stop  offset="0.9484" style="stop-color:#F9C562"/>
		<stop  offset="1" style="stop-color:#F9C258"/>
	</linearGradient>
	<polygon class="st4" points="58.59,86.6 102.37,78.88 92.98,25.64 49.2,33.36 	"/>
</g>
<g>
	<defs>
		<path id="SVGID_3_" d="M18.01,36.83c1.73-4.93,4.32-1.56,4.18,1.68c1.66-2.63,3-0.08,3,3.14c2.91-3.34,2.12,4.99,2.12,7.3
			C21.68,43.03,16.83,44,15.7,46.43c-1.97,4.22,5.62,12.5,8.93,15.55c2.15,1.98,5.16,2.15,0.9-1.9c-0.64-0.61-2.2-2.11-4.36-4.71
			c-8.45-10.14-0.63-10.58,3.79-6.28c3.74,3.63,5.68,6.65,14.25,10.57c3.7,1.69,5.81,4.38,5.58,9.38c-0.15,3.35-4.94,11.31-14.9,4.9
			c-9.55-6.15-13.78-10.02-17.59-16.83c-3.87-6.91,0.15-16.63,0.8-18.62c1.03-3.14,2.21-4.35,3.17-4.35
			C17.17,34.14,17.87,35.25,18.01,36.83"/>
	</defs>
	<clipPath id="SVGID_11_">
		<use xlink:href="#SVGID_3_"  style="overflow:visible;"/>
	</clipPath>
	
		<linearGradient id="SVGID_12_" gradientUnits="userSpaceOnUse" x1="-247.0301" y1="470.0363" x2="-245.9901" y2="470.0363" gradientTransform="matrix(36.5262 6.4406 6.4406 -36.5262 6005.3281 18812.7832)">
		<stop  offset="0" style="stop-color:#F09BA7"/>
		<stop  offset="0.0935" style="stop-color:#F1A5B0"/>
		<stop  offset="0.4902" style="stop-color:#F7CDD2"/>
		<stop  offset="0.8062" style="stop-color:#FBE5E6"/>
		<stop  offset="1" style="stop-color:#FCEEEE"/>
	</linearGradient>
	<polygon class="st5" points="9.16,25.64 53.16,33.56 44.01,86.6 0,78.68 	"/>
</g>
</svg>
