<svg xmlns="http://www.w3.org/2000/svg" xmlns:xlink="http://www.w3.org/1999/xlink" preserveAspectRatio="xMidYMid" width="52" height="37" viewBox="0 0 52 37">
  <defs>
    <style>

      .cls-2 {
        fill: #c3d600;
        filter: url(#color-overlay-1);
      }
    </style>

    <filter id="color-overlay-1" filterUnits="userSpaceOnUse">
      <feFlood flood-color="#6eb92b" flood-opacity="1"/>
      <feComposite operator="in" in2="SourceGraphic"/>
      <feBlend mode="normal" in2="SourceGraphic" result="colorOverlay"/>
    </filter>
  </defs>
  <path d="M51.957,9.744 C51.932,8.664 51.694,4.032 49.475,3.174 C44.906,1.408 33.616,-0.002 25.979,-0.002 C18.342,-0.002 7.052,1.408 2.483,3.174 C0.261,4.034 0.026,8.672 0.001,9.747 C-0.037,10.060 -0.034,10.368 0.019,10.646 C0.019,10.646 0.453,12.845 0.453,12.845 C0.684,14.049 1.837,14.836 3.029,14.603 C3.029,14.603 13.047,12.643 13.047,12.643 C14.238,12.410 15.017,11.246 14.787,10.042 C14.787,10.042 14.267,7.326 14.267,7.326 C15.191,7.196 16.118,7.073 17.035,6.960 C17.035,6.960 16.736,11.354 16.736,11.354 C16.736,11.354 1.794,19.401 1.794,22.392 C1.794,25.382 1.794,37.001 1.794,37.001 C1.794,37.001 25.979,37.001 25.979,37.001 C25.979,37.001 50.164,37.001 50.164,37.001 C50.164,37.001 50.164,25.285 50.164,22.392 C50.164,19.499 35.222,11.354 35.222,11.354 C35.222,11.354 34.923,6.960 34.923,6.960 C35.841,7.073 36.767,7.196 37.691,7.326 C37.691,7.326 37.171,10.042 37.171,10.042 C36.940,11.246 37.720,12.410 38.911,12.643 C38.911,12.643 48.929,14.603 48.929,14.603 C50.121,14.836 51.274,14.049 51.505,12.845 C51.505,12.845 51.939,10.646 51.939,10.646 C51.992,10.368 51.995,10.059 51.957,9.744 ZM25.979,6.287 C26.908,6.287 30.469,6.455 31.525,6.590 C31.525,6.571 31.180,10.932 31.171,10.919 C31.171,10.919 25.979,10.919 25.979,10.919 C25.979,10.919 20.786,10.919 20.786,10.919 C20.786,10.919 20.465,6.587 20.465,6.587 C22.479,6.399 24.366,6.287 25.979,6.287 ZM25.980,31.010 C22.122,31.010 18.995,28.071 18.995,24.447 C18.995,20.822 22.122,17.883 25.980,17.883 C29.837,17.883 32.965,20.822 32.965,24.447 C32.965,28.071 29.837,31.010 25.980,31.010 Z" id="path-1" class="cls-2" fill-rule="evenodd"/>
</svg>
