<?xml version="1.0" encoding="utf-8"?>
<!-- Generator: Adobe Illustrator 16.0.0, SVG Export Plug-In . SVG Version: 6.00 Build 0)  -->
<!DOCTYPE svg PUBLIC "-//W3C//DTD SVG 1.1//EN" "http://www.w3.org/Graphics/SVG/1.1/DTD/svg11.dtd">
<svg version="1.1" id="レイヤー_1" xmlns="http://www.w3.org/2000/svg" xmlns:xlink="http://www.w3.org/1999/xlink" x="0px"
	 y="0px" width="26.279px" height="27.048px" viewBox="0 0 26.279 27.048" enable-background="new 0 0 26.279 27.048"
	 xml:space="preserve">
<path fill="#FAD6DC" d="M18.13,27.048H5.563C2.496,27.048,0,24.552,0,21.484V8.919c0-3.067,2.496-5.563,5.563-5.563H18.13
	c3.067,0,5.563,2.496,5.563,5.563v12.565C23.693,24.552,21.197,27.048,18.13,27.048z M5.563,5.687c-1.783,0-3.233,1.45-3.233,3.233
	v12.565c0,1.783,1.45,3.233,3.233,3.233H18.13c1.783,0,3.233-1.45,3.233-3.233V8.919c0-1.783-1.45-3.233-3.233-3.233H5.563z"/>
</svg>
