<?xml version="1.0" encoding="utf-8"?>
<!-- Generator: Adobe Illustrator 28.1.0, SVG Export Plug-In . SVG Version: 6.00 Build 0)  -->
<svg version="1.1" id="レイヤー_1" xmlns="http://www.w3.org/2000/svg" xmlns:xlink="http://www.w3.org/1999/xlink" x="0px"
	 y="0px" viewBox="0 0 66.8 57.2" style="enable-background:new 0 0 66.8 57.2;" xml:space="preserve">
<style type="text/css">
	.st0{fill:url(#SVGID_1_);}
	.st1{fill:#FFFFFF;}
</style>
<linearGradient id="SVGID_1_" gradientUnits="userSpaceOnUse" x1="33.4" y1="57.2" x2="33.4" y2="-5.094274e-05">
	<stop  offset="2.017902e-02" style="stop-color:#66DB66"/>
	<stop  offset="0.168" style="stop-color:#4DD54D"/>
	<stop  offset="0.4814" style="stop-color:#0CC60C"/>
	<stop  offset="0.5361" style="stop-color:#00C300"/>
	<stop  offset="0.5518" style="stop-color:#10C710"/>
	<stop  offset="0.5839" style="stop-color:#2BCD2B"/>
	<stop  offset="0.6208" style="stop-color:#41D241"/>
	<stop  offset="0.664" style="stop-color:#52D652"/>
	<stop  offset="0.7173" style="stop-color:#5DD95D"/>
	<stop  offset="0.7922" style="stop-color:#64DB64"/>
	<stop  offset="1" style="stop-color:#66DB66"/>
</linearGradient>
<rect y="0" class="st0" width="66.8" height="57.2"/>
<g>
	<path class="st1" d="M8.4,14.2H4V5.9h0.9v7.6h3.5V14.2z"/>
	<path class="st1" d="M9.6,5.9h0.9v8.4H9.6V5.9z"/>
	<path class="st1" d="M18.3,14.2h-0.9l-2.7-4.4C14.1,8.9,13.6,8,13.2,7l0,0c0.1,1.1,0.1,2,0.1,3.5v3.7h-0.9V5.9h1l2.7,4.4
		c0.6,1,1.1,1.9,1.5,2.7l0,0c-0.1-1.2-0.1-2.2-0.1-3.5V5.9h0.9V14.2z"/>
	<path class="st1" d="M24.6,14.2h-4.4V5.9h4.2v0.8H21v2.8h3.1v0.8H21v3.2h3.5V14.2z"/>
	<path class="st1" d="M33,6.4c0,0.1-0.1,0.1-0.1,0.1c-0.6,1.4-1.3,2.6-2.2,3.8c1.2,1,3,2.6,4,3.7L34,14.6c-1-1.1-2.7-2.8-3.9-3.7
		c-1,1.2-2.6,2.8-4.2,3.7c-0.1-0.2-0.4-0.4-0.6-0.6c3-1.7,5.5-4.8,6.4-7.2h-5.4V6.1h5.8L32.4,6L33,6.4z"/>
	<path class="st1" d="M38.9,10.1c-0.5,1.3-1.2,2.4-2.1,3.2L36.2,13c0.8-0.8,1.5-1.8,2-3.1L38.9,10.1z M41.2,8.4v5.2
		c0,1.2-0.9,1.2-2.6,1.2c0-0.2-0.1-0.5-0.2-0.7c0.3,0,0.7,0,1,0H40c0.3,0,0.5-0.2,0.5-0.5V8.4h-3.7V7.7h3.7V5.4l1,0.1
		c0,0.1-0.1,0.2-0.3,0.2v2.1h3.7v0.7H41.2z M43.2,9.8c0.8,0.9,1.7,2.2,2.3,3.2l-0.7,0.4c-0.5-1-1.5-2.4-2.2-3.3L43.2,9.8z M44.6,4.7
		c0.7,0,1.2,0.6,1.2,1.2c0,0.7-0.6,1.2-1.2,1.2c-0.7,0-1.2-0.6-1.2-1.2C43.4,5.2,43.9,4.7,44.6,4.7z M45.5,5.9
		c0-0.5-0.4-0.9-0.9-0.9c-0.5,0-0.9,0.4-0.9,0.9c0,0.5,0.4,0.9,0.9,0.9C45.1,6.8,45.5,6.4,45.5,5.9z"/>
	<path class="st1" d="M47.9,8.2c0.3,0.7,0.7,1.7,0.8,2.4l-0.6,0.2c-0.1-0.6-0.5-1.6-0.8-2.3L47.9,8.2z M54.5,8.3
		c0,0.1-0.1,0.1-0.2,0.1c-0.9,3.2-2.5,5.2-5.1,6.3c-0.1-0.1-0.3-0.4-0.4-0.5c2.6-1,4.1-2.8,4.9-6.1L54.5,8.3z M50.6,7.7
		c0.2,0.7,0.4,1.8,0.5,2.5l-0.6,0.1c-0.1-0.7-0.3-1.7-0.5-2.5L50.6,7.7z"/>
	<path class="st1" d="M62.5,11.1c-1.1-0.6-2.7-1.3-3.9-1.8v5.5h-0.8V5.3l1.1,0.1c0,0.1-0.1,0.2-0.3,0.2v3.2l0.2-0.2
		c1.3,0.5,3,1.2,4.1,1.8L62.5,11.1z"/>
</g>
<g>
	<path class="st1" d="M12,52c0.9-0.5,2.4-1.3,3.8-2.1l0.2,0.7c-1.2,0.7-2.5,1.5-3.4,2c0,0.1,0,0.2-0.1,0.2L12,52z M17.5,46.3
		c0.3,0.9,0.7,1.8,1.2,2.7c0.7-0.6,1.6-1.6,2.1-2.3l0.7,0.6c-0.1,0.1-0.2,0.1-0.2,0.1c-0.6,0.7-1.5,1.6-2.3,2.2
		c0.9,1.2,2,2.2,3.2,2.8c-0.2,0.1-0.4,0.4-0.5,0.6c-1.9-0.9-3.3-2.7-4.3-4.9v4.7c0,1-0.5,1.1-2.5,1.1c0-0.2-0.2-0.6-0.3-0.8
		c0.3,0,0.6,0,0.9,0c1.1,0,1.1,0,1.1-0.3v-6.5h-4.4v-0.7h4.4v-1.9l1,0.1c0,0.1-0.1,0.1-0.2,0.2v1.7H22v0.7h-4.5V46.3z M13.5,46.9
		c0.7,0.6,1.5,1.5,1.8,2l-0.6,0.4c-0.3-0.6-1.1-1.5-1.8-2.1L13.5,46.9z M19,43.6c0.7,0.4,1.6,0.9,2.1,1.3l-0.5,0.5
		c-0.4-0.4-1.3-1-2-1.3L19,43.6z"/>
	<path class="st1" d="M28.6,44c0,0.1-0.1,0.1-0.2,0.2l0,0.3c0.1,1.6,0.8,6.7,5,8.6c-0.2,0.2-0.4,0.4-0.6,0.6c-3-1.4-4.2-4.4-4.7-6.7
		h0c-0.5,2.2-1.6,5.1-4.6,6.7c-0.1-0.2-0.4-0.4-0.6-0.6c4.6-2.3,4.6-7.7,4.7-9.2L28.6,44z"/>
	<path class="st1" d="M44.1,50.1h-2.5c0.7,0.6,1.8,1.1,2.8,1.4c-0.2,0.1-0.4,0.4-0.5,0.6c-0.5-0.2-1.1-0.5-1.7-0.8l0,0.1
		c-0.2,2.3-0.4,2.4-1.5,2.4c-0.3,0-0.6,0-1,0c0-0.2-0.1-0.4-0.2-0.6c0.5,0.1,1.1,0.1,1.2,0.1c0.2,0,0.3,0,0.4-0.1
		c0.1-0.1,0.2-0.5,0.3-1.4h-2.7c-0.5,1-1.4,1.7-3.3,2.1c-0.1-0.2-0.2-0.4-0.4-0.5c1.6-0.3,2.5-0.8,2.9-1.6h-2.3v-0.4
		c-0.4,0.2-0.9,0.4-1.4,0.6c-0.1-0.2-0.3-0.4-0.5-0.5c1.1-0.3,1.9-0.8,2.6-1.3h-2.3v-0.6h3c0.2-0.2,0.4-0.5,0.5-0.7h-2v-3h7v3h-4.1
		c0,0-0.1,0.1-0.2,0.1c-0.1,0.2-0.2,0.4-0.4,0.6h6.1V50.1z M36.8,45.6V45h-2.6v-0.6h2.6v-0.8l0.9,0.1c0,0.1-0.1,0.1-0.2,0.2v0.6h3
		v-0.8l0.9,0.1c0,0.1-0.1,0.1-0.2,0.2v0.6H44V45h-2.7v0.6h-0.7V45h-3v0.6H36.8z M39.4,50.3c0,0.1-0.1,0.1-0.2,0.1
		c0,0.2-0.1,0.4-0.1,0.6h2.7c0.1,0,0.1,0,0.2,0l0.2,0c-0.5-0.3-0.9-0.7-1.3-1.1h-3.2c-0.4,0.4-0.8,0.7-1.4,1.1h2.2
		c0.1-0.3,0.2-0.5,0.2-0.9L39.4,50.3z M36.4,46.2V47h5.6v-0.8H36.4z M36.4,47.5v0.8h5.6v-0.8H36.4z"/>
	<path class="st1" d="M55.1,51h-4c1.1,0.9,2.7,1.6,4.2,1.9c-0.2,0.1-0.4,0.4-0.5,0.6c-1.5-0.4-3.2-1.3-4.4-2.3v2.5h-0.7v-2.5
		c-1.1,1-2.9,1.9-4.3,2.4c-0.1-0.2-0.3-0.5-0.5-0.6c1.4-0.4,3.1-1.2,4.1-2h-3.9v-0.6h4.6v-0.8h-3.2v-3.3c-0.3,0.4-0.7,0.8-1.1,1.2
		c-0.1-0.2-0.4-0.4-0.5-0.5c1.3-1,2.2-2.4,2.7-3.4l0.9,0.2c0,0.1-0.1,0.1-0.2,0.1c-0.2,0.3-0.4,0.7-0.6,1.1h2.2
		c0.2-0.4,0.5-1,0.6-1.4l0.9,0.2c0,0.1-0.1,0.1-0.2,0.1c-0.1,0.3-0.4,0.7-0.6,1h3.7v0.6h-3.7v0.8h3.2v0.5h-3.2v0.8h3.3v0.5h-3.3V49
		h4.1v0.6h-4.2c0,0-0.1,0-0.2,0.1v0.7h4.6V51z M49.9,46.3v-0.8h-2.7v0.8H49.9z M49.9,47.6v-0.8h-2.7v0.8H49.9z M47.2,48.2V49h2.7
		v-0.8H47.2z"/>
</g>
<path class="st1" d="M33.4,20.1c-1.2,0-2.3,0.2-3.3,0.5c-0.4,0.1-0.6,0.5-0.5,0.8c0.1,0.4,0.5,0.6,0.8,0.5c0,0,0,0,0,0
	c0.9-0.3,1.9-0.4,2.9-0.4c4.6,0,8.1,3,8.1,6.4c0,1.7-0.8,3.1-2,4.4c-0.3,0.3-0.3,0.7,0,1c0.3,0.3,0.7,0.3,1,0c0,0,0,0,0,0
	c1.4-1.5,2.4-3.2,2.4-5.3C42.9,23.5,38.6,20.1,33.4,20.1z M26.3,23.1c-0.2,0-0.4,0.1-0.5,0.2c-1.1,1.3-1.8,2.9-1.8,4.6
	c0,3.9,3.4,7.1,7.9,7.7c0.1,0,0.2,0.1,0.3,0.1c0,0,0,0.2,0,0.4v0c0,0-0.1,0.6-0.1,0.7l0,0c0,0.2-0.1,0.5,0.2,1
	c0.2,0.2,0.5,0.4,0.8,0.4c0.3,0,0.6-0.1,0.8-0.3c1.3-0.7,2.7-1.5,3.9-2.3c0.3-0.2,0.4-0.6,0.2-0.9s-0.6-0.4-0.9-0.2c0,0,0,0,0,0
	c-1.1,0.8-2.4,1.5-3.6,2.1c0-0.2,0.1-0.3,0.1-0.3c0,0,0,0,0,0c0-0.3,0.1-0.6-0.1-1.1c0,0,0,0,0,0c-0.2-0.4-0.4-0.5-0.7-0.6
	s-0.4-0.2-0.6-0.2c0,0,0,0-0.1,0c-4-0.5-6.8-3.2-6.8-6.4c0-1.4,0.5-2.6,1.5-3.7c0.3-0.3,0.2-0.7,0-1C26.6,23.1,26.4,23.1,26.3,23.1z
	 M31.3,25.6c-0.3,0-0.5,0.2-0.5,0.5v3.5c0,0.3,0.2,0.5,0.5,0.5c0.3,0,0.5-0.2,0.5-0.5v-3.5C31.8,25.8,31.6,25.6,31.3,25.6z
	 M32.9,25.6c0,0-0.1,0-0.1,0c-0.2,0.1-0.3,0.2-0.3,0.4v3.5c0,0.3,0.2,0.5,0.5,0.5c0.3,0,0.5-0.2,0.5-0.5v-2.2l1.8,2.4
	c0.1,0.1,0.2,0.2,0.4,0.2c0,0,0.1,0,0.1,0c0.2-0.1,0.3-0.2,0.3-0.4v-3.5c0-0.3-0.2-0.5-0.5-0.5c-0.3,0-0.5,0.2-0.5,0.5v2.2l-1.8-2.4
	C33.2,25.7,33,25.6,32.9,25.6z M28.2,25.6c-0.3,0-0.5,0.2-0.5,0.5v3.5c0,0.3,0.2,0.5,0.5,0.5H30c0.3,0,0.5-0.2,0.5-0.5
	c0-0.3-0.2-0.5-0.5-0.5h-1.3v-3C28.7,25.8,28.5,25.6,28.2,25.6z M37.1,25.6c-0.3,0-0.5,0.2-0.5,0.5v0v1.7v0v0v1.7
	c0,0.3,0.2,0.5,0.5,0.5h1.8c0.3,0,0.5-0.2,0.5-0.5c0-0.3-0.2-0.5-0.5-0.5h-1.3v-0.8h1.3c0.3,0,0.5-0.2,0.5-0.5
	c0-0.3-0.2-0.5-0.5-0.5v0h-1.3v-0.8h1.3c0.3,0,0.5-0.2,0.5-0.5c0-0.3-0.2-0.5-0.5-0.5H37.1z"/>
</svg>
