<?xml version="1.0" encoding="utf-8"?>
<!-- Generator: Adobe Illustrator 27.7.0, SVG Export Plug-In . SVG Version: 6.00 Build 0)  -->
<svg version="1.1" id="レイヤー_1" xmlns="http://www.w3.org/2000/svg" xmlns:xlink="http://www.w3.org/1999/xlink" x="0px"
	 y="0px" viewBox="0 0 66.8 57.2" style="enable-background:new 0 0 66.8 57.2;" xml:space="preserve">
<style type="text/css">
	.st0{fill:#F3B3BC;}
	.st1{fill:#FFFFFF;}
</style>
<rect y="0" class="st0" width="66.8" height="57.2"/>
<path d="M7.5,45.7C6.7,45.9,6,46,5.3,46.1c0,0.7,0,1.5,0,2.2C6.1,48,7,47.8,7.9,47.8c1.9,0,3.1,1,3.1,2.6c0,1.4-1,2.6-2.4,2.7
	c-0.1,0-0.2,0-0.4,0c-0.9,0-1.7-0.4-2.2-1.1c0.1-0.2,0.3-0.4,0.4-0.6c0.4,0.6,1.1,0.9,1.8,0.9c1,0,1.8-0.7,1.8-1.7
	c0-0.1,0-0.1,0-0.2c0-1.1-0.8-2-2.3-1.9c-0.9,0-1.7,0.2-2.5,0.5c0,0.8,0,2.2,0,2.5c0.1,0.9-0.7,1.7-1.6,1.8c-0.1,0-0.1,0-0.2,0
	c-1,0.1-1.8-0.6-1.9-1.6v-0.1c0.1-0.9,0.6-1.7,1.4-2.2c0.5-0.3,1-0.6,1.5-0.8v-2.4c-0.9,0.1-1.8,0.1-2.7,0.1v-0.8c1,0,1.9,0,2.7-0.1
	v-2.1l1.1,0.1c0,0.1-0.1,0.2-0.3,0.2c0,0.4,0,1.1,0,1.7c0.7-0.1,1.4-0.2,2-0.5L7.5,45.7z M4.5,51.5c0-0.3,0-1.2,0-2.1
	c-0.4,0.2-0.8,0.4-1.2,0.7c-0.6,0.3-0.9,0.9-1,1.6c0,0.6,0.4,1.1,1,1.1h0.1c0.6,0,1-0.4,1-1C4.5,51.6,4.5,51.5,4.5,51.5L4.5,51.5z
	 M10.9,47c-0.8-0.7-1.6-1.2-2.6-1.6l0.4-0.7c1,0.4,1.9,1,2.7,1.6L10.9,47z"/>
<path d="M16.7,47.6h-3.3v6h-0.7v-10h4.1v4H16.7z M15.9,44.2h-2.6v1h2.6V44.2z M13.3,46.9h2.6v-1.1h-2.6L13.3,46.9z M19.3,51.9h-3.6
	v0.7H15v-4h4.3V51.9z M18.6,49.3h-2.8v2h2.8V49.3z M21.9,43.6v8.9c0,0.5-0.1,0.8-0.5,0.9c-0.7,0.1-1.3,0.2-2,0.1
	c-0.1-0.3-0.2-0.5-0.3-0.8c0.4,0,0.8,0,1.1,0c0.9,0,1,0,1-0.3v-4.9h-3.4v-4L21.9,43.6z M21.2,44.2h-2.7v1h2.7V44.2z M18.5,46.9h2.7
	v-1.1h-2.7V46.9z"/>
<path d="M24.5,44.6c0,0.1-0.1,0.2-0.3,0.2c-0.1,0.9-0.2,1.9-0.2,2.8c0,0.4,0,0.8,0,1.2c0.1,1.9,0.9,3.1,1.8,3.1c0.5,0,1-1.2,1.4-2.4
	c0.2,0.2,0.4,0.3,0.7,0.5c-0.5,1.5-1.2,2.8-2.1,2.8c-1.4,0-2.4-1.7-2.6-3.9c0-0.4,0-0.9,0-1.4c0-1,0.1-2,0.2-3L24.5,44.6z M32,49.9
	c-0.2-1.8-1.3-3.4-2.8-4.3l0.5-0.6c1.7,0.9,2.9,2.6,3.2,4.6L32,49.9z"/>
<path d="M39.6,43.1c0,0.1-0.1,0.2-0.2,0.2c1.3,1.7,3,3,5,3.9c-0.2,0.2-0.4,0.4-0.5,0.7c-1.9-1-3.6-2.4-4.9-4c-1.4,1.7-3,3.1-4.9,4.1
	c-0.1-0.2-0.3-0.4-0.5-0.6c2-1,3.6-2.5,4.9-4.3L39.6,43.1z M35.5,53.6V49h7v4.6h-0.8v-0.5h-5.4v0.5H35.5z M36,46.8h5.8v0.7H36V46.8z
	 M41.7,49.7h-5.5v2.7h5.5V49.7z"/>
<path d="M47.4,43.3l1.1,0.1c0,0.1-0.1,0.2-0.3,0.2c0,0.5-0.1,1.2-0.1,1.6c0.1,0,0.2,0.1,0.4,0.2c-0.2,0.4-0.4,0.9-0.5,1.4
	c0,0.2,0,0.3,0,0.5c1.1-0.8,2.4-1.3,3.7-1.4c2,0,3,1.3,3,3.2c0,2.4-1.9,3.4-4.9,3.7c-0.1-0.3-0.2-0.5-0.3-0.7c2.8-0.3,4.4-1.1,4.4-3
	c0.2-1.2-0.7-2.3-1.9-2.5c-0.1,0-0.2,0-0.3,0c-1.4,0.1-2.6,0.6-3.7,1.5c0,1.6,0,3.6,0,5.1h-0.8c0-0.7,0-4,0-4.8
	c-0.6,1-1.3,1.9-2.1,2.6l-0.4-0.7c1.1-0.9,2-2.1,2.6-3.4V46c-0.7,0.1-1.5,0.2-2.2,0.2v-0.8c0.8,0,1.5,0,2.3-0.2V43.3z"/>
<path d="M63.1,43.5c0,0.1-0.1,0.2-0.2,0.2c0,0.8,0.1,1.7,0.1,2.6c0.9-0.1,1.8-0.3,2.4-0.4l0.1,0.8c-0.7,0.1-1.6,0.2-2.5,0.3
	c0,0.8,0,1.7-0.1,2.5c-0.1,0.6-0.6,1.1-1.3,1.1c-0.6,0-1.2-0.2-1.7-0.5c0.1-0.2,0.1-0.4,0.1-0.7c0.5,0.3,1,0.4,1.5,0.4
	c0.7,0,0.8-0.7,0.7-2.7c-1.3,0.2-2.7,0.4-3.7,0.6c0,1.1,0,2.1,0.1,2.7c0.1,1.7,1,1.8,2.6,1.8c1,0,2-0.1,3-0.2v0.8
	C63.4,53,62.3,53,61.3,53c-1.8,0-3.3,0-3.5-2.5c-0.1-0.6-0.1-1.6-0.1-2.7c-0.7,0.1-1.6,0.3-2.2,0.4l-0.1-0.8
	c0.6-0.1,1.5-0.3,2.3-0.4c0-1,0-2,0-2.9l1.1,0.1c0,0.1-0.1,0.2-0.3,0.2c0,0.7,0,1.6,0,2.4l3.7-0.6c0-1-0.1-2.1-0.1-3L63.1,43.5z"/>
<path class="st1" d="M45,20.1H21.8c-0.4,0-0.7,0.3-0.7,0.7l0,0v1.5l12.4,8.3l12.3-8.3v-1.5C45.8,20.4,45.4,20.1,45,20.1z"/>
<path class="st1" d="M21,25.4v9.8c0,1.7,1.3,3,3,3h18.8c1.6,0,3-1.3,3-2.9v-0.1v-9.8l-12.4,8.3L21,25.4z"/>
<g>
	<path d="M8,11.9C8,12,7.9,12,7.7,12c-0.3,1.6-0.9,2.6-3.5,3.2C4.1,15,4,14.7,3.8,14.6c2.4-0.4,3-1.3,3.2-2.8L8,11.9z M10.4,14
		c0,0.3,0.1,0.4,0.6,0.4h1.7c0.5,0,0.5-0.2,0.6-1.6c0.2,0.1,0.5,0.3,0.7,0.3c-0.1,1.6-0.3,2-1.2,2h-1.9c-1,0-1.3-0.2-1.3-1.1v-2.5
		H5.4V5.4h7v6.1h-2V14z M6.1,6v1.2h5.5V6H6.1z M6.1,7.8V9h5.5V7.8H6.1z M6.1,9.6v1.2h5.5V9.6H6.1z"/>
	<path d="M24.8,11.5v0.7h-4.6v2.1c0,0.9-0.5,0.9-2.6,0.9c-0.1-0.2-0.2-0.5-0.3-0.7c0.6,0,1.1,0,1.4,0c0.6,0,0.7,0,0.7-0.2v-2.1H15
		v-0.7h4.5v-1l0.5,0c0.6-0.3,1.1-0.7,1.6-1h-4.8V8.8h5.6l0.1,0l0.6,0.4c0,0.1-0.1,0.1-0.2,0.1c-0.6,0.6-1.7,1.3-2.7,1.8v0.4H24.8z
		 M16,7.5v1.8h-0.7V6.8H17c-0.2-0.4-0.6-1-1-1.4l0.6-0.3c0.4,0.5,0.9,1.1,1.1,1.6l-0.3,0.2h2.3c-0.2-0.5-0.5-1.2-0.9-1.7l0.6-0.2
		c0.4,0.6,0.8,1.3,0.9,1.8l-0.4,0.2H22c0.4-0.5,1-1.3,1.3-1.8c0.7,0.3,0.8,0.3,0.9,0.4c0,0.1-0.1,0.1-0.2,0.1
		c-0.3,0.4-0.7,0.9-1.1,1.4h1.8v2.4h-0.7V7.5H16z"/>
	<path d="M29.3,10.1c0,0.6-0.5,1.1-1.1,1.1c-0.6,0-1.1-0.5-1.1-1.1s0.5-1.1,1.1-1.1C28.8,8.9,29.3,9.5,29.3,10.1z"/>
	<path d="M35.3,6.8v0.6h-4V6.8H35.3z M35,11.4v3.2h-2.5v0.5h-0.6v-3.8H35z M34.9,8.4V9h-3.1V8.4H34.9z M31.8,10.5V9.9h3.1v0.6H31.8z
		 M34.9,5.4V6h-3V5.4H34.9z M34.3,12h-1.9v2h1.9V12z M37.9,11.1c0,0.1-0.1,0.1-0.2,0.1c-0.2,1.6-0.6,3.1-2.2,3.9
		c-0.1-0.2-0.3-0.4-0.5-0.6c1.5-0.7,1.9-2,2-3.6L37.9,11.1z M39.6,14c0,0.3,0,0.3,0.3,0.3h0.8c0.3,0,0.3-0.2,0.4-1.7
		c0.2,0.1,0.5,0.2,0.6,0.3c-0.1,1.7-0.2,2.1-0.9,2.1h-1c-0.7,0-0.9-0.2-0.9-1v-3.3h-3V7.1h5.3v3.7h-1.4c0,0-0.1,0-0.1,0V14z M36.7,5
		c0.4,0.5,0.7,1.3,0.9,1.8c-0.4,0.2-0.5,0.2-0.7,0.3c-0.1-0.5-0.5-1.3-0.8-1.8L36.7,5z M36.5,7.7v2.4h3.8V7.7H36.5z M41,5.3
		c0,0.1-0.1,0.1-0.2,0.1c-0.2,0.5-0.6,1.2-0.9,1.7c-0.1-0.1-0.5-0.2-0.6-0.3c0.3-0.5,0.6-1.3,0.8-1.9L41,5.3z"/>
	<path d="M46.4,12.3h-2.9v1.1h-0.7V5.7h3.6V12.3z M45.7,6.3h-2.2v2.2h2.2V6.3z M43.4,11.6h2.2V9.3h-2.2V11.6z M52.1,5.4v8.7
		c0,0.5-0.1,0.7-0.5,0.9s-0.9,0.1-1.9,0.1c0-0.2-0.2-0.5-0.3-0.7c0.4,0,0.7,0,1,0c0.8,0,0.9,0,0.9-0.3v-2.6H48
		c-0.3,1.3-0.8,2.7-2.1,3.7c-0.1-0.1-0.4-0.4-0.5-0.5c1.9-1.5,2.1-3.6,2.1-5.3v-4H52.1z M48.2,9.4c0,0.5,0,1-0.1,1.5h3.3V8.8h-3.3
		V9.4z M51.4,6.1h-3.3v2h3.3V6.1z"/>
	<path d="M59.1,5c0,0.1-0.1,0.1-0.2,0.2c1.1,1.5,3.1,3,4.8,3.7c-0.2,0.2-0.4,0.4-0.5,0.7c-1.7-0.9-3.7-2.4-4.8-3.9
		c-0.9,1.4-2.8,2.9-4.7,3.9c-0.1-0.2-0.3-0.4-0.4-0.6c1.9-0.9,3.8-2.6,4.7-4.1L59.1,5z M53.8,11.3v-0.7h9.2v0.7h-5.3l0.1,0
		c0,0.1-0.1,0.1-0.3,0.1c-0.3,0.7-0.8,1.7-1.3,2.6c1.5,0,3.2-0.1,4.8-0.1c-0.5-0.6-1.1-1.2-1.6-1.7l0.6-0.3c1,0.9,2.1,2.1,2.7,2.9
		l-0.7,0.4c-0.1-0.2-0.3-0.5-0.5-0.8c-2.7,0.1-5.5,0.3-7.3,0.3c0,0.1-0.1,0.1-0.2,0.2L53.9,14c0.5,0,1,0,1.6,0
		c0.5-0.8,1-1.9,1.3-2.7H53.8z M55.7,8.4H61v0.7h-5.3V8.4z"/>
</g>
</svg>
