<?xml version="1.0" encoding="utf-8"?>
<!-- Generator: Adobe Illustrator 16.0.0, SVG Export Plug-In . SVG Version: 6.00 Build 0)  -->
<!DOCTYPE svg PUBLIC "-//W3C//DTD SVG 1.1//EN" "http://www.w3.org/Graphics/SVG/1.1/DTD/svg11.dtd">
<svg version="1.1" id="レイヤー_1" xmlns="http://www.w3.org/2000/svg" xmlns:xlink="http://www.w3.org/1999/xlink" x="0px"
	 y="0px" width="39.267px" height="32.701px" viewBox="0 0 39.267 32.701" enable-background="new 0 0 39.267 32.701"
	 xml:space="preserve">
<g>
	<path fill="#42A137" d="M38.625,0.643L38.625,0.643C33.293-0.93,27.288,0.382,23.085,4.584c-2.969,2.969-4.488,6.826-4.579,10.717
		h-0.444v17.4h3.135V20.584c4.771,0.736,9.811-0.735,13.477-4.402C38.884,11.979,40.197,5.973,38.625,0.643z"/>
	<path fill="#8EC442" d="M16.182,4.584c4.202,4.203,5.521,10.21,3.95,15.539l0,0C14.8,21.698,8.796,20.385,4.593,16.174
		C0.382,11.979-0.93,5.973,0.643,0.643l0,0C5.973-0.93,11.978,0.382,16.182,4.584z"/>
	<path opacity="0.2" fill="#040000" enable-background="new    " d="M21.136,20.576l-3.068,3.852v-3.844
		c0.529-0.076,1.051-0.191,1.573-0.322C20.132,20.393,20.63,20.492,21.136,20.576z"/>
</g>
</svg>
