<?xml version="1.0" encoding="utf-8"?>
<!-- Generator: Adobe Illustrator 27.3.1, SVG Export Plug-In . SVG Version: 6.00 Build 0)  -->
<svg version="1.1" id="レイヤー_1" xmlns="http://www.w3.org/2000/svg" xmlns:xlink="http://www.w3.org/1999/xlink" x="0px"
	 y="0px" width="96.7px" height="49.9px" viewBox="0 0 96.7 49.9" style="enable-background:new 0 0 96.7 49.9;"
	 xml:space="preserve">
<style type="text/css">
	.st0{fill:#89C13F;}
	.st1{fill:#F0FFE5;}
	.st2{enable-background:new    ;}
	.st3{fill:#4D4D4D;}
</style>
<g>
	<ellipse class="st0" cx="46" cy="26.5" rx="46" ry="23.5"/>
	<path class="st0" d="M3.5,49.1C9,45,11.8,39,8.5,37.9l22.2,6.7c-3.8-1-11.4,6-26.9,5.2C3.5,49.9,3.3,49.4,3.5,49.1z"/>
</g>
<ellipse class="st1" cx="49.5" cy="23.5" rx="47.2" ry="23.5"/>
<path class="st1" d="M7,46.1c4.7-4.1,7.1-10.1,4.3-11.2l19.1,6.7c-3.3-1-9.8,6-23.1,5.2C7,46.9,6.8,46.4,7,46.1z"/>
<g class="st2">
	<path class="st3" d="M28,20.1c-0.7,0.3-1.7,0.4-2.7,0.6c0,0.9,0,1.9,0,2.7c1.1-0.4,2.3-0.6,3.2-0.6c2.4,0,3.9,1.3,3.9,3.3
		c0,1.8-1.1,3.3-3.3,3.3c-1,0-2-0.4-2.7-1.3c0.2-0.2,0.4-0.5,0.5-0.7c0.7,0.9,1.4,1.1,2.2,1.1c1.5,0,2.3-1.1,2.3-2.4
		c0-1.4-1-2.4-2.9-2.4c-0.9,0-2.1,0.3-3.2,0.7c0,1,0,2.7,0,3.1c0,1.3-0.8,2.2-2.2,2.2c-1.3,0-2.4-0.8-2.4-2.2c0-0.9,0.6-1.9,1.8-2.7
		c0.5-0.4,1.1-0.7,1.9-1v-3c-1.1,0.1-2.2,0.1-3.4,0.1v-1c1.2,0,2.4,0,3.4-0.1v-2.6l1.4,0.1c0,0.2-0.2,0.3-0.4,0.3
		c0,0.5,0,1.4-0.1,2.2c0.9-0.1,1.8-0.3,2.5-0.6L28,20.1z M24.4,27.3c0-0.4,0-1.5,0-2.7c-0.5,0.2-1,0.5-1.4,0.8
		c-0.7,0.5-1.3,1.3-1.3,1.9c0,0.7,0.5,1.3,1.4,1.3C23.8,28.7,24.4,28.2,24.4,27.3L24.4,27.3z M32.3,21.8c-0.7-0.7-2.1-1.5-3.2-2
		l0.5-0.8c1.2,0.5,2.5,1.3,3.3,2L32.3,21.8z"/>
	<path class="st3" d="M39.6,19.8c0,0.1-0.1,0.1-0.2,0.1c-0.4,1.2-1.1,2.3-1.9,3.3c0.6,0.4,1.9,1.4,2.2,1.7l-0.5,0.8
		c-0.4-0.4-1.2-1.1-1.8-1.6v5.7h-0.9v-5.3c-0.6,0.7-1.3,1.2-1.9,1.7c-0.1-0.3-0.4-0.7-0.5-0.8c1.6-1.1,3.3-3,4.3-5.1h-4v-0.9h2.1
		v-2.7l1.2,0.1c0,0.1-0.1,0.2-0.3,0.2v2.4h1.5l0.2-0.1L39.6,19.8z M42.5,24c0,0.1-0.1,0.2-0.3,0.2c-0.2,2.3-0.7,4.5-3,5.7
		c-0.1-0.2-0.4-0.5-0.6-0.7c2.1-1,2.5-3,2.7-5.3L42.5,24z M44.7,28.5c0,0.4,0.1,0.5,0.4,0.5h1.1c0.3,0,0.4-0.3,0.4-2.1
		c0.2,0.2,0.5,0.3,0.8,0.4c-0.1,2-0.3,2.5-1.1,2.5H45c-1,0-1.2-0.3-1.2-1.3v-5.3H40v-5.4h6.6v5.4H45c0,0.1-0.1,0.2-0.3,0.2V28.5z
		 M40.9,18.7v3.7h4.8v-3.7H40.9z"/>
	<path class="st3" d="M50.5,18.8c0,0.1-0.2,0.2-0.4,0.2c-0.2,1.1-0.3,2.3-0.3,3.5c0,0.5,0,1,0.1,1.5c0.2,2.4,1.1,3.8,2.2,3.8
		c0.6,0,1.3-1.4,1.8-3c0.2,0.2,0.6,0.5,0.8,0.6c-0.6,1.9-1.5,3.4-2.6,3.5c-1.8,0-3-2.1-3.2-4.8c0-0.5-0.1-1.1-0.1-1.8
		c0-1.2,0.1-2.6,0.2-3.8L50.5,18.8z M59.8,25.3c-0.4-2.5-1.6-4.2-3.5-5.3l0.6-0.8c2,1.1,3.5,3.1,3.9,5.7L59.8,25.3z"/>
	<path class="st3" d="M69.1,25v3.6h5.7v0.8H62.6v-0.8h5.5V25h-4.9v-0.8h4.9v-2h-3v-0.8c-0.8,0.6-1.6,1.1-2.4,1.6
		c-0.1-0.2-0.4-0.5-0.6-0.7c2.5-1.3,4.9-3.5,6-5.4l1.4,0.1c0,0.1-0.1,0.2-0.3,0.2c1.4,1.9,3.9,3.9,6.1,5c-0.2,0.2-0.5,0.5-0.6,0.8
		c-2.2-1.2-4.7-3.2-6-5.1c-0.7,1.1-2,2.4-3.4,3.5h7v0.9h-3.1v2h5V25H69.1z M65.8,28.3c-0.2-0.7-0.7-1.8-1.3-2.6l0.8-0.3
		c0.6,0.8,1.2,1.9,1.4,2.6L65.8,28.3z M73,25.8c0,0.1-0.2,0.1-0.3,0.1c-0.4,0.7-1.1,1.8-1.6,2.4L70.4,28c0.5-0.7,1.2-1.8,1.6-2.7
		L73,25.8z"/>
	<path class="st3" d="M77.8,27.9c0-0.5,0.4-0.9,0.9-0.9s0.9,0.4,0.9,0.9s-0.4,0.9-0.9,0.9C78.2,28.9,77.8,28.4,77.8,27.9z
		 M78.3,25.7L78.1,18h1.3l-0.2,7.7H78.3z"/>
</g>
</svg>
