<?xml version="1.0" encoding="utf-8"?>
<!-- Generator: Adobe Illustrator 16.0.0, SVG Export Plug-In . SVG Version: 6.00 Build 0)  -->
<!DOCTYPE svg PUBLIC "-//W3C//DTD SVG 1.1//EN" "http://www.w3.org/Graphics/SVG/1.1/DTD/svg11.dtd">
<svg version="1.1" id="レイヤー_1" xmlns="http://www.w3.org/2000/svg" xmlns:xlink="http://www.w3.org/1999/xlink" x="0px"
	 y="0px" width="86.19px" height="49.936px" viewBox="0 0 86.19 49.936" enable-background="new 0 0 86.19 49.936"
	 xml:space="preserve">
<g>
	<ellipse fill="#89C13F" cx="41.095" cy="26.468" rx="41.095" ry="23.467"/>
	<path fill="#89C13F" d="M4.619,49.138c4.703-4.122,7.125-10.078,4.325-11.209l19.055,6.723c-3.271-1.031-9.751,6.031-23.112,5.218
		C4.554,49.854,4.375,49.366,4.619,49.138z"/>
</g>
<g>
	<ellipse fill="#F0FFE5" cx="45.095" cy="23.468" rx="41.095" ry="23.467"/>
	<path fill="#F0FFE5" d="M8.619,46.138c4.703-4.122,7.125-10.078,4.325-11.209l19.055,6.723c-3.271-1.031-9.751,6.031-23.112,5.218
		C8.554,46.854,8.375,46.366,8.619,46.138z"/>
</g>
<g>
	<g>
		<path fill="#4D4D4D" d="M27.506,28.349v0.911H16.342v0.714h-0.938V17.745h11.794v0.911H16.342v9.693H27.506z M26.917,23.096v0.84
			h-4.328c0.715,1.541,2.199,2.507,4.301,2.886c-0.211,0.182-0.463,0.546-0.575,0.799c-1.988-0.449-3.417-1.401-4.271-2.9
			c-0.49,1.121-1.653,2.199-4.272,2.998c-0.112-0.211-0.364-0.547-0.561-0.715c2.913-0.813,3.852-1.961,4.146-3.067h-4.175v-0.84
			h4.286v-1.975H19.2c-0.351,0.574-0.742,1.079-1.148,1.471c-0.183-0.154-0.505-0.336-0.729-0.462
			c0.798-0.714,1.513-1.919,1.904-3.166l1.079,0.308c-0.028,0.084-0.112,0.126-0.28,0.126c-0.112,0.294-0.238,0.603-0.378,0.896
			h6.472v0.827h-3.727v1.975H26.917z"/>
		<path fill="#4D4D4D" d="M30.02,22.956v1.415h3.516v4.231H30.02v0.938h-0.869V19.076h1.177c0.252-0.644,0.519-1.513,0.658-2.143
			l1.191,0.238c-0.028,0.112-0.126,0.154-0.295,0.168c-0.168,0.49-0.42,1.163-0.686,1.737h2.213v3.88H30.02z M32.555,19.902H30.02
			v2.227h2.535V19.902z M32.667,25.211H30.02v2.563h2.647V25.211z M41.632,18.585h-3.418v2.213H41.1v6.107
			c0,0.98-0.463,1.008-1.976,1.008c-0.042-0.238-0.168-0.588-0.28-0.826c0.28,0,0.532,0.014,0.743,0.014c0.56,0,0.63,0,0.63-0.209
			v-5.226h-2.003v8.292h-0.896v-8.292h-1.892v6.346h-0.868v-7.214h2.76v-2.213h-3.376v-0.868h7.69V18.585z"/>
		<path fill="#4D4D4D" d="M43.25,17.619H55.03v12.369h-0.967v-0.688h-9.889v0.688H43.25V17.619z M44.174,28.419h9.889v-9.903h-9.889
			V28.419z M49.497,26.205h3.627v0.827h-7.885v-0.827h3.375v-2.577h-2.746V22.83h2.746v-2.199h-3.152v-0.813h7.355v0.813h-3.32
			v2.199h2.969v0.799h-2.969V26.205z M51.921,25.953c-0.295-0.448-0.912-1.148-1.443-1.639l0.615-0.336
			c0.547,0.476,1.178,1.135,1.486,1.583L51.921,25.953z"/>
		<path fill="#4D4D4D" d="M58.511,21.891c-0.533,0.883-1.121,1.667-1.709,2.339c-0.1-0.224-0.336-0.658-0.49-0.882
			c1.344-1.457,2.689-3.88,3.502-6.303l1.119,0.378c-0.055,0.098-0.154,0.14-0.322,0.126c-0.363,0.98-0.797,1.961-1.287,2.9
			l0.377,0.098c-0.027,0.084-0.098,0.154-0.279,0.168v9.287h-0.91V21.891z M69.534,24.833h-3.445
			c0.924,1.54,2.438,3.025,3.838,3.782c-0.225,0.182-0.52,0.518-0.674,0.756c-1.357-0.854-2.801-2.409-3.768-4.034v4.622h-0.938
			v-4.552c-1.01,1.625-2.521,3.124-3.951,3.937c-0.154-0.238-0.447-0.574-0.658-0.757c1.484-0.729,3.055-2.214,4.02-3.754h-3.641
			v-0.882h4.23v-1.625h-3.152v-4.707h7.367v4.707h-3.277v1.625h4.049V24.833z M62.306,18.474v2.998h5.533v-2.998H62.306z"/>
		<path fill="#4D4D4D" d="M76.235,28.027c0-0.505,0.393-0.911,0.869-0.911s0.869,0.406,0.869,0.911c0,0.504-0.393,0.91-0.869,0.91
			C76.601,28.938,76.235,28.503,76.235,28.027z M76.657,25.771l-0.211-7.676h1.344l-0.209,7.676H76.657z"/>
	</g>
</g>
</svg>
