<?xml version="1.0" encoding="utf-8"?>
<!-- Generator: Adobe Illustrator 28.1.0, SVG Export Plug-In . SVG Version: 6.00 Build 0)  -->
<svg version="1.1" id="レイヤー_1" xmlns="http://www.w3.org/2000/svg" xmlns:xlink="http://www.w3.org/1999/xlink" x="0px"
	 y="0px" viewBox="0 0 589.6 589.6" style="enable-background:new 0 0 589.6 589.6;" xml:space="preserve">
<style type="text/css">
	.st0{fill:#FFFFFF;}
	.st1{opacity:0.7;}
	.st2{clip-path:url(#SVGID_00000074421688815576018950000012775133454364994718_);}
	.st3{fill:#C3BDB6;}
	.st4{fill:#F0BD58;}
	.st5{fill:#61C1BE;}
	.st6{fill:#E798A2;}
	.st7{fill:none;stroke:#EEB7BE;stroke-width:2.5512;stroke-miterlimit:10;}
	.st8{fill:none;stroke:#F4D18A;stroke-width:2.5512;stroke-miterlimit:10;}
	.st9{fill:none;stroke:#90D4D1;stroke-width:2.5512;stroke-miterlimit:10;}
	.st10{fill:#EEB7BE;}
	.st11{fill:#F4D18A;}
	.st12{fill:#90D4D1;}
	.st13{fill:#309739;stroke:#C3D842;stroke-width:0.7044;stroke-miterlimit:10;}
	.st14{fill:#6A5632;}
	.st15{fill:#6C5833;}
</style>
<g>
	<rect x="0" y="0" class="st0" width="589.6" height="589.6"/>
</g>
<g>
	<g class="st1">
		<defs>
			<rect id="SVGID_1_" x="0" y="0" class="st1" width="589.6" height="589.6"/>
		</defs>
		<clipPath id="SVGID_00000077325519964986162550000013516526536930354623_">
			<use xlink:href="#SVGID_1_"  style="overflow:visible;"/>
		</clipPath>
		<g style="clip-path:url(#SVGID_00000077325519964986162550000013516526536930354623_);">
			<path class="st3" d="M-130.9,672.2c0.3-0.5,0.9-0.8,1.5-0.9l18.8-2.4c0.1,0,0.2,0,0.3,0c0.3,0,0.6,0.1,0.8,0.2l18.8,7.9l6.2-18.7
				l-26.5-2.6c-1-0.1-1.8-0.8-1.9-1.8l-7-47.6c-0.1-0.7,0.1-1.4,0.7-1.9c0.4-0.4,0.9-0.6,1.4-0.6c0.2,0,0.3,0,0.5,0.1l30,7.1
				l10.5-35.9l-23.9-54.3l-57.6,8.3c-0.1,0-0.2,0-0.3,0c-0.2,0-0.3,0-0.5-0.1l-35.7-8.5c-0.3-0.1-0.5-0.2-0.7-0.3l-35.8-24.2
				l-11.8,17.9l8.1,113.5l43.7,8.7c0.3,0.1,0.6,0.2,0.9,0.4l61.5,48.2l-2.2-10.8C-131.3,673.3-131.2,672.7-130.9,672.2z"/>
			<path class="st3" d="M-229.6,445.8l-11.3,25.4l10.6,20.3l36.8,24.9l34.9,8.3l38.8-5.6l-1.1-30.7c0-0.6,0.2-1.1,0.6-1.6l10.1-10.4
				l-17-34.7l-34.6-13c-0.5-0.2-0.8-0.5-1.1-0.9l-17.8-30.7l-64.6,25.6v10.3l15,9.8C-229.5,443.7-229.2,444.8-229.6,445.8z"/>
			<path class="st3" d="M-99.8,516.3c0.1,0,0.2,0,0.3,0c0.8,0,1.6,0.5,1.9,1.3l7.3,16.5l19.7,2.8c0.6,0.1,1.1,0.4,1.4,0.8l27.1,35.7
				l23.3,7.9v-29.1L-38,537.8c-0.9-0.7-1.1-2-0.5-2.9l12.2-17.7v-12.7c-14.5-12.3-20.1-17.3-22.4-19.5c-3.1,2-12,8.6-19.9,14.8
				c-0.4,0.3-0.8,0.4-1.3,0.4c-0.1,0-0.3,0-0.4,0c-0.6-0.1-1.1-0.5-1.4-1.1l-8.5-15.9l-35.8,26l0.3,9.5L-99.8,516.3z"/>
			<path class="st3" d="M-83.9,614.2c-0.3,0.9-1.1,1.5-2,1.5c-0.2,0-0.3,0-0.5-0.1l-28.9-6.8l6.3,42.8l26.1,2.6l6.2-10.2
				c0.4-0.7,1.1-1,1.8-1c0.2,0,0.5,0,0.7,0.1l14.3,4.8l8.6-17.7l-7.5-12c-0.3-0.5-0.4-1.2-0.2-1.8c0.2-0.6,0.7-1.1,1.3-1.3l19.6-7.6
				l17.9-22.2l-23.9-8.1c-0.4-0.1-0.8-0.4-1-0.7l-27-35.5l-16.2-2.3l15.6,35.4c0.2,0.5,0.2,1,0.1,1.5L-83.9,614.2z"/>
			<path class="st3" d="M14.3,617.5c-0.5,0-0.9-0.2-1.3-0.4l-32.8-25.4l-15.3,19c-0.2,0.3-0.5,0.5-0.9,0.6l-17.7,6.9L-47,629
				c0.4,0.6,0.4,1.4,0.1,2.1l-9.5,19.7l4.5,12.2l50,26.5l27.4,1.7l-1.1-2.9c-0.1-0.3-0.2-0.7-0.1-1.1l10.6-69.8H14.3z"/>
			<path class="st3" d="M50.8,556.9l2.6-2.4L49,524.2H28.3c-0.6,0-1.1-0.2-1.5-0.6L0,496.1l-22.5,23.1l-11.3,16.4l18.5,13.8
				c0.5,0.4,0.9,1,0.9,1.7v33.2c0,0.5-0.2,1-0.5,1.3l-2.1,2.7l32.2,24.9h20.5l4.2-27.7c0.2-1,1.1-1.8,2.1-1.8h6l2.2-25.4
				C50.2,557.8,50.4,557.3,50.8,556.9z"/>
			<path class="st4" d="M285.5,412.4c-0.3-0.4-0.5-1-0.5-1.5l3.2-45.3l-19.8-11.4l-13.1,7.4l-20.1,69.7c-0.2,0.8-0.9,1.4-1.7,1.5
				l-25,4.2c-0.1,0-0.2,0-0.4,0c-0.7,0-1.3-0.3-1.7-0.8L195,420.9l-16.3,9.4l2.9,22.4l15.6,9c0.7,0.4,1.1,1.1,1.1,1.9V562h5.2
				c1.2,0,2.1,1,2.1,2.1v12.6l23.6,8.6l29.5-12.8l6-68.5c0.1-0.9,0.7-1.6,1.5-1.9l29.8-8.7l25-37L285.5,412.4z"/>
			<path class="st5" d="M175.4,427.3l17-9.9l-37.7-49.6L143,378.5v25.8c0,0.4-0.1,0.8-0.3,1.1l-39.5,65.2l33.2,11.7l30-36.4
				c0.4-0.5,1-0.8,1.6-0.8c0.4,0,0.7,0.1,1.1,0.3l7.8,4.5l-2.7-20.5C174.2,428.6,174.7,427.7,175.4,427.3z"/>
			<path class="st4" d="M220.5,314.9c0.4,0.8,0.2,1.7-0.4,2.4l-6.3,6.7c-0.4,0.4-1,0.7-1.6,0.7c-0.1,0-0.1,0-0.2,0
				c-0.7-0.1-1.2-0.4-1.6-1l-6.9-10.9l-39.7,27.4c-0.4,0.2-0.8,0.4-1.2,0.4c-0.4,0-0.7-0.1-1.1-0.3l-10.6-6.1l-4.7,5.5l10.6,23.9
				l52.3,68.9l22.4-3.7l20-69.2c0.2-0.5,0.5-1,1-1.3l13.3-7.5l-14-37.9c-0.3-0.8-0.1-1.8,0.6-2.4l23.1-20l-4.3-7.3l-19,6.5
				c-0.2,0.1-0.5,0.1-0.7,0.1c-0.5,0-1-0.2-1.4-0.6l-12.7-11.8c-0.9-0.8-0.9-2.1-0.1-3l10.5-11.8l-4.5-5.5l-29.2,8.1
				c-0.2,0.1-0.4,0.1-0.6,0.1c-0.4,0-0.7-0.1-1.1-0.3l-11.8-6.8l-4.3,6.1L220.5,314.9z"/>
			<path class="st6" d="M46.3,272.5L15.9,290l-4.2,13.6l11.6,11l21.4-3.9c0.1,0,0.3,0,0.4,0c0.7,0,1.3,0.3,1.7,0.8l3.8,5
				c0.6,0.8,0.6,2-0.1,2.7l-13.4,14.5l4.1,5.7l54.5,5.2c0.7,0.1,1.4,0.5,1.7,1.1l14.2,27.4l29,1.6l11.8-10.8l-10.6-24
				c-0.3-0.8-0.2-1.6,0.3-2.3l6.8-7.8c0.4-0.5,1-0.7,1.6-0.7c0.4,0,0.7,0.1,1.1,0.3l11,6.3l40.4-27.9c0.4-0.2,0.8-0.4,1.2-0.4
				c0.1,0,0.3,0,0.4,0c0.6,0.1,1.1,0.5,1.4,0.9l6.6,10.4l3.4-3.7l-24.2-50.5c-0.3-0.7-0.3-1.5,0.2-2.2l4.8-6.8l-10.3-6L174,262.2
				c-0.4,0.4-0.9,0.6-1.5,0.6h-16c-1.2,0-2.1-1-2.1-2.1v-36.2l-44.7,14.2c-0.2,0.1-0.4,0.1-0.6,0.1c-0.4,0-0.7-0.1-1.1-0.3
				l-42.6-24.7l-26.6,14.2l11.1,18.8c0.2,0.4,0.3,0.9,0.3,1.4l-2.8,22.6C47.2,271.5,46.8,272.1,46.3,272.5z"/>
			<path class="st6" d="M54.1,391l24,13.9l31.4-13.4c0.3-0.1,0.5-0.2,0.8-0.2c0.2,0,0.5,0,0.7,0.1l27.6,9.8v-22.2l-28.6-1.6
				c-0.8,0-1.4-0.5-1.8-1.1l-14.2-27.4l-41.5-4L39,352.1l28.4,23.4c0.5,0.4,0.8,1,0.8,1.6c0,0.6-0.2,1.2-0.7,1.6L54.1,391z"/>
			<path class="st5" d="M110.5,395.8l-31.6,13.5c-0.3,0.1-0.6,0.2-0.8,0.2c-0.4,0-0.7-0.1-1.1-0.3l-19.1-11.1l11.7,48l20.3,20.1
				l9.3,3.1l38.6-63.8L110.5,395.8z"/>
			<path class="st3" d="M-46.2,282.6c0.9,0,1.7,0.6,2,1.5l12.3,38.1l21.6,28.1c0.5,0.6,0.6,1.4,0.3,2.1l-5.9,14.5l6.7,7.2l9.5-8.4
				c0.4-0.4,0.9-0.5,1.4-0.5c0.3,0,0.6,0.1,0.9,0.2l47.6,23.5l12.6-11.7l-29-23.9c-0.6-0.5-0.8-1.2-0.8-1.9c0.1-0.7,0.5-1.3,1.1-1.7
				l10.7-5.5l-4.9-0.5c-0.6-0.1-1.2-0.4-1.5-0.9l-5.7-7.9c-0.6-0.8-0.5-2,0.2-2.7l13.3-14.5l-1.9-2.6L23,319.1c-0.1,0-0.3,0-0.4,0
				c-0.5,0-1.1-0.2-1.5-0.6L7.8,305.8c-0.6-0.6-0.8-1.4-0.6-2.2l4.6-15.1l-3.2-12.2l-38-4.5c-0.4,0-0.7-0.2-1-0.4l-24-18l-10,29.3
				H-46.2z"/>
			<path class="st3" d="M-107.5,315.9c0.8,0.1,1.5,0.6,1.7,1.4l22.8,59.7l29.4-10c0.2-0.1,0.5-0.1,0.7-0.1c0.7,0,1.3,0.3,1.7,0.9
				l4.6,6.3l10.4-9.2c0.4-0.3,0.9-0.5,1.4-0.5c0,0,14.9,1,14.9,1l5.4-13.2l-21.1-27.4c-0.1-0.2-0.3-0.4-0.3-0.6l-11.9-37h-19.4
				c-0.7,0-1.3-0.3-1.7-0.9c-0.4-0.6-0.5-1.3-0.3-1.9l10.9-31.9l-89.8,3.8l-27.9,37.5l16.8,16.5L-107.5,315.9z"/>
			<path class="st3" d="M49.6,393.4l-12-5.9l-34.9,24c-0.4,0.2-0.8,0.4-1.2,0.4c-0.4,0-0.7-0.1-1.1-0.3l-9.2-5.3l-8.4,26.2l75,24.1
				l7.4-9.8l-12.5-51.5L49.6,393.4z"/>
			<path class="st3" d="M-8,378.7c-0.4,0.4-0.9,0.5-1.4,0.5c-0.6,0-1.1-0.2-1.6-0.7l-8.5-9.1l-14.5-1l-11.5,10.2
				c-0.4,0.3-0.9,0.5-1.4,0.5c-0.1,0-0.2,0-0.2,0c-0.6-0.1-1.1-0.4-1.5-0.9l-5-6.9l-28.8,9.8l-2.8,11.7l16.6,16.7h26.7
				c1.2,0,2.1,1,2.1,2.1v13.4l18.6,6l9.2-28.7c0.2-0.6,0.7-1.1,1.3-1.3c0.2-0.1,0.5-0.1,0.8-0.1c0.4,0,0.7,0.1,1.1,0.3l10.4,6
				l31.8-21.8L2,369.9L-8,378.7z"/>
			<path class="st3" d="M-168.3,380.6c0.4-0.4,0.9-0.6,1.5-0.6c0.1,0,0.1,0,0.2,0c0.6,0.1,1.2,0.4,1.5,0.9l15.7,22.8h31.5l6.2-11.2
				c0.4-0.7,1.1-1.1,1.9-1.1h20.5l2.8-11.7l-22.8-59.7l-51.3-5.9c-0.5-0.1-0.9-0.3-1.3-0.6l-15.7-15.5l-4,21.5
				c-0.2,1-1.1,1.7-2.1,1.7c-0.1,0-0.2,0-0.3,0l-42.8-6.6c-0.7-0.1-1.3-0.5-1.6-1.1c-0.3-0.6-0.3-1.3,0-2l5.5-10.6l-18.1-7.1
				l-37.6,36.8l8.7,39.8c0.1,0.3,0.1,0.5,0,0.8l-6.8,41.5l27,17.7v-9c0-0.9,0.5-1.7,1.3-2l67.3-26.7L-168.3,380.6z"/>
			<path class="st3" d="M67.8,450.4l-7.5,9.9c-0.4,0.5-1,0.8-1.7,0.8c-0.2,0-0.4,0-0.7-0.1l-27.1-8.7L2.8,492.8l26.4,27.2h20.6
				l36.1-51.7L67.8,450.4z"/>
			<path class="st3" d="M97.6,525.2l5.6-38.7l-4.8-13l-8.9-3l-36.4,52.1l4.1,28.4l7.2-6.7c0.4-0.4,0.9-0.6,1.5-0.6
				c0.3,0,0.6,0.1,0.9,0.2c0.8,0.4,1.3,1.2,1.2,2.1l-1.2,14.6l5.7,7.8l23.4-20.9L97.6,525.2z"/>
			<path class="st3" d="M-116.7,489.3l0.5,14.7l34.8-25.2l6-24.7c0.1-0.3,0.2-0.6,0.4-0.8l10.1-13.5h-14.8c-0.7,0-1.3-0.3-1.7-0.9
				l-13.7-18.2c-0.4-0.5-0.5-1.1-0.4-1.8l5.2-23.3h-18.3l-6.2,11.2c-0.4,0.7-1.1,1.1-1.9,1.1h-33.9c-0.7,0-1.4-0.3-1.8-0.9
				l-14.9-21.7l-10,9.6l17.5,30.1l34.6,13c0.5,0.2,0.9,0.6,1.2,1.1l18,36.8c0.4,0.8,0.2,1.8-0.4,2.4L-116.7,489.3z"/>
			<path class="st3" d="M-91.1,418.9l12.5,16.5h18c0.8,0,1.5,0.5,1.9,1.2c0.4,0.7,0.3,1.6-0.2,2.2l-12.5,16.6l-5.8,24.2l8.1,15.1
				c18.9-14.6,20.1-14.6,20.9-14.6c0.7,0,1.4,0.4,1.8,1c1.4,1.5,15.2,13.5,23.7,20.7c0.5,0.4,0.8,1,0.8,1.6v9.1l20.4-20.9l28.3-40.7
				l-69.2-22.2c-0.9-0.3-1.5-1.1-1.5-2v-12.8h-25.4c-0.6,0-1.1-0.2-1.5-0.6l-15.3-15.5L-91.1,418.9z"/>
			<polygon class="st3" points="48.6,597.4 44.4,597.4 42.4,613.2 48.6,613.2 			"/>
			<polygon class="st3" points="40.4,628.8 48.6,628.8 48.6,617.5 41.9,617.5 			"/>
			<polygon class="st3" points="90.1,716.8 97.6,709.4 82.7,698.8 71.2,707.8 66.8,705.2 78.7,688.8 74.7,681.2 49.6,704.2 
				36.1,696.4 43.3,716.8 			"/>
			<polygon class="st3" points="34.2,690.3 49,698.9 72.7,677.3 48.6,631.6 40.4,631.6 32.7,686.8 34,690.6 			"/>
			<polygon class="st3" points="163.1,560.8 163.1,554.8 156.4,554.8 156.4,566.7 148.2,566.7 148.2,556.8 131.4,557.8 134.4,582.9 
				177.2,575.8 177.2,595.5 155.2,598.1 155.2,602.2 188.8,598.2 188.8,569.4 177.9,560.8 			"/>
			<polygon class="st3" points="167.1,626.3 179.4,643.6 186.7,638.2 186.7,602.9 165.3,605.5 			"/>
			<polygon class="st3" points="156.3,581.4 156.3,595.1 162.4,595.1 162.4,588.8 173.7,588.8 173.7,584.6 162.4,584.6 162.4,581.4 
							"/>
			<polygon class="st3" points="129.8,589.8 127.5,560.6 115.6,568.7 115.6,576.9 91.7,593.3 87.1,587.7 82.2,590.5 98.7,609.8 
				104.7,606.4 117.2,622 122.6,611.4 113.5,596.3 116.9,589.6 			"/>
			<polygon class="st3" points="114.6,633.4 101.6,611.6 94.1,616.9 110.2,638.7 			"/>
			<polygon class="st3" points="106,647.1 83.4,614.3 73.9,620.2 97.9,664.2 			"/>
			<polygon class="st3" points="68.4,630.7 73.2,627.7 68.2,618.6 88.4,606.2 79.3,592.9 71.1,596.3 76,604.6 64.1,613.2 			"/>
			<polygon class="st3" points="149,648.6 138.2,639.8 115.4,656.5 106,673.9 111.7,677.2 			"/>
			<polygon class="st3" points="129.4,670.8 143,690.3 165,675.7 152.3,653.3 			"/>
			<polygon class="st3" points="108.7,686.7 129.8,699.1 138.6,693.3 125.1,674.1 			"/>
			<polygon class="st3" points="203.8,595.1 207.9,588.9 215.8,592.3 217.2,596.3 220.1,589.6 203.8,583.1 			"/>
			<polygon class="st3" points="221.8,596.3 228,596.3 231.3,603.4 235.3,595.1 224,590.8 			"/>
			<path class="st3" d="M116.7,798c-0.3,0.2-0.7,0.3-1.1,0.3c-0.2,0-0.4,0-0.6-0.1c-0.6-0.2-1-0.6-1.3-1.1l-23.9-46.4
				c-0.5-1-0.2-2.3,0.8-2.8l8.3-4.8l-3.5-8.6l-24.9,0.9l-14.8,14.5c-0.4,0.4-0.9,0.6-1.5,0.6c-0.3,0-0.6-0.1-0.9-0.2l-21.6-10.5
				c-0.8-0.4-1.3-1.2-1.2-2.1c0.1-0.9,0.7-1.6,1.6-1.9l9-2.4l-14-37.8l-29.7-1.9c-0.3,0-0.6-0.1-0.9-0.2l-51.1-27.1
				c-0.5-0.2-0.8-0.7-1-1.1l-4.8-12.9l-13.5-4.6l-5.9,9.7l-7.6,23.2c-0.2,0.6-0.6,1-1.1,1.3c-0.3,0.1-0.6,0.2-0.9,0.2
				c-0.3,0-0.6-0.1-0.8-0.2l-20.4-8.6l-16,2l2.6,12.9l18,4.8c0.6,0.2,1.2,0.6,1.4,1.3l21.8,54.3l39.2,17.6c1,0.5,1.5,1.6,1.1,2.7
				l-8.9,23.7l7.6,8l84.8-20c0.2,0,0.3-0.1,0.5-0.1c0.4,0,0.8,0.1,1.2,0.4l59.3,40.5l28.8-24l-1.5-6.7L116.7,798z"/>
			<path class="st5" d="M138.8,486.2c-0.4,0.5-1,0.8-1.6,0.8c-0.2,0-0.5,0-0.7-0.1l-32.8-11.5l3.8,10.2c0.1,0.3,0.2,0.7,0.1,1.1
				l-5.5,37.8l9.3,5.4c0.8,0.4,1.2,1.3,1,2.2l-4,24.5c-0.1,0.5-0.3,0.9-0.7,1.3l-24.9,21.4l2,3.1l43.8-31.7c0.4-0.3,0.8-0.4,1.2-0.4
				h55.9c1.2,0,2.1,1,2.1,2.1v9.6h6.2v-97.2L168.6,450L138.8,486.2z"/>
		</g>
	</g>
	<rect x="231.4" y="114.2" class="st7" width="206.5" height="114.4"/>
	<rect x="333.1" y="256.3" class="st8" width="229.5" height="114.4"/>
	<rect x="333.1" y="401.7" class="st9" width="229.5" height="157.7"/>
	<polygon class="st10" points="167.8,241.3 231.4,147 231.4,188.1 	"/>
	<polygon class="st11" points="270.9,330 332.6,280.3 332.6,321.4 	"/>
	<polygon class="st12" points="194.1,477.5 332.6,478.5 332.6,519.6 	"/>
	<circle class="st13" cx="109.5" cy="334.9" r="9.1"/>
	<circle class="st13" cx="216.2" cy="427.5" r="9.1"/>
	<circle class="st13" cx="146.6" cy="451.7" r="9.1"/>
	<g>
		<g>
			<g>
				<g>
					<path class="st14" d="M258.5,159.1c-5.2,2.6-7.8,3.4-8.4,3.4c-1.1,0-1.7-0.9-1.7-1.7c0-0.7,0.4-1.4,1.3-1.7
						c3.4-1.1,6.1-2.1,8.8-3.6v-8.4H251c-1.2,0-1.8-0.9-1.8-1.7c0-0.9,0.6-1.7,1.8-1.7h7.5v-7.8c0-1.1,0.9-1.7,1.8-1.7
						c0.9,0,1.8,0.6,1.8,1.7v28.7c0,1.1-0.9,1.6-1.8,1.6c-0.9,0-1.8-0.5-1.8-1.6V159.1z M277.1,158c0-1.2,0.9-1.7,1.7-1.7
						c0.9,0,2,0.5,2,2c0,7.4-3.9,7.4-7.9,7.4c-3.7,0-6.8-0.5-6.8-4.7c0-1.6,0-23.8,0.1-25c0.1-1,1-1.5,1.8-1.5
						c0.9,0,1.8,0.5,1.8,1.6c0,0.7,0,5.1-0.1,10c2.4-1.2,5.2-2.9,7.1-4.4c0.3-0.2,0.6-0.3,1-0.3c1,0,1.9,1,1.9,2
						c0,0.6-0.3,1.2-1,1.7c-2.4,1.6-6.4,3.5-9,4.5c0,5.2-0.1,10.1-0.1,10.8c0.1,1.4,0.9,1.8,3.4,1.8c3.3,0,4.1-0.4,4.1-4
						C277.1,158.2,277.1,158.1,277.1,158L277.1,158z"/>
				</g>
				<g>
					<path class="st14" d="M300.4,150.9l0,14.1c0,1.2-1,1.8-2,1.8c-1,0-2-0.6-2-1.8l0-14.1l-12,0c-1.1,0-1.7-0.9-1.7-1.7
						c0-0.9,0.6-1.7,1.7-1.7l12,0v-6.8c-2.3,0.3-6.9,0.7-9.6,0.7c-1.3,0-2-0.9-2-1.8c0-0.9,0.6-1.7,1.8-1.7
						c6.4-0.1,13.7-0.9,20.6-2.7c0.2-0.1,0.4-0.1,0.6-0.1c1.2,0,1.8,1,1.8,1.9c0,0.7-0.3,1.4-1.1,1.6c-2.2,0.6-5.1,1.1-8.3,1.6v7.3
						l12.2,0c1,0,1.6,0.9,1.6,1.8c0,0.9-0.5,1.7-1.6,1.7L300.4,150.9z"/>
				</g>
				<g>
					<path class="st14" d="M323.9,148.2c-2.5,3-3.3,3.3-4.1,3.3c-1,0-1.7-0.8-1.7-1.7c0-0.4,0.2-0.9,0.6-1.3
						c3.6-3.2,6.9-7.7,8.8-12.7c0.3-0.8,1-1.2,1.7-1.2c1,0,2,0.8,2,1.9c0,1-2.4,5-3.7,6.9l-0.4,21.8c0,1.1-1,1.7-1.9,1.7
						c-0.9,0-1.8-0.5-1.8-1.6c0,0,0,0,0-0.1L323.9,148.2z M329.8,165.3c-1.3,0-1.8-0.8-1.8-1.6s0.6-1.6,1.8-1.6l8.1,0v-7.8l-5.4,0
						c-1.2,0-1.8-0.8-1.8-1.6c0-0.8,0.6-1.6,1.8-1.6l5.4,0V145l-6.2,0c-1.2,0-1.8-0.8-1.8-1.6c0-0.8,0.6-1.6,1.8-1.6h16.8
						c1.2,0,1.8,0.8,1.8,1.6c0,0.8-0.6,1.6-1.8,1.6l-7,0v6.2l5.6,0c1.2,0,1.8,0.8,1.8,1.6c0,0.8-0.6,1.6-1.8,1.6l-5.6,0v7.8l8.6,0
						c1.1,0,1.7,0.9,1.7,1.7s-0.6,1.6-1.7,1.6H329.8z M340.3,140c-1.3-1.4-3.2-2.3-4.4-2.8c-0.7-0.3-1-0.7-1-1.2
						c0-0.9,0.9-1.8,2-1.8c0.7,0,6.5,1.9,6.5,4.3c0,1.1-0.9,2.1-2,2.1C341.2,140.6,340.7,140.4,340.3,140z"/>
				</g>
				<g>
					<path class="st14" d="M358,166.9c-0.9,0-1.8-0.6-1.8-1.6c0-6.7,0-18.9,0.2-26.7c0.1-3.5,2-3.5,5.4-3.5c0.7,0,1.4,0,2,0
						c2.1,0.1,3.2,1.2,3.2,2.8c0,0.7-0.2,1.8-2.2,6c-0.2,0.4-0.3,0.7-0.3,1c0,0.5,0.2,1,0.6,1.5c1.3,1.6,2,3.2,2,5.7
						c0,3.2-2,5.6-4.7,5.6c-0.6,0-2.6-0.1-2.6-1.8c0-0.8,0.6-1.6,1.3-1.6c0.1,0,0.3,0,0.4,0.1c0.2,0,0.3,0.1,0.5,0.1
						c0.8,0,1.7-0.7,1.7-2.7c0-1.7-0.5-3-1.4-4.3c-0.7-1-1-1.8-1-2.6c0-0.7,0.2-1.3,0.5-2.1c0.8-1.8,1.5-4,1.5-4.3
						c0-0.4-0.2-0.7-1.5-0.7c-1.4,0-2.1,0-2.1,1.3c0,3.4-0.1,7.8-0.1,12.4c0,11.5,0,13.2,0,13.7C359.8,166.3,358.9,166.9,358,166.9z
						 M363.6,165c0-0.7,0.4-1.4,1.4-1.8c5-1.8,6.4-4.7,7-8.6c0.1-1,0.9-1.4,1.6-1.4c0.9,0,1.9,0.7,1.9,1.7c0,0.1,0,0.2,0,0.3
						c-1.7,10-9.6,11.5-10.1,11.5C364.2,166.7,363.6,165.8,363.6,165z M383.5,144.5V143c0-1.3-0.5-1.6-1.7-1.6c-1.5,0-3.3-0.1-5-0.1
						c-1.7,0-3.4,0-4.8,0.1c-1.4,0-1.8,0.4-1.8,1.5v1.6c0,1-0.9,1.6-1.7,1.6c-0.9,0-1.7-0.5-1.7-1.6c0-0.5,0-1.2,0-1.9
						c0-1.7,0.1-4,3.8-4.1c1.3,0,2.7-0.1,4.1-0.1l0-2.6v0c0-1.1,0.9-1.7,1.9-1.7c0.9,0,1.9,0.6,1.9,1.7v0l0,2.6c1.6,0,3.3,0,4.7,0.1
						c2.4,0.1,3.8,1.2,3.8,3.4c0,2.6,0,2.6,0,2.6c-0.1,1-1,1.6-1.8,1.6C384.4,146.1,383.5,145.6,383.5,144.5L383.5,144.5z
						 M384.4,159.6c0-1,0.8-1.5,1.6-1.5c0.6,0,1.9,0.3,1.9,1.8c0,5.3-2,6.3-6,6.3c-3.8,0-4.8-1.6-4.8-4.3c0-1.3,0-6.9,0.1-9.4
						l-8.3,0.1c-1,0-1.5-0.8-1.5-1.6c0-0.7,0.5-1.5,1.5-1.5h16.8c1,0,1.4,0.8,1.4,1.6c0,0.8-0.5,1.5-1.4,1.5h0l-5-0.1
						c0,2.2-0.1,6.5-0.1,8.4c0,1,0.1,1.9,1.5,1.9c2.1,0,2.5-0.6,2.5-2.8C384.4,159.9,384.4,159.7,384.4,159.6L384.4,159.6z
						 M372.5,146.9c-1,0-1.6-0.7-1.6-1.5c0-0.7,0.5-1.5,1.6-1.5h8.9c1,0,1.4,0.7,1.4,1.5c0,0.7-0.5,1.5-1.4,1.5H372.5z"/>
				</g>
			</g>
			<g>
				<g>
					<path class="st14" d="M263.2,200.7v4.8c1.1,0.2,2.2,0.3,3.4,0.3c1.8,0,3.8-0.2,5.5-0.3c0,0,0.1,0,0.1,0c0.8,0,1.3,0.6,1.3,1.2
						s-0.4,1.2-1.3,1.3c-1.6,0.2-3.2,0.3-4.8,0.3c-4.6,0-8.9-1-11.1-5.2c-1.3,3-4,5.6-5.2,5.6c-0.8,0-1.3-0.7-1.3-1.4
						c0-0.4,0.2-0.7,0.6-1c3.2-2.1,4.3-5.1,4.6-8.3c0.1-0.9,0.7-1.2,1.3-1.2c0.6,0,1.3,0.5,1.3,1.2c0,0.1-0.1,0.9-0.2,1.8
						c0.6,2.3,1.8,3.8,3.3,4.6v-9.2c-1.4,0-2.7,0-3.9-0.1c-2-0.1-3-1.2-3-2.8c0-0.5,0-1.1,0-1.6c0-0.8,0-1.5,0-2
						c0-1.3,0.8-2.6,3-2.7c1.6-0.1,3.3-0.1,5.1-0.1c1.8,0,3.6,0,5.4,0.1c1.6,0,2.8,1.2,2.9,2.5c0,0.5,0.1,1,0.1,1.6
						c0,0.8,0,1.5-0.1,2.2c-0.1,1.5-1.2,2.8-3,2.8c-1.2,0.1-2.5,0.1-3.8,0.1v3.1l6.2,0c0.8,0,1.2,0.6,1.2,1.2c0,0.6-0.4,1.2-1.2,1.2
						H263.2z M267.4,190.6c0-1.4-0.1-2.2-1.3-2.2c-1.2,0-2.6-0.1-3.9-0.1c-1.6,0-3.3,0-4.7,0.1c-1.1,0-1.3,0.8-1.3,2.3
						c0,2,0.2,2.3,1.3,2.3c1.3,0,2.8,0.1,4.3,0.1c1.5,0,3.1,0,4.4-0.1C267.3,192.9,267.4,192.1,267.4,190.6z"/>
				</g>
				<g>
					<path class="st14" d="M277.8,207.3c-0.9,0-1.3-0.6-1.3-1.2s0.4-1.2,1.3-1.2h10.8c1.3-3.2,2.8-8.1,3.2-10.6c0.1-0.7,0.7-1,1.3-1
						c0.8,0,1.6,0.5,1.6,1.4c0,1.1-2.5,8-3.5,10.2h7.6c0.8,0,1.2,0.6,1.2,1.3c0,0.6-0.4,1.2-1.2,1.2H277.8z M279.5,192.5
						c-0.8,0-1.2-0.6-1.2-1.2c0-0.6,0.4-1.2,1.2-1.2l7.5,0.1l0-3.6c0-0.8,0.7-1.3,1.4-1.3c0.7,0,1.4,0.4,1.4,1.3l0,3.6l7.3-0.1
						c0.9,0,1.3,0.6,1.3,1.2c0,0.6-0.4,1.2-1.3,1.2H279.5z M284.3,202.4c-0.4-2.2-1.3-4.9-2.3-7c-0.1-0.2-0.1-0.4-0.1-0.6
						c0-0.7,0.7-1.2,1.4-1.2c0.5,0,1,0.2,1.2,0.8c1.2,2.7,2.6,6.9,2.6,7.7c0,1-0.7,1.5-1.5,1.5C285,203.6,284.4,203.3,284.3,202.4z"
						/>
				</g>
				<g>
					<path class="st14" d="M323.8,205c0.8,0,1.2,0.6,1.2,1.2c0,0.6-0.4,1.2-1.2,1.2c-3.2,0.1-6.2,0.1-9.2,0.1c-2.5,0-4.9,0-7.3-0.1
						c-2.3-0.1-3.5-1.2-3.6-3.2c-0.1-2-0.1-4.3-0.1-6.6c0-2.8,0.1-5.7,0.1-8.3c0-1.7,1.4-2.9,3.4-2.9c2.3-0.1,5.1-0.1,7.9-0.1
						c2.8,0,5.6,0,8.2,0.1c0.8,0,1.2,0.6,1.2,1.2c0,0.6-0.4,1.2-1.2,1.2c-3.5,0-7.5-0.1-10.9-0.1c-1.5,0-2.9,0-4,0
						c-1.5,0-1.9,0.5-2,1.8c-0.1,2.2-0.1,4.4-0.1,6.5s0,4.3,0.1,6.3c0.1,1.5,0.6,1.8,2.2,1.8c1.6,0,3.3,0.1,5.2,0.1
						C316.8,205.1,320.2,205.1,323.8,205L323.8,205z M308.9,203.7c-0.8,0-1.4-0.7-1.4-1.3c0-0.4,0.2-0.8,0.7-1
						c2.4-1.1,4.4-2.7,5.9-4.6c-1.5-1-3-1.9-4.5-2.8c-0.5-0.3-0.6-0.6-0.6-1c0-0.6,0.6-1.2,1.3-1.2c0.2,0,0.5,0.1,0.7,0.2
						c1.3,0.7,2.9,1.7,4.6,2.9c0.9-1.5,1.7-3.1,2.3-4.8c0.2-0.5,0.6-0.8,1.1-0.8c0.7,0,1.5,0.6,1.5,1.4c0,0.6-1.4,3.2-2.9,5.5
						c3.4,2.5,4.1,3.3,4.1,4.2c0,0.8-0.7,1.5-1.4,1.5c-0.4,0-0.7-0.2-1.1-0.6c-0.9-1.1-1.9-2.1-3.1-3.1
						C312.8,202.2,309.7,203.7,308.9,203.7z"/>
				</g>
				<g>
					<path class="st14" d="M332.1,208.2c-0.7-1-2.2-2.2-3.3-2.8c-0.5-0.3-0.7-0.7-0.7-1.1c0-0.6,0.5-1.2,1.3-1.2
						c0.9,0,5.3,2.4,5.3,4.2c0,0.9-0.7,1.5-1.5,1.5C332.8,208.8,332.4,208.6,332.1,208.2z"/>
				</g>
				<g>
					<path class="st14" d="M346,207.3c0-0.5,0.3-1,0.8-1.1c3.3-0.5,4.7-2.5,4.7-5.9c0-0.1,0-0.2,0-0.4c0,0,0,0,0-0.1
						c0-0.8,0.6-1.1,1.2-1.1c1.3,0,1.3,1.1,1.3,1.7c0,7.3-6,8.2-6.7,8.2C346.4,208.7,346,208,346,207.3z M362.6,188.7v0.8
						c0,0.7-0.6,1.1-1.3,1.1c-0.6,0-1.2-0.4-1.2-1v-0.9h-4.5v0.8c0,0.7-0.6,1.1-1.3,1.1s-1.2-0.4-1.2-1v-0.9h-5.6
						c-0.7,0-1.1-0.5-1.1-1.1c0-0.5,0.4-1.1,1.1-1.1h5.6v-1c0-0.7,0.6-1.1,1.2-1.1c0.6,0,1.2,0.4,1.2,1.1v1h4.5v-1
						c0-0.7,0.6-1.1,1.3-1.1c0.6,0,1.2,0.4,1.2,1.1v1h5.7c0.7,0,1.1,0.5,1.1,1.1c0,0.5-0.4,1.1-1.1,1.1H362.6z M353.7,193.7
						c0,2.5,0,2.5,4.5,2.5c2.2,0,4.6-0.1,7-0.4c0.1,0,0.1,0,0.2,0c0.8,0,1.1,0.5,1.1,1.1c0,0.5-0.4,1.1-1.1,1.2
						c-1.8,0.2-3.9,0.3-5.9,0.3c-6.2,0-8.2-0.2-8.3-2.8c0-0.4,0-1.2,0-1.9h-2.8c-0.7,0-1.1-0.5-1.1-1.1c0-0.5,0.4-1.1,1.1-1.1l8.3,0
						v-0.9c0-0.8,0.7-1.2,1.3-1.2c0.6,0,1.3,0.4,1.3,1.1c0,0,0,0,0,0.1l0,0.9l8.4,0c0.7,0,1.1,0.5,1.1,1.1c0,0.5-0.4,1.1-1.1,1.1
						H353.7z M356.5,200.1c0-0.7,0.6-1.1,1.2-1.1c0.6,0,1.2,0.4,1.2,1.1l0.1,6.7c0,0.8-0.6,1.1-1.3,1.1c-0.6,0-1.3-0.4-1.3-1.1
						L356.5,200.1z M367,204.1c0-0.7,0.6-1,1.2-1c0.2,0,1.3,0,1.3,1.1c0,3.4-1.7,3.9-4.6,3.9c-2.6,0-3.4-0.9-3.4-2.7
						c0-0.8,0.1-4.8,0.1-5.4c0-0.7,0.6-1.1,1.2-1.1c1.3,0,1.3,1,1.3,1.4c0,1.1-0.1,3.5-0.1,4.5c0,0.5,0,1,1.2,1c1.3,0,1.8,0,1.8-1.5
						C367,204.2,367,204.2,367,204.1L367,204.1z"/>
				</g>
				<g>
					<path class="st14" d="M373.6,208.4c-0.8,0-1.6-0.7-1.6-1.4c0-0.3,0.1-0.5,0.4-0.8c4.1-4.1,4.2-9.3,4.2-14.1
						c0-1.7-0.1-3.8-0.1-5.3c0,0,0-0.1,0-0.1c0-0.7,0.6-1.1,1.3-1.1c0.7,0,1.4,0.4,1.5,1.2c0,0.6,0.1,1.3,0.1,2
						c0,1.8-0.1,3.9-0.1,5.4c0,3.9-0.5,9.5-4.5,13.7C374.3,208.3,373.9,208.4,373.6,208.4z M383.6,187.4c0-0.8,0.6-1.2,1.3-1.2
						s1.3,0.4,1.3,1.2v17.8c0,0.7-0.7,1.1-1.3,1.1c-0.6,0-1.3-0.4-1.3-1.1V187.4z M391.1,186.6c0-0.8,0.7-1.2,1.3-1.2
						c0.7,0,1.4,0.4,1.4,1.2v20.6c0,0.7-0.7,1.1-1.3,1.1s-1.3-0.4-1.3-1.1V186.6z"/>
				</g>
				<g>
					<path class="st14" d="M419.7,205c0.8,0,1.2,0.6,1.2,1.2c0,0.6-0.4,1.2-1.2,1.2c-3.2,0.1-6.2,0.1-9.2,0.1c-2.5,0-4.9,0-7.3-0.1
						c-2.3-0.1-3.5-1.2-3.6-3.2c-0.1-2-0.1-4.3-0.1-6.6c0-2.8,0.1-5.7,0.1-8.3c0-1.7,1.4-2.9,3.4-2.9c2.3-0.1,5.1-0.1,7.9-0.1
						c2.8,0,5.6,0,8.2,0.1c0.8,0,1.2,0.6,1.2,1.2c0,0.6-0.4,1.2-1.2,1.2c-3.5,0-7.5-0.1-10.9-0.1c-1.5,0-2.9,0-4,0
						c-1.5,0-1.9,0.5-2,1.8c-0.1,2.2-0.1,4.4-0.1,6.5s0,4.3,0.1,6.3c0.1,1.5,0.6,1.8,2.2,1.8c1.6,0,3.3,0.1,5.2,0.1
						C412.7,205.1,416.1,205.1,419.7,205L419.7,205z M404.8,203.7c-0.8,0-1.4-0.7-1.4-1.3c0-0.4,0.2-0.8,0.7-1
						c2.4-1.1,4.4-2.7,5.9-4.6c-1.5-1-3-1.9-4.5-2.8c-0.5-0.3-0.6-0.6-0.6-1c0-0.6,0.6-1.2,1.3-1.2c0.2,0,0.5,0.1,0.7,0.2
						c1.3,0.7,2.9,1.7,4.6,2.9c0.9-1.5,1.7-3.1,2.3-4.8c0.2-0.5,0.6-0.8,1.1-0.8c0.7,0,1.5,0.6,1.5,1.4c0,0.6-1.4,3.2-2.9,5.5
						c3.4,2.5,4.1,3.3,4.1,4.2c0,0.8-0.7,1.5-1.4,1.5c-0.4,0-0.7-0.2-1.1-0.6c-0.9-1.1-1.9-2.1-3.1-3.1
						C408.8,202.2,405.6,203.7,404.8,203.7z"/>
				</g>
			</g>
		</g>
	</g>
	<g>
		<g>
			<g>
				<g>
					<path class="st14" d="M357.5,300.6c-1.8,2.2-4.6,5-5.9,5c-0.9,0-1.7-0.7-1.7-1.6c0-0.5,0.3-1,0.9-1.3c2-1.1,4.6-3.4,6.5-5.9
						l-4.8,0.1h0c-1,0-1.5-0.7-1.5-1.4c0-0.7,0.5-1.4,1.5-1.4h0l5.1,0l0-1.6v0c0-1,0.7-1.5,1.5-1.5s1.5,0.5,1.5,1.5v0l0,1.6l4.6,0h0
						c0.9,0,1.4,0.7,1.4,1.5c0,0.7-0.4,1.4-1.4,1.4h0l-4.6-0.1l0,1.4c0.2-0.1,0.5-0.3,0.7-0.3c0.6,0,3.1,1.2,4,2
						c0.4,0.3,0.6,0.8,0.6,1.2c0,0.9-0.7,1.8-1.6,1.8c-0.3,0-0.6-0.1-1-0.4c-0.9-0.8-1.9-1.6-2.7-2l0.1,6.9c0,0.9-0.8,1.4-1.6,1.4
						s-1.6-0.4-1.6-1.4L357.5,300.6z M351.9,290.8c-1,0-1.5-0.7-1.5-1.4c0-0.7,0.5-1.4,1.5-1.4h3.7c-0.2-0.2-0.3-0.4-0.4-0.7
						c-0.4-1.1-0.8-1.8-1.1-2.3c-0.2-0.3-0.3-0.6-0.3-0.8c0-0.7,0.8-1.3,1.6-1.3c1.6,0,2.8,3.1,2.8,3.8c0,0.6-0.3,1-0.7,1.3h1.7
						c0.6-1.1,1.2-2.9,1.6-4.1c0.2-0.8,0.8-1.1,1.4-1.1c0.9,0,1.8,0.7,1.8,1.6c0,0.5-0.6,1.7-1.6,3.6h3.4c1,0,1.5,0.7,1.5,1.4
						c0,0.7-0.5,1.4-1.5,1.4H351.9z M353,282.4c-1.1,0-1.6-0.7-1.6-1.4c0-0.7,0.5-1.4,1.6-1.4h4.4l0-2.1c0-1,0.9-1.6,1.7-1.6
						c0.9,0,1.7,0.5,1.7,1.6v2.1h4.2c1,0,1.5,0.7,1.5,1.4c0,0.7-0.5,1.4-1.5,1.4H353z M375.1,290.3h-3.7c-0.1,6-0.9,12.4-4.1,16.9
						c-0.5,0.7-1.1,1-1.8,1c-1,0-1.9-0.7-1.9-1.6c0-0.3,0.1-0.7,0.4-1c3.5-4.1,4.2-10,4.2-15.7c0-1.9-0.1-3.7-0.1-5.4
						c0-0.1,0-0.3,0-0.4c0-2.5,0.9-3.6,3.4-4.3c1.4-0.4,5-1.9,6.4-2.6c0.3-0.1,0.6-0.2,0.9-0.2c1.1,0,1.9,0.9,1.9,1.9
						c0,0.6-0.3,1.3-1.2,1.6c-1.2,0.6-5.4,1.9-6.4,2.2c-1.2,0.4-1.6,1-1.6,2.1v2.5l10.6-0.1c1.2,0,1.8,0.8,1.8,1.6
						c0,0.8-0.6,1.6-1.8,1.6h-3.5l0,16.9c0,1-0.9,1.6-1.7,1.6c-0.9,0-1.7-0.5-1.7-1.6L375.1,290.3z"/>
				</g>
				<g>
					<path class="st14" d="M386.4,299.7c-1.1,0-2-0.9-2-1.9c0-0.5,0.2-1,0.7-1.5c2.3-2.2,4.6-6,5.8-9c0.3-0.8,1-1.2,1.7-1.2
						c1,0,2,0.7,2,1.8c0,1.6-3.7,8-6.5,10.9C387.6,299.5,387,299.7,386.4,299.7z M403.1,302.8C403.1,302.8,403.1,302.8,403.1,302.8
						c0,2.4-1.7,5.6-6.9,5.6c-3,0-5-0.6-5-2.4c0-1,0.7-1.9,1.8-1.9c0.1,0,0.3,0,0.5,0c0.9,0.2,1.7,0.3,2.6,0.3c1.7,0,3-0.6,3-2.5
						v-22.8c0-1.3,1-1.9,2-1.9c1,0,1.9,0.6,1.9,1.9v19.2L403.1,302.8z M413.3,297c-1.4-2.8-3.8-6-6.1-8.1c-0.4-0.4-0.6-0.9-0.6-1.3
						c0-0.9,0.9-1.6,1.8-1.6c0.4,0,1,0.2,1.4,0.6c2.7,2.2,7.4,7.5,7.4,9.5c0,1.2-1,2.1-2.1,2.1C414.5,298.3,413.8,297.9,413.3,297z"
						/>
				</g>
				<g>
					<path class="st14" d="M434.4,291.9c-1,1.5-2.1,2.9-3.3,4.3c0.2,0,0.4,0,0.6,0c1.5,0,3.3-0.1,5.1-0.1c2.3,0,4.7,0,7,0.1
						c2.2,0,3.8,1.6,3.8,3.2c0,0.7,0.1,1.6,0.1,2.4c0,0.9,0,1.7-0.1,2.6c-0.1,1.9-1.6,3.6-4,3.6c-2.1,0.1-4.1,0.1-6.1,0.1
						c-1.9,0-3.8,0-5.8-0.1c-2.6-0.1-4-1.6-4.1-3.6c0-0.6,0-1.1,0-1.6c0-1.1,0-2.2,0.1-3.1v0c-1.4,1.3-3,2.5-4.8,3.7
						c-0.4,0.3-0.9,0.4-1.3,0.4c-1,0-1.8-0.9-1.8-1.8c0-0.6,0.3-1.1,1-1.6c4.2-2.4,7.3-4.8,10-8.4l-8.9,0.1c-1.1,0-1.7-0.8-1.7-1.6
						c0-0.8,0.6-1.6,1.7-1.6h27.9c1.1,0,1.7,0.8,1.7,1.6c0,0.8-0.6,1.6-1.7,1.6L434.4,291.9z M444.4,279.4
						C444.4,279.3,444.4,279.3,444.4,279.4c0-1.1,0.9-1.7,1.7-1.7c0.9,0,1.9,0.6,1.9,1.7c0,0.3,0,1,0,1.7c0,0.7,0,1.4,0,1.8
						c0,2.1-1.7,3.1-4.4,3.1c-2.6,0-5.4,0-8.3,0c-2.8,0-5.5,0-7.9,0c-3.8,0-4-1.7-4-4.8c0-0.7,0-1.4,0-1.8c0-1.1,1-1.7,1.9-1.7
						c0.9,0,1.8,0.6,1.8,1.6c0,0,0,0,0,0.1v2.6c0,0.8,0.1,1.2,1.3,1.2c1.5,0,3.4,0,5.4,0v-5.1c0-1.2,0.9-1.8,1.9-1.8
						c0.9,0,1.9,0.6,1.9,1.8v5.1c1.9,0,3.7,0,5.4-0.1c1.1,0,1.3-0.4,1.4-1.2V279.4z M431,302.3c0,0.4,0,0.8,0,1.2
						c0.1,1.5,0.6,1.5,6.4,1.5c1.7,0,3.4,0,5-0.1c1.3,0,1.6-0.5,1.6-2.8c0-0.6,0-1.1,0-1.7c-0.1-1.4-0.7-1.4-6-1.4
						c-1.8,0-3.7,0-5.4,0.1C431.1,299.1,431,300.3,431,302.3z"/>
				</g>
				<g>
					<path class="st14" d="M458,309c-0.9,0-1.8-0.6-1.8-1.6c0-6.7,0-18.9,0.2-26.7c0.1-3.5,2-3.5,5.4-3.5c0.7,0,1.4,0,2,0
						c2.1,0.1,3.2,1.2,3.2,2.8c0,0.7-0.2,1.8-2.2,6c-0.2,0.4-0.3,0.7-0.3,1c0,0.5,0.2,1,0.6,1.5c1.3,1.6,2,3.2,2,5.7
						c0,3.2-2,5.6-4.7,5.6c-0.6,0-2.6-0.1-2.6-1.8c0-0.8,0.6-1.6,1.3-1.6c0.1,0,0.3,0,0.4,0.1c0.2,0,0.3,0.1,0.5,0.1
						c0.8,0,1.7-0.7,1.7-2.7c0-1.7-0.5-3-1.4-4.3c-0.7-1-1-1.8-1-2.6c0-0.7,0.2-1.3,0.5-2.1c0.8-1.8,1.5-4,1.5-4.3
						c0-0.4-0.2-0.7-1.5-0.7c-1.4,0-2.1,0-2.1,1.3c0,3.4-0.1,7.8-0.1,12.4c0,11.5,0,13.2,0,13.7C459.7,308.5,458.8,309,458,309z
						 M463.5,307.1c0-0.7,0.4-1.4,1.4-1.8c5-1.8,6.4-4.7,7-8.6c0.1-1,0.9-1.4,1.6-1.4c0.9,0,1.9,0.7,1.9,1.7c0,0.1,0,0.2,0,0.3
						c-1.7,10-9.6,11.5-10.1,11.5C464.2,308.8,463.5,308,463.5,307.1z M483.5,286.7v-1.5c0-1.3-0.5-1.6-1.7-1.6
						c-1.5,0-3.3-0.1-5-0.1c-1.7,0-3.4,0-4.8,0.1c-1.4,0-1.8,0.4-1.8,1.5v1.6c0,1-0.9,1.6-1.7,1.6c-0.9,0-1.7-0.5-1.7-1.6
						c0-0.5,0-1.2,0-1.8c0-1.7,0.1-4,3.8-4.1c1.3,0,2.7-0.1,4.1-0.1l0-2.6v0c0-1.1,0.9-1.7,1.9-1.7c0.9,0,1.9,0.6,1.9,1.7v0l0,2.6
						c1.6,0,3.3,0,4.7,0.1c2.4,0.1,3.8,1.2,3.8,3.4c0,2.6,0,2.6,0,2.6c-0.1,1-1,1.6-1.8,1.6C484.3,288.2,483.5,287.7,483.5,286.7
						L483.5,286.7z M484.3,301.7c0-1,0.8-1.5,1.6-1.5c0.6,0,1.9,0.3,1.9,1.8c0,5.3-2,6.3-6,6.3c-3.8,0-4.8-1.6-4.8-4.3
						c0-1.3,0-6.9,0.1-9.4l-8.3,0.1c-1,0-1.5-0.8-1.5-1.6c0-0.7,0.5-1.5,1.5-1.5h16.8c1,0,1.4,0.8,1.4,1.6s-0.5,1.5-1.4,1.5h0
						l-5-0.1c0,2.2-0.1,6.5-0.1,8.4c0,1,0.1,1.9,1.5,1.9c2.1,0,2.5-0.6,2.5-2.8C484.3,302,484.3,301.8,484.3,301.7L484.3,301.7z
						 M472.5,289.1c-1,0-1.6-0.7-1.6-1.5c0-0.7,0.5-1.5,1.6-1.5h8.9c1,0,1.4,0.7,1.4,1.5c0,0.7-0.5,1.5-1.4,1.5H472.5z"/>
				</g>
			</g>
			<g>
				<g>
					<path class="st14" d="M358.4,339.1c-2.8-0.1-2.8-1.4-2.8-3.7c0-2.1,0-3.5,2.7-3.6c1.3-0.1,3.1-0.1,4.9-0.1c1.8,0,3.7,0,5.3,0.1
						c2.6,0.1,2.6,1.9,2.6,3.4c0,2.1,0,3.8-2.7,3.9c-1.6,0.1-3.4,0.1-5.2,0.1c-0.6,0-1.2,0-1.8,0c-0.4,0.5-0.9,1-1.3,1.4
						c2.7,0,6.3,0,9,0c0.7,0,1.3,0,1.8,0c2,0,2.9,1.1,2.9,2.6c0,0.2,0,0.5-0.1,0.7c-0.4,2.3-1.2,7-6.9,7c-0.8,0-1.8-0.1-2.8-0.3
						c-0.5-0.1-0.8-0.6-0.8-1.1c0-0.3,0.1-0.6,0.3-0.8c-0.6,0.1-1.3,0.1-1.9,0.1c-3.4,0-5.1-0.3-5.1-2.3c0,0,0.1-2.2,0.1-2.6
						c0-0.2,0.1-0.3,0.1-0.5c-0.8,0.6-3,2-3.8,2c-0.7,0-1.2-0.5-1.2-1.1c0-0.4,0.2-0.8,0.8-1.1c2.2-0.9,4.1-2,6.2-4.1L358.4,339.1z
						 M367.7,330.3v0.2c0,0.6-0.6,1-1.2,1s-1.2-0.3-1.2-1v-0.2h-3.6v0.2c0,0.6-0.6,1-1.2,1c-0.6,0-1.2-0.3-1.2-1v-0.2l-5.6,0
						c-0.8,0-1.1-0.5-1.1-1.1c0-0.5,0.4-1.1,1.1-1.1l5.6,0v-0.7c0-0.6,0.6-0.9,1.2-0.9c0.6,0,1.2,0.3,1.2,0.9v0.7h3.6v-0.7
						c0-0.6,0.6-0.9,1.2-0.9s1.2,0.3,1.2,0.9v0.7l5.9,0c0.7,0,1.1,0.5,1.1,1.1c0,0.5-0.4,1.1-1.1,1.1L367.7,330.3z M358.8,346v0.3
						c0,0.6,0.4,0.8,2.7,0.8c3.4,0,3.8-0.4,3.8-1.1c0-0.6,0.5-0.9,1.1-0.9c0.6,0,1.2,0.3,1.2,0.9c0,0,0,0.1,0,0.1
						c0,1.6-0.9,2.3-2.8,2.6c0.8,0.2,1.4,0.2,2,0.2c3.7,0,4.2-4.8,4.2-5.2c0-0.8-0.4-1.1-1-1.1c-2,0-5.4,0.1-8.5,0.1
						c-1.4,0-2.7,0-3.7,0c-0.2,0.1-0.4,0.3-0.5,0.4c0.1,0,0.3-0.1,0.4-0.1c0.6,0,1.1,0.3,1.1,0.9v0v0.5c1.6-0.3,4.6-0.9,5.9-1.3
						c0.1-0.1,0.3-0.1,0.4-0.1c0.6,0,1.1,0.5,1.1,1c0,0.4-0.2,0.7-0.8,0.9C364,345.3,360.3,345.9,358.8,346L358.8,346z M368.6,334.3
						c-0.1-0.9-0.4-0.9-5.1-0.9c-4.9,0-5.4,0-5.5,1l0,0.3h10.6V334.3z M368.6,336.2H358c0,0.2,0,0.3,0,0.5c0.1,0.6,0.4,0.8,1.2,0.8
						c1.3,0,2.9,0,4.6,0c1.2,0,2.5,0,3.6,0c0.6,0,1.1-0.2,1.2-0.8V336.2z"/>
				</g>
				<g>
					<path class="st14" d="M384.2,333.9c0.2,0,0.5,0,0.6,0c1.2,0.1,2.4,0.7,2.4,2.2c0,1.1,0.1,2.2,0.1,3.3c0,3.3-0.1,4.2-4.4,4.2
						c-0.7,0-1.3,0-1.8-0.1c0,0.3,0,2.1,0,3.5c1.1-0.3,2.3-0.6,3.1-0.9c-0.6-0.8-0.6-1-0.6-1.1c0-0.6,0.6-1,1.2-1
						c0.3,0,0.6,0.1,0.9,0.3c0.6,0.6,2.6,2.8,2.6,3.9c0,0.8-0.6,1.3-1.3,1.3c-0.4,0-0.8-0.2-1.1-0.8c-0.1-0.3-0.3-0.6-0.5-0.9
						c-2.9,1.1-7.3,2.5-7.8,2.5c-0.7,0-1.1-0.7-1.1-1.3c0-0.8,0.4-0.9,2.3-1.4c0-0.6,0-1.3,0-2.2c0-3.5,0-8.5,0.1-9.5
						c0-1,0.6-2.2,2.9-2.2v-1.4c0-0.6,0.6-1,1.2-1c0.6,0,1.2,0.3,1.2,1V333.9z M386.6,333.5c-0.3,0-0.6-0.1-0.9-0.4
						c-0.9-1-1.5-2.1-2.3-3.2c-0.1-0.1-0.2-0.1-0.3-0.1s-0.2,0.1-0.3,0.2c-0.9,1.5-2.3,3.2-3.6,4.5c-0.3,0.3-0.6,0.4-1,0.4
						c-0.8,0-1.4-0.6-1.4-1.2c0-0.3,0.1-0.6,0.4-0.9c1.3-1.2,2.9-3.2,3.5-4.1c0.5-0.9,1.3-1.3,2.2-1.3s1.7,0.4,2.4,1.3
						c0.6,0.8,1.5,2,2.4,2.9c0.2,0.2,0.3,0.5,0.3,0.7C388,332.8,387.3,333.5,386.6,333.5z M381.1,339.6c0,0.9,0,1.6,0,2.1
						c0.3,0,1,0,1.6,0c0.6,0,1.3,0,1.5,0c0.8-0.1,0.8-0.6,0.8-2.1H381.1z M385.1,337.7c0-0.4,0-0.8,0-1.2c0-0.6-0.1-0.8-1.9-0.8
						c-1.7,0-1.9,0.2-1.9,0.8v1.1H385.1z M393,337.7l-1.1,0c-0.5,0-0.8,0.3-0.8,0.9c0,0.9,0,2.5,0,4.2s0,3.3,0,4.3v0
						c0,0.7-0.6,1.1-1.2,1.1c-0.6,0-1.2-0.4-1.2-1.1c0-1,0-2.6,0-4.3c0-1.7,0-3.5,0-4.6c0-2.6,1.8-2.6,4.2-2.6v-2.8h-1.9
						c-1.1,1.9-1.6,2.7-2.5,2.7c-0.6,0-1.2-0.5-1.2-1.1c0-0.2,0.1-0.5,0.3-0.8c1.4-1.8,2.3-3.8,3-5.8c0.2-0.5,0.6-0.8,1.1-0.8
						c0.6,0,1.3,0.4,1.3,1.1c0,0.3-0.1,0.8-0.8,2.3l7.2-0.1h0c0.8,0,1.1,0.6,1.1,1.2s-0.4,1.2-1.2,1.2h-4v2.8c0.6,0,1.3,0,1.9,0
						c1.6,0.1,2.5,0.9,2.6,2.7v5.2c0,0.4,0.1,0.9,0.1,1.7c0,0.1,0,0.1,0,0.1c0,1.6-0.9,2.7-2.5,2.7c-1.7,0-1.8-0.8-1.8-1.3
						c0-0.5,0.3-1.1,0.8-1.1c0.1,0,0.1,0,0.2,0c0.2,0,0.3,0.1,0.5,0.1c0.4,0,0.5-0.3,0.5-1c0,0,0-1.2,0-2.5s0-2.8,0-3.5
						c-0.1-0.9-0.6-0.9-2.1-0.9l0,12c0,0.8-0.6,1.3-1.2,1.3c-0.6,0-1.2-0.4-1.2-1.3V337.7z"/>
				</g>
				<g>
					<path class="st14" d="M424.6,347.1c0.8,0,1.2,0.6,1.2,1.2c0,0.6-0.4,1.2-1.2,1.2c-3.2,0.1-6.2,0.1-9.2,0.1
						c-2.5,0-4.9,0-7.3-0.1c-2.3-0.1-3.5-1.2-3.6-3.2c-0.1-2-0.1-4.3-0.1-6.6c0-2.8,0.1-5.7,0.1-8.3c0-1.7,1.4-2.9,3.4-2.9
						c2.3-0.1,5.1-0.1,7.9-0.1c2.8,0,5.6,0,8.2,0.1c0.8,0,1.2,0.6,1.2,1.2c0,0.6-0.4,1.2-1.2,1.2c-3.5,0-7.5-0.1-10.9-0.1
						c-1.5,0-2.9,0-4,0c-1.5,0-1.9,0.5-2,1.8c-0.1,2.2-0.1,4.4-0.1,6.5c0,2.2,0,4.3,0.1,6.3c0.1,1.5,0.6,1.8,2.2,1.8
						c1.6,0,3.3,0.1,5.2,0.1C417.6,347.3,421,347.2,424.6,347.1L424.6,347.1z M409.7,345.8c-0.8,0-1.4-0.7-1.4-1.3
						c0-0.4,0.2-0.8,0.7-1c2.4-1.1,4.4-2.7,5.9-4.6c-1.5-1-3-1.9-4.5-2.8c-0.5-0.3-0.6-0.6-0.6-1c0-0.6,0.6-1.2,1.3-1.2
						c0.2,0,0.5,0.1,0.7,0.2c1.3,0.7,2.9,1.7,4.6,2.9c0.9-1.5,1.7-3.1,2.3-4.8c0.2-0.5,0.6-0.8,1.1-0.8c0.7,0,1.5,0.6,1.5,1.4
						c0,0.6-1.4,3.2-2.9,5.5c3.4,2.5,4.1,3.3,4.1,4.2c0,0.8-0.7,1.5-1.4,1.5c-0.4,0-0.7-0.2-1.1-0.6c-0.9-1.1-1.9-2.1-3.1-3.1
						C413.6,344.4,410.5,345.8,409.7,345.8z"/>
				</g>
				<g>
					<path class="st14" d="M432.9,350.3c-0.7-1-2.2-2.2-3.3-2.8c-0.5-0.3-0.7-0.7-0.7-1.1c0-0.6,0.5-1.2,1.3-1.2
						c0.9,0,5.3,2.4,5.3,4.2c0,0.9-0.7,1.5-1.5,1.5C433.6,350.9,433.2,350.7,432.9,350.3z"/>
				</g>
				<g>
					<path class="st14" d="M450.6,338.3c-1.2-0.9-2.5-1.5-3.5-1.8c-0.5-0.2-0.7-0.5-0.7-0.9c0-0.6,0.6-1.3,1.3-1.3
						c0.8,0,2.9,0.6,4.3,1.7c0.4,0.3,0.6,0.7,0.6,1.1c0,0.8-0.6,1.5-1.3,1.5C451.1,338.6,450.9,338.5,450.6,338.3z M448.5,350.2
						c-0.8,0-1.4-0.6-1.4-1.4c0-0.3,0.1-0.6,0.4-0.9c1.7-1.8,3-4.3,4-6.6c0.2-0.5,0.7-0.7,1.1-0.7c0.7,0,1.3,0.5,1.3,1.3
						c0,0.8-2.1,5.3-4.2,7.7C449.4,350,448.9,350.2,448.5,350.2z M451.7,332.6c-1.1-1.3-2.3-1.9-3.2-2.5c-0.4-0.2-0.6-0.5-0.6-0.8
						c0-0.6,0.7-1.3,1.5-1.3c0.7,0,4.7,2,4.7,3.5c0,0.8-0.7,1.5-1.4,1.5C452.3,333.1,452,332.9,451.7,332.6z M454.6,349.2
						c-0.8,0-1.2-0.6-1.2-1.2c0-0.6,0.4-1.2,1.2-1.2l5.8,0v-14.7l-4.3,0c-0.8,0-1.2-0.6-1.2-1.2s0.4-1.2,1.2-1.2h12.1
						c0.9,0,1.3,0.6,1.3,1.2s-0.4,1.2-1.3,1.2l-5,0v14.7l6.1,0c0.9,0,1.3,0.6,1.3,1.2c0,0.6-0.4,1.2-1.3,1.2H454.6z"/>
				</g>
				<g>
					<path class="st14" d="M475.9,349.7c-0.4,0.5-0.8,0.6-1.3,0.6c-0.8,0-1.5-0.6-1.5-1.3c0-0.3,0.1-0.6,0.4-0.9
						c2.7-3.1,3.1-6.4,3.1-11c0-0.6,0-1.2,0-1.8c0,0,0-0.1,0-0.1c0-1.4,0.8-2.5,2.9-2.6c1.9-0.1,3.8-0.1,5.7-0.1
						c1.9,0,3.9,0,5.9,0.1c3.3,0.1,3.3,1.8,3.3,4.2c0,2.2-0.1,4.1-3.3,4.2c-2.2,0.1-4.3,0.1-6.6,0.1c-1.6,0-3.4,0-5.4,0
						C478.7,344.5,477.8,347.4,475.9,349.7z M475.7,330.4c-0.8,0-1.2-0.6-1.2-1.2c0-0.6,0.4-1.2,1.2-1.2h19.5c0.7,0,1.1,0.6,1.1,1.2
						c0,0.6-0.4,1.2-1.1,1.2H475.7z M483.6,338.8c2.6,0,4.9,0,7.1-0.1c0.9,0,1.1-0.6,1.1-1.7c0-1.2-0.1-1.8-1.2-1.9
						c-1.5-0.1-3-0.1-4.4-0.1c-1.9,0-3.7,0-5.7,0.1c-0.8,0-1.2,0.4-1.2,1.1c0,0.9,0,1.7-0.1,2.5
						C480.9,338.8,482.3,338.8,483.6,338.8z"/>
				</g>
				<g>
					<path class="st14" d="M498.3,350.5c-0.8,0-1.6-0.7-1.6-1.4c0-0.3,0.1-0.5,0.4-0.8c4.1-4.1,4.2-9.3,4.2-14.1
						c0-1.7-0.1-3.8-0.1-5.3c0,0,0-0.1,0-0.1c0-0.7,0.6-1.1,1.3-1.1c0.7,0,1.4,0.4,1.5,1.2c0,0.6,0.1,1.3,0.1,2
						c0,1.8-0.1,3.9-0.1,5.4c0,3.9-0.5,9.5-4.5,13.7C499,350.4,498.7,350.5,498.3,350.5z M508.4,329.5c0-0.8,0.6-1.2,1.3-1.2
						s1.3,0.4,1.3,1.2v17.8c0,0.7-0.7,1.1-1.3,1.1c-0.6,0-1.3-0.4-1.3-1.1V329.5z M515.9,328.7c0-0.8,0.7-1.2,1.3-1.2
						c0.7,0,1.4,0.4,1.4,1.2v20.6c0,0.7-0.7,1.1-1.3,1.1s-1.3-0.4-1.3-1.1V328.7z"/>
				</g>
				<g>
					<path class="st14" d="M544.4,347.1c0.8,0,1.2,0.6,1.2,1.2c0,0.6-0.4,1.2-1.2,1.2c-3.2,0.1-6.2,0.1-9.2,0.1
						c-2.5,0-4.9,0-7.3-0.1c-2.3-0.1-3.5-1.2-3.6-3.2c-0.1-2-0.1-4.3-0.1-6.6c0-2.8,0.1-5.7,0.1-8.3c0-1.7,1.4-2.9,3.4-2.9
						c2.3-0.1,5.1-0.1,7.9-0.1c2.8,0,5.6,0,8.2,0.1c0.8,0,1.2,0.6,1.2,1.2c0,0.6-0.4,1.2-1.2,1.2c-3.5,0-7.5-0.1-10.9-0.1
						c-1.5,0-2.9,0-4,0c-1.5,0-1.9,0.5-2,1.8c-0.1,2.2-0.1,4.4-0.1,6.5c0,2.2,0,4.3,0.1,6.3c0.1,1.5,0.6,1.8,2.2,1.8
						c1.6,0,3.3,0.1,5.2,0.1C537.4,347.3,540.8,347.2,544.4,347.1L544.4,347.1z M529.5,345.8c-0.8,0-1.4-0.7-1.4-1.3
						c0-0.4,0.2-0.8,0.7-1c2.4-1.1,4.4-2.7,5.9-4.6c-1.5-1-3-1.9-4.5-2.8c-0.5-0.3-0.6-0.6-0.6-1c0-0.6,0.6-1.2,1.3-1.2
						c0.2,0,0.5,0.1,0.7,0.2c1.3,0.7,2.9,1.7,4.6,2.9c0.9-1.5,1.7-3.1,2.3-4.8c0.2-0.5,0.6-0.8,1.1-0.8c0.7,0,1.5,0.6,1.5,1.4
						c0,0.6-1.4,3.2-2.9,5.5c3.4,2.5,4.1,3.3,4.1,4.2c0,0.8-0.7,1.5-1.4,1.5c-0.4,0-0.7-0.2-1.1-0.6c-0.9-1.1-1.9-2.1-3.1-3.1
						C533.5,344.4,530.4,345.8,529.5,345.8z"/>
				</g>
			</g>
		</g>
	</g>
	<g>
		<g>
			<g>
				<g>
					<path class="st14" d="M356.2,438.7h-3.9c-1,0-1.5-0.7-1.5-1.4c0-0.7,0.5-1.4,1.5-1.4h3.9v-2.6h-1.4c-0.6,0-1-0.3-1.2-0.6
						c-0.8,1.2-1.5,1.3-1.8,1.3c-0.9,0-1.8-0.7-1.8-1.6c0-0.3,0.1-0.7,0.5-1.1c1.6-1.8,3.4-4.6,4.6-7c0.6-1.3,1.6-2,2.7-2
						c1,0,2.1,0.6,2.9,2c0.8,1.4,2.6,3.8,3.7,5.1c0.3,0.3,0.4,0.6,0.4,1c0,0.9-0.8,1.7-1.7,1.7c-0.3,0-0.5-0.1-0.7-0.2
						c0,0,0,0,0,0.1c0,0.7-0.5,1.4-1.4,1.4h-1.5v2.6h3.3c0.9,0,1.4,0.7,1.4,1.4c0,0.7-0.5,1.4-1.4,1.4h-3.3v8.6
						c1.1-0.4,2.1-0.9,3-1.3c0.2-0.1,0.4-0.1,0.6-0.1c0.8,0,1.4,0.7,1.4,1.6c0,0.5-0.3,1-0.9,1.4c-4.1,2.1-10.4,3.8-11.5,3.8
						c-1.1,0-1.7-0.8-1.7-1.7c0-0.7,0.4-1.4,1.3-1.6c1.6-0.3,3.2-0.7,4.7-1.1V438.7z M352.7,446c-0.3-1.4-1.1-3.1-1.5-3.9
						c-0.1-0.2-0.2-0.5-0.2-0.7c0-0.7,0.8-1.3,1.6-1.3c0.4,0,0.8,0.1,1.1,0.4c1.3,1.5,2,4.3,2,4.7c0,1.1-0.9,1.8-1.7,1.8
						C353.4,447.1,352.9,446.8,352.7,446z M361.1,430.3c-1-1.5-2.3-3.4-2.8-4.3c-0.1-0.1-0.2-0.2-0.3-0.2c-0.1,0-0.2,0-0.3,0.2
						c-0.7,1.4-1.6,3-2.5,4.3H361.1z M360.9,445.4c-0.6,0-1.3-0.4-1.3-1.1c0-0.2,0.1-0.5,0.2-0.7c0.4-0.7,0.9-2,1-2.8
						c0.1-0.7,0.6-1,1.1-1c0.7,0,1.5,0.6,1.5,1.4c0,1-1.3,3.4-1.5,3.7C361.8,445.2,361.4,445.4,360.9,445.4z M371.5,442.2
						c-0.8,0-1.5,0-2.2,0c-1.2,0-1.2,0.5-1.2,4.7c0,1.3,0,2.6,0,4v0c0,1-0.8,1.5-1.7,1.5c-0.9,0-1.7-0.5-1.7-1.5v0
						c0-2.6,0-5.5,0.1-8s1.3-3.5,3.7-3.6c0.9,0,1.9,0,2.9,0v-1.4c0-0.3,0.1-0.6,0.2-0.9c-2.4,0-6.1,0-6.2-3.3c0-0.7,0-1.5,0-2.3
						c0-1.3,0-2.6,0.1-3.8c0.1-1.6,1.3-3.1,3.8-3.1l1.6,0c0.2-0.8,0.4-1.7,0.4-2.3c0.1-0.8,0.8-1.1,1.6-1.1c0.9,0,1.9,0.6,1.9,1.6
						c0,0.1,0,0.2,0,0.3c-0.1,0.5-0.3,1-0.4,1.6c1,0,2.1,0,3.2,0.1c1.8,0.1,3.5,1.5,3.6,2.9c0.1,1.1,0.1,2.3,0.1,3.4
						c0,1,0,1.9,0,2.8c-0.1,1.8-1.6,3.2-3.7,3.3c-0.9,0-1.8,0.1-2.7,0.1c0.1,0.3,0.2,0.6,0.2,0.9v1.3c1.2,0,2.4,0,3.4,0.1
						c2.2,0.1,3.6,1.3,3.7,3.6c0,2.2,0,1.9,0,3.2c0,0.6,0,0.7,0.1,2c0,0.1,0,0.1,0,0.2c0,2.3-1.3,3.7-3.7,3.7c-1,0-2.7,0-2.7-1.7
						c0-0.8,0.4-1.5,1.1-1.5c0,0,0.1,0,0.1,0c0.3,0,0.5,0.1,0.7,0.1c0.6,0,1-0.2,1-1.4c0,0,0-0.1,0-0.1c0,0,0-2.6-0.1-3.9
						c-0.1-1.3-0.6-1.4-3.8-1.4v10.7c0,1.1-0.9,1.7-1.7,1.7c-0.9,0-1.7-0.6-1.7-1.7L371.5,442.2z M377.9,429.4c0-0.3,0-0.6,0-0.9
						c-0.1-1.4-1-1.4-4.7-1.4c-3.6,0-4.5,0-4.6,1.4c0,0.3,0,0.6,0,0.9H377.9z M368.6,431.9c0,2.3,0,2.4,4.7,2.4c3,0,4.5,0,4.6-1.3
						c0-0.3,0-0.7,0-1.1H368.6z"/>
				</g>
				<g>
					<path class="st14" d="M388.5,452.6c-1.1,0-2-1-2-1.9c0-0.6,0.4-1.3,1.2-1.6c2.7-1.1,5-3.1,6.6-5.6c0.4-0.5,0.9-0.7,1.3-0.7
						c1,0,2,0.9,2,1.9C397.6,446.7,390.4,452.6,388.5,452.6z M400.3,440.9c-1.7,0.2-8.2,0.9-11,0.9c-1.1,0-1.8-0.9-1.8-1.7
						c0-0.8,0.6-1.6,1.7-1.6c1.8,0,3.6-0.1,5.6-0.3c0-0.1,0.1-0.1,0.2-0.2c0.9-0.6,1.9-1.4,2.8-2.2c-1.8-1.6-4-2.9-6-4
						c-0.6-0.3-0.9-0.9-0.9-1.4c0-0.9,0.7-1.7,1.7-1.7c0.1,0,0.8,0,2,0.7c1.4-1.3,3.6-4.4,4.7-6.7c0.3-0.6,0.9-0.9,1.5-0.9
						c1,0,2.1,0.7,2.1,1.7c0,1.2-3.6,5.7-5.6,7.5c1.1,0.7,2.1,1.4,3,2.3c2.2-2.1,4.2-4.6,5.5-6.6c0.4-0.6,1-0.8,1.6-0.8
						c1,0,2,0.7,2,1.7c0,2.3-9,9.7-9.5,10.1c3.1-0.3,6.3-0.6,9.2-1c-0.4-0.4-0.9-0.7-1.4-1c-0.6-0.4-0.8-0.9-0.8-1.3
						c0-0.8,0.7-1.5,1.7-1.5c1.8,0,7.9,5.3,7.9,7.5c0,1.1-1,2-1.9,2c-0.5,0-1-0.3-1.4-0.9c-0.4-0.9-1-1.6-1.6-2.4
						c-2.3,0.4-5,0.9-7.9,1.3l0,12.3c0,1-0.9,1.5-1.8,1.5c-0.9,0-1.8-0.5-1.8-1.5L400.3,440.9z M413.1,451c-1.5-2.1-3.9-3.8-6.5-5.1
						c-0.7-0.3-1-0.9-1-1.4c0-0.9,0.8-1.8,1.8-1.8c1.2,0,6.2,2.9,8.6,5.5c0.4,0.5,0.6,1,0.6,1.6c0,1.1-1,2.1-2,2.1
						C414.1,451.9,413.5,451.6,413.1,451z"/>
				</g>
				<g>
					<path class="st14" d="M444,429.6h-6.2c0,1.5,0,3.3,0,5.1c0,3.3,0,6.5-0.1,8.4c-0.1,2-1.6,3.7-3.8,3.8c-1.3,0.1-2.7,0.1-4.1,0.1
						c-1.3,0-2.7-0.1-4-0.1c-2.5-0.2-3.7-1.7-3.8-3.8c0-1.9-0.1-5.1-0.1-8.2c0-3.1,0-6.3,0.1-8.2c0-1.7,1.1-3.5,3.8-3.6
						c1.3-0.1,2.7-0.1,4-0.1s2.7,0,4,0.1c2.3,0.1,3.7,1.5,3.8,3.3h14c1.2,0,1.8,0.8,1.8,1.6s-0.6,1.6-1.8,1.6h-4.1v13.8l0.1,5.4
						c0,0,0,0,0,0.1c0,2.3-1.7,5.1-6.3,5.1c-4.4,0-4.8-1.4-4.8-2.2c0-0.9,0.7-1.8,1.7-1.8c0.2,0,0.4,0,0.6,0.1
						c0.8,0.2,1.7,0.4,2.4,0.4c1.5,0,2.7-0.6,2.7-2.3V429.6z M428.2,425.9c-2.1,0-2.9,0.1-3,1.6c0,1.2-0.1,3.2-0.1,5.3h3.1V425.9z
						 M428.2,435.7h-3.1c0,2.7,0,5.3,0.1,6.8c0,1,0.6,1.4,1.6,1.5c0.4,0,0.9,0,1.4,0V435.7z M434.6,432.8c0-2.1,0-4.1,0-5.3
						c0-1.5-0.6-1.6-3.1-1.6v6.9H434.6z M431.5,435.7v8.4c1.9,0,3.1-0.1,3.1-1.6c0-1.5,0-4.1,0-6.7H431.5z"/>
				</g>
				<g>
					<path class="st14" d="M459.6,454.4c-0.9,0-1.8-0.6-1.8-1.6c0-6.7,0-18.9,0.2-26.7c0.1-3.5,2-3.5,5.4-3.5c0.7,0,1.4,0,2,0
						c2.1,0.1,3.2,1.2,3.2,2.8c0,0.7-0.2,1.8-2.2,6c-0.2,0.4-0.3,0.7-0.3,1c0,0.5,0.2,1,0.6,1.5c1.3,1.6,2,3.2,2,5.7
						c0,3.2-2,5.6-4.7,5.6c-0.6,0-2.6-0.1-2.6-1.8c0-0.8,0.6-1.6,1.3-1.6c0.1,0,0.3,0,0.4,0.1c0.2,0,0.3,0.1,0.5,0.1
						c0.8,0,1.7-0.7,1.7-2.7c0-1.7-0.5-3-1.4-4.3c-0.7-1-1-1.8-1-2.6c0-0.7,0.2-1.3,0.5-2.1c0.8-1.8,1.5-4,1.5-4.3
						c0-0.4-0.2-0.7-1.5-0.7c-1.4,0-2.1,0-2.1,1.3c0,3.4-0.1,7.8-0.1,12.4c0,11.5,0,13.2,0,13.7
						C461.4,453.9,460.5,454.4,459.6,454.4z M465.2,452.5c0-0.7,0.4-1.4,1.4-1.8c5-1.8,6.4-4.7,7-8.6c0.1-1,0.9-1.4,1.6-1.4
						c0.9,0,1.9,0.7,1.9,1.7c0,0.1,0,0.2,0,0.3c-1.7,10-9.6,11.5-10.1,11.5C465.8,454.2,465.2,453.4,465.2,452.5z M485.2,432.1v-1.5
						c0-1.3-0.5-1.6-1.7-1.6c-1.5,0-3.3-0.1-5-0.1c-1.7,0-3.4,0-4.8,0.1c-1.4,0-1.8,0.4-1.8,1.5v1.6c0,1-0.9,1.6-1.7,1.6
						c-0.9,0-1.7-0.5-1.7-1.6c0-0.5,0-1.2,0-1.9c0-1.7,0.1-4,3.8-4.1c1.3,0,2.7-0.1,4.1-0.1l0-2.6v0c0-1.1,0.9-1.7,1.9-1.7
						c0.9,0,1.9,0.6,1.9,1.7v0l0,2.6c1.6,0,3.3,0,4.7,0.1c2.4,0.1,3.8,1.2,3.8,3.4c0,2.6,0,2.6,0,2.6c-0.1,1-1,1.6-1.9,1.6
						C486,433.6,485.2,433.1,485.2,432.1L485.2,432.1z M486,447.1c0-1,0.8-1.5,1.6-1.5c0.6,0,1.9,0.3,1.9,1.8c0,5.3-2,6.3-6,6.3
						c-3.8,0-4.8-1.6-4.8-4.3c0-1.3,0-6.9,0.1-9.4l-8.3,0.1c-1,0-1.5-0.8-1.5-1.6c0-0.7,0.5-1.5,1.5-1.5h16.8c1,0,1.4,0.8,1.4,1.6
						c0,0.8-0.5,1.5-1.4,1.5h0l-5-0.1c0,2.2-0.1,6.5-0.1,8.4c0,1,0.1,1.9,1.5,1.9c2.1,0,2.5-0.6,2.5-2.8
						C486,447.4,486,447.2,486,447.1L486,447.1z M474.1,434.5c-1,0-1.6-0.7-1.6-1.5s0.5-1.5,1.6-1.5h8.9c1,0,1.4,0.7,1.4,1.5
						s-0.5,1.5-1.4,1.5H474.1z"/>
				</g>
			</g>
			<g>
				<g>
					<path class="st14" d="M353.1,495.5c-0.7,0-1-0.5-1-0.9c0-0.5,0.4-0.9,1-0.9h9v-1.4h-6.2c-0.7,0-1.1-0.5-1.1-0.9
						c0-0.5,0.4-0.9,1.1-0.9h6.2v-0.6c0-0.7,0.6-1,1.2-1c0.6,0,1.3,0.4,1.3,1.1v0.5h6.4c0.7,0,1,0.5,1,0.9c0,0.5-0.3,0.9-1,0.9h-6.4
						v1.4h9.3c0.7,0,1,0.5,1,0.9c0,0.5-0.3,0.9-1,0.9H353.1z M353.4,485.9c-0.6,0-1-0.5-1-0.9c0-0.5,0.3-0.9,1-0.9h8.8V483h-6.8
						c-0.6,0-1-0.4-1-0.9c0-0.4,0.3-0.9,1-0.9h6.8v-1c-1.5,0-2.9,0-4.1-0.1c-1.9-0.1-2.9-0.9-2.9-2c0-0.5,0-1,0-1.6
						c0-0.5,0-1.1,0-1.5c0.1-0.9,0.8-2,2.9-2c1.4,0,3.4-0.1,5.4-0.1c2,0,4.1,0,5.8,0.1c1.6,0,2.7,1,2.8,1.9c0.1,0.4,0.1,1,0.1,1.6
						c0,0.6,0,1.1-0.1,1.6c-0.1,1.1-1.1,2-2.9,2.1c-1.3,0.1-2.9,0.1-4.5,0.1v1h6.8c0.7,0,1.1,0.5,1.1,0.9c0,0.4-0.3,0.8-0.9,0.8
						h-6.9v1.1h9.1c0.7,0,1,0.5,1,0.9c0,0.5-0.3,0.9-1,0.9H353.4z M352.6,489.4c0-0.3,0.2-0.6,0.7-0.9c0.5-0.3,1.3-1,1.5-1.6
						c0.2-0.5,0.6-0.8,1-0.8c0.6,0,1.2,0.4,1.2,1c0,1.2-1.8,3.3-3.1,3.3C353.1,490.4,352.6,489.9,352.6,489.4z M362.2,477.4h-4.9
						c0,0.1,0,0.2,0,0.3c0.1,0.8,0.5,0.9,1.3,0.9c0.9,0,2.2,0,3.5,0V477.4z M362.2,474.8c-1.4,0-2.6,0-3.5,0c-0.9,0-1.3,0.4-1.3,0.9
						v0.2h4.8V474.8z M360.9,489.9c-0.5,0-1-0.3-1-0.9c0,0,0,0,0-0.1c0-0.1,0-0.1,0-0.2c0-0.6-0.1-1.2-0.3-1.6
						c-0.1-0.1-0.1-0.2-0.1-0.3c0-0.4,0.5-0.7,1-0.7c1.4,0,1.7,2,1.7,2.7S361.6,489.9,360.9,489.9z M369.7,475.7
						c0-0.5-0.4-0.9-1.3-0.9c-0.9,0-2.3,0-3.8,0v1.1h5.1V475.7z M369.7,477.4h-5.1v1.2c1.4,0,2.7,0,3.8,0c0.8,0,1.3-0.3,1.3-0.9
						V477.4z M366.9,489.8c-0.5,0-0.9-0.2-1.1-0.8c-0.2-0.7-0.5-1.2-0.8-1.7c-0.1-0.2-0.2-0.3-0.2-0.4c0-0.4,0.5-0.8,1.1-0.8
						c1.1,0,2.2,1.9,2.2,2.7C368.1,489.5,367.5,489.8,366.9,489.8z M373.1,490.1c-0.4,0-0.8-0.2-1-0.6c-0.4-0.7-1-1.4-1.6-1.9
						c-0.2-0.2-0.4-0.4-0.4-0.6c0-0.5,0.6-0.9,1.2-0.9c1.1,0,3.1,2,3.1,2.9C374.4,489.7,373.7,490.1,373.1,490.1z"/>
				</g>
				<g>
					<path class="st14" d="M395.2,494.6c-2.4,0.1-4.7,0.1-7,0.1c-1.9,0-3.8-0.1-5.5-0.1c-2.3-0.1-3.5-1.2-3.6-3.2
						c-0.1-1.6-0.1-4.3-0.1-6.9c0-2.3,0-4.5,0.1-5.9c0.1-2.3,1.1-3.6,3.6-3.7c2.2-0.1,4.7-0.1,7-0.1c1.9,0,3.9,0,5.6,0.1
						c1.6,0.1,3.2,1.2,3.3,3.1c0.1,1.6,0.1,4.1,0.1,6.5c0,2.7,0,5.3-0.1,6.7C398.5,493.2,397.1,494.6,395.2,494.6z M387.4,477.2
						c-5.3,0-5.7,0.1-5.8,1.9c0,1.1-0.1,2.5-0.1,4.1h5.9V477.2z M387.4,485.4h-5.9c0,2,0,3.9,0.1,5.1c0.1,1.8,0.6,1.9,5.8,1.9V485.4
						z M396.1,483.1c0-1.6-0.1-3-0.1-4.1c-0.1-1.9-0.5-1.9-6.2-1.9v5.9H396.1z M389.9,485.4v7c1.4,0,2.8-0.1,4.1-0.1
						c1.5,0,2-0.7,2.1-1.9c0.1-1.3,0.1-3.1,0.1-5H389.9z"/>
				</g>
				<g>
					<path class="st14" d="M424,492.5c0.8,0,1.2,0.6,1.2,1.2c0,0.6-0.4,1.2-1.2,1.2c-3.2,0.1-6.2,0.1-9.2,0.1c-2.5,0-4.9,0-7.3-0.1
						c-2.3-0.1-3.5-1.2-3.6-3.2s-0.1-4.3-0.1-6.6c0-2.8,0.1-5.7,0.1-8.3c0-1.7,1.4-2.9,3.4-2.9c2.3-0.1,5.1-0.1,7.9-0.1
						c2.8,0,5.6,0,8.2,0.1c0.8,0,1.2,0.6,1.2,1.2c0,0.6-0.4,1.2-1.2,1.2c-3.5,0-7.5-0.1-10.9-0.1c-1.5,0-2.9,0-4,0
						c-1.5,0-1.9,0.5-2,1.8c-0.1,2.2-0.1,4.4-0.1,6.5c0,2.2,0,4.3,0.1,6.3c0.1,1.5,0.6,1.8,2.2,1.8c1.6,0,3.3,0.1,5.2,0.1
						C417,492.7,420.4,492.6,424,492.5L424,492.5z M409.1,491.2c-0.8,0-1.4-0.7-1.4-1.3c0-0.4,0.2-0.8,0.7-1
						c2.4-1.1,4.4-2.7,5.9-4.6c-1.5-1-3-1.9-4.5-2.8c-0.5-0.3-0.6-0.6-0.6-1c0-0.6,0.6-1.2,1.3-1.2c0.2,0,0.5,0.1,0.7,0.2
						c1.3,0.7,2.9,1.7,4.6,2.9c0.9-1.5,1.7-3.1,2.3-4.8c0.2-0.5,0.6-0.8,1.1-0.8c0.7,0,1.5,0.6,1.5,1.4c0,0.6-1.4,3.2-2.9,5.5
						c3.4,2.5,4.1,3.3,4.1,4.2c0,0.8-0.7,1.5-1.4,1.5c-0.4,0-0.7-0.2-1.1-0.6c-0.9-1.1-1.9-2.1-3.1-3.1
						C413.1,489.8,410,491.2,409.1,491.2z"/>
				</g>
				<g>
					<path class="st14" d="M432.4,495.7c-0.7-1-2.2-2.2-3.3-2.8c-0.5-0.3-0.7-0.7-0.7-1.1c0-0.6,0.5-1.2,1.3-1.2
						c0.9,0,5.3,2.4,5.3,4.2c0,0.9-0.7,1.5-1.5,1.5C433,496.3,432.6,496.1,432.4,495.7z"/>
				</g>
				<g>
					<path class="st14" d="M450.1,483.7c-1.2-0.9-2.5-1.5-3.5-1.8c-0.5-0.2-0.7-0.5-0.7-0.9c0-0.6,0.6-1.3,1.3-1.3
						c0.8,0,2.9,0.6,4.3,1.7c0.4,0.3,0.6,0.7,0.6,1.1c0,0.8-0.6,1.5-1.3,1.5C450.6,484,450.4,483.9,450.1,483.7z M448,495.6
						c-0.8,0-1.4-0.6-1.4-1.4c0-0.3,0.1-0.6,0.4-0.9c1.7-1.8,3-4.3,4-6.6c0.2-0.5,0.7-0.7,1.1-0.7c0.7,0,1.3,0.5,1.3,1.3
						c0,0.8-2.1,5.3-4.2,7.7C448.8,495.4,448.4,495.6,448,495.6z M451.2,478c-1.1-1.3-2.3-1.9-3.2-2.5c-0.4-0.2-0.6-0.5-0.6-0.8
						c0-0.6,0.7-1.3,1.5-1.3c0.7,0,4.7,2,4.7,3.5c0,0.8-0.7,1.5-1.4,1.5C451.8,478.5,451.5,478.3,451.2,478z M454,494.6
						c-0.8,0-1.2-0.6-1.2-1.2c0-0.6,0.4-1.2,1.2-1.2l5.8,0v-14.7l-4.3,0c-0.8,0-1.2-0.6-1.2-1.2s0.4-1.2,1.2-1.2h12.1
						c0.9,0,1.3,0.6,1.3,1.2s-0.4,1.2-1.3,1.2l-5,0v14.7l6.1,0c0.9,0,1.3,0.6,1.3,1.2c0,0.6-0.4,1.2-1.3,1.2H454z"/>
				</g>
				<g>
					<path class="st14" d="M483.5,495.1l0.1-4.9c-3.5,2.9-8.6,5.1-9.4,5.1c-0.8,0-1.4-0.6-1.4-1.2c0-0.4,0.3-0.9,0.9-1.1
						c3.5-1.2,6.1-2.5,8.9-4.8c-0.8,0-1.6,0.1-2.3,0.1c-2.9,0-3.4-1.5-3.5-2.5c-0.1-0.7-0.1-1.5-0.1-2.2c0-0.9,0-1.8,0.1-2.6
						c0.1-1.1,0.8-2.3,2.9-2.4c1,0,2.4-0.1,3.9-0.1V477h-8.2c-0.8,0-1.2-0.5-1.2-1c0-0.6,0.4-1.1,1.2-1.1h8.2v-1.7
						c0-0.8,0.6-1.1,1.3-1.1s1.3,0.4,1.3,1.1v1.7h8.2c0.8,0,1.1,0.5,1.1,1.1s-0.4,1.1-1.1,1.1H486v1.6c1.5,0,3,0,4.2,0.1
						c1.6,0,2.7,1.1,2.8,2.2c0.1,0.6,0.1,1.4,0.1,2.3c0,0.9,0,1.9-0.1,2.7c-0.1,1.3-1.2,2.5-2.9,2.5c-0.2,0-0.4,0-0.6,0
						c-0.8,0-1.7,0-2.6-0.1c2.9,2.2,5.8,3.3,9,4.4c0.6,0.2,0.9,0.6,0.9,1.1c0,0.6-0.5,1.5-1.6,1.5c-0.7,0-5-1.7-9.3-5.1
						c0,1.5,0.1,2.5,0.1,5c0,0.7-0.6,1.1-1.3,1.1C484.1,496.2,483.5,495.8,483.5,495.1L483.5,495.1z M483.5,480.5
						c-1.2,0-2.3,0-3.2,0.1c-1.3,0.1-1.3,0.9-1.3,1.9h4.5V480.5z M483.5,484.4H479c0,1.3,0.1,1.9,1.4,2c0.9,0,2,0,3.2,0L483.5,484.4
						z M486,484.4v2c1.2,0,2.3,0,3.3,0c1.3,0,1.3-0.9,1.3-2H486z M490.7,482.5c0-0.3,0-0.6,0-0.9c-0.1-1.1-0.6-1.1-4.6-1.1v2H490.7z
						"/>
				</g>
				<g>
					<path class="st14" d="M520.4,492.5c0.8,0,1.2,0.6,1.2,1.2c0,0.6-0.4,1.2-1.2,1.2c-3.2,0.1-6.2,0.1-9.2,0.1
						c-2.5,0-4.9,0-7.3-0.1c-2.3-0.1-3.5-1.2-3.6-3.2s-0.1-4.3-0.1-6.6c0-2.8,0.1-5.7,0.1-8.3c0-1.7,1.4-2.9,3.4-2.9
						c2.3-0.1,5.1-0.1,7.9-0.1c2.8,0,5.6,0,8.2,0.1c0.8,0,1.2,0.6,1.2,1.2c0,0.6-0.4,1.2-1.2,1.2c-3.5,0-7.5-0.1-10.9-0.1
						c-1.5,0-2.9,0-4,0c-1.5,0-1.9,0.5-2,1.8c-0.1,2.2-0.1,4.4-0.1,6.5c0,2.2,0,4.3,0.1,6.3c0.1,1.5,0.6,1.8,2.2,1.8
						c1.6,0,3.3,0.1,5.2,0.1C513.4,492.7,516.8,492.6,520.4,492.5L520.4,492.5z M505.5,491.2c-0.8,0-1.4-0.7-1.4-1.3
						c0-0.4,0.2-0.8,0.7-1c2.4-1.1,4.4-2.7,5.9-4.6c-1.5-1-3-1.9-4.5-2.8c-0.5-0.3-0.6-0.6-0.6-1c0-0.6,0.6-1.2,1.3-1.2
						c0.2,0,0.5,0.1,0.7,0.2c1.3,0.7,2.9,1.7,4.6,2.9c0.9-1.5,1.7-3.1,2.3-4.8c0.2-0.5,0.6-0.8,1.1-0.8c0.7,0,1.5,0.6,1.5,1.4
						c0,0.6-1.4,3.2-2.9,5.5c3.4,2.5,4.1,3.3,4.1,4.2c0,0.8-0.7,1.5-1.4,1.5c-0.4,0-0.7-0.2-1.1-0.6c-0.9-1.1-1.9-2.1-3.1-3.1
						C509.5,489.8,506.3,491.2,505.5,491.2z"/>
				</g>
				<g>
					<path class="st14" d="M528.7,495.7c-0.7-1-2.2-2.2-3.3-2.8c-0.5-0.3-0.7-0.7-0.7-1.1c0-0.6,0.5-1.2,1.3-1.2
						c0.9,0,5.3,2.4,5.3,4.2c0,0.9-0.7,1.5-1.5,1.5C529.4,496.3,529,496.1,528.7,495.7z"/>
				</g>
				<g>
					<path class="st14" d="M354,525.4c-0.9,0-1.3-0.7-1.3-1.4c0-0.6,0.4-1.2,1.2-1.2c1.2,0,2.5-0.1,3.9-0.1c1.1-1.9,2.8-5.6,3.3-7.8
						c0.2-0.6,0.6-0.9,1.2-0.9c0.8,0,1.6,0.5,1.6,1.4c0,1.4-3.2,7-3.3,7.1c2.9-0.2,5.8-0.4,8.4-0.8c-0.6-0.5-1.2-0.9-1.8-1.4
						c-0.4-0.3-0.5-0.6-0.5-1c0-0.6,0.6-1.2,1.3-1.2c0.3,0,0.6,0.1,0.9,0.3c0.8,0.5,5.8,4.2,5.8,6c0,0.9-0.7,1.6-1.5,1.6
						c-0.4,0-0.8-0.2-1.2-0.7c-0.4-0.6-0.7-1.1-1.1-1.6C364.6,524.9,355.1,525.4,354,525.4z M363.4,527.4c1.7,0,3.5,0,5.2,0.1
						c1.6,0.1,2.8,1.2,2.9,2.5c0.1,0.7,0.1,1.5,0.1,2.3c0,0.8,0,1.6-0.1,2.3c-0.1,1.5-1.2,2.8-3,2.8c-1.6,0.1-3.3,0.1-4.9,0.1
						c-1.6,0-3.3,0-4.8-0.1c-2-0.1-2.9-1.2-3.1-2.8c0-0.7-0.1-1.4-0.1-2.2s0-1.5,0.1-2.2c0.1-1.3,0.8-2.6,3-2.7
						C360.1,527.4,361.7,527.4,363.4,527.4z M368.9,532.5c0-0.6,0-1.2-0.1-1.7c-0.1-1.2-0.6-1.2-5.3-1.2c-1.4,0-2.9,0-4,0.1
						c-1.3,0.1-1.3,0.9-1.3,2.8c0,0.5,0,1,0.1,1.3c0.1,1.2,0.5,1.2,5.2,1.2c1.4,0,2.8,0,4.2-0.1C368.9,534.9,368.9,534,368.9,532.5z
						"/>
				</g>
				<g>
					<path class="st14" d="M386.9,537.1l0.1-4.9c-3.5,2.9-8.6,5.1-9.4,5.1c-0.8,0-1.4-0.6-1.4-1.2c0-0.4,0.3-0.9,0.9-1.1
						c3.5-1.2,6.1-2.5,8.9-4.8c-0.8,0-1.6,0.1-2.3,0.1c-2.9,0-3.4-1.5-3.5-2.5c-0.1-0.7-0.1-1.5-0.1-2.2c0-0.9,0-1.8,0.1-2.6
						c0.1-1.1,0.8-2.3,2.9-2.4c1,0,2.4-0.1,3.9-0.1V519h-8.2c-0.8,0-1.2-0.5-1.2-1c0-0.6,0.4-1.1,1.2-1.1h8.2v-1.7
						c0-0.8,0.6-1.1,1.3-1.1s1.3,0.4,1.3,1.1v1.7h8.2c0.8,0,1.1,0.5,1.1,1.1s-0.4,1.1-1.1,1.1h-8.3v1.6c1.5,0,3,0,4.2,0.1
						c1.6,0,2.7,1.1,2.8,2.2c0.1,0.6,0.1,1.4,0.1,2.3c0,0.9,0,1.9-0.1,2.7c-0.1,1.3-1.2,2.5-2.9,2.5c-0.2,0-0.4,0-0.6,0
						c-0.8,0-1.7,0-2.6-0.1c2.9,2.2,5.8,3.3,9,4.4c0.6,0.2,0.9,0.6,0.9,1.1c0,0.6-0.5,1.5-1.6,1.5c-0.7,0-5-1.7-9.3-5.1
						c0,1.5,0.1,2.5,0.1,5c0,0.7-0.6,1.1-1.3,1.1C387.5,538.2,386.9,537.8,386.9,537.1L386.9,537.1z M386.9,522.5
						c-1.2,0-2.3,0-3.2,0.1c-1.3,0.1-1.3,0.9-1.3,1.9h4.5V522.5z M386.9,526.4h-4.5c0,1.3,0.1,1.9,1.4,2c0.9,0,2,0,3.2,0
						L386.9,526.4z M389.4,526.4v2c1.2,0,2.3,0,3.3,0c1.3,0,1.3-0.9,1.3-2H389.4z M394.1,524.5c0-0.3,0-0.6,0-0.9
						c-0.1-1.1-0.6-1.1-4.6-1.1v2H394.1z"/>
				</g>
				<g>
					<path class="st14" d="M423.8,534.5c0.8,0,1.2,0.6,1.2,1.2c0,0.6-0.4,1.2-1.2,1.2c-3.2,0.1-6.2,0.1-9.2,0.1
						c-2.5,0-4.9,0-7.3-0.1c-2.3-0.1-3.5-1.2-3.6-3.2s-0.1-4.3-0.1-6.6c0-2.8,0.1-5.7,0.1-8.3c0-1.7,1.4-2.9,3.4-2.9
						c2.3-0.1,5.1-0.1,7.9-0.1c2.8,0,5.6,0,8.2,0.1c0.8,0,1.2,0.6,1.2,1.2c0,0.6-0.4,1.2-1.2,1.2c-3.5,0-7.5-0.1-10.9-0.1
						c-1.5,0-2.9,0-4,0c-1.5,0-1.9,0.5-2,1.8c-0.1,2.2-0.1,4.4-0.1,6.5c0,2.2,0,4.3,0.1,6.3c0.1,1.5,0.6,1.8,2.2,1.8
						c1.6,0,3.3,0.1,5.2,0.1C416.8,534.7,420.2,534.6,423.8,534.5L423.8,534.5z M408.9,533.2c-0.8,0-1.4-0.7-1.4-1.3
						c0-0.4,0.2-0.8,0.7-1c2.4-1.1,4.4-2.7,5.9-4.6c-1.5-1-3-1.9-4.5-2.8c-0.5-0.3-0.6-0.6-0.6-1c0-0.6,0.6-1.2,1.3-1.2
						c0.2,0,0.5,0.1,0.7,0.2c1.3,0.7,2.9,1.7,4.6,2.9c0.9-1.5,1.7-3.1,2.3-4.8c0.2-0.5,0.6-0.8,1.1-0.8c0.7,0,1.5,0.6,1.5,1.4
						c0,0.6-1.4,3.2-2.9,5.5c3.4,2.5,4.1,3.3,4.1,4.2c0,0.8-0.7,1.5-1.4,1.5c-0.4,0-0.7-0.2-1.1-0.6c-0.9-1.1-1.9-2.1-3.1-3.1
						C412.8,531.8,409.7,533.2,408.9,533.2z"/>
				</g>
			</g>
		</g>
	</g>
</g>
<path class="st14" d="M435.1,88.4H154.5c-18,0-32.6-14.6-32.6-32.6v0c0-18,14.6-32.6,32.6-32.6h280.6c18,0,32.6,14.6,32.6,32.6v0
	C467.7,73.8,453.1,88.4,435.1,88.4z"/>
<g>
	<path class="st0" d="M198.6,47.7c-1.2,0-1.7-0.8-1.7-1.6c0-0.8,0.6-1.6,1.7-1.6H210c1.2,0,1.7,0.8,1.7,1.6c0,0.8-0.6,1.6-1.7,1.6
		H198.6z M231.1,47.7l-8.7-0.1c-0.1,1.4-0.2,2.9-0.4,4.2c1.6,0,3-0.1,4.8-0.1c2.5,0,4,1.2,4,3.8c0,8.2-0.9,17-7.9,17
		c-1.3,0-2.7-0.3-4.4-1c-0.8-0.3-1.2-1-1.2-1.7c0-1.1,0.8-2.2,1.8-2.2c0.2,0,0.4,0,0.6,0.2c1.2,0.6,2.1,0.9,3,0.9
		c4.2,0,4.3-9.3,4.3-12.2c0-1.1-0.6-1.5-1.4-1.5c-1.3,0-2.6,0-4,0c-1,7.1-3.3,13-8.8,17.4c-0.4,0.3-0.9,0.5-1.4,0.5
		c-1.1,0-2.1-0.8-2.2-1.9c-1,1.1-2.1,1.1-5.3,1.1c-1,0-2,0-2.8-0.1c-1.8-0.1-2.9-1.4-3-3.2c0-1,0-2,0-3s0-1.9,0-2.8
		c0-1.5,1-2.9,2.9-3c0.8,0,1.7-0.1,2.6-0.1c1.1,0,2.3,0,3.2,0.1c1.5,0.1,3.2,1.1,3.2,2.8c0,0.9,0,2,0,3c0,1,0,2,0,2.9
		c0,0.2,0,0.5-0.1,0.7c0.1,0,0.1-0.1,0.2-0.2c6.8-5,8-13.5,8.3-21.8l-4.6,0.1h0c-1.2,0-1.8-0.9-1.8-1.8s0.6-1.8,1.8-1.8h5.7v-4.2
		c0-1.2,1-1.8,2-1.8c1,0,2,0.6,2,1.8V44h7.5c1.2,0,1.8,0.9,1.8,1.8S232.3,47.7,231.1,47.7L231.1,47.7z M200.2,42.2
		c-1.1,0-1.6-0.8-1.6-1.6s0.5-1.6,1.6-1.6h8.5c1.1,0,1.6,0.8,1.6,1.6s-0.6,1.6-1.6,1.6H200.2z M200.3,52.9c-1.1,0-1.6-0.8-1.6-1.6
		s0.5-1.6,1.6-1.6h8.5c1.1,0,1.6,0.8,1.6,1.6s-0.6,1.6-1.6,1.6H200.3z M200.3,58.1c-1.1,0-1.6-0.8-1.6-1.6s0.5-1.6,1.6-1.6h8.5
		c1.1,0,1.6,0.8,1.6,1.6s-0.6,1.6-1.6,1.6H200.3z M206.8,66.1c0-0.7,0-1.4,0-2c-0.1-1-0.8-1.1-2.6-1.1c-2.6,0-2.6,0-2.6,3
		c0,0.7,0,1.4,0,2c0,0.6,0.2,1,2.5,1c1.4,0,2.6,0,2.7-1C206.8,67.5,206.8,66.8,206.8,66.1z"/>
	<path class="st0" d="M243.3,73.3c-1,0-1.9-0.6-1.9-1.6c0,0,0,0,0-0.1c0.3-7.3,0.2-20,0.3-28.6c0-3.9,2.7-3.9,6.9-3.9
		c1.5,0,3.2,0,3.9,0c2,0.1,3.5,1.4,3.6,3.2c0,1.4,0.1,2.9,0.1,4.4c0,5.1,0,6.1-8,6.1c-1,0-2,0-2.8-0.1c0,1,0,2.2,0,3.6
		c0,4.3,0,9.7-0.2,15.4C245.2,72.8,244.3,73.3,243.3,73.3z M252.6,44.6c0-0.5,0-1,0-1.4c-0.1-1.1-0.3-1.2-3.5-1.2
		c-3.3,0-3.6,0.1-3.6,1.6c0,0.3,0,0.7,0,1H252.6z M245.4,47.2v2.6c0.6,0,1.8,0,3,0c3.9,0,4.2-0.2,4.2-1.3c0-0.4,0-0.8,0-1.3H245.4z
		 M261.1,67.8c-0.9,0.1-2.2,0.1-3.5,0.1c-6.6,0-7.8-0.1-7.8-5.9c0-1.2,0-2.3,0.1-3.4c0.1-2.1,1.5-3.5,3.7-3.6c1,0,2.4-0.1,3.9-0.1
		c1.5,0,2.9,0,3.8,0.1c2,0.1,3.6,1.6,3.7,3.6c0,1,0.1,2.2,0.1,3.3c0,0.7,0,1.4,0,2.1C264.9,66.1,263.5,67.6,261.1,67.8z M261.3,60.6
		c0-2.5-0.2-2.6-4-2.6c-3.8,0-3.9,0.1-3.9,3c0,0.8,0,1.6,0,2.3c0.1,1.2,1.1,1.3,3.9,1.3c0.9,0,1.8,0,2.4,0
		C261.3,64.5,261.3,63.9,261.3,60.6z M267,52.8c-4.7,0-8,0-8.2-3.5c0-0.8,0-1.7,0-2.6c0-1.5,0-3,0.1-4.4c0.1-1.8,1.4-3.1,3.5-3.2
		c0.8,0,2.4,0,4.1,0c1.2,0,2.3,0,3,0c3,0.2,4.2,1.8,4.2,3.6c0,1,0,2,0,3c0,6,0.1,12.2,0.1,17.3c0,1.9,0,3.6,0,5c0,2.8-1.4,5.3-6,5.3
		c-2.8,0-4.2-0.4-4.2-2.1c0-0.9,0.6-1.8,1.6-1.8c0.1,0,0.2,0,0.3,0c0.8,0.1,1.5,0.2,2.1,0.2c1.3,0,2.3-0.5,2.4-2.4
		c0-1.6,0.1-3.3,0.1-5c0-2.6,0-5.3,0-7.8c0-0.6,0-1.1,0-1.6C269.2,52.7,268.2,52.8,267,52.8z M269.9,44.6c0-2.6-0.1-2.6-3.8-2.6
		c-3.2,0-3.6,0-3.7,1.3c0,0.4,0,0.8,0,1.3H269.9z M270,47.2h-7.6c0,0.5,0,0.9,0,1.3c0,1.1,0.2,1.3,4.4,1.3c1.3,0,2.6,0,3.2,0V47.2z"
		/>
	<path class="st0" d="M290.1,52.5c-2.6-0.1-2.5-3.8,0.1-3.8c5.2,0.1,12.2,0,18.2-0.2c1.4,0,2.1,0.9,2.1,1.9c0,1-0.8,1.9-2.1,2
		c-2,0-4.5,0.1-7.1,0.1c0,3.4,0,8,0,10.6c4.4,0,8.8-0.1,12.4-0.1c1.3,0,2,1,2,2.1c0,1-0.8,2-2.4,2c-8.5-0.2-20-0.1-27.7,0.1
		c-3.2,0.1-3-3.9,0-3.9c3.1-0.1,7.3-0.1,11.6-0.2c0.1-3,0-8.2,0-10.6C294.4,52.6,291.8,52.6,290.1,52.5z"/>
	<path class="st0" d="M329.5,59.7c-1,0-2.2-0.7-2.1-2c0.2-4,0.1-10.2-0.1-14c-0.1-2.5,4-2.7,4.2-0.2c0.2,3.6,0.2,10.4,0.1,14.2
		C331.6,59,330.5,59.7,329.5,59.7z M329.8,69.4c7.1-3.9,8.7-9.3,8.7-15.2c0-3.1-0.2-8.1-0.2-11.2c0-2.6,4.3-2.4,4.3,0
		c-0.1,3.4,0.1,7.9,0.1,11.2c0,6.9-2.1,13.8-10.4,18.6C329,74.5,327.3,70.8,329.8,69.4z"/>
	<path class="st0" d="M360.9,71.5c-1.6,1-3.1,0.6-3.8-0.4s-0.5-2.3,1.1-3.1c6.7-3.3,9-9.9,8.4-15.7c-0.2-1.7,0.9-2.4,2.2-2.4
		c1.2,0,2.4,0.6,2.4,2.3c0,0.5,0,1,0,1.5c0.1,0,0.2-0.1,0.3-0.2c2.7-1.1,5.7-2.9,7.3-5c0.6-0.8,0.6-1.4-0.4-1.4
		c-4.5,0-13.2,0.1-18.8,0.4c-3.5,0.2-3.3-3.7-0.3-3.8c5.8-0.3,14.5-0.2,20.5-0.2c4.2,0,6.1,3.5,3.3,6.6c-2.6,3-5.6,5.6-9.9,7.1
		c-0.9,0.3-1.7,0.2-2.3-0.1C369.9,63,366.9,67.8,360.9,71.5z"/>
</g>
<g>
	<path class="st15" d="M586.8,2.8v583.9H2.8V2.8H586.8 M589.6,0H0v589.6h589.6V0L589.6,0z"/>
</g>
</svg>
